<svg width="32" height="32" viewBox="0 0 32 32" fill="none" xmlns="http://www.w3.org/2000/svg">
    <rect width="32" height="32" fill="#FAFAFA" />
    <path
        d="M7.08027 15.9994C7.49675 16.4895 7.705 17.0495 7.705 17.7495C7.705 18.3095 7.56617 18.8696 7.28851 19.2896C6.94144 19.7796 6.52495 20.1296 5.96964 20.4096C5.34491 20.6896 4.65076 20.8296 3.67896 20.8296C2.98482 20.8996 2.29068 20.8296 1.66595 20.6196C1.04122 20.4096 0.485901 20.2696 0 19.9196L0.971802 17.8895C1.31887 18.1695 1.73536 18.3095 2.22126 18.5195C2.63775 18.6595 3.12365 18.7296 3.54013 18.7296C3.95662 18.7296 4.37311 18.5895 4.65076 18.4495C4.92842 18.3095 4.99784 18.0295 4.99784 17.7495C4.99784 17.1195 4.51194 16.8395 3.60955 16.8395H2.49892V15.1594L4.16486 13.3393H0.485901V11.2393H7.2191V12.8493L5.27549 14.9494C6.10847 15.2294 6.66378 15.5094 7.08027 15.9994Z"
        fill="black" />
    <path
        d="M15.4101 18.5896V20.6897H8.19098V19.0096L11.7311 15.7195C12.0782 15.3695 12.2864 15.0895 12.4253 14.8794C12.5641 14.6694 12.5641 14.4594 12.5641 14.1794C12.5641 13.8294 12.4253 13.6194 12.217 13.4794C12.0088 13.3394 11.7311 13.1994 11.3146 13.1994C10.9676 13.1994 10.6899 13.2694 10.3428 13.4094C10.0652 13.5494 9.78751 13.7594 9.64868 14.0394L7.70508 12.9194C8.05215 12.2893 8.53805 11.7993 9.23219 11.5193C9.85692 11.2393 10.6899 11.0293 11.5229 11.0293C12.217 11.0293 12.8417 11.1693 13.3971 11.3793C13.9524 11.5893 14.3689 11.9393 14.7159 12.3593C15.063 12.7794 15.2018 13.2694 15.2018 13.8994C15.2018 14.3894 15.063 14.8794 14.8548 15.3695C14.6465 15.7895 14.23 16.3495 13.6053 16.9095L11.8005 18.5196H15.3407C15.4101 18.4496 15.4101 18.5896 15.4101 18.5896Z"
        fill="black" />
    <path d="M20.7549 11.3093V20.7596H18.1172V13.3393H16.3818V11.2393H20.7549V11.3093Z" fill="black" />
    <path
        d="M9.85669 4.86914V9.13931H13.0498V8.08927H28.8068V23.9099H13.0498V22.8598H9.85669V27.13H31.9999V4.86914H9.85669Z"
        fill="#FF5500" />
</svg>