<svg width="32" height="32" viewBox="0 0 32 32" fill="none" xmlns="http://www.w3.org/2000/svg">
    <path opacity="0.144" fill-rule="evenodd" clip-rule="evenodd"
        d="M11.8661 0.0146892C14.9762 -0.0244928 18.0854 0.0147127 21.1939 0.132282C23.2347 5.09263 25.0721 10.1491 26.7057 15.3018C28.1027 15.2287 29.4807 15.3071 30.8396 15.537C30.981 16.1642 30.981 16.7913 30.8396 17.4185C30.2886 18.8999 29.7586 20.3896 29.2496 21.887C30.07 24.5002 30.9534 27.0872 31.8995 29.6482C32.0626 30.2594 32.0272 30.8474 31.7935 31.4121C21.2644 32.196 10.7355 32.196 0.206483 31.4121C-0.0271976 30.8474 -0.0625369 30.2594 0.100486 29.6482C1.11354 27.1656 2.06751 24.6568 2.9624 22.1222C2.45351 20.6248 1.92353 19.1351 1.37245 17.6537C1.23111 16.9481 1.23111 16.2426 1.37245 15.537C2.8564 15.3802 4.34036 15.2234 5.82431 15.0666C7.77964 10.0049 9.79358 4.98759 11.8661 0.0146892ZM16.106 14.8314C16.2733 14.898 16.4146 15.0155 16.53 15.1842C16.251 15.3084 16.1097 15.1908 16.106 14.8314ZM13.1381 24.0037C13.6327 24.0037 14.1274 24.0037 14.6221 24.0037C14.6221 25.3365 14.6221 26.6691 14.6221 28.0019C14.3394 28.0019 14.0567 28.0019 13.7741 28.0019C13.585 26.6646 13.373 25.3318 13.1381 24.0037ZM17.802 24.0037C18.2259 24.0037 18.6499 24.0037 19.0739 24.0037C18.9389 25.2627 18.7623 26.5169 18.5439 27.7667C18.3296 27.9636 18.0822 28.0419 17.802 28.0019C17.802 26.6691 17.802 25.3365 17.802 24.0037Z"
        fill="#010202" />
    <path fill-rule="evenodd" clip-rule="evenodd"
        d="M20.3459 0.25C20.3238 0.768069 20.1826 1.23844 19.9219 1.66112C18.7209 4.79576 17.5196 7.93159 16.318 11.0686C15.6948 12.53 15.1294 14.0195 14.622 15.5371C11.9368 15.5371 9.25154 15.5371 6.56628 15.5371C8.51561 10.4605 10.4236 5.36474 12.2901 0.25C14.9754 0.25 17.6605 0.25 20.3459 0.25Z"
        fill="#0D76B9" />
    <path fill-rule="evenodd" clip-rule="evenodd"
        d="M19.9219 1.66105C20.1076 1.63026 20.249 1.70868 20.3459 1.89624C19.4067 4.91989 18.2408 7.82052 16.848 10.5981C16.7434 10.9825 16.708 11.3744 16.742 11.7741C16.6006 11.5389 16.4593 11.3037 16.318 11.0685C17.5196 7.93152 18.7209 4.79569 19.9219 1.66105Z"
        fill="#053450" />
    <path fill-rule="evenodd" clip-rule="evenodd"
        d="M20.3459 0.25C20.6109 0.268203 20.7875 0.424979 20.8759 0.720373C21.8326 3.46919 22.7866 6.21304 23.7378 8.9519C21.9878 8.68511 20.2212 8.64592 18.438 8.83431C18.2614 9.34389 17.9434 9.69667 17.484 9.89265C17.0815 10.6866 16.9048 11.5489 16.954 12.4797C16.7624 12.313 16.6917 12.0778 16.742 11.7741C16.708 11.3745 16.7434 10.9825 16.848 10.5982C18.2408 7.82058 19.4068 4.91996 20.3459 1.89631C20.249 1.70874 20.1076 1.63033 19.9219 1.66112C20.1827 1.23844 20.3239 0.768069 20.3459 0.25Z"
        fill="#084971" />
    <path opacity="0.222" fill-rule="evenodd" clip-rule="evenodd"
        d="M16.318 11.0684C16.4594 11.3035 16.6007 11.5387 16.742 11.7739C16.6917 12.0775 16.7624 12.3127 16.954 12.4795C17.0167 12.927 17.158 13.319 17.378 13.6554C17.5069 14.3202 17.7189 14.9474 18.014 15.5369C16.8833 15.5369 15.7527 15.5369 14.6221 15.5369C15.1295 14.0193 15.6948 12.5297 16.318 11.0684ZM16.106 14.8313C16.1097 15.1907 16.251 15.3083 16.53 15.1841C16.4146 15.0154 16.2733 14.8979 16.106 14.8313Z"
        fill="#000204" />
    <path fill-rule="evenodd" clip-rule="evenodd"
        d="M23.7378 8.95184C24.2321 10.3618 24.7267 11.7729 25.2217 13.1852C22.5268 13.0332 19.9123 13.19 17.3779 13.6556C17.158 13.3192 17.0167 12.9272 16.954 12.4796C16.9048 11.5489 17.0814 10.6865 17.4839 9.89258C17.9433 9.6966 18.2613 9.34382 18.4379 8.83424C20.2212 8.64586 21.9877 8.68504 23.7378 8.95184Z"
        fill="#0A5A8B" />
    <path fill-rule="evenodd" clip-rule="evenodd"
        d="M25.2217 13.185C25.5456 13.9491 25.8282 14.733 26.0697 15.5369C26.0697 15.6153 26.0697 15.6937 26.0697 15.7721C23.4452 15.6202 20.9013 15.777 18.4379 16.2425C18.2965 16.0073 18.1553 15.7721 18.0139 15.5369C17.7188 14.9474 17.5068 14.3202 17.3779 13.6554C19.9123 13.1898 22.5268 13.033 25.2217 13.185Z"
        fill="#0C659C" />
    <path fill-rule="evenodd" clip-rule="evenodd"
        d="M6.56633 15.5371C9.25159 15.5371 11.9368 15.5371 14.6221 15.5371C15.7527 15.5371 16.8834 15.5371 18.014 15.5371C18.1554 15.7723 18.2966 16.0075 18.438 16.2427C18.7833 17.4739 19.2073 18.6498 19.7099 19.7705C19.7099 19.9273 19.7099 20.084 19.7099 20.2408C14.8391 20.7089 9.89263 20.8657 4.87038 20.7112C4.72904 20.7112 4.58773 20.7112 4.44639 20.7112C4.1973 20.7627 3.9853 20.6844 3.81041 20.476C3.23538 18.8356 2.59939 17.2285 1.90247 15.6547C3.45549 15.5372 5.0101 15.498 6.56633 15.5371Z"
        fill="#E88C18" />
    <path opacity="0.996" fill-rule="evenodd" clip-rule="evenodd"
        d="M26.0697 15.5371C27.4123 15.5371 28.755 15.5371 30.0976 15.5371C29.6308 17.1233 29.1008 18.6912 28.5076 20.2408C28.4192 20.5362 28.2426 20.6931 27.9776 20.7112C27.7154 20.3667 27.5034 19.9746 27.3417 19.5353C26.959 18.2615 26.535 17.0072 26.0697 15.7723C26.0697 15.6939 26.0697 15.6155 26.0697 15.5371Z"
        fill="#E08714" />
    <path fill-rule="evenodd" clip-rule="evenodd"
        d="M26.0698 15.7721C26.5351 17.0071 26.9591 18.2613 27.3417 19.5351C24.7601 19.458 22.2161 19.5363 19.71 19.7703C19.2073 18.6496 18.7833 17.4738 18.438 16.2425C20.9014 15.777 23.4453 15.6202 26.0698 15.7721Z"
        fill="#1271AD" />
    <path fill-rule="evenodd" clip-rule="evenodd"
        d="M19.7099 20.2407C19.889 20.5161 20.0302 20.8299 20.1338 21.1815C15.0801 21.1036 10.0629 21.1819 5.0823 21.4167C4.89066 21.2499 4.82 21.0147 4.8703 20.7111C9.89256 20.8656 14.8391 20.7087 19.7099 20.2407Z"
        fill="#867E74" />
    <path fill-rule="evenodd" clip-rule="evenodd"
        d="M27.3416 19.5353C27.5034 19.9746 27.7154 20.3667 27.9776 20.7112C29.0348 23.6852 30.0948 26.6643 31.1575 29.6483C28.476 29.8833 25.7907 29.9616 23.1017 29.8835C23.0095 29.2586 22.7975 28.7097 22.4658 28.2372C22.0918 27.0189 21.6678 25.843 21.1938 24.7094C21.0094 23.5986 20.6562 22.5796 20.1338 21.652C20.1338 21.4951 20.1338 21.3385 20.1338 21.1816C20.0302 20.83 19.889 20.5163 19.7098 20.2409C19.7098 20.084 19.7098 19.9274 19.7098 19.7705C22.216 19.5365 24.76 19.4582 27.3416 19.5353Z"
        fill="#0F79BB" />
    <path fill-rule="evenodd" clip-rule="evenodd"
        d="M20.1339 21.1814C20.1339 21.3383 20.1339 21.4949 20.1339 21.6518C15.1116 21.4973 10.1651 21.6542 5.29433 22.1222C5.10269 21.9554 5.03204 21.7203 5.08234 21.4166C10.0629 21.1819 15.0801 21.1036 20.1339 21.1814Z"
        fill="#ABA194" />
    <path fill-rule="evenodd" clip-rule="evenodd"
        d="M20.1339 21.6519C20.6562 22.5794 21.0094 23.5985 21.1938 24.7093C21.1302 25.8855 20.9182 27.0224 20.5579 28.1195C21.19 28.2366 21.826 28.2759 22.4658 28.2371C22.7976 28.7096 23.0096 29.2585 23.1018 29.8834C17.9433 29.8834 12.7847 29.8834 7.62624 29.8834C6.80737 27.3149 6.03006 24.7279 5.29431 22.1222C10.1651 21.6542 15.1116 21.4974 20.1339 21.6519ZM13.1381 24.0037C13.3729 25.3318 13.5849 26.6646 13.7741 28.0019C14.0567 28.0019 14.3394 28.0019 14.622 28.0019C14.622 26.6691 14.622 25.3365 14.622 24.0037C14.1274 24.0037 13.6327 24.0037 13.1381 24.0037ZM17.8019 24.0037C17.8019 25.3365 17.8019 26.6691 17.8019 28.0019C18.0822 28.0419 18.3296 27.9636 18.5439 27.7667C18.7623 26.5169 18.9389 25.2627 19.0739 24.0037C18.6499 24.0037 18.2259 24.0037 17.8019 24.0037Z"
        fill="#D1C5B5" />
    <path opacity="0.149" fill-rule="evenodd" clip-rule="evenodd"
        d="M12.0781 22.3574C13.2088 22.3574 14.3394 22.3574 15.47 22.3574C15.47 24.3172 15.47 26.2773 15.47 28.2371C14.622 28.2371 13.7741 28.2371 12.9261 28.2371C12.6981 26.2672 12.4155 24.3071 12.0781 22.3574ZM13.1381 24.0037C13.373 25.3318 13.585 26.6646 13.7741 28.0019C14.0567 28.0019 14.3394 28.0019 14.622 28.0019C14.622 26.6691 14.622 25.3365 14.622 24.0037C14.1274 24.0037 13.6327 24.0037 13.1381 24.0037Z"
        fill="#020201" />
    <path opacity="0.14" fill-rule="evenodd" clip-rule="evenodd"
        d="M16.9539 22.3574C18.0139 22.3574 19.0739 22.3574 20.1338 22.3574C19.9057 24.3276 19.6231 26.2876 19.2859 28.2371C18.4379 28.2371 17.5899 28.2371 16.7419 28.2371C16.9342 26.2869 17.0049 24.3271 16.9539 22.3574ZM17.8019 24.0037C17.8019 25.3365 17.8019 26.6691 17.8019 28.0019C18.0822 28.0419 18.3296 27.9636 18.5439 27.7667C18.7622 26.5169 18.9388 25.2627 19.0739 24.0037C18.6499 24.0037 18.2259 24.0037 17.8019 24.0037Z"
        fill="#010101" />
    <path opacity="0.249" fill-rule="evenodd" clip-rule="evenodd"
        d="M11.0181 24.7092C11.203 25.8915 11.415 27.0674 11.6541 28.237C10.9475 28.237 10.2408 28.237 9.53418 28.237C9.99113 27.0239 10.4858 25.848 11.0181 24.7092Z"
        fill="#030405" />
    <path opacity="0.266" fill-rule="evenodd" clip-rule="evenodd"
        d="M21.1938 24.7092C21.6679 25.8428 22.0918 27.0188 22.4658 28.237C21.826 28.2758 21.19 28.2366 20.5579 28.1194C20.9183 27.0223 21.1302 25.8854 21.1938 24.7092Z"
        fill="#030609" />
    <path fill-rule="evenodd" clip-rule="evenodd"
        d="M11.0182 24.7093C10.4858 25.8481 9.99115 27.024 9.5342 28.2371C9.18997 28.27 8.94265 28.1132 8.79222 27.7667C8.23875 25.964 7.70877 24.1609 7.20227 22.3574C8.34165 22.2803 9.47228 22.3586 10.5942 22.5926C10.7584 23.2944 10.8997 24 11.0182 24.7093Z"
        fill="#08436B" />
    <path opacity="0.999" fill-rule="evenodd" clip-rule="evenodd"
        d="M4.4463 20.7112C4.58764 20.7112 4.72895 20.7112 4.87029 20.7112C4.81998 21.0148 4.89064 21.25 5.08228 21.4167C5.03197 21.7204 5.10263 21.9556 5.29427 22.1223C6.03002 24.7279 6.80734 27.315 7.6262 29.8835C5.36054 29.9615 3.09927 29.8832 0.842407 29.6483C2.04676 26.663 3.24807 23.6842 4.4463 20.7112Z"
        fill="#084067" />
</svg>