<svg width="32" height="32" viewBox="0 0 32 32" fill="none" xmlns="http://www.w3.org/2000/svg">
    <g clip-path="url(#clip0_5341_45)">
        <path fill-rule="evenodd" clip-rule="evenodd"
            d="M-0.0639648 -0.0639648C10.6027 -0.0639648 21.2694 -0.0639648 31.936 -0.0639648C31.936 10.6027 31.936 21.2694 31.936 31.936C21.2694 31.936 10.6027 31.936 -0.0639648 31.936C-0.0639648 21.2694 -0.0639648 10.6027 -0.0639648 -0.0639648Z"
            fill="#D34836" />
        <path fill-rule="evenodd" clip-rule="evenodd"
            d="M5.56802 15.8078C5.40506 14.4427 5.40506 13.0774 5.56802 11.7118C6.59728 7.78043 9.11462 5.41243 13.12 4.60781C16.8254 4.14937 19.8334 5.36537 22.144 8.25581C23.6037 10.5106 24.2224 12.9853 24 15.6798C23.104 15.6798 22.208 15.6798 21.312 15.6798C21.7233 12.4486 20.6139 9.90996 17.984 8.06381C14.491 6.41461 11.5257 7.07595 9.08802 10.0478C7.93497 11.9703 7.67897 14.0184 8.32002 16.1918C9.33147 18.5693 11.1021 19.9985 13.632 20.4798C14.5697 20.5438 15.5084 20.5651 16.448 20.5438C16.448 21.4398 16.448 22.3358 16.448 23.2318C11.5005 23.6507 7.98047 21.6454 5.88802 17.2158C5.68812 16.766 5.58146 16.2966 5.56802 15.8078Z"
            fill="#FEFBFA" />
        <path fill-rule="evenodd" clip-rule="evenodd"
            d="M5.5681 11.7119C5.40514 13.0775 5.40514 14.4428 5.5681 15.8079C5.23121 14.4432 5.23121 13.0778 5.5681 11.7119Z"
            fill="#F5D7D3" />
        <path fill-rule="evenodd" clip-rule="evenodd"
            d="M23.9999 16.7041C23.9999 17.9841 23.9999 19.2641 23.9999 20.5441C25.2373 20.5441 26.4745 20.5441 27.7119 20.5441C27.7119 21.3975 27.7119 22.2507 27.7119 23.1041C26.4514 23.0622 25.2141 23.1049 23.9999 23.2321C23.8727 24.4463 23.8301 25.6836 23.8719 26.9441C23.0185 26.9441 22.1653 26.9441 21.3119 26.9441C21.3119 25.7067 21.3119 24.4695 21.3119 23.2321C20.0319 23.2321 18.7519 23.2321 17.4719 23.2321C17.4719 22.3361 17.4719 21.4401 17.4719 20.5441C18.7519 20.5441 20.0319 20.5441 21.3119 20.5441C21.3119 19.2641 21.3119 17.9841 21.3119 16.7041C22.2079 16.7041 23.1039 16.7041 23.9999 16.7041Z"
            fill="#FEFCFB" />
        <path fill-rule="evenodd" clip-rule="evenodd"
            d="M24 16.7041C24.1272 17.9183 24.1699 19.1556 24.128 20.4161C25.3459 20.3742 26.5405 20.4169 27.712 20.5441C26.4746 20.5441 25.2374 20.5441 24 20.5441C24 19.2641 24 17.9841 24 16.7041Z"
            fill="#D96353" />
        <path fill-rule="evenodd" clip-rule="evenodd"
            d="M27.712 20.5439C27.8388 21.416 27.8816 22.312 27.84 23.2319C26.56 23.2319 25.28 23.2319 24 23.2319C25.2142 23.1047 26.4515 23.0621 27.712 23.1039C27.712 22.2506 27.712 21.3973 27.712 20.5439Z"
            fill="#EDB7B1" />
    </g>
    <defs>
        <clipPath id="clip0_5341_45">
            <rect width="32" height="32" fill="white" />
        </clipPath>
    </defs>
</svg>