<svg width="32" height="32" viewBox="0 0 32 32" fill="none" xmlns="http://www.w3.org/2000/svg">
    <g clip-path="url(#clip0_5438_45)">
        <path fill-rule="evenodd" clip-rule="evenodd"
            d="M-0.0799561 -0.0800781C10.5867 -0.0800781 21.2533 -0.0800781 31.92 -0.0800781C31.92 3.91992 31.92 7.91992 31.92 11.9199C31.5807 11.689 31.2074 11.529 30.8 11.4399C30.5032 11.4144 30.29 11.521 30.16 11.7599C30.0613 11.7776 29.9813 11.831 29.92 11.9199C29.8133 14.6399 29.8133 17.3599 29.92 20.0799C29.9645 20.2265 30.0445 20.333 30.16 20.3999C30.2615 20.6314 30.4482 20.738 30.72 20.7199C30.8912 20.7154 31.0245 20.6622 31.12 20.5599C31.4679 20.5199 31.7346 20.3599 31.92 20.0799C31.92 24.0266 31.92 27.9732 31.92 31.9199C21.2533 31.9199 10.5867 31.9199 -0.0799561 31.9199C-0.0799561 27.9732 -0.0799561 24.0266 -0.0799561 20.0799C0.190978 20.3481 0.510978 20.5614 0.880044 20.7199C1.16807 20.6556 1.43474 20.5489 1.68004 20.3999C1.77883 20.3822 1.85883 20.3289 1.92004 20.2399C2.02672 17.4666 2.02672 14.6932 1.92004 11.9199C1.53377 11.4431 1.08044 11.3364 0.560044 11.5999C0.310154 11.6372 0.0968215 11.7438 -0.0799561 11.9199C-0.0799561 7.91992 -0.0799561 3.91992 -0.0799561 -0.0800781Z"
            fill="#FBFDFD" />
        <path fill-rule="evenodd" clip-rule="evenodd"
            d="M14.8 3.60012C14.6934 3.60012 14.5867 3.60012 14.48 3.60012C14.3501 3.36123 14.1368 3.25455 13.84 3.28012C13.5669 3.31667 13.3002 3.36999 13.04 3.44012C13.0578 3.34134 13.1111 3.26134 13.2 3.20012C13.6267 3.09345 14.0534 3.09345 14.48 3.20012C14.6209 3.31345 14.7276 3.44678 14.8 3.60012Z"
            fill="#789FDF" />
        <path fill-rule="evenodd" clip-rule="evenodd"
            d="M18.48 3.27992C18.0955 3.2716 17.7222 3.32494 17.36 3.43992C17.4899 3.20102 17.7032 3.09435 18 3.11992C18.1961 3.12304 18.3561 3.17638 18.48 3.27992Z"
            fill="#568CD0" />
        <path fill-rule="evenodd" clip-rule="evenodd"
            d="M18.48 3.28014C18.5867 3.28014 18.64 3.33347 18.64 3.44014C18.7192 3.75721 18.7992 4.07721 18.88 4.40014C18.96 6.37275 18.9867 8.34609 18.96 10.3201C18.3793 10.7308 17.7926 10.7308 17.2 10.3201C17.043 8.14611 16.9896 5.95943 17.04 3.76014C17.0932 3.60014 17.2 3.49347 17.36 3.44014C17.7222 3.32516 18.0955 3.27182 18.48 3.28014Z"
            fill="#186EF0" />
        <path fill-rule="evenodd" clip-rule="evenodd"
            d="M10.32 4.87957C10.149 7.65949 10.1224 10.4328 10.24 13.1996C10.1066 12.7996 9.91997 12.7729 9.67997 13.1196C9.81383 13.2814 9.86717 13.468 9.83997 13.6796C9.47107 13.6008 9.09773 13.5474 8.71997 13.5196C8.71997 10.6396 8.71997 7.75957 8.71997 4.87957C9.00427 4.83376 9.27095 4.72711 9.51997 4.55957C9.76899 4.72711 10.0357 4.83376 10.32 4.87957Z"
            fill="#136EF8" />
        <path fill-rule="evenodd" clip-rule="evenodd"
            d="M14.48 3.60007C14.625 5.78271 14.6784 7.96939 14.64 10.1601C14.6672 10.3716 14.6138 10.5583 14.48 10.7201C14.0533 10.8267 13.6266 10.8267 13.2 10.7201C13.111 10.6589 13.0577 10.5789 13.04 10.4801C12.8399 8.13168 12.8399 5.78502 13.04 3.44007C13.3001 3.36995 13.5668 3.31662 13.84 3.28007C14.1367 3.25451 14.35 3.36118 14.48 3.60007Z"
            fill="#156EF6" />
        <path fill-rule="evenodd" clip-rule="evenodd"
            d="M14.48 3.59961C14.5867 3.59961 14.6933 3.59961 14.8 3.59961C14.8526 5.81457 14.7993 8.00124 14.64 10.1596C14.6784 7.96892 14.6251 5.78225 14.48 3.59961Z"
            fill="#266ED1" />
        <path fill-rule="evenodd" clip-rule="evenodd"
            d="M17.0399 3.75977C16.9895 5.95906 17.043 8.14573 17.1999 10.3198C17.1999 10.3731 17.1999 10.4264 17.1999 10.4798C17.1012 10.4621 17.0212 10.4087 16.9599 10.3198C16.8276 8.10543 16.8542 5.91877 17.0399 3.75977Z"
            fill="#B1DEFE" />
        <path fill-rule="evenodd" clip-rule="evenodd"
            d="M18.64 3.44043C18.7933 3.51288 18.9267 3.61955 19.04 3.76043C19.1723 5.97477 19.1458 8.16142 18.96 10.3204C18.9867 8.34638 18.96 6.37304 18.88 4.40043C18.7992 4.0775 18.7192 3.7575 18.64 3.44043Z"
            fill="#2270DB" />
        <path fill-rule="evenodd" clip-rule="evenodd"
            d="M10.32 4.8799C10.0357 4.83409 9.76905 4.72744 9.52003 4.5599C9.271 4.72744 9.00433 4.83409 8.72003 4.8799C8.72003 7.7599 8.72003 10.6399 8.72003 13.5199C8.62124 13.5022 8.54124 13.4489 8.48003 13.3599C8.37336 10.5866 8.37336 7.81323 8.48003 5.0399C8.83304 4.45987 9.33971 4.2732 10 4.4799C10.1409 4.59323 10.2476 4.72656 10.32 4.8799Z"
            fill="#5180DB" />
        <path fill-rule="evenodd" clip-rule="evenodd"
            d="M10.32 4.87988C10.4188 4.89759 10.4988 4.95092 10.56 5.03988C10.6666 7.81321 10.6666 10.5866 10.56 13.3599C9.97445 14.1164 9.36111 14.1697 8.71997 13.5199C9.09773 13.5477 9.47107 13.6011 9.83997 13.6799C9.86717 13.4683 9.81383 13.2817 9.67997 13.1199C9.91997 12.7732 10.1066 12.7999 10.24 13.1999C10.1224 10.4331 10.149 7.6598 10.32 4.87988Z"
            fill="#3374E3" />
        <path fill-rule="evenodd" clip-rule="evenodd"
            d="M13.04 3.44043C12.8399 5.78537 12.8399 8.13203 13.04 10.4804C12.9245 10.4136 12.8445 10.307 12.8 10.1604C12.6933 8.0271 12.6933 5.89376 12.8 3.76043C12.8445 3.6139 12.9245 3.50723 13.04 3.44043Z"
            fill="#3179E5" />
        <path fill-rule="evenodd" clip-rule="evenodd"
            d="M5.52002 7.11956C5.16834 7.05878 4.90169 7.16545 4.72002 7.43956C4.61335 7.49289 4.5067 7.54623 4.40002 7.59956C4.5902 6.98673 4.96354 6.82673 5.52002 7.11956Z"
            fill="#6796D3" />
        <path fill-rule="evenodd" clip-rule="evenodd"
            d="M27.1201 7.1199C26.5421 7.0277 26.0621 7.1877 25.6801 7.5999C25.6818 7.35711 25.7884 7.17044 26.0001 7.0399C26.4063 6.91257 26.7796 6.93924 27.1201 7.1199Z"
            fill="#7AA4E2" />
        <path fill-rule="evenodd" clip-rule="evenodd"
            d="M4.71999 7.44043C4.87887 13.0821 4.93219 18.7355 4.87999 24.4004C5.19999 24.4004 5.51999 24.4004 5.83999 24.4004C5.18915 24.7145 4.6825 24.5545 4.31999 23.9204C4.18704 18.4534 4.21371 13.0134 4.39999 7.60043C4.50666 7.5471 4.61331 7.49376 4.71999 7.44043Z"
            fill="#1D6EE6" />
        <path fill-rule="evenodd" clip-rule="evenodd"
            d="M21.52 13.5199C21.3076 10.6125 21.3076 7.67915 21.52 4.71986C22.1702 4.27229 22.7836 4.32562 23.36 4.87986C23.4667 7.70653 23.4667 10.5332 23.36 13.3599C23.1971 13.8691 22.8504 14.0825 22.32 13.9999C21.9332 14.0016 21.6667 13.8416 21.52 13.5199Z"
            fill="#3574E0" />
        <path fill-rule="evenodd" clip-rule="evenodd"
            d="M21.52 13.5196C21.52 10.6396 21.52 7.75957 21.52 4.87957C21.8043 4.83376 22.0711 4.72711 22.32 4.55957C22.569 4.72711 22.8357 4.83376 23.12 4.87957C22.9731 7.76383 22.9464 10.6438 23.04 13.5196C22.529 13.931 22.0223 13.931 21.52 13.5196Z"
            fill="#136EF8" />
        <path fill-rule="evenodd" clip-rule="evenodd"
            d="M27.12 7.12012C27.3627 7.12181 27.5494 7.22847 27.68 7.44012C27.813 12.9072 27.7862 18.3472 27.6 23.7601C27.6267 18.3732 27.6 12.9865 27.52 7.60012C27.3528 7.46037 27.2195 7.30037 27.12 7.12012Z"
            fill="#97C4FD" />
        <path fill-rule="evenodd" clip-rule="evenodd"
            d="M5.51997 7.12006C5.67863 7.09261 5.7853 7.14595 5.83997 7.28006C5.99786 12.9265 6.05119 18.5797 5.99997 24.2401C5.99997 24.3468 5.94664 24.4001 5.83997 24.4001C5.51997 24.4001 5.19997 24.4001 4.87997 24.4001C4.93218 18.7351 4.87885 13.0817 4.71997 7.44006C4.90163 7.16595 5.16829 7.05928 5.51997 7.12006Z"
            fill="#136EF9" />
        <path fill-rule="evenodd" clip-rule="evenodd"
            d="M5.83997 7.28027C5.99331 7.35272 6.12664 7.45939 6.23997 7.60027C6.34664 13.0936 6.34664 18.587 6.23997 24.0803C6.17875 24.1692 6.09875 24.2225 5.99997 24.2403C6.05118 18.58 5.99785 12.9267 5.83997 7.28027Z"
            fill="#1B6EE3" />
        <path fill-rule="evenodd" clip-rule="evenodd"
            d="M25.68 7.59961C25.6533 12.9865 25.68 18.3732 25.76 23.7596C26.0283 24.3278 26.4816 24.5411 27.12 24.3996C26.4691 24.7137 25.9626 24.5537 25.6 23.9196C25.4671 18.4526 25.4938 13.0126 25.68 7.59961Z"
            fill="#2D75E2" />
        <path fill-rule="evenodd" clip-rule="evenodd"
            d="M27.1199 7.12C27.2195 7.30026 27.3527 7.46026 27.5199 7.6C27.5999 12.9864 27.6267 18.3731 27.5999 23.76C27.5158 24.0368 27.3558 24.2502 27.1199 24.4C26.4815 24.5414 26.0283 24.3282 25.7599 23.76C25.6799 18.3736 25.6532 12.9869 25.6799 7.6C26.062 7.18781 26.542 7.02781 27.1199 7.12Z"
            fill="#166DF2" />
        <path fill-rule="evenodd" clip-rule="evenodd"
            d="M17.2 10.4803C17.2 10.427 17.2 10.3736 17.2 10.3203C17.7926 10.731 18.3793 10.731 18.96 10.3203C18.9737 10.4797 18.9203 10.613 18.8 10.7203C18.2161 10.8744 17.6828 10.7944 17.2 10.4803Z"
            fill="#487BD1" />
        <path fill-rule="evenodd" clip-rule="evenodd"
            d="M0.560044 11.5998C1.05539 11.5048 1.42872 11.6648 1.68004 12.0798C1.88889 14.8586 1.88889 17.6319 1.68004 20.3998C1.43474 20.5487 1.16807 20.6554 0.880044 20.7198C0.510978 20.5612 0.190978 20.3479 -0.0799561 20.0798C-0.0799561 17.3598 -0.0799561 14.6398 -0.0799561 11.9198C0.0968215 11.7437 0.310154 11.637 0.560044 11.5998Z"
            fill="#176EF5" />
        <path fill-rule="evenodd" clip-rule="evenodd"
            d="M0.560059 11.5997C1.08045 11.3362 1.53378 11.4428 1.92006 11.9197C2.02673 14.693 2.02673 17.4664 1.92006 20.2397C1.85884 20.3286 1.77884 20.3819 1.68006 20.3997C1.88891 17.6318 1.88891 14.8585 1.68006 12.0797C1.42874 11.6647 1.0554 11.5047 0.560059 11.5997Z"
            fill="#2F70CE" />
        <path fill-rule="evenodd" clip-rule="evenodd"
            d="M30.16 11.7598C29.9533 14.6361 29.9533 17.5161 30.16 20.3998C30.0445 20.3329 29.9645 20.2263 29.92 20.0798C29.8133 17.3598 29.8133 14.6398 29.92 11.9198C29.9813 11.8308 30.0613 11.7775 30.16 11.7598Z"
            fill="#2D6CCE" />
        <path fill-rule="evenodd" clip-rule="evenodd"
            d="M31.92 11.9202C31.92 14.6402 31.92 17.3602 31.92 20.0802C31.7346 20.3602 31.4679 20.5202 31.12 20.5602C30.8 20.507 30.48 20.4535 30.16 20.4002C29.9533 17.5166 29.9533 14.6365 30.16 11.7602C30.29 11.5213 30.5032 11.4147 30.8 11.4402C31.2074 11.5293 31.5807 11.6893 31.92 11.9202Z"
            fill="#176FF7" />
        <path fill-rule="evenodd" clip-rule="evenodd"
            d="M10.48 26.4798C10.5217 23.756 10.4683 21.036 10.32 18.3198C9.78489 18.08 9.27824 18.1333 8.80003 18.4798C8.72004 21.2526 8.69337 24.0259 8.72003 26.7998C8.60457 26.7329 8.52457 26.6264 8.48003 26.4798C8.37336 23.8131 8.37336 21.1465 8.48003 18.4798C9.16785 17.6461 9.8612 17.6461 10.56 18.4798C10.6926 21.1739 10.6659 23.8406 10.48 26.4798Z"
            fill="#5080D8" />
        <path fill-rule="evenodd" clip-rule="evenodd"
            d="M21.52 26.7999C21.8823 26.9149 22.2556 26.9682 22.64 26.9599C22.64 26.7999 22.64 26.6399 22.64 26.4799C22.8 26.4799 22.96 26.4799 23.12 26.4799C23.0061 24.4026 22.9261 22.3226 22.88 20.2399C22.7698 20.1027 22.6365 19.9962 22.48 19.9199C22.2888 20.2074 22.0221 20.3674 21.68 20.3999C21.7255 20.0935 21.6722 19.8269 21.52 19.5999C21.4823 19.1024 21.5356 18.6224 21.68 18.1599C21.7815 17.9283 21.9682 17.8218 22.24 17.8399C22.69 17.8906 23.0367 18.1039 23.28 18.4799C23.4666 21.145 23.4933 23.8115 23.36 26.4799C23.0204 27.2496 22.4604 27.4629 21.68 27.1199C21.622 27.0106 21.5687 26.9039 21.52 26.7999Z"
            fill="#2D73EC" />
        <path fill-rule="evenodd" clip-rule="evenodd"
            d="M10.48 26.48C10.366 26.9405 10.0727 27.2072 9.59995 27.28C9.21616 27.2619 8.92282 27.1019 8.71995 26.8C8.6933 24.0261 8.71997 21.2528 8.79995 18.48C9.27816 18.1335 9.78482 18.0802 10.32 18.32C10.4683 21.0362 10.5216 23.7562 10.48 26.48Z"
            fill="#166FF5" />
        <path fill-rule="evenodd" clip-rule="evenodd"
            d="M21.52 19.5996C21.6722 19.8266 21.7255 20.0932 21.68 20.3996C22.0221 20.3671 22.2888 20.2071 22.48 19.9196C22.6365 19.9959 22.7698 20.1025 22.88 20.2396C22.9261 22.3223 23.0061 24.4023 23.12 26.4796C22.96 26.4796 22.8 26.4796 22.64 26.4796C22.64 26.6396 22.64 26.7996 22.64 26.9596C22.2555 26.9679 21.8823 26.9146 21.52 26.7996C21.52 24.3996 21.52 21.9996 21.52 19.5996Z"
            fill="#136EF8" />
        <path fill-rule="evenodd" clip-rule="evenodd"
            d="M21.68 18.1602C21.5355 18.6227 21.4822 19.1027 21.52 19.6002C21.52 22.0002 21.52 24.4002 21.52 26.8002C21.4045 26.7333 21.3245 26.6267 21.28 26.4802C21.1733 23.8134 21.1733 21.1469 21.28 18.4802C21.3467 18.2792 21.48 18.1725 21.68 18.1602Z"
            fill="#4A80D8" />
        <path fill-rule="evenodd" clip-rule="evenodd"
            d="M30.16 20.4004C30.48 20.4537 30.8 20.5071 31.12 20.5604C31.0245 20.6626 30.8912 20.7159 30.72 20.7204C30.4482 20.7385 30.2615 20.6319 30.16 20.4004Z"
            fill="#7EA5E0" />
        <path fill-rule="evenodd" clip-rule="evenodd"
            d="M17.52 21.0401C18.1249 20.9264 18.6049 21.1129 18.96 21.6001C18.751 23.4856 18.751 25.379 18.96 27.2801C18.7486 27.5732 18.5886 27.8932 18.48 28.2401C18.16 28.2401 17.84 28.2401 17.52 28.2401C17.4132 28.1868 17.3067 28.1334 17.2 28.0801C17.1732 25.9462 17.2 23.8128 17.28 21.6801C17.3456 21.456 17.4256 21.2427 17.52 21.0401Z"
            fill="#146EF7" />
        <path fill-rule="evenodd" clip-rule="evenodd"
            d="M17.52 28.2396C17.84 28.2396 18.16 28.2396 18.48 28.2396C18.5887 27.8927 18.7487 27.5727 18.96 27.2796C18.7511 25.3785 18.7511 23.4851 18.96 21.5996C18.605 21.1124 18.125 20.9259 17.52 21.0396C18.0898 20.5799 18.5965 20.6865 19.04 21.3596C19.1467 23.5463 19.1467 25.7329 19.04 27.9196C18.5792 28.5615 18.0727 28.6683 17.52 28.2396Z"
            fill="#2D70E2" />
        <path fill-rule="evenodd" clip-rule="evenodd"
            d="M14.32 21.0399C13.9429 21.0139 13.5695 21.0404 13.2 21.1199C13.0998 21.2399 13.0198 21.3734 12.96 21.5199C12.8533 23.5467 12.8533 25.5732 12.96 27.5999C13.1501 27.77 13.2301 27.9835 13.2 28.2399C12.9936 28.1507 12.8603 27.9907 12.8 27.7599C12.6933 25.6267 12.6933 23.4932 12.8 21.3599C13.0014 20.9252 13.3481 20.7119 13.84 20.7199C14.0847 20.7423 14.2447 20.8491 14.32 21.0399Z"
            fill="#3C7DE1" />
        <path fill-rule="evenodd" clip-rule="evenodd"
            d="M14.32 21.04C14.3733 21.04 14.4267 21.04 14.48 21.04C14.6907 23.3846 14.6907 25.7313 14.48 28.08C14.3213 28.3241 14.0813 28.4308 13.76 28.4C13.5385 28.3977 13.3518 28.3443 13.2 28.24C13.2301 27.9835 13.1501 27.77 12.96 27.6C12.8533 25.5732 12.8533 23.5467 12.96 21.52C13.0199 21.3734 13.0999 21.24 13.2 21.12C13.5696 21.0404 13.9429 21.0139 14.32 21.04Z"
            fill="#156EF4" />
        <path fill-rule="evenodd" clip-rule="evenodd"
            d="M14.48 21.04C14.5788 21.0578 14.6588 21.1111 14.72 21.2C14.7467 22.3468 14.7733 23.4933 14.8 24.64C14.7995 25.8453 14.6929 26.9919 14.48 28.08C14.6907 25.7314 14.6907 23.3847 14.48 21.04Z"
            fill="#2C6ECF" />
        <path fill-rule="evenodd" clip-rule="evenodd"
            d="M17.52 21.04C17.4256 21.2426 17.3456 21.4559 17.28 21.68C17.2 23.8127 17.1733 25.9461 17.2 28.08C17.0142 25.8677 16.9877 23.6277 17.12 21.36C17.1867 21.1591 17.32 21.0524 17.52 21.04Z"
            fill="#2C6CC3" />
    </g>
    <defs>
        <clipPath id="clip0_5438_45">
            <rect width="32" height="32" fill="white" />
        </clipPath>
    </defs>
</svg>