<svg width="32" height="32" viewBox="0 0 32 32" fill="none" xmlns="http://www.w3.org/2000/svg">
    <g clip-path="url(#clip0_5395_346)">
        <path fill-rule="evenodd" clip-rule="evenodd"
            d="M-0.0400391 -0.0400391C10.6266 -0.0400391 21.2933 -0.0400391 31.96 -0.0400391C31.96 10.6266 31.96 21.2933 31.96 31.96C21.2933 31.96 10.6266 31.96 -0.0400391 31.96C-0.0400391 21.2933 -0.0400391 10.6266 -0.0400391 -0.0400391Z"
            fill="#02A896" />
        <path fill-rule="evenodd" clip-rule="evenodd"
            d="M17.24 5.15982C19.5446 5.0224 21.7846 5.32906 23.96 6.07982C26.8613 7.436 28.448 9.71598 28.72 12.9198C28.8162 14.4486 28.6296 15.942 28.16 17.3998C27.7689 18.4663 27.3156 19.5063 26.8 20.5198C26.1762 22.2377 26.2428 23.9309 27 25.5998C26.991 25.7022 26.9376 25.7689 26.84 25.7998C25.8901 24.7315 24.7035 24.1449 23.28 24.0398C22.863 24.0435 22.4496 24.0835 22.04 24.1598C20.7175 24.6185 19.3841 25.0451 18.04 25.4398C15.3708 26.1211 12.6774 26.2545 9.96005 25.8398C6.46712 25.0797 4.14712 23.0131 3.00005 19.6398C2.39584 17.2381 2.72918 14.9714 4.00005 12.8398C5.07269 11.0738 6.47269 9.62046 8.20005 8.47982C10.9444 6.63618 13.9578 5.52951 17.24 5.15982Z"
            fill="#FEFEFE" />
        <path fill-rule="evenodd" clip-rule="evenodd"
            d="M15.8001 21.5601C15.0581 21.7179 14.2848 21.7713 13.4801 21.7201C13.5016 21.5921 13.4748 21.4855 13.4001 21.4001C13.4318 21.1615 13.3784 20.9481 13.2401 20.7601C12.1433 21.8209 10.8633 22.1276 9.40011 21.6801C8.11163 20.856 7.67162 19.696 8.08011 18.2001C8.47235 17.0345 9.25899 16.2745 10.4401 15.9201C11.5104 15.6027 12.6036 15.4827 13.7201 15.5601C13.7334 15.2124 13.72 14.8657 13.6801 14.5201C13.5812 14.357 13.4346 14.2637 13.2401 14.2401C12.0495 14.1289 10.9028 14.3022 9.80011 14.7601C9.74475 14.7181 9.70475 14.6647 9.68011 14.6001C9.52987 13.9659 9.44987 13.3259 9.44011 12.6801C9.48011 12.5867 9.54675 12.5201 9.64011 12.4801C11.5024 11.7273 13.3957 11.6206 15.3201 12.1601C16.17 12.6726 16.57 13.4326 16.5201 14.4401C16.3608 15.9701 16.1341 17.4901 15.8401 19.0001C15.7112 19.853 15.6979 20.7064 15.8001 21.5601Z"
            fill="#08A896" />
        <path fill-rule="evenodd" clip-rule="evenodd"
            d="M21.7204 11.7199C24.8564 11.616 26.1498 13.1093 25.6004 16.1999C25.5013 16.6839 25.3546 17.1506 25.1604 17.5999C23.3739 17.6399 21.5873 17.6533 19.8004 17.6399C19.7438 19.2408 20.5172 19.9208 22.1204 19.6799C22.7645 19.5631 23.3645 19.3364 23.9204 18.9999C24.0213 19.0206 24.1013 19.074 24.1604 19.1599C24.35 19.7121 24.55 20.2588 24.7604 20.7999C23.1495 21.8798 21.3895 22.2265 19.4804 21.8399C17.9996 21.3457 17.213 20.319 17.1204 18.7599C16.9182 16.7143 17.4249 14.8743 18.6404 13.2399C19.4942 12.3737 20.521 11.867 21.7204 11.7199Z"
            fill="#07A896" />
        <path fill-rule="evenodd" clip-rule="evenodd"
            d="M21.6401 14.0401C22.8807 13.9748 23.3874 14.5614 23.1601 15.8001C22.1454 15.8266 21.132 15.8 20.1201 15.7201C20.3286 14.8723 20.8353 14.3123 21.6401 14.0401Z"
            fill="#FCFDFD" />
        <path fill-rule="evenodd" clip-rule="evenodd"
            d="M12.4399 17.3203C12.7865 17.3203 13.1333 17.3203 13.4799 17.3203C13.5869 18.6394 12.9869 19.3594 11.6799 19.4803C11.2729 19.5438 11.0063 19.3838 10.8799 19.0003C10.743 18.5048 10.863 18.0915 11.2399 17.7603C11.6238 17.5394 12.0238 17.3926 12.4399 17.3203Z"
            fill="#FBFDFD" />
        <path fill-rule="evenodd" clip-rule="evenodd"
            d="M13.4004 21.4004C13.4751 21.4858 13.5018 21.5925 13.4804 21.7204C14.285 21.7716 15.0584 21.7182 15.8004 21.5604C15.8727 21.6171 15.8994 21.6971 15.8804 21.8004C15.0538 21.8004 14.227 21.8004 13.4004 21.8004C13.4004 21.667 13.4004 21.5338 13.4004 21.4004Z"
            fill="#91D8D0" />
    </g>
    <defs>
        <clipPath id="clip0_5395_346">
            <rect width="32" height="32" rx="10" fill="white" />
        </clipPath>
    </defs>
</svg>