<svg width="32" height="32" viewBox="0 0 32 32" fill="none" xmlns="http://www.w3.org/2000/svg">
    <path fill-rule="evenodd" clip-rule="evenodd"
        d="M10.3958 0.375557C22.5955 -1.49932 29.7971 3.64568 32 15.8113C29.9968 28.2495 22.7959 33.5203 10.3958 31.6236C-1.06184 24.6684 -3.04868 15.6329 4.43605 4.51686C6.35062 2.94542 8.33746 1.56524 10.3958 0.375557Z"
        fill="#32B92F" />
    <path fill-rule="evenodd" clip-rule="evenodd"
        d="M12.6307 7.90502C16.071 7.47131 19.1753 8.22427 21.9429 10.1639C22.3154 14.9264 22.439 19.6949 22.3154 24.4702C20.85 24.6502 19.4837 24.3994 18.218 23.7173C11.2429 27.3307 8.26297 25.3226 9.27837 17.6935C11.1579 15.5943 13.5173 14.5906 16.3556 14.6817C16.3556 15.6854 16.3556 16.6898 16.3556 17.6935C13.226 17.6378 12.2322 19.018 13.3757 21.8348C15.2568 22.5095 16.8711 22.133 18.218 20.7054C18.8088 17.7515 18.6844 14.8654 17.8455 12.0463C14.8597 12.1683 11.8798 12.5448 8.90588 13.1758C9.27986 10.7896 10.5217 9.03296 12.6307 7.90502Z"
        fill="#F5FBF4" />
</svg>