<svg width="32" height="32" viewBox="0 0 32 32" fill="none" xmlns="http://www.w3.org/2000/svg">
    <path
        d="M31.5475 11.0104C30.8154 6.56405 29.0101 2.98681 24.5508 1.36532C19.0172 -0.516786 11.8165 -0.531516 6.38601 1.8129C4.37676 2.78511 2.75736 4.4134 1.79523 6.42241C-0.385135 11.594 -0.475795 17.8578 0.96456 23.256C1.62071 25.9483 3.22652 28.3743 5.6426 29.7816C6.14123 30.0785 6.66932 30.3311 7.21894 30.5419C12.6789 32.4365 18.6296 32.4546 24.1315 30.7719L24.1451 30.7674C27.8066 29.6365 30.2726 26.6961 31.1066 22.9874C32.1209 19.0578 32.2773 14.9888 31.5463 11.0104H31.5475ZM24.2709 23.7647H21.1125V21.5654C19.6926 22.9772 17.7366 23.8509 15.5812 23.8509C11.251 23.8509 7.7289 20.3291 7.7289 16.0006C7.7289 11.6721 11.251 8.15041 15.5812 8.15041C17.7366 8.15041 19.6926 9.02405 21.1125 10.4359V8.3759H24.2709V23.7659V23.7647Z"
        fill="#835ED4" />
    <path
        d="M15.5809 10.6621C12.6367 10.6621 10.2422 13.0564 10.2422 15.9991C10.2422 18.9418 12.6367 21.3361 15.5809 21.3361C18.5251 21.3361 20.9185 18.9418 20.9185 15.9991C20.9185 13.0564 18.5239 10.6621 15.5809 10.6621ZM16.611 16.4637L15.3939 17.6795L13.0753 15.36L15.3939 16.0274L19.0486 14.0252L16.611 16.4625V16.4637Z"
        fill="#835ED4" />
</svg>