<svg width="32" height="32" viewBox="0 0 32 32" fill="none" xmlns="http://www.w3.org/2000/svg">
    <g clip-path="url(#clip0_5106_183)">
        <path
            d="M9.56093 0.112929C11.2424 0.0876456 12.9239 0.0702045 14.6055 0.0581915C15.1775 0.0531831 15.7494 0.0463852 16.3213 0.037756C17.1438 0.0256569 17.9662 0.0200131 18.7888 0.0156176C19.0441 0.0104746 19.2995 0.0053315 19.5626 3.25813e-05C21.3567 -0.000531224 21.3567 -0.000531223 22.2918 0.617247C22.531 0.860863 22.531 0.860863 22.775 1.1094C22.9396 1.1094 23.1042 1.1094 23.2737 1.1094C23.4382 0.780565 23.6028 0.451729 23.7723 0.112929C24.9242 0.112929 26.0761 0.112929 27.2629 0.112929C27.2751 0.419928 27.2873 0.726927 27.2999 1.04323C27.3276 5.06941 27.3276 5.06941 28.5095 8.83205C28.674 8.83205 28.8386 8.83205 29.0081 8.83205C29.2543 9.26163 29.498 9.69269 29.7405 10.1243C29.8765 10.3642 30.0124 10.6041 30.1525 10.8513C30.6824 11.9381 30.7882 12.8966 30.7845 14.0947C30.7855 14.4116 30.7855 14.4116 30.7865 14.735C30.7534 15.3091 30.7534 15.3091 30.5041 16.0565C30.2572 16.0565 30.0104 16.0565 29.7561 16.0565C29.759 16.2996 29.7619 16.5427 29.7649 16.7931C29.7671 17.1101 29.7694 17.427 29.7717 17.7536C29.7746 18.0686 29.7775 18.3836 29.7804 18.7082C29.7561 19.5441 29.7561 19.5441 29.5068 20.2915C29.629 22.3311 29.8573 24.0554 31.0027 25.7721C31.0027 26.1009 31.0027 26.4297 31.0027 26.7685C30.2863 27.3103 29.9146 27.5159 29.0081 27.5159C29.255 28.2558 29.5018 28.9956 29.7561 29.7579C30.4966 29.7579 31.2371 29.7579 32 29.7579C32 30.4978 32 31.2377 32 32C21.6331 32 11.2663 32 0.585301 32C0.756578 30.9732 0.950759 30.0177 1.20569 29.0155C1.61904 27.2492 1.77087 25.5086 1.87866 23.7013C1.89907 23.3951 1.91948 23.0889 1.94051 22.7734C1.98977 22.0292 2.03665 21.285 2.08124 20.5406C1.89097 20.4892 1.70071 20.4378 1.50468 20.3849C0.602192 19.9235 0.463261 19.4782 0.086655 18.5476C-0.00329168 17.7248 -0.00329167 17.7248 0.0017415 16.8229C0.00163228 16.6575 0.00152306 16.492 0.00141052 16.3216C0.00192785 15.7797 0.00772907 15.2379 0.0136111 14.696C0.0150075 14.3184 0.0160716 13.9407 0.0168182 13.5631C0.0196636 12.5728 0.0270025 11.5825 0.035296 10.5923C0.04297 9.58029 0.0463685 8.56829 0.0501331 7.55629C0.0581364 5.57337 0.0708897 3.59051 0.086655 1.60764C0.442919 1.81476 0.442919 1.81476 0.80638 2.02608C1.12223 2.20842 1.4381 2.39071 1.754 2.57297C1.91004 2.66385 2.06607 2.75473 2.22684 2.84836C3.07403 3.33587 3.90147 3.76402 4.82379 4.09881C5.0192 3.89329 5.21461 3.68777 5.41593 3.47602C6.07041 2.85322 6.07041 2.85322 6.56905 2.85322C6.56905 2.68881 6.56905 2.52439 6.56905 2.35499C7.09692 1.92487 7.09692 1.92487 7.7845 1.45194C8.01012 1.29458 8.23574 1.13723 8.46819 0.97511C9.06228 0.611165 9.06228 0.611165 9.56093 0.611165C9.56093 0.446747 9.56093 0.282329 9.56093 0.112929Z"
            fill="#7B563E" />
        <path
            d="M-2.37897e-05 2.25C0.359315 2.42982 0.359315 2.42982 0.725913 2.61328C1.04375 2.77228 1.36158 2.93127 1.67942 3.09027C1.83689 3.16908 1.99437 3.24789 2.15662 3.32909C2.9794 3.74064 3.80289 4.15059 4.62888 4.55566C9.83208 7.11342 9.83208 7.11342 10.75 8.25C10.7812 9.09375 10.7812 9.09375 10.75 10C10.8213 10.4189 10.8999 10.837 11 11.25C11.165 11.25 11.33 11.25 11.5 11.25C11.3762 10.3838 11.3762 10.3838 11.25 9.5C12 9.75 12 9.75 12.25 10.25C12.4047 10.0102 12.4047 10.0102 12.5625 9.76562C13.0471 9.1945 13.2662 9.07101 14 9C14.165 9.0825 14.33 9.165 14.5 9.25C14.5825 8.92 14.665 8.59 14.75 8.25C15.08 9.3225 15.41 10.395 15.75 11.5C16.1212 11.3762 16.1212 11.3762 16.5 11.25C17.01 12.4825 17.3516 13.3949 17.25 14.75C17.6212 14.8738 17.6212 14.8738 18 15C18.4269 15.4061 18.8439 15.8231 19.25 16.25C19.415 16.415 19.58 16.58 19.75 16.75C18.6715 16.6302 18.2086 16.3136 17.5 15.5C17.4072 15.732 17.4072 15.732 17.3125 15.9688C16.9319 16.6157 16.708 16.764 16 17C15.2031 17.0469 15.2031 17.0469 14.5 17C14.4175 16.9175 14.335 16.835 14.25 16.75C12.3114 16.9298 12.3114 16.9298 10.7812 18.0156C10.3833 19.0546 10.5553 19.9237 10.75 21C10.915 21 11.08 21 11.25 21C11.415 20.5875 11.58 20.175 11.75 19.75C11.9975 19.75 12.245 19.75 12.5 19.75C12.5696 19.4793 12.5696 19.4793 12.6406 19.2031C13.1411 18.224 13.7537 17.7104 14.75 17.25C15.9642 17.0055 16.771 17.1251 17.8594 17.7188C18.5 18.25 18.5 18.25 19 18.75C19 18.9975 19 19.245 19 19.5C17.8912 19.5 17.0665 19.2844 16 19C15.9175 19.4125 15.835 19.825 15.75 20.25C15.255 20.3738 15.255 20.3738 14.75 20.5C14.8689 20.8701 14.9889 21.2398 15.1094 21.6094C15.1761 21.8153 15.2428 22.0212 15.3115 22.2334C15.4554 22.7405 15.4554 22.7405 15.75 23C16.1298 23.0179 16.5104 23.021 16.8906 23.0156C17.0972 23.0134 17.3037 23.0111 17.5166 23.0088C17.6761 23.0059 17.8356 23.003 18 23C17.6787 23.374 17.6787 23.374 17.25 23.75C16.3906 23.7656 16.3906 23.7656 15.5 23.5C14.7078 22.6672 14.4435 22.0321 14.4375 20.9062C14.4581 20.6072 14.4787 20.3081 14.5 20C14.83 20 15.16 20 15.5 20C15.5 19.5875 15.5 19.175 15.5 18.75C14.6036 18.75 14.3908 18.8945 13.75 19.5C13.4885 20.0854 13.4885 20.0854 13.3437 20.7344C13.1346 21.5501 12.9025 22.2585 12.5 23C12.0875 22.7525 11.675 22.505 11.25 22.25C12.1994 24.4935 13.2936 26.5443 14.75 28.5C14.3375 28.83 13.925 29.16 13.5 29.5C14.536 29.7775 15.5261 30.0175 16.5937 30.125C17.5 30.25 17.5 30.25 18 30.75C18 31.1625 18 31.575 18 32C12.225 32 6.44998 32 0.499976 32C0.671719 30.9695 0.866427 30.0107 1.12205 29.0049C1.53652 27.2323 1.68876 25.4856 1.79685 23.6719C1.81732 23.3646 1.83778 23.0573 1.85886 22.7407C1.90826 21.9939 1.95527 21.2471 1.99998 20.5C1.80919 20.4484 1.61841 20.3969 1.42185 20.3438C0.51837 19.8815 0.378443 19.4311 -2.37897e-05 18.5C-0.0902147 17.7027 -0.0902147 17.7027 -0.0851678 16.838C-0.0851112 16.5128 -0.0850545 16.1876 -0.0849962 15.8525C-0.081167 15.5013 -0.0772551 15.15 -0.073266 14.7988C-0.0718657 14.4366 -0.0707988 14.0745 -0.0700502 13.7123C-0.067198 12.7628 -0.0598399 11.8135 -0.0515222 10.8641C-0.0438255 9.8938 -0.0404193 8.92347 -0.0366449 7.95312C-0.0286214 6.05204 -0.0158345 4.15103 -2.37897e-05 2.25Z"
            fill="#7A553D" />
        <path
            d="M17.2499 15.25C17.6134 15.5671 17.6134 15.5671 17.9843 15.8906C18.7299 16.4226 19.1535 16.5776 20.0624 16.4531C20.249 16.419 20.4356 16.3848 20.6278 16.3496C21.7439 16.1709 22.8725 16.231 23.9999 16.25C23.6561 16.625 23.6561 16.625 23.2499 17C23.0849 17 22.9199 17 22.7499 17C22.5849 17.66 22.4199 18.32 22.2499 19C22.4149 19.0825 22.5799 19.165 22.7499 19.25C22.7705 19.1056 22.7911 18.9613 22.8124 18.8125C23.0631 18.0604 23.377 17.7382 23.9999 17.25C24.7186 17 24.7186 17 25.4999 17C26.7224 17.5993 27.2654 18.2348 27.7499 19.5C27.7499 19.7475 27.7499 19.995 27.7499 20.25C28.0799 20.1675 28.4099 20.085 28.7499 20C29.4511 21.5343 29.5318 23.1938 29.0956 24.8281C28.0251 27.2534 25.6024 28.5474 23.2499 29.5C22.6413 29.6555 22.1294 29.7214 21.4999 29.75C21.8299 29.915 22.1599 30.08 22.4999 30.25C22.4174 30.8275 22.3349 31.405 22.2499 32C20.8474 32 19.4449 32 17.9999 32C17.7524 31.2575 17.7524 31.2575 17.4999 30.5C17.2588 30.4726 17.0178 30.4452 16.7694 30.417C16.2957 30.3575 16.2957 30.3575 15.8124 30.2969C15.4991 30.2592 15.1859 30.2215 14.8632 30.1826C14.0223 30.0047 13.6223 29.8237 12.9999 29.25C13.4949 29.0025 13.9899 28.755 14.4999 28.5C14.2936 28.2525 14.0874 28.005 13.8749 27.75C13.0828 26.6977 12.4827 25.578 11.8905 24.4062C11.799 24.2277 11.7075 24.0492 11.6132 23.8652C11.3921 23.418 11.1939 22.9596 10.9999 22.5C11.0824 22.335 11.1649 22.17 11.2499 22C11.6624 22.2475 12.0749 22.495 12.4999 22.75C12.5576 22.527 12.6153 22.304 12.6747 22.0742C12.7562 21.7816 12.8378 21.489 12.9218 21.1875C13.0001 20.8975 13.0784 20.6074 13.1591 20.3086C13.6093 19.2405 14.2283 18.7608 15.2499 18.25C15.7498 18.24 16.25 18.2391 16.7499 18.25C16.59 18.3067 16.4302 18.3634 16.2655 18.4219C15.6819 18.7131 15.6819 18.7131 15.5624 19.4062C15.5418 19.6022 15.5211 19.7981 15.4999 20C15.1699 20 14.8399 20 14.4999 20C14.7331 21.6635 14.7331 21.6635 15.4218 23.1719C16.2562 23.6455 16.84 23.46 17.7499 23.25C17.4405 23.2809 17.1311 23.3119 16.8124 23.3438C16.2616 23.3447 16.2616 23.3447 15.7499 23.25C15.0612 22.5097 14.7752 22.0411 14.6874 21.0312C14.708 20.8559 14.7286 20.6806 14.7499 20.5C14.9974 20.4175 15.2449 20.335 15.4999 20.25C15.8046 19.6239 15.8046 19.6239 15.9999 19C17.1096 18.9748 18.0011 19.0006 18.9999 19.5C18.4818 18.491 18.0591 17.9375 16.9999 17.5C15.7675 17.2892 14.8152 17.3525 13.7655 18.0625C13.1599 18.5545 12.752 18.9936 12.4999 19.75C12.2524 19.75 12.0049 19.75 11.7499 19.75C11.7112 20.0439 11.7112 20.0439 11.6718 20.3438C11.4999 21 11.4999 21 10.7499 21.5C10.2614 20.0344 10.1781 19.2507 10.7811 17.8438C11.4184 17.0366 12.0316 16.8172 12.9999 16.5C13.7186 16.4375 13.7186 16.4375 14.2499 16.5C14.3324 16.5825 14.4149 16.665 14.4999 16.75C15.4602 16.814 16.2077 16.8368 16.9999 16.25C17.156 15.7403 17.156 15.7403 17.2499 15.25Z"
            fill="#ECC2A3" />
        <path
            d="M9.5 4.79519e-05C11.1861 -0.0253252 12.8721 -0.0428281 14.5583 -0.0548837C15.1318 -0.0599098 15.7053 -0.0667318 16.2787 -0.0753915C17.1035 -0.0875334 17.9281 -0.0931972 18.7529 -0.0976083C19.009 -0.10277 19.265 -0.107931 19.5288 -0.113249C21.3278 -0.113814 21.3278 -0.113814 22.2654 0.506151C22.5053 0.75063 22.5053 0.75063 22.75 1.00005C22.915 1.00005 23.08 1.00005 23.25 1.00005C23.415 0.670048 23.58 0.340048 23.75 4.79519e-05C24.74 4.79519e-05 25.73 4.79519e-05 26.75 4.79519e-05C26.75 1.56755 26.75 3.13505 26.75 4.75005C26.1725 4.25505 25.595 3.76005 25 3.25005C24.3802 3.03549 24.3802 3.03549 23.7754 3.06841C23.5547 3.06792 23.334 3.06744 23.1066 3.06694C22.8755 3.0758 22.6444 3.08467 22.4062 3.0938C22.1639 3.09944 21.9215 3.10508 21.6718 3.11089C17.8833 3.25298 13.5222 4.16265 10.6377 6.81255C10.4458 7.02911 10.4458 7.02911 10.25 7.25005C11.1988 7.60643 11.7832 7.37704 12.7188 7.04692C16.3724 5.86448 20.0079 5.67502 23.75 6.50005C23.75 6.58255 23.75 6.66505 23.75 6.75005C23.5576 6.74612 23.3652 6.74219 23.1669 6.73815C17.6395 6.55467 17.6395 6.55467 12.292 7.76958C11.6779 8.00159 11.154 8.19113 10.5 8.25005C9.94638 7.98687 9.56664 7.64751 9.11133 7.23735C8.31838 6.60527 7.47219 6.19057 6.5625 5.75005C6.30243 5.62288 6.30243 5.62288 6.03711 5.49315C5.52541 5.24404 5.01276 4.99696 4.5 4.75005C1.30207 3.19043 1.30207 3.19043 0 2.25005C0.0825 2.00255 0.165 1.75505 0.25 1.50005C0.470107 1.63862 0.690215 1.7772 0.916992 1.91997C1.21025 2.10296 1.50355 2.2859 1.79688 2.4688C1.94141 2.56 2.08595 2.6512 2.23486 2.74517C3.0507 3.25218 3.84515 3.67628 4.75 4.00005C4.94594 3.7938 5.14187 3.58755 5.34375 3.37505C6 2.75005 6 2.75005 6.5 2.75005C6.5 2.58505 6.5 2.42005 6.5 2.25005C7.0293 1.81841 7.0293 1.81841 7.71875 1.3438C7.94498 1.18589 8.17121 1.02798 8.4043 0.865282C9 0.500048 9 0.500048 9.5 0.500048C9.5 0.335048 9.5 0.170048 9.5 4.79519e-05Z"
            fill="#362820" />
        <path
            d="M26.75 0C26.915 0 27.08 0 27.25 0C27.2622 0.308086 27.2745 0.616172 27.2871 0.933594C27.3149 4.97403 27.3149 4.97403 28.5 8.75C28.665 8.75 28.83 8.75 29 8.75C29.2469 9.1811 29.4912 9.61369 29.7344 10.0469C29.8707 10.2876 30.007 10.5283 30.1475 10.7764C30.6788 11.8671 30.7849 12.8289 30.7812 14.0312C30.7822 14.3493 30.7822 14.3493 30.7832 14.6738C30.75 15.25 30.75 15.25 30.5 16C30.2525 16 30.005 16 29.75 16C29.7529 16.244 29.7558 16.4879 29.7588 16.7393C29.761 17.0573 29.7633 17.3754 29.7656 17.7031C29.7685 18.0193 29.7714 18.3354 29.7744 18.6611C29.75 19.5 29.75 19.5 29.5 20.25C29.6225 22.2968 29.8515 24.0273 31 25.75C31 26.08 31 26.41 31 26.75C30.2816 27.2936 29.9089 27.5 29 27.5C29.2475 28.2425 29.495 28.985 29.75 29.75C30.4925 29.75 31.235 29.75 32 29.75C32 30.4925 32 31.235 32 32C28.7825 32 25.565 32 22.25 32C22.25 31.4225 22.25 30.845 22.25 30.25C22.0025 30.25 21.755 30.25 21.5 30.25C21.5 30.085 21.5 29.92 21.5 29.75C21.7237 29.6801 21.9473 29.6101 22.1777 29.5381C24.6064 28.7328 27.069 27.7657 28.5 25.5C28.9531 24.548 29.0616 23.8012 29.0469 22.75C29.0445 22.371 29.0445 22.371 29.042 21.9844C29.0028 21.2987 28.9036 20.6683 28.75 20C28.255 20.1238 28.255 20.1238 27.75 20.25C27.6923 20.0963 27.6346 19.9426 27.5752 19.7842C27.0568 18.499 27.0568 18.499 26.1562 17.4688C25.3113 17.1871 24.8471 17.2296 24 17.5C23.2975 18.0696 23.0378 18.3867 22.75 19.25C22.5025 19.1675 22.255 19.085 22 19C22.3309 17.7868 22.5583 17.4417 23.5 16.5C22.345 16.5 21.19 16.5 20 16.5C21.414 15.5573 23.1043 15.7164 24.75 15.75C24.7917 15.1459 24.7917 15.1459 24.75 14.5C24.585 14.335 24.42 14.17 24.25 14C24.415 14 24.58 14 24.75 14C24.75 13.835 24.75 13.67 24.75 13.5C24.1725 13.5 23.595 13.5 23 13.5C23 13.4175 23 13.335 23 13.25C23.66 13.085 24.32 12.92 25 12.75C25 12.915 25 13.08 25 13.25C25.2372 13.2397 25.4744 13.2294 25.7188 13.2188C26.5 13.25 26.5 13.25 27 13.75C26.1338 13.6262 26.1338 13.6262 25.25 13.5C25.25 13.665 25.25 13.83 25.25 14C25.415 14.0825 25.58 14.165 25.75 14.25C25.585 14.25 25.42 14.25 25.25 14.25C25.25 14.8275 25.25 15.405 25.25 16C25.8275 16 26.405 16 27 16C26.7525 16.2475 26.7525 16.2475 26.5 16.5C26.665 16.6134 26.83 16.7269 27 16.8438C27.165 16.9778 27.33 17.1119 27.5 17.25C27.5 17.415 27.5 17.58 27.5 17.75C27.83 17.75 28.16 17.75 28.5 17.75C28.5 17.915 28.5 18.08 28.5 18.25C28.665 18.25 28.83 18.25 29 18.25C28.9175 17.8375 28.835 17.425 28.75 17C28.6675 17 28.585 17 28.5 17C28.5 16.505 28.5 16.01 28.5 15.5C29.0775 15.5 29.655 15.5 30.25 15.5C29.9906 12.8126 29.6037 10.37 27.5 8.5C27.5 8.335 27.5 8.17 27.5 8C27.2892 7.95166 27.0785 7.90332 26.8613 7.85352C26.5874 7.78842 26.3135 7.72332 26.0312 7.65625C25.7586 7.59244 25.486 7.52863 25.2051 7.46289C24.5 7.25 24.5 7.25 24 6.75C25.1785 6.86985 26.1664 6.99209 27.25 7.5C26.6491 5.69742 25.8695 4.32575 24.5 3C25.5811 3.35061 25.7682 3.52432 26.5 4.5C26.5825 3.015 26.665 1.53 26.75 0Z"
            fill="#080302" />
        <path
            d="M12.9062 -0.0154918C13.1067 -0.0143639 13.3071 -0.013236 13.5137 -0.0120739C14.0091 -0.00912476 14.5046 -0.00464085 15 0.000133161C15 0.165133 15 0.330133 15 0.500133C15.165 0.500133 15.33 0.500133 15.5 0.500133C15.4175 1.07763 15.335 1.65513 15.25 2.25013C16.405 2.25013 17.56 2.25013 18.75 2.25013C18.75 2.49763 18.75 2.74513 18.75 3.00013C18.5257 3.04912 18.3014 3.0981 18.0703 3.14857C15.4396 3.77907 12.5676 4.67814 10.4639 6.45228C10 6.75013 10 6.75013 9.42676 6.73548C8.52369 6.42143 7.74103 5.97297 6.92188 5.48451C6.76058 5.39025 6.59929 5.29598 6.43311 5.19886C6.0378 4.96754 5.64377 4.73405 5.25 4.50013C6.1808 3.28488 7.1757 2.42816 8.42188 1.54701C8.5909 1.42471 8.75993 1.30241 8.93408 1.1764C10.3331 0.169963 11.1578 -0.0339413 12.9062 -0.0154918Z"
            fill="#F2ECE2" />
        <path
            d="M21.7344 2.90613C21.9088 2.90262 22.0833 2.89912 22.263 2.89551C23.5001 2.90707 24.4221 3.14597 25.5 3.74988C26.0537 4.38953 26.0537 4.38953 26.4844 5.10925C26.631 5.34612 26.7776 5.58298 26.9287 5.82703C27.25 6.49988 27.25 6.49988 27.25 7.49988C26.3379 7.32647 25.4448 7.11025 24.5469 6.87488C20.2904 5.81206 16.0764 6.11195 11.9355 7.57312C11.2401 7.75243 10.9123 7.74862 10.25 7.49988C10.25 7.25238 10.25 7.00488 10.25 6.74988C13.1819 3.98083 17.8344 2.95956 21.7344 2.90613Z"
            fill="#F1E9E1" />
        <path
            d="M0.000238746 4.25C0.931809 4.97323 1.62196 5.6653 2.31274 6.625C2.48418 6.85961 2.65563 7.09422 2.83227 7.33594C3.46146 8.33559 3.53264 9.08358 3.50024 10.25C4.07774 10.25 4.65524 10.25 5.25024 10.25C5.25024 11.099 5.11982 11.2665 4.62524 11.9219C4.50922 12.0775 4.39321 12.2332 4.27368 12.3936C4.18344 12.5112 4.09321 12.6288 4.00024 12.75C3.83524 12.6675 3.67024 12.585 3.50024 12.5C3.4693 12.7011 3.43836 12.9022 3.40649 13.1094C3.35493 13.3208 3.30336 13.5322 3.25024 13.75C3.00274 13.8738 3.00274 13.8738 2.75024 14C2.75024 14.33 2.75024 14.66 2.75024 15C2.58524 15 2.42024 15 2.25024 15C2.16774 15.165 2.08524 15.33 2.00024 15.5C1.91774 15.5 1.83524 15.5 1.75024 15.5C1.91524 15.7475 2.08024 15.995 2.25024 16.25C2.28585 16.9416 2.29716 17.6066 2.28149 18.2969C2.27923 18.4843 2.27698 18.6717 2.27465 18.8647C2.26877 19.3265 2.2598 19.7883 2.25024 20.25C1.23265 19.6821 0.825937 19.3899 0.500239 18.25C-0.199023 15.1322 -0.0317579 11.833 -0.0153863 8.65625C-0.0141287 8.22656 -0.0129886 7.79688 -0.0119683 7.36719C-0.00925028 6.32812 -0.00495576 5.28906 0.000238746 4.25Z"
            fill="#7A5740" />
        <path
            d="M16.4998 11.75C17.1236 12.3738 17.0897 12.6683 17.1561 13.5312C17.1748 13.7588 17.1935 13.9863 17.2127 14.2207C17.225 14.3954 17.2372 14.57 17.2498 14.75C17.6211 14.8738 17.6211 14.8738 17.9998 15C18.4268 15.4061 18.8437 15.8231 19.2498 16.25C19.4148 16.415 19.5798 16.58 19.7498 16.75C18.6714 16.6302 18.2084 16.3136 17.4998 15.5C17.438 15.6547 17.3761 15.8094 17.3123 15.9688C16.9318 16.6157 16.7079 16.764 15.9998 17C15.203 17.0469 15.203 17.0469 14.4998 17C14.4173 16.9175 14.3348 16.835 14.2498 16.75C12.3112 16.9298 12.3112 16.9298 10.7811 18.0156C10.3832 19.0546 10.5552 19.9237 10.7498 21C10.9148 21 11.0798 21 11.2498 21C11.4148 20.5875 11.5798 20.175 11.7498 19.75C11.9973 19.75 12.2448 19.75 12.4998 19.75C12.5462 19.5695 12.5927 19.3891 12.6405 19.2031C13.1409 18.224 13.7536 17.7104 14.7498 17.25C15.9641 17.0055 16.7708 17.1251 17.8592 17.7188C18.4998 18.25 18.4998 18.25 18.9998 18.75C18.9998 18.9975 18.9998 19.245 18.9998 19.5C17.8911 19.5 17.0664 19.2844 15.9998 19C15.9173 19.4125 15.8348 19.825 15.7498 20.25C15.2548 20.3738 15.2548 20.3738 14.7498 20.5C14.8687 20.8701 14.9887 21.2398 15.1092 21.6094C15.1759 21.8153 15.2426 22.0212 15.3114 22.2334C15.4552 22.7405 15.4552 22.7405 15.7498 23C16.1297 23.0179 16.5103 23.021 16.8905 23.0156C17.097 23.0134 17.3036 23.0111 17.5164 23.0088C17.676 23.0059 17.8355 23.003 17.9998 23C17.6786 23.374 17.6786 23.374 17.2498 23.75C16.3905 23.7656 16.3905 23.7656 15.4998 23.5C14.7077 22.6672 14.4433 22.0321 14.4373 20.9062C14.458 20.6072 14.4786 20.3081 14.4998 20C14.8298 20 15.1598 20 15.4998 20C15.4998 19.5875 15.4998 19.175 15.4998 18.75C14.6035 18.75 14.3906 18.8945 13.7498 19.5C13.4883 20.0854 13.4883 20.0854 13.3436 20.7344C13.1344 21.5501 12.9024 22.2585 12.4998 23C12.0873 22.7525 11.6748 22.505 11.2498 22.25C11.3375 22.4408 11.4252 22.6316 11.5155 22.8281C11.7498 23.5 11.7498 23.5 11.4998 24.25C10.7423 23.1481 10.4127 22.0274 10.078 20.75C10.0226 20.5409 9.96731 20.3318 9.9103 20.1164C9.47784 18.3787 9.35506 16.792 9.49984 15C9.74734 15.1238 9.74734 15.1238 9.99984 15.25C10.1034 15.9307 10.1034 15.9307 10.1561 16.7656C10.1748 17.0418 10.1935 17.318 10.2127 17.6025C10.225 17.8162 10.2372 18.0299 10.2498 18.25C10.353 18.0283 10.4561 17.8066 10.5623 17.5781C10.9752 16.7967 11.4282 16.1702 11.9998 15.5C11.9998 15.665 11.9998 15.83 11.9998 16C12.1308 15.8352 12.1308 15.8352 12.2645 15.667C12.9477 15.08 13.6668 14.8704 14.5155 14.5781C14.6748 14.5219 14.8342 14.4657 14.9984 14.4077C16.1744 14 16.1744 14 16.7498 14C16.6673 13.2575 16.5848 12.515 16.4998 11.75Z"
            fill="#2E1A0F" />
        <path
            d="M5.00013 21.75C5.16513 21.8325 5.33013 21.915 5.50013 22C5.65638 22.6406 5.65638 22.6406 5.75013 23.25C5.99763 23.25 6.24513 23.25 6.50013 23.25C6.58263 23.91 6.66513 24.57 6.75013 25.25C6.99763 25.25 7.24513 25.25 7.50013 25.25C7.58263 25.0025 7.66513 24.755 7.75013 24.5C7.83263 24.7475 7.91513 24.995 8.00013 25.25C8.16513 24.92 8.33013 24.59 8.50013 24.25C8.54266 24.4463 8.5852 24.6425 8.62903 24.8447C8.98945 26.4072 9.39663 27.6462 10.2501 29C10.2501 29.165 10.2501 29.33 10.2501 29.5C10.4151 29.4175 10.5801 29.335 10.7501 29.25C10.5851 28.755 10.4201 28.26 10.2501 27.75C10.4512 27.9614 10.6523 28.1728 10.8595 28.3906C11.3903 28.8438 11.6454 28.9952 12.3507 29.0273C12.9093 28.9603 13.4514 28.8732 14.0001 28.75C13.8351 28.9975 13.6701 29.245 13.5001 29.5C14.5361 29.7775 15.5262 30.0175 16.5939 30.125C17.5001 30.25 17.5001 30.25 18.0001 30.75C18.0001 31.1625 18.0001 31.575 18.0001 32C15.6076 32 13.2151 32 10.7501 32C10.6676 31.7525 10.5851 31.505 10.5001 31.25C11.017 30.5507 11.2862 30.4933 12.172 30.3281C12.5819 30.2895 12.5819 30.2895 13.0001 30.25C12.9176 30.085 12.8351 29.92 12.7501 29.75C11.7601 29.75 10.7701 29.75 9.75013 29.75C9.75013 29.915 9.75013 30.08 9.75013 30.25C8.75477 30.1633 7.83027 30.0785 7.09876 29.3506C6.33085 28.1621 5.88574 26.8544 5.50013 25.5C5.33513 25.7475 5.17013 25.995 5.00013 26.25C4.95098 25.8961 4.90466 25.5419 4.8595 25.1875C4.8334 24.9903 4.80729 24.793 4.7804 24.5898C4.74979 23.9935 4.83862 23.57 5.00013 23C5.00959 22.5834 5.0117 22.1665 5.00013 21.75Z"
            fill="#755533" />
        <path
            d="M27.25 27.5C27.8125 27.6094 27.8125 27.6094 28.5 28C28.9125 28.7209 29.2133 29.4716 29.5 30.25C29.335 30.415 29.17 30.58 29 30.75C29.1328 30.6959 29.2655 30.6417 29.4023 30.5859C29.5789 30.5163 29.7555 30.4467 29.9375 30.375C30.1985 30.2706 30.1985 30.2706 30.4648 30.1641C31 30 31 30 32 30C32 30.66 32 31.32 32 32C28.7825 32 25.565 32 22.25 32C22.25 31.4225 22.25 30.845 22.25 30.25C22.0025 30.25 21.755 30.25 21.5 30.25C21.5 30.085 21.5 29.92 21.5 29.75C21.7586 29.7133 21.7586 29.7133 22.0225 29.6758C23.9472 29.3695 25.8886 28.9933 27.25 27.5Z"
            fill="#78563F" />
        <path
            d="M11 23.5C12.1068 24.2273 12.5872 25.0262 13.1826 26.168C13.637 27.0013 14.1836 27.7394 14.75 28.5C12.6199 29.4355 12.6199 29.4355 11.5 29C10.9219 28.6094 10.9219 28.6094 10.5 28.25C10.665 28.6625 10.83 29.075 11 29.5C10.7525 29.5 10.505 29.5 10.25 29.5C10.0024 29.0745 9.75832 28.647 9.51562 28.2188C9.37931 27.9809 9.24299 27.7431 9.10254 27.498C8.74263 26.7344 8.59783 26.0847 8.5 25.25C8.7475 25.1675 8.995 25.085 9.25 25C9.415 24.835 9.58 24.67 9.75 24.5C9.75 24.665 9.75 24.83 9.75 25C10.4686 24.321 10.4686 24.321 11 23.5Z"
            fill="#745137" />
        <path
            d="M15 0.000192195C20.3769 -0.340497 20.3769 -0.340497 22.5342 1.26972C22.9965 1.74657 23.2204 2.15537 23.5 2.75019C22.4999 2.71517 21.5 2.67816 20.5 2.64082C20.078 2.62607 20.078 2.62607 19.6475 2.61103C18.1671 2.55476 16.7162 2.46401 15.25 2.25019C15.0938 1.79707 15.0938 1.79707 15 1.25019C15.165 1.00269 15.33 0.755192 15.5 0.500192C15.335 0.500192 15.17 0.500192 15 0.500192C15 0.335192 15 0.170192 15 0.000192195Z"
            fill="#DB322E" />
        <path
            d="M17 17.2498C17.7974 17.6847 18.3617 18.1115 19 18.7498C19 18.9973 19 19.2448 19 19.4998C17.8912 19.4998 17.0665 19.2842 16 18.9998C15.9175 19.4123 15.835 19.8248 15.75 20.2498C15.42 20.3323 15.09 20.4148 14.75 20.4998C14.8689 20.8699 14.9889 21.2396 15.1094 21.6091C15.1761 21.8151 15.2428 22.021 15.3115 22.2332C15.4554 22.7403 15.4554 22.7403 15.75 22.9998C16.1298 23.0177 16.5104 23.0207 16.8906 23.0154C17.0972 23.0131 17.3038 23.0109 17.5166 23.0086C17.6761 23.0057 17.8356 23.0028 18 22.9998C17.6787 23.3738 17.6787 23.3738 17.25 23.7498C16.3906 23.7654 16.3906 23.7654 15.5 23.4998C14.7078 22.667 14.4435 22.0319 14.4375 20.906C14.4581 20.607 14.4787 20.3079 14.5 19.9998C14.83 19.9998 15.16 19.9998 15.5 19.9998C15.5 19.5873 15.5 19.1748 15.5 18.7498C14.6036 18.7498 14.3908 18.8943 13.75 19.4998C13.4885 20.0852 13.4885 20.0852 13.3438 20.7341C13.1346 21.5498 12.9026 22.2583 12.5 22.9998C11.3146 22.3919 11.3146 22.3919 11.0156 21.7341C11.0105 21.5743 11.0053 21.4145 11 21.2498C11.165 21.0848 11.33 20.9198 11.5 20.7498C11.6606 20.2326 11.6606 20.2326 11.75 19.7498C11.9975 19.7498 12.245 19.7498 12.5 19.7498C12.5464 19.5693 12.5928 19.3888 12.6406 19.2029C13.5309 17.4611 15.1181 16.87 17 17.2498Z"
            fill="#120C0A" />
        <path
            d="M2.99985 12C3.24735 12.0825 3.49485 12.165 3.74985 12.25C3.74985 12.415 3.74985 12.58 3.74985 12.75C3.91485 12.8325 4.07985 12.915 4.24985 13C4.16251 13.184 4.07518 13.368 3.9852 13.5576C3.87144 13.8016 3.75768 14.0455 3.64047 14.2969C3.52736 14.5376 3.41424 14.7783 3.2977 15.0264C2.72797 16.4105 2.71043 17.7204 2.69711 19.1953C2.69009 19.6322 2.68292 20.069 2.67563 20.5059C2.66538 21.1876 2.65615 21.8693 2.64951 22.551C2.62126 25.223 2.51041 27.6708 1.74985 30.25C1.69714 30.4423 1.64443 30.6347 1.59012 30.8328C1.48197 31.2234 1.36712 31.6121 1.24985 32C1.00235 32 0.754847 32 0.499847 32C0.657275 30.9841 0.868816 30.0008 1.12192 29.0049C1.53639 27.2323 1.68863 25.4856 1.79672 23.6719C1.81719 23.3646 1.83765 23.0573 1.85873 22.7407C1.90813 21.9939 1.95514 21.2471 1.99985 20.5C1.80288 20.4303 1.60592 20.3605 1.40298 20.2887C0.749847 20 0.749847 20 0.299652 19.3809C-0.102498 18.1993 -0.0814564 17.1439 -0.0470277 15.9062C-0.0436439 15.6745 -0.0402601 15.4428 -0.0367738 15.2041C-0.0279874 14.6359 -0.015688 14.068 -0.000152707 13.5C0.0823473 13.5 0.164847 13.5 0.249847 13.5C0.262093 13.7266 0.274339 13.9531 0.286957 14.1865C0.437827 16.7532 0.437827 16.7532 0.999847 19.25C1.49761 19.6844 1.49761 19.6844 1.99985 20C2.02014 19.3957 2.03499 18.792 2.04672 18.1875C2.05301 18.017 2.05929 17.8465 2.06577 17.6709C2.07769 16.852 2.05256 16.3366 1.62192 15.6289C1.49913 15.5039 1.37635 15.3788 1.24985 15.25C1.33235 15.085 1.41485 14.92 1.49985 14.75C1.66485 14.915 1.82985 15.08 1.99985 15.25C2.24735 15.1675 2.49485 15.085 2.74985 15C2.66735 14.67 2.58485 14.34 2.49985 14C2.74735 13.835 2.99485 13.67 3.24985 13.5C3.16735 13.005 3.08485 12.51 2.99985 12Z"
            fill="#060201" />
        <path
            d="M1.75 10.5C1.8325 10.665 1.915 10.83 2 11C2.2475 11.0825 2.495 11.165 2.75 11.25C2.6675 11.4975 2.585 11.745 2.5 12C2.83 12.165 3.16 12.33 3.5 12.5C3.40625 13.1094 3.40625 13.1094 3.25 13.75C3.0025 13.8738 3.0025 13.8738 2.75 14C2.75 14.33 2.75 14.66 2.75 15C2.585 15 2.42 15 2.25 15C2.1675 15.165 2.085 15.33 2 15.5C1.9175 15.5 1.835 15.5 1.75 15.5C1.915 15.7475 2.08 15.995 2.25 16.25C2.28561 16.9416 2.29692 17.6066 2.28125 18.2969C2.27899 18.4843 2.27674 18.6717 2.27441 18.8647C2.26853 19.3265 2.25956 19.7883 2.25 20.25C1.23242 19.6821 0.825698 19.3899 0.5 18.25C0.209297 17.0672 0.167703 15.8834 0.109375 14.6719C0.0985791 14.4629 0.0877832 14.2539 0.0766602 14.0386C0.0502867 13.5258 0.0250317 13.0129 0 12.5C0.194326 12.6254 0.388652 12.7507 0.588867 12.8799C1.2097 13.3144 1.2097 13.3144 1.82812 13.1719C1.96734 13.1152 2.10656 13.0584 2.25 13C2.085 12.9175 1.92 12.835 1.75 12.75C1.8325 12.3375 1.915 11.925 2 11.5C1.7525 11.5825 1.505 11.665 1.25 11.75C1.415 11.3375 1.58 10.925 1.75 10.5Z"
            fill="#6F5442" />
        <path
            d="M17.2499 15.25C17.5429 15.4459 17.8343 15.6443 18.1249 15.8438C18.3685 16.0091 18.3685 16.0091 18.6171 16.1777C18.7434 16.2841 18.8697 16.3904 18.9999 16.5C18.9999 16.665 18.9999 16.83 18.9999 17C18.5624 17.4219 18.5624 17.4219 17.9999 17.75C17.6637 17.6791 17.3304 17.594 16.9999 17.5C15.77 17.3409 14.8129 17.3482 13.7655 18.0625C13.1599 18.5545 12.752 18.9936 12.4999 19.75C12.2524 19.75 12.0049 19.75 11.7499 19.75C11.7112 20.0439 11.7112 20.0439 11.6718 20.3438C11.4999 21 11.4999 21 10.7499 21.5C10.2614 20.0344 10.1781 19.2507 10.7811 17.8438C11.4184 17.0366 12.0316 16.8172 12.9999 16.5C13.7186 16.4375 13.7186 16.4375 14.2499 16.5C14.3324 16.5825 14.4149 16.665 14.4999 16.75C15.4602 16.814 16.2077 16.8368 16.9999 16.25C17.156 15.7403 17.156 15.7403 17.2499 15.25Z"
            fill="#DEBCA1" />
        <path
            d="M24.25 17.5C25.6267 17.6224 25.6267 17.6224 26.1689 18.1836C26.5551 18.8443 26.6007 19.2396 26.5938 20C26.5957 20.2114 26.5976 20.4228 26.5996 20.6406C26.4791 21.3778 26.2772 21.724 25.75 22.25C24.8281 22.3125 24.8281 22.3125 24 22.25C23.9175 22.415 23.835 22.58 23.75 22.75C23.3375 22.255 22.925 21.76 22.5 21.25C22.7475 21.25 22.995 21.25 23.25 21.25C23.1675 20.59 23.085 19.93 23 19.25C23.2475 19.1675 23.495 19.085 23.75 19C24.0563 18.2479 24.0563 18.2479 24.25 17.5Z"
            fill="#D56963" />
        <path
            d="M20.25 0.000125207C21.1422 -0.101838 21.4342 -0.0488204 22.1719 0.500125C22.3627 0.665125 22.5534 0.830125 22.75 1.00013C22.915 1.00013 23.08 1.00013 23.25 1.00013C23.415 0.670125 23.58 0.340125 23.75 0.000125207C24.74 0.000125207 25.73 0.000125207 26.75 0.000125207C26.75 1.56763 26.75 3.13513 26.75 4.75013C26.1725 4.25513 25.595 3.76013 25 3.25013C24.3004 3.12324 24.3004 3.12324 23.75 3.25013C23.75 3.08513 23.75 2.92013 23.75 2.75013C22.7435 1.67935 21.5378 0.933472 20.25 0.250125C20.25 0.167625 20.25 0.0851252 20.25 0.000125207Z"
            fill="#7A573F" />
        <path
            d="M15.9999 19.0001C16.8262 18.9438 17.3479 18.9138 18.078 19.3282C18.7115 19.9617 18.7483 20.4777 18.8124 21.3595C18.7499 22.2501 18.7499 22.2501 18.5155 22.8595C17.787 23.4114 17.1899 23.4195 16.2909 23.38C15.7499 23.2501 15.7499 23.2501 15.1093 22.5782C14.7671 21.7897 14.6508 21.3427 14.7499 20.5001C14.9974 20.4176 15.2449 20.3351 15.4999 20.2501C15.8046 19.624 15.8046 19.624 15.9999 19.0001Z"
            fill="#DB625D" />
        <path
            d="M27.25 11.25C27.3325 11.25 27.415 11.25 27.5 11.25C27.5332 11.4369 27.5664 11.6238 27.6006 11.8164C27.6447 12.0626 27.6889 12.3088 27.7344 12.5625C27.7779 12.8061 27.8214 13.0498 27.8662 13.3008C27.9759 13.8743 28.1009 14.4357 28.25 15C28.9925 15.1238 28.9925 15.1238 29.75 15.25C29.75 15.3325 29.75 15.415 29.75 15.5C29.3375 15.5 28.925 15.5 28.5 15.5C28.665 15.5825 28.83 15.665 29 15.75C29 16.575 29 17.4 29 18.25C28.835 18.25 28.67 18.25 28.5 18.25C28.5 18.085 28.5 17.92 28.5 17.75C28.17 17.75 27.84 17.75 27.5 17.75C27.0782 17.2543 26.6616 16.7542 26.25 16.25C25.92 16.1675 25.59 16.085 25.25 16C25.25 15.175 25.25 14.35 25.25 13.5C25.8275 13.5 26.405 13.5 27 13.5C27.0825 12.7575 27.165 12.015 27.25 11.25Z"
            fill="#2A160C" />
        <path
            d="M29 24.25C29.0825 24.415 29.165 24.58 29.25 24.75C29.415 24.75 29.58 24.75 29.75 24.75C30.2807 25.3011 30.4848 25.6436 30.5938 26.4062C30.5628 26.6022 30.5319 26.7981 30.5 27C29.75 27.5 29.75 27.5 29 27.5C29.2475 28.2425 29.495 28.985 29.75 29.75C30.4925 29.75 31.235 29.75 32 29.75C31.3262 30.0869 30.6814 30.3965 29.9844 30.6719C29.7325 30.7739 29.7325 30.7739 29.4756 30.8779C29 31 29 31 28.25 30.75C28.58 30.5025 28.91 30.255 29.25 30C29.1086 29.6699 28.9617 29.3422 28.8125 29.0156C28.7313 28.8329 28.6501 28.6502 28.5664 28.4619C28.2853 27.9603 28.2853 27.9603 27.7461 27.7959C27.2315 27.7043 27.2315 27.7043 26.75 28C26.915 28.165 27.08 28.33 27.25 28.5C26.9561 28.567 26.6622 28.6341 26.3594 28.7031C25.6336 28.8804 24.9874 29.1027 24.3125 29.4219C23.4667 29.7634 23.3139 29.7636 22.5 29.5C22.6724 29.4272 22.8448 29.3543 23.0225 29.2793C26.5365 27.7471 26.5365 27.7471 28.8125 24.7969C28.8744 24.6164 28.9363 24.4359 29 24.25Z"
            fill="#1C1007" />
        <path
            d="M24.75 12.75C24.8325 12.915 24.915 13.08 25 13.25C25.3558 13.2345 25.3558 13.2345 25.7188 13.2188C26.5 13.25 26.5 13.25 27 13.75C26.4225 13.6675 25.845 13.585 25.25 13.5C25.25 13.665 25.25 13.83 25.25 14C25.415 14.0825 25.58 14.165 25.75 14.25C25.585 14.25 25.42 14.25 25.25 14.25C25.25 14.8275 25.25 15.405 25.25 16C25.8275 16 26.405 16 27 16C26.835 16.165 26.67 16.33 26.5 16.5C26.665 16.6134 26.83 16.7269 27 16.8438C27.165 16.9778 27.33 17.1119 27.5 17.25C27.5 17.415 27.5 17.58 27.5 17.75C27.665 17.8325 27.83 17.915 28 18C27.9175 18.495 27.835 18.99 27.75 19.5C27.6469 19.3556 27.5438 19.2113 27.4375 19.0625C26.5479 17.8959 26.5479 17.8959 25.25 17.2812C24.4401 17.2475 24.1312 17.2494 23.5 17.75C23.0582 18.5084 23.0582 18.5084 22.75 19.25C22.5025 19.1675 22.255 19.085 22 19C22.3309 17.7868 22.5583 17.4417 23.5 16.5C22.345 16.5 21.19 16.5 20 16.5C21.414 15.5573 23.1043 15.7164 24.75 15.75C24.7917 15.1459 24.7917 15.1459 24.75 14.5C24.585 14.335 24.42 14.17 24.25 14C24.415 14 24.58 14 24.75 14C24.75 13.835 24.75 13.67 24.75 13.5C24.1725 13.5 23.595 13.5 23 13.5C23 13.4175 23 13.335 23 13.25C23.5775 13.085 24.155 12.92 24.75 12.75Z"
            fill="#100B09" />
        <path
            d="M16.7498 18.2496C16.59 18.3063 16.4302 18.363 16.2655 18.4214C15.6819 18.7127 15.6819 18.7127 15.5623 19.4058C15.5417 19.6017 15.5211 19.7977 15.4998 19.9996C15.1698 19.9996 14.8398 19.9996 14.4998 19.9996C14.7204 21.6638 14.7204 21.6638 15.453 23.1402C16.0602 23.5392 16.5315 23.6697 17.2498 23.7496C17.2498 23.8321 17.2498 23.9146 17.2498 23.9996C14.5945 24.152 14.5945 24.152 13.4373 23.6402C12.7852 22.6852 12.8244 21.8705 12.9998 20.7496C13.6161 18.9351 14.8274 18.0665 16.7498 18.2496Z"
            fill="#F4F2EF" />
        <path
            d="M24.75 24.7501C24.42 24.8326 24.09 24.9151 23.75 25.0001C23.7242 25.227 23.6984 25.4539 23.6719 25.6876C23.4054 26.9471 23.4054 26.9471 22.75 27.5001C22.0014 27.6883 21.2719 27.7941 20.5 27.7501C20.335 27.5851 20.17 27.4201 20 27.2501C20 26.9201 20 26.5901 20 26.2501C19.5875 26.2501 19.175 26.2501 18.75 26.2501C18.6675 26.0851 18.585 25.9201 18.5 25.7501C18.6631 25.7408 18.8261 25.7314 18.9941 25.7218C20.3512 25.6197 21.2916 25.4093 22.5 24.7501C23.4167 24.5344 23.8515 24.4506 24.75 24.7501Z"
            fill="#AE4A47" />
        <path
            d="M17.5 30.7499C17.5 31.1624 17.5 31.5749 17.5 31.9999C15.355 31.9999 13.21 31.9999 11 31.9999C11.5262 30.9475 11.7753 30.7348 12.8594 30.3662C14.369 30.0923 16.0493 30.2664 17.5 30.7499Z"
            fill="#757D7C" />
        <path
            d="M26.0002 17.2498C27.0591 18.1403 27.6685 18.8603 27.8439 20.2341C27.7245 21.2091 27.4697 21.587 26.7502 22.2498C25.9377 22.4529 25.9377 22.4529 25.2502 22.4998C25.4152 22.3451 25.5802 22.1904 25.7502 22.031C26.4454 20.9447 26.4625 20.0088 26.2502 18.7498C25.8639 18.0706 25.8639 18.0706 25.2502 17.7498C24.9202 17.7498 24.5902 17.7498 24.2502 17.7498C24.0852 18.2448 23.9202 18.7398 23.7502 19.2498C23.5027 19.2498 23.2552 19.2498 23.0002 19.2498C23.1652 19.9923 23.3302 20.7348 23.5002 21.4998C23.1702 21.4173 22.8402 21.3348 22.5002 21.2498C22.3875 19.6438 22.5528 18.8156 23.5002 17.4998C24.3289 16.8368 25.0116 16.9472 26.0002 17.2498Z"
            fill="#D7D7D2" />
        <path
            d="M26.75 0C26.915 0 27.08 0 27.25 0C27.2622 0.308086 27.2745 0.616172 27.2871 0.933594C27.1722 4.86591 27.1722 4.86591 28.5 8.25C28.4062 8.78125 28.4062 8.78125 28.25 9.25C27.875 8.90625 27.875 8.90625 27.5 8.5C27.5 8.335 27.5 8.17 27.5 8C27.2892 7.95166 27.0785 7.90332 26.8613 7.85352C26.5874 7.78842 26.3135 7.72332 26.0312 7.65625C25.6223 7.56054 25.6223 7.56054 25.2051 7.46289C24.5 7.25 24.5 7.25 24 6.75C25.1785 6.86985 26.1664 6.99209 27.25 7.5C26.6491 5.69742 25.8695 4.32575 24.5 3C25.5811 3.35061 25.7682 3.52432 26.5 4.5C26.6238 2.2725 26.6238 2.2725 26.75 0Z"
            fill="#170F0B" />
        <path
            d="M0.499771 14.25C2.23372 15.9383 2.23372 15.9383 2.2986 17.1982C2.29529 17.5645 2.28934 17.9307 2.28102 18.2969C2.27877 18.4843 2.27651 18.6717 2.27419 18.8647C2.2683 19.3265 2.25934 19.7883 2.24977 20.25C1.54247 19.8963 1.08618 19.6436 0.673599 18.958C0.444478 18.0248 0.446367 17.1254 0.468521 16.1719C0.470777 15.9867 0.473033 15.8016 0.475357 15.6108C0.481211 15.1572 0.490177 14.7036 0.499771 14.25Z"
            fill="#EAE3DD" />
        <path
            d="M9.50007 15C9.74757 15.1238 9.74757 15.1238 10.0001 15.25C10.1036 15.9307 10.1036 15.9307 10.1563 16.7656C10.175 17.0418 10.1937 17.318 10.213 17.6025C10.2252 17.8162 10.2375 18.0299 10.2501 18.25C10.3532 18.0283 10.4563 17.8066 10.5626 17.5781C10.9754 16.7967 11.4284 16.1702 12.0001 15.5C12.0001 15.665 12.0001 15.83 12.0001 16C12.4126 15.9175 12.8251 15.835 13.2501 15.75C13.2501 15.915 13.2501 16.08 13.2501 16.25C13.4976 16.3325 13.7451 16.415 14.0001 16.5C13.7153 16.5865 13.7153 16.5865 13.4249 16.6748C13.0522 16.7971 13.0522 16.7971 12.6719 16.9219C12.4254 17.0002 12.1789 17.0785 11.9249 17.1592C11.1028 17.5744 10.8605 17.9098 10.5001 18.75C10.4439 19.3279 10.4439 19.3279 10.5469 19.8906C10.5711 20.0766 10.5953 20.2625 10.6202 20.4541C10.7572 21.0299 10.9841 21.4732 11.2501 22C11.3554 22.3929 11.4493 22.7891 11.5313 23.1875C11.5732 23.3873 11.6151 23.5871 11.6583 23.793C11.6886 23.9438 11.7189 24.0946 11.7501 24.25C10.6233 23.3062 10.4009 21.8594 10.0001 20.5C9.94238 20.3076 9.8847 20.1152 9.82527 19.917C9.40019 18.292 9.45363 16.6693 9.50007 15Z"
            fill="#352013" />
        <path
            d="M9.5 0C9.9125 0 10.325 0 10.75 0C10.0521 0.56257 9.34937 1.1178 8.63867 1.66406C8.48817 1.7804 8.33768 1.89674 8.18262 2.0166C7.87215 2.25648 7.56094 2.49541 7.24902 2.7334C6.46192 3.34446 5.79787 3.90221 5.25 4.75C3.85498 4.63049 2.9353 4.0896 1.78125 3.35938C1.60916 3.25319 1.43707 3.147 1.25977 3.0376C0.838498 2.77723 0.419057 2.51391 0 2.25C0.0825 2.0025 0.165 1.755 0.25 1.5C0.470107 1.63857 0.690215 1.77715 0.916992 1.91992C1.21025 2.10292 1.50355 2.28586 1.79688 2.46875C1.94141 2.55995 2.08595 2.65115 2.23486 2.74512C3.0507 3.25213 3.84515 3.67623 4.75 4C4.94594 3.79375 5.14187 3.5875 5.34375 3.375C6 2.75 6 2.75 6.5 2.75C6.5 2.585 6.5 2.42 6.5 2.25C7.0293 1.81836 7.0293 1.81836 7.71875 1.34375C7.94498 1.18584 8.17121 1.02793 8.4043 0.865234C9 0.5 9 0.5 9.5 0.5C9.5 0.335 9.5 0.17 9.5 0Z"
            fill="#0D0704" />
        <path
            d="M32 30C32 30.66 32 31.32 32 32C30.1025 32 28.205 32 26.25 32C27.0372 31.6064 27.8257 31.2272 28.625 30.8594C28.8596 30.7508 29.0942 30.6422 29.3359 30.5303C30.3023 30.1224 30.9398 30 32 30Z"
            fill="#757B7A" />
        <path
            d="M10.25 27.75C10.5516 28.0671 10.5516 28.0671 10.8594 28.3906C11.3901 28.8438 11.6453 28.9952 12.3506 29.0273C12.9091 28.9603 13.4512 28.8732 14 28.75C13.7525 29.1213 13.7525 29.1213 13.5 29.5C14.536 29.7775 15.5261 30.0175 16.5938 30.125C17.5 30.25 17.5 30.25 18 30.75C18.0312 31.4062 18.0312 31.4062 18 32C17.835 32 17.67 32 17.5 32C17.5 31.5875 17.5 31.175 17.5 30.75C14.4076 30.3625 14.4076 30.3625 11.5 31.25C11.2433 31.4931 10.9915 31.7418 10.75 32C10.6675 31.7525 10.585 31.505 10.5 31.25C11.0169 30.5507 11.2861 30.4933 12.1719 30.3281C12.4452 30.3023 12.7184 30.2766 13 30.25C12.9175 30.085 12.835 29.92 12.75 29.75C11.925 29.75 11.1 29.75 10.25 29.75C10.415 29.585 10.58 29.42 10.75 29.25C10.585 28.755 10.42 28.26 10.25 27.75Z"
            fill="#332517" />
        <path
            d="M13.25 18.25C13.4975 18.3325 13.745 18.415 14 18.5C13.8162 19.2562 13.6103 20.0034 13.3906 20.75C13.3291 20.9614 13.2675 21.1728 13.2041 21.3906C13.0131 21.9609 12.7832 22.4705 12.5 23C11.3146 22.3921 11.3146 22.3921 11.0156 21.7344C11.0105 21.5745 11.0053 21.4147 11 21.25C11.165 21.085 11.33 20.92 11.5 20.75C11.6606 20.2328 11.6606 20.2328 11.75 19.75C11.9975 19.75 12.245 19.75 12.5 19.75C12.5773 19.5489 12.6547 19.3478 12.7344 19.1406C13 18.5 13 18.5 13.25 18.25Z"
            fill="#0B0906" />
        <path
            d="M18.75 2.5C20.4825 2.5 22.215 2.5 24 2.5C24.1238 2.7475 24.1238 2.7475 24.25 3C23.9564 3.00645 23.6628 3.01289 23.3604 3.01953C18.9055 3.158 14.2872 3.8213 10.6846 6.70215C10.5412 6.80044 10.3978 6.89873 10.25 7C10.0025 6.9175 9.755 6.835 9.5 6.75C12.1618 4.94703 15.3896 2.78997 18.75 3C18.75 2.835 18.75 2.67 18.75 2.5Z"
            fill="#42332E" />
        <path
            d="M21.5 29.75C21.995 29.75 22.49 29.75 23 29.75C23 29.915 23 30.08 23 30.25C24.5068 31.1659 25.4292 31.6503 27.2031 31.2656C27.5527 31.1795 27.9019 31.0918 28.25 31C28 31.5 28 31.5 27.2412 31.7793C26.2024 32.0506 25.2081 32.0566 24.1406 32.0312C23.9577 32.029 23.7749 32.0267 23.5864 32.0244C23.1409 32.0186 22.6954 32.0096 22.25 32C22.25 31.4225 22.25 30.845 22.25 30.25C22.0025 30.25 21.755 30.25 21.5 30.25C21.5 30.085 21.5 29.92 21.5 29.75Z"
            fill="#281C12" />
        <path
            d="M2.25 8.5C2.28094 8.64437 2.31188 8.78875 2.34375 8.9375C2.47606 9.50187 2.47606 9.50187 2.76562 9.96875C3.07245 10.6642 3.03415 11.2487 3 12C2.835 12 2.67 12 2.5 12C2.5 11.7525 2.5 11.505 2.5 11.25C2.2525 11.085 2.005 10.92 1.75 10.75C1.6675 10.9975 1.585 11.245 1.5 11.5C1.665 11.5 1.83 11.5 2 11.5C1.99484 11.7011 1.98969 11.9022 1.98438 12.1094C1.92592 12.7334 1.92592 12.7334 2.25 13C2.26016 13.4165 2.26068 13.8335 2.25 14.25C2.22422 14.0902 2.19844 13.9303 2.17188 13.7656C2.0868 13.5104 2.0868 13.5104 2 13.25C1.7525 13.1675 1.505 13.085 1.25 13C1.3325 12.7525 1.415 12.505 1.5 12.25C1.335 12.25 1.17 12.25 1 12.25C0.993202 11.8542 0.988379 11.4583 0.984375 11.0625C0.981475 10.8421 0.978574 10.6216 0.975586 10.3945C0.998207 9.79735 1.04878 9.31189 1.25 8.75C1.75 8.5 1.75 8.5 2.25 8.5Z"
            fill="#37281F" />
        <path
            d="M3.25 8.5C3.55785 9.1157 3.5179 9.56988 3.5 10.25C4.0775 10.25 4.655 10.25 5.25 10.25C5.25 11.099 5.11959 11.2665 4.625 11.9219C4.50898 12.0775 4.39297 12.2332 4.27344 12.3936C4.13809 12.57 4.13809 12.57 4 12.75C3.375 12.2188 3.375 12.2188 2.75 11.5C2.71875 10.7344 2.71875 10.7344 2.75 10C2.40518 9.41435 2.40518 9.41435 2 9C2.4125 8.835 2.825 8.67 3.25 8.5Z"
            fill="#EDE6DD" />
        <path
            d="M3 12C3.2475 12.0825 3.495 12.165 3.75 12.25C3.75 12.415 3.75 12.58 3.75 12.75C3.915 12.8325 4.08 12.915 4.25 13C4.16557 13.155 4.08113 13.31 3.99414 13.4697C2.98461 15.4742 2.69998 17.2883 2.5 19.5C2.335 19.4175 2.17 19.335 2 19.25C2.0087 19.045 2.0174 18.8401 2.02637 18.6289C2.03313 18.3595 2.0399 18.0901 2.04688 17.8125C2.05558 17.5457 2.06428 17.2788 2.07324 17.0039C1.99271 16.1749 1.80713 15.8525 1.25 15.25C1.3325 15.085 1.415 14.92 1.5 14.75C1.665 14.915 1.83 15.08 2 15.25C2.2475 15.1675 2.495 15.085 2.75 15C2.6675 14.67 2.585 14.34 2.5 14C2.7475 13.835 2.995 13.67 3.25 13.5C3.1675 13.005 3.085 12.51 3 12Z"
            fill="#362A23" />
        <path
            d="M24.25 17.5C25.6267 17.6224 25.6267 17.6224 26.1689 18.1836C26.5551 18.8443 26.6007 19.2396 26.5938 20C26.5957 20.2114 26.5976 20.4228 26.5996 20.6406C26.4791 21.3778 26.2772 21.724 25.75 22.25C24.8281 22.3125 24.8281 22.3125 24 22.25C23.9175 22.415 23.835 22.58 23.75 22.75C23.3375 22.255 22.925 21.76 22.5 21.25C22.7475 21.25 22.995 21.25 23.25 21.25C23.3325 21.0025 23.415 20.755 23.5 20.5C23.598 20.7062 23.6959 20.9125 23.7969 21.125C24.0212 21.4344 24.0212 21.4344 24.25 21.75C24.9067 21.8545 24.9067 21.8545 25.5 21.75C25.9488 20.7963 26.1345 20.0535 26 19C25.5779 18.3902 25.5779 18.3902 25 18C24.7525 18 24.505 18 24.25 18C24.25 18.4125 24.25 18.825 24.25 19.25C24.0902 19.2758 23.9303 19.3016 23.7656 19.3281C23.5955 19.3848 23.4253 19.4416 23.25 19.5C23.1675 19.7475 23.085 19.995 23 20.25C23 19.92 23 19.59 23 19.25C23.2475 19.1675 23.495 19.085 23.75 19C24.0563 18.2479 24.0563 18.2479 24.25 17.5Z"
            fill="#462725" />
        <path
            d="M16 19.0001C16.8263 18.9438 17.348 18.9138 18.0781 19.3282C18.7116 19.9617 18.7484 20.4777 18.8125 21.3595C18.75 22.2501 18.75 22.2501 18 23.2501C17.9175 22.0951 17.835 20.9401 17.75 19.7501C17.585 19.7501 17.42 19.7501 17.25 19.7501C17.25 19.5851 17.25 19.4201 17.25 19.2501C16.92 19.2501 16.59 19.2501 16.25 19.2501C16.1675 19.6626 16.085 20.0751 16 20.5001C15.7525 20.5826 15.505 20.6651 15.25 20.7501C15.25 21.2451 15.25 21.7401 15.25 22.2501C14.75 21.7501 14.75 21.7501 14.7188 21.0939C14.7291 20.8979 14.7394 20.702 14.75 20.5001C14.9975 20.4176 15.245 20.3351 15.5 20.2501C15.8047 19.624 15.8047 19.624 16 19.0001Z"
            fill="#9B5552" />
        <path
            d="M18 18.75C17.9175 18.9975 17.835 19.245 17.75 19.5C17.1725 19.335 16.595 19.17 16 19C15.9175 19.4125 15.835 19.825 15.75 20.25C15.42 20.3325 15.09 20.415 14.75 20.5C14.8689 20.8701 14.9889 21.2398 15.1094 21.6094C15.1761 21.8153 15.2428 22.0213 15.3115 22.2334C15.4554 22.7406 15.4554 22.7406 15.75 23C16.1298 23.018 16.5104 23.021 16.8906 23.0156C17.0972 23.0134 17.3038 23.0111 17.5166 23.0088C17.6761 23.0059 17.8356 23.003 18 23C17.6787 23.374 17.6787 23.374 17.25 23.75C16.3906 23.7656 16.3906 23.7656 15.5 23.5C14.7078 22.6672 14.4435 22.0321 14.4375 20.9063C14.4581 20.6072 14.4787 20.3081 14.5 20C14.83 20 15.16 20 15.5 20C15.5 19.5875 15.5 19.175 15.5 18.75C16.5204 18.2253 16.9796 18.2253 18 18.75Z"
            fill="#4C312E" />
        <path
            d="M5.00013 21.75C5.16513 21.8325 5.33013 21.915 5.50013 22C5.63016 22.6111 5.73474 23.2113 5.82825 23.8281C6.28466 26.8746 6.28466 26.8746 7.91419 29.3506C8.35707 29.5946 8.35707 29.5946 9.00013 29.75C8.57825 29.9531 8.57825 29.9531 8.00013 30C6.46822 28.9787 6.07476 27.1701 5.50013 25.5C5.33513 25.7475 5.17013 25.995 5.00013 26.25C4.95098 25.8961 4.90466 25.5419 4.8595 25.1875C4.8334 24.9903 4.80729 24.793 4.7804 24.5898C4.74979 23.9935 4.83862 23.57 5.00013 23C5.00959 22.5834 5.0117 22.1665 5.00013 21.75Z"
            fill="#371E06" />
        <path
            d="M29 24.25C29.0825 24.415 29.165 24.58 29.25 24.75C29.415 24.75 29.58 24.75 29.75 24.75C30.3241 25.3904 30.5 25.6199 30.5 26.5C29.8382 26.8652 29.5264 27 28.75 27C28.6675 27.165 28.585 27.33 28.5 27.5C28.2525 27.4175 28.005 27.335 27.75 27.25C28.1625 26.26 28.575 25.27 29 24.25Z"
            fill="#654E2C" />
        <path
            d="M8.25 26.25C8.3325 26.8275 8.415 27.405 8.5 28C8.335 28 8.17 28 8 28C8.165 28.495 8.33 28.99 8.5 29.5C7.59974 29.2567 7.30383 29.0854 6.79688 28.2812C6.5 27.5 6.5 27.5 6.5 26.5C7.6875 26.25 7.6875 26.25 8.25 26.25Z"
            fill="#835F34" />
        <path
            d="M24.75 24.7501C24.42 24.8326 24.09 24.9151 23.75 25.0001C23.7191 25.2425 23.6881 25.4848 23.6562 25.7345C23.5789 26.1135 23.5789 26.1135 23.5 26.5001C23.2525 26.6239 23.2525 26.6239 23 26.7501C23.0825 26.4201 23.165 26.0901 23.25 25.7501C22.2161 25.7255 21.2659 25.8066 20.25 26.0001C20.1675 26.3301 20.085 26.6601 20 27.0001C20 26.7526 20 26.5051 20 26.2501C19.5875 26.2501 19.175 26.2501 18.75 26.2501C18.6675 26.0851 18.585 25.9201 18.5 25.7501C18.6631 25.7408 18.8261 25.7314 18.9941 25.7218C20.3512 25.6197 21.2916 25.4093 22.5 24.7501C23.4167 24.5344 23.8515 24.4506 24.75 24.7501Z"
            fill="#34160C" />
        <path
            d="M2.5 7C2.87125 7.2475 2.87125 7.2475 3.25 7.5C3.4975 7.4175 3.745 7.335 4 7.25C4.65625 7.32812 4.65625 7.32812 5.25 7.5C5.59238 8.18476 5.53155 8.74272 5.5 9.5C5.4175 9.665 5.335 9.83 5.25 10C5.085 10 4.92 10 4.75 10C4.8325 9.2575 4.915 8.515 5 7.75C4.835 7.75 4.67 7.75 4.5 7.75C4.5 8.3275 4.5 8.905 4.5 9.5C4.2525 9.5 4.005 9.5 3.75 9.5C3.8325 9.335 3.915 9.17 4 9C3.835 9 3.67 9 3.5 9C3.05424 8.34027 2.75235 7.75705 2.5 7Z"
            fill="#4E3713" />
        <path
            d="M26.75 18.75C26.9975 18.75 27.245 18.75 27.5 18.75C27.8951 20.7214 27.8951 20.7214 27.3594 21.75C26.6445 22.3366 26.1625 22.4378 25.25 22.5C25.4047 22.3453 25.5594 22.1906 25.7188 22.0312C26.4276 20.9888 26.5683 19.981 26.75 18.75Z"
            fill="#F8F5F1" />
        <path
            d="M16.5 11.75C17.1238 12.3738 17.0899 12.6683 17.1562 13.5312C17.1749 13.7588 17.1936 13.9863 17.2129 14.2207C17.2251 14.3954 17.2374 14.57 17.25 14.75C17.4975 14.8325 17.745 14.915 18 15C18.4269 15.4061 18.8439 15.8231 19.25 16.25C19.415 16.415 19.58 16.58 19.75 16.75C18.6715 16.6302 18.2086 16.3136 17.5 15.5C17.335 15.665 17.17 15.83 17 16C17 15.7525 17 15.505 17 15.25C16.8643 15.307 16.7287 15.3641 16.5889 15.4229C16.41 15.4947 16.2312 15.5666 16.0469 15.6406C15.87 15.7131 15.693 15.7856 15.5107 15.8604C15 16 15 16 14.25 15.75C15.875 15 15.875 15 17 15C17 14.7525 17 14.505 17 14.25C16.835 14.1675 16.67 14.085 16.5 14C16.5 13.2575 16.5 12.515 16.5 11.75Z"
            fill="#2A1309" />
        <path
            d="M1.75 10.5C1.8325 10.665 1.915 10.83 2 11C2.2475 11.0825 2.495 11.165 2.75 11.25C2.6675 11.4975 2.585 11.745 2.5 12C2.83 12.165 3.16 12.33 3.5 12.5C3.4175 12.9125 3.335 13.325 3.25 13.75C2.92 13.8325 2.59 13.915 2.25 14C2.25 13.67 2.25 13.34 2.25 13C2.085 12.9175 1.92 12.835 1.75 12.75C1.8325 12.3375 1.915 11.925 2 11.5C1.7525 11.5825 1.505 11.665 1.25 11.75C1.415 11.3375 1.58 10.925 1.75 10.5Z"
            fill="#C7C1B9" />
        <path
            d="M20 0C21.1873 0.553882 22.285 1.0935 23.25 2C23.3325 2.2475 23.415 2.495 23.5 2.75C21.7675 2.62625 21.7675 2.62625 20 2.5C20.75 2 20.75 2 21.25 2C21.2013 1.5125 21.2013 1.5125 21 1C20.5041 0.678908 20.5041 0.678908 20 0.5C20 0.335 20 0.17 20 0Z"
            fill="#E2DDD6" />
        <path
            d="M14.75 0C14.8325 0.165 14.915 0.33 15 0.5C15.165 0.5 15.33 0.5 15.5 0.5C15.4175 1.0775 15.335 1.655 15.25 2.25C16.405 2.25 17.56 2.25 18.75 2.25C18.75 2.4975 18.75 2.745 18.75 3C17.6363 3.12375 17.6363 3.12375 16.5 3.25C16.5 3.0025 16.5 2.755 16.5 2.5C15.9225 2.5 15.345 2.5 14.75 2.5C14.75 1.675 14.75 0.85 14.75 0Z"
            fill="#EED2CD" />
        <path
            d="M5.75016 23.25C5.99766 23.25 6.24516 23.25 6.50016 23.25C6.6329 23.7337 6.76252 24.2182 6.89079 24.7031C6.9633 24.9729 7.03581 25.2426 7.11051 25.5205C7.25016 26.25 7.25016 26.25 7.00016 27C7.00016 26.835 7.00016 26.67 7.00016 26.5C6.75266 26.5825 6.50516 26.665 6.25016 26.75C6.11782 26.261 5.9881 25.7713 5.85954 25.2812C5.78703 25.0086 5.71452 24.736 5.63981 24.4551C5.50016 23.75 5.50016 23.75 5.75016 23.25Z"
            fill="#624530" />
        <path
            d="M24.75 17.75C25.9262 18.3525 25.9262 18.3525 26.25 19C26.3077 20.3846 26.3077 20.3846 26 21C25.5875 21 25.175 21 24.75 21C25.08 20.9175 25.41 20.835 25.75 20.75C25.75 20.1725 25.75 19.595 25.75 19C25.6005 19.0877 25.4509 19.1753 25.2969 19.2656C24.75 19.5 24.75 19.5 24 19.25C24.0938 18.6406 24.0938 18.6406 24.25 18C24.415 17.9175 24.58 17.835 24.75 17.75Z"
            fill="#C86863" />
        <path
            d="M-3.46303e-05 13.5C0.0824654 13.5 0.164965 13.5 0.249965 13.5C0.262211 13.7266 0.274458 13.9531 0.287075 14.1865C0.284392 17.1961 0.284392 17.1961 1.53122 19.7344C1.76325 19.8659 1.76325 19.8659 1.99997 20C1.99997 20.165 1.99997 20.33 1.99997 20.5C1.17747 20.2777 0.820958 20.1045 0.335903 19.3906C-0.112352 18.2022 -0.0818806 17.1634 -0.0469096 15.9062C-0.0435258 15.6745 -0.0401421 15.4428 -0.0366557 15.2041C-0.0278693 14.6359 -0.01557 14.068 -3.46303e-05 13.5Z"
            fill="#070302" />
        <path
            d="M20.25 0.000125207C21.1422 -0.101838 21.4342 -0.0488204 22.1719 0.500125C22.3627 0.665125 22.5534 0.830125 22.75 1.00013C22.915 1.00013 23.08 1.00013 23.25 1.00013C23.415 0.670125 23.58 0.340125 23.75 0.000125207C23.9975 0.000125207 24.245 0.000125207 24.5 0.000125207C24.1769 0.996227 23.8526 1.4092 23 2.00013C22.541 1.71474 22.0828 1.42804 21.625 1.14075C21.3698 0.981229 21.1145 0.821707 20.8516 0.657352C20.653 0.522967 20.4545 0.388582 20.25 0.250125C20.25 0.167625 20.25 0.0851252 20.25 0.000125207Z"
            fill="#130E0C" />
        <path
            d="M9.5 0C9.9125 0 10.325 0 10.75 0C9.82239 0.750352 8.87759 1.47334 7.92188 2.1875C7.78443 2.2903 7.64698 2.39311 7.50537 2.49902C7.17039 2.74953 6.83521 2.99979 6.5 3.25C6.4175 3.085 6.335 2.92 6.25 2.75C7.09718 1.85298 7.94035 1.13579 9 0.5C9.165 0.5 9.33 0.5 9.5 0.5C9.5 0.335 9.5 0.17 9.5 0Z"
            fill="#131110" />
        <path
            d="M27.25 15.5C27.58 15.5825 27.91 15.665 28.25 15.75C28.25 16.41 28.25 17.07 28.25 17.75C27.5 17.75 27.5 17.75 27.1533 17.4219C26.8522 17.0312 26.5511 16.6406 26.25 16.25C26.4975 16.1675 26.745 16.085 27 16C27.0825 15.835 27.165 15.67 27.25 15.5Z"
            fill="#D7B7A0" />
        <path
            d="M25.25 14.25C25.8358 14.3139 26.4196 14.3982 27 14.5C27.3114 15.1227 27.1942 15.3527 27 16C25.8125 16.2812 25.8125 16.2812 25.25 16C25.25 15.4225 25.25 14.845 25.25 14.25Z"
            fill="#72533D" />
        <path
            d="M4.5 7.75C4.665 7.75 4.83 7.75 5 7.75C5.03125 9.4375 5.03125 9.4375 4.75 10C4.915 10.0825 5.08 10.165 5.25 10.25C4.66848 10.3452 4.08486 10.4282 3.5 10.5C3.25 10.25 3.25 10.25 3.23438 9.60938C3.23953 9.40828 3.24469 9.20719 3.25 9C3.4975 9 3.745 9 4 9C4.0825 9.165 4.165 9.33 4.25 9.5C4.3325 8.9225 4.415 8.345 4.5 7.75Z"
            fill="#A38B2F" />
        <path
            d="M23.2502 18C23.4977 18.0825 23.7452 18.165 24.0002 18.25C23.9177 18.58 23.8352 18.91 23.7502 19.25C23.5027 19.25 23.2552 19.25 23.0002 19.25C23.1652 19.9925 23.3302 20.735 23.5002 21.5C23.1702 21.4175 22.8402 21.335 22.5002 21.25C22.4316 19.9014 22.4101 19.1202 23.2502 18Z"
            fill="#ECDFD8" />
        <path
            d="M8.24979 24.25C8.33229 24.25 8.41479 24.25 8.49979 24.25C8.54233 24.4463 8.58487 24.6425 8.6287 24.8447C9.0319 26.6348 9.0319 26.6348 9.81229 28.2812C9.95667 28.5184 10.101 28.7556 10.2498 29C10.1673 29.165 10.0848 29.33 9.99979 29.5C9.40604 29.2969 9.40604 29.2969 8.74979 28.75C8.27874 27.2942 8.18222 25.7704 8.24979 24.25Z"
            fill="#351A07" />
        <path
            d="M11 28.25C12.0725 28.25 13.145 28.25 14.25 28.25C14 28.75 14 28.75 13.4375 29.0469C12.6592 29.2768 12.2618 29.2677 11.5 29C11.335 28.7525 11.17 28.505 11 28.25Z"
            fill="#D6B03B" />
        <path
            d="M11 22C11.495 22.2475 11.99 22.495 12.5 22.75C12.665 22.5025 12.83 22.255 13 22C13.165 22.495 13.33 22.99 13.5 23.5C12.9225 23.5825 12.345 23.665 11.75 23.75C11 22.5625 11 22.5625 11 22Z"
            fill="#D1B19B" />
        <path
            d="M0.5 3.25C0.5825 3.415 0.665 3.58 0.75 3.75C1.25417 4.03338 1.25417 4.03338 1.75 4.25C1.75 4.91667 1.75 5.58333 1.75 6.25C1.45685 5.92843 1.16552 5.6052 0.875 5.28125C0.712578 5.10143 0.550156 4.9216 0.382812 4.73633C0 4.25 0 4.25 0 3.75C0.165 3.75 0.33 3.75 0.5 3.75C0.5 3.585 0.5 3.42 0.5 3.25Z"
            fill="#5C3E28" />
        <path
            d="M18.5 19.75C18.7475 19.75 18.995 19.75 19.25 19.75C19.2704 20.1873 19.2848 20.6249 19.2969 21.0625C19.3056 21.3061 19.3143 21.5498 19.3232 21.8008C19.2402 22.5937 19.0283 22.9176 18.5 23.5C18.335 23.4175 18.17 23.335 18 23.25C18.0819 23.1121 18.1637 22.9741 18.248 22.832C18.542 22.153 18.5506 21.6736 18.5312 20.9375C18.5267 20.7145 18.5222 20.4915 18.5176 20.2617C18.5118 20.0929 18.506 19.924 18.5 19.75Z"
            fill="#F1DECD" />
        <path
            d="M26 7.5C27.4154 7.86923 27.4154 7.86923 27.8438 8.53125C27.9211 8.76328 27.9211 8.76328 28 9C27.7525 9.0825 27.505 9.165 27.25 9.25C27.085 9.415 26.92 9.58 26.75 9.75C26 8.34375 26 8.34375 26 7.5Z"
            fill="#674C36" />
        <path
            d="M24.75 12.75C24.8325 12.915 24.915 13.08 25 13.25C25.3558 13.2345 25.3558 13.2345 25.7188 13.2188C26.5 13.25 26.5 13.25 27 13.75C26.4225 13.6675 25.845 13.585 25.25 13.5C25.25 13.665 25.25 13.83 25.25 14C25.415 14.0825 25.58 14.165 25.75 14.25C25.2812 14.4062 25.2812 14.4062 24.75 14.5C24.585 14.335 24.42 14.17 24.25 14C24.415 14 24.58 14 24.75 14C24.75 13.835 24.75 13.67 24.75 13.5C24.1725 13.5 23.595 13.5 23 13.5C23 13.4175 23 13.335 23 13.25C23.5775 13.085 24.155 12.92 24.75 12.75Z"
            fill="#1C0A03" />
        <path
            d="M24.75 15.7497C24.75 15.9147 24.75 16.0797 24.75 16.2497C23.8092 16.5633 22.932 16.5265 21.9531 16.5154C21.7657 16.5142 21.5783 16.5131 21.3853 16.5119C20.9235 16.509 20.4617 16.5045 20 16.4997C21.414 15.5571 23.1043 15.7161 24.75 15.7497Z"
            fill="#3E2516" />
        <path
            d="M23 25.75C23.1562 26.2031 23.1562 26.2031 23.25 26.75C22.75 27.5 22.75 27.5 22.209 27.6279C22.006 27.6424 21.8029 27.6569 21.5938 27.6719C21.2873 27.6965 21.2873 27.6965 20.9746 27.7217C20.818 27.731 20.6614 27.7404 20.5 27.75C20.4175 27.585 20.335 27.42 20.25 27.25C20.91 27.25 21.57 27.25 22.25 27.25C22.1675 26.8375 22.085 26.425 22 26C22.2475 26 22.495 26 22.75 26C22.8325 25.9175 22.915 25.835 23 25.75Z"
            fill="#71322D" />
        <path
            d="M5.00013 21.75C5.16513 21.8325 5.33013 21.915 5.50013 22C5.83092 23.5437 5.67294 24.7405 5.25013 26.25C5.16763 26.25 5.08513 26.25 5.00013 26.25C4.95098 25.8961 4.90466 25.5419 4.8595 25.1875C4.8334 24.9903 4.80729 24.793 4.7804 24.5898C4.74979 23.9935 4.83862 23.57 5.00013 23C5.00959 22.5834 5.0117 22.1665 5.00013 21.75Z"
            fill="#4C2F1A" />
        <path
            d="M28.5 15.5C28.9125 15.5 29.325 15.5 29.75 15.5C29.75 16.0775 29.75 16.655 29.75 17.25C29.5025 17.3325 29.255 17.415 29 17.5C28.5 17 28.5 17 28.4688 16.2188C28.4791 15.9816 28.4894 15.7444 28.5 15.5Z"
            fill="#130B06" />
        <path
            d="M17 15.25C17.0825 15.58 17.165 15.91 17.25 16.25C16.4187 16.5271 15.8445 16.4611 15 16.25C15 16.085 15 15.92 15 15.75C16.4375 15.25 16.4375 15.25 17 15.25Z"
            fill="#74543C" />
        <path
            d="M17 14.25C17 14.4975 17 14.745 17 15C15.6387 15.3713 15.6387 15.3713 14.25 15.75C14.5 15 14.5 15 14.9443 14.7627C15.1225 14.7018 15.3008 14.6409 15.4844 14.5781C15.6619 14.5153 15.8395 14.4524 16.0225 14.3877C16.5 14.25 16.5 14.25 17 14.25Z"
            fill="#6E5340" />
        <path
            d="M0 12.5C1.125 13.9062 1.125 13.9062 1.25 14.75C1.085 14.6675 0.92 14.585 0.75 14.5C0.6675 15.325 0.585 16.15 0.5 17C0.4175 17 0.335 17 0.25 17C0.1675 15.515 0.085 14.03 0 12.5Z"
            fill="#463C37" />
        <path
            d="M7.25 9.5C7.4975 9.5825 7.745 9.665 8 9.75C7.7525 10.245 7.505 10.74 7.25 11.25C7.1675 11.085 7.085 10.92 7 10.75C6.5875 10.8325 6.175 10.915 5.75 11C6.25 10.5 6.75 10 7.25 9.5Z"
            fill="#624836" />
        <path
            d="M23 25.7496C22.835 26.0796 22.67 26.4096 22.5 26.7496C22.335 26.5846 22.17 26.4196 22 26.2496C21.2291 26.2079 21.2291 26.2079 20.5 26.2496C20.5 26.5796 20.5 26.9096 20.5 27.2496C20.335 27.1671 20.17 27.0846 20 26.9996C20.0312 26.5308 20.0312 26.5308 20.25 25.9996C21.2531 25.5208 21.9359 25.4366 23 25.7496Z"
            fill="#914542" />
        <path
            d="M24.75 24.75C24.42 24.8325 24.09 24.915 23.75 25C23.7036 25.3635 23.7036 25.3635 23.6562 25.7344C23.6047 25.987 23.5531 26.2397 23.5 26.5C23.2525 26.6238 23.2525 26.6238 23 26.75C23.0825 26.42 23.165 26.09 23.25 25.75C23.085 25.6675 22.92 25.585 22.75 25.5C22.8325 25.335 22.915 25.17 23 25C22.835 24.9175 22.67 24.835 22.5 24.75C23.9062 24.4688 23.9062 24.4688 24.75 24.75Z"
            fill="#422113" />
        <path
            d="M1.5 9.75C1.9125 9.75 2.325 9.75 2.75 9.75C2.97765 10.5183 3.02222 11.2002 3 12C2.835 12 2.67 12 2.5 12C2.5 11.7525 2.5 11.505 2.5 11.25C2.335 11.1675 2.17 11.085 2 11C1.8196 10.5891 1.65162 10.1724 1.5 9.75Z"
            fill="#7E7973" />
        <path
            d="M20 0C21.4688 0.71875 21.4688 0.71875 21.75 1C21.7812 1.625 21.7812 1.625 21.75 2.25C21.5 2.5 21.5 2.5 20.7344 2.51562C20.492 2.51047 20.2497 2.50531 20 2.5C20.75 2 20.75 2 21.25 2C21.2013 1.5125 21.2013 1.5125 21 1C20.5041 0.678908 20.5041 0.678908 20 0.5C20 0.335 20 0.17 20 0Z"
            fill="#F9CEC9" />
        <path
            d="M18 22.2504C18 22.4979 18 22.7454 18 23.0004C17.3228 23.339 16.7477 23.2667 16 23.2504C16.0825 23.0029 16.165 22.7554 16.25 22.5004C16.8657 22.1925 17.3199 22.2325 18 22.2504Z"
            fill="#F8C9C8" />
        <path
            d="M23.25 20.5C23.4588 20.8016 23.4588 20.8016 23.6719 21.1094C24.3047 21.8106 24.5814 21.9235 25.5 22C25.5 22.0825 25.5 22.165 25.5 22.25C25.005 22.25 24.51 22.25 24 22.25C23.9175 22.415 23.835 22.58 23.75 22.75C23.3375 22.255 22.925 21.76 22.5 21.25C22.7475 21.25 22.995 21.25 23.25 21.25C23.25 21.0025 23.25 20.755 23.25 20.5Z"
            fill="#38211E" />
        <path
            d="M26.5 0.5C26.5825 0.5 26.665 0.5 26.75 0.5C26.75 1.9025 26.75 3.305 26.75 4.75C26.42 4.42 26.09 4.09 25.75 3.75C25.915 3.585 26.08 3.42 26.25 3.25C26.3657 2.58439 26.3657 2.58439 26.4062 1.84375C26.4249 1.59303 26.4436 1.3423 26.4629 1.08398C26.4751 0.89127 26.4874 0.698555 26.5 0.5Z"
            fill="#6C5445" />
        <path
            d="M3.25 8.5C3.5886 9.1772 3.51625 9.75233 3.5 10.5C3.2525 10.5 3.005 10.5 2.75 10.5C2.38484 9.83815 2.25 9.52638 2.25 8.75C2.58 8.6675 2.91 8.585 3.25 8.5Z"
            fill="#E1DCD2" />
        <path
            d="M22.75 30.75C23.6633 31.0624 23.9452 31.1677 24.5 32C23.9225 32 23.345 32 22.75 32C22.75 31.5875 22.75 31.175 22.75 30.75Z"
            fill="#808589" />
        <path
            d="M14.25 16C15.075 16.0825 15.9 16.165 16.75 16.25C16 17 16 17 15.2031 17.0469C14.8551 17.0237 14.8551 17.0237 14.5 17C14.4175 16.67 14.335 16.34 14.25 16Z"
            fill="#473021" />
        <path
            d="M21.5 29.75C21.995 29.75 22.49 29.75 23 29.75C22.9175 30.4925 22.835 31.235 22.75 32C22.585 32 22.42 32 22.25 32C22.25 31.4225 22.25 30.845 22.25 30.25C22.0025 30.25 21.755 30.25 21.5 30.25C21.5 30.085 21.5 29.92 21.5 29.75Z"
            fill="#4A3627" />
        <path
            d="M10.25 27.75C10.745 28.1625 11.24 28.575 11.75 29C11.6675 29.2475 11.585 29.495 11.5 29.75C11.0875 29.75 10.675 29.75 10.25 29.75C10.415 29.585 10.58 29.42 10.75 29.25C10.585 28.755 10.42 28.26 10.25 27.75Z"
            fill="#3B1F05" />
        <path
            d="M26 17.2503C25.9175 17.4978 25.835 17.7453 25.75 18.0003C25.5128 17.9487 25.2756 17.8972 25.0312 17.844C24.7734 17.8131 24.5156 17.7822 24.25 17.7503C24.085 17.9153 23.92 18.0803 23.75 18.2503C23.585 18.0853 23.42 17.9203 23.25 17.7503C24.2572 17.0097 24.793 16.9415 26 17.2503Z"
            fill="#CFCBC9" />
        <path
            d="M28.25 15.75C28.4975 15.75 28.745 15.75 29 15.75C29 16.575 29 17.4 29 18.25C28.835 18.25 28.67 18.25 28.5 18.25C28.0982 17.4464 28.2356 16.641 28.25 15.75Z"
            fill="#544133" />
        <path
            d="M13.75 9C13.915 9.0825 14.08 9.165 14.25 9.25C14.4062 10.0156 14.4062 10.0156 14.5 10.75C14.17 10.75 13.84 10.75 13.5 10.75C13.4175 10.255 13.335 9.76 13.25 9.25C13.415 9.1675 13.58 9.085 13.75 9Z"
            fill="#634127" />
        <path
            d="M14.75 0C14.8325 0.165 14.915 0.33 15 0.5C15.165 0.5 15.33 0.5 15.5 0.5C15.4175 1.0775 15.335 1.655 15.25 2.25C15.6625 2.25 16.075 2.25 16.5 2.25C16.5 2.3325 16.5 2.415 16.5 2.5C15.9225 2.5 15.345 2.5 14.75 2.5C14.75 1.675 14.75 0.85 14.75 0Z"
            fill="#FDD2CB" />
        <path
            d="M6.75 27.5C8.19615 28.3615 8.19615 28.3615 8.46875 29.0625C8.48422 29.2791 8.48422 29.2791 8.5 29.5C7.90625 29.3438 7.90625 29.3438 7.25 29C6.92188 28.2188 6.92188 28.2188 6.75 27.5Z"
            fill="#E0BB41" />
        <path
            d="M30.5 25.9997C30.5 26.1647 30.5 26.3297 30.5 26.4997C29.8382 26.8649 29.5264 26.9997 28.75 26.9997C28.6675 26.7522 28.585 26.5047 28.5 26.2497C29.2321 26.0057 29.739 25.9791 30.5 25.9997Z"
            fill="#D4B23B" />
        <path
            d="M13 15.75C13.0825 15.915 13.165 16.08 13.25 16.25C13.4975 16.3325 13.745 16.415 14 16.5C12.4286 17.1071 12.4286 17.1071 11.5 16.75C11.995 16.42 12.49 16.09 13 15.75Z"
            fill="#513C34" />
        <path
            d="M18.5 18.25C18.9844 18.4375 18.9844 18.4375 19.5 18.75C19.6875 19.2812 19.6875 19.2812 19.75 19.75C19.5025 19.8738 19.5025 19.8738 19.25 20C18.5938 19.7656 18.5938 19.7656 18 19.5C18.0825 19.335 18.165 19.17 18.25 19C18.6213 19.2475 18.6213 19.2475 19 19.5C18.835 19.0875 18.67 18.675 18.5 18.25Z"
            fill="#CFB5A6" />
        <path
            d="M22.75 17C23.0271 17.8313 22.9611 18.4055 22.75 19.25C22.5025 19.1675 22.255 19.085 22 19C22.4688 17.5625 22.4688 17.5625 22.75 17Z"
            fill="#231711" />
        <path
            d="M22.75 13.5C23.41 13.5 24.07 13.5 24.75 13.5C24.75 13.665 24.75 13.83 24.75 14C23.3125 14.2812 23.3125 14.2812 22.75 14C22.75 13.835 22.75 13.67 22.75 13.5Z"
            fill="#523726" />
        <path
            d="M29 31.4999C29 31.6649 29 31.8299 29 31.9999C28.0925 31.9999 27.185 31.9999 26.25 31.9999C28.125 31.0624 28.125 31.0624 29 31.4999Z"
            fill="#828582" />
        <path
            d="M27.25 27.5C27.8687 27.7475 27.8687 27.7475 28.5 28C28.4175 28.165 28.335 28.33 28.25 28.5C27.6725 28.4175 27.095 28.335 26.5 28.25C26.7475 28.0025 26.995 27.755 27.25 27.5Z"
            fill="#654F35" />
        <path
            d="M15.25 21.5C15.8043 21.7772 16.259 22.1236 16.75 22.5C16.42 22.7475 16.09 22.995 15.75 23.25C15.25 22.75 15.25 22.75 15.2188 22.0938C15.2291 21.8978 15.2394 21.7019 15.25 21.5Z"
            fill="#D46C67" />
        <path
            d="M0.500093 18.25C0.561968 18.3995 0.623843 18.5491 0.687593 18.7031C1.0412 19.3219 1.43224 19.5836 2.00009 20C2.00009 20.165 2.00009 20.33 2.00009 20.5C0.846374 20.1357 0.846374 20.1357 0.406343 19.5156C0.250093 19 0.250093 19 0.500093 18.25Z"
            fill="#12100F" />
        <path
            d="M25.25 14.25C25.415 14.25 25.58 14.25 25.75 14.25C25.75 14.6625 25.75 15.075 25.75 15.5C25.915 15.5 26.08 15.5 26.25 15.5C26.1675 15.7475 26.085 15.995 26 16.25C25.7525 16.1675 25.505 16.085 25.25 16C25.25 15.4225 25.25 14.845 25.25 14.25Z"
            fill="#57433D" />
        <path
            d="M9.25 28.5C9.58 28.9125 9.91 29.325 10.25 29.75C10.085 29.75 9.92 29.75 9.75 29.75C9.75 29.915 9.75 30.08 9.75 30.25C9.5025 30.25 9.255 30.25 9 30.25C9.0825 29.6725 9.165 29.095 9.25 28.5Z"
            fill="#63411F" />
        <path
            d="M9.25 27.5C9.415 27.5 9.58 27.5 9.75 27.5C10.3405 28.1621 10.7179 28.6538 11 29.5C10.7525 29.5 10.505 29.5 10.25 29.5C9.92 28.84 9.59 28.18 9.25 27.5Z"
            fill="#CAA742" />
        <path
            d="M24.25 21.25C24.745 21.25 25.24 21.25 25.75 21.25C25.6675 21.4975 25.585 21.745 25.5 22C25.0875 22 24.675 22 24.25 22C24.25 21.7525 24.25 21.505 24.25 21.25Z"
            fill="#F3CBCA" />
        <path
            d="M10.5 19C10.7475 19 10.995 19 11.25 19C11.4836 19.7526 11.5111 19.9666 11.25 20.75C11.085 20.75 10.92 20.75 10.75 20.75C10.6675 20.1725 10.585 19.595 10.5 19Z"
            fill="#EDC5A6" />
        <path
            d="M2.75 12.75C2.9975 12.75 3.245 12.75 3.5 12.75C3.4175 13.08 3.335 13.41 3.25 13.75C2.92 13.8325 2.59 13.915 2.25 14C2.46875 13.0312 2.46875 13.0312 2.75 12.75Z"
            fill="#ECE7DD" />
        <path
            d="M1.75 10.5C1.8325 10.665 1.915 10.83 2 11C2.2475 11.0825 2.495 11.165 2.75 11.25C2.585 11.6625 2.42 12.075 2.25 12.5C2.1675 12.17 2.085 11.84 2 11.5C1.7525 11.5825 1.505 11.665 1.25 11.75C1.415 11.3375 1.58 10.925 1.75 10.5Z"
            fill="#E7DDD8" />
        <path
            d="M11.2501 9.5C11.4976 9.5825 11.7451 9.665 12.0001 9.75C12.1563 10.3438 12.1563 10.3438 12.2501 11C12.0851 11.165 11.9201 11.33 11.7501 11.5C11.2121 10.693 11.1999 10.429 11.2501 9.5Z"
            fill="#57371F" />
        <path
            d="M22.75 30.5C23.8285 30.6198 24.2914 30.9364 25 31.75C23.9963 31.75 23.5451 31.333 22.75 30.75C22.75 30.6675 22.75 30.585 22.75 30.5Z"
            fill="#302720" />
        <path
            d="M17.25 13.75C17.8687 13.8738 17.8687 13.8738 18.5 14C18.5 14.2475 18.5 14.495 18.5 14.75C18.0875 14.75 17.675 14.75 17.25 14.75C17.25 14.42 17.25 14.09 17.25 13.75Z"
            fill="#4F3A2D" />
        <path
            d="M25.25 13.5C25.8358 13.5639 26.4196 13.6482 27 13.75C27.0825 13.915 27.165 14.08 27.25 14.25C25.8125 14.2812 25.8125 14.2812 25.25 14C25.25 13.835 25.25 13.67 25.25 13.5Z"
            fill="#664E3F" />
        <path
            d="M3.5 10.5C4.25 10.75 4.25 10.75 4.54688 11.2656C4.61391 11.4255 4.68094 11.5853 4.75 11.75C4.42 11.8325 4.09 11.915 3.75 12C3.6675 11.505 3.585 11.01 3.5 10.5Z"
            fill="#E6E0D6" />
        <path
            d="M24.25 0.5C24.5 1.25 24.5 1.25 24.2969 1.76562C24 2.25 24 2.25 23.5 2.75C23.3125 2.32812 23.3125 2.32812 23.25 1.75C23.7344 1.0625 23.7344 1.0625 24.25 0.5Z"
            fill="#5B493E" />
    </g>
    <defs>
        <clipPath id="clip0_5106_183">
            <rect width="32" height="32" fill="white" />
        </clipPath>
    </defs>
</svg>