<svg width="32" height="32" viewBox="0 0 32 32" fill="none" xmlns="http://www.w3.org/2000/svg">
    <g clip-path="url(#clip0_5364_52)">
        <path fill-rule="evenodd" clip-rule="evenodd"
            d="M-0.0800781 -0.0800781C10.5866 -0.0800781 21.2532 -0.0800781 31.9199 -0.0800781C31.9199 10.5866 31.9199 21.2532 31.9199 31.9199C21.2532 31.9199 10.5866 31.9199 -0.0800781 31.9199C-0.0800781 21.2532 -0.0800781 10.5866 -0.0800781 -0.0800781Z"
            fill="#FEFEFE" />
        <path fill-rule="evenodd" clip-rule="evenodd"
            d="M15.2798 3.11998C17.4182 3.04605 18.2449 4.05939 17.7598 6.15998C16.2321 7.77776 14.9522 7.61776 13.9198 5.67998C13.745 4.48259 14.1983 3.62925 15.2798 3.11998Z"
            fill="#8A42D5" />
        <path fill-rule="evenodd" clip-rule="evenodd"
            d="M15.92 9.51987C19.2239 9.12954 21.3306 10.5162 22.24 13.6799C22.32 16.9861 22.3467 20.2928 22.32 23.5999C21.0933 23.5999 19.8667 23.5999 18.64 23.5999C18.6667 20.6127 18.64 17.6261 18.56 14.6399C18.281 13.3474 17.481 12.7074 16.16 12.7199C14.6692 12.8769 13.7092 13.6769 13.28 15.1199C13.2 17.9461 13.1734 20.7727 13.2 23.5999C11.9733 23.5999 10.7467 23.5999 9.52002 23.5999C9.52002 19.0132 9.52002 14.4265 9.52002 9.83987C10.38 9.78736 11.2333 9.8407 12.08 9.99987C12.275 10.5065 12.515 10.9865 12.8 11.4399C13.6869 10.5308 14.7269 9.89077 15.92 9.51987Z"
            fill="#030303" />
        <path fill-rule="evenodd" clip-rule="evenodd"
            d="M9.52002 25.8398C13.7867 25.8398 18.0533 25.8398 22.32 25.8398C22.32 26.7998 22.32 27.7598 22.32 28.7198C18.0533 28.7198 13.7867 28.7198 9.52002 28.7198C9.52002 27.7598 9.52002 26.7998 9.52002 25.8398Z"
            fill="#8347BF" />
        <path fill-rule="evenodd" clip-rule="evenodd"
            d="M22.1602 26.3202C18.1069 26.3202 14.0535 26.3202 10.0002 26.3202C9.95322 26.9501 10.0066 27.5634 10.1602 28.1602C14.0002 28.2669 17.8402 28.2669 21.6802 28.1602C21.2535 28.1069 20.8269 28.0534 20.4002 28.0002C20.8773 27.9205 21.3573 27.8938 21.8402 27.9202C21.8402 27.7602 21.8402 27.6002 21.8402 27.4402C21.6269 27.4402 21.4135 27.4402 21.2002 27.4402C21.2002 27.2802 21.2002 27.1202 21.2002 26.9602C21.5775 26.9997 21.8975 26.8931 22.1602 26.6402C22.1602 27.2802 22.1602 27.9202 22.1602 28.5602C18.0002 28.5602 13.8402 28.5602 9.68018 28.5602C9.68018 27.7069 9.68018 26.8534 9.68018 26.0002C13.8969 25.8949 18.057 26.0016 22.1602 26.3202Z"
            fill="#8D3BDF" />
        <path fill-rule="evenodd" clip-rule="evenodd"
            d="M22.1599 26.3198C22.1599 26.4265 22.1599 26.5331 22.1599 26.6398C21.8972 26.8928 21.5772 26.9993 21.1999 26.9598C21.1999 27.1198 21.1999 27.2798 21.1999 27.4398C21.4132 27.4398 21.6266 27.4398 21.8399 27.4398C21.8399 27.5998 21.8399 27.7598 21.8399 27.9198C21.357 27.8934 20.877 27.9201 20.3999 27.9998C20.8266 28.0531 21.2532 28.1065 21.6799 28.1598C17.8399 28.2665 13.9999 28.2665 10.1599 28.1598C10.0063 27.563 9.95293 26.9497 9.99989 26.3198C14.0532 26.3198 18.1066 26.3198 22.1599 26.3198Z"
            fill="#8840D4" />
    </g>
    <defs>
        <clipPath id="clip0_5364_52">
            <rect width="32" height="32" fill="white" />
        </clipPath>
    </defs>
</svg>