<svg width="113" height="113" viewBox="0 0 113 113" fill="none" xmlns="http://www.w3.org/2000/svg">
    <g clip-path="url(#clip0_5214_64)">
        <path opacity="0.02" fill-rule="evenodd" clip-rule="evenodd"
            d="M100.005 12.9258C97.3398 12.4924 94.6748 11.992 92.0078 11.4245C95.0447 10.5387 97.7106 11.0392 100.005 12.9258Z"
            fill="#C9FF22" />
        <path opacity="0.016" fill-rule="evenodd" clip-rule="evenodd"
            d="M100.005 12.9258C102.965 13.4583 103.298 14.1255 101.005 14.9275C100.672 14.2602 100.338 13.593 100.005 12.9258Z"
            fill="#C8FF05" />
        <path opacity="0.996" fill-rule="evenodd" clip-rule="evenodd"
            d="M101.005 14.9275C101.671 16.2619 102.671 17.2628 104.004 17.93C104.464 19.9822 105.131 21.9838 106.003 23.9351C105.131 25.8864 104.464 27.888 104.004 29.9402C102.337 30.941 101.005 32.2755 100.005 33.9436C96.9832 35.1222 93.9843 35.1222 91.0085 33.9436C90.4037 32.4166 89.2381 31.4157 87.5098 30.941C86.6691 27.8102 85.8354 24.8076 85.0107 21.9334C85.0107 20.9326 85.0107 19.9317 85.0107 18.9309C87.5218 15.9204 90.6876 13.9187 94.5071 12.9258C96.6603 13.7005 98.8265 14.3678 101.005 14.9275Z"
            fill="#AFFF27" />
        <path opacity="0.031" fill-rule="evenodd" clip-rule="evenodd"
            d="M106.003 18.9313C105.336 18.5977 104.67 18.2641 104.003 17.9304C104.804 15.6356 105.471 15.9692 106.003 18.9313Z"
            fill="#C4FF12" />
        <path opacity="0.02" fill-rule="evenodd" clip-rule="evenodd"
            d="M106.002 18.9307C108.452 22.0337 108.619 25.3698 106.502 28.9391C107.32 25.6057 107.153 22.2696 106.002 18.9307Z"
            fill="#C2FF0C" />
        <path opacity="0.018" fill-rule="evenodd" clip-rule="evenodd"
            d="M85.0107 18.9304C83.3483 20.8705 82.6826 23.2058 83.0114 25.9363C82.0118 25.6028 81.3451 24.9355 81.0122 23.9346C81.7289 21.4792 82.8955 19.1439 84.5109 16.9287C84.9747 17.5236 85.1416 18.1909 85.0107 18.9304Z"
            fill="#BBFF39" />
        <path opacity="0.031" fill-rule="evenodd" clip-rule="evenodd"
            d="M21.0348 27.9384C18.3688 26.604 15.7038 26.604 13.0378 27.9384C12.3711 27.9384 11.7053 27.9384 11.0386 27.9384C14.7861 24.1795 18.7846 24.0126 23.034 27.438C22.4402 27.9027 21.7735 28.0696 21.0348 27.9384Z"
            fill="#45FF9E" />
        <path opacity="0.035" fill-rule="evenodd" clip-rule="evenodd"
            d="M43.0264 26.9367C45.7933 24.535 48.7922 24.3682 52.0229 26.4363C49.0421 26.9347 46.0432 27.1015 43.0264 26.9367Z"
            fill="#76FF75" />
        <path opacity="0.012" fill-rule="evenodd" clip-rule="evenodd"
            d="M43.0275 26.9375C42.6945 27.6048 42.3605 28.2719 42.0275 28.9392C39.7345 28.1372 40.0675 27.47 43.0275 26.9375Z"
            fill="#61FF67" />
        <path opacity="0.996" fill-rule="evenodd" clip-rule="evenodd"
            d="M85.0107 21.9326C85.8354 24.8068 86.6691 27.8094 87.5098 30.9402C89.2381 31.4149 90.4037 32.4158 91.0085 33.9428C90.1458 32.979 89.479 32.979 89.0092 33.9428C91.2244 37.7932 91.5582 41.7966 90.0088 45.9529C86.6901 50.112 82.3577 51.7801 77.0138 50.9572C77.0138 50.2899 76.6809 49.9563 76.0142 49.9563C76.432 49.2341 77.0977 48.7337 78.0134 48.4551C76.5829 47.9895 75.4174 47.1554 74.5147 45.9529C71.8078 39.2749 69.3087 32.9361 67.0176 26.9369C70.2184 23.1329 74.2168 22.1321 79.013 23.9343C80.7554 26.7761 83.0875 28.6111 86.0104 29.439C85.4256 28.1355 84.7598 26.9679 84.0111 25.936C83.7432 24.3357 84.0771 23.0011 85.0107 21.9326ZM79.013 23.9343C79.6798 23.9343 80.3455 23.9343 81.0123 23.9343C81.3451 24.9352 82.0119 25.6024 83.0115 25.936C83.3444 27.2704 83.6782 27.2704 84.0111 25.936C84.7598 26.9679 85.4256 28.1355 86.0104 29.439C83.0875 28.6111 80.7554 26.7761 79.013 23.9343Z"
            fill="#8FFF4D" />
        <path opacity="0.01" fill-rule="evenodd" clip-rule="evenodd"
            d="M11.0397 27.9385C11.0397 28.2721 11.0397 28.6057 11.0397 28.9393C10.3727 28.9393 10.0397 29.2729 10.0397 29.9402C7.74667 29.1382 8.07967 28.4709 11.0397 27.9385Z"
            fill="#4BFF7F" />
        <path opacity="0.01" fill-rule="evenodd" clip-rule="evenodd"
            d="M24.0337 29.9403C24.4305 28.9144 25.0963 28.7476 26.0329 29.4399C28.8649 32.2756 31.6978 35.1114 34.5297 37.9471C34.8626 36.6126 35.1964 35.2781 35.5293 33.9437C36.325 36.4843 36.1581 38.8196 35.0295 40.9496C35.0295 40.2824 34.6966 39.9488 34.0299 39.9488C34.0299 39.2815 33.697 38.9479 33.0303 38.9479C33.0303 38.2807 32.6974 37.9471 32.0307 37.9471C32.0307 37.2798 31.6978 36.9462 31.031 36.9462C31.031 36.279 30.6982 35.9454 30.0314 35.9454C30.0314 35.2781 29.6985 34.9445 29.0318 34.9445C29.0318 34.2773 28.6989 33.9437 28.0322 33.9437C28.0322 33.2764 27.6993 32.9428 27.0326 32.9428C27.0326 32.2756 26.6997 31.942 26.0329 31.942C26.0329 31.2747 25.7001 30.9411 25.0333 30.9411C25.0333 30.2739 24.7004 29.9403 24.0337 29.9403Z"
            fill="#4EFEBA" />
        <path opacity="0.031" fill-rule="evenodd" clip-rule="evenodd"
            d="M5.04085 34.9438C4.42009 44.6061 3.92028 54.281 3.54142 63.9684C3.30951 65.2069 2.8097 66.2078 2.04199 66.9709C2.79071 54.9859 3.29052 42.9757 3.54142 30.9404C3.75134 32.4998 4.25115 33.8344 5.04085 34.9438Z"
            fill="#EAFFEC" />
        <path opacity="0.998" fill-rule="evenodd" clip-rule="evenodd"
            d="M13.038 27.9385C15.704 27.9385 18.369 27.9385 21.0349 27.9385C21.7017 28.6057 22.3674 29.2729 23.0342 29.9402C29.0279 44.9013 35.6914 60.4145 43.0266 76.4796C42.4328 76.9443 41.7661 77.1111 41.0273 76.98C40.6945 76.98 40.3606 76.98 40.0277 76.98C40.0277 76.3127 39.6948 75.9791 39.0281 75.9791C39.0281 75.3119 38.6952 74.9783 38.0285 74.9783C38.0285 74.311 37.6956 73.9774 37.0289 73.9774C37.0289 73.3102 36.696 72.9766 36.0292 72.9766C36.0292 72.3093 35.6964 71.9757 35.0296 71.9757C35.0296 71.3085 34.6967 70.9749 34.03 70.9749C34.03 70.3076 33.6971 69.9741 33.0304 69.9741C33.0304 69.3068 32.6975 68.9732 32.0308 68.9732C32.0308 68.3059 31.6979 67.9724 31.0311 67.9724C31.0311 67.3051 30.6983 66.9715 30.0315 66.9715C30.0315 66.3042 29.6986 65.9707 29.0319 65.9707C29.0319 65.3034 28.699 64.9698 28.0323 64.9698C28.0323 64.3026 27.6994 63.969 27.0327 63.969C27.0327 63.3017 26.6998 62.9681 26.033 62.9681C26.033 62.3009 25.7002 61.9673 25.0334 61.9673C25.0334 61.3 24.7005 60.9664 24.0338 60.9664C24.0338 60.2992 23.7009 59.9656 23.0342 59.9656C23.0342 59.2983 22.7013 58.9647 22.0346 58.9647C22.0346 58.2975 21.7017 57.9639 21.0349 57.9639C21.0349 57.2966 20.7021 56.963 20.0353 56.963C20.0353 56.2958 19.7024 55.9622 19.0357 55.9622C19.0357 55.2949 18.7028 54.9613 18.0361 54.9613C18.0361 54.2941 17.7032 53.9605 17.0365 53.9605C17.0365 53.2932 16.7036 52.9597 16.0368 52.9597C16.0368 52.2924 15.704 51.9588 15.0372 51.9588C15.0372 51.2915 14.7043 50.958 14.0376 50.958C14.0376 50.2907 13.7047 49.9571 13.038 49.9571C13.038 49.2898 12.7051 48.9563 12.0384 48.9563C12.0384 48.289 11.7055 47.9554 11.0387 47.9554C11.0387 47.2882 10.7059 46.9546 10.0391 46.9546C10.0391 46.2873 9.70625 45.9537 9.0395 45.9537C9.0395 45.2865 8.70663 44.9529 8.03988 44.9529C5.8737 41.1091 5.53983 37.1057 7.04026 32.9427C8.37275 32.2754 9.37237 31.2746 10.0391 29.9402C10.7059 29.9402 11.0387 29.6066 11.0387 28.9393C12.0304 29.1111 12.6961 28.7774 13.038 27.9385Z"
            fill="#44FEAB" />
        <path opacity="0.998" fill-rule="evenodd" clip-rule="evenodd"
            d="M45.0259 27.9381C51.0116 27.5851 55.6768 29.9204 59.0206 34.944C58.5827 34.8786 58.2489 35.0453 58.0209 35.4444C59.3534 36.7789 60.6869 38.1134 62.0194 39.4478C61.5626 39.8622 61.2287 40.3626 61.0198 40.9491C64.2036 48.6598 67.8692 55.9993 72.0156 62.9677C71.3489 63.9686 70.6831 64.9694 70.0164 65.9703C66.8046 66.2805 63.8057 65.947 61.0198 64.9694C55.6508 53.1583 50.3189 40.8146 45.0259 27.9381Z"
            fill="#70FF73" />
        <path opacity="0.024" fill-rule="evenodd" clip-rule="evenodd"
            d="M104.004 29.9395C105.984 30.5454 106.318 31.5462 105.003 32.942C104.337 32.942 104.004 33.2756 104.004 33.9428C103.337 33.9428 102.671 33.9428 102.004 33.9428C103.104 32.837 103.771 31.5026 104.004 29.9395Z"
            fill="#E7FFC3" />
        <path opacity="0.024" fill-rule="evenodd" clip-rule="evenodd"
            d="M64.0185 28.9392C62.65 31.1326 61.6504 33.4678 61.0196 35.9451C61.0196 35.2779 60.6868 34.9443 60.02 34.9443C60.5848 32.0209 61.7514 29.3519 63.5187 26.9375C63.9825 27.5324 64.1494 28.1997 64.0185 28.9392Z"
            fill="#90FF5B" />
        <path opacity="0.01" fill-rule="evenodd" clip-rule="evenodd"
            d="M7.04097 32.9421C6.37397 33.6094 5.70797 34.2766 5.04097 34.9438C4.85297 33.3392 5.35297 32.0047 6.54097 30.9404C7.00497 31.5353 7.17197 32.2026 7.04097 32.9421Z"
            fill="#34FFF1" />
        <path opacity="0.998" fill-rule="evenodd" clip-rule="evenodd"
            d="M23.0342 29.9395C23.3671 29.9395 23.7009 29.9395 24.0338 29.9395C24.7005 29.9395 25.0334 30.273 25.0334 30.9403C25.7002 30.9403 26.033 31.2739 26.033 31.9411C26.6998 31.9411 27.0327 32.2747 27.0327 32.942C27.6994 32.942 28.0323 33.2756 28.0323 33.9428C28.699 33.9428 29.0319 34.2764 29.0319 34.9437C29.6986 34.9437 30.0315 35.2773 30.0315 35.9445C30.6983 35.9445 31.0311 36.2781 31.0311 36.9454C31.6979 36.9454 32.0308 37.279 32.0308 37.9462C32.6975 37.9462 33.0304 38.2798 33.0304 38.9471C33.6971 38.9471 34.03 39.2807 34.03 39.9479C34.6967 39.9479 35.0296 40.2815 35.0296 40.9488C35.6964 42.2832 36.696 43.284 38.0285 43.9513C38.0285 44.2849 38.0285 44.6186 38.0285 44.9522C41.1223 54.5494 44.9538 64.2242 49.5241 73.9767C50.2088 76.5362 51.7083 78.371 54.0224 79.4814C53.1067 79.76 52.441 80.2604 52.0232 80.9827C51.6063 81.6071 50.9396 81.9408 50.0239 81.9835C47.151 81.3609 44.486 80.36 42.027 78.981C42.027 78.3137 41.6941 77.9801 41.0273 77.9801C41.0273 77.6465 41.0273 77.3128 41.0273 76.9793C41.7661 77.1104 42.4328 76.9435 43.0266 76.4788C35.6914 60.4137 29.0279 44.9006 23.0342 29.9395Z"
            fill="#4FFE9D" />
        <path opacity="0.012" fill-rule="evenodd" clip-rule="evenodd"
            d="M100.005 33.9434C100.672 33.9434 101.338 33.9434 102.004 33.9434C101.338 35.2778 100.338 36.2786 99.0055 36.9459C99.0055 36.2786 98.6726 35.9451 98.0059 35.9451C98.6726 35.2778 99.3384 34.6106 100.005 33.9434Z"
            fill="#CFFF84" />
        <path opacity="0.02" fill-rule="evenodd" clip-rule="evenodd"
            d="M98.0055 35.9453C98.0055 36.2789 98.0055 36.6126 98.0055 36.9462C96.2182 36.6607 94.5518 36.9943 93.0074 37.947C94.142 40.5286 93.8081 42.8639 92.0078 44.9529C92.0078 41.9504 92.0078 38.9479 92.0078 35.9453C94.0071 35.9453 96.0063 35.9453 98.0055 35.9453Z"
            fill="#99FF31" />
        <path opacity="0.014" fill-rule="evenodd" clip-rule="evenodd"
            d="M98.0059 36.9453C98.3389 36.9453 98.6729 36.9453 99.0059 36.9453C99.0059 37.6126 99.0059 38.2797 99.0059 38.947C98.3389 39.2806 97.6729 39.6143 97.0059 39.9479C97.0629 38.8379 97.3959 37.8371 98.0059 36.9453Z"
            fill="#FEFFFE" />
        <path opacity="0.998" fill-rule="evenodd" clip-rule="evenodd"
            d="M67.0176 26.9375C69.3087 32.9368 71.8078 39.2755 74.5147 45.9536C75.4174 47.156 76.5829 47.9901 78.0134 48.4557C77.0977 48.7343 76.432 49.2348 76.0142 49.957C75.1515 48.9932 74.4847 48.9932 74.0149 49.957C74.4567 51.1967 75.1235 52.1976 76.0142 52.9595C76.415 57.1142 75.0815 60.4504 72.0157 62.968C67.8693 55.9996 64.2036 48.6601 61.0199 40.9494C61.2288 40.3629 61.5626 39.8624 62.0195 39.4481C60.687 38.1137 59.3535 36.7791 58.021 35.4447C58.2489 35.0456 58.5828 34.8788 59.0206 34.9443C59.3535 34.9443 59.6874 34.9443 60.0202 34.9443C60.687 34.9443 61.0199 35.2779 61.0199 35.9451C61.0199 36.6124 61.3527 36.946 62.0195 36.946C62.3523 37.9468 63.0191 38.6141 64.0187 38.9477C64.2556 37.6556 63.9228 36.6547 63.0191 35.9451C63.193 33.5821 63.5259 31.2467 64.0187 28.9392C65.0183 28.2719 66.018 27.6048 67.0176 26.9375ZM63.0191 35.9451C63.9228 36.6547 64.2556 37.6556 64.0187 38.9477C63.0191 38.6141 62.3523 37.9468 62.0195 36.946C62.6862 36.946 63.0191 36.6124 63.0191 35.9451Z"
            fill="#7DFF64" />
        <path opacity="0.013" fill-rule="evenodd" clip-rule="evenodd"
            d="M97.0063 39.9482C97.0063 40.6155 97.0063 41.2827 97.0063 41.9499C96.1686 42.2919 95.8348 42.9592 96.0067 43.9516C95.3399 44.6189 94.6742 45.2861 94.0074 45.9533C93.9685 43.3621 94.9681 41.3604 97.0063 39.9482Z"
            fill="#FEFFFE" />
        <path opacity="0.014" fill-rule="evenodd" clip-rule="evenodd"
            d="M94.0076 45.9531C93.7416 49.1221 93.4086 52.2914 93.0076 55.4612C93.6116 59.3501 94.1116 63.1866 94.5076 66.9709C91.4486 59.9038 91.2816 52.8979 94.0076 45.9531Z"
            fill="#FEFFFE" />
        <path opacity="0.02" fill-rule="evenodd" clip-rule="evenodd"
            d="M92.0088 44.9521C91.4768 47.9143 90.8098 48.2478 90.0088 45.953C90.6758 45.6194 91.3418 45.2857 92.0088 44.9521Z"
            fill="#96FF36" />
        <path opacity="0.98" fill-rule="evenodd" clip-rule="evenodd"
            d="M45.0259 27.9385C50.3189 40.815 55.6509 53.1587 61.0199 64.9698C60.1442 64.8388 59.4775 65.1725 59.0206 65.9707C60.2711 69.6378 60.2711 73.3076 59.0206 76.98C57.1583 79.1872 54.8252 80.5217 52.0233 80.9834C52.4411 80.2612 53.1069 79.7607 54.0225 79.4821C51.7084 78.3718 50.209 76.5369 49.5242 73.9774C44.954 64.2249 41.1224 54.5501 38.0286 44.9529C39.3611 44.6193 39.3611 44.2856 38.0286 43.952C35.8784 37.9729 37.2119 32.9686 42.0271 28.9393C43.1357 28.8824 44.1353 28.5488 45.0259 27.9385Z"
            fill="#5DFE8C" />
        <path opacity="0.012" fill-rule="evenodd" clip-rule="evenodd"
            d="M8.03976 44.9532C8.70651 44.9532 9.03938 45.2868 9.03938 45.9541C9.70613 45.9541 10.039 46.2877 10.039 46.9549C10.7057 46.9549 11.0386 47.2885 11.0386 47.9558C11.7054 47.9558 12.0382 48.2894 12.0382 48.9566C12.705 48.9566 13.0379 49.2902 13.0379 49.9575C13.7046 49.9575 14.0375 50.291 14.0375 50.9583C14.7042 50.9583 15.0371 51.2919 15.0371 51.9592C15.7038 51.9592 16.0367 52.2927 16.0367 52.96C16.7035 52.96 17.0363 53.2936 17.0363 53.9609C17.7031 53.9609 18.036 54.2944 18.036 54.9617C18.7027 54.9617 19.0356 55.2953 19.0356 55.9625C19.7023 55.9625 20.0352 56.2961 20.0352 56.9634C20.7019 56.9634 21.0348 57.297 21.0348 57.9642C21.7016 57.9642 22.0344 58.2978 22.0344 58.9651C22.7012 58.9651 23.0341 59.2987 23.0341 59.9659C23.7008 59.9659 24.0337 60.2995 24.0337 60.9668C24.7004 60.9668 25.0333 61.3004 25.0333 61.9676C25.7 61.9676 26.0329 62.3012 26.0329 62.9685C26.6997 62.9685 27.0325 63.3021 27.0325 63.9693C27.6993 63.9693 28.0322 64.3029 28.0322 64.9702C28.6989 64.9702 29.0318 65.3038 29.0318 65.971C29.6985 65.971 30.0314 66.3046 30.0314 66.9719C30.6981 66.9719 31.031 67.3054 31.031 67.9727C31.6978 67.9727 32.0306 68.3063 32.0306 68.9736C32.6974 68.9736 33.0303 69.3071 33.0303 69.9744C33.697 69.9744 34.0299 70.308 34.0299 70.9753C34.6966 70.9753 35.0295 71.3088 35.0295 71.9761C35.6962 71.9761 36.0291 72.3097 36.0291 72.9769C36.6959 72.9769 37.0287 73.3105 37.0287 73.9778C37.6955 73.9778 38.0284 74.3114 38.0284 74.9786C38.6951 74.9786 39.028 75.3122 39.028 75.9795C39.6947 75.9795 40.0276 76.3131 40.0276 76.9803C40.0276 77.6476 40.3605 77.9812 41.0272 77.9812C41.694 77.9812 42.0268 78.3148 42.0268 78.982C41.63 80.0079 40.9642 80.1747 40.0276 79.4825C28.8648 68.3063 17.7031 57.1302 6.54033 45.9541C5.93556 43.8169 6.43537 43.4833 8.03976 44.9532Z"
            fill="#49FECA" />
        <path opacity="0.039" fill-rule="evenodd" clip-rule="evenodd"
            d="M77.0137 50.958C79.4817 51.7758 82.1467 52.2762 85.0106 52.4593C82.8255 53.7694 80.6593 53.9362 78.5131 52.9597C78.1802 54.9614 77.8464 56.9631 77.5135 58.9648C77.3226 56.7551 76.8228 54.7534 76.0141 52.9597C75.8421 51.9673 76.176 51.3 77.0137 50.958Z"
            fill="#8BFF58" />
        <path opacity="0.023" fill-rule="evenodd" clip-rule="evenodd"
            d="M1.0432 66.9717C1.3762 66.9717 1.7102 66.9717 2.0432 66.9717C2.2312 68.5763 1.7312 69.9108 0.543201 70.9751C0.079201 70.3802 -0.0877989 69.7129 0.0432011 68.9734C0.881201 68.6314 1.2152 67.9641 1.0432 66.9717Z"
            fill="#FEFFFE" />
        <path opacity="0.012" fill-rule="evenodd" clip-rule="evenodd"
            d="M70.0163 65.971C70.755 65.8399 71.4218 66.0067 72.0156 66.4714C70.953 67.6606 69.6195 68.1611 68.0171 67.9727C68.6838 67.3054 69.3496 66.6383 70.0163 65.971Z"
            fill="#84FF74" />
        <path opacity="0.013" fill-rule="evenodd" clip-rule="evenodd"
            d="M98.0063 69.9729C97.7593 72.4502 97.0933 72.4502 96.0063 69.9729C96.4763 69.009 97.1433 69.009 98.0063 69.9729Z"
            fill="#FEFFFE" />
        <path opacity="0.01" fill-rule="evenodd" clip-rule="evenodd"
            d="M68.0169 67.9725C66.5984 68.9244 64.933 69.2581 63.0188 68.9734C63.1087 71.6278 62.443 73.9631 61.0195 75.9793C61.9132 72.9303 62.0801 69.9278 61.5193 66.9717C63.5596 67.8956 65.7257 68.2291 68.0169 67.9725Z"
            fill="#67FE81" />
        <path opacity="0.01" fill-rule="evenodd" clip-rule="evenodd"
            d="M100.005 72.9766C100.672 72.9766 101.005 73.3101 101.005 73.9774C101.671 73.9774 102.004 74.311 102.004 74.9783C102.671 74.9783 103.004 75.3118 103.004 75.9791C103.004 76.3127 103.004 76.6464 103.004 76.98C100.173 76.5377 99.1733 75.2032 100.005 72.9766Z"
            fill="#FEFFFE" />
        <path opacity="0.012" fill-rule="evenodd" clip-rule="evenodd"
            d="M103.004 76.9795C103.671 76.9795 104.004 77.3128 104.004 77.9795C103.671 77.6462 103.337 77.3128 103.004 76.9795Z"
            fill="#FEFFFE" />
        <path opacity="0.012" fill-rule="evenodd" clip-rule="evenodd"
            d="M61.0205 75.9785C60.4885 78.9406 59.8215 79.2742 59.0205 76.9794C59.6875 76.6458 60.3535 76.3121 61.0205 75.9785Z"
            fill="#4EFEB1" />
        <path opacity="0.01" fill-rule="evenodd" clip-rule="evenodd"
            d="M104.003 77.9805C104.67 77.9805 105.003 78.3138 105.003 78.9805C104.67 78.6472 104.336 78.3138 104.003 77.9805Z"
            fill="#FEFFFE" />
        <path opacity="0.01" fill-rule="evenodd" clip-rule="evenodd"
            d="M105.003 78.981C106.529 78.9079 107.529 79.5752 108.002 80.9827C106.475 81.0557 105.476 80.3885 105.003 78.981Z"
            fill="#FEFFFE" />
        <path opacity="0.01" fill-rule="evenodd" clip-rule="evenodd"
            d="M108.002 80.9837C108.741 80.8527 109.408 81.0194 110.002 81.4837C109.065 82.1754 108.399 82.0087 108.002 80.9837Z"
            fill="#FEFFFE" />
        <path opacity="0.01" fill-rule="evenodd" clip-rule="evenodd"
            d="M111.001 82.9844C111.398 81.9594 112.064 81.7927 113.001 82.4844C112.407 82.9487 111.74 83.1154 111.001 82.9844Z"
            fill="#FEFFFE" />
        <path opacity="0.012" fill-rule="evenodd" clip-rule="evenodd"
            d="M92.0078 94.9949C89.0089 93.6605 86.0101 93.6605 83.0112 94.9949C86.0101 92.3259 89.0089 92.3259 92.0078 94.9949Z"
            fill="#FEFFFE" />
        <path opacity="0.012" fill-rule="evenodd" clip-rule="evenodd"
            d="M104.003 92.9932C106.066 93.1803 108.066 93.6807 110.001 94.4944C107.536 94.424 105.203 94.5908 103.004 94.9949C102.337 94.828 101.671 94.6613 101.004 94.4944C102.241 94.2621 103.241 93.7617 104.003 92.9932Z"
            fill="#FEFFFE" />
        <path opacity="0.022" fill-rule="evenodd" clip-rule="evenodd"
            d="M26.0332 94.9938C30.8474 93.8441 35.8455 93.6775 41.0275 94.4938C36.0404 94.9931 31.0423 95.1597 26.0332 94.9938Z"
            fill="#FEFFFE" />
        <path opacity="0.021" fill-rule="evenodd" clip-rule="evenodd"
            d="M42.0269 94.9945C43.1274 93.8962 44.4599 93.7295 46.0253 94.4945C44.7328 94.9845 43.3993 95.1512 42.0269 94.9945Z"
            fill="#FEFFFE" />
        <path opacity="0.022" fill-rule="evenodd" clip-rule="evenodd"
            d="M59.0205 94.9938C63.1649 93.8468 67.4973 93.6802 72.0156 94.4938C67.6962 94.9928 63.3649 95.1595 59.0205 94.9938Z"
            fill="#FEFFFE" />
        <path opacity="0.01" fill-rule="evenodd" clip-rule="evenodd"
            d="M24.0337 94.9951C25.3667 95.6618 25.3667 95.6618 24.0337 94.9951Z" fill="#FEFFFE" />
        <path opacity="0.012" fill-rule="evenodd" clip-rule="evenodd"
            d="M83.0123 94.9951C83.0123 95.3287 83.0123 95.6624 83.0123 95.996C82.3453 95.996 82.0123 96.3295 82.0123 96.9968C79.7193 96.1948 80.0523 95.5276 83.0123 94.9951Z"
            fill="#FEFFFE" />
        <path opacity="0.012" fill-rule="evenodd" clip-rule="evenodd"
            d="M92.0078 95.996C92.0078 95.6624 92.0078 95.3287 92.0078 94.9951C94.9678 95.5276 95.3008 96.1948 93.0078 96.9968C93.0078 96.3295 92.6748 95.996 92.0078 95.996Z"
            fill="#FEFFFE" />
        <path opacity="0.02" fill-rule="evenodd" clip-rule="evenodd"
            d="M21.0351 95.9961C22.1331 97.0979 22.3001 98.4325 21.5351 99.9995C21.0451 98.7052 20.8781 97.3707 21.0351 95.9961Z"
            fill="#FEFFFE" />
        <path opacity="0.012" fill-rule="evenodd" clip-rule="evenodd"
            d="M24.034 95.9961C24.191 97.3707 24.024 98.7052 23.534 99.9995C22.769 98.4325 22.936 97.0979 24.034 95.9961Z"
            fill="#FEFFFE" />
        <path opacity="0.019" fill-rule="evenodd" clip-rule="evenodd"
            d="M47.0249 95.9961C47.6857 97.2146 48.3524 98.5491 49.0241 99.9995C49.6959 98.5491 50.3626 97.2146 51.0234 95.9961C51.0234 97.6642 51.0234 99.3322 51.0234 101C49.6909 101 48.3574 101 47.0249 101C47.0249 99.3322 47.0249 97.6642 47.0249 95.9961Z"
            fill="#FEFFFE" />
        <path opacity="0.026" fill-rule="evenodd" clip-rule="evenodd"
            d="M73.0151 95.9961C74.1131 97.0979 74.2801 98.4325 73.5151 99.9995C73.0251 98.7052 72.8581 97.3707 73.0151 95.9961Z"
            fill="#FEFFFE" />
        <path opacity="0.014" fill-rule="evenodd" clip-rule="evenodd"
            d="M100.005 96.9966C99.3381 96.9966 99.0052 97.3302 99.0052 97.9974C98.3385 97.9974 98.0056 98.331 98.0056 98.9983C97.3388 98.9983 97.006 99.3318 97.006 99.9991C96.6731 99.9991 96.3392 99.9991 96.0063 99.9991C96.4482 97.1646 97.7807 96.1638 100.005 96.9966Z"
            fill="#FEFFFE" />
    </g>
    <defs>
        <clipPath id="clip0_5214_64">
            <rect width="113" height="113" fill="white" />
        </clipPath>
    </defs>
</svg>