<svg width="32" height="32" viewBox="0 0 32 32" fill="none" xmlns="http://www.w3.org/2000/svg">
    <g clip-path="url(#clip0_5090_4212)">
        <path fill-rule="evenodd" clip-rule="evenodd"
            d="M-0.0498047 -0.0498047C10.6169 -0.0498047 21.2835 -0.0498047 31.9502 -0.0498047C31.9502 10.6169 31.9502 21.2835 31.9502 31.9502C21.2835 31.9502 10.6169 31.9502 -0.0498047 31.9502C-0.0498047 21.2835 -0.0498047 10.6169 -0.0498047 -0.0498047Z"
            fill="#4360ED" />
        <path fill-rule="evenodd" clip-rule="evenodd"
            d="M21.6497 12.0496C22.3989 11.982 22.7156 12.3153 22.5997 13.0496C22.2473 13.407 21.8639 13.4403 21.4497 13.1496C21.2759 12.7306 21.3426 12.3639 21.6497 12.0496Z"
            fill="#F4F4FD" />
        <path fill-rule="evenodd" clip-rule="evenodd"
            d="M6.35 14.1504C5.98019 14.1556 5.61352 14.189 5.25 14.2504C5.60437 14.0435 5.97104 14.0102 6.35 14.1504Z"
            fill="#B2B8F5" />
        <path fill-rule="evenodd" clip-rule="evenodd"
            d="M18.85 14.1504C18.4802 14.1556 18.1135 14.189 17.75 14.2504C18.1044 14.0435 18.471 14.0102 18.85 14.1504Z"
            fill="#B3B9F5" />
        <path fill-rule="evenodd" clip-rule="evenodd"
            d="M6.35026 14.1504C6.7677 14.1663 7.10104 14.3329 7.35026 14.6504C7.35626 14.7047 7.38959 14.738 7.45026 14.7504C7.54545 14.5959 7.57878 14.4292 7.55026 14.2504C7.88359 14.2504 8.21693 14.2504 8.55026 14.2504C8.55026 15.7837 8.55026 17.3171 8.55026 18.8504C8.18359 18.8504 7.81693 18.8504 7.45026 18.8504C7.46628 18.6805 7.44961 18.5138 7.40026 18.3504C6.02787 19.325 4.89453 19.0916 4.00026 17.6504C3.40133 16.1296 3.81799 14.9962 5.25026 14.2504C5.61378 14.189 5.98045 14.1556 6.35026 14.1504Z"
            fill="#F9F9FE" />
        <path fill-rule="evenodd" clip-rule="evenodd"
            d="M10.75 18.7495C10.4167 18.7495 10.0833 18.7495 9.75 18.7495C9.75 17.2495 9.75 15.7495 9.75 14.2495C10.0833 14.2495 10.4167 14.2495 10.75 14.2495C10.7343 14.3868 10.751 14.5202 10.8 14.6495C11.1495 14.2273 11.5995 14.0273 12.15 14.0495C12.15 14.4162 12.15 14.7828 12.15 15.1495C11.5159 15.0993 11.0659 15.366 10.8 15.9495C10.75 16.8822 10.7334 17.8156 10.75 18.7495Z"
            fill="#FBFBFE" />
        <path fill-rule="evenodd" clip-rule="evenodd"
            d="M17.7502 14.2501C18.1137 14.1887 18.4804 14.1553 18.8502 14.1501C19.4758 14.1791 19.9091 14.4791 20.1502 15.0501C20.242 16.2804 20.2754 17.5137 20.2502 18.7501C19.9502 18.7501 19.6502 18.7501 19.3502 18.7501C19.3829 17.7986 19.3496 16.8653 19.2502 15.9501C19.0225 15.2783 18.5559 15.0283 17.8502 15.2001C17.5669 15.3501 17.3502 15.5668 17.2002 15.8501C17.1502 16.8495 17.1336 17.8495 17.1502 18.8501C16.7835 18.8501 16.4169 18.8501 16.0502 18.8501C16.0668 17.8162 16.0502 16.7829 16.0002 15.7501C15.4696 15.0457 14.8696 14.979 14.2002 15.5501C14.0908 15.7079 14.0074 15.8746 13.9502 16.0501C13.8509 16.9319 13.8175 17.8319 13.8502 18.7501C13.5502 18.7501 13.2502 18.7501 12.9502 18.7501C12.9502 17.2501 12.9502 15.7501 12.9502 14.2501C13.2835 14.2501 13.6169 14.2501 13.9502 14.2501C13.9345 14.3874 13.9512 14.5208 14.0002 14.6501C14.156 14.4642 14.3393 14.3142 14.5502 14.2001C15.4831 13.9719 16.2831 14.1885 16.9502 14.8501C17.1832 14.6008 17.4499 14.4008 17.7502 14.2501Z"
            fill="#FBFBFE" />
        <path fill-rule="evenodd" clip-rule="evenodd"
            d="M24.7504 15.9504C24.651 16.8656 24.6177 17.7989 24.6504 18.7504C24.3171 18.7504 23.9837 18.7504 23.6504 18.7504C23.6504 17.2504 23.6504 15.7504 23.6504 14.2504C23.9837 14.2504 24.3171 14.2504 24.6504 14.2504C24.6242 14.3982 24.6575 14.5315 24.7504 14.6504C24.8111 14.638 24.8444 14.6047 24.8504 14.5504C25.8499 13.8065 26.7666 13.9065 27.6004 14.8504C27.7279 15.0721 27.8279 15.3055 27.9004 15.5504C27.9504 16.6499 27.9671 17.7499 27.9504 18.8504C27.5504 18.8504 27.1504 18.8504 26.7504 18.8504C26.7671 17.7832 26.7504 16.7165 26.7004 15.6504C26.3661 15.1786 25.9161 15.0286 25.3504 15.2004C25.0886 15.411 24.8886 15.661 24.7504 15.9504Z"
            fill="#F8F8FE" />
        <path fill-rule="evenodd" clip-rule="evenodd"
            d="M8.54961 18.8504C8.54961 17.3171 8.54961 15.7837 8.54961 14.2504C8.21628 14.2504 7.88294 14.2504 7.54961 14.2504C7.57813 14.4292 7.5448 14.5959 7.44961 14.7504C7.38894 14.738 7.35561 14.7047 7.34961 14.6504C7.44472 14.5085 7.47806 14.3419 7.44961 14.1504C7.84961 14.1504 8.24961 14.1504 8.64961 14.1504C8.68257 15.7346 8.64924 17.3013 8.54961 18.8504Z"
            fill="#A9B0F3" />
        <path fill-rule="evenodd" clip-rule="evenodd"
            d="M24.8498 14.5504C24.8438 14.6047 24.8105 14.638 24.7498 14.6504C24.6569 14.5315 24.6236 14.3982 24.6498 14.2504C24.3165 14.2504 23.9831 14.2504 23.6498 14.2504C23.6498 15.7504 23.6498 17.2504 23.6498 18.7504C23.9831 18.7504 24.3165 18.7504 24.6498 18.7504C24.6171 17.7989 24.6504 16.8656 24.7498 15.9504C24.7498 16.9171 24.7498 17.8837 24.7498 18.8504C24.3498 18.8504 23.9498 18.8504 23.5498 18.8504C23.5498 17.2837 23.5498 15.7171 23.5498 14.1504C23.9498 14.1504 24.3498 14.1504 24.7498 14.1504C24.723 14.3103 24.7564 14.4436 24.8498 14.5504Z"
            fill="#BFC3F6" />
        <path fill-rule="evenodd" clip-rule="evenodd"
            d="M10.7504 14.2502C10.4171 14.2502 10.0837 14.2502 9.75039 14.2502C9.75039 15.7502 9.75039 17.2502 9.75039 18.7502C10.0837 18.7502 10.4171 18.7502 10.7504 18.7502C10.4042 18.8484 10.0375 18.8817 9.65039 18.8502C9.65039 17.2835 9.65039 15.7169 9.65039 14.1502C10.0375 14.1187 10.4042 14.152 10.7504 14.2502Z"
            fill="#E0E1FA" />
        <path fill-rule="evenodd" clip-rule="evenodd"
            d="M21.3496 14.1504C21.7496 14.1504 22.1496 14.1504 22.5496 14.1504C22.5496 15.7171 22.5496 17.2837 22.5496 18.8504C22.1496 18.8504 21.7496 18.8504 21.3496 18.8504C21.3496 17.2837 21.3496 15.7171 21.3496 14.1504Z"
            fill="#C1C5F6" />
        <path fill-rule="evenodd" clip-rule="evenodd"
            d="M21.4502 14.25C21.7835 14.25 22.1169 14.25 22.4502 14.25C22.4502 15.75 22.4502 17.25 22.4502 18.75C22.1169 18.75 21.7835 18.75 21.4502 18.75C21.4502 17.25 21.4502 15.75 21.4502 14.25Z"
            fill="#FDFDFE" />
        <path fill-rule="evenodd" clip-rule="evenodd"
            d="M5.65002 15.2498C6.86849 15.119 7.45182 15.6523 7.40002 16.8498C7.08727 17.6477 6.50393 17.9311 5.65002 17.6998C4.58802 16.8797 4.58802 16.063 5.65002 15.2498Z"
            fill="#4560ED" />
        <path fill-rule="evenodd" clip-rule="evenodd"
            d="M13.9496 14.2502C13.6163 14.2502 13.2829 14.2502 12.9496 14.2502C12.9496 15.7502 12.9496 17.2502 12.9496 18.7502C13.2496 18.7502 13.5496 18.7502 13.8496 18.7502C13.8169 17.832 13.8503 16.932 13.9496 16.0502C13.9496 16.9835 13.9496 17.9169 13.9496 18.8502C13.5829 18.8502 13.2163 18.8502 12.8496 18.8502C12.8496 17.2835 12.8496 15.7169 12.8496 14.1502C13.2367 14.1187 13.6034 14.152 13.9496 14.2502Z"
            fill="#E3E4FA" />
        <path fill-rule="evenodd" clip-rule="evenodd"
            d="M20.15 15.0498C20.2268 15.1261 20.2768 15.2261 20.3 15.3498C20.35 16.516 20.3667 17.6827 20.35 18.8498C19.9833 18.8498 19.6167 18.8498 19.25 18.8498C19.25 17.8831 19.25 16.9165 19.25 15.9498C19.3494 16.865 19.3827 17.7983 19.35 18.7498C19.65 18.7498 19.95 18.7498 20.25 18.7498C20.2752 17.5134 20.2418 16.2801 20.15 15.0498Z"
            fill="#E6E7FB" />
    </g>
    <defs>
        <clipPath id="clip0_5090_4212">
            <rect width="32" height="32" fill="white" />
        </clipPath>
    </defs>
</svg>