<svg width="32" height="32" viewBox="0 0 32 32" fill="none" xmlns="http://www.w3.org/2000/svg">
    <path opacity="0.997" fill-rule="evenodd" clip-rule="evenodd"
        d="M22.0471 0C22.1205 0 22.1942 0 22.2676 0C22.5039 0.791856 22.6507 1.60015 22.7086 2.4249C22.6985 2.57806 22.7089 2.72502 22.7401 2.86579C22.7401 3.02325 22.7401 3.18072 22.7401 3.33818C22.7089 3.47895 22.6985 3.62592 22.7086 3.77907C22.6563 4.90139 22.3098 5.91963 21.669 6.83381C21.6375 6.8443 21.6164 6.86531 21.606 6.8968C21.5956 6.9178 21.5849 6.93878 21.5745 6.95978C21.543 6.97027 21.5219 6.99127 21.5115 7.02277C21.4671 7.03766 21.4463 7.06916 21.4485 7.11724C21.3089 7.28072 21.1618 7.43818 21.0074 7.58963C20.9759 7.60011 20.9548 7.62112 20.9444 7.65261C20.9035 7.68373 20.8616 7.71522 20.8184 7.74709C20.7869 7.75758 20.7658 7.77858 20.7554 7.81007C20.7239 7.86257 20.682 7.90455 20.6294 7.93604C20.5812 7.93374 20.5497 7.95475 20.5349 7.99903C20.4624 8.07725 20.3783 8.14024 20.2829 8.18798C20.2514 8.19847 20.2303 8.21947 20.2199 8.25096C20.1757 8.29474 20.1231 8.32623 20.0623 8.34544C20.0308 8.35593 20.0097 8.37693 19.9993 8.40843C19.9647 8.44307 19.9225 8.46407 19.8733 8.47141C19.8352 8.48501 19.8037 8.50602 19.7788 8.53439C19.5485 8.71267 19.2965 8.85965 19.0227 8.97529C18.9496 8.99078 18.8866 9.02227 18.8337 9.06976C18.6248 9.18981 18.4043 9.28429 18.1721 9.35319C18.1123 9.36251 18.0597 9.38352 18.0146 9.41618C17.8243 9.50766 17.6249 9.58113 17.4161 9.63662C17.3439 9.63961 17.2809 9.66062 17.227 9.69961C16.9211 9.81159 16.6111 9.88506 16.2977 9.92005C16.4549 8.8068 16.4442 7.69406 16.2662 6.58188C16.1808 6.19871 16.0759 5.8208 15.9511 5.44816C15.9332 5.30716 15.9489 5.17071 15.9984 5.03876C16.0268 5.01643 16.0375 4.98494 16.0299 4.94428C16.1736 4.30026 16.4363 3.71243 16.8175 3.18072C16.849 3.17023 16.8701 3.14922 16.8805 3.11773C17.1076 2.75403 17.3912 2.4391 17.7311 2.17296C17.7626 2.16247 17.7837 2.14147 17.7941 2.10998C18.0537 1.85605 18.3372 1.63035 18.6447 1.4329C19.7035 0.774016 20.8376 0.296383 22.0471 0Z"
        fill="#6BBC4B" />
    <path opacity="0.996" fill-rule="evenodd" clip-rule="evenodd"
        d="M14.2973 4.37731C14.2951 4.4254 14.3159 4.45689 14.3603 4.47178C15.0178 5.30932 15.3854 6.26457 15.4629 7.33758C15.4535 7.41817 15.4639 7.49167 15.4944 7.55802C15.5477 8.33254 15.5058 9.09884 15.3684 9.85696C15.3401 9.87928 15.3293 9.91078 15.3369 9.95143C14.3093 9.8624 13.3223 9.59472 12.3756 9.14838C12.1428 9.03221 11.9222 8.90098 11.714 8.75473C11.6891 8.72635 11.6576 8.70535 11.6195 8.69174C11.5713 8.69404 11.5398 8.67304 11.525 8.62876C11.5001 8.60038 11.4686 8.57938 11.4305 8.56577C11.3924 8.55217 11.3609 8.53116 11.336 8.50279C11.3212 8.45851 11.2897 8.43751 11.2415 8.43981C11.2311 8.40831 11.21 8.38731 11.1785 8.37682C11.0855 8.33648 11.0121 8.27349 10.9579 8.18787C10.9368 8.14589 10.9053 8.1144 10.8634 8.09339C10.7799 8.03107 10.7065 7.9576 10.6429 7.87295C10.6325 7.84145 10.6114 7.82045 10.5799 7.80996C9.98101 7.15851 9.59761 6.39221 9.43001 5.51103C9.19815 4.39686 9.20319 3.28415 9.44576 2.17285C11.065 2.30543 12.5142 2.86704 13.7932 3.85769C13.9678 4.02677 14.1357 4.19997 14.2973 4.37731Z"
        fill="#6BBC4B" />
    <path opacity="0.996" fill-rule="evenodd" clip-rule="evenodd"
        d="M17.8256 10.5498C17.8887 17.6775 17.9098 24.8157 17.8887 31.9645C16.6024 31.996 15.3107 32.0064 14.0137 31.996C14.0084 24.8473 14.0137 17.6985 14.0295 10.5498C15.2937 11.0105 16.5592 11.0105 17.8256 10.5498Z"
        fill="#4C859E" />
</svg>