<svg width="32" height="32" viewBox="0 0 32 32" fill="none" xmlns="http://www.w3.org/2000/svg">
<path fill-rule="evenodd" clip-rule="evenodd" d="M12.357 0C14.8283 0 17.2997 0 19.7711 0C25.4038 1.70431 29.3169 5.38803 31.5102 11.0511C33.3837 20.6317 29.8825 27.3852 21.0068 31.3115C10.8137 33.6156 3.8114 30.1364 0 20.8744C0 18.0093 0 15.1441 0 12.279C2.88328 6.95813 7.00228 2.8651 12.357 0Z" fill="#3B60F1"/>
<path fill-rule="evenodd" clip-rule="evenodd" d="M11.1213 6.13955C22.7227 4.77316 27.0476 9.68477 24.0961 20.8744C21.0219 23.6289 17.7268 26.0848 14.2105 28.2418C12.8327 25.2849 10.7733 22.8291 8.03201 20.8744C4.95661 15.0498 5.98637 10.1383 11.1213 6.13955Z" fill="#ECEFFE"/>
<path fill-rule="evenodd" clip-rule="evenodd" d="M12.3569 8.59531C19.9745 7.77181 23.0637 11.0462 21.6247 18.4185C17.8006 23.1177 14.0935 23.1177 10.5034 18.4185C9.40275 14.7378 10.0206 11.4634 12.3569 8.59531Z" fill="#3A5FF1"/>
<path fill-rule="evenodd" clip-rule="evenodd" d="M14.8283 12.2788C18.981 13.1423 19.3929 14.7794 16.064 17.1904C13.4167 16.0398 13.0048 14.4026 14.8283 12.2788Z" fill="#D9DFFC"/>
</svg>