<svg width="326" height="326" viewBox="0 0 326 326" fill="none" xmlns="http://www.w3.org/2000/svg">
<path d="M325.52 108.57C325.52 131.93 308.43 150.89 287.27 150.89H202.47C172.68 150.89 154.45 114.92 169.75 86.6L205.31 20.6C212.31 7.82001 224.6 0.0100098 238.03 0.0100098H287.1C308.18 0.0100098 325.35 19.05 325.35 42.33L325.51 108.58L325.52 108.57Z" fill="#1E4A91"/>
<path d="M325.52 283.13C325.52 306.49 308.43 325.45 287.27 325.45H202.47C172.68 325.45 154.45 289.48 169.75 261.16L205.31 195.16C212.31 182.38 224.6 174.57 238.03 174.57H287.1C308.18 174.57 325.35 193.61 325.35 216.89L325.51 283.14L325.52 283.13Z" fill="#2BACE2"/>
<path d="M0 42.32C0 19.04 17.09 0 38.25 0H123.05C152.84 0 171.07 35.97 155.77 64.29L120.21 130.29C113.21 143.07 100.92 150.88 87.49 150.88H38.42C17.26 150.88 0.169998 131.92 0.169998 108.56L0.00999451 42.31L0 42.32Z" fill="#2BACE2"/>
<path d="M0 216.97C0 193.61 17.09 174.65 38.25 174.65H123.05C152.84 174.65 171.07 210.62 155.77 238.94L120.21 304.94C113.21 317.72 100.92 325.53 87.49 325.53H38.42C17.26 325.53 0.169998 306.49 0.169998 283.21L0.00999451 216.96L0 216.97Z" fill="#1E4A91"/>
</svg>
