<svg width="32" height="32" viewBox="0 0 32 32" fill="none" xmlns="http://www.w3.org/2000/svg">
    <path
        d="M3.2059 32C2.07147 32 1.10085 31.1678 0.537992 29.7109C-0.481423 27.0663 -0.124191 22.3012 2.23179 19.2148C3.66246 17.3408 5.73963 15.7996 8.15136 14.7311C9.73363 7.15084 11.5895 0 16 0C20.4105 0 22.2663 7.15084 23.8486 14.7291C26.2604 15.7976 28.3376 17.3388 29.7682 19.2127C32.1242 22.2991 32.4814 27.0643 31.462 29.7089C30.9009 31.1678 29.9303 32 28.7941 32C28.7802 32 28.7662 32 28.7523 32C25.1155 31.9342 23.758 25.2828 22.1862 17.5833C22.127 17.2894 22.066 16.9935 22.005 16.6956C20.1404 16.0236 18.0841 15.6517 16 15.6517C13.9158 15.6517 11.8596 16.0236 9.995 16.6956C9.93407 16.9935 9.87307 17.2894 9.81384 17.5833C8.24202 25.2848 6.88451 31.9363 3.24772 32C3.23378 32 3.21984 32 3.2059 32ZM24.4847 17.8319C25.5825 23.1909 26.9418 29.3904 28.7836 29.4232C28.7854 29.4232 28.7872 29.4232 28.7906 29.4232C29.1043 29.4232 29.3326 28.9999 29.4702 28.6444C30.1934 26.7684 29.8257 23.1436 28.1424 20.9367C27.2153 19.7223 25.9571 18.6702 24.4847 17.8319ZM7.51532 17.8319C6.04283 18.6702 4.78469 19.7223 3.85763 20.9367C2.17428 23.1416 1.8066 26.7684 2.52977 28.6444C2.66744 28.9999 2.89572 29.4232 3.20938 29.4232C3.21113 29.4232 3.21287 29.4232 3.21462 29.4232C5.05653 29.3904 6.41575 23.1909 7.51359 17.8319H7.51532ZM16 2.57676C13.4436 2.57676 11.8404 8.15155 10.5963 13.8414C12.3249 13.3441 14.1563 13.0749 16 13.0749C17.8437 13.0749 19.6768 13.3441 21.4038 13.8414C20.1578 8.15155 18.5564 2.57676 16 2.57676Z"
        fill="#1B5BF2" />
</svg>