<svg width="32" height="32" viewBox="0 0 32 32" fill="none" xmlns="http://www.w3.org/2000/svg">
    <g clip-path="url(#clip0_5492_5117)">
        <path fill-rule="evenodd" clip-rule="evenodd"
            d="M-0.0639648 -0.0644531C10.6027 -0.0644531 21.2694 -0.0644531 31.936 -0.0644531C31.936 10.6022 31.936 21.2689 31.936 31.9355C21.2694 31.9355 10.6027 31.9355 -0.0639648 31.9355C-0.0639648 21.2689 -0.0639648 10.6022 -0.0639648 -0.0644531Z"
            fill="#010102" />
        <path fill-rule="evenodd" clip-rule="evenodd"
            d="M24.2561 0.959595C23.9147 0.959595 23.5735 0.959595 23.2321 0.959595C22.3787 0.959595 21.5255 0.959595 20.6721 0.959595C19.8615 0.959595 19.0507 0.959595 18.2401 0.959595C16.5761 0.959595 14.9121 0.959595 13.2481 0.959595C11.1996 0.938272 9.15163 0.959604 7.10408 1.0236C6.81959 1.09607 6.56359 1.20273 6.33608 1.3436C6.25074 1.3436 6.16542 1.3436 6.08008 1.3436C6.32141 1.11172 6.62007 0.962391 6.97608 0.895595C12.7576 0.789166 18.5177 0.810499 24.2561 0.959595Z"
            fill="#721694" />
        <path fill-rule="evenodd" clip-rule="evenodd"
            d="M23.2319 0.959961C23.5733 0.959961 23.9145 0.959961 24.2559 0.959961C24.3413 0.959961 24.4265 0.959961 24.5119 0.959961C24.5119 1.00263 24.5119 1.04529 24.5119 1.08796C24.4295 1.82948 24.2162 2.53348 23.8719 3.19996C24.0046 3.61448 23.8979 3.97714 23.5519 4.28796C23.2506 5.38408 22.888 6.45074 22.4639 7.48796C22.3583 7.60133 22.2303 7.64399 22.0799 7.61596C21.5861 7.44454 21.0741 7.33788 20.5439 7.29596C17.9415 7.23196 15.3389 7.21064 12.7359 7.23196C12.6932 7.23196 12.6506 7.23196 12.6079 7.23196C12.6079 7.1893 12.6079 7.14662 12.6079 7.10396C13.7599 7.10396 14.9119 7.10396 16.0639 7.10396C16.8745 7.10396 17.6853 7.10396 18.4959 7.10396C19.2213 7.10396 19.9465 7.10396 20.6719 7.10396C20.6466 5.86122 20.8172 4.64522 21.1839 3.45596C21.1622 2.68051 21.1622 1.89117 21.1839 1.08796C21.8912 1.1291 22.574 1.08644 23.2319 0.959961Z"
            fill="#A830FC" />
        <path fill-rule="evenodd" clip-rule="evenodd"
            d="M13.2481 0.960143C12.762 1.08602 12.25 1.12869 11.7121 1.08814C11.7914 3.05127 11.8767 5.01393 11.9681 6.97614C12.1728 6.94186 12.3435 6.98453 12.4801 7.10414C11.7975 7.10414 11.1148 7.10414 10.4321 7.10414C10.1489 6.54338 9.74361 6.07404 9.21615 5.69614C9.13585 5.31856 9.07185 4.97722 9.02415 4.67214C8.43749 4.34384 7.79749 4.19451 7.10415 4.22414C7.04015 4.16014 6.97615 4.09614 6.91215 4.03214C6.67793 3.20202 6.35793 2.41269 5.95215 1.66414C6.12281 1.57881 6.29349 1.49348 6.46415 1.40814C6.43491 1.3571 6.39224 1.33577 6.33615 1.34414C6.56366 1.20328 6.81966 1.09662 7.10415 1.02414C9.1517 0.960152 11.1997 0.93882 13.2481 0.960143Z"
            fill="#E31BFC" />
        <path fill-rule="evenodd" clip-rule="evenodd"
            d="M13.2479 0.959961C14.9119 0.959961 16.5759 0.959961 18.2399 0.959961C17.3454 1.02856 16.4494 1.13523 15.5519 1.27996C15.6788 3.1686 15.7214 5.06728 15.6799 6.97596C15.8452 6.94559 15.9732 6.98825 16.0639 7.10396C14.9119 7.10396 13.7599 7.10396 12.6079 7.10396C12.5653 7.10396 12.5226 7.10396 12.4799 7.10396C12.3433 6.98435 12.1726 6.94168 11.9679 6.97596C11.8765 5.01375 11.7912 3.05108 11.7119 1.08796C12.2497 1.1285 12.7617 1.08584 13.2479 0.959961Z"
            fill="#CE1EFD" />
        <path fill-rule="evenodd" clip-rule="evenodd"
            d="M18.2398 0.959961C19.0504 0.959961 19.8611 0.959961 20.6718 0.959961C19.9281 1.08662 19.1601 1.12929 18.3678 1.08796C18.335 1.3814 18.3776 1.65874 18.4958 1.91996C18.2747 3.59167 18.1467 5.277 18.1118 6.97596C18.277 6.94559 18.405 6.98825 18.4958 7.10396C17.6851 7.10396 16.8744 7.10396 16.0638 7.10396C15.973 6.98825 15.845 6.94559 15.6798 6.97596C15.7212 5.06728 15.6786 3.1686 15.5518 1.27996C16.4493 1.13523 17.3453 1.02856 18.2398 0.959961Z"
            fill="#C023FE" />
        <path fill-rule="evenodd" clip-rule="evenodd"
            d="M20.6718 0.959961C21.5252 0.959961 22.3784 0.959961 23.2318 0.959961C22.5739 1.08644 21.8911 1.1291 21.1838 1.08796C21.1621 1.89117 21.1621 2.68051 21.1838 3.45596C20.8171 4.64522 20.6465 5.86122 20.6718 7.10396C19.9464 7.10396 19.2212 7.10396 18.4958 7.10396C18.4051 6.98825 18.2771 6.94559 18.1118 6.97596C18.1468 5.277 18.2748 3.59167 18.4958 1.91996C18.3777 1.65874 18.335 1.3814 18.3678 1.08796C19.1601 1.12929 19.9281 1.08662 20.6718 0.959961Z"
            fill="#B329FD" />
        <path fill-rule="evenodd" clip-rule="evenodd"
            d="M24.5122 1.08796C24.5122 1.04529 24.5122 1.00263 24.5122 0.959961C24.9327 1.01476 25.3167 1.14276 25.6642 1.34396C25.2677 1.31124 24.8837 1.22592 24.5122 1.08796Z"
            fill="#4C1775" />
        <path fill-rule="evenodd" clip-rule="evenodd"
            d="M24.5121 1.08789C24.8835 1.22585 25.2675 1.31117 25.6641 1.34389C26.5771 1.7443 27.3879 2.29896 28.0961 3.00789C28.0851 3.13537 28.1278 3.24203 28.2241 3.32789C27.203 4.13707 26.4136 5.13973 25.8561 6.33589C25.266 7.06605 24.69 7.81272 24.1281 8.57589C24.3051 8.76289 24.2624 8.86955 24.0001 8.89589C23.7867 8.72523 23.5735 8.55455 23.3601 8.38389C22.9288 8.12602 22.5022 7.87002 22.0801 7.61589C22.2305 7.64392 22.3585 7.60126 22.4641 7.48789C22.8881 6.45067 23.2508 5.38401 23.5521 4.28789C23.8981 3.97707 24.0048 3.61441 23.8721 3.19989C24.2164 2.53341 24.4296 1.82941 24.5121 1.08789Z"
            fill="#9F34FA" />
        <path fill-rule="evenodd" clip-rule="evenodd"
            d="M6.08011 1.3442C6.16545 1.3442 6.25078 1.3442 6.33611 1.3442C6.3922 1.33583 6.43488 1.35716 6.46411 1.4082C6.29345 1.49354 6.12278 1.57887 5.95211 1.6642C6.3579 2.41275 6.6779 3.20209 6.91211 4.0322C6.97611 4.0962 7.04011 4.1602 7.10411 4.2242C7.79745 4.19457 8.43745 4.3439 9.02411 4.6722C9.07182 4.97728 9.13582 5.31862 9.21611 5.6962C9.74358 6.0741 10.1489 6.54344 10.4321 7.1042C10.0908 7.1042 9.74945 7.1042 9.40811 7.1042C9.56667 7.01307 9.63067 6.88507 9.60011 6.7202C8.85313 5.85092 7.89313 5.42425 6.72011 5.4402C6.28239 5.47654 5.85573 5.56188 5.44011 5.6962C5.20768 5.5279 4.99435 5.3359 4.80011 5.1202C4.24545 5.07754 3.69078 5.03487 3.13611 4.9922C2.89259 4.96671 2.70059 4.86004 2.56011 4.6722C2.51745 4.71487 2.47478 4.75754 2.43211 4.8002C2.37032 4.67886 2.34898 4.55086 2.36811 4.4162C3.14457 3.12722 4.21125 2.12456 5.56811 1.4082C5.73364 1.34548 5.90432 1.32415 6.08011 1.3442Z"
            fill="#EE1DF7" />
        <path fill-rule="evenodd" clip-rule="evenodd"
            d="M28.096 3.00781C30.2248 5.28308 30.7154 7.88575 29.568 10.8158C28.7944 12.2776 28.0904 13.7709 27.456 15.2958C27.1763 14.7382 26.8777 14.1836 26.56 13.6318C26.0049 11.8809 25.1515 10.3022 24 8.89581C24.2623 8.86947 24.305 8.76281 24.128 8.57581C24.6899 7.81264 25.2659 7.06598 25.856 6.33581C26.4136 5.13965 27.2029 4.13699 28.224 3.32781C28.1277 3.24195 28.085 3.13529 28.096 3.00781Z"
            fill="#953AF7" />
        <path fill-rule="evenodd" clip-rule="evenodd"
            d="M2.36783 4.41602C2.34869 4.55067 2.37003 4.67867 2.43183 4.80002C2.47449 4.75735 2.51716 4.71468 2.55983 4.67202C2.70031 4.85986 2.89231 4.96652 3.13583 4.99202C3.69049 5.03468 4.24517 5.07735 4.79983 5.12002C4.99407 5.33571 5.20739 5.52771 5.43983 5.69602C5.85544 5.56169 6.28211 5.47635 6.71983 5.44002C7.89285 5.42407 8.85285 5.85073 9.59983 6.72002C9.63038 6.88488 9.56638 7.01288 9.40783 7.10402C8.44916 6.87595 7.46783 6.70528 6.46383 6.59202C4.93272 6.84226 3.39672 6.88492 1.85583 6.72002C1.74726 6.47571 1.70458 6.21971 1.72783 5.95202C1.84164 5.39687 2.05498 4.88487 2.36783 4.41602Z"
            fill="#F322F0" />
        <path fill-rule="evenodd" clip-rule="evenodd"
            d="M1.72783 5.95215C1.70458 6.21985 1.74726 6.47585 1.85583 6.72015C3.39672 6.88505 4.93272 6.84239 6.46383 6.59215C7.46783 6.70542 8.44916 6.87608 9.40783 7.10415C9.74916 7.10415 10.0905 7.10415 10.4318 7.10415C11.1145 7.10415 11.7972 7.10415 12.4798 7.10415C12.5225 7.10415 12.5652 7.10415 12.6078 7.10415C12.6078 7.14681 12.6078 7.18949 12.6078 7.23215C11.1506 7.14977 9.74265 7.23509 8.38383 7.48815C7.92193 7.71783 7.40993 7.88849 6.84783 8.00015C6.30028 8.02083 5.74562 7.97817 5.18383 7.87215C3.9828 8.37378 2.74546 8.54444 1.47183 8.38415C1.45057 7.65757 1.4719 6.93223 1.53583 6.20815C1.57146 6.09093 1.63546 6.00559 1.72783 5.95215Z"
            fill="#F228E5" />
        <path fill-rule="evenodd" clip-rule="evenodd"
            d="M12.6078 7.23152C12.6505 7.23152 12.6931 7.23152 12.7358 7.23152C12.7358 7.27418 12.7358 7.31686 12.7358 7.35952C11.3048 7.31755 9.89683 7.36021 8.51179 7.48752C8.46913 7.48752 8.42645 7.48752 8.38379 7.48752C9.74261 7.23447 11.1506 7.14914 12.6078 7.23152Z"
            fill="#2E0733" />
        <path fill-rule="evenodd" clip-rule="evenodd"
            d="M8.51221 7.48834C9.89724 7.36103 11.3052 7.31837 12.7362 7.36034C14.3772 7.53022 15.7212 8.25556 16.7682 9.53634C17.5394 10.9081 18.2434 12.3161 18.8802 13.7603C19.2638 14.6977 19.6478 15.6363 20.0322 16.5763C20.4599 17.5169 20.8866 18.4555 21.3122 19.3923C21.809 20.4591 22.2782 21.5257 22.7202 22.5923C22.7983 22.7064 22.8409 22.8344 22.8482 22.9763C22.9336 23.1897 23.0188 23.403 23.1042 23.6163C21.7025 23.8695 20.2519 23.9548 18.7522 23.8723C18.5045 23.7891 18.2485 23.7465 17.9842 23.7443C17.9416 23.7443 17.8988 23.7443 17.8562 23.7443C16.7989 23.4561 15.9029 22.9015 15.1682 22.0803C14.8372 21.6316 14.5386 21.1623 14.2722 20.6723C14.1318 20.2645 13.9612 19.8805 13.7602 19.5203C13.6172 18.9784 13.4039 18.4664 13.1202 17.9843C13.0997 17.7728 13.0145 17.6021 12.8642 17.4723C12.8139 17.244 12.7286 17.0307 12.6082 16.8323C12.485 16.4171 12.3143 16.0331 12.0962 15.6803C11.9131 15.187 11.6998 14.7176 11.4562 14.2723C11.3826 13.8356 11.212 13.4516 10.9442 13.1203C10.8886 12.7802 10.7606 12.4815 10.5602 12.2243C10.5398 12.0128 10.4544 11.8421 10.3042 11.7123C10.2486 11.3722 10.1206 11.0735 9.92021 10.8163C9.85082 10.3796 9.68016 9.99558 9.40821 9.66434C9.19431 9.14673 8.98097 8.63473 8.76821 8.12834C8.73033 7.88475 8.64501 7.67142 8.51221 7.48834Z"
            fill="#010101" />
        <path fill-rule="evenodd" clip-rule="evenodd"
            d="M12.7358 7.35963C12.7358 7.31697 12.7358 7.27429 12.7358 7.23163C15.3388 7.2103 17.9415 7.23163 20.5438 7.29563C21.074 7.33755 21.586 7.44421 22.0798 7.61563C22.502 7.86976 22.9286 8.12576 23.3598 8.38363C23.3488 8.5111 23.3916 8.61777 23.4878 8.70363C22.5424 9.21919 21.6892 9.85919 20.9278 10.6236C20.0652 11.0228 19.2332 11.4708 18.4318 11.9676C18.528 12.5252 18.72 13.0586 19.0078 13.5676C18.9989 13.6655 18.9563 13.7295 18.8798 13.7596C18.243 12.3154 17.539 10.9074 16.7678 9.53563C15.7208 8.25485 14.3768 7.52951 12.7358 7.35963Z"
            fill="#04C5FB" />
        <path fill-rule="evenodd" clip-rule="evenodd"
            d="M8.38388 7.48828C8.42654 7.48828 8.46921 7.48828 8.51188 7.48828C8.59327 7.82187 8.59327 8.14187 8.51188 8.44828C7.45044 8.41476 6.51177 8.64943 5.69588 9.15228C5.61054 9.10962 5.52521 9.06694 5.43988 9.02428C4.12783 9.20035 2.89049 9.58435 1.72788 10.1763C1.50827 9.60392 1.42293 9.00658 1.47188 8.38428C2.74552 8.54458 3.98285 8.37391 5.18388 7.87228C5.74567 7.9783 6.30033 8.02097 6.84788 8.00028C7.40998 7.88863 7.92198 7.71796 8.38388 7.48828Z"
            fill="#F52EDB" />
        <path fill-rule="evenodd" clip-rule="evenodd"
            d="M23.3601 8.38379C23.5735 8.55445 23.7868 8.72513 24.0001 8.89579C25.1516 10.3022 26.005 11.8808 26.5601 13.6318C26.5792 13.7664 26.558 13.8944 26.4961 14.0158C26.3681 13.8452 26.2401 13.6744 26.1121 13.5038C24.2669 14.2383 22.4749 15.0916 20.7361 16.0638C20.6935 16.0212 20.6508 15.9784 20.6081 15.9358C20.4716 16.0242 20.3222 16.0882 20.1601 16.1278C20.295 16.3055 20.3163 16.4975 20.2241 16.7038C20.1751 16.6326 20.1111 16.59 20.0321 16.5758C19.6477 15.6358 19.2637 14.6971 18.8801 13.7598C18.9565 13.7297 18.9992 13.6657 19.0081 13.5678C18.7203 13.0587 18.5283 12.5254 18.4321 11.9678C19.2335 11.471 20.0655 11.023 20.9281 10.6238C21.6895 9.85935 22.5427 9.21935 23.4881 8.70379C23.3919 8.61793 23.3491 8.51126 23.3601 8.38379Z"
            fill="#03C3FD" />
        <path fill-rule="evenodd" clip-rule="evenodd"
            d="M8.51203 7.48828C8.64483 7.67136 8.73015 7.8847 8.76803 8.12828C8.81768 8.71434 8.92434 9.18368 9.08803 9.53628C9.01618 9.46948 8.93084 9.42682 8.83203 9.40828C6.69695 10.1411 4.54229 10.9091 2.36803 11.7123C2.14998 11.1978 1.93664 10.6858 1.72803 10.1763C2.89064 9.58435 4.12798 9.20035 5.44003 9.02428C5.52537 9.06694 5.61069 9.10962 5.69603 9.15228C6.51193 8.64943 7.45059 8.41476 8.51203 8.44828C8.59342 8.14187 8.59342 7.82187 8.51203 7.48828Z"
            fill="#F837CC" />
        <path fill-rule="evenodd" clip-rule="evenodd"
            d="M8.76816 8.12793C8.98093 8.63432 9.19426 9.14632 9.40816 9.66393C9.43004 9.98301 9.30204 10.2177 9.02416 10.3679C6.89223 11.0832 4.84423 11.8725 2.88016 12.7359C2.7078 12.3912 2.53714 12.0499 2.36816 11.7119C4.54242 10.9087 6.69709 10.1407 8.83216 9.40793C8.93098 9.42646 9.01632 9.46913 9.08816 9.53593C8.92448 9.18333 8.81782 8.71399 8.76816 8.12793Z"
            fill="#F83EBF" />
        <path fill-rule="evenodd" clip-rule="evenodd"
            d="M9.40788 9.66406C9.67983 9.9953 9.85049 10.3793 9.91988 10.8161C9.92371 10.9437 9.85971 11.029 9.72788 11.0721C7.53282 11.9504 5.37816 12.8036 3.26388 13.6321C3.11095 13.3439 2.98295 13.0452 2.87988 12.7361C4.84395 11.8726 6.89195 11.0833 9.02388 10.3681C9.30176 10.2178 9.42976 9.98314 9.40788 9.66406Z"
            fill="#F845B2" />
        <path fill-rule="evenodd" clip-rule="evenodd"
            d="M9.92016 10.8164C10.1205 11.0736 10.2485 11.3723 10.3042 11.7124C8.08001 12.5899 5.90401 13.5712 3.77616 14.6564C3.6038 14.3117 3.43313 13.9703 3.26416 13.6324C5.37844 12.804 7.5331 11.9507 9.72816 11.0724C9.85999 11.0294 9.92399 10.944 9.92016 10.8164Z"
            fill="#F84AA7" />
        <path fill-rule="evenodd" clip-rule="evenodd"
            d="M10.3039 11.7119C10.4541 11.8417 10.5394 12.0123 10.5599 12.2239C10.5934 12.4131 10.5508 12.5837 10.4319 12.7359C8.31151 13.6117 6.22085 14.5077 4.15988 15.4239C4.03188 15.1679 3.90388 14.9119 3.77588 14.6559C5.90373 13.5707 8.07973 12.5894 10.3039 11.7119Z"
            fill="#FC529C" />
        <path fill-rule="evenodd" clip-rule="evenodd"
            d="M10.5602 12.2236C10.7605 12.4808 10.8885 12.7795 10.9442 13.1196C10.9722 13.27 10.9295 13.398 10.8162 13.5036C8.72534 14.4213 6.67734 15.4026 4.67216 16.4476C4.54416 16.277 4.41616 16.1063 4.28816 15.9356C4.24549 15.765 4.20282 15.5943 4.16016 15.4236C6.22112 14.5074 8.31179 13.6114 10.4322 12.7356C10.551 12.5835 10.5937 12.4128 10.5602 12.2236Z"
            fill="#FB5A8D" />
        <path fill-rule="evenodd" clip-rule="evenodd"
            d="M26.5602 13.6319C26.8779 14.1837 27.1765 14.7383 27.4562 15.2959C27.6592 15.7462 27.8299 16.2156 27.9682 16.7039C27.9873 16.8386 27.9661 16.9666 27.9042 17.0879C27.8598 16.8729 27.7318 16.7449 27.5202 16.7039C27.0208 16.9963 26.5088 17.2523 25.9842 17.4719C25.9416 17.4293 25.8989 17.3865 25.8562 17.3439C25.1168 17.6546 24.3701 17.9532 23.6162 18.2399C23.5412 18.2132 23.4772 18.1704 23.4242 18.1119C22.8493 18.4738 22.2306 18.7511 21.5682 18.9439C21.4933 19.1106 21.4081 19.2599 21.3122 19.3919C20.8866 18.4551 20.4599 17.5165 20.0322 16.5759C20.1112 16.5901 20.1752 16.6327 20.2242 16.7039C20.3164 16.4976 20.2951 16.3056 20.1602 16.1279C20.3223 16.0884 20.4717 16.0244 20.6082 15.9359C20.6509 15.9785 20.6936 16.0213 20.7362 16.0639C22.475 15.0917 24.267 14.2384 26.1122 13.5039C26.2402 13.6745 26.3682 13.8453 26.4962 14.0159C26.5581 13.8946 26.5793 13.7666 26.5602 13.6319Z"
            fill="#01BDFD" />
        <path fill-rule="evenodd" clip-rule="evenodd"
            d="M10.9439 13.1201C11.2116 13.4514 11.3823 13.8354 11.4559 14.2721C9.30771 15.2722 7.17438 16.2962 5.05587 17.3441C4.89764 17.069 4.76964 16.7704 4.67188 16.4481C6.67706 15.4031 8.72506 14.4217 10.8159 13.5041C10.9292 13.3985 10.9719 13.2705 10.9439 13.1201Z"
            fill="#FC6181" />
        <path fill-rule="evenodd" clip-rule="evenodd"
            d="M11.4562 14.2725C11.6997 14.7178 11.9131 15.1871 12.0962 15.6805C11.898 15.6394 11.8127 15.5114 11.8402 15.2965C11.0276 15.603 10.2169 15.923 9.40815 16.2565C8.21448 16.9386 6.97715 17.5573 5.69615 18.1125C5.59407 18.171 5.5514 18.2563 5.56815 18.3685C5.3325 18.0678 5.16184 17.7265 5.05615 17.3445C7.17465 16.2965 9.30799 15.2725 11.4562 14.2725Z"
            fill="#FB6874" />
        <path fill-rule="evenodd" clip-rule="evenodd"
            d="M12.096 15.6799C12.3141 16.0327 12.4847 16.4167 12.608 16.8319C12.3565 16.6678 12.1005 16.4972 11.84 16.3199C11.7547 16.3413 11.6693 16.3625 11.584 16.3839C9.85829 17.2391 8.10895 18.1351 6.336 19.0719C6.16668 19.1763 6.08135 19.3257 6.08 19.5199C5.81225 19.1886 5.64158 18.8046 5.568 18.3679C5.55124 18.2558 5.59392 18.1704 5.696 18.1119C6.97699 17.5568 8.21432 16.938 9.408 16.2559C10.2167 15.9225 11.0274 15.6025 11.84 15.2959C11.8125 15.5108 11.8978 15.6388 12.096 15.6799Z"
            fill="#FB6F67" />
        <path fill-rule="evenodd" clip-rule="evenodd"
            d="M4.288 15.9355C4.416 16.1062 4.544 16.2769 4.672 16.4475C4.76976 16.7699 4.89776 17.0685 5.056 17.3435C5.16169 17.7256 5.33235 18.0669 5.568 18.3675C5.64158 18.8043 5.81224 19.1883 6.08 19.5195C6.17776 19.8419 6.30576 20.1405 6.464 20.4155C6.6017 20.8185 6.77236 21.2025 6.976 21.5675C5.85063 22.5007 4.78397 23.5034 3.776 24.5755C3.25255 24.8478 2.76188 25.1678 2.304 25.5355C2.21813 25.4393 2.11147 25.3965 1.984 25.4075C1.45162 23.7489 1.47296 22.0849 2.048 20.4155C2.80518 18.9012 3.55185 17.4078 4.288 15.9355Z"
            fill="#0D67F9" />
        <path fill-rule="evenodd" clip-rule="evenodd"
            d="M12.6081 16.8323C12.7285 17.0307 12.8138 17.244 12.8641 17.4723C12.4596 17.2358 12.033 17.257 11.5841 17.5363C9.9361 18.3519 8.29343 19.2693 6.65608 20.2883C6.51441 20.1332 6.45041 20.1758 6.46408 20.4163C6.30584 20.1412 6.17784 19.8426 6.08008 19.5203C6.08143 19.3261 6.16676 19.1768 6.33608 19.0723C8.10903 18.1355 9.85837 17.2395 11.5841 16.3843C11.6694 16.3629 11.7547 16.3417 11.8401 16.3203C12.1006 16.4976 12.3566 16.6682 12.6081 16.8323Z"
            fill="#FC765C" />
        <path fill-rule="evenodd" clip-rule="evenodd"
            d="M27.968 16.7041C28.6307 17.9444 29.2279 19.2244 29.76 20.5441C29.4072 20.3495 29.1085 20.0935 28.864 19.7761C27.2366 20.2187 25.594 20.4747 23.936 20.5441C23.3595 20.6794 22.8261 20.9141 22.336 21.2481C22.6177 21.6837 22.7457 22.1317 22.72 22.5921C22.278 21.5255 21.8088 20.4589 21.312 19.3921C21.4079 19.2601 21.4931 19.1108 21.568 18.9441C22.2304 18.7513 22.849 18.474 23.424 18.1121C23.477 18.1706 23.541 18.2133 23.616 18.2401C24.3699 17.9534 25.1166 17.6548 25.856 17.3441C25.8986 17.3867 25.9414 17.4295 25.984 17.4721C26.5086 17.2525 27.0206 16.9965 27.52 16.7041C27.7316 16.7451 27.8596 16.8731 27.904 17.0881C27.9658 16.9668 27.9871 16.8388 27.968 16.7041Z"
            fill="#00B6FC" />
        <path fill-rule="evenodd" clip-rule="evenodd"
            d="M12.8642 17.4723C13.0145 17.6021 13.0997 17.7727 13.1202 17.9843C12.2406 18.5998 11.3019 19.1331 10.3042 19.5843C9.42949 20.2562 8.53349 20.8962 7.61621 21.5043C7.44689 21.6088 7.36156 21.7582 7.36021 21.9523C7.2614 21.7995 7.1334 21.6715 6.97621 21.5683C6.77257 21.2033 6.60191 20.8193 6.46421 20.4163C6.45054 20.1758 6.51454 20.1332 6.65621 20.2883C8.29356 19.2693 9.93623 18.3519 11.5842 17.5363C12.0331 17.257 12.4598 17.2358 12.8642 17.4723Z"
            fill="#FC7D50" />
        <path fill-rule="evenodd" clip-rule="evenodd"
            d="M13.1199 17.9844C13.4035 18.4664 13.6169 18.9784 13.7599 19.5204C13.6372 19.4624 13.5305 19.3771 13.4399 19.2644C11.591 20.1291 9.99104 21.3451 8.63986 22.9124C8.71103 22.9614 8.75369 23.0254 8.76786 23.1044C8.18633 22.8648 7.717 22.4808 7.35986 21.9524C7.36122 21.7582 7.44654 21.6088 7.61586 21.5044C8.53315 20.8962 9.42915 20.2562 10.3039 19.5844C11.3016 19.1332 12.2402 18.5998 13.1199 17.9844Z"
            fill="#FB8443" />
        <path fill-rule="evenodd" clip-rule="evenodd"
            d="M29.7599 20.5444C30.313 22.0089 30.3984 23.5023 30.0159 25.0244C29.937 25.0386 29.873 25.0812 29.8239 25.1524C29.7318 24.946 29.753 24.754 29.8879 24.5764C29.2004 24.3543 28.5178 24.1197 27.8399 23.8724C27.7546 23.915 27.6693 23.9577 27.5839 24.0004C26.8598 23.4847 26.0492 23.2073 25.1519 23.1684C24.754 23.0859 24.3912 22.9366 24.0639 22.7204C23.6867 22.7727 23.3453 22.9007 23.0399 23.1044C22.9909 23.0332 22.9269 22.9906 22.8479 22.9764C22.8406 22.8344 22.798 22.7064 22.7199 22.5924C22.7457 22.132 22.6177 21.684 22.3359 21.2484C22.826 20.9144 23.3594 20.6797 23.9359 20.5444C25.5939 20.475 27.2365 20.219 28.8639 19.7764C29.1084 20.0938 29.4072 20.3498 29.7599 20.5444Z"
            fill="#00B0FD" />
        <path fill-rule="evenodd" clip-rule="evenodd"
            d="M13.7601 19.5197C13.9611 19.8799 14.1317 20.2639 14.2721 20.6717C14.1137 20.5549 13.9429 20.5336 13.7601 20.6077C12.4787 21.3986 11.5401 22.4866 10.9441 23.8717C10.8161 23.8717 10.6881 23.8717 10.5601 23.8717C10.0063 23.7222 9.45163 23.5515 8.89614 23.3597C8.85347 23.2743 8.8108 23.189 8.76814 23.1037C8.75397 23.0247 8.7113 22.9607 8.64014 22.9117C9.99132 21.3444 11.5913 20.1284 13.4401 19.2637C13.5308 19.3764 13.6375 19.4617 13.7601 19.5197Z"
            fill="#FB8B38" />
        <path fill-rule="evenodd" clip-rule="evenodd"
            d="M14.2718 20.6716C14.5382 21.1616 14.8368 21.6308 15.1678 22.0796C15.0269 21.9132 14.8563 21.8492 14.6558 21.8876C14.082 22.3955 13.698 23.0143 13.5038 23.7436C13.2992 23.7093 13.1286 23.752 12.9918 23.8716C12.3092 23.8716 11.6265 23.8716 10.9438 23.8716C11.5398 22.4865 12.4784 21.3985 13.7598 20.6076C13.9426 20.5335 14.1134 20.5549 14.2718 20.6716Z"
            fill="#FB922A" />
        <path fill-rule="evenodd" clip-rule="evenodd"
            d="M6.97589 21.5684C7.13308 21.6715 7.26108 21.7995 7.35989 21.9524C7.71702 22.4807 8.18636 22.8647 8.76789 23.1044C8.81055 23.1897 8.85322 23.275 8.89589 23.3604C8.07839 25.2577 7.31039 27.1777 6.59189 29.1204C6.70183 29.3814 6.59516 29.552 6.27189 29.6324C5.96035 29.5271 5.64035 29.4844 5.31189 29.5044C3.5953 28.6306 2.48598 27.2653 1.98389 25.4084C2.11136 25.3974 2.21802 25.4401 2.30389 25.5364C2.76177 25.1686 3.25244 24.8486 3.77589 24.5764C4.78386 23.5042 5.85052 22.5015 6.97589 21.5684Z"
            fill="#016CFD" />
        <path fill-rule="evenodd" clip-rule="evenodd"
            d="M15.1682 22.0798C15.9029 22.9009 16.7989 23.4555 17.8562 23.7438C16.2576 23.8711 14.6362 23.9139 12.9922 23.8718C13.1289 23.7522 13.2995 23.7094 13.5042 23.7438C13.6984 23.0144 14.0824 22.3957 14.6562 21.8878C14.8566 21.8494 15.0273 21.9134 15.1682 22.0798Z"
            fill="#FA981C" />
        <path fill-rule="evenodd" clip-rule="evenodd"
            d="M30.0161 25.0237C29.6661 26.5247 28.8981 27.762 27.7121 28.7357C27.6904 28.5665 27.733 28.4171 27.8401 28.2877C26.4426 26.7442 24.9494 25.3148 23.3601 23.9997C23.3822 23.8728 23.3394 23.7875 23.2321 23.7437C23.2321 23.6584 23.1895 23.6157 23.1041 23.6157C23.0188 23.4024 22.9335 23.1891 22.8481 22.9757C22.9271 22.9899 22.9911 23.0326 23.0401 23.1037C23.3456 22.9001 23.6869 22.7721 24.0641 22.7197C24.3914 22.9359 24.7542 23.0853 25.1521 23.1677C26.0494 23.2066 26.86 23.484 27.5841 23.9997C27.6695 23.9571 27.7548 23.9144 27.8401 23.8717C28.518 24.119 29.2007 24.3536 29.8881 24.5757C29.7532 24.7534 29.732 24.9454 29.8241 25.1517C29.8732 25.0806 29.9372 25.0379 30.0161 25.0237Z"
            fill="#00AAFD" />
        <path fill-rule="evenodd" clip-rule="evenodd"
            d="M8.89601 23.3604C9.45151 23.5522 10.0062 23.7228 10.56 23.8724C10.56 23.915 10.56 23.9577 10.56 24.0004C10.5742 24.0793 10.6168 24.1433 10.688 24.1924C10.1058 26.086 9.80713 28.0272 9.79201 30.0164C9.29797 30.0558 8.82863 30.1412 8.38401 30.2724C8.00001 30.2724 7.61601 30.2724 7.23201 30.2724C6.89345 30.0407 6.50945 29.9127 6.08001 29.8884C5.74862 29.8933 5.49262 29.7653 5.31201 29.5044C5.64047 29.4844 5.96047 29.5271 6.27201 29.6324C6.59529 29.552 6.70195 29.3813 6.59201 29.1204C7.31051 27.1777 8.07851 25.2577 8.89601 23.3604Z"
            fill="#0272FD" />
        <path fill-rule="evenodd" clip-rule="evenodd"
            d="M17.8561 23.7441C17.8987 23.7441 17.9414 23.7441 17.9841 23.7441C18.0694 23.8295 18.1547 23.9148 18.2401 24.0001C15.9361 24.0001 13.6321 24.0001 11.3281 24.0001C11.0721 24.0001 10.8161 24.0001 10.5601 24.0001C10.5601 23.9575 10.5601 23.9148 10.5601 23.8721C10.6881 23.8721 10.8161 23.8721 10.9441 23.8721C11.6267 23.8721 12.3094 23.8721 12.9921 23.8721C14.6361 23.9143 16.2575 23.8715 17.8561 23.7441Z"
            fill="#CD9349" />
        <path fill-rule="evenodd" clip-rule="evenodd"
            d="M17.9839 23.7441C18.2482 23.7463 18.5042 23.7889 18.7519 23.8721C18.7519 23.9148 18.7519 23.9575 18.7519 24.0001C18.5813 24.0001 18.4105 24.0001 18.2399 24.0001C18.1545 23.9148 18.0693 23.8295 17.9839 23.7441Z"
            fill="#544623" />
        <path fill-rule="evenodd" clip-rule="evenodd"
            d="M23.104 23.6162C23.1893 23.6162 23.232 23.6588 23.232 23.7442C21.7875 23.9974 20.2941 24.0828 18.752 24.0002C18.752 23.9576 18.752 23.9148 18.752 23.8722C20.2516 23.9546 21.7022 23.8694 23.104 23.6162Z"
            fill="#032031" />
        <path fill-rule="evenodd" clip-rule="evenodd"
            d="M23.2321 23.7441C23.3394 23.7879 23.3821 23.8732 23.3601 24.0001C23.0034 24.1252 22.6194 24.1678 22.2081 24.1281C21.8667 24.1281 21.5255 24.1281 21.1841 24.1281C20.6295 24.1281 20.0747 24.1281 19.5201 24.1281C18.9227 24.1281 18.3255 24.1281 17.7281 24.1281C17.1735 24.1281 16.6187 24.1281 16.0641 24.1281C15.5095 24.1281 14.9547 24.1281 14.4001 24.1281C13.7175 24.1281 13.0347 24.1281 12.3521 24.1281C11.9828 24.1673 11.6415 24.1247 11.3281 24.0001C13.6321 24.0001 15.9361 24.0001 18.2401 24.0001C18.4107 24.0001 18.5815 24.0001 18.7521 24.0001C20.2943 24.0827 21.7876 23.9973 23.2321 23.7441Z"
            fill="#2381C4" />
        <path fill-rule="evenodd" clip-rule="evenodd"
            d="M23.3601 24C24.9493 25.3151 26.4426 26.7444 27.8401 28.288C27.7329 28.4174 27.6903 28.5668 27.7121 28.736C26.6627 29.5699 25.4681 30.0819 24.1281 30.272C23.5307 30.272 22.9335 30.272 22.3361 30.272C22.999 30.1577 23.6816 30.0511 24.3841 29.952C24.4556 29.8592 24.4983 29.7526 24.5121 29.632C23.9663 28.1132 23.3477 26.6198 22.6561 25.152C22.4798 24.8635 22.2878 24.5862 22.0801 24.32C22.1512 24.271 22.1939 24.207 22.2081 24.128C22.6193 24.1677 23.0033 24.1251 23.3601 24Z"
            fill="#00A4FD" />
        <path fill-rule="evenodd" clip-rule="evenodd"
            d="M10.5598 24C10.8158 24 11.0718 24 11.3278 24C11.6411 24.1245 11.9825 24.1672 12.3518 24.128C12.366 24.207 12.4086 24.271 12.4798 24.32C12.2872 26.2076 12.1592 28.1062 12.0958 30.016C11.5628 30.0744 11.0508 30.1596 10.5598 30.272C9.83445 30.272 9.10913 30.272 8.38379 30.272C8.82841 30.1408 9.29775 30.0554 9.79179 30.016C9.80691 28.0269 10.1056 26.0856 10.6878 24.192C10.6166 24.143 10.574 24.079 10.5598 24Z"
            fill="#0079FE" />
        <path fill-rule="evenodd" clip-rule="evenodd"
            d="M12.3521 24.1279C13.0347 24.1279 13.7174 24.1279 14.4001 24.1279C14.4001 26.0906 14.4001 28.0533 14.4001 30.0159C13.9089 30.0711 13.4397 30.1565 12.9921 30.2719C12.1814 30.2719 11.3707 30.2719 10.5601 30.2719C11.051 30.1595 11.563 30.0743 12.0961 30.0159C12.1595 28.1062 12.2875 26.2075 12.4801 24.3199C12.4089 24.2709 12.3662 24.2069 12.3521 24.1279Z"
            fill="#0080FE" />
        <path fill-rule="evenodd" clip-rule="evenodd"
            d="M14.4002 24.1279C14.9548 24.1279 15.5096 24.1279 16.0642 24.1279C16.0227 26.0793 16.0653 28.0205 16.1922 29.9519C15.7043 30.0537 15.2349 30.1604 14.7842 30.2719C14.1868 30.2719 13.5896 30.2719 12.9922 30.2719C13.4398 30.1565 13.9091 30.0711 14.4002 30.0159C14.4002 28.0533 14.4002 26.0906 14.4002 24.1279Z"
            fill="#0086FE" />
        <path fill-rule="evenodd" clip-rule="evenodd"
            d="M16.0642 24.1279C16.6188 24.1279 17.1736 24.1279 17.7282 24.1279C17.7905 26.09 17.8331 28.0528 17.8562 30.0159C17.448 30.0618 17.064 30.1471 16.7042 30.2719C16.0642 30.2719 15.4242 30.2719 14.7842 30.2719C15.2349 30.1604 15.7042 30.0537 16.1922 29.9519C16.0653 28.0205 16.0227 26.0793 16.0642 24.1279Z"
            fill="#008CFE" />
        <path fill-rule="evenodd" clip-rule="evenodd"
            d="M17.7281 24.1279C18.3255 24.1279 18.9227 24.1279 19.5201 24.1279C19.5365 25.47 19.4939 26.814 19.3921 28.1599C19.4624 28.7655 19.5477 29.3627 19.6481 29.9519C18.6841 30.1763 17.7029 30.2831 16.7041 30.2719C17.0639 30.1471 17.4479 30.0618 17.8561 30.0159C17.8331 28.0528 17.7904 26.09 17.7281 24.1279Z"
            fill="#0092FE" />
        <path fill-rule="evenodd" clip-rule="evenodd"
            d="M19.5199 24.1279C20.0746 24.1279 20.6293 24.1279 21.1839 24.1279C21.1083 24.2113 21.023 24.2966 20.9279 24.3839C21.2324 26.058 21.5737 27.722 21.9519 29.3759C21.9093 29.5893 21.8666 29.8026 21.8239 30.0159C21.319 30.1142 20.807 30.1782 20.2879 30.2079C20.9693 30.2718 21.6519 30.2932 22.3359 30.2719C22.9333 30.2719 23.5306 30.2719 24.1279 30.2719C18.4959 30.4426 12.8639 30.4426 7.23193 30.2719C7.61593 30.2719 7.99993 30.2719 8.38393 30.2719C9.10927 30.2719 9.8346 30.2719 10.5599 30.2719C11.3706 30.2719 12.1813 30.2719 12.9919 30.2719C13.5893 30.2719 14.1866 30.2719 14.7839 30.2719C15.4239 30.2719 16.0639 30.2719 16.7039 30.2719C17.7027 30.2831 18.684 30.1763 19.6479 29.9519C19.5476 29.3627 19.4622 28.7655 19.3919 28.1599C19.4937 26.814 19.5363 25.47 19.5199 24.1279Z"
            fill="#008FF0" />
        <path fill-rule="evenodd" clip-rule="evenodd"
            d="M21.1841 24.1279C21.5255 24.1279 21.8667 24.1279 22.2081 24.1279C22.1939 24.2069 22.1513 24.2709 22.0801 24.3199C22.2878 24.5862 22.4798 24.8634 22.6561 25.1519C23.3477 26.6197 23.9663 28.1131 24.5121 29.6319C24.4983 29.7525 24.4556 29.8591 24.3841 29.9519C23.6816 30.051 22.999 30.1576 22.3361 30.2719C21.6521 30.2932 20.9694 30.2718 20.2881 30.2079C20.8071 30.1782 21.3191 30.1142 21.8241 30.0159C21.8667 29.8026 21.9095 29.5893 21.9521 29.3759C21.5738 27.722 21.2326 26.058 20.9281 24.3839C21.0232 24.2966 21.1084 24.2113 21.1841 24.1279Z"
            fill="#009FFE" />
        <path fill-rule="evenodd" clip-rule="evenodd"
            d="M6.08008 29.8877C6.50952 29.912 6.89352 30.04 7.23208 30.2717C6.79478 30.2681 6.41078 30.1401 6.08008 29.8877Z"
            fill="#004191" />
    </g>
    <defs>
        <clipPath id="clip0_5492_5117">
            <rect width="32" height="32" fill="white" />
        </clipPath>
    </defs>
</svg>