<svg width="32" height="32" viewBox="0 0 32 32" fill="none" xmlns="http://www.w3.org/2000/svg">
    <rect width="32" height="32" fill="black" />
    <path fill-rule="evenodd" clip-rule="evenodd"
        d="M13.0695 3.36608C15.6519 3.28049 18.2119 3.37008 20.7495 3.63487C23.4483 12.0233 26.0083 20.4455 28.4295 28.9015C26.2662 28.9904 24.1104 28.9009 21.9621 28.6327C21.4412 26.8498 20.9473 25.0579 20.48 23.2568C18.0548 22.8984 15.6295 22.8984 13.2042 23.2568C12.7715 25.1187 12.2772 26.9554 11.7221 28.7671C9.56068 28.9907 7.40489 28.9458 5.25476 28.6327C7.96971 20.2395 10.5747 11.8173 13.0695 3.36608ZM16.5727 9.01074C16.8653 9.043 17.045 9.2222 17.1116 9.54833C17.7265 12.4055 18.4452 15.2278 19.2674 18.0153C17.6506 18.1945 16.0337 18.1945 14.4169 18.0153C15.325 15.0633 16.0437 12.0618 16.5727 9.01074Z"
        fill="#51D351" />
</svg>