<svg width="32" height="32" viewBox="0 0 32 32" fill="none" xmlns="http://www.w3.org/2000/svg">
    <g clip-path="url(#clip0_5419_45)">
        <rect width="32" height="32" fill="#FAFAFA" />
        <path opacity="0.839" fill-rule="evenodd" clip-rule="evenodd"
            d="M21.7778 5.06671C22.0923 5.40916 22.4774 5.64621 22.9334 5.77782C23.3378 5.81735 23.5451 5.63958 23.5556 5.24448C26.765 3.75222 29.4022 4.40407 31.4667 7.20004C31.6169 7.57542 31.765 7.93097 31.9111 8.26671C31.9111 9.27412 31.9111 10.2815 31.9111 11.2889C31.6834 11.9111 31.387 12.5037 31.0222 13.0667C30.6075 13.126 30.3703 13.363 30.3111 13.7778C29.7995 14.1861 29.207 14.4231 28.5334 14.4889C28.6308 20.4215 26.0825 24.629 20.8889 27.1111C15.6016 28.856 10.9498 27.9672 6.93336 24.4445C4.22852 21.6848 3.01371 18.3663 3.28891 14.4889C2.61538 14.4231 2.02278 14.1861 1.51113 13.7778C1.4411 13.3849 1.20406 13.1479 0.800022 13.0667C0.399572 12.4562 0.103276 11.8043 -0.0888672 11.1111C-0.0888672 10.163 -0.0888672 9.21485 -0.0888672 8.26671C1.12051 5.37727 3.31311 4.16244 6.48891 4.62226C7.05561 4.912 7.64822 5.1194 8.26669 5.24448C8.27712 5.63958 8.48452 5.81735 8.88891 5.77782C9.34488 5.64621 9.73007 5.40916 10.0445 5.06671C13.9556 3.40745 17.8667 3.40745 21.7778 5.06671ZM23.5556 21.7778C23.3371 22.3954 22.9223 22.8102 22.3111 23.0223C22.3264 23.1993 22.267 23.3474 22.1334 23.4667C18.9568 25.5339 15.579 25.9487 12 24.7112C11.2054 24.3433 10.435 23.9286 9.68891 23.4667C9.55515 23.3474 9.49588 23.1993 9.51113 23.0223C8.89997 22.8102 8.48514 22.3954 8.26669 21.7778C8.08964 21.7931 7.9415 21.7337 7.82224 21.6C6.08525 19.021 5.43339 16.1765 5.86669 13.0667C5.80016 12.9038 5.71128 12.7557 5.60002 12.6223C3.68729 12.4696 2.56136 11.4622 2.22224 9.60004C2.88676 7.57919 4.24973 6.8088 6.31113 7.28893C6.89734 7.697 7.43067 8.17106 7.91113 8.71115C8.45408 8.85718 8.98742 8.82756 9.51113 8.62226C12.7671 6.29103 16.293 5.81695 20.0889 7.20004C20.861 7.65017 21.6016 8.12425 22.3111 8.62226C22.8349 8.82756 23.3682 8.85718 23.9111 8.71115C25.9997 6.37887 27.8663 6.52701 29.5111 9.15559C29.6128 10.6119 28.9906 11.6193 27.6445 12.1778C27.1744 12.3371 26.7005 12.4852 26.2222 12.6223C25.8142 13.6863 25.7549 14.7826 26.0445 15.9112C25.9038 18.0164 25.2224 19.9128 24 21.6C23.8807 21.7337 23.7326 21.7931 23.5556 21.7778Z"
            fill="black" />
        <path opacity="0.01" fill-rule="evenodd" clip-rule="evenodd"
            d="M10.0445 5.06645C9.92594 4.82941 9.92594 4.82941 10.0445 5.06645Z" fill="black" />
        <path opacity="0.01" fill-rule="evenodd" clip-rule="evenodd"
            d="M21.7778 4.88867C22.0148 5.0072 22.0148 5.0072 21.7778 4.88867Z" fill="black" />
        <path opacity="0.01" fill-rule="evenodd" clip-rule="evenodd"
            d="M8.2666 5.06689C8.50363 5.18542 8.50363 5.18542 8.2666 5.06689Z" fill="black" />
        <path opacity="0.01" fill-rule="evenodd" clip-rule="evenodd"
            d="M23.5555 5.24467C23.4369 5.00764 23.4369 5.00764 23.5555 5.24467Z" fill="black" />
        <path opacity="0.01" fill-rule="evenodd" clip-rule="evenodd"
            d="M0.800071 13.0669C0.681552 13.1854 0.681552 13.1854 0.800071 13.0669Z" fill="black" />
        <path opacity="0.813" fill-rule="evenodd" clip-rule="evenodd"
            d="M15.7334 13.0669C17.9005 13.1899 18.7597 14.3159 18.3112 16.4447C17.9357 17.1164 17.4912 17.7386 16.9778 18.3113C17.6862 19.7117 18.4861 19.8006 19.3778 18.578C19.7471 18.8582 20.0137 19.2137 20.1778 19.6447C18.7853 21.5213 17.3927 21.5213 16 19.6447C14.5904 21.5298 13.1978 21.5298 11.8223 19.6447C12.0457 19.2573 12.3123 18.9017 12.6223 18.578C12.9848 19.0001 13.3996 19.3556 13.8667 19.6447C14.3326 19.2982 14.6585 18.8537 14.8445 18.3113C14.4823 17.736 14.0971 17.173 13.6889 16.6225C13.0692 14.6684 13.7507 13.4833 15.7334 13.0669Z"
            fill="black" />
        <path opacity="0.01" fill-rule="evenodd" clip-rule="evenodd"
            d="M31.0222 13.0669C31.2592 13.1854 31.2592 13.1854 31.0222 13.0669Z" fill="black" />
        <path opacity="0.01" fill-rule="evenodd" clip-rule="evenodd"
            d="M1.51101 13.7778C1.39249 13.8964 1.39249 13.8964 1.51101 13.7778Z" fill="black" />
        <path opacity="0.01" fill-rule="evenodd" clip-rule="evenodd"
            d="M30.311 13.7778C30.548 13.8964 30.548 13.8964 30.311 13.7778Z" fill="black" />
        <path opacity="0.01" fill-rule="evenodd" clip-rule="evenodd"
            d="M4.88892 22.311C5.12595 22.4296 5.12595 22.4296 4.88892 22.311Z" fill="black" />
        <path opacity="0.01" fill-rule="evenodd" clip-rule="evenodd"
            d="M26.7556 22.311C26.9926 22.4296 26.9926 22.4296 26.7556 22.311Z" fill="black" />
    </g>
    <defs>
        <clipPath id="clip0_5419_45">
            <rect width="32" height="32" fill="white" />
        </clipPath>
    </defs>
</svg>