<svg width="32" height="32" viewBox="0 0 32 32" fill="none" xmlns="http://www.w3.org/2000/svg">
    <path opacity="0.922" fill-rule="evenodd" clip-rule="evenodd"
        d="M11.806 0.0917861C25.9736 -0.861795 32.6864 5.61481 31.9446 19.5215C27.0417 31.7554 18.486 34.9938 6.27776 29.2364C-0.664214 22.5081 -1.84884 14.8658 2.72388 6.30931C5.21131 3.34764 8.23871 1.27514 11.806 0.0917861Z"
        fill="#262626" />
    <path fill-rule="evenodd" clip-rule="evenodd"
        d="M13.3855 13.3046C12.4502 14.2278 12.4502 15.1345 13.3855 16.0247C12.0692 16.5429 10.753 16.5429 9.43677 16.0247C10.16 15.8084 10.6865 15.4198 11.0163 14.859C10.081 13.9357 10.081 13.0291 11.0163 12.1388C12.199 11.6844 12.9887 12.073 13.3855 13.3046Z"
        fill="#CFCFCF" />
    <path fill-rule="evenodd" clip-rule="evenodd"
        d="M22.8625 14.8588C20.3477 16.346 17.452 16.8642 14.1753 16.4132C14.1753 15.3769 14.1753 14.3406 14.1753 13.3044C16.3894 12.4201 18.7586 12.2905 21.283 12.9158C21.9784 13.4663 22.5049 14.1139 22.8625 14.8588Z"
        fill="#F7F7F7" />
    <path fill-rule="evenodd" clip-rule="evenodd"
        d="M13.3855 13.3037C13.6487 13.3037 13.912 13.3037 14.1752 13.3037C14.1752 14.3399 14.1752 15.3762 14.1752 16.4125C17.4519 16.8635 20.3477 16.3453 22.8625 14.8581C23.1257 14.8581 23.389 14.8581 23.6522 14.8581C23.6522 15.8943 23.6522 16.9306 23.6522 17.9669C18.6505 17.9669 13.6487 17.9669 8.64697 17.9669C8.64697 16.9306 8.64697 15.8943 8.64697 14.8581C9.43672 14.8581 10.2265 14.8581 11.0162 14.8581C10.6865 15.4189 10.16 15.8075 9.43672 16.0239C10.753 16.542 12.0692 16.542 13.3855 16.0239C12.4502 15.1336 12.4502 14.2269 13.3855 13.3037Z"
        fill="#818181" />
    <path fill-rule="evenodd" clip-rule="evenodd"
        d="M8.64688 14.8585C8.64688 15.8947 8.64688 16.931 8.64688 17.9672C13.6486 17.9672 18.6504 17.9672 23.6521 17.9672C23.6521 16.931 23.6521 15.8947 23.6521 14.8585C24.6509 15.6469 25.1774 16.8127 25.2316 18.3558C25.1774 19.8989 24.6509 21.0647 23.6521 21.8532C23.6521 20.8169 23.6521 19.7806 23.6521 18.7444C18.6504 18.7444 13.6486 18.7444 8.64688 18.7444C8.64688 19.7806 8.64688 20.8169 8.64688 21.8532C7.61342 20.2439 7.08697 18.3009 7.06738 16.0242C7.33061 14.0813 7.59391 12.1383 7.85713 10.1953C8.61972 11.6689 8.88294 13.2232 8.64688 14.8585Z"
        fill="#E8E8E8" />
    <path fill-rule="evenodd" clip-rule="evenodd"
        d="M23.6522 21.8529C22.9383 21.3019 22.6751 20.5247 22.8625 19.5213C18.3872 19.5213 13.912 19.5213 9.43672 19.5213C9.62413 20.5247 9.36091 21.3019 8.64697 21.8529C8.64697 20.8167 8.64697 19.7804 8.64697 18.7441C13.6487 18.7441 18.6505 18.7441 23.6522 18.7441C23.6522 19.7804 23.6522 20.8167 23.6522 21.8529Z"
        fill="#494949" />
</svg>