<svg width="32" height="32" viewBox="0 0 32 32" fill="none" xmlns="http://www.w3.org/2000/svg">
    <g clip-path="url(#clip0_5119_962)">
        <path opacity="0.996" fill-rule="evenodd" clip-rule="evenodd"
            d="M-0.5 -0.5C10.1667 -0.5 20.8333 -0.5 31.5 -0.5C31.5 1.83333 31.5 4.16667 31.5 6.5C30.8826 6.38929 30.3826 6.05596 30 5.5C25.3993 6.142 20.8993 6.80867 16.5 7.5C15.7321 6.73747 15.2321 5.73747 15 4.5C14.8019 6.38172 14.3019 8.04839 13.5 9.5C13.5 8.5 13.5 7.5 13.5 6.5C9.07519 6.95744 4.40852 7.29078 -0.5 7.5C-0.5 4.83333 -0.5 2.16667 -0.5 -0.5Z"
            fill="#1F1E1D" />
        <path fill-rule="evenodd" clip-rule="evenodd"
            d="M16.5 7.5C16.2965 9.39037 16.9632 10.8904 18.5 12C21.1209 12.9385 23.7875 13.7719 26.5 14.5C23.7875 15.2281 21.1209 16.0615 18.5 17C17.2097 19.8101 16.043 22.6435 15 25.5C14.6667 23.5 14.3333 21.5 14 19.5C11.2284 17.2389 8.06176 15.7389 4.5 15C6.71477 13.9562 9.0481 13.2895 11.5 13C12.8228 12.1841 13.4894 11.0174 13.5 9.5C14.3019 8.04839 14.8019 6.38172 15 4.5C15.2321 5.73747 15.7321 6.73747 16.5 7.5Z"
            fill="#E65F10" />
        <path opacity="0.992" fill-rule="evenodd" clip-rule="evenodd"
            d="M31.5 6.5C31.5 14.8333 31.5 23.1667 31.5 31.5C20.8333 31.5 10.1667 31.5 -0.5 31.5C-0.5 23.5 -0.5 15.5 -0.5 7.5C4.40852 7.29078 9.07519 6.95744 13.5 6.5C13.5 7.5 13.5 8.5 13.5 9.5C13.4894 11.0174 12.8228 12.1841 11.5 13C9.0481 13.2895 6.71477 13.9562 4.5 15C8.06176 15.7389 11.2284 17.2389 14 19.5C14.3333 21.5 14.6667 23.5 15 25.5C16.043 22.6435 17.2097 19.8101 18.5 17C21.1209 16.0615 23.7875 15.2281 26.5 14.5C23.7875 13.7719 21.1209 12.9385 18.5 12C16.9632 10.8904 16.2965 9.39037 16.5 7.5C20.8993 6.80867 25.3993 6.142 30 5.5C30.3826 6.05596 30.8826 6.38929 31.5 6.5Z"
            fill="#090706" />
    </g>
    <defs>
        <clipPath id="clip0_5119_962">
            <rect width="32" height="32" fill="white" />
        </clipPath>
    </defs>
</svg>