<svg width="32" height="32" viewBox="0 0 32 32" fill="none" xmlns="http://www.w3.org/2000/svg">
    <path
        d="M10.708 9.63583V2.21377C10.708 0.990283 11.917 0 13.4108 0H22.2453C27.6343 0 31.9999 3.57583 31.9999 7.98986V8.01014C31.9999 12.4241 27.6343 16 22.2453 16H18.4779C14.1865 16 10.708 13.1509 10.708 9.63583Z"
        fill="#911180" />
    <path
        d="M2.93383 16H2.70276C1.20902 16 0 15.0097 0 13.7862V2.21377C0 0.990283 1.20902 0 2.70276 0H8.00098C9.49472 0 10.7037 0.990283 10.7037 2.21377V9.63583C10.7037 13.1509 7.22523 16 2.93383 16Z"
        fill="#FBB040" />
    <path
        d="M10.708 22.3642V29.7862C10.708 31.0097 11.917 32 13.4108 32H22.2453C27.6343 32 31.9999 28.4241 31.9999 24.0102V23.9898C31.9999 19.5759 27.6343 16 22.2453 16H18.4779C14.1865 16 10.708 18.8491 10.708 22.3642Z"
        fill="#12B0B5" />
    <path
        d="M2.93383 16H2.70276C1.20902 16 0 16.9903 0 18.2138V29.7862C0 31.0097 1.20902 32 2.70276 32H8.00098C9.49472 32 10.7037 31.0097 10.7037 29.7862V22.3642C10.7037 18.8491 7.22523 16 2.93383 16Z"
        fill="#3C247F" />
</svg>