<svg width="32" height="32" viewBox="0 0 32 32" fill="none" xmlns="http://www.w3.org/2000/svg">
    <path
        d="M23.9952 14.8737C27.7949 14.8737 30.8751 11.7927 30.8751 7.99203C30.8751 4.19138 27.7949 1.11035 23.9952 1.11035C20.1955 1.11035 17.1152 4.19138 17.1152 7.99203C17.1152 11.7927 20.1955 14.8737 23.9952 14.8737Z"
        fill="#3390FF" />
    <path
        d="M31.8601 15.9657C31.6165 16.6285 31.3534 17.2816 31.061 17.8859C30.983 18.0321 30.9148 18.1881 30.8369 18.344L30.603 18.7827C30.5153 18.9289 30.4276 19.0751 30.3594 19.2116C30.2717 19.3578 30.184 19.4942 30.106 19.6307C29.7552 20.1863 29.3751 20.7127 28.9658 21.2C28.5566 21.6874 28.118 22.1455 27.6795 22.5744C26.7732 23.4225 25.7792 24.134 24.7365 24.7091C24.4637 24.8456 24.2103 24.9918 23.9374 25.099C23.6841 25.2355 23.4015 25.3329 23.1286 25.4402C22.5926 25.6449 22.0372 25.8301 21.4817 25.9665C19.523 26.4539 17.496 26.4734 15.6055 26.0737C16.6092 24.8748 17.2134 23.3347 17.2134 21.6484C17.2134 17.8469 14.134 14.7667 10.3335 14.7667C8.65736 14.7667 7.1274 15.3613 5.92877 16.3653C5.53897 14.4841 5.55846 12.4663 6.03597 10.5071L6.14316 10.088C6.18214 9.95151 6.23086 9.81505 6.26984 9.66884L6.32831 9.46414L6.40627 9.25945C6.455 9.12298 6.50372 8.98652 6.55245 8.85005C6.75709 8.31395 7.02021 7.78759 7.30281 7.26122C7.87776 6.228 8.58914 5.22401 9.43696 4.3175C9.86573 3.85937 10.3237 3.43049 10.811 3.03084C11.2982 2.62145 11.8245 2.25105 12.3799 1.8904C12.5164 1.80267 12.6625 1.70519 12.799 1.63696C12.9451 1.54924 13.0816 1.481 13.2277 1.39328L13.6663 1.15934C13.8124 1.07161 13.9684 1.01313 14.1243 0.935148C14.7382 0.642725 15.3716 0.379545 16.0343 0.135859C13.2375 -0.302775 10.1776 0.330808 7.53669 1.8904C6.21138 2.66044 5.01275 3.65468 3.96029 4.83412C3.43406 5.41896 2.95656 6.06229 2.52778 6.72512C2.10875 7.42693 1.70921 8.119 1.38762 8.8598C0.734711 10.3317 0.296188 11.9107 0.111034 13.5386C0.0233296 14.3476 -0.0253952 15.1664 0.0135846 15.9949V16.2971L0.0525645 16.5993C0.0623094 16.804 0.0817993 17.0184 0.101289 17.2133L0.188994 17.8274C0.218229 18.0321 0.266953 18.2368 0.296188 18.4415C0.354658 18.8509 0.471597 19.2506 0.569047 19.6599C0.695731 20.0498 0.793181 20.4592 0.939355 20.8491C1.06604 21.239 1.2317 21.6192 1.39737 22.0091C1.48507 22.204 1.57278 22.3892 1.65074 22.5744L1.78717 22.8571L1.93334 23.1398C2.31339 23.8708 2.78115 24.5726 3.2684 25.2452L3.64845 25.7326C3.78488 25.8885 3.92131 26.0543 4.05774 26.2102L4.26238 26.4442C4.34034 26.5221 4.40856 26.5904 4.46703 26.6781L4.89581 27.1362L5.35382 27.5651C5.43178 27.6431 5.49999 27.7113 5.5877 27.7698L5.82158 27.9745C5.9775 28.111 6.14316 28.2474 6.29908 28.3839C6.455 28.5106 6.63041 28.6373 6.78633 28.764C7.45873 29.2514 8.16037 29.7095 8.91073 30.0897L9.19333 30.2359L9.47594 30.3724C9.66109 30.4601 9.85599 30.5576 10.0411 30.6258L10.6161 30.8597C10.811 30.9475 11.0059 31.0059 11.2008 31.0644C11.5906 31.2106 11.9901 31.3179 12.3897 31.4348C12.5846 31.4836 12.799 31.5323 12.9939 31.581C13.1888 31.6298 13.4032 31.6688 13.6078 31.7078C13.8124 31.7467 14.0171 31.7955 14.2217 31.815L14.8357 31.9027C15.0403 31.9319 15.2449 31.9417 15.4496 31.9514L15.7517 31.9807H16.0538C16.8724 32.0294 17.7007 31.9807 18.5095 31.893C20.1272 31.7078 21.7253 31.2691 23.1773 30.616L23.7328 30.3626C23.918 30.2749 24.0836 30.1774 24.259 30.0799L24.5319 29.9337L24.7853 29.7778C24.9607 29.6803 25.1263 29.5828 25.3017 29.4756C25.9644 29.037 26.5978 28.5593 27.1923 28.0427C28.3617 26.99 29.3654 25.7716 30.1352 24.4654C31.6652 21.8531 32.3084 18.7924 31.8601 15.9852V15.9657Z"
        fill="#3390FF" />
</svg>