<svg width="32" height="32" viewBox="0 0 32 32" fill="none" xmlns="http://www.w3.org/2000/svg">
    <path fill-rule="evenodd" clip-rule="evenodd"
        d="M0 0C10.6666 0 21.3334 0 32 0C32 10.6666 32 21.3334 32 32C21.3334 32 10.6666 32 0 32C0 21.3334 0 10.6666 0 0Z"
        fill="#292257" />
    <path fill-rule="evenodd" clip-rule="evenodd"
        d="M13.5201 8.16016C17.1305 10.6458 20.7573 13.1125 24.4001 15.5602C24.6293 15.8756 24.6026 16.169 24.3201 16.4402C21.1542 18.5689 18.0076 20.7155 14.8801 22.8802C14.3765 23.1714 13.8965 23.4914 13.4401 23.8402C13.3604 22.6542 13.3337 21.4542 13.3601 20.2402C13.6393 20.0073 13.9325 19.7939 14.2401 19.6002C14.8704 19.1922 15.4837 18.7655 16.0801 18.3202C16.1067 18.3202 16.1334 18.3202 16.1601 18.3202C17.1647 17.6374 18.1647 16.9442 19.1601 16.2402C19.2641 16.091 19.2909 15.931 19.2401 15.7602C19.023 15.5826 18.7964 15.4226 18.5601 15.2802C16.8128 14.0999 15.0794 12.8999 13.3601 11.6802C13.3081 10.4771 13.3614 9.30377 13.5201 8.16016Z"
        fill="#FCFCFC" />
    <path fill-rule="evenodd" clip-rule="evenodd"
        d="M10.0802 10.7197C12.5527 12.3496 14.9927 14.0296 17.4002 15.7597C17.4673 15.9709 17.4273 16.1576 17.2802 16.3197C16.6678 16.72 16.0811 17.1466 15.5202 17.5997C14.1715 18.4205 12.8648 19.3005 11.6002 20.2397C11.0975 20.5419 10.6042 20.8619 10.1202 21.1997C10.0668 20.2664 10.0668 19.3331 10.1202 18.3997C11.2008 17.6728 12.2676 16.9261 13.3202 16.1597C13.3736 16.0264 13.3736 15.8931 13.3202 15.7597C13.0716 15.5625 12.8183 15.3759 12.5602 15.1997C12.5336 15.1997 12.5068 15.1997 12.4802 15.1997C11.6919 14.6513 10.9052 14.0913 10.1202 13.5197C10.0802 12.5868 10.0668 11.6534 10.0802 10.7197Z"
        fill="#FBFBFB" />
    <path fill-rule="evenodd" clip-rule="evenodd"
        d="M7.68002 13.1201C8.21474 13.4688 8.7481 13.8156 9.28002 14.1601C10.0237 14.6924 10.7703 15.2258 11.52 15.7601C11.5424 15.9819 11.4891 16.1819 11.36 16.3601C10.0958 17.1844 8.84242 18.0244 7.60002 18.8801C7.49335 18.2935 7.49335 17.7068 7.60002 17.1201C7.95954 16.847 8.33282 16.5936 8.72002 16.3601C8.99826 16.1436 9.0249 15.9036 8.80002 15.6401C8.39474 15.3584 7.99474 15.0784 7.60002 14.8001C7.57402 14.2252 7.60074 13.6652 7.68002 13.1201Z"
        fill="#F8F8F9" />
</svg>