<svg width="32" height="32" viewBox="0 0 32 32" fill="none" xmlns="http://www.w3.org/2000/svg">
    <g clip-path="url(#clip0_5153_199)">
        <path opacity="0.995" fill-rule="evenodd" clip-rule="evenodd"
            d="M1.61241 -0.111328C6.9871 -0.111328 12.3618 -0.111328 17.7364 -0.111328C17.7778 3.81529 17.7364 7.74123 17.6124 11.6664C16.0818 10.7398 14.4694 10.036 12.7752 9.55534C12.6512 9.66645 12.5271 9.77756 12.4031 9.88867C12.2377 13.1479 12.2377 16.4072 12.4031 19.6664C12.7667 20.072 13.2215 20.1831 13.7674 19.9998C15.0078 19.3702 16.2481 18.7405 17.4884 18.1109C17.7363 21.6634 17.819 25.2189 17.7364 28.7776C16.4109 28.7407 15.0879 28.7778 13.7674 28.8887C13.1423 30.3002 12.0673 31.3002 10.5426 31.8887C9.46772 31.8887 8.39276 31.8887 7.31784 31.8887C5.73039 31.2813 4.65544 30.2442 4.09303 28.7776C2.25388 28.9444 0.848196 28.352 -0.124023 26.9998C-0.124023 18.4813 -0.124023 9.96274 -0.124023 1.44423C0.372101 0.851634 0.950911 0.333116 1.61241 -0.111328Z"
            fill="#4285F4" />
        <path opacity="0.999" fill-rule="evenodd" clip-rule="evenodd"
            d="M17.7367 -0.111328C21.9537 -0.111328 26.1708 -0.111328 30.3878 -0.111328C30.9666 0.259043 31.4627 0.703487 31.8762 1.22201C31.8762 9.88867 31.8762 18.5553 31.8762 27.222C31.3525 28.0882 30.5255 28.5698 29.3956 28.6664C25.5102 28.7776 21.6238 28.8147 17.7367 28.7776C17.8192 25.2189 17.7365 21.6634 17.4886 18.1109C16.2483 18.7405 15.008 19.3702 13.7677 19.9998C13.2217 20.1831 12.767 20.072 12.4033 19.6664C12.238 16.4072 12.238 13.1479 12.4033 9.88867C12.5274 9.77756 12.6514 9.66645 12.7754 9.55534C14.4697 10.036 16.0821 10.7398 17.6126 11.6664C17.7366 7.74123 17.778 3.81529 17.7367 -0.111328Z"
            fill="#C7D0DB" />
    </g>
    <defs>
        <clipPath id="clip0_5153_199">
            <rect width="32" height="32" fill="white" />
        </clipPath>
    </defs>
</svg>