<svg width="32" height="32" viewBox="0 0 32 32" fill="none" xmlns="http://www.w3.org/2000/svg">
    <g clip-path="url(#clip0_5350_152)">
        <path fill-rule="evenodd" clip-rule="evenodd"
            d="M-0.0712891 -0.0712891C10.5954 -0.0712891 21.262 -0.0712891 31.9287 -0.0712891C31.9287 10.5954 31.9287 21.262 31.9287 31.9287C21.262 31.9287 10.5954 31.9287 -0.0712891 31.9287C-0.0712891 21.262 -0.0712891 10.5954 -0.0712891 -0.0712891Z"
            fill="#FEFEFE" />
        <path fill-rule="evenodd" clip-rule="evenodd"
            d="M18.1335 6.32879C18.1335 7.37175 18.1335 8.41472 18.1335 9.45768C18.0388 9.86419 17.9439 10.2909 17.849 10.7377C17.7465 10.4268 17.6518 10.1186 17.5646 9.81323C17.4296 9.72546 17.3112 9.74915 17.209 9.88435C17.1617 9.78953 17.1142 9.69472 17.0668 9.5999C16.9971 9.78382 16.9734 9.97346 16.9957 10.1688C16.1842 10.2156 15.3784 10.1681 14.5779 10.0266C14.7099 9.84626 14.7337 9.65663 14.649 9.45768C14.0501 10.4462 13.7894 10.3988 13.8668 9.31546C14.6337 8.04998 15.487 6.84109 16.4268 5.68879C16.8535 5.59397 17.2802 5.59397 17.7068 5.68879C17.9402 5.84936 18.0824 6.06269 18.1335 6.32879Z"
            fill="#6B30E2" />
        <path fill-rule="evenodd" clip-rule="evenodd"
            d="M13.8669 9.31543C13.7894 10.3988 14.0502 10.4462 14.6491 9.45765C14.7337 9.65661 14.71 9.84623 14.578 10.0265C15.3784 10.1681 16.1842 10.2155 16.9958 10.1688C16.9734 9.97344 16.9972 9.7838 17.0669 9.59987C17.1142 9.69469 17.1617 9.7895 17.2091 9.88432C17.3112 9.74912 17.4297 9.72543 17.5646 9.81321C17.6518 10.1186 17.7465 10.4268 17.8491 10.7377C17.944 10.2908 18.0388 9.86417 18.1335 9.45765C18.1335 10.4532 18.1335 11.4488 18.1335 12.4443C19.7453 12.4443 21.3573 12.4443 22.9691 12.4443C23.5636 12.5169 23.848 12.8488 23.8224 13.4399C23.6438 13.3824 23.4778 13.2876 23.3246 13.1554C22.8205 13.3689 22.7494 13.2978 23.1113 12.9421C19.5568 12.8117 16.0012 12.7406 12.4446 12.7288C12.3537 12.5301 12.3537 12.056 12.4446 11.3065C12.9205 10.6375 13.3945 9.97378 13.8669 9.31543Z"
            fill="#5C26C4" />
        <path fill-rule="evenodd" clip-rule="evenodd"
            d="M18.1333 6.3291C18.275 8.2951 18.3223 10.2862 18.2755 12.3024C19.8654 12.2558 21.4299 12.3032 22.9689 12.4447C21.3571 12.4447 19.7451 12.4447 18.1333 12.4447C18.1333 11.4491 18.1333 10.4535 18.1333 9.45799C18.1333 8.41503 18.1333 7.37206 18.1333 6.3291Z"
            fill="#B3A6DC" />
        <path fill-rule="evenodd" clip-rule="evenodd"
            d="M12.4443 11.3066C12.3534 12.0561 12.3534 12.5302 12.4443 12.7289C16.0009 12.7407 19.5564 12.8118 23.111 12.9422C22.749 13.2979 22.8201 13.369 23.3243 13.1555C23.4775 13.2877 23.6435 13.3825 23.8221 13.44C23.8564 13.7811 23.7615 14.0655 23.5377 14.2933C23.2726 14.083 23.083 13.7986 22.9688 13.44C22.8904 13.7121 22.8667 13.9965 22.8977 14.2933C18.9959 14.1991 15.0848 14.1043 11.1643 14.0089C11.0062 13.9 10.9114 13.7578 10.8799 13.5822C11.4032 12.8184 11.9247 12.0599 12.4443 11.3066Z"
            fill="#5423B4" />
        <path fill-rule="evenodd" clip-rule="evenodd"
            d="M23.5379 14.2933C23.4765 14.4654 23.3816 14.6076 23.2535 14.7199C22.8281 14.5469 22.591 14.7128 22.5424 15.2177C19.9354 15.2888 17.3279 15.3126 14.7201 15.2888C14.7201 15.4311 14.7201 15.5733 14.7201 15.7155C14.3408 15.7155 13.9616 15.7155 13.5824 15.7155C13.5824 15.5733 13.5824 15.4311 13.5824 15.2888C12.4446 15.2888 11.3068 15.2888 10.169 15.2888C9.92059 15.7311 9.73097 16.2052 9.60014 16.7111C9.38996 16.7483 9.20032 16.701 9.03125 16.5688C9.27665 16.3231 9.46629 16.0386 9.60014 15.7155C9.58256 15.6292 9.53516 15.5818 9.45792 15.5733C9.93374 14.9043 10.4078 14.2405 10.8801 13.5822C10.9116 13.7578 11.0064 13.9 11.1646 14.0088C15.0851 14.1042 18.9962 14.199 22.8979 14.2933C22.8669 13.9965 22.8907 13.712 22.969 13.4399C23.0832 13.7986 23.2728 14.083 23.5379 14.2933Z"
            fill="#4E1EA7" />
        <path fill-rule="evenodd" clip-rule="evenodd"
            d="M23.2534 14.7201C22.6265 15.736 21.9628 16.7315 21.2623 17.7067C21.1201 17.7067 20.9779 17.7067 20.8357 17.7067C20.8385 17.4731 20.7436 17.2835 20.5512 17.1379C16.9491 17.0194 13.3462 16.9483 9.74232 16.9245C9.66324 16.8701 9.61584 16.7989 9.6001 16.7112C9.73093 16.2053 9.92055 15.7313 10.169 15.289C11.3068 15.289 12.4445 15.289 13.5823 15.289C13.5823 15.4312 13.5823 15.5734 13.5823 15.7156C13.9616 15.7156 14.3408 15.7156 14.7201 15.7156C14.7201 15.5734 14.7201 15.4312 14.7201 15.289C17.3279 15.3127 19.9354 15.289 22.5423 15.2179C22.591 14.713 22.828 14.547 23.2534 14.7201Z"
            fill="#471C9B" />
        <path fill-rule="evenodd" clip-rule="evenodd"
            d="M9.45785 15.5732C9.53509 15.5818 9.5825 15.6291 9.60007 15.7155C9.46623 16.0386 9.27659 16.323 9.03119 16.5688C9.20026 16.7009 9.3899 16.7483 9.60007 16.711C9.61582 16.7988 9.66322 16.8699 9.7423 16.9244C13.3462 16.9481 16.9491 17.0192 20.5512 17.1377C20.7436 17.2833 20.8385 17.4729 20.8356 17.7066C20.55 17.8205 20.4789 18.0101 20.6223 18.2755C20.5749 18.3228 20.5274 18.3703 20.4801 18.4177C20.4363 18.3028 20.3652 18.2079 20.2667 18.1332C20.1557 18.308 20.0846 18.4976 20.0534 18.7021C19.886 18.4638 19.6727 18.2742 19.4134 18.1332C15.9244 18.0998 12.4399 18.1947 8.96007 18.4177C8.82065 18.2071 8.65472 18.0173 8.4623 17.8488C8.21851 18.0065 8.12369 17.9117 8.17785 17.5644C8.53207 16.8564 8.95874 16.1926 9.45785 15.5732Z"
            fill="#40178E" />
        <path fill-rule="evenodd" clip-rule="evenodd"
            d="M8.17793 17.5645C8.12377 17.9118 8.21859 18.0066 8.46238 17.8489C8.6548 18.0174 8.82073 18.2072 8.96016 18.4178C12.44 18.1948 15.9245 18.0999 19.4135 18.1333C19.6728 18.2743 19.8861 18.4639 20.0535 18.7022C20.0846 18.4977 20.1557 18.3081 20.2668 18.1333C20.3652 18.208 20.4364 18.3029 20.4802 18.4178C20.5275 18.3704 20.575 18.3229 20.6224 18.2756C20.479 18.0102 20.5501 17.8206 20.8357 17.7067C20.9779 17.7067 21.1202 17.7067 21.2624 17.7067C20.5544 18.7928 19.7958 19.8357 18.9868 20.8356C18.8204 20.5826 18.5835 20.4403 18.2757 20.4089C18.2999 20.5969 18.2525 20.7629 18.1335 20.9067C16.9492 20.9778 15.7641 21.0014 14.5779 20.9778C14.601 20.6895 14.5772 20.4051 14.5068 20.1245C14.4595 20.5038 14.412 20.8829 14.3646 21.2622C14.3258 20.5897 14.2311 19.9259 14.0802 19.2711C14.0975 20.0903 13.979 20.8488 13.7246 21.5467C13.7246 20.7882 13.7246 20.0296 13.7246 19.2711C12.0173 19.2949 10.3106 19.2711 8.6046 19.2C8.05558 18.8376 7.84225 18.3398 7.9646 17.7067C8.01901 17.6276 8.09012 17.5802 8.17793 17.5645Z"
            fill="#3A157F" />
        <path fill-rule="evenodd" clip-rule="evenodd"
            d="M18.9868 20.8354C18.4384 21.7444 17.8222 22.5977 17.1379 23.3954C16.7268 23.267 16.3001 23.2197 15.8579 23.2532C15.931 23.5394 15.9547 23.8238 15.9291 24.1066C15.5798 23.8476 15.1768 23.7527 14.7202 23.8221C14.7414 23.9717 14.7177 24.1139 14.6491 24.2488C14.6148 23.8521 14.5199 23.4728 14.3646 23.111C14.344 23.7497 14.2254 24.366 14.0091 24.9599C13.9142 24.1798 13.8194 23.4212 13.7246 22.6843C13.7246 22.305 13.7246 21.9259 13.7246 21.5466C13.979 20.8487 14.0976 20.0902 14.0802 19.271C14.2311 19.9258 14.3258 20.5895 14.3646 21.2621C14.412 20.8828 14.4595 20.5036 14.5068 20.1243C14.5772 20.4049 14.601 20.6894 14.5779 20.9777C15.7641 21.0013 16.9492 20.9777 18.1335 20.9066C18.2525 20.7628 18.2999 20.5968 18.2757 20.4088C18.5835 20.4402 18.8204 20.5824 18.9868 20.8354Z"
            fill="#2A0A62" />
        <path fill-rule="evenodd" clip-rule="evenodd"
            d="M13.7247 22.6846C13.8195 23.4214 13.9143 24.18 14.0091 24.9601C14.2254 24.3662 14.3441 23.75 14.3647 23.1112C14.52 23.4731 14.6148 23.8524 14.6491 24.249C14.7178 24.1142 14.7414 23.972 14.7202 23.8223C15.1769 23.7529 15.5798 23.8478 15.9291 24.1068C15.9547 23.8241 15.9311 23.5396 15.858 23.2535C16.3002 23.2199 16.7268 23.2673 17.138 23.3957C16.6119 24.3267 15.9955 25.2036 15.2891 26.0268C14.6636 26.2228 14.1658 26.0569 13.7958 25.529C13.7247 24.5821 13.701 23.6339 13.7247 22.6846Z"
            fill="#20084F" />
    </g>
    <defs>
        <clipPath id="clip0_5350_152">
            <rect width="32" height="32" fill="white" />
        </clipPath>
    </defs>
</svg>