<svg width="32" height="32" viewBox="0 0 32 32" fill="none" xmlns="http://www.w3.org/2000/svg">
    <g clip-path="url(#clip0_5077_45)">
        <path fill-rule="evenodd" clip-rule="evenodd"
            d="M-0.0712891 -0.0712891C10.5954 -0.0712891 21.262 -0.0712891 31.9287 -0.0712891C31.9287 10.5954 31.9287 21.262 31.9287 31.9287C21.262 31.9287 10.5954 31.9287 -0.0712891 31.9287C-0.0712891 21.262 -0.0712891 10.5954 -0.0712891 -0.0712891Z"
            fill="#FEFEFE" />
        <path fill-rule="evenodd" clip-rule="evenodd"
            d="M10.1689 5.61768C13.6296 5.61768 17.0904 5.61768 20.5511 5.61768C20.5511 5.7125 20.5511 5.8073 20.5511 5.90212C16.9482 5.90212 13.3451 5.90212 9.74219 5.90212C9.88441 5.8073 10.0266 5.7125 10.1689 5.61768Z"
            fill="#CA8954" />
        <path fill-rule="evenodd" clip-rule="evenodd"
            d="M20.9775 6.04443C20.9961 6.16908 20.9487 6.2639 20.8353 6.32888C20.7 6.21146 20.5578 6.18777 20.4086 6.25777C20.5982 6.39999 20.7879 6.54221 20.9775 6.68443C17.3498 6.74988 13.6994 6.77358 10.0264 6.75554C10.0264 6.5185 10.0264 6.28148 10.0264 6.04443C13.6767 6.04443 17.3271 6.04443 20.9775 6.04443Z"
            fill="#2C72BB" />
        <path fill-rule="evenodd" clip-rule="evenodd"
            d="M9.74219 5.90213C13.3451 5.90213 16.9482 5.90213 20.5511 5.90213C20.7347 5.86838 20.8769 5.91578 20.9777 6.04435C17.3273 6.04435 13.677 6.04435 10.0266 6.04435C10.0266 6.28139 10.0266 6.51842 10.0266 6.75546C10.0266 9.03102 10.0266 11.3066 10.0266 13.5821C10.0266 14.3406 10.0266 15.0992 10.0266 15.8577C9.97923 15.8577 9.93182 15.8577 9.88441 15.8577C9.74255 12.5637 9.69513 9.2452 9.74219 5.90213Z"
            fill="#51698F" />
        <path fill-rule="evenodd" clip-rule="evenodd"
            d="M20.9775 6.04443C21.5711 6.40228 21.9504 6.92377 22.1153 7.60888C22.1153 8.88888 22.1153 10.1689 22.1153 11.4489C21.78 11.4257 21.4482 11.4494 21.1197 11.52C21.0127 11.6154 20.9652 11.7339 20.9775 11.8755C20.5997 12.1467 20.1731 12.2178 19.6975 12.0889C19.198 11.8698 18.724 11.609 18.2753 11.3067C18.0929 11.5141 18.0929 11.7037 18.2753 11.8755C18.2364 12.153 18.3311 12.3664 18.5597 12.5155C18.4151 12.6648 18.3913 12.8307 18.4886 13.0133C18.7696 13.1617 18.8407 13.3513 18.7019 13.5822C18.4429 13.4076 18.3007 13.1706 18.2753 12.8711C17.8486 13.0607 17.4219 13.0607 16.9953 12.8711C17.0189 11.4955 16.9953 10.1207 16.9241 8.74666C16.6168 8.23123 16.1664 8.06531 15.573 8.24888C15.494 8.30329 15.4466 8.3744 15.4308 8.46221C15.2893 10.1435 15.2419 11.8502 15.2886 13.5822C15.2412 13.5822 15.1937 13.5822 15.1464 13.5822C15.099 13.5822 15.0515 13.5822 15.0041 13.5822C14.9568 7.51406 14.9093 7.51406 14.8619 13.5822C14.056 13.5822 13.2501 13.5822 12.4441 13.5822C12.4441 13.44 12.4441 13.2978 12.4441 13.1555C12.0649 13.1555 11.6856 13.1555 11.3064 13.1555C11.3064 13.2978 11.3064 13.44 11.3064 13.5822C10.8797 13.5822 10.453 13.5822 10.0264 13.5822C10.0264 11.3067 10.0264 9.0311 10.0264 6.75554C13.6994 6.77358 17.3498 6.74988 20.9775 6.68443C20.7879 6.54221 20.5982 6.39999 20.4086 6.25777C20.5578 6.18777 20.7 6.21146 20.8353 6.32888C20.9487 6.2639 20.9961 6.16908 20.9775 6.04443Z"
            fill="#2F72B6" />
        <path fill-rule="evenodd" clip-rule="evenodd"
            d="M16.9951 12.8713C16.9951 13.8668 16.9951 14.8624 16.9951 15.858C16.9951 16.8535 16.9951 17.8491 16.9951 18.8446C16.6492 19.298 16.2699 19.7247 15.8574 20.1246C15.8818 20.2657 15.8343 20.3604 15.7151 20.4091C15.6678 20.4091 15.6203 20.4091 15.5729 20.4091C15.431 16.4513 15.3836 12.469 15.4307 8.4624C15.4465 8.3746 15.4938 8.30349 15.5729 8.24907C16.1663 8.0655 16.6167 8.23142 16.924 8.74685C16.9951 10.1208 17.0187 11.4957 16.9951 12.8713Z"
            fill="#D58646" />
        <path fill-rule="evenodd" clip-rule="evenodd"
            d="M15.8574 19.8401C15.6686 16.1088 15.6686 12.3636 15.8574 8.60457C16.2539 8.41198 16.5146 8.55421 16.6396 9.03123C16.7345 12.2549 16.7345 15.4786 16.6396 18.7023C16.4581 19.1431 16.1973 19.5224 15.8574 19.8401Z"
            fill="#FBF7EE" />
        <path fill-rule="evenodd" clip-rule="evenodd"
            d="M22.1152 7.60889C22.2566 8.91046 22.304 10.2379 22.2575 11.5911C22.1152 11.5911 21.973 11.5911 21.8308 11.5911C21.4954 11.5559 21.211 11.6507 20.9775 11.8756C20.9652 11.7339 21.0127 11.6154 21.1197 11.52C21.4482 11.4494 21.78 11.4257 22.1152 11.4489C22.1152 10.1689 22.1152 8.88889 22.1152 7.60889Z"
            fill="#A07B59" />
        <path fill-rule="evenodd" clip-rule="evenodd"
            d="M15.8577 8.60449C15.669 12.3636 15.669 16.1087 15.8577 19.84C15.8577 19.9349 15.8577 20.0296 15.8577 20.1245C15.6681 18.2543 15.5734 16.3343 15.5732 14.3645C15.5734 12.3947 15.6681 10.4747 15.8577 8.60449Z"
            fill="#F7E8BC" />
        <path fill-rule="evenodd" clip-rule="evenodd"
            d="M20.9776 11.8755C20.9776 12.0178 20.9776 12.16 20.9776 12.3022C20.5012 12.2787 20.0272 12.3024 19.5554 12.3733C19.8089 12.6848 20.0933 12.8033 20.4088 12.7289C20.1717 12.9185 19.9347 13.1081 19.6976 13.2978C20.0532 13.4199 20.385 13.5621 20.6932 13.7244C20.3526 13.8472 20.0206 13.8472 19.6976 13.7244C19.324 13.0214 18.8499 12.4051 18.2754 11.8755C18.0931 11.7037 18.0931 11.5141 18.2754 11.3066C18.7241 11.609 19.1982 11.8698 19.6976 12.0889C20.1732 12.2178 20.5999 12.1467 20.9776 11.8755Z"
            fill="#EF822A" />
        <path fill-rule="evenodd" clip-rule="evenodd"
            d="M15.0041 13.5824C15.0505 14.7463 15.003 15.8841 14.8619 16.9957C14.9364 16.0253 14.8891 15.4564 14.7197 15.289C13.2027 15.289 11.6856 15.289 10.1686 15.289C10.2067 15.5164 10.1593 15.706 10.0264 15.8579C10.0264 15.0994 10.0264 14.3408 10.0264 13.5824C10.453 13.5824 10.8797 13.5824 11.3064 13.5824C11.3064 13.4401 11.3064 13.2979 11.3064 13.1557C11.6856 13.1557 12.0649 13.1557 12.4441 13.1557C12.4441 13.2979 12.4441 13.4401 12.4441 13.5824C13.2501 13.5824 14.056 13.5824 14.8619 13.5824C14.9093 7.51421 14.9568 7.51421 15.0041 13.5824Z"
            fill="#2763A1" />
        <path fill-rule="evenodd" clip-rule="evenodd"
            d="M18.2751 11.8755C18.8496 12.405 19.3237 13.0213 19.6973 13.7244C20.0203 13.8472 20.3523 13.8472 20.6929 13.7244C20.93 13.8666 21.1196 14.0562 21.2618 14.2933C21.4901 15.1654 21.4425 16.0187 21.1196 16.8533C20.9505 16.9854 20.7609 17.0328 20.5507 16.9955C20.5507 16.8059 20.5507 16.6162 20.5507 16.4266C19.6606 16.3825 18.7837 16.43 17.9196 16.5688C17.664 16.1996 17.4743 16.247 17.3507 16.711C17.2305 16.4108 17.112 16.1264 16.9951 15.8577C16.9951 14.8622 16.9951 13.8666 16.9951 12.871C17.4218 13.0607 17.8485 13.0607 18.2751 12.871C18.3006 13.1705 18.4428 13.4075 18.7018 13.5822C18.8406 13.3513 18.7695 13.1616 18.4885 13.0133C18.3912 12.8307 18.4149 12.6648 18.5596 12.5155C18.331 12.3663 18.2363 12.153 18.2751 11.8755Z"
            fill="#2B609D" />
        <path fill-rule="evenodd" clip-rule="evenodd"
            d="M14.8619 16.9957C14.1849 17.1347 13.4975 17.1347 12.7997 16.9957C12.3863 16.9859 12.0544 17.1281 11.8041 17.4224C11.6058 17.2354 11.4636 17.2829 11.3775 17.5646C11.3078 17.3807 11.2841 17.191 11.3064 16.9957C10.8797 16.9957 10.453 16.9957 10.0264 16.9957C10.0264 16.6164 10.0264 16.2373 10.0264 15.858C10.1593 15.7061 10.2067 15.5165 10.1686 15.2891C11.6856 15.2891 13.2027 15.2891 14.7197 15.2891C14.8891 15.4565 14.9364 16.0253 14.8619 16.9957Z"
            fill="#255692" />
        <path fill-rule="evenodd" clip-rule="evenodd"
            d="M21.5469 14.7202C21.7589 15.1022 21.8536 15.5289 21.8313 16.0002C21.8076 16.2847 21.784 16.5691 21.7602 16.8535C21.7057 16.9326 21.6346 16.98 21.5469 16.9958C21.5469 16.2373 21.5469 15.4787 21.5469 14.7202Z"
            fill="#D67F37" />
        <path fill-rule="evenodd" clip-rule="evenodd"
            d="M15.1468 13.582C15.1941 13.582 15.2416 13.582 15.289 13.582C15.2416 15.9069 15.2891 18.2299 15.4312 20.5509C15.5175 20.5333 15.5649 20.4859 15.5734 20.4087C15.6208 20.4087 15.6683 20.4087 15.7157 20.4087C15.6784 20.7022 15.5124 20.8918 15.2179 20.9776C15.1519 20.8931 15.1281 20.7982 15.1468 20.6931C15.1468 18.3227 15.1468 15.9524 15.1468 13.582Z"
            fill="#37475D" />
        <path fill-rule="evenodd" clip-rule="evenodd"
            d="M20.5508 5.61768C21.6008 5.79073 22.1934 6.40702 22.3286 7.46656C22.4234 12.0651 22.4234 16.6636 22.3286 21.2621C22.289 21.3924 22.2179 21.4871 22.1152 21.5466C22.2054 19.9629 22.2528 18.3747 22.2574 16.7821C22.2526 15.248 22.1578 13.7309 21.973 12.231C22.1886 11.9519 22.1413 11.7386 21.8308 11.591C21.973 11.591 22.1152 11.591 22.2574 11.591C22.304 10.2378 22.2566 8.91036 22.1152 7.60879C21.9504 6.92367 21.5711 6.40219 20.9774 6.04434C20.8766 5.91577 20.7344 5.86837 20.5508 5.90212C20.5508 5.8073 20.5508 5.7125 20.5508 5.61768Z"
            fill="#E28232" />
        <path fill-rule="evenodd" clip-rule="evenodd"
            d="M15.0042 13.582C15.0516 13.582 15.0991 13.582 15.1464 13.582C15.1464 15.9524 15.1464 18.3227 15.1464 20.6931C14.9051 20.4364 14.7866 20.1045 14.7909 19.6976C14.7212 19.8815 14.6974 20.0712 14.7197 20.2665C14.2905 20.2899 13.8638 20.2662 13.4397 20.1954C13.3449 20.1005 13.2501 20.0058 13.1553 19.9109C13.7283 19.1977 13.5861 19.0791 12.7286 19.5554C12.5864 19.4605 12.4442 19.3658 12.302 19.2709C12.2072 18.9865 12.1123 18.702 12.0175 18.4176C11.9701 17.9909 11.7331 17.7538 11.3064 17.7065C11.2952 17.9099 11.3426 18.0996 11.4486 18.2754C11.022 18.3702 10.5953 18.4649 10.1686 18.5598C10.5365 18.6992 10.9157 18.7465 11.3064 18.702C11.3064 18.9391 11.3064 19.1761 11.3064 19.4131C10.8872 19.4525 10.4842 19.4052 10.0975 19.2709C10.0265 18.5139 10.0028 17.7554 10.0264 16.9954C10.4531 16.9954 10.8797 16.9954 11.3064 16.9954C11.2841 17.1906 11.3078 17.3804 11.3775 17.5643C11.4636 17.2825 11.6058 17.235 11.8042 17.422C12.0545 17.1278 12.3863 16.9856 12.7997 16.9954C13.4976 17.1343 14.185 17.1343 14.862 16.9954C15.0031 15.8838 15.0506 14.746 15.0042 13.582Z"
            fill="#214A81" />
        <path fill-rule="evenodd" clip-rule="evenodd"
            d="M21.2618 14.2935C21.4617 14.3607 21.5566 14.503 21.5462 14.7201C21.5462 15.4786 21.5462 16.2372 21.5462 16.9957C21.3417 17.8149 20.8914 18.4786 20.1951 18.9868C20.1249 19.2192 20.1013 19.4563 20.124 19.6979C19.5147 19.7023 18.9458 19.5601 18.4173 19.2712C18.3225 19.1764 18.2278 19.0817 18.1329 18.9868C17.9847 18.8032 17.8189 18.8032 17.6351 18.9868C17.6933 19.2321 17.6695 19.4692 17.564 19.6979C17.4192 19.3672 17.2296 19.0828 16.9951 18.8446C16.9951 17.849 16.9951 16.8535 16.9951 15.8579C17.112 16.1266 17.2305 16.411 17.3507 16.7112C17.4743 16.2472 17.664 16.1998 17.9196 16.569C18.7837 16.4302 19.6606 16.3827 20.5507 16.4268C20.5507 16.6164 20.5507 16.8061 20.5507 16.9957C20.7609 17.0329 20.9505 16.9856 21.1196 16.8535C21.4425 16.0189 21.4901 15.1656 21.2618 14.2935Z"
            fill="#264A7F" />
        <path fill-rule="evenodd" clip-rule="evenodd"
            d="M15.4314 8.4624C15.3844 12.469 15.4317 16.4513 15.5737 20.4091C15.5651 20.4863 15.5178 20.5337 15.4314 20.5513C15.2894 18.2302 15.2419 15.9073 15.2892 13.5824C15.2426 11.8504 15.2899 10.1437 15.4314 8.4624Z"
            fill="#C27F4D" />
        <path fill-rule="evenodd" clip-rule="evenodd"
            d="M18.1331 18.9869C18.2279 19.0817 18.3227 19.1764 18.4175 19.2713C18.2279 19.2713 18.1331 19.3662 18.1331 19.5557C18.0064 19.4475 17.9115 19.3053 17.8486 19.1291C17.9136 19.0156 18.0085 18.9682 18.1331 18.9869Z"
            fill="#C5884E" />
        <path fill-rule="evenodd" clip-rule="evenodd"
            d="M21.8311 11.5911C22.1415 11.7387 22.1889 11.952 21.9733 12.2311C22.158 13.731 22.2529 15.2481 22.2577 16.7822C22.253 18.3748 22.2057 19.963 22.1155 21.5467C21.6962 22.1267 21.1273 22.4585 20.4088 22.5422C21.0055 23.716 21.6218 24.9011 22.2577 26.0978C20.7955 26.3788 19.2784 26.4737 17.7066 26.3822C17.7811 25.8404 17.544 25.5559 16.9955 25.5289C16.9513 25.3898 16.8564 25.295 16.7111 25.2445C16.6741 25.4443 16.6267 25.6339 16.5688 25.8134C16.4249 25.6182 16.2827 25.4286 16.1422 25.2445C15.9517 24.907 15.7621 24.575 15.5733 24.2489C15.4976 23.8279 15.4027 23.7806 15.2888 24.1067C15.194 24.1067 15.0992 24.1067 15.0044 24.1067C13.6634 22.8954 12.7153 21.4258 12.1599 19.6978C12.1262 19.5142 12.1736 19.372 12.3022 19.2711C12.4444 19.366 12.5866 19.4607 12.7288 19.5556C12.7102 19.6607 12.7339 19.7555 12.7999 19.84C13.6254 20.8093 14.6447 21.473 15.8577 21.8311C16.7243 22.1247 17.4827 21.9825 18.1333 21.4045C18.221 21.3887 18.2921 21.3413 18.3466 21.2622C18.4415 20.7882 18.4415 20.314 18.3466 19.84C18.2921 19.7609 18.221 19.7136 18.1333 19.6978C18.1333 19.6504 18.1333 19.6029 18.1333 19.5556C18.1333 19.366 18.2281 19.2711 18.4177 19.2711C18.9462 19.56 19.5151 19.7022 20.1244 19.6978C20.1016 19.4562 20.1252 19.2191 20.1955 18.9867C20.8918 18.4785 21.3421 17.8148 21.5466 16.9956C21.6344 16.9798 21.7055 16.9324 21.7599 16.8534C21.7837 16.5689 21.8073 16.2845 21.8311 16C21.8534 15.5287 21.7587 15.102 21.5466 14.72C21.557 14.5028 21.4621 14.3606 21.2622 14.2934C21.1199 14.0563 20.9304 13.8667 20.6933 13.7245C20.3851 13.5622 20.0533 13.42 19.6977 13.2978C19.9348 13.1082 20.1717 12.9185 20.4088 12.7289C20.0934 12.8033 19.8089 12.6848 19.5555 12.3734C20.0272 12.3025 20.5013 12.2788 20.9777 12.3022C20.9777 12.16 20.9777 12.0178 20.9777 11.8756C21.2112 11.6508 21.4957 11.5559 21.8311 11.5911Z"
            fill="#FB7F1D" />
        <path fill-rule="evenodd" clip-rule="evenodd"
            d="M12.0179 18.4177C12.1127 18.7022 12.2075 18.9866 12.3024 19.2711C12.1738 19.3719 12.1264 19.5141 12.1601 19.6977C11.8147 19.2155 11.6724 18.6941 11.7335 18.1333C11.8304 18.239 11.9253 18.3337 12.0179 18.4177Z"
            fill="#C68346" />
        <path fill-rule="evenodd" clip-rule="evenodd"
            d="M18.1338 19.6978C18.2215 19.7135 18.2927 19.7609 18.3471 19.84C18.442 20.314 18.442 20.7882 18.3471 21.2622C18.2927 21.3413 18.2215 21.3886 18.1338 21.4044C18.3234 20.8355 18.3234 20.2666 18.1338 19.6978Z"
            fill="#A56942" />
        <path fill-rule="evenodd" clip-rule="evenodd"
            d="M16.9955 18.8442C17.23 19.0825 17.4196 19.3669 17.5644 19.6976C17.6699 19.4689 17.6936 19.2318 17.6355 18.9865C17.8192 18.8029 17.9851 18.8029 18.1332 18.9865C18.0087 18.9678 17.9138 19.0152 17.8488 19.1287C17.9117 19.3049 18.0065 19.4471 18.1332 19.5553C18.1332 19.6027 18.1332 19.6502 18.1332 19.6976C18.3228 20.2665 18.3228 20.8353 18.1332 21.4042C17.4827 21.9822 16.7243 22.1245 15.8577 21.8309C14.6447 21.4728 13.6254 20.809 12.7999 19.8398C12.7339 19.7553 12.7102 19.6605 12.7288 19.5553C13.5862 19.079 13.7285 19.1977 13.1555 19.9109C13.2503 20.0058 13.3451 20.1005 13.4399 20.1953C13.864 20.2662 14.2907 20.2899 14.7199 20.2665C14.6976 20.0712 14.7213 19.8815 14.791 19.6976C14.7868 20.1045 14.9052 20.4364 15.1466 20.6931C15.128 20.7982 15.1517 20.8931 15.2177 20.9776C15.5122 20.8918 15.6782 20.7022 15.7155 20.4087C15.8347 20.36 15.8822 20.2653 15.8577 20.1242C16.2703 19.7243 16.6496 19.2976 16.9955 18.8442Z"
            fill="#223865" />
        <path fill-rule="evenodd" clip-rule="evenodd"
            d="M10.1691 5.61768C10.0269 5.7125 9.88467 5.8073 9.74245 5.90212C9.69539 9.2452 9.74281 12.5637 9.88467 15.8577C9.88467 19.3184 9.88467 22.7792 9.88467 26.2399C11.5913 26.2399 13.298 26.2399 15.0047 26.2399C15.0047 25.5288 15.0047 24.8177 15.0047 24.1066C15.0995 24.1066 15.1943 24.1066 15.2891 24.1066C15.2891 24.9125 15.2891 25.7184 15.2891 26.5243C13.3454 26.5243 11.4017 26.5243 9.45801 26.5243C9.45801 19.5555 9.45801 12.5866 9.45801 5.61768C9.69505 5.61768 9.93208 5.61768 10.1691 5.61768Z"
            fill="#D68F52" />
        <path fill-rule="evenodd" clip-rule="evenodd"
            d="M9.88477 15.8579C9.93217 15.8579 9.97959 15.8579 10.027 15.8579C10.027 16.2372 10.027 16.6164 10.027 16.9957C10.0034 17.7557 10.0271 18.5142 10.0981 19.2712C10.4848 19.4055 10.8878 19.4529 11.307 19.4135C11.307 19.1764 11.307 18.9394 11.307 18.7024C10.9163 18.7469 10.5371 18.6995 10.1692 18.5601C10.5959 18.4653 11.0225 18.3706 11.4492 18.2757C11.3431 18.0999 11.2957 17.9102 11.307 17.7068C11.7337 17.7542 11.9707 17.9912 12.0181 18.4179C11.9254 18.3339 11.8306 18.2391 11.7337 18.1335C11.6726 18.6942 11.8148 19.2156 12.1603 19.6979C12.7157 21.4259 13.6638 22.8955 15.0048 24.1068C15.0048 24.8179 15.0048 25.529 15.0048 26.2401C13.2981 26.2401 11.5914 26.2401 9.88477 26.2401C9.88477 22.7794 9.88477 19.3186 9.88477 15.8579Z"
            fill="#203763" />
        <path fill-rule="evenodd" clip-rule="evenodd"
            d="M15.5735 24.2488C15.4786 25.0073 15.3839 25.7659 15.2891 26.5244C15.2891 25.7184 15.2891 24.9126 15.2891 24.1066C15.403 23.7805 15.4978 23.8279 15.5735 24.2488Z"
            fill="#F7C48C" />
        <path fill-rule="evenodd" clip-rule="evenodd"
            d="M16.996 25.5291C17.5446 25.5561 17.7816 25.8405 17.7071 26.3824C19.279 26.4739 20.796 26.379 22.2582 26.098C22.3531 26.098 22.4004 26.1453 22.4004 26.2402C21.5524 26.4293 20.6517 26.5241 19.6982 26.5246C18.7975 26.4773 17.8967 26.4298 16.996 26.3824C16.8504 26.1901 16.7081 26.0005 16.5693 25.8135C16.6272 25.634 16.6746 25.4445 16.7116 25.2446C16.8569 25.2951 16.9518 25.39 16.996 25.5291Z"
            fill="#E08945" />
        <path fill-rule="evenodd" clip-rule="evenodd"
            d="M16.996 25.5288C17.1084 25.7128 17.2506 25.8788 17.4227 26.0266C17.2613 26.1331 17.1191 26.1095 16.996 25.9555C16.8321 25.7867 16.8321 25.6444 16.996 25.5288Z"
            fill="#1D2540" />
        <path fill-rule="evenodd" clip-rule="evenodd"
            d="M16.142 25.2446C16.2826 25.4288 16.4248 25.6184 16.5687 25.8135C16.7075 26.0005 16.8497 26.1901 16.9954 26.3824C17.8961 26.4298 18.7969 26.4773 19.6976 26.5246C20.6511 26.5241 21.5518 26.4293 22.3998 26.2402C22.6912 26.2695 22.7387 26.388 22.542 26.5957C20.6587 26.6208 18.7862 26.6919 16.9243 26.8091C16.7758 26.6494 16.6811 26.4598 16.6398 26.2402C16.3707 26.1506 16.1337 26.0084 15.9287 25.8135C15.949 25.6194 16.0202 25.4298 16.142 25.2446Z"
            fill="#FCF8DF" />
    </g>
    <defs>
        <clipPath id="clip0_5077_45">
            <rect width="32" height="32" fill="white" />
        </clipPath>
    </defs>
</svg>