<svg width="32" height="32" viewBox="0 0 32 32" fill="none" xmlns="http://www.w3.org/2000/svg">
    <g clip-path="url(#clip0_5259_253)">
        <path fill-rule="evenodd" clip-rule="evenodd"
            d="M-0.0800781 -0.0800781C5.19992 -0.0800781 10.4799 -0.0800781 15.7599 -0.0800781C15.6067 0.153778 15.42 0.367111 15.1999 0.559922C15.1026 1.5797 15.156 2.59303 15.3599 3.59992C15.4037 3.89255 15.537 4.13255 15.7599 4.31992C17.3694 4.33659 18.9694 4.44327 20.5599 4.63992C21.4062 5.21914 22.2062 5.85914 22.9599 6.55992C23.9433 7.03693 24.9566 7.09026 25.9999 6.71992C27.0681 5.0248 26.7481 3.63813 25.0399 2.55992C22.9858 1.58526 20.9058 0.705264 18.7999 -0.0800781C23.1732 -0.0800781 27.5466 -0.0800781 31.9199 -0.0800781C31.9199 10.5866 31.9199 21.2532 31.9199 31.9199C28.1866 31.9199 24.4532 31.9199 20.7199 31.9199C22.6431 31.5841 24.2698 30.6774 25.5999 29.1999C28.7802 25.1318 29.6335 20.5983 28.1599 15.5999C26.5636 12.1902 24.0303 9.76354 20.5599 8.31992C19.2817 7.89384 18.0017 7.46717 16.7199 7.03992C16.2428 6.96024 15.7629 6.93359 15.2799 6.95992C13.708 6.77459 12.108 6.74794 10.4799 6.87992C10.2819 6.91706 10.1219 6.99706 9.99992 7.11992C8.69311 7.42021 7.41311 7.82021 6.15992 8.31992C3.80346 10.2342 1.96346 12.5542 0.639922 15.2799C0.397155 16.5266 0.157155 17.7534 -0.0800781 18.9599C-0.0800781 12.6132 -0.0800781 6.26659 -0.0800781 -0.0800781Z"
            fill="#FCFCFB" />
        <path fill-rule="evenodd" clip-rule="evenodd"
            d="M15.76 -0.0800781C16.7732 -0.0800781 17.7867 -0.0800781 18.8 -0.0800781C20.9059 0.705264 22.9859 1.58526 25.04 2.55992C26.7481 3.63813 27.0681 5.0248 26 6.71992C24.9566 7.09026 23.9433 7.03693 22.96 6.55992C22.2062 5.85914 21.4062 5.21914 20.56 4.63992C18.9694 4.44327 17.3694 4.33659 15.76 4.31992C15.537 4.13255 15.4037 3.89255 15.36 3.59992C15.156 2.59303 15.1027 1.5797 15.2 0.559922C15.4201 0.367111 15.6067 0.153778 15.76 -0.0800781Z"
            fill="#1175B6" />
        <path fill-rule="evenodd" clip-rule="evenodd"
            d="M17.6798 1.04004C19.1558 1.33849 19.3158 2.00516 18.1598 3.04004C16.6336 3.91788 16.0203 3.46454 16.3198 1.68004C16.73 1.34015 17.1833 1.12682 17.6798 1.04004Z"
            fill="#F6F9F9" />
        <path fill-rule="evenodd" clip-rule="evenodd"
            d="M21.0399 1.84009C22.0146 1.82807 22.3081 2.25475 21.9199 3.12009C21.3202 3.62115 20.6535 3.91447 19.9199 4.00009C19.7477 3.72391 19.721 3.43059 19.8399 3.12009C20.2727 2.7143 20.6727 2.28763 21.0399 1.84009Z"
            fill="#F0F6F8" />
        <path fill-rule="evenodd" clip-rule="evenodd"
            d="M24.2402 3.28027C25.2072 3.88935 25.4472 4.74269 24.9602 5.84027C23.9786 6.19235 23.4718 5.84568 23.4402 4.80027C23.3326 4.08455 23.5994 3.57787 24.2402 3.28027Z"
            fill="#ECF3F6" />
        <path fill-rule="evenodd" clip-rule="evenodd"
            d="M15.28 6.9602C13.515 6.92177 11.755 6.9751 10 7.1202C10.122 6.99734 10.282 6.91734 10.48 6.8802C12.108 6.74822 13.708 6.77488 15.28 6.9602Z"
            fill="#646364" />
        <path fill-rule="evenodd" clip-rule="evenodd"
            d="M15.2799 6.96031C15.7629 6.93398 16.2428 6.96063 16.7199 7.04031C18.0017 7.46756 19.2817 7.89423 20.5599 8.32031C24.0303 9.76393 26.5636 12.1906 28.1599 15.6003C29.6335 20.5987 28.7802 25.1322 25.5999 29.2003C24.2698 30.6778 22.6431 31.5845 20.7199 31.9203C18.5866 31.9203 16.4532 31.9203 14.3199 31.9203C14.1175 31.7637 13.9041 31.6037 13.6799 31.4403C13.7866 31.387 13.8932 31.3336 13.9999 31.2803C16.5086 31.708 19.0153 31.6814 21.5199 31.2003C24.2498 29.7502 26.1964 27.5902 27.3599 24.7203C29.2409 17.1485 26.4942 12.1084 19.1199 9.60031C17.6663 9.00009 16.173 8.54676 14.6399 8.24031C13.9486 8.13379 13.2286 8.08046 12.4799 8.08031C11.4536 8.04649 10.467 8.15315 9.51992 8.40031C7.17651 8.73222 5.22986 9.79889 3.67992 11.6003C3.07992 12.6407 2.43992 13.654 1.75992 14.6403C1.46957 15.5373 1.22957 16.444 1.03992 17.3603C0.757119 18.6349 0.703786 19.9149 0.879922 21.2003C1.25487 24.6701 2.69487 27.6034 5.19992 30.0003C4.948 30.1813 4.68133 30.208 4.39992 30.0803C3.23424 28.5938 2.19424 27.0205 1.27992 25.3603C0.674347 23.8944 0.221013 22.401 -0.0800781 20.8803C-0.0800781 20.2403 -0.0800781 19.6003 -0.0800781 18.9603C0.157155 17.7538 0.397155 16.527 0.639922 15.2803C1.96346 12.5546 3.80346 10.2346 6.15992 8.32031C7.41311 7.8206 8.69311 7.4206 9.99992 7.12031C11.7549 6.97521 13.5149 6.92188 15.2799 6.96031Z"
            fill="#252324" />
        <path fill-rule="evenodd" clip-rule="evenodd"
            d="M14.64 8.24033C12.9307 8.22885 11.2241 8.28218 9.52002 8.40033C10.4671 8.15316 11.4537 8.0465 12.48 8.08033C13.2287 8.08047 13.9487 8.1338 14.64 8.24033Z"
            fill="#878687" />
        <path fill-rule="evenodd" clip-rule="evenodd"
            d="M14.6399 8.2398C16.173 8.54625 17.6663 8.99958 19.1199 9.5998C26.4942 12.1079 29.2409 17.148 27.3599 24.7198C26.1964 27.5897 24.2498 29.7497 21.5199 31.1998C19.0153 31.6809 16.5086 31.7075 13.9999 31.2798C13.8932 31.3331 13.7866 31.3865 13.6799 31.4398C13.9041 31.6032 14.1175 31.7632 14.3199 31.9198C9.51992 31.9198 4.71992 31.9198 -0.0800781 31.9198C-0.0800781 28.2398 -0.0800781 24.5598 -0.0800781 20.8798C0.221013 22.4004 0.674347 23.8939 1.27992 25.3598C2.19424 27.02 3.23424 28.5932 4.39992 30.0798C4.68133 30.2075 4.948 30.1808 5.19992 29.9998C2.69487 27.6028 1.25487 24.6696 0.879922 21.1998C1.00413 19.9238 1.05747 18.6438 1.03992 17.3598C1.22957 16.4435 1.46957 15.5368 1.75992 14.6398C2.43992 13.6535 3.07992 12.6401 3.67992 11.5998C5.22986 9.79838 7.17651 8.73171 9.51992 8.3998C11.224 8.28166 12.9306 8.22833 14.6399 8.2398Z"
            fill="#FBFBFA" />
        <path fill-rule="evenodd" clip-rule="evenodd"
            d="M10.9599 9.67954C12.6014 9.46083 13.9347 9.99416 14.9599 11.2795C14.8265 11.3329 14.6932 11.3862 14.5599 11.4395C13.5558 11.0413 12.5158 10.7746 11.4399 10.6395C10.9985 10.6463 10.5718 10.7263 10.1599 10.8795C7.73875 12.5533 5.89875 14.7132 4.63985 17.3595C3.06494 21.8131 4.31828 25.1464 8.39985 27.3595C11.4632 28.5965 14.5566 28.7032 17.6799 27.6795C20.22 26.2042 21.9 24.0442 22.7199 21.1995C23.1323 19.2783 22.5723 17.7048 21.0399 16.4795C19.6615 15.5901 18.3547 14.6034 17.1199 13.5195C17.0507 13.3435 17.1307 13.2368 17.3599 13.1995C20.0733 14.179 22.1267 15.939 23.5199 18.4795C23.7736 19.5287 23.8271 20.5954 23.6799 21.6795C23.2767 22.9655 22.7434 24.1922 22.0799 25.3595C21.3066 26.3463 20.4266 27.2263 19.4399 27.9995C16.5418 29.3003 13.5018 29.7271 10.3199 29.2795C7.87344 28.5771 5.76677 27.3239 3.99985 25.5195C2.37913 21.9088 2.48581 18.3355 4.31985 14.7995C5.42016 13.2192 6.78016 11.9125 8.39985 10.8795C9.287 10.5155 10.1403 10.1155 10.9599 9.67954Z"
            fill="#1977B7" />
        <path fill-rule="evenodd" clip-rule="evenodd"
            d="M9.99987 18.3204C10.6275 18.6162 11.2675 18.6695 11.9199 18.4804C12.1985 17.0068 12.4918 15.5134 12.7999 14.0004C12.894 13.6223 13.134 13.4623 13.5199 13.5204C13.4329 15.1368 13.2195 16.7367 12.8799 18.3204C12.9332 18.4271 12.9865 18.5337 13.0399 18.6404C14.8893 19.1161 16.7559 19.5161 18.6399 19.8404C18.8799 20.1871 18.7999 20.4271 18.3999 20.5604C16.4631 20.1143 14.5164 19.741 12.5599 19.4404C12.4409 20.302 12.2809 21.1553 12.0799 22.0004C11.9199 22.0004 11.7599 22.0004 11.5999 22.0004C11.666 21.1366 11.666 20.2831 11.5999 19.4404C10.7962 19.2794 9.99615 19.0929 9.19987 18.8804C8.96414 18.7668 8.85748 18.5802 8.87987 18.3204C9.25319 18.3204 9.62654 18.3204 9.99987 18.3204Z"
            fill="#272526" />
        <path fill-rule="evenodd" clip-rule="evenodd"
            d="M18.96 16.7197C19.3155 16.7292 19.4755 16.9157 19.44 17.2797C19.4579 17.5456 19.3513 17.7324 19.12 17.8397C18.3422 17.5394 18.2888 17.1661 18.96 16.7197Z"
            fill="#2C2A2B" />
        <path fill-rule="evenodd" clip-rule="evenodd"
            d="M10 18.3203C10.6455 18.3211 11.2855 18.3744 11.92 18.4803C11.2676 18.6694 10.6276 18.6162 10 18.3203Z"
            fill="#A3A3A3" />
        <path fill-rule="evenodd" clip-rule="evenodd"
            d="M1.04021 17.3604C1.05775 18.6444 1.00442 19.9244 0.880208 21.2004C0.704072 19.9149 0.757404 18.6349 1.04021 17.3604Z"
            fill="#CBCBCA" />
        <path fill-rule="evenodd" clip-rule="evenodd"
            d="M20.5602 20.2402C20.8269 20.2402 21.0935 20.2402 21.3602 20.2402C21.4378 20.9857 21.1445 21.199 20.4802 20.8802C20.3876 20.6518 20.4143 20.4383 20.5602 20.2402Z"
            fill="#2D2B2C" />
        <path fill-rule="evenodd" clip-rule="evenodd"
            d="M6.63987 21.5195C7.24369 21.517 7.40369 21.7835 7.11987 22.3195C6.92966 22.4682 6.71631 22.5215 6.47987 22.4795C6.45191 22.1402 6.50524 21.8202 6.63987 21.5195Z"
            fill="#282627" />
        <path fill-rule="evenodd" clip-rule="evenodd"
            d="M17.6801 23.9198C18.1004 23.8866 18.3669 24.0734 18.4801 24.4798C18.1953 24.8354 17.8218 25.0222 17.3601 25.0398C17.3066 24.6097 17.4132 24.2364 17.6801 23.9198Z"
            fill="#2D2B2C" />
        <path fill-rule="evenodd" clip-rule="evenodd"
            d="M8.56003 24.4004C9.32687 24.6292 9.38019 24.9758 8.72003 25.4404C8.51312 25.5188 8.29978 25.5455 8.08003 25.5204C7.98552 25.0124 8.14552 24.639 8.56003 24.4004Z"
            fill="#262525" />
        <path fill-rule="evenodd" clip-rule="evenodd"
            d="M13.0401 25.3604C13.2001 25.3604 13.3601 25.3604 13.5201 25.3604C13.5831 25.8743 13.3965 26.2477 12.9601 26.4804C12.7293 26.3664 12.596 26.1797 12.5601 25.9204C12.7271 25.7325 12.8871 25.5458 13.0401 25.3604Z"
            fill="#262525" />
    </g>
    <defs>
        <clipPath id="clip0_5259_253">
            <rect width="32" height="32" fill="white" />
        </clipPath>
    </defs>
</svg>