<svg width="32" height="32" viewBox="0 0 32 32" fill="none" xmlns="http://www.w3.org/2000/svg">
    <path fill-rule="evenodd" clip-rule="evenodd"
        d="M5.2355 0C12.4118 0 19.5882 0 26.7645 0C26.9642 0.0837523 27.1774 0.154863 27.404 0.213333C27.6734 0.524625 28.0286 0.666847 28.4698 0.64C29.0968 0.947822 29.6652 1.33893 30.175 1.81333C30.6491 2.32358 31.0398 2.89247 31.3474 3.52C31.3023 3.76333 31.3734 3.94111 31.5606 4.05333C31.6569 4.12896 31.6924 4.23563 31.6672 4.37333C31.7413 4.99728 31.8479 5.60172 31.9869 6.18667C32.0221 13.0921 31.9865 19.9899 31.8803 26.88C31.7285 27.0949 31.6576 27.3438 31.6672 27.6267C31.6672 27.6622 31.6672 27.6978 31.6672 27.7333C31.5339 27.7415 31.4451 27.8127 31.4007 27.9467C31.3481 28.121 31.3304 28.2988 31.3474 28.48C31.0398 29.1075 30.6491 29.6764 30.175 30.1867C29.6652 30.6611 29.0968 31.0522 28.4698 31.36C28.2267 31.3149 28.049 31.386 27.9369 31.5733C27.5595 31.7584 27.1688 31.9007 26.7645 32C19.5882 32 12.4118 32 5.2355 32C5.19905 31.9106 5.12806 31.875 5.02234 31.8933C4.74694 31.683 4.4272 31.5763 4.06312 31.5733C3.951 31.386 3.77334 31.3149 3.53023 31.36C2.90322 31.0522 2.33484 30.6611 1.82496 30.1867C1.10779 29.4623 0.610383 28.609 0.332851 27.6267C0.342443 27.3438 0.271461 27.0949 0.119692 26.88C0.0135393 19.9899 -0.0220582 13.0921 0.013113 6.18667C0.152092 5.60172 0.258672 4.99728 0.332851 4.37333C0.610383 3.39104 1.10779 2.53771 1.82496 1.81333C2.81839 0.922816 3.95516 0.318372 5.2355 0Z"
        fill="#FF7962" />
    <path fill-rule="evenodd" clip-rule="evenodd"
        d="M27.4038 0.212891C27.7927 0.294674 28.1479 0.436897 28.4696 0.639557C28.0285 0.666404 27.6732 0.524182 27.4038 0.212891Z"
        fill="#FFA997" />
    <path opacity="0.01" fill-rule="evenodd" clip-rule="evenodd"
        d="M1.8248 1.8137C1.75371 1.67148 1.75371 1.67148 1.8248 1.8137Z" fill="#FEFFFE" />
    <path opacity="0.01" fill-rule="evenodd" clip-rule="evenodd"
        d="M30.1748 1.70703C30.3169 1.77815 30.3169 1.77815 30.1748 1.70703Z" fill="#FEFFFE" />
    <path fill-rule="evenodd" clip-rule="evenodd"
        d="M31.3476 3.51953C31.5001 3.65611 31.5712 3.83389 31.5608 4.05286C31.3736 3.94064 31.3025 3.76286 31.3476 3.51953Z"
        fill="#FFAD9D" />
    <path opacity="0.973" fill-rule="evenodd" clip-rule="evenodd"
        d="M0.332758 4.37305C0.258579 4.99699 0.152 5.60143 0.0130203 6.18638C-0.0268403 5.54245 0.0797389 4.93802 0.332758 4.37305Z"
        fill="#FFA290" />
    <path opacity="0.973" fill-rule="evenodd" clip-rule="evenodd"
        d="M31.667 4.37305C31.92 4.93802 32.0266 5.54245 31.9867 6.18638C31.8478 5.60143 31.7412 4.99699 31.667 4.37305Z"
        fill="#FFA290" />
    <path fill-rule="evenodd" clip-rule="evenodd"
        d="M8.21969 6.18636C13.2646 6.16857 18.3093 6.18636 23.3539 6.23969C26.2984 6.79748 27.8971 8.57525 28.15 11.573C28.1445 12.4543 27.9491 13.2898 27.5638 14.0797C27.1498 14.7968 26.6347 15.4368 26.0184 15.9997C28.4206 18.2223 28.7936 20.7467 27.1375 23.573C26.2179 24.8069 24.9923 25.5358 23.4605 25.7597C18.4158 25.8308 13.371 25.8308 8.32627 25.7597C5.48881 25.072 3.9967 23.2764 3.84994 20.373C3.86955 18.5686 4.58012 17.1109 5.98153 15.9997C3.95141 14.2239 3.36522 12.055 4.22297 9.49302C5.0561 7.77159 6.38834 6.66937 8.21969 6.18636Z"
        fill="#FFFDFD" />
    <path fill-rule="evenodd" clip-rule="evenodd"
        d="M8.64597 8.21289C9.39203 8.21289 10.1381 8.21289 10.8841 8.21289C10.8841 10.4529 10.8841 12.6929 10.8841 14.9329C9.91864 14.9698 8.95942 14.9165 8.0065 14.7729C5.96401 13.6182 5.41332 11.9649 6.35452 9.81289C6.9341 8.99958 7.69795 8.46625 8.64597 8.21289Z"
        fill="#FF7962" />
    <path fill-rule="evenodd" clip-rule="evenodd"
        d="M12.9092 8.21289C14.9697 8.21289 17.0303 8.21289 19.0908 8.21289C19.0908 13.3684 19.0908 18.524 19.0908 23.6796C17.0303 23.6796 14.9697 23.6796 12.9092 23.6796C12.9092 18.524 12.9092 13.3684 12.9092 8.21289Z"
        fill="#FF7861" />
    <path fill-rule="evenodd" clip-rule="evenodd"
        d="M21.1157 8.21305C22.7202 7.93414 24.1235 8.32525 25.3256 9.38639C26.5247 11.1982 26.3293 12.8516 24.7394 14.3464C24.3375 14.5831 23.9112 14.7608 23.4605 14.8797C22.6797 14.9331 21.8981 14.9508 21.1157 14.9331C21.1157 12.6931 21.1157 10.4531 21.1157 8.21305Z"
        fill="#FF7861" />
    <path fill-rule="evenodd" clip-rule="evenodd"
        d="M8.75251 17.0664C9.42747 17.0664 10.1025 17.0664 10.7775 17.0664C10.7775 19.2709 10.7775 21.4753 10.7775 23.6797C10.138 23.6797 9.49856 23.6797 8.85909 23.6797C7.00716 23.3367 6.04795 22.2167 5.98145 20.3197C6.07918 18.5329 7.0029 17.4484 8.75251 17.0664Z"
        fill="#FF7861" />
    <path fill-rule="evenodd" clip-rule="evenodd"
        d="M8.75244 17.0667C9.44297 16.961 10.1535 16.9255 10.884 16.96C10.884 19.2356 10.884 21.5112 10.884 23.7867C10.1889 23.8212 9.51395 23.7856 8.85902 23.68C9.4985 23.68 10.138 23.68 10.7774 23.68C10.7774 21.4756 10.7774 19.2712 10.7774 17.0667C10.1025 17.0667 9.42741 17.0667 8.75244 17.0667Z"
        fill="#FFA295" />
    <path fill-rule="evenodd" clip-rule="evenodd"
        d="M21.1157 16.9597C22.312 16.83 23.4488 17.0255 24.5263 17.5464C25.9337 18.6458 26.3423 20.0503 25.7519 21.7597C25.3194 22.7257 24.5912 23.3479 23.567 23.6264C22.7557 23.761 21.9385 23.8143 21.1157 23.7864C21.1157 21.5108 21.1157 19.2352 21.1157 16.9597Z"
        fill="#FF7962" />
    <path fill-rule="evenodd" clip-rule="evenodd"
        d="M12.9094 8.21289C12.9094 13.3684 12.9094 18.524 12.9094 23.6796C14.9699 23.6796 17.0305 23.6796 19.091 23.6796C17.0134 23.7859 14.9173 23.8214 12.8028 23.7862C12.7674 18.5771 12.8029 13.3859 12.9094 8.21289Z"
        fill="#FFA395" />
    <path opacity="0.69" fill-rule="evenodd" clip-rule="evenodd"
        d="M0.119509 26.8799C0.271278 27.0948 0.342259 27.3437 0.332667 27.6265C0.180898 27.4116 0.109917 27.1628 0.119509 26.8799Z"
        fill="#FFC3B7" />
    <path opacity="0.69" fill-rule="evenodd" clip-rule="evenodd"
        d="M31.8805 26.8799C31.8901 27.1628 31.8191 27.4116 31.6674 27.6265C31.6578 27.3437 31.7287 27.0948 31.8805 26.8799Z"
        fill="#FFC3B7" />
    <path fill-rule="evenodd" clip-rule="evenodd"
        d="M31.6673 27.7334C31.621 28.0168 31.5144 28.2658 31.3476 28.4801C31.3305 28.2988 31.3482 28.121 31.4009 27.9467C31.4453 27.8128 31.5341 27.7416 31.6673 27.7334Z"
        fill="#FFB2A1" />
    <path opacity="0.01" fill-rule="evenodd" clip-rule="evenodd"
        d="M1.8248 30.1865C1.75371 30.2577 1.75371 30.2577 1.8248 30.1865Z" fill="#FEFFFE" />
    <path opacity="0.01" fill-rule="evenodd" clip-rule="evenodd"
        d="M30.1748 30.1865C30.3169 30.2577 30.3169 30.2577 30.1748 30.1865Z" fill="#FEFFFE" />
    <path fill-rule="evenodd" clip-rule="evenodd"
        d="M3.53027 31.3598C3.77338 31.3147 3.95105 31.3858 4.06317 31.5731C3.84436 31.5836 3.66669 31.5125 3.53027 31.3598Z"
        fill="#FFAD9D" />
    <path fill-rule="evenodd" clip-rule="evenodd"
        d="M28.4699 31.3598C28.3335 31.5125 28.1558 31.5836 27.937 31.5731C28.0491 31.3858 28.2268 31.3147 28.4699 31.3598Z"
        fill="#FFB3A3" />
    <path fill-rule="evenodd" clip-rule="evenodd"
        d="M4.06299 31.5732C4.42706 31.5762 4.7468 31.6829 5.0222 31.8932C4.67209 31.8476 4.35235 31.7409 4.06299 31.5732Z"
        fill="#FFB5A6" />
</svg>