<svg width="32" height="32" viewBox="0 0 32 32" fill="none" xmlns="http://www.w3.org/2000/svg">
    <path opacity="0.996" fill-rule="evenodd" clip-rule="evenodd"
        d="M15.3751 0.0399008C15.7352 0.667807 15.6293 1.25308 15.057 1.79571C15.0418 2.64473 15.1477 3.44282 15.3751 4.18999C15.0112 6.43044 14.6931 8.7715 14.4208 11.2132C13.8193 10.8825 13.2362 10.8825 12.6713 11.2132C12.4591 14.9377 12.4591 18.6621 12.6713 22.3866C12.7931 22.5641 12.9522 22.6705 13.1484 22.7058C13.1389 23.9102 13.1389 25.134 13.1484 26.377C12.9363 27.0155 12.7244 27.654 12.5122 28.2925C12.4757 29.4036 12.5816 30.4678 12.8303 31.4848C12.539 31.5737 12.3271 31.7333 12.1941 31.9637C10.8158 31.9637 9.43716 31.9637 8.05884 31.9637C8.25638 28.6914 8.57448 25.4458 9.01314 22.2269C8.90721 22.1205 8.80096 22.0141 8.69504 21.9077C8.96765 21.6877 9.1795 21.4217 9.33124 21.1096C9.01186 19.957 8.90562 18.7333 9.01314 17.4384C9.31406 16.4697 9.63216 15.512 9.96744 14.5652C9.71518 13.7887 9.60926 13.0438 9.64934 12.3306C9.81348 11.1156 10.1316 9.94506 10.6036 8.81894C10.5263 6.68117 10.5263 4.4465 10.6036 2.11495C10.8476 1.64551 11.0595 1.16665 11.2398 0.678377C12.5622 0.17961 13.9405 -0.0332149 15.3751 0.0399008Z"
        fill="#E44506" />
    <path opacity="0.99" fill-rule="evenodd" clip-rule="evenodd"
        d="M15.3752 0.0399223C17.161 -0.0964058 18.8574 0.11642 20.4648 0.678398C20.3516 1.8877 20.1394 3.16465 19.8286 4.50925C20.2001 4.95797 20.0942 5.33043 19.5105 5.62659C19.6164 6.98964 19.7223 8.26659 19.8286 9.45744C19.2932 10.9425 19.0811 12.4855 19.1924 14.0864C17.4413 13.3685 15.8508 12.4108 14.4209 11.2132C14.6932 8.77153 15.0113 6.43046 15.3752 4.19002C15.1478 3.44284 15.0418 2.64475 15.0571 1.79573C15.6294 1.2531 15.7353 0.667828 15.3752 0.0399223Z"
        fill="#E95303" />
    <path opacity="0.975" fill-rule="evenodd" clip-rule="evenodd"
        d="M11.2398 0.678345C11.0595 1.16662 10.8476 1.64548 10.6037 2.11492C10.5264 4.44647 10.5264 6.68113 10.6037 8.81891C10.1316 9.94502 9.81349 11.1156 9.64935 12.3305C9.60927 13.0438 9.7152 13.7887 9.96745 14.5652C9.63217 15.5119 9.31407 16.4696 9.01315 17.4383C8.90563 18.7333 9.01188 19.957 9.33125 21.1096C9.17952 21.4217 8.96766 21.6877 8.69505 21.9077C8.80098 22.0141 8.90722 22.1205 9.01315 22.2269C8.57449 25.4458 8.25639 28.6914 8.05885 31.9637C5.75104 32.0636 3.47153 31.9573 1.21971 31.6444C1.36158 30.6103 1.78561 29.6526 2.49211 28.7713C2.74913 28.1573 2.90818 27.5188 2.96926 26.8559C2.35437 24.769 1.55912 22.7471 0.583507 20.7903C-1.22235 12.9228 1.1634 6.69764 7.74075 2.11492C8.8417 1.45551 10.0078 0.976657 11.2398 0.678345Z"
        fill="#DF3702" />
    <path opacity="0.986" fill-rule="evenodd" clip-rule="evenodd"
        d="M20.4647 0.678345C23.1953 1.40919 25.5282 2.79255 27.4629 4.82844C27.1842 4.78665 26.9721 4.89308 26.8267 5.14768C26.598 6.84209 26.598 8.4915 26.8267 10.0959C26.5744 10.4423 26.3623 10.8148 26.1905 11.2132C26.2318 11.827 26.3381 12.4122 26.5086 12.969C26.0438 13.5997 25.9379 14.2382 26.1905 14.8844C26.0617 15.1862 25.8495 15.3991 25.5543 15.5229C25.7665 15.7357 25.9783 15.9485 26.1905 16.1614C25.7257 17.1545 25.6198 18.1654 25.8724 19.1941C25.3717 20.4101 25.2655 21.5275 25.5543 22.5461C25.0361 23.6972 24.9302 24.7614 25.2362 25.7385C24.871 26.9257 24.6592 28.1494 24.6 29.4098C22.4417 30.9911 20.0028 31.8424 17.2837 31.9637C17.5219 29.5411 17.84 27.1468 18.238 24.7808C18.1321 24.6744 18.0258 24.568 17.9199 24.4616C18.1321 23.8231 18.3439 23.1846 18.5561 22.5461C18.2956 21.798 18.1893 20.9999 18.238 20.1519C19.5428 19.2286 20.9212 18.3773 22.3733 17.598C22.8021 16.9239 22.6962 16.3387 22.0552 15.8421C20.9743 15.4089 20.02 14.8236 19.1923 14.0863C19.081 12.4855 19.2931 10.9425 19.8285 9.45739C19.7222 8.26653 19.6163 6.98958 19.5104 5.62653C20.0941 5.33038 20.2 4.95792 19.8285 4.5092C20.1393 3.1646 20.3514 1.88765 20.4647 0.678345Z"
        fill="#EF6202" />
    <path opacity="0.986" fill-rule="evenodd" clip-rule="evenodd"
        d="M27.463 4.82842C31.8191 9.6009 33.0383 15.1343 31.1211 21.4288C29.7937 24.8314 27.6201 27.4917 24.6001 29.4097C24.6593 28.1494 24.8711 26.9256 25.2363 25.7385C24.9303 24.7613 25.0362 23.6972 25.5544 22.5461C25.2656 21.5274 25.3718 20.4101 25.8725 19.1941C25.6199 18.1653 25.7259 17.1544 26.1906 16.1614C25.9784 15.9485 25.7666 15.7357 25.5544 15.5229C25.8496 15.3991 26.0618 15.1862 26.1906 14.8844C25.938 14.2381 26.044 13.5997 26.5087 12.969C26.3382 12.4122 26.2319 11.8269 26.1906 11.2132C26.3624 10.8147 26.5745 10.4423 26.8268 10.0958C26.5981 8.49148 26.5981 6.84207 26.8268 5.14765C26.9722 4.89306 27.1843 4.78663 27.463 4.82842Z"
        fill="#F47201" />
    <path fill-rule="evenodd" clip-rule="evenodd"
        d="M14.4209 11.2133C15.8507 12.4108 17.4412 13.3686 19.1924 14.0864C20.0201 14.8237 20.9744 15.409 22.0553 15.8422C22.6963 16.3387 22.8022 16.924 22.3734 17.598C20.9213 18.3774 19.5429 19.2287 18.2381 20.1519C16.6196 21.1324 14.9228 21.9837 13.1485 22.7058C12.9522 22.6705 12.7932 22.5641 12.6713 22.3866C12.4592 18.6622 12.4592 14.9377 12.6713 11.2133C13.2363 10.8825 13.8194 10.8825 14.4209 11.2133Z"
        fill="#FEFCFB" />
    <path opacity="0.999" fill-rule="evenodd" clip-rule="evenodd"
        d="M18.238 20.1519C18.1893 20.9999 18.2956 21.798 18.5561 22.5461C18.3439 23.1846 18.1321 23.8231 17.9199 24.4616C18.0258 24.568 18.1321 24.6744 18.238 24.7808C17.84 27.1468 17.5219 29.5411 17.2837 31.9637C15.5873 31.9637 13.8905 31.9637 12.1941 31.9637C12.3271 31.7333 12.5389 31.5737 12.8303 31.4848C12.5815 30.4677 12.4756 29.4036 12.5122 28.2924C12.7244 27.6539 12.9362 27.0155 13.1484 26.377C13.1388 25.1339 13.1388 23.9102 13.1484 22.7058C14.9228 21.9836 16.6195 21.1323 18.238 20.1519Z"
        fill="#E85103" />
</svg>