<svg width="32" height="32" viewBox="0 0 32 32" fill="none" xmlns="http://www.w3.org/2000/svg">
    <path opacity="0.902" fill-rule="evenodd" clip-rule="evenodd"
        d="M23.2 0C24.8 0 26.4 0 28 0C32.2191 2.01989 33.0858 4.86432 30.6 8.53333C29.5091 9.68199 28.2424 10.6301 26.8 11.3778C26.2777 12.1656 26.0777 12.9953 26.2 13.8667C26.8904 13.484 27.6238 13.4247 28.4 13.6889C29.4667 14.163 30.5333 14.637 31.6 15.1111C31.8234 15.3688 31.9567 15.6651 32 16C30.7239 18.3863 29.9239 20.816 29.6 23.2889C29.1085 23.5666 28.5752 23.7444 28 23.8222C27.3381 23.5634 26.6714 23.5041 26 23.6444C24.1255 25.4658 21.8588 26.0585 19.2 25.4222C19.9034 26.7108 21.1034 27.3034 22.8 27.2C23.7938 28.012 23.8604 28.9009 23 29.8667C22.1544 30.7985 21.1544 31.5096 20 32C18.1333 32 16.2667 32 14.4 32C8.27088 29.3351 7.27088 25.5426 11.4 20.6222C11.7965 19.9298 11.9299 19.2187 11.8 18.4889C9.26668 17.6593 7.53332 16.1185 6.6 13.8667C3.70545 12.8907 1.50545 11.2314 0 8.88889C0 7.70372 0 6.51851 0 5.33333C1.1498 3.24727 3.01647 1.94357 5.6 1.42222C8.17124 2.34235 10.7046 3.34976 13.2 4.44444C15.4364 4.7696 17.4364 4.29554 19.2 3.02222C20.375 1.79603 21.7084 0.788626 23.2 0ZM24.8 16C24.393 17.2633 23.793 18.4484 23 19.5556C22.7174 18.9936 22.384 18.4602 22 17.9556C22.9983 17.363 23.9316 16.7112 24.8 16Z"
        fill="#351F15" />
    <path fill-rule="evenodd" clip-rule="evenodd"
        d="M23.1998 0.711236C27.5566 -0.202104 30.2233 1.22012 31.1998 4.9779C30.552 7.69221 28.8187 9.70704 25.9998 11.0223C25.5518 14.0748 23.8185 16.3266 20.7998 17.7779C21.7616 18.5396 22.2949 19.4878 22.3998 20.6223C22.9286 20.6828 23.3953 20.5642 23.7998 20.2668C24.6463 18.2452 25.6463 16.2897 26.7998 14.4001C28.6252 14.323 30.0919 14.9156 31.1998 16.1779C30.0881 18.3819 29.2881 20.6338 28.7998 22.9335C26.7973 22.3122 25.1973 22.7863 23.9998 24.3557C22.0042 25.1709 20.1375 24.9931 18.3998 23.8223C17.6184 24.2706 16.8184 24.6854 15.9998 25.0668C18.5839 25.2329 19.7172 26.4773 19.3998 28.8001C20.2408 27.7608 21.3075 27.5238 22.5998 28.089C22.3726 29.6009 21.3726 30.6083 19.5998 31.1112C15.6303 32.0391 12.497 31.0317 10.1998 28.089C9.93313 26.7853 9.93313 25.4816 10.1998 24.1779C10.9998 22.7557 11.7998 21.3335 12.5998 19.9112C12.8665 19.3186 12.8665 18.7261 12.5998 18.1335C9.98949 17.2354 8.18949 15.6354 7.19981 13.3335C4.55265 12.484 2.48598 11.0025 0.999806 8.88901C0.733138 7.70384 0.733138 6.51863 0.999806 5.33346C1.71707 4.33957 2.58373 3.45068 3.59981 2.66679C4.79981 2.42975 5.99981 2.42975 7.19981 2.66679C9.07893 3.50195 10.9456 4.33157 12.7998 5.15568C14.7611 5.4888 16.6278 5.25175 18.3998 4.44457C20.0771 3.24808 21.6771 2.00363 23.1998 0.711236ZM24.7998 16.0001C23.9314 16.7113 22.9981 17.3631 21.9998 17.9557C22.3838 18.4604 22.7172 18.9937 22.9998 19.5557C23.7928 18.4486 24.3928 17.2634 24.7998 16.0001Z"
        fill="#D5B070" />
    <path fill-rule="evenodd" clip-rule="evenodd"
        d="M11.6002 7.46678C12.1913 7.37363 12.7247 7.49214 13.2002 7.82234C12.5704 8.22444 11.9037 8.28367 11.2002 8.00012C11.4226 7.86408 11.5559 7.6863 11.6002 7.46678Z"
        fill="#1F100A" />
    <path fill-rule="evenodd" clip-rule="evenodd"
        d="M18.4004 6.40025C19.3006 6.28697 20.1006 6.46475 20.8004 6.93359C20.4004 6.99286 20.0004 7.05209 19.6004 7.11137C18.9886 7.06162 18.5886 6.82461 18.4004 6.40025Z"
        fill="#2D160E" />
    <path fill-rule="evenodd" clip-rule="evenodd"
        d="M4.40032 4.26679C8.1472 3.63666 9.68052 4.94035 9.00032 8.1779C8.77132 11.1619 7.238 11.8138 4.40032 10.1335C2.32489 8.20538 2.32489 6.24983 4.40032 4.26679Z"
        fill="#30140C" />
    <path fill-rule="evenodd" clip-rule="evenodd"
        d="M24.3996 2.1333C27.9125 2.35184 29.4458 4.0111 28.9996 7.11108C28.0038 8.29593 26.7372 9.12555 25.1996 9.59997C24.5879 9.58973 24.1212 9.35268 23.7996 8.88886C23.0554 7.14987 22.6554 5.37209 22.5996 3.55552C23.2663 3.11706 23.8663 2.64299 24.3996 2.1333Z"
        fill="#30140B" />
    <path fill-rule="evenodd" clip-rule="evenodd"
        d="M20.0005 9.6001C20.97 10.2144 21.0367 10.9255 20.2005 11.7334C19.4806 11.0703 19.4139 10.3592 20.0005 9.6001Z"
        fill="#190502" />
    <path fill-rule="evenodd" clip-rule="evenodd"
        d="M15.9998 10.6668C17.1296 10.5177 17.9963 10.8733 18.5998 11.7335C18.8665 12.8002 18.8665 13.8668 18.5998 14.9335C17.8855 15.9509 16.9522 16.188 15.7998 15.6446C14.4146 13.8892 14.4812 12.2299 15.9998 10.6668Z"
        fill="#2F140C" />
    <path fill-rule="evenodd" clip-rule="evenodd"
        d="M11.9996 10.3111C12.7932 10.3054 13.1932 10.661 13.1996 11.3778C12.6663 12.8 12.1329 12.8 11.5996 11.3778C11.6736 10.9925 11.8069 10.6369 11.9996 10.3111Z"
        fill="#2D1911" />
    <path fill-rule="evenodd" clip-rule="evenodd"
        d="M27.1996 14.9331C28.5869 15.015 29.6535 15.5483 30.3996 16.5331C29.8542 17.6806 29.2542 18.8065 28.5996 19.9109C28.0572 20.2238 27.4572 20.3424 26.7996 20.2664C27.0205 19.6155 27.0205 19.0229 26.7996 18.4887C26.0064 19.0156 25.2731 19.6082 24.5996 20.2664C25.2196 18.4471 26.0862 16.6694 27.1996 14.9331Z"
        fill="#FCFAF7" />
    <path fill-rule="evenodd" clip-rule="evenodd"
        d="M19.2004 15.6445C19.5003 16.9874 18.767 17.6985 17.0004 17.7779C15.93 17.5424 15.0633 17.009 14.4004 16.1779C15.3261 16.3877 16.1928 16.8026 17.0004 17.4223C18.1879 17.2549 18.9212 16.6624 19.2004 15.6445Z"
        fill="#322016" />
    <path fill-rule="evenodd" clip-rule="evenodd"
        d="M19.2003 18.1333C20.7011 18.1335 21.1011 18.7262 20.4003 19.9111C18.9949 19.3313 17.7949 19.5683 16.8003 20.6222C16.2203 20.1423 15.9536 19.5497 16.0003 18.8444C16.9431 18.9025 17.8764 18.8432 18.8003 18.6666C19.0227 18.5306 19.1561 18.3528 19.2003 18.1333Z"
        fill="#2A140D" />
</svg>