<svg width="32" height="32" viewBox="0 0 32 32" fill="none" xmlns="http://www.w3.org/2000/svg">
    <path opacity="0.995" fill-rule="evenodd" clip-rule="evenodd"
        d="M0 23.9981C0 23.0879 0 22.1776 0 21.2674C0.642816 16.1199 1.24064 10.9461 1.79349 5.74567C2.01446 4.56617 2.70796 3.87153 3.87394 3.66173C12.5112 3.09454 21.1438 2.4957 29.7719 1.86523C31.3212 2.22108 32.0626 3.20316 31.9959 4.81149C31.2172 12.2619 30.4281 19.7115 29.6285 27.1599C29.3284 29.2361 28.1568 30.1702 26.1132 29.9624C17.788 28.4001 9.46619 26.8191 1.14783 25.2197C0.585279 24.9767 0.202668 24.5693 0 23.9981Z"
        fill="#655ED9" />
    <path fill-rule="evenodd" clip-rule="evenodd"
        d="M8.46537 9.77051C9.80403 9.8833 11.1432 10.0031 12.4828 10.1298C14.829 10.5907 15.5225 11.9081 14.5632 14.0821C14.3215 14.3002 14.1062 14.5397 13.9176 14.8007C14.8665 15.5327 15.1775 16.4907 14.8502 17.6751C14.635 18.5614 14.085 19.1123 13.2002 19.3279C11.3289 19.4042 9.46362 19.3323 7.60449 19.1123C7.84934 15.9947 8.1363 12.8807 8.46537 9.77051Z"
        fill="#FBFBFE" />
    <path fill-rule="evenodd" clip-rule="evenodd"
        d="M16.9307 10.6328C18.4622 10.7846 19.9927 10.9523 21.522 11.1358C23.3807 11.7693 23.9308 12.9909 23.172 14.8007C22.9842 15.1565 22.7212 15.444 22.3829 15.663C23.3325 16.3885 23.6434 17.3467 23.3155 18.5374C23.0445 19.6203 22.3511 20.2191 21.2351 20.3339C19.513 20.2622 17.7913 20.1425 16.0698 19.9746C16.3473 16.8598 16.6343 13.7459 16.9307 10.6328Z"
        fill="#FBFBFE" />
    <path fill-rule="evenodd" clip-rule="evenodd"
        d="M10.4739 13.7939C10.3722 13.664 10.2287 13.6161 10.0435 13.6502C10.0435 13.3149 10.0435 12.9795 10.0435 12.6442C10.0435 12.3088 10.0435 11.9735 10.0435 11.6381C10.9821 11.5647 11.8908 11.6844 12.7696 11.9974C13.3306 12.5615 13.3306 13.1364 12.7696 13.7221C12.0167 13.9683 11.2515 13.9923 10.4739 13.7939Z"
        fill="#6962DA" />
    <path fill-rule="evenodd" clip-rule="evenodd"
        d="M18.5087 12.501C19.3296 12.4821 20.1427 12.554 20.9479 12.7166C21.6833 13.0835 21.8508 13.6344 21.45 14.3694C21.3205 14.542 21.1532 14.6618 20.9479 14.7286C20.0847 14.8004 19.2238 14.7764 18.3652 14.6568C18.4605 13.9421 18.5083 13.2235 18.5087 12.501Z"
        fill="#6B63DA" />
    <path fill-rule="evenodd" clip-rule="evenodd"
        d="M10.0436 12.6445C10.0436 12.9799 10.0436 13.3152 10.0436 13.6506C10.2288 13.6165 10.3723 13.6644 10.4741 13.7943C10.2827 13.7943 10.0914 13.7943 9.90007 13.7943C9.8561 13.3796 9.90393 12.9963 10.0436 12.6445Z"
        fill="#A49EE8" />
    <path fill-rule="evenodd" clip-rule="evenodd"
        d="M10.1872 17.6745C10.034 17.5403 9.8427 17.4923 9.61328 17.5308C9.61328 17.3871 9.61328 17.2434 9.61328 17.0996C9.61393 16.5199 9.66176 15.945 9.75676 15.375C10.5743 15.3888 11.3873 15.4607 12.1959 15.5906C12.9878 15.8067 13.2986 16.3098 13.1285 17.0996C13.009 17.4111 12.7937 17.6267 12.4829 17.7464C11.7147 17.8224 10.9495 17.7984 10.1872 17.6745Z"
        fill="#6861D9" />
    <path fill-rule="evenodd" clip-rule="evenodd"
        d="M18.2218 16.2373C19.1906 16.2721 20.1471 16.3918 21.0914 16.5966C21.8785 17.3268 21.8307 17.9976 20.9479 18.6087C19.9895 18.6768 19.033 18.6528 18.0783 18.5368C18.0531 17.7636 18.101 16.9972 18.2218 16.2373Z"
        fill="#6861D9" />
    <path fill-rule="evenodd" clip-rule="evenodd"
        d="M9.61337 17.0996C9.61337 17.2433 9.61337 17.387 9.61337 17.5308C9.84282 17.4923 10.0342 17.5403 10.1874 17.6745C9.94819 17.6745 9.70904 17.6745 9.46987 17.6745C9.43144 17.4447 9.47927 17.2531 9.61337 17.0996Z"
        fill="#B1ACEB" />
</svg>