<svg width="32" height="32" viewBox="0 0 32 32" fill="none" xmlns="http://www.w3.org/2000/svg">
    <g clip-path="url(#clip0_5412_753)">
        <path opacity="0.995" fill-rule="evenodd" clip-rule="evenodd"
            d="M14.6999 -0.03125C15.5458 -0.03125 16.3917 -0.03125 17.2376 -0.03125C22.8395 0.597956 27.0793 3.32664 29.9571 8.1548C31.1383 10.3296 31.8088 12.6448 31.9688 15.1005C31.9688 15.6793 31.9688 16.2582 31.9688 16.837C31.4122 22.989 28.4206 27.5058 22.9939 30.3874C21.1603 31.2547 19.2415 31.7818 17.2376 31.9687C16.3917 31.9687 15.5458 31.9687 14.6999 31.9687C8.98229 31.3328 4.70121 28.5215 1.85656 23.5346C0.703407 21.3105 0.0741346 18.9539 -0.03125 16.4649C-0.03125 16.1341 -0.03125 15.8034 -0.03125 15.4726C0.353868 9.54004 3.07727 5.04394 8.13896 1.98425C10.1938 0.853358 12.3807 0.181521 14.6999 -0.03125ZM7.70569 5.24007C9.66574 5.24007 11.6257 5.24007 13.5858 5.24007C13.5652 7.86574 13.5858 10.491 13.6477 13.116C15.395 10.9417 17.5819 10.3526 20.2086 11.3486C21.8278 12.1235 22.9522 13.3534 23.5819 15.0385C24.3987 17.4018 24.44 19.779 23.7057 22.1703C23.0922 23.9833 21.9471 25.3373 20.2705 26.2323C18.205 27.0467 16.2657 26.8193 14.4523 25.5501C13.8083 24.9934 13.3235 24.3216 12.9978 23.5346C12.6027 24.4321 12.2314 25.3417 11.8836 26.2633C11.4662 26.324 11.0432 26.3447 10.6148 26.3253C10.6148 19.8344 10.6148 13.3434 10.6148 6.85247C9.64507 6.85247 8.67541 6.85247 7.70569 6.85247C7.70569 6.31498 7.70569 5.77754 7.70569 5.24007Z"
            fill="#00A2DF" />
        <path opacity="0.993" fill-rule="evenodd" clip-rule="evenodd"
            d="M16.8048 12.4339C18.4278 12.3115 19.5729 12.9937 20.24 14.4804C21.0425 16.5467 21.2694 18.6759 20.9208 20.868C20.7096 22.3772 20.0391 23.6279 18.9092 24.6199C17.305 25.46 15.9742 25.1397 14.917 23.6587C14.119 22.2802 13.6857 20.7918 13.6172 19.1936C13.4412 17.3982 13.7713 15.7031 14.6075 14.1083C15.1198 13.2532 15.8522 12.695 16.8048 12.4339Z"
            fill="#00A2DF" />
    </g>
    <defs>
        <clipPath id="clip0_5412_753">
            <rect width="32" height="32" fill="white" />
        </clipPath>
    </defs>
</svg>