<svg width="32" height="32" viewBox="0 0 32 32" fill="none" xmlns="http://www.w3.org/2000/svg">
    <path opacity="0.959" fill-rule="evenodd" clip-rule="evenodd"
        d="M11.2736 0C11.4238 0 11.574 0 11.7241 0C7.82434 4.05045 3.9197 8.10553 0.0102539 12.1653C0.0102539 11.7147 0.0102539 11.2641 0.0102539 10.8136C0.160439 10.8136 0.235521 10.7385 0.235521 10.5883C3.84601 6.97734 7.52539 3.4479 11.2736 0Z"
        fill="#D1953E" />
    <path opacity="0.999" fill-rule="evenodd" clip-rule="evenodd"
        d="M9.69655 0C10.2222 0 10.7478 0 11.2734 0C7.5252 3.4479 3.84582 6.97734 0.235331 10.5883C0.201654 10.3513 0.239206 10.126 0.347965 9.91243C1.64649 8.72794 2.81036 7.45133 3.8396 6.08263C5.96581 4.29481 7.99321 2.37991 9.92182 0.337924C9.79657 0.251731 9.72149 0.139089 9.69655 0Z"
        fill="#CC913C" />
    <path opacity="0.992" fill-rule="evenodd" clip-rule="evenodd"
        d="M11.7241 0C11.9249 0.137377 12.1501 0.212464 12.3999 0.225283C11.9272 0.823565 11.3641 1.34922 10.7104 1.80226C10.6017 2.01583 10.5641 2.24111 10.5978 2.47811C10.1624 2.52961 9.78691 2.71734 9.47147 3.04131C7.03109 5.48187 4.59068 7.92244 2.15029 10.363C1.7419 10.8724 1.404 11.3981 1.13659 11.94C0.726063 12.0145 0.35061 12.1647 0.0102539 12.3905C0.0102539 12.3155 0.0102539 12.2403 0.0102539 12.1653C3.9197 8.10553 7.82434 4.05044 11.7241 0Z"
        fill="#D69A41" />
    <path opacity="0.969" fill-rule="evenodd" clip-rule="evenodd"
        d="M8.57023 0.225586C7.75231 0.930563 6.96388 1.6815 6.20493 2.47841C6.13794 3.40842 5.64987 3.89654 4.74069 3.94275C3.58291 5.10061 2.41902 6.26458 1.24905 7.43463C1.21643 8.10849 0.878534 8.48395 0.235352 8.56104C0.394187 7.91804 0.619455 7.31728 0.911153 6.75878C2.93245 4.88752 4.88477 2.93508 6.7681 0.901434C7.31685 0.592571 7.91757 0.367289 8.57023 0.225586Z"
        fill="#BE8435" />
    <path opacity="0.979" fill-rule="evenodd" clip-rule="evenodd"
        d="M13.5261 0.450282C13.7495 0.411624 13.8997 0.486733 13.9767 0.675565C12.3851 2.33824 10.7331 3.95277 9.02079 5.51914C9.07224 5.60898 9.14735 5.64651 9.24606 5.63178C8.86727 5.97139 8.41674 6.19668 7.89446 6.30763C7.79574 6.32236 7.72064 6.28483 7.66919 6.19499C9.60392 4.22219 11.5562 2.30729 13.5261 0.450282Z"
        fill="#E2A547" />
    <path opacity="0.921" fill-rule="evenodd" clip-rule="evenodd"
        d="M6.76808 0.901367C4.88475 2.93502 2.93243 4.88745 0.911133 6.75871C2.03747 3.98024 3.98979 2.02778 6.76808 0.901367Z"
        fill="#B87E32" />
    <path opacity="0.999" fill-rule="evenodd" clip-rule="evenodd"
        d="M9.69654 0C9.72148 0.139089 9.79656 0.251731 9.92181 0.337924C7.99321 2.37991 5.96581 4.29481 3.8396 6.08263C4.951 4.70793 6.18997 3.43132 7.55651 2.25283C7.647 1.94372 7.75963 1.64335 7.89441 1.3517C8.34972 1.04655 8.72517 0.671072 9.02074 0.225283C9.27056 0.212464 9.49583 0.137377 9.69654 0Z"
        fill="#C88D3A" />
    <path opacity="0.945" fill-rule="evenodd" clip-rule="evenodd"
        d="M14.8777 0.901367C15.1502 0.998712 15.3755 1.14889 15.5535 1.35193C14.1971 2.78333 12.8455 4.21011 11.4987 5.6323C11.1984 5.6323 10.898 5.6323 10.5977 5.6323C11.9475 3.9822 13.3742 2.40522 14.8777 0.901367Z"
        fill="#F0B24D" />
    <path opacity="0.972" fill-rule="evenodd" clip-rule="evenodd"
        d="M15.5536 1.35156C15.8034 1.36438 16.0287 1.43947 16.2294 1.57685C15.035 2.77127 13.8336 3.97277 12.6251 5.18137C12.3342 5.41278 12.3342 5.63806 12.6251 5.85721C12.2608 5.73601 11.8854 5.66092 11.4988 5.63193C12.8455 4.20974 14.1971 2.78296 15.5536 1.35156Z"
        fill="#F6B750" />
    <path fill-rule="evenodd" clip-rule="evenodd"
        d="M8.57023 0.225586C8.72042 0.225586 8.87058 0.225586 9.02077 0.225586C8.7252 0.671375 8.34974 1.04685 7.89443 1.352C7.75966 1.64365 7.64702 1.94402 7.55653 2.25313C6.18999 3.43163 4.95103 4.70824 3.83963 6.08293C2.57027 7.12678 1.36885 8.25319 0.235352 9.46217C0.235352 9.1618 0.235352 8.86141 0.235352 8.56104C0.878534 8.48395 1.21643 8.10849 1.24905 7.43463C2.41902 6.26458 3.58291 5.10061 4.74069 3.94275C5.64987 3.89654 6.13794 3.40842 6.20493 2.47841C6.96388 1.6815 7.75231 0.930563 8.57023 0.225586Z"
        fill="#C48938" />
    <path opacity="0.981" fill-rule="evenodd" clip-rule="evenodd"
        d="M16.2294 1.57715C16.655 1.82586 17.0303 2.12623 17.3558 2.47828C16.9291 2.60164 16.5538 2.82693 16.2294 3.15413C15.316 4.21787 14.3398 5.1941 13.301 6.0828C13.0511 6.06998 12.8259 5.99489 12.6252 5.85752C12.3343 5.63836 12.3343 5.41308 12.6252 5.18167C13.8337 3.97307 15.0351 2.77157 16.2294 1.57715Z"
        fill="#FBBC52" />
    <path opacity="0.974" fill-rule="evenodd" clip-rule="evenodd"
        d="M17.3558 2.47852C17.5811 2.62871 17.8064 2.77888 18.0316 2.92908C17.0565 4.05448 16.0052 5.10581 14.8779 6.08304C14.6233 6.33587 14.4731 6.63626 14.4274 6.98417C14.0019 6.73545 13.6265 6.43509 13.301 6.08304C14.3398 5.19434 15.316 4.2181 16.2295 3.15436C16.5539 2.82716 16.9292 2.60188 17.3558 2.47852Z"
        fill="#F6B74D" />
    <path opacity="0.998" fill-rule="evenodd" clip-rule="evenodd"
        d="M13.9766 0.675744C14.3052 0.66056 14.6056 0.735646 14.8777 0.901026C13.3741 2.40488 11.9474 3.98186 10.5976 5.63196C10.1471 5.63196 9.69655 5.63196 9.24602 5.63196C9.14731 5.64669 9.0722 5.60916 9.02075 5.51932C10.7331 3.95295 12.385 2.33842 13.9766 0.675744Z"
        fill="#E9AB4A" />
    <path opacity="0.98" fill-rule="evenodd" clip-rule="evenodd"
        d="M18.0315 2.92871C18.3636 3.13964 18.5888 3.44003 18.7073 3.82984C17.4307 5.03134 16.1544 6.23286 14.8778 7.43436C14.6525 7.35928 14.5023 7.20908 14.4272 6.9838C14.473 6.63589 14.6232 6.3355 14.8778 6.08267C16.0051 5.10544 17.0563 4.05411 18.0315 2.92871Z"
        fill="#F0B147" />
    <path opacity="0.971" fill-rule="evenodd" clip-rule="evenodd"
        d="M18.7072 3.83008C19.1041 4.00181 19.3294 4.30218 19.383 4.73121C17.9528 5.86204 16.6012 7.06354 15.3282 8.33573C15.0803 8.08681 14.9302 7.78645 14.8777 7.4346C16.1543 6.2331 17.4306 5.03158 18.7072 3.83008Z"
        fill="#EBAB42" />
    <path opacity="0.971" fill-rule="evenodd" clip-rule="evenodd"
        d="M19.3832 4.73047C19.7152 4.9414 19.9405 5.24179 20.059 5.6316C18.481 6.9185 17.0544 8.19509 15.7789 9.4614C15.6287 9.08592 15.4786 8.71047 15.3284 8.33499C16.6014 7.0628 17.953 5.8613 19.3832 4.73047Z"
        fill="#E5A53C" />
    <path opacity="0.999" fill-rule="evenodd" clip-rule="evenodd"
        d="M12.3999 0.225242C12.8035 0.195054 13.179 0.270141 13.5263 0.450525C11.5564 2.30753 9.60406 4.22243 7.66934 6.19523C7.72079 6.28507 7.79589 6.3226 7.8946 6.30787C7.37511 6.6772 6.92458 7.12776 6.543 7.65957C4.82169 9.02705 3.16974 10.4914 1.58712 12.0526C0.998861 12.7486 0.473223 13.462 0.0102539 14.1928C0.0102539 13.592 0.0102539 12.9913 0.0102539 12.3905C0.35061 12.1647 0.726063 12.0145 1.13659 11.9399C1.404 11.3981 1.7419 10.8724 2.15029 10.363C4.59068 7.9224 7.03109 5.48183 9.47147 3.04127C9.78691 2.7173 10.1624 2.52957 10.5978 2.47807C10.5641 2.24107 10.6017 2.01579 10.7104 1.80222C11.3641 1.34918 11.9272 0.823525 12.3999 0.225242Z"
        fill="#DCA044" />
    <path opacity="0.999" fill-rule="evenodd" clip-rule="evenodd"
        d="M3.83969 6.08301C2.81045 7.45171 1.64658 8.72832 0.348051 9.91281C0.239292 10.1264 0.20174 10.3517 0.235417 10.5887C0.235417 10.7389 0.160336 10.8139 0.0101502 10.8139C-0.0292039 10.3362 0.0458776 9.8856 0.235417 9.46225C1.36892 8.25327 2.57033 7.12685 3.83969 6.08301Z"
        fill="#C98D3A" />
    <path opacity="0.977" fill-rule="evenodd" clip-rule="evenodd"
        d="M20.0589 5.63184C20.2618 5.80992 20.4121 6.0352 20.5094 6.30768C19.0037 7.96383 17.5019 9.46569 16.0041 10.8133C15.8578 10.3774 15.7827 9.9268 15.7788 9.46164C17.0543 8.19533 18.4809 6.91874 20.0589 5.63184Z"
        fill="#DF9F37" />
    <path opacity="0.986" fill-rule="evenodd" clip-rule="evenodd"
        d="M20.5094 6.30762C20.5222 6.55746 20.5972 6.78274 20.7346 6.98346C19.1328 8.60836 17.4807 10.1853 15.7788 11.7144C15.7636 11.3858 15.8387 11.0854 16.004 10.8133C17.5018 9.46563 19.0037 7.96376 20.5094 6.30762Z"
        fill="#DB9B33" />
    <path opacity="0.966" fill-rule="evenodd" clip-rule="evenodd"
        d="M20.7349 6.9834C20.8723 7.18413 20.9473 7.40941 20.9601 7.65925C19.1769 9.38239 17.3748 11.1096 15.5537 12.8407C15.5827 12.4541 15.6578 12.0787 15.779 11.7143C17.4809 10.1853 19.133 8.60829 20.7349 6.9834Z"
        fill="#D89730" />
    <path opacity="0.953" fill-rule="evenodd" clip-rule="evenodd"
        d="M6.543 7.65918C6.17908 8.16336 5.87873 8.68901 5.64193 9.23616C3.62667 10.9174 1.82453 12.7948 0.235521 14.8682C0.160439 14.8682 0.0853354 14.8682 0.0102539 14.8682C0.0102539 14.6429 0.0102539 14.4177 0.0102539 14.1924C0.473223 13.4616 0.998861 12.7482 1.58712 12.0522C3.16974 10.491 4.82169 9.02667 6.543 7.65918Z"
        fill="#E2A547" />
    <path opacity="0.983" fill-rule="evenodd" clip-rule="evenodd"
        d="M20.96 7.65918C20.96 7.80938 20.96 7.95955 20.96 8.10974C20.9895 8.27621 20.9519 8.4264 20.8473 8.56031C18.6323 10.7756 16.417 12.9909 14.202 15.2061C13.601 15.8061 12.9252 16.2943 12.1746 16.6705C13.3912 15.455 14.5175 14.1784 15.5536 12.8407C17.3746 11.1095 19.1768 9.38232 20.96 7.65918Z"
        fill="#D5942C" />
    <path opacity="0.995" fill-rule="evenodd" clip-rule="evenodd"
        d="M20.9601 8.11035C21.1637 8.27008 21.2387 8.49536 21.1854 8.7862C14.276 15.9126 7.33024 22.8963 0.348155 29.7375C0.29587 29.4588 0.183237 29.2335 0.0102539 29.0616C0.0102539 28.7613 0.0102539 28.4608 0.0102539 28.1605C0.254263 28.1517 0.47953 28.0765 0.686055 27.9352C2.27198 26.1298 3.99904 24.4776 5.8672 22.979C7.8946 20.8012 9.99709 18.6986 12.1747 16.6711C12.9254 16.2949 13.6012 15.8067 14.2021 15.2068C16.4171 12.9915 18.6324 10.7762 20.8475 8.56092C20.952 8.42701 20.9896 8.27681 20.9601 8.11035Z"
        fill="#D3922A" />
    <path opacity="0.988" fill-rule="evenodd" clip-rule="evenodd"
        d="M21.4106 9.46191C21.4106 9.76228 21.4106 10.0627 21.4106 10.363C21.1914 10.4727 20.9662 10.5853 20.7348 10.701C14.0394 17.3216 7.43161 24.005 0.911322 30.7511C0.577048 30.9003 0.2767 31.0881 0.0102539 31.3143C0.0102539 31.1641 0.0102539 31.014 0.0102539 30.8638C7.04424 23.679 14.1777 16.5452 21.4106 9.46191Z"
        fill="#CC8A24" />
    <path fill-rule="evenodd" clip-rule="evenodd"
        d="M5.64176 9.23633C5.64176 9.5367 5.64176 9.83709 5.64176 10.1375C5.50268 10.1125 5.39005 10.0374 5.30386 9.91218C3.66205 11.6254 1.97254 13.2774 0.235352 14.8684C1.82436 12.7949 3.6265 10.9176 5.64176 9.23633Z"
        fill="#E7AA49" />
    <path opacity="0.993" fill-rule="evenodd" clip-rule="evenodd"
        d="M21.4106 10.3633C21.4877 10.5521 21.6377 10.6272 21.8612 10.5886C21.9553 10.7511 22.1054 10.8638 22.3117 10.9265C21.9249 11.2777 21.4744 11.4654 20.9601 11.4897C20.9865 11.9365 20.8362 12.312 20.5096 12.6161C15.0908 17.8828 9.7595 23.2521 4.5156 28.7238C3.26415 29.8644 1.98763 30.9532 0.686055 31.9904C0.460788 31.9904 0.235521 31.9904 0.0102539 31.9904C0.0102539 31.7651 0.0102539 31.5398 0.0102539 31.3146C0.2767 31.0884 0.577048 30.9005 0.911322 30.7514C7.43161 24.0053 14.0394 17.3218 20.7348 10.7012C20.9662 10.5856 21.1914 10.4729 21.4106 10.3633Z"
        fill="#C88620" />
    <path opacity="0.919" fill-rule="evenodd" clip-rule="evenodd"
        d="M5.64193 10.5879C5.64193 11.0385 5.64193 11.489 5.64193 11.9396C5.49553 11.8711 5.34537 11.796 5.1914 11.7143C3.45328 13.5272 1.72625 15.3294 0.0102539 17.1211C0.0102539 16.6705 0.0102539 16.22 0.0102539 15.7694C1.88878 14.0408 3.76602 12.3136 5.64193 10.5879Z"
        fill="#F0B24E" />
    <path opacity="0.985" fill-rule="evenodd" clip-rule="evenodd"
        d="M21.8611 10.5879C22.393 10.6271 22.9185 10.7022 23.438 10.8132C21.4552 12.9146 19.3902 14.9422 17.2432 16.8958C16.9231 17.325 16.6602 17.7755 16.4547 18.2475C15.7041 18.6237 15.0283 19.1119 14.4273 19.7118C10.5583 23.739 6.61615 27.6814 2.60081 31.5392C2.49621 31.673 2.45866 31.8232 2.48817 31.9897C1.88745 31.9897 1.28675 31.9897 0.686035 31.9897C1.98761 30.9525 3.26413 29.8637 4.51558 28.7231C9.75948 23.2515 15.0908 17.8821 20.5095 12.6154C20.8362 12.3113 20.9864 11.9359 20.9601 11.489C21.4744 11.4647 21.9249 11.277 22.3117 10.9258C22.1053 10.8631 21.9553 10.7505 21.8611 10.5879Z"
        fill="#C3811B" />
    <path opacity="0.992" fill-rule="evenodd" clip-rule="evenodd"
        d="M24.1138 11.0391C24.5425 11.1057 24.918 11.2559 25.2402 11.4896C18.2494 18.1805 11.4163 25.014 4.74086 31.9903C4.14014 31.9903 3.53944 31.9903 2.93872 31.9903C7.50718 27.4964 12.0125 22.9157 16.4547 18.2481C19.0266 15.841 21.5796 13.438 24.1138 11.0391Z"
        fill="#BC7914" />
    <path opacity="0.99" fill-rule="evenodd" clip-rule="evenodd"
        d="M25.24 11.4893C25.6124 11.5252 25.9127 11.6754 26.1411 11.9398C20.0819 17.9995 13.9997 24.0821 7.89446 30.1877C7.34623 30.7331 6.8957 31.3339 6.54286 31.99C5.94214 31.99 5.34144 31.99 4.74072 31.99C11.4162 25.0136 18.2493 18.1801 25.24 11.4893Z"
        fill="#B6730E" />
    <path opacity="0.976" fill-rule="evenodd" clip-rule="evenodd"
        d="M5.64193 11.9401C5.64193 12.3156 5.64193 12.6911 5.64193 13.0665C5.36301 12.861 5.06266 12.8234 4.74086 12.9539C3.11835 14.5388 1.54148 16.1534 0.0102539 17.7975C0.0102539 17.5722 0.0102539 17.3469 0.0102539 17.1216C1.72625 15.33 3.45328 13.5277 5.1914 11.7148C5.34537 11.7966 5.49553 11.8717 5.64193 11.9401Z"
        fill="#F6B750" />
    <path opacity="0.99" fill-rule="evenodd" clip-rule="evenodd"
        d="M26.1412 11.94C26.5647 11.879 26.865 12.0291 27.0423 12.3905C21.3313 18.5149 15.4369 24.4472 9.35881 30.1879C8.8318 30.7671 8.34371 31.3677 7.89457 31.9901C7.44404 31.9901 6.9935 31.9901 6.54297 31.9901C6.8958 31.3341 7.34634 30.7333 7.89457 30.1879C13.9998 24.0823 20.082 17.9996 26.1412 11.94Z"
        fill="#B16D09" />
    <path fill-rule="evenodd" clip-rule="evenodd"
        d="M5.64193 10.1374C5.64193 10.2876 5.64193 10.4378 5.64193 10.588C3.76602 12.3137 1.88878 14.0409 0.0102539 15.7695C0.0102539 15.4691 0.0102539 15.1687 0.0102539 14.8683C0.0853354 14.8683 0.160439 14.8683 0.235521 14.8683C1.97271 13.2774 3.66222 11.6253 5.30403 9.91211C5.39022 10.0374 5.50285 10.1125 5.64193 10.1374Z"
        fill="#EBAD4B" />
    <path opacity="0.992" fill-rule="evenodd" clip-rule="evenodd"
        d="M27.0422 12.3906C27.4727 12.5202 27.8482 12.7454 28.1686 13.0665C28.5141 13.4815 28.4389 13.7818 27.9433 13.9676C27.734 14.2354 27.659 14.5358 27.718 14.8687C27.4811 14.8351 27.2558 14.8726 27.0422 14.9814C27.2909 15.2362 27.2159 15.424 26.817 15.5446C26.685 15.4974 26.5723 15.4223 26.4791 15.3193C25.9553 16.0689 25.4298 16.8199 24.9022 17.5721C24.7519 17.8724 24.6019 17.8724 24.4517 17.5721C24.2719 18.1892 23.8964 18.6397 23.3253 18.9238C23.2503 18.8488 23.1751 18.7736 23.1001 18.6985C22.946 18.9878 22.9836 19.2507 23.2127 19.487C22.2488 19.8993 21.2727 20.6502 20.2842 21.7399C20.3592 21.8149 20.4345 21.8901 20.5095 21.9651C20.0918 22.4806 19.4913 22.8561 18.7074 23.0915C18.5686 23.5824 18.3057 23.9954 17.9189 24.3306C17.713 24.0706 17.5254 24.1082 17.3557 24.4432C17.8914 24.6627 17.8162 24.8129 17.1305 24.8938C16.9491 25.3381 16.6486 25.676 16.2294 25.9076C16.2765 26.0396 16.3517 26.1522 16.4547 26.2455C15.4996 26.5848 14.6736 27.148 13.9767 27.9351C14.2133 28.296 14.0631 28.4837 13.5262 28.4983C13.0489 28.9408 12.711 29.429 12.5125 29.9627C12.4374 29.8876 12.3623 29.8124 12.2872 29.7374C11.6915 30.3828 11.0532 31.1339 10.3725 31.9902C9.54648 31.9902 8.72052 31.9902 7.89453 31.9902C8.34367 31.3677 8.83176 30.7671 9.35877 30.1879C15.4369 24.4473 21.3313 18.5149 27.0422 12.3906Z"
        fill="#AD6905" />
    <path opacity="0.992" fill-rule="evenodd" clip-rule="evenodd"
        d="M5.64193 13.0665C5.64193 13.1416 5.64193 13.2167 5.64193 13.2918C5.23089 14.1964 4.66772 15.0225 3.95243 15.7699C3.42792 15.9921 2.97738 16.4426 2.60083 17.1216C1.53635 17.7738 0.672832 18.5999 0.0102539 19.5997C0.0102539 18.9989 0.0102539 18.3983 0.0102539 17.7975C1.54148 16.1534 3.11835 14.5388 4.74086 12.9539C5.06266 12.8234 5.36301 12.861 5.64193 13.0665Z"
        fill="#FBBC52" />
    <path opacity="0.999" fill-rule="evenodd" clip-rule="evenodd"
        d="M23.4379 10.8135C23.6877 10.8263 23.913 10.9014 24.1137 11.0388C21.5794 13.4377 19.0265 15.8407 16.4546 18.2478C16.66 17.7758 16.9229 17.3253 17.243 16.8961C19.39 14.9425 21.4551 12.9149 23.4379 10.8135Z"
        fill="#C07D18" />
    <path opacity="0.986" fill-rule="evenodd" clip-rule="evenodd"
        d="M28.1687 13.0664C28.9855 13.651 29.586 14.4019 29.9708 15.3192C24.9597 20.2644 19.9286 25.3333 14.8779 30.5258C14.5024 30.7511 14.127 30.9764 13.7516 31.2017C13.9028 31.4238 13.9028 31.6867 13.7516 31.9901C12.6252 31.9901 11.4989 31.9901 10.3726 31.9901C11.0533 31.1338 11.6916 30.3827 12.2873 29.7373C12.3624 29.8123 12.4375 29.8876 12.5126 29.9626C12.7111 29.4289 13.049 28.9407 13.5263 28.4983C14.0632 28.4836 14.2134 28.296 13.9768 27.9351C14.6737 27.1479 15.4997 26.5847 16.4548 26.2454C16.3518 26.1522 16.2766 26.0395 16.2295 25.9075C16.6487 25.6759 16.9492 25.338 17.1306 24.8937C17.8163 24.8129 17.8915 24.6626 17.3558 24.4432C17.5255 24.1082 17.7131 24.0706 17.919 24.3305C18.3058 23.9953 18.5687 23.5824 18.7074 23.0915C19.4914 22.8561 20.0919 22.4805 20.5096 21.9651C20.4346 21.89 20.3593 21.8148 20.2843 21.7398C21.2728 20.6501 22.2489 19.8992 23.2128 19.487C22.9837 19.2506 22.9461 18.9877 23.1001 18.6985C23.1752 18.7735 23.2504 18.8487 23.3254 18.9238C23.8965 18.6397 24.272 18.1891 24.4518 17.5721C24.602 17.8724 24.752 17.8724 24.9023 17.5721C25.4299 16.8198 25.9554 16.0688 26.4792 15.3192C26.5724 15.4223 26.6851 15.4974 26.8171 15.5445C27.216 15.4239 27.291 15.2362 27.0423 14.9813C27.2559 14.8725 27.4811 14.835 27.7181 14.8687C27.6591 14.5357 27.7341 14.2354 27.9434 13.9675C28.439 13.7818 28.5142 13.4814 28.1687 13.0664Z"
        fill="#B06D09" />
    <path opacity="0.967" fill-rule="evenodd" clip-rule="evenodd"
        d="M5.64193 13.292C5.64193 13.8176 5.64193 14.3433 5.64193 14.869C5.14648 16.0417 4.32051 16.9429 3.16399 17.5724C2.42084 18.6535 1.55732 19.6299 0.573422 20.501C0.345654 20.3758 0.157939 20.2257 0.0102539 20.0505C0.0102539 19.9002 0.0102539 19.7502 0.0102539 19.5999C0.672832 18.6001 1.53635 17.774 2.60083 17.1218C2.97738 16.4428 3.42792 15.9923 3.95243 15.7701C4.66772 15.0226 5.23089 14.1966 5.64193 13.292Z"
        fill="#F6B74D" />
    <path opacity="0.989" fill-rule="evenodd" clip-rule="evenodd"
        d="M29.9707 15.3193C30.3649 15.5805 30.5902 15.956 30.6465 16.4457C30.6801 16.6827 30.6427 16.908 30.5339 17.1216C29.7276 17.1268 29.2019 17.5773 28.957 18.4733C28.2717 19.3077 27.4457 19.9836 26.4791 20.5008C25.4789 21.7282 24.4652 22.9298 23.438 24.1054C22.989 24.5557 22.4632 24.8936 21.8611 25.1191C21.5076 25.8168 20.9821 26.3048 20.2842 26.5835C20.2842 26.8087 20.2842 27.034 20.2842 27.2593C20.0195 27.21 19.7943 27.285 19.6084 27.4846C18.5571 28.9866 17.2807 30.263 15.7789 31.3144C15.5793 31.5003 15.5043 31.7255 15.5536 31.9902C14.9529 31.9902 14.3522 31.9902 13.7515 31.9902C13.9027 31.6868 13.9027 31.4239 13.7515 31.2018C14.1269 30.9765 14.5023 30.7512 14.8778 30.5259C19.9285 25.3334 24.9596 20.2645 29.9707 15.3193Z"
        fill="#B4730F" />
    <path opacity="0.923" fill-rule="evenodd" clip-rule="evenodd"
        d="M5.64193 14.8682C5.64193 15.7693 5.64193 16.6704 5.64193 17.5716C5.47938 17.4774 5.36675 17.3273 5.30403 17.121C3.45734 18.7741 1.69275 20.5014 0.0102539 22.3025C0.0102539 21.5516 0.0102539 20.8005 0.0102539 20.0497C0.157939 20.2249 0.345654 20.375 0.573422 20.5002C1.55732 19.6291 2.42084 18.6527 3.16399 17.5716C4.32051 16.9421 5.14648 16.0409 5.64193 14.8682Z"
        fill="#F0B148" />
    <path opacity="0.987" fill-rule="evenodd" clip-rule="evenodd"
        d="M30.6464 16.4453C30.9861 16.824 31.2114 17.2746 31.3222 17.797C31.103 17.9067 30.8777 18.0194 30.6464 18.1349C26.0512 22.6931 21.4706 27.3114 16.9051 31.9898C16.4546 31.9898 16.004 31.9898 15.5535 31.9898C15.5042 31.7251 15.5792 31.4998 15.7788 31.314C17.2806 30.2626 18.557 28.9861 19.6083 27.4842C19.7941 27.2846 20.0194 27.2095 20.2841 27.2589C20.2841 27.0336 20.2841 26.8083 20.2841 26.583C20.982 26.3044 21.5075 25.8164 21.861 25.1187C22.4631 24.8932 22.9889 24.5553 23.4378 24.1049C24.4651 22.9294 25.4788 21.7277 26.4789 20.5004C27.4456 19.9831 28.2716 19.3073 28.9569 18.4729C29.2017 17.5769 29.7275 17.1263 30.5338 17.1212C30.6426 16.9076 30.6799 16.6823 30.6464 16.4453Z"
        fill="#B77815" />
    <path opacity="0.974" fill-rule="evenodd" clip-rule="evenodd"
        d="M21.1854 8.78613C21.1982 9.03597 21.2732 9.26125 21.4106 9.46198C14.1777 16.5453 7.04424 23.6791 0.0102539 30.8638C0.0102539 30.263 0.0102539 29.6624 0.0102539 29.0616C0.183237 29.2335 0.29587 29.4587 0.348155 29.7374C7.33024 22.8963 14.276 15.9125 21.1854 8.78613Z"
        fill="#CF8D27" />
    <path opacity="0.981" fill-rule="evenodd" clip-rule="evenodd"
        d="M5.64193 17.5717C5.64193 17.7219 5.64193 17.872 5.64193 18.0222C5.01569 18.9869 4.26478 19.8506 3.38926 20.613C2.36414 21.6759 1.2378 22.6146 0.0102539 23.429C0.0102539 23.0535 0.0102539 22.6781 0.0102539 22.3026C1.69275 20.5015 3.45734 18.7742 5.30403 17.1211C5.36675 17.3275 5.47938 17.4775 5.64193 17.5717Z"
        fill="#EBAB42" />
    <path opacity="0.987" fill-rule="evenodd" clip-rule="evenodd"
        d="M31.7728 19.1491C31.7728 19.2994 31.7728 19.4494 31.7728 19.5997C29.7683 21.4402 27.816 23.3177 25.9158 25.2317C25.7162 25.4176 25.6412 25.6429 25.6906 25.9076C25.4653 25.9076 25.24 25.9076 25.0148 25.9076C24.669 26.5231 24.2558 27.1237 23.7758 27.7098C22.3174 29.0176 20.8532 30.3317 19.3831 31.6523C19.5083 31.7386 19.5833 31.8512 19.6083 31.9902C19.4581 31.9902 19.3081 31.9902 19.1578 31.9902C19.0636 31.8276 18.9136 31.7149 18.7073 31.6523C22.9596 27.3996 27.2021 23.1569 31.4349 18.9238C31.5211 19.0491 31.6338 19.1241 31.7728 19.1491Z"
        fill="#BF8523" />
    <path opacity="0.986" fill-rule="evenodd" clip-rule="evenodd"
        d="M5.64193 18.0225C5.64193 18.398 5.64193 18.7733 5.64193 19.1489C5.47122 19.8166 5.13332 20.4172 4.62823 20.9511C3.04787 22.3064 1.62116 23.8082 0.348155 25.4568C0.261967 25.3315 0.149334 25.2565 0.0102539 25.2315C0.0102539 24.6307 0.0102539 24.0301 0.0102539 23.4292C1.2378 22.6148 2.36414 21.6761 3.38926 20.6132C4.26478 19.8509 5.01569 18.9871 5.64193 18.0225Z"
        fill="#E5A53D" />
    <path opacity="0.99" fill-rule="evenodd" clip-rule="evenodd"
        d="M31.7727 19.5996C31.8478 19.8999 31.923 20.2004 31.998 20.5007C28.6555 23.6545 25.3141 26.8834 21.9736 30.1879C21.5925 30.6067 21.2546 31.0573 20.9599 31.5396C21.0417 31.6935 21.1167 31.8437 21.1852 31.9901C20.6596 31.9901 20.1339 31.9901 19.6083 31.9901C19.5833 31.8511 19.5083 31.7385 19.3831 31.6522C20.8531 30.3316 22.3174 29.0175 23.7758 27.7098C24.2558 27.1236 24.6689 26.523 25.0147 25.9075C25.24 25.9075 25.4653 25.9075 25.6905 25.9075C25.6412 25.6428 25.7162 25.4175 25.9158 25.2317C27.8159 23.3177 29.7683 21.4402 31.7727 19.5996Z"
        fill="#C38A28" />
    <path opacity="0.961" fill-rule="evenodd" clip-rule="evenodd"
        d="M5.64193 19.1494C5.64193 19.7502 5.64193 20.3508 5.64193 20.9517C3.92026 23.1243 2.04302 25.0016 0.0102539 26.5837C0.0102539 26.1332 0.0102539 25.6826 0.0102539 25.232C0.149334 25.257 0.261967 25.3321 0.348155 25.4573C1.62116 23.8087 3.04787 22.307 4.62823 20.9517C5.13332 20.4178 5.47122 19.8172 5.64193 19.1494Z"
        fill="#DF9F37" />
    <path opacity="0.914" fill-rule="evenodd" clip-rule="evenodd"
        d="M5.64193 20.9512C5.64193 21.2515 5.64193 21.552 5.64193 21.8523C3.83979 23.8048 1.96258 25.6821 0.0102539 27.4844C0.0102539 27.1841 0.0102539 26.8835 0.0102539 26.5832C2.04302 25.0011 3.92026 23.1238 5.64193 20.9512Z"
        fill="#DB9A33" />
    <path opacity="0.988" fill-rule="evenodd" clip-rule="evenodd"
        d="M31.9981 21.627C32.0132 21.9556 31.9382 22.2559 31.7728 22.5281C28.6135 25.5129 25.5347 28.5916 22.5369 31.7647C22.4598 31.9535 22.3098 32.0287 22.0864 31.9899C22.0613 31.851 21.9863 31.7383 21.8611 31.652C22.9043 30.7241 23.8054 29.7103 24.5643 28.6107C24.7308 28.6402 24.881 28.6026 25.0148 28.4981C27.3069 26.1682 29.6346 23.878 31.9981 21.627Z"
        fill="#CB9736" />
    <path fill-rule="evenodd" clip-rule="evenodd"
        d="M16.4546 18.248C12.0123 22.9157 7.50701 27.4963 2.93855 31.9903C2.78836 31.9903 2.6382 31.9903 2.48801 31.9903C2.4585 31.8238 2.49605 31.6735 2.60064 31.5397C6.61599 27.682 10.5582 23.7395 14.4272 19.7124C15.0281 19.1125 15.7039 18.6243 16.4546 18.248Z"
        fill="#C07D18" />
    <path opacity="0.999" fill-rule="evenodd" clip-rule="evenodd"
        d="M31.998 20.501C31.998 20.8765 31.998 21.2518 31.998 21.6274C29.6345 23.8784 27.3069 26.1686 25.0148 28.4985C24.881 28.603 24.7307 28.6407 24.5642 28.6111C24.1784 28.7925 23.8031 29.0178 23.4379 29.287C22.7628 30.1861 22.087 31.0872 21.4105 31.9904C21.3355 31.9904 21.2602 31.9904 21.1852 31.9904C21.1167 31.844 21.0417 31.6937 20.96 31.5398C21.2546 31.0575 21.5925 30.6069 21.9737 30.1881C25.3141 26.8837 28.6555 23.6547 31.998 20.501Z"
        fill="#C7912F" />
    <path opacity="0.942" fill-rule="evenodd" clip-rule="evenodd"
        d="M5.64193 21.8525C5.57784 22.284 5.65295 22.6593 5.8672 22.979C3.99904 24.4775 2.27198 26.1298 0.686055 27.9352C0.47953 28.0764 0.254263 28.1517 0.0102539 28.1605C0.0102539 27.9352 0.0102539 27.7099 0.0102539 27.4846C1.96258 25.6823 3.83979 23.8051 5.64193 21.8525Z"
        fill="#D89730" />
    <path opacity="0.999" fill-rule="evenodd" clip-rule="evenodd"
        d="M31.5476 18.4733C31.685 18.6741 31.76 18.8993 31.7729 19.1492C31.6339 19.1242 31.5213 19.0492 31.435 18.9239C27.2022 23.157 22.9598 27.3997 18.7074 31.6524C18.9137 31.715 19.0638 31.8276 19.1579 31.9903C18.6324 31.9903 18.1066 31.9903 17.5811 31.9903C17.8919 31.3027 18.4177 30.8148 19.1579 30.5259C23.0199 26.4368 27.0373 22.3444 31.2097 18.248C31.296 18.3733 31.4086 18.4483 31.5476 18.4733Z"
        fill="#BC811E" />
    <path opacity="0.999" fill-rule="evenodd" clip-rule="evenodd"
        d="M31.3224 17.7969C31.4598 17.9976 31.5348 18.2229 31.5476 18.4727C31.4086 18.4477 31.296 18.3727 31.2097 18.2474C27.0373 22.3438 23.0199 26.4362 19.1579 30.5253C18.4177 30.8142 17.8919 31.3021 17.5811 31.9897C17.3558 31.9897 17.1305 31.9897 16.9053 31.9897C21.4708 27.3112 26.0513 22.6929 30.6466 18.1348C30.8779 18.0192 31.1032 17.9066 31.3224 17.7969Z"
        fill="#BA7D1A" />
    <path opacity="0.999" fill-rule="evenodd" clip-rule="evenodd"
        d="M31.7728 22.5283C31.7845 23.0697 31.7095 23.5953 31.5475 24.1053C28.6337 26.418 25.9305 28.9714 23.4379 31.7649C23.1377 31.7649 22.8371 31.7649 22.5369 31.7649C25.5347 28.5918 28.6134 25.5131 31.7728 22.5283Z"
        fill="#CF9D3C" />
    <path opacity="0.966" fill-rule="evenodd" clip-rule="evenodd"
        d="M31.5476 24.1055C31.4726 24.4058 31.3974 24.7063 31.3223 25.0066C29.1327 26.8571 27.0303 28.847 25.0149 30.9766C25.0662 31.0665 25.1415 31.1039 25.2401 31.0892C24.6914 31.3981 24.0906 31.6234 23.438 31.7651C25.9306 28.9716 28.6338 26.4182 31.5476 24.1055Z"
        fill="#D2A241" />
    <path fill-rule="evenodd" clip-rule="evenodd"
        d="M31.3224 25.0068C31.0971 25.4574 30.8718 25.908 30.6466 26.3585C29.9518 26.9008 29.276 27.5016 28.6192 28.1608C28.4333 28.3604 28.2081 28.4354 27.9434 28.3861C27.9769 28.6231 27.9395 28.8484 27.8307 29.0619C27.2894 29.4145 26.8765 29.8651 26.5918 30.4136C26.2131 30.7533 25.7626 30.9786 25.2402 31.0895C25.1415 31.1041 25.0663 31.0667 25.0149 30.9768C27.0304 28.8472 29.1328 26.8573 31.3224 25.0068Z"
        fill="#D6A747" />
    <path opacity="0.881" fill-rule="evenodd" clip-rule="evenodd"
        d="M30.6466 26.3584C29.6656 28.0904 28.314 29.4421 26.5918 30.4135C26.8765 29.8649 27.2894 29.4144 27.8308 29.0618C27.9396 28.8482 27.977 28.6229 27.9434 28.3859C28.2081 28.4353 28.4334 28.3603 28.6192 28.1607C29.2761 27.5015 29.9519 26.9007 30.6466 26.3584Z"
        fill="#D8AC4C" />
    <path opacity="0.999" fill-rule="evenodd" clip-rule="evenodd"
        d="M24.5644 28.6113C23.8055 29.7109 22.9044 30.7247 21.8612 31.6526C21.9864 31.7389 22.0614 31.8516 22.0864 31.9906C21.8612 31.9906 21.6359 31.9906 21.4106 31.9906C22.0871 31.0874 22.7629 30.1863 23.438 29.2872C23.8032 29.018 24.1785 28.7927 24.5644 28.6113Z"
        fill="#C89332" />
</svg>