<svg width="32" height="32" viewBox="0 0 32 32" fill="none" xmlns="http://www.w3.org/2000/svg">
    <rect width="32" height="32" rx="15" fill="#FAFAFA" />
    <path opacity="0.991" fill-rule="evenodd" clip-rule="evenodd"
        d="M15.7124 0.0316619C21.4584 -0.295193 25.9118 1.90862 29.0725 6.64312C31.3528 10.6711 31.7163 14.8713 30.1631 19.2438C28.1814 23.8923 24.7148 26.7573 19.7633 27.8387C17.6964 28.1346 15.645 28.0827 13.6091 27.6831C11.3753 29.0833 9.16811 30.5223 6.98751 32C6.96156 31.9481 6.93555 31.8963 6.9096 31.8444C7.11448 29.2804 7.25728 26.7136 7.33806 24.144C4.12487 20.9901 2.69667 17.1528 3.0535 12.6323C3.8068 7.14326 6.70215 3.26715 11.7395 1.00393C13.0336 0.515169 14.358 0.191084 15.7124 0.0316619Z"
        fill="#000001" />
    <path fill-rule="evenodd" clip-rule="evenodd"
        d="M20.0751 5.86523C21.0728 5.88515 21.4234 6.37774 21.1267 7.34309C20.7738 7.78419 20.3195 7.92676 19.7635 7.77089C19.5687 7.68012 19.4259 7.53754 19.335 7.34309C19.1715 6.6324 19.4182 6.1398 20.0751 5.86523Z"
        fill="#FBFCFE" />
    <path fill-rule="evenodd" clip-rule="evenodd"
        d="M14.9331 11.4653C15.0035 11.4101 15.0295 11.3324 15.011 11.2319C13.9586 11.2064 12.9198 11.2323 11.895 11.3097C11.6448 12.4968 11.4111 13.6895 11.1938 14.8877C10.5701 14.9006 9.94688 14.8877 9.32422 14.8488C9.90419 11.9923 10.4495 9.12732 10.9601 6.25391C11.5834 6.25391 12.2066 6.25391 12.8298 6.25391C12.622 7.36875 12.4143 8.48368 12.2066 9.59853C13.2465 9.62443 14.2852 9.59845 15.3226 9.52074C15.5551 8.43685 15.7627 7.34791 15.9458 6.25391C16.569 6.25391 17.1922 6.25391 17.8154 6.25391C17.2884 9.0798 16.7561 11.9058 16.2185 14.7321C15.6035 14.8837 14.9673 14.9356 14.3099 14.8877C14.5424 13.7515 14.7502 12.6107 14.9331 11.4653Z"
        fill="#FDFEFE" />
    <path fill-rule="evenodd" clip-rule="evenodd"
        d="M22.8012 6.25391C23.4504 6.25391 24.0996 6.25391 24.7488 6.25391C24.3197 8.20094 23.8782 10.1455 23.4245 12.0875C22.9284 12.1132 22.435 12.0872 21.9443 12.0098C22.2589 10.0962 22.5446 8.17753 22.8012 6.25391Z"
        fill="#FCFDFF" />
    <path fill-rule="evenodd" clip-rule="evenodd"
        d="M18.9849 8.58789C19.6081 8.58789 20.2313 8.58789 20.8545 8.58789C20.4399 10.6832 20.0504 12.7833 19.686 14.8882C19.0628 14.8882 18.4396 14.8882 17.8164 14.8882C18.1843 12.7838 18.5738 10.6836 18.9849 8.58789Z"
        fill="#FBFCFF" />
    <path fill-rule="evenodd" clip-rule="evenodd"
        d="M11.8955 11.31C12.9204 11.2325 13.9591 11.2066 15.0116 11.2322C15.03 11.3326 15.0041 11.4104 14.9337 11.4655C13.9502 11.3115 12.9375 11.2596 11.8955 11.31Z"
        fill="#0002D0" />
    <path fill-rule="evenodd" clip-rule="evenodd"
        d="M22.1002 12.71C23.3796 12.7052 23.7821 13.3015 23.3077 14.499C22.7239 15.1383 22.1007 15.1901 21.438 14.6545C21.0342 13.7767 21.2549 13.1285 22.1002 12.71Z"
        fill="#FDFDFF" />
    <path fill-rule="evenodd" clip-rule="evenodd"
        d="M10.805 17.8441C12.2624 18.0651 13.7165 18.3114 15.1675 18.5831C16.4394 18.731 17.7117 18.731 18.9847 18.5831C20.3738 18.3368 21.763 18.0905 23.1524 17.8441C23.75 17.8318 24.0486 18.1169 24.0482 18.6997C23.8502 19.7299 23.3568 20.5985 22.5681 21.3054C19.6475 23.7493 16.4795 24.1123 13.0642 22.3944C11.8826 21.7332 10.9608 20.8128 10.2987 19.6331C10.04 19.1497 10.0011 18.6571 10.1818 18.1553C10.3641 17.9858 10.5719 17.882 10.805 17.8441Z"
        fill="#FEFEFE" />
</svg>