<svg width="32" height="32" viewBox="0 0 32 32" fill="none" xmlns="http://www.w3.org/2000/svg">
    <g clip-path="url(#clip0_5472_114)">
        <rect width="32" height="32" fill="#FAFAFA" />
        <path
            d="M17.2097 16.8359H13.6804V22.6737H17.2097C17.9839 22.6737 18.7263 22.3662 19.2737 21.8188C19.8212 21.2714 20.1287 20.529 20.1287 19.7549C20.1287 18.9807 19.8212 18.2383 19.2737 17.6909C18.7263 17.1435 17.9839 16.8359 17.2097 16.8359Z"
            fill="#24333E" />
        <path
            d="M19.3166 11.2878C19.3448 10.952 19.2994 10.6142 19.1836 10.2978C19.0678 9.9814 18.8844 9.69408 18.6462 9.45585C18.4079 9.21761 18.1206 9.03422 17.8042 8.91844C17.4878 8.80266 17.15 8.75727 16.8142 8.78547H13.6838V13.8785H16.8682C17.2044 13.8882 17.539 13.8267 17.8499 13.6981C18.1607 13.5695 18.4409 13.3767 18.6721 13.1322C18.9032 12.8878 19.0801 12.5973 19.1912 12.2797C19.3023 11.9622 19.345 11.6247 19.3166 11.2895"
            fill="#24333E" />
        <path
            d="M16.9257 25.4829H9.95196V8.43475H8.10328V5.62375H16.8416C20.4824 5.62375 23.1015 7.50158 23.1015 10.8327C23.1371 11.7099 22.9268 12.5797 22.4943 13.3438C22.0618 14.1079 21.4244 14.7359 20.654 15.1571V15.2154C21.6415 15.5415 22.4943 16.1834 23.0808 17.0421C23.6673 17.9008 23.9549 18.9286 23.8994 19.9671C23.8994 24.0093 20.6814 25.4829 16.9257 25.4829ZM32 0H0V32H32V10.2967L29.3464 8.02434L32 5.56095V0Z"
            fill="#24333E" />
    </g>
    <defs>
        <clipPath id="clip0_5472_114">
            <rect width="32" height="32" fill="white" />
        </clipPath>
    </defs>
</svg>