<svg width="32" height="32" viewBox="0 0 32 32" fill="none" xmlns="http://www.w3.org/2000/svg">
    <g clip-path="url(#clip0_5270_2271)">
        <path opacity="0.991" fill-rule="evenodd" clip-rule="evenodd"
            d="M8.91553 2.70605C9.34008 2.70605 9.76461 2.70605 10.1892 2.70605C17.4299 3.82391 24.7003 4.88527 32.0001 5.89013C31.7826 10.5215 31.4112 15.1384 30.8857 19.7409C30 20.0287 29.0978 20.2409 28.1792 20.3777C28.1039 22.0239 27.9979 23.6689 27.8608 25.313C26.8526 23.9077 25.8177 22.5279 24.7563 21.1737C23.6764 21.4375 22.5884 21.6497 21.4926 21.8105C21.4396 21.8105 21.3865 21.8105 21.3334 21.8105C21.3334 19.3163 21.3334 16.8221 21.3334 14.3279C21.8744 14.379 22.4052 14.3259 22.9255 14.1687C21.1776 12.0227 19.3999 9.90002 17.5921 7.80058C17.2075 7.3885 16.8095 7.01701 16.3981 6.68615C14.0596 6.72382 11.7246 6.82996 9.39314 7.00456C9.39314 6.89842 9.34008 6.84536 9.23394 6.84536C9.14884 5.46383 9.04272 4.08407 8.91553 2.70605Z"
            fill="#F2714E" />
        <path fill-rule="evenodd" clip-rule="evenodd"
            d="M16.398 6.68652C14.3884 9.22716 12.3188 11.7214 10.1891 14.1691C9.82139 11.8151 9.55606 9.42708 9.39307 7.00493C11.7245 6.83033 14.0595 6.72419 16.398 6.68652Z"
            fill="#3A6F7B" />
        <path fill-rule="evenodd" clip-rule="evenodd"
            d="M16.3979 6.68652C16.8093 7.01738 17.2073 7.38887 17.5919 7.80095C19.3997 9.90039 21.1774 12.0231 22.9253 14.1691C22.405 14.3262 21.8742 14.3793 21.3332 14.3283C21.3332 16.8225 21.3332 19.3167 21.3332 21.8109C18.1525 22.4683 14.9684 23.1051 11.781 23.7214C11.781 20.5903 11.781 17.4593 11.781 14.3283C11.2171 14.3781 10.6864 14.325 10.189 14.1691C12.3186 11.7214 14.3883 9.22716 16.3979 6.68652Z"
            fill="#FBFCFD" />
        <path opacity="0.985" fill-rule="evenodd" clip-rule="evenodd"
            d="M9.23383 6.8457C9.33997 6.8457 9.39303 6.89877 9.39303 7.00491C9.55603 9.42705 9.82136 11.8151 10.1891 14.1691C10.6865 14.325 11.2172 14.3781 11.7811 14.3283C11.7811 17.4593 11.7811 20.5903 11.7811 23.7213C14.9685 23.105 18.1526 22.4682 21.3333 21.8109C21.3863 21.8109 21.4395 21.8109 21.4925 21.8109C21.4925 23.5091 21.4925 25.2072 21.4925 26.9054C17.6377 26.3737 13.7902 25.7899 9.95025 25.1542C8.62316 26.4018 7.37605 27.7285 6.20896 29.1343C6.15589 29.1343 6.10281 29.1343 6.04975 29.1343C6.04975 27.5952 6.04975 26.0564 6.04975 24.5173C4.03625 24.1782 2.01966 23.8598 0 23.5621C0 18.1492 0 12.7363 0 7.32332C3.08365 7.2245 6.16159 7.06529 9.23383 6.8457Z"
            fill="#5AC4C4" />
    </g>
    <defs>
        <clipPath id="clip0_5270_2271">
            <rect width="32" height="32" fill="white" />
        </clipPath>
    </defs>
</svg>