<svg width="32" height="32" viewBox="0 0 32 32" fill="none" xmlns="http://www.w3.org/2000/svg">
    <g clip-path="url(#clip0_5322_5033)">
        <path fill-rule="evenodd" clip-rule="evenodd"
            d="M-0.0712891 -0.0712891C0.0715681 -0.0712891 0.214425 -0.0712891 0.357282 -0.0712891C0.262044 0.119187 0.119187 0.262044 -0.0712891 0.357282C-0.0712891 0.214425 -0.0712891 0.0715681 -0.0712891 -0.0712891Z"
            fill="#F4F5F5" />
        <path fill-rule="evenodd" clip-rule="evenodd"
            d="M0.357282 -0.0712891C10.7382 -0.0712891 21.1191 -0.0712891 31.5001 -0.0712891C31.613 0.0574652 31.7559 0.152704 31.9287 0.214425C31.9287 10.7859 31.9287 21.3573 31.9287 31.9287C21.3573 31.9287 10.7859 31.9287 0.214425 31.9287C0.166807 31.7859 0.0715681 31.6906 -0.0712891 31.643C-0.0712891 21.2144 -0.0712891 10.7859 -0.0712891 0.357282C0.119187 0.262044 0.262044 0.119187 0.357282 -0.0712891Z"
            fill="#08152C" />
        <path fill-rule="evenodd" clip-rule="evenodd"
            d="M31.5 -0.0712891C31.6429 -0.0712891 31.7857 -0.0712891 31.9286 -0.0712891C31.9286 0.0239491 31.9286 0.119187 31.9286 0.214425C31.7557 0.152704 31.6129 0.0574652 31.5 -0.0712891Z"
            fill="#E3E4E6" />
        <path fill-rule="evenodd" clip-rule="evenodd"
            d="M15.7853 11.357C15.7853 11.6427 15.7853 11.9284 15.7853 12.2141C15.7422 11.7141 15.5042 11.3093 15.071 10.9999C12.8567 9.16653 10.6424 7.33319 8.42815 5.49986C8.3735 5.57929 8.30207 5.6269 8.21387 5.64272C8.21387 5.40462 8.21387 5.16653 8.21387 4.92843C8.27855 4.79152 8.3738 4.67247 8.49958 4.57129C11.5392 4.65182 13.7535 6.05659 15.1424 8.78557C15.5292 9.60009 15.7434 10.4572 15.7853 11.357Z"
            fill="#16977A" />
        <path fill-rule="evenodd" clip-rule="evenodd"
            d="M15.7861 12.2143C15.7861 13.119 15.7861 14.0238 15.7861 14.9286C15.6847 14.5867 15.5894 14.2296 15.5004 13.8571C13.1403 11.854 10.7594 9.87783 8.35757 7.92857C8.21545 7.17256 8.16782 6.41066 8.21471 5.64286C8.30291 5.62704 8.37434 5.57943 8.429 5.5C10.6433 7.33333 12.8576 9.16667 15.0719 11C15.505 11.3095 15.743 11.7142 15.7861 12.2143Z"
            fill="#1A937C" />
        <path fill-rule="evenodd" clip-rule="evenodd"
            d="M8.21477 4.92871C8.21477 5.16681 8.21477 5.4049 8.21477 5.643C8.16788 6.4108 8.21551 7.1727 8.35762 7.92871C10.7594 9.87797 13.1404 11.8542 15.5005 13.8573C15.5895 14.2298 15.6848 14.5869 15.7862 14.9287C15.7862 15.8334 15.7862 16.7383 15.7862 17.643C15.5453 17.1854 15.2121 16.7807 14.7862 16.4287C12.6195 14.643 10.4529 12.8573 8.28619 11.0716C8.26167 10.0936 8.19024 9.1412 8.07191 8.21443C8.02542 7.09277 8.07305 5.99754 8.21477 4.92871Z"
            fill="#1E8C7C" />
        <path fill-rule="evenodd" clip-rule="evenodd"
            d="M8.07129 8.21436C8.18962 9.14113 8.26105 10.0935 8.28557 11.0715C10.4522 12.8572 12.6189 14.6429 14.7856 16.4286C15.2114 16.7806 15.5447 17.1854 15.7856 17.6429C15.7856 18.7382 15.7856 19.8334 15.7856 20.9286C15.7066 20.4876 15.4684 20.1305 15.0713 19.8572C12.8036 17.9459 10.5179 16.0651 8.21415 14.2144C8.25792 13.8022 8.2103 13.4212 8.07129 13.0715C8.07129 11.4525 8.07129 9.8334 8.07129 8.21436Z"
            fill="#22857D" />
        <path fill-rule="evenodd" clip-rule="evenodd"
            d="M8.21397 14.2144C10.5177 16.0651 12.8034 17.9459 15.0711 19.8572C15.4683 20.1305 15.7064 20.4876 15.7854 20.9286C15.7854 21.6905 15.7854 22.4525 15.7854 23.2144C15.6827 22.9871 15.5398 22.7728 15.3568 22.5715C13.0473 20.6429 10.7378 18.7144 8.42825 16.7858C8.38064 16.8334 8.33301 16.8811 8.2854 16.9286C8.21404 16.0251 8.19023 15.1204 8.21397 14.2144Z"
            fill="#267F7E" />
        <path fill-rule="evenodd" clip-rule="evenodd"
            d="M17.6428 14.0713C20.3752 14.403 22.3038 15.8316 23.4285 18.357C24.5273 21.9659 23.5035 24.7991 20.357 26.857C19.4103 27.4401 18.4103 27.6306 17.357 27.4284C17.2676 27.3213 17.1962 27.2021 17.1428 27.0713C17.0475 22.9284 17.0475 18.7856 17.1428 14.6427C17.3002 14.4357 17.4669 14.2452 17.6428 14.0713Z"
            fill="#FCFCFC" />
        <path fill-rule="evenodd" clip-rule="evenodd"
            d="M8.07129 13.0713C8.2103 13.421 8.25792 13.8019 8.21415 14.2141C8.1904 15.1201 8.21422 16.0249 8.28557 16.9284C8.33319 16.8809 8.38082 16.8331 8.42843 16.7856C10.738 18.7141 13.0475 20.6427 15.357 22.5713C15.54 22.7726 15.6829 22.9869 15.7856 23.2141C15.8093 24.1201 15.7856 25.0249 15.7141 25.9284C15.5823 25.3657 15.2727 24.9133 14.7856 24.5713C12.6903 22.857 10.5951 21.1427 8.49986 19.4284C8.29607 19.1363 8.15322 18.8267 8.07129 18.4999C8.07129 16.6903 8.07129 14.8809 8.07129 13.0713Z"
            fill="#2A7A7E" />
        <path fill-rule="evenodd" clip-rule="evenodd"
            d="M15.7857 11.3569C15.952 16.5232 15.9758 21.7138 15.8571 26.9284C15.5611 27.5916 15.0611 27.8059 14.3571 27.5712C10.984 26.7219 8.91256 24.6029 8.14282 21.2141C8.07146 20.3105 8.04765 19.4058 8.07139 18.4998C8.15332 18.8266 8.29618 19.1362 8.49996 19.4284C10.5952 21.1426 12.6904 22.8569 14.7857 24.5712C15.2728 24.9132 15.5824 25.3656 15.7142 25.9284C15.7857 25.0248 15.8094 24.1201 15.7857 23.2141C15.7857 22.4522 15.7857 21.6902 15.7857 20.9284C15.7857 19.8331 15.7857 18.7379 15.7857 17.6426C15.7857 16.7379 15.7857 15.8331 15.7857 14.9284C15.7857 14.0236 15.7857 13.1188 15.7857 12.2141C15.7857 11.9284 15.7857 11.6426 15.7857 11.3569Z"
            fill="#2A727A" />
        <path fill-rule="evenodd" clip-rule="evenodd"
            d="M-0.0712891 31.6431C0.0715681 31.6906 0.166807 31.7859 0.214425 31.9288C0.119187 31.9288 0.0239491 31.9288 -0.0712891 31.9288C-0.0712891 31.8335 -0.0712891 31.7384 -0.0712891 31.6431Z"
            fill="#DEDFE2" />
    </g>
    <defs>
        <clipPath id="clip0_5322_5033">
            <rect width="32" height="32" fill="white" />
        </clipPath>
    </defs>
</svg>