<svg width="32" height="32" viewBox="0 0 32 32" fill="none" xmlns="http://www.w3.org/2000/svg">
    <g clip-path="url(#clip0_5316_4916)">
        <path fill-rule="evenodd" clip-rule="evenodd"
            d="M-0.0800781 -0.0800781C0.613255 -0.0800781 1.30659 -0.0800781 1.99992 -0.0800781C1.99992 0.346589 1.99992 0.773255 1.99992 1.19992C2.15992 1.19992 2.31992 1.19992 2.47992 1.19992C2.26669 2.90576 2.05336 4.61243 1.83992 6.31992C1.83906 5.04373 1.78573 3.76373 1.67992 2.47992C1.46709 4.39579 1.30709 6.31579 1.19992 8.23992C1.20215 9.75098 1.36215 11.2443 1.67992 12.7199C1.67992 11.0132 1.67992 9.30659 1.67992 7.59992C1.80245 9.59352 2.06911 11.5668 2.47992 13.5199C2.45325 13.7866 2.42659 14.0532 2.39992 14.3199C2.16571 14.4734 2.03237 14.6867 1.99992 14.9599C2.17552 15.5009 2.33552 16.0343 2.47992 16.5599C2.69325 16.5599 2.90659 16.5599 3.11992 16.5599C3.15202 17.0764 3.09867 17.5831 2.95992 18.0799C3.41034 18.7882 3.62367 19.5617 3.59992 20.3999C3.22659 20.3999 2.85325 20.3999 2.47992 20.3999C2.51749 22.0825 2.51749 23.789 2.47992 25.5199C2.10659 25.5199 1.73325 25.5199 1.35992 25.5199C1.35992 27.2266 1.35992 28.9332 1.35992 30.6399C1.19992 30.6399 1.03992 30.6399 0.879922 30.6399C0.879922 31.0666 0.879922 31.4932 0.879922 31.9199C0.559922 31.9199 0.239922 31.9199 -0.0800781 31.9199C-0.0800781 21.2532 -0.0800781 10.5866 -0.0800781 -0.0800781Z"
            fill="#F4F4F5" />
        <path fill-rule="evenodd" clip-rule="evenodd"
            d="M2.0002 -0.0800781C4.34687 -0.0800781 6.69352 -0.0800781 9.0402 -0.0800781C9.0402 0.773255 9.0402 1.62659 9.0402 2.47992C8.8802 2.47992 8.7202 2.47992 8.5602 2.47992C8.50895 4.22632 8.56228 5.95965 8.7202 7.67992C8.61536 7.91778 8.45536 8.10445 8.2402 8.23992C8.06586 8.0973 8.06586 7.9373 8.2402 7.75992C8.04999 7.61133 7.83664 7.558 7.6002 7.59992C7.646 7.88423 7.75266 8.1509 7.9202 8.39992C7.85322 8.58746 7.74655 8.74746 7.6002 8.87992C7.65352 8.93325 7.70687 8.98659 7.7602 9.03992C7.97616 8.80791 8.24284 8.70123 8.5602 8.71992C8.52223 8.92648 8.57556 9.08648 8.7202 9.19992C8.7202 9.41325 8.7202 9.62659 8.7202 9.83992C8.48042 9.65141 8.32042 9.38474 8.2402 9.03992C8.18687 11.3599 8.13352 13.6799 8.0802 15.9999C8.08029 18.3758 8.18696 20.6958 8.4002 22.9599C8.50687 22.9599 8.61352 22.9599 8.7202 22.9599C8.7202 23.0132 8.7202 23.0666 8.7202 23.1199C8.80154 23.4983 8.90821 23.8718 9.0402 24.2399C8.75423 24.3705 8.48757 24.5305 8.2402 24.7199C7.85604 24.2538 7.64271 24.3073 7.6002 24.8799C7.67207 25.2762 7.5654 25.5962 7.2802 25.8399C6.90138 25.5642 6.47472 25.4575 6.0002 25.5199C5.99908 24.6714 5.78575 23.898 5.3602 23.1999C5.38687 23.1199 5.41352 23.0399 5.4402 22.9599C5.69021 23.367 5.93021 23.367 6.1602 22.9599C6.31936 22.1132 6.37271 21.2599 6.3202 20.3999C5.78687 20.3999 5.25352 20.3999 4.7202 20.3999C4.74261 20.9172 4.55594 21.3438 4.1602 21.6799C4.08645 21.1876 3.89978 20.7609 3.6002 20.3999C3.62394 19.5617 3.41061 18.7882 2.9602 18.0799C3.09895 17.5831 3.15229 17.0764 3.1202 16.5599C2.90687 16.5599 2.69352 16.5599 2.4802 16.5599C2.3358 16.0343 2.1758 15.5009 2.0002 14.9599C2.03264 14.6867 2.16599 14.4734 2.4002 14.3199C2.42687 14.0532 2.45352 13.7866 2.4802 13.5199C2.06938 11.5668 1.80272 9.59352 1.6802 7.59992C1.6802 9.30659 1.6802 11.0132 1.6802 12.7199C1.36242 11.2443 1.20242 9.75098 1.2002 8.23992C1.30737 6.31579 1.46737 4.39579 1.6802 2.47992C1.786 3.76373 1.83933 5.04373 1.8402 6.31992C2.05364 4.61243 2.26696 2.90576 2.4802 1.19992C2.3202 1.19992 2.1602 1.19992 2.0002 1.19992C2.0002 0.773255 2.0002 0.346589 2.0002 -0.0800781Z"
            fill="#F0EFF4" />
        <path fill-rule="evenodd" clip-rule="evenodd"
            d="M9.03961 -0.0800781C11.4396 -0.0800781 13.8396 -0.0800781 16.2396 -0.0800781C15.9224 0.706965 15.6291 1.50697 15.3596 2.31992C14.7514 2.70808 14.0847 2.86808 13.3596 2.79992C13.3596 3.06659 13.3596 3.33325 13.3596 3.59992C13.7896 3.62618 14.2162 3.59951 14.6396 3.51992C14.7735 3.35811 14.8268 3.17146 14.7996 2.95992C14.9596 2.95992 15.1196 2.95992 15.2796 2.95992C15.3311 3.57599 15.1178 4.08264 14.6396 4.47992C14.1596 4.53325 13.6796 4.58659 13.1996 4.63992C13.0792 4.74725 13.0259 4.88058 13.0396 5.03992C12.9408 5.05763 12.8608 5.11096 12.7996 5.19992C12.7196 11.1197 12.6929 17.0396 12.7196 22.9599C12.5599 18.614 12.5066 14.2407 12.5596 9.83992C12.3716 9.80488 12.2116 9.85821 12.0796 9.99992C12.1856 14.3513 12.2923 18.698 12.3996 23.0399C12.2157 23.2966 12.2157 23.5631 12.3996 23.8399C12.3463 23.9199 12.2929 23.9999 12.2396 24.0799C12.0979 23.9479 12.0446 23.7879 12.0796 23.5999C11.6548 23.6254 11.2815 23.7854 10.9596 24.0799C11.1509 24.3146 11.1509 24.5546 10.9596 24.7999C11.0317 25.0055 11.1383 25.1922 11.2796 25.3599C11.2065 25.4876 11.0998 25.5409 10.9596 25.5199C10.4639 25.5338 10.4106 25.4538 10.7996 25.2799C10.3943 24.9465 10.3943 24.6265 10.7996 24.3199C10.3692 24.2663 10.2626 24.0798 10.4796 23.7599C10.6706 23.6364 10.8306 23.4764 10.9596 23.2799C11.1728 21.0158 11.2795 18.6958 11.2796 16.3199C11.2796 13.9726 11.2263 11.6526 11.1196 9.35992C11.0946 8.30576 10.5612 7.90576 9.51961 8.15992C9.32679 8.38002 9.11347 8.56669 8.87961 8.71992C8.73497 8.83336 8.68164 8.99336 8.71961 9.19992C8.57497 9.08648 8.52164 8.92648 8.55961 8.71992C8.24225 8.70123 7.97558 8.80791 7.75961 9.03992C7.70628 8.98659 7.65294 8.93325 7.59961 8.87992C7.74596 8.74746 7.85263 8.58746 7.91961 8.39992C7.75207 8.1509 7.64542 7.88423 7.59961 7.59992C7.83606 7.558 8.0494 7.61133 8.23961 7.75992C8.06527 7.9373 8.06527 8.0973 8.23961 8.23992C8.45478 8.10445 8.61478 7.91778 8.71961 7.67992C8.56169 5.95965 8.50836 4.22632 8.55961 2.47992C8.71961 2.47992 8.87961 2.47992 9.03961 2.47992C9.03961 1.62659 9.03961 0.773255 9.03961 -0.0800781Z"
            fill="#EAE9F3" />
        <path fill-rule="evenodd" clip-rule="evenodd"
            d="M16.2402 -0.0800781C18.8535 -0.0800781 21.4669 -0.0800781 24.0802 -0.0800781C23.9474 0.451499 23.6274 0.824834 23.1202 1.03992C23 0.899765 22.92 0.739765 22.8802 0.559922C21.6328 1.13727 21.0463 2.09727 21.1202 3.43992C21.2802 3.11992 21.4402 2.79992 21.6002 2.47992C21.8455 2.55091 22.0855 2.60424 22.3202 2.63992C22.0949 2.75883 21.8816 2.89218 21.6802 3.03992C21.9103 3.07495 22.1236 3.15495 22.3202 3.27992C22.0792 3.47947 21.8392 3.47947 21.6002 3.27992C21.4258 3.68151 21.2391 4.08151 21.0402 4.47992C20.6394 4.68706 20.2127 4.71371 19.7602 4.55992C19.5389 5.2052 19.3789 5.87187 19.2802 6.55992C18.8901 6.80861 18.5701 7.12861 18.3202 7.51992C18.5 7.55979 18.66 7.63979 18.8002 7.75992C18.5688 8.09879 18.4621 8.47211 18.4802 8.87992C18.2135 8.87992 17.9469 8.87992 17.6802 8.87992C17.7303 9.31943 17.677 9.74608 17.5202 10.1599C17.182 10.2453 16.8885 10.4053 16.6402 10.6399C16.6063 11.0047 16.473 11.3247 16.2402 11.5999C16.4722 11.8159 16.5789 12.0826 16.5602 12.3999C16.1328 12.5229 15.7328 12.5763 15.3602 12.5599C15.3332 10.1857 15.2532 7.83901 15.1202 5.51992C14.6314 4.68171 13.9914 4.52171 13.2002 5.03992C13.1469 5.03992 13.0935 5.03992 13.0402 5.03992C13.0265 4.88058 13.0798 4.74725 13.2002 4.63992C13.6802 4.58659 14.1602 4.53325 14.6402 4.47992C15.1184 4.08264 15.3317 3.57599 15.2802 2.95992C15.1202 2.95992 14.9602 2.95992 14.8002 2.95992C14.8274 3.17146 14.774 3.35811 14.6402 3.51992C14.2168 3.59951 13.7902 3.62618 13.3602 3.59992C13.3602 3.33325 13.3602 3.06659 13.3602 2.79992C14.0853 2.86808 14.752 2.70808 15.3602 2.31992C15.6297 1.50697 15.923 0.706965 16.2402 -0.0800781Z"
            fill="#E4E4F2" />
        <path fill-rule="evenodd" clip-rule="evenodd"
            d="M24.0802 -0.0800781C26.6935 -0.0800781 29.307 -0.0800781 31.9202 -0.0800781C31.9202 0.773255 31.9202 1.62659 31.9202 2.47992C30.23 2.60811 28.6833 3.16811 27.2802 4.15992C26.8497 4.06234 26.423 4.14234 26.0002 4.39992C25.8033 4.58403 25.8033 4.77069 26.0002 4.95992C25.8486 5.03717 25.6886 5.06384 25.5202 5.03992C25.5462 5.36429 25.5194 5.68429 25.4402 5.99992C25.1735 6.10659 24.907 6.21325 24.6402 6.31992C24.4802 8.02659 24.3202 8.02659 24.1602 6.31992C24.0807 6.74328 24.054 7.16995 24.0802 7.59992C23.7602 7.59992 23.4402 7.59992 23.1202 7.59992C23.2721 8.03312 23.2721 8.45979 23.1202 8.87992C22.8191 8.97485 22.5258 9.08151 22.2402 9.19992C22.1594 9.52285 22.0794 9.84285 22.0002 10.1599C21.6802 10.1599 21.3602 10.1599 21.0402 10.1599C21.0313 11.0583 20.9246 11.9383 20.7202 12.7999C21.3289 13.1269 21.9156 13.1003 22.4802 12.7199C22.6289 12.9101 22.6822 13.1235 22.6402 13.3599C22.2847 13.3084 21.9913 13.4151 21.7602 13.6799C21.7105 13.8787 21.7905 14.0387 22.0002 14.1599C21.7302 14.3233 21.5169 14.5367 21.3602 14.7999C21.2535 14.8532 21.147 14.9066 21.0402 14.9599C20.827 14.9599 20.6135 14.9599 20.4002 14.9599C20.3751 14.7402 20.4018 14.5268 20.4802 14.3199C20.6972 14.4608 20.9372 14.5141 21.2002 14.4799C21.2002 14.1066 21.2002 13.7332 21.2002 13.3599C20.987 13.3599 20.7735 13.3599 20.5602 13.3599C20.3735 13.0223 20.267 12.3823 20.2402 11.4399C19.9742 11.66 19.7607 11.6066 19.6002 11.2799C19.2911 11.3832 19.1044 11.5965 19.0402 11.9199C18.9735 11.719 18.8402 11.6123 18.6402 11.5999C17.7036 11.2021 17.0636 11.4688 16.7202 12.3999C16.667 12.3999 16.6135 12.3999 16.5602 12.3999C16.579 12.0826 16.4722 11.8159 16.2402 11.5999C16.473 11.3247 16.6063 11.0047 16.6402 10.6399C16.8886 10.4053 17.182 10.2453 17.5202 10.1599C17.677 9.74608 17.7303 9.31943 17.6802 8.87992C17.947 8.87992 18.2135 8.87992 18.4802 8.87992C18.4622 8.47211 18.5689 8.09879 18.8002 7.75992C18.6601 7.63979 18.5001 7.55979 18.3202 7.51992C18.5702 7.12861 18.8902 6.80861 19.2802 6.55992C19.379 5.87187 19.539 5.2052 19.7602 4.55992C20.2127 4.71371 20.6394 4.68706 21.0402 4.47992C21.2391 4.08151 21.4258 3.68151 21.6002 3.27992C21.8393 3.47947 22.0793 3.47947 22.3202 3.27992C22.1236 3.15495 21.9103 3.07495 21.6802 3.03992C21.8817 2.89218 22.095 2.75883 22.3202 2.63992C22.0855 2.60424 21.8455 2.55091 21.6002 2.47992C21.4402 2.79992 21.2802 3.11992 21.1202 3.43992C21.0463 2.09727 21.6329 1.13727 22.8802 0.559922C22.9201 0.739765 23.0001 0.899765 23.1202 1.03992C23.6274 0.824834 23.9474 0.451499 24.0802 -0.0800781Z"
            fill="#DFDDF1" />
        <path fill-rule="evenodd" clip-rule="evenodd"
            d="M31.92 2.47998C31.92 6.21331 31.92 9.94665 31.92 13.68C31.4933 13.68 31.0667 13.68 30.64 13.68C30.64 13.36 30.64 13.04 30.64 12.72C29.8026 12.5817 28.9493 12.5817 28.08 12.72C28.08 12.2933 28.08 11.8667 28.08 11.44C27.4 11.5415 26.76 11.7548 26.16 12.08C26.8534 12.4616 27.4934 12.9149 28.08 13.44C28.0386 13.6418 27.9318 13.8018 27.76 13.92C27.4443 13.9993 27.1243 14.0259 26.8 14C26.7419 13.6141 26.9019 13.3741 27.28 13.28C27.1283 13.2027 26.9683 13.1761 26.8 13.2C26.835 13.012 26.7818 12.852 26.64 12.72C26.3483 12.9195 26.0283 13.0262 25.68 13.04C25.7029 13.322 25.6494 13.5886 25.52 13.84C25.92 14.32 26.32 14.8 26.72 15.28C26.7992 14.9643 26.8259 14.6443 26.8 14.32C27.12 14.32 27.44 14.32 27.76 14.32C27.76 14.64 27.76 14.96 27.76 15.28C27.143 15.3553 26.5298 15.462 25.92 15.6C25.5906 15.4211 25.2438 15.3144 24.88 15.28C24.9038 15.1117 24.8773 14.9517 24.8 14.8C24.4114 14.7153 24.1181 14.502 23.92 14.16C24.004 14.0492 24.1107 13.9692 24.24 13.92C23.957 12.9786 23.8237 11.9919 23.84 10.96C23.5821 10.3254 23.3154 10.3254 23.04 10.96C22.961 10.6985 22.9344 10.4319 22.96 10.16C22.64 10.16 22.32 10.16 22 10.16C22.0792 9.84291 22.1592 9.52291 22.24 9.19998C22.5256 9.08156 22.8189 8.97491 23.12 8.87998C23.2718 8.45985 23.2718 8.03318 23.12 7.59998C23.44 7.59998 23.76 7.59998 24.08 7.59998C24.0538 7.17001 24.0805 6.74334 24.16 6.31998C24.32 8.02665 24.48 8.02665 24.64 6.31998C24.9067 6.21331 25.1733 6.10665 25.44 5.99998C25.5192 5.68435 25.5459 5.36435 25.52 5.03998C25.6883 5.0639 25.8483 5.03723 26 4.95998C25.803 4.77075 25.803 4.58409 26 4.39998C26.4227 4.1424 26.8494 4.0624 27.28 4.15998C28.683 3.16817 30.2298 2.60817 31.92 2.47998Z"
            fill="#DBD6EE" />
        <path fill-rule="evenodd" clip-rule="evenodd"
            d="M15.1196 5.52013C15.1196 12.4535 15.1196 19.3869 15.1196 26.3201C14.6799 27.1326 14.0399 27.3193 13.1996 26.8801C13.0793 26.7728 13.0259 26.6395 13.0396 26.4801C12.9896 19.3297 13.043 12.183 13.1996 5.04013C13.9909 4.52192 14.6309 4.68192 15.1196 5.52013Z"
            fill="#F91291" />
        <path fill-rule="evenodd" clip-rule="evenodd"
            d="M13.0404 5.04004C12.8821 12.1266 12.8287 19.2199 12.8804 26.32C12.7218 25.23 12.6685 24.11 12.7204 22.96C12.6937 17.0397 12.7204 11.1198 12.8004 5.20004C12.8616 5.11108 12.9416 5.05775 13.0404 5.04004Z"
            fill="#FF93E5" />
        <path fill-rule="evenodd" clip-rule="evenodd"
            d="M11.1202 9.36C11.1732 13.9741 11.1199 18.5608 10.9602 23.12C10.6967 18.8349 10.5367 14.5149 10.4802 10.16C10.2678 14.4639 10.2678 18.7573 10.4802 23.04C10.1602 23.36 9.84018 23.36 9.52018 23.04C9.73258 18.7573 9.73258 14.4639 9.52018 10.16C9.41279 14.0905 9.30611 18.0106 9.20018 21.92C9.41493 22.313 9.3616 22.6595 9.04018 22.96C8.88048 18.2408 8.82715 13.4941 8.88018 8.72C9.11403 8.56677 9.32736 8.38009 9.52018 8.16C10.5618 7.90584 11.0951 8.30584 11.1202 9.36Z"
            fill="#F91094" />
        <path fill-rule="evenodd" clip-rule="evenodd"
            d="M10.96 23.1202C10.96 23.1734 10.96 23.2269 10.96 23.2802C10.831 23.4766 10.671 23.6366 10.48 23.7602C9.90204 23.8523 9.42204 23.6923 9.04004 23.2802C9.04004 23.1734 9.04004 23.0669 9.04004 22.9602C9.36146 22.6597 9.41479 22.3131 9.20004 21.9202C9.30598 18.0107 9.41265 14.0907 9.52004 10.1602C9.73244 14.464 9.73244 18.7574 9.52004 23.0402C9.84004 23.3602 10.16 23.3602 10.48 23.0402C10.2676 18.7574 10.2676 14.464 10.48 10.1602C10.5365 14.515 10.6965 18.835 10.96 23.1202Z"
            fill="#F60C8A" />
        <path fill-rule="evenodd" clip-rule="evenodd"
            d="M11.12 9.35986C11.2266 11.6526 11.2799 13.9726 11.28 16.3199C11.2799 18.6957 11.1732 21.0157 10.96 23.2799C10.96 23.2266 10.96 23.1731 10.96 23.1199C11.1196 18.5607 11.173 13.974 11.12 9.35986Z"
            fill="#FCA7DD" />
        <path fill-rule="evenodd" clip-rule="evenodd"
            d="M13.0404 5.04004C13.0937 5.04004 13.1471 5.04004 13.2004 5.04004C13.0437 12.1829 12.9904 19.3296 13.0404 26.48C12.9337 26.48 12.8804 26.4268 12.8804 26.32C12.8287 19.2199 12.8821 12.1266 13.0404 5.04004Z"
            fill="#D41987" />
        <path fill-rule="evenodd" clip-rule="evenodd"
            d="M8.72008 9.84004C8.72008 9.94671 8.72008 10.0534 8.72008 10.16C8.40149 14.37 8.29481 18.6367 8.40008 22.96C8.18685 20.6959 8.08017 18.3759 8.08008 16C8.13341 13.68 8.18675 11.36 8.24008 9.04004C8.3203 9.38486 8.4803 9.65153 8.72008 9.84004Z"
            fill="#F6E6F6" />
        <path fill-rule="evenodd" clip-rule="evenodd"
            d="M8.87985 8.72021C8.82683 13.4943 8.88015 18.241 9.03985 22.9602C9.03985 23.0669 9.03985 23.1735 9.03985 23.2802C8.93318 23.2269 8.82652 23.1735 8.71985 23.1202C8.71985 23.0669 8.71985 23.0135 8.71985 22.9602C8.71985 18.6935 8.71985 14.4269 8.71985 10.1602C8.71985 10.0535 8.71985 9.94689 8.71985 9.84021C8.71985 9.62689 8.71985 9.41354 8.71985 9.20021C8.68188 8.99365 8.73521 8.83365 8.87985 8.72021Z"
            fill="#FFD9FA" />
        <path fill-rule="evenodd" clip-rule="evenodd"
            d="M21.9997 10.1602C22.3197 10.1602 22.6397 10.1602 22.9597 10.1602C22.9341 10.432 22.9607 10.6987 23.0397 10.9602C23.3151 10.3256 23.5818 10.3256 23.8397 10.9602C23.8234 11.9921 23.9567 12.9788 24.2397 13.9202C24.1104 13.9694 24.0037 14.0494 23.9197 14.1602C24.1178 14.5021 24.4111 14.7155 24.7997 14.8002C24.877 14.9518 24.9036 15.1118 24.8797 15.2802C25.2436 15.3146 25.5903 15.4212 25.9197 15.6002C26.5295 15.4622 27.1428 15.3555 27.7597 15.2802C27.7597 14.9602 27.7597 14.6402 27.7597 14.3202C27.4397 14.3202 27.1197 14.3202 26.7997 14.3202C26.8256 14.6445 26.7989 14.9645 26.7197 15.2802C26.3197 14.8002 25.9197 14.3202 25.5197 13.8402C25.6492 13.5888 25.7026 13.3221 25.6797 13.0402C26.028 13.0264 26.348 12.9197 26.6397 12.7202C26.7815 12.8522 26.8348 13.0122 26.7997 13.2002C26.968 13.1762 27.128 13.2029 27.2797 13.2802C26.9016 13.3743 26.7416 13.6143 26.7997 14.0002C27.124 14.0261 27.444 13.9994 27.7597 13.9202C27.9316 13.802 28.0383 13.642 28.0797 13.4402C27.4932 12.9151 26.8532 12.4618 26.1597 12.0802C26.7597 11.755 27.3997 11.5416 28.0797 11.4402C28.0797 11.8668 28.0797 12.2935 28.0797 12.7202C28.949 12.5819 29.8023 12.5819 30.6397 12.7202C30.6397 13.0402 30.6397 13.3602 30.6397 13.6802C31.0664 13.6802 31.493 13.6802 31.9197 13.6802C31.9197 16.1334 31.9197 18.5869 31.9197 21.0402C31.0272 20.9237 30.1472 20.9237 29.2797 21.0402C29.0092 20.5827 28.6092 20.3694 28.0797 20.4002C28.0797 20.2402 28.0797 20.0802 28.0797 19.9202C27.7711 19.9632 27.5045 19.8832 27.2797 19.6802C27.5464 19.4934 27.813 19.3069 28.0797 19.1202C27.3925 18.9344 26.6991 18.9077 25.9997 19.0402C25.3632 19.2645 25.0967 19.7179 25.1997 20.4002C24.8264 20.4002 24.453 20.4002 24.0797 20.4002C24.0812 18.6853 24.1879 16.9787 24.3997 15.2802C24.133 15.2802 23.8664 15.2802 23.5997 15.2802C23.5464 15.7602 23.7597 15.9735 24.2397 15.9202C24.0319 16.5394 23.9252 17.1794 23.9197 17.8402C23.5997 17.8402 23.2797 17.8402 22.9597 17.8402C23.0082 17.3461 22.7949 17.0795 22.3197 17.0402C23.2184 16.231 23.1652 15.511 22.1597 14.8802C21.8983 14.8012 21.6316 14.7745 21.3597 14.8002C21.5164 14.5369 21.7296 14.3236 21.9997 14.1602C21.79 14.039 21.71 13.879 21.7597 13.6802C21.9908 13.4153 22.2842 13.3086 22.6397 13.3602C22.6816 13.1237 22.6284 12.9104 22.4797 12.7202C21.9151 13.1005 21.3284 13.1272 20.7197 12.8002C20.924 11.9385 21.0308 11.0585 21.0397 10.1602C21.3597 10.1602 21.6797 10.1602 21.9997 10.1602Z"
            fill="#E0D4ED" />
        <path fill-rule="evenodd" clip-rule="evenodd"
            d="M8.71956 10.1602C8.71956 14.4268 8.71956 18.6934 8.71956 22.9602C8.61289 22.9602 8.50624 22.9602 8.39956 22.9602C8.2943 18.6368 8.40097 14.3701 8.71956 10.1602Z"
            fill="#E0F2EF" />
        <path fill-rule="evenodd" clip-rule="evenodd"
            d="M21.3596 14.7999C21.6314 14.7743 21.8982 14.801 22.1596 14.8799C23.165 15.5107 23.2183 16.2308 22.3196 17.0399C21.7855 17.1095 21.3055 17.0028 20.8796 16.7199C20.7646 16.3577 20.7113 15.9844 20.7196 15.5999C20.7569 15.3501 20.8636 15.1367 21.0396 14.9599C21.1463 14.9066 21.2529 14.8533 21.3596 14.7999Z"
            fill="#F32192" />
        <path fill-rule="evenodd" clip-rule="evenodd"
            d="M21.0396 14.9598C20.8636 15.1366 20.7569 15.3499 20.7196 15.5998C20.6161 15.7236 20.5628 15.8836 20.5596 16.0798C20.534 16.3766 20.6408 16.5899 20.8796 16.7198C21.3056 17.0027 21.7856 17.1094 22.3196 17.0398C22.7948 17.0791 23.0081 17.3457 22.9596 17.8398C23.2796 17.8398 23.5996 17.8398 23.9196 17.8398C23.9251 17.179 24.0318 16.539 24.2396 15.9198C23.7596 15.9731 23.5464 15.7598 23.5996 15.2798C23.8664 15.2798 24.1329 15.2798 24.3996 15.2798C24.1878 16.9783 24.0811 18.6849 24.0796 20.3998C24.4529 20.3998 24.8264 20.3998 25.1996 20.3998C25.0966 19.7175 25.3632 19.2641 25.9996 19.0398C26.699 18.9073 27.3924 18.934 28.0796 19.1198C27.8129 19.3065 27.5464 19.4931 27.2796 19.6798C27.5044 19.8828 27.771 19.9628 28.0796 19.9198C28.0796 20.0798 28.0796 20.2398 28.0796 20.3998C28.6091 20.3691 29.0091 20.5823 29.2796 21.0398C30.1472 20.9233 31.0272 20.9233 31.9196 21.0398C31.9196 21.1465 31.9196 21.2531 31.9196 21.3598C31.0598 21.2515 30.2064 21.2515 29.3596 21.3598C29.7768 21.4907 30.2035 21.5707 30.6396 21.5998C30.2129 21.7065 29.7864 21.8131 29.3596 21.9198C29.5897 21.9548 29.803 22.0348 29.9996 22.1598C29.8929 22.2131 29.7864 22.2665 29.6796 22.3198C28.8726 22.1571 28.0726 22.0238 27.2796 21.9198C27.6003 22.5614 28.0803 22.7479 28.7196 22.4798C29.3612 22.587 30.0012 22.6937 30.6396 22.7998C30.6635 22.9681 30.6369 23.1281 30.5596 23.2798C29.7745 22.8516 28.9478 22.7449 28.0796 22.9598C28.6385 23.2011 29.172 23.3611 29.6796 23.4398C29.7329 23.4931 29.7864 23.5465 29.8396 23.5998C29.6494 23.7484 29.4361 23.8017 29.1996 23.7598C28.1059 23.6526 27.2259 24.0259 26.5596 24.8798C26.2862 24.7086 26.0462 24.4953 25.8396 24.2398C25.624 24.5535 25.4107 24.5803 25.1996 24.3198C25.3289 24.2705 25.4356 24.1905 25.5196 24.0798C25.2678 23.8988 25.0011 23.8721 24.7196 23.9998C24.2121 24.3207 23.7856 24.7207 23.4396 25.1998C23.1332 24.9484 22.9732 24.6284 22.9596 24.2398C22.7996 24.2398 22.6396 24.2398 22.4796 24.2398C22.5697 23.7799 22.7297 23.3534 22.9596 22.9598C22.1064 22.9598 21.2529 22.9598 20.3996 22.9598C20.3996 22.7998 20.3996 22.6398 20.3996 22.4798C20.5596 22.4798 20.7196 22.4798 20.8796 22.4798C20.867 22.251 20.9203 22.0375 21.0396 21.8398C20.9473 21.5118 20.734 21.3518 20.3996 21.3598C20.5392 20.8089 20.5392 20.3289 20.3996 19.9198C20.2571 19.7454 20.0971 19.7454 19.9196 19.9198C19.8664 19.8398 19.8129 19.7598 19.7596 19.6798C19.9494 19.3683 20.1628 19.075 20.3996 18.7998C20.1324 18.1985 19.9992 17.5585 19.9996 16.8798C19.9201 17.3031 19.8934 17.7299 19.9196 18.1598C19.7316 18.1948 19.5716 18.1415 19.4396 17.9998C19.5696 16.1939 19.6496 14.3805 19.6796 12.5598C19.8571 13.2301 19.9904 13.9234 20.0796 14.6398C20.2656 13.8988 20.2921 13.1521 20.1596 12.3998C19.8497 11.9825 19.5564 11.9825 19.2796 12.3998C19.2796 12.1865 19.1729 12.0798 18.9596 12.0798C18.8155 11.9533 18.7088 11.7933 18.6396 11.5998C18.8396 11.6122 18.9729 11.7188 19.0396 11.9198C19.1038 11.5964 19.2905 11.3831 19.5996 11.2798C19.7601 11.6065 19.9736 11.6598 20.2396 11.4398C20.2664 12.3822 20.3729 13.0222 20.5596 13.3598C20.7729 13.3598 20.9864 13.3598 21.1996 13.3598C21.1996 13.7331 21.1996 14.1065 21.1996 14.4798C20.9366 14.5139 20.6966 14.4606 20.4796 14.3198C20.4012 14.5267 20.3745 14.74 20.3996 14.9598C20.6129 14.9598 20.8264 14.9598 21.0396 14.9598Z"
            fill="#E5D7EC" />
        <path fill-rule="evenodd" clip-rule="evenodd"
            d="M20.7204 15.6001C20.712 15.9846 20.7653 16.3579 20.8804 16.7201C20.6415 16.5902 20.5348 16.3769 20.5604 16.0801C20.5636 15.8839 20.6168 15.7239 20.7204 15.6001Z"
            fill="#FFB3E7" />
        <path fill-rule="evenodd" clip-rule="evenodd"
            d="M18.6404 11.6C18.7095 11.7935 18.8163 11.9535 18.9604 12.08C18.9604 14.64 18.9604 17.2 18.9604 19.76C18.3291 20.5315 17.6356 20.5848 16.8804 19.92C16.7254 17.4209 16.6719 14.9143 16.7204 12.4C17.0638 11.4689 17.7038 11.2022 18.6404 11.6Z"
            fill="#F61390" />
        <path fill-rule="evenodd" clip-rule="evenodd"
            d="M3.59988 20.3999C3.89947 20.7609 4.08614 21.1876 4.15988 21.6799C4.55563 21.3437 4.7423 20.9172 4.71988 20.3999C5.25321 20.3999 5.78655 20.3999 6.31988 20.3999C6.37239 21.2599 6.31905 22.1132 6.15988 22.9599C5.9299 23.3669 5.6899 23.3669 5.43988 22.9599C5.41321 23.0399 5.38655 23.1199 5.35988 23.1999C5.78543 23.898 5.99876 24.6714 5.99988 25.5199C6.47441 25.4575 6.90107 25.5642 7.27988 25.8399C7.56508 25.5962 7.67175 25.2762 7.59988 24.8799C7.84854 25.0708 8.11521 25.2575 8.39988 25.4399C8.2482 25.5172 8.0882 25.5437 7.91988 25.5199C7.84708 25.8186 7.74043 26.1119 7.59988 26.3999C8.74043 28.157 9.06043 29.997 8.55988 31.9199C5.99988 31.9199 3.43988 31.9199 0.879883 31.9199C0.879883 31.4932 0.879883 31.0666 0.879883 30.6399C1.03988 30.6399 1.19988 30.6399 1.35988 30.6399C1.35988 28.9332 1.35988 27.2266 1.35988 25.5199C1.73321 25.5199 2.10655 25.5199 2.47988 25.5199C2.51745 23.789 2.51745 22.0825 2.47988 20.3999C2.85321 20.3999 3.22655 20.3999 3.59988 20.3999Z"
            fill="#F4F0F4" />
        <path fill-rule="evenodd" clip-rule="evenodd"
            d="M15.1201 5.52002C15.2531 7.83911 15.3331 10.1858 15.3601 12.56C15.7328 12.5764 16.1328 12.523 16.5601 12.4C16.5334 14.8539 16.5601 17.3072 16.6401 19.76C16.7014 19.849 16.7814 19.9023 16.8801 19.92C17.6353 20.5848 18.3288 20.5315 18.9601 19.76C19.0588 19.7423 19.1388 19.689 19.2001 19.6C19.2801 17.2007 19.3068 14.8006 19.2801 12.4C19.5569 11.9828 19.8502 11.9828 20.1601 12.4C20.2926 13.1523 20.266 13.899 20.0801 14.64C19.9908 13.9236 19.8576 13.2303 19.6801 12.56C19.65 14.3807 19.57 16.1941 19.4401 18C19.5721 18.1418 19.7321 18.1951 19.9201 18.16C19.8939 17.7301 19.9206 17.3034 20.0001 16.88C19.9996 17.5587 20.1329 18.1987 20.4001 18.8C20.1633 19.0752 19.9499 19.3685 19.7601 19.68C19.8134 19.76 19.8668 19.84 19.9201 19.92C20.0976 19.7456 20.2576 19.7456 20.4001 19.92C20.5396 20.3291 20.5396 20.8091 20.4001 21.36C20.7345 21.352 20.9478 21.512 21.0401 21.84C20.9208 22.0378 20.8675 22.2512 20.8801 22.48C20.7201 22.48 20.5601 22.48 20.4001 22.48C20.4001 22.64 20.4001 22.8 20.4001 22.96C20.1556 22.9627 20.0756 23.0695 20.1601 23.28C20.5568 23.5703 20.9568 23.837 21.3601 24.08C21.0401 24.08 20.7201 24.08 20.4001 24.08C20.4001 24.88 20.4001 25.68 20.4001 26.48C19.9371 26.4067 19.5371 26.5135 19.2001 26.8C19.1508 26.6707 19.0708 26.564 18.9601 26.48C18.7688 26.5354 18.7688 26.6154 18.9601 26.72C18.3846 26.8583 18.4113 27.045 19.0401 27.28C19.1468 27.4933 19.1468 27.7067 19.0401 27.92C18.7424 27.7178 18.4224 27.5578 18.0801 27.44C17.9289 27.5048 17.8222 27.6115 17.7601 27.76C17.396 27.5581 17.1027 27.2914 16.8801 26.96C16.8801 26.48 16.8801 26 16.8801 25.52C16.6134 25.52 16.3468 25.52 16.0801 25.52C16.1574 24.8677 15.8907 24.4944 15.2801 24.4C15.3308 25.0723 15.2775 25.7123 15.1201 26.32C15.1201 19.3867 15.1201 12.4533 15.1201 5.52002Z"
            fill="#EADDEF" />
        <path fill-rule="evenodd" clip-rule="evenodd"
            d="M18.96 12.0801C19.1732 12.0801 19.28 12.1868 19.28 12.4001C19.3067 14.8007 19.28 17.2007 19.2 19.6001C19.1387 19.689 19.0587 19.7423 18.96 19.7601C18.96 17.2001 18.96 14.6401 18.96 12.0801Z"
            fill="#FCBDF0" />
        <path fill-rule="evenodd" clip-rule="evenodd"
            d="M16.5598 12.3999C16.6131 12.3999 16.6665 12.3999 16.7198 12.3999C16.6713 14.9142 16.7248 17.4209 16.8798 19.9199C16.7811 19.9021 16.7011 19.8489 16.6398 19.7599C16.5598 17.3071 16.5331 14.8538 16.5598 12.3999Z"
            fill="#FECCF7" />
        <path fill-rule="evenodd" clip-rule="evenodd"
            d="M20.4005 22.96C21.2538 22.96 22.1072 22.96 22.9605 22.96C22.7306 23.3536 22.5706 23.7801 22.4805 24.24C22.6405 24.24 22.8005 24.24 22.9605 24.24C22.9741 24.6286 23.1341 24.9486 23.4405 25.2C23.7864 24.7209 24.213 24.3209 24.7205 24C25.0019 23.8723 25.2686 23.899 25.5205 24.08C25.4365 24.1907 25.3298 24.2707 25.2005 24.32C25.4115 24.5804 25.6248 24.5537 25.8405 24.24C26.047 24.4955 26.287 24.7088 26.5605 24.88C27.2267 24.026 28.1067 23.6528 29.2005 23.76C28.7022 23.9929 28.1688 24.1795 27.6005 24.32C27.8368 24.6636 28.1568 24.8771 28.5605 24.96C28.2216 25.0016 27.955 25.1616 27.7605 25.44C28.1606 25.6668 28.1074 25.8268 27.6005 25.92C28.0976 26.3518 28.6842 26.5652 29.3605 26.56C27.6792 26.6822 27.6792 26.8955 29.3605 27.2C28.9301 27.3233 28.5035 27.4566 28.0805 27.6C28.4021 27.8673 28.7754 27.974 29.2005 27.92C28.8821 28.5894 29.0954 28.9894 29.8405 29.12C29.0918 29.3779 28.9053 29.8312 29.2805 30.48C29.4512 30.1947 29.6912 30.1147 30.0005 30.24C29.9274 30.3062 29.8739 30.3862 29.8405 30.48C30.0877 30.6323 30.3544 30.6856 30.6405 30.64C30.6405 31.0132 30.6405 31.3867 30.6405 31.76C30.4339 31.722 30.2739 31.7753 30.1605 31.92C28.3472 31.92 26.5338 31.92 24.7205 31.92C24.7205 31.4932 24.7205 31.0667 24.7205 30.64C24.5072 30.64 24.2938 30.64 24.0805 30.64C24.153 30.1356 23.993 29.7356 23.6005 29.44C23.7522 29.3627 23.9122 29.3361 24.0805 29.36C23.9267 28.8264 23.5534 28.5598 22.9605 28.56C22.9605 28.4 22.9605 28.24 22.9605 28.08C22.7472 28.08 22.5338 28.08 22.3205 28.08C22.429 27.4763 22.2155 27.023 21.6805 26.72C22.4664 26.5699 22.5198 26.2764 21.8405 25.84C21.6882 25.5928 21.6349 25.326 21.6805 25.04C21.8405 25.04 22.0005 25.04 22.1605 25.04C22.4946 24.2528 22.228 23.9328 21.3605 24.08C20.9571 23.8369 20.5571 23.5702 20.1605 23.28C20.076 23.0694 20.156 22.9627 20.4005 22.96Z"
            fill="#EAD7EA" />
        <path fill-rule="evenodd" clip-rule="evenodd"
            d="M8.71961 23.1201C8.82628 23.1734 8.93294 23.2268 9.03961 23.2801C9.42161 23.6923 9.90161 23.8523 10.4796 23.7601C10.2626 24.08 10.3692 24.2665 10.7996 24.3201C10.3943 24.6267 10.3943 24.9467 10.7996 25.2801C10.4106 25.454 10.4639 25.534 10.9596 25.5201C10.9582 25.8094 11.0382 26.0761 11.1996 26.3201C11.5767 26.926 11.9767 27.5126 12.3996 28.0801C12.5932 28.5856 12.5932 29.0923 12.3996 29.6001C12.6417 29.9008 12.7483 30.2475 12.7196 30.6401C12.9394 30.615 13.1527 30.6417 13.3596 30.7201C13.8199 31.016 14.1399 31.416 14.3196 31.9201C12.3996 31.9201 10.4796 31.9201 8.55961 31.9201C9.06015 29.9972 8.74015 28.1572 7.59961 26.4001C7.74015 26.1121 7.84681 25.8188 7.91961 25.5201C8.08793 25.544 8.24793 25.5174 8.39961 25.4401C8.11494 25.2577 7.84827 25.071 7.59961 24.8801C7.64212 24.3075 7.85545 24.254 8.23961 24.7201C8.48699 24.5307 8.75364 24.3707 9.03961 24.2401C8.90763 23.872 8.80095 23.4985 8.71961 23.1201Z"
            fill="#F3E9F1" />
        <path fill-rule="evenodd" clip-rule="evenodd"
            d="M31.9203 21.36C31.9203 24.88 31.9203 28.4 31.9203 31.92C31.3336 31.92 30.747 31.92 30.1603 31.92C30.2737 31.7754 30.4337 31.7221 30.6403 31.76C30.6403 31.3868 30.6403 31.0133 30.6403 30.64C30.3542 30.6856 30.0875 30.6324 29.8403 30.48C29.8737 30.3863 29.9272 30.3063 30.0003 30.24C29.691 30.1148 29.451 30.1948 29.2803 30.48C28.9051 29.8312 29.0916 29.378 29.8403 29.12C29.0952 28.9895 28.8819 28.5895 29.2003 27.92C28.7752 27.9741 28.4019 27.8674 28.0803 27.6C28.5033 27.4567 28.9299 27.3234 29.3603 27.2C27.679 26.8956 27.679 26.6823 29.3603 26.56C28.684 26.5653 28.0974 26.3519 27.6003 25.92C28.1072 25.8269 28.1604 25.6669 27.7603 25.44C27.9548 25.1616 28.2214 25.0016 28.5603 24.96C28.1566 24.8772 27.8366 24.6637 27.6003 24.32C28.1686 24.1796 28.702 23.993 29.2003 23.76C29.4368 23.802 29.65 23.7487 29.8403 23.6C29.787 23.5468 29.7336 23.4933 29.6803 23.44C29.1726 23.3613 28.6392 23.2013 28.0803 22.96C28.9484 22.7452 29.7752 22.8519 30.5603 23.28C30.6376 23.1284 30.6641 22.9684 30.6403 22.8C30.0019 22.694 29.3619 22.5872 28.7203 22.48C28.0809 22.7482 27.6009 22.5616 27.2803 21.92C28.0732 22.024 28.8732 22.1573 29.6803 22.32C29.787 22.2668 29.8936 22.2133 30.0003 22.16C29.8036 22.0351 29.5904 21.9551 29.3603 21.92C29.787 21.8133 30.2136 21.7068 30.6403 21.6C30.2041 21.5709 29.7774 21.4909 29.3603 21.36C30.207 21.2517 31.0604 21.2517 31.9203 21.36Z"
            fill="#E9D3E9" />
        <path fill-rule="evenodd" clip-rule="evenodd"
            d="M12.72 22.96C12.6681 24.1099 12.7214 25.2299 12.88 26.32C12.88 26.4267 12.9333 26.48 13.04 26.48C13.0263 26.6394 13.0796 26.7726 13.2 26.88C14.0403 27.3192 14.6803 27.1325 15.12 26.32C15.2773 25.7123 15.3307 25.0723 15.28 24.4C15.8906 24.4944 16.1573 24.8677 16.08 25.52C16.3467 25.52 16.6133 25.52 16.88 25.52C16.88 26 16.88 26.48 16.88 26.96C16.88 27.3333 16.88 27.7067 16.88 28.08C16.7117 28.0562 16.5517 28.0827 16.4 28.16C16.5997 28.4734 16.8664 28.7134 17.2 28.88C17.3102 29.191 17.3902 29.511 17.44 29.84C17.7248 30.015 18.0182 30.175 18.32 30.32C18.4462 30.892 18.6597 31.4253 18.96 31.92C17.4133 31.92 15.8667 31.92 14.32 31.92C14.1403 31.4158 13.8203 31.0158 13.36 30.72C13.1531 30.6416 12.9397 30.6149 12.72 30.64C12.7487 30.2474 12.642 29.9006 12.4 29.6C12.5936 29.0922 12.5936 28.5854 12.4 28.08C11.9771 27.5125 11.5771 26.9259 11.2 26.32C11.0386 26.076 10.9586 25.8093 10.96 25.52C11.1002 25.541 11.2069 25.4877 11.28 25.36C11.1387 25.1923 11.032 25.0056 10.96 24.8C11.1512 24.5547 11.1512 24.3147 10.96 24.08C11.2819 23.7854 11.6552 23.6254 12.08 23.6C12.0449 23.788 12.0983 23.948 12.24 24.08C12.2933 24 12.3467 23.92 12.4 23.84C12.2161 23.5632 12.2161 23.2966 12.4 23.04C12.2927 18.6981 12.186 14.3514 12.08 10C12.212 9.8583 12.372 9.80497 12.56 9.84001C12.507 14.2408 12.5603 18.6141 12.72 22.96Z"
            fill="#EFE3EF" />
        <path fill-rule="evenodd" clip-rule="evenodd"
            d="M21.3604 24.0802C22.2279 23.933 22.4945 24.253 22.1604 25.0402C22.0004 25.0402 21.8404 25.0402 21.6804 25.0402C21.6348 25.3263 21.6881 25.593 21.8404 25.8402C22.5198 26.2767 22.4663 26.5701 21.6804 26.7202C22.2154 27.0232 22.4289 27.4765 22.3204 28.0802C22.5337 28.0802 22.7471 28.0802 22.9604 28.0802C22.9604 28.2402 22.9604 28.4002 22.9604 28.5602C23.5534 28.56 23.9266 28.8266 24.0804 29.3602C23.9121 29.3364 23.7521 29.3629 23.6004 29.4402C23.9929 29.7359 24.1529 30.1359 24.0804 30.6402C24.2937 30.6402 24.5071 30.6402 24.7204 30.6402C24.7204 31.0669 24.7204 31.4935 24.7204 31.9202C22.8004 31.9202 20.8804 31.9202 18.9604 31.9202C18.6601 31.4255 18.4466 30.8922 18.3204 30.3202C18.0186 30.1752 17.7252 30.0152 17.4404 29.8402C17.3906 29.5112 17.3106 29.1912 17.2004 28.8802C16.8668 28.7136 16.6001 28.4736 16.4004 28.1602C16.5521 28.0829 16.7121 28.0564 16.8804 28.0802C16.8804 27.7069 16.8804 27.3335 16.8804 26.9602C17.103 27.2916 17.3962 27.5583 17.7604 27.7602C17.8225 27.6117 17.9292 27.505 18.0804 27.4402C18.4226 27.558 18.7426 27.718 19.0404 27.9202C19.1471 27.7069 19.1471 27.4935 19.0404 27.2802C18.4116 27.0452 18.3849 26.8584 18.9604 26.7202C18.769 26.6156 18.769 26.5356 18.9604 26.4802C19.0711 26.5642 19.1511 26.6709 19.2004 26.8002C19.5374 26.5136 19.9374 26.4069 20.4004 26.4802C20.4004 25.6802 20.4004 24.8802 20.4004 24.0802C20.7204 24.0802 21.0404 24.0802 21.3604 24.0802Z"
            fill="#EEDDEC" />
    </g>
    <defs>
        <clipPath id="clip0_5316_4916">
            <rect width="32" height="32" fill="white" />
        </clipPath>
    </defs>
</svg>