<svg width="32" height="32" viewBox="0 0 32 32" fill="none" xmlns="http://www.w3.org/2000/svg">
    <path fill-rule="evenodd" clip-rule="evenodd"
        d="M8.49993 16.5C7.59596 15.791 7.26262 14.791 7.49993 13.5C6.17786 13.67 5.0112 13.3366 3.99993 12.5C3.50251 15.146 3.33584 17.8127 3.49993 20.5C0.903809 8.41143 5.90381 2.41143 18.4999 2.49999C18.6601 4.19918 18.4934 5.86585 17.9999 7.49999C12.358 7.97683 9.19138 10.9768 8.49993 16.5Z"
        fill="#3676CF" />
    <path fill-rule="evenodd" clip-rule="evenodd"
        d="M20.5 6.5C21.8333 6.5 23.1667 6.5 24.5 6.5C24.5 7.5 24.5 8.5 24.5 9.5C23.1667 9.5 21.8333 9.5 20.5 9.5C19.1667 8.5 19.1667 7.5 20.5 6.5Z"
        fill="#D8A44A" />
    <path opacity="0.639" fill-rule="evenodd" clip-rule="evenodd"
        d="M20.5 9.49995C21.8333 9.49995 23.1667 9.49995 24.5 9.49995C24.5 8.49995 24.5 7.49995 24.5 6.49995C23.1667 6.49995 21.8333 6.49995 20.5 6.49995C22.7503 3.93042 24.417 4.43042 25.5 7.99995C24.417 11.5695 22.7503 12.0695 20.5 9.49995Z"
        fill="#907F5A" />
    <path fill-rule="evenodd" clip-rule="evenodd"
        d="M8.50002 16.5C10.9021 22.1995 14.9021 23.6995 20.5 21C21.4691 17.9252 23.4691 16.9252 26.5 18C27.9104 23.1599 25.9104 26.4933 20.5 28C12.5336 30.3448 6.86694 27.8448 3.50002 20.5C3.33593 17.8127 3.5026 15.146 4.00002 12.5C5.01129 13.3366 6.17795 13.67 7.50002 13.5C7.26271 14.791 7.59605 15.791 8.50002 16.5Z"
        fill="#3578DA" />
</svg>