<svg width="32" height="32" viewBox="0 0 32 32" fill="none" xmlns="http://www.w3.org/2000/svg">
    <g clip-path="url(#clip0_5240_799)">
        <path fill-rule="evenodd" clip-rule="evenodd"
            d="M-0.0712891 -0.0712891C10.5954 -0.0712891 21.262 -0.0712891 31.9287 -0.0712891C31.9287 10.5954 31.9287 21.262 31.9287 31.9287C21.262 31.9287 10.5954 31.9287 -0.0712891 31.9287C-0.0712891 21.262 -0.0712891 10.5954 -0.0712891 -0.0712891Z"
            fill="#453DD8" />
        <path fill-rule="evenodd" clip-rule="evenodd"
            d="M10.7377 9.03089C12.4593 8.78898 13.6682 9.45267 14.3644 11.022C14.4592 14.1509 14.4592 17.2798 14.3644 20.4087C13.8116 22.1899 12.6027 22.9247 10.7377 22.6131C9.81325 22.2576 9.17325 21.6176 8.8177 20.6931C8.72288 17.4694 8.72288 14.2457 8.8177 11.022C9.19989 10.0948 9.83989 9.43114 10.7377 9.03089Z"
            fill="#FAFAFE" />
        <path fill-rule="evenodd" clip-rule="evenodd"
            d="M17.5642 9.1732C18.2385 9.12504 18.4281 9.40949 18.1331 10.0265C17.7163 10.1976 17.4318 10.0553 17.2798 9.59986C17.3783 9.45511 17.4731 9.31289 17.5642 9.1732Z"
            fill="#F1F0FC" />
        <path fill-rule="evenodd" clip-rule="evenodd"
            d="M19.8398 9.17303C20.6184 9.16445 20.8082 9.4726 20.4087 10.0975C20.2097 10.182 20.0201 10.1583 19.8398 10.0264C19.6699 9.7397 19.6699 9.45525 19.8398 9.17303Z"
            fill="#EFEDFB" />
        <path fill-rule="evenodd" clip-rule="evenodd"
            d="M21.9732 9.17298C22.7405 9.03855 22.9775 9.323 22.6844 10.0263C21.9425 10.1845 21.7054 9.90001 21.9732 9.17298Z"
            fill="#EEECFB" />
        <path fill-rule="evenodd" clip-rule="evenodd"
            d="M11.0224 9.88477C13.3417 9.9996 14.0766 11.1374 13.2269 13.2981C11.932 14.3569 10.7942 14.2148 9.81353 12.8714C9.35313 11.5177 9.75609 10.5221 11.0224 9.88477Z"
            fill="#473ED8" />
        <path fill-rule="evenodd" clip-rule="evenodd"
            d="M17.5642 11.4486C18.1583 11.355 18.3716 11.592 18.2042 12.1597C17.7716 12.5666 17.4635 12.4718 17.2798 11.8753C17.3783 11.7305 17.4731 11.5883 17.5642 11.4486Z"
            fill="#EDECFB" />
        <path fill-rule="evenodd" clip-rule="evenodd"
            d="M19.8401 11.4493C20.6246 11.4455 20.8142 11.7536 20.409 12.3737C19.9377 12.5393 19.6532 12.3734 19.5557 11.8759C19.6542 11.7312 19.7489 11.5889 19.8401 11.4493Z"
            fill="#E6E3F9" />
        <path fill-rule="evenodd" clip-rule="evenodd"
            d="M22.1156 11.4492C22.8618 11.4691 23.0041 11.7772 22.5423 12.3737C21.8144 12.3487 21.6721 12.0405 22.1156 11.4492Z"
            fill="#EEEDFB" />
        <path fill-rule="evenodd" clip-rule="evenodd"
            d="M17.5642 13.7242C18.2509 13.7079 18.4405 14.0161 18.1331 14.6487C17.6618 14.8144 17.3773 14.6484 17.2798 14.1509C17.3783 14.0062 17.4731 13.8639 17.5642 13.7242Z"
            fill="#ECEAFB" />
        <path fill-rule="evenodd" clip-rule="evenodd"
            d="M19.8399 13.7242C20.5265 13.7079 20.7161 14.0161 20.4088 14.6487C19.7076 14.7094 19.518 14.4012 19.8399 13.7242Z"
            fill="#F0EEFB" />
        <path fill-rule="evenodd" clip-rule="evenodd"
            d="M22.1156 13.7246C22.8618 13.7445 23.0041 14.0526 22.5423 14.6491C21.8144 14.624 21.6721 14.316 22.1156 13.7246Z"
            fill="#EEEDFB" />
        <path fill-rule="evenodd" clip-rule="evenodd"
            d="M17.1377 16.7109C19.1288 16.7109 21.1199 16.7109 23.111 16.7109C23.111 18.7494 23.111 20.788 23.111 22.8265C21.1199 22.8265 19.1288 22.8265 17.1377 22.8265C17.1377 20.788 17.1377 18.7494 17.1377 16.7109Z"
            fill="#FDFDFE" />
        <path fill-rule="evenodd" clip-rule="evenodd"
            d="M11.0222 17.707C13.0697 17.7376 13.8519 18.7332 13.3688 20.6937C12.7139 21.7908 11.7894 22.099 10.5955 21.6181C9.66014 20.9698 9.35198 20.0927 9.67105 18.987C10.0132 18.4312 10.4636 18.0046 11.0222 17.707Z"
            fill="#463DD8" />
        <path fill-rule="evenodd" clip-rule="evenodd"
            d="M21.8313 18.418C21.8313 18.6551 21.8313 18.892 21.8313 19.1291C20.6935 19.1291 19.5557 19.1291 18.418 19.1291C18.418 18.892 18.418 18.6551 18.418 18.418C19.5557 18.418 20.6935 18.418 21.8313 18.418Z"
            fill="#4139D7" />
        <path fill-rule="evenodd" clip-rule="evenodd"
            d="M21.8313 18.418C21.968 18.669 22.0155 18.9534 21.9735 19.2713C20.7622 19.3177 19.5771 19.2703 18.418 19.1291C19.5557 19.1291 20.6935 19.1291 21.8313 19.1291C21.8313 18.892 21.8313 18.6551 21.8313 18.418Z"
            fill="#C9C7F2" />
        <path fill-rule="evenodd" clip-rule="evenodd"
            d="M10.8799 19.1289C11.354 19.1289 11.828 19.1289 12.3021 19.1289C12.3021 19.6029 12.3021 20.0771 12.3021 20.5511C11.828 20.5511 11.354 20.5511 10.8799 20.5511C10.8799 20.0771 10.8799 19.6029 10.8799 19.1289Z"
            fill="#F7F7FD" />
        <path fill-rule="evenodd" clip-rule="evenodd"
            d="M18.4177 20.4092C18.4177 20.6463 18.4177 20.8832 18.4177 21.1203C19.5555 21.1203 20.6933 21.1203 21.8311 21.1203C21.8311 20.8832 21.8311 20.6463 21.8311 20.4092C21.9677 20.6602 22.0152 20.9446 21.9733 21.2625C20.7406 21.2625 19.5081 21.2625 18.2755 21.2625C18.2335 20.9446 18.2811 20.6602 18.4177 20.4092Z"
            fill="#C0BDF1" />
        <path fill-rule="evenodd" clip-rule="evenodd"
            d="M18.418 20.4092C19.5557 20.4092 20.6935 20.4092 21.8313 20.4092C21.8313 20.6463 21.8313 20.8832 21.8313 21.1203C20.6935 21.1203 19.5557 21.1203 18.418 21.1203C18.418 20.8832 18.418 20.6463 18.418 20.4092Z"
            fill="#433AD7" />
    </g>
    <defs>
        <clipPath id="clip0_5240_799">
            <rect width="32" height="32" fill="white" />
        </clipPath>
    </defs>
</svg>