<svg width="32" height="32" viewBox="0 0 32 32" fill="none" xmlns="http://www.w3.org/2000/svg">
    <path opacity="0.897" fill-rule="evenodd" clip-rule="evenodd"
        d="M17.9806 0C19.0981 0 20.2155 0 21.333 0C21.6419 0.375595 22.0483 0.588928 22.552 0.64C22.6536 0.96 22.8568 1.17333 23.1616 1.28C23.2102 1.80895 23.4134 2.23562 23.7711 2.56C23.7711 2.66667 23.7711 2.77333 23.7711 2.88C23.7711 3.30667 23.7711 3.73334 23.7711 4.16C23.7711 4.26666 23.7711 4.37334 23.7711 4.48C23.7947 4.87994 23.9978 5.14659 24.3806 5.28C24.1015 5.36909 23.8983 5.52909 23.7711 5.76C23.7711 5.86666 23.7711 5.97334 23.7711 6.08C23.1616 6.44576 22.9584 6.92576 23.1616 7.52C22.2566 7.84624 21.5455 8.21958 21.0282 8.64C20.9266 8.64 20.825 8.64 20.7235 8.64C20.4894 8.884 20.337 9.204 20.2663 9.6C20.1956 9.204 20.0432 8.884 19.8092 8.64C19.7076 8.64 19.606 8.64 19.5044 8.64C18.9584 8.68288 18.4505 8.57622 17.9806 8.32C17.879 8.32 17.7774 8.32 17.6758 8.32C17.3711 7.89334 17.0663 7.89334 16.7616 8.32C16.5584 8.32 16.4568 8.42666 16.4568 8.64C16.2536 8.64 16.152 8.74665 16.152 8.96C15.0693 9.83827 14.3582 11.0116 14.0187 12.48C13.8504 13.0658 13.8504 13.5992 14.0187 14.08C13.8155 14.1867 13.6124 14.2933 13.4092 14.4C14.1482 14.7678 14.1482 14.9811 13.4092 15.04C13.1537 15.1493 13.0521 15.3627 13.1044 15.68C13.1044 15.8933 13.1044 16.1067 13.1044 16.32C13.1044 16.4267 13.1044 16.5333 13.1044 16.64C12.9012 16.64 12.7996 16.7467 12.7996 16.96C12.7996 17.0667 12.7996 17.1733 12.7996 17.28C12.8232 17.6799 13.0264 17.9466 13.4092 18.08C13.1301 18.1691 12.9269 18.3291 12.7996 18.56C12.7996 18.6667 12.7996 18.7733 12.7996 18.88C12.8232 19.2799 13.0264 19.5466 13.4092 19.68C13.1301 19.7691 12.9269 19.9291 12.7996 20.16C12.7996 20.2667 12.7996 20.3733 12.7996 20.48C12.7996 20.6933 12.7996 20.9067 12.7996 21.12C12.7996 21.2267 12.7996 21.3333 12.7996 21.44C12.7996 21.5467 12.7996 21.6533 12.7996 21.76C12.7996 21.9733 12.9012 22.08 13.1044 22.08C13.206 22.5067 13.3076 22.9333 13.4092 23.36C13.4092 23.4667 13.4092 23.5733 13.4092 23.68C13.4092 23.7867 13.4092 23.8933 13.4092 24C12.1859 24.053 10.9669 23.9996 9.75203 23.84C9.58258 23.7176 9.481 23.5576 9.44727 23.36C9.44727 23.2533 9.44727 23.1467 9.44727 23.04C9.44727 22.9333 9.44727 22.8267 9.44727 22.72C9.44727 22.5067 9.44727 22.2933 9.44727 22.08C9.44727 21.9733 9.44727 21.8667 9.44727 21.76C9.44727 21.5467 9.44727 21.3333 9.44727 21.12C9.74383 20.3367 9.84541 19.4833 9.75203 18.56C9.75203 18.4533 9.75203 18.3467 9.75203 18.24C9.75203 18.1333 9.75203 18.0267 9.75203 17.92C9.8536 17.7067 9.95521 17.4933 10.0568 17.28C10.0568 17.1733 10.0568 17.0667 10.0568 16.96C10.0568 16.8533 10.0568 16.7467 10.0568 16.64C10.0568 16.5333 10.0568 16.4267 10.0568 16.32C10.1584 16.1067 10.26 15.8933 10.3616 15.68C10.3789 15.3251 10.4805 15.0051 10.6663 14.72C10.6663 14.5067 10.6663 14.2933 10.6663 14.08C10.8695 14.08 10.9711 13.9733 10.9711 13.76C10.9711 13.6533 10.9711 13.5467 10.9711 13.44C11.2265 13.3307 11.3281 13.1173 11.2758 12.8C12.3328 11.2695 13.2471 9.6695 14.0187 8C14.2219 8 14.3235 7.89334 14.3235 7.68C14.5266 7.68 14.6282 7.57334 14.6282 7.36C14.9817 7.00435 15.388 6.68435 15.8473 6.4C15.8096 6.20586 15.708 6.0992 15.5425 6.08C15.5425 5.97334 15.5425 5.86666 15.5425 5.76C15.5425 5.33334 15.5425 4.90666 15.5425 4.48C15.5425 4.37334 15.5425 4.26666 15.5425 4.16C15.5425 3.73334 15.5425 3.30667 15.5425 2.88C15.5425 2.77333 15.5425 2.66667 15.5425 2.56C15.7457 2.56 15.8473 2.45333 15.8473 2.24C15.8473 2.13333 15.8473 2.02667 15.8473 1.92C16.1027 1.81065 16.2043 1.59732 16.152 1.28C16.4568 1.17333 16.66 0.96 16.7616 0.64C17.2653 0.588928 17.6717 0.375595 17.9806 0Z"
        fill="#F7B514" />
    <path opacity="0.01" fill-rule="evenodd" clip-rule="evenodd"
        d="M0 6.08012C0 5.97346 0 5.86677 0 5.76012C0.617844 5.81199 1.22737 5.75868 1.82857 5.60012C1.19006 5.42233 1.13927 5.26233 1.67619 5.12012C2.07811 5.38204 2.43366 5.70204 2.74286 6.08012C1.97331 6.20492 1.05902 6.20492 0 6.08012Z"
        fill="black" />
    <path opacity="0.01" fill-rule="evenodd" clip-rule="evenodd"
        d="M3.65734 5.12032C4.60158 5.09232 4.70316 5.25232 3.9621 5.60032C4.40586 5.73555 4.55824 6.0022 4.41924 6.40032C4.0129 6.40032 3.60653 6.40032 3.2002 6.40032C3.24387 5.96355 3.39625 5.53689 3.65734 5.12032Z"
        fill="black" />
    <path opacity="0.01" fill-rule="evenodd" clip-rule="evenodd"
        d="M11.276 5.12012C11.4959 5.25372 11.6483 5.46706 11.7331 5.76012C12.1652 5.16389 12.7239 5.00389 13.4093 5.28012C13.003 5.38677 12.5966 5.49346 12.1903 5.60012C12.634 5.73535 12.7864 6.00201 12.6474 6.40012C10.0715 6.21369 7.48099 6.107 4.87598 6.08012C7.12555 5.96623 9.25888 5.64623 11.276 5.12012Z"
        fill="black" />
    <path opacity="0.01" fill-rule="evenodd" clip-rule="evenodd"
        d="M13.105 5.76008C13.6499 5.66881 14.1578 5.77547 14.6288 6.08008C14.2181 6.06395 13.7609 6.17064 13.2574 6.40008C13.1159 6.20987 13.065 5.99653 13.105 5.76008Z"
        fill="black" />
    <path opacity="0.01" fill-rule="evenodd" clip-rule="evenodd"
        d="M15.5431 5.75983C15.5431 5.86649 15.5431 5.97318 15.5431 6.07983C15.28 6.38799 15.0768 6.38799 14.9336 6.07983C15.0728 5.82463 15.276 5.71795 15.5431 5.75983Z"
        fill="black" />
    <path opacity="0.01" fill-rule="evenodd" clip-rule="evenodd"
        d="M0.609375 7.04033C0.83812 6.69681 1.14288 6.6435 1.52366 6.88033C1.23474 7.03483 0.929978 7.08817 0.609375 7.04033Z"
        fill="black" />
    <path opacity="0.01" fill-rule="evenodd" clip-rule="evenodd"
        d="M1.82812 7.03973C2.26893 6.6836 2.77686 6.63026 3.35193 6.87973C2.85391 7.03765 2.34597 7.091 1.82812 7.03973Z"
        fill="black" />
    <path opacity="0.01" fill-rule="evenodd" clip-rule="evenodd"
        d="M3.65723 6.71973C4.06357 6.93307 4.06357 6.93307 3.65723 6.71973Z" fill="black" />
    <path opacity="0.01" fill-rule="evenodd" clip-rule="evenodd"
        d="M4.2666 6.71973C4.67294 6.93307 4.67294 6.93307 4.2666 6.71973Z" fill="black" />
    <path opacity="0.01" fill-rule="evenodd" clip-rule="evenodd"
        d="M4.87598 6.71973C5.28232 6.93307 5.28232 6.93307 4.87598 6.71973Z" fill="black" />
    <path opacity="0.01" fill-rule="evenodd" clip-rule="evenodd"
        d="M5.48535 6.71973C5.89169 6.93307 5.89169 6.93307 5.48535 6.71973Z" fill="black" />
    <path opacity="0.01" fill-rule="evenodd" clip-rule="evenodd"
        d="M6.0957 6.71973C6.50204 6.93307 6.50204 6.93307 6.0957 6.71973Z" fill="black" />
    <path opacity="0.01" fill-rule="evenodd" clip-rule="evenodd"
        d="M6.70455 6.71973C7.01955 7.0996 7.42592 7.36625 7.9236 7.51973C7.77121 7.67973 7.61883 7.83973 7.46645 7.99973C6.57265 7.6907 5.75997 7.6907 5.02836 7.99973C4.97755 7.89307 4.92678 7.78638 4.87598 7.67973C5.63023 7.53118 6.23976 7.21118 6.70455 6.71973Z"
        fill="black" />
    <path opacity="0.01" fill-rule="evenodd" clip-rule="evenodd"
        d="M7.31445 6.71973C7.72079 6.93307 7.72079 6.93307 7.31445 6.71973Z" fill="black" />
    <path opacity="0.01" fill-rule="evenodd" clip-rule="evenodd"
        d="M7.92383 7.03992C7.94211 6.86613 8.04369 6.75948 8.22859 6.71992C8.74452 7.28908 9.35405 7.44908 10.0572 7.19992C9.3161 6.85192 9.41768 6.69192 10.3619 6.71992C10.3619 7.03992 10.3619 7.35992 10.3619 7.67992C9.59657 7.74354 8.93625 7.8502 8.38097 7.99992C8.31024 7.60392 8.15785 7.28392 7.92383 7.03992Z"
        fill="black" />
    <path opacity="0.01" fill-rule="evenodd" clip-rule="evenodd"
        d="M8.83789 6.71973C9.24423 6.93307 9.24423 6.93307 8.83789 6.71973Z" fill="black" />
    <path opacity="0.01" fill-rule="evenodd" clip-rule="evenodd"
        d="M10.667 6.71973C11.0733 6.93307 11.0733 6.93307 10.667 6.71973Z" fill="black" />
    <path opacity="0.01" fill-rule="evenodd" clip-rule="evenodd"
        d="M11.5813 7.99977C11.4797 7.99977 11.3781 7.99977 11.2765 7.99977C11.1749 7.57312 11.0733 7.57312 10.9718 7.99977C10.8702 7.99977 10.7686 7.99977 10.667 7.99977C11.2749 6.45971 11.5797 6.45971 11.5813 7.99977Z"
        fill="black" />
    <path opacity="0.01" fill-rule="evenodd" clip-rule="evenodd"
        d="M14.6286 7.35975C14.6286 7.5731 14.527 7.67975 14.3238 7.67975C14.1207 7.67975 14.0191 7.78641 14.0191 7.99975C13.9175 7.99975 13.8159 7.99975 13.7143 7.99975C13.6127 7.5731 13.5111 7.5731 13.4096 7.99975C13.308 7.99975 13.2064 7.99975 13.1048 7.99975C12.8 7.5731 12.4953 7.5731 12.1905 7.99975C12.0889 7.99975 11.9873 7.99975 11.8857 7.99975C11.8857 7.5731 11.8857 7.14641 11.8857 6.71975C13.6252 6.71732 13.7268 6.87732 12.1905 7.19975C12.9969 7.35892 13.8096 7.41227 14.6286 7.35975Z"
        fill="black" />
    <path opacity="0.01" fill-rule="evenodd" clip-rule="evenodd"
        d="M13.7139 6.71973C14.1202 6.93307 14.1202 6.93307 13.7139 6.71973Z" fill="black" />
    <path opacity="0.01" fill-rule="evenodd" clip-rule="evenodd"
        d="M14.3242 6.71973C14.7306 6.93307 14.7306 6.93307 14.3242 6.71973Z" fill="black" />
    <path opacity="0.01" fill-rule="evenodd" clip-rule="evenodd"
        d="M0 7.68035C0 7.5737 0 7.46701 0 7.36035C1.21905 7.46701 1.21905 7.5737 0 7.68035Z"
        fill="black" />
    <path opacity="0.01" fill-rule="evenodd" clip-rule="evenodd"
        d="M1.21923 7.35965C1.95797 7.26121 2.66908 7.3679 3.35257 7.67965C2.71927 7.74678 2.05895 7.85344 1.37161 7.99965C1.2301 7.80944 1.17931 7.59609 1.21923 7.35965Z"
        fill="black" />
    <path opacity="0.01" fill-rule="evenodd" clip-rule="evenodd"
        d="M3.65771 7.35965C4.22295 7.28669 4.47694 7.50003 4.41961 7.99965C4.21643 7.57299 4.01327 7.57299 3.81009 7.99965C3.66859 7.80944 3.61778 7.5961 3.65771 7.35965Z"
        fill="black" />
    <path opacity="0.01" fill-rule="evenodd" clip-rule="evenodd"
        d="M0.304688 8.32031C0.711036 8.53366 0.711036 8.53366 0.304688 8.32031Z" fill="black" />
    <path opacity="0.01" fill-rule="evenodd" clip-rule="evenodd"
        d="M1.21875 8.32031C1.6251 8.53366 1.6251 8.53366 1.21875 8.32031Z" fill="black" />
    <path opacity="0.01" fill-rule="evenodd" clip-rule="evenodd"
        d="M0 9.28031C0 9.17366 0 9.06697 0 8.96031C0.836218 9.04098 1.59812 8.82767 2.28571 8.32031C2.85246 9.09324 3.3604 9.09324 3.80952 8.32031C4.00606 8.68703 4.26005 9.00703 4.57143 9.28031C3.17038 9.41292 1.64657 9.41292 0 9.28031Z"
        fill="black" />
    <path opacity="0.01" fill-rule="evenodd" clip-rule="evenodd"
        d="M3.04785 8.32031C3.45419 8.53366 3.45419 8.53366 3.04785 8.32031Z" fill="black" />
    <path opacity="0.01" fill-rule="evenodd" clip-rule="evenodd"
        d="M4.2666 8.32031C4.67294 8.53366 4.67294 8.53366 4.2666 8.32031Z" fill="black" />
    <path opacity="0.01" fill-rule="evenodd" clip-rule="evenodd"
        d="M4.87598 8.32031C5.28232 8.53366 5.28232 8.53366 4.87598 8.32031Z" fill="black" />
    <path opacity="0.01" fill-rule="evenodd" clip-rule="evenodd"
        d="M5.48535 8.32031C5.89169 8.53366 5.89169 8.53366 5.48535 8.32031Z" fill="black" />
    <path opacity="0.01" fill-rule="evenodd" clip-rule="evenodd"
        d="M8.22836 8.96031C8.12678 9.28031 7.9236 9.49366 7.61883 9.60031C6.91166 9.33042 6.25134 9.33042 5.63788 9.60031C5.40919 9.40006 5.1552 9.24006 4.87598 9.12031C5.4855 9.01366 6.09502 8.90697 6.70455 8.80031C6.06604 8.62252 6.01524 8.46252 6.55217 8.32031C7.0389 8.76342 7.59765 8.97676 8.22836 8.96031Z"
        fill="black" />
    <path opacity="0.01" fill-rule="evenodd" clip-rule="evenodd"
        d="M8.5335 8.63985C8.5335 8.8532 8.43192 8.95985 8.22874 8.95985C7.99636 8.71413 7.6916 8.55413 7.31445 8.47985C7.79162 8.23505 8.19799 8.2884 8.5335 8.63985Z"
        fill="black" />
    <path opacity="0.01" fill-rule="evenodd" clip-rule="evenodd"
        d="M16.7618 8.32031C17.0666 8.32031 17.3713 8.32031 17.6761 8.32031C17.7777 8.32031 17.8793 8.32031 17.9808 8.32031C18.0044 8.72025 18.2076 8.9869 18.5904 9.12031C18.1962 9.27711 17.7899 9.33046 17.3713 9.28031C17.0691 9.33522 16.8659 9.22854 16.7618 8.96031C16.6602 8.96031 16.5586 8.96031 16.457 8.96031C16.457 8.85366 16.457 8.74697 16.457 8.64031C16.457 8.42697 16.5586 8.32031 16.7618 8.32031Z"
        fill="black" />
    <path opacity="0.01" fill-rule="evenodd" clip-rule="evenodd"
        d="M21.9424 8.32031C22.3487 8.53366 22.3487 8.53366 21.9424 8.32031Z" fill="black" />
    <path opacity="0.01" fill-rule="evenodd" clip-rule="evenodd"
        d="M22.5527 8.32031C22.9591 8.53366 22.9591 8.53366 22.5527 8.32031Z" fill="black" />
    <path opacity="0.01" fill-rule="evenodd" clip-rule="evenodd"
        d="M19.505 8.63965C19.6066 8.63965 19.7082 8.63965 19.8098 8.63965C19.8116 9.61488 19.5069 9.77488 18.8955 9.11965C19.1746 9.03056 19.3778 8.87056 19.505 8.63965Z"
        fill="black" />
    <path opacity="0.01" fill-rule="evenodd" clip-rule="evenodd"
        d="M20.7236 8.63965C20.8252 8.63965 20.9268 8.63965 21.0284 8.63965C21.6778 8.90006 22.389 9.06006 23.1617 9.11965C22.7554 9.17299 22.349 9.2263 21.9427 9.27965C21.3841 9.25232 20.9778 9.03898 20.7236 8.63965Z"
        fill="black" />
    <path opacity="0.847" fill-rule="evenodd" clip-rule="evenodd"
        d="M10.6671 8C10.7687 8 10.8703 8 10.9719 8C11.0735 8 11.1751 8 11.2767 8C11.3782 8 11.4798 8 11.5814 8C11.683 8 11.7846 8 11.8862 8C11.9878 8 12.0894 8 12.1909 8C12.4957 8 12.8005 8 13.1052 8C13.2068 8 13.3084 8 13.41 8C13.5116 8 13.6132 8 13.7148 8C13.8163 8 13.9179 8 14.0195 8C13.2479 9.6695 12.3336 11.2695 11.2767 12.8C11.0212 12.9093 10.9196 13.1227 10.9719 13.44C10.6989 13.118 10.4958 13.118 10.3624 13.44C10.1069 13.5493 10.0053 13.7627 10.0576 14.08C9.75285 14.1867 9.54966 14.4 9.44808 14.72C9.44808 14.8267 9.44808 14.9333 9.44808 15.04C9.44808 15.1467 9.44808 15.2533 9.44808 15.36C9.2449 15.36 9.14332 15.4667 9.14332 15.68C9.24121 16.1754 9.54597 16.3887 10.0576 16.32C10.0576 16.4267 10.0576 16.5333 10.0576 16.64C8.83856 16.7467 8.83856 16.8533 10.0576 16.96C10.0576 17.0667 10.0576 17.1733 10.0576 17.28C9.03571 17.2305 8.93413 17.4438 9.75285 17.92C9.75285 18.0267 9.75285 18.1333 9.75285 18.24C9.34651 18.3467 9.34651 18.4533 9.75285 18.56C9.84623 19.4833 9.74465 20.3367 9.44808 21.12C9.34651 21.12 9.2449 21.12 9.14332 21.12C9.19562 20.8027 9.09401 20.5893 8.83856 20.48C8.70687 20.093 8.50372 19.773 8.22904 19.52C8.28133 19.2027 8.17973 18.9893 7.92427 18.88C7.92427 18.7733 7.92427 18.6667 7.92427 18.56C7.37808 18.3011 6.76856 18.1411 6.0957 18.08C6.60365 17.9733 7.11157 17.8667 7.61951 17.76C7.45007 17.6376 7.34849 17.4776 7.31475 17.28C7.31475 17.1733 7.31475 17.0667 7.31475 16.96C7.18751 16.7291 6.98433 16.5691 6.70523 16.48C7.02593 15.9307 6.82274 15.6107 6.0957 15.52C6.90841 15.3067 6.90841 15.0933 6.0957 14.88C6.47848 14.7466 6.68164 14.4799 6.70523 14.08C6.70523 13.9733 6.70523 13.8667 6.70523 13.76C6.75298 13.3205 6.70218 12.8938 6.55285 12.48C6.35344 12.8626 6.20106 12.8626 6.0957 12.48C6.85496 12.147 6.85496 11.8803 6.0957 11.68C6.5892 11.6046 6.89397 11.338 7.00999 10.88C7.00999 10.7733 7.00999 10.6667 7.00999 10.56C7.28467 10.307 7.48783 9.98704 7.61951 9.6C7.92427 9.49334 8.12746 9.28 8.22904 8.96C8.43222 8.96 8.5338 8.85334 8.5338 8.64C9.2047 8.29875 9.9158 8.08544 10.6671 8Z"
        fill="#208DC5" />
    <path opacity="0.01" fill-rule="evenodd" clip-rule="evenodd"
        d="M0.304688 9.91992C0.711036 10.1333 0.711036 10.1333 0.304688 9.91992Z" fill="black" />
    <path opacity="0.01" fill-rule="evenodd" clip-rule="evenodd"
        d="M1.21875 10.2398C1.86733 9.87848 2.57844 9.82513 3.35208 10.0798C2.64814 10.2387 1.93703 10.292 1.21875 10.2398Z"
        fill="black" />
    <path opacity="0.01" fill-rule="evenodd" clip-rule="evenodd"
        d="M3.65723 10.2396C3.88598 9.89603 4.19074 9.84272 4.57151 10.0796C4.2826 10.234 3.97784 10.2874 3.65723 10.2396Z"
        fill="black" />
    <path opacity="0.01" fill-rule="evenodd" clip-rule="evenodd"
        d="M4.87598 10.2396C5.10473 9.89603 5.40949 9.84272 5.79026 10.0796C5.50135 10.234 5.19659 10.2874 4.87598 10.2396Z"
        fill="black" />
    <path opacity="0.01" fill-rule="evenodd" clip-rule="evenodd"
        d="M6.0957 9.91992C6.50204 10.1333 6.50204 10.1333 6.0957 9.91992Z" fill="black" />
    <path opacity="0.01" fill-rule="evenodd" clip-rule="evenodd"
        d="M6.70508 9.91992C7.11142 10.1333 7.11142 10.1333 6.70508 9.91992Z" fill="black" />
    <path opacity="0.01" fill-rule="evenodd" clip-rule="evenodd"
        d="M0 10.8796C0 10.7729 0 10.6662 0 10.5596C2.33651 10.5596 4.67301 10.5596 7.00952 10.5596C7.00952 10.6662 7.00952 10.7729 7.00952 10.8796C4.69123 11.0345 2.35471 11.0345 0 10.8796Z"
        fill="black" />
    <path opacity="0.01" fill-rule="evenodd" clip-rule="evenodd"
        d="M0 11.8395C0 11.7329 0 11.6262 0 11.5195C1.21905 11.6262 1.21905 11.7329 0 11.8395Z"
        fill="black" />
    <path opacity="0.01" fill-rule="evenodd" clip-rule="evenodd"
        d="M0 12.4796C0 12.3729 0 12.2662 0 12.1596C0.818987 12.2121 1.63169 12.1587 2.4381 11.9996C2.03175 11.8929 1.6254 11.7862 1.21905 11.6796C1.95098 11.4626 2.6113 11.6226 3.2 12.1596C3.78871 11.6226 4.44901 11.4626 5.18095 11.6796C4.77461 11.7862 4.36824 11.8929 3.9619 11.9996C4.5948 12.0611 5.20433 12.2211 5.79048 12.4796C3.92692 12.6193 1.99675 12.6193 0 12.4796Z"
        fill="black" />
    <path opacity="0.01" fill-rule="evenodd" clip-rule="evenodd"
        d="M3.04785 11.5195C3.45419 11.7329 3.45419 11.7329 3.04785 11.5195Z" fill="black" />
    <path opacity="0.01" fill-rule="evenodd" clip-rule="evenodd"
        d="M5.48535 11.5195C5.89169 11.7329 5.89169 11.7329 5.48535 11.5195Z" fill="black" />
    <path opacity="0.01" fill-rule="evenodd" clip-rule="evenodd"
        d="M21.3331 11.8398C21.7017 11.9781 22.0065 12.1914 22.2474 12.4798C21.9452 12.4249 21.742 12.5316 21.6378 12.7998C21.3331 12.6932 21.1299 12.4798 21.0283 12.1598C21.2315 12.1598 21.3331 12.0532 21.3331 11.8398Z"
        fill="black" />
    <path opacity="0.01" fill-rule="evenodd" clip-rule="evenodd"
        d="M0 13.1201C0.406349 13.3335 0.406349 13.3335 0 13.1201Z" fill="black" />
    <path opacity="0.01" fill-rule="evenodd" clip-rule="evenodd"
        d="M0.609375 13.4397C0.83812 13.0962 1.14288 13.0429 1.52366 13.2797C1.23474 13.4342 0.929978 13.4876 0.609375 13.4397Z"
        fill="black" />
    <path opacity="0.01" fill-rule="evenodd" clip-rule="evenodd"
        d="M1.82812 13.4401C2.26893 13.084 2.77686 13.0307 3.35193 13.2801C2.85391 13.438 2.34597 13.4914 1.82812 13.4401Z"
        fill="black" />
    <path opacity="0.01" fill-rule="evenodd" clip-rule="evenodd"
        d="M3.65723 13.4397C3.88598 13.0962 4.19074 13.0429 4.57151 13.2797C4.2826 13.4342 3.97784 13.4876 3.65723 13.4397Z"
        fill="black" />
    <path opacity="0.01" fill-rule="evenodd" clip-rule="evenodd"
        d="M4.87598 13.1201C5.28232 13.3335 5.28232 13.3335 4.87598 13.1201Z" fill="black" />
    <path opacity="0.01" fill-rule="evenodd" clip-rule="evenodd"
        d="M5.48535 13.1201C5.89169 13.3335 5.89169 13.3335 5.48535 13.1201Z" fill="black" />
    <path opacity="0.01" fill-rule="evenodd" clip-rule="evenodd"
        d="M6.0957 13.1201C6.50204 13.3335 6.50204 13.3335 6.0957 13.1201Z" fill="black" />
    <path opacity="0.01" fill-rule="evenodd" clip-rule="evenodd"
        d="M16.4574 13.1195C16.7596 13.0646 16.9628 13.1712 17.0669 13.4395C17.1685 13.4395 17.2701 13.4395 17.3717 13.4395C17.4172 13.7761 17.3664 14.0961 17.2193 14.3995C17.0161 13.9728 16.813 13.9728 16.6098 14.3995C16.1494 14.059 16.0986 13.6323 16.4574 13.1195Z"
        fill="black" />
    <path opacity="0.955" fill-rule="evenodd" clip-rule="evenodd"
        d="M18.5909 9.91992C20.1098 10.0258 21.4813 10.0258 22.7052 9.91992C23.1453 10.4496 23.7041 10.663 24.3814 10.5599C24.7384 10.8302 25.1447 11.0435 25.6004 11.1999C26.2053 11.3751 26.7132 11.6951 27.1242 12.1599C27.3274 12.3733 27.5306 12.5866 27.7338 12.7999C27.8884 13.3544 28.1424 13.461 28.4957 13.1199C28.5538 13.8264 28.7062 14.4664 28.9528 15.0399C28.9528 15.2533 28.9528 15.4666 28.9528 15.6799C28.9528 15.8933 28.9528 16.1066 28.9528 16.3199C28.9355 16.6748 28.8339 16.9948 28.648 17.2799C28.6716 17.6799 28.8748 17.9465 29.2576 18.0799C28.8804 18.1542 28.5757 18.3142 28.3433 18.5599C28.3433 18.6666 28.3433 18.7733 28.3433 18.8799C28.1459 19.4641 27.7904 20.1041 27.2766 20.7999C27.0663 20.4037 26.9139 20.4037 26.8195 20.7999C25.7792 19.3639 24.9665 17.7639 24.3814 15.9999C24.3814 15.8933 24.3814 15.7866 24.3814 15.6799C24.3814 15.5733 24.3814 15.4666 24.3814 15.3599C24.3814 15.2533 24.3814 15.1466 24.3814 15.0399C24.3814 14.8266 24.2798 14.7199 24.0766 14.7199C23.9035 13.5784 23.294 12.8317 22.248 12.4799C22.0071 12.1915 21.7024 11.9782 21.3338 11.8399C21.2322 11.8399 21.1306 11.8399 21.029 11.8399C20.0957 11.4562 19.1814 10.9762 18.2861 10.3999C18.4556 10.2775 18.5572 10.1175 18.5909 9.91992Z"
        fill="#63B643" />
    <path opacity="0.01" fill-rule="evenodd" clip-rule="evenodd"
        d="M10.362 13.4404C10.4662 13.7087 10.6694 13.8153 10.9716 13.7604C10.9716 13.9738 10.87 14.0804 10.6668 14.0804C10.4636 14.0804 10.2605 14.0804 10.0573 14.0804C10.005 13.7631 10.1066 13.5498 10.362 13.4404Z"
        fill="black" />
    <path opacity="0.01" fill-rule="evenodd" clip-rule="evenodd"
        d="M0 14.0798C0 13.9731 0 13.8664 0 13.7598C0.812699 13.8664 0.812699 13.9731 0 14.0798Z"
        fill="black" />
    <path opacity="0.01" fill-rule="evenodd" clip-rule="evenodd"
        d="M0.914062 14.0797C1.68332 13.6636 2.49602 13.6636 3.35216 14.0797C2.50536 14.3629 1.69266 14.3629 0.914062 14.0797Z"
        fill="black" />
    <path opacity="0.01" fill-rule="evenodd" clip-rule="evenodd"
        d="M6.70485 13.7599C6.70485 13.8666 6.70485 13.9733 6.70485 14.0799C5.94285 14.2794 5.18094 14.3861 4.41913 14.3999C4.19044 14.1997 3.93645 14.0397 3.65723 13.9199C4.66806 13.7605 5.68392 13.7071 6.70485 13.7599Z"
        fill="black" />
    <path opacity="0.01" fill-rule="evenodd" clip-rule="evenodd"
        d="M0.304688 14.7197C0.711036 14.9331 0.711036 14.9331 0.304688 14.7197Z" fill="black" />
    <path opacity="0.01" fill-rule="evenodd" clip-rule="evenodd"
        d="M0.914062 15.0399C1.03492 14.7119 1.23809 14.6585 1.52359 14.8799C1.34243 15.0284 1.13925 15.0818 0.914062 15.0399Z"
        fill="black" />
    <path opacity="0.01" fill-rule="evenodd" clip-rule="evenodd"
        d="M0 15.6797C0 15.5731 0 15.4664 0 15.3597C0.836218 15.4404 1.59812 15.2271 2.28571 14.7197C2.85246 15.4927 3.3604 15.4927 3.80952 14.7197C4.35392 15.2315 5.01425 15.4982 5.79048 15.5197C5.16389 15.6192 4.55436 15.7792 3.9619 15.9997C2.66212 15.6994 1.34149 15.5927 0 15.6797Z"
        fill="black" />
    <path opacity="0.01" fill-rule="evenodd" clip-rule="evenodd"
        d="M3.04785 14.7197C3.45419 14.9331 3.45419 14.9331 3.04785 14.7197Z" fill="black" />
    <path opacity="0.01" fill-rule="evenodd" clip-rule="evenodd"
        d="M4.2666 14.7197C4.67294 14.9331 4.67294 14.9331 4.2666 14.7197Z" fill="black" />
    <path opacity="0.01" fill-rule="evenodd" clip-rule="evenodd"
        d="M4.87598 14.7197C5.28232 14.9331 5.28232 14.9331 4.87598 14.7197Z" fill="black" />
    <path opacity="0.01" fill-rule="evenodd" clip-rule="evenodd"
        d="M5.48535 14.7197C5.89169 14.9331 5.89169 14.9331 5.48535 14.7197Z" fill="black" />
    <path opacity="0.01" fill-rule="evenodd" clip-rule="evenodd"
        d="M9.44734 15.0397C9.44734 14.9331 9.44734 14.8264 9.44734 14.7197C9.85368 14.7197 10.26 14.7197 10.6664 14.7197C10.4805 15.0048 10.379 15.3248 10.3616 15.6797C9.95529 15.6797 9.54892 15.6797 9.14258 15.6797C9.14258 15.4664 9.24416 15.3597 9.44734 15.3597C10.26 15.2531 10.26 15.1464 9.44734 15.0397Z"
        fill="black" />
    <path opacity="0.01" fill-rule="evenodd" clip-rule="evenodd"
        d="M19.5045 15.0397C19.7077 15.0397 19.8093 15.1464 19.8093 15.3597C19.8492 15.6402 19.7476 15.8535 19.5045 15.9997C18.7324 15.5875 17.9705 15.5875 17.2188 15.9997C15.8893 15.6729 15.8893 15.2463 17.2188 14.7197C17.7268 14.9331 18.2347 15.1464 18.7426 15.3597C19.0687 15.3508 19.3227 15.2441 19.5045 15.0397Z"
        fill="black" />
    <path opacity="0.01" fill-rule="evenodd" clip-rule="evenodd"
        d="M13.4099 15.04C14.2505 15.5093 14.1489 15.7227 13.1051 15.68C13.0528 15.3627 13.1544 15.1494 13.4099 15.04Z"
        fill="black" />
    <path opacity="0.01" fill-rule="evenodd" clip-rule="evenodd"
        d="M0.304688 16.3203C0.711036 16.5337 0.711036 16.5337 0.304688 16.3203Z" fill="black" />
    <path opacity="0.01" fill-rule="evenodd" clip-rule="evenodd"
        d="M1.21875 16.6402C1.86733 16.2789 2.57844 16.2255 3.35208 16.4802C2.64814 16.6391 1.93703 16.6924 1.21875 16.6402Z"
        fill="black" />
    <path opacity="0.01" fill-rule="evenodd" clip-rule="evenodd"
        d="M3.65723 16.6399C3.88598 16.2964 4.19074 16.2431 4.57151 16.4799C4.2826 16.6344 3.97784 16.6878 3.65723 16.6399Z"
        fill="black" />
    <path opacity="0.01" fill-rule="evenodd" clip-rule="evenodd"
        d="M4.87598 16.6399C5.10473 16.2964 5.40949 16.2431 5.79026 16.4799C5.50135 16.6344 5.19659 16.6878 4.87598 16.6399Z"
        fill="black" />
    <path opacity="0.01" fill-rule="evenodd" clip-rule="evenodd"
        d="M6.0957 16.3203C6.50204 16.5337 6.50204 16.5337 6.0957 16.3203Z" fill="black" />
    <path opacity="0.01" fill-rule="evenodd" clip-rule="evenodd"
        d="M13.1046 16.3203C14.3307 16.9595 15.6513 17.1195 17.0665 16.8003C16.2678 16.5105 16.3186 16.3505 17.2189 16.3203C18.1191 16.3505 18.17 16.5105 17.3712 16.8003C17.7268 16.8537 18.0823 16.907 18.4379 16.9603C19.0111 16.8228 19.4683 16.6095 19.8093 16.3203C19.8571 16.7598 19.8063 17.1865 19.6569 17.6003C17.4492 17.6398 15.1635 17.5332 12.7998 17.2803C12.7998 17.1737 12.7998 17.067 12.7998 16.9603C13.003 16.9603 13.1046 16.8537 13.1046 16.6403C13.1046 16.5337 13.1046 16.427 13.1046 16.3203Z"
        fill="black" />
    <path opacity="0.01" fill-rule="evenodd" clip-rule="evenodd"
        d="M21.0283 16.3203C21.2315 16.3203 21.3331 16.427 21.3331 16.6403C20.2141 16.8146 20.3157 16.9213 21.6378 16.9603C21.841 16.9603 21.9426 17.067 21.9426 17.2803C21.3035 17.4393 20.7447 17.5459 20.2664 17.6003C20.1171 17.1865 20.0663 16.7598 20.114 16.3203C20.4188 16.3203 20.7236 16.3203 21.0283 16.3203Z"
        fill="black" />
    <path opacity="0.01" fill-rule="evenodd" clip-rule="evenodd"
        d="M0 16.96C0.406349 17.1733 0.406349 17.1733 0 16.96Z" fill="black" />
    <path opacity="0.01" fill-rule="evenodd" clip-rule="evenodd"
        d="M7.31414 16.9604C7.31414 17.067 7.31414 17.1737 7.31414 17.2804C5.74458 17.4971 4.16997 17.6038 2.59033 17.6004C1.95967 17.356 1.29935 17.196 0.609375 17.1204C2.84199 16.9605 5.07691 16.9072 7.31414 16.9604Z"
        fill="black" />
    <path opacity="0.01" fill-rule="evenodd" clip-rule="evenodd"
        d="M0 18.2399C0 18.1333 0 18.0266 0 17.9199C1.21905 18.0266 1.21905 18.1333 0 18.2399Z"
        fill="black" />
    <path opacity="0.01" fill-rule="evenodd" clip-rule="evenodd"
        d="M2.74256 18.5599C2.64097 18.5599 2.53938 18.5599 2.4378 18.5599C2.09996 18.3071 1.69361 18.1471 1.21875 18.0799C1.92986 17.8666 2.64097 17.8666 3.35208 18.0799C3.07298 18.169 2.86981 18.329 2.74256 18.5599Z"
        fill="black" />
    <path opacity="0.01" fill-rule="evenodd" clip-rule="evenodd"
        d="M3.96199 18.5599C3.86041 18.5599 3.7588 18.5599 3.65723 18.5599C3.85599 18.1679 4.21156 17.9546 4.72389 17.9199C5.07946 17.9733 5.43499 18.0266 5.79056 18.0799C5.11771 18.141 4.50818 18.301 3.96199 18.5599Z"
        fill="black" />
    <path opacity="0.01" fill-rule="evenodd" clip-rule="evenodd"
        d="M19.5047 17.9199C19.8394 18.2722 19.8902 18.6989 19.6571 19.1999C18.6412 18.7733 17.6253 18.7733 16.6095 19.1999C16.4571 19.0399 16.3047 18.8799 16.1523 18.7199C17.4118 18.7499 18.5293 18.4832 19.5047 17.9199Z"
        fill="black" />
    <path opacity="0.01" fill-rule="evenodd" clip-rule="evenodd"
        d="M22.8569 18.5599C23.0601 18.5599 23.1617 18.6666 23.1617 18.8799C22.9585 18.8799 22.8569 18.9866 22.8569 19.1999C21.9007 19.1121 21.0372 19.1121 20.2664 19.1999C20.1171 18.7861 20.0663 18.3594 20.114 17.9199C21.0479 18.0567 21.9621 18.2701 22.8569 18.5599Z"
        fill="black" />
    <path opacity="0.01" fill-rule="evenodd" clip-rule="evenodd"
        d="M0 18.8796C0 18.7729 0 18.6662 0 18.5596C0.812699 18.5596 1.6254 18.5596 2.4381 18.5596C2.33396 18.8278 2.13078 18.9345 1.82857 18.8796C1.6254 18.8796 1.52381 18.9862 1.52381 19.1996C1.42222 19.1996 1.32063 19.1996 1.21905 19.1996C0.893672 18.9005 0.487323 18.7939 0 18.8796Z"
        fill="black" />
    <path opacity="0.01" fill-rule="evenodd" clip-rule="evenodd"
        d="M6.0957 18.8805C6.63349 18.5729 7.24301 18.4662 7.92427 18.5605C7.92427 18.6672 7.92427 18.7739 7.92427 18.8805C7.47527 19.0634 6.96732 19.0634 6.40047 18.8805C6.29889 18.8805 6.19728 18.8805 6.0957 18.8805Z"
        fill="black" />
    <path opacity="0.01" fill-rule="evenodd" clip-rule="evenodd"
        d="M12.7998 18.8803C12.7998 18.7736 12.7998 18.6669 12.7998 18.5603C13.441 18.4646 14.0505 18.5713 14.6284 18.8803C14.0438 18.934 13.4342 18.934 12.7998 18.8803Z"
        fill="black" />
    <path opacity="0.01" fill-rule="evenodd" clip-rule="evenodd"
        d="M0 19.5195C0.406349 19.7329 0.406349 19.7329 0 19.5195Z" fill="black" />
    <path opacity="0.86" fill-rule="evenodd" clip-rule="evenodd"
        d="M23.1616 23.6797C22.7189 24.1037 22.8205 24.3703 23.4663 24.4797C23.0892 24.554 22.7844 24.714 22.552 24.9597C22.3488 24.9597 22.2473 25.0663 22.2473 25.2797C22.1457 25.493 22.0441 25.7063 21.9425 25.9197C21.7017 26.2744 21.5494 26.7011 21.4854 27.1997C21.3838 27.093 21.2822 26.9863 21.1806 26.8797C21.079 27.413 20.9774 27.9463 20.8758 28.4797C20.5788 27.7189 20.3757 27.8255 20.2663 28.7997C19.9131 28.4586 19.6591 28.5652 19.5044 29.1197C19.1358 29.258 18.831 29.4713 18.5901 29.7597C18.3869 29.7597 18.2854 29.8663 18.2854 30.0797C16.5847 30.3429 16.4831 30.6095 17.9806 30.8797C17.625 30.933 17.2695 30.9863 16.9139 31.0397C15.7859 30.9386 14.6684 30.9386 13.5616 31.0397C13.4986 30.5901 13.1431 30.2701 12.4949 30.0797C12.3907 29.8115 12.1876 29.7048 11.8854 29.7597C11.5631 29.3489 11.2584 28.9223 10.9711 28.4797C10.9711 28.373 10.9711 28.2663 10.9711 28.1597C10.5287 27.9031 10.0207 27.7431 9.44727 27.6797C9.8536 27.573 10.26 27.4663 10.6663 27.3597C10.4969 27.2373 10.3953 27.0773 10.3616 26.8797C10.3616 26.6663 10.26 26.5597 10.0568 26.5597C10.0568 26.453 10.0568 26.3463 10.0568 26.2397C11.8458 25.8345 13.6744 25.8345 15.5425 26.2397C16.1692 26.4688 16.8295 26.6822 17.5235 26.8797C17.6098 25.8422 17.8638 25.7355 18.2854 26.5597C18.7866 26.1769 19.2945 25.8569 19.8092 25.5997C20.0124 25.5997 20.1139 25.493 20.1139 25.2797C20.9937 24.4631 22.0096 23.9298 23.1616 23.6797Z"
        fill="#E7AA15" />
    <path opacity="0.957" fill-rule="evenodd" clip-rule="evenodd"
        d="M2.4381 18.5603C2.53968 18.5603 2.64127 18.5603 2.74286 18.5603C3.04762 18.5603 3.35238 18.5603 3.65714 18.5603C3.75872 18.5603 3.86033 18.5603 3.9619 18.5603C4.70845 18.4956 5.41958 18.6023 6.09524 18.8803C6.19682 18.8803 6.29842 18.8803 6.4 18.8803C6.60319 19.3069 6.90795 19.6269 7.31429 19.8403C7.51747 20.2669 7.72063 20.6936 7.92381 21.1203C8.10965 21.4054 8.21123 21.7254 8.22857 22.0803C8.43685 22.6168 8.84322 22.8301 9.44762 22.7203C9.44762 22.8269 9.44762 22.9336 9.44762 23.0403C7.82223 23.1469 7.82223 23.2536 9.44762 23.3603C9.48136 23.5579 9.58293 23.7179 9.75238 23.8403C10.9672 23.9999 12.1863 24.0532 13.4095 24.0003C13.8159 23.8936 13.8159 23.7869 13.4095 23.6803C13.4095 23.5736 13.4095 23.4669 13.4095 23.3603C15.3784 23.417 17.207 22.9904 18.8952 22.0803C19.1974 22.1352 19.4006 22.0285 19.5048 21.7603C19.5721 20.9292 19.7244 20.9292 19.9619 21.7603C20.4165 21.3058 20.8736 20.8791 21.3333 20.4803C21.5365 20.4803 21.6381 20.3736 21.6381 20.1603C22.2185 20.0843 22.6248 19.7643 22.8571 19.2003C23.0603 19.2003 23.1619 19.0936 23.1619 18.8803C24.3155 19.7001 24.925 20.8734 24.9905 22.4003C24.9905 22.5069 24.9905 22.6136 24.9905 22.7203C24.8889 22.7203 24.7873 22.7203 24.6857 22.7203C24.381 22.8269 24.1778 23.0403 24.0762 23.3603C23.774 23.3054 23.5708 23.4121 23.4667 23.6803C23.3651 23.6803 23.2635 23.6803 23.1619 23.6803C22.0099 23.9304 20.994 24.4637 20.1143 25.2803C19.9111 25.2803 19.8095 25.3869 19.8095 25.6003C19.6214 25.5649 19.469 25.4582 19.3524 25.2803C18.0412 25.8047 16.7713 26.1247 15.5429 26.2403C13.6747 25.8351 11.8462 25.8351 10.0571 26.2403C9.39569 25.8408 8.68459 25.5208 7.92381 25.2803C7.38423 25.4516 7.28262 25.7183 7.61905 26.0803C7.24191 26.1546 6.93714 26.3146 6.70476 26.5603C6.40256 26.5054 6.19938 26.6121 6.09524 26.8803C4.55811 27.2666 3.1359 27.2666 1.82857 26.8803C1.82857 26.6669 1.72699 26.5603 1.52381 26.5603C1.0142 26.122 0.506258 25.6954 0 25.2803C0 25.1736 0 25.0669 0 24.9603C0.406349 24.8536 0.406349 24.7469 0 24.6403C0 23.4669 0 22.2936 0 21.1203C0.406349 20.9069 0.406349 20.6936 0 20.4803C0 20.3736 0 20.2669 0 20.1603C0.494199 19.9611 0.900547 19.6411 1.21905 19.2003C1.32063 19.2003 1.42222 19.2003 1.52381 19.2003C1.72699 19.2003 1.82857 19.0936 1.82857 18.8803C2.13078 18.9352 2.33396 18.8285 2.4381 18.5603ZM8.22857 22.0803C8.63491 22.0803 9.04128 22.0803 9.44762 22.0803C9.44762 22.2936 9.44762 22.5069 9.44762 22.7203C8.84322 22.8301 8.43685 22.6168 8.22857 22.0803ZM6.4 18.8803C6.96686 19.0632 7.4748 19.0632 7.92381 18.8803C8.17926 18.9896 8.28087 19.203 8.22857 19.5203C8.14229 19.7494 8.04072 20.0161 7.92381 20.3203C8.18356 20.8734 8.48832 20.9267 8.8381 20.4803C8.88585 20.9198 8.83505 21.3465 8.68571 21.7603C8.55866 21.3584 8.3047 21.1451 7.92381 21.1203C7.72063 20.6936 7.51747 20.2669 7.31429 19.8403C6.90795 19.6269 6.60319 19.3069 6.4 18.8803Z"
        fill="#63B542" />
    <path opacity="0.01" fill-rule="evenodd" clip-rule="evenodd"
        d="M19.5047 21.7601C19.4006 22.0283 19.1974 22.135 18.8952 22.0801C17.9172 22.3298 17.0029 22.2765 16.1523 21.9201C16.3736 21.4729 16.7291 21.2063 17.219 21.1201C17.9382 21.5297 18.7001 21.7431 19.5047 21.7601Z"
        fill="black" />
    <path opacity="0.01" fill-rule="evenodd" clip-rule="evenodd"
        d="M12.7998 21.4398C12.7998 21.3331 12.7998 21.2264 12.7998 21.1198C13.2184 21.0696 13.6247 21.123 14.0189 21.2798C13.2061 21.4931 13.2061 21.7064 14.0189 21.9198C13.7299 22.0743 13.4252 22.1276 13.1046 22.0798C12.9014 22.0798 12.7998 21.9731 12.7998 21.7598C13.2061 21.6531 13.2061 21.5464 12.7998 21.4398Z"
        fill="black" />
    <path opacity="0.01" fill-rule="evenodd" clip-rule="evenodd"
        d="M8.83811 20.4805C9.09357 20.5898 9.19517 20.8032 9.14288 21.1205C9.09058 21.4378 9.19219 21.6511 9.44764 21.7605C9.44764 21.8671 9.44764 21.9738 9.44764 22.0805C9.0413 22.0805 8.63493 22.0805 8.22859 22.0805C8.21125 21.7256 8.10967 21.4056 7.92383 21.1205C8.30472 21.1452 8.55868 21.3585 8.68573 21.7605C8.83507 21.3466 8.88587 20.92 8.83811 20.4805Z"
        fill="black" />
    <path opacity="0.01" fill-rule="evenodd" clip-rule="evenodd"
        d="M12.7998 20.4802C12.7998 20.3736 12.7998 20.2669 12.7998 20.1602C13.0669 20.1183 13.2701 20.225 13.4093 20.4802C13.2662 20.7884 13.063 20.7884 12.7998 20.4802Z"
        fill="black" />
    <path opacity="0.01" fill-rule="evenodd" clip-rule="evenodd"
        d="M21.6381 20.1595C21.6381 20.3729 21.5365 20.4795 21.3333 20.4795C21.3732 20.2431 21.3224 20.0297 21.1809 19.8395C20.9223 20.4813 20.5667 20.6947 20.1143 20.4795C20.4234 20.1015 20.779 19.7815 21.1809 19.5195C21.4948 19.6271 21.6472 19.8404 21.6381 20.1595Z"
        fill="black" />
    <path opacity="0.01" fill-rule="evenodd" clip-rule="evenodd"
        d="M16.4574 19.5198C17.2763 19.469 17.9874 19.7357 18.5907 20.3198C17.9067 21.0713 17.5512 20.9113 17.5241 19.8398C17.4225 20.1598 17.3209 20.4798 17.2193 20.7998C17.0161 20.3731 16.813 20.3731 16.6098 20.7998C16.1494 20.4593 16.0986 20.0326 16.4574 19.5198Z"
        fill="black" />
    <path opacity="0.01" fill-rule="evenodd" clip-rule="evenodd"
        d="M8.22859 19.5195C8.50327 19.7725 8.70643 20.0925 8.83811 20.4795C8.48834 20.9259 8.18358 20.8726 7.92383 20.3195C8.04073 20.0153 8.14231 19.7487 8.22859 19.5195Z"
        fill="black" />
    <path opacity="0.01" fill-rule="evenodd" clip-rule="evenodd"
        d="M22.248 25.28C22.248 25.0666 22.3496 24.96 22.5528 24.96C22.9591 24.96 23.3655 24.96 23.7719 24.96C23.7719 25.1733 23.6703 25.28 23.4671 25.28C23.0208 25.5697 22.6145 25.5697 22.248 25.28Z"
        fill="black" />
    <path opacity="0.01" fill-rule="evenodd" clip-rule="evenodd"
        d="M0 25.9199C0.406349 26.1333 0.406349 26.1333 0 25.9199Z" fill="black" />
    <path opacity="0.01" fill-rule="evenodd" clip-rule="evenodd"
        d="M10.0572 26.5601C10.2603 26.5601 10.3619 26.6667 10.3619 26.8801C9.95558 26.8801 9.54921 26.8801 9.14288 26.8801C9.18551 27.3997 8.98236 27.773 8.53335 28.0001C9.33975 28.1592 10.1525 28.2126 10.9714 28.1601C10.9714 28.2667 10.9714 28.3734 10.9714 28.4801C9.95053 28.5329 8.93466 28.4795 7.92383 28.3201C8.33017 28.1067 8.33017 27.8934 7.92383 27.6801C8.26638 27.6003 8.57114 27.4403 8.83811 27.2001C8.52439 27.2652 8.21963 27.1052 7.92383 26.7201C8.33017 26.5067 8.33017 26.2934 7.92383 26.0801C8.44226 26.2631 9.15336 26.4231 10.0572 26.5601Z"
        fill="black" />
    <path opacity="0.01" fill-rule="evenodd" clip-rule="evenodd"
        d="M21.9424 25.9199C22.3487 26.1333 22.3487 26.1333 21.9424 25.9199Z" fill="black" />
    <path opacity="0.01" fill-rule="evenodd" clip-rule="evenodd"
        d="M22.5527 25.9199C22.9591 26.1333 22.9591 26.1333 22.5527 25.9199Z" fill="black" />
    <path opacity="0.01" fill-rule="evenodd" clip-rule="evenodd"
        d="M0 26.8796C0 26.7729 0 26.6662 0 26.5596C0.812699 26.6662 0.812699 26.7729 0 26.8796Z"
        fill="black" />
    <path opacity="0.01" fill-rule="evenodd" clip-rule="evenodd"
        d="M1.52359 26.5597C1.72676 26.5597 1.82835 26.6664 1.82835 26.8797C1.47858 27.3261 1.17382 27.2728 0.914062 26.7197C1.09522 26.5712 1.29839 26.5178 1.52359 26.5597Z"
        fill="black" />
    <path opacity="0.01" fill-rule="evenodd" clip-rule="evenodd"
        d="M6.0957 26.8799C6.19984 26.6117 6.40303 26.505 6.70523 26.5599C7.27047 26.4869 7.52446 26.7003 7.46713 27.1999C7.05384 26.9182 6.5967 26.8116 6.0957 26.8799Z"
        fill="black" />
    <path opacity="0.01" fill-rule="evenodd" clip-rule="evenodd"
        d="M22.8567 26.5599C22.8567 26.6666 22.8567 26.7732 22.8567 26.8799C22.4707 27.0677 22.1659 27.0677 21.9424 26.8799C22.1938 26.5965 22.4986 26.4898 22.8567 26.5599Z"
        fill="black" />
    <path opacity="0.919" fill-rule="evenodd" clip-rule="evenodd"
        d="M16.1529 8.95996C16.2544 8.95996 16.356 8.95996 16.4576 8.95996C16.5592 8.95996 16.6608 8.95996 16.7624 8.95996C16.8665 9.22818 17.0697 9.33487 17.3719 9.27996C17.6118 9.7933 18.0181 10.0066 18.591 9.91996C18.5572 10.1175 18.4556 10.2775 18.2862 10.4C19.1814 10.9762 20.0957 11.4562 21.0291 11.84C20.6227 11.9466 20.6227 12.0533 21.0291 12.16C21.1306 12.48 21.3338 12.6933 21.6386 12.8C22.4552 13.2809 22.9631 13.8675 23.1624 14.56C23.4513 14.7145 23.7561 14.7678 24.0767 14.72C24.2799 14.72 24.3814 14.8266 24.3814 15.04C23.5687 15.1466 23.5687 15.2533 24.3814 15.36C24.3814 15.4666 24.3814 15.5733 24.3814 15.68C23.9751 15.7866 23.9751 15.8933 24.3814 16C24.9665 17.764 25.7793 19.364 26.8195 20.8C26.7328 21.4127 26.8344 21.946 27.1243 22.4C27.3252 23.3306 27.5792 23.4373 27.8862 22.72C27.971 23.013 28.1234 23.2264 28.3433 23.36C28.5594 23.6492 28.8642 23.7559 29.2576 23.68C29.5158 24.1492 29.9221 24.4158 30.4767 24.48C30.0993 24.7008 30.0993 24.8608 30.4767 24.96C30.4767 25.1733 30.5783 25.28 30.7814 25.28C31.2169 26.1786 31.4199 27.1386 31.391 28.16C31.391 28.2666 31.391 28.3733 31.391 28.48C31.0551 28.9894 31.2584 29.256 32.0005 29.28C31.6235 29.3542 31.3187 29.5142 31.0862 29.76C30.8829 29.76 30.7814 29.8666 30.7814 30.08C30.5843 30.6049 30.2795 31.0316 29.8672 31.36C29.664 31.36 29.5624 31.4666 29.5624 31.68C29.2602 31.625 29.057 31.7317 28.9529 32C27.7338 32 26.5148 32 25.2957 32C25.1941 31.5733 25.0925 31.5733 24.991 32C24.8894 32 24.7878 32 24.6862 32C24.6862 31.8933 24.6862 31.7866 24.6862 31.68C24.6862 31.4666 24.5846 31.36 24.3814 31.36C24.0767 30.9333 23.7719 30.5066 23.4672 30.08C23.4672 29.8666 23.3656 29.76 23.1624 29.76C23.0352 29.529 22.832 29.369 22.5529 29.28C22.7223 29.1575 22.8239 28.9975 22.8576 28.8C22.8576 28.5866 22.8576 28.3733 22.8576 28.16C22.8576 28.0533 22.8576 27.9466 22.8576 27.84C22.8576 27.7333 22.8576 27.6266 22.8576 27.52C22.8576 27.3066 22.8576 27.0933 22.8576 26.88C22.8576 26.7733 22.8576 26.6666 22.8576 26.56C23.115 26.1851 23.3182 25.7584 23.4672 25.28C23.6703 25.28 23.7719 25.1733 23.7719 24.96C24.1783 24.5333 24.5846 24.1066 24.991 23.68C25.1941 23.68 25.2957 23.5733 25.2957 23.36C25.2957 23.2533 25.2957 23.1466 25.2957 23.04C25.2957 22.9333 25.2957 22.8266 25.2957 22.72C25.2957 22.5066 25.1941 22.4 24.991 22.4C24.9255 20.8731 24.316 19.6997 23.1624 18.88C23.1624 18.6666 23.0608 18.56 22.8576 18.56C22.5493 18.121 22.2446 17.6944 21.9433 17.28C21.9433 17.0666 21.8418 16.96 21.6386 16.96C21.6386 16.7466 21.537 16.64 21.3338 16.64C21.3338 16.4266 21.2322 16.32 21.0291 16.32C20.6075 16.0183 20.2012 15.6983 19.81 15.36C19.81 15.1466 19.7084 15.04 19.5052 15.04C19.0882 14.3107 18.5295 14.0973 17.8291 14.4C17.7583 14.004 17.6059 13.684 17.3719 13.44C17.2703 13.44 17.1687 13.44 17.0672 13.44C16.963 13.1717 16.7598 13.065 16.4576 13.12C15.6481 12.6828 14.8354 12.4694 14.0195 12.48C14.359 11.0116 15.0702 9.83823 16.1529 8.95996Z"
        fill="#1D94CF" />
    <path opacity="0.01" fill-rule="evenodd" clip-rule="evenodd"
        d="M0.914062 27.8397C1.03492 27.5117 1.23809 27.4583 1.52359 27.6797C1.34243 27.8282 1.13925 27.8816 0.914062 27.8397Z"
        fill="black" />
    <path opacity="0.01" fill-rule="evenodd" clip-rule="evenodd"
        d="M1.82812 27.8401C2.05687 27.4966 2.36163 27.4433 2.74241 27.6801C2.45349 27.8346 2.14873 27.888 1.82812 27.8401Z"
        fill="black" />
    <path opacity="0.01" fill-rule="evenodd" clip-rule="evenodd"
        d="M3.04785 27.5195C3.45419 27.7329 3.45419 27.7329 3.04785 27.5195Z" fill="black" />
    <path opacity="0.01" fill-rule="evenodd" clip-rule="evenodd"
        d="M3.65723 27.8401C3.88598 27.4966 4.19074 27.4433 4.57151 27.6801C4.2826 27.8346 3.97784 27.888 3.65723 27.8401Z"
        fill="black" />
    <path opacity="0.01" fill-rule="evenodd" clip-rule="evenodd"
        d="M4.87598 27.5195C5.28232 27.7329 5.28232 27.7329 4.87598 27.5195Z" fill="black" />
    <path opacity="0.01" fill-rule="evenodd" clip-rule="evenodd"
        d="M5.48535 27.5195C5.89169 27.7329 5.89169 27.7329 5.48535 27.5195Z" fill="black" />
    <path opacity="0.01" fill-rule="evenodd" clip-rule="evenodd"
        d="M6.0957 27.5195C6.50204 27.7329 6.50204 27.7329 6.0957 27.5195Z" fill="black" />
    <path opacity="0.01" fill-rule="evenodd" clip-rule="evenodd"
        d="M6.70508 27.5195C7.11142 27.7329 7.11142 27.7329 6.70508 27.5195Z" fill="black" />
    <path opacity="0.01" fill-rule="evenodd" clip-rule="evenodd"
        d="M7.31445 27.5195C7.72079 27.7329 7.72079 27.7329 7.31445 27.5195Z" fill="black" />
    <path opacity="0.01" fill-rule="evenodd" clip-rule="evenodd"
        d="M21.333 27.5195C21.7393 27.7329 21.7393 27.7329 21.333 27.5195Z" fill="black" />
    <path opacity="0.01" fill-rule="evenodd" clip-rule="evenodd"
        d="M22.8569 27.5195C22.8569 27.6262 22.8569 27.7329 22.8569 27.8395C22.0442 27.9462 22.0442 28.0529 22.8569 28.1595C22.8569 28.3729 22.8569 28.5862 22.8569 28.7995C22.2375 28.6242 21.9328 28.1975 21.9426 27.5195C22.2474 27.5195 22.5521 27.5195 22.8569 27.5195Z"
        fill="black" />
    <path opacity="0.01" fill-rule="evenodd" clip-rule="evenodd"
        d="M0 28.1602C0.406349 28.3735 0.406349 28.3735 0 28.1602Z" fill="black" />
    <path opacity="0.01" fill-rule="evenodd" clip-rule="evenodd"
        d="M0.609375 28.4801C1.46379 28.116 2.37807 28.0627 3.35223 28.3201C2.44355 28.4795 1.52926 28.5328 0.609375 28.4801Z"
        fill="black" />
    <path opacity="0.01" fill-rule="evenodd" clip-rule="evenodd"
        d="M3.65687 28.16C4.37514 28.1078 5.08627 28.1611 5.79021 28.32C5.16362 28.4195 4.55409 28.5795 3.96163 28.8C3.71859 28.6538 3.61698 28.4405 3.65687 28.16Z"
        fill="black" />
    <path opacity="0.01" fill-rule="evenodd" clip-rule="evenodd"
        d="M6.0957 28.1602C6.50204 28.3735 6.50204 28.3735 6.0957 28.1602Z" fill="black" />
    <path opacity="0.01" fill-rule="evenodd" clip-rule="evenodd"
        d="M6.70508 28.1602C7.11142 28.3735 7.11142 28.3735 6.70508 28.1602Z" fill="black" />
    <path opacity="0.01" fill-rule="evenodd" clip-rule="evenodd"
        d="M7.31445 28.1602C7.72079 28.3735 7.72079 28.3735 7.31445 28.1602Z" fill="black" />
    <path opacity="0.01" fill-rule="evenodd" clip-rule="evenodd"
        d="M21.333 28.1602C21.7393 28.3735 21.7393 28.3735 21.333 28.1602Z" fill="black" />
    <path opacity="0.01" fill-rule="evenodd" clip-rule="evenodd"
        d="M0 29.1201C0.406349 29.3335 0.406349 29.3335 0 29.1201Z" fill="black" />
    <path opacity="0.01" fill-rule="evenodd" clip-rule="evenodd"
        d="M1.21875 29.44C1.86733 29.0787 2.57844 29.0253 3.35208 29.28C2.64814 29.4389 1.93703 29.4922 1.21875 29.44Z"
        fill="black" />
    <path opacity="0.01" fill-rule="evenodd" clip-rule="evenodd"
        d="M3.65723 29.4397C3.88598 29.0962 4.19074 29.0429 4.57151 29.2797C4.2826 29.4342 3.97784 29.4876 3.65723 29.4397Z"
        fill="black" />
    <path opacity="0.01" fill-rule="evenodd" clip-rule="evenodd"
        d="M4.87598 29.4397C5.10473 29.0962 5.40949 29.0429 5.79026 29.2797C5.50135 29.4342 5.19659 29.4876 4.87598 29.4397Z"
        fill="black" />
    <path opacity="0.01" fill-rule="evenodd" clip-rule="evenodd"
        d="M6.0957 29.1201C6.50204 29.3335 6.50204 29.3335 6.0957 29.1201Z" fill="black" />
    <path opacity="0.01" fill-rule="evenodd" clip-rule="evenodd"
        d="M6.70508 29.4398C7.662 29.0747 8.67789 29.0214 9.7527 29.2798C8.74186 29.4392 7.726 29.4926 6.70508 29.4398Z"
        fill="black" />
    <path opacity="0.01" fill-rule="evenodd" clip-rule="evenodd"
        d="M10.0576 29.4397C10.2864 29.0962 10.5911 29.0429 10.9719 29.2797C10.683 29.4342 10.3782 29.4876 10.0576 29.4397Z"
        fill="black" />
    <path opacity="0.01" fill-rule="evenodd" clip-rule="evenodd"
        d="M19.5049 29.1201C19.9112 29.3335 19.9112 29.3335 19.5049 29.1201Z" fill="black" />
    <path opacity="0.01" fill-rule="evenodd" clip-rule="evenodd"
        d="M20.1143 29.1201C20.5206 29.3335 20.5206 29.3335 20.1143 29.1201Z" fill="black" />
    <path opacity="0.01" fill-rule="evenodd" clip-rule="evenodd"
        d="M20.7236 29.4397C20.9524 29.0962 21.2571 29.0429 21.6379 29.2797C21.349 29.4342 21.0442 29.4876 20.7236 29.4397Z"
        fill="black" />
    <path opacity="0.01" fill-rule="evenodd" clip-rule="evenodd"
        d="M23.1619 29.7601C23.3651 29.7601 23.4666 29.8668 23.4666 30.0801C22.3384 29.9694 21.2717 30.0761 20.2666 30.4001C20.2158 30.2935 20.1651 30.1868 20.1143 30.0801C20.8668 29.9086 21.5271 29.5886 22.0952 29.1201C22.3115 29.5916 22.667 29.8049 23.1619 29.7601Z"
        fill="black" />
    <path opacity="0.01" fill-rule="evenodd" clip-rule="evenodd"
        d="M0 29.7598C0.406349 29.9731 0.406349 29.9731 0 29.7598Z" fill="black" />
    <path opacity="0.01" fill-rule="evenodd" clip-rule="evenodd"
        d="M0.609375 30.0796C4.2177 29.6558 7.87484 29.6558 11.5808 30.0796C7.93265 30.3118 4.27551 30.3118 0.609375 30.0796Z"
        fill="black" />
    <path opacity="0.01" fill-rule="evenodd" clip-rule="evenodd"
        d="M11.8863 29.7601C12.1885 29.7052 12.3917 29.8119 12.4958 30.0801C12.0617 30.57 11.8585 30.4634 11.8863 29.7601Z"
        fill="black" />
    <path opacity="0.01" fill-rule="evenodd" clip-rule="evenodd"
        d="M18.5909 29.7601C19.0413 29.6763 19.4476 29.7829 19.8099 30.0801C19.7591 30.1868 19.7084 30.2934 19.6576 30.4001C19.1444 30.1784 18.6873 30.0717 18.2861 30.0801C18.2861 29.8668 18.3877 29.7601 18.5909 29.7601Z"
        fill="black" />
    <path opacity="0.01" fill-rule="evenodd" clip-rule="evenodd"
        d="M0 31.0397C0 30.9331 0 30.8264 0 30.7197C2.03175 30.8264 2.03175 30.9331 0 31.0397Z"
        fill="black" />
    <path opacity="0.01" fill-rule="evenodd" clip-rule="evenodd"
        d="M1.82812 31.04C2.88741 30.6741 4.00489 30.6208 5.18051 30.88C4.06764 31.0395 2.95018 31.0929 1.82812 31.04Z"
        fill="black" />
    <path opacity="0.01" fill-rule="evenodd" clip-rule="evenodd"
        d="M5.48535 30.7197C5.89169 30.9331 5.89169 30.9331 5.48535 30.7197Z" fill="black" />
    <path opacity="0.01" fill-rule="evenodd" clip-rule="evenodd"
        d="M6.0957 30.7197C6.50204 30.9331 6.50204 30.9331 6.0957 30.7197Z" fill="black" />
    <path opacity="0.01" fill-rule="evenodd" clip-rule="evenodd"
        d="M6.70508 31.0403C6.93383 30.6968 7.23859 30.6435 7.61936 30.8803C7.33045 31.0348 7.02569 31.0882 6.70508 31.0403Z"
        fill="black" />
    <path opacity="0.01" fill-rule="evenodd" clip-rule="evenodd"
        d="M7.92383 31.0402C8.25934 30.6888 8.66571 30.6354 9.14288 30.8802C8.74876 31.037 8.34239 31.0904 7.92383 31.0402Z"
        fill="black" />
    <path opacity="0.01" fill-rule="evenodd" clip-rule="evenodd"
        d="M9.44727 30.7197C9.8536 30.9331 9.8536 30.9331 9.44727 30.7197Z" fill="black" />
    <path opacity="0.01" fill-rule="evenodd" clip-rule="evenodd"
        d="M10.0576 31.0397C10.4984 30.6836 11.0064 30.6303 11.5814 30.8797C11.0834 31.0377 10.5755 31.091 10.0576 31.0397Z"
        fill="black" />
    <path opacity="0.01" fill-rule="evenodd" clip-rule="evenodd"
        d="M13.4096 31.9999C13.308 31.9999 13.2064 31.9999 13.1048 31.9999C13.0032 31.5733 12.9016 31.5733 12.8 31.9999C12.6985 31.9999 12.5968 31.9999 12.4953 31.9999C12.3937 31.5733 12.2921 31.5733 12.1905 31.9999C12.0889 31.9999 11.9873 31.9999 11.8857 31.9999C11.8857 31.5733 11.8857 31.1466 11.8857 30.7199C12.83 30.6919 12.9316 30.8519 12.1905 31.1999C12.7808 31.2388 13.1872 31.5055 13.4096 31.9999Z"
        fill="black" />
    <path opacity="0.01" fill-rule="evenodd" clip-rule="evenodd"
        d="M18.2861 30.7197C18.6925 30.9331 18.6925 30.9331 18.2861 30.7197Z" fill="black" />
    <path opacity="0.01" fill-rule="evenodd" clip-rule="evenodd"
        d="M18.8955 30.7197C19.3018 30.9331 19.3018 30.9331 18.8955 30.7197Z" fill="black" />
    <path opacity="0.01" fill-rule="evenodd" clip-rule="evenodd"
        d="M19.5049 30.7197C19.9112 30.9331 19.9112 30.9331 19.5049 30.7197Z" fill="black" />
    <path opacity="0.01" fill-rule="evenodd" clip-rule="evenodd"
        d="M20.1143 31.0403C20.343 30.6968 20.6478 30.6435 21.0285 30.8803C20.7396 31.0348 20.4349 31.0882 20.1143 31.0403Z"
        fill="black" />
    <path opacity="0.01" fill-rule="evenodd" clip-rule="evenodd"
        d="M21.333 30.7197C21.7393 30.9331 21.7393 30.9331 21.333 30.7197Z" fill="black" />
    <path opacity="0.01" fill-rule="evenodd" clip-rule="evenodd"
        d="M21.9424 30.7197C22.3487 30.9331 22.3487 30.9331 21.9424 30.7197Z" fill="black" />
    <path opacity="0.01" fill-rule="evenodd" clip-rule="evenodd"
        d="M22.5527 31.0403C22.7815 30.6968 23.0863 30.6435 23.467 30.8803C23.1781 31.0348 22.8733 31.0882 22.5527 31.0403Z"
        fill="black" />
    <path opacity="0.01" fill-rule="evenodd" clip-rule="evenodd"
        d="M0 31.6797C0 31.573 0 31.4663 0 31.3597C1.46103 31.1687 2.78166 31.382 3.9619 31.9997C3.86033 31.9997 3.75872 31.9997 3.65714 31.9997C3.55557 31.573 3.45396 31.573 3.35238 31.9997C3.2508 31.9997 3.14921 31.9997 3.04762 31.9997C2.94603 31.573 2.84444 31.573 2.74286 31.9997C2.64127 31.9997 2.53968 31.9997 2.4381 31.9997C2.33651 31.573 2.23492 31.573 2.13333 31.9997C2.03175 31.9997 1.93016 31.9997 1.82857 31.9997C1.72699 31.573 1.6254 31.573 1.52381 31.9997C1.42222 31.9997 1.32063 31.9997 1.21905 31.9997C0.893672 31.7006 0.487323 31.594 0 31.6797Z"
        fill="black" />
    <path opacity="0.01" fill-rule="evenodd" clip-rule="evenodd"
        d="M5.79041 32.0004C5.68883 32.0004 5.58723 32.0004 5.48565 32.0004C5.38407 31.5737 5.28246 31.5737 5.18089 32.0004C5.07931 32.0004 4.9777 32.0004 4.87613 32.0004C4.74889 31.7694 4.5457 31.6094 4.2666 31.5204C4.52056 31.467 4.77455 31.4137 5.02851 31.3604C5.44774 31.4193 5.70169 31.6326 5.79041 32.0004Z"
        fill="black" />
    <path opacity="0.01" fill-rule="evenodd" clip-rule="evenodd"
        d="M7.61951 32.0004C7.51794 32.0004 7.41633 32.0004 7.31475 32.0004C7.00999 31.5737 6.70523 31.5737 6.40047 32.0004C6.29889 32.0004 6.19728 32.0004 6.0957 32.0004C6.18442 31.6326 6.43838 31.4193 6.85761 31.3604C7.27684 31.4193 7.5308 31.6326 7.61951 32.0004Z"
        fill="black" />
    <path opacity="0.01" fill-rule="evenodd" clip-rule="evenodd"
        d="M11.581 32.0004C11.4794 32.0004 11.3778 32.0004 11.2762 32.0004C11.1746 31.5737 11.073 31.5737 10.9714 32.0004C10.8699 32.0004 10.7683 32.0004 10.6667 32.0004C10.5651 31.5737 10.4635 31.5737 10.3619 32.0004C10.2603 32.0004 10.1587 32.0004 10.0572 32.0004C9.95558 31.5737 9.85398 31.5737 9.7524 32.0004C9.65082 32.0004 9.54921 32.0004 9.44764 32.0004C9.34606 31.5737 9.24445 31.5737 9.14288 32.0004C9.0413 32.0004 8.93969 32.0004 8.83811 32.0004C8.73654 31.5737 8.63493 31.5737 8.53335 32.0004C8.43177 32.0004 8.33017 32.0004 8.22859 32.0004C8.19485 31.8028 8.09328 31.6428 7.92383 31.5204C8.53335 31.467 9.14288 31.4137 9.7524 31.3604C10.4997 31.3729 11.1093 31.5862 11.581 32.0004Z"
        fill="black" />
    <path opacity="0.01" fill-rule="evenodd" clip-rule="evenodd"
        d="M14.6282 32C14.5266 32 14.425 32 14.3234 32C14.1962 31.7691 13.993 31.6091 13.7139 31.52C14.219 31.2879 14.5238 31.4479 14.6282 32Z"
        fill="black" />
    <path opacity="0.01" fill-rule="evenodd" clip-rule="evenodd"
        d="M14.9336 31.68C15.1623 31.3365 15.4671 31.2832 15.8479 31.52C15.559 31.6745 15.2542 31.7278 14.9336 31.68Z"
        fill="black" />
    <path opacity="0.01" fill-rule="evenodd" clip-rule="evenodd"
        d="M19.8095 32.0004C19.7079 32.0004 19.6063 32.0004 19.5047 32.0004C19.4031 31.5737 19.3015 31.5737 19.2 32.0004C19.0984 32.0004 18.9968 32.0004 18.8952 32.0004C18.7936 31.5737 18.692 31.5737 18.5904 32.0004C18.4889 32.0004 18.3873 32.0004 18.2857 32.0004C18.1841 31.5737 18.0825 31.5737 17.9809 32.0004C17.8793 32.0004 17.7777 32.0004 17.6762 32.0004C17.5746 31.5737 17.473 31.5737 17.3714 32.0004C17.2698 32.0004 17.1682 32.0004 17.0666 32.0004C16.9651 31.5737 16.8634 31.5737 16.7619 32.0004C16.6603 32.0004 16.5587 32.0004 16.4571 32.0004C16.4234 31.8028 16.3218 31.6428 16.1523 31.5204C16.7619 31.467 17.3714 31.4137 17.9809 31.3604C18.7283 31.3729 19.3378 31.5862 19.8095 32.0004Z"
        fill="black" />
    <path opacity="0.01" fill-rule="evenodd" clip-rule="evenodd"
        d="M24.3809 31.3598C24.5841 31.3598 24.6857 31.4664 24.6857 31.6798C24.0044 31.5855 23.3949 31.6921 22.8571 31.9998C22.7555 31.9998 22.6539 31.9998 22.5524 31.9998C22.2476 31.5731 21.9428 31.5731 21.6381 31.9998C21.5365 31.9998 21.4349 31.9998 21.3333 31.9998C21.2317 31.5731 21.1301 31.5731 21.0285 31.9998C20.927 31.9998 20.8254 31.9998 20.7238 31.9998C20.6222 31.5731 20.5206 31.5731 20.419 31.9998C20.3174 31.9998 20.2158 31.9998 20.1143 31.9998C21.3987 31.3801 22.821 31.1668 24.3809 31.3598Z"
        fill="black" />
</svg>