<svg width="32" height="32" viewBox="0 0 32 32" fill="none" xmlns="http://www.w3.org/2000/svg">
    <g clip-path="url(#clip0_5501_345)">
        <path opacity="0.962" fill-rule="evenodd" clip-rule="evenodd"
            d="M27.8766 10.7256C27.8122 10.5677 27.6867 10.5048 27.4999 10.5372C27.1231 10.2859 26.7464 10.0346 26.3696 9.78336C26.0068 9.44552 25.5674 9.25706 25.051 9.21799C24.3787 8.91298 23.688 8.66169 22.9789 8.46417C22.9145 8.3062 22.7891 8.24337 22.6022 8.27571C22.5378 8.11775 22.4123 8.05492 22.2254 8.08725C21.8626 7.74941 21.4231 7.56095 20.9068 7.52189C20.8425 7.36392 20.7169 7.30109 20.5301 7.33343C20.4657 7.17546 20.3401 7.11263 20.1534 7.14497C19.7766 6.8937 19.3999 6.64242 19.0231 6.39115C18.6811 6.02528 18.3043 5.89963 17.8929 6.01423C17.8301 6.01423 17.7673 6.01423 17.7045 6.01423C17.6401 5.85627 17.5146 5.79344 17.3278 5.82578C16.8403 5.42538 16.2752 5.17411 15.6324 5.07195C15.568 4.91399 15.4425 4.85115 15.2557 4.88349C15.1913 4.72553 15.0657 4.6627 14.8789 4.69504C14.5161 4.35719 14.0766 4.16873 13.5603 4.12967C13.4959 3.9717 13.3704 3.90887 13.1836 3.94121C13.1192 3.78325 12.9936 3.72042 12.8068 3.75275C12.7425 3.59479 12.6169 3.53196 12.4301 3.5643C11.9426 3.1639 11.3775 2.91263 10.7347 2.81047C10.6704 2.65251 10.5448 2.58968 10.358 2.62202C10.2936 2.46405 10.168 2.40122 9.98124 2.43356C9.91687 2.2756 9.79128 2.21276 9.60449 2.2451C9.6037 1.71447 9.85488 1.24333 10.358 0.831679C12.0983 -0.277226 13.8564 -0.277226 15.6324 0.831679C19.3999 2.5906 23.1673 4.34954 26.9348 6.10846C28.4088 7.32597 28.911 8.86501 28.4417 10.7256C28.2534 10.7256 28.065 10.7256 27.8766 10.7256Z"
            fill="#357D83" />
        <path opacity="0.958" fill-rule="evenodd" clip-rule="evenodd"
            d="M9.60453 2.24512C9.6689 2.40308 9.79449 2.46591 9.98128 2.43357C10.0456 2.59154 10.1712 2.65437 10.358 2.62203C10.4224 2.77999 10.548 2.84283 10.7348 2.81049C11.2222 3.21088 11.7874 3.46215 12.4301 3.56431C12.4945 3.72228 12.6201 3.78511 12.8069 3.75277C12.8712 3.91073 12.9968 3.97357 13.1836 3.94123C13.248 4.09919 13.3736 4.16202 13.5604 4.12968C13.9232 4.46753 14.3627 4.65598 14.879 4.69505C14.9433 4.85302 15.0689 4.91585 15.2557 4.88351C15.3201 5.04147 15.4457 5.1043 15.6325 5.07196C16.1199 5.47236 16.685 5.72363 17.3278 5.82579C17.3922 5.98376 17.5178 6.04659 17.7045 6.01425C17.7689 6.17221 17.8945 6.23504 18.0813 6.2027C18.1457 6.36067 18.2712 6.4235 18.458 6.39116C18.9455 6.79156 19.5106 7.04282 20.1534 7.14499C20.2178 7.30295 20.3433 7.36578 20.5301 7.33344C20.5945 7.49141 20.7201 7.55424 20.9069 7.5219C21.2697 7.85975 21.7092 8.0482 22.2255 8.08727C22.2899 8.24523 22.4154 8.30806 22.6022 8.27573C22.6667 8.43369 22.7921 8.49652 22.979 8.46418C23.5914 8.9272 24.2821 9.2413 25.0511 9.40646C25.1155 9.56443 25.241 9.62726 25.4278 9.59492C25.4922 9.75289 25.6177 9.81572 25.8046 9.78338C26.2921 10.1838 26.8572 10.435 27.4999 10.5372C27.5643 10.6952 27.6898 10.758 27.8767 10.7257C28.1101 10.8598 28.2042 11.0483 28.1592 11.291C26.811 13.123 25.0844 13.657 22.979 12.8929C20.945 11.875 18.8729 10.9641 16.7627 10.1603C16.6144 9.85797 16.3633 9.73233 16.0092 9.78338C15.3968 9.32036 14.7061 9.00626 13.9371 8.8411C13.8727 8.68313 13.7471 8.6203 13.5604 8.65264C12.9479 8.18962 12.2572 7.87552 11.4883 7.71036C11.4239 7.55239 11.2983 7.48956 11.1115 7.5219C10.624 7.12151 10.0589 6.87024 9.41616 6.76807C9.28957 6.62345 9.1326 6.49781 8.94523 6.39116C8.78907 5.12206 8.85185 3.86569 9.1336 2.62203C9.21213 2.38533 9.3691 2.2597 9.60453 2.24512Z"
            fill="#7FACA4" />
        <path opacity="0.987" fill-rule="evenodd" clip-rule="evenodd"
            d="M3.38818 27.31C3.38818 19.7718 3.38818 12.2335 3.38818 4.69524C4.6153 2.6741 6.31065 2.17154 8.47424 3.18759C8.7254 11.7309 8.7254 20.2744 8.47424 28.8177C6.31065 29.8336 4.6153 29.3312 3.38818 27.31Z"
            fill="#387D83" />
        <path opacity="0.937" fill-rule="evenodd" clip-rule="evenodd"
            d="M17.8929 6.01463C18.3044 5.90003 18.6811 6.02568 19.0232 6.39155C18.8348 6.39155 18.6464 6.39155 18.4581 6.39155C18.3937 6.23358 18.2681 6.17075 18.0813 6.20309C18.0813 6.07745 18.0185 6.01463 17.8929 6.01463Z"
            fill="#2E7980" />
        <path opacity="0.964" fill-rule="evenodd" clip-rule="evenodd"
            d="M9.41612 6.76758C9.90359 7.16797 10.4687 7.41924 11.1115 7.5214C11.1758 7.67937 11.3014 7.7422 11.4882 7.70986C12.1007 8.17288 12.7914 8.48698 13.5603 8.65214C13.6247 8.81011 13.7503 8.87294 13.9371 8.8406C14.5495 9.30362 15.2402 9.61772 16.0092 9.78288C16.2001 10.0041 16.4513 10.1297 16.7626 10.1598C16.7626 14.0546 16.7626 17.9493 16.7626 21.8441C16.3259 21.9368 15.9492 22.1253 15.6324 22.4095C14.7375 22.6375 13.9212 23.0144 13.1836 23.5402C12.4146 23.7053 11.7239 24.0195 11.1115 24.4825C10.9247 24.4501 10.7991 24.513 10.7347 24.6709C10.0872 24.7904 9.4907 25.0416 8.94519 25.4248C8.851 19.2061 8.81962 12.987 8.851 6.76758C9.03937 6.76758 9.22775 6.76758 9.41612 6.76758Z"
            fill="#7FACA4" />
        <path opacity="0.878" fill-rule="evenodd" clip-rule="evenodd"
            d="M25.051 9.40623C25.051 9.34342 25.051 9.28059 25.051 9.21777C25.5674 9.25684 26.0068 9.4453 26.3696 9.78314C26.1813 9.78314 25.9929 9.78314 25.8045 9.78314C25.7401 9.62518 25.6146 9.56235 25.4278 9.59469C25.3633 9.43672 25.2379 9.37389 25.051 9.40623Z"
            fill="#2E7980" />
        <path opacity="0.957" fill-rule="evenodd" clip-rule="evenodd"
            d="M24.2976 22.9754C23.4026 23.2035 22.5864 23.5804 21.8488 24.1062C20.9538 24.3342 20.1375 24.7111 19.3999 25.2369C18.5208 25.5511 17.6418 25.865 16.7627 26.1792C16.794 24.9212 16.7626 23.6648 16.6685 22.4101C16.5744 23.7907 16.543 25.1726 16.5743 26.5561C15.8054 26.7212 15.1147 27.0353 14.5022 27.4984C14.3154 27.466 14.1898 27.5289 14.1255 27.6868C13.3565 27.8519 12.6658 28.1661 12.0534 28.6291C11.8666 28.5967 11.741 28.6597 11.6766 28.8176C10.9077 28.9827 10.217 29.2968 9.60454 29.7599C9.16656 29.5422 8.94678 29.1653 8.94524 28.6291C8.78898 27.6182 8.82039 26.613 9.03942 25.6138C9.64664 25.3423 10.2118 25.0281 10.7348 24.6715C10.9216 24.704 11.0472 24.641 11.1115 24.4831C11.8805 24.318 12.5712 24.0038 13.1836 23.5408C14.0786 23.3128 14.8949 22.9359 15.6325 22.4101C16.1202 22.4174 16.4969 22.229 16.7627 21.8447C19.039 20.9263 21.2995 19.9526 23.5441 18.9236C25.6053 18.4684 27.175 19.1279 28.2534 20.9024C26.8994 21.5481 25.5808 22.2391 24.2976 22.9754Z"
            fill="#7FACA4" />
        <path opacity="0.961" fill-rule="evenodd" clip-rule="evenodd"
            d="M9.60451 29.7598C10.3735 29.5948 11.0642 29.2806 11.6766 28.8176C11.8634 28.85 11.989 28.787 12.0534 28.6291C12.8223 28.464 13.513 28.1499 14.1255 27.6868C14.3122 27.7192 14.4378 27.6563 14.5022 27.4984C15.2712 27.3333 15.9619 27.0191 16.5743 26.5561C17.5972 26.264 18.5391 25.8241 19.3999 25.2369C20.2948 25.0089 21.1111 24.6319 21.8487 24.1061C22.7437 23.8781 23.5599 23.5012 24.2976 22.9754C25.632 22.4654 26.9506 21.9001 28.2534 21.2793C28.9477 23.1237 28.5083 24.6627 26.9348 25.8965C22.6248 27.9582 18.2922 29.9685 13.9371 31.9271C12.0771 32.2216 10.5701 31.6248 9.41614 30.1368C9.48446 30.008 9.54726 29.8823 9.60451 29.7598Z"
            fill="#357D83" />
    </g>
    <defs>
        <clipPath id="clip0_5501_345">
            <rect width="32" height="32" fill="white" />
        </clipPath>
    </defs>
</svg>