<svg width="32" height="32" viewBox="0 0 32 32" fill="none" xmlns="http://www.w3.org/2000/svg">
    <path opacity="0.983" fill-rule="evenodd" clip-rule="evenodd"
        d="M14.1398 0C15.35 0 16.5601 0 17.7703 0C23.6798 0.84432 27.9632 3.79724 30.6204 8.85876C32.7119 13.6931 32.4253 18.3937 29.7605 22.9605C26.5398 27.6867 21.938 30.1274 15.9551 30.2825C13.7098 30.2945 11.5602 29.8727 9.50617 29.0169C7.78942 29.9564 6.11748 30.9508 4.49035 32C4.39481 32 4.29927 32 4.20374 32C2.99085 27.6207 1.73291 23.2516 0.429927 18.8927C0.264234 18.1909 0.120925 17.4979 0 16.8136C0 15.6685 0 14.5236 0 13.3785C1.11474 6.85394 5.00001 2.56015 11.6558 0.497175C12.4903 0.300826 13.3184 0.135101 14.1398 0ZM21.783 4.33898C22.2161 4.30977 22.4867 4.49056 22.5951 4.88136C22.6564 6.1491 22.736 7.41464 22.8339 8.67797C24.2046 8.72658 25.5741 8.80192 26.9421 8.90395C27.4334 9.17894 27.4971 9.51033 27.1332 9.89831C25.9867 10.5311 24.8403 11.1638 23.6938 11.7966C24.9877 14.1067 25.2902 16.5322 24.6014 19.0734C23.1982 23.1651 20.2524 25.5606 15.764 26.2599C10.5913 26.5139 6.94492 24.4197 4.82474 19.9774C3.4122 15.8471 4.31983 12.2463 7.54762 9.17514C11.1398 6.37681 15.0569 5.89471 19.299 7.72881C19.3945 7.78908 19.49 7.78908 19.5856 7.72881C20.2704 6.55743 21.0028 5.42749 21.783 4.33898Z"
        fill="#F6911D" />
</svg>