<svg width="32" height="32" viewBox="0 0 32 32" fill="none" xmlns="http://www.w3.org/2000/svg">
    <g clip-path="url(#clip0_5094_109)">
        <path opacity="0.995" fill-rule="evenodd" clip-rule="evenodd"
            d="M14.4958 -0.0322266C15.4771 -0.0322266 16.4585 -0.0322266 17.4398 -0.0322266C23.1481 0.681994 27.4041 3.54066 30.2078 8.54377C31.1635 10.4265 31.7501 12.4105 31.9678 14.4958C31.9678 15.4771 31.9678 16.4585 31.9678 17.4398C31.2535 23.1481 28.3949 27.4041 23.3918 30.2078C21.5091 31.1635 19.5251 31.7501 17.4398 31.9678C16.4585 31.9678 15.4771 31.9678 14.4958 31.9678C8.78749 31.2535 4.5315 28.3949 1.72777 23.3918C0.772093 21.5091 0.185426 19.5251 -0.0322266 17.4398C-0.0322266 16.4585 -0.0322266 15.4771 -0.0322266 14.4958C0.681994 8.78749 3.54066 4.5315 8.54377 1.72777C10.4265 0.772093 12.4105 0.185426 14.4958 -0.0322266Z"
            fill="#282828" />
        <path fill-rule="evenodd" clip-rule="evenodd"
            d="M13.2158 7.71194C14.1553 7.62496 15.0619 7.75296 15.9358 8.09594C18.0034 7.31507 19.8167 7.69907 21.3758 9.24794C22.4981 10.6357 22.8181 12.193 22.3358 13.9199C24.2913 15.414 24.8673 17.334 24.0638 19.6799C23.9759 19.8663 23.8799 20.0477 23.7758 20.2239C19.1456 22.24 14.431 22.4534 9.63177 20.8639C9.08688 20.6607 8.56419 20.4154 8.06377 20.1279C7.19664 18.4149 7.28195 16.7509 8.31977 15.1359C8.68496 14.664 9.11164 14.2587 9.59977 13.9199C9.04912 11.9088 9.52912 10.1914 11.0398 8.76794C11.6939 8.25946 12.4193 7.90746 13.2158 7.71194Z"
            fill="#FEFEFE" />
        <path fill-rule="evenodd" clip-rule="evenodd"
            d="M7.52027 11.0399C7.91335 11.0143 8.29735 11.057 8.67227 11.1679C8.58286 11.3268 8.52948 11.4974 8.51227 11.6799C8.46273 12.2151 8.47342 12.7485 8.54427 13.2799C8.27028 13.6289 7.98228 13.9703 7.68027 14.3039C7.42017 14.671 7.18555 15.055 6.97627 15.4559C5.84602 14.7732 5.46202 13.7918 5.82427 12.5119C6.16725 11.7522 6.73255 11.2615 7.52027 11.0399Z"
            fill="#FBFBFB" />
        <path fill-rule="evenodd" clip-rule="evenodd"
            d="M23.4557 11.0401C25.1254 10.9506 26.0641 11.7293 26.2717 13.3761C26.2113 14.2973 25.7846 14.9906 24.9917 15.4561C24.5753 14.6787 24.042 13.9854 23.3917 13.3761C23.5025 12.633 23.4598 11.897 23.2637 11.1681C23.3342 11.1249 23.3982 11.0822 23.4557 11.0401Z"
            fill="#FBFBFB" />
        <path fill-rule="evenodd" clip-rule="evenodd"
            d="M13.0237 11.296C13.4898 11.2357 13.7992 11.4277 13.9517 11.872C13.9944 12.4906 13.9944 13.1093 13.9517 13.728C13.8209 14.2471 13.4902 14.4498 12.9597 14.336C12.7123 14.1278 12.5736 13.8611 12.5437 13.536C12.501 13.024 12.501 12.512 12.5437 12C12.6105 11.6941 12.7705 11.4594 13.0237 11.296Z"
            fill="#2A2A2A" />
        <path fill-rule="evenodd" clip-rule="evenodd"
            d="M18.4642 11.296C18.9302 11.2357 19.2396 11.4277 19.3922 11.872C19.4349 12.4906 19.4349 13.1093 19.3922 13.728C19.2613 14.2471 18.9306 14.4498 18.4002 14.336C18.1527 14.1278 18.0141 13.8611 17.9842 13.536C17.9415 13.024 17.9415 12.512 17.9842 12C18.0509 11.6941 18.2109 11.4594 18.4642 11.296Z"
            fill="#2A2A2A" />
        <path fill-rule="evenodd" clip-rule="evenodd"
            d="M15.0718 16.3521C15.2649 16.3415 15.4569 16.3522 15.6478 16.3841C15.8184 16.5121 15.8184 16.6401 15.6478 16.7681C15.4558 16.8108 15.2638 16.8108 15.0718 16.7681C14.9045 16.6245 14.9045 16.4858 15.0718 16.3521Z"
            fill="#373737" />
        <path fill-rule="evenodd" clip-rule="evenodd"
            d="M16.3516 16.3518C16.592 16.3244 16.816 16.367 17.0236 16.4798C17.0789 16.6326 17.0256 16.7286 16.8636 16.7678C16.6929 16.8105 16.5222 16.8105 16.3516 16.7678C16.1888 16.6301 16.1888 16.4915 16.3516 16.3518Z"
            fill="#373737" />
        <path fill-rule="evenodd" clip-rule="evenodd"
            d="M9.37598 21.792C9.37982 21.7573 9.40113 21.736 9.43998 21.728C12.6627 22.9292 15.9693 23.2172 19.36 22.592C20.4526 22.3867 21.5193 22.1093 22.56 21.76C19.6443 24.1821 16.3589 24.8435 12.704 23.744C11.488 23.2616 10.3787 22.6109 9.37598 21.792Z"
            fill="#FAFAFA" />
    </g>
    <defs>
        <clipPath id="clip0_5094_109">
            <rect width="32" height="32" fill="white" />
        </clipPath>
    </defs>
</svg>