<svg width="32" height="32" viewBox="0 0 32 32" fill="none" xmlns="http://www.w3.org/2000/svg">
    <g clip-path="url(#clip0_5443_176)">
        <path fill-rule="evenodd" clip-rule="evenodd"
            d="M-0.0799561 -0.0800781C10.5867 -0.0800781 21.2533 -0.0800781 31.92 -0.0800781C31.92 4.87992 31.92 9.83992 31.92 14.7999C31.7287 13.3942 31.382 12.0076 30.88 10.6399C29.6994 11.9803 28.5794 13.3669 27.52 14.7999C27.562 18.6775 26.202 21.9575 23.44 24.6399C18.9541 27.8556 14.3142 28.1222 9.52004 25.4399C5.01048 21.877 3.59715 17.317 5.28004 11.7599C8.41692 5.56597 13.3503 3.40597 20.08 5.27992C20.5191 5.55042 20.9724 5.79042 21.44 5.99992C22.3669 4.85856 23.3002 3.71191 24.24 2.55992C23.1984 1.71909 22.025 1.13242 20.72 0.799922C13.2319 -0.98658 7.17859 1.17342 2.56004 7.27992C-1.18283 14.1423 -0.622834 20.5956 4.24004 26.6399C9.06294 31.4857 14.7696 32.899 21.36 30.8799C27.5938 28.3038 31.1138 23.6905 31.92 17.0399C31.92 21.9999 31.92 26.9599 31.92 31.9199C21.2533 31.9199 10.5867 31.9199 -0.0799561 31.9199C-0.0799561 21.2532 -0.0799561 10.5866 -0.0799561 -0.0800781Z"
            fill="#FCFCFC" />
        <path fill-rule="evenodd" clip-rule="evenodd"
            d="M31.92 14.7999C31.92 15.5466 31.92 16.2932 31.92 17.0399C31.1137 23.6905 27.5937 28.3037 21.36 30.8799C14.7696 32.8989 9.06288 31.4857 4.23998 26.6399C-0.622895 20.5956 -1.18289 14.1422 2.55998 7.27989C7.17853 1.17339 13.2319 -0.986608 20.72 0.799895C22.0249 1.13239 23.1984 1.71906 24.24 2.55989C23.3001 3.71188 22.3669 4.85853 21.44 5.99989C20.9723 5.79039 20.519 5.55039 20.08 5.27989C13.3502 3.40594 8.41686 5.56594 5.27998 11.7599C3.59709 17.317 5.01042 21.877 9.51998 25.4399C14.3141 28.1221 18.9541 27.8556 23.44 24.6399C26.2019 21.9575 27.5619 18.6775 27.52 14.7999C28.5793 13.3669 29.6993 11.9802 30.88 10.6399C31.3819 12.0075 31.7286 13.3942 31.92 14.7999Z"
            fill="#8F8F8F" />
        <path fill-rule="evenodd" clip-rule="evenodd"
            d="M31.12 6.6399C31.1614 6.24161 31.0014 5.97494 30.64 5.8399C29.6446 4.9643 28.6314 4.0843 27.6 3.1999C27.4483 3.12265 27.2883 3.09598 27.12 3.1199C27.4024 2.96607 27.7224 2.91274 28.08 2.9599C28.08 2.7999 28.08 2.6399 28.08 2.4799C29.0267 2.42009 29.1334 2.68676 28.4 3.2799C28.1397 3.05287 28.0597 3.1062 28.16 3.4399C28.8253 3.5726 29.3853 3.8926 29.84 4.3999C29.9338 4.36641 30.0138 4.31308 30.08 4.2399C30.159 4.50135 30.1856 4.76802 30.16 5.0399C30.32 5.0399 30.48 5.0399 30.64 5.0399C30.64 5.1999 30.64 5.3599 30.64 5.5199C30.9864 5.45844 31.2531 5.56511 31.44 5.8399C31.3555 6.13367 31.249 6.40034 31.12 6.6399Z"
            fill="#E6F4F9" />
        <path fill-rule="evenodd" clip-rule="evenodd"
            d="M27.1199 3.11981C27.2883 3.09589 27.4483 3.12256 27.5999 3.19981C28.6313 4.08421 29.6446 4.96421 30.64 5.83981C30.64 6.26648 30.64 6.69314 30.64 7.11981C30.3769 7.08565 30.1369 7.13898 29.92 7.27981C29.6537 8.21805 29.0937 8.91138 28.24 9.35981C28.0876 9.60706 28.0344 9.87373 28.08 10.1598C27.4884 10.3503 27.0617 10.7503 26.7999 11.3598C26.6932 11.3865 26.5867 11.4131 26.4799 11.4398C26.2143 11.234 25.9478 11.0206 25.6799 10.7998C25.5276 11.0471 25.4743 11.3137 25.5199 11.5998C25.7079 11.5648 25.8679 11.6181 25.9999 11.7598C25.9327 12.052 25.9327 12.372 25.9999 12.7198C25.8399 12.7198 25.6799 12.7198 25.5199 12.7198C25.5199 12.9331 25.5199 13.1465 25.5199 13.3598C25.5199 13.4131 25.5199 13.4665 25.5199 13.5198C25.3067 13.5198 25.0932 13.5198 24.8799 13.5198C24.9038 13.6881 24.8772 13.8481 24.7999 13.9998C24.0835 14.476 23.5767 15.116 23.2799 15.9198C22.9934 16.2334 22.6468 16.4467 22.2399 16.5598C22.0673 16.9699 21.9873 17.3965 21.9999 17.8398C21.9467 17.8398 21.8932 17.8398 21.8399 17.8398C21.2063 17.9401 20.8329 18.3134 20.7199 18.9598C20.2526 18.9032 19.8793 19.0632 19.5999 19.4398C19.6689 19.5667 19.7223 19.7001 19.7599 19.8398C19.5179 20.1405 19.4113 20.4872 19.4399 20.8798C18.9105 21.0121 18.5372 21.3321 18.3199 21.8398C17.4623 21.8531 17.1423 22.2798 17.3599 23.1198C16.9087 23.1601 16.4822 23.0801 16.0799 22.8798C16.1505 22.4873 16.0705 22.0873 15.8399 21.6798C15.1947 21.9694 14.848 21.756 14.7999 21.0398C14.1542 20.9555 13.5675 20.7422 13.0399 20.3998C12.8813 20.4273 12.7746 20.3739 12.7199 20.2398C12.3141 19.4161 11.8074 18.6694 11.2 17.9998C10.928 17.8549 10.6347 17.8016 10.32 17.8398C10.2133 17.8398 10.16 17.7865 10.16 17.6798C10.1665 17.0112 9.84648 16.5577 9.19995 16.3198C9.01757 16.0041 8.80422 15.7107 8.55995 15.4398C8.95958 15.2098 9.30625 15.2631 9.59995 15.5998C9.86861 14.9922 10.0553 14.3522 10.16 13.6798C10.1066 13.3598 10.0533 13.0398 9.99995 12.7198C9.70382 13.3313 9.43715 13.9446 9.19995 14.5598C8.72176 14.6127 8.26843 14.746 7.83995 14.9598C7.35451 14.6382 7.32785 14.2649 7.75995 13.8398C7.85371 13.8733 7.93371 13.9266 7.99995 13.9998C8.62294 13.7183 9.02294 13.2383 9.19995 12.5598C9.73814 12.1394 10.0581 11.606 10.16 10.9598C10.32 10.9598 10.48 10.9598 10.64 10.9598C12.1301 12.4496 13.6767 13.8896 15.2799 15.2798C15.2799 15.5465 15.2799 15.8131 15.2799 16.0798C15.6146 16.0507 15.9346 16.1041 16.2399 16.2398C16.551 16.1296 16.871 16.0496 17.1999 15.9998C17.4839 15.5703 17.6972 15.117 17.8399 14.6398C18.1012 14.4085 18.3945 14.1952 18.7199 13.9998C18.7732 13.8398 18.8267 13.6798 18.8799 13.5198C19.459 12.9199 20.019 12.3066 20.5599 11.6798C20.7116 11.6026 20.8716 11.5759 21.0399 11.5998C21.2414 11.1413 21.4014 10.6613 21.5199 10.1598C22.2195 9.75271 22.7262 9.16603 23.0399 8.39981C23.1076 8.63279 23.2409 8.71279 23.4399 8.63981C23.7307 8.35184 23.9174 8.00519 23.9999 7.59981C24.2022 7.26269 24.4955 7.10269 24.8799 7.11981C24.7724 6.57455 24.9324 6.14789 25.3599 5.83981C25.5086 5.6496 25.5619 5.43626 25.5199 5.19981C26.0164 4.47143 26.5497 3.7781 27.1199 3.11981Z"
            fill="#0D4688" />
        <path fill-rule="evenodd" clip-rule="evenodd"
            d="M30.64 5.83984C31.0015 5.97488 31.1615 6.24156 31.12 6.63984C31.0133 6.85317 30.8533 7.01317 30.64 7.11984C30.64 6.69317 30.64 6.26652 30.64 5.83984Z"
            fill="#30587D" />
        <path fill-rule="evenodd" clip-rule="evenodd"
            d="M25.52 5.2002C25.5619 5.43664 25.5087 5.64999 25.36 5.8402C24.9325 6.14828 24.7725 6.57493 24.88 7.1202C24.4955 7.10308 24.2023 7.26308 24 7.6002C23.9175 8.00557 23.7307 8.35223 23.44 8.6402C23.241 8.71317 23.1077 8.63317 23.04 8.4002C22.7263 9.16642 22.2195 9.75309 21.52 10.1602C21.6397 9.867 21.7997 9.60034 22 9.3602C23.1133 7.92658 24.2866 6.53992 25.52 5.2002Z"
            fill="#264C7D" />
        <path fill-rule="evenodd" clip-rule="evenodd"
            d="M30.64 7.11987C29.8937 8.23806 29.0405 9.2514 28.08 10.1599C28.0344 9.87379 28.0877 9.60711 28.24 9.35987C29.0937 8.91143 29.6537 8.21811 29.92 7.27987C30.1369 7.13903 30.3769 7.08571 30.64 7.11987Z"
            fill="#234B77" />
        <path fill-rule="evenodd" clip-rule="evenodd"
            d="M21.2001 10.48C21.1073 10.8398 20.894 11.1064 20.5601 11.28C20.6529 10.9202 20.8661 10.6535 21.2001 10.48Z"
            fill="#5A7A9C" />
        <path fill-rule="evenodd" clip-rule="evenodd"
            d="M28.0799 10.48C27.7476 10.8942 27.5343 11.3742 27.4399 11.92C27.0622 12.1927 26.6889 12.4593 26.3199 12.72C26.7857 11.8806 27.3724 11.1339 28.0799 10.48Z"
            fill="#D5E7F4" />
        <path fill-rule="evenodd" clip-rule="evenodd"
            d="M28.08 10.1602C28.08 10.2668 28.08 10.3735 28.08 10.4802C27.3725 11.1341 26.7858 11.8808 26.32 12.7202C26.0533 12.9335 25.7868 13.1468 25.52 13.3602C25.52 13.1468 25.52 12.9335 25.52 12.7202C25.68 12.7202 25.84 12.7202 26 12.7202C25.9328 12.3723 25.9328 12.0523 26 11.7602C25.868 11.6184 25.708 11.5651 25.52 11.6002C25.4744 11.3141 25.5277 11.0474 25.68 10.8002C25.9479 11.021 26.2144 11.2343 26.48 11.4402C26.5868 11.4135 26.6933 11.3868 26.8 11.3602C27.0618 10.7506 27.4885 10.3506 28.08 10.1602Z"
            fill="#204A7B" />
        <path fill-rule="evenodd" clip-rule="evenodd"
            d="M21.52 10.1602C21.4014 10.6616 21.2414 11.1416 21.04 11.6002C20.8716 11.5762 20.7116 11.6029 20.56 11.6802C20.019 12.3069 19.459 12.9203 18.88 13.5202C18.8267 13.6802 18.7732 13.8402 18.72 14.0002C18.3945 14.1956 18.1012 14.4089 17.84 14.6402C18.6908 13.4699 19.5974 12.3499 20.56 11.2802C20.8939 11.1066 21.1072 10.84 21.2 10.4802C21.2 10.2668 21.3067 10.1602 21.52 10.1602Z"
            fill="#284D7A" />
        <path fill-rule="evenodd" clip-rule="evenodd"
            d="M10.64 10.9601C10.48 10.9601 10.32 10.9601 10.16 10.9601C10.0582 11.6063 9.73824 12.1396 9.20005 12.5601C9.02304 13.2386 8.62304 13.7186 8.00005 14.0001C7.93381 13.9269 7.85381 13.8736 7.76005 13.8401C7.32795 14.2652 7.35461 14.6385 7.84005 14.9601C8.26853 14.7463 8.72186 14.6129 9.20005 14.5601C9.43725 13.9449 9.70392 13.3316 10 12.7201C10.0534 13.0401 10.1067 13.3601 10.16 13.6801C10.0554 14.3524 9.8687 14.9924 9.60005 15.6001C9.30635 15.2634 8.95968 15.21 8.56005 15.4401C8.80432 15.711 9.01766 16.0044 9.20005 16.3201C9.84658 16.558 10.1666 17.0114 10.16 17.6801C8.92952 16.7159 7.80952 15.6492 6.80005 14.4801C7.83701 13.2563 8.90368 12.0563 10 10.8801C10.2506 10.7577 10.4639 10.7843 10.64 10.9601Z"
            fill="#194882" />
        <path fill-rule="evenodd" clip-rule="evenodd"
            d="M22 9.35986C21.7997 9.60001 21.6397 9.86666 21.52 10.1599C21.3067 10.1599 21.2 10.2665 21.2 10.4799C20.8661 10.6534 20.6528 10.9201 20.56 11.2799C19.5975 12.3496 18.6909 13.4696 17.84 14.6399C17.52 14.9599 17.2 15.2799 16.88 15.5999C16.7885 14.8405 17.1085 14.4138 17.84 14.3199C17.8144 14.048 17.841 13.7813 17.92 13.5199C18.2627 13.1476 18.6627 12.8809 19.12 12.7199C19.0795 12.3475 19.1863 12.0275 19.44 11.7599C19.4066 11.6661 19.3531 11.5861 19.28 11.5199C19.5682 10.9619 20.0215 10.6153 20.64 10.4799C20.9445 10.1693 21.0778 9.79598 21.04 9.35986C21.36 9.35986 21.68 9.35986 22 9.35986Z"
            fill="#E9F5FB" />
        <path fill-rule="evenodd" clip-rule="evenodd"
            d="M17.84 14.6401C17.6973 15.1173 17.484 15.5706 17.2 16.0001C16.8711 16.0499 16.5511 16.1299 16.24 16.2401C15.9347 16.1045 15.6147 16.051 15.28 16.0801C15.28 15.8135 15.28 15.5468 15.28 15.2801C15.4939 15.4105 15.6539 15.5972 15.76 15.8401C16.08 15.9468 16.4 15.9468 16.72 15.8401C16.809 15.7789 16.8623 15.6989 16.88 15.6001C17.2 15.2801 17.52 14.9601 17.84 14.6401Z"
            fill="#2A4F7A" />
        <path fill-rule="evenodd" clip-rule="evenodd"
            d="M25.52 13.52C25.0545 14.077 24.628 14.6637 24.24 15.28C23.4337 16.0859 22.687 16.9394 22 17.84C21.9873 17.3967 22.0673 16.9701 22.24 16.56C22.6468 16.4469 22.9934 16.2336 23.28 15.92C23.5768 15.1162 24.0835 14.4762 24.8 14C24.8772 13.8483 24.9038 13.6883 24.88 13.52C25.0932 13.52 25.3067 13.52 25.52 13.52Z"
            fill="#244B77" />
        <path fill-rule="evenodd" clip-rule="evenodd"
            d="M10.3199 17.8401C10.6347 17.8019 10.928 17.8551 11.1999 18.0001C11.8074 18.6697 12.3141 19.4164 12.7199 20.2401C11.8666 19.4934 11.0666 18.6934 10.3199 17.8401Z"
            fill="#294E7B" />
        <path fill-rule="evenodd" clip-rule="evenodd"
            d="M21.84 17.8398C21.4264 18.5744 20.9464 19.2677 20.4 19.9198C20.1377 20.2888 19.8177 20.6088 19.44 20.8798C19.4113 20.4872 19.5179 20.1405 19.76 19.8398C19.7224 19.7002 19.6689 19.5667 19.6 19.4398C19.8793 19.0632 20.2526 18.9032 20.72 18.9598C20.8329 18.3134 21.2064 17.9402 21.84 17.8398Z"
            fill="#1D487D" />
        <path fill-rule="evenodd" clip-rule="evenodd"
            d="M24.24 15.2798C23.9994 15.8958 23.6261 16.4291 23.12 16.8798C22.9184 17.1763 22.9184 17.4695 23.12 17.7598C22.9131 17.8382 22.6997 17.8649 22.48 17.8398C22.5219 18.0763 22.4687 18.2895 22.32 18.4798C21.7834 18.8831 21.3299 19.3631 20.96 19.9198C20.8023 19.8124 20.6155 19.8124 20.4 19.9198C20.9464 19.2676 21.4264 18.5743 21.84 17.8398C21.8933 17.8398 21.9467 17.8398 22 17.8398C22.6871 16.9391 23.4338 16.0857 24.24 15.2798Z"
            fill="#E0EFF7" />
        <path fill-rule="evenodd" clip-rule="evenodd"
            d="M13.04 20.3999C13.5676 20.7423 14.1542 20.9556 14.8 21.0399C14.8481 21.7561 15.1947 21.9695 15.84 21.6799C16.0706 22.0874 16.1506 22.4874 16.08 22.8799C16.4823 23.0802 16.9088 23.1602 17.36 23.1199C17.1424 22.2799 17.4624 21.8532 18.32 21.8399C18.5373 21.3322 18.9106 21.0122 19.44 20.8799C18.7586 21.8565 18.0386 22.8165 17.28 23.7599C17.164 23.8493 17.0308 23.9026 16.88 23.9199C16.3816 23.6097 15.9017 23.2629 15.44 22.8799C14.6416 22.0535 13.8416 21.2269 13.04 20.3999Z"
            fill="#1D487D" />
    </g>
    <defs>
        <clipPath id="clip0_5443_176">
            <rect width="32" height="32" fill="white" />
        </clipPath>
    </defs>
</svg>