<svg width="32" height="32" viewBox="0 0 32 32" fill="none" xmlns="http://www.w3.org/2000/svg">
    <rect width="32" height="32" fill="black" />
    <path fill-rule="evenodd" clip-rule="evenodd"
        d="M17.5164 5.96289C18.0887 5.96289 18.6609 5.96289 19.2332 5.96289C20.4118 6.81044 21.6707 7.58338 23.01 8.28173C23.3817 8.56826 23.439 8.89952 23.1816 9.27552C20.2616 10.6831 17.5148 12.3394 14.9413 14.2445C14.7124 15.4591 14.7124 16.6737 14.9413 17.8884C17.7872 19.6183 20.5912 21.3851 23.3533 23.1886C21.8922 24.5012 20.1755 25.3845 18.2031 25.8387C14.8932 24.656 11.8603 22.9997 9.10439 20.8697C9.04716 19.2686 8.98996 17.6675 8.93272 16.0664C8.89159 14.2091 9.06326 12.3871 9.44774 10.6006C12.1957 9.09995 14.8853 7.55406 17.5164 5.96289Z"
        fill="#F7F7F7" />
</svg>