<svg width="32" height="32" viewBox="0 0 32 32" fill="none" xmlns="http://www.w3.org/2000/svg">
    <g clip-path="url(#clip0_5357_56)">
        <path opacity="0.439" fill-rule="evenodd" clip-rule="evenodd"
            d="M18.44 0.600084C16.7866 0.493418 15.1333 0.493418 13.48 0.600084C15.1334 0.282394 16.7868 0.282394 18.44 0.600084Z"
            fill="#E67E99" />
        <path fill-rule="evenodd" clip-rule="evenodd"
            d="M20.12 1.08018C20.2534 1.08018 20.3867 1.08018 20.52 1.08018C20.7604 1.2223 21.0271 1.3023 21.32 1.32018C21.4723 1.34385 21.6056 1.39718 21.72 1.48018C21.8472 1.66586 22.0339 1.74586 22.28 1.72018C22.4123 1.73294 22.5189 1.78628 22.6 1.88018C22.7439 2.10466 22.9573 2.21134 23.24 2.20018C23.2331 2.27985 23.2599 2.34651 23.32 2.40018C23.4749 2.46522 23.6349 2.50522 23.8 2.52018C23.8675 2.70092 24.0009 2.78092 24.2 2.76018C24.5687 2.96898 24.9154 3.20898 25.24 3.48018C25.242 3.6945 25.3487 3.80116 25.56 3.80018C25.56 3.88018 25.56 3.96018 25.56 4.04018C25.8481 4.13089 26.1148 4.26422 26.36 4.44018C26.3067 4.60018 26.2534 4.76018 26.2 4.92018C26.439 4.9808 26.679 5.04746 26.92 5.12018C26.8531 5.20108 26.8264 5.29441 26.84 5.40018C26.9242 5.38822 27.0042 5.40155 27.08 5.44018C27.0131 5.52108 26.9864 5.61441 27 5.72018C27.4295 5.51717 27.6561 5.67717 27.68 6.20018C27.7955 6.33261 27.9423 6.38594 28.12 6.36018C28.6931 6.98697 29.1731 7.6803 29.56 8.44018C29.557 8.65466 29.6103 8.85466 29.72 9.04018C29.7084 9.10194 29.6818 9.1553 29.64 9.20018C29.8131 9.28194 29.9731 9.3753 30.12 9.48018C30.1381 9.7001 30.1115 9.91346 30.04 10.1202C30.1359 10.1554 30.2292 10.182 30.32 10.2002C30.359 10.4643 30.479 10.6775 30.68 10.8402C30.68 10.8668 30.68 10.8935 30.68 10.9202C30.6776 11.2883 30.7843 11.6083 31 11.8802C31.0641 12.0035 31.0907 12.1368 31.08 12.2802C31.0572 12.5465 31.1106 12.7865 31.24 13.0002C31.24 13.0268 31.24 13.0535 31.24 13.0802C31.3819 14.5171 31.4219 15.9571 31.36 17.4002C31.2575 18.1234 31.1642 18.8434 31.08 19.5602C31.08 19.5868 31.08 19.6135 31.08 19.6402C30.7874 20.0355 30.6541 20.4888 30.68 21.0002C30.4418 21.1742 30.3218 21.4142 30.32 21.7202C30.2347 21.7755 30.1413 21.8155 30.04 21.8402C30.1139 22.0035 30.1405 22.1768 30.12 22.3602C30.139 22.4635 30.1123 22.5435 30.04 22.6002C29.9086 22.6018 29.8019 22.5484 29.72 22.4402C29.6255 22.571 29.6255 22.7043 29.72 22.8402C29.654 22.9111 29.574 22.9377 29.48 22.9202C29.48 23.1602 29.48 23.4002 29.48 23.6402C29.3834 23.6989 29.2767 23.7255 29.16 23.7202C29.1461 23.9091 29.1195 24.0957 29.08 24.2802C28.9441 24.2674 28.8107 24.2807 28.68 24.3202C28.7504 24.4287 28.7771 24.5487 28.76 24.6802C28.3494 24.6911 28.2427 24.8778 28.44 25.2402C28.3334 25.2402 28.2267 25.2402 28.12 25.2402C28.12 25.3468 28.12 25.4535 28.12 25.5602C28.0134 25.5602 27.9067 25.5602 27.8 25.5602C27.7439 25.7528 27.6639 25.9395 27.56 26.1202C27.3734 26.0402 27.32 26.0935 27.4 26.2802C27.334 26.3511 27.254 26.3777 27.16 26.3602C27.16 26.4402 27.16 26.5202 27.16 26.6002C27.08 26.6002 27 26.6002 26.92 26.6002C26.875 26.8301 26.795 27.0434 26.68 27.2402C26.4667 27.4268 26.2534 27.6135 26.04 27.8002C25.7407 27.7281 25.5807 27.8347 25.56 28.1202C25.4534 28.1202 25.3467 28.1202 25.24 28.1202C25.24 28.2002 25.24 28.2802 25.24 28.3602C24.8055 28.2477 24.6188 28.4077 24.68 28.8402C24.5734 28.8402 24.4667 28.8402 24.36 28.8402C24.36 28.7602 24.36 28.6802 24.36 28.6002C24.0187 28.6203 23.6853 28.6737 23.36 28.7602C23.2975 28.8757 23.3109 28.9823 23.4 29.0802C23.5803 29.0199 23.727 28.9133 23.84 28.7602C23.9083 28.8902 23.9883 28.9168 24.08 28.8402C24.1187 28.916 24.1319 28.996 24.12 29.0802C23.8416 29.0711 23.6816 29.2043 23.64 29.4802C23.5055 29.6008 23.3455 29.6808 23.16 29.7202C22.918 29.69 22.678 29.6767 22.44 29.6802C22.5086 29.7353 22.5619 29.8019 22.6 29.8802C22.4187 29.9453 22.232 29.9853 22.04 30.0002C22.1405 30.0335 22.1939 30.1002 22.2 30.2002C22.1727 30.2672 22.1194 30.2939 22.04 30.2802C21.6243 30.2655 21.2777 30.3988 21 30.6802C20.769 30.6394 20.5823 30.6927 20.44 30.8402C20.1083 30.8103 19.8149 30.8903 19.56 31.0802C19.4465 31.1563 19.3132 31.1829 19.16 31.1602C18.8434 31.1403 18.5501 31.1936 18.28 31.3202C18.0218 31.3933 17.7551 31.4199 17.48 31.4002C16.493 31.4135 15.5063 31.4002 14.52 31.3602C14.1183 31.3023 13.7183 31.2355 13.32 31.1602C13.4463 31.0963 13.5795 31.0563 13.72 31.0402C13.4128 31.0077 13.1062 31.0211 12.8 31.0802C12.363 30.9847 11.923 30.9047 11.48 30.8402C11.4267 30.8402 11.3734 30.8402 11.32 30.8402C11.1507 30.6678 10.9373 30.5878 10.68 30.6002C10.2669 30.4714 9.8669 30.3114 9.48002 30.1202C9.46234 30.0214 9.40898 29.9414 9.32002 29.8802C9.3901 29.8201 9.4701 29.7801 9.56002 29.7602C9.4013 29.6154 9.22794 29.6021 9.04002 29.7202C8.8545 29.6105 8.6545 29.5571 8.44002 29.5602C7.65054 29.1791 6.93054 28.6991 6.28002 28.1202C6.14185 27.8487 5.92852 27.6621 5.64002 27.5602C5.5572 27.4238 5.5572 27.2904 5.64002 27.1602C5.56871 27.073 5.48871 27.073 5.40002 27.1602C5.32573 27.0651 5.29906 26.9584 5.32002 26.8402C5.05581 26.825 4.81581 26.745 4.60002 26.6002C4.42941 26.4729 4.29608 26.3129 4.20002 26.1202C4.1241 25.9412 4.07077 25.7545 4.04002 25.5602C3.96002 25.5602 3.88002 25.5602 3.80002 25.5602C3.74807 25.2949 3.58807 25.1349 3.32002 25.0802C3.11252 24.7981 2.92585 24.5048 2.76002 24.2002C2.78077 24.0011 2.70077 23.8677 2.52002 23.8002C2.50506 23.6351 2.46506 23.4751 2.40002 23.3202C2.34636 23.26 2.27969 23.2333 2.20002 23.2402C2.21118 22.9575 2.10451 22.7441 1.88002 22.6002C1.78613 22.5191 1.73279 22.4124 1.72002 22.2802C1.7457 22.034 1.6657 21.8474 1.48002 21.7202C1.51614 21.4319 1.43614 21.1919 1.24002 21.0002C1.25993 20.6835 1.20661 20.3903 1.08002 20.1202C0.950446 19.8091 0.97711 19.5157 1.16002 19.2402C1.06492 19.1659 0.958246 19.1392 0.840022 19.1602C0.81611 18.9919 0.842774 18.8319 0.920022 18.6802C0.991678 18.7607 1.04501 18.7607 1.08002 18.6802C1.03307 18.5383 1.00641 18.3917 1.00002 18.2402C1.06376 17.8415 1.11709 17.4415 1.16002 17.0402C1.13336 16.8935 1.10669 16.7468 1.08002 16.6002C1.03278 16.8514 0.96611 17.0914 0.880022 17.3202C0.826686 16.4135 0.826686 15.5068 0.880022 14.6002C0.96611 14.829 1.03278 15.069 1.08002 15.3202C1.10669 15.1735 1.13336 15.0268 1.16002 14.8802C1.11709 14.4788 1.06376 14.0788 1.00002 13.6802C1.00641 13.5287 1.03307 13.382 1.08002 13.2402C1.05237 13.1445 1.01237 13.1445 0.960022 13.2402C0.920382 13.0823 0.907054 12.9223 0.920022 12.7602C1.00002 12.7602 1.08002 12.7602 1.16002 12.7602C1.1097 12.603 1.05637 12.443 1.00002 12.2802C0.998182 12.1548 1.03818 12.0482 1.12002 11.9602C1.14669 12.1202 1.17336 12.2802 1.20002 12.4402C1.15451 11.9855 1.16785 11.5322 1.24002 11.0802C1.24002 11.0268 1.24002 10.9735 1.24002 10.9202C1.31013 10.9307 1.36347 10.904 1.40002 10.8402C1.48551 10.5971 1.57885 10.3571 1.68002 10.1202C1.75145 10.2171 1.81811 10.2171 1.88002 10.1202C1.80125 9.99234 1.78791 9.85898 1.84002 9.72018C1.87865 9.79602 1.89198 9.87602 1.88002 9.96018C1.96002 9.96018 2.04002 9.96018 2.12002 9.96018C2.11371 9.7869 2.06038 9.6269 1.96002 9.48018C2.07499 9.31402 2.12833 9.12738 2.12002 8.92018C2.21892 8.74826 2.29892 8.56162 2.36002 8.36018C2.51264 8.2813 2.59264 8.14802 2.60002 7.96018C2.74954 7.83748 2.85621 7.67748 2.92002 7.48018C3.03253 7.44233 3.08586 7.36233 3.08002 7.24018C3.39509 7.13898 3.55509 6.92565 3.56002 6.60018C3.68428 6.44938 3.84428 6.36938 4.04002 6.36018C4.16553 5.97844 4.39219 5.65844 4.72002 5.40018C4.75865 5.32434 4.77198 5.24434 4.76002 5.16018C5.00002 5.13351 5.13336 5.00018 5.16002 4.76018C5.23493 4.64222 5.3416 4.56222 5.48002 4.52018C5.73837 4.29764 6.0317 4.13764 6.36002 4.04018C6.34806 3.95602 6.3614 3.87602 6.40002 3.80018C6.61312 3.6803 6.78645 3.5203 6.92002 3.32018C6.95787 3.20767 7.03787 3.15434 7.16002 3.16018C7.47233 3.01475 7.79233 2.88142 8.12002 2.76018C8.32394 2.58684 8.51066 2.40018 8.68002 2.20018C8.70738 2.13312 8.76066 2.10645 8.84002 2.12018C9.08362 2.05782 9.2969 1.95116 9.48002 1.80018C9.77322 1.80003 10.0132 1.69336 10.2 1.48018C10.4665 1.51873 10.6798 1.43873 10.84 1.24018C11.1627 1.23886 11.4561 1.15886 11.72 1.00018C11.8267 1.00018 11.9334 1.00018 12.04 1.00018C12.4743 1.14851 12.9277 1.22851 13.4 1.24018C13.6134 1.22684 13.8267 1.21351 14.04 1.20018C13.583 1.214 13.1563 1.12066 12.76 0.920176C13.0747 0.893768 13.3947 0.88044 13.72 0.880176C13.6301 0.86024 13.5501 0.82024 13.48 0.760176C13.68 0.733509 13.88 0.706842 14.08 0.680176C14.7064 0.736809 15.3331 0.790142 15.96 0.840176C16.7314 0.74034 17.5047 0.70034 18.28 0.720176C17.7747 0.821824 17.8013 0.91516 18.36 1.00018C18.513 0.892104 18.6863 0.838768 18.88 0.840176C19.2871 0.94944 19.7005 1.02944 20.12 1.08018ZM15.48 7.32018C16.9171 7.23163 18.3303 7.36497 19.72 7.72018C20.0879 7.87704 20.4612 8.03706 20.84 8.20018C20.9519 8.31138 21.0853 8.39138 21.24 8.44018C21.5643 8.71082 21.9109 8.95082 22.28 9.16018C22.5734 9.50682 22.8934 9.82682 23.24 10.1202C23.24 10.1468 23.24 10.1735 23.24 10.2002C23.3742 10.3634 23.5075 10.5234 23.64 10.6802C23.6934 10.7868 23.7467 10.8935 23.8 11.0002C23.9101 11.1267 23.9901 11.2734 24.04 11.4402C23.9955 11.5211 23.9423 11.5877 23.88 11.6402C23.7521 11.6187 23.6455 11.6455 23.56 11.7202C23.2972 11.7544 23.0572 11.8344 22.84 11.9602C22.3867 12.0314 21.96 12.1647 21.56 12.3602C21.4321 12.3387 21.3255 12.3655 21.24 12.4402C21.0279 12.433 20.8412 12.4863 20.68 12.6002C20.4971 12.6078 20.3371 12.6611 20.2 12.7602C20.0833 12.7655 19.9767 12.7389 19.88 12.6802C19.861 12.5279 19.781 12.4211 19.64 12.3602C19.5936 12.1803 19.487 12.047 19.32 11.9602C19.2591 11.8192 19.1523 11.7392 19 11.7202C18.9391 11.5792 18.8323 11.4992 18.68 11.4802C18.4921 11.3329 18.2788 11.2263 18.04 11.1602C17.8788 11.0463 17.6922 10.993 17.48 11.0002C17.0587 10.8459 16.632 10.8193 16.2 10.9202C15.7963 10.9014 15.423 10.9814 15.08 11.1602C14.9278 11.1839 14.7944 11.2372 14.68 11.3202C14.5061 11.3402 14.3727 11.4202 14.28 11.5602C14.1579 11.5543 14.0779 11.6077 14.04 11.7202C13.8597 11.7701 13.7263 11.8767 13.64 12.0402C13.4206 12.1793 13.2606 12.366 13.16 12.6002C13.0191 12.6611 12.9391 12.7679 12.92 12.9202C12.8075 12.958 12.7542 13.038 12.76 13.1602C12.6661 13.2413 12.6128 13.3479 12.6 13.4802C12.4332 13.6549 12.3532 13.8683 12.36 14.1202C12.2368 14.3072 12.1835 14.5206 12.2 14.7602C12.2 14.7868 12.2 14.8135 12.2 14.8402C11.9782 15.6997 12.0048 16.5531 12.28 17.4002C12.28 17.4535 12.28 17.5068 12.28 17.5602C12.31 17.736 12.3634 17.896 12.44 18.0402C12.5061 18.279 12.6127 18.4923 12.76 18.6802C12.8135 18.9481 12.9469 19.1615 13.16 19.3202C13.2021 19.4586 13.2821 19.5653 13.4 19.6402C13.8064 20.15 14.3131 20.5233 14.92 20.7602C15.4061 20.9816 15.9261 21.0883 16.48 21.0802C16.8342 21.0887 17.1675 21.0354 17.48 20.9202C18.1149 20.8027 18.6749 20.536 19.16 20.1202C19.2822 20.126 19.3622 20.0727 19.4 19.9602C19.5707 19.8329 19.7039 19.6729 19.8 19.4802C19.907 19.415 19.987 19.3216 20.04 19.2002C20.1159 19.1615 20.1959 19.1483 20.28 19.1602C20.3655 19.2349 20.4721 19.2616 20.6 19.2402C20.7612 19.3541 20.9479 19.4074 21.16 19.4002C21.56 19.5956 21.9867 19.729 22.44 19.8002C22.6012 19.9141 22.7879 19.9674 23 19.9602C23.2751 20.0965 23.5684 20.2032 23.88 20.2802C23.9067 20.2802 23.9334 20.2802 23.96 20.2802C24.0073 20.3323 24.0606 20.3856 24.12 20.4402C23.9579 20.7644 23.7979 21.0844 23.64 21.4002C23.4991 21.4611 23.4191 21.5679 23.4 21.7202C23.2069 21.8331 23.0735 21.9931 23 22.2002C22.9467 22.2002 22.92 22.2268 22.92 22.2802C22.6589 22.4077 22.4455 22.5943 22.28 22.8402C21.8782 23.1095 21.4782 23.3762 21.08 23.6402C20.8451 23.7179 20.6318 23.8246 20.44 23.9602C20.1499 24.0259 19.8832 24.1325 19.64 24.2802C18.1125 24.643 16.5659 24.7497 15 24.6002C14.5846 24.4847 14.1579 24.378 13.72 24.2802C13.6934 24.2802 13.6667 24.2802 13.64 24.2802C13.3615 24.1552 13.0682 24.0486 12.76 23.9602C12.3362 23.7214 11.9095 23.4814 11.48 23.2402C11.3175 23.0784 11.1308 22.9451 10.92 22.8402C10.5755 22.5224 10.2287 22.2024 9.88002 21.8802C9.86098 21.7279 9.78098 21.6211 9.64002 21.5602C9.54394 21.3675 9.41066 21.2075 9.24002 21.0802C8.82298 20.3527 8.44962 19.606 8.12002 18.8402C8.12002 18.8135 8.12002 18.7868 8.12002 18.7602C8.00994 18.3517 7.90327 17.9517 7.80002 17.5602C7.80002 17.5335 7.80002 17.5068 7.80002 17.4802C7.69874 16.5183 7.69874 15.5583 7.80002 14.6002C7.85336 14.2535 7.90669 13.9068 7.96002 13.5602C8.03234 13.5035 8.05898 13.4235 8.04002 13.3202C8.17634 13.0451 8.28306 12.7518 8.36002 12.4402C8.51226 12.1619 8.64562 11.8685 8.76002 11.5602C9.24242 10.8115 9.80242 10.1181 10.44 9.48018C10.6032 9.34602 10.7632 9.21266 10.92 9.08018C11.294 8.83994 11.6673 8.59994 12.04 8.36018C12.2957 8.24586 12.5357 8.11258 12.76 7.96018C13.6439 7.65535 14.5506 7.44202 15.48 7.32018Z"
            fill="#EC215E" />
        <path fill-rule="evenodd" clip-rule="evenodd"
            d="M18.44 0.600019C18.7712 0.602351 19.0912 0.655684 19.4 0.760019C19.5551 0.893043 19.7418 0.946371 19.96 0.920019C19.9867 0.920019 20.0134 0.920019 20.04 0.920019C20.0667 0.973355 20.0934 1.02668 20.12 1.08002C19.7005 1.02928 19.2872 0.949283 18.88 0.840019C18.6863 0.838611 18.513 0.891947 18.36 1.00002C17.8013 0.915003 17.7747 0.821667 18.28 0.720019C17.5048 0.700183 16.7314 0.740183 15.96 0.840019C15.3331 0.789986 14.7064 0.736653 14.08 0.680019C13.88 0.706686 13.68 0.733353 13.48 0.760019C13.5501 0.820083 13.6301 0.860083 13.72 0.880019C13.3947 0.880283 13.0747 0.893611 12.76 0.920019C13.1564 1.12051 13.583 1.21384 14.04 1.20002C13.8267 1.21336 13.6134 1.22668 13.4 1.24002C12.9277 1.22836 12.4744 1.14836 12.04 1.00002C12.2104 0.943795 12.3704 0.863795 12.52 0.760019C12.8288 0.655684 13.1488 0.602351 13.48 0.600019C15.1334 0.493353 16.7867 0.493353 18.44 0.600019Z"
            fill="#E63967" />
        <path opacity="0.145" fill-rule="evenodd" clip-rule="evenodd"
            d="M12.5202 0.759766C12.3705 0.863542 12.2105 0.943542 12.0402 0.999766C11.9336 0.999766 11.8269 0.999766 11.7202 0.999766C11.9642 0.87171 12.2309 0.791713 12.5202 0.759766Z"
            fill="#EEA5BB" />
        <path opacity="0.176" fill-rule="evenodd" clip-rule="evenodd"
            d="M19.3999 0.759766C19.6053 0.777484 19.792 0.830822 19.9599 0.919766C19.7417 0.946118 19.5549 0.89279 19.3999 0.759766Z"
            fill="#F4B4CA" />
        <path opacity="0.251" fill-rule="evenodd" clip-rule="evenodd"
            d="M20.04 0.919922C20.2229 0.927522 20.3829 0.98085 20.52 1.07992C20.3867 1.07992 20.2534 1.07992 20.12 1.07992C20.0934 1.02659 20.0667 0.973258 20.04 0.919922Z"
            fill="#DDA4B3" />
        <path opacity="0.314" fill-rule="evenodd" clip-rule="evenodd"
            d="M11.7198 1C11.4559 1.15868 11.1626 1.23868 10.8398 1.24C11.1124 1.11406 11.4057 1.03406 11.7198 1Z"
            fill="#DF89A7" />
        <path opacity="0.024" fill-rule="evenodd" clip-rule="evenodd"
            d="M20.52 1.08008C20.813 1.09795 21.0796 1.17795 21.32 1.32008C21.0271 1.30221 20.7604 1.22221 20.52 1.08008Z"
            fill="#FCC5DE" />
        <path opacity="0.576" fill-rule="evenodd" clip-rule="evenodd"
            d="M10.8402 1.24023C10.68 1.43879 10.4667 1.51879 10.2002 1.48023C10.3914 1.35865 10.6048 1.27865 10.8402 1.24023Z"
            fill="#DC849E" />
        <path opacity="0.373" fill-rule="evenodd" clip-rule="evenodd"
            d="M21.7202 1.47998C21.9217 1.54108 22.1083 1.62108 22.2802 1.71998C22.0341 1.74566 21.8474 1.66566 21.7202 1.47998Z"
            fill="#EA9EB4" />
        <path opacity="0.518" fill-rule="evenodd" clip-rule="evenodd"
            d="M10.2 1.47998C10.0132 1.69316 9.77318 1.79984 9.47998 1.79998C9.68702 1.63001 9.92702 1.52335 10.2 1.47998Z"
            fill="#E391A7" />
        <path opacity="0.09" fill-rule="evenodd" clip-rule="evenodd"
            d="M9.47984 1.7998C9.29672 1.95079 9.08344 2.05745 8.83984 2.1198C9.0088 1.93816 9.22216 1.83149 9.47984 1.7998Z"
            fill="#FBC1D5" />
        <path opacity="0.839" fill-rule="evenodd" clip-rule="evenodd"
            d="M22.6001 1.87988C22.8389 1.94594 23.0522 2.0526 23.2401 2.19988C22.9574 2.21104 22.744 2.10437 22.6001 1.87988Z"
            fill="#E6849E" />
        <path opacity="0.518" fill-rule="evenodd" clip-rule="evenodd"
            d="M23.2398 2.2002C23.4652 2.2478 23.6518 2.35447 23.7998 2.5202C23.6347 2.50524 23.4747 2.46524 23.3198 2.4002C23.2597 2.34653 23.2329 2.27987 23.2398 2.2002Z"
            fill="#E18099" />
        <path opacity="0.424" fill-rule="evenodd" clip-rule="evenodd"
            d="M23.7998 2.52002C23.9545 2.56884 24.0879 2.64884 24.1998 2.76002C24.0007 2.78076 23.8673 2.70076 23.7998 2.52002Z"
            fill="#D97E97" />
        <path opacity="0.835" fill-rule="evenodd" clip-rule="evenodd"
            d="M8.68016 2.2002C8.5108 2.4002 8.32408 2.58686 8.12016 2.7602C7.79247 2.88144 7.47247 3.01477 7.16016 3.1602C7.28766 3.04156 7.421 2.92156 7.56016 2.8002C7.92508 2.57783 8.2984 2.37783 8.68016 2.2002Z"
            fill="#D95577" />
        <path opacity="0.769" fill-rule="evenodd" clip-rule="evenodd"
            d="M6.91998 3.31982C6.78641 3.51995 6.61308 3.67995 6.39998 3.79982C6.36136 3.87566 6.34802 3.95566 6.35998 4.03982C6.03166 4.13729 5.73832 4.29729 5.47998 4.51982C5.9128 4.06008 6.3928 3.66008 6.91998 3.31982Z"
            fill="#CE5172" />
        <path opacity="0.765" fill-rule="evenodd" clip-rule="evenodd"
            d="M25.2402 3.47998C25.6391 3.77237 26.0125 4.09237 26.3602 4.43998C26.115 4.26403 25.8483 4.13069 25.5602 4.03998C25.5602 3.95998 25.5602 3.87998 25.5602 3.79998C25.3489 3.80096 25.2422 3.6943 25.2402 3.47998Z"
            fill="#CF4C70" />
        <path opacity="0.18" fill-rule="evenodd" clip-rule="evenodd"
            d="M5.15977 4.75977C5.1331 4.99977 4.99977 5.1331 4.75977 5.15977C4.8931 5.02643 5.02643 4.8931 5.15977 4.75977Z"
            fill="#CB6E8C" />
        <path opacity="0.855" fill-rule="evenodd" clip-rule="evenodd"
            d="M26.3602 4.43994C27.0348 5.00753 27.6215 5.64753 28.1202 6.35994C27.9424 6.3857 27.7957 6.33237 27.6802 6.19994C27.6563 5.67693 27.4296 5.51693 27.0002 5.71994C26.9866 5.61417 27.0132 5.52085 27.0802 5.43994C27.0044 5.40132 26.9244 5.38798 26.8402 5.39994C26.8266 5.29417 26.8532 5.20085 26.9202 5.11994C26.6792 5.04723 26.4392 4.98057 26.2002 4.91994C26.2536 4.75994 26.3068 4.59994 26.3602 4.43994Z"
            fill="#DA3364" />
        <path opacity="0.82" fill-rule="evenodd" clip-rule="evenodd"
            d="M4.76006 5.16016C4.77202 5.24432 4.75868 5.32432 4.72006 5.40016C4.39223 5.65842 4.16556 5.97842 4.04006 6.36016C3.84431 6.36936 3.68431 6.44936 3.56006 6.60016C3.90031 6.07298 4.30031 5.59298 4.76006 5.16016Z"
            fill="#D25475" />
        <path opacity="0.914" fill-rule="evenodd" clip-rule="evenodd"
            d="M3.56008 6.6001C3.55514 6.92557 3.39514 7.1389 3.08008 7.2401C3.20136 6.99745 3.36136 6.78412 3.56008 6.6001Z"
            fill="#DD5F7E" />
        <path fill-rule="evenodd" clip-rule="evenodd"
            d="M15.4798 7.24007C15.4798 7.26674 15.4798 7.29341 15.4798 7.32007C14.5503 7.44191 13.6437 7.65525 12.7598 7.96007C13.0005 7.73466 13.2938 7.62798 13.6398 7.64007C13.6398 7.56007 13.6398 7.48007 13.6398 7.40007C13.8855 7.42546 14.1255 7.3988 14.3598 7.32007C14.2398 7.20777 14.2665 7.15444 14.4398 7.16007C14.7827 7.23003 15.1294 7.2567 15.4798 7.24007Z"
            fill="#D94A71" />
        <path opacity="0.947" fill-rule="evenodd" clip-rule="evenodd"
            d="M15.48 7.31994C15.48 7.29328 15.48 7.26661 15.48 7.23994C16.5746 7.21334 17.668 7.24001 18.76 7.31994C18.9331 7.47454 19.1198 7.50121 19.32 7.39994C19.4799 7.48055 19.6133 7.58722 19.72 7.71994C18.3303 7.36474 16.917 7.2314 15.48 7.31994Z"
            fill="#DF5C80" />
        <path opacity="0.133" fill-rule="evenodd" clip-rule="evenodd"
            d="M3.07987 7.24023C3.08571 7.36239 3.03237 7.44239 2.91987 7.48023C2.91403 7.35808 2.96736 7.27808 3.07987 7.24023Z"
            fill="#ECA5B9" />
        <path opacity="0.541" fill-rule="evenodd" clip-rule="evenodd"
            d="M2.9201 7.47998C2.85628 7.67728 2.74962 7.83728 2.6001 7.95998C2.62769 7.74415 2.73435 7.58415 2.9201 7.47998Z"
            fill="#E599AD" />
        <path opacity="0.318" fill-rule="evenodd" clip-rule="evenodd"
            d="M19.7202 7.72021C20.0557 7.75642 20.3757 7.84975 20.6802 8.00021C20.7807 8.03357 20.8341 8.10021 20.8402 8.20021C20.4614 8.03709 20.0881 7.87708 19.7202 7.72021Z"
            fill="#CB5174" />
        <path opacity="0.616" fill-rule="evenodd" clip-rule="evenodd"
            d="M2.59986 7.95996C2.59248 8.1478 2.51248 8.28108 2.35986 8.35996C2.37984 8.18604 2.45984 8.05268 2.59986 7.95996Z"
            fill="#EA9AB1" />
        <path opacity="0.839" fill-rule="evenodd" clip-rule="evenodd"
            d="M12.0399 8.35979C11.6672 8.59955 11.2939 8.83955 10.9199 9.07979C10.9978 8.93579 11.0778 8.78907 11.1599 8.63979C11.3286 8.61099 11.4886 8.55763 11.6399 8.47979C11.4456 8.44371 11.4322 8.37699 11.5999 8.27979C11.7358 8.35227 11.8826 8.37891 12.0399 8.35979Z"
            fill="#D85374" />
        <path opacity="0.706" fill-rule="evenodd" clip-rule="evenodd"
            d="M21.2402 8.43994C21.7385 8.46402 22.0851 8.70402 22.2802 9.15994C21.9111 8.95058 21.5645 8.71058 21.2402 8.43994Z"
            fill="#CD5575" />
        <path opacity="0.565" fill-rule="evenodd" clip-rule="evenodd"
            d="M2.36004 8.35986C2.29894 8.5613 2.21894 8.74794 2.12004 8.91986C2.09338 8.91986 2.0667 8.91986 2.04004 8.91986C2.08634 8.69338 2.193 8.50674 2.36004 8.35986Z"
            fill="#EDB5C5" />
        <path opacity="0.137" fill-rule="evenodd" clip-rule="evenodd"
            d="M2.03988 8.91992C2.06155 9.07032 2.00822 9.17696 1.87988 9.23992C1.89265 9.10768 1.94599 9.00104 2.03988 8.91992Z"
            fill="#FCD7E8" />
        <path fill-rule="evenodd" clip-rule="evenodd"
            d="M29.5602 8.43994C29.8076 8.7477 29.9943 9.09434 30.1202 9.47994C29.9733 9.37506 29.8133 9.2817 29.6402 9.19994C29.6819 9.15506 29.7086 9.1017 29.7202 9.03994C29.6105 8.85442 29.5571 8.65442 29.5602 8.43994Z"
            fill="#E0577A" />
        <path fill-rule="evenodd" clip-rule="evenodd"
            d="M22.2798 9.16016C22.4781 9.27808 22.6915 9.35808 22.9198 9.40016C22.9971 9.66064 23.1037 9.90064 23.2398 10.1202C22.8931 9.8268 22.5731 9.5068 22.2798 9.16016Z"
            fill="#D95074" />
        <path fill-rule="evenodd" clip-rule="evenodd"
            d="M2.04023 8.91992C2.0669 8.91992 2.09357 8.91992 2.12023 8.91992C2.12854 9.12712 2.0752 9.31376 1.96023 9.47992C2.06059 9.62664 2.11392 9.78664 2.12023 9.95992C2.04023 9.95992 1.96023 9.95992 1.88023 9.95992C1.89219 9.87576 1.87886 9.79576 1.84023 9.71992C1.78812 9.85872 1.80146 9.99208 1.88023 10.1199C1.81832 10.2168 1.75166 10.2168 1.68023 10.1199C1.57906 10.3568 1.48572 10.5968 1.40023 10.8399C1.36368 10.9038 1.31035 10.9304 1.24023 10.9199C1.24023 10.8666 1.24023 10.8133 1.24023 10.7599C1.42378 10.5303 1.53045 10.2637 1.56023 9.95992C1.7302 9.75288 1.83687 9.51288 1.88023 9.23992C2.00857 9.17696 2.06191 9.07032 2.04023 8.91992Z"
            fill="#DA3866" />
        <path opacity="0.035" fill-rule="evenodd" clip-rule="evenodd"
            d="M1.88006 9.24023C1.83669 9.51319 1.73003 9.75319 1.56006 9.96023C1.60343 9.68727 1.71009 9.44727 1.88006 9.24023Z"
            fill="#FDE8F1" />
        <path opacity="0.976" fill-rule="evenodd" clip-rule="evenodd"
            d="M10.4401 9.47998C9.8025 10.1179 9.2425 10.8113 8.7601 11.56C8.73826 11.4039 8.79154 11.2839 8.9201 11.2C8.81346 11.1733 8.70674 11.1466 8.6001 11.12C8.75498 11.0549 8.91498 11.0149 9.0801 11C9.0801 10.8666 9.0801 10.7333 9.0801 10.6C9.1601 10.6 9.2401 10.6 9.3201 10.6C9.32642 10.4856 9.29978 10.3789 9.2401 10.28C9.3637 10.2038 9.49706 10.1772 9.6401 10.2C9.6273 10.0641 9.64058 9.9307 9.6801 9.79998C9.82514 9.8887 9.89178 9.83534 9.8801 9.63998C10.0744 9.60926 10.2611 9.5559 10.4401 9.47998Z"
            fill="#DD476F" />
        <path fill-rule="evenodd" clip-rule="evenodd"
            d="M30.12 9.47998C30.3698 9.90046 30.5564 10.3538 30.68 10.84C30.479 10.6773 30.359 10.4641 30.32 10.2C30.2292 10.1818 30.1359 10.1552 30.04 10.12C30.1115 9.91326 30.1381 9.6999 30.12 9.47998Z"
            fill="#DE6281" />
        <path opacity="0.145" fill-rule="evenodd" clip-rule="evenodd"
            d="M1.56023 9.95996C1.53045 10.2637 1.42378 10.5304 1.24023 10.76C1.30131 10.469 1.40798 10.2024 1.56023 9.95996Z"
            fill="#FCE3EF" />
        <path opacity="0.439" fill-rule="evenodd" clip-rule="evenodd"
            d="M23.2402 10.2002C23.4835 10.2561 23.6169 10.4161 23.6402 10.6802C23.5078 10.5234 23.3744 10.3634 23.2402 10.2002Z"
            fill="#DC7590" />
        <path opacity="0.012" fill-rule="evenodd" clip-rule="evenodd"
            d="M16.2002 10.9202C16.6322 10.8193 17.0588 10.846 17.4802 11.0002C17.0536 10.9736 16.6268 10.9468 16.2002 10.9202Z"
            fill="#FDD4E3" />
        <path opacity="0.01" fill-rule="evenodd" clip-rule="evenodd"
            d="M17.48 11.0802C17.48 11.0535 17.48 11.0268 17.48 11.0002C17.6921 10.993 17.8788 11.0462 18.04 11.1602C17.8511 11.1462 17.6645 11.1196 17.48 11.0802Z"
            fill="#FDD6E1" />
        <path opacity="0.078" fill-rule="evenodd" clip-rule="evenodd"
            d="M1.24 10.7598C1.24 10.8131 1.24 10.8664 1.24 10.9198C1.24 10.9731 1.24 11.0264 1.24 11.0798C1.16 11.2398 1.08 11.3998 1 11.5598C1.01787 11.2668 1.09787 11.0002 1.24 10.7598Z"
            fill="#FDDDEF" />
        <path opacity="0.835" fill-rule="evenodd" clip-rule="evenodd"
            d="M23.7998 11C23.8864 11.0031 23.9664 11.0298 24.0398 11.08C24.1032 11.2372 24.1565 11.3972 24.1998 11.56C24.1047 11.6343 23.998 11.661 23.8798 11.64C23.942 11.5875 23.9953 11.5209 24.0398 11.44C23.9899 11.2732 23.9099 11.1266 23.7998 11Z"
            fill="#E16F8C" />
        <path opacity="0.396" fill-rule="evenodd" clip-rule="evenodd"
            d="M15.0802 11.1602C14.9894 11.2972 14.856 11.3506 14.6802 11.3202C14.7946 11.2372 14.9279 11.1838 15.0802 11.1602Z"
            fill="#E598AC" />
        <path opacity="0.314" fill-rule="evenodd" clip-rule="evenodd"
            d="M14.6798 11.3198C14.6009 11.4725 14.4676 11.5525 14.2798 11.5598C14.3725 11.4198 14.5059 11.3398 14.6798 11.3198Z"
            fill="#F097AE" />
        <path fill-rule="evenodd" clip-rule="evenodd"
            d="M16.2001 10.9202C16.6268 10.9468 17.0535 10.9735 17.4801 11.0002C17.4801 11.0268 17.4801 11.0535 17.4801 11.0802C17.2074 11.0601 16.9408 11.0868 16.6801 11.1602C16.6027 11.081 16.5093 11.0277 16.4001 11.0002C15.9634 11.0434 15.5768 11.2034 15.2401 11.4802C15.1868 11.4535 15.1335 11.4268 15.0801 11.4002C15.0497 11.5218 15.0365 11.6551 15.0401 11.8002C14.9028 11.9192 14.8094 12.0658 14.7601 12.2402C14.5938 12.3048 14.4338 12.2914 14.2801 12.2002C14.4311 12.077 14.5777 11.9436 14.7201 11.8002C14.7652 11.7022 14.7385 11.6222 14.6401 11.5602C14.4805 11.7399 14.2805 11.8199 14.0401 11.8002C14.0629 11.9432 14.0363 12.0766 13.9601 12.2002C13.8509 12.0956 13.7443 12.0956 13.6401 12.2002C13.6401 12.1468 13.6401 12.0935 13.6401 12.0402C13.7265 11.8767 13.8598 11.7701 14.0401 11.7202C14.1623 11.726 14.2423 11.6726 14.2801 11.5602C14.468 11.5528 14.6013 11.4728 14.6801 11.3202C14.856 11.3506 14.9893 11.2972 15.0801 11.1602C15.4231 10.9814 15.7965 10.9014 16.2001 10.9202Z"
            fill="#E03062" />
        <path opacity="0.02" fill-rule="evenodd" clip-rule="evenodd"
            d="M18.6802 11.48C18.8325 11.499 18.9392 11.579 19.0002 11.72C18.8479 11.7009 18.7411 11.6209 18.6802 11.48Z"
            fill="#FECEDB" />
        <path opacity="0.686" fill-rule="evenodd" clip-rule="evenodd"
            d="M30.6802 10.9199C30.8326 11.2172 30.9393 11.5372 31.0002 11.8799C30.7845 11.608 30.6778 11.288 30.6802 10.9199Z"
            fill="#DD7A96" />
        <path opacity="0.086" fill-rule="evenodd" clip-rule="evenodd"
            d="M0.999766 11.5601C0.97939 11.9041 0.89939 12.2241 0.759766 12.5201C0.766496 12.1731 0.846494 11.8531 0.999766 11.5601Z"
            fill="#FBDBE5" />
        <path opacity="0.204" fill-rule="evenodd" clip-rule="evenodd"
            d="M14.28 11.56C14.2422 11.6725 14.1622 11.7258 14.04 11.72C14.0779 11.6075 14.1579 11.5542 14.28 11.56Z"
            fill="#E39DAE" />
        <path opacity="0.592" fill-rule="evenodd" clip-rule="evenodd"
            d="M23.5598 11.7202C23.3634 11.9097 23.1234 11.9897 22.8398 11.9602C23.057 11.8345 23.297 11.7545 23.5598 11.7202Z"
            fill="#E086A1" />
        <path opacity="0.235" fill-rule="evenodd" clip-rule="evenodd"
            d="M19.3198 11.96C19.4868 12.0468 19.5934 12.18 19.6398 12.36C19.4729 12.2732 19.3662 12.1399 19.3198 11.96Z"
            fill="#EEB2C2" />
        <path opacity="0.263" fill-rule="evenodd" clip-rule="evenodd"
            d="M13.6402 12.04C13.6402 12.0934 13.6402 12.1467 13.6402 12.2C13.4802 12.3334 13.3202 12.4667 13.1602 12.6C13.2607 12.3659 13.4207 12.1792 13.6402 12.04Z"
            fill="#D5839B" />
        <path opacity="0.678" fill-rule="evenodd" clip-rule="evenodd"
            d="M22.8401 11.96C22.4424 12.1855 22.0157 12.3188 21.5601 12.36C21.9601 12.1645 22.3868 12.0312 22.8401 11.96Z"
            fill="#E27191" />
        <path opacity="0.373" fill-rule="evenodd" clip-rule="evenodd"
            d="M8.36017 12.4399C8.28321 12.7515 8.17649 13.0448 8.04017 13.3199C8.01161 12.9633 8.11825 12.67 8.36017 12.4399Z"
            fill="#D66383" />
        <path opacity="0.231" fill-rule="evenodd" clip-rule="evenodd"
            d="M19.6401 12.3599C19.7811 12.4208 19.8611 12.5275 19.8801 12.6799C19.7392 12.6189 19.6592 12.5122 19.6401 12.3599Z"
            fill="#E899B0" />
        <path opacity="0.235" fill-rule="evenodd" clip-rule="evenodd"
            d="M21.2402 12.4401C21.079 12.554 20.8923 12.6073 20.6802 12.6001C20.8414 12.4862 21.028 12.4329 21.2402 12.4401Z"
            fill="#F4BCD0" />
        <path opacity="0.557" fill-rule="evenodd" clip-rule="evenodd"
            d="M20.6802 12.6001C20.561 12.7425 20.401 12.7958 20.2002 12.7601C20.3373 12.6611 20.4973 12.6077 20.6802 12.6001Z"
            fill="#E19DB4" />
        <path opacity="0.071" fill-rule="evenodd" clip-rule="evenodd"
            d="M31.0798 12.2798C31.1724 12.5016 31.2257 12.7416 31.2398 12.9998C31.1104 12.7861 31.057 12.5461 31.0798 12.2798Z"
            fill="#EDA6BC" />
        <path opacity="0.635" fill-rule="evenodd" clip-rule="evenodd"
            d="M13.1601 12.6001C13.1111 12.9936 12.9244 13.287 12.6001 13.4801C12.6129 13.3479 12.6662 13.2412 12.7601 13.1601C12.8726 13.1223 12.9259 13.0423 12.9201 12.9201C12.9391 12.7678 13.0191 12.6611 13.1601 12.6001Z"
            fill="#D7627F" />
        <path opacity="0.114" fill-rule="evenodd" clip-rule="evenodd"
            d="M12.9202 12.9199C12.926 13.0421 12.8727 13.1221 12.7602 13.1599C12.7544 13.0378 12.8077 12.9578 12.9202 12.9199Z"
            fill="#F0ABBE" />
        <path opacity="0.624" fill-rule="evenodd" clip-rule="evenodd"
            d="M0.68002 13C0.713348 13.3454 0.660015 13.6654 0.52002 13.96C0.523112 13.6214 0.576445 13.3014 0.68002 13Z"
            fill="#EC86A5" />
        <path fill-rule="evenodd" clip-rule="evenodd"
            d="M1.24002 11.0801C1.16784 11.5321 1.15451 11.9854 1.20002 12.4401C1.17336 12.2801 1.14668 12.1201 1.12002 11.9601C1.03818 12.0481 0.99818 12.1547 1.00002 12.2801C1.05636 12.4429 1.1097 12.6029 1.16002 12.7601C1.08002 12.7601 1.00002 12.7601 0.92002 12.7601C0.907052 12.9222 0.92038 13.0822 0.96002 13.2401C1.01236 13.1444 1.05236 13.1444 1.08002 13.2401C1.03307 13.3819 1.0064 13.5286 1.00002 13.6801C1.06376 14.0787 1.11708 14.4787 1.16002 14.8801C1.13336 15.0267 1.10668 15.1734 1.08002 15.3201C1.03278 15.0689 0.966108 14.8289 0.88002 14.6001C0.826684 15.5067 0.826684 16.4134 0.88002 17.3201C0.966108 17.0913 1.03278 16.8513 1.08002 16.6001C1.10668 16.7467 1.13336 16.8934 1.16002 17.0401C1.11708 17.4414 1.06376 17.8414 1.00002 18.2401C1.0064 18.3916 1.03307 18.5382 1.08002 18.6801C1.045 18.7606 0.991676 18.7606 0.92002 18.6801C0.842772 18.8318 0.816108 18.9918 0.84002 19.1601C0.958244 19.1391 1.06492 19.1658 1.16002 19.2401C0.977108 19.5156 0.950444 19.809 1.08002 20.1201C1.02668 20.0934 0.973356 20.0667 0.92002 20.0401C0.704811 19.3105 0.571477 18.5638 0.52002 17.8001C0.52002 16.5467 0.52002 15.2934 0.52002 14.0401C0.52002 14.0134 0.52002 13.9867 0.52002 13.9601C0.660015 13.6654 0.713348 13.3454 0.68002 13.0001C0.656442 12.8213 0.683109 12.6613 0.76002 12.5201C0.899644 12.2241 0.979644 11.9041 1.00002 11.5601C1.08002 11.4001 1.16002 11.2401 1.24002 11.0801Z"
            fill="#E73365" />
        <path opacity="0.765" fill-rule="evenodd" clip-rule="evenodd"
            d="M12.5998 13.48C12.5859 13.7499 12.5459 14.0165 12.4798 14.28C12.4575 14.2067 12.4175 14.1534 12.3598 14.12C12.353 13.8681 12.433 13.6547 12.5998 13.48Z"
            fill="#DE6582" />
        <path opacity="0.435" fill-rule="evenodd" clip-rule="evenodd"
            d="M7.96014 13.5601C7.9068 13.9067 7.85347 14.2534 7.80014 14.6001C7.7468 14.6267 7.69347 14.6534 7.64014 14.6801C7.67936 14.2796 7.78602 13.9063 7.96014 13.5601Z"
            fill="#C9436B" />
        <path opacity="0.106" fill-rule="evenodd" clip-rule="evenodd"
            d="M12.3602 14.1201C12.355 14.3544 12.3016 14.5677 12.2002 14.7601C12.1837 14.5205 12.237 14.3072 12.3602 14.1201Z"
            fill="#ECA6BB" />
        <path opacity="0.557" fill-rule="evenodd" clip-rule="evenodd"
            d="M31.2401 13.0801C31.4322 14.0187 31.5122 14.9787 31.4801 15.9601C31.5173 17.1903 31.384 18.3903 31.0801 19.5601C31.1642 18.8433 31.2576 18.1233 31.3601 17.4001C31.4219 15.957 31.3819 14.517 31.2401 13.0801Z"
            fill="#D85B7D" />
        <path opacity="0.511" fill-rule="evenodd" clip-rule="evenodd"
            d="M0.519825 14.04C0.519825 15.2934 0.519825 16.5467 0.519825 17.8C0.309147 16.5468 0.309147 15.2935 0.519825 14.04Z"
            fill="#E6809B" />
        <path opacity="0.102" fill-rule="evenodd" clip-rule="evenodd"
            d="M7.79976 14.6001C7.69848 15.5583 7.69848 16.5183 7.79976 17.4801C7.73656 17.3914 7.69656 17.2847 7.67976 17.1601C7.63977 16.3339 7.62644 15.5072 7.63976 14.6801C7.69309 14.6535 7.74642 14.6267 7.79976 14.6001Z"
            fill="#C7708B" />
        <path opacity="0.525" fill-rule="evenodd" clip-rule="evenodd"
            d="M12.1998 14.8398C12.191 15.6946 12.2176 16.548 12.2798 17.3998C12.0046 16.5527 11.978 15.6994 12.1998 14.8398Z"
            fill="#E4819F" />
        <path opacity="0.294" fill-rule="evenodd" clip-rule="evenodd"
            d="M12.2798 17.5601C12.4244 17.6735 12.4778 17.8335 12.4398 18.0401C12.3631 17.8959 12.3098 17.7359 12.2798 17.5601Z"
            fill="#DD809A" />
        <path opacity="0.616" fill-rule="evenodd" clip-rule="evenodd"
            d="M7.80023 17.5601C7.90347 17.9516 8.01015 18.3516 8.12023 18.7601C7.85647 18.4143 7.7498 18.0143 7.80023 17.5601Z"
            fill="#DD6C8A" />
        <path opacity="0.776" fill-rule="evenodd" clip-rule="evenodd"
            d="M12.4399 18.0401C12.5196 18.0332 12.5863 18.06 12.6399 18.1201C12.6929 18.3052 12.7329 18.4918 12.7599 18.6801C12.6127 18.4922 12.506 18.2789 12.4399 18.0401Z"
            fill="#DC708B" />
        <path opacity="0.388" fill-rule="evenodd" clip-rule="evenodd"
            d="M12.7598 18.68C12.8538 18.6625 12.9338 18.6891 12.9998 18.76C13.0658 18.9441 13.1191 19.1308 13.1598 19.32C12.9466 19.1613 12.8133 18.9479 12.7598 18.68Z"
            fill="#D45A78" />
        <path opacity="0.647" fill-rule="evenodd" clip-rule="evenodd"
            d="M20.28 19.16C20.1958 19.1481 20.1158 19.1614 20.04 19.2C19.987 19.3214 19.907 19.4148 19.8 19.48C19.7761 19.3117 19.8027 19.1517 19.88 19C20.0269 19.0422 20.1602 19.0955 20.28 19.16Z"
            fill="#E56E8D" />
        <path opacity="0.443" fill-rule="evenodd" clip-rule="evenodd"
            d="M20.6001 19.2399C20.8123 19.2327 20.9989 19.286 21.1601 19.3999C20.9479 19.4071 20.7613 19.3538 20.6001 19.2399Z"
            fill="#DA7E99" />
        <path opacity="0.949" fill-rule="evenodd" clip-rule="evenodd"
            d="M22.4402 19.7998C21.9869 19.7286 21.5602 19.5953 21.1602 19.3998C21.3697 19.4213 21.5697 19.3946 21.7602 19.3198C21.9062 19.4457 22.0796 19.5124 22.2802 19.5198C22.2535 19.5465 22.2268 19.5732 22.2002 19.5998C22.2858 19.668 22.3658 19.7346 22.4402 19.7998Z"
            fill="#DB5478" />
        <path fill-rule="evenodd" clip-rule="evenodd"
            d="M15.0799 20.7602C15.0265 20.7602 14.9733 20.7602 14.9199 20.7602C14.3129 20.5233 13.8063 20.1501 13.3999 19.6402C13.5685 19.658 13.7018 19.738 13.7999 19.8802C13.8265 19.8402 13.8533 19.8002 13.8799 19.7602C13.8265 19.6802 13.7733 19.6002 13.7199 19.5202C13.8117 19.3821 13.9051 19.3955 13.9999 19.5602C14.0397 19.745 14.0529 19.9317 14.0399 20.1202C14.3159 20.0607 14.4492 20.1674 14.4399 20.4402C14.8362 20.3957 15.0496 20.4223 15.0799 20.5202C15.0799 20.6002 15.0799 20.6802 15.0799 20.7602Z"
            fill="#DD436C" />
        <path opacity="0.447" fill-rule="evenodd" clip-rule="evenodd"
            d="M22.4399 19.8C22.6521 19.7928 22.8387 19.846 22.9999 19.96C22.7878 19.9672 22.6011 19.9139 22.4399 19.8Z"
            fill="#E07799" />
        <path opacity="0.275" fill-rule="evenodd" clip-rule="evenodd"
            d="M19.4002 19.9602C19.3623 20.0727 19.2823 20.126 19.1602 20.1202C19.1858 19.9963 19.2658 19.943 19.4002 19.9602Z"
            fill="#D67D9C" />
        <path opacity="0.792" fill-rule="evenodd" clip-rule="evenodd"
            d="M23 19.96C23.2418 19.9843 23.4818 20.0243 23.72 20.08C23.7905 20.1366 23.8438 20.2033 23.88 20.28C23.5684 20.203 23.2751 20.0963 23 19.96Z"
            fill="#DF5E81" />
        <path opacity="0.518" fill-rule="evenodd" clip-rule="evenodd"
            d="M0.919922 20.04C0.973258 20.0667 1.02659 20.0934 1.07992 20.12C1.20651 20.3901 1.25983 20.6834 1.23992 21C1.10993 20.6958 1.00327 20.3758 0.919922 20.04Z"
            fill="#DD6C8C" />
        <path opacity="0.455" fill-rule="evenodd" clip-rule="evenodd"
            d="M31.0799 19.6401C30.9924 20.1153 30.859 20.5686 30.6799 21.0001C30.654 20.4888 30.7873 20.0355 31.0799 19.6401Z"
            fill="#DB6485" />
        <path fill-rule="evenodd" clip-rule="evenodd"
            d="M8.12012 18.8398C8.44972 19.6057 8.82308 20.3524 9.24012 21.0798C9.03604 20.9288 8.80932 20.8221 8.56012 20.7598C8.5054 20.6015 8.5454 20.4682 8.68012 20.3598C8.63348 20.2397 8.56684 20.133 8.48012 20.0398C8.40868 20.1367 8.34204 20.1367 8.28012 20.0398C8.32188 19.9513 8.34852 19.8579 8.36012 19.7598C8.21412 19.4697 8.13412 19.163 8.12012 18.8398Z"
            fill="#DE466E" />
        <path opacity="0.125" fill-rule="evenodd" clip-rule="evenodd"
            d="M14.9199 20.7598C14.9733 20.7598 15.0266 20.7598 15.0799 20.7598C15.5754 20.8286 16.0688 20.9086 16.5599 20.9998C16.8667 20.9686 17.1734 20.9419 17.4799 20.9198C17.1674 21.035 16.8341 21.0882 16.4799 21.0798C15.926 21.0878 15.406 20.9812 14.9199 20.7598Z"
            fill="#D56587" />
        <path opacity="0.945" fill-rule="evenodd" clip-rule="evenodd"
            d="M23.9601 20.2798C24.0668 20.2798 24.1735 20.2798 24.2801 20.2798C24.1771 20.5945 24.0705 20.9145 23.9601 21.2398C23.8513 21.2942 23.7447 21.3475 23.6401 21.3998C23.798 21.084 23.958 20.764 24.1201 20.4398C24.0607 20.3852 24.0074 20.3319 23.9601 20.2798Z"
            fill="#DE6182" />
        <path opacity="0.78" fill-rule="evenodd" clip-rule="evenodd"
            d="M1.24023 21C1.43635 21.1917 1.51635 21.4317 1.48023 21.72C1.38147 21.4936 1.30147 21.2536 1.24023 21Z"
            fill="#E3819D" />
        <path opacity="0.749" fill-rule="evenodd" clip-rule="evenodd"
            d="M30.68 21C30.5564 21.4862 30.3698 21.9395 30.12 22.36C30.1405 22.1766 30.1139 22.0033 30.04 21.84C30.1413 21.8153 30.2347 21.7753 30.32 21.72C30.3218 21.414 30.4418 21.174 30.68 21Z"
            fill="#DB6383" />
        <path opacity="0.333" fill-rule="evenodd" clip-rule="evenodd"
            d="M23.6399 21.3999C23.6209 21.5522 23.5409 21.6589 23.3999 21.7199C23.4189 21.5676 23.4989 21.4609 23.6399 21.3999Z"
            fill="#F79CB9" />
        <path opacity="0.173" fill-rule="evenodd" clip-rule="evenodd"
            d="M9.64014 21.5601C9.7811 21.621 9.8611 21.7277 9.88014 21.8801C9.80014 21.8267 9.72014 21.7734 9.64014 21.7201C9.64014 21.6667 9.64014 21.6134 9.64014 21.5601Z"
            fill="#ECB1C4" />
        <path opacity="0.341" fill-rule="evenodd" clip-rule="evenodd"
            d="M1.47998 21.7202C1.66566 21.8474 1.74566 22.0341 1.71998 22.2802C1.62108 22.1083 1.54108 21.9217 1.47998 21.7202Z"
            fill="#E99DB2" />
        <path opacity="0.125" fill-rule="evenodd" clip-rule="evenodd"
            d="M23.4 21.7202C23.3265 21.9273 23.1931 22.0873 23 22.2002C23.0735 21.9931 23.2069 21.8331 23.4 21.7202Z"
            fill="#F1A3B9" />
        <path fill-rule="evenodd" clip-rule="evenodd"
            d="M9.6399 21.7202C9.7199 21.7736 9.7999 21.8269 9.8799 21.8802C10.2286 22.2025 10.5753 22.5225 10.9199 22.8402C10.7069 22.6944 10.4669 22.6144 10.1999 22.6002C10.2209 22.482 10.1942 22.3753 10.1199 22.2802C10.049 22.3462 10.0224 22.4262 10.0399 22.5202C9.93326 22.5202 9.82654 22.5202 9.7199 22.5202C9.77326 22.3602 9.82654 22.2002 9.8799 22.0402C9.7551 22.0417 9.6351 22.0684 9.5199 22.1202C9.4799 22.0936 9.4399 22.0669 9.3999 22.0402C9.4659 21.9693 9.5459 21.9427 9.6399 21.9602C9.6399 21.8802 9.6399 21.8002 9.6399 21.7202Z"
            fill="#DF3C69" />
        <path opacity="0.235" fill-rule="evenodd" clip-rule="evenodd"
            d="M22.9198 22.2798C22.7543 22.5256 22.5409 22.7123 22.2798 22.8398C22.4453 22.5939 22.6587 22.4073 22.9198 22.2798Z"
            fill="#FAA3C0" />
        <path opacity="0.808" fill-rule="evenodd" clip-rule="evenodd"
            d="M1.87988 22.6001C2.10437 22.744 2.21104 22.9574 2.19988 23.2401C2.0526 23.0522 1.94594 22.8389 1.87988 22.6001Z"
            fill="#E6859F" />
        <path fill-rule="evenodd" clip-rule="evenodd"
            d="M30.04 22.5999C29.8979 22.9747 29.7113 23.3214 29.48 23.6399C29.48 23.3999 29.48 23.1599 29.48 22.9199C29.574 22.9375 29.654 22.9108 29.72 22.8399C29.6255 22.7041 29.6255 22.5707 29.72 22.4399C29.8019 22.5482 29.9085 22.6015 30.04 22.5999Z"
            fill="#E6577A" />
        <path opacity="0.757" fill-rule="evenodd" clip-rule="evenodd"
            d="M10.9199 22.8398C11.1307 22.9447 11.3174 23.0781 11.4799 23.2398C11.2144 23.2139 11.0278 23.0806 10.9199 22.8398Z"
            fill="#DB748E" />
        <path opacity="0.459" fill-rule="evenodd" clip-rule="evenodd"
            d="M2.2002 23.2398C2.27987 23.2329 2.34653 23.2597 2.4002 23.3198C2.46524 23.4747 2.50524 23.6347 2.5202 23.7998C2.39452 23.629 2.28785 23.4424 2.2002 23.2398Z"
            fill="#DB728F" />
        <path opacity="0.729" fill-rule="evenodd" clip-rule="evenodd"
            d="M29.4801 23.6401C29.3866 23.881 29.2532 24.0944 29.0801 24.2801C29.1195 24.0957 29.1462 23.909 29.1601 23.7201C29.2768 23.7255 29.3834 23.6989 29.4801 23.6401Z"
            fill="#DC637F" />
        <path opacity="0.306" fill-rule="evenodd" clip-rule="evenodd"
            d="M21.0799 23.6401C20.9252 23.8448 20.7119 23.9514 20.4399 23.9601C20.6317 23.8245 20.845 23.7179 21.0799 23.6401Z"
            fill="#E0859F" />
        <path opacity="0.361" fill-rule="evenodd" clip-rule="evenodd"
            d="M2.52002 23.7998C2.70076 23.8673 2.78076 24.0007 2.76002 24.1998C2.64884 24.0879 2.56884 23.9545 2.52002 23.7998Z"
            fill="#DD8197" />
        <path opacity="0.408" fill-rule="evenodd" clip-rule="evenodd"
            d="M12.7598 23.96C13.0679 24.0484 13.3612 24.155 13.6398 24.28C13.5864 24.28 13.5331 24.28 13.4798 24.28C13.1809 24.2767 12.9409 24.17 12.7598 23.96Z"
            fill="#D05F7C" />
        <path opacity="0.765" fill-rule="evenodd" clip-rule="evenodd"
            d="M20.4401 23.96C20.4401 24.04 20.4401 24.12 20.4401 24.2C20.1756 24.244 19.9089 24.2707 19.6401 24.28C19.8833 24.1323 20.15 24.0256 20.4401 23.96Z"
            fill="#D46684" />
        <path opacity="0.956" fill-rule="evenodd" clip-rule="evenodd"
            d="M29.0798 24.2801C28.8952 24.6237 28.6819 24.9437 28.4398 25.2401C28.2425 24.8777 28.3492 24.6911 28.7598 24.6801C28.7769 24.5486 28.7502 24.4286 28.6798 24.3201C28.8105 24.2806 28.9439 24.2673 29.0798 24.2801Z"
            fill="#DF4A70" />
        <path fill-rule="evenodd" clip-rule="evenodd"
            d="M13.4801 24.2798C13.5334 24.2798 13.5867 24.2798 13.6401 24.2798C13.6667 24.2798 13.6934 24.2798 13.7201 24.2798C13.7262 24.3798 13.7796 24.4464 13.8801 24.4798C14.251 24.5461 14.6244 24.5861 15.0001 24.5998C16.5659 24.7493 18.1125 24.6426 19.6401 24.2798C19.6401 24.3598 19.6401 24.4398 19.6401 24.5198C19.4801 24.5198 19.3201 24.5198 19.1601 24.5198C19.1465 24.6255 19.1731 24.7189 19.2401 24.7998C19.0714 24.8286 18.9114 24.8819 18.7601 24.9598C18.0374 24.9902 17.3174 24.9502 16.6001 24.8398C16.2466 24.8564 15.9 24.9097 15.5601 24.9998C15.1881 24.9478 14.8148 24.9078 14.4401 24.8798C14.5829 24.7867 14.7429 24.7334 14.9201 24.7198C14.6485 24.6596 14.3819 24.673 14.1201 24.7598C13.9523 24.631 13.7657 24.5376 13.5601 24.4798C13.4999 24.4261 13.4732 24.3595 13.4801 24.2798Z"
            fill="#E3496F" />
        <path opacity="0.604" fill-rule="evenodd" clip-rule="evenodd"
            d="M13.7202 24.2798C14.1581 24.3776 14.5848 24.4843 15.0002 24.5998C14.6245 24.5861 14.2512 24.5461 13.8802 24.4798C13.7797 24.4464 13.7264 24.3798 13.7202 24.2798Z"
            fill="#DE809B" />
        <path opacity="0.992" fill-rule="evenodd" clip-rule="evenodd"
            d="M3.31982 25.0801C3.58787 25.1348 3.74787 25.2948 3.79982 25.5601C3.87982 25.5601 3.95982 25.5601 4.03982 25.5601C4.07058 25.7544 4.1239 25.9411 4.19982 26.1201C3.87882 25.7989 3.58548 25.4522 3.31982 25.0801Z"
            fill="#D45777" />
        <path opacity="0.925" fill-rule="evenodd" clip-rule="evenodd"
            d="M28.4402 25.2402C27.9107 25.9564 27.3241 26.623 26.6802 27.2402C26.7951 27.0434 26.8751 26.8302 26.9202 26.6002C27.0002 26.6002 27.0802 26.6002 27.1602 26.6002C27.1602 26.5202 27.1602 26.4402 27.1602 26.3602C27.2542 26.3778 27.3342 26.3511 27.4002 26.2802C27.3202 26.0936 27.3735 26.0402 27.5602 26.1202C27.6641 25.9396 27.7441 25.7529 27.8002 25.5602C27.9068 25.5602 28.0135 25.5602 28.1202 25.5602C28.1202 25.4536 28.1202 25.3469 28.1202 25.2402C28.2268 25.2402 28.3335 25.2402 28.4402 25.2402Z"
            fill="#DB5277" />
        <path fill-rule="evenodd" clip-rule="evenodd"
            d="M4.6001 26.6001C4.81588 26.7449 5.05588 26.8249 5.3201 26.8401C5.29914 26.9583 5.3258 27.065 5.4001 27.1601C5.48879 27.0729 5.56879 27.0729 5.6401 27.1601C5.55727 27.2903 5.55727 27.4237 5.6401 27.5601C5.24492 27.2985 4.89825 26.9785 4.6001 26.6001Z"
            fill="#DA4E74" />
        <path opacity="0.753" fill-rule="evenodd" clip-rule="evenodd"
            d="M5.64014 27.5601C5.92863 27.662 6.14196 27.8486 6.28014 28.1201C6.01739 27.9907 5.80406 27.8041 5.64014 27.5601Z"
            fill="#D45B7B" />
        <path fill-rule="evenodd" clip-rule="evenodd"
            d="M26.0398 27.8001C25.6111 28.175 25.1578 28.5216 24.6798 28.8401C24.6186 28.4076 24.8053 28.2476 25.2398 28.3601C25.2398 28.2801 25.2398 28.2001 25.2398 28.1201C25.3464 28.1201 25.4531 28.1201 25.5598 28.1201C25.5805 27.8347 25.7405 27.728 26.0398 27.8001Z"
            fill="#DC4F73" />
        <path fill-rule="evenodd" clip-rule="evenodd"
            d="M24.6799 28.8401C24.3473 29.0732 24.0006 29.2866 23.6399 29.4801C23.6815 29.2043 23.8415 29.071 24.1199 29.0801C24.1318 28.9959 24.1185 28.9159 24.0799 28.8401C23.9881 28.9167 23.9081 28.8901 23.8399 28.7601C23.7269 28.9132 23.5801 29.0199 23.3999 29.0801C23.3108 28.9823 23.2974 28.8756 23.3599 28.7601C23.6852 28.6736 24.0185 28.6203 24.3599 28.6001C24.3599 28.6801 24.3599 28.7601 24.3599 28.8401C24.4665 28.8401 24.5733 28.8401 24.6799 28.8401Z"
            fill="#E23C67" />
        <path opacity="0.843" fill-rule="evenodd" clip-rule="evenodd"
            d="M8.43994 29.5602C8.65442 29.5571 8.85442 29.6105 9.03994 29.7202C9.22786 29.6021 9.40122 29.6154 9.55994 29.7602C9.47002 29.7801 9.39002 29.8201 9.31994 29.8802C9.4089 29.9414 9.46226 30.0214 9.47994 30.1202C9.09434 29.9943 8.7477 29.8076 8.43994 29.5602Z"
            fill="#E05175" />
        <path fill-rule="evenodd" clip-rule="evenodd"
            d="M23.16 29.7202C22.8843 29.9553 22.5643 30.1153 22.2 30.2002C22.1939 30.1002 22.1405 30.0336 22.04 30.0002C22.232 29.9854 22.4188 29.9454 22.6 29.8802C22.5619 29.802 22.5086 29.7354 22.44 29.6802C22.678 29.6767 22.918 29.6901 23.16 29.7202Z"
            fill="#E45579" />
        <path opacity="0.694" fill-rule="evenodd" clip-rule="evenodd"
            d="M22.04 30.2799C21.7173 30.4589 21.3706 30.5922 21 30.6799C21.2777 30.3985 21.6243 30.2653 22.04 30.2799Z"
            fill="#DE708E" />
        <path opacity="0.498" fill-rule="evenodd" clip-rule="evenodd"
            d="M10.6802 30.5999C10.9375 30.5875 11.1508 30.6675 11.3202 30.8399C11.0884 30.7896 10.8751 30.7096 10.6802 30.5999Z"
            fill="#EF8DAD" />
        <path opacity="0.741" fill-rule="evenodd" clip-rule="evenodd"
            d="M20.9999 30.6798C20.8387 30.7937 20.6521 30.847 20.4399 30.8398C20.5823 30.6923 20.7689 30.639 20.9999 30.6798Z"
            fill="#E6759A" />
        <path opacity="0.333" fill-rule="evenodd" clip-rule="evenodd"
            d="M20.4401 30.8401C20.1717 30.9807 19.8784 31.0607 19.5601 31.0801C19.8149 30.8902 20.1083 30.8102 20.4401 30.8401Z"
            fill="#D5708A" />
        <path opacity="0.965" fill-rule="evenodd" clip-rule="evenodd"
            d="M11.48 30.8398C11.9229 30.9044 12.3629 30.9844 12.8 31.0798C13.1061 31.0207 13.4128 31.0074 13.72 31.0398C13.5795 31.056 13.4462 31.096 13.32 31.1598C13.7183 31.2352 14.1183 31.3019 14.52 31.3598C15.5063 31.3998 16.4929 31.4132 17.48 31.3998C15.7709 31.5653 14.0642 31.4719 12.36 31.1198C12.0458 31.0619 11.7525 30.9686 11.48 30.8398Z"
            fill="#D75479" />
        <path opacity="0.408" fill-rule="evenodd" clip-rule="evenodd"
            d="M19.1598 31.1598C18.8871 31.2721 18.5938 31.3254 18.2798 31.3198C18.5499 31.1933 18.8431 31.1399 19.1598 31.1598Z"
            fill="#D9708F" />
    </g>
    <defs>
        <clipPath id="clip0_5357_56">
            <rect width="32" height="32" fill="white" />
        </clipPath>
    </defs>
</svg>