<svg width="32" height="32" viewBox="0 0 32 32" fill="none" xmlns="http://www.w3.org/2000/svg">
    <path fill-rule="evenodd" clip-rule="evenodd"
        d="M24.8541 2.26735C20.4386 2.78431 20.1625 3.95158 24.0259 5.76931C24.8208 5.31573 25.6491 5.08229 26.5107 5.06892C26.5107 4.36852 26.5107 3.66813 26.5107 2.96774C28.4475 4.31606 29.1837 6.41724 28.7194 9.27127C28.6312 10.429 28.2631 11.3629 27.615 12.0728C27.0026 12.033 26.4505 11.7995 25.9585 11.3724C27.1214 9.81842 27.6736 7.95068 27.615 5.76931C26.3302 5.88459 25.1338 6.35154 24.0259 7.17009C23.7181 8.65121 23.258 10.052 22.6454 11.3724C23.3018 12.0229 24.0381 12.2563 24.8541 12.0728C22.1751 14.9222 19.0461 16.5565 15.4671 16.9756C15.4671 16.2752 15.4671 15.5748 15.4671 14.8744C17.959 14.8128 20.1677 13.7622 22.0932 11.7226C21.765 11.3974 21.3969 11.2807 20.9889 11.3724C22.8398 9.58645 23.0239 7.60202 21.5411 5.41911C20.1194 4.74814 18.6469 4.39794 17.1236 4.36852C14.7121 4.7253 12.3193 5.19225 9.94533 5.76931C8.88041 5.95785 7.96009 5.60766 7.18445 4.71872C8.18925 4.57836 8.92546 3.99472 9.39316 2.96774C9.39316 2.7343 9.39316 2.50079 9.39316 2.26735C14.6253 0.518957 19.7789 0.518957 24.8541 2.26735Z"
        fill="#F8C090" />
    <path fill-rule="evenodd" clip-rule="evenodd"
        d="M24.8542 2.26709C25.3462 2.69419 25.8984 2.92763 26.5107 2.96748C26.5107 3.66787 26.5107 4.36827 26.5107 5.06866C25.6492 5.08204 24.8209 5.31548 24.0259 5.76905C20.1626 3.95132 20.4386 2.78405 24.8542 2.26709Z"
        fill="#FFE1BC" />
    <path fill-rule="evenodd" clip-rule="evenodd"
        d="M30.3759 9.97141C29.9775 9.679 29.7014 9.21205 29.5476 8.57063C29.3364 8.96005 29.0603 9.19349 28.7194 9.27102C29.1838 6.41699 28.4475 4.31581 26.5107 2.96749C25.8983 2.92764 25.3461 2.6942 24.8541 2.2671C19.779 0.518708 14.6253 0.518708 9.39317 2.2671C9.02504 2.2671 8.65695 2.2671 8.28882 2.2671C11.4984 0.635604 14.9035 -0.0647887 18.5041 0.165921C23.056 -0.556065 26.9212 1.07818 30.0998 5.06867C30.374 6.68643 30.4661 8.32073 30.3759 9.97141Z"
        fill="#AA7A5A" />
    <path fill-rule="evenodd" clip-rule="evenodd"
        d="M20.989 11.3721C19.4935 12.67 17.8369 13.3704 16.0194 13.4733C15.261 13.583 14.5248 13.4663 13.8107 13.1231C12.4021 10.9908 11.1137 8.77286 9.94543 6.46934C9.94543 6.2359 9.94543 6.00239 9.94543 5.76895C12.3194 5.1919 14.7122 4.72494 17.1237 4.36816C18.647 4.39758 20.1195 4.74778 21.5412 5.41875C23.024 7.60166 22.8399 9.58609 20.989 11.3721Z"
        fill="#FEDFB9" />
    <path fill-rule="evenodd" clip-rule="evenodd"
        d="M25.9586 11.3722C25.5904 11.6056 25.2224 11.8391 24.8542 12.0726C24.0382 12.2561 23.3019 12.0226 22.6455 11.3722C23.2581 10.0517 23.7182 8.65095 24.026 7.16983C25.1339 6.35128 26.3303 5.88433 27.6151 5.76904C27.6737 7.95041 27.1215 9.81815 25.9586 11.3722Z"
        fill="#FEE0BA" />
    <path fill-rule="evenodd" clip-rule="evenodd"
        d="M9.94542 6.46924C11.1137 8.77276 12.4021 10.9907 13.8107 13.123C14.5247 13.4662 15.261 13.5829 16.0194 13.4732C12.9345 14.7318 10.0816 14.0314 7.46062 11.372C7.03854 8.75007 7.8668 7.11577 9.94542 6.46924Z"
        fill="#FEC998" />
    <path fill-rule="evenodd" clip-rule="evenodd"
        d="M9.39318 2.96729C8.92549 3.99427 8.18927 4.57791 7.18447 4.71827C7.96012 5.6072 8.88043 5.9574 9.94536 5.76885C9.94536 6.0023 9.94536 6.23581 9.94536 6.46925C7.86674 7.11578 7.03848 8.75007 7.46056 11.372C10.0815 14.0314 12.9345 14.7318 16.0193 13.4732C17.8369 13.3703 19.4934 12.6699 20.9889 11.372C21.3969 11.2802 21.765 11.397 22.0933 11.7222C20.1677 13.7617 17.959 14.8123 15.4671 14.874C15.4671 15.5743 15.4671 16.2747 15.4671 16.9751C19.0461 16.556 22.1751 14.9217 24.8541 12.0724C25.2223 11.8389 25.5904 11.6054 25.9585 11.372C26.4505 11.7991 27.0027 12.0325 27.615 12.0724C25.9292 15.496 23.5364 17.9473 20.4367 19.4265C14.7236 22.1439 9.20185 21.677 3.87141 18.0257C0.0371576 13.5462 0.221215 9.3438 4.42359 5.41866C5.98465 4.25349 7.64118 3.43634 9.39318 2.96729Z"
        fill="#E88F61" />
    <path fill-rule="evenodd" clip-rule="evenodd"
        d="M4.9758 5.76912C5.97436 5.7631 6.89467 6.11329 7.73668 6.81971C7.08114 7.53376 6.52896 8.35084 6.08015 9.27108C4.9758 10.2049 3.87144 10.2049 2.76709 9.27108C3.51633 8.0905 4.25257 6.92316 4.9758 5.76912Z"
        fill="#FEB885" />
    <path fill-rule="evenodd" clip-rule="evenodd"
        d="M8.28885 2.26709C8.65698 2.26709 9.02506 2.26709 9.3932 2.26709C9.3932 2.50053 9.3932 2.73404 9.3932 2.96748C7.6412 3.43653 5.98466 4.25368 4.4236 5.41886C0.221232 9.34399 0.0371746 13.5463 3.87143 18.0259C9.20187 21.6772 14.7236 22.1441 20.4367 19.4267C23.5364 17.9475 25.9292 15.4962 27.615 12.0726C28.2631 11.3626 28.6313 10.4288 28.7194 9.27101C29.0603 9.19348 29.3364 8.96004 29.5477 8.57062C29.7014 9.21204 29.9775 9.67899 30.3759 9.97141C30.3759 10.2048 30.3759 10.4384 30.3759 10.6718C29.9402 10.8699 29.5721 11.2201 29.2716 11.7224C29.9845 12.6271 29.9845 13.4442 29.2716 14.1738C29.3439 13.6562 29.2519 13.1893 28.9955 12.773C25.7615 18.2713 21.4361 21.5398 16.0193 22.5785C13.8106 22.5785 11.6019 22.5785 9.3932 22.5785C7.35903 21.8809 5.33442 20.9471 3.31925 19.7769C2.76707 18.6096 2.03084 17.6757 1.11054 16.9753C-1.01215 11.7667 -0.0918525 7.68112 3.87143 4.71846C5.29113 3.70023 6.76362 2.88308 8.28885 2.26709Z"
        fill="#7F4E35" />
    <path fill-rule="evenodd" clip-rule="evenodd"
        d="M2.76709 11.372C4.10555 11.1565 5.39396 11.39 6.63233 12.0724C8.86622 14.4214 11.4431 15.5888 14.3628 15.5743C14.3628 16.2747 14.3628 16.9751 14.3628 17.6755C11.8715 17.9216 9.47875 17.4547 7.18451 16.2747C7.74016 15.6474 7.74016 15.1805 7.18451 14.8739C4.92699 15.5417 3.4545 14.3743 2.76709 11.372Z"
        fill="#FCB481" />
    <path fill-rule="evenodd" clip-rule="evenodd"
        d="M29.2715 14.1737C27.9952 18.1273 25.7865 20.9289 22.6454 22.5784C20.3442 23.2122 18.1355 23.2122 16.0193 22.5784C21.4361 21.5398 25.7615 18.2712 28.9955 12.7729C29.2518 13.1893 29.3439 13.6562 29.2715 14.1737Z"
        fill="#D2BDAB" />
    <path fill-rule="evenodd" clip-rule="evenodd"
        d="M29.8237 16.2749C30.1532 16.4396 30.3373 16.7898 30.3759 17.3255C29.1547 21.9658 26.762 25.1176 23.1976 26.7808C22.2849 26.669 21.5486 26.2021 20.9889 25.38C24.8098 23.6641 27.7548 20.6291 29.8237 16.2749Z"
        fill="#EDA878" />
    <path fill-rule="evenodd" clip-rule="evenodd"
        d="M31.4803 19.7769C30.6412 23.8794 28.6166 26.681 25.4064 28.1816C27.8224 25.8182 29.8471 23.0166 31.4803 19.7769Z"
        fill="#B7B5B4" />
    <path fill-rule="evenodd" clip-rule="evenodd"
        d="M30.376 10.6719C30.376 11.1388 30.376 11.6057 30.376 12.0727C30.4725 13.5581 30.2884 14.9588 29.8238 16.275C27.7549 20.6292 24.8099 23.6642 20.989 25.3801C17.1842 26.6587 13.319 27.0089 9.39325 26.4307C6.92237 25.4487 4.71366 23.9311 2.76713 21.8782C2.21495 20.9443 1.66277 20.0104 1.1106 19.0766C1.1106 18.3762 1.1106 17.6758 1.1106 16.9754C2.03089 17.6758 2.76713 18.6096 3.3193 19.777C6.06042 23.7285 9.55753 25.5963 13.8107 25.3801C15.9617 25.277 17.9864 24.8101 19.8846 23.9793C20.9354 23.7721 21.8557 23.3052 22.6455 22.5785C25.7866 20.929 27.9953 18.1274 29.2716 14.1738C29.9846 13.4442 29.9846 12.6272 29.2716 11.7225C29.5721 11.2201 29.9403 10.8699 30.376 10.6719Z"
        fill="#6D3809" />
    <path fill-rule="evenodd" clip-rule="evenodd"
        d="M30.3759 12.0728C32.0711 14.2676 32.4392 16.8358 31.4803 19.7771C29.847 23.0168 27.8224 25.8184 25.4063 28.1818C22.9098 29.1885 20.517 30.3558 18.228 31.6837C12.0856 32.8597 6.83997 30.7585 2.49096 25.3802C1.43761 23.4846 0.977461 21.3834 1.11052 19.0767C1.6627 20.0105 2.21487 20.9444 2.76705 21.8782C4.33797 26.3002 7.09888 28.7515 11.0497 29.2324C15.3947 30.1717 19.444 29.3546 23.1976 26.781C26.762 25.1178 29.1547 21.966 30.3759 17.3257C30.3373 16.79 30.1532 16.4398 29.8237 16.2751C30.2883 14.9589 30.4724 13.5581 30.3759 12.0728Z"
        fill="#80533D" />
    <path fill-rule="evenodd" clip-rule="evenodd"
        d="M2.76709 21.8779C4.71363 23.9309 6.92233 25.4485 9.39322 26.4305C13.3189 27.0087 17.1842 26.6585 20.9889 25.3799C21.5487 26.2019 22.2849 26.6689 23.1976 26.7807C19.4441 29.3543 15.3948 30.1713 11.0497 29.232C7.09892 28.7512 4.33801 26.2999 2.76709 21.8779Z"
        fill="#E48E60" />
    <path fill-rule="evenodd" clip-rule="evenodd"
        d="M9.39321 22.5786C11.6019 22.5786 13.8106 22.5786 16.0193 22.5786C18.1356 23.2123 20.3443 23.2123 22.6455 22.5786C21.8557 23.3053 20.9354 23.7722 19.8846 23.9794C16.3826 24.0958 12.8855 23.979 9.39321 23.6292C7.9591 23.0835 7.9591 22.7333 9.39321 22.5786Z"
        fill="#AE8864" />
    <path fill-rule="evenodd" clip-rule="evenodd"
        d="M3.31921 19.7769C5.33438 20.9471 7.359 21.8809 9.39316 22.5784C7.95905 22.7331 7.95905 23.0833 9.39316 23.629C12.8855 23.9789 16.3826 24.0956 19.8845 23.9792C17.9863 24.81 15.9616 25.2769 13.8106 25.38C9.55744 25.5961 6.06033 23.7284 3.31921 19.7769Z"
        fill="#996839" />
    <path fill-rule="evenodd" clip-rule="evenodd"
        d="M25.4063 28.1816C23.4266 30.5106 21.0338 31.6779 18.228 31.6836C20.517 30.3557 22.9098 29.1883 25.4063 28.1816Z"
        fill="#B0ADAC" />
</svg>