<svg width="32" height="32" viewBox="0 0 32 32" fill="none" xmlns="http://www.w3.org/2000/svg">
    <path
        d="M21.6618 23.9002C22.5917 23.4958 23.6208 23.3801 24.6168 23.5678C25.6128 23.7556 26.5301 24.2382 27.2507 24.9537L29.6004 27.3133C27.3721 29.551 24.5331 31.075 21.4424 31.6925C18.3516 32.3099 15.1479 31.9931 12.2365 30.7822C9.32499 29.5712 6.8365 27.5205 5.08569 24.8892C3.33488 22.258 2.40039 19.1646 2.40039 16C2.40039 12.8355 3.33488 9.74197 5.08569 7.11076C6.8365 4.47955 9.32499 2.42879 12.2365 1.21782C15.1479 0.00685397 18.3516 -0.30993 21.4424 0.307529C24.5331 0.924989 27.3721 2.44896 29.6004 4.68672L27.2507 7.04631C26.5299 7.76153 25.6125 8.24388 24.6166 8.43134C23.6206 8.61879 22.5915 8.50278 21.6618 8.09822C20.3629 7.54663 18.9482 7.32651 17.544 7.45751C16.1398 7.58851 14.7898 8.06655 13.6143 8.84898C12.4388 9.6314 11.4745 10.6939 10.8075 11.9416C10.1404 13.1893 9.79126 14.5834 9.79126 15.9996C9.79126 17.4158 10.1404 18.8099 10.8075 20.0576C11.4745 21.3053 12.4388 22.3678 13.6143 23.1502C14.7898 23.9326 16.1398 24.4107 17.544 24.5417C18.9482 24.6727 20.3629 24.4526 21.6618 23.901M20.9679 15.9675C20.9679 15.4433 20.8131 14.9308 20.5231 14.4949C20.2331 14.059 19.8208 13.7193 19.3385 13.5187C18.8562 13.318 18.3255 13.2656 17.8134 13.3678C17.3014 13.4701 16.8311 13.7226 16.4619 14.0932C16.0928 14.4639 15.8414 14.9362 15.7395 15.4504C15.6377 15.9646 15.69 16.4975 15.8898 16.9819C16.0895 17.4662 16.4279 17.8802 16.8619 18.1714C17.296 18.4627 17.8063 18.6182 18.3284 18.6182C19.0282 18.6173 19.6991 18.3378 20.1939 17.8409C20.6887 17.344 20.9671 16.6703 20.9679 15.9675Z"
        fill="url(#paint0_linear_5526_62)" />
    <defs>
        <linearGradient id="paint0_linear_5526_62" x1="2.40039" y1="0" x2="33.9824" y2="26.8447"
            gradientUnits="userSpaceOnUse">
            <stop stop-color="#DD342B" />
            <stop offset="1" stop-color="#D82EB4" />
        </linearGradient>
    </defs>
</svg>