<svg width="32" height="32" viewBox="0 0 32 32" fill="none" xmlns="http://www.w3.org/2000/svg">
    <path opacity="0.923" fill-rule="evenodd" clip-rule="evenodd"
        d="M11.4538 0C14.598 0 17.7421 0 20.8863 0C30.8722 4.72607 34.1287 12.4423 30.6557 23.1489C28.4128 27.2818 25.1563 30.2322 20.8863 32C17.7421 32 14.598 32 11.4538 32C6.06376 29.7305 2.24584 25.8723 0 20.4255C0 17.4752 0 14.5248 0 11.5745C2.24584 6.12766 6.06376 2.2695 11.4538 0Z"
        fill="#EF7B47" />
    <path fill-rule="evenodd" clip-rule="evenodd"
        d="M12.8018 3.40367C24.0326 3.06345 29.0857 8.51026 27.9612 19.7441C27.1997 22.5577 25.4031 24.1463 22.5712 24.5101C19.3991 22.5953 15.9181 21.3471 12.1281 20.7654C9.43306 17.588 9.43306 14.4108 12.1281 11.2335C15.5452 9.50355 18.4648 10.0709 20.8868 12.9356C19.8132 14.4064 18.6903 14.5199 17.5181 13.276C13.8124 12.4817 12.3526 13.9569 13.1387 17.7015C15.022 19.4806 16.931 19.4806 18.8656 17.7015C20.3325 18.5024 21.2309 19.7506 21.5606 21.4462C22.2343 21.9002 22.9081 21.9002 23.5818 21.4462C27.2281 15.2395 25.8806 10.4736 19.5393 7.14835C13.3167 5.35576 8.93731 7.51179 6.40117 13.6164C5.97775 20.7063 9.23423 24.7915 16.1706 25.8718C16.1706 26.7795 16.1706 27.6874 16.1706 28.5952C6.02978 26.94 2.09956 21.0393 4.37992 10.893C6.50062 7.49518 9.30794 4.99874 12.8018 3.40367Z"
        fill="#FEF6F2" />
</svg>