<svg width="32" height="32" viewBox="0 0 32 32" fill="none" xmlns="http://www.w3.org/2000/svg">
    <g clip-path="url(#clip0_5235_751)">
        <path fill-rule="evenodd" clip-rule="evenodd"
            d="M-0.0712891 -0.0712891C1.58798 -0.0712891 3.24722 -0.0712891 4.90649 -0.0712891C2.25167 0.592415 0.592415 2.25167 -0.0712891 4.90649C-0.0712891 3.24722 -0.0712891 1.58798 -0.0712891 -0.0712891Z"
            fill="#F9F9F9" />
        <path fill-rule="evenodd" clip-rule="evenodd"
            d="M4.90649 -0.0712891C12.1598 -0.0712891 19.4132 -0.0712891 26.6665 -0.0712891C29.4791 0.465662 31.2331 2.12492 31.9287 4.90649C31.9287 12.1598 31.9287 19.4132 31.9287 26.6665C31.342 29.6709 29.5405 31.425 26.5243 31.9287C19.2709 31.9287 12.0176 31.9287 4.76427 31.9287C2.12604 31.1869 0.514196 29.4802 -0.0712891 26.8087C-0.0712891 19.508 -0.0712891 12.2072 -0.0712891 4.90649C0.592415 2.25167 2.25167 0.592415 4.90649 -0.0712891Z"
            fill="#191919" />
        <path fill-rule="evenodd" clip-rule="evenodd"
            d="M26.6665 -0.0712891C28.4205 -0.0712891 30.1747 -0.0712891 31.9287 -0.0712891C31.9287 1.58798 31.9287 3.24722 31.9287 4.90649C31.2331 2.12492 29.4791 0.465662 26.6665 -0.0712891Z"
            fill="#F9F9F9" />
        <path fill-rule="evenodd" clip-rule="evenodd"
            d="M9.17316 23.6803C11.142 23.7271 13.0857 23.6798 15.0043 23.5381C18.9205 23.0129 21.4094 20.8322 22.4709 16.9959C22.9016 15.4572 23.0438 13.8927 22.8976 12.3025C22.4433 10.1417 21.1397 8.83797 18.9865 8.39143C16.9011 8.32034 14.8151 8.29663 12.7287 8.32032C12.911 7.12432 13.1481 5.93912 13.4398 4.76477C15.7679 4.71227 18.0908 4.78338 20.4087 4.9781C24.7367 6.09442 26.87 8.89146 26.8087 13.3692C26.7847 19.2999 24.1298 23.5665 18.8443 26.1692C17.7705 26.5206 16.6801 26.8051 15.5732 27.0225C13.154 27.141 10.7362 27.1173 8.31982 26.9514C8.58291 25.8515 8.86735 24.7612 9.17316 23.6803Z"
            fill="#ECECEC" />
        <path fill-rule="evenodd" clip-rule="evenodd"
            d="M5.90234 19.556C7.29888 19.4146 8.7211 19.3673 10.169 19.4138C10.2071 19.6412 10.1597 19.8308 10.0268 19.9827C10.0268 19.8404 10.0268 19.6982 10.0268 19.556C8.65197 19.556 7.27716 19.556 5.90234 19.556Z"
            fill="#899C3A" />
        <path fill-rule="evenodd" clip-rule="evenodd"
            d="M5.90216 19.5557C7.27698 19.5557 8.65179 19.5557 10.0266 19.5557C10.0266 19.6979 10.0266 19.8401 10.0266 19.9823C9.82596 21.1278 9.58893 22.2656 9.31549 23.3957C9.19628 23.4443 9.14887 23.539 9.17327 23.6801C7.79845 23.6801 6.42365 23.6801 5.04883 23.6801C5.26609 22.2899 5.55053 20.915 5.90216 19.5557Z"
            fill="#C8E44E" />
        <path fill-rule="evenodd" clip-rule="evenodd"
            d="M9.31543 23.3955C11.1865 23.5372 13.0828 23.5845 15.0043 23.5377C13.0858 23.6794 11.1421 23.7267 9.17321 23.68C9.14881 23.5389 9.19622 23.4441 9.31543 23.3955Z"
            fill="#666766" />
        <path fill-rule="evenodd" clip-rule="evenodd"
            d="M-0.0712891 26.8086C0.514196 29.4801 2.12604 31.1868 4.76427 31.9286C3.15242 31.9286 1.54056 31.9286 -0.0712891 31.9286C-0.0712891 30.2219 -0.0712891 28.5153 -0.0712891 26.8086Z"
            fill="#F9F9F9" />
        <path fill-rule="evenodd" clip-rule="evenodd"
            d="M31.9289 26.667C31.9289 28.421 31.9289 30.1752 31.9289 31.9292C30.1273 31.9292 28.3259 31.9292 26.5244 31.9292C29.5407 31.4255 31.3422 29.6714 31.9289 26.667Z"
            fill="#F8F8F8" />
    </g>
    <defs>
        <clipPath id="clip0_5235_751">
            <rect width="32" height="32" fill="white" />
        </clipPath>
    </defs>
</svg>