<svg width="32" height="32" viewBox="0 0 32 32" fill="none" xmlns="http://www.w3.org/2000/svg">
    <g clip-path="url(#clip0_5442_165)">
        <path fill-rule="evenodd" clip-rule="evenodd"
            d="M-0.0800781 -0.0800781C10.5866 -0.0800781 21.2532 -0.0800781 31.9199 -0.0800781C31.9199 10.5866 31.9199 21.2532 31.9199 31.9199C21.2532 31.9199 10.5866 31.9199 -0.0800781 31.9199C-0.0800781 21.2532 -0.0800781 10.5866 -0.0800781 -0.0800781Z"
            fill="#00E3A3" />
        <path fill-rule="evenodd" clip-rule="evenodd"
            d="M22.96 19.4399C23.2972 19.5947 23.6706 19.6482 24.08 19.5999C24.08 18.3731 24.08 17.1466 24.08 15.9199C24.72 15.9199 25.36 15.9199 26 15.9199C26 17.7866 26 19.6531 26 21.5199C21.8621 22.2498 18.5021 20.9698 15.92 17.6799C13.2922 21.0026 9.87883 22.2826 5.68004 21.5199C5.62779 20.7656 5.68111 20.0191 5.84004 19.2799C9.56988 20.0912 12.5032 18.9445 14.64 15.8399C13.2642 13.6585 11.2909 12.4585 8.72004 12.2399C8.43771 12.086 8.11771 12.0327 7.76004 12.0799C7.76004 13.3065 7.76004 14.5332 7.76004 15.7599C7.06671 15.7599 6.37337 15.7599 5.68004 15.7599C5.68004 13.8932 5.68004 12.0265 5.68004 10.1599C9.8791 9.39455 13.2924 10.6745 15.92 13.9999C18.5514 10.674 21.9648 9.39397 26.16 10.1599C26.2124 10.9141 26.1589 11.6607 26 12.3999C22.2623 11.5208 19.3288 12.6675 17.2 15.8399C18.5384 17.9754 20.4584 19.1754 22.96 19.4399Z"
            fill="#1D1D15" />
        <path fill-rule="evenodd" clip-rule="evenodd"
            d="M8.72001 12.2401C8.45334 12.2401 8.18668 12.2401 7.92001 12.2401C7.97201 13.4431 7.91867 14.6165 7.76001 15.7601C7.76001 14.5334 7.76001 13.3067 7.76001 12.0801C8.11767 12.0329 8.43767 12.0862 8.72001 12.2401Z"
            fill="#A7A8A2" />
        <path fill-rule="evenodd" clip-rule="evenodd"
            d="M24.08 15.9199C24.08 17.1466 24.08 18.3732 24.08 19.5999C23.6705 19.6482 23.2971 19.5948 22.96 19.4399C23.28 19.4399 23.6 19.4399 23.92 19.4399C23.868 18.2369 23.9212 17.0636 24.08 15.9199Z"
            fill="#A4A49F" />
        <path fill-rule="evenodd" clip-rule="evenodd"
            d="M24.0801 15.9199C24.7415 15.7623 25.435 15.7089 26.1601 15.7599C26.2126 17.7083 26.1593 19.6283 26.0001 21.5199C26.0001 19.6531 26.0001 17.7866 26.0001 15.9199C25.3601 15.9199 24.7201 15.9199 24.0801 15.9199Z"
            fill="#4D4D48" />
    </g>
    <defs>
        <clipPath id="clip0_5442_165">
            <rect width="32" height="32" fill="white" />
        </clipPath>
    </defs>
</svg>