<svg width="32" height="32" viewBox="0 0 32 32" fill="none" xmlns="http://www.w3.org/2000/svg">
    <g clip-path="url(#clip0_5461_90)">
        <path fill-rule="evenodd" clip-rule="evenodd"
            d="M-0.0784912 -0.0834961C3.94766 -0.0834961 7.97379 -0.0834961 11.9999 -0.0834961C5.832 1.97027 2.0673 6.35915 0.705822 13.0832C0.581906 13.2679 0.503474 13.4902 0.470528 13.7498C0.365953 15.3054 0.365953 16.861 0.470528 18.4165C0.514202 18.5692 0.592633 18.6802 0.705822 18.7498C1.91892 25.3715 5.52676 29.7603 11.5294 31.9165C7.66007 31.9165 3.79079 31.9165 -0.0784912 31.9165C-0.0784912 21.2498 -0.0784912 10.5832 -0.0784912 -0.0834961Z"
            fill="#FDFEFE" />
        <path fill-rule="evenodd" clip-rule="evenodd"
            d="M12 -0.0834961C14.6144 -0.0834961 17.2287 -0.0834961 19.8431 -0.0834961C27.101 2.4921 30.9703 7.8532 31.4509 15.9998C30.9873 23.9123 27.2748 29.218 20.3137 31.9165C17.3855 31.9165 14.4575 31.9165 11.5294 31.9165C5.52679 29.7603 1.91895 25.3715 0.705852 18.7498C0.501207 16.8615 0.501207 14.9726 0.705852 13.0832C2.06733 6.35915 5.83203 1.97027 12 -0.0834961Z"
            fill="#0788CB" />
        <path fill-rule="evenodd" clip-rule="evenodd"
            d="M19.8431 -0.0834961C23.8693 -0.0834961 27.8954 -0.0834961 31.9216 -0.0834961C31.9216 10.5832 31.9216 21.2498 31.9216 31.9165C28.0522 31.9165 24.1831 31.9165 20.3137 31.9165C27.2748 29.218 30.9873 23.9123 31.451 15.9998C30.9704 7.8532 27.101 2.4921 19.8431 -0.0834961Z"
            fill="#FDFDFE" />
        <path fill-rule="evenodd" clip-rule="evenodd"
            d="M16.549 10.9167C16.5385 11.1599 16.5907 11.3821 16.7059 11.5834C16.9779 13.9379 16.8732 16.2712 16.3921 18.5834C16.189 18.9966 16.0321 19.4411 15.9215 19.9167C15.8778 20.9632 15.355 21.5187 14.3529 21.5834C13.9142 21.4477 13.4698 21.3366 13.0196 21.2501C7.90805 22.2654 5.55511 19.9877 5.96075 14.4167C7.12282 10.6038 9.5019 9.38154 13.098 10.7501C13.2026 10.6945 13.3072 10.639 13.4117 10.5834C12.8696 8.98697 12.1637 7.48697 11.2941 6.08341C11.209 4.49796 11.9148 3.91462 13.4117 4.33341C14.9768 6.24247 16.0226 8.43692 16.549 10.9167Z"
            fill="#FCFDFE" />
        <path fill-rule="evenodd" clip-rule="evenodd"
            d="M20.1569 21.2502C19.6314 21.2777 19.1086 21.2498 18.5883 21.1668C19.8331 21.037 20.4606 20.287 20.4706 18.9168C20.1527 18.9438 19.8389 18.916 19.5294 18.8335C19.8758 18.8017 20.1895 18.7183 20.4706 18.5835C21.1539 18.472 21.6245 18.0832 21.8824 17.4168C21.9792 17.3983 22.0576 17.3428 22.1177 17.2502C22.2455 16.4415 22.2193 15.6637 22.0393 14.9168C21.7608 14.0097 21.1856 13.4541 20.3138 13.2502C19.9833 13.0888 19.6171 13.0332 19.2157 13.0835C19.3582 12.7582 19.332 12.4248 19.1373 12.0835C18.7144 11.4401 18.2176 10.8845 17.6471 10.4168C18.228 10.1577 18.8554 10.0466 19.5294 10.0835C20.3069 10.0629 21.065 10.174 21.804 10.4168C23.0272 9.74243 23.9683 10.0202 24.6275 11.2502C26.5009 16.8608 25.8212 22.0832 22.5883 26.9168C21.7054 27.6403 20.9211 27.5292 20.2353 26.5835C20.1307 26.028 20.1307 25.4723 20.2353 24.9168C21.1326 23.7883 21.7862 22.5107 22.1961 21.0835C22.1177 21.028 22.0393 20.9723 21.9608 20.9168C21.3709 21.1033 20.7696 21.2145 20.1569 21.2502Z"
            fill="#FAFCFD" />
        <path fill-rule="evenodd" clip-rule="evenodd"
            d="M17.6471 10.4165C18.2176 10.8842 18.7144 11.4397 19.1373 12.0832C19.332 12.4245 19.3581 12.7578 19.2157 13.0832C19.0918 13.2334 18.9349 13.3445 18.7451 13.4165C18.6405 13.4721 18.536 13.5276 18.4314 13.5832C18.1955 12.6093 17.6203 11.9426 16.7059 11.5832C16.5908 11.3819 16.5385 11.1596 16.549 10.9165C16.8962 10.7044 17.2621 10.5377 17.6471 10.4165Z"
            fill="#DADBDC" />
        <path fill-rule="evenodd" clip-rule="evenodd"
            d="M16.7059 11.5835C17.6202 11.9429 18.1955 12.6096 18.4314 13.5835C17.6472 14.6083 17.4381 15.7749 17.8039 17.0835C17.6781 17.3255 17.5997 17.6032 17.5686 17.9168C17.2027 18.1947 16.8366 18.4723 16.4706 18.7502C16.408 18.7122 16.382 18.6565 16.3922 18.5835C16.8733 16.2713 16.9779 13.938 16.7059 11.5835Z"
            fill="#BFBFBF" />
        <path fill-rule="evenodd" clip-rule="evenodd"
            d="M10.5882 12.9165C13.1431 13.12 13.9535 14.5089 13.0196 17.0832C12.4017 18.3402 11.4344 18.7568 10.1176 18.3332C8.92324 17.4652 8.53108 16.2708 8.94114 14.7498C9.3108 13.9408 9.85982 13.3296 10.5882 12.9165Z"
            fill="#1286C8" />
        <path fill-rule="evenodd" clip-rule="evenodd"
            d="M19.2157 13.0833C19.6171 13.0331 19.9832 13.0886 20.3138 13.25C20.4857 14.8696 20.4072 16.4807 20.0785 18.0833C19.8574 18.2968 19.6221 18.4635 19.3726 18.5833C19.3203 18.5833 19.2679 18.5833 19.2157 18.5833C18.8141 18.4358 18.5004 18.1582 18.2745 17.75C18.4308 17.7357 18.5614 17.7913 18.6667 17.9167C19.1363 16.4134 19.1624 14.9134 18.7451 13.4167C18.9349 13.3447 19.0918 13.2336 19.2157 13.0833Z"
            fill="#0B7EBD" />
        <path fill-rule="evenodd" clip-rule="evenodd"
            d="M18.7451 13.4165C19.1624 14.9133 19.1363 16.4133 18.6667 17.9165C18.5614 17.7912 18.4308 17.7355 18.2745 17.7498C18.0433 17.5938 17.8865 17.3715 17.804 17.0832C17.4382 15.7746 17.6473 14.6079 18.4314 13.5832C18.536 13.5276 18.6405 13.4721 18.7451 13.4165Z"
            fill="#106FA5" />
        <path fill-rule="evenodd" clip-rule="evenodd"
            d="M20.3137 13.25C21.1856 13.454 21.7608 14.0095 22.0392 14.9167C22.0747 15.7604 22.0223 16.5937 21.8824 17.4167C21.6245 18.083 21.1539 18.4718 20.4706 18.5833C20.1046 18.5833 19.7385 18.5833 19.3726 18.5833C19.6221 18.4635 19.8574 18.2968 20.0784 18.0833C20.4072 16.4807 20.4857 14.8696 20.3137 13.25Z"
            fill="#1186C9" />
        <path fill-rule="evenodd" clip-rule="evenodd"
            d="M22.0392 14.9165C22.2193 15.6634 22.2455 16.4411 22.1176 17.2498C22.0575 17.3425 21.9791 17.398 21.8823 17.4165C22.0222 16.5936 22.0746 15.7602 22.0392 14.9165Z"
            fill="#88B9E0" />
        <path fill-rule="evenodd" clip-rule="evenodd"
            d="M0.705938 13.0835C0.501293 14.9729 0.501293 16.8618 0.705938 18.7502C0.592749 18.6805 0.514317 18.5695 0.470644 18.4168C0.366068 16.8613 0.366068 15.3057 0.470644 13.7502C0.50359 13.4905 0.582021 13.2682 0.705938 13.0835Z"
            fill="#BFD9EE" />
        <path fill-rule="evenodd" clip-rule="evenodd"
            d="M17.8039 17.0835C17.8864 17.3718 18.0432 17.5942 18.2745 17.7502C18.5003 18.1583 18.8141 18.436 19.2156 18.5835C19.0594 18.5692 18.9287 18.6248 18.8235 18.7502C18.6494 19.1572 18.4141 19.5183 18.1176 19.8335C17.6879 20.0045 17.322 20.2545 17.0195 20.5835C16.6536 20.3613 16.2875 20.139 15.9215 19.9168C16.0321 19.4412 16.189 18.9967 16.3921 18.5835C16.3819 18.6565 16.4079 18.7122 16.4705 18.7502C16.8365 18.4723 17.2026 18.1947 17.5686 17.9168C17.5996 17.6032 17.6781 17.3255 17.8039 17.0835Z"
            fill="#DADBDC" />
        <path fill-rule="evenodd" clip-rule="evenodd"
            d="M19.2157 18.5833C19.268 18.5833 19.3204 18.5833 19.3726 18.5833C19.7386 18.5833 20.1047 18.5833 20.4706 18.5833C20.1895 18.7181 19.8758 18.8014 19.5295 18.8333C19.8389 18.9158 20.1527 18.9436 20.4706 18.9166C20.4606 20.2868 19.8331 21.0368 18.5883 21.1666C19.1086 21.2496 19.6314 21.2774 20.1569 21.2499C19.0095 21.5931 17.9637 21.3709 17.0197 20.5833C17.3221 20.2543 17.688 20.0043 18.1177 19.8333C18.4142 19.5181 18.6495 19.1569 18.8236 18.7499C18.9288 18.6246 19.0595 18.5689 19.2157 18.5833Z"
            fill="#EBEEF0" />
    </g>
    <defs>
        <clipPath id="clip0_5461_90">
            <rect width="32" height="32" fill="white" />
        </clipPath>
    </defs>
</svg>