<svg width="32" height="32" viewBox="0 0 32 32" fill="none" xmlns="http://www.w3.org/2000/svg">
    <path fill-rule="evenodd" clip-rule="evenodd"
        d="M6.87852 0.00468272C12.9596 -0.00780142 19.0405 0.00468272 25.1215 0.0420604C28.2747 0.239863 30.4304 1.79724 31.5888 4.71427C31.7904 5.42333 31.915 6.14599 31.9626 6.88218C32.0125 12.9623 32.0125 19.0424 31.9626 25.1225C31.5266 29.2464 29.2463 31.5264 25.1215 31.9626C19.0405 32.0125 12.9595 32.0125 6.87852 31.9626C3.68951 31.7715 1.53377 30.1892 0.411233 27.2156C0.213551 26.5316 0.0889158 25.8339 0.0374018 25.1225C-0.0124673 19.0424 -0.0124673 12.9623 0.0374018 6.88218C0.232243 3.73812 1.78985 1.58269 4.71029 0.415837C5.43373 0.22693 6.15642 0.0898291 6.87852 0.00468272Z"
        fill="#499DF3" />
    <path fill-rule="evenodd" clip-rule="evenodd"
        d="M5.53291 8.30253C11.0158 8.29005 16.4987 8.30253 21.9815 8.33991C22.0885 8.37467 22.1757 8.43702 22.2432 8.5268C22.293 9.12484 22.293 9.72289 22.2432 10.3209C22.1559 10.4082 22.0687 10.4953 21.9815 10.5826C16.5236 10.6324 11.0656 10.6324 5.60768 10.5826C5.52043 10.4953 5.43325 10.4082 5.346 10.3209C5.29613 9.72289 5.29613 9.12484 5.346 8.5268C5.42413 8.46154 5.48641 8.38678 5.53291 8.30253Z"
        fill="#FCFDFE" />
    <path fill-rule="evenodd" clip-rule="evenodd"
        d="M26.3929 12.713C20.9069 12.6885 15.4241 12.7134 9.94434 12.7877C9.95263 12.7416 9.97753 12.7042 10.0191 12.6756C15.4896 12.6134 20.9475 12.6258 26.3929 12.713Z"
        fill="#CBE3FB" />
    <path fill-rule="evenodd" clip-rule="evenodd"
        d="M26.3921 12.7132C26.532 12.74 26.6441 12.8148 26.7285 12.9375C26.7784 13.5106 26.7784 14.0837 26.7285 14.6568C26.6413 14.7441 26.5541 14.8312 26.4668 14.9185C20.984 14.9683 15.5011 14.9683 10.0183 14.9185C9.92847 14.851 9.86611 14.7638 9.83135 14.6568C9.78148 14.0588 9.78148 13.4607 9.83135 12.8627C9.85998 12.8211 9.89737 12.7962 9.9435 12.7879C15.4233 12.7136 20.9061 12.6887 26.3921 12.7132Z"
        fill="#FEFEFE" />
    <path fill-rule="evenodd" clip-rule="evenodd"
        d="M26.4677 17.1236C20.9568 17.0992 15.449 17.1241 9.94434 17.1984C9.95263 17.1522 9.97753 17.1149 10.0191 17.0862C15.5145 17.024 20.9973 17.0365 26.4677 17.1236Z"
        fill="#F1F7FD" />
    <path fill-rule="evenodd" clip-rule="evenodd"
        d="M26.4668 17.1238C26.5403 17.1717 26.615 17.2215 26.6911 17.2733C26.7782 17.8698 26.7907 18.4679 26.7285 19.0675C26.6441 19.1901 26.532 19.2649 26.3921 19.2917C20.9061 19.3162 15.4233 19.2913 9.9435 19.217C9.92234 19.158 9.88495 19.1081 9.83135 19.0675C9.78148 18.4694 9.78148 17.8714 9.83135 17.2733C9.85998 17.2318 9.89737 17.2069 9.9435 17.1986C15.4482 17.1243 20.956 17.0994 26.4668 17.1238Z"
        fill="#FEFEFE" />
    <path fill-rule="evenodd" clip-rule="evenodd"
        d="M9.94434 19.2168C15.4241 19.2911 20.9069 19.316 26.3929 19.2916C20.9475 19.3787 15.4896 19.3911 10.0191 19.3289C9.97753 19.3003 9.95263 19.2629 9.94434 19.2168Z"
        fill="#CBE3FB" />
    <path fill-rule="evenodd" clip-rule="evenodd"
        d="M21.9814 21.4596C16.4705 21.4351 10.9627 21.46 5.45801 21.5343C5.46631 21.4882 5.4912 21.4508 5.53277 21.4222C11.0282 21.36 16.511 21.3724 21.9814 21.4596Z"
        fill="#C3DEFA" />
    <path fill-rule="evenodd" clip-rule="evenodd"
        d="M21.9815 21.4593C22.1021 21.4925 22.1893 21.5672 22.2432 21.6835C22.293 22.2567 22.293 22.8298 22.2432 23.4029C22.2058 23.5399 22.1185 23.6272 21.9815 23.6646C16.4987 23.7144 11.0157 23.7144 5.53291 23.6646C5.44312 23.5971 5.38076 23.5099 5.346 23.4029C5.29613 22.8298 5.29613 22.2567 5.346 21.6835C5.36678 21.6151 5.40416 21.5653 5.45814 21.534C10.9628 21.4597 16.4706 21.4348 21.9815 21.4593Z"
        fill="#FEFEFE" />
</svg>