<svg width="32" height="32" viewBox="0 0 32 32" fill="none" xmlns="http://www.w3.org/2000/svg">
    <path opacity="0.95"
        d="M16 32C24.8395 32 32 24.8348 32 16C32 7.16515 24.8395 0 16 0C7.16049 0 0 7.16515 0 16C0 24.8348 7.16543 32 16 32Z"
        fill="#104E70" />
    <path
        d="M11.1753 25.7623C10.9531 25.7623 10.7309 25.7272 10.5432 25.5768C9.95065 25.2408 9.72842 24.4637 10.0988 23.867L14.8889 15.5536C15.3334 14.7764 16.5976 14.7764 17.042 15.5536L21.8321 23.867C22.1679 24.4586 21.9803 25.2408 21.3877 25.5768C20.7951 25.9127 20.0148 25.7272 19.679 25.1305L15.9655 18.6724L12.2519 25.1305C12.0297 25.5367 11.5852 25.7623 11.1753 25.7623Z"
        fill="white" />
    <path
        d="M16 12.51C17.3926 12.51 18.5235 11.3818 18.5235 9.98791C18.5235 8.59399 17.3926 7.46582 16 7.46582C14.6074 7.46582 13.4766 8.59399 13.4766 9.98791C13.4766 11.3818 14.6074 12.51 16 12.51Z"
        fill="#FFC545" />
    <path
        d="M16 17.4492C11.8766 17.4492 8.49878 14.1098 8.49878 9.94812C8.49878 9.24114 9.0568 8.68457 9.76298 8.68457C10.4692 8.68457 11.0272 9.24114 11.0272 9.94812C11.0272 12.6959 13.2543 14.9221 16 14.9221C18.7457 14.9221 20.9729 12.6959 20.9729 9.94812C20.9729 9.24114 21.5309 8.68457 22.2371 8.68457C22.9432 8.68457 23.5012 9.24114 23.5012 9.94812C23.5012 14.0697 20.158 17.4492 16 17.4492Z"
        fill="white" />
</svg>