<svg width="32" height="32" viewBox="0 0 32 32" fill="none" xmlns="http://www.w3.org/2000/svg">
    <g clip-path="url(#clip0_5406_458)">
        <rect width="32" height="32" fill="#FAFAFA" />
        <path opacity="0.884" fill-rule="evenodd" clip-rule="evenodd"
            d="M31.9997 14.9096C31.9997 15.6626 31.9997 16.4156 31.9997 17.1686C31.0366 17.0866 30.1154 17.2372 29.2362 17.6204C27.6448 10.7889 23.6529 5.81908 17.2607 2.71084C17.5477 1.71212 18.0083 0.808507 18.6425 0C25.5629 2.90932 30.015 7.87918 31.9997 14.9096Z"
            fill="#292929" />
        <path opacity="0.888" fill-rule="evenodd" clip-rule="evenodd"
            d="M10.3519 3.16318C10.8107 3.12441 11.1943 3.27504 11.5034 3.61498C11.8083 4.65988 12.0386 5.71407 12.1943 6.77763C5.22642 8.9959 2.53978 13.6646 4.13389 20.7836C8.29536 28.8203 14.36 30.5523 22.3273 25.9794C23.664 24.3196 25.0458 22.7383 26.4727 21.2354C27.6039 21.3496 28.5251 21.8014 29.2362 22.5908C24.909 30.9604 18.1539 33.7465 8.97013 30.9493C-0.322346 25.4322 -2.39502 17.9774 2.75211 8.58485C4.73497 5.95172 7.26823 4.1445 10.3519 3.16318Z"
            fill="#292929" />
        <path opacity="0.878" fill-rule="evenodd" clip-rule="evenodd"
            d="M15.8792 5.42188C21.6518 7.69821 25.1832 11.8398 26.4728 17.8465C25.4301 17.9533 24.432 18.1792 23.479 18.5243C22.1704 13.8474 19.3304 10.3836 14.958 8.13271C15.3596 7.25187 15.6669 6.34826 15.8792 5.42188Z"
            fill="#292929" />
        <path opacity="0.861" fill-rule="evenodd" clip-rule="evenodd"
            d="M14.0371 10.8438C17.416 12.2778 19.5656 14.7628 20.4854 18.2986C19.3629 18.9196 18.135 19.1456 16.8006 18.9763C16.3575 16.5268 14.9757 14.7949 12.6553 13.7805C13.0726 12.7769 13.5332 11.798 14.0371 10.8438Z"
            fill="#292929" />
    </g>
    <defs>
        <clipPath id="clip0_5406_458">
            <rect width="32" height="32" fill="white" />
        </clipPath>
    </defs>
</svg>