<svg width="32" height="32" viewBox="0 0 32 32" fill="none" xmlns="http://www.w3.org/2000/svg">
    <g clip-path="url(#clip0_5435_45)">
        <path fill-rule="evenodd" clip-rule="evenodd"
            d="M-0.0712891 -0.0712891C10.5954 -0.0712891 21.262 -0.0712891 31.9287 -0.0712891C31.9287 10.5954 31.9287 21.262 31.9287 31.9287C21.262 31.9287 10.5954 31.9287 -0.0712891 31.9287C-0.0712891 21.262 -0.0712891 10.5954 -0.0712891 -0.0712891Z"
            fill="#FEFEFE" />
        <path fill-rule="evenodd" clip-rule="evenodd"
            d="M14.7202 2.77368C15.5953 2.60966 16.496 2.58595 17.4224 2.70257C17.5984 2.73558 17.7406 2.80669 17.8491 2.91591C17.6595 2.91591 17.4698 2.91591 17.2802 2.91591C16.4539 2.77516 15.6006 2.72776 14.7202 2.77368Z"
            fill="#CADEEB" />
        <path fill-rule="evenodd" clip-rule="evenodd"
            d="M14.7202 2.77378C15.6006 2.72786 16.4539 2.77526 17.2802 2.91601C17.1853 2.91601 17.0906 2.91601 16.9958 2.91601C15.697 2.86193 14.417 2.95675 13.1558 3.20045C13.625 2.91835 14.1465 2.77613 14.7202 2.77378Z"
            fill="#8BB9D8" />
        <path fill-rule="evenodd" clip-rule="evenodd"
            d="M16.9956 2.9154C17.0905 2.9154 17.1852 2.9154 17.28 2.9154C17.4696 2.9154 17.6594 2.9154 17.8489 2.9154C17.99 2.89099 18.0847 2.93841 18.1334 3.05762C18.4894 3.18143 18.8687 3.27625 19.2712 3.34207C19.4231 3.47497 19.6126 3.52238 19.84 3.48429C19.952 3.71244 20.1416 3.80726 20.4089 3.76873C20.5038 3.91096 20.5985 4.05318 20.6934 4.1954C19.5755 3.81518 18.4377 3.48334 17.28 3.19984C17.1744 3.10288 17.0797 3.00806 16.9956 2.9154Z"
            fill="#377FAE" />
        <path fill-rule="evenodd" clip-rule="evenodd"
            d="M18.1333 3.05768C18.5881 2.9815 18.9674 3.07631 19.2711 3.34212C18.8686 3.2763 18.4893 3.18148 18.1333 3.05768Z"
            fill="#A7C7DB" />
        <path fill-rule="evenodd" clip-rule="evenodd"
            d="M13.1558 3.19967C13.0135 3.29449 12.8713 3.3893 12.7291 3.48412C12.3266 3.51172 11.9474 3.60654 11.5913 3.76856C12.0167 3.35771 12.5382 3.16808 13.1558 3.19967Z"
            fill="#B3CFE9" />
        <path fill-rule="evenodd" clip-rule="evenodd"
            d="M12.7289 3.48438C12.323 3.80136 11.8489 3.99098 11.3066 4.05326C11.3066 3.86364 11.4015 3.76882 11.5911 3.76882C11.9472 3.6068 12.3264 3.51198 12.7289 3.48438Z"
            fill="#5A95BD" />
        <path fill-rule="evenodd" clip-rule="evenodd"
            d="M19.8398 3.48438C20.0749 3.50707 20.2645 3.60189 20.4087 3.76882C20.1414 3.80735 19.9518 3.71253 19.8398 3.48438Z"
            fill="#B2CCE8" />
        <path fill-rule="evenodd" clip-rule="evenodd"
            d="M20.4087 3.76855C20.8597 3.9017 21.239 4.13874 21.5465 4.47967C21.2883 4.31898 21.0039 4.22418 20.6931 4.19522C20.5983 4.053 20.5036 3.91078 20.4087 3.76855Z"
            fill="#AFCCE1" />
        <path fill-rule="evenodd" clip-rule="evenodd"
            d="M11.3068 4.05323C11.0622 4.1681 10.8251 4.31032 10.5957 4.47989C10.6737 4.11242 10.9107 3.9702 11.3068 4.05323Z"
            fill="#A3C8DD" />
        <path fill-rule="evenodd" clip-rule="evenodd"
            d="M16.9956 2.91512C17.0796 3.00778 17.1744 3.1026 17.28 3.19956C18.4377 3.48305 19.5755 3.8149 20.6934 4.19512C21.0041 4.22408 21.2886 4.31888 21.5467 4.47956C21.7474 4.82289 22.0318 5.05992 22.4 5.19067C22.4949 5.3803 22.6371 5.52252 22.8267 5.61734C22.9574 5.98558 23.1945 6.27003 23.5378 6.47067C23.5455 6.77389 23.6877 6.96352 23.9645 7.03956C24.2142 7.28831 24.4038 7.57275 24.5334 7.8929C24.5465 8.22679 24.6887 8.46383 24.96 8.60401C24.96 8.74623 24.96 8.88845 24.96 9.03067C24.96 9.12549 24.96 9.2203 24.96 9.31512C25.0549 9.59956 25.1496 9.88401 25.2445 10.1685C25.3392 11.3038 25.3866 12.4415 25.3867 13.5818C25.3867 13.9611 25.3867 14.3403 25.3867 14.7196C25.1354 15.0455 24.9932 15.4247 24.96 15.8573C24.96 15.9522 24.96 16.0469 24.96 16.1418C24.7601 16.2091 24.6652 16.3513 24.6756 16.5685C24.4756 16.6357 24.3808 16.7779 24.3912 16.9951C24.3438 16.9951 24.2963 16.9951 24.2489 16.9951C24.1964 16.1645 23.8646 16.0461 23.2534 16.6396C23.1884 16.6984 23.1409 16.7696 23.1112 16.8529C23.7192 17.4455 23.6243 17.8722 22.8267 18.1329C22.6196 18.7875 22.2641 19.3564 21.76 19.8396C21.6569 20.0752 21.728 20.2174 21.9734 20.2662C21.8169 20.4234 21.7221 20.613 21.6889 20.8351C21.6416 20.8351 21.5941 20.8351 21.5467 20.8351C21.349 21.0341 21.2068 21.2712 21.12 21.5462C20.8238 21.8901 20.4918 22.2219 20.1245 22.5418C19.8955 22.8582 19.7059 23.1902 19.5556 23.5373C19.4134 23.5847 19.3185 23.6796 19.2712 23.8218C18.9278 24.0225 18.6907 24.3069 18.56 24.6751C18.4409 24.7238 18.3934 24.8185 18.4178 24.9596C17.9808 25.2538 17.649 25.6331 17.4223 26.0973C17.0866 26.2915 16.8495 26.5759 16.7112 26.9507C16.3717 27.2939 16.0635 27.6732 15.7867 28.0885C15.4917 27.8265 15.231 27.542 15.0045 27.2351C15.0045 27.0455 14.9096 26.9507 14.72 26.9507C14.5767 26.66 14.4345 26.3755 14.2934 26.0973C14.246 26.0973 14.1986 26.0973 14.1512 26.0973C14.1615 25.8802 14.0667 25.7379 13.8667 25.6707C13.8771 25.4535 13.7823 25.3113 13.5823 25.244C13.5485 24.9732 13.4062 24.7835 13.1556 24.6751C13.1556 24.6278 13.1556 24.5803 13.1556 24.5329C13.1115 24.2991 12.9693 24.1569 12.7289 24.1062C12.7048 23.7217 12.5152 23.4846 12.16 23.3951C11.9905 23.1657 11.8482 22.9286 11.7334 22.684C11.686 22.684 11.6386 22.684 11.5912 22.684C11.6015 22.4668 11.5067 22.3246 11.3067 22.2573C11.3171 22.0402 11.2223 21.8979 11.0223 21.8307C10.4504 21.1204 9.9289 20.3618 9.45782 19.5551C9.45782 19.3655 9.363 19.2707 9.17337 19.2707C9.04261 18.9025 8.80559 18.618 8.46226 18.4173C8.41486 18.3225 8.36744 18.2278 8.32004 18.1329C8.33042 17.9157 8.2356 17.7735 8.03559 17.7062C7.91638 17.6576 7.86897 17.5629 7.89337 17.4218C7.90375 17.2046 7.80894 17.0624 7.60893 16.9951C7.60893 16.9003 7.60893 16.8055 7.60893 16.7107C7.63948 16.4719 7.54466 16.3297 7.32448 16.284C7.33487 16.0668 7.24005 15.9246 7.04004 15.8573C7.04004 15.7151 7.04004 15.5729 7.04004 15.4307C7.1327 15.5147 7.22752 15.6094 7.32448 15.7151C7.37189 15.6678 7.4193 15.6203 7.46671 15.5729C7.24767 14.5458 7.15286 13.5028 7.18226 12.444C7.20645 11.4869 7.30127 10.5387 7.46671 9.59956C7.45456 9.3389 7.35974 9.14927 7.18226 9.03067C7.41967 8.46116 7.6567 7.89227 7.89337 7.32401C7.89337 7.27661 7.89337 7.22919 7.89337 7.18179C7.98819 7.13438 8.083 7.08697 8.17782 7.03956C8.35343 7.00808 8.49566 6.91326 8.60448 6.75512C8.72633 6.93086 8.82114 7.12049 8.88893 7.32401C8.29322 7.47152 8.05617 7.85078 8.17782 8.46179C8.0282 8.44052 7.88598 8.46423 7.75115 8.5329C7.87013 8.67673 7.91755 8.84264 7.89337 9.03067C8.27264 9.03067 8.65189 9.03067 9.03115 9.03067C9.06754 8.07432 9.02014 7.12618 8.88893 6.18623C8.97566 6.05951 9.02306 5.91729 9.03115 5.75956C9.12597 5.66474 9.22078 5.56994 9.31559 5.47512C9.58644 5.44133 9.77607 5.2991 9.88448 5.04845C10.2243 4.98036 10.4613 4.79073 10.5956 4.47956C10.825 4.30999 11.0621 4.16777 11.3067 4.0529C11.849 3.99062 12.3231 3.80099 12.7289 3.48401C12.8712 3.38919 13.0134 3.29438 13.1556 3.19956C14.4168 2.95587 15.6968 2.86105 16.9956 2.91512Z"
            fill="#0B76AF" />
        <path fill-rule="evenodd" clip-rule="evenodd"
            d="M10.5954 4.48047C10.4611 4.79164 10.224 4.98126 9.88428 5.04936C10.032 4.76049 10.269 4.57085 10.5954 4.48047Z"
            fill="#6F9EC5" />
        <path fill-rule="evenodd" clip-rule="evenodd"
            d="M21.5469 4.48047C21.9151 4.61123 22.1995 4.84826 22.4002 5.19158C22.032 5.06082 21.7476 4.82379 21.5469 4.48047Z"
            fill="#99C2D7" />
        <path fill-rule="evenodd" clip-rule="evenodd"
            d="M9.88432 5.04883C9.7759 5.29948 9.58628 5.4417 9.31543 5.47549C9.42385 5.22484 9.61347 5.08262 9.88432 5.04883Z"
            fill="#6CAECB" />
        <path fill-rule="evenodd" clip-rule="evenodd"
            d="M22.8267 5.61816C23.17 5.81881 23.4071 6.10326 23.5378 6.4715C23.1944 6.27085 22.9574 5.98641 22.8267 5.61816Z"
            fill="#74AACD" />
        <path fill-rule="evenodd" clip-rule="evenodd"
            d="M9.03131 5.75977C9.02321 5.91749 8.97581 6.05971 8.88908 6.18643C8.84168 6.18643 8.79426 6.18643 8.74686 6.18643C8.73648 5.96927 8.8313 5.82705 9.03131 5.75977Z"
            fill="#7BAED1" />
        <path fill-rule="evenodd" clip-rule="evenodd"
            d="M8.60467 6.18652C8.46662 6.46858 8.3244 6.75302 8.178 7.03986C8.08318 7.08726 7.98837 7.13468 7.89355 7.18208C8.02629 6.77387 8.26333 6.44201 8.60467 6.18652Z"
            fill="#9FC0D9" />
        <path fill-rule="evenodd" clip-rule="evenodd"
            d="M23.5376 6.4707C23.7882 6.57912 23.9304 6.76874 23.9643 7.03959C23.6875 6.96355 23.5453 6.77392 23.5376 6.4707Z"
            fill="#6D9CCA" />
        <path fill-rule="evenodd" clip-rule="evenodd"
            d="M17.4222 7.7516C16.4141 7.70957 15.4186 7.75699 14.4355 7.89382C14.8762 7.70594 15.3739 7.61112 15.9289 7.60938C16.4527 7.60957 16.9505 7.65699 17.4222 7.7516Z"
            fill="#7AB2CE" />
        <path fill-rule="evenodd" clip-rule="evenodd"
            d="M17.4224 7.75114C17.5128 8.80828 17.6076 9.85125 17.7068 10.88C18.6283 11.0209 19.5765 11.0683 20.5513 11.0222C20.5513 11.923 20.5513 12.8237 20.5513 13.7245C19.6967 13.7008 18.8433 13.7245 17.9913 13.7956C17.8112 13.8396 17.6452 13.9107 17.4935 14.0089C17.4224 15.0033 17.3988 15.9989 17.4224 16.9956C16.4409 17.1819 15.4454 17.1819 14.4357 16.9956C14.4357 16.0474 14.4357 15.0993 14.4357 14.1511C14.4357 13.9615 14.3409 13.8667 14.1513 13.8667C13.2774 13.7259 12.3766 13.6785 11.4491 13.7245C11.4076 12.811 11.4551 11.9102 11.5913 11.0222C12.492 10.9274 13.3928 10.8326 14.2935 10.7378C14.4344 9.81635 14.4818 8.86819 14.4357 7.89336C15.4188 7.75653 16.4143 7.70911 17.4224 7.75114Z"
            fill="#FBFCFC" />
        <path fill-rule="evenodd" clip-rule="evenodd"
            d="M8.60431 6.18652C8.65171 6.18652 8.69913 6.18652 8.74653 6.18652C8.79393 6.18652 8.84135 6.18652 8.88875 6.18652C9.01997 7.12647 9.06737 8.07461 9.03098 9.03097C8.65171 9.03097 8.27246 9.03097 7.8932 9.03097C7.91738 8.84294 7.86996 8.67702 7.75098 8.53319C7.8858 8.46453 8.02803 8.44082 8.17764 8.46208C8.056 7.85108 8.29304 7.47181 8.88875 7.3243C8.82097 7.12078 8.72615 6.93116 8.60431 6.75541C8.49548 6.91355 8.35326 7.00837 8.17764 7.03986C8.32405 6.75302 8.46627 6.46858 8.60431 6.18652Z"
            fill="#0A77AB" />
        <path fill-rule="evenodd" clip-rule="evenodd"
            d="M24.5332 7.89355C24.7821 8.05845 24.9243 8.29547 24.9599 8.60467C24.6885 8.46449 24.5463 8.22745 24.5332 7.89355Z"
            fill="#ABCFE6" />
        <path fill-rule="evenodd" clip-rule="evenodd"
            d="M7.89337 7.32422C7.6567 7.89248 7.41967 8.46137 7.18226 9.03089C7.13486 9.03089 7.08744 9.03089 7.04004 9.03089C7.10494 8.33212 7.38938 7.76323 7.89337 7.32422Z"
            fill="#83B2D2" />
        <path fill-rule="evenodd" clip-rule="evenodd"
            d="M24.96 9.31535C25.1016 9.30315 25.2201 9.35056 25.3155 9.45757C25.3858 9.68998 25.4094 9.92702 25.3866 10.1687C25.3393 10.1687 25.2918 10.1687 25.2444 10.1687C25.1495 9.88424 25.0548 9.59979 24.96 9.31535Z"
            fill="#A1C0E0" />
        <path fill-rule="evenodd" clip-rule="evenodd"
            d="M7.03982 9.03125C7.09518 9.4655 7.00038 9.84476 6.75537 10.169C6.76463 9.75257 6.85945 9.37332 7.03982 9.03125Z"
            fill="#619AC0" />
        <path fill-rule="evenodd" clip-rule="evenodd"
            d="M14.2933 10.7374C13.3926 10.8322 12.4918 10.927 11.5911 11.0218C11.4963 11.0218 11.4015 11.0218 11.3066 11.0218C11.3224 10.934 11.3698 10.8629 11.4489 10.8085C12.3958 10.7374 13.344 10.7137 14.2933 10.7374Z"
            fill="#81A5C6" />
        <path fill-rule="evenodd" clip-rule="evenodd"
            d="M17.4224 7.75098C17.7013 8.68778 17.7961 9.68334 17.7068 10.7376C18.6816 10.6916 19.6298 10.739 20.5513 10.8799C19.6031 10.8799 18.655 10.8799 17.7068 10.8799C17.6075 9.85109 17.5128 8.80811 17.4224 7.75098Z"
            fill="#7DA5C7" />
        <path fill-rule="evenodd" clip-rule="evenodd"
            d="M24.96 9.03125C25.1757 9.03276 25.3417 9.12756 25.4577 9.31569C25.56 9.83415 25.6311 10.3556 25.6711 10.8801C25.6237 10.8801 25.5762 10.8801 25.5288 10.8801C25.3936 10.6784 25.3462 10.4413 25.3866 10.169C25.4094 9.92736 25.3858 9.69032 25.3155 9.45792C25.2201 9.35091 25.1016 9.30349 24.96 9.31569C24.96 9.22087 24.96 9.12607 24.96 9.03125Z"
            fill="#D6E0F0" />
        <path fill-rule="evenodd" clip-rule="evenodd"
            d="M11.3067 14.0088C12.0661 14.2061 12.8483 14.3483 13.6534 14.4354C13.7972 14.3164 13.9631 14.269 14.1511 14.2932C14.1511 14.4354 14.1511 14.5777 14.1511 14.7199C12.9971 14.6704 11.8593 14.5282 10.7378 14.2932C10.6907 13.1515 10.7381 12.0137 10.88 10.8799C10.9982 11.8721 11.0693 12.8676 11.0934 13.8665C11.1478 13.9456 11.2189 13.993 11.3067 14.0088Z"
            fill="#0A6EAE" />
        <path fill-rule="evenodd" clip-rule="evenodd"
            d="M25.2446 10.1689C25.292 10.1689 25.3395 10.1689 25.3869 10.1689C25.3465 10.4413 25.3938 10.6783 25.5291 10.8801C25.575 11.8076 25.5277 12.7084 25.3869 13.5823C25.3867 12.442 25.3393 11.3043 25.2446 10.1689Z"
            fill="#588EBA" />
        <path fill-rule="evenodd" clip-rule="evenodd"
            d="M6.75533 10.1689C6.57743 11.4494 6.57743 12.7294 6.75533 14.0089C6.66051 13.8667 6.56571 13.7245 6.47089 13.5823C6.28331 12.4263 6.37813 11.2885 6.75533 10.1689Z"
            fill="#6D9EC4" />
        <path fill-rule="evenodd" clip-rule="evenodd"
            d="M25.5289 10.8799C25.5763 10.8799 25.6238 10.8799 25.6712 10.8799C25.6948 11.9713 25.6712 13.0617 25.6001 14.151C25.5702 14.3726 25.4991 14.5622 25.3867 14.7199C25.3867 14.3406 25.3867 13.9614 25.3867 13.5821C25.5275 12.7082 25.5749 11.8075 25.5289 10.8799Z"
            fill="#ABC7D9" />
        <path fill-rule="evenodd" clip-rule="evenodd"
            d="M17.7069 10.8799C18.6551 10.8799 19.6031 10.8799 20.5513 10.8799C20.6462 10.8799 20.6935 10.9273 20.6935 11.0221C20.7171 11.9714 20.6935 12.9196 20.6224 13.8665C19.6365 13.9591 18.6646 14.0539 17.7069 14.151C17.5659 15.0725 17.5186 16.0206 17.5646 16.9954C17.5173 16.9954 17.4698 16.9954 17.4224 16.9954C17.3988 15.9987 17.4224 15.0032 17.4935 14.0088C17.6453 13.9106 17.8113 13.8395 17.9913 13.7954C18.8434 13.7244 19.6967 13.7007 20.5513 13.7243C20.5513 12.8236 20.5513 11.9228 20.5513 11.0221C19.5765 11.0682 18.6283 11.0208 17.7069 10.8799Z"
            fill="#D6E9F3" />
        <path fill-rule="evenodd" clip-rule="evenodd"
            d="M7.03994 9.03125C7.08735 9.03125 7.13476 9.03125 7.18217 9.03125C7.35965 9.14985 7.45447 9.33947 7.46661 9.60014C7.30118 10.5393 7.20636 11.4874 7.18217 12.4446C7.15277 13.5034 7.24757 14.5463 7.46661 15.5735C7.41921 15.6208 7.37179 15.6683 7.32439 15.7157C7.22742 15.61 7.1326 15.5153 7.03994 15.4313C7.10006 15.1068 7.00524 14.8698 6.7555 14.7201C6.7555 14.4831 6.7555 14.2461 6.7555 14.009C6.57759 12.7295 6.57759 11.4495 6.7555 10.169C7.00051 9.84476 7.09531 9.4655 7.03994 9.03125Z"
            fill="#116FAB" />
        <path fill-rule="evenodd" clip-rule="evenodd"
            d="M11.3066 11.0225C11.4015 11.0225 11.4963 11.0225 11.5911 11.0225C11.4549 11.9104 11.4074 12.8112 11.4489 13.7247C12.3765 13.6787 13.2772 13.7261 14.1511 13.8669C13.2029 13.8669 12.2548 13.8669 11.3066 13.8669C11.3066 12.9188 11.3066 11.9706 11.3066 11.0225Z"
            fill="#E5EDF2" />
        <path fill-rule="evenodd" clip-rule="evenodd"
            d="M11.3066 14.0084C11.3066 13.961 11.3066 13.9136 11.3066 13.8662C12.2548 13.8662 13.2029 13.8662 14.1511 13.8662C14.3407 13.8662 14.4355 13.961 14.4355 14.1507C13.4049 14.0136 12.362 13.9662 11.3066 14.0084Z"
            fill="#BAD7E9" />
        <path fill-rule="evenodd" clip-rule="evenodd"
            d="M20.6932 11.0225C20.8575 11.9925 20.8811 12.9881 20.7643 14.0091C19.9002 14.148 19.0232 14.1954 18.1332 14.1513C17.991 14.1513 17.8488 14.1513 17.7065 14.1513C18.6643 14.0542 19.6362 13.9594 20.6221 13.8669C20.6932 12.9199 20.7168 11.9718 20.6932 11.0225Z"
            fill="#6DA9CC" />
        <path fill-rule="evenodd" clip-rule="evenodd"
            d="M6.47102 13.582C6.56584 13.7243 6.66064 13.8665 6.75546 14.0087C6.75546 14.2458 6.75546 14.4827 6.75546 14.7198C6.53651 14.3873 6.44169 14.008 6.47102 13.582Z"
            fill="#94BFD4" />
        <path fill-rule="evenodd" clip-rule="evenodd"
            d="M17.5644 16.9955C17.5183 16.0207 17.5657 15.0725 17.7066 14.1511C17.8488 14.1511 17.9911 14.1511 18.1333 14.1511C18.5255 14.3385 18.9758 14.4334 19.4844 14.4355C20.1341 14.4388 20.7741 14.3677 21.4044 14.2222C21.2517 14.1171 21.1568 13.9749 21.12 13.7955C21.36 12.9906 21.4785 12.161 21.4755 11.3066C21.5466 12.8229 21.5704 14.34 21.5466 15.8578C20.7882 15.8578 20.0295 15.8578 19.2711 15.8578C19.2711 15.4784 19.2711 15.0993 19.2711 14.72C18.8918 14.72 18.5126 14.72 18.1333 14.72C18.1569 15.48 18.1332 16.2385 18.0622 16.9955C18.0148 16.0948 17.9673 15.194 17.92 14.2933C17.8729 15.224 17.7543 16.1247 17.5644 16.9955Z"
            fill="#1E7AAE" />
        <path fill-rule="evenodd" clip-rule="evenodd"
            d="M6.75556 14.7197C7.00531 14.8693 7.10013 15.1064 7.04001 15.4308C6.99261 15.4308 6.94519 15.4308 6.89779 15.4308C6.78391 15.2115 6.73651 14.9746 6.75556 14.7197Z"
            fill="#6EA1C9" />
        <path fill-rule="evenodd" clip-rule="evenodd"
            d="M25.3866 14.7197C25.3987 15.1676 25.2565 15.5469 24.96 15.8575C24.9931 15.4249 25.1353 15.0457 25.3866 14.7197Z"
            fill="#A0BCD8" />
        <path fill-rule="evenodd" clip-rule="evenodd"
            d="M7.03983 15.8574C7.23984 15.9247 7.33466 16.0669 7.32428 16.2841C7.12427 16.2168 7.02945 16.0746 7.03983 15.8574Z"
            fill="#83B6DA" />
        <path fill-rule="evenodd" clip-rule="evenodd"
            d="M6.89792 15.4307C6.94532 15.4307 6.99273 15.4307 7.04014 15.4307C7.04014 15.5729 7.04014 15.7151 7.04014 15.8573C7.02976 16.0745 7.12457 16.2167 7.32458 16.284C7.29403 16.5228 7.38885 16.665 7.60903 16.7107C7.60903 16.8055 7.60903 16.9002 7.60903 16.9951C7.60903 17.09 7.60903 17.1847 7.60903 17.2796C7.43132 17.0978 7.21799 16.9556 6.96903 16.8529C6.89816 16.3811 6.87445 15.9071 6.89792 15.4307Z"
            fill="#E5EDF4" />
        <path fill-rule="evenodd" clip-rule="evenodd"
            d="M7.32443 16.2842C7.54461 16.3298 7.63942 16.4721 7.60888 16.7108C7.3887 16.6652 7.29388 16.523 7.32443 16.2842Z"
            fill="#3188A8" />
        <path fill-rule="evenodd" clip-rule="evenodd"
            d="M24.96 16.1426C25.0141 16.4552 24.9192 16.6923 24.6756 16.8537C24.6756 16.7588 24.6756 16.6641 24.6756 16.5692C24.6652 16.3521 24.7601 16.2098 24.96 16.1426Z"
            fill="#D4DDED" />
        <path fill-rule="evenodd" clip-rule="evenodd"
            d="M24.6753 16.5693C24.6753 16.6642 24.6753 16.7589 24.6753 16.8538C24.6267 16.973 24.532 17.0205 24.3909 16.996C24.3805 16.7788 24.4754 16.6366 24.6753 16.5693Z"
            fill="#8EBADE" />
        <path fill-rule="evenodd" clip-rule="evenodd"
            d="M7.60889 16.9951C7.80889 17.0624 7.90371 17.2046 7.89333 17.4218C7.79851 17.3744 7.70371 17.3269 7.60889 17.2796C7.60889 17.1847 7.60889 17.09 7.60889 16.9951Z"
            fill="#78AECB" />
        <path fill-rule="evenodd" clip-rule="evenodd"
            d="M14.4355 16.9951C15.4452 17.1814 16.4407 17.1814 17.4222 16.9951C17.4696 16.9951 17.5171 16.9951 17.5644 16.9951C17.0997 17.1831 16.5781 17.278 16 17.2796C15.4219 17.278 14.9003 17.1831 14.4355 16.9951Z"
            fill="#7FAECE" />
        <path fill-rule="evenodd" clip-rule="evenodd"
            d="M24.2488 16.9951C24.2962 16.9951 24.3437 16.9951 24.391 16.9951C24.4233 17.3411 24.2811 17.5781 23.9644 17.7062C24.0592 17.4691 24.1539 17.2322 24.2488 16.9951Z"
            fill="#8AB6D4" />
        <path fill-rule="evenodd" clip-rule="evenodd"
            d="M14.4355 17.4219C15.2902 17.3983 16.1435 17.4221 16.9955 17.493C17.2001 17.5242 17.3896 17.5953 17.5644 17.7064C17.4696 17.7537 17.3749 17.8012 17.28 17.8486C16.2768 17.8123 15.3287 17.6701 14.4355 17.4219Z"
            fill="#0F69AB" />
        <path fill-rule="evenodd" clip-rule="evenodd"
            d="M8.03544 17.707C8.23544 17.7743 8.33026 17.9165 8.31988 18.1337C8.11987 18.0664 8.02505 17.9242 8.03544 17.707Z"
            fill="#8AB3CE" />
        <path fill-rule="evenodd" clip-rule="evenodd"
            d="M23.9644 17.707C23.9748 17.9242 23.8799 18.0664 23.68 18.1337C23.6696 17.9165 23.7644 17.7743 23.9644 17.707Z"
            fill="#6DA6CE" />
        <path fill-rule="evenodd" clip-rule="evenodd"
            d="M24.249 16.9952C24.1542 17.2322 24.0594 17.4692 23.9646 17.7063C23.7646 17.7735 23.6697 17.9158 23.6801 18.1329C23.3455 18.4686 23.061 18.8479 22.8268 19.2707C22.6308 19.4193 22.4886 19.6089 22.4001 19.8396C22.2105 19.9345 22.0683 20.0767 21.9735 20.2663C21.7281 20.2175 21.657 20.0753 21.7601 19.8396C22.2642 19.3565 22.6197 18.7876 22.8268 18.1329C23.6244 17.8722 23.7192 17.4456 23.1112 16.8529C23.141 16.7696 23.1885 16.6985 23.2535 16.6396C23.8647 16.0461 24.1965 16.1646 24.249 16.9952Z"
            fill="#1670AC" />
        <path fill-rule="evenodd" clip-rule="evenodd"
            d="M8.4624 18.418C8.80573 18.6186 9.04275 18.9031 9.17351 19.2713C8.83019 19.0706 8.59316 18.7862 8.4624 18.418Z"
            fill="#A7C7DF" />
        <path fill-rule="evenodd" clip-rule="evenodd"
            d="M23.68 18.1338C23.5506 18.6408 23.2661 19.0201 22.8267 19.2716C23.0609 18.8487 23.3453 18.4694 23.68 18.1338Z"
            fill="#8AB7D2" />
        <path fill-rule="evenodd" clip-rule="evenodd"
            d="M9.17321 19.2715C9.36284 19.2715 9.45766 19.3663 9.45766 19.5559C9.41025 19.5559 9.36284 19.5559 9.31543 19.5559C9.19622 19.5073 9.14881 19.4126 9.17321 19.2715Z"
            fill="#62A2B8" />
        <path fill-rule="evenodd" clip-rule="evenodd"
            d="M9.31543 19.5557C9.36283 19.5557 9.41025 19.5557 9.45765 19.5557C9.92873 20.3623 10.4502 21.121 11.0221 21.8312C10.6282 21.6037 10.2963 21.2956 10.0265 20.9068C9.89171 20.8381 9.74949 20.8145 9.59987 20.8357C9.56352 20.3951 9.46872 19.9684 9.31543 19.5557Z"
            fill="#D3E2F0" />
        <path fill-rule="evenodd" clip-rule="evenodd"
            d="M22.4001 19.8398C22.2674 20.248 22.0303 20.58 21.689 20.8354C21.7221 20.6132 21.817 20.4237 21.9734 20.2665C22.0683 20.0769 22.2105 19.9347 22.4001 19.8398Z"
            fill="#89B9D3" />
        <path fill-rule="evenodd" clip-rule="evenodd"
            d="M21.5468 20.8359C21.5791 21.182 21.4368 21.4189 21.1201 21.547C21.2069 21.272 21.3491 21.0349 21.5468 20.8359Z"
            fill="#92BAD8" />
        <path fill-rule="evenodd" clip-rule="evenodd"
            d="M11.0223 21.8311C11.2223 21.8983 11.3171 22.0405 11.3067 22.2577C11.1067 22.1905 11.0119 22.0482 11.0223 21.8311Z"
            fill="#A5C4D3" />
        <path fill-rule="evenodd" clip-rule="evenodd"
            d="M11.3064 22.2578C11.5064 22.3251 11.6013 22.4673 11.5909 22.6845C11.3909 22.6172 11.2961 22.475 11.3064 22.2578Z"
            fill="#AACBDC" />
        <path fill-rule="evenodd" clip-rule="evenodd"
            d="M21.1201 21.5469C21.0035 21.7801 20.885 22.0172 20.7646 22.258C20.3325 22.666 19.9296 23.0927 19.5557 23.538C19.706 23.1908 19.8956 22.8589 20.1246 22.5424C20.4919 22.2226 20.8239 21.8908 21.1201 21.5469Z"
            fill="#94BBDB" />
        <path fill-rule="evenodd" clip-rule="evenodd"
            d="M11.7333 22.6846C11.8481 22.9292 11.9904 23.1663 12.1599 23.3957C12.3003 23.6874 12.49 23.9245 12.7288 24.1068C12.7729 24.3406 12.9152 24.4828 13.1555 24.5335C13.1555 24.5808 13.1555 24.6283 13.1555 24.6757C13.1555 24.723 13.1555 24.7705 13.1555 24.8179C12.9145 24.7452 12.6774 24.6504 12.4444 24.5335C12.4741 24.4501 12.5215 24.379 12.5866 24.3201C11.9866 23.9501 11.7021 23.4049 11.7333 22.6846Z"
            fill="#E4ECF3" />
        <path fill-rule="evenodd" clip-rule="evenodd"
            d="M12.1602 23.3955C12.5153 23.485 12.7049 23.7221 12.729 24.1066C12.4902 23.9243 12.3005 23.6872 12.1602 23.3955Z"
            fill="#7CB1D4" />
        <path fill-rule="evenodd" clip-rule="evenodd"
            d="M12.729 24.1064C12.9693 24.1571 13.1116 24.2993 13.1557 24.5331C12.9153 24.4825 12.7731 24.3403 12.729 24.1064Z"
            fill="#659ABF" />
        <path fill-rule="evenodd" clip-rule="evenodd"
            d="M19.2712 23.8223C19.1405 24.1905 18.9034 24.4749 18.5601 24.6756C18.6908 24.3074 18.9278 24.0229 19.2712 23.8223Z"
            fill="#87AECD" />
        <path fill-rule="evenodd" clip-rule="evenodd"
            d="M13.1558 24.6758C13.4064 24.7842 13.5486 24.9739 13.5824 25.2447C13.3928 25.1498 13.2506 25.0076 13.1558 24.818C13.1558 24.7706 13.1558 24.7231 13.1558 24.6758Z"
            fill="#8AB7D3" />
        <path fill-rule="evenodd" clip-rule="evenodd"
            d="M13.5823 25.2441C13.7823 25.3114 13.8771 25.4536 13.8668 25.6708C13.6667 25.6035 13.5719 25.4613 13.5823 25.2441Z"
            fill="#81B6DC" />
        <path fill-rule="evenodd" clip-rule="evenodd"
            d="M13.8665 25.6709C14.0665 25.7382 14.1613 25.8804 14.1509 26.0976C13.9509 26.0303 13.8561 25.8881 13.8665 25.6709Z"
            fill="#A4CAE4" />
        <path fill-rule="evenodd" clip-rule="evenodd"
            d="M18.4179 24.96C18.1912 25.4242 17.8594 25.8035 17.4224 26.0977C17.6491 25.6335 17.9809 25.2542 18.4179 24.96Z"
            fill="#9ABFD9" />
        <path fill-rule="evenodd" clip-rule="evenodd"
            d="M14.2932 26.0977C14.4343 26.3758 14.5765 26.6603 14.7198 26.951C14.3678 26.7822 14.2256 26.4977 14.2932 26.0977Z"
            fill="#AED0E7" />
        <path fill-rule="evenodd" clip-rule="evenodd"
            d="M17.422 26.0977C17.2913 26.4659 17.0543 26.7503 16.7109 26.951C16.8493 26.5762 17.0864 26.2918 17.422 26.0977Z"
            fill="#7AAECB" />
        <path fill-rule="evenodd" clip-rule="evenodd"
            d="M14.7202 26.9512C14.9098 26.9512 15.0047 27.046 15.0047 27.2356C14.8151 27.2356 14.7202 27.1408 14.7202 26.9512Z"
            fill="#AED2E9" />
        <path fill-rule="evenodd" clip-rule="evenodd"
            d="M16.7111 26.9512C16.531 27.5088 16.1992 27.9355 15.7155 28.2312C15.2394 28.0891 15.0023 27.7573 15.0044 27.2356C15.231 27.5425 15.4917 27.827 15.7866 28.0889C16.0634 27.6737 16.3716 27.2944 16.7111 26.9512Z"
            fill="#C2D5E9" />
    </g>
    <defs>
        <clipPath id="clip0_5435_45">
            <rect width="32" height="32" fill="white" />
        </clipPath>
    </defs>
</svg>