<svg width="32" height="32" viewBox="0 0 32 32" fill="none" xmlns="http://www.w3.org/2000/svg">
    <path fill-rule="evenodd" clip-rule="evenodd"
        d="M23.0103 14.3363C22.8454 14.3363 22.6392 14.2542 22.9278 13.9666C25.3608 11.543 25.8557 11.0501 27.0515 9.85879C27.2165 9.69448 27.2165 9.44801 27.0515 9.2837C26.4742 8.7086 25.9381 8.17458 25.3608 7.59949C25.1959 7.43517 24.9485 7.43517 24.7835 7.59949C22.8041 9.57125 18.6392 13.7202 16.6598 15.6919C16.4948 15.8562 16.4948 16.1438 16.6598 16.3081C17.9794 17.6226 17.0309 16.6778 24.7835 24.4005C24.9485 24.5648 25.1959 24.5648 25.4021 24.4005C25.9794 23.8254 26.5155 23.2914 27.0928 22.7163C27.2577 22.552 27.2577 22.3055 27.0928 22.1412C25.8969 20.9499 25.4433 20.4981 23.0928 18.1566C22.8866 17.9101 22.8041 17.6637 23.0928 17.6637C25.8557 17.6637 29.6907 17.6637 32 17.6637C31.1753 25.715 24.3299 32 16.0412 32C7.6701 31.9589 0.824742 25.6739 0 17.6226C2.26804 17.6226 6.14433 17.6226 8.90722 17.6226C9.19588 17.6226 9.1134 17.8691 8.90722 18.1155C6.5567 20.457 6.10309 20.9089 4.90722 22.1001C4.74227 22.2644 4.74227 22.5109 4.90722 22.6752C5.48454 23.2503 6.02062 23.7843 6.59794 24.3594C6.76289 24.5237 7.01031 24.5237 7.21649 24.3594C14.9691 16.6367 13.9794 17.6226 15.3402 16.267C15.5052 16.1027 15.5052 15.8151 15.3402 15.6508C13.4021 13.7202 9.19588 9.53017 7.21649 7.55841C7.05155 7.39409 6.80412 7.39409 6.63918 7.55841C6.06186 8.1335 5.52577 8.66752 4.94845 9.24262C4.78351 9.40693 4.78351 9.6534 4.94845 9.81771C6.14433 11.009 6.63918 11.5019 9.07216 13.9255C9.31959 14.2131 9.15464 14.2952 8.98969 14.2952C6.18557 14.2952 2.35052 14.2952 0.0412371 14.2952C0.824742 6.28498 7.6701 0 15.9588 0C24.2474 0 31.0928 6.28498 31.9175 14.3363C29.6082 14.3363 25.7732 14.3363 23.0103 14.3363Z"
        fill="#00638F" />
</svg>