<svg width="32" height="32" viewBox="0 0 32 32" fill="none" xmlns="http://www.w3.org/2000/svg">
    <g clip-path="url(#clip0_5491_4740)">
        <rect width="32" height="32" fill="#FAFAFA" />
        <path
            d="M8.38254 18.7609C8.38254 21.8212 9.77963 23.684 12.3077 23.684C14.8358 23.684 13.9709 23.4844 14.3035 23.3514V14.0374C13.9709 13.9044 13.0395 13.7048 12.3077 13.7048C9.7131 13.7048 8.38254 15.8337 8.38254 18.7609ZM32 5.12266V26.8773C32 29.6715 29.738 32 26.8773 32H5.12266C2.32848 32 0 29.738 0 26.8773V5.12266C0 2.32848 2.26195 0 5.12266 0H26.8773C29.6715 0 32 2.26195 32 5.12266ZM17.1642 5.25572H14.3035V11.842C13.8378 11.7089 12.9064 11.5094 12.0416 11.5094C7.78378 11.5094 5.52183 14.5031 5.52183 18.7609C5.52183 23.0187 7.98337 25.9459 12.3742 25.9459C16.7651 25.9459 16.2328 25.4803 17.1642 24.948V5.25572ZM27.6757 11.4428C27.2765 11.3763 26.7443 11.3098 26.079 11.3098C24.0166 11.3098 22.0208 11.7089 20.6237 12.3077V25.6133H23.4844V13.9709C24.0166 13.7048 24.8815 13.6383 25.6798 13.6383C26.4782 13.6383 26.6778 13.6383 27.1435 13.7713L27.6757 11.3763V11.4428Z"
            fill="#4B4B4B" />
    </g>
    <defs>
        <clipPath id="clip0_5491_4740">
            <rect width="32" height="32" fill="white" />
        </clipPath>
    </defs>
</svg>