<svg width="32" height="32" viewBox="0 0 32 32" fill="none" xmlns="http://www.w3.org/2000/svg">
    <path
        d="M19.4992 0.965103C20.6157 1.56587 21.502 2.45417 22.4358 3.36165C23.1715 3.98121 23.8498 4.19168 24.7218 4.45756C25.4728 4.81295 25.8171 5.4486 26.2966 6.172C26.7228 6.68934 27.0297 6.82801 27.6204 7.03407C29.1135 7.56784 29.9779 8.77165 30.772 10.2582C31.127 11.708 31.212 13.1263 31.0295 14.6203C30.7974 15.0868 30.5562 15.548 30.3023 15.9996C30.3528 16.7666 30.5144 17.3059 30.8023 17.9996C31.1782 19.2545 31.2464 20.5245 30.8629 21.7916C30.3187 22.9913 29.6395 23.651 28.6053 24.2754C27.5722 24.6467 26.5277 24.572 25.4538 24.5513C24.4689 26.2323 25.0202 28.7249 25.2114 30.6203C24.8914 30.6203 24.5714 30.6203 24.2417 30.6203C23.8165 30.1235 23.8165 30.1235 23.378 29.4306C21.4998 26.3327 21.4998 26.3327 18.7331 24.6267C17.8033 24.6204 16.9209 24.6911 15.9992 24.8272C15.6739 24.8682 15.6739 24.8682 15.342 24.9101C14.9893 24.956 14.6369 25.0059 14.2852 25.061C13.5493 25.1271 12.8458 24.9592 12.1204 24.8272C11.8804 24.9182 11.6404 25.0092 11.3932 25.103C9.65162 25.2983 8.24076 25.1661 6.78711 23.9996C6.6668 23.8559 6.54648 23.7123 6.42253 23.5642C6.03594 23.0841 6.03594 23.0841 5.2265 22.9134C4.31159 22.6029 3.95607 22.3791 3.39317 21.5168C3.35817 21.2779 3.32317 21.0389 3.28711 20.7927C3.24211 20.5765 3.19711 20.3603 3.15075 20.1375C2.97575 20.0636 2.80075 19.9896 2.62044 19.9134C1.53898 19.3938 0.972291 18.5841 0.484079 17.3789C0.257139 15.7848 0.216412 14.3475 0.908321 12.9134C1.08832 12.6573 1.26832 12.4013 1.45378 12.1375C1.62499 11.6707 1.78592 11.1988 1.93862 10.7237C2.29806 9.64584 2.66438 9.07801 3.39317 8.27545C3.52035 7.91821 3.63544 7.55524 3.74165 7.18924C4.17518 5.76233 4.87912 4.99883 6.01438 4.22372C6.64219 3.92956 7.13217 3.77855 7.78711 3.63752C8.64935 3.42031 8.7128 3.33004 9.30226 2.4651C9.43226 2.19769 9.56226 1.93028 9.6962 1.65476C10.5234 1.18412 11.4628 1.26757 12.3761 1.20756C13.0699 1.15537 13.0699 1.15537 13.5447 0.823939C15.1277 -0.0138394 17.8853 0.303135 19.4992 0.965103Z"
        fill="#27B2A1" />
    <path
        d="M16.1211 0.49979C16.3052 0.499967 16.4892 0.500145 16.6789 0.500328C17.5423 0.508072 18.3209 0.563327 19.1514 0.827376C19.3504 3.76646 18.8 6.10241 17.9393 8.82738C17.7793 8.82738 17.6193 8.82738 17.4545 8.82738C17.4545 9.10048 17.4545 9.37358 17.4545 9.65496C17.2585 9.68839 17.0626 9.72182 16.8607 9.75626C16.4721 9.8256 16.4721 9.8256 16.0757 9.89634C15.8197 9.94115 15.5638 9.98595 15.3001 10.0321C14.5943 10.1954 13.9903 10.4283 13.3332 10.7584C13.8932 11.1225 14.4532 11.4867 15.0302 11.8619C14.5164 13.7753 13.1575 14.5294 11.6903 15.4394C9.27153 16.8783 7.25232 17.2297 4.51506 17.1894C4.20725 17.1903 3.89944 17.1912 3.5823 17.1921C1.30929 17.177 1.30929 17.177 0.48476 16.5515C0.256999 15.2533 0.323327 14.1078 0.909002 12.9653C1.089 12.6922 1.269 12.4191 1.45446 12.1377C1.62498 11.6705 1.78601 11.1988 1.93931 10.7239C2.29875 9.64605 2.66506 9.07821 3.39385 8.27565C3.52103 7.91841 3.63612 7.55545 3.74234 7.18944C4.17586 5.76254 4.8798 4.99904 6.01506 4.22393C6.64287 3.92976 7.13285 3.77876 7.78779 3.63772C8.65003 3.42052 8.71348 3.33025 9.30294 2.46531C9.43294 2.19789 9.56294 1.93048 9.69688 1.65496C10.5241 1.18433 11.4634 1.26778 12.3768 1.20776C13.0706 1.15688 13.0706 1.15688 13.5397 0.82091C14.3687 0.392115 15.2279 0.483396 16.1211 0.49979Z"
        fill="#E23804" />
    <path
        d="M19.1524 1.10352C20.2451 1.45081 20.9294 1.88598 21.7736 2.74145C22.5661 3.49813 23.1821 3.9898 24.1827 4.29317C25.2547 4.62003 25.6446 5.18628 26.2982 6.17248C26.7245 6.68982 27.0313 6.82849 27.6221 7.03455C29.1151 7.56833 29.9795 8.77213 30.7736 10.2587C31.1287 11.7085 31.2136 13.1268 31.0312 14.6208C30.7966 15.0858 30.5548 15.5462 30.3039 16.0001C30.2635 16.9886 30.2635 16.9886 30.3039 17.9311C30.2239 18.2042 30.1439 18.4773 30.0615 18.7587C27.711 19.0815 25.82 17.8715 23.9251 16.3891C23.2227 15.7396 22.8201 15.2398 22.3891 14.3136C21.7649 13.4402 21.7649 13.4402 20.8721 13.2738C20.5012 13.2451 20.1299 13.2231 19.7585 13.207C17.3512 13.0061 15.2144 12.3764 13.0918 11.0346C13.3342 10.4828 13.3342 10.4828 13.8598 10.1833C14.6137 9.90636 15.287 9.81793 16.0766 9.75869C16.3357 9.73806 16.5948 9.71744 16.8617 9.69619C17.1556 9.67592 17.1556 9.67592 17.4554 9.65524C17.4554 9.38214 17.4554 9.10903 17.4554 8.82765C17.6154 8.82765 17.7754 8.82765 17.9403 8.82765C17.9653 8.61145 17.9903 8.39524 18.016 8.17248C18.1501 7.36833 18.322 6.66869 18.5463 5.89662C18.9801 4.31699 19.0803 2.74959 19.1524 1.10352Z"
        fill="#0E5E84" />
    <path
        d="M19.152 1.10352C20.2448 1.45081 20.9291 1.88598 21.7733 2.74145C22.5657 3.49813 23.1818 3.9898 24.1824 4.29317C25.2543 4.62003 25.6443 5.18628 26.2979 6.17248C26.7241 6.68982 27.031 6.82849 27.6217 7.03455C29.1148 7.56833 29.9792 8.77213 30.7733 10.2587C31.1273 11.7044 31.1841 13.1286 31.0308 14.6208C30.8708 14.8028 30.7108 14.9849 30.546 15.1725C30.546 14.8994 30.546 14.6263 30.546 14.3449C30.386 14.3449 30.226 14.3449 30.0611 14.3449C29.6516 13.8915 29.2484 13.4306 28.849 12.9656C27.918 11.9365 27.0378 11.6113 25.814 11.2328C25.2127 11.0346 25.2127 11.0346 24.349 10.6035C22.132 9.5485 19.8248 9.50511 17.4551 9.37938C17.4551 9.19731 17.4551 9.01524 17.4551 8.82765C17.6151 8.82765 17.7751 8.82765 17.9399 8.82765C17.9649 8.61145 17.9899 8.39524 18.0157 8.17248C18.1497 7.36833 18.3216 6.66869 18.546 5.89662C18.9798 4.31699 19.08 2.74959 19.152 1.10352Z"
        fill="#52257D" />
    <path
        d="M26.0661 19.6327C26.7205 20.029 27.2952 20.4482 27.8796 20.9657C28.0211 21.0841 28.1627 21.2025 28.3085 21.3245C28.9512 21.943 29.0879 22.2995 29.1674 23.2588C29.1424 23.5034 29.1174 23.7481 29.0917 24.0002C27.8204 24.4824 26.7951 24.6054 25.4553 24.5519C24.4705 26.2329 25.0218 28.7254 25.2129 30.6208C24.8929 30.6208 24.5729 30.6208 24.2432 30.6208C23.818 30.1241 23.818 30.1241 23.3796 29.4312C21.5023 26.3586 21.5023 26.3586 18.7659 24.637C17.9872 24.638 17.2542 24.6901 16.4856 24.8277C16.3977 23.4227 16.7585 22.8416 17.5074 21.7739C19.7352 19.0336 22.9988 18.4744 26.0661 19.6327Z"
        fill="#095708" />
    <path
        d="M3.53021 8.81055C5.85912 9.62968 7.19008 11.8492 8.48476 14.0692C8.71976 13.8245 8.95476 13.5799 9.19688 13.3278C10.4302 12.137 11.6206 11.0208 13.2878 11.0519C13.9239 11.2648 14.4634 11.4753 15.0302 11.8623C14.5164 13.7757 13.1575 14.5298 11.6903 15.4399C9.27153 16.8787 7.25232 17.2301 4.51506 17.1899C4.20725 17.1907 3.89944 17.1916 3.5823 17.1926C1.30929 17.1774 1.30929 17.1774 0.48476 16.5519C0.256999 15.2537 0.323327 14.1082 0.909002 12.9657C1.089 12.6926 1.269 12.4195 1.45446 12.1381C1.72461 11.426 1.96414 10.7068 2.19878 9.97865C2.51946 9.12615 2.69501 8.83373 3.53021 8.81055Z"
        fill="#4A8706" />
    <path
        d="M0.484375 16.5516C0.724375 16.6426 0.964375 16.7337 1.21165 16.8275C1.72703 16.8537 2.2431 16.8635 2.759 16.8641C3.21322 16.8646 3.21322 16.8646 3.67661 16.8652C3.99317 16.8641 4.30973 16.863 4.63589 16.8619C4.95433 16.863 5.27277 16.8641 5.60085 16.8652C5.90304 16.8648 6.20523 16.8645 6.51657 16.8641C6.79505 16.8638 7.07353 16.8635 7.36044 16.8632C7.98119 16.9101 7.98119 16.9101 8.24195 16.5516C8.64587 16.5404 9.05016 16.5398 9.45407 16.5516C9.84589 17.9454 10.0217 19.2003 10.0904 20.6723C10.1045 20.9553 10.1045 20.9553 10.1188 21.2439C10.1414 21.7027 10.1616 22.1616 10.1813 22.6206C9.86134 22.6206 9.54134 22.6206 9.21165 22.6206C9.21165 22.8026 9.21165 22.9847 9.21165 23.1723C8.89165 23.2633 8.57165 23.3544 8.24195 23.4481C8.36195 24.1309 8.36195 24.1309 8.48438 24.8275C7.68366 24.579 7.14504 24.4111 6.56013 23.724C6.06616 23.0921 6.06616 23.0921 5.21165 22.8964C4.30009 22.6001 3.95283 22.374 3.39347 21.5171C3.35847 21.2781 3.32347 21.0392 3.28741 20.793C3.24241 20.5768 3.19741 20.3606 3.15104 20.1378C2.97604 20.0638 2.80104 19.9899 2.62074 19.9137C1.59377 19.4202 1.03402 18.4646 0.484375 17.3792C0.484375 17.1061 0.484375 16.833 0.484375 16.5516Z"
        fill="#1189AC" />
    <path
        d="M6.53113 4.1377C7.14141 4.4744 7.34971 4.90888 7.69969 5.55257C8.8084 7.45294 10.1879 8.85136 11.855 10.0935C12.3645 10.4825 12.3645 10.4825 12.8493 11.0342C12.6793 11.1345 12.5093 11.2348 12.3342 11.3381C10.8708 12.2205 9.53174 13.1599 8.24325 14.3446C8.11325 14.0658 7.98325 13.787 7.84931 13.4998C6.82605 11.4844 5.64811 10.2489 3.87962 9.10321C3.63962 8.92114 3.39962 8.73907 3.15234 8.55149C4.66499 4.1377 4.66499 4.1377 6.53113 4.1377Z"
        fill="#F6C005" />
    <path
        d="M27.1524 11.5858C25.8028 13.1216 23.551 13.0772 21.7594 13.0917C21.3239 13.0888 21.3239 13.0888 20.8797 13.0858C20.5912 13.0913 20.3028 13.0968 20.0056 13.1025C17.4854 13.1009 15.2929 12.4256 13.0918 11.0341C13.4359 10.2509 13.8292 10.2092 14.5463 9.9306C18.9649 8.68322 23.0921 9.31614 27.1524 11.5858Z"
        fill="#252E53" />
    <path
        d="M15.4818 20.1108C15.804 20.1121 15.804 20.1121 16.1328 20.1134C16.4645 20.1169 16.4645 20.1169 16.8028 20.1204C17.0286 20.1217 17.2544 20.1229 17.487 20.1242C18.0418 20.1275 18.5965 20.132 19.1513 20.1377C19.1513 20.3198 19.1513 20.5018 19.1513 20.6894C18.9313 20.8487 18.7113 21.008 18.4846 21.1722C17.5332 21.9217 16.8477 22.7416 16.621 24.0687C16.4846 24.5515 16.4846 24.5515 15.9704 24.8651C15.1369 25.1495 14.5287 25.0919 13.6664 24.9825C12.5116 24.8267 12.5116 24.8267 11.3937 25.1032C10.9451 25.1427 10.4951 25.164 10.0452 25.1722C9.80991 25.1793 9.57459 25.1864 9.33215 25.1937C9.13246 25.1639 8.93277 25.134 8.72704 25.1032C8.24219 24.2756 8.24219 24.2756 8.24219 23.448C8.56219 23.357 8.88219 23.266 9.21188 23.1722C9.21188 22.9901 9.21188 22.808 9.21188 22.6204C9.83222 22.2563 10.4535 21.8946 11.0755 21.5342C11.3378 21.3798 11.3378 21.3798 11.6054 21.2223C11.7764 21.1236 11.9475 21.0249 12.1238 20.9233C12.28 20.8322 12.4361 20.7412 12.597 20.6475C13.5458 20.1979 14.4624 20.1033 15.4818 20.1108Z"
        fill="#08846F" />
    <path
        d="M22.8188 19.1556C23.1261 19.1563 23.1261 19.1563 23.4396 19.157C25.2054 19.2145 26.473 19.7206 27.8794 20.9659C28.0209 21.0843 28.1625 21.2028 28.3084 21.3248C28.951 21.9433 29.0877 22.2997 29.1673 23.259C29.1423 23.5037 29.1173 23.7483 29.0915 24.0004C27.7614 24.5157 26.6135 24.6172 25.2127 24.5521C25.1943 24.3882 25.1758 24.2243 25.1568 24.0554C24.9061 23.2399 24.559 23.0288 23.9248 22.5694C23.6412 22.3587 23.6412 22.3587 23.3519 22.1437C22.8311 21.82 22.3984 21.6429 21.8188 21.5176C21.8188 21.3356 21.8188 21.1535 21.8188 20.9659C21.3538 20.9147 21.3538 20.9147 20.8794 20.8625C19.94 20.759 19.94 20.759 19.3945 20.1383C20.5032 19.1806 21.4789 19.1512 22.8188 19.1556Z"
        fill="#217209" />
    <path
        d="M14.0603 11.3104C14.6512 11.6035 14.6512 11.6035 15.03 11.8621C14.5162 13.7755 13.1573 14.5296 11.69 15.4397C9.93925 16.4812 8.30025 17.2485 6.30273 17.1035C6.49251 16.7342 6.68492 16.3667 6.87849 16C6.98537 15.7952 7.09224 15.5904 7.20236 15.3793C7.30548 15.22 7.40861 15.0607 7.51486 14.8966C7.67486 14.8966 7.83486 14.8966 7.9997 14.8966C7.9997 14.7145 7.9997 14.5324 7.9997 14.3448C8.44024 13.9174 8.89814 13.5129 9.36334 13.1207C9.74303 12.7969 9.74303 12.7969 10.1304 12.4666C11.5415 11.3707 12.3536 10.8428 14.0603 11.3104Z"
        fill="#2F8D04" />
    <path
        d="M30.06 17.1035C30.7117 17.7807 30.9812 18.2926 31.0874 19.3147C31.1349 20.9408 30.9113 21.8539 30.06 23.1725C29.5145 23.569 29.5145 23.569 29.0903 23.7242C29.0403 23.4796 28.9903 23.2349 28.9387 22.9828C28.3431 21.35 27.1077 20.5682 25.7606 19.8174C24.8067 19.4159 23.8843 19.4374 22.8781 19.4656C22.6794 19.4636 22.4806 19.4617 22.2759 19.4597C21.037 19.4744 20.252 19.7179 19.1509 20.4139C18.9909 20.3228 18.8309 20.2318 18.666 20.138C18.666 19.9559 18.666 19.7739 18.666 19.5863C20.3743 18.8741 21.9635 18.6421 23.7797 18.568C24.5143 18.5641 24.5143 18.5641 24.969 17.9311C25.5912 17.9279 25.5912 17.9279 26.3175 18.0173C26.678 18.0584 26.678 18.0584 27.0458 18.1003C27.6357 18.207 27.6357 18.207 27.8781 18.4828C28.2453 18.5468 28.6145 18.5965 28.9842 18.638C29.1845 18.6611 29.3848 18.6842 29.5912 18.708C29.7459 18.7248 29.9006 18.7415 30.06 18.7587C30.06 18.2125 30.06 17.6663 30.06 17.1035Z"
        fill="#249A83" />
    <path
        d="M19.152 1.10352C20.4122 1.47909 21.1146 2.06001 22.0611 3.03455C21.8211 3.1711 21.8211 3.1711 21.5763 3.31041C21.4963 3.49248 21.4163 3.67455 21.3339 3.86214C21.1739 3.498 21.0139 3.13386 20.849 2.75869C20.326 4.20684 20.3059 5.46437 20.3339 7.00007C20.3371 7.34411 20.3371 7.34411 20.3405 7.69511C20.3462 8.25657 20.3549 8.81798 20.3642 9.37938C19.4042 9.37938 18.4442 9.37938 17.4551 9.37938C17.4551 9.19731 17.4551 9.01524 17.4551 8.82765C17.6151 8.82765 17.7751 8.82765 17.9399 8.82765C17.9649 8.61145 17.9899 8.39524 18.0157 8.17248C18.1497 7.36833 18.3216 6.66869 18.546 5.89662C18.9798 4.31699 19.08 2.74959 19.152 1.10352Z"
        fill="#9E3F5D" />
    <path
        d="M20.3633 9.65515C22.8195 9.49694 24.9636 10.3754 27.1512 11.5862C26.1514 12.7239 24.6965 12.9393 23.3273 13.0183C22.4997 13.0173 21.6751 13.0021 20.8481 12.9655C20.8481 12.6924 20.8481 12.4193 20.8481 12.1379C20.7746 11.7052 20.6932 11.2742 20.6057 10.8448C20.5607 10.6218 20.5157 10.3989 20.4693 10.1692C20.4343 9.99954 20.3993 9.82992 20.3633 9.65515Z"
        fill="#0D174D" />
    <path
        d="M0.484375 16.5518C0.734375 16.6371 0.984375 16.7224 1.24195 16.8104C2.73937 17.2441 4.2806 17.286 5.81771 17.3793C5.71552 17.6485 5.61333 17.9177 5.50805 18.1951C5.37388 18.5496 5.23973 18.9041 5.10559 19.2587C5.03824 19.4359 4.9709 19.6132 4.90152 19.7958C4.61725 20.548 4.3484 21.2918 4.12074 22.069C3.96074 22.069 3.80074 22.069 3.63589 22.069C3.2818 21.3387 3.15104 20.9947 3.15104 20.138C2.98104 20.0924 2.81104 20.0469 2.63589 20C1.63527 19.406 1.04421 18.4849 0.484375 17.3793C0.484375 17.1062 0.484375 16.8331 0.484375 16.5518Z"
        fill="#49A9F8" />
    <path
        d="M14.0605 0.551825C14.7272 0.544371 15.3938 0.538901 16.0605 0.534584C16.249 0.532272 16.4374 0.529961 16.6316 0.527579C16.9058 0.526246 16.9058 0.526246 17.1855 0.524886C17.4369 0.522719 17.4369 0.522719 17.6934 0.520508C18.2059 0.553376 18.6585 0.66874 19.1515 0.827687C19.1646 1.40232 19.174 1.97707 19.1818 2.55183C19.1874 2.87187 19.193 3.19191 19.1988 3.52165C19.154 4.36641 19.0565 4.81169 18.6666 5.51734C17.4325 4.86532 16.5765 4.20203 15.9999 2.75872C15.9545 1.707 15.9545 1.707 15.9999 0.827687C15.3599 0.827687 14.7199 0.827687 14.0605 0.827687C14.0605 0.736653 14.0605 0.645618 14.0605 0.551825Z"
        fill="#8E2F0A" />
    <path
        d="M20.8484 2.48242C20.9484 2.61328 21.0484 2.74415 21.1514 2.87897C21.6423 3.37772 21.9092 3.425 22.5453 3.58587C23.1179 3.84562 23.6785 4.12967 24.2423 4.41346C24.1817 4.9307 24.1817 4.9307 23.9999 5.5169C23.187 6.14517 22.4778 6.12693 21.515 6.10311C21.2538 6.09813 20.9925 6.09315 20.7234 6.08803C20.5246 6.08162 20.3259 6.07522 20.1211 6.06863C20.1488 5.62588 20.1797 5.18339 20.212 4.74104C20.2289 4.49461 20.2458 4.24818 20.2631 3.99428C20.3635 3.31001 20.3635 3.31001 20.8484 2.48242Z"
        fill="#3F2370" />
    <path
        d="M30.3034 9.93066C31.1152 10.8545 31.0694 11.7334 31.0761 12.9824C31.0796 13.2758 31.083 13.5691 31.0865 13.8714C31.0307 14.6203 31.0307 14.6203 30.5458 15.172C30.5458 14.8989 30.5458 14.6258 30.5458 14.3445C30.3858 14.3445 30.2258 14.3445 30.061 14.3445C29.6459 13.8976 29.2436 13.4352 28.8488 12.9651C28.6238 12.7091 28.3988 12.4531 28.167 12.1893C27.992 11.9901 27.817 11.791 27.6367 11.5858C28.5167 11.0396 29.3967 10.4934 30.3034 9.93066Z"
        fill="#5697E8" />
    <path
        d="M18.6672 5.79297C19.3872 5.92952 19.3872 5.92952 20.1217 6.06883C20.2017 7.16124 20.2817 8.25366 20.3642 9.37918C19.4042 9.37918 18.4442 9.37918 17.4551 9.37918C17.4551 9.19711 17.4551 9.01504 17.4551 8.82745C17.6151 8.82745 17.7751 8.82745 17.9399 8.82745C17.9699 8.5828 17.9999 8.33814 18.0308 8.08607C18.1688 7.25397 18.3681 6.56448 18.6672 5.79297Z"
        fill="#E7457D" />
    <path
        d="M24.969 17.9307C25.8478 18.0341 25.8478 18.0341 26.666 18.2065C26.586 18.5707 26.506 18.9348 26.4236 19.31C26.255 19.314 26.0863 19.318 25.9126 19.3222C25.1434 19.3428 24.3745 19.3694 23.6054 19.3962C23.3401 19.4024 23.0748 19.4086 22.8014 19.415C21.3885 19.4686 20.3934 19.5749 19.1509 20.4134C18.9909 20.3224 18.8309 20.2314 18.666 20.1376C18.666 19.9555 18.666 19.7734 18.666 19.5858C20.3744 18.8736 21.9635 18.6416 23.7797 18.5675C24.5143 18.5637 24.5143 18.5637 24.969 17.9307Z"
        fill="#25A68D" />
    <path
        d="M17.213 9.65528C17.133 9.83735 17.053 10.0194 16.9706 10.207C16.8106 10.207 16.6506 10.207 16.4857 10.207C16.4057 10.4801 16.3257 10.7532 16.2433 11.0346C15.9554 11.5173 15.9554 11.5173 15.516 11.8622C14.4837 11.8122 13.8627 11.5347 13.0918 10.7587C14.4742 9.89727 15.6445 9.60278 17.213 9.65528Z"
        fill="#1E2903" />
    <path
        d="M7.9997 14.3447C8.72698 14.6206 8.72698 14.6206 9.01486 15.1378C9.21183 15.724 9.21183 15.724 9.21183 16.5516C8.2129 17.1028 7.40529 17.1525 6.30273 17.1033C6.49251 16.7341 6.68492 16.3666 6.87849 15.9999C6.98537 15.7951 7.09224 15.5902 7.20236 15.3792C7.30548 15.2199 7.40861 15.0606 7.51486 14.8965C7.67486 14.8965 7.83486 14.8965 7.9997 14.8965C7.9997 14.7144 7.9997 14.5323 7.9997 14.3447Z"
        fill="#0E6D02" />
    <path
        d="M15.0304 12.1377C15.6704 12.2287 16.3104 12.3198 16.9698 12.4136C16.9698 12.5046 16.9698 12.5956 16.9698 12.6894C16.7398 12.7691 16.5098 12.8487 16.2728 12.9308C15.5026 13.1772 15.5026 13.1772 15.0304 13.7929C14.6372 14.0462 14.2373 14.2862 13.8335 14.517C13.5152 14.7016 13.5152 14.7016 13.1905 14.8899C12.6062 15.1722 12.6062 15.1722 11.8789 15.1722C12.4595 14.3724 12.9243 14.2062 13.8183 14.0687C13.8983 13.7956 13.9783 13.5225 14.0607 13.2411C14.2207 13.2411 14.3807 13.2411 14.5456 13.2411C14.7056 12.877 14.8656 12.5129 15.0304 12.1377Z"
        fill="#30A67E" />
    <path
        d="M20.8484 2.48242C20.9584 2.61897 21.0684 2.75553 21.1817 2.89621C21.5457 3.37238 21.5457 3.37238 22.0605 3.31001C22.1405 3.67415 22.2205 4.03828 22.3029 4.41346C21.8229 4.50449 21.3429 4.59553 20.8484 4.68932C20.7684 5.14449 20.6884 5.59966 20.6059 6.06863C20.4459 6.06863 20.2859 6.06863 20.1211 6.06863C20.1488 5.62588 20.1797 5.18339 20.212 4.74104C20.2289 4.49461 20.2458 4.24818 20.2631 3.99428C20.3635 3.31001 20.3635 3.31001 20.8484 2.48242Z"
        fill="#361C5D" />
    <path
        d="M0.484375 16.5518C0.734375 16.6371 0.984375 16.7224 1.24195 16.8104C2.73937 17.2441 4.2806 17.286 5.81771 17.3793C5.81771 17.4704 5.81771 17.5614 5.81771 17.6552C4.37771 17.7462 2.93771 17.8373 1.45407 17.9311C1.53407 18.2952 1.61407 18.6593 1.6965 19.0345C0.907599 18.2526 0.600575 17.7418 0.484375 16.5518Z"
        fill="#56A9D5" />
    <path
        d="M14.5448 11.8623C14.7048 11.8623 14.8648 11.8623 15.0297 11.8623C14.5668 13.5861 13.4688 14.3494 12.1206 15.1726C11.6395 15.3689 11.1552 15.5561 10.666 15.7244C10.746 15.5423 10.826 15.3602 10.9084 15.1726C11.1484 15.1726 11.3884 15.1726 11.6357 15.1726C11.7157 14.8995 11.7957 14.6264 11.8781 14.3451C12.9286 13.5175 12.9286 13.5175 13.5751 13.5175C13.6551 13.2444 13.7351 12.9713 13.8175 12.6899C13.9775 12.6899 14.1375 12.6899 14.3024 12.6899C14.3824 12.4168 14.4624 12.1437 14.5448 11.8623Z"
        fill="#20931F" />
    <path
        d="M2.90986 8.82715C3.54622 8.9306 3.54622 8.9306 4.12198 9.10301C3.87956 9.65473 3.87956 9.65473 3.13713 9.96508C2.78463 10.0846 2.78463 10.0846 2.42501 10.2065C2.45001 10.5023 2.47501 10.7982 2.50077 11.103C2.42501 12.1375 2.42501 12.1375 1.81895 12.8099C1.51895 13.0233 1.51895 13.0233 1.21289 13.2409C1.21289 12.4134 1.21289 12.4134 1.69774 11.8616C1.83174 11.453 1.95167 11.0382 2.06138 10.6203C2.27596 9.80276 2.37121 9.4401 2.90986 8.82715Z"
        fill="#6D9C30" />
    <path
        d="M13.5758 1.37948C13.1685 1.8429 12.6181 1.68925 12.0606 1.70706C11.0852 1.76761 11.0852 1.76761 10.2718 2.30728C10.1771 2.45628 10.0824 2.60527 9.98485 2.75879C9.45455 3.58637 9.45455 3.58637 8.65152 3.82775C8.32902 3.84482 8.32902 3.84482 8 3.86223C8.32323 3.49442 8.64646 3.1266 8.9697 2.75879C9.2097 2.3918 9.2097 2.3918 9.45455 2.01741C10.5076 1.09371 12.3274 0.669203 13.5758 1.37948Z"
        fill="#E75522" />
    <path
        d="M9.93916 22.3447C9.85916 23.164 9.77916 23.9833 9.69673 24.8275C9.29673 24.8275 8.89673 24.8275 8.48461 24.8275C8.40461 24.3723 8.32461 23.9171 8.24219 23.4482C8.56219 23.3571 8.88219 23.2661 9.21188 23.1723C9.21188 22.9902 9.21188 22.8082 9.21188 22.6206C9.69673 22.3447 9.69673 22.3447 9.93916 22.3447Z"
        fill="#03697F" />
    <path
        d="M17.2121 10.4824C17.697 11.31 17.697 11.31 17.6061 11.9135C17.5561 12.0785 17.5061 12.2435 17.4545 12.4135C17.7745 12.5045 18.0945 12.5955 18.4242 12.6893C17.4994 13.0941 16.8994 12.8089 16 12.4135C16.303 11.4057 16.4051 11.0947 17.2121 10.4824Z"
        fill="#1E3B59" />
    <path
        d="M19.8789 2.20703C20.3589 2.20703 20.8389 2.20703 21.3335 2.20703C21.788 2.75876 21.788 2.75876 22.0607 3.31048C21.9007 3.31048 21.7407 3.31048 21.5759 3.31048C21.4959 3.49255 21.4159 3.67462 21.3335 3.8622C21.1735 3.49807 21.0135 3.13393 20.8486 2.75876C20.6086 3.6691 20.3686 4.57945 20.1213 5.51738C20.0413 5.51738 19.9613 5.51738 19.8789 5.51738C19.8789 4.42496 19.8789 3.33255 19.8789 2.20703Z"
        fill="#6D3A78" />
    <path
        d="M5.57617 9.93066C6.30344 9.93066 6.30344 9.93066 6.95496 10.5686C7.51557 11.31 7.51557 11.31 7.51557 12.1376C7.67557 12.1376 7.83557 12.1376 8.00041 12.1376C8.06541 12.3139 8.13041 12.4903 8.19738 12.672C8.45779 13.3324 8.45779 13.3324 9.21254 13.5169C8.89254 13.79 8.57254 14.0631 8.24284 14.3445C8.11784 14.0714 7.99284 13.7983 7.86405 13.5169C7.32747 12.4368 6.64878 11.5591 5.91329 10.6483C5.57617 10.2065 5.57617 10.2065 5.57617 9.93066Z"
        fill="#DDC616" />
    <path
        d="M21.7089 19.2563C22.016 19.2589 22.016 19.2589 22.3292 19.2617C22.5408 19.2663 22.7523 19.2709 22.9703 19.2757C23.2933 19.2794 23.2933 19.2794 23.6228 19.2832C24.1528 19.2897 24.6827 19.2988 25.2127 19.3101C25.2127 19.4012 25.2127 19.4922 25.2127 19.586C23.8527 19.586 22.4927 19.586 21.0915 19.586C21.0915 19.7681 21.0915 19.9501 21.0915 20.1377C20.9315 20.1377 20.7715 20.1377 20.6067 20.1377C20.6067 20.3198 20.6067 20.5019 20.6067 20.6895C20.2067 20.5984 19.8067 20.5074 19.3945 20.4136C19.8693 19.3331 20.723 19.2411 21.7089 19.2563Z"
        fill="#207F21" />
    <path
        d="M22.8933 18.9997C23.1169 19.0022 23.3405 19.0047 23.5708 19.0072C24.1178 19.0137 24.6646 19.0227 25.2115 19.0342C25.2115 19.1252 25.2115 19.2163 25.2115 19.31C24.8958 19.3204 24.5802 19.3307 24.255 19.3413C23.8365 19.3594 23.4179 19.3777 22.9993 19.3963C22.6881 19.4056 22.6881 19.4056 22.3706 19.4151C21.1064 19.476 20.276 19.7015 19.1509 20.4135C18.9909 20.3225 18.8309 20.2314 18.666 20.1376C18.666 19.9556 18.666 19.7735 18.666 19.5859C20.1006 19.0171 21.3822 18.9675 22.8933 18.9997Z"
        fill="#2FA679" />
    <path
        d="M17.4551 12.9658C18.8951 13.0569 20.3351 13.1479 21.8187 13.2417C21.9787 13.6058 22.1387 13.97 22.3036 14.3451C21.9836 14.2541 21.6636 14.1631 21.3339 14.0693C21.3339 13.8872 21.3339 13.7051 21.3339 13.5175C20.1339 13.5175 18.9339 13.5175 17.6975 13.5175C17.6175 13.3355 17.5375 13.1534 17.4551 12.9658Z"
        fill="#30A09C" />
    <path
        d="M6.54492 4.1377C7.18135 4.82775 7.72412 5.58052 8.27219 6.36183C8.44282 6.604 8.61344 6.84617 8.78924 7.09567C9.21159 7.7239 9.21159 7.7239 9.45401 8.27563C9.13401 8.18459 8.81401 8.09356 8.48432 7.99976C8.48432 7.8177 8.48432 7.63563 8.48432 7.44804C8.32432 7.44804 8.16432 7.44804 7.99947 7.44804C7.99947 7.26597 7.99947 7.0839 7.99947 6.89632C7.83947 6.89632 7.67947 6.89632 7.51462 6.89632C7.35182 6.54069 7.19048 6.18421 7.02977 5.82735C6.93977 5.62892 6.84977 5.4305 6.75704 5.22606C6.54492 4.68942 6.54492 4.68942 6.54492 4.1377Z"
        fill="#FDA913" />
    <path
        d="M19.6364 6.06934C19.7964 6.06934 19.9564 6.06934 20.1213 6.06934C20.2013 7.16175 20.2813 8.25416 20.3637 9.37968C19.5637 9.37968 18.7637 9.37968 17.9395 9.37968C17.9395 9.28865 17.9395 9.19761 17.9395 9.10382C18.4995 9.10382 19.0595 9.10382 19.6364 9.10382C19.6364 8.10244 19.6364 7.10106 19.6364 6.06934Z"
        fill="#CB4E93" />
    <path
        d="M26.666 17.6553C28.0367 17.5598 28.8551 17.8113 30.06 18.4828C30.06 18.5739 30.06 18.6649 30.06 18.7587C27.7787 18.8605 27.7787 18.8605 26.666 18.207C26.666 18.0249 26.666 17.8428 26.666 17.6553Z"
        fill="#046379" />
    <path
        d="M17.213 9.65528C17.133 9.83735 17.053 10.0194 16.9706 10.207C16.2215 10.4516 16.2215 10.4516 15.2888 10.6725C14.9816 10.7476 14.6744 10.8226 14.3579 10.8999C13.5766 11.0346 13.5766 11.0346 13.0918 10.7587C14.4742 9.89727 15.6445 9.60278 17.213 9.65528Z"
        fill="#472303" />
    <path
        d="M18.424 20.4141C18.664 20.5051 18.904 20.5961 19.1513 20.6899C18.9313 20.8379 18.7113 20.9858 18.4846 21.1382C17.3796 21.9745 16.7898 23.2018 16.2422 24.552C16.2422 23.9148 16.2422 23.2775 16.2422 22.621C16.4822 22.621 16.7222 22.621 16.9695 22.621C16.992 22.382 16.992 22.382 17.0149 22.1382C17.296 21.2525 17.7387 20.9154 18.424 20.4141Z"
        fill="#0A734C" />
    <path
        d="M19.6367 1.37891C20.6064 1.65477 20.6064 1.65477 21.0913 2.20649C20.6913 2.20649 20.2913 2.20649 19.8791 2.20649C19.9591 3.48098 20.0391 4.75546 20.1216 6.06856C19.9616 5.97753 19.8016 5.88649 19.6367 5.7927C19.6367 4.33615 19.6367 2.8796 19.6367 1.37891Z"
        fill="#914276" />
    <path
        d="M24.7275 27.8623C24.8075 27.8623 24.8875 27.8623 24.9699 27.8623C25.0499 28.7726 25.1299 29.683 25.2124 30.6209C24.8924 30.6209 24.5724 30.6209 24.2427 30.6209C24.0827 30.2568 23.9227 29.8926 23.7578 29.5175C24.0778 29.4264 24.3978 29.3354 24.7275 29.2416C24.7275 28.7864 24.7275 28.3313 24.7275 27.8623Z"
        fill="#2D6B29" />
    <path
        d="M10.9084 9.93066C11.5484 10.2038 12.1884 10.4769 12.8478 10.7583C12.2122 11.3524 11.722 11.6964 10.9084 11.8617C10.9084 11.6796 10.9084 11.4976 10.9084 11.31C11.0684 11.31 11.2284 11.31 11.3933 11.31C11.3933 11.1279 11.3933 10.9458 11.3933 10.7583C11.1533 10.8493 10.9133 10.9403 10.666 11.0341C10.746 10.67 10.826 10.3058 10.9084 9.93066Z"
        fill="#E3BE15" />
    <path
        d="M20.1213 6.06934C20.2813 6.06934 20.4413 6.06934 20.6062 6.06934C20.9045 7.83485 20.9045 7.83485 20.6213 8.67278C20.5363 8.81503 20.4513 8.95727 20.3638 9.10382C20.1213 8.82796 20.1213 8.82796 20.0977 8.19757C20.1005 7.94473 20.1033 7.6919 20.1062 7.4314C20.1084 7.17786 20.1106 6.92431 20.1128 6.66309C20.1156 6.46715 20.1184 6.27121 20.1213 6.06934Z"
        fill="#6F1C74" />
    <path
        d="M30.0598 17.1035C30.7298 17.7665 30.7969 17.976 31.0295 19.0346C30.3095 19.0346 29.5895 19.0346 28.8477 19.0346C28.8477 18.9435 28.8477 18.8525 28.8477 18.7587C29.2477 18.7587 29.6477 18.7587 30.0598 18.7587C30.0598 18.2125 30.0598 17.6663 30.0598 17.1035Z"
        fill="#1E7D8D" />
    <path
        d="M8.24165 15.4482C8.56165 15.8124 8.88165 16.1765 9.21135 16.5517C8.36098 16.994 7.72201 17.1642 6.78711 17.1034C7.02711 17.0124 7.26711 16.9213 7.51438 16.8276C7.79319 16.285 7.79319 16.285 7.99923 15.7241C8.07923 15.6331 8.15923 15.542 8.24165 15.4482Z"
        fill="#08681D" />
    <path
        d="M29.0903 9.93066C29.3303 10.0217 29.5703 10.1127 29.8175 10.2065C29.2992 10.8553 28.8464 11.2791 28.1206 11.5858C27.3327 11.6203 27.3327 11.6203 26.666 11.5858C27.3853 11.1311 28.0372 10.912 28.8478 10.7583C28.9278 10.4851 29.0078 10.212 29.0903 9.93066Z"
        fill="#3A2B86" />
    <path
        d="M5.09079 18.7588C5.17079 18.7588 5.25079 18.7588 5.33321 18.7588C5.47052 20.0869 5.04852 20.7458 4.36352 21.7933C4.28352 21.6112 4.20352 21.4291 4.12109 21.2415C4.30954 20.6446 4.30954 20.6446 4.59079 19.9657C4.68298 19.7402 4.77517 19.5148 4.87015 19.2825C4.94296 19.1097 5.01577 18.9368 5.09079 18.7588Z"
        fill="#1588C3" />
    <path
        d="M2.42383 17.6553C3.46383 17.6553 4.50383 17.6553 5.57534 17.6553C5.41534 18.1104 5.25534 18.5656 5.09049 19.0346C5.01049 18.6704 4.93049 18.3063 4.84807 17.9311C4.04807 17.9311 3.24807 17.9311 2.42383 17.9311C2.42383 17.8401 2.42383 17.7491 2.42383 17.6553Z"
        fill="#47ADE9" />
    <path
        d="M16.9706 10.207C16.9706 10.4801 16.9706 10.7532 16.9706 11.0346C16.8106 11.0346 16.6506 11.0346 16.4858 11.0346C16.3258 11.3988 16.1658 11.7629 16.0009 12.1381C15.6809 12.047 15.3609 11.956 15.0312 11.8622C15.1913 11.8622 15.3513 11.8622 15.5161 11.8622C15.5961 11.5891 15.6761 11.316 15.7585 11.0346C16.3781 10.207 16.3781 10.207 16.9706 10.207Z"
        fill="#2D3631" />
    <path
        d="M2.90868 8.82715C3.31484 8.90606 3.71931 8.99758 4.1208 9.10301C3.87837 9.65473 3.87837 9.65473 3.13595 9.96508C2.90095 10.0447 2.66595 10.1244 2.42383 10.2065C2.63595 9.13749 2.63595 9.13749 2.90868 8.82715Z"
        fill="#608A22" />
    <path
        d="M20.3635 3.31055C20.5235 3.31055 20.6835 3.31055 20.8484 3.31055C20.7684 4.22089 20.6884 5.13124 20.6059 6.06917C20.4459 6.06917 20.2859 6.06917 20.1211 6.06917C20.2011 5.15882 20.2811 4.24848 20.3635 3.31055Z"
        fill="#471A5C" />
    <path
        d="M9.45508 16.5518C9.93508 16.5518 10.4151 16.5518 10.9096 16.5518C10.8296 16.7338 10.7496 16.9159 10.6672 17.1035C10.5072 17.1035 10.3472 17.1035 10.1824 17.1035C10.2624 17.3766 10.3424 17.6497 10.4248 17.9311C10.1848 18.0221 9.94478 18.1131 9.6975 18.2069C9.6175 17.6607 9.5375 17.1145 9.45508 16.5518Z"
        fill="#32BAAD" />
    <path
        d="M14.5463 11.8623C14.7063 11.8623 14.8663 11.8623 15.0312 11.8623C14.7282 12.8701 14.6261 13.1811 13.8191 13.7933C13.5791 13.7023 13.3391 13.6113 13.0918 13.5175C13.2518 13.5175 13.4118 13.5175 13.5766 13.5175C13.6566 13.2444 13.7366 12.9713 13.8191 12.6899C13.9791 12.6899 14.1391 12.6899 14.3039 12.6899C14.3839 12.4168 14.4639 12.1437 14.5463 11.8623Z"
        fill="#218517" />
    <path
        d="M24.4851 26.207C24.5651 26.207 24.6451 26.207 24.7275 26.207C24.7275 26.8443 24.7275 27.4815 24.7275 28.1381C24.5675 28.1381 24.4075 28.1381 24.2427 28.1381C24.2427 28.3201 24.2427 28.5022 24.2427 28.6898C24.0827 28.6898 23.9227 28.6898 23.7578 28.6898C23.7578 28.3257 23.7578 27.9615 23.7578 27.5863C23.9178 27.4953 24.0778 27.4043 24.2427 27.3105C24.4008 26.752 24.4008 26.752 24.4851 26.207Z"
        fill="#094B11" />
    <path
        d="M24.2422 16.5518C25.0422 17.0069 25.8422 17.4621 26.6664 17.9311C25.9392 18.2069 25.9392 18.2069 25.1816 17.8621C24.4846 17.3793 24.4846 17.3793 24.2422 16.5518Z"
        fill="#29979D" />
    <path
        d="M9.69602 22.3447C9.77602 22.3447 9.85602 22.3447 9.93845 22.3447C9.85845 23.073 9.77845 23.8013 9.69602 24.5516C9.45602 24.5516 9.21602 24.5516 8.96875 24.5516C9.4233 22.9654 9.4233 22.9654 9.69602 22.3447Z"
        fill="#046870" />
    <path
        d="M11.6371 15.4482C11.6371 15.7213 11.6371 15.9944 11.6371 16.2758C10.8371 16.3669 10.0371 16.4579 9.21289 16.5517C9.53289 16.3696 9.85289 16.1876 10.1826 16C10.3526 15.8976 10.5226 15.7951 10.6977 15.6896C11.1523 15.4482 11.1523 15.4482 11.6371 15.4482Z"
        fill="#2DB470" />
    <path
        d="M9.93945 8.82715C10.7554 9.22509 11.2753 9.7465 11.8788 10.4823C11.3188 10.3003 10.7588 10.1182 10.1819 9.9306C10.1019 9.56646 10.0219 9.20232 9.93945 8.82715Z"
        fill="#F9AC14" />
    <path
        d="M5.33321 4.68945C5.41322 4.87152 5.49322 5.05359 5.57564 5.24118C5.49564 5.51428 5.41564 5.78738 5.33321 6.06876C4.93321 6.1598 4.53321 6.25083 4.12109 6.34463C4.78776 4.9998 4.78776 4.9998 5.33321 4.68945Z"
        fill="#ECBE1A" />
</svg>