<svg width="32" height="32" viewBox="0 0 32 32" fill="none" xmlns="http://www.w3.org/2000/svg">
    <g clip-path="url(#clip0_5242_838)">
        <path fill-rule="evenodd" clip-rule="evenodd"
            d="M-0.0712891 -0.0712891C10.5954 -0.0712891 21.262 -0.0712891 31.9287 -0.0712891C31.9287 10.5954 31.9287 21.262 31.9287 31.9287C21.262 31.9287 10.5954 31.9287 -0.0712891 31.9287C-0.0712891 21.262 -0.0712891 10.5954 -0.0712891 -0.0712891Z"
            fill="#FEFEFE" />
        <path fill-rule="evenodd" clip-rule="evenodd"
            d="M18.1333 3.48454C16.4207 3.50896 14.714 3.62747 13.0133 3.84009C12.9483 3.89897 12.9009 3.97008 12.8711 4.05343C13.1081 4.14825 13.3452 4.24305 13.5822 4.33787C13.098 4.69387 12.5765 4.78869 12.0178 4.62232C12.0925 4.52384 12.1873 4.45273 12.3022 4.40898C11.9737 4.33835 11.6418 4.31465 11.3066 4.33787C11.3224 4.25006 11.3698 4.17895 11.4489 4.12454C13.6268 3.19786 15.8549 2.98453 18.1333 3.48454Z"
            fill="#4B52A0" />
        <path fill-rule="evenodd" clip-rule="evenodd"
            d="M18.1336 3.48438C19.2004 3.69745 20.1959 4.0767 21.1202 4.62215C21.1202 4.76438 21.1202 4.9066 21.1202 5.04882C21.6052 5.03229 21.7949 5.26932 21.6891 5.75993C21.3471 5.81204 21.0153 5.90686 20.6936 6.04438C20.3349 5.86489 19.9556 5.77007 19.5558 5.75993C19.1034 5.48802 18.6292 5.22728 18.1336 4.97771C16.1265 4.56733 14.1829 4.73324 12.3025 5.47549C11.959 5.44435 11.8167 5.25471 11.8758 4.9066C11.5766 4.94911 11.2921 4.9017 11.0225 4.76438C11.0716 4.59433 11.1427 4.59433 11.2358 4.76438C11.3045 4.62955 11.3282 4.48733 11.3069 4.33771C11.6421 4.31448 11.974 4.33819 12.3025 4.40882C12.1875 4.45257 12.0927 4.52368 12.018 4.62215C12.5768 4.78852 13.0982 4.6937 13.5825 4.33771C13.3454 4.24289 13.1084 4.14808 12.8713 4.05326C12.9011 3.96992 12.9485 3.89881 13.0136 3.83993C14.7143 3.62731 16.4209 3.50879 18.1336 3.48438Z"
            fill="#484FAE" />
        <path fill-rule="evenodd" clip-rule="evenodd"
            d="M11.3069 4.33789C11.3281 4.48751 11.3044 4.62973 11.2357 4.76456C11.1427 4.59452 11.0716 4.59452 11.0224 4.76456C11.2921 4.90189 11.5765 4.94929 11.8757 4.90678C11.8167 5.2549 11.9589 5.44454 12.3024 5.47567C14.1828 4.73342 16.1265 4.56751 18.1335 4.97789C18.6292 5.22746 19.1033 5.4882 19.5557 5.76011C16.8565 4.72782 14.2016 4.82264 11.5913 6.04456C11.3818 5.25111 10.8604 4.91925 10.0269 5.049C10.3466 4.6375 10.7733 4.40045 11.3069 4.33789Z"
            fill="#4F559A" />
        <path fill-rule="evenodd" clip-rule="evenodd"
            d="M19.5557 5.75987C20.6437 6.44709 21.6866 7.2056 22.6846 8.03542C22.6846 8.13024 22.6846 8.22505 22.6846 8.31987C24.197 10.1666 24.8607 12.3 24.6757 14.7199C24.3932 16.1788 23.8717 17.5535 23.1112 18.8443C21.1998 20.9447 19.256 22.9833 17.2801 24.9599C16.8216 25.3464 16.3712 25.7731 15.929 26.2399C13.3557 23.738 10.8668 21.178 8.46235 18.5599C8.47274 18.3427 8.37792 18.2005 8.17791 18.1332C6.23147 13.7849 6.98998 9.9923 10.4535 6.75542C10.8817 6.58912 11.261 6.35208 11.5912 6.04431C14.2016 4.8224 16.8565 4.72758 19.5557 5.75987Z"
            fill="#FBFCFB" />
        <path fill-rule="evenodd" clip-rule="evenodd"
            d="M10.0266 5.04884C10.8601 4.91909 11.3816 5.25095 11.5911 6.04439C11.2608 6.35216 10.8816 6.5892 10.4533 6.7555C10.258 6.73322 10.0683 6.75693 9.8844 6.82661C9.7376 7.23535 9.45315 7.44868 9.03107 7.46661C9.03107 7.65624 9.03107 7.84588 9.03107 8.0355C8.84304 8.05968 8.67712 8.01226 8.53329 7.89328C8.30427 7.54636 8.18576 7.16709 8.17773 6.7555C8.31996 6.7555 8.46218 6.7555 8.6044 6.7555C8.6044 6.89773 8.6044 7.03995 8.6044 7.18217C8.74662 7.18217 8.88885 7.18217 9.03107 7.18217C9.03107 7.03995 9.03107 6.89773 9.03107 6.7555C9.17329 6.7555 9.31551 6.7555 9.45773 6.7555C9.45773 6.61328 9.45773 6.47106 9.45773 6.32884C9.31551 6.32884 9.17329 6.32884 9.03107 6.32884C9.03107 6.13921 9.03107 5.94957 9.03107 5.75995C9.31996 5.47232 9.65181 5.23528 10.0266 5.04884Z"
            fill="#4950A8" />
        <path fill-rule="evenodd" clip-rule="evenodd"
            d="M21.1201 4.62207C22.1367 5.13133 22.99 5.84244 23.6801 6.7554C23.2637 6.48579 22.837 6.20135 22.4001 5.90207C22.1313 6.06026 21.8469 6.17878 21.5468 6.25763C21.4519 6.39985 21.3572 6.54207 21.2623 6.68429C21.6678 7.01749 22.1182 7.27823 22.6134 7.46651C22.6837 7.23411 22.7073 6.99707 22.6846 6.7554C22.8268 6.7554 22.969 6.7554 23.1112 6.7554C23.1112 7.03985 23.1112 7.32429 23.1112 7.60874C22.969 7.60874 22.8268 7.60874 22.6846 7.60874C22.6846 7.75096 22.6846 7.89318 22.6846 8.0354C21.6866 7.20558 20.6437 6.44707 19.5557 5.75985C19.9555 5.76999 20.3348 5.86481 20.6934 6.04429C21.0151 5.90678 21.347 5.81196 21.689 5.75985C21.7948 5.26924 21.6051 5.03221 21.1201 5.04874C21.1201 4.90651 21.1201 4.76429 21.1201 4.62207Z"
            fill="#4E559C" />
        <path fill-rule="evenodd" clip-rule="evenodd"
            d="M23.68 6.75568C23.8067 7.05561 23.9727 7.34005 24.1778 7.60901C24.2726 7.79864 24.2726 7.98827 24.1778 8.1779C23.9545 8.0559 23.7174 7.96108 23.4667 7.89345C23.2897 8.18877 23.029 8.33099 22.6844 8.32012C22.6844 8.2253 22.6844 8.1305 22.6844 8.03568C22.6844 7.89345 22.6844 7.75123 22.6844 7.60901C22.8267 7.60901 22.9689 7.60901 23.1111 7.60901C23.1111 7.32457 23.1111 7.04012 23.1111 6.75568C22.9689 6.75568 22.8267 6.75568 22.6844 6.75568C22.7072 6.99734 22.6836 7.23438 22.6133 7.46679C22.1181 7.2785 21.6677 7.01776 21.2622 6.68457C21.3571 6.54234 21.4518 6.40012 21.5467 6.2579C21.8467 6.17905 22.1312 6.06054 22.4 5.90234C22.8369 6.20162 23.2636 6.48607 23.68 6.75568Z"
            fill="#464FAF" />
        <path fill-rule="evenodd" clip-rule="evenodd"
            d="M9.03123 5.75977C9.03123 5.94939 9.03123 6.13903 9.03123 6.32865C9.17345 6.32865 9.31567 6.32865 9.45789 6.32865C9.45789 6.47088 9.45789 6.6131 9.45789 6.75532C9.31567 6.75532 9.17345 6.75532 9.03123 6.75532C9.03123 6.89754 9.03123 7.03977 9.03123 7.18199C8.889 7.18199 8.74678 7.18199 8.60456 7.18199C8.60456 7.03977 8.60456 6.89754 8.60456 6.75532C8.46234 6.75532 8.32012 6.75532 8.17789 6.75532C8.18591 7.16691 8.30443 7.54618 8.53345 7.8931C8.67728 8.01208 8.84319 8.0595 9.03123 8.03532C9.03123 7.8457 9.03123 7.65606 9.03123 7.46643C9.45331 7.4485 9.73776 7.23516 9.88456 6.82643C10.0685 6.75674 10.2581 6.73303 10.4534 6.75532C6.98997 9.9922 6.23145 13.7848 8.17789 18.1331C8.03567 18.1331 7.89345 18.1331 7.75123 18.1331C7.75667 17.3955 7.54334 16.7318 7.11123 16.142C6.82449 14.3843 6.8482 12.6302 7.18234 10.8798C7.68846 10.2234 8.06773 9.48858 8.32012 8.67532C8.12671 8.35245 8.03189 7.99689 8.03567 7.60865C7.79863 7.60865 7.5616 7.60865 7.32456 7.60865C7.7928 6.90322 8.36169 6.28693 9.03123 5.75977Z"
            fill="#4D549A" />
        <path fill-rule="evenodd" clip-rule="evenodd"
            d="M13.5823 9.03153C13.3987 9.06528 13.2565 9.01788 13.1557 8.88931C13.1323 8.50711 13.156 8.12785 13.2268 7.75153C13.4685 7.62266 13.7292 7.57526 14.009 7.60931C14.0494 8.1392 14.3338 8.44734 14.8623 8.53375C15.1116 8.81798 15.3014 9.12614 15.4312 9.4582C14.992 9.47791 14.6127 9.62013 14.2934 9.88486C14.2476 9.56879 14.3425 9.30805 14.5779 9.10264C14.2236 9.04441 13.9391 8.87848 13.7245 8.60486C13.5986 8.7222 13.5512 8.86442 13.5823 9.03153Z"
            fill="#474FAF" />
        <path fill-rule="evenodd" clip-rule="evenodd"
            d="M23.6801 6.75586C26.2195 9.55943 26.978 12.7831 25.9557 16.427C26.1137 14.9096 26.1137 13.3926 25.9557 11.8759C25.8135 12.0655 25.6712 12.0655 25.529 11.8759C25.6401 11.0283 25.4741 10.2224 25.0312 9.45808C24.7011 9.58058 24.5353 9.43836 24.5335 9.03141C24.2227 8.97622 23.962 8.834 23.7512 8.60475C23.2579 8.83303 23.2816 8.97525 23.8223 9.03141C23.8041 9.33786 23.8753 9.62231 24.0357 9.88475C24.3976 10.2588 24.6821 10.6855 24.889 11.1647C24.982 10.9947 25.0531 10.9947 25.1023 11.1647C24.985 11.2907 24.8428 11.3381 24.6757 11.307C24.7017 11.9328 24.7964 12.5491 24.9601 13.1559C24.8987 13.7034 24.804 14.2249 24.6757 14.7203C24.8607 12.3004 24.197 10.1671 22.6846 8.3203C23.0292 8.33117 23.2899 8.18895 23.4668 7.89364C23.7175 7.96126 23.9546 8.05608 24.1779 8.17808C24.2728 7.98846 24.2728 7.79882 24.1779 7.60919C23.9728 7.34024 23.8068 7.05579 23.6801 6.75586Z"
            fill="#4C539F" />
        <path fill-rule="evenodd" clip-rule="evenodd"
            d="M6.75564 8.60449C6.78619 8.84325 6.69137 8.98548 6.47119 9.03116C6.53265 8.85914 6.62745 8.71692 6.75564 8.60449Z"
            fill="#66656B" />
        <path fill-rule="evenodd" clip-rule="evenodd"
            d="M18.8444 12.1598C18.4052 12.2029 18.1683 12.0133 18.1333 11.5909C17.5967 11.6245 17.0752 11.5534 16.5689 11.3776C16.3695 11.1866 16.4168 11.0681 16.7111 11.022C16.9007 11.1168 17.0904 11.2116 17.28 11.3064C17.4836 11.2733 17.5548 11.1785 17.4933 11.022C16.9716 10.2837 16.2843 9.80967 15.4311 9.59977C15.3088 9.92909 15.2377 10.261 15.2178 10.5953C15.2651 10.6427 15.3126 10.6901 15.36 10.7376C15.7491 10.0643 16.0099 10.0643 16.1422 10.7376C15.7155 10.6901 15.526 10.8798 15.5733 11.3064C14.9972 10.6332 14.3572 10.0169 13.6533 9.45755C13.5847 9.32273 13.5609 9.1805 13.5822 9.03089C13.5511 8.86377 13.5985 8.72155 13.7244 8.60422C13.939 8.87784 14.2235 9.04377 14.5778 9.102C14.3424 9.30741 14.2475 9.56814 14.2933 9.88422C14.6126 9.61949 14.9919 9.47726 15.4311 9.45755C15.3012 9.12549 15.1115 8.81734 14.8622 8.53311C14.3337 8.44669 14.0492 8.13855 14.0089 7.60866C13.7291 7.57462 13.4684 7.62202 13.2266 7.75089C13.1559 8.12721 13.1322 8.50647 13.1555 8.88866C12.6849 8.16391 12.8508 7.64243 13.6533 7.32422C13.8847 7.34201 14.098 7.41312 14.2933 7.53755C15.8391 9.05956 17.3561 10.6003 18.8444 12.1598Z"
            fill="#4D549C" />
        <path fill-rule="evenodd" clip-rule="evenodd"
            d="M25.9555 16.4267C25.6658 17.9543 25.0021 19.2817 23.9644 20.4089C23.7542 20.4462 23.5646 20.3988 23.3955 20.2667C24.0099 19.4404 24.5313 18.5633 24.96 17.6356C24.9362 17.4696 24.9126 17.3038 24.8888 17.1378C24.8415 17.1852 24.794 17.2327 24.7466 17.28C24.6757 16.428 24.6519 15.5747 24.6755 14.72C24.8038 14.2247 24.8985 13.7031 24.96 13.1556C24.7963 12.5488 24.7015 11.9325 24.6755 11.3067C24.8426 11.3379 24.9848 11.2905 25.1022 11.1645C25.053 10.9945 24.9819 10.9945 24.8888 11.1645C24.6819 10.6852 24.3975 10.2585 24.0355 9.88449C23.8751 9.62205 23.804 9.33761 23.8222 9.03116C23.2814 8.975 23.2577 8.83277 23.7511 8.60449C23.9618 8.83374 24.2225 8.97596 24.5333 9.03116C24.5351 9.4381 24.701 9.58032 25.0311 9.45783C25.4739 10.2221 25.6399 11.0281 25.5288 11.8756C25.6711 12.0652 25.8133 12.0652 25.9555 11.8756C26.1135 13.3923 26.1135 14.9093 25.9555 16.4267Z"
            fill="#4850AC" />
        <path fill-rule="evenodd" clip-rule="evenodd"
            d="M18.8446 12.1596C19.0519 12.4623 19.1941 12.7941 19.2713 13.1552C18.7825 13.0493 18.4033 12.7649 18.1335 12.3018C17.2842 12.1363 16.4308 12.1126 15.5735 12.2307C15.3539 12.2719 15.1644 12.3667 15.0046 12.5152C15.4339 12.5861 15.8605 12.5624 16.2846 12.4441C16.8534 12.5625 17.4223 12.681 17.9913 12.7996C18.1103 12.9434 18.1577 13.1094 18.1335 13.2974C17.5959 13.169 17.0507 13.0742 16.498 13.0129C16.2552 13.0142 16.0419 13.0616 15.858 13.1552C13.7734 13.6737 12.849 15.0011 13.0846 17.1374C13.2917 17.4975 13.4576 17.8768 13.5824 18.2752C13.7789 18.7333 14.1108 19.0888 14.578 19.3418C15.2788 19.5298 15.99 19.6721 16.7113 19.7685C16.7763 19.8274 16.8238 19.8985 16.8535 19.9818C15.9789 19.9868 15.1019 20.0817 14.2224 20.2663C13.8136 19.9262 13.6003 19.9736 13.5824 20.4085C13.4414 20.433 13.3466 20.3855 13.298 20.2663C12.9732 19.7748 12.6177 19.3006 12.2313 18.8441C11.983 18.5108 12.0067 18.2264 12.3024 17.9907C12.2173 17.8065 12.1462 17.617 12.0891 17.4218C11.9843 17.7199 11.8184 17.957 11.5913 18.1329C11.5913 18.0381 11.5913 17.9434 11.5913 17.8485C11.6499 17.0815 11.6499 16.323 11.5913 15.5729C11.7124 15.0409 11.8546 14.5194 12.018 14.0085C12.2076 14.0085 12.3972 14.0085 12.5869 14.0085C12.6747 13.5964 12.8407 13.2171 13.0846 12.8707C13.615 12.4521 14.1602 12.0728 14.7202 11.7329C15.0046 11.5907 15.2891 11.4485 15.5735 11.3063C15.5262 10.8796 15.7158 10.69 16.1424 10.7374C16.0102 10.0642 15.7493 10.0642 15.3602 10.7374C15.3128 10.69 15.2653 10.6426 15.218 10.5952C15.2379 10.2608 15.309 9.92892 15.4313 9.59961C16.2845 9.8095 16.9719 10.2836 17.4935 11.0218C17.555 11.1783 17.4839 11.2731 17.2802 11.3063C17.0906 11.2115 16.9009 11.1167 16.7113 11.0218C16.4171 11.0679 16.3697 11.1865 16.5691 11.3774C17.0754 11.5533 17.5969 11.6244 18.1335 11.5907C18.1685 12.0131 18.4055 12.2028 18.8446 12.1596Z"
            fill="#4750AD" />
        <path fill-rule="evenodd" clip-rule="evenodd"
            d="M15.8576 13.1553C18.9141 13.6278 19.8623 15.287 18.702 18.1331C18.702 18.1804 18.702 18.2279 18.702 18.2753C16.9911 19.7855 15.2844 19.7855 13.582 18.2753C13.4572 17.8769 13.2913 17.4976 13.0842 17.1375C12.8486 15.0012 13.773 13.6738 15.8576 13.1553Z"
            fill="#FAFBFC" />
        <path fill-rule="evenodd" clip-rule="evenodd"
            d="M14.72 11.7334C14.16 12.0733 13.6148 12.4525 13.0844 12.8712C12.8405 13.2175 12.6745 13.5968 12.5867 14.009C12.397 14.009 12.2074 14.009 12.0178 14.009C11.8544 14.5198 11.7122 15.0413 11.5911 15.5734C11.6497 16.3235 11.6497 17.0819 11.5911 17.849C10.8672 15.604 11.4361 13.7313 13.2978 12.2312C13.7612 12.0226 14.2353 11.8567 14.72 11.7334Z"
            fill="#4E549B" />
        <path fill-rule="evenodd" clip-rule="evenodd"
            d="M18.8444 12.1599C20.7741 13.6449 21.3905 15.5412 20.6933 17.8488C20.7169 16.9941 20.6931 16.1408 20.6222 15.2888C20.5748 15.2414 20.5273 15.1939 20.48 15.1465C20.4097 15.3789 20.3861 15.616 20.4088 15.8577C20.2666 15.8577 20.1244 15.8577 19.9822 15.8577C20.0233 15.4098 19.9522 14.9831 19.7688 14.5777C19.5787 14.3977 19.3654 14.3266 19.1288 14.3643C19.4958 15.3946 19.638 16.4612 19.5555 17.5643C19.4133 17.5643 19.2711 17.5643 19.1288 17.5643C19.1288 17.7539 19.1288 17.9436 19.1288 18.1332C18.9866 18.1332 18.8444 18.1332 18.7022 18.1332C19.8624 15.2872 18.9142 13.628 15.8577 13.1554C16.0416 13.0618 16.255 13.0144 16.4977 13.0132C17.0504 13.0745 17.5957 13.1693 18.1333 13.2977C18.1575 13.1096 18.1101 12.9437 17.9911 12.7999C17.422 12.6813 16.8531 12.5628 16.2844 12.4443C15.8603 12.5627 15.4336 12.5864 15.0044 12.5154C15.1641 12.367 15.3537 12.2722 15.5733 12.231C16.4306 12.1129 17.2839 12.1366 18.1333 12.3021C18.4031 12.7651 18.7822 13.0496 19.2711 13.1554C19.1938 12.7944 19.0516 12.4626 18.8444 12.1599Z"
            fill="#4951A2" />
        <path fill-rule="evenodd" clip-rule="evenodd"
            d="M5.47559 14.7197C5.63835 14.9473 5.80428 15.1844 5.97336 15.4308C6.08693 14.8728 6.15804 14.8728 6.1867 15.4308C5.77614 16.0171 5.84726 16.5386 6.40003 16.9953C6.49711 17.6198 6.61563 18.236 6.75559 18.8442C5.91943 17.6085 5.49277 16.2337 5.47559 14.7197Z"
            fill="#4D5499" />
        <path fill-rule="evenodd" clip-rule="evenodd"
            d="M20.6933 17.8487C20.6933 17.9436 20.6933 18.0383 20.6933 18.1332C20.4731 18.1788 20.3782 18.321 20.4088 18.5598C20.2625 19.0421 19.978 19.4213 19.5555 19.6976C19.3255 19.7741 19.0884 19.8215 18.8444 19.8398C19.0283 19.4116 19.1705 19.0086 19.271 18.631C18.9956 18.6136 18.806 18.4951 18.7021 18.2754C18.7021 18.228 18.7021 18.1805 18.7021 18.1332C18.8444 18.1332 18.9866 18.1332 19.1288 18.1332C19.1288 17.9436 19.1288 17.7539 19.1288 17.5643C19.271 17.5643 19.4133 17.5643 19.5555 17.5643C19.638 16.4612 19.4957 15.3945 19.1288 14.3643C19.3653 14.3266 19.5787 14.3977 19.7688 14.5776C19.9521 14.9831 20.0233 15.4098 19.9821 15.8576C20.1244 15.8576 20.2666 15.8576 20.4088 15.8576C20.3861 15.616 20.4097 15.3789 20.4799 15.1465C20.5273 15.1939 20.5748 15.2414 20.6221 15.2887C20.6931 16.1408 20.7169 16.9941 20.6933 17.8487Z"
            fill="#474FAD" />
        <path fill-rule="evenodd" clip-rule="evenodd"
            d="M7.32426 7.60938C7.5613 7.60938 7.79832 7.60938 8.03537 7.60938C8.03158 7.99761 8.1264 8.35317 8.31981 8.67604C8.06742 9.4893 7.68816 10.2241 7.18203 10.8805C6.8479 12.6309 6.82419 14.385 7.11092 16.1427C7.54304 16.7325 7.75637 17.3963 7.75092 18.1338C7.89314 18.1338 8.03537 18.1338 8.17759 18.1338C8.3776 18.2011 8.47242 18.3433 8.46203 18.5605C8.4573 19.0947 8.31507 19.5687 8.03537 19.9827C8.22499 19.9827 8.41463 19.9827 8.60426 19.9827C8.60426 19.7931 8.60426 19.6034 8.60426 19.4138C8.74648 19.4138 8.8887 19.4138 9.03092 19.4138C9.0049 19.7603 9.09972 20.0685 9.31537 20.3383C9.10583 20.4392 9.01103 20.6051 9.03092 20.836C9.17314 20.836 9.31537 20.836 9.45759 20.836C9.45759 21.0256 9.45759 21.2153 9.45759 21.4049C9.86004 21.3773 10.2393 21.2825 10.5954 21.1205C10.5554 21.4708 10.4132 21.779 10.1687 22.0449C9.68149 22.221 9.44446 22.055 9.45759 21.5472C8.71416 21.231 8.14528 20.7095 7.75092 19.9827C7.62053 19.8935 7.47831 19.846 7.32426 19.8405C7.09915 19.5329 6.90952 19.2011 6.75537 18.8449C6.61541 18.2368 6.49689 17.6205 6.39981 16.996C5.84704 16.5394 5.77592 16.0178 6.18648 15.4316C6.15782 14.8735 6.08671 14.8735 5.97314 15.4316C5.80406 15.1851 5.63813 14.948 5.47537 14.7205C5.1901 12.7352 5.52194 10.8389 6.47092 9.0316C6.6911 8.98592 6.78592 8.84369 6.75537 8.60493C6.90735 8.25383 7.09697 7.92197 7.32426 7.60938Z"
            fill="#4851AD" />
        <path fill-rule="evenodd" clip-rule="evenodd"
            d="M20.6934 18.1338C20.6319 18.3059 20.5371 18.4481 20.4089 18.5605C20.3783 18.3217 20.4732 18.1794 20.6934 18.1338Z"
            fill="#5B5E6E" />
        <path fill-rule="evenodd" clip-rule="evenodd"
            d="M13.298 20.2663C12.5294 19.7327 11.9605 19.0216 11.5913 18.133C11.8184 17.9571 11.9843 17.72 12.0891 17.4219C12.1462 17.617 12.2173 17.8066 12.3024 17.9908C12.0067 18.2264 11.983 18.5109 12.2313 18.8441C12.6177 19.3006 12.9732 19.7748 13.298 20.2663Z"
            fill="#4F5591" />
        <path fill-rule="evenodd" clip-rule="evenodd"
            d="M13.582 18.2754C15.2844 19.7856 16.9911 19.7856 18.702 18.2754C18.8059 18.4951 18.9954 18.6136 19.2709 18.6309C19.1704 19.0085 19.0281 19.4116 18.8443 19.8398C19.0883 19.8215 19.3254 19.7741 19.5554 19.6976C18.8155 20.5554 17.8673 21.0531 16.7109 21.1909C15.5178 21.4576 14.4749 21.1968 13.582 20.4087C13.5999 19.9738 13.8132 19.9264 14.222 20.2665C15.1015 20.0819 15.9785 19.987 16.8531 19.9821C16.8234 19.8987 16.7759 19.8276 16.7109 19.7687C15.9896 19.6723 15.2785 19.5301 14.5776 19.3421C14.1104 19.089 13.7785 18.7335 13.582 18.2754Z"
            fill="#4953A5" />
        <path fill-rule="evenodd" clip-rule="evenodd"
            d="M24.6753 14.7197C24.6517 15.5743 24.6755 16.4277 24.7465 17.2797C24.7938 17.2324 24.8413 17.1849 24.8887 17.1375C24.9124 17.3035 24.936 17.4693 24.9598 17.6353C24.5311 18.563 24.0097 19.4401 23.3953 20.2664C23.5644 20.3985 23.754 20.4459 23.9642 20.4086C22.8786 21.7313 21.6935 22.9639 20.4087 24.1064C20.3863 23.9111 20.4101 23.7214 20.4798 23.5375C20.7207 23.29 20.8867 23.0056 20.9776 22.6842C20.7823 22.7065 20.5926 22.6827 20.4087 22.6131C21.044 22.1203 21.6365 21.5751 22.1865 20.9775C22.2561 20.7936 22.2799 20.6039 22.2576 20.4086C22.1153 20.4086 21.9731 20.4086 21.8309 20.4086C21.8558 20.811 21.6662 21.048 21.262 21.1197C21.0325 21.7124 20.6058 22.1154 19.982 22.3286C19.4409 22.9533 18.872 23.5459 18.2753 24.1064C18.2007 24.7032 17.8687 24.9876 17.2798 24.9597C19.2557 22.9831 21.1994 20.9445 23.1109 18.8442C23.8714 17.5534 24.3929 16.1786 24.6753 14.7197Z"
            fill="#4B53A0" />
        <path fill-rule="evenodd" clip-rule="evenodd"
            d="M23.1109 18.8441C23.5435 18.5051 23.8755 18.0784 24.1064 17.5641C24.3667 17.3469 24.5089 17.418 24.5331 17.7774C24.1114 18.5254 23.6136 19.2129 23.0398 19.8397C23.0149 20.2175 23.0386 20.5969 23.1109 20.9774C22.9687 20.9774 22.8264 20.9774 22.6842 20.9774C22.4092 20.3586 22.5276 19.8371 23.0398 19.413C23.1095 19.2291 23.1332 19.0394 23.1109 18.8441Z"
            fill="#484EB4" />
        <path fill-rule="evenodd" clip-rule="evenodd"
            d="M8.462 18.5596C10.8665 21.1777 13.3554 23.7377 15.9287 26.2396C16.3708 25.7728 16.8213 25.3461 17.2798 24.9596C16.9433 25.6043 16.4455 26.0783 15.7864 26.3818C15.668 26.358 15.5494 26.3344 15.4309 26.3107C15.1564 25.8765 14.8008 25.5209 14.3642 25.244C14.1702 25.3518 14.0043 25.2807 13.8664 25.0307C13.9315 24.9718 13.9789 24.9007 14.0087 24.8173C13.6222 24.699 13.3852 24.8649 13.2976 25.3151C13.4642 25.9213 13.8435 26.3242 14.4353 26.524C14.5707 26.7437 14.6181 26.9808 14.5776 27.2351C14.4725 27.2538 14.3776 27.23 14.2931 27.164C12.6101 25.4811 10.9272 23.798 9.24422 22.1151C8.57424 21.3747 7.93424 20.6162 7.32422 19.8396C7.47827 19.8451 7.6205 19.8926 7.75089 19.9818C8.14524 20.7085 8.71413 21.2301 9.45755 21.5462C9.44443 22.0541 9.68145 22.2201 10.1687 22.044C10.4131 21.7781 10.5554 21.4699 10.5953 21.1196C10.2392 21.2816 9.86 21.3764 9.45755 21.404C9.45755 21.2144 9.45755 21.0247 9.45755 20.8351C9.31533 20.8351 9.17311 20.8351 9.03089 20.8351C9.01099 20.6042 9.10579 20.4383 9.31533 20.3373C9.09968 20.0676 9.00486 19.7594 9.03089 19.4129C8.88866 19.4129 8.74644 19.4129 8.60422 19.4129C8.60422 19.6025 8.60422 19.7922 8.60422 19.9818C8.41459 19.9818 8.22495 19.9818 8.03533 19.9818C8.31504 19.5678 8.45726 19.0938 8.462 18.5596Z"
            fill="#4B52A3" />
        <path fill-rule="evenodd" clip-rule="evenodd"
            d="M20.409 24.107C19.6505 24.9603 18.8445 25.7663 17.9912 26.5247C17.7528 26.4276 17.658 26.2379 17.7067 25.9558C17.1374 26.0228 16.6871 26.3073 16.3556 26.8092C16.2497 27.2422 16.0601 27.6214 15.7867 27.947C15.5639 27.7541 15.3032 27.6592 15.0045 27.6625C15.0045 27.5203 15.0045 27.3781 15.0045 27.2358C14.8623 27.2358 14.7201 27.2358 14.5779 27.2358C14.6184 26.9816 14.571 26.7445 14.4356 26.5247C13.8438 26.3249 13.4645 25.922 13.2979 25.3158C13.3855 24.8656 13.6225 24.6997 14.009 24.8181C13.9792 24.9014 13.9318 24.9725 13.8667 25.0314C14.0046 25.2814 14.1705 25.3525 14.3645 25.2447C14.8011 25.5216 15.1567 25.8772 15.4312 26.3114C15.5497 26.3352 15.6683 26.3588 15.7867 26.3825C16.4458 26.079 16.9436 25.605 17.2801 24.9603C17.869 24.9882 18.201 24.7037 18.2756 24.107C18.8723 23.5465 19.4411 22.9538 19.9823 22.3292C20.6061 22.116 21.0327 21.7129 21.2623 21.1203C21.6665 21.0486 21.8561 20.8115 21.8312 20.4092C21.9734 20.4092 22.1156 20.4092 22.2579 20.4092C22.2802 20.6045 22.2564 20.7942 22.1867 20.9781C21.6368 21.5757 21.0443 22.1208 20.409 22.6136C20.5929 22.6833 20.7826 22.7071 20.9779 22.6847C20.887 23.0062 20.721 23.2906 20.4801 23.5381C20.4104 23.722 20.3866 23.9117 20.409 24.107Z"
            fill="#4650AE" />
        <path fill-rule="evenodd" clip-rule="evenodd"
            d="M17.991 26.524C17.3302 27.2795 16.6191 27.9906 15.8576 28.6573C15.3266 28.2689 14.8999 27.7949 14.5776 27.2351C14.7199 27.2351 14.8621 27.2351 15.0043 27.2351C15.0043 27.3773 15.0043 27.5195 15.0043 27.6617C15.303 27.6585 15.5637 27.7533 15.7865 27.9462C16.0599 27.6206 16.2495 27.2415 16.3554 26.8084C16.6869 26.3065 17.1372 26.0221 17.7065 25.9551C17.6577 26.2371 17.7526 26.4268 17.991 26.524Z"
            fill="#4950A1" />
    </g>
    <defs>
        <clipPath id="clip0_5242_838">
            <rect width="32" height="32" fill="white" />
        </clipPath>
    </defs>
</svg>