<svg width="32" height="32" viewBox="0 0 32 32" fill="none" xmlns="http://www.w3.org/2000/svg">
    <path opacity="0.99" fill-rule="evenodd" clip-rule="evenodd"
        d="M4.64956 0C12.2165 0 19.7834 0 27.3504 0C29.65 0.943869 31.1543 2.68932 31.8632 5.23636C32.0456 12.4121 32.0456 19.5879 31.8632 26.7636C31.1543 29.3105 29.65 31.056 27.3504 32C19.7834 32 12.2165 32 4.64956 32C2.46153 31.0304 0.911678 29.3818 0 27.0545C0 19.6849 0 12.3151 0 4.94545C0.911678 2.61818 2.46153 0.969696 4.64956 0Z"
        fill="#FCFCFC" />
    <path fill-rule="evenodd" clip-rule="evenodd"
        d="M11.4873 7.27249C15.9461 7.26327 18.59 9.59054 19.4189 14.2543C19.4136 14.611 19.3224 14.9019 19.1454 15.127C19.1883 14.7275 19.1427 14.3396 19.0087 13.9634C18.4773 14.0969 18.1127 13.806 17.9146 13.0907C17.8235 13.1876 17.7323 13.2846 17.6411 13.3816C17.2765 12.7998 16.9118 12.2179 16.5471 11.6361C16.456 11.8301 16.3648 12.024 16.2736 12.2179C16.1202 11.5706 15.8467 10.9887 15.4531 10.4725C15.1866 11.1642 15.0043 11.0672 14.9061 10.1816C14.8149 10.3755 14.7238 10.5694 14.6326 10.7634C14.3591 10.2785 14.0856 9.79371 13.8121 9.30885C13.6297 8.92098 13.4474 8.92098 13.2651 9.30885C12.6269 8.65893 12.0343 7.98015 11.4873 7.27249Z"
        fill="#505050" />
    <path fill-rule="evenodd" clip-rule="evenodd"
        d="M19.6924 7.85427C22.6021 7.08848 25.2003 7.76726 27.4872 9.89064C27.8608 10.4347 28.18 11.0165 28.4445 11.6361C28.0411 12.0932 27.5852 12.481 27.077 12.7997C27.0199 12.3861 26.8832 11.9983 26.6667 11.6361C26.5756 11.7331 26.4844 11.83 26.3932 11.927C25.9374 11.3452 25.4816 10.7634 25.0257 10.1815C24.7522 10.2785 24.4787 10.3755 24.2052 10.4725C23.443 9.72264 22.668 8.99536 21.8804 8.29064C21.9716 8.19368 22.0628 8.09669 22.1539 7.99973C21.3915 7.96851 20.571 7.92002 19.6924 7.85427Z"
        fill="#828282" />
    <path fill-rule="evenodd" clip-rule="evenodd"
        d="M19.6922 7.85438C20.5709 7.92013 21.3914 7.96862 22.1538 7.99984C22.0626 8.0968 21.9714 8.19379 21.8803 8.29075C22.6679 8.99548 23.4428 9.72275 24.205 10.4726C24.4785 10.3756 24.752 10.2786 25.0255 10.1817C25.4814 10.7635 25.9372 11.3453 26.3931 11.9271C26.4842 11.8302 26.5754 11.7332 26.6666 11.6362C26.883 11.9984 27.0198 12.3863 27.0768 12.7998C26.6979 13.1239 26.2877 13.4148 25.8461 13.6726C24.4171 11.1467 22.3658 10.3709 19.6922 11.3453C19.4866 10.2507 19.0307 9.28097 18.3247 8.4362C18.6939 8.01436 19.1497 7.82041 19.6922 7.85438Z"
        fill="#6B6B6B" />
    <path fill-rule="evenodd" clip-rule="evenodd"
        d="M8.75206 7.85449C9.07696 8.19902 9.39603 8.19902 9.70932 7.85449C10.3019 8.4848 10.8945 9.11509 11.4871 9.7454C11.2813 9.94054 11.1901 10.183 11.2136 10.4727C10.0635 11.0149 9.06065 11.7906 8.20505 12.7999C8.54447 12.0712 8.27097 11.6349 7.38454 11.4909C7.69647 11.2752 7.69647 11.0328 7.38454 10.7636C7.00125 10.4667 6.63659 10.1757 6.29053 9.89086C6.87492 8.88053 7.69543 8.20172 8.75206 7.85449Z"
        fill="#2F2F2F" />
    <path fill-rule="evenodd" clip-rule="evenodd"
        d="M11.4872 7.27227C12.0341 7.97994 12.6267 8.65872 13.265 9.30864C13.4473 8.92077 13.6296 8.92077 13.812 9.30864C14.0855 9.79349 14.359 10.2783 14.6325 10.7632C14.7236 10.5692 14.8148 10.3753 14.906 10.1814C15.0041 11.067 15.1865 11.1639 15.453 10.4723C15.8465 10.9885 16.12 11.5703 16.2735 12.2177C16.3647 12.0238 16.4558 11.8299 16.547 11.6359C16.9117 12.2177 17.2764 12.7995 17.641 13.3814C17.7322 13.2844 17.8234 13.1874 17.9145 13.0905C18.1125 13.8058 18.4772 14.0967 19.0085 13.9632C19.1426 14.3394 19.1881 14.7273 19.1453 15.1268C19.0784 16.4134 18.4403 17.2376 17.2308 17.5995C14.1324 17.745 11.0327 17.7934 7.93164 17.745C10.919 17.5865 13.9275 17.3441 16.9573 17.0177C16.4853 16.3636 15.9383 15.7818 15.3162 15.2723C13.9894 15.2215 12.713 15.0761 11.4872 14.8359C13.0371 14.8359 14.5869 14.8359 16.1368 14.8359C15.8538 11.7271 14.2128 10.2725 11.2137 10.4723C11.1902 10.1826 11.2814 9.94014 11.4872 9.745C10.8946 9.11469 10.302 8.4844 9.70941 7.85409C9.39612 8.19861 9.07705 8.19861 8.75215 7.85409C9.57463 7.36696 10.4863 7.17301 11.4872 7.27227Z"
        fill="#434343" />
    <path fill-rule="evenodd" clip-rule="evenodd"
        d="M6.29057 9.89062C6.63663 10.1755 7.0013 10.4664 7.38458 10.7634C7.69651 11.0326 7.69651 11.275 7.38458 11.4906C8.27101 11.6346 8.54451 12.071 8.20509 12.7997C8.00855 13.4583 7.91737 14.1371 7.93159 14.8361C9.11676 14.8361 10.302 14.8361 11.4871 14.8361C12.713 15.0762 13.9893 15.2217 15.3162 15.2724C15.9383 15.782 16.4853 16.3638 16.9572 17.0179C13.9274 17.3443 10.9189 17.5867 7.93159 17.7452C7.93159 17.9391 7.93159 18.133 7.93159 18.327C7.76273 18.3592 7.62598 18.4562 7.52134 18.6179C7.43669 18.2496 7.29993 17.9102 7.11108 17.5997C7.20224 17.5028 7.29342 17.4058 7.38458 17.3088C6.90349 17.0156 6.58439 16.5792 6.42732 15.9997C6.33616 16.1937 6.24498 16.3876 6.15382 16.5815C5.96679 16.208 6.01239 15.8687 6.29057 15.5634C5.97147 15.2239 5.6524 14.8846 5.33331 14.5452C5.0598 14.8361 4.7863 15.127 4.51279 15.4179C4.45536 14.9646 4.31861 14.5767 4.10254 14.2543C4.33775 12.4919 5.0671 11.0373 6.29057 9.89062Z"
        fill="#1F1F1F" />
    <path opacity="0.999" fill-rule="evenodd" clip-rule="evenodd"
        d="M11.2137 10.4722C14.2128 10.2725 15.8538 11.727 16.1367 14.8358C14.5869 14.8358 13.037 14.8358 11.4872 14.8358C10.302 14.8358 9.11679 14.8358 7.93161 14.8358C7.91739 14.1368 8.00858 13.458 8.20512 12.7995C9.06072 11.7901 10.0635 11.0144 11.2137 10.4722Z"
        fill="#F8F8F8" />
    <path fill-rule="evenodd" clip-rule="evenodd"
        d="M4.10237 14.2549C4.31843 14.5774 4.45519 14.9653 4.51262 15.4185C4.78613 15.1276 5.05963 14.8367 5.33313 14.5458C5.65223 14.8852 5.9713 15.2246 6.2904 15.564C6.01222 15.8693 5.96662 16.2087 6.15364 16.5822C6.2448 16.3882 6.33599 16.1943 6.42715 16.0003C6.58422 16.5798 6.90332 17.0162 7.38441 17.3094C7.29325 17.4064 7.20207 17.5034 7.11091 17.6003C7.29976 17.9109 7.43651 18.2503 7.52116 18.6185C7.62581 18.4568 7.76256 18.3598 7.93142 18.3276C9.05582 21.1093 11.0615 22.3214 13.9485 21.964C14.5763 22.9232 15.3056 23.7959 16.1365 24.5822C11.9144 26.2954 8.31326 25.3742 5.33313 21.8185C4.2436 19.4327 3.83335 16.9115 4.10237 14.2549Z"
        fill="#151515" />
    <path fill-rule="evenodd" clip-rule="evenodd"
        d="M14.4957 18.9092C15.2811 19.1493 16.1016 19.3917 16.9572 19.6365C17.8393 20.4436 18.7054 21.3648 19.5555 22.4001C19.6466 22.3031 19.7378 22.2061 19.829 22.1092C20.5011 22.5391 21.1849 22.927 21.8803 23.2728C22.1379 23.2413 22.3658 23.1444 22.564 22.9819C23.276 23.4256 23.9597 23.7165 24.6153 23.8546C24.7756 23.7937 24.9123 23.6968 25.0256 23.5637C25.1596 23.9399 25.2052 24.3278 25.1623 24.7274C19.9496 26.4635 16.3029 24.6696 14.2222 19.3455C14.2413 19.1231 14.3325 18.9776 14.4957 18.9092Z"
        fill="#212121" />
    <path fill-rule="evenodd" clip-rule="evenodd"
        d="M14.4956 18.9091C15.6946 18.8144 16.8798 18.9114 18.0512 19.2C19.4359 21.7847 21.4416 22.5119 24.0682 21.3819C24.6897 20.7922 25.2822 20.1619 25.846 19.4909C26.7254 20.1226 27.5002 20.8499 28.1708 21.6728C27.5674 23.1389 26.5645 24.1571 25.1622 24.7273C25.2051 24.3278 25.1595 23.9399 25.0255 23.5637C24.9123 23.6967 24.7755 23.7937 24.6152 23.8546C23.9597 23.7164 23.2759 23.4255 22.564 22.9819C22.3658 23.1443 22.1378 23.2413 21.8802 23.2728C21.1848 22.9269 20.501 22.539 19.8289 22.1091C19.7378 22.2061 19.6466 22.3031 19.5554 22.4C18.7053 21.3647 17.8392 20.4435 16.9571 19.6364C16.1016 19.3917 15.2811 19.1492 14.4956 18.9091Z"
        fill="#303030" />
</svg>