<svg width="280" height="280" viewBox="0 0 280 280" fill="none" xmlns="http://www.w3.org/2000/svg">
    <g clip-path="url(#clip0_5123_45)">
        <path fill-rule="evenodd" clip-rule="evenodd"
            d="M-0.5 -0.5C40.5 -0.5 81.5 -0.5 122.5 -0.5C107.607 1.94623 93.2741 6.27956 79.5 12.5C79.5 12.8333 79.5 13.1667 79.5 13.5C68.72 17.2346 59.0534 23.0679 50.5 31C49.552 31.4828 48.552 31.6495 47.5 31.5C43.1667 37.8333 37.8333 43.1667 31.5 47.5C31.5 48.5 31.5 49.5 31.5 50.5C27.156 54.5249 23.4894 59.1916 20.5 64.5C18.5247 68.1108 16.8581 71.7774 15.5 75.5C15.5 76.8333 15.5 78.1667 15.5 79.5C14.325 79.281 13.325 79.6143 12.5 80.5C8.70939 88.1115 6.04272 96.1115 4.5 104.5C2.44859 112.091 0.781925 119.758 -0.5 127.5C-0.5 84.8333 -0.5 42.1667 -0.5 -0.5Z"
            fill="#FCFDFD" />
        <path fill-rule="evenodd" clip-rule="evenodd"
            d="M157.5 -0.5C198.167 -0.5 238.833 -0.5 279.5 -0.5C279.5 39.5 279.5 79.5 279.5 119.5C278.833 119.5 278.5 119.167 278.5 118.5C278.573 116.973 277.906 115.973 276.5 115.5C276.167 114.833 275.833 114.167 275.5 113.5C244.326 112.754 212.993 112.088 181.5 111.5C182.711 104.19 183.878 96.8567 185 89.5C187.973 82.4803 190.473 75.3136 192.5 68C213.525 66.5165 234.525 66.0165 255.5 66.5C256.837 59.3518 255.17 53.1851 250.5 48C249.552 47.5172 248.552 47.3505 247.5 47.5C246.833 47.5 246.167 47.5 245.5 47.5C241.741 43.5309 238.074 39.3643 234.5 35C230.624 32.2722 226.957 29.4388 223.5 26.5C223.047 25.5416 222.381 24.7083 221.5 24C216.763 21.5911 212.096 19.0911 207.5 16.5C206.791 15.596 205.791 15.2627 204.5 15.5C201.187 12.8794 197.52 10.7128 193.5 9C188.236 8.10128 183.236 6.43461 178.5 4C171.276 2.92378 164.276 1.42378 157.5 -0.5Z"
            fill="#FDFEFE" />
        <path fill-rule="evenodd" clip-rule="evenodd"
            d="M136.5 -0.5C138.833 -0.5 141.167 -0.5 143.5 -0.5C151.303 1.45387 159.303 3.12054 167.5 4.5C159.483 4.49885 151.483 4.16552 143.5 3.5C143.5 4.83333 143.5 6.16667 143.5 7.5C147.027 7.39643 150.027 8.56309 152.5 11C150.177 12.2043 147.677 13.0376 145 13.5C142.084 10.5582 140.584 11.2249 140.5 15.5C138.549 15.7733 137.049 15.1066 136 13.5C135.798 15.2556 135.298 16.9223 134.5 18.5C130.47 22.7419 125.803 26.0752 120.5 28.5C119.614 29.325 119.281 30.325 119.5 31.5C114.71 33.6298 111.71 37.2965 110.5 42.5C106.553 46.8433 101.553 48.5099 95.5 47.5C95.736 49.9732 97.0693 51.6399 99.5 52.5C97.9936 53.7472 96.4936 53.7472 95 52.5C90.0126 54.2126 84.8459 54.8793 79.5 54.5C79.2011 56.604 79.5344 58.604 80.5 60.5C83.852 59.6631 86.852 58.1631 89.5 56C91.4727 55.5045 93.4727 55.3379 95.5 55.5C95.5 56.5 95.5 57.5 95.5 58.5C97.5 58.5 99.5 58.5 101.5 58.5C94.3595 60.449 87.0262 62.1157 79.5 63.5C70.5505 63.0127 61.7172 63.6793 53 65.5C52.1667 65.1667 51.3333 64.8333 50.5 64.5C52.0453 63.5481 53.712 63.2148 55.5 63.5C55.5 61.8333 55.5 60.1667 55.5 58.5C64.5297 60.1267 68.863 56.46 68.5 47.5C72.1667 47.5 75.8333 47.5 79.5 47.5C81.1667 43.8333 83.8333 41.1667 87.5 39.5C89.6298 34.7105 93.2965 31.7105 98.5 30.5C100.656 28.3711 102.323 26.0378 103.5 23.5C108.042 21.629 110.708 18.2957 111.5 13.5C116.833 13.5 122.167 13.5 127.5 13.5C127.5 12.1667 127.5 10.8333 127.5 9.5C122.014 9.06948 116.681 9.06948 111.5 9.5C111.5 8.5 111.5 7.5 111.5 6.5C120.778 6.38383 129.778 4.88383 138.5 2C137.619 1.2917 136.953 0.458367 136.5 -0.5Z"
            fill="#5BC4F6" />
        <path fill-rule="evenodd" clip-rule="evenodd"
            d="M122.5 -0.5C126.167 -0.5 129.833 -0.5 133.5 -0.5C132.909 0.151487 132.243 0.818153 131.5 1.5C123.327 3.70651 114.994 4.87318 106.5 5C105.833 5.66667 105.167 6.33333 104.5 7C101.305 7.18052 98.3054 7.68052 95.5 8.5C90.3431 10.4039 85.0098 11.7372 79.5 12.5C93.2741 6.27956 107.607 1.94623 122.5 -0.5Z"
            fill="#78C8DF" />
        <path fill-rule="evenodd" clip-rule="evenodd"
            d="M143.5 -0.5C148.167 -0.5 152.833 -0.5 157.5 -0.5C164.276 1.42378 171.276 2.92378 178.5 4C183.236 6.43461 188.236 8.10128 193.5 9C197.52 10.7128 201.187 12.8794 204.5 15.5C201.246 15.7931 198.246 15.1264 195.5 13.5C194.432 12.5655 193.099 12.2322 191.5 12.5C191.5 11.5 191.5 10.5 191.5 9.5C187.629 9.81497 183.962 9.48164 180.5 8.5C176.817 5.48904 172.484 4.15571 167.5 4.5C159.303 3.12054 151.303 1.45387 143.5 -0.5Z"
            fill="#69B4DD" />
        <path fill-rule="evenodd" clip-rule="evenodd"
            d="M180.5 8.5C183.962 9.48164 187.629 9.81497 191.5 9.5C191.5 10.5 191.5 11.5 191.5 12.5C193.099 12.2322 194.432 12.5655 195.5 13.5C192.408 14.336 189.241 15.0027 186 15.5C182.348 14.8359 178.848 14.8359 175.5 15.5C175.5 18.1667 175.5 20.8333 175.5 23.5C172.962 24.6771 170.629 26.3438 168.5 28.5C167.833 27.8333 167.167 27.1667 166.5 26.5C164.49 28.1713 162.157 28.838 159.5 28.5C159.5 29.5 159.5 30.5 159.5 31.5C154.183 35.161 148.85 38.8276 143.5 42.5C138.822 40.7507 134.489 41.4173 130.5 44.5C129.614 45.325 129.281 46.325 129.5 47.5C128.833 47.5 128.167 47.5 127.5 47.5C128.034 42.0156 129.034 36.6823 130.5 31.5C132.167 31.5 133.833 31.5 135.5 31.5C135.5 35.5 137.5 37.5 141.5 37.5C142.24 31.7396 144.073 26.4063 147 21.5C149.379 19.4875 151.879 17.6541 154.5 16C156.134 15.5065 157.801 15.3398 159.5 15.5C159.5 14.5 159.5 13.5 159.5 12.5C164.854 12.4312 170.187 12.0978 175.5 11.5C175.351 10.448 175.517 9.44802 176 8.5C177.299 8.96624 178.799 8.96624 180.5 8.5Z"
            fill="#53B8F5" />
        <path fill-rule="evenodd" clip-rule="evenodd"
            d="M207.5 16.5C212.096 19.0911 216.763 21.5911 221.5 24C222.381 24.7083 223.047 25.5416 223.5 26.5C220.428 25.3162 217.428 23.9829 214.5 22.5C214.167 22.5 213.833 22.5 213.5 22.5C211.97 20.6535 209.97 19.6535 207.5 19.5C207.5 18.5 207.5 17.5 207.5 16.5Z"
            fill="#79B5DB" />
        <path fill-rule="evenodd" clip-rule="evenodd"
            d="M207.5 25.5001C207.5 30.1668 207.5 34.8334 207.5 39.5001C203.833 41.1668 201.167 43.8334 199.5 47.5001C196.833 47.5001 194.167 47.5001 191.5 47.5001C189.801 47.3399 188.134 47.5066 186.5 48.0001C182.645 50.3779 178.978 52.8779 175.5 55.5001C173.545 58.3184 171.712 61.3184 170 64.5001C168.092 67.3324 167.259 66.9991 167.5 63.5001C164.962 64.6772 162.629 66.3439 160.5 68.5001C160.562 77.9307 155.895 81.7641 146.5 80.0001C145.667 80.8334 144.833 81.6668 144 82.5001C143.751 81.3761 143.251 80.3761 142.5 79.5001C141.52 82.0866 141.187 84.7532 141.5 87.5001C140.178 87.3301 139.011 87.6635 138 88.5001C137.503 90.8099 137.337 93.1433 137.5 95.5001C138.833 95.5001 140.167 95.5001 141.5 95.5001C141.372 93.3454 141.872 91.3454 143 89.5001C143.667 92.1668 143.667 94.8334 143 97.5001C141.315 99.0176 139.815 100.684 138.5 102.5C136.829 100.49 136.162 98.157 136.5 95.5001C135.5 95.5001 134.5 95.5001 133.5 95.5001C133.784 93.5854 133.451 91.9188 132.5 90.5001C134.69 81.702 136.357 72.702 137.5 63.5001C138.5 63.5001 139.5 63.5001 140.5 63.5001C142.256 62.448 142.923 60.7813 142.5 58.5001C145.5 58.5001 148.5 58.5001 151.5 58.5001C151.5 57.5001 151.5 56.5001 151.5 55.5001C150.5 55.5001 149.5 55.5001 148.5 55.5001C148.116 53.3353 148.783 51.6686 150.5 50.5001C151.192 51.0254 151.692 51.692 152 52.5001C153.438 51.0998 154.271 49.4331 154.5 47.5001C157.943 47.3502 159.943 49.0169 160.5 52.5001C163.279 50.3247 165.446 47.6581 167 44.5001C167.483 45.4481 167.649 46.4481 167.5 47.5001C172.29 45.3703 175.29 41.7036 176.5 36.5001C178.629 34.3439 180.962 32.6772 183.5 31.5001C183.351 32.5521 183.517 33.5521 184 34.5001C185.554 31.3421 187.721 28.6755 190.5 26.5001C191.452 28.0454 191.785 29.7121 191.5 31.5001C193.833 31.5001 196.167 31.5001 198.5 31.5001C198.682 26.2064 199.182 26.2064 200 31.5001C200.863 27.482 203.363 25.482 207.5 25.5001Z"
            fill="#4DAAF3" />
        <path fill-rule="evenodd" clip-rule="evenodd"
            d="M195.5 13.5C198.246 15.1264 201.246 15.7931 204.5 15.5C205.791 15.2627 206.791 15.596 207.5 16.5C207.5 17.5 207.5 18.5 207.5 19.5C209.97 19.6535 211.97 20.6535 213.5 22.5C211.516 22.6168 209.85 21.9501 208.5 20.5C207.548 22.0453 207.215 23.712 207.5 25.5C203.363 25.4819 200.863 27.4819 200 31.5C199.182 26.2063 198.682 26.2063 198.5 31.5C196.167 31.5 193.833 31.5 191.5 31.5C191.785 29.712 191.452 28.0453 190.5 26.5C187.721 28.6754 185.554 31.342 184 34.5C183.517 33.552 183.351 32.552 183.5 31.5C180.962 32.6771 178.629 34.3438 176.5 36.5C175.29 41.7035 172.29 45.3702 167.5 47.5C167.649 46.448 167.483 45.448 167 44.5C165.446 47.658 163.279 50.3246 160.5 52.5C159.943 49.0168 157.943 47.3501 154.5 47.5C154.271 49.433 153.438 51.0997 152 52.5C151.692 51.6919 151.192 51.0253 150.5 50.5C148.783 51.6685 148.116 53.3352 148.5 55.5C149.5 55.5 150.5 55.5 151.5 55.5C151.5 56.5 151.5 57.5 151.5 58.5C148.5 58.5 145.5 58.5 142.5 58.5C142.923 60.7812 142.256 62.4479 140.5 63.5C141.683 56.5449 142.683 49.5449 143.5 42.5C148.85 38.8276 154.183 35.161 159.5 31.5C159.5 30.5 159.5 29.5 159.5 28.5C162.157 28.838 164.49 28.1713 166.5 26.5C167.167 27.1667 167.833 27.8333 168.5 28.5C170.629 26.3438 172.962 24.6771 175.5 23.5C175.5 20.8333 175.5 18.1667 175.5 15.5C178.848 14.8359 182.348 14.8359 186 15.5C189.241 15.0027 192.408 14.336 195.5 13.5Z"
            fill="#51B1F4" />
        <path fill-rule="evenodd" clip-rule="evenodd"
            d="M95.5 8.5C95.5 10.5 95.5 12.5 95.5 14.5C97.5273 14.3379 99.5273 14.5045 101.5 15C96.8452 15.4992 92.1785 15.6658 87.5 15.5C87.5 16.8333 87.5 18.1667 87.5 19.5C86.5 19.5 85.5 19.5 84.5 19.5C84.6621 21.5273 84.4955 23.5273 84 25.5C82.6439 26.3802 81.1439 26.7135 79.5 26.5C79.6567 25.1266 79.49 23.7932 79 22.5C75.9607 23.6031 73.1274 25.1031 70.5 27C71.0253 27.6924 71.6919 28.1924 72.5 28.5C74.7466 27.6258 77.0799 27.2924 79.5 27.5C79.5 28.8333 79.5 30.1667 79.5 31.5C74.1667 31.5 68.8333 31.5 63.5 31.5C63.665 34.8499 63.4983 38.1832 63 41.5C62.6667 41.1667 62.3333 40.8333 62 40.5C60.3523 41.717 58.519 42.5503 56.5 43C57.1667 44.3333 57.8333 45.6667 58.5 47C54.8484 47.4986 51.1817 47.6653 47.5 47.5C47.6633 49.8568 47.4966 52.1902 47 54.5C45.7012 54.0338 44.2012 54.0338 42.5 54.5C42.67 55.8221 42.3366 56.9887 41.5 58C39.5 59 37.5 60 35.5 61C37.4096 61.4083 38.4096 62.5749 38.5 64.5C37.9361 66.8193 37.4361 69.1526 37 71.5C35.575 70.7877 34.075 70.621 32.5 71C34.1134 68.7724 34.78 66.2724 34.5 63.5C33.5 63.5 32.5 63.5 31.5 63.5C30.8826 59.5779 30.2159 59.5779 29.5 63.5C31.0257 67.3639 31.6923 71.3639 31.5 75.5C30.5 75.5 29.5 75.5 28.5 75.5C27.7637 66.5078 26.0971 66.5078 23.5 75.5C25.0453 76.4519 26.712 76.7852 28.5 76.5C28.5 77.5 28.5 78.5 28.5 79.5C26.088 79.6695 23.9214 79.0028 22 77.5C19.9534 78.6094 17.7867 79.2761 15.5 79.5C15.5 78.1667 15.5 76.8333 15.5 75.5C20.6062 75.8918 23.4395 73.5584 24 68.5C25.0674 67.8095 26.2341 67.3095 27.5 67C27.1667 66.6667 26.8333 66.3333 26.5 66C27.2744 63.595 27.7744 61.095 28 58.5C29.9019 56.1159 31.0686 53.4492 31.5 50.5C33.9948 49.8011 36.3281 48.8011 38.5 47.5C41.3186 41.7015 45.9853 38.0349 52.5 36.5C53.9501 35.1502 54.6168 33.4835 54.5 31.5C57.1633 29.6773 60.1633 28.6773 63.5 28.5C63.5 26.5 63.5 24.5 63.5 22.5C66.6074 22.6488 69.6074 22.1488 72.5 21C74.0745 17.599 76.4079 15.099 79.5 13.5C79.5 13.1667 79.5 12.8333 79.5 12.5C85.0098 11.7372 90.3431 10.4039 95.5 8.5Z"
            fill="#5ED0F8" />
        <path fill-rule="evenodd" clip-rule="evenodd"
            d="M79.5 13.5C76.4079 15.099 74.0745 17.599 72.5 21C69.6074 22.1488 66.6074 22.6488 63.5 22.5C63.5 24.5 63.5 26.5 63.5 28.5C60.1633 28.6773 57.1633 29.6773 54.5 31.5C54.6168 33.4835 53.9501 35.1502 52.5 36.5C45.9853 38.0349 41.3186 41.7015 38.5 47.5C36.3281 48.8011 33.9948 49.8011 31.5 50.5C31.5 49.5 31.5 48.5 31.5 47.5C37.8333 43.1667 43.1667 37.8333 47.5 31.5C48.552 31.6495 49.552 31.4828 50.5 31C59.0534 23.0679 68.72 17.2346 79.5 13.5Z"
            fill="#77D0E8" />
        <path fill-rule="evenodd" clip-rule="evenodd"
            d="M167.5 4.5C172.484 4.15571 176.817 5.48904 180.5 8.5C178.799 8.96624 177.299 8.96624 176 8.5C175.517 9.44802 175.351 10.448 175.5 11.5C170.187 12.0978 164.854 12.4312 159.5 12.5C159.5 13.5 159.5 14.5 159.5 15.5C157.801 15.3398 156.134 15.5065 154.5 16C151.879 17.6541 149.379 19.4875 147 21.5C144.073 26.4063 142.24 31.7396 141.5 37.5C137.5 37.5 135.5 35.5 135.5 31.5C133.833 31.5 132.167 31.5 130.5 31.5C129.034 36.6823 128.034 42.0156 127.5 47.5C119.631 52.7601 110.964 56.4268 101.5 58.5C99.5 58.5 97.5 58.5 95.5 58.5C95.5 57.5 95.5 56.5 95.5 55.5C93.4727 55.3379 91.4727 55.5045 89.5 56C86.852 58.1631 83.852 59.6631 80.5 60.5C79.5344 58.604 79.2011 56.604 79.5 54.5C84.8459 54.8793 90.0126 54.2126 95 52.5C96.4936 53.7472 97.9936 53.7472 99.5 52.5C97.0693 51.6399 95.736 49.9732 95.5 47.5C101.553 48.5099 106.553 46.8433 110.5 42.5C111.71 37.2965 114.71 33.6298 119.5 31.5C119.281 30.325 119.614 29.325 120.5 28.5C125.803 26.0752 130.47 22.7419 134.5 18.5C135.298 16.9223 135.798 15.2556 136 13.5C137.049 15.1066 138.549 15.7733 140.5 15.5C140.584 11.2249 142.084 10.5582 145 13.5C147.677 13.0376 150.177 12.2043 152.5 11C150.027 8.56309 147.027 7.39643 143.5 7.5C143.5 6.16667 143.5 4.83333 143.5 3.5C151.483 4.16552 159.483 4.49885 167.5 4.5Z"
            fill="#57BEF4" />
        <path fill-rule="evenodd" clip-rule="evenodd"
            d="M214.5 22.5C217.428 23.9829 220.428 25.3162 223.5 26.5C226.957 29.4388 230.624 32.2722 234.5 35C238.074 39.3643 241.741 43.5309 245.5 47.5C242.243 47.2363 240.243 45.5696 239.5 42.5C238.448 42.6495 237.448 42.4828 236.5 42C235.286 39.9506 233.62 38.4506 231.5 37.5C229.241 35.405 227.574 32.905 226.5 30C224.231 29.2419 222.064 29.4086 220 30.5C217.869 27.8982 216.035 25.2316 214.5 22.5Z"
            fill="#5AA0DB" />
        <path fill-rule="evenodd" clip-rule="evenodd"
            d="M137.5 63.5C133.59 75.9163 130.257 88.583 127.5 101.5C127.5 102.167 127.5 102.833 127.5 103.5C125.398 109.109 123.232 114.775 121 120.5C120.503 122.81 120.337 125.143 120.5 127.5C118.548 132.564 117.215 137.897 116.5 143.5C115.123 146.353 113.956 149.353 113 152.5C112.503 154.81 112.337 157.143 112.5 159.5C111.662 159.842 111.328 160.508 111.5 161.5C110.232 163.905 109.565 166.572 109.5 169.5C107.081 176.631 105.081 183.964 103.5 191.5C102.629 194.003 101.963 196.67 101.5 199.5C99.9605 201.838 99.2938 204.505 99.5 207.5C98.596 208.209 98.2627 209.209 98.5 210.5C96.6776 214.533 95.6776 218.867 95.5 223.5C91.3221 233.717 88.3221 244.384 86.5 255.5C82.0519 263.799 84.3852 269.133 93.5 271.5C94.1667 271.5 94.8333 271.5 95.5 271.5C100.491 273.909 105.825 275.576 111.5 276.5C112.167 276.5 112.833 276.5 113.5 276.5C117.919 277.972 122.586 278.638 127.5 278.5C127.5 278.833 127.5 279.167 127.5 279.5C84.8333 279.5 42.1667 279.5 -0.5 279.5C-0.5 235.5 -0.5 191.5 -0.5 147.5C0.166667 149.5 0.833333 151.5 1.5 153.5C1.74176 165.853 4.40843 177.52 9.5 188.5C9.26269 189.791 9.59603 190.791 10.5 191.5C11.6375 196.408 13.4708 201.074 16 205.5C20.723 213.236 25.8897 220.57 31.5 227.5C34.2755 233.076 37.7755 233.743 42 229.5C42.8215 226.883 43.3215 224.216 43.5 221.5C45.0396 217.002 46.3729 212.335 47.5 207.5C48.5 207.5 49.5 207.5 50.5 207.5C51.4883 202.211 52.155 196.878 52.5 191.5C53.5 191.5 54.5 191.5 55.5 191.5C57.2827 180.021 59.7827 168.687 63 157.5C63.4974 154.854 63.6641 152.187 63.5 149.5C64.7206 148.972 65.8873 148.305 67 147.5C67.3333 144.167 67.6667 140.833 68 137.5C69.5848 136.624 70.5848 135.291 71 133.5C71.2569 126.908 72.0902 120.408 73.5 114C73.4313 112.014 72.7647 110.514 71.5 109.5C61.5 108.833 51.5 108.167 41.5 107.5C40.6586 105.621 40.3253 103.621 40.5 101.5C41.5 101.5 42.5 101.5 43.5 101.5C41.7201 96.9007 42.2201 92.5674 45 88.5C46.0175 82.8434 46.8509 77.1768 47.5 71.5C47.5 70.8333 47.5 70.1667 47.5 69.5C59.1896 67.9962 70.8563 67.3296 82.5 67.5C82.3601 65.8762 83.0267 64.7096 84.5 64C93.5923 62.81 102.592 61.1433 111.5 59C115.25 57.1677 118.916 55.1677 122.5 53C124.807 52.2214 126.807 52.7214 128.5 54.5C129.944 52.3921 130.61 50.0588 130.5 47.5C132.452 45.3339 134.952 44.0006 138 43.5C139.261 43.7591 140.261 44.4258 141 45.5C139.966 51.4613 138.799 57.4613 137.5 63.5Z"
            fill="#FDFEFD" />
        <path fill-rule="evenodd" clip-rule="evenodd"
            d="M213.5 22.5C213.833 22.5 214.167 22.5 214.5 22.5C216.035 25.2316 217.869 27.8982 220 30.5C222.064 29.4086 224.231 29.2419 226.5 30C227.574 32.905 229.241 35.405 231.5 37.5C230.167 37.5 228.833 37.5 227.5 37.5C227.662 39.5273 227.495 41.5273 227 43.5C225.989 44.3366 224.822 44.67 223.5 44.5C223.5 45.5 223.5 46.5 223.5 47.5C212.833 47.8333 212.833 48.1667 223.5 48.5C223.5 49.5 223.5 50.5 223.5 51.5C228.813 50.9022 234.146 50.5688 239.5 50.5C239.5 51.8333 239.5 53.1667 239.5 54.5C228.853 53.9973 218.187 54.3306 207.5 55.5C207.5 56.8333 207.5 58.1667 207.5 59.5C221.863 59.2358 236.196 59.5692 250.5 60.5C250.309 57.0173 249.643 53.6839 248.5 50.5C253.999 53.962 254.666 57.962 250.5 62.5C230.84 61.678 211.174 61.0113 191.5 60.5C191.5 58.8333 191.5 57.1667 191.5 55.5C200.368 55.0766 209.034 54.2432 217.5 53C216.833 52.3333 216.167 51.6667 215.5 51C211.623 50.2713 207.789 50.438 204 51.5C199.792 49.914 195.625 48.5807 191.5 47.5C194.167 47.5 196.833 47.5 199.5 47.5C201.167 43.8333 203.833 41.1667 207.5 39.5C207.5 34.8333 207.5 30.1667 207.5 25.5C207.215 23.712 207.548 22.0453 208.5 20.5C209.85 21.9501 211.516 22.6168 213.5 22.5Z"
            fill="#489FEF" />
        <path fill-rule="evenodd" clip-rule="evenodd"
            d="M231.5 37.5C233.62 38.4506 235.286 39.9506 236.5 42C237.448 42.4828 238.448 42.6495 239.5 42.5C240.243 45.5696 242.243 47.2363 245.5 47.5C246.167 47.5 246.833 47.5 247.5 47.5C247.557 48.609 247.89 49.609 248.5 50.5C249.643 53.6839 250.309 57.0173 250.5 60.5C236.196 59.5692 221.863 59.2358 207.5 59.5C207.5 58.1667 207.5 56.8333 207.5 55.5C218.187 54.3306 228.853 53.9973 239.5 54.5C239.5 53.1667 239.5 51.8333 239.5 50.5C234.146 50.5688 228.813 50.9022 223.5 51.5C223.5 50.5 223.5 49.5 223.5 48.5C212.833 48.1667 212.833 47.8333 223.5 47.5C223.5 46.5 223.5 45.5 223.5 44.5C224.822 44.67 225.989 44.3366 227 43.5C227.495 41.5273 227.662 39.5273 227.5 37.5C228.833 37.5 230.167 37.5 231.5 37.5Z"
            fill="#4698F2" />
        <path fill-rule="evenodd" clip-rule="evenodd"
            d="M127.5 47.5C128.167 47.5 128.833 47.5 129.5 47.5C129.833 47.5 130.167 47.5 130.5 47.5C130.61 50.0588 129.944 52.3921 128.5 54.5C126.807 52.7214 124.807 52.2214 122.5 53C118.916 55.1677 115.25 57.1677 111.5 59C102.592 61.1433 93.5923 62.81 84.5 64C83.0267 64.7096 82.3601 65.8762 82.5 67.5C70.8563 67.3296 59.1896 67.9962 47.5 69.5C47.5774 68.2502 48.244 67.4169 49.5 67C59.7376 66.6358 69.7376 65.4692 79.5 63.5C87.0262 62.1157 94.3595 60.449 101.5 58.5C110.964 56.4268 119.631 52.7601 127.5 47.5Z"
            fill="#DDFCFE" />
        <path fill-rule="evenodd" clip-rule="evenodd"
            d="M143.5 42.5C142.683 49.5449 141.683 56.5449 140.5 63.5C139.5 63.5 138.5 63.5 137.5 63.5C138.799 57.4613 139.966 51.4613 141 45.5C140.261 44.4258 139.261 43.7591 138 43.5C134.952 44.0006 132.452 45.3339 130.5 47.5C130.167 47.5 129.833 47.5 129.5 47.5C129.281 46.325 129.614 45.325 130.5 44.5C134.489 41.4173 138.822 40.7507 143.5 42.5Z"
            fill="#69B5D8" />
        <path fill-rule="evenodd" clip-rule="evenodd"
            d="M247.5 47.5C248.552 47.3505 249.552 47.5172 250.5 48C255.17 53.1851 256.837 59.3518 255.5 66.5C234.525 66.0165 213.525 66.5165 192.5 68C190.473 75.3136 187.973 82.4803 185 89.5C183.878 96.8567 182.711 104.19 181.5 111.5C212.993 112.088 244.326 112.754 275.5 113.5C244.165 113.667 212.832 113.5 181.5 113C180.956 112.283 180.289 111.783 179.5 111.5C178.876 111.083 178.543 110.416 178.5 109.5C179.923 104.904 180.923 100.237 181.5 95.5C182.404 94.791 182.737 93.791 182.5 92.5C185.265 84.7849 187.431 76.7849 189 68.5C189.635 67.0337 190.469 65.7003 191.5 64.5C211.329 63.8333 230.996 63.1667 250.5 62.5C254.666 57.962 253.999 53.962 248.5 50.5C247.89 49.609 247.557 48.609 247.5 47.5Z"
            fill="#E9F9FC" />
        <path fill-rule="evenodd" clip-rule="evenodd"
            d="M31.5 50.5C31.0686 53.4492 29.9019 56.1159 28 58.5C27.7744 61.095 27.2744 63.595 26.5 66C26.8333 66.3333 27.1667 66.6667 27.5 67C26.2341 67.3095 25.0674 67.8095 24 68.5C23.4395 73.5584 20.6062 75.8918 15.5 75.5C16.8581 71.7774 18.5247 68.1108 20.5 64.5C23.4894 59.1916 27.156 54.5249 31.5 50.5Z"
            fill="#71CFE8" />
        <path fill-rule="evenodd" clip-rule="evenodd"
            d="M191.5 47.5C195.625 48.5807 199.792 49.914 204 51.5C207.789 50.438 211.623 50.2713 215.5 51C216.167 51.6667 216.833 52.3333 217.5 53C209.034 54.2432 200.368 55.0766 191.5 55.5C191.5 57.1667 191.5 58.8333 191.5 60.5C211.174 61.0113 230.84 61.678 250.5 62.5C230.996 63.1667 211.329 63.8333 191.5 64.5C190.469 65.7003 189.635 67.0337 189 68.5C187.431 76.7849 185.265 84.7849 182.5 92.5C182.335 89.4816 182.502 86.4816 183 83.5C185.148 76.986 186.648 70.3193 187.5 63.5C185.833 63.5 184.167 63.5 182.5 63.5C182.271 68.9777 181.271 74.311 179.5 79.5C178.495 70.1852 177.495 70.1852 176.5 79.5C173.833 79.5 171.167 79.5 168.5 79.5C168.5 80.5 168.5 81.5 168.5 82.5C165.304 83.9287 162.304 85.5954 159.5 87.5C159.5 89.1667 159.5 90.8333 159.5 92.5C156.833 92.5 154.167 92.5 151.5 92.5C151.5 93.5 151.5 94.5 151.5 95.5C149.022 96.1949 147.022 97.6949 145.5 100C142.585 99.2067 140.918 100.54 140.5 104C142.141 105.646 141.807 106.646 139.5 107C141.303 107.637 142.636 108.803 143.5 110.5C141.257 111.474 138.924 111.808 136.5 111.5C137.547 106.884 136.713 102.551 134 98.5C132.602 101.602 131.435 104.769 130.5 108C133.61 111.637 132.943 114.47 128.5 116.5C127.548 114.955 127.215 113.288 127.5 111.5C128.117 111.389 128.617 111.056 129 110.5C129.371 106.236 130.204 102.069 131.5 98C131.472 96.9302 131.139 96.0968 130.5 95.5C130.12 93.302 130.787 91.6354 132.5 90.5C133.451 91.9187 133.784 93.5853 133.5 95.5C134.5 95.5 135.5 95.5 136.5 95.5C136.162 98.1569 136.829 100.49 138.5 102.5C139.815 100.684 141.315 99.0175 143 97.5C143.667 94.8333 143.667 92.1667 143 89.5C141.872 91.3453 141.372 93.3453 141.5 95.5C140.167 95.5 138.833 95.5 137.5 95.5C137.337 93.1432 137.503 90.8098 138 88.5C139.011 87.6634 140.178 87.33 141.5 87.5C141.187 84.7531 141.52 82.0865 142.5 79.5C143.251 80.376 143.751 81.376 144 82.5C144.833 81.6667 145.667 80.8333 146.5 80C155.895 81.764 160.562 77.9306 160.5 68.5C162.629 66.3438 164.962 64.6771 167.5 63.5C167.259 66.999 168.092 67.3323 170 64.5C171.712 61.3183 173.545 58.3183 175.5 55.5C178.978 52.8778 182.645 50.3778 186.5 48C188.134 47.5065 189.801 47.3398 191.5 47.5Z"
            fill="#4DA6F1" />
        <path fill-rule="evenodd" clip-rule="evenodd"
            d="M182.5 92.5C182.737 93.791 182.404 94.791 181.5 95.5C180.5 95.5 179.5 95.5 178.5 95.5C177.646 101.121 177.313 106.788 177.5 112.5C176.761 112.631 176.094 112.464 175.5 112C176.825 106.401 176.825 100.901 175.5 95.5C175.785 93.712 175.452 92.0453 174.5 90.5C171.453 92.9181 169.12 95.9181 167.5 99.5C163.711 100.895 160.044 102.561 156.5 104.5C154.344 106.629 152.677 108.962 151.5 111.5C147.776 110.773 145.109 112.106 143.5 115.5C137.68 117.313 133.346 120.98 130.5 126.5C129.675 127.386 128.675 127.719 127.5 127.5C127.5 132.833 127.5 138.167 127.5 143.5C125.7 140.296 124.7 136.63 124.5 132.5C125.327 129.217 125.66 125.884 125.5 122.5C126.167 118.833 126.833 115.167 127.5 111.5C127.215 113.288 127.548 114.955 128.5 116.5C132.943 114.47 133.61 111.637 130.5 108C131.435 104.769 132.602 101.602 134 98.5C136.713 102.551 137.547 106.884 136.5 111.5C138.924 111.808 141.257 111.474 143.5 110.5C142.636 108.803 141.303 107.637 139.5 107C141.807 106.646 142.141 105.646 140.5 104C140.918 100.54 142.585 99.2067 145.5 100C147.022 97.6949 149.022 96.1949 151.5 95.5C151.5 94.5 151.5 93.5 151.5 92.5C154.167 92.5 156.833 92.5 159.5 92.5C159.5 90.8333 159.5 89.1667 159.5 87.5C162.304 85.5954 165.304 83.9287 168.5 82.5C168.5 81.5 168.5 80.5 168.5 79.5C171.167 79.5 173.833 79.5 176.5 79.5C177.495 70.1852 178.495 70.1852 179.5 79.5C181.271 74.311 182.271 68.9777 182.5 63.5C184.167 63.5 185.833 63.5 187.5 63.5C186.648 70.3193 185.148 76.986 183 83.5C182.502 86.4816 182.335 89.4816 182.5 92.5Z"
            fill="#479EF1" />
        <path fill-rule="evenodd" clip-rule="evenodd"
            d="M133.5 -0.5C134.5 -0.5 135.5 -0.5 136.5 -0.5C136.953 0.458367 137.619 1.2917 138.5 2C129.778 4.88383 120.778 6.38383 111.5 6.5C111.5 7.5 111.5 8.5 111.5 9.5C116.681 9.06948 122.014 9.06948 127.5 9.5C127.5 10.8333 127.5 12.1667 127.5 13.5C122.167 13.5 116.833 13.5 111.5 13.5C110.708 18.2957 108.042 21.629 103.5 23.5C102.323 26.0378 100.656 28.3711 98.5 30.5C93.2965 31.7105 89.6298 34.7105 87.5 39.5C83.8333 41.1667 81.1667 43.8333 79.5 47.5C75.8333 47.5 72.1667 47.5 68.5 47.5C68.863 56.46 64.5297 60.1267 55.5 58.5C55.5 60.1667 55.5 61.8333 55.5 63.5C53.712 63.2148 52.0453 63.5481 50.5 64.5C51.3333 64.8333 52.1667 65.1667 53 65.5C61.7172 63.6793 70.5505 63.0127 79.5 63.5C69.7376 65.4692 59.7376 66.6358 49.5 67C48.244 67.4169 47.5774 68.2502 47.5 69.5C47.5 70.1667 47.5 70.8333 47.5 71.5C44.3672 81.2777 41.5339 91.2777 39 101.5C38.3224 103.598 38.4891 105.598 39.5 107.5C39.6107 108.117 39.944 108.617 40.5 109C42.8098 109.497 45.1432 109.663 47.5 109.5C44.6912 112.025 41.6912 112.025 38.5 109.5C37.3642 107.954 36.6975 106.121 36.5 104C38.7729 96.0251 40.4395 87.8585 41.5 79.5C40.5 79.5 39.5 79.5 38.5 79.5C38.7022 77.0108 38.2022 74.6775 37 72.5C34.8975 74.3025 34.0642 76.6359 34.5 79.5C35.5 79.5 36.5 79.5 37.5 79.5C38.3029 83.1693 37.1362 85.836 34 87.5C33.8184 90.2263 33.3184 92.8929 32.5 95.5C31.5842 89.2786 29.5842 88.9453 26.5 94.5C23.8929 95.3184 21.2263 95.8184 18.5 96C17.6667 96.8333 16.8333 97.6667 16 98.5C13.6785 108.023 12.5118 117.69 12.5 127.5C11.5 127.5 10.5 127.5 9.5 127.5C9.5 122.167 9.5 116.833 9.5 111.5C8.16667 111.5 6.83333 111.5 5.5 111.5C5.5 116.833 5.5 122.167 5.5 127.5C4.5 127.5 3.5 127.5 2.5 127.5C3.0843 119.826 3.75097 112.159 4.5 104.5C6.04272 96.1115 8.70939 88.1115 12.5 80.5C13.325 79.6143 14.325 79.281 15.5 79.5C17.7867 79.2761 19.9534 78.6094 22 77.5C23.9214 79.0028 26.088 79.6695 28.5 79.5C28.5 78.5 28.5 77.5 28.5 76.5C26.712 76.7852 25.0453 76.4519 23.5 75.5C26.0971 66.5078 27.7637 66.5078 28.5 75.5C29.5 75.5 30.5 75.5 31.5 75.5C31.6923 71.3639 31.0257 67.3639 29.5 63.5C30.2159 59.5779 30.8826 59.5779 31.5 63.5C32.5 63.5 33.5 63.5 34.5 63.5C34.78 66.2724 34.1134 68.7724 32.5 71C34.075 70.621 35.575 70.7877 37 71.5C37.4361 69.1526 37.9361 66.8193 38.5 64.5C38.4096 62.5749 37.4096 61.4083 35.5 61C37.5 60 39.5 59 41.5 58C42.3366 56.9887 42.67 55.8221 42.5 54.5C44.2012 54.0338 45.7012 54.0338 47 54.5C47.4966 52.1902 47.6633 49.8568 47.5 47.5C51.1817 47.6653 54.8484 47.4986 58.5 47C57.8333 45.6667 57.1667 44.3333 56.5 43C58.519 42.5503 60.3523 41.717 62 40.5C62.3333 40.8333 62.6667 41.1667 63 41.5C63.4983 38.1832 63.665 34.8499 63.5 31.5C68.8333 31.5 74.1667 31.5 79.5 31.5C79.5 30.1667 79.5 28.8333 79.5 27.5C77.0799 27.2924 74.7466 27.6258 72.5 28.5C71.6919 28.1924 71.0253 27.6924 70.5 27C73.1274 25.1031 75.9607 23.6031 79 22.5C79.49 23.7932 79.6567 25.1266 79.5 26.5C81.1439 26.7135 82.6439 26.3802 84 25.5C84.4955 23.5273 84.6621 21.5273 84.5 19.5C85.5 19.5 86.5 19.5 87.5 19.5C87.5 18.1667 87.5 16.8333 87.5 15.5C92.1785 15.6658 96.8452 15.4992 101.5 15C99.5273 14.5045 97.5273 14.3379 95.5 14.5C95.5 12.5 95.5 10.5 95.5 8.5C98.3054 7.68052 101.305 7.18052 104.5 7C105.167 6.33333 105.833 5.66667 106.5 5C114.994 4.87318 123.327 3.70651 131.5 1.5C132.243 0.818153 132.909 0.151487 133.5 -0.5Z"
            fill="#5FC9F6" />
        <path fill-rule="evenodd" clip-rule="evenodd"
            d="M47.5002 71.5C46.8511 77.1768 46.0177 82.8434 45.0002 88.5C42.2203 92.5674 41.7203 96.9007 43.5002 101.5C42.5002 101.5 41.5002 101.5 40.5002 101.5C40.3255 103.621 40.6588 105.621 41.5002 107.5C40.8335 107.5 40.1669 107.5 39.5002 107.5C38.4893 105.598 38.3226 103.598 39.0002 101.5C41.5341 91.2777 44.3674 81.2777 47.5002 71.5Z"
            fill="#DCFDFE" />
        <path fill-rule="evenodd" clip-rule="evenodd"
            d="M137.5 63.5C136.357 72.7019 134.69 81.7019 132.5 90.5C130.787 91.6354 130.12 93.302 130.5 95.5C130.539 98.089 129.539 100.089 127.5 101.5C130.257 88.583 133.59 75.9163 137.5 63.5Z"
            fill="#6EABD6" />
        <path fill-rule="evenodd" clip-rule="evenodd"
            d="M175.5 95.5C175.666 100.511 175.499 105.511 175 110.5C173.061 112.194 171.228 114.027 169.5 116C166.183 116.498 162.85 116.665 159.5 116.5C159.5 117.5 159.5 118.5 159.5 119.5C165.674 119.568 166.007 121.235 160.5 124.5C159.719 123.271 159.219 121.938 159 120.5C153.198 123.814 150.698 128.814 151.5 135.5C148.049 135.526 145.382 137.026 143.5 140C137.762 140.047 132.429 141.214 127.5 143.5C127.5 138.167 127.5 132.833 127.5 127.5C128.675 127.719 129.675 127.386 130.5 126.5C133.346 120.98 137.68 117.313 143.5 115.5C145.109 112.106 147.776 110.773 151.5 111.5C152.677 108.962 154.344 106.629 156.5 104.5C160.044 102.561 163.711 100.895 167.5 99.5C169.12 95.9181 171.453 92.9181 174.5 90.5C175.452 92.0453 175.785 93.712 175.5 95.5Z"
            fill="#4698F1" />
        <path fill-rule="evenodd" clip-rule="evenodd"
            d="M38.5 109.5C36.7211 111.344 34.3878 112.01 31.5 111.5C31.5 116.833 31.5 122.167 31.5 127.5C20.0808 126.583 14.4142 131.916 14.5 143.5C12.7176 150.118 11.2176 150.118 10 143.5C9.66667 146.5 9.33333 149.5 9 152.5C7.88298 151.051 7.21631 149.384 7 147.5C6.04818 140.864 5.54818 134.197 5.5 127.5C5.5 122.167 5.5 116.833 5.5 111.5C6.83333 111.5 8.16667 111.5 9.5 111.5C9.5 116.833 9.5 122.167 9.5 127.5C10.5 127.5 11.5 127.5 12.5 127.5C12.5118 117.69 13.6785 108.023 16 98.5C16.8333 97.6667 17.6667 96.8333 18.5 96C21.2263 95.8184 23.8929 95.3184 26.5 94.5C29.5842 88.9453 31.5842 89.2786 32.5 95.5C33.3184 92.8929 33.8184 90.2263 34 87.5C37.1362 85.836 38.3029 83.1693 37.5 79.5C36.5 79.5 35.5 79.5 34.5 79.5C34.0642 76.6359 34.8975 74.3025 37 72.5C38.2022 74.6775 38.7022 77.0108 38.5 79.5C39.5 79.5 40.5 79.5 41.5 79.5C40.4395 87.8585 38.7729 96.0251 36.5 104C36.6975 106.121 37.3642 107.954 38.5 109.5Z"
            fill="#59C0F7" />
        <path fill-rule="evenodd" clip-rule="evenodd"
            d="M181.5 95.5C180.923 100.237 179.923 104.904 178.5 109.5C178.543 110.416 178.876 111.083 179.5 111.5C179.557 112.609 179.89 113.609 180.5 114.5C179.833 114.5 179.167 114.5 178.5 114.5C178.672 113.508 178.338 112.842 177.5 112.5C177.313 106.788 177.646 101.121 178.5 95.5C179.5 95.5 180.5 95.5 181.5 95.5Z"
            fill="#5398DB" />
        <path fill-rule="evenodd" clip-rule="evenodd"
            d="M39.5 107.5C40.1667 107.5 40.8333 107.5 41.5 107.5C51.5 108.167 61.5 108.833 71.5 109.5C63.5 109.5 55.5 109.5 47.5 109.5C45.1432 109.663 42.8098 109.497 40.5 109C39.944 108.617 39.6107 108.117 39.5 107.5Z"
            fill="#A3D3EB" />
        <path fill-rule="evenodd" clip-rule="evenodd"
            d="M127.5 103.5C126.18 108.04 125.347 112.706 125 117.5C124.385 119.116 123.385 120.449 122 121.5C121.809 123.708 121.309 125.708 120.5 127.5C120.337 125.143 120.503 122.81 121 120.5C123.232 114.775 125.398 109.109 127.5 103.5Z"
            fill="#87B5D2" />
        <path fill-rule="evenodd" clip-rule="evenodd"
            d="M38.5 109.5C41.6912 112.025 44.6912 112.025 47.5 109.5C55.5 109.5 63.5 109.5 71.5 109.5C73.0299 113.104 72.6966 116.437 70.5 119.5C70.5 116.833 70.5 114.167 70.5 111.5C68.8333 111.5 67.1667 111.5 65.5 111.5C65.8919 114.722 65.3919 117.722 64 120.5C60.4932 119.871 58.1599 118.538 57 116.5C56.1667 116.667 55.3333 116.833 54.5 117C53.1667 119 51.8333 121 50.5 123C49.552 123.483 48.552 123.649 47.5 123.5C47.5 124.833 47.5 126.167 47.5 127.5C44.8333 127.5 42.1667 127.5 39.5 127.5C38.8051 129.978 37.3051 131.978 35 133.5C34.6886 134.742 35.1886 135.742 36.5 136.5C34.3438 138.629 32.6771 140.962 31.5 143.5C25.8333 143.167 23.1667 145.833 23.5 151.5C20.7284 152.371 18.0618 152.371 15.5 151.5C15.5 154.167 15.5 156.833 15.5 159.5C12.1667 159.5 8.83333 159.5 5.5 159.5C4.5 159.5 3.5 159.5 2.5 159.5C2.5 148.833 2.5 138.167 2.5 127.5C3.5 127.5 4.5 127.5 5.5 127.5C5.54818 134.197 6.04818 140.864 7 147.5C7.21631 149.384 7.88298 151.051 9 152.5C9.33333 149.5 9.66667 146.5 10 143.5C11.2176 150.118 12.7176 150.118 14.5 143.5C14.4142 131.916 20.0808 126.583 31.5 127.5C31.5 122.167 31.5 116.833 31.5 111.5C34.3878 112.01 36.7211 111.344 38.5 109.5Z"
            fill="#55B8F4" />
        <path fill-rule="evenodd" clip-rule="evenodd"
            d="M175.5 95.5C176.825 100.901 176.825 106.401 175.5 112C176.094 112.464 176.761 112.631 177.5 112.5C178.338 112.842 178.672 113.508 178.5 114.5C174.519 113.838 174.519 114.672 178.5 117C182.751 118.195 187.085 118.695 191.5 118.5C191.5 120.167 191.5 121.833 191.5 123.5C186.39 121.82 181.057 121.153 175.5 121.5C175.5 122.833 175.5 124.167 175.5 125.5C178.833 125.5 182.167 125.5 185.5 125.5C185.611 126.117 185.944 126.617 186.5 127C181.798 127.172 177.132 127.672 172.5 128.5C170.325 131.279 167.658 133.446 164.5 135C165.448 135.483 166.448 135.649 167.5 135.5C167.5 136.5 167.5 137.5 167.5 138.5C164.833 138.5 162.167 138.5 159.5 138.5C159.5 140.167 159.5 141.833 159.5 143.5C156.833 143.5 154.167 143.5 151.5 143.5C147.959 148.053 144.959 153.053 142.5 158.5C139.834 159.039 137.667 160.372 136 162.5C135.826 159.129 134.326 158.129 131.5 159.5C130.52 162.086 130.187 164.753 130.5 167.5C129.5 167.5 128.5 167.5 127.5 167.5C127.5 168.833 127.5 170.167 127.5 171.5C124.32 171.176 123.153 172.51 124 175.5C125 174.5 126 173.5 127 172.5C127.499 176.152 127.665 179.818 127.5 183.5C127.179 185.048 126.179 185.715 124.5 185.5C124.719 184.325 124.386 183.325 123.5 182.5C122.52 183.981 121.353 185.315 120 186.5C119.517 185.552 119.351 184.552 119.5 183.5C116.962 184.677 114.629 186.344 112.5 188.5C111.833 184.167 111.167 179.833 110.5 175.5C109.501 186.146 109.168 196.813 109.5 207.5C108.5 207.5 107.5 207.5 106.5 207.5C106.665 204.482 106.498 201.482 106 198.5C104.605 197.185 103.605 197.519 103 199.5C102.503 202.146 102.336 204.813 102.5 207.5C103.5 207.5 104.5 207.5 105.5 207.5C105.5 212.833 105.5 218.167 105.5 223.5C104.5 223.5 103.5 223.5 102.5 223.5C102.5 220.167 102.5 216.833 102.5 213.5C101.5 213.5 100.5 213.5 99.4998 213.5C99.7371 214.791 99.4038 215.791 98.4998 216.5C98.4998 214.5 98.4998 212.5 98.4998 210.5C98.2625 209.209 98.5958 208.209 99.4998 207.5C100.768 205.095 101.435 202.428 101.5 199.5C101.963 196.67 102.629 194.003 103.5 191.5C104.254 188.658 105.588 185.991 107.5 183.5C108.43 178.863 109.097 174.196 109.5 169.5C110.117 169.389 110.617 169.056 111 168.5C111.497 166.19 111.663 163.857 111.5 161.5C111.328 160.508 111.662 159.842 112.5 159.5C115.184 154.732 116.517 149.399 116.5 143.5C117.5 143.5 118.5 143.5 119.5 143.5C118.971 138.676 120.138 134.343 123 130.5C123.333 128.167 123.667 125.833 124 123.5C124.383 122.944 124.883 122.611 125.5 122.5C125.66 125.884 125.327 129.217 124.5 132.5C124.7 136.63 125.7 140.296 127.5 143.5C132.429 141.214 137.762 140.047 143.5 140C145.382 137.026 148.049 135.526 151.5 135.5C150.698 128.814 153.198 123.814 159 120.5C159.219 121.938 159.719 123.271 160.5 124.5C166.007 121.235 165.674 119.568 159.5 119.5C159.5 118.5 159.5 117.5 159.5 116.5C162.85 116.665 166.183 116.498 169.5 116C171.228 114.027 173.061 112.194 175 110.5C175.499 105.511 175.666 100.511 175.5 95.5Z"
            fill="#4392EF" />
        <path fill-rule="evenodd" clip-rule="evenodd"
            d="M179.5 111.5C180.289 111.783 180.956 112.283 181.5 113C212.832 113.5 244.165 113.667 275.5 113.5C275.833 114.167 276.167 114.833 276.5 115.5C244.521 114.537 212.521 114.204 180.5 114.5C179.89 113.609 179.557 112.609 179.5 111.5Z"
            fill="#537EAC" />
        <path fill-rule="evenodd" clip-rule="evenodd"
            d="M70.5 119.5C69.3871 127.969 67.0538 135.969 63.5 143.5C63.2775 137.891 63.9442 132.391 65.5 127C65.3749 125.373 64.8749 123.873 64 122.5C63.5026 125.146 63.3359 127.813 63.5 130.5C60.7531 130.187 58.0865 130.52 55.5 131.5C53.695 134.933 51.3617 137.933 48.5 140.5C47.52 137.914 47.1866 135.247 47.5 132.5C44.8333 132.5 42.1667 132.5 39.5 132.5C39.5 133.5 39.5 134.5 39.5 135.5C41.288 135.215 42.9547 135.548 44.5 136.5C42.3246 139.279 39.658 141.446 36.5 143C37.448 143.483 38.448 143.649 39.5 143.5C39.5 146.167 39.5 148.833 39.5 151.5C36.2395 153.732 32.9061 156.065 29.5 158.5C30.8532 159.524 31.5198 160.857 31.5 162.5C28.1501 162.335 24.8168 162.502 21.5 163C19.5299 166.537 17.0299 169.704 14 172.5C13.6667 171.167 13.3333 169.833 13 168.5C11.984 169.634 11.3173 169.301 11 167.5C8.75783 171.345 7.9245 175.345 8.5 179.5C9.36014 177.069 11.0268 175.736 13.5 175.5C13.3568 178.097 12.5234 180.431 11 182.5C10.502 185.482 10.3354 188.482 10.5 191.5C9.59603 190.791 9.26269 189.791 9.5 188.5C9.85626 185.436 9.02293 182.769 7 180.5C6.22856 173.515 5.72856 166.515 5.5 159.5C8.83333 159.5 12.1667 159.5 15.5 159.5C15.5 156.833 15.5 154.167 15.5 151.5C18.0618 152.371 20.7284 152.371 23.5 151.5C23.1667 145.833 25.8333 143.167 31.5 143.5C32.6771 140.962 34.3438 138.629 36.5 136.5C35.1886 135.742 34.6886 134.742 35 133.5C37.3051 131.978 38.8051 129.978 39.5 127.5C42.1667 127.5 44.8333 127.5 47.5 127.5C47.5 126.167 47.5 124.833 47.5 123.5C48.552 123.649 49.552 123.483 50.5 123C51.8333 121 53.1667 119 54.5 117C55.3333 116.833 56.1667 116.667 57 116.5C58.1599 118.538 60.4932 119.871 64 120.5C65.3919 117.722 65.8919 114.722 65.5 111.5C67.1667 111.5 68.8333 111.5 70.5 111.5C70.5 114.167 70.5 116.833 70.5 119.5Z"
            fill="#52B1F5" />
        <path fill-rule="evenodd" clip-rule="evenodd"
            d="M4.5 104.5C3.75097 112.159 3.0843 119.826 2.5 127.5C1.50698 135.984 1.17364 144.651 1.5 153.5C0.833333 151.5 0.166667 149.5 -0.5 147.5C-0.5 140.833 -0.5 134.167 -0.5 127.5C0.781925 119.758 2.44859 112.091 4.5 104.5Z"
            fill="#85C2D6" />
        <path fill-rule="evenodd" clip-rule="evenodd"
            d="M130.5 95.5C131.139 96.0968 131.472 96.9302 131.5 98C130.204 102.069 129.371 106.236 129 110.5C128.617 111.056 128.117 111.389 127.5 111.5C126.833 115.167 126.167 118.833 125.5 122.5C124.883 122.611 124.383 122.944 124 123.5C123.667 125.833 123.333 128.167 123 130.5C120.138 134.343 118.971 138.676 119.5 143.5C118.5 143.5 117.5 143.5 116.5 143.5C117.215 137.897 118.548 132.564 120.5 127.5C121.309 125.708 121.809 123.708 122 121.5C123.385 120.449 124.385 119.116 125 117.5C125.347 112.706 126.18 108.04 127.5 103.5C127.5 102.833 127.5 102.167 127.5 101.5C129.539 100.089 130.539 98.089 130.5 95.5Z"
            fill="#599DDE" />
        <path fill-rule="evenodd" clip-rule="evenodd"
            d="M71.5 109.5C72.7647 110.514 73.4313 112.014 73.5 114C72.0902 120.408 71.2569 126.908 71 133.5C70.5848 135.291 69.5848 136.624 68 137.5C67.6667 140.833 67.3333 144.167 67 147.5C65.8873 148.305 64.7206 148.972 63.5 149.5C63.5 147.5 63.5 145.5 63.5 143.5C67.0538 135.969 69.3871 127.969 70.5 119.5C72.6966 116.437 73.0299 113.104 71.5 109.5Z"
            fill="#DCFAFD" />
        <path fill-rule="evenodd" clip-rule="evenodd"
            d="M185.5 125.5C187.315 126.63 189.315 127.296 191.5 127.5C191.5 130.167 191.5 132.833 191.5 135.5C188.191 135.308 185.691 136.641 184 139.5C183.586 139.043 183.086 138.709 182.5 138.5C180.597 140.562 178.263 141.896 175.5 142.5C174.169 146.823 171.503 149.823 167.5 151.5C166.69 153.798 165.856 156.132 165 158.5C163.933 159.191 162.766 159.691 161.5 160C162.978 162.057 164.978 163.39 167.5 164C164.749 164.943 162.083 165.776 159.5 166.5C159.343 167.873 159.51 169.207 160 170.5C160.342 168.381 161.175 168.047 162.5 169.5C162.5 169.833 162.5 170.167 162.5 170.5C157.992 183.874 154.158 197.541 151 211.5C150.207 214.741 150.707 217.741 152.5 220.5C150.983 220.489 149.816 219.823 149 218.5C148.57 215.808 148.737 213.141 149.5 210.5C152.369 199.336 155.035 188.003 157.5 176.5C156.675 175.614 155.675 175.281 154.5 175.5C152.969 180.692 152.303 186.026 152.5 191.5C151.5 191.5 150.5 191.5 149.5 191.5C149.5 186.167 149.5 180.833 149.5 175.5C148.167 175.5 146.833 175.5 145.5 175.5C146.113 181.271 145.446 186.604 143.5 191.5C143.5 186.167 143.5 180.833 143.5 175.5C140.833 175.5 138.167 175.5 135.5 175.5C135.5 178.167 135.5 180.833 135.5 183.5C132.833 183.5 130.167 183.5 127.5 183.5C127.665 179.818 127.499 176.152 127 172.5C126 173.5 125 174.5 124 175.5C123.153 172.51 124.32 171.176 127.5 171.5C127.5 170.167 127.5 168.833 127.5 167.5C128.5 167.5 129.5 167.5 130.5 167.5C130.187 164.753 130.52 162.086 131.5 159.5C134.326 158.129 135.826 159.129 136 162.5C137.667 160.372 139.834 159.039 142.5 158.5C144.959 153.053 147.959 148.053 151.5 143.5C154.167 143.5 156.833 143.5 159.5 143.5C159.5 141.833 159.5 140.167 159.5 138.5C162.167 138.5 164.833 138.5 167.5 138.5C167.5 137.5 167.5 136.5 167.5 135.5C166.448 135.649 165.448 135.483 164.5 135C167.658 133.446 170.325 131.279 172.5 128.5C177.132 127.672 181.798 127.172 186.5 127C185.944 126.617 185.611 126.117 185.5 125.5Z"
            fill="#3F8BED" />
        <path fill-rule="evenodd" clip-rule="evenodd"
            d="M255.5 116.5C255.5 117.5 255.5 118.5 255.5 119.5C260.833 119.5 266.167 119.5 271.5 119.5C271.5 120.5 271.5 121.5 271.5 122.5C260.803 122.351 250.137 122.851 239.5 124C250.146 124.829 250.146 125.329 239.5 125.5C239.5 127.833 239.5 130.167 239.5 132.5C236.482 132.335 233.482 132.502 230.5 133C229.619 133.708 228.953 134.542 228.5 135.5C225.753 135.187 223.086 135.52 220.5 136.5C218.344 138.629 216.677 140.962 215.5 143.5C212.962 144.677 210.629 146.344 208.5 148.5C207.808 147.975 207.308 147.308 207 146.5C205.991 148.025 205.491 149.692 205.5 151.5C204.5 151.5 203.5 151.5 202.5 151.5C202.5 154.167 202.5 156.833 202.5 159.5C204.288 159.215 205.955 159.548 207.5 160.5C205.257 161.474 202.924 161.808 200.5 161.5C194.979 161.946 189.645 161.446 184.5 160C191.808 158.586 197.808 154.919 202.5 149C200.598 147.606 200.265 145.773 201.5 143.5C199.801 143.66 198.134 143.494 196.5 143C197.167 142.333 197.833 141.667 198.5 141C201.451 140.904 204.118 140.071 206.5 138.5C207.495 133.208 207.828 127.875 207.5 122.5C212.833 122.5 218.167 122.5 223.5 122.5C223.5 120.5 223.5 118.5 223.5 116.5C234.167 116.5 244.833 116.5 255.5 116.5Z"
            fill="#397FEC" />
        <path fill-rule="evenodd" clip-rule="evenodd"
            d="M255.5 116.5C262.175 116.334 268.842 116.5 275.5 117C276.527 117.513 277.527 118.013 278.5 118.5C278.5 119.167 278.833 119.5 279.5 119.5C279.5 125.167 279.5 130.833 279.5 136.5C277.742 136.123 276.075 135.456 274.5 134.5C272.45 135.077 271.45 136.41 271.5 138.5C266.785 138.494 262.118 137.994 257.5 137C258.609 135.187 257.942 134.354 255.5 134.5C255.5 141.167 255.5 147.833 255.5 154.5C252.15 154.335 248.817 154.502 245.5 155C244.313 156.019 243.313 157.186 242.5 158.5C237.208 159.495 231.875 159.828 226.5 159.5C227.254 156.909 228.921 155.076 231.5 154C230.552 153.517 229.552 153.351 228.5 153.5C228.5 152.5 228.5 151.5 228.5 150.5C223.328 150.766 222.661 149.599 226.5 147C225.833 146.667 225.167 146.333 224.5 146C227.578 143.248 230.911 140.914 234.5 139C232.109 138.309 232.109 137.309 234.5 136C232.527 135.505 230.527 135.338 228.5 135.5C228.953 134.542 229.619 133.708 230.5 133C233.482 132.502 236.482 132.335 239.5 132.5C239.5 130.167 239.5 127.833 239.5 125.5C250.146 125.329 250.146 124.829 239.5 124C250.137 122.851 260.803 122.351 271.5 122.5C271.5 121.5 271.5 120.5 271.5 119.5C266.167 119.5 260.833 119.5 255.5 119.5C255.5 118.5 255.5 117.5 255.5 116.5Z"
            fill="#3477EB" />
        <path fill-rule="evenodd" clip-rule="evenodd"
            d="M2.5 127.5C2.5 138.167 2.5 148.833 2.5 159.5C3.5 159.5 4.5 159.5 5.5 159.5C5.72856 166.515 6.22856 173.515 7 180.5C9.02293 182.769 9.85626 185.436 9.5 188.5C4.40843 177.52 1.74176 165.853 1.5 153.5C1.17364 144.651 1.50698 135.984 2.5 127.5Z"
            fill="#67B2DA" />
        <path fill-rule="evenodd" clip-rule="evenodd"
            d="M178.5 114.5C179.167 114.5 179.833 114.5 180.5 114.5C212.521 114.204 244.521 114.537 276.5 115.5C277.906 115.973 278.573 116.973 278.5 118.5C277.527 118.013 276.527 117.513 275.5 117C268.842 116.5 262.175 116.334 255.5 116.5C244.833 116.5 234.167 116.5 223.5 116.5C223.5 118.5 223.5 120.5 223.5 122.5C218.167 122.5 212.833 122.5 207.5 122.5C207.828 127.875 207.495 133.208 206.5 138.5C204.118 140.071 201.451 140.904 198.5 141C197.833 141.667 197.167 142.333 196.5 143C198.134 143.494 199.801 143.66 201.5 143.5C200.265 145.773 200.598 147.606 202.5 149C197.808 154.919 191.808 158.586 184.5 160C189.645 161.446 194.979 161.946 200.5 161.5C187.165 163.872 173.498 165.539 159.5 166.5C162.083 165.776 164.749 164.943 167.5 164C164.978 163.39 162.978 162.057 161.5 160C162.766 159.691 163.933 159.191 165 158.5C165.856 156.132 166.69 153.798 167.5 151.5C171.503 149.823 174.169 146.823 175.5 142.5C178.263 141.896 180.597 140.562 182.5 138.5C183.086 138.709 183.586 139.043 184 139.5C185.691 136.641 188.191 135.308 191.5 135.5C191.5 132.833 191.5 130.167 191.5 127.5C189.315 127.296 187.315 126.63 185.5 125.5C182.167 125.5 178.833 125.5 175.5 125.5C175.5 124.167 175.5 122.833 175.5 121.5C181.057 121.153 186.39 121.82 191.5 123.5C191.5 121.833 191.5 120.167 191.5 118.5C187.085 118.695 182.751 118.195 178.5 117C174.519 114.672 174.519 113.838 178.5 114.5Z"
            fill="#3D85EB" />
        <path fill-rule="evenodd" clip-rule="evenodd"
            d="M279.5 136.5C279.5 143.167 279.5 149.833 279.5 156.5C278.989 159.963 277.989 163.296 276.5 166.5C274.821 166.892 273.154 167.392 271.5 168C255.503 168.5 239.503 168.667 223.5 168.5C218.319 167.833 212.985 167.167 207.5 166.5C209.766 165.686 212.1 165.186 214.5 165C233.483 163.959 252.483 163.125 271.5 162.5C254.455 161.905 239.455 160.905 226.5 159.5C231.875 159.828 237.208 159.495 242.5 158.5C243.313 157.186 244.313 156.019 245.5 155C248.817 154.502 252.15 154.335 255.5 154.5C255.5 147.833 255.5 141.167 255.5 134.5C257.942 134.354 258.609 135.187 257.5 137C262.118 137.994 266.785 138.494 271.5 138.5C271.45 136.41 272.45 135.077 274.5 134.5C276.075 135.456 277.742 136.123 279.5 136.5Z"
            fill="#326CEB" />
        <path fill-rule="evenodd" clip-rule="evenodd"
            d="M228.5 135.5C230.527 135.338 232.527 135.505 234.5 136C232.109 137.309 232.109 138.309 234.5 139C230.911 140.914 227.578 143.248 224.5 146C225.167 146.333 225.833 146.667 226.5 147C222.661 149.599 223.328 150.766 228.5 150.5C228.5 151.5 228.5 152.5 228.5 153.5C229.552 153.351 230.552 153.517 231.5 154C228.921 155.076 227.254 156.909 226.5 159.5C239.455 160.905 254.455 161.905 271.5 162.5C252.483 163.125 233.483 163.959 214.5 165C212.1 165.186 209.766 165.686 207.5 166.5C212.985 167.167 218.319 167.833 223.5 168.5C202.993 168.17 182.66 168.503 162.5 169.5C161.175 168.047 160.342 168.381 160 170.5C159.51 169.207 159.343 167.873 159.5 166.5C173.498 165.539 187.165 163.872 200.5 161.5C202.924 161.808 205.257 161.474 207.5 160.5C205.955 159.548 204.288 159.215 202.5 159.5C202.5 156.833 202.5 154.167 202.5 151.5C203.5 151.5 204.5 151.5 205.5 151.5C205.491 149.692 205.991 148.025 207 146.5C207.308 147.308 207.808 147.975 208.5 148.5C210.629 146.344 212.962 144.677 215.5 143.5C216.677 140.962 218.344 138.629 220.5 136.5C223.086 135.52 225.753 135.187 228.5 135.5Z"
            fill="#367BED" />
        <path fill-rule="evenodd" clip-rule="evenodd"
            d="M116.5 143.5C116.517 149.399 115.184 154.732 112.5 159.5C112.337 157.143 112.503 154.81 113 152.5C113.956 149.353 115.123 146.353 116.5 143.5Z"
            fill="#6D9EC9" />
        <path fill-rule="evenodd" clip-rule="evenodd"
            d="M63.5 143.5C63.5 145.5 63.5 147.5 63.5 149.5C61.4009 158.359 58.7342 167.025 55.5 175.5C55.5182 168.689 56.5182 162.022 58.5 155.5C58.4847 153.366 57.9847 151.366 57 149.5C54.997 152.5 54.1636 155.833 54.5 159.5C51.9561 158.532 49.7895 156.865 48 154.5C47.5065 156.134 47.3398 157.801 47.5 159.5C48.5 159.5 49.5 159.5 50.5 159.5C50.1275 166.226 49.2941 172.893 48 179.5C47.6667 174.5 47.3333 169.5 47 164.5C45.1516 167.041 42.6516 168.041 39.5 167.5C39.6495 168.552 39.4828 169.552 39 170.5C36.8083 171.399 34.6416 172.399 32.5 173.5C29.8827 181.904 24.2161 184.904 15.5 182.5C15.6633 184.857 15.4966 187.19 15 189.5C14.5172 188.552 14.3505 187.552 14.5 186.5C13.5 186.5 12.5 186.5 11.5 186.5C11.5 188.167 11.5 189.833 11.5 191.5C11.1667 191.5 10.8333 191.5 10.5 191.5C10.3354 188.482 10.502 185.482 11 182.5C12.5234 180.431 13.3568 178.097 13.5 175.5C11.0268 175.736 9.36019 177.069 8.50005 179.5C7.92455 175.345 8.75788 171.345 11 167.5C11.3173 169.301 11.984 169.634 13 168.5C13.3333 169.833 13.6667 171.167 14 172.5C17.0299 169.704 19.5299 166.537 21.5 163C24.8168 162.502 28.1501 162.335 31.5 162.5C31.5198 160.857 30.8532 159.524 29.5 158.5C32.9061 156.065 36.2395 153.732 39.5 151.5C39.5 148.833 39.5 146.167 39.5 143.5C38.448 143.649 37.448 143.483 36.5 143C39.658 141.446 42.3246 139.279 44.5 136.5C42.9547 135.548 41.288 135.215 39.5 135.5C39.5 134.5 39.5 133.5 39.5 132.5C42.1667 132.5 44.8333 132.5 47.5 132.5C47.1866 135.247 47.52 137.914 48.5 140.5C51.3617 137.933 53.695 134.933 55.5 131.5C58.0865 130.52 60.7531 130.187 63.5 130.5C63.3359 127.813 63.5026 125.146 64 122.5C64.8749 123.873 65.3749 125.373 65.5 127C63.9442 132.391 63.2775 137.891 63.5 143.5Z"
            fill="#4EABF3" />
        <path fill-rule="evenodd" clip-rule="evenodd"
            d="M111.5 161.5C111.663 163.857 111.497 166.19 111 168.5C110.617 169.056 110.117 169.389 109.5 169.5C109.565 166.572 110.232 163.905 111.5 161.5Z"
            fill="#7F9EBC" />
        <path fill-rule="evenodd" clip-rule="evenodd"
            d="M223.5 168.5C223.5 168.833 223.5 169.167 223.5 169.5C203.091 169.179 182.758 169.512 162.5 170.5C162.5 170.167 162.5 169.833 162.5 169.5C182.66 168.503 202.993 168.17 223.5 168.5Z"
            fill="#5286CC" />
        <path fill-rule="evenodd" clip-rule="evenodd"
            d="M276.5 166.5C275.833 167.833 274.833 168.833 273.5 169.5C256.833 169.5 240.167 169.5 223.5 169.5C223.5 169.167 223.5 168.833 223.5 168.5C239.503 168.667 255.503 168.5 271.5 168C273.154 167.392 274.821 166.892 276.5 166.5Z"
            fill="#5278D8" />
        <path fill-rule="evenodd" clip-rule="evenodd"
            d="M63.5 149.5C63.6641 152.187 63.4974 154.854 63 157.5C59.7827 168.687 57.2827 180.021 55.5 191.5C54.5 191.5 53.5 191.5 52.5 191.5C54.1296 186.309 55.1296 180.976 55.5 175.5C58.7342 167.025 61.4009 158.359 63.5 149.5Z"
            fill="#D8FAFE" />
        <path fill-rule="evenodd" clip-rule="evenodd"
            d="M279.5 156.5C279.5 197.5 279.5 238.5 279.5 279.5C235.5 279.5 191.5 279.5 147.5 279.5C151.97 278.514 156.637 278.181 161.5 278.5C170.007 278.594 178.34 277.428 186.5 275C189.228 274.16 190.895 272.827 191.5 271C197.394 270.236 202.727 268.236 207.5 265C206.944 264.617 206.611 264.117 206.5 263.5C206.5 263.167 206.5 262.833 206.5 262.5C206.833 262.5 207.167 262.5 207.5 262.5C210.64 263.79 213.306 262.957 215.5 260C217.134 259.506 218.801 259.34 220.5 259.5C220.5 258.167 220.5 256.833 220.5 255.5C223.025 254.36 225.692 253.693 228.5 253.5C228.5 251.833 228.5 250.167 228.5 248.5C232.141 245.195 235.808 241.862 239.5 238.5C241.042 239.301 242.708 239.634 244.5 239.5C244.343 238.127 244.51 236.793 245 235.5C248.923 231.77 251.756 227.437 253.5 222.5C252.687 221.186 251.687 220.019 250.5 219C218.168 218.5 185.835 218.333 153.5 218.5C153.867 212.828 154.367 207.161 155 201.5C157.17 195.321 158.67 188.988 159.5 182.5C165.296 181.385 166.963 178.052 164.5 172.5C168.142 171.92 171.809 171.42 175.5 171C208.336 170.832 241.003 170.332 273.5 169.5C274.833 168.833 275.833 167.833 276.5 166.5C277.989 163.296 278.989 159.963 279.5 156.5Z"
            fill="#FEFEFD" />
        <path fill-rule="evenodd" clip-rule="evenodd"
            d="M55.5 175.5C55.1296 180.976 54.1296 186.309 52.5 191.5C51.2906 196 49.624 200.333 47.5 204.5C48.0031 199.485 48.6698 194.485 49.5 189.5C49.5877 187.288 49.0877 185.288 48 183.5C46.396 185.946 44.5627 188.28 42.5 190.5C38.8927 191.489 35.226 191.823 31.5 191.5C28.8518 194.355 26.6852 197.688 25 201.5C24.2747 199.842 23.108 199.342 21.5 200C23.9351 202.792 23.9351 205.292 21.5 207.5C21.5497 203.205 19.5497 200.872 15.5 200.5C13.8761 197.589 12.5427 194.589 11.5 191.5C11.5 189.833 11.5 188.167 11.5 186.5C12.5 186.5 13.5 186.5 14.5 186.5C14.3505 187.552 14.5172 188.552 15 189.5C15.4966 187.19 15.6633 184.857 15.5 182.5C24.2161 184.904 29.8827 181.904 32.5 173.5C34.6416 172.399 36.8083 171.399 39 170.5C39.4828 169.552 39.6495 168.552 39.5 167.5C42.6516 168.041 45.1516 167.041 47 164.5C47.3333 169.5 47.6667 174.5 48 179.5C49.2941 172.893 50.1275 166.226 50.5 159.5C49.5 159.5 48.5 159.5 47.5 159.5C47.3398 157.801 47.5065 156.134 48 154.5C49.7895 156.865 51.9561 158.532 54.5 159.5C54.1636 155.833 54.997 152.5 57 149.5C57.9847 151.366 58.4847 153.366 58.5 155.5C56.5182 162.022 55.5182 168.689 55.5 175.5Z"
            fill="#4BA5F2" />
        <path fill-rule="evenodd" clip-rule="evenodd"
            d="M109.5 169.5C109.097 174.196 108.43 178.863 107.5 183.5C105.588 185.991 104.254 188.658 103.5 191.5C105.081 183.964 107.081 176.631 109.5 169.5Z"
            fill="#709BCB" />
        <path fill-rule="evenodd" clip-rule="evenodd"
            d="M127.5 183.5C130.167 183.5 132.833 183.5 135.5 183.5C135.5 180.833 135.5 178.167 135.5 175.5C138.167 175.5 140.833 175.5 143.5 175.5C143.5 180.833 143.5 186.167 143.5 191.5C141.833 191.5 140.167 191.5 138.5 191.5C138.5 194.167 138.5 196.833 138.5 199.5C137.5 199.5 136.5 199.5 135.5 199.5C135.649 198.448 135.483 197.448 135 196.5C133.26 197.716 132.26 199.382 132 201.5C130.681 203.487 128.848 204.654 126.5 205C125.194 207.573 123.527 209.906 121.5 212C120.258 212.311 119.258 211.811 118.5 210.5C116.371 212.656 114.038 214.323 111.5 215.5C111.664 218.187 111.497 220.854 111 223.5C110.17 218.192 109.67 212.859 109.5 207.5C109.168 196.813 109.501 186.146 110.5 175.5C111.167 179.833 111.833 184.167 112.5 188.5C114.629 186.344 116.962 184.677 119.5 183.5C119.351 184.552 119.517 185.552 120 186.5C121.353 185.315 122.52 183.981 123.5 182.5C124.386 183.325 124.719 184.325 124.5 185.5C126.179 185.715 127.179 185.048 127.5 183.5Z"
            fill="#3C86ED" />
        <path fill-rule="evenodd" clip-rule="evenodd"
            d="M47.5 204.5C47.5 205.5 47.5 206.5 47.5 207.5C46.3729 212.335 45.0396 217.002 43.5 221.5C44.1266 216.859 44.4599 212.193 44.5 207.5C43.5 207.5 42.5 207.5 41.5 207.5C38.9224 228.635 37.5891 228.635 37.5 207.5C36.1667 207.5 34.8333 207.5 33.5 207.5C33.6646 210.518 33.498 213.518 33 216.5C32.3333 217.167 31.6667 217.833 31 218.5C29.908 215.956 29.2414 213.289 29 210.5C27.9887 211.337 26.8221 211.67 25.5 211.5C25.5 213.167 25.5 214.833 25.5 216.5C25.2493 213.052 23.5826 210.385 20.5 208.5C20.6236 207.893 20.9569 207.56 21.5 207.5C23.9351 205.292 23.9351 202.792 21.5 200C23.108 199.342 24.2747 199.842 25 201.5C26.6852 197.688 28.8518 194.355 31.5 191.5C35.226 191.823 38.8927 191.489 42.5 190.5C44.5627 188.28 46.396 185.946 48 183.5C49.0877 185.288 49.5877 187.288 49.5 189.5C48.6698 194.485 48.0031 199.485 47.5 204.5Z"
            fill="#489EF0" />
        <path fill-rule="evenodd" clip-rule="evenodd"
            d="M52.5 191.5C52.155 196.878 51.4883 202.211 50.5 207.5C49.5 207.5 48.5 207.5 47.5 207.5C47.5 206.5 47.5 205.5 47.5 204.5C49.624 200.333 51.2906 196 52.5 191.5Z"
            fill="#D5F9FD" />
        <path fill-rule="evenodd" clip-rule="evenodd"
            d="M10.5 191.5C10.8333 191.5 11.1667 191.5 11.5 191.5C12.5427 194.589 13.8761 197.589 15.5 200.5C19.5497 200.872 21.5497 203.205 21.5 207.5C20.9569 207.56 20.6236 207.893 20.5 208.5C23.5826 210.385 25.2493 213.052 25.5 216.5C28.9923 219.187 30.9923 222.853 31.5 227.5C25.8897 220.57 20.723 213.236 16 205.5C13.4708 201.074 11.6375 196.408 10.5 191.5Z"
            fill="#5EA0D8" />
        <path fill-rule="evenodd" clip-rule="evenodd"
            d="M101.5 199.5C101.435 202.428 100.768 205.095 99.4999 207.5C99.2937 204.505 99.9604 201.838 101.5 199.5Z"
            fill="#6D9BBD" />
        <path fill-rule="evenodd" clip-rule="evenodd"
            d="M149.5 210.5C149.5 209.5 149.5 208.5 149.5 207.5C148.5 207.5 147.5 207.5 146.5 207.5C146.485 212.019 144.152 214.519 139.5 215C136.93 217.067 134.93 219.567 133.5 222.5C130.5 223.167 127.5 223.833 124.5 224.5C122.829 226.51 122.162 228.843 122.5 231.5C121.5 231.5 120.5 231.5 119.5 231.5C119.5 232.5 119.5 233.5 119.5 234.5C116.833 234.5 114.167 234.5 111.5 234.5C112.126 238.375 110.459 240.209 106.5 240C104.443 243.3 103.443 243.133 103.5 239.5C100.833 239.5 98.1667 239.5 95.5 239.5C95.8282 244.875 95.4948 250.208 94.5 255.5C93.8333 252.833 93.1667 250.167 92.5 247.5C91.1038 248.852 90.4371 250.519 90.5 252.5C92.0636 255.708 92.5636 259.041 92 262.5C91.0958 258.355 89.2625 257.689 86.5 260.5C86.5 258.833 86.5 257.167 86.5 255.5C87.5 255.5 88.5 255.5 89.5 255.5C91.5 244.833 93.5 234.167 95.5 223.5C97.357 221.718 98.357 219.385 98.5 216.5C99.404 215.791 99.7373 214.791 99.5 213.5C100.5 213.5 101.5 213.5 102.5 213.5C102.5 216.833 102.5 220.167 102.5 223.5C103.5 223.5 104.5 223.5 105.5 223.5C105.5 218.167 105.5 212.833 105.5 207.5C104.5 207.5 103.5 207.5 102.5 207.5C102.336 204.813 102.503 202.146 103 199.5C103.605 197.519 104.605 197.185 106 198.5C106.498 201.482 106.665 204.482 106.5 207.5C107.5 207.5 108.5 207.5 109.5 207.5C109.67 212.859 110.17 218.192 111 223.5C111.497 220.854 111.664 218.187 111.5 215.5C114.038 214.323 116.371 212.656 118.5 210.5C119.258 211.811 120.258 212.311 121.5 212C123.527 209.906 125.194 207.573 126.5 205C128.848 204.654 130.681 203.487 132 201.5C132.26 199.382 133.26 197.716 135 196.5C135.483 197.448 135.649 198.448 135.5 199.5C136.5 199.5 137.5 199.5 138.5 199.5C138.5 196.833 138.5 194.167 138.5 191.5C140.167 191.5 141.833 191.5 143.5 191.5C145.446 186.604 146.113 181.271 145.5 175.5C146.833 175.5 148.167 175.5 149.5 175.5C149.5 180.833 149.5 186.167 149.5 191.5C150.5 191.5 151.5 191.5 152.5 191.5C152.303 186.026 152.969 180.692 154.5 175.5C155.675 175.281 156.675 175.614 157.5 176.5C155.035 188.003 152.369 199.336 149.5 210.5Z"
            fill="#3980ED" />
        <path fill-rule="evenodd" clip-rule="evenodd"
            d="M223.5 169.5C240.167 169.5 256.833 169.5 273.5 169.5C241.003 170.332 208.336 170.832 175.5 171C171.809 171.42 168.142 171.92 164.5 172.5C166.963 178.052 165.296 181.385 159.5 182.5C158.67 188.988 157.17 195.321 155 201.5C154.367 207.161 153.867 212.828 153.5 218.5C185.835 218.333 218.168 218.5 250.5 219C251.687 220.019 252.687 221.186 253.5 222.5C251.756 227.437 248.923 231.77 245 235.5C244.51 236.793 244.343 238.127 244.5 239.5C242.708 239.634 241.042 239.301 239.5 238.5C241.833 235.833 244.167 233.167 246.5 230.5C248.58 228.682 249.914 226.349 250.5 223.5C250.253 222.287 249.586 221.62 248.5 221.5C216.671 220.502 184.671 220.168 152.5 220.5C150.707 217.741 150.207 214.741 151 211.5C154.158 197.541 157.992 183.874 162.5 170.5C182.758 169.512 203.091 169.179 223.5 169.5Z"
            fill="#D5EAF7" />
        <path fill-rule="evenodd" clip-rule="evenodd"
            d="M98.5 210.5C98.5 212.5 98.5 214.5 98.5 216.5C98.357 219.385 97.357 221.718 95.5 223.5C95.6776 218.867 96.6776 214.533 98.5 210.5Z"
            fill="#568DC3" />
        <path fill-rule="evenodd" clip-rule="evenodd"
            d="M43.5 221.5C43.3215 224.216 42.8215 226.883 42 229.5C37.7755 233.743 34.2755 233.076 31.5 227.5C30.9923 222.853 28.9923 219.187 25.5 216.5C25.5 214.833 25.5 213.167 25.5 211.5C26.8221 211.67 27.9887 211.337 29 210.5C29.2414 213.289 29.908 215.956 31 218.5C31.6667 217.833 32.3333 217.167 33 216.5C33.498 213.518 33.6646 210.518 33.5 207.5C34.8333 207.5 36.1667 207.5 37.5 207.5C37.5891 228.635 38.9224 228.635 41.5 207.5C42.5 207.5 43.5 207.5 44.5 207.5C44.4599 212.193 44.1266 216.859 43.5 221.5Z"
            fill="#4897EF" />
        <path fill-rule="evenodd" clip-rule="evenodd"
            d="M191.5 222.5C210.326 221.503 229.326 221.17 248.5 221.5C249.586 221.62 250.253 222.287 250.5 223.5C249.914 226.349 248.58 228.682 246.5 230.5C246.5 228.833 246.5 227.167 246.5 225.5C241.203 224.968 241.203 224.134 246.5 223C228.17 222.5 209.836 222.333 191.5 222.5Z"
            fill="#3462DB" />
        <path fill-rule="evenodd" clip-rule="evenodd"
            d="M149.5 210.5C148.737 213.141 148.57 215.808 149 218.5C149.816 219.823 150.983 220.489 152.5 220.5C184.671 220.168 216.671 220.502 248.5 221.5C229.326 221.17 210.326 221.503 191.5 222.5C180.654 222.172 169.987 222.506 159.5 223.5C155.865 222.886 152.198 222.552 148.5 222.5C148.405 225.272 147.071 227.272 144.5 228.5C143.614 229.325 143.281 230.325 143.5 231.5C140.022 234.122 136.355 236.622 132.5 239C130.866 239.494 129.199 239.66 127.5 239.5C127.5 242.167 127.5 244.833 127.5 247.5C125.801 247.34 124.134 247.506 122.5 248C118.645 250.378 114.978 252.878 111.5 255.5C109.545 258.318 107.712 261.318 106 264.5C104.829 265.893 103.329 266.727 101.5 267C99.8587 268.129 98.8587 269.629 98.4999 271.5C97.4999 271.5 96.4999 271.5 95.4999 271.5C94.8332 271.5 94.1666 271.5 93.4999 271.5C92.7658 270.292 92.4325 268.959 92.4999 267.5C87.0935 268.265 85.0935 265.931 86.4999 260.5C89.2624 257.689 91.0957 258.355 91.9999 262.5C92.5635 259.041 92.0635 255.708 90.4999 252.5C90.437 250.519 91.1037 248.852 92.4999 247.5C93.1666 250.167 93.8332 252.833 94.4999 255.5C95.4947 250.208 95.8281 244.875 95.4999 239.5C98.1666 239.5 100.833 239.5 103.5 239.5C103.443 243.133 104.443 243.3 106.5 240C110.459 240.209 112.126 238.375 111.5 234.5C114.167 234.5 116.833 234.5 119.5 234.5C119.5 233.5 119.5 232.5 119.5 231.5C120.5 231.5 121.5 231.5 122.5 231.5C122.162 228.843 122.829 226.51 124.5 224.5C127.5 223.833 130.5 223.167 133.5 222.5C134.93 219.567 136.93 217.067 139.5 215C144.152 214.519 146.485 212.019 146.5 207.5C147.5 207.5 148.5 207.5 149.5 207.5C149.5 208.5 149.5 209.5 149.5 210.5Z"
            fill="#3677E9" />
        <path fill-rule="evenodd" clip-rule="evenodd"
            d="M159.5 223.5C159.5 227.5 159.5 231.5 159.5 235.5C155.818 235.335 152.152 235.501 148.5 236C147.491 238.172 145.824 239.338 143.5 239.5C143.5 243.167 143.5 246.833 143.5 250.5C140.813 250.336 138.146 250.503 135.5 251C133.139 251.197 131.472 252.364 130.5 254.5C126.893 255.489 123.226 255.823 119.5 255.5C119.665 258.85 119.498 262.183 119 265.5C116.619 266.435 114.119 266.768 111.5 266.5C111.5 268.167 111.5 269.833 111.5 271.5C113.857 271.337 116.19 271.503 118.5 272C115.358 273.018 115.024 274.185 117.5 275.5C118.492 275.328 119.158 275.662 119.5 276.5C117.5 276.5 115.5 276.5 113.5 276.5C112.833 276.5 112.167 276.5 111.5 276.5C107.841 273.52 103.508 271.853 98.5 271.5C98.8588 269.629 99.8588 268.129 101.5 267C103.329 266.727 104.829 265.893 106 264.5C107.712 261.318 109.545 258.318 111.5 255.5C114.978 252.878 118.645 250.378 122.5 248C124.134 247.506 125.801 247.34 127.5 247.5C127.5 244.833 127.5 242.167 127.5 239.5C129.199 239.66 130.866 239.494 132.5 239C136.355 236.622 140.022 234.122 143.5 231.5C143.281 230.325 143.614 229.325 144.5 228.5C147.071 227.272 148.405 225.272 148.5 222.5C152.198 222.552 155.865 222.886 159.5 223.5Z"
            fill="#3373EB" />
        <path fill-rule="evenodd" clip-rule="evenodd"
            d="M159.5 223.5C167.5 223.5 175.5 223.5 183.5 223.5C181.833 227.167 179.167 229.833 175.5 231.5C173.37 236.29 169.704 239.29 164.5 240.5C159.37 247.818 154.37 255.318 149.5 263C151.709 263.957 151.543 265.124 149 266.5C148.667 265.833 148.333 265.167 148 264.5C144.544 265.548 143.044 267.881 143.5 271.5C148.833 271.833 148.833 272.167 143.5 272.5C143.668 275.684 142.334 276.184 139.5 274C140.833 273.333 140.833 272.667 139.5 272C137.5 271.833 135.5 271.667 133.5 271.5C128.515 272.441 123.515 273.275 118.5 274C117.944 274.383 117.611 274.883 117.5 275.5C115.024 274.185 115.358 273.018 118.5 272C116.19 271.503 113.857 271.337 111.5 271.5C111.5 269.833 111.5 268.167 111.5 266.5C114.119 266.768 116.619 266.435 119 265.5C119.498 262.183 119.665 258.85 119.5 255.5C123.226 255.823 126.893 255.489 130.5 254.5C131.472 252.364 133.139 251.197 135.5 251C138.146 250.503 140.813 250.336 143.5 250.5C143.5 246.833 143.5 243.167 143.5 239.5C145.824 239.338 147.491 238.172 148.5 236C152.152 235.501 155.818 235.335 159.5 235.5C159.5 231.5 159.5 227.5 159.5 223.5Z"
            fill="#326CEA" />
        <path fill-rule="evenodd" clip-rule="evenodd"
            d="M159.5 223.5C169.987 222.506 180.654 222.172 191.5 222.5C196.64 223.488 201.974 223.821 207.5 223.5C207.5 225.167 207.5 226.833 207.5 228.5C204.412 228.639 201.745 229.639 199.5 231.5C199.5 233.167 199.5 234.833 199.5 236.5C196.833 236.5 194.167 236.5 191.5 236.5C191.5 237.5 191.5 238.5 191.5 239.5C190.5 239.5 189.5 239.5 188.5 239.5C188.663 241.857 188.497 244.19 188 246.5C184.715 249.081 181.548 251.748 178.5 254.5C176.604 255.466 174.604 255.799 172.5 255.5C172.663 257.857 172.497 260.19 172 262.5C170.644 263.38 169.144 263.714 167.5 263.5C167.649 262.448 167.483 261.448 167 260.5C165.346 263.121 163.513 265.621 161.5 268C159.382 268.26 157.716 269.26 156.5 271C154.5 271.333 152.5 271.667 150.5 272C150.833 272.333 151.167 272.667 151.5 273C154.861 273.671 158.028 274.837 161 276.5C162.371 275.419 163.871 274.585 165.5 274C163.423 273.808 161.423 273.308 159.5 272.5C168.159 272.497 176.826 272.164 185.5 271.5C177.636 274.257 169.636 276.59 161.5 278.5C156.637 278.181 151.97 278.514 147.5 279.5C144.167 279.5 140.833 279.5 137.5 279.5C134.894 278.197 132.227 276.864 129.5 275.5C126.885 276.269 124.219 276.603 121.5 276.5C120.833 276.5 120.167 276.5 119.5 276.5C119.158 275.662 118.492 275.328 117.5 275.5C117.611 274.883 117.944 274.383 118.5 274C123.515 273.275 128.515 272.441 133.5 271.5C135.5 271.667 137.5 271.833 139.5 272C140.833 272.667 140.833 273.333 139.5 274C142.334 276.184 143.668 275.684 143.5 272.5C148.833 272.167 148.833 271.833 143.5 271.5C143.044 267.881 144.544 265.548 148 264.5C148.333 265.167 148.667 265.833 149 266.5C151.543 265.124 151.709 263.957 149.5 263C154.37 255.318 159.37 247.818 164.5 240.5C169.704 239.29 173.37 236.29 175.5 231.5C179.167 229.833 181.833 227.167 183.5 223.5C175.5 223.5 167.5 223.5 159.5 223.5Z"
            fill="#3067E9" />
        <path fill-rule="evenodd" clip-rule="evenodd"
            d="M191.5 222.5C209.836 222.333 228.17 222.5 246.5 223C241.203 224.134 241.203 224.968 246.5 225.5C246.5 227.167 246.5 228.833 246.5 230.5C244.167 233.167 241.833 235.833 239.5 238.5C235.808 241.862 232.141 245.195 228.5 248.5C226.851 249.473 225.184 250.473 223.5 251.5C219.069 250.53 216.735 252.197 216.5 256.5C213.456 258.564 210.456 260.564 207.5 262.5C207.167 262.5 206.833 262.5 206.5 262.5C202.719 261.789 199.719 262.955 197.5 266C193.75 266.26 190.084 266.927 186.5 268C184.627 268.953 184.294 270.12 185.5 271.5C176.826 272.164 168.159 272.497 159.5 272.5C161.423 273.308 163.423 273.808 165.5 274C163.871 274.585 162.371 275.419 161 276.5C158.028 274.837 154.861 273.671 151.5 273C151.167 272.667 150.833 272.333 150.5 272C152.5 271.667 154.5 271.333 156.5 271C157.716 269.26 159.382 268.26 161.5 268C163.513 265.621 165.346 263.121 167 260.5C167.483 261.448 167.649 262.448 167.5 263.5C169.144 263.714 170.644 263.38 172 262.5C172.497 260.19 172.663 257.857 172.5 255.5C174.604 255.799 176.604 255.466 178.5 254.5C181.548 251.748 184.715 249.081 188 246.5C188.497 244.19 188.663 241.857 188.5 239.5C189.5 239.5 190.5 239.5 191.5 239.5C191.5 238.5 191.5 237.5 191.5 236.5C194.167 236.5 196.833 236.5 199.5 236.5C199.5 234.833 199.5 233.167 199.5 231.5C201.745 229.639 204.412 228.639 207.5 228.5C207.5 226.833 207.5 225.167 207.5 223.5C201.974 223.821 196.64 223.488 191.5 222.5Z"
            fill="#2C5FE9" />
        <path fill-rule="evenodd" clip-rule="evenodd"
            d="M95.5 223.5C93.5 234.167 91.5 244.833 89.5 255.5C88.5 255.5 87.5 255.5 86.5 255.5C88.3221 244.384 91.3221 233.717 95.5 223.5Z"
            fill="#5F88C1" />
        <path fill-rule="evenodd" clip-rule="evenodd"
            d="M223.5 251.5C221.469 253.522 219.135 255.189 216.5 256.5C216.735 252.197 219.069 250.53 223.5 251.5Z"
            fill="#4269D6" />
        <path fill-rule="evenodd" clip-rule="evenodd"
            d="M228.5 248.5C228.5 250.167 228.5 251.833 228.5 253.5C225.692 253.693 223.025 254.36 220.5 255.5C220.5 256.833 220.5 258.167 220.5 259.5C218.801 259.34 217.134 259.506 215.5 260C213.306 262.957 210.64 263.79 207.5 262.5C210.456 260.564 213.456 258.564 216.5 256.5C219.135 255.189 221.469 253.522 223.5 251.5C225.184 250.473 226.851 249.473 228.5 248.5Z"
            fill="#E0F3FE" />
        <path fill-rule="evenodd" clip-rule="evenodd"
            d="M206.5 262.5C206.5 262.833 206.5 263.167 206.5 263.5C199.702 266.546 192.702 269.213 185.5 271.5C184.294 270.12 184.627 268.953 186.5 268C190.084 266.927 193.75 266.26 197.5 266C199.719 262.955 202.719 261.789 206.5 262.5Z"
            fill="#3C66CE" />
        <path fill-rule="evenodd" clip-rule="evenodd"
            d="M86.5002 255.5C86.5002 257.167 86.5002 258.833 86.5002 260.5C85.0938 265.931 87.0938 268.265 92.5002 267.5C92.4328 268.959 92.7661 270.292 93.5002 271.5C84.3854 269.133 82.0521 263.799 86.5002 255.5Z"
            fill="#5282C9" />
        <path fill-rule="evenodd" clip-rule="evenodd"
            d="M206.5 263.5C206.611 264.117 206.944 264.617 207.5 265C202.727 268.236 197.394 270.236 191.5 271C190.895 272.827 189.228 274.16 186.5 275C178.34 277.428 170.007 278.594 161.5 278.5C169.636 276.59 177.636 274.257 185.5 271.5C192.702 269.213 199.702 266.546 206.5 263.5Z"
            fill="#E4F6FE" />
        <path fill-rule="evenodd" clip-rule="evenodd"
            d="M95.5 271.5C96.5 271.5 97.5 271.5 98.5 271.5C103.508 271.853 107.841 273.52 111.5 276.5C105.825 275.576 100.491 273.909 95.5 271.5Z"
            fill="#4A7ACC" />
        <path fill-rule="evenodd" clip-rule="evenodd"
            d="M137.5 279.5C134.167 279.5 130.833 279.5 127.5 279.5C127.5 279.167 127.5 278.833 127.5 278.5C125.5 277.833 123.5 277.167 121.5 276.5C124.219 276.603 126.885 276.269 129.5 275.5C132.227 276.864 134.894 278.197 137.5 279.5Z"
            fill="#4572DE" />
        <path fill-rule="evenodd" clip-rule="evenodd"
            d="M113.5 276.5C115.5 276.5 117.5 276.5 119.5 276.5C120.167 276.5 120.833 276.5 121.5 276.5C123.5 277.167 125.5 277.833 127.5 278.5C122.586 278.638 117.919 277.972 113.5 276.5Z"
            fill="#5785D7" />
    </g>
    <defs>
        <clipPath id="clip0_5123_45">
            <rect width="280" height="280" fill="white" />
        </clipPath>
    </defs>
</svg>