<svg width="32" height="32" viewBox="0 0 32 32" fill="none" xmlns="http://www.w3.org/2000/svg">
    <g clip-path="url(#clip0_5276_2311)">
        <path fill-rule="evenodd" clip-rule="evenodd"
            d="M-0.0800781 -0.0800781C10.5866 -0.0800781 21.2532 -0.0800781 31.9199 -0.0800781C31.9199 10.5866 31.9199 21.2532 31.9199 31.9199C21.2532 31.9199 10.5866 31.9199 -0.0800781 31.9199C-0.0800781 21.2532 -0.0800781 10.5866 -0.0800781 -0.0800781Z"
            fill="#FEFEFE" />
        <path fill-rule="evenodd" clip-rule="evenodd"
            d="M14.0002 3.43958C19.0073 2.94569 23.0338 4.65236 26.0802 8.55958C28.8524 13.2332 28.9591 17.9799 26.4002 22.7996C24.5446 25.7181 21.9046 27.5049 18.4802 28.1596C12.3097 29.1673 7.74971 26.954 4.80024 21.5196C2.68504 16.293 3.37838 11.493 6.88024 7.11958C8.8767 5.14812 11.25 3.92145 14.0002 3.43958Z"
            fill="#0F0F0F" />
        <path fill-rule="evenodd" clip-rule="evenodd"
            d="M14.7999 9.19964C18.7703 9.03578 21.3035 10.8491 22.3999 14.6396C22.497 19.1296 20.3103 21.6363 15.8399 22.1596C14.8629 22.1353 13.9296 21.922 13.0399 21.5196C11.9339 21.811 10.8139 21.9444 9.67986 21.9196C9.50799 21.8014 9.40132 21.6414 9.35986 21.4396C9.65116 20.618 9.91782 19.7913 10.1599 18.9596C8.85914 15.8386 9.39247 13.0919 11.7599 10.7196C12.7004 10.036 13.7137 9.52935 14.7999 9.19964Z"
            fill="#FCFCFC" />
    </g>
    <defs>
        <clipPath id="clip0_5276_2311">
            <rect width="32" height="32" fill="white" />
        </clipPath>
    </defs>
</svg>