<svg width="32" height="32" viewBox="0 0 32 32" fill="none" xmlns="http://www.w3.org/2000/svg">
    <path fill-rule="evenodd" clip-rule="evenodd"
        d="M1.408 0C3.62667 0 5.84533 0 8.064 0C8.064 0.560243 8.064 1.12049 8.064 1.68073C8.064 2.11647 8.064 2.55222 8.064 2.98796C8.064 4.50269 8.064 6.01743 8.064 7.53216C8.064 8.27915 8.064 9.02614 8.064 9.77313C8.064 10.6653 8.064 11.5576 8.064 12.4498C8.064 14.0061 8.064 15.5623 8.064 17.1185C7.21254 16.5922 6.42318 15.9801 5.696 15.2822C4.53253 14.7364 3.6472 15.0166 3.04 16.1226C2.85372 16.725 2.93906 17.2852 3.296 17.8033C4.69026 19.1711 6.27959 20.2708 8.064 21.1025C8.064 22.9492 8.064 24.7959 8.064 26.6427C8.064 28.0537 8.064 29.4646 8.064 30.8756C8.00012 29.1434 7.97881 27.4004 8 25.6467C5.41867 25.6467 2.83733 25.6467 0.256 25.6467C0.240154 27.175 0.261487 28.6897 0.32 30.1909C0.223115 30.0748 0.137782 29.9504 0.064 29.8174C0.0832993 29.6581 0.0619659 29.5128 0 29.3816C0 20.148 0 10.9143 0 1.68073C0.0633701 1.43882 0.12737 1.18982 0.192 0.933739C0.366247 0.741619 0.526247 0.534122 0.672 0.311246C0.693331 0.331996 0.714669 0.352746 0.736 0.373495C0.934483 0.195973 1.15848 0.0714749 1.408 0Z"
        fill="#026FB3" />
    <path opacity="0.999" fill-rule="evenodd" clip-rule="evenodd"
        d="M8.06445 0C10.7098 0 13.3551 0 16.0004 0C16.0004 0.767739 16.0004 1.53548 16.0004 2.30322C13.3871 2.22039 10.7738 2.22039 8.16045 2.30322C8.149 2.08378 8.117 1.87628 8.06445 1.68073C8.06445 1.12049 8.06445 0.560243 8.06445 0Z"
        fill="#70C6D3" />
    <path fill-rule="evenodd" clip-rule="evenodd"
        d="M16 0C16.0427 0 16.0853 0 16.128 0C16.1045 1.41238 16.1259 2.49137 16.192 3.23696C18.7759 3.23622 21.3466 3.23622 23.904 3.23696C23.9149 2.58284 23.9469 1.93959 24 1.30723C24 2.92571 24 4.54419 24 6.16268C23.938 6.29383 23.9167 6.43912 23.936 6.59842C21.3394 6.57788 18.7474 6.59861 16.16 6.66067C16.1387 5.85143 16.1173 5.04219 16.096 4.23295C16.064 5.20796 16.0533 6.1832 16.064 7.15866C16.064 8.44517 16.064 9.73161 16.064 11.0181C16.064 13.7986 16.064 16.579 16.064 19.3595C16.0427 19.3595 16.0213 19.3595 16 19.3595C16 17.1601 16 14.9605 16 12.7611C16 11.8689 16 10.9766 16 10.0844C16 9.42036 16 8.75641 16 8.0924C16 7.03416 16 5.97593 16 4.91769C16 4.0462 16 3.17471 16 2.30322C16 1.53548 16 0.767739 16 0Z"
        fill="#F3D26D" />
    <path fill-rule="evenodd" clip-rule="evenodd"
        d="M16.1284 0C18.7524 0 21.3764 0 24.0004 0C24.0004 0.435745 24.0004 0.871489 24.0004 1.30723C23.9472 1.93959 23.9152 2.58284 23.9044 3.23696C21.347 3.23622 18.7763 3.23622 16.1924 3.23696C16.1263 2.49137 16.1049 1.41238 16.1284 0Z"
        fill="#F4D273" />
    <path fill-rule="evenodd" clip-rule="evenodd"
        d="M24 0C24.0213 0 24.0427 0 24.064 0C24.1146 0.953652 24.1359 1.90814 24.128 2.86347C26.6454 2.87384 29.1627 2.86347 31.68 2.83234C31.7635 2.78229 31.8061 2.70967 31.808 2.61447C31.7309 2.51357 31.7415 2.43057 31.84 2.36547C31.8613 2.03348 31.8827 1.70148 31.904 1.36948C31.9285 1.40409 31.9605 1.42484 32 1.43173C32 1.53548 32 1.63923 32 1.74298C31.9467 4.09794 31.9147 6.4634 31.904 8.83939C31.8827 8.0924 31.8613 7.34541 31.84 6.59842C29.274 6.66048 26.7033 6.68121 24.128 6.66067C24.0445 6.94801 24.0232 8.0685 24.064 10.0221C24.064 10.3126 24.064 10.6031 24.064 10.8936C24.064 12.8441 24.064 14.7946 24.064 16.745C24.064 16.7866 24.0427 16.8073 24 16.8073C24 15.9773 24 15.1473 24 14.3173C24 13.2176 24 12.1179 24 11.0181C24 10.6653 24 10.3126 24 9.95988C24 8.69416 24 7.42839 24 6.16267C24 4.54419 24 2.92571 24 1.30723C24 0.871489 24 0.435745 24 0Z"
        fill="#EC625A" />
    <path fill-rule="evenodd" clip-rule="evenodd"
        d="M24.0645 0C26.2618 0 28.4591 0 30.6564 0C30.8529 0.0642316 31.0449 0.147231 31.2324 0.248997C31.2324 0.290497 31.2538 0.311246 31.2964 0.311246C31.4015 0.392356 31.5082 0.475355 31.6164 0.560243C31.6118 0.655292 31.6545 0.717541 31.7444 0.746991C31.7721 0.822281 31.8148 0.884531 31.8724 0.933739C31.8614 0.995465 31.8828 1.03697 31.9364 1.05824C31.9213 1.1386 31.9426 1.20085 32.0004 1.24498C32.0004 1.30723 32.0004 1.36948 32.0004 1.43173C31.961 1.42484 31.929 1.40409 31.9044 1.36948C31.8831 1.70148 31.8618 2.03348 31.8404 2.36547C31.742 2.43057 31.7313 2.51357 31.8084 2.61447C31.8066 2.70967 31.7639 2.78229 31.6804 2.83234C29.1632 2.86347 26.6459 2.87384 24.1285 2.86347C24.1363 1.90814 24.115 0.953652 24.0645 0Z"
        fill="#EC6460" />
    <path opacity="0.01" fill-rule="evenodd" clip-rule="evenodd"
        d="M0.12809 0.933594C0.136475 0.97959 0.125808 1.02109 0.0960902 1.05809C0.0518223 0.999777 0.062489 0.958282 0.12809 0.933594Z"
        fill="#050404" />
    <path opacity="0.01" fill-rule="evenodd" clip-rule="evenodd"
        d="M31.9999 0.996094C31.9999 1.01684 31.9999 1.0376 31.9999 1.05834C31.9571 1.02838 31.9571 1.00763 31.9999 0.996094Z"
        fill="#050404" />
    <path opacity="0.024" fill-rule="evenodd" clip-rule="evenodd"
        d="M0 1.12061C0.0853333 1.16211 0.0853333 1.2036 0 1.2451C0 1.2036 0 1.16211 0 1.12061Z"
        fill="#19526C" />
    <path fill-rule="evenodd" clip-rule="evenodd"
        d="M8.06445 1.68066C8.117 1.87621 8.149 2.08372 8.16045 2.30316C10.7738 2.22033 13.3871 2.22033 16.0004 2.30316C16.0004 3.17465 16.0004 4.04614 16.0004 4.91762C15.9542 4.94361 15.9222 4.98512 15.9044 5.04212C15.8831 4.97987 15.8618 4.91762 15.8404 4.85538C15.7848 5.05847 15.6995 5.07922 15.5844 4.91762C13.6156 4.98856 11.6422 4.98856 9.66445 4.91762C9.56218 5.07159 9.46618 5.07159 9.37645 4.91762C9.28698 4.95192 9.2016 4.97267 9.12045 4.97987C9.07776 4.81387 9.03514 4.81387 8.99245 4.97987C8.76596 4.95179 8.54196 4.93104 8.32045 4.91762C8.25786 4.9473 8.20455 4.98879 8.16045 5.04212C8.14957 4.34653 8.11757 3.66179 8.06445 2.9879C8.06445 2.55215 8.06445 2.11641 8.06445 1.68066Z"
        fill="#63C3CF" />
    <path fill-rule="evenodd" clip-rule="evenodd"
        d="M32 1.74316C32 5.00087 32 8.25861 32 11.5163C31.9587 10.8375 31.9161 10.1943 31.872 9.58657C31.8122 9.65305 31.7909 9.73603 31.808 9.83557C29.2693 9.83557 26.7307 9.83557 24.192 9.83557C24.2026 10.1061 24.192 10.3758 24.16 10.6448C24.1486 10.4254 24.1166 10.2178 24.064 10.0223C24.0233 8.06868 24.0446 6.9482 24.128 6.66085C26.7033 6.6814 29.274 6.66067 31.84 6.5986C31.8613 7.3456 31.8827 8.09259 31.904 8.83958C31.9147 6.46359 31.9467 4.09812 32 1.74316Z"
        fill="#EB5D54" />
    <path fill-rule="evenodd" clip-rule="evenodd"
        d="M8.06445 2.98779C8.11757 3.66168 8.14957 4.34643 8.16045 5.04202C8.20455 4.98869 8.25786 4.94719 8.32045 4.91752C8.54196 4.93093 8.76596 4.95169 8.99245 4.97977C9.03514 4.81377 9.07776 4.81377 9.12045 4.97977C9.2016 4.97256 9.28698 4.95181 9.37645 4.91752C9.46618 5.07149 9.56218 5.07149 9.66445 4.91752C11.6422 4.98846 13.6156 4.98846 15.5844 4.91752C15.6995 5.07911 15.7848 5.05836 15.8404 4.85527C15.8618 4.91752 15.8831 4.97977 15.9044 5.04202C15.9222 4.98501 15.9542 4.94351 16.0004 4.91752C16.0004 5.97576 16.0004 7.03399 16.0004 8.09223C15.9426 8.0481 15.9213 7.98585 15.9364 7.90548C13.3551 7.90548 10.7738 7.90548 8.19245 7.90548C8.20199 7.97097 8.19137 8.03322 8.16045 8.09223C8.14887 7.89334 8.11687 7.7066 8.06445 7.53199C8.06445 6.01726 8.06445 4.50252 8.06445 2.98779Z"
        fill="#56BFCC" />
    <path fill-rule="evenodd" clip-rule="evenodd"
        d="M23.9996 6.16264C23.9996 7.42835 23.9996 8.69413 23.9996 9.95984C23.9381 9.84997 23.9167 9.72547 23.9356 9.58634C21.3543 9.58634 18.7729 9.58634 16.1916 9.58634C16.2022 9.919 16.1915 10.251 16.1596 10.5823C16.1488 9.43041 16.1168 8.2892 16.0636 7.15862C16.0529 6.18317 16.0636 5.20793 16.0956 4.23291C16.1169 5.04215 16.1383 5.85139 16.1596 6.66063C18.747 6.59857 21.339 6.57784 23.9356 6.59838C23.9162 6.43909 23.9376 6.2938 23.9996 6.16264Z"
        fill="#F6D366" />
    <path fill-rule="evenodd" clip-rule="evenodd"
        d="M16.0645 7.15869C16.1177 8.28926 16.1497 9.43048 16.1605 10.5824C16.1924 10.251 16.2031 9.91907 16.1925 9.58641C18.7738 9.58641 21.3551 9.58641 23.9364 9.58641C23.9176 9.72554 23.9389 9.85004 24.0004 9.95991C24.0004 10.3127 24.0004 10.6654 24.0004 11.0181C23.9373 11.2964 23.916 11.5869 23.9364 11.8896C21.3551 11.8896 18.7738 11.8896 16.1925 11.8896C16.2118 12.0489 16.1904 12.1942 16.1285 12.3254C16.1493 11.878 16.1279 11.4422 16.0645 11.0181C16.0645 9.73164 16.0645 8.4452 16.0645 7.15869Z"
        fill="#F8D260" />
    <path fill-rule="evenodd" clip-rule="evenodd"
        d="M8.06445 7.53223C8.11687 7.70684 8.14887 7.89358 8.16045 8.09247C8.19137 8.03346 8.20199 7.97121 8.19245 7.90572C10.7738 7.90572 13.3551 7.90572 15.9364 7.90572C15.9213 7.98609 15.9426 8.04834 16.0004 8.09247C16.0004 8.75648 16.0004 9.42043 16.0004 10.0844C13.3987 10.0234 10.7747 10.0027 8.12845 10.0222C8.14561 9.92266 8.12423 9.83968 8.06445 9.7732C8.06445 9.02621 8.06445 8.27922 8.06445 7.53223Z"
        fill="#42BCC8" />
    <path opacity="0.995" fill-rule="evenodd" clip-rule="evenodd"
        d="M32.0004 11.5162C32.0004 14.4003 32.0004 17.2846 32.0004 20.1688C31.9578 20.1481 31.9151 20.1273 31.8724 20.1065C31.9311 19.5423 31.9098 18.8887 31.8084 18.1457C31.8466 17.9208 31.8573 17.6822 31.8404 17.4298C31.8191 17.4921 31.7978 17.5543 31.7764 17.6166C31.673 17.5515 31.5663 17.4893 31.4564 17.4298C31.3562 17.3949 31.2709 17.4364 31.2004 17.5543C31.1791 17.5128 31.1578 17.4714 31.1364 17.4298C30.9018 17.4714 30.6671 17.5128 30.4324 17.5543C30.3898 17.4921 30.3898 17.4298 30.4324 17.3676C30.4909 17.4394 30.5443 17.429 30.5924 17.3365C30.4876 17.3214 30.3916 17.2695 30.3044 17.1808C30.1978 17.3261 30.0911 17.4714 29.9844 17.6166C29.9562 17.4809 29.8922 17.4395 29.7925 17.4921C29.7498 17.4506 29.7071 17.4091 29.6645 17.3676C29.5386 17.5373 29.4106 17.5581 29.2805 17.4298C29.2378 17.5128 29.1951 17.5128 29.1525 17.4298C29.1098 17.5958 29.0671 17.5958 29.0245 17.4298C29.0042 17.5419 28.9615 17.5627 28.8965 17.4921C28.7275 17.6054 28.5462 17.6884 28.3525 17.7411C29.2717 16.7087 29.1864 15.7645 28.0965 14.9087C27.4432 14.5985 26.8032 14.6192 26.1765 14.971C25.5184 15.6219 24.8144 16.2133 24.0645 16.7451C24.0645 14.7946 24.0645 12.8441 24.0645 10.8937C24.0926 12.1506 24.1352 13.0013 24.1925 13.4459C26.7525 13.4459 29.3125 13.4459 31.8724 13.4459C31.8724 12.1594 31.8724 10.8729 31.8724 9.58643C31.9165 10.1942 31.9592 10.8374 32.0004 11.5162Z"
        fill="#EA5449" />
    <path fill-rule="evenodd" clip-rule="evenodd"
        d="M31.8724 9.58643C31.8724 10.8729 31.8724 12.1594 31.8724 13.4459C29.3125 13.4459 26.7525 13.4459 24.1925 13.4459C24.1352 13.0013 24.0926 12.1506 24.0645 10.8937C24.0645 10.6031 24.0645 10.3127 24.0645 10.0222C24.117 10.2177 24.149 10.4252 24.1605 10.6447C24.1924 10.3757 24.2031 10.106 24.1925 9.83542C26.7311 9.83542 29.2698 9.83542 31.8084 9.83542C31.7913 9.73589 31.8127 9.65291 31.8724 9.58643Z"
        fill="#EA594F" />
    <path fill-rule="evenodd" clip-rule="evenodd"
        d="M8.06445 9.77295C8.12423 9.83943 8.14561 9.92241 8.12845 10.0219C10.7747 10.0024 13.3987 10.0232 16.0004 10.0842C16.0004 10.9764 16.0004 11.8687 16.0004 12.7609C15.9487 12.6494 15.9167 12.5249 15.9044 12.3874C13.2998 12.3671 10.6865 12.3878 8.06445 12.4497C8.06445 11.5574 8.06445 10.6652 8.06445 9.77295Z"
        fill="#2FB9C5" />
    <path fill-rule="evenodd" clip-rule="evenodd"
        d="M16.0645 11.0181C16.1279 11.4422 16.1493 11.8779 16.1285 12.3253C16.1285 12.9893 16.1285 13.6533 16.1285 14.3173C16.1178 15.4587 16.1285 16.6 16.1605 17.741C16.1925 17.2434 16.2031 16.7454 16.1925 16.247C18.7738 16.247 21.3551 16.247 23.9364 16.247C23.9364 15.6038 23.9364 14.9605 23.9364 14.3173C23.9578 14.3173 23.9791 14.3173 24.0004 14.3173C24.0004 15.1472 24.0004 15.9773 24.0004 16.8072C21.6314 18.4422 18.9861 19.2929 16.0645 19.3595C16.0645 16.579 16.0645 13.7986 16.0645 11.0181Z"
        fill="#FAD251" />
    <path fill-rule="evenodd" clip-rule="evenodd"
        d="M23.9999 11.0181C23.9999 12.1178 23.9999 13.2175 23.9999 14.3173C23.9786 14.3173 23.9572 14.3173 23.9359 14.3173C21.3528 14.3166 18.7501 14.3166 16.1279 14.3173C16.1279 13.6533 16.1279 12.9893 16.1279 12.3253C16.1899 12.1941 16.2113 12.0489 16.1919 11.8896C18.7732 11.8896 21.3546 11.8896 23.9359 11.8896C23.9155 11.5868 23.9368 11.2963 23.9999 11.0181Z"
        fill="#F8D25B" />
    <path fill-rule="evenodd" clip-rule="evenodd"
        d="M16.0004 12.7609C16.0004 14.9604 16.0004 17.1599 16.0004 19.3594C13.0991 19.4281 10.4538 18.6811 8.06445 17.1184C8.06445 15.5622 8.06445 14.0059 8.06445 12.4497C10.6865 12.3878 13.2998 12.3671 15.9044 12.3874C15.9167 12.5249 15.9487 12.6494 16.0004 12.7609Z"
        fill="#10B4BF" />
    <path fill-rule="evenodd" clip-rule="evenodd"
        d="M23.936 14.3174C23.936 14.9606 23.936 15.6039 23.936 16.2471C21.3547 16.2471 18.7733 16.2471 16.192 16.2471C16.2027 16.7456 16.192 17.2436 16.16 17.7411C16.128 16.6001 16.1173 15.4588 16.128 14.3174C18.7502 14.3167 21.3529 14.3167 23.936 14.3174Z"
        fill="#F9D155" />
    <path fill-rule="evenodd" clip-rule="evenodd"
        d="M28.3521 17.7409C27.0634 18.9946 25.6127 20.0321 24.0001 20.8533C21.7137 22.0025 19.2817 22.6457 16.7041 22.7831C16.4564 22.7635 16.2217 22.7842 16.0001 22.8453C13.213 22.8593 10.5677 22.2784 8.06415 21.1023C6.27974 20.2707 4.69041 19.171 3.29615 17.8031C2.93921 17.2851 2.85387 16.7248 3.04015 16.1224C3.64735 15.0164 4.53268 14.7363 5.69615 15.282C6.42334 15.9799 7.21269 16.5921 8.06415 17.1184C10.4535 18.6811 13.0988 19.4281 16.0001 19.3594C16.0215 19.3594 16.0428 19.3594 16.0641 19.3594C18.9858 19.2928 21.6311 18.4421 24.0001 16.8071C24.0428 16.8071 24.0641 16.7864 24.0641 16.7449C24.8141 16.2131 25.5181 15.6217 26.1761 14.9708C26.8029 14.619 27.4429 14.5983 28.0961 14.9085C29.1861 15.7643 29.2714 16.7085 28.3521 17.7409Z"
        fill="#FEFEFE" />
    <path fill-rule="evenodd" clip-rule="evenodd"
        d="M31.872 20.1064C31.9673 21.3702 31.946 21.9512 31.808 21.8494C29.2693 21.8494 26.7307 21.8494 24.192 21.8494C24.2026 22.1406 24.1919 22.4311 24.16 22.7208C24.1387 22.1399 24.1173 21.5588 24.096 20.9779C24.064 21.7245 24.0533 22.4715 24.064 23.2188C24.0852 25.8232 24.0639 28.4168 24 31C24 29.7757 24 28.5515 24 27.3273C24 27.1613 24 26.9953 24 26.8293C24 24.8996 24 22.9698 24 21.0401C24 20.9779 24 20.9156 24 20.8534C25.6125 20.0322 27.0632 18.9947 28.352 17.7409C28.5457 17.6882 28.727 17.6052 28.896 17.4919C28.961 17.5625 29.0037 17.5418 29.024 17.4297C29.0667 17.5957 29.1093 17.5957 29.152 17.4297C29.1947 17.5126 29.2373 17.5126 29.28 17.4297C29.4102 17.5579 29.5382 17.5371 29.664 17.3674C29.7067 17.4089 29.7493 17.4504 29.792 17.4919C29.8917 17.4393 29.9557 17.4808 29.984 17.6164C30.0907 17.4712 30.1973 17.3259 30.304 17.1807C30.3912 17.2694 30.4872 17.3212 30.592 17.3363C30.5438 17.4289 30.4905 17.4392 30.432 17.3674C30.3893 17.4297 30.3893 17.4919 30.432 17.5542C30.6667 17.5126 30.9013 17.4712 31.136 17.4297C31.1573 17.4712 31.1787 17.5126 31.2 17.5542C31.2705 17.4363 31.3558 17.3947 31.456 17.4297C31.5659 17.4891 31.6726 17.5514 31.776 17.6164C31.7973 17.5542 31.8187 17.4919 31.84 17.4297C31.8568 17.682 31.8461 17.9206 31.808 18.1455C31.9094 18.8885 31.9307 19.5422 31.872 20.1064Z"
        fill="#EA4F41" />
    <path fill-rule="evenodd" clip-rule="evenodd"
        d="M31.8716 20.1064C31.9143 20.1272 31.9569 20.148 31.9996 20.1687C31.9996 23.2604 31.9996 26.3521 31.9996 29.4438C31.9559 29.0246 31.9132 28.5992 31.8716 28.1677C31.9106 27.5113 31.9319 26.8888 31.9356 26.3002C31.8901 26.2221 31.8368 26.1495 31.7756 26.0824C29.2522 26.1444 26.7243 26.1652 24.1916 26.1446C24.2022 26.4152 24.1915 26.6849 24.1596 26.9539C24.1488 25.6982 24.1168 24.4532 24.0636 23.2189C24.0529 22.4716 24.0636 21.7246 24.0956 20.9779C24.1169 21.5589 24.1383 22.1399 24.1596 22.7209C24.1915 22.4311 24.2022 22.1407 24.1916 21.8494C26.7303 21.8494 29.2689 21.8494 31.8076 21.8494C31.9456 21.9513 31.9669 21.3703 31.8716 20.1064Z"
        fill="#E9483B" />
    <path fill-rule="evenodd" clip-rule="evenodd"
        d="M24.0004 20.8535C24.0004 20.9158 24.0004 20.978 24.0004 21.0403C23.9626 22.2554 23.9199 23.2721 23.8724 24.0905C21.3125 24.0905 18.7525 24.0905 16.1925 24.0905C16.2128 24.3726 16.1915 24.6424 16.1285 24.8997C16.1494 24.266 16.1281 23.6435 16.0645 23.0322C16.0645 22.97 16.0645 22.9077 16.0645 22.8455C16.2911 22.865 16.5045 22.8442 16.7045 22.7832C19.2821 22.6459 21.7141 22.0026 24.0004 20.8535Z"
        fill="#FBD142" />
    <path fill-rule="evenodd" clip-rule="evenodd"
        d="M24 21.04C24 22.9698 24 24.8995 24 26.8292C23.9365 26.3635 23.9152 25.8863 23.936 25.3975C21.3547 25.3975 18.7733 25.3975 16.192 25.3975C16.2026 25.7301 16.1919 26.0621 16.16 26.3935C16.128 25.8959 16.1174 25.3979 16.128 24.8995C16.191 24.6422 16.2124 24.3724 16.192 24.0903C18.752 24.0903 21.312 24.0903 23.872 24.0903C23.9195 23.2719 23.9622 22.2552 24 21.04Z"
        fill="#FCD13C" />
    <path fill-rule="evenodd" clip-rule="evenodd"
        d="M8.06445 21.1025C10.568 22.2786 13.2133 22.8595 16.0004 22.8455C16.0004 24.3395 16.0004 25.8335 16.0004 27.3275C15.9378 27.522 15.9164 27.7295 15.9364 27.95C13.3338 27.95 10.7311 27.95 8.12845 27.95C8.14925 27.5026 8.12788 27.0668 8.06445 26.6427C8.06445 24.796 8.06445 22.9493 8.06445 21.1025Z"
        fill="#00A7B1" />
    <path opacity="0.996" fill-rule="evenodd" clip-rule="evenodd"
        d="M16.704 22.783C16.504 22.844 16.2907 22.8648 16.064 22.8453C16.064 22.9075 16.064 22.9698 16.064 23.032C16.064 24.4845 16.064 25.937 16.064 27.3895C16.064 28.6137 16.064 29.8379 16.064 31.0622C16.0427 31.0622 16.0213 31.0622 16 31.0622C16 29.8172 16 28.5722 16 27.3272C16 25.8332 16 24.3393 16 22.8453C16.2216 22.7841 16.4563 22.7634 16.704 22.783Z"
        fill="#C8C853" />
    <path fill-rule="evenodd" clip-rule="evenodd"
        d="M16.0645 23.0322C16.1281 23.6435 16.1494 24.2659 16.1285 24.8997C16.1178 25.3981 16.1285 25.8961 16.1605 26.3937C16.1924 26.0623 16.2031 25.7304 16.1925 25.3977C18.7738 25.3977 21.3551 25.3977 23.9364 25.3977C23.9156 25.8865 23.937 26.3637 24.0004 26.8294C24.0004 26.9954 24.0004 27.1614 24.0004 27.3274C23.9372 27.6474 23.9159 27.9794 23.9364 28.3234C21.3338 28.3234 18.7311 28.3234 16.1285 28.3234C16.149 28 16.1276 27.6888 16.0645 27.3897C16.0645 25.9372 16.0645 24.4847 16.0645 23.0322Z"
        fill="#FDD035" />
    <path fill-rule="evenodd" clip-rule="evenodd"
        d="M24.064 23.2188C24.1172 24.4531 24.1492 25.6981 24.16 26.9537C24.1919 26.6847 24.2026 26.415 24.192 26.1445C26.7247 26.165 29.2527 26.1443 31.776 26.0822C31.8372 26.1494 31.8905 26.222 31.936 26.3001C31.9323 26.8887 31.911 27.5111 31.872 28.1676C31.9136 28.5991 31.9563 29.0245 32 29.4437C32 29.5682 32 29.6927 32 29.8172C31.9421 29.8613 31.9208 29.9236 31.936 30.0039C31.8824 30.0252 31.861 30.0667 31.872 30.1284C31.8184 30.1497 31.797 30.1912 31.808 30.2529C31.7653 30.2529 31.744 30.2736 31.744 30.3152C31.654 30.3446 31.6113 30.4069 31.616 30.5019C31.5733 30.5019 31.552 30.5226 31.552 30.5642C31.4411 30.5958 31.4198 30.6476 31.488 30.7198C31.45 30.7487 31.4073 30.7591 31.36 30.7509C31.3387 30.6679 31.3173 30.6679 31.296 30.7509C31.2533 30.7509 31.232 30.7716 31.232 30.8132C31.2107 30.8132 31.1893 30.8132 31.168 30.8132C31.1253 30.8132 31.104 30.8339 31.104 30.8754C31.0613 30.8754 31.04 30.8961 31.04 30.9377C30.9765 30.9269 30.9339 30.9477 30.912 30.9999C30.8294 30.9852 30.7654 31.0059 30.72 31.0622C25.8142 31.1231 20.9075 31.1438 16 31.1244C16 31.1037 16 31.0829 16 31.0622C16.0213 31.0622 16.0427 31.0622 16.064 31.0622C18.7202 31.0828 21.3656 31.0621 24 30.9999C24.0639 28.4167 24.0852 25.8231 24.064 23.2188Z"
        fill="#E84433" />
    <path fill-rule="evenodd" clip-rule="evenodd"
        d="M8.06404 30.8754C8.06404 30.9377 8.06404 30.9999 8.06404 31.0622C5.97337 31.0622 3.88271 31.0622 1.79204 31.0622C1.64271 31.0622 1.49337 31.0622 1.34404 31.0622C1.29867 31.0059 1.23467 30.9852 1.15204 30.9999C1.10903 30.9522 1.0557 30.9107 0.992041 30.8754C0.874269 30.9584 0.842269 30.948 0.896041 30.8443C0.84271 30.7924 0.789373 30.7405 0.736041 30.6887C0.618266 30.7717 0.586266 30.7613 0.640042 30.6575C0.539546 30.5706 0.454212 30.4772 0.384042 30.3774C0.345016 30.322 0.323682 30.2597 0.320042 30.1907C0.261529 28.6895 0.240196 27.1748 0.256042 25.6465C2.83737 25.6465 5.41871 25.6465 8.00004 25.6465C7.97885 27.4002 8.00017 29.1431 8.06404 30.8754Z"
        fill="#006CB5" />
    <path fill-rule="evenodd" clip-rule="evenodd"
        d="M8.06399 26.6426C8.12741 27.0667 8.14879 27.5024 8.12799 27.9498C10.7307 27.9498 13.3333 27.9498 15.936 27.9498C15.916 27.7293 15.9373 27.5218 16 27.3273C16 28.5723 16 29.8173 16 31.0623C16 31.083 16 31.1038 16 31.1245C11.2532 31.1453 6.51717 31.1245 1.79199 31.0623C3.88266 31.0623 5.97332 31.0623 8.06399 31.0623C8.06399 31 8.06399 30.9378 8.06399 30.8755C8.06399 29.4645 8.06399 28.0536 8.06399 26.6426Z"
        fill="#00A1AB" />
    <path fill-rule="evenodd" clip-rule="evenodd"
        d="M24.0004 27.3276C24.0004 28.5519 24.0004 29.7761 24.0004 31.0003C21.366 31.0625 18.7206 31.0833 16.0645 31.0626C16.0645 29.8383 16.0645 28.6141 16.0645 27.3899C16.1276 27.689 16.149 28.0002 16.1285 28.3236C18.7311 28.3236 21.3338 28.3236 23.9364 28.3236C23.9159 27.9796 23.9372 27.6476 24.0004 27.3276Z"
        fill="#FDD02C" />
    <path opacity="0.01" fill-rule="evenodd" clip-rule="evenodd"
        d="M0 29.8174C0.0213333 29.8174 0.0426667 29.8174 0.064 29.8174C0.064 29.8796 0.064 29.9419 0.064 30.0041C0.0426667 30.0041 0.0213333 30.0041 0 30.0041C0 29.9419 0 29.8796 0 29.8174Z"
        fill="#15232C" />
    <path opacity="0.01" fill-rule="evenodd" clip-rule="evenodd"
        d="M0.0644531 30.0039C0.149786 30.0454 0.149786 30.0454 0.0644531 30.0039Z" fill="#050404" />
    <path opacity="0.01" fill-rule="evenodd" clip-rule="evenodd"
        d="M31.9355 30.0039C31.9569 30.0039 31.9782 30.0039 31.9995 30.0039C31.9995 30.0246 31.9995 30.0454 31.9995 30.0662C31.9782 30.0454 31.9569 30.0246 31.9355 30.0039Z"
        fill="#050404" />
    <path opacity="0.01" fill-rule="evenodd" clip-rule="evenodd"
        d="M31.8721 30.1284C31.9574 30.1699 31.9574 30.1699 31.8721 30.1284Z" fill="#050404" />
    <path opacity="0.01" fill-rule="evenodd" clip-rule="evenodd"
        d="M31.8076 30.2529C31.8929 30.2944 31.8929 30.2944 31.8076 30.2529Z" fill="#050404" />
    <path opacity="0.01" fill-rule="evenodd" clip-rule="evenodd"
        d="M31.7441 30.3154C31.7655 30.3154 31.7868 30.3154 31.8081 30.3154C31.7963 30.3571 31.7749 30.3571 31.7441 30.3154Z"
        fill="#050404" />
    <path opacity="0.01" fill-rule="evenodd" clip-rule="evenodd"
        d="M0.383563 30.3774C0.340896 30.419 0.340896 30.419 0.383563 30.3774Z" fill="#050404" />
    <path opacity="0.01" fill-rule="evenodd" clip-rule="evenodd"
        d="M31.6162 30.502C31.7015 30.5435 31.7015 30.5435 31.6162 30.502Z" fill="#050404" />
    <path opacity="0.01" fill-rule="evenodd" clip-rule="evenodd"
        d="M31.5518 30.5645C31.5731 30.5645 31.5944 30.5645 31.6158 30.5645C31.6039 30.6062 31.5825 30.6062 31.5518 30.5645Z"
        fill="#050404" />
    <path opacity="0.01" fill-rule="evenodd" clip-rule="evenodd"
        d="M31.2959 30.751C31.3172 30.751 31.3386 30.751 31.3599 30.751C31.3481 30.7927 31.3267 30.7927 31.2959 30.751Z"
        fill="#050404" />
    <path opacity="0.01" fill-rule="evenodd" clip-rule="evenodd"
        d="M31.1675 30.8135C31.1675 30.855 31.1888 30.8757 31.2315 30.8757C31.2096 30.9279 31.167 30.9487 31.1035 30.938C31.1035 30.9172 31.1035 30.8965 31.1035 30.8757C31.1035 30.8342 31.1248 30.8135 31.1675 30.8135Z"
        fill="#050404" />
    <path opacity="0.01" fill-rule="evenodd" clip-rule="evenodd"
        d="M31.2324 30.8135C31.2537 30.8135 31.2751 30.8135 31.2964 30.8135C31.2846 30.8552 31.2632 30.8552 31.2324 30.8135Z"
        fill="#050404" />
    <path opacity="0.01" fill-rule="evenodd" clip-rule="evenodd"
        d="M31.04 30.938C31.0614 30.938 31.0827 30.938 31.104 30.938C31.0922 30.9797 31.0708 30.9797 31.04 30.938Z"
        fill="#050404" />
    <path opacity="0.024" fill-rule="evenodd" clip-rule="evenodd"
        d="M1.15241 31.0002C1.12703 31.0641 1.08437 31.0744 1.02441 31.0314C1.06246 31.0025 1.10512 30.9921 1.15241 31.0002Z"
        fill="#19526C" />
    <path opacity="0.01" fill-rule="evenodd" clip-rule="evenodd"
        d="M30.9121 31C30.9974 31.0415 30.9974 31.0415 30.9121 31Z" fill="#050404" />
    <path opacity="0.01" fill-rule="evenodd" clip-rule="evenodd"
        d="M1.34382 31.0623C1.31844 31.1261 1.27578 31.1365 1.21582 31.0934C1.25386 31.0645 1.29653 31.0541 1.34382 31.0623Z"
        fill="#050404" />
    <path opacity="0.01" fill-rule="evenodd" clip-rule="evenodd"
        d="M30.7197 31.0623C30.767 31.0541 30.8097 31.0645 30.8477 31.0934C30.7878 31.1365 30.7451 31.1261 30.7197 31.0623Z"
        fill="#050404" />
    <path opacity="0.01" fill-rule="evenodd" clip-rule="evenodd"
        d="M1.4082 31.1869C1.47866 31.1186 1.564 31.1082 1.6642 31.1558C1.58144 31.1863 1.4961 31.1967 1.4082 31.1869Z"
        fill="#142028" />
    <path opacity="0.01" fill-rule="evenodd" clip-rule="evenodd"
        d="M30.4004 31.1869C30.4709 31.1186 30.5562 31.1082 30.6564 31.1558C30.5736 31.1863 30.4883 31.1967 30.4004 31.1869Z"
        fill="#050404" />
    <path opacity="0.01" fill-rule="evenodd" clip-rule="evenodd"
        d="M8.06445 31.249C10.699 31.1765 13.3443 31.1661 16.0004 31.2179C13.3552 31.249 10.7099 31.2594 8.06445 31.249Z"
        fill="#050404" />
    <path opacity="0.01" fill-rule="evenodd" clip-rule="evenodd"
        d="M19.6484 31.4356C20.1704 31.3636 20.7038 31.3533 21.2484 31.4045C20.7155 31.4356 20.1822 31.446 19.6484 31.4356Z"
        fill="#050404" />
    <path opacity="0.01" fill-rule="evenodd" clip-rule="evenodd"
        d="M6.84766 31.4982C7.39102 31.4262 7.9457 31.4158 8.51166 31.4671C7.95742 31.4982 7.40273 31.5085 6.84766 31.4982Z"
        fill="#050404" />
    <path opacity="0.01" fill-rule="evenodd" clip-rule="evenodd"
        d="M9.85645 31.4981C10.3784 31.4261 10.9118 31.4158 11.4564 31.467C10.9235 31.4981 10.3902 31.5085 9.85645 31.4981Z"
        fill="#050404" />
    <path opacity="0.01" fill-rule="evenodd" clip-rule="evenodd"
        d="M14.9121 31.996C15.3059 31.9243 15.7112 31.9139 16.1281 31.9649C15.7233 31.996 15.318 32.0064 14.9121 31.996Z"
        fill="#050404" />
</svg>