<svg width="32" height="32" viewBox="0 0 32 32" fill="none" xmlns="http://www.w3.org/2000/svg">
    <g clip-path="url(#clip0_5512_976)">
        <path fill-rule="evenodd" clip-rule="evenodd"
            d="M-0.0710449 -0.0712891C10.5956 -0.0712891 21.2623 -0.0712891 31.929 -0.0712891C31.929 10.5954 31.929 21.262 31.929 31.9287C21.2623 31.9287 10.5956 31.9287 -0.0710449 31.9287C-0.0710449 21.262 -0.0710449 10.5954 -0.0710449 -0.0712891Z"
            fill="#7622D6" />
        <path fill-rule="evenodd" clip-rule="evenodd"
            d="M16.8533 6.4707C16.8392 6.85999 16.8867 7.23926 16.9955 7.60848C16.9007 7.56108 16.806 7.51366 16.7111 7.46626C16.6681 7.10227 16.7157 6.77042 16.8533 6.4707Z"
            fill="#9A70C2" />
        <path fill-rule="evenodd" clip-rule="evenodd"
            d="M24.9599 21.1198C24.7599 21.187 24.6651 21.3293 24.6755 21.5464C22.9907 24.2259 20.5729 25.743 17.4221 26.0975C17.3273 25.908 17.185 25.7657 16.9955 25.6709C16.8181 25.192 16.8181 24.7178 16.9955 24.2487C16.9832 24.107 17.0307 23.9885 17.1377 23.8931C19.5404 23.3571 21.3893 22.0533 22.6844 19.982C22.8708 19.3871 22.8708 18.7708 22.6844 18.1331C22.6875 18.3457 22.6401 18.5828 22.5421 18.8442C22.29 18.7607 22.0293 18.7134 21.7599 18.702C20.7958 19.0267 19.824 19.0503 18.8444 18.7731C18.797 18.7257 18.7495 18.6782 18.7021 18.6309C18.9085 18.6683 19.0981 18.6445 19.271 18.5598C19.0187 18.4621 18.7816 18.3436 18.5599 18.2042C18.3568 18.1219 18.1671 18.1456 17.991 18.2753C17.5043 17.9701 17.1488 17.5434 16.9244 16.9953C16.5795 14.141 17.8357 12.6714 20.6932 12.5864C21.1627 12.8922 21.6842 13.0107 22.2577 12.942C22.7562 12.4678 22.8037 11.97 22.3999 11.4487C21.1794 9.69926 19.5201 8.5852 17.4221 8.10643C17.1998 7.9985 17.0576 7.83257 16.9955 7.60865C16.8867 7.23943 16.8392 6.86017 16.8532 6.47088C17.0781 6.03189 17.4337 5.79485 17.9199 5.75977C22.0853 6.70149 24.7875 9.21407 26.0266 13.2975C26.6548 16.0446 26.2992 18.6519 24.9599 21.1198Z"
            fill="#FBFAFB" />
        <path fill-rule="evenodd" clip-rule="evenodd"
            d="M9.45782 11.4492C9.03843 11.7003 8.94363 12.0321 9.17338 12.4448C9.34391 12.8049 9.62836 12.9945 10.0267 13.0137C11.7626 12.2092 13.256 12.5411 14.5067 14.0092C14.6597 14.3985 14.8257 14.7778 15.0045 15.147C15.0753 15.9419 14.9806 16.7004 14.72 17.4226C13.5309 19.1887 11.9428 19.6627 9.9556 18.8448C9.46648 18.9306 9.20573 19.215 9.17338 19.6981C9.22277 20.1288 9.3887 20.5079 9.67115 20.8359C10.97 22.3753 12.6056 23.3945 14.5778 23.8937C14.7499 24.0415 14.8921 24.2074 15.0045 24.3915C15.0536 24.9056 14.9587 25.3796 14.72 25.8137C14.451 26.0058 14.1429 26.1007 13.7956 26.0981C13.4403 26.0388 13.0848 25.9913 12.7289 25.9559C9.76849 24.8442 7.63516 22.853 6.32893 19.9826C6.13419 19.3521 5.94456 18.7357 5.76004 18.1337C5.00523 12.6258 7.09114 8.64362 12.0178 6.18702C12.4071 6.1115 12.7863 5.99297 13.1556 5.83146C14.4353 5.54925 15.0753 6.04703 15.0756 7.3248C15.0095 7.52829 14.8909 7.69422 14.72 7.82257C13.9132 8.27764 13.0599 8.60949 12.16 8.81813C11.0858 9.53711 10.185 10.4141 9.45782 11.4492Z"
            fill="#FBFAFB" />
        <path fill-rule="evenodd" clip-rule="evenodd"
            d="M9.45769 11.4492C9.25387 11.7419 9.15906 12.0738 9.17324 12.4448C8.9435 12.0321 9.0383 11.7002 9.45769 11.4492Z"
            fill="#B48FD1" />
        <path fill-rule="evenodd" clip-rule="evenodd"
            d="M22.4 11.4492C22.8038 11.9706 22.7563 12.4684 22.2578 12.9426C21.6844 13.0113 21.1628 12.8927 20.6934 12.587C21.2103 12.6744 21.7319 12.7218 22.2578 12.7292C22.255 12.4955 22.3498 12.3059 22.5422 12.1603C22.4272 11.9369 22.3797 11.6999 22.4 11.4492Z"
            fill="#7233B8" />
        <path fill-rule="evenodd" clip-rule="evenodd"
            d="M15.0044 15.1465C15.1913 15.836 15.1913 16.5471 15.0044 17.2798C14.9073 17.3314 14.8124 17.3788 14.72 17.422C14.9805 16.6998 15.0752 15.9414 15.0044 15.1465Z"
            fill="#7B48B6" />
        <path fill-rule="evenodd" clip-rule="evenodd"
            d="M16.711 7.46696C16.8059 7.51436 16.9006 7.56178 16.9955 7.60918C17.0576 7.8331 17.1999 7.99903 17.4221 8.10696C19.5201 8.58572 21.1794 9.69979 22.3999 11.4492C22.3796 11.6998 22.4271 11.9369 22.5421 12.1603C22.3497 12.3059 22.2549 12.4955 22.2577 12.7292C21.7318 12.7217 21.2102 12.6743 20.6933 12.587C17.8357 12.672 16.5795 14.1416 16.9244 16.9959C17.1488 17.544 17.5044 17.9706 17.991 18.2759C18.2507 18.7876 18.6774 19.0958 19.271 19.2003C19.7926 19.2952 20.314 19.2952 20.8355 19.2003C21.4731 18.7362 22.0656 18.76 22.6133 19.2714C22.6835 19.5038 22.7071 19.7409 22.6844 19.9825C21.3893 22.0538 19.5404 23.3576 17.1377 23.8936C17.0308 23.9891 16.9832 24.1075 16.9955 24.2492C16.8156 24.3934 16.7208 24.6067 16.711 24.8892C16.7348 25.1025 16.7584 25.3159 16.7821 25.5292C16.8366 25.6083 16.9077 25.6556 16.9955 25.6714C17.1851 25.7663 17.3273 25.9085 17.4221 26.0981C17.1752 26.0204 16.8908 26.0204 16.5688 26.0981C16.6623 25.3281 16.5674 24.5695 16.2844 23.8225C16.167 24.2401 16.167 24.6667 16.2844 25.1025C16.2387 25.4999 16.0965 25.8554 15.8577 26.1692C15.1319 26.2301 14.4208 26.3485 13.7244 26.5247C13.3738 26.5279 13.0419 26.4568 12.7288 26.3114C12.5726 26.2019 12.5726 26.0834 12.7288 25.9559C13.0847 25.9913 13.4402 26.0388 13.7955 26.0981C14.1428 26.1006 14.4508 26.0058 14.7199 25.8136C14.8621 25.8136 15.0044 25.8136 15.1466 25.8136C15.1594 25.5013 15.2068 25.1931 15.2888 24.8892C15.3049 24.6475 15.2102 24.4816 15.0044 24.3914C14.892 24.2074 14.7498 24.0414 14.5777 23.8936C12.6054 23.3944 10.9699 22.3753 9.67104 20.8359C9.38858 20.5079 9.22265 20.1287 9.17326 19.6981C9.20561 19.2149 9.46636 18.9305 9.95548 18.8447C11.9426 19.6627 13.5308 19.1886 14.7199 17.4225C14.8124 17.3793 14.9072 17.3319 15.0044 17.2803C15.1912 16.5476 15.1912 15.8365 15.0044 15.147C14.8256 14.7778 14.6596 14.3984 14.5066 14.0092C13.2558 12.541 11.7625 12.2091 10.0266 13.0136C9.62824 12.9945 9.3438 12.8049 9.17326 12.4447C9.15908 12.0738 9.25388 11.7419 9.4577 11.4492C10.1849 10.4141 11.0856 9.53705 12.1599 8.81807C13.0597 8.60943 13.9131 8.27759 14.7199 7.82252C14.8907 7.69416 15.0093 7.52823 15.0755 7.32474C15.0752 6.04697 14.4352 5.54919 13.1555 5.83141C12.7862 5.99291 12.407 6.11144 12.0177 6.18696C12.0177 6.04474 12.0177 5.90252 12.0177 5.7603C11.8224 5.78258 11.6327 5.75887 11.4488 5.68918C12.2494 5.90384 12.9605 5.73791 13.5821 5.19141C14.2376 5.40989 14.9013 5.59953 15.5733 5.7603C15.4465 5.91526 15.3043 5.91526 15.1466 5.7603C15.0992 5.83141 15.0517 5.90252 15.0044 5.97363C15.1904 6.30594 15.3326 6.6615 15.431 7.0403C15.5295 6.96559 15.6006 6.87078 15.6444 6.75585C15.7392 7.13511 15.834 7.51436 15.9288 7.89363C15.9762 7.32474 16.0237 6.75585 16.071 6.18696C16.248 6.63637 16.3666 7.11044 16.4266 7.60918C16.474 7.704 16.5215 7.79881 16.5688 7.89363C16.6948 7.7763 16.7422 7.63407 16.711 7.46696Z"
            fill="#7624D4" />
        <path fill-rule="evenodd" clip-rule="evenodd"
            d="M22.6845 19.9827C22.7073 19.741 22.6837 19.504 22.6134 19.2716C22.0657 18.7601 21.4732 18.7364 20.8357 19.2005C20.3141 19.2953 19.7927 19.2953 19.2712 19.2005C18.6776 19.0959 18.2509 18.7877 17.9912 18.276C18.1673 18.1463 18.357 18.1226 18.5601 18.2049C18.7818 18.3443 19.0189 18.4627 19.2712 18.5605C19.0983 18.6452 18.9087 18.669 18.7023 18.6316C18.7497 18.6789 18.7972 18.7264 18.8445 18.7738C19.8242 19.051 20.796 19.0274 21.7601 18.7027C22.0295 18.7141 22.2902 18.7614 22.5423 18.8449C22.6403 18.5835 22.6877 18.3464 22.6845 18.1338C22.871 18.7715 22.871 19.3878 22.6845 19.9827Z"
            fill="#ECDFF2" />
        <path fill-rule="evenodd" clip-rule="evenodd"
            d="M5.76006 18.1338C5.94458 18.7358 6.13421 19.3522 6.32895 19.9827C5.83056 19.486 5.64092 18.8698 5.76006 18.1338Z"
            fill="#7D44BA" />
        <path fill-rule="evenodd" clip-rule="evenodd"
            d="M24.96 21.1201C24.9704 21.3373 24.8755 21.4795 24.6756 21.5468C24.6652 21.3296 24.7601 21.1874 24.96 21.1201Z"
            fill="#AD82D6" />
        <path fill-rule="evenodd" clip-rule="evenodd"
            d="M16.9956 24.249C16.8183 24.7182 16.8183 25.1924 16.9956 25.6712C16.9079 25.6555 16.8368 25.6081 16.7823 25.529C16.7585 25.3157 16.7349 25.1024 16.7112 24.889C16.721 24.6066 16.8157 24.3932 16.9956 24.249Z"
            fill="#8D5CB8" />
        <path fill-rule="evenodd" clip-rule="evenodd"
            d="M15.0044 24.3906C15.2102 24.4808 15.3049 24.6468 15.2889 24.8884C15.2068 25.1923 15.1594 25.5005 15.1466 25.8128C15.0044 25.8128 14.8622 25.8128 14.72 25.8128C14.9586 25.3788 15.0535 24.9048 15.0044 24.3906Z"
            fill="#7E44C1" />
    </g>
    <defs>
        <clipPath id="clip0_5512_976">
            <rect width="32" height="32" fill="white" />
        </clipPath>
    </defs>
</svg>