<svg width="32" height="32" viewBox="0 0 32 32" fill="none" xmlns="http://www.w3.org/2000/svg">
    <g clip-path="url(#clip0_5440_45)">
        <path fill-rule="evenodd" clip-rule="evenodd"
            d="M-0.0710449 -0.0712891C10.5956 -0.0712891 21.2623 -0.0712891 31.929 -0.0712891C31.929 10.5954 31.929 21.262 31.929 31.9287C21.2623 31.9287 10.5956 31.9287 -0.0710449 31.9287C-0.0710449 21.262 -0.0710449 10.5954 -0.0710449 -0.0712891Z"
            fill="#0C3A44" />
        <path fill-rule="evenodd" clip-rule="evenodd"
            d="M12.1599 7.46671C14.7739 7.4052 17.3814 7.47631 19.9821 7.68004C22.0899 8.50186 23.2987 10.0426 23.6088 12.3023C23.7037 16.1896 23.7037 20.0771 23.6088 23.9645C23.5556 24.0948 23.4845 24.2134 23.3955 24.32C22.3525 24.4149 21.3095 24.4149 20.2666 24.32C20.1955 24.2489 20.1243 24.1778 20.0532 24.1067C19.9823 23.3972 19.9585 22.6861 19.9821 21.9734C20.6459 21.9734 21.3095 21.9734 21.9732 21.9734C21.9967 21.4969 21.973 21.0229 21.9021 20.5512C21.2859 20.0296 20.6695 19.5082 20.0532 18.9867C20.0059 17.043 19.9584 15.0993 19.911 13.1556C19.4568 11.4716 18.3426 10.642 16.5688 10.6667C14.9126 10.3497 13.514 10.8001 12.3732 12.0178C12.0963 12.556 11.9067 13.1249 11.8043 13.7245C11.7569 17.1852 11.7095 20.646 11.6621 24.1067C11.591 24.1778 11.5199 24.2489 11.4488 24.32C10.3708 24.4357 9.30409 24.4121 8.24879 24.2489C8.08515 22.247 8.01404 20.2321 8.03546 18.2045C8.01762 16.0413 8.08873 13.8843 8.24879 11.7334C8.69871 9.5065 10.0024 8.08428 12.1599 7.46671Z"
            fill="#FDF286" />
    </g>
    <defs>
        <clipPath id="clip0_5440_45">
            <rect width="32" height="32" fill="white" />
        </clipPath>
    </defs>
</svg>