<svg width="32" height="32" viewBox="0 0 32 32" fill="none" xmlns="http://www.w3.org/2000/svg">
    <path
        d="M4.93938 31.9995C4.67006 31.9995 4.40543 31.9301 4.17187 31.7982C3.93832 31.6663 3.74399 31.4766 3.60828 31.2477L0.21452 25.4667C0.0798992 25.2367 0.0090332 24.976 0.0090332 24.7107C0.0090332 24.4452 0.0798992 24.1845 0.21452 23.9546L3.60828 18.1747C3.74399 17.9458 3.93832 17.756 4.17187 17.6242C4.40543 17.4922 4.67006 17.4229 4.93938 17.4229H11.7258C11.9952 17.4229 12.2598 17.4922 12.4933 17.6242C12.7269 17.756 12.9213 17.9458 13.057 18.1747L16.4507 23.9557C16.5852 24.1855 16.6559 24.446 16.6559 24.7111C16.6559 24.9763 16.5852 25.2368 16.4507 25.4667L13.057 31.2477C12.9213 31.4766 12.727 31.6664 12.4934 31.7983C12.2599 31.9303 11.9952 31.9996 11.7258 31.9995H4.93938Z"
        fill="#FFE59F" />
    <path
        d="M4.93035 14.5767C4.66089 14.5767 4.39612 14.5073 4.16239 14.3754C3.92867 14.2435 3.73415 14.0537 3.59818 13.8248L0.205487 8.04383C0.0708555 7.81406 0 7.55352 0 7.28833C0 7.02313 0.0708555 6.76258 0.205487 6.53281L3.59818 0.75176C3.73415 0.522954 3.92867 0.333159 4.16239 0.201266C4.39612 0.0693737 4.66089 -1.53721e-05 4.93035 2.55439e-09H11.7168C11.986 0.000172107 12.2506 0.0696519 12.4842 0.201535C12.7177 0.333418 12.912 0.523112 13.048 0.75176L16.4405 6.53173C16.5752 6.76171 16.6461 7.02243 16.6461 7.28779C16.6461 7.55316 16.5752 7.81386 16.4405 8.04383L14.6934 11.0283L13.0556 13.8206C12.9196 14.0492 12.7253 14.2389 12.4918 14.3708C12.2583 14.5027 11.9938 14.5722 11.7244 14.5723L4.93035 14.5767Z"
        fill="#C1BFFB" />
    <path
        d="M20.283 23.2886C20.0138 23.2884 19.7493 23.2189 19.5158 23.0871C19.2823 22.9551 19.0879 22.7654 18.952 22.5368L15.5582 16.7558C15.4241 16.5258 15.3535 16.2653 15.3535 16.0002C15.3535 15.7351 15.4241 15.4747 15.5582 15.2447L18.952 9.46367C19.0879 9.23502 19.2823 9.04533 19.5158 8.91344C19.7493 8.78156 20.0138 8.71209 20.283 8.71191H27.0696C27.3388 8.71175 27.6036 8.78109 27.8371 8.91301C28.0707 9.04493 28.265 9.2348 28.4007 9.46367L31.7944 15.2437C31.9291 15.4738 32.0001 15.7346 32.0001 16.0002C32.0001 16.2658 31.9291 16.5267 31.7944 16.7568L28.4017 22.5368C28.2657 22.7656 28.0712 22.9554 27.8376 23.0873C27.6038 23.2192 27.339 23.2886 27.0696 23.2886H20.283Z"
        fill="#FFB3B3" />
</svg>