<svg width="32" height="32" viewBox="0 0 32 32" fill="none" xmlns="http://www.w3.org/2000/svg">
    <g clip-path="url(#clip0_5334_5749)">
        <path fill-rule="evenodd" clip-rule="evenodd"
            d="M-0.0712891 -0.0712891C10.5954 -0.0712891 21.262 -0.0712891 31.9287 -0.0712891C31.9287 10.5954 31.9287 21.262 31.9287 31.9287C21.262 31.9287 10.5954 31.9287 -0.0712891 31.9287C-0.0712891 21.262 -0.0712891 10.5954 -0.0712891 -0.0712891Z"
            fill="#FEDA80" />
        <path fill-rule="evenodd" clip-rule="evenodd"
            d="M14.5774 1.35107C15.3834 1.35107 16.1892 1.35107 16.9952 1.35107C16.9952 1.4933 16.9952 1.63552 16.9952 1.77774C17.7553 1.75413 18.5137 1.77783 19.2708 1.84885C19.3898 1.99268 19.4372 2.1586 19.413 2.34663C19.887 2.34663 20.3612 2.34663 20.8352 2.34663C20.8352 2.48885 20.8352 2.63107 20.8352 2.7733C21.1197 2.7733 21.4041 2.7733 21.6885 2.7733C21.6885 2.91552 21.6885 3.05774 21.6885 3.19996C22.0204 3.19996 22.3523 3.19996 22.6841 3.19996C22.6841 3.38959 22.6841 3.57923 22.6841 3.76885C23.0159 3.76885 23.3479 3.76885 23.6797 3.76885C23.6797 3.91107 23.6797 4.0533 23.6797 4.19552C23.8219 4.19552 23.9641 4.19552 24.1063 4.19552C24.1063 4.33774 24.1063 4.47996 24.1063 4.62219C24.2485 4.62219 24.3908 4.62219 24.533 4.62219C24.4856 5.04885 24.6752 5.23848 25.1019 5.19107C25.1019 5.3333 25.1019 5.47552 25.1019 5.61774C25.2441 5.61774 25.3863 5.61774 25.5285 5.61774C25.5285 5.75996 25.5285 5.90219 25.5285 6.04441C25.6708 6.04441 25.813 6.04441 25.9552 6.04441C25.9079 6.47107 26.0974 6.6607 26.5241 6.6133C26.5241 6.75552 26.5241 6.89774 26.5241 7.03996C26.6663 7.03996 26.8085 7.03996 26.9508 7.03996C26.9508 7.18219 26.9508 7.32441 26.9508 7.46663C27.093 7.46663 27.2352 7.46663 27.3774 7.46663C27.3774 7.79848 27.3774 8.13034 27.3774 8.46219C27.567 8.46219 27.7567 8.46219 27.9463 8.46219C27.9463 8.79403 27.9463 9.12589 27.9463 9.45774C28.0885 9.45774 28.2308 9.45774 28.373 9.45774C28.373 9.74219 28.373 10.0266 28.373 10.3111C28.5152 10.3111 28.6574 10.3111 28.7997 10.3111C28.7997 10.7851 28.7997 11.2592 28.7997 11.7333C28.9877 11.7091 29.1537 11.7565 29.2974 11.8755C29.3684 12.49 29.3922 13.1063 29.3685 13.7244C29.5108 13.7244 29.653 13.7244 29.7952 13.7244C29.7952 15.1466 29.7952 16.5689 29.7952 17.9911C29.653 17.9911 29.5108 17.9911 29.3685 17.9911C29.3685 18.7495 29.3685 19.5082 29.3685 20.2666C29.1805 20.2425 29.0146 20.2898 28.8708 20.4089C28.8004 20.6895 28.7766 20.9739 28.7997 21.2622C28.6574 21.2622 28.5152 21.2622 28.373 21.2622C28.373 21.594 28.373 21.9259 28.373 22.2577C28.2308 22.2577 28.0885 22.2577 27.9463 22.2577C27.9463 22.5422 27.9463 22.8266 27.9463 23.1111C27.7583 23.0869 27.5923 23.1343 27.4485 23.2533C27.3781 23.5339 27.3544 23.8183 27.3774 24.1066C27.2352 24.1066 27.093 24.1066 26.9508 24.1066C26.9508 24.2489 26.9508 24.3911 26.9508 24.5333C26.8085 24.5333 26.6663 24.5333 26.5241 24.5333C26.5715 24.96 26.3819 25.1495 25.9552 25.1022C25.9552 25.2444 25.9552 25.3866 25.9552 25.5289C25.813 25.5289 25.6708 25.5289 25.5285 25.5289C25.5285 25.6711 25.5285 25.8133 25.5285 25.9555C25.3863 25.9555 25.2441 25.9555 25.1019 25.9555C25.1492 26.3822 24.9597 26.5718 24.533 26.5244C24.533 26.6666 24.533 26.8089 24.533 26.9511C24.3908 26.9511 24.2485 26.9511 24.1063 26.9511C24.1063 27.0933 24.1063 27.2355 24.1063 27.3777C23.9641 27.3777 23.8219 27.3777 23.6797 27.3777C23.7038 27.5658 23.6565 27.7317 23.5374 27.8755C23.2568 27.9459 22.9724 27.9697 22.6841 27.9466C22.6841 28.0889 22.6841 28.2311 22.6841 28.3733C22.5419 28.3733 22.3997 28.3733 22.2574 28.3733C22.2574 28.5155 22.2574 28.6577 22.2574 28.8C21.7834 28.8 21.3092 28.8 20.8352 28.8C20.8594 28.988 20.812 29.154 20.693 29.2977C20.4124 29.3681 20.1279 29.3919 19.8397 29.3689C19.8397 29.5111 19.8397 29.6533 19.8397 29.7955C19.0337 29.7955 18.2279 29.7955 17.4219 29.7955C17.4219 29.9377 17.4219 30.08 17.4219 30.2222C16.3315 30.2222 15.2412 30.2222 14.1508 30.2222C14.1508 30.08 14.1508 29.9377 14.1508 29.7955C13.3448 29.7955 12.5389 29.7955 11.733 29.7955C11.733 29.6533 11.733 29.5111 11.733 29.3689C11.3037 29.3923 10.877 29.3686 10.453 29.2977C10.334 29.154 10.2866 28.988 10.3108 28.8C10.0263 28.8 9.74188 28.8 9.45744 28.8C9.45744 28.6577 9.45744 28.5155 9.45744 28.3733C9.12559 28.3733 8.79373 28.3733 8.46188 28.3733C8.46188 28.2311 8.46188 28.0889 8.46188 27.9466C8.17356 27.9697 7.88911 27.9459 7.60855 27.8755C7.48957 27.7317 7.44215 27.5658 7.46633 27.3777C7.3241 27.3777 7.18188 27.3777 7.03966 27.3777C7.03966 27.2355 7.03966 27.0933 7.03966 26.9511C6.89744 26.9511 6.75522 26.9511 6.61299 26.9511C6.61299 26.8089 6.61299 26.6666 6.61299 26.5244C6.18633 26.5718 5.9967 26.3822 6.0441 25.9555C5.90188 25.9555 5.75966 25.9555 5.61744 25.9555C5.61744 25.8133 5.61744 25.6711 5.61744 25.5289C5.47522 25.5289 5.33299 25.5289 5.19077 25.5289C5.19077 25.3866 5.19077 25.2444 5.19077 25.1022C4.7641 25.1495 4.57448 24.96 4.62188 24.5333C4.47966 24.5333 4.33744 24.5333 4.19522 24.5333C4.19522 24.2489 4.19522 23.9644 4.19522 23.68C4.05299 23.68 3.91077 23.68 3.76855 23.68C3.76855 23.3482 3.76855 23.0162 3.76855 22.6844C3.57892 22.6844 3.38928 22.6844 3.19966 22.6844C3.19966 22.3526 3.19966 22.0207 3.19966 21.6889C3.05744 21.6889 2.91522 21.6889 2.77299 21.6889C2.77299 21.4044 2.77299 21.12 2.77299 20.8355C2.63077 20.8355 2.48855 20.8355 2.34633 20.8355C2.34633 20.3615 2.34633 19.8873 2.34633 19.4133C2.15829 19.4375 1.99238 19.3901 1.84855 19.2711C1.77745 16.9486 1.75374 14.6257 1.77744 12.3022C1.96547 12.3264 2.13139 12.2789 2.27522 12.16C2.34604 11.7359 2.36974 11.3092 2.34633 10.88C2.48855 10.88 2.63077 10.88 2.77299 10.88C2.77299 10.5481 2.77299 10.2163 2.77299 9.88441C2.91522 9.88441 3.05744 9.88441 3.19966 9.88441C3.17661 9.59608 3.2003 9.31164 3.27077 9.03107C3.4146 8.91209 3.58052 8.86467 3.76855 8.88885C3.76855 8.60441 3.76855 8.31996 3.76855 8.03552C3.91077 8.03552 4.05299 8.03552 4.19522 8.03552C4.19522 7.70367 4.19522 7.37181 4.19522 7.03996C4.33744 7.03996 4.47966 7.03996 4.62188 7.03996C4.62188 6.89774 4.62188 6.75552 4.62188 6.6133C5.04855 6.6607 5.23817 6.47107 5.19077 6.04441C5.33299 6.04441 5.47522 6.04441 5.61744 6.04441C5.61744 5.90219 5.61744 5.75996 5.61744 5.61774C5.75966 5.61774 5.90188 5.61774 6.0441 5.61774C6.0441 5.47552 6.0441 5.3333 6.0441 5.19107C6.47077 5.23848 6.6604 5.04885 6.61299 4.62219C6.75522 4.62219 6.89744 4.62219 7.03966 4.62219C7.03966 4.47996 7.03966 4.33774 7.03966 4.19552C7.37151 4.19552 7.70337 4.19552 8.03522 4.19552C8.03522 4.0533 8.03522 3.91107 8.03522 3.76885C8.17744 3.76885 8.31966 3.76885 8.46188 3.76885C8.46188 3.57923 8.46188 3.38959 8.46188 3.19996C8.79373 3.19996 9.12559 3.19996 9.45744 3.19996C9.45744 3.05774 9.45744 2.91552 9.45744 2.7733C9.74188 2.7733 10.0263 2.7733 10.3108 2.7733C10.3108 2.63107 10.3108 2.48885 10.3108 2.34663C10.7848 2.34663 11.2589 2.34663 11.733 2.34663C11.7088 2.1586 11.7562 1.99268 11.8752 1.84885C12.7747 1.77781 13.6754 1.7541 14.5774 1.77774C14.5774 1.63552 14.5774 1.4933 14.5774 1.35107Z"
            fill="#FDDA7E" />
        <path fill-rule="evenodd" clip-rule="evenodd"
            d="M14.4352 12.4443C15.2548 12.4845 15.4919 12.8875 15.1463 13.6532C14.1388 13.7208 13.9018 13.3178 14.4352 12.4443Z"
            fill="#D94551" />
        <path fill-rule="evenodd" clip-rule="evenodd"
            d="M16.4264 12.5869C17.3628 12.5163 17.5999 12.8719 17.1375 13.6536C16.1705 13.7555 15.9335 13.4 16.4264 12.5869Z"
            fill="#18140D" />
        <path fill-rule="evenodd" clip-rule="evenodd"
            d="M14.4356 14.2934C14.7153 14.2594 14.9761 14.3067 15.2178 14.4356C15.3126 15.9052 15.3126 17.3749 15.2178 18.8445C14.9333 19.0341 14.6489 19.0341 14.3644 18.8445C14.2495 17.3166 14.2731 15.7995 14.4356 14.2934Z"
            fill="#444036" />
        <path fill-rule="evenodd" clip-rule="evenodd"
            d="M16.4264 14.4355C16.3825 15.9642 16.4298 17.4812 16.5686 18.9867C16.3798 18.2818 16.2849 17.5233 16.2842 16.7111C16.2843 15.9273 16.3317 15.1688 16.4264 14.4355Z"
            fill="#BEA866" />
        <path fill-rule="evenodd" clip-rule="evenodd"
            d="M17.2803 14.5779C17.3241 16.0591 17.2768 17.5289 17.1381 18.9868C16.9485 18.9868 16.7588 18.9868 16.5692 18.9868C16.4304 17.4814 16.383 15.9643 16.427 14.4357C16.7685 14.2135 17.0529 14.2609 17.2803 14.5779Z"
            fill="#363531" />
        <path fill-rule="evenodd" clip-rule="evenodd"
            d="M24.1064 14.2934C26.4248 14.0755 27.4914 15.1185 27.3064 17.4222C26.6414 18.9041 25.5272 19.4018 23.9642 18.9156C22.8817 18.125 22.4788 17.0583 22.7553 15.7156C23.0429 15.0727 23.4933 14.5987 24.1064 14.2934Z"
            fill="#393732" />
        <path fill-rule="evenodd" clip-rule="evenodd"
            d="M17.2799 14.5776C17.3746 15.2872 17.422 16.022 17.4221 16.7821C17.4214 17.5708 17.3266 18.3056 17.1377 18.9865C17.2764 17.5286 17.3237 16.0589 17.2799 14.5776Z"
            fill="#B69F66" />
        <path fill-rule="evenodd" clip-rule="evenodd"
            d="M18.1334 14.2934C18.4495 14.2476 18.7103 14.3425 18.9157 14.5779C19.3427 15.6698 19.7694 16.7601 20.1957 17.849C20.6833 16.8614 21.0626 15.8183 21.3334 14.7201C21.583 14.3164 21.9148 14.2216 22.329 14.4356C21.8484 15.9716 21.2559 17.465 20.5512 18.9156C20.1921 19.0431 19.8839 18.972 19.6268 18.7023C19.1229 17.3089 18.5777 15.9341 17.9912 14.5779C18.0428 14.4807 18.0902 14.3859 18.1334 14.2934Z"
            fill="#393832" />
        <path fill-rule="evenodd" clip-rule="evenodd"
            d="M24.5336 15.0044C26.2639 15.0533 26.8566 15.9067 26.3114 17.5644C25.7654 18.2523 25.0779 18.4419 24.2492 18.1333C23.2115 16.9504 23.3064 15.9075 24.5336 15.0044Z"
            fill="#F8D67D" />
        <path fill-rule="evenodd" clip-rule="evenodd"
            d="M5.75954 14.2931C7.08052 14.0448 8.09979 14.4714 8.81731 15.5731C8.88814 15.9972 8.91184 16.4239 8.88843 16.8531C7.70324 16.8531 6.51805 16.8531 5.33287 16.8531C5.52402 18.1998 6.28253 18.6501 7.60843 18.2042C7.91332 18.0412 8.17407 17.8279 8.39065 17.5642C8.8695 17.9361 8.84579 18.2917 8.31954 18.6309C7.10918 19.3595 5.99511 19.241 4.97731 18.2753C4.0995 16.6934 4.36024 15.366 5.75954 14.2931Z"
            fill="#373631" />
        <path fill-rule="evenodd" clip-rule="evenodd"
            d="M6.04441 15.0046C6.70743 14.9056 7.30003 15.0478 7.82218 15.4313C7.98261 15.6937 8.05372 15.9781 8.03552 16.2846C7.13478 16.2846 6.23403 16.2846 5.33329 16.2846C5.31101 16.0893 5.33472 15.8996 5.40441 15.7157C5.64722 15.4971 5.86055 15.26 6.04441 15.0046Z"
            fill="#F2D17B" />
        <path fill-rule="evenodd" clip-rule="evenodd"
            d="M9.31543 14.2936C9.6773 14.2372 9.98545 14.3321 10.2399 14.578C10.5466 15.7596 10.9496 16.8974 11.4488 17.9913C11.939 16.8834 12.3419 15.7457 12.6577 14.578C12.9041 14.2791 13.1885 14.2317 13.511 14.4358C13.0543 15.9468 12.5091 17.4401 11.8754 18.9158C11.5527 19.0236 11.2445 18.9998 10.951 18.8447C10.6754 18.0521 10.3435 17.2936 9.95543 16.5691C9.69826 15.8192 9.48493 15.0607 9.31543 14.2936Z"
            fill="#393732" />
    </g>
    <defs>
        <clipPath id="clip0_5334_5749">
            <rect width="32" height="32" fill="white" />
        </clipPath>
    </defs>
</svg>