<svg width="32" height="32" viewBox="0 0 32 32" fill="none" xmlns="http://www.w3.org/2000/svg">
    <path fill-rule="evenodd" clip-rule="evenodd"
        d="M9.09994 27.916C8.07562 27.3203 7.12908 26.5948 6.28698 25.7575L6.01699 26.0284C6.8831 26.8889 7.85535 27.635 8.90805 28.2466L8.99609 28.0948L9.00283 28.0843L8.94342 28.2624L9.00483 28.0813L9.11125 27.9221L9.09927 27.917L9.09994 27.916ZM20.3614 29.2984L20.303 29.1165C19.1776 29.4792 18.0047 29.6961 16.8169 29.7612L16.8379 30.1426C18.0584 30.0762 19.2633 29.8533 20.4205 29.4805L20.4225 29.4792L20.3086 29.1145L20.3614 29.2984ZM10.9893 29.2386C12.1272 29.6718 13.3197 29.9565 14.5343 30.0846L14.5345 30.0826L14.5553 30.0853V29.8917L14.5746 29.7041C13.3931 29.5793 12.2319 29.3024 11.1249 28.8814L10.9893 29.2386ZM29.8986 15.9376V15.9676C29.8956 17.159 29.7414 18.3413 29.4401 19.4824L29.8095 19.5799C30.1196 18.4074 30.2785 17.1927 30.2815 15.969V15.9365L29.8986 15.9376ZM25.4215 26.3876L25.3017 26.2386L25.2937 26.2463L25.2927 26.2456C24.4089 27.0387 23.4266 27.7153 22.3739 28.2564L22.5488 28.5967C23.6306 28.0405 24.6395 27.3453 25.5484 26.5307L25.4305 26.3998L25.4245 26.3914L25.5677 26.5111L25.4215 26.3876ZM28.8663 21.6747L28.6954 21.5889L28.6917 21.5971C28.2071 22.6772 27.5827 23.6939 26.837 24.6188L27.1348 24.8586C27.9011 23.9087 28.5422 22.8637 29.0401 21.7536L28.888 21.6855L28.872 21.6777L29.0472 21.7357L28.8663 21.6747ZM27.9515 8.12902C27.2829 7.11166 26.4846 6.18168 25.5794 5.36472L25.463 5.49357L25.4569 5.50029L25.5707 5.35763L25.4509 5.50605L25.315 5.64162L25.3234 5.6484C26.2042 6.44314 26.9812 7.34882 27.632 8.33915L27.9515 8.12902ZM12.3087 2.19966C11.1335 2.51909 10.0024 2.99 8.94508 3.59986L9.0332 3.75232L9.0362 3.75907L8.93468 3.60627L9.03986 3.76582L9.12532 3.93718L9.13597 3.93076C10.1643 3.33742 11.2658 2.87969 12.4088 2.56868L12.3087 2.19966ZM23.7491 3.96383C22.7228 3.30234 21.6157 2.77614 20.4582 2.39968L20.4381 2.46007L20.3981 2.58285L20.4047 2.56092L20.4515 2.39733L20.3981 2.57982L20.3397 2.76298C21.4661 3.12964 22.5435 3.64135 23.5418 4.28495L23.7491 3.96383ZM14.594 1.9686L14.6133 2.15918C15.0866 2.11026 15.5696 2.08565 16.0485 2.08565H16.0826C16.7777 2.08699 17.476 2.1413 18.1575 2.2452L18.2156 1.86707C17.5151 1.76047 16.7978 1.70481 16.0826 1.70312H16.0485C15.5562 1.70312 15.0606 1.72842 14.5743 1.77835L14.566 1.7797L14.594 1.97501V1.9686ZM29.7201 13.7018L30.0976 13.6411C29.9023 12.4379 29.5525 11.2634 29.0565 10.1502L29.0525 10.1415L28.876 10.2298L28.882 10.2278L28.7075 10.3057C29.1897 11.3889 29.5302 12.531 29.7201 13.7018ZM20.4418 2.44893L20.4315 2.47997L20.4381 2.46007L20.4418 2.44893ZM4.82811 24.0534C4.13123 23.0924 3.56049 22.0457 3.13228 20.9427L2.77582 21.0806C3.21571 22.2144 3.80213 23.2904 4.5187 24.2784L4.65288 24.1813L4.67024 24.1695L4.53808 24.3014L4.67393 24.1668L4.83346 24.0612L4.82811 24.0534ZM2.49412 18.793C2.29787 17.859 2.19874 16.8972 2.19874 15.9339V15.9001C2.19907 15.687 2.20441 15.471 2.21477 15.2596L1.83261 15.241C1.82226 15.4582 1.81658 15.6798 1.81625 15.8978L1.81592 15.9339C1.81592 16.9235 1.91805 17.9115 2.11965 18.8719L2.29287 18.8358L2.30187 18.8341L2.12531 18.8931L2.30688 18.8334L2.49646 18.8065L2.49412 18.793ZM7.04862 4.90863C6.10474 5.6801 5.26236 6.56994 4.5441 7.5539L4.68161 7.6544L4.68961 7.66049L4.53943 7.56063L4.69762 7.66721L4.84749 7.78697L4.85284 7.77889C5.55141 6.82191 6.37243 5.95533 7.29096 5.20516L7.04862 4.90863ZM3.34021 9.51975C2.78984 10.608 2.38198 11.7642 2.12798 12.956L2.12565 12.9699L2.32024 12.9975L2.50213 13.0356C2.74911 11.8763 3.14596 10.7513 3.68164 9.6925L3.34021 9.51975Z"
        fill="white" />
    <path fill-rule="evenodd" clip-rule="evenodd"
        d="M15.9998 0C7.1635 0 0 7.16319 0 16.0003C0 24.8366 7.1635 32 15.9998 32C24.8364 32 32 24.8366 32 16.0003C32 7.16319 24.8364 0 15.9998 0Z"
        fill="#CB2027" />
    <path
        d="M9.1001 27.8795L9.28715 28.0055C9.3216 27.9533 9.33309 27.8888 9.31894 27.8276C9.30471 27.7664 9.2661 27.714 9.21218 27.6826L9.1001 27.8795ZM6.28714 25.721L6.44479 25.5591C6.35703 25.4719 6.21615 25.4721 6.12881 25.5598L6.28714 25.721ZM6.01715 25.9919L5.85877 25.8307C5.81616 25.8735 5.79225 25.9317 5.79238 25.9925C5.79251 26.0532 5.8167 26.1113 5.85958 26.1539L6.01715 25.9919ZM8.90821 28.2101L8.79613 28.407C8.90305 28.4692 9.0396 28.4325 9.10209 28.3251L8.90821 28.2101ZM8.99625 28.0583L8.80744 27.9352C8.8057 27.9378 8.80403 27.9405 8.80245 27.9433L8.99625 28.0583ZM9.00299 28.0478L9.21593 28.1204C9.25221 28.0118 9.2027 27.8929 9.10051 27.8432C8.99841 27.7934 8.87559 27.8284 8.8141 27.9247L9.00299 28.0478ZM8.94358 28.2259L8.73056 28.1533C8.69103 28.272 8.75385 28.4007 8.87118 28.441C8.98851 28.4813 9.11607 28.418 9.15618 28.2996L8.94358 28.2259ZM9.00499 28.0448L8.81876 27.9176C8.80769 27.9342 8.79879 27.9522 8.7923 27.9712L9.00499 28.0448ZM9.11141 27.8856L9.29764 28.0128C9.33542 27.9563 9.34607 27.8857 9.32676 27.8204C9.30746 27.7551 9.26011 27.7021 9.19787 27.6759L9.11141 27.8856ZM9.09943 27.8805L8.91237 27.7545C8.87509 27.811 8.86486 27.8814 8.88433 27.9464C8.9038 28.0113 8.95098 28.0641 9.01297 28.0902L9.09943 27.8805ZM20.3616 29.2619L20.1478 29.332C20.1856 29.45 20.3102 29.5154 20.4275 29.479C20.5449 29.4425 20.6116 29.3177 20.5774 29.1985L20.3616 29.2619ZM20.3031 29.08L20.5169 29.0099C20.4787 28.891 20.3527 28.8256 20.2349 28.8636L20.3031 29.08ZM16.817 29.7247L16.8048 29.4978C16.7453 29.5011 16.6894 29.5282 16.6496 29.5731C16.6097 29.618 16.5893 29.677 16.5926 29.7372L16.817 29.7247ZM16.8381 30.1061L16.6136 30.1188C16.6206 30.2438 16.7263 30.3397 16.8501 30.333L16.8381 30.1061ZM20.4206 29.444L20.4889 29.6604C20.5088 29.654 20.5278 29.6448 20.5453 29.633L20.4206 29.444ZM20.4226 29.4427L20.5473 29.6316C20.6305 29.5756 20.667 29.4707 20.637 29.3743L20.4226 29.4427ZM20.3088 29.078L20.5232 29.0097C20.4861 28.891 20.3616 28.8245 20.2437 28.8605C20.1259 28.8966 20.0587 29.0217 20.093 29.1412L20.3088 29.078ZM10.9895 29.2021L10.7796 29.1209C10.7582 29.1773 10.76 29.24 10.7845 29.2952C10.809 29.3504 10.8543 29.3934 10.9103 29.4147L10.9895 29.2021ZM14.5344 30.0481L14.5111 30.274C14.6292 30.2865 14.7366 30.2039 14.7561 30.0854L14.5344 30.0481ZM14.5347 30.0461L14.5635 29.8208C14.4436 29.8052 14.3329 29.8882 14.313 30.0088L14.5347 30.0461ZM14.5554 30.0488L14.5267 30.274C14.5908 30.2824 14.6553 30.2626 14.7039 30.2194C14.7524 30.1763 14.7802 30.1141 14.7802 30.0488H14.5554ZM14.5554 29.8552L14.3318 29.8316C14.3311 29.8394 14.3307 29.8473 14.3307 29.8552H14.5554ZM14.5748 29.6676L14.7983 29.6912C14.8112 29.5664 14.7216 29.4547 14.5982 29.4417L14.5748 29.6676ZM11.125 28.8449L11.2042 28.6323C11.0885 28.5883 10.9594 28.6469 10.9152 28.7636L11.125 28.8449ZM29.8988 15.9011L29.8982 15.6739C29.7743 15.6742 29.674 15.7758 29.674 15.9011H29.8988ZM29.4402 19.4459L29.223 19.3873C29.2076 19.4457 29.2158 19.5079 29.2459 19.5602C29.276 19.6124 29.3256 19.6505 29.3834 19.6657L29.4402 19.4459ZM29.8097 19.5434L29.7529 19.7632C29.8725 19.7948 29.9949 19.7228 30.0269 19.6021L29.8097 19.5434ZM30.2817 15.9H30.5064C30.5064 15.8397 30.4826 15.7818 30.4403 15.7392C30.3981 15.6966 30.3407 15.6727 30.281 15.6729L30.2817 15.9ZM25.4217 26.3511L25.2472 26.4943C25.2563 26.5057 25.2665 26.5161 25.2776 26.5255L25.4217 26.3511ZM25.3019 26.202L25.4764 26.0588C25.4368 26.0095 25.3785 25.9792 25.3159 25.9753C25.2532 25.9713 25.1917 25.9941 25.1464 26.038L25.3019 26.202ZM25.2939 26.2098L25.1692 26.3988C25.2569 26.4578 25.3734 26.4475 25.4494 26.3738L25.2939 26.2098ZM25.2929 26.2091L25.4175 26.0201C25.3326 25.9629 25.22 25.9707 25.1437 26.0392L25.2929 26.2091ZM22.3741 28.2199L22.2722 28.0173C22.2188 28.0449 22.1784 28.0927 22.1602 28.1504C22.1418 28.2081 22.147 28.2708 22.1746 28.3245L22.3741 28.2199ZM22.549 28.5602L22.3496 28.6649C22.4065 28.7756 22.5409 28.8192 22.6509 28.7627L22.549 28.5602ZM25.5485 26.4942L25.6976 26.6641C25.7427 26.6238 25.7698 26.567 25.7729 26.5063C25.7762 26.4457 25.7552 26.3862 25.7148 26.3413L25.5485 26.4942ZM25.4307 26.3633L25.2483 26.496C25.2533 26.503 25.2587 26.5097 25.2644 26.5161L25.4307 26.3633ZM25.4247 26.3549L25.568 26.1798C25.4809 26.107 25.3538 26.1109 25.2712 26.1889C25.1886 26.2669 25.1762 26.3948 25.2423 26.4875L25.4247 26.3549ZM25.5679 26.4746L25.4246 26.6496C25.5201 26.7295 25.6615 26.7161 25.7407 26.6198C25.82 26.5235 25.8071 26.3806 25.712 26.3003L25.5679 26.4746ZM28.8665 21.6382L28.7665 21.8416C28.7759 21.8463 28.7854 21.8503 28.7953 21.8536L28.8665 21.6382ZM28.6956 21.5524L28.7955 21.349C28.741 21.3217 28.6779 21.3178 28.6206 21.3383C28.5633 21.3588 28.5166 21.4019 28.4912 21.4579L28.6956 21.5524ZM28.6919 21.5606V21.7877C28.7798 21.7877 28.8597 21.736 28.8962 21.6552L28.6919 21.5606ZM28.6919 21.5606L28.6916 21.3334C28.6034 21.3334 28.5233 21.3855 28.4869 21.4667L28.6919 21.5606ZM26.8372 24.5823L26.663 24.4387C26.625 24.4857 26.6073 24.5462 26.6137 24.6065C26.6201 24.6668 26.6502 24.7221 26.6971 24.7598L26.8372 24.5823ZM27.1349 24.8221L26.9948 24.9997C27.0911 25.0773 27.2313 25.062 27.3091 24.9656L27.1349 24.8221ZM29.0403 21.717L29.2451 21.8109C29.2698 21.7556 29.2717 21.6928 29.2503 21.6362C29.229 21.5796 29.1862 21.5339 29.1313 21.5094L29.0403 21.717ZM28.8882 21.6489L28.791 21.8538C28.7931 21.8548 28.7951 21.8557 28.7971 21.8567L28.8882 21.6489ZM28.8721 21.6412L28.9421 21.4253C28.8295 21.388 28.7077 21.4455 28.6635 21.5566C28.6194 21.6677 28.6682 21.7943 28.775 21.846L28.8721 21.6412ZM29.0474 21.6992L28.9774 21.9151C29.0951 21.954 29.2219 21.8894 29.2607 21.7705C29.2997 21.6517 29.2361 21.5234 29.1185 21.4838L29.0474 21.6992ZM27.9517 8.09252L28.0742 8.28287C28.1245 8.2498 28.1596 8.19782 28.1718 8.13845C28.1838 8.07911 28.172 8.01732 28.1389 7.96685L27.9517 8.09252ZM25.5796 5.3282L25.7293 5.15874C25.6375 5.07588 25.4967 5.0831 25.4136 5.17497L25.5796 5.3282ZM25.4631 5.45705L25.2971 5.30381L25.296 5.30508L25.4631 5.45705ZM25.4571 5.46377L25.2821 5.32121C25.2057 5.41703 25.2187 5.55691 25.3113 5.63669C25.404 5.71651 25.5427 5.7072 25.6242 5.61574L25.4571 5.46377ZM25.5709 5.32111L25.7459 5.46368C25.8236 5.36619 25.8087 5.22353 25.7124 5.14466C25.6163 5.06584 25.475 5.08051 25.3967 5.1775L25.5709 5.32111ZM25.4511 5.46954L25.609 5.63114C25.6148 5.62542 25.6202 5.61942 25.6252 5.61316L25.4511 5.46954ZM25.3152 5.60512L25.1573 5.44351C25.1116 5.48908 25.0874 5.55223 25.0908 5.61697C25.0941 5.68176 25.1247 5.742 25.1748 5.78253L25.3152 5.60512ZM25.3236 5.61188H25.5484C25.5484 5.54287 25.5173 5.47758 25.464 5.43451L25.3236 5.61188ZM25.3236 5.61188L25.0988 5.6122C25.0988 5.67694 25.1261 5.73859 25.1739 5.78166L25.3236 5.61188ZM27.6322 8.30263L27.445 8.42835C27.5132 8.53218 27.6514 8.56104 27.7548 8.49305L27.6322 8.30263ZM12.3089 2.16315L12.5256 2.10307C12.4929 1.9825 12.37 1.91131 12.2505 1.94378L12.3089 2.16315ZM8.94524 3.56334L8.83382 3.36606C8.78173 3.39612 8.74362 3.44598 8.72814 3.50455C8.71258 3.56313 8.7209 3.62555 8.75111 3.67792L8.94524 3.56334ZM9.03336 3.71582L9.23831 3.62259C9.23507 3.61529 9.2314 3.60816 9.22741 3.60125L9.03336 3.71582ZM9.03636 3.72257L8.84971 3.84915C8.91479 3.94717 9.04335 3.97847 9.14545 3.92115C9.24763 3.86383 9.28923 3.737 9.24131 3.62934L9.03636 3.72257ZM8.93484 3.56975L9.12148 3.44317C9.05242 3.33913 8.91304 3.31127 8.80994 3.38091C8.70684 3.45055 8.67913 3.59138 8.74786 3.69567L8.93484 3.56975ZM9.04002 3.7293L9.24072 3.62709C9.23665 3.61891 9.23207 3.611 9.22708 3.60339L9.04002 3.7293ZM9.12548 3.90066L8.92477 4.00289C8.95273 4.05912 9.00266 4.10107 9.06248 4.11872C9.12231 4.13637 9.18664 4.12813 9.24022 4.09599L9.12548 3.90066ZM9.13613 3.89426L9.29506 3.73363C9.22242 3.6602 9.10975 3.64591 9.02138 3.69892L9.13613 3.89426ZM9.13613 3.89426L8.97753 4.05522C9.04917 4.12763 9.15992 4.14264 9.24796 4.09186L9.13613 3.89426ZM12.409 2.53217L12.4674 2.75152C12.5251 2.73581 12.5743 2.6975 12.604 2.64506C12.6337 2.59262 12.6416 2.53037 12.6258 2.4721L12.409 2.53217ZM23.7492 3.92731L23.9375 4.05142C23.9703 4.00063 23.9816 3.93868 23.9689 3.87939C23.9563 3.82011 23.9207 3.76839 23.8701 3.73579L23.7492 3.92731ZM20.4583 2.36317L20.5272 2.14694C20.41 2.10883 20.2843 2.17305 20.2452 2.29098L20.4583 2.36317ZM20.4383 2.42355L20.2252 2.35136L20.2248 2.35244L20.4383 2.42355ZM20.3983 2.54633L20.1835 2.47954C20.1472 2.5986 20.2126 2.72495 20.33 2.76278C20.4474 2.8006 20.5732 2.73577 20.6117 2.61746L20.3983 2.54633ZM20.4049 2.52442L20.1916 2.45256L20.1901 2.45761L20.4049 2.52442ZM20.4316 2.44346L20.6449 2.51529C20.6841 2.39638 20.6206 2.26783 20.503 2.22804C20.3854 2.18826 20.2581 2.25226 20.2186 2.37108L20.4316 2.44346ZM20.4049 2.52442L20.1891 2.4605C20.155 2.5792 20.2211 2.70364 20.3378 2.74054C20.4545 2.77744 20.5791 2.71326 20.6179 2.59612L20.4049 2.52442ZM20.4517 2.36081L20.6675 2.42405C20.7021 2.30379 20.6337 2.178 20.5148 2.1428C20.3959 2.10763 20.2713 2.17631 20.2362 2.29639L20.4517 2.36081ZM20.3983 2.5433L20.6123 2.613L20.6138 2.60772L20.3983 2.5433ZM20.3398 2.72647L20.1259 2.65679C20.1076 2.71414 20.1127 2.77648 20.1399 2.8301C20.167 2.88371 20.2142 2.92422 20.2709 2.94268L20.3398 2.72647ZM23.542 4.24844L23.4211 4.43995C23.525 4.50693 23.6629 4.47687 23.7302 4.37255L23.542 4.24844ZM14.5942 1.93208L14.8178 1.90888C14.8055 1.78857 14.7022 1.69903 14.5826 1.70522C14.4631 1.7114 14.3694 1.81114 14.3694 1.93208H14.5942ZM14.6135 2.12267L14.3899 2.14587C14.4026 2.27063 14.5129 2.36141 14.6364 2.34865L14.6135 2.12267ZM18.1577 2.20868L18.1242 2.4333C18.2466 2.45196 18.3608 2.36712 18.3798 2.24353L18.1577 2.20868ZM18.2158 1.83055L18.4379 1.86539C18.447 1.80569 18.4323 1.74474 18.3969 1.69604C18.3615 1.64735 18.3084 1.61492 18.2492 1.60592L18.2158 1.83055ZM14.5745 1.74183L14.5518 1.51584C14.5474 1.51628 14.5432 1.51684 14.5389 1.51753L14.5745 1.74183ZM14.5661 1.74318L14.5306 1.51888C14.4093 1.5385 14.326 1.65292 14.3436 1.7758L14.5661 1.74318ZM14.5942 1.93849L14.3717 1.9711C14.3887 2.08898 14.4928 2.17363 14.6103 2.16506C14.7279 2.15649 14.8189 2.0576 14.8189 1.93849H14.5942ZM30.0978 13.6046L30.133 13.8289C30.1921 13.8195 30.245 13.7865 30.28 13.7376C30.3149 13.6886 30.3292 13.6275 30.3195 13.5679L30.0978 13.6046ZM29.0567 10.1137L29.2617 10.0204C29.226 9.94044 29.148 9.88832 29.0613 9.88654C28.9745 9.88484 28.8944 9.93365 28.8557 10.0121L29.0567 10.1137ZM29.0567 10.1137L28.8472 10.1974C28.8796 10.2809 28.9577 10.3373 29.0463 10.3413C29.135 10.3453 29.2177 10.2962 29.2574 10.216L29.0567 10.1137ZM29.0527 10.105L29.2619 10.0218C29.2389 9.96268 29.1923 9.91591 29.1336 9.89299C29.0749 9.87007 29.0094 9.87313 28.9529 9.90139L29.0527 10.105ZM28.8761 10.1933L28.7764 9.98976C28.6705 10.0427 28.6233 10.1695 28.6683 10.2798C28.7133 10.3903 28.8352 10.4465 28.9472 10.4088L28.8761 10.1933ZM28.8821 10.1913L28.973 10.3991C29.0827 10.3501 29.1351 10.2225 29.0918 10.1094C29.0485 9.99621 28.925 9.93739 28.8111 9.97584L28.8821 10.1913ZM28.7076 10.2692L28.6168 10.0614C28.562 10.0859 28.5192 10.1314 28.4977 10.1879C28.4763 10.2444 28.4781 10.3072 28.5026 10.3624L28.7076 10.2692ZM20.4419 2.41242L20.6552 2.48426C20.6944 2.36537 20.631 2.23686 20.5134 2.19704C20.3958 2.15722 20.2686 2.22113 20.229 2.33988L20.4419 2.41242ZM20.4316 2.44346L20.2186 2.37108C20.179 2.48989 20.2421 2.61851 20.3596 2.65865C20.4771 2.6988 20.6047 2.63512 20.6445 2.51638L20.4316 2.44346ZM20.4383 2.42355L20.6512 2.49648L20.6515 2.49538L20.4383 2.42355ZM4.82827 24.0169L4.98722 24.1775C5.06562 24.0982 5.07511 23.973 5.00956 23.8826L4.82827 24.0169ZM3.13243 20.9061L3.34166 20.8232C3.29659 20.707 3.1673 20.6494 3.05205 20.6941L3.13243 20.9061ZM2.77597 21.0441L2.69559 20.832C2.63963 20.8536 2.59454 20.897 2.57035 20.9524C2.54615 21.0078 2.54484 21.0706 2.56673 21.1271L2.77597 21.0441ZM4.51886 24.2419L4.33761 24.3762C4.41043 24.4766 4.54965 24.4991 4.64976 24.4265L4.51886 24.2419ZM4.65304 24.1448L4.52754 23.9563C4.52574 23.9575 4.52393 23.9588 4.52214 23.96L4.65304 24.1448ZM4.67039 24.133L4.82831 24.2946C4.91089 24.2122 4.91781 24.0798 4.84436 23.9891C4.77091 23.8983 4.64113 23.8791 4.54489 23.9445L4.67039 24.133ZM4.53823 24.2649L4.38031 24.1032C4.29212 24.1912 4.29108 24.3348 4.37802 24.4241C4.46496 24.5134 4.60705 24.5148 4.69557 24.427L4.53823 24.2649ZM4.67408 24.1302L4.55095 23.9402C4.53868 23.9483 4.52722 23.9576 4.51674 23.968L4.67408 24.1302ZM4.83362 24.0246L4.95675 24.2147C5.00916 24.18 5.0449 24.1248 5.05529 24.0623C5.06567 23.9999 5.0498 23.9359 5.01145 23.8858L4.83362 24.0246ZM4.82827 24.0169L4.669 23.8566C4.58903 23.9374 4.58093 24.0657 4.65007 24.1561L4.82827 24.0169ZM2.49427 18.7565L2.59479 18.9596C2.68634 18.9133 2.7354 18.8104 2.71414 18.7093L2.49427 18.7565ZM2.21492 15.2231L2.43941 15.2343C2.44236 15.174 2.42149 15.1151 2.38141 15.0704C2.34132 15.0257 2.28531 14.9991 2.2257 14.9962L2.21492 15.2231ZM1.83276 15.2045L1.84355 14.9776C1.71956 14.9716 1.61422 15.0682 1.60826 15.1936L1.83276 15.2045ZM1.81641 15.8612L2.04117 15.8634V15.8616L1.81641 15.8612ZM1.81607 15.8973L1.59131 15.8952V15.8973H1.81607ZM2.1198 18.8354L1.89992 18.8825C1.92558 19.0047 2.0441 19.0831 2.16518 19.0578L2.1198 18.8354ZM2.29302 18.7993L2.25209 18.5758L2.24764 18.5768L2.29302 18.7993ZM2.30203 18.7976L2.37263 19.0132C2.48484 18.9757 2.54913 18.8568 2.51974 18.7412C2.49035 18.6254 2.37732 18.5525 2.26111 18.5742L2.30203 18.7976ZM2.12547 18.8566L2.05488 18.6409C1.93723 18.6803 1.87328 18.8085 1.91191 18.9274C1.95054 19.0464 2.07718 19.1114 2.19501 19.0727L2.12547 18.8566ZM2.30704 18.7969L2.27569 18.572C2.26273 18.5738 2.24995 18.5768 2.23749 18.5809L2.30704 18.7969ZM2.49661 18.7699L2.52797 18.9949C2.59035 18.986 2.64618 18.9511 2.68186 18.8986C2.71754 18.8461 2.72979 18.7809 2.71562 18.7188L2.49661 18.7699ZM2.49427 18.7565L2.3931 18.5536C2.30023 18.6005 2.25126 18.7056 2.2746 18.8079L2.49427 18.7565ZM7.04878 4.87211L7.22207 4.72745C7.14363 4.63146 7.00328 4.6172 6.90744 4.69552L7.04878 4.87211ZM4.54425 7.51739L4.36336 7.3825C4.32776 7.4313 4.31293 7.49245 4.32214 7.55233C4.3314 7.6122 4.3639 7.6659 4.4125 7.70144L4.54425 7.51739ZM4.68177 7.61788L4.81663 7.43616L4.81348 7.43384L4.68177 7.61788ZM4.68977 7.62397L4.56624 7.81374C4.6677 7.88121 4.80382 7.855 4.87363 7.75459C4.94348 7.65419 4.92177 7.51589 4.82463 7.44225L4.68977 7.62397ZM4.53958 7.52411L4.66311 7.33435C4.55963 7.26555 4.42054 7.29431 4.35217 7.39872C4.2838 7.50307 4.31185 7.64369 4.41488 7.71311L4.53958 7.52411ZM4.69777 7.63069L4.83717 7.45252C4.83241 7.4487 4.82751 7.44511 4.82247 7.4417L4.69777 7.63069ZM4.84764 7.75046L4.70825 7.92864C4.75747 7.96799 4.82076 7.98475 4.88276 7.97485C4.94474 7.9649 4.99981 7.92923 5.03465 7.87648L4.84764 7.75046ZM4.85299 7.74237V7.51521C4.77784 7.51521 4.70766 7.55314 4.66594 7.61634L4.85299 7.74237ZM4.85299 7.74237L4.85331 7.96952C4.9247 7.96952 4.99181 7.93527 5.03415 7.87721L4.85299 7.74237ZM7.29112 5.16865L7.43236 5.34533C7.47907 5.30717 7.50873 5.25174 7.51476 5.19141C7.52074 5.13103 7.50263 5.07074 7.46442 5.024L7.29112 5.16865ZM3.34036 9.48325L3.44097 9.28011C3.33062 9.22434 3.19639 9.26882 3.14023 9.37986L3.34036 9.48325ZM2.12815 12.9195L1.90842 12.8716C1.89411 12.9388 1.91061 13.0088 1.95328 13.0622C1.99595 13.1156 2.06022 13.1467 2.12815 13.1467V12.9195ZM2.12815 12.9195L2.34835 12.9682C2.36295 12.901 2.34662 12.8307 2.30395 12.7772C2.26129 12.7235 2.19689 12.6924 2.12881 12.6924L2.12815 12.9195ZM2.12581 12.9334L1.90627 12.8846C1.89285 12.9464 1.90553 13.0111 1.94125 13.063C1.97698 13.1149 2.03252 13.1495 2.0945 13.1583L2.12581 12.9334ZM2.32039 12.961L2.36602 12.7385C2.36128 12.7376 2.35649 12.7368 2.35169 12.7361L2.32039 12.961ZM2.5023 12.9991L2.45666 13.2215C2.57755 13.2468 2.69604 13.1689 2.72201 13.0469L2.5023 12.9991ZM3.6818 9.65599L3.88193 9.75938C3.90922 9.70548 3.91406 9.64266 3.89537 9.58511C3.87668 9.52756 3.83601 9.47994 3.7824 9.45286L3.6818 9.65599ZM9.21218 27.6826C8.20433 27.0965 7.27314 26.3826 6.44479 25.5591L6.12953 25.883C6.98534 26.7339 7.94721 27.4711 8.98801 28.0764L9.21218 27.6826ZM6.12881 25.5598L5.85877 25.8307L6.17547 26.1532L6.4455 25.8823L6.12881 25.5598ZM5.85958 26.1539C6.73931 27.0279 7.72685 27.7858 8.79613 28.407L9.02021 28.0132C7.98411 27.4113 7.0272 26.6768 6.17471 25.8299L5.85958 26.1539ZM9.10209 28.3251L9.19013 28.1732L8.80245 27.9433L8.71433 28.0951L9.10209 28.3251ZM9.18514 28.1814L9.19179 28.171L8.8141 27.9247L8.80744 27.9352L9.18514 28.1814ZM8.78997 27.9752L8.73056 28.1533L9.15651 28.2985L9.21593 28.1204L8.78997 27.9752ZM9.15618 28.2996L9.21759 28.1184L8.7923 27.9712L8.73089 28.1523L9.15618 28.2996ZM9.19121 28.172L9.29764 28.0128L8.92519 27.7584L8.81876 27.9176L9.19121 28.172ZM9.19787 27.6759L9.18589 27.6708L9.01297 28.0902L9.02504 28.0953L9.19787 27.6759ZM9.28649 28.0066L9.28715 28.0055L8.91304 27.7535L8.91237 27.7545L9.28649 28.0066ZM20.5753 29.1917L20.5169 29.0099L20.0894 29.1502L20.1478 29.332L20.5753 29.1917ZM20.2349 28.8636C19.1277 29.2204 17.9737 29.4338 16.8048 29.4978L16.8292 29.9515C18.036 29.8854 19.2276 29.665 20.3714 29.2964L20.2349 28.8636ZM16.5926 29.7372L16.6136 30.1188L17.0624 30.0935L17.0414 29.712L16.5926 29.7372ZM16.8501 30.333C18.0896 30.2655 19.3134 30.0391 20.4889 29.6604L20.3524 29.2276C19.2135 29.5944 18.0275 29.8139 16.8259 29.8793L16.8501 30.333ZM20.5453 29.633L20.5473 29.6316L20.298 29.2536L20.2959 29.255L20.5453 29.633ZM20.637 29.3743L20.5232 29.0097L20.0944 29.1463L20.2083 29.5109L20.637 29.3743ZM20.093 29.1412L20.1456 29.3251L20.5774 29.1985L20.5246 29.0148L20.093 29.1412ZM10.9103 29.4147C12.0662 29.8547 13.2775 30.1439 14.5111 30.274L14.5577 29.8222C13.3623 29.696 12.1885 29.4158 11.0688 28.9895L10.9103 29.4147ZM14.7561 30.0854L14.7565 30.0835L14.313 30.0088L14.3127 30.0108L14.7561 30.0854ZM14.506 30.2714L14.5267 30.274L14.5842 29.8235L14.5635 29.8208L14.506 30.2714ZM14.7802 30.0488V29.8552H14.3307V30.0488H14.7802ZM14.7789 29.8787L14.7983 29.6912L14.3512 29.6441L14.3318 29.8316L14.7789 29.8787ZM14.5982 29.4417C13.4356 29.3189 12.2932 29.0464 11.2042 28.6323L11.0459 29.0575C12.171 29.4854 13.3509 29.7668 14.5514 29.8936L14.5982 29.4417ZM10.9152 28.7636L10.7796 29.1209L11.1993 29.2834L11.3349 28.9262L10.9152 28.7636ZM29.674 15.9011V15.9311L30.1236 15.9317V15.9011H29.674ZM29.674 15.9311C29.671 17.1031 29.5194 18.2653 29.223 19.3873L29.6574 19.5045C29.9638 18.3442 30.1206 17.1425 30.1236 15.9317L29.674 15.9311ZM29.3834 19.6657L29.7529 19.7632L29.8664 19.3236L29.497 19.2261L29.3834 19.6657ZM30.0269 19.6021C30.3419 18.4105 30.5033 17.1762 30.5064 15.933L30.0569 15.9319C30.0539 17.1361 29.8976 18.3313 29.5926 19.4848L30.0269 19.6021ZM30.5064 15.933V15.9H30.0569V15.9319L30.5064 15.933ZM30.281 15.6729L29.8982 15.6739L29.8994 16.1282L30.2822 16.1272L30.281 15.6729ZM25.5962 26.2079L25.4764 26.0588L25.1274 26.3453L25.2472 26.4943L25.5962 26.2079ZM25.1464 26.038L25.1384 26.0458L25.4494 26.3738L25.4574 26.3661L25.1464 26.038ZM25.4185 26.0207L25.4175 26.0201L25.1682 26.3981L25.1692 26.3988L25.4185 26.0207ZM25.1437 26.0392C24.2742 26.8194 23.3078 27.4851 22.2722 28.0173L22.476 28.4223C23.5458 27.8725 24.5439 27.1849 25.4421 26.379L25.1437 26.0392ZM22.1746 28.3245L22.3496 28.6649L22.7485 28.4555L22.5736 28.1151L22.1746 28.3245ZM22.6509 28.7627C23.7497 28.1976 24.7746 27.4915 25.6976 26.6641L25.3994 26.3242C24.5048 27.126 23.5118 27.8103 22.4471 28.3577L22.6509 28.7627ZM25.7148 26.3413L25.5969 26.2104L25.2644 26.5161L25.3823 26.647L25.7148 26.3413ZM25.6131 26.2306L25.6071 26.2221L25.2423 26.4875L25.2483 26.496L25.6131 26.2306ZM25.2814 26.5299L25.4246 26.6496L25.7112 26.2996L25.568 26.1798L25.2814 26.5299ZM25.712 26.3003L25.5658 26.1768L25.2776 26.5255L25.4238 26.6489L25.712 26.3003ZM28.9663 21.4347L28.7955 21.349L28.5956 21.756L28.7665 21.8416L28.9663 21.4347ZM28.4912 21.4579L28.4876 21.4659L28.8962 21.6552L28.8999 21.6471L28.4912 21.4579ZM28.4869 21.4667C28.0103 22.5289 27.3965 23.5289 26.663 24.4387L27.0115 24.7257C27.7692 23.7858 28.4036 22.7524 28.8963 21.6544L28.4869 21.4667ZM26.6971 24.7598L26.9948 24.9997L27.275 24.6444L26.9773 24.4046L26.6971 24.7598ZM27.3091 24.9656C28.0876 24.0006 28.7391 22.9389 29.2451 21.8109L28.8356 21.6233C28.3457 22.7155 27.7148 23.7438 26.9607 24.6785L27.3091 24.9656ZM29.1313 21.5094L28.9792 21.4412L28.7971 21.8567L28.9493 21.9247L29.1313 21.5094ZM28.9853 21.444L28.9692 21.4363L28.775 21.846L28.791 21.8538L28.9853 21.444ZM28.8022 21.857L28.9774 21.9151L29.1174 21.4833L28.9421 21.4253L28.8022 21.857ZM29.1185 21.4838L28.9376 21.4226L28.7953 21.8536L28.9762 21.9146L29.1185 21.4838ZM28.1389 7.96685C27.4596 6.93323 26.6487 5.98856 25.7293 5.15874L25.4299 5.49762C26.3208 6.30177 27.1066 7.21709 27.7643 8.21818L28.1389 7.96685ZM25.4136 5.17497L25.2971 5.30381L25.629 5.61024L25.7455 5.4814L25.4136 5.17497ZM25.296 5.30508L25.2901 5.31185L25.6242 5.61574L25.6302 5.60902L25.296 5.30508ZM25.6321 5.60634L25.7459 5.46368L25.3959 5.17856L25.2821 5.32121L25.6321 5.60634ZM25.3967 5.1775L25.2769 5.32593L25.6252 5.61316L25.7451 5.46472L25.3967 5.1775ZM25.2931 5.3079L25.1573 5.44351L25.4732 5.76676L25.609 5.63114L25.2931 5.3079ZM25.1748 5.78253L25.1831 5.78925L25.464 5.43451L25.4557 5.42775L25.1748 5.78253ZM25.1739 5.78166C26.0405 6.56355 26.8048 7.45419 27.445 8.42835L27.8194 8.17697C27.1579 7.17038 26.3683 6.25034 25.4733 5.44274L25.1739 5.78166ZM27.7548 8.49305L28.0742 8.28287L27.829 7.90215L27.5096 8.11228L27.7548 8.49305ZM12.2505 1.94378C11.0567 2.26826 9.90783 2.74658 8.83382 3.36606L9.05666 3.76064C10.0973 3.16037 11.2107 2.6969 12.3673 2.38251L12.2505 1.94378ZM8.75111 3.67792L8.83923 3.83038L9.22741 3.60125L9.13929 3.44878L8.75111 3.67792ZM8.82841 3.80903L8.83141 3.81578L9.24131 3.62934L9.23831 3.62259L8.82841 3.80903ZM9.223 3.59598L9.12148 3.44317L8.74786 3.69567L8.84971 3.84915L9.223 3.59598ZM8.74786 3.69567L8.85296 3.85522L9.22708 3.60339L9.12148 3.44317L8.74786 3.69567ZM8.83931 3.83153L8.92477 4.00289L9.32618 3.79844L9.24072 3.62709L8.83931 3.83153ZM9.24022 4.09599L9.25087 4.08958L9.02138 3.69892L9.01073 3.70534L9.24022 4.09599ZM9.24796 4.09186C10.2595 3.50817 11.3428 3.0575 12.4674 2.75152L12.3506 2.31282C11.1889 2.62885 10.0701 3.09434 9.02504 3.69732L9.24796 4.09186ZM12.6258 2.4721L12.5256 2.10307L12.0921 2.22322L12.1922 2.59225L12.6258 2.4721ZM23.8701 3.73579C22.8275 3.06387 21.703 2.52935 20.5272 2.14694L20.3894 2.57941C21.5286 2.9499 22.6182 3.4678 23.6284 4.11884L23.8701 3.73579ZM20.2452 2.29098L20.2252 2.35136L20.6515 2.49538L20.6714 2.43537L20.2452 2.29098ZM20.2248 2.35244L20.1848 2.47522L20.6117 2.61746L20.6515 2.49538L20.2248 2.35244ZM20.6131 2.61315L20.6198 2.59122L20.1901 2.45761L20.1835 2.47954L20.6131 2.61315ZM20.6179 2.59612L20.6449 2.51529L20.2186 2.37108L20.1916 2.45256L20.6179 2.59612ZM20.2186 2.37108L20.1919 2.45136L20.6179 2.59612L20.6449 2.51529L20.2186 2.37108ZM20.6208 2.58698L20.6675 2.42405L20.2357 2.29757L20.1891 2.4605L20.6208 2.58698ZM20.2362 2.29639L20.1827 2.47888L20.6138 2.60772L20.6672 2.42523L20.2362 2.29639ZM20.1843 2.47362L20.1259 2.65679L20.5538 2.79614L20.6123 2.613L20.1843 2.47362ZM20.2709 2.94268C21.3791 3.30341 22.4391 3.80683 23.4211 4.43995L23.6628 4.05693C22.6483 3.40285 21.5535 2.88285 20.4087 2.51025L20.2709 2.94268ZM23.7302 4.37255L23.9375 4.05142L23.5609 3.80321L23.3537 4.12433L23.7302 4.37255ZM14.3705 1.95528L14.3899 2.14587L14.8371 2.09947L14.8178 1.90888L14.3705 1.95528ZM14.6364 2.34865C15.1019 2.30053 15.5772 2.27629 16.0486 2.27629V1.82197C15.5622 1.82197 15.0716 1.84697 14.5906 1.89668L14.6364 2.34865ZM16.0486 2.27629H16.0828L16.0832 1.82197H16.0486V2.27629ZM16.0828 2.27629C16.7668 2.27762 17.4535 2.33106 18.1242 2.4333L18.1912 1.98406C17.4988 1.87852 16.7896 1.82334 16.0832 1.82197L16.0828 2.27629ZM18.3798 2.24353L18.4379 1.86539L17.9937 1.7957L17.9356 2.17384L18.3798 2.24353ZM18.2492 1.60592C17.5378 1.49768 16.8096 1.44117 16.0833 1.43945L16.0822 1.89377C16.7863 1.89544 17.4926 1.95024 18.1823 2.05517L18.2492 1.60592ZM16.0833 1.43945H16.0486V1.89377H16.0822L16.0833 1.43945ZM16.0486 1.43945C15.5488 1.43945 15.0456 1.46513 14.5518 1.51584L14.5972 1.96783C15.0759 1.91869 15.5639 1.89377 16.0486 1.89377V1.43945ZM14.5389 1.51753L14.5306 1.51888L14.6016 1.9675L14.61 1.96615L14.5389 1.51753ZM14.3436 1.7758L14.3717 1.9711L14.8166 1.90588L14.7886 1.71057L14.3436 1.7758ZM14.8189 1.93849V1.93208H14.3694V1.93849H14.8189ZM29.7555 13.8896L30.133 13.8289L30.0624 13.3803L29.6849 13.441L29.7555 13.8896ZM30.3195 13.5679C30.1211 12.3452 29.7657 11.1516 29.2617 10.0204L28.8518 10.207C29.3397 11.302 29.6838 12.4576 29.8759 13.6414L30.3195 13.5679ZM29.2656 10.0314L29.2619 10.0218L28.8435 10.1881L28.8472 10.1974L29.2656 10.0314ZM28.9529 9.90139L28.7764 9.98976L28.9759 10.3969L29.1525 10.3085L28.9529 9.90139ZM28.9472 10.4088L28.9532 10.4068L28.8111 9.97584L28.8051 9.97779L28.9472 10.4088ZM28.7913 9.98348L28.6168 10.0614L28.7984 10.477L28.973 10.3991L28.7913 9.98348ZM28.5026 10.3624C28.9769 11.4276 29.3117 12.5507 29.4984 13.7021L29.942 13.6286C29.7489 12.4383 29.4029 11.2771 28.9125 10.176L28.5026 10.3624ZM20.229 2.33988L20.2186 2.37108L20.6449 2.51529L20.6552 2.48426L20.229 2.33988ZM20.6445 2.51638L20.6512 2.49648L20.2252 2.35136L20.2186 2.37108L20.6445 2.51638ZM20.6515 2.49538L20.6552 2.48426L20.229 2.33988L20.2252 2.35136L20.6515 2.49538ZM5.00956 23.8826C4.32408 22.9373 3.76275 21.9078 3.34166 20.8232L2.92319 20.9891C3.35854 22.1106 3.93869 23.1745 4.64697 24.1511L5.00956 23.8826ZM3.05205 20.6941L2.69559 20.832L2.85636 21.2563L3.21281 21.1183L3.05205 20.6941ZM2.56673 21.1271C3.01374 22.2791 3.60959 23.3724 4.33761 24.3762L4.70015 24.1076C3.99499 23.1354 3.41799 22.0766 2.98522 20.9612L2.56673 21.1271ZM4.64976 24.4265L4.78394 24.3294L4.52214 23.96L4.38795 24.0572L4.64976 24.4265ZM4.77855 24.3332L4.7959 24.3214L4.54489 23.9445L4.52754 23.9563L4.77855 24.3332ZM4.51248 23.9713L4.38031 24.1032L4.69557 24.427L4.82831 24.2946L4.51248 23.9713ZM4.69557 24.427L4.83142 24.2925L4.51674 23.968L4.38031 24.1032L4.69557 24.427ZM4.79721 24.3203L4.95675 24.2147L4.71049 23.8346L4.55095 23.9402L4.79721 24.3203ZM5.01145 23.8858L5.00579 23.8784L4.65007 24.1561L4.65574 24.1636L5.01145 23.8858ZM2.71414 18.7093C2.52119 17.791 2.42366 16.8451 2.42366 15.8973H1.97413C1.97413 16.8764 2.07487 17.8539 2.27441 18.8036L2.71414 18.7093ZM2.42366 15.8973V15.8636L1.97413 15.8633V15.8973H2.42366ZM2.42366 15.8636C2.42399 15.654 2.42924 15.4421 2.43941 15.2343L1.99043 15.2119C1.9799 15.4271 1.97447 15.6466 1.97413 15.8633L2.42366 15.8636ZM2.2257 14.9962L1.84355 14.9776L1.82198 15.4314L2.20413 15.45L2.2257 14.9962ZM1.60826 15.1936C1.59775 15.4141 1.59198 15.6394 1.59164 15.8609L2.04117 15.8616C2.04151 15.6474 2.04708 15.4293 2.05727 15.2154L1.60826 15.1936ZM1.59166 15.8591L1.59131 15.8952L2.04083 15.8994L2.04117 15.8634L1.59166 15.8591ZM1.59131 15.8973C1.59131 16.9027 1.69506 17.9066 1.89992 18.8825L2.33967 18.7883C2.14136 17.8435 2.04084 16.8713 2.04084 15.8973H1.59131ZM2.16518 19.0578L2.3384 19.0217L2.24764 18.5768L2.07442 18.6129L2.16518 19.0578ZM2.33395 19.0227L2.34296 19.021L2.26111 18.5742L2.25209 18.5758L2.33395 19.0227ZM2.23144 18.5819L2.05488 18.6409L2.19607 19.0723L2.37263 19.0132L2.23144 18.5819ZM2.19501 19.0727L2.37658 19.013L2.23749 18.5809L2.05593 18.6406L2.19501 19.0727ZM2.3384 19.0217L2.52797 18.9949L2.46527 18.545L2.27569 18.572L2.3384 19.0217ZM2.71562 18.7188L2.71262 18.7057L2.2746 18.8079L2.27761 18.821L2.71562 18.7188ZM6.90744 4.69552C5.94873 5.47909 5.09304 6.38295 4.36336 7.3825L4.72511 7.65223C5.43199 6.68389 6.26111 5.80805 7.19011 5.04876L6.90744 4.69552ZM4.4125 7.70144L4.55001 7.80198L4.81348 7.43384L4.67597 7.3333L4.4125 7.70144ZM4.54691 7.79962L4.55491 7.8057L4.82463 7.44225L4.81663 7.43616L4.54691 7.79962ZM4.81348 7.43384L4.66311 7.33435L4.41605 7.71388L4.56624 7.81374L4.81348 7.43384ZM4.41488 7.71311L4.57311 7.81974L4.82247 7.4417L4.66424 7.33512L4.41488 7.71311ZM4.55838 7.80893L4.70825 7.92864L4.98705 7.57227L4.83717 7.45252L4.55838 7.80893ZM5.03465 7.87648L5.04 7.86835L4.66594 7.61634L4.66059 7.62447L5.03465 7.87648ZM5.03415 7.87721C5.72131 6.93591 6.52871 6.08337 7.43236 5.34533L7.14983 4.99196C6.21647 5.75431 5.38241 6.63492 4.67242 7.60753L5.03415 7.87721ZM7.46442 5.024L7.22207 4.72745L6.87548 5.01681L7.11782 5.3133L7.46442 5.024ZM3.14023 9.37986C2.58098 10.4856 2.16653 11.6606 1.90842 12.8716L2.34787 12.9674C2.59774 11.7949 2.999 10.6573 3.5405 9.58664L3.14023 9.37986ZM1.90927 12.8708L1.90627 12.8846L2.34535 12.9821L2.34835 12.9682L1.90927 12.8708ZM2.0945 13.1583L2.28908 13.186L2.35169 12.7361L2.15711 12.7084L2.0945 13.1583ZM2.27475 13.1834L2.45666 13.2215L2.54792 12.7767L2.36602 12.7385L2.27475 13.1834ZM2.72201 13.0469C2.96487 11.9069 3.35512 10.8007 3.88193 9.75938L3.48168 9.5526C2.93712 10.629 2.53367 11.7726 2.28256 12.9513L2.72201 13.0469ZM3.7824 9.45286L3.44097 9.28011L3.23977 9.68638L3.58121 9.85912L3.7824 9.45286Z"
        fill="white" />
    <path fill-rule="evenodd" clip-rule="evenodd"
        d="M22.9199 9.81445H18.8269V17.2331C18.8269 17.2331 18.875 19.6253 16.0323 19.6952C13.1893 19.6253 13.2705 17.2331 13.2705 17.2331V9.81445H9.17822V18.0646C9.17822 21.629 13.1783 22.3563 16.0347 22.3563C19.0112 22.3563 22.9199 21.5814 22.9199 18.0646V9.81445Z"
        fill="white" />
</svg>