<svg width="32" height="32" viewBox="0 0 32 32" fill="none" xmlns="http://www.w3.org/2000/svg">
    <path
        d="M32 27.0343H0V5.51709H32V27.0343ZM2.55206 24.4501H29.4165V8.10614H2.55448V24.4501H2.55206Z"
        fill="#00B373" />
    <path
        d="M21.3081 20.0431L27.7706 12.4965V9.94385H17.5987V12.6808H23.7851L17.3711 20.2031V22.78H28.129V20.0431H21.3081Z"
        fill="#00B373" />
    <path
        d="M16.7174 16.3877C16.7174 15.5755 16.606 14.7634 16.3857 13.978C16.1605 13.178 15.7924 12.4483 15.2888 11.8083C14.7828 11.1635 14.1266 10.6374 13.3421 10.2399C12.5527 9.8423 11.5842 9.63867 10.4607 9.63867C9.51398 9.63867 8.62536 9.81079 7.81907 10.1526C7.01277 10.4944 6.30575 10.972 5.72222 11.5756C5.13868 12.1792 4.67621 12.8968 4.34449 13.7089C4.01277 14.5234 3.8457 15.4156 3.8457 16.361C3.8457 17.3064 3.99825 18.1937 4.30333 19.0034C4.60842 19.8203 5.04909 20.5403 5.61568 21.1439C6.18469 21.75 6.88687 22.23 7.70527 22.5718C8.52125 22.9136 9.44135 23.0857 10.4341 23.0857C12.8384 23.0857 14.7367 22.2033 16.0782 20.4652L16.3082 20.167L13.9886 18.3925L13.761 18.6737C13.3469 19.1828 12.8893 19.5973 12.4002 19.9076C11.9377 20.1985 11.3784 20.3464 10.7392 20.3464C10.2573 20.3464 9.78275 20.2664 9.33239 20.1112C8.88444 19.9585 8.48735 19.7379 8.14837 19.4616C7.81665 19.19 7.54304 18.8555 7.33723 18.4676C7.19195 18.1937 7.09994 17.8955 7.05878 17.5755H16.715V16.3852L16.7174 16.3877ZM7.06604 14.9937C7.10236 14.7586 7.17258 14.5186 7.27427 14.2786C7.43408 13.9053 7.66168 13.561 7.95224 13.2532C8.24038 12.9501 8.59873 12.7004 9.02004 12.5089C9.4365 12.3198 9.90139 12.2229 10.405 12.2229C10.9087 12.2229 11.3929 12.3029 11.7779 12.4629C12.1556 12.618 12.4777 12.8362 12.7271 13.1077C12.9789 13.3841 13.1702 13.7113 13.2985 14.0847C13.3929 14.3659 13.4583 14.6689 13.4946 14.9937H7.06362H7.06604Z"
        fill="#00B373" />
</svg>