<svg width="32" height="32" viewBox="0 0 32 32" fill="none" xmlns="http://www.w3.org/2000/svg">
    <g clip-path="url(#clip0_5124_200)">
        <path fill-rule="evenodd" clip-rule="evenodd"
            d="M-0.0625 -0.0625C10.6042 -0.0625 21.2709 -0.0625 31.9375 -0.0625C31.9375 10.6042 31.9375 21.2709 31.9375 31.9375C21.2709 31.9375 10.6042 31.9375 -0.0625 31.9375C-0.0625 21.2709 -0.0625 10.6042 -0.0625 -0.0625Z"
            fill="#041D45" />
        <path fill-rule="evenodd" clip-rule="evenodd"
            d="M9.81244 20.5625C11.6673 20.7282 13.5423 20.7282 15.4374 20.5625C15.4219 20.4866 15.3803 20.445 15.3124 20.4375C15.0072 18.964 15.5488 17.964 16.9374 17.4375C17.7916 15.593 19.0833 15.1972 20.8124 16.25C21.1454 16.5836 21.3747 16.9795 21.4999 17.4375C22.6526 17.8634 23.2983 18.6967 23.4374 19.9375C24.9614 18.6727 25.3156 17.131 24.4999 15.3125C23.9297 14.5374 23.1588 14.0999 22.1874 14C21.6056 13.9376 21.0223 13.9167 20.4374 13.9375C20.7806 11.3025 19.6347 9.88579 16.9999 9.68749C15.3471 9.79766 14.2221 10.631 13.6249 12.1875C13.4708 13.4719 13.3874 14.7635 13.3749 16.0625C12.7249 18.0021 11.4125 18.6687 9.43744 18.0625C9.10894 17.6206 9.10894 17.1831 9.43744 16.75C10.3842 16.8244 11.1551 16.5119 11.7499 15.8125C11.8816 14.4405 12.0066 13.0655 12.1249 11.6875C13.7823 8.20506 16.3866 7.26756 19.9374 8.87499C21.2392 9.70787 21.9059 10.8954 21.9374 12.4375C25.2527 12.7742 26.7736 14.6076 26.4999 17.9375C25.8119 20.5419 24.1244 21.9794 21.4374 22.25C20.8154 23.5002 19.8154 23.9585 18.4374 23.625C17.7683 23.3525 17.3516 22.8734 17.1874 22.1875C14.5204 22.2084 11.8538 22.1875 9.18744 22.125C6.39701 21.1927 5.20951 19.2552 5.62494 16.3125C6.3356 13.9894 7.8981 12.8852 10.3124 13C10.733 13.3782 10.7955 13.8157 10.4999 14.3125C7.60129 14.6927 6.60129 16.276 7.49994 19.0625C8.04005 19.9259 8.81089 20.4259 9.81244 20.5625Z"
            fill="#3EBCAE" />
        <path fill-rule="evenodd" clip-rule="evenodd"
            d="M20.0624 17.9375C20.0624 18.2709 20.0624 18.6041 20.0624 18.9375C20.4374 18.9375 20.8124 18.9375 21.1874 18.9375C21.9717 19.377 22.0133 19.8978 21.3124 20.5C20.8978 20.5623 20.4812 20.5831 20.0624 20.5625C20.083 20.9813 20.0622 21.3979 19.9999 21.8125C19.4347 22.5075 18.9347 22.4659 18.4999 21.6875C18.4377 21.3148 18.4168 20.9398 18.4374 20.5625C18.0187 20.5831 17.602 20.5623 17.1874 20.5C16.572 20.0481 16.5304 19.5481 17.0624 19C17.5189 18.9376 17.9772 18.9169 18.4374 18.9375C18.4168 18.5188 18.4377 18.1021 18.4999 17.6875C18.7565 17.2135 19.1523 17.0678 19.6874 17.25C19.9508 17.408 20.0758 17.6371 20.0624 17.9375Z"
            fill="#051F46" />
        <path fill-rule="evenodd" clip-rule="evenodd"
            d="M20.0625 17.9375C20.1835 18.2009 20.2252 18.4926 20.1875 18.8125C20.5481 18.7743 20.8815 18.8159 21.1875 18.9375C20.8125 18.9375 20.4375 18.9375 20.0625 18.9375C20.0625 18.6041 20.0625 18.2709 20.0625 17.9375Z"
            fill="#32888E" />
        <path fill-rule="evenodd" clip-rule="evenodd"
            d="M15.3125 20.4375C15.3804 20.445 15.422 20.4866 15.4375 20.5625C13.5424 20.7282 11.6673 20.7282 9.8125 20.5625C11.6679 20.6036 13.5013 20.562 15.3125 20.4375Z"
            fill="#338B90" />
    </g>
    <defs>
        <clipPath id="clip0_5124_200">
            <rect width="32" height="32" fill="white" />
        </clipPath>
    </defs>
</svg>