<svg width="32" height="32" viewBox="0 0 32 32" fill="none" xmlns="http://www.w3.org/2000/svg">
    <path opacity="0.998" fill-rule="evenodd" clip-rule="evenodd"
        d="M1.46789 0.00365238C1.46789 10.6679 1.46789 21.3321 1.46789 31.9963C1.05642 32.0061 0.645407 31.9963 0.234862 31.967C0.126225 31.9265 0.0479374 31.858 0 31.7615C0 21.2538 0 10.7462 0 0.238461C0.0947241 0.134558 0.212155 0.0661115 0.352293 0.0330035C0.723646 0.00365238 1.09551 -0.00609218 1.46789 0.00365238Z"
        fill="#2F3F8C" />
    <path opacity="0.998" fill-rule="evenodd" clip-rule="evenodd"
        d="M1.46777 0.00341797C1.8005 0.00341797 2.13321 0.00341797 2.46594 0.00341797C2.46594 10.6677 2.46594 21.3319 2.46594 31.9961C2.13321 31.9961 1.8005 31.9961 1.46777 31.9961C1.46777 21.3319 1.46777 10.6677 1.46777 0.00341797Z"
        fill="#203C8A" />
    <path opacity="0.998" fill-rule="evenodd" clip-rule="evenodd"
        d="M2.46582 0.00341797C3.05298 0.00341797 3.64013 0.00341797 4.22729 0.00341797C4.22729 10.6677 4.22729 21.3319 4.22729 31.9961C3.64013 31.9961 3.05298 31.9961 2.46582 31.9961C2.46582 21.3319 2.46582 10.6677 2.46582 0.00341797Z"
        fill="#1E408D" />
    <path opacity="0.998" fill-rule="evenodd" clip-rule="evenodd"
        d="M4.22754 0.00341797C4.34497 0.00341797 4.4624 0.00341797 4.57983 0.00341797C4.57983 10.6677 4.57983 21.3319 4.57983 31.9961C4.4624 31.9961 4.34497 31.9961 4.22754 31.9961C4.22754 21.3319 4.22754 10.6677 4.22754 0.00341797Z"
        fill="#1B4490" />
    <path opacity="0.998" fill-rule="evenodd" clip-rule="evenodd"
        d="M4.57959 0.00341797C5.10803 0.00341797 5.63647 0.00341797 6.16491 0.00341797C6.16491 10.6677 6.16491 21.3319 6.16491 31.9961C5.63647 31.9961 5.10803 31.9961 4.57959 31.9961C4.57959 21.3319 4.57959 10.6677 4.57959 0.00341797Z"
        fill="#1A4691" />
    <path opacity="0.998" fill-rule="evenodd" clip-rule="evenodd"
        d="M6.16504 0.00341797C6.49778 0.00341797 6.83046 0.00341797 7.1632 0.00341797C7.1632 10.6677 7.1632 21.3319 7.1632 31.9961C6.83046 31.9961 6.49778 31.9961 6.16504 31.9961C6.16504 21.3319 6.16504 10.6677 6.16504 0.00341797Z"
        fill="#194A94" />
    <path opacity="0.996" fill-rule="evenodd" clip-rule="evenodd"
        d="M7.16309 0.00341797C7.75024 0.00341797 8.3374 0.00341797 8.92455 0.00341797C8.92455 1.29487 8.92455 2.58631 8.92455 3.87776C8.65053 3.87776 8.37656 3.87776 8.10254 3.87776C8.09273 11.9983 8.10254 20.1187 8.13189 28.2392C8.35413 28.026 8.59874 27.8499 8.86584 27.7109C8.92444 29.1292 8.94399 30.5576 8.92455 31.9961C8.3374 31.9961 7.75024 31.9961 7.16309 31.9961C7.16309 21.3319 7.16309 10.6677 7.16309 0.00341797Z"
        fill="#1F5098" />
    <path opacity="0.986" fill-rule="evenodd" clip-rule="evenodd"
        d="M8.9248 0.00341797C9.59023 0.00341797 10.2557 0.00341797 10.9211 0.00341797C10.9211 1.29487 10.9211 2.58631 10.9211 3.87776C10.2557 3.87776 9.59023 3.87776 8.9248 3.87776C8.9248 2.58631 8.9248 1.29487 8.9248 0.00341797Z"
        fill="#1B549D" />
    <path opacity="0.986" fill-rule="evenodd" clip-rule="evenodd"
        d="M10.9209 0.00341797C11.645 0.00341797 12.3692 0.00341797 13.0934 0.00341797C13.0934 1.29487 13.0934 2.58631 13.0934 3.87776C12.3692 3.87776 11.645 3.87776 10.9209 3.87776C10.9209 2.58631 10.9209 1.29487 10.9209 0.00341797Z"
        fill="#1F5BA2" />
    <path opacity="0.986" fill-rule="evenodd" clip-rule="evenodd"
        d="M13.0938 0.00341797C14.0724 0.00341797 15.0509 0.00341797 16.0295 0.00341797C16.0295 1.29487 16.0295 2.58631 16.0295 3.87776C15.0509 3.87776 14.0724 3.87776 13.0938 3.87776C13.0938 2.58631 13.0938 1.29487 13.0938 0.00341797Z"
        fill="#1762A8" />
    <path opacity="0.986" fill-rule="evenodd" clip-rule="evenodd"
        d="M16.0293 0.00341797C17.1449 0.00341797 18.2605 0.00341797 19.3761 0.00341797C19.3761 1.29487 19.3761 2.58631 19.3761 3.87776C18.2605 3.87776 17.1449 3.87776 16.0293 3.87776C16.0293 2.58631 16.0293 1.29487 16.0293 0.00341797Z"
        fill="#0D6BB0" />
    <path opacity="0.986" fill-rule="evenodd" clip-rule="evenodd"
        d="M19.376 0.00341797C19.9631 0.00341797 20.5503 0.00341797 21.1374 0.00341797C21.1374 1.29487 21.1374 2.58631 21.1374 3.87776C20.5503 3.87776 19.9631 3.87776 19.376 3.87776C19.376 2.58631 19.376 1.29487 19.376 0.00341797Z"
        fill="#0E73B6" />
    <path opacity="0.986" fill-rule="evenodd" clip-rule="evenodd"
        d="M21.1377 0.00341797C21.764 0.00341797 22.3903 0.00341797 23.0166 0.00341797C23.0166 1.29487 23.0166 2.58631 23.0166 3.87776C22.3903 3.87776 21.764 3.87776 21.1377 3.87776C21.1377 2.58631 21.1377 1.29487 21.1377 0.00341797Z"
        fill="#147ABC" />
    <path opacity="0.997" fill-rule="evenodd" clip-rule="evenodd"
        d="M23.0166 0.00341797C23.3689 0.00341797 23.7212 0.00341797 24.0735 0.00341797C24.0735 8.29997 24.0735 16.5966 24.0735 24.8931C23.7045 26.1372 24.096 27.0373 25.2478 27.5934C25.2478 29.061 25.2478 30.5286 25.2478 31.9961C24.504 31.9961 23.7604 31.9961 23.0166 31.9961C23.0166 24.2279 23.0166 16.4596 23.0166 8.69134C23.2906 8.69134 23.5646 8.69134 23.8386 8.69134C23.8386 7.08684 23.8386 5.48227 23.8386 3.87776C23.5646 3.87776 23.2906 3.87776 23.0166 3.87776C23.0166 2.58631 23.0166 1.29487 23.0166 0.00341797Z"
        fill="#197FC0" />
    <path opacity="0.998" fill-rule="evenodd" clip-rule="evenodd"
        d="M24.0732 0.00341797C24.4647 0.00341797 24.8561 0.00341797 25.2476 0.00341797C25.2476 7.94776 25.2476 15.8922 25.2476 23.8365C24.7243 24.0467 24.3329 24.3989 24.0732 24.8931C24.0732 16.5966 24.0732 8.29997 24.0732 0.00341797Z"
        fill="#1B81C2" />
    <path opacity="0.998" fill-rule="evenodd" clip-rule="evenodd"
        d="M25.2476 0.00341797C25.6194 0.00341797 25.9913 0.00341797 26.3632 0.00341797C26.3632 7.88906 26.3632 15.7748 26.3632 23.6604C26.1552 23.642 25.9595 23.6616 25.776 23.7191C25.595 23.7435 25.4188 23.7827 25.2476 23.8365C25.2476 15.8922 25.2476 7.94776 25.2476 0.00341797Z"
        fill="#1C85C5" />
    <path opacity="0.998" fill-rule="evenodd" clip-rule="evenodd"
        d="M26.3635 0.00341797C26.5984 0.00341797 26.8332 0.00341797 27.0681 0.00341797C27.0681 7.94776 27.0681 15.8922 27.0681 23.8365C26.6452 23.7342 26.2147 23.6951 25.7764 23.7191C25.9599 23.6616 26.1556 23.642 26.3635 23.6604C26.3635 15.7748 26.3635 7.88906 26.3635 0.00341797Z"
        fill="#1C88C8" />
    <path opacity="0.998" fill-rule="evenodd" clip-rule="evenodd"
        d="M27.068 0.00341797C27.7139 0.00341797 28.3597 0.00341797 29.0056 0.00341797C29.0056 10.6677 29.0056 21.3319 29.0056 31.9961C28.3597 31.9961 27.7139 31.9961 27.068 31.9961C27.0874 30.5185 27.0679 29.0509 27.0093 27.5934C28.0449 27.1276 28.4657 26.3254 28.2717 25.1867C28.064 24.5587 27.6628 24.1086 27.068 23.8365C27.068 15.8922 27.068 7.94776 27.068 0.00341797Z"
        fill="#1C8CCB" />
    <path opacity="0.998" fill-rule="evenodd" clip-rule="evenodd"
        d="M29.0054 0.00341797C29.6708 0.00341797 30.3363 0.00341797 31.0017 0.00341797C31.0017 10.6677 31.0017 21.3319 31.0017 31.9961C30.3363 31.9961 29.6708 31.9961 29.0054 31.9961C29.0054 21.3319 29.0054 10.6677 29.0054 0.00341797Z"
        fill="#1C92D1" />
    <path opacity="0.932" fill-rule="evenodd" clip-rule="evenodd"
        d="M31.002 0.00361941C31.2181 -0.00606645 31.4334 0.00367811 31.6478 0.0329705C31.8197 0.106935 31.9274 0.234143 31.9708 0.414535C32.0099 10.8244 32.0099 21.2343 31.9708 31.6441C31.9305 31.7942 31.8425 31.9019 31.7065 31.967C31.4725 31.9963 31.2376 32.0061 31.002 31.9963C31.002 21.3321 31.002 10.6679 31.002 0.00361941Z"
        fill="#1E97D5" />
    <path fill-rule="evenodd" clip-rule="evenodd"
        d="M8.92482 3.87793C9.59024 3.87793 10.2557 3.87793 10.9211 3.87793C11.6453 3.87793 12.3695 3.87793 13.0936 3.87793C14.0722 3.87793 15.0508 3.87793 16.0294 3.87793C17.145 3.87793 18.2606 3.87793 19.3762 3.87793C19.9633 3.87793 20.5505 3.87793 21.1377 3.87793C21.764 3.87793 22.3902 3.87793 23.0166 3.87793C23.2906 3.87793 23.5645 3.87793 23.8386 3.87793C23.8386 5.48244 23.8386 7.087 23.8386 8.69151C23.5645 8.69151 23.2906 8.69151 23.0166 8.69151C22.4686 8.69151 21.9205 8.69151 21.3725 8.69151C20.7071 8.69151 20.0416 8.69151 19.3762 8.69151C18.789 8.69151 18.2019 8.69151 17.6147 8.69151C17.0863 8.69151 16.5578 8.69151 16.0294 8.69151C15.3444 8.69151 14.6594 8.69151 13.9744 8.69151C13.9744 10.4134 13.9744 12.1354 13.9744 13.8573C16.4304 13.9159 18.8965 13.9355 21.3725 13.916C21.3725 15.4618 21.3725 17.0077 21.3725 18.5535C18.9065 18.5535 16.4404 18.5535 13.9744 18.5535C13.9744 20.2558 13.9744 21.9582 13.9744 23.6606C13.6612 23.9149 13.348 24.1693 13.0349 24.4237C12.2925 24.9706 11.5683 25.538 10.8624 26.1261C10.1733 26.6268 9.50786 27.1551 8.8661 27.711C8.599 27.8501 8.3544 28.0262 8.13216 28.2393C8.1028 20.1189 8.09299 11.9984 8.1028 3.87793C8.37682 3.87793 8.65079 3.87793 8.92482 3.87793Z"
        fill="#F5F5F5" />
    <path fill-rule="evenodd" clip-rule="evenodd"
        d="M16.0292 8.69141C16.0292 10.4133 16.0292 12.1353 16.0292 13.8572C15.3441 13.8572 14.6592 13.8572 13.9741 13.8572C13.9741 12.1353 13.9741 10.4133 13.9741 8.69141C14.6592 8.69141 15.3441 8.69141 16.0292 8.69141Z"
        fill="#1764AA" />
    <path fill-rule="evenodd" clip-rule="evenodd"
        d="M16.0293 8.69141C16.5577 8.69141 17.0862 8.69141 17.6146 8.69141C17.6146 10.4133 17.6146 12.1353 17.6146 13.8572C17.0862 13.8572 16.5577 13.8572 16.0293 13.8572C16.0293 12.1353 16.0293 10.4133 16.0293 8.69141Z"
        fill="#0F68AD" />
    <path fill-rule="evenodd" clip-rule="evenodd"
        d="M17.6147 8.69141C18.2019 8.69141 18.7891 8.69141 19.3762 8.69141C19.3762 10.4133 19.3762 12.1353 19.3762 13.8572C18.7891 13.8572 18.2019 13.8572 17.6147 13.8572C17.6147 12.1353 17.6147 10.4133 17.6147 8.69141Z"
        fill="#0B6EB2" />
    <path fill-rule="evenodd" clip-rule="evenodd"
        d="M19.376 8.69141C20.0414 8.69141 20.7069 8.69141 21.3723 8.69141C21.3723 10.4133 21.3723 12.1353 21.3723 13.8572C20.7069 13.8572 20.0414 13.8572 19.376 13.8572C19.376 12.1353 19.376 10.4133 19.376 8.69141Z"
        fill="#0E74B7" />
    <path opacity="0.999" fill-rule="evenodd" clip-rule="evenodd"
        d="M21.3723 8.69141C21.9203 8.69141 22.4683 8.69141 23.0163 8.69141C23.0163 16.4596 23.0163 24.2279 23.0163 31.9962C22.4683 31.9962 21.9203 31.9962 21.3723 31.9962C21.3723 27.5348 21.3723 23.0734 21.3723 18.6121C20.7069 18.6121 20.0414 18.6121 19.376 18.6121C18.7888 18.6121 18.2016 18.6121 17.6145 18.6121C17.086 18.6121 16.5576 18.6121 16.0292 18.6121C15.5594 18.6121 15.0897 18.6121 14.62 18.6121C14.4243 18.6121 14.2285 18.6121 14.0328 18.6121C14.0523 20.3049 14.0327 21.9877 13.9741 23.6605C13.9741 21.9581 13.9741 20.2557 13.9741 18.5534C16.4402 18.5534 18.9062 18.5534 21.3723 18.5534C21.3723 17.0076 21.3723 15.4617 21.3723 13.9159C18.8962 13.9354 16.4302 13.9158 13.9741 13.8572C14.6592 13.8572 15.3441 13.8572 16.0292 13.8572C16.5576 13.8572 17.086 13.8572 17.6145 13.8572C18.2016 13.8572 18.7888 13.8572 19.376 13.8572C20.0414 13.8572 20.7069 13.8572 21.3723 13.8572C21.3723 12.1353 21.3723 10.4133 21.3723 8.69141Z"
        fill="#187ABC" />
    <path opacity="0.998" fill-rule="evenodd" clip-rule="evenodd"
        d="M14.62 18.6123C14.62 23.0737 14.62 27.535 14.62 31.9964C14.1111 31.9964 13.6023 31.9964 13.0934 31.9964C13.1129 29.4622 13.0933 26.938 13.0347 24.4238C13.3478 24.1695 13.661 23.915 13.9741 23.6607C14.0327 21.988 14.0523 20.3052 14.0328 18.6123C14.2285 18.6123 14.4243 18.6123 14.62 18.6123Z"
        fill="#1B60A6" />
    <path opacity="0.999" fill-rule="evenodd" clip-rule="evenodd"
        d="M14.6201 18.6123C15.0898 18.6123 15.5596 18.6123 16.0293 18.6123C16.0293 23.0737 16.0293 27.535 16.0293 31.9964C15.5596 31.9964 15.0898 31.9964 14.6201 31.9964C14.6201 27.535 14.6201 23.0737 14.6201 18.6123Z"
        fill="#1564AA" />
    <path opacity="0.999" fill-rule="evenodd" clip-rule="evenodd"
        d="M16.0293 18.6123C16.5577 18.6123 17.0862 18.6123 17.6146 18.6123C17.6146 23.0737 17.6146 27.535 17.6146 31.9964C17.0862 31.9964 16.5577 31.9964 16.0293 31.9964C16.0293 27.535 16.0293 23.0737 16.0293 18.6123Z"
        fill="#0E69AE" />
    <path opacity="0.999" fill-rule="evenodd" clip-rule="evenodd"
        d="M17.6147 18.6123C18.2019 18.6123 18.7891 18.6123 19.3762 18.6123C19.3762 23.0737 19.3762 27.535 19.3762 31.9964C18.7891 31.9964 18.2019 31.9964 17.6147 31.9964C17.6147 27.535 17.6147 23.0737 17.6147 18.6123Z"
        fill="#0B6EB2" />
    <path opacity="0.999" fill-rule="evenodd" clip-rule="evenodd"
        d="M19.376 18.6123C20.0414 18.6123 20.7069 18.6123 21.3723 18.6123C21.3723 23.0737 21.3723 27.535 21.3723 31.9964C20.7069 31.9964 20.0414 31.9964 19.376 31.9964C19.376 27.535 19.376 23.0737 19.376 18.6123Z"
        fill="#0E74B7" />
    <path fill-rule="evenodd" clip-rule="evenodd"
        d="M25.776 23.7193C26.2143 23.6952 26.6449 23.7343 27.0677 23.8367C27.6625 24.1087 28.0638 24.5588 28.2714 25.1868C28.4655 26.3255 28.0446 27.1278 27.009 27.5936C26.4197 27.7392 25.8325 27.7392 25.2475 27.5936C24.0957 27.0375 23.7043 26.1374 24.0732 24.8933C24.3329 24.3991 24.7243 24.0469 25.2475 23.8367C25.4188 23.7828 25.595 23.7437 25.776 23.7193Z"
        fill="#FDFEFE" />
    <path opacity="0.997" fill-rule="evenodd" clip-rule="evenodd"
        d="M13.0348 24.4238C13.0934 26.938 13.113 29.4622 13.0935 31.9964C12.3694 31.9964 11.6452 31.9964 10.921 31.9964C10.9405 30.0297 10.9209 28.0729 10.8623 26.1262C11.5682 25.5382 12.2924 24.9707 13.0348 24.4238Z"
        fill="#1F5AA1" />
    <path opacity="0.996" fill-rule="evenodd" clip-rule="evenodd"
        d="M10.8625 26.126C10.9211 28.0727 10.9407 30.0294 10.9213 31.9962C10.2558 31.9962 9.59035 31.9962 8.92493 31.9962C8.94436 30.5576 8.92481 29.1292 8.86621 27.7109C9.50797 27.155 10.1734 26.6267 10.8625 26.126Z"
        fill="#1B549C" />
    <path opacity="0.995" fill-rule="evenodd" clip-rule="evenodd"
        d="M25.2476 27.5938C25.8325 27.7394 26.4197 27.7394 27.009 27.5938C27.0676 29.0512 27.0872 30.5188 27.0677 31.9964C26.461 31.9964 25.8543 31.9964 25.2476 31.9964C25.2476 30.5289 25.2476 29.0613 25.2476 27.5938Z"
        fill="#1C86C6" />
</svg>