<svg width="32" height="32" viewBox="0 0 32 32" fill="none" xmlns="http://www.w3.org/2000/svg">
    <g clip-path="url(#clip0_5414_789)">
        <path opacity="0.01" fill-rule="evenodd" clip-rule="evenodd"
            d="M20.6396 1.44026C20.7666 1.11225 20.9799 1.05892 21.2796 1.28026C21.0894 1.42885 20.8761 1.48218 20.6396 1.44026Z"
            fill="#1A964C" />
        <path opacity="0.012" fill-rule="evenodd" clip-rule="evenodd"
            d="M20.64 1.44043C20.64 1.5471 20.64 1.65376 20.64 1.76043C19.7867 1.65376 19.7867 1.5471 20.64 1.44043Z"
            fill="#1B974C" />
        <path opacity="0.965" fill-rule="evenodd" clip-rule="evenodd"
            d="M25.4399 -0.160156C25.8665 -0.160156 26.2932 -0.160156 26.7199 -0.160156C26.9145 1.111 27.0745 2.391 27.1999 3.67984C27.3065 2.71984 27.4132 1.75984 27.5199 0.799844C27.5732 1.33318 27.6265 1.86651 27.6799 2.39984C27.7387 3.26532 27.5254 4.01197 27.0399 4.63984C27.0948 4.32253 26.9881 4.10919 26.7199 3.99984C26.0564 4.25568 25.523 4.68237 25.1199 5.27984C24.5633 4.40218 23.8167 3.76218 22.8799 3.35984C23.5609 2.51815 24.3075 1.71815 25.1199 0.959844C24.9457 0.730343 24.7324 0.570343 24.4799 0.479844C24.7999 0.26651 25.1199 0.0531772 25.4399 -0.160156Z"
            fill="#157C73" />
        <path opacity="0.012" fill-rule="evenodd" clip-rule="evenodd"
            d="M19.04 2.0799C19.167 1.7519 19.3803 1.69856 19.68 1.9199C19.4898 2.06849 19.2765 2.12183 19.04 2.0799Z"
            fill="#1B954D" />
        <path opacity="0.936" fill-rule="evenodd" clip-rule="evenodd"
            d="M24.4797 0.480469C24.7322 0.570968 24.9456 0.730968 25.1197 0.960469C24.3074 1.71878 23.5607 2.51878 22.8797 3.36047C22.2397 3.89381 21.5997 4.42712 20.9597 4.96047C20.1298 4.55932 19.3832 4.026 18.7197 3.36047C18.8264 3.14713 18.9331 2.9338 19.0397 2.72047C19.6032 2.4604 20.1365 2.1404 20.6397 1.76047C21.9164 1.33609 23.1964 0.909422 24.4797 0.480469Z"
            fill="#1F9E52" />
        <path opacity="0.999" fill-rule="evenodd" clip-rule="evenodd"
            d="M19.0404 2.71973C18.9337 2.93306 18.827 3.14639 18.7204 3.35973C17.1204 4.74638 15.627 6.23973 14.2404 7.83973C13.4937 8.47973 12.747 9.11973 12.0004 9.75973C11.5992 8.92984 11.0659 8.18315 10.4004 7.51973C10.9337 6.87973 11.467 6.23973 12.0004 5.59973C14.2526 4.47576 16.5992 3.51576 19.0404 2.71973Z"
            fill="#1072AE" />
        <path opacity="0.955" fill-rule="evenodd" clip-rule="evenodd"
            d="M22.8797 3.36035C23.8165 3.76269 24.5632 4.40269 25.1197 5.28035C24.5991 5.96189 24.0124 6.60189 23.3597 7.20035C23.1384 7.50013 23.1917 7.71344 23.5197 7.84035C23.5197 7.94701 23.5197 8.0537 23.5197 8.16035C23.2024 8.10544 22.9891 8.21213 22.8797 8.48035C22.5624 8.42544 22.3491 8.53213 22.2397 8.80035C21.9224 8.74544 21.7091 8.85213 21.5997 9.12035C21.1866 9.04442 20.8666 9.15107 20.6397 9.44035C20.5331 9.44035 20.4264 9.44035 20.3197 9.44035C20.1064 8.58701 19.5731 8.0537 18.7197 7.84035C19.5963 6.96589 20.343 6.00589 20.9597 4.96035C21.5997 4.42701 22.2397 3.8937 22.8797 3.36035Z"
            fill="#0D5B52" />
        <path fill-rule="evenodd" clip-rule="evenodd"
            d="M18.7202 3.36035C19.3837 4.02589 20.1303 4.5592 20.9602 4.96035C20.3435 6.00589 19.5968 6.96589 18.7202 7.84035C17.9736 8.48035 17.2269 9.12035 16.4802 9.76035C15.9237 8.88269 15.177 8.24269 14.2402 7.84035C15.6269 6.24035 17.1202 4.74701 18.7202 3.36035Z"
            fill="#49B249" />
        <path opacity="0.579" fill-rule="evenodd" clip-rule="evenodd"
            d="M26.7203 4C26.6654 4.31731 26.7721 4.53066 27.0403 4.64C26.8232 6.04403 26.0765 7.00403 24.8003 7.52C24.6937 7.09334 24.587 7.09334 24.4803 7.52C24.267 7.52 24.1603 7.62666 24.1603 7.84C23.947 7.84 23.7337 7.84 23.5203 7.84C23.1923 7.71309 23.139 7.49978 23.3603 7.2C24.013 6.60154 24.5997 5.96154 25.1203 5.28C25.5235 4.68253 26.0568 4.25584 26.7203 4Z"
            fill="#3BB7B5" />
        <path opacity="0.012" fill-rule="evenodd" clip-rule="evenodd"
            d="M24.4805 7.51953C24.5871 7.51953 24.6938 7.51953 24.8005 7.51953C24.7412 7.73396 24.6345 7.73396 24.4805 7.51953Z"
            fill="#44BFBC" />
        <path opacity="0.012" fill-rule="evenodd" clip-rule="evenodd"
            d="M24.1602 7.83984C24.2668 7.83984 24.3735 7.83984 24.4802 7.83984C24.4209 8.05428 24.3142 8.05428 24.1602 7.83984Z"
            fill="#44BFBC" />
        <path opacity="0.961" fill-rule="evenodd" clip-rule="evenodd"
            d="M14.2404 7.83984C15.1772 8.24218 15.9238 8.88218 16.4804 9.75984C15.947 10.3998 15.4137 11.0398 14.8804 11.6798C14.8804 11.7865 14.8804 11.8932 14.8804 11.9998C14.5631 11.9449 14.3497 12.0516 14.2404 12.3198C13.9231 12.2649 13.7097 12.3716 13.6004 12.6398C13.2831 12.5849 13.0697 12.6916 12.9604 12.9598C12.5337 13.0665 12.5337 13.1732 12.9604 13.2798C12.809 13.7299 12.489 13.9432 12.0004 13.9198C12.0004 13.7065 11.8937 13.5998 11.6804 13.5998C11.2537 13.0665 10.827 12.5332 10.4004 11.9998C11.0659 11.3364 11.5992 10.5897 12.0004 9.75984C12.747 9.11984 13.4937 8.47984 14.2404 7.83984Z"
            fill="#8EC540" />
        <path opacity="0.852" fill-rule="evenodd" clip-rule="evenodd"
            d="M18.7199 7.83984C19.5732 8.05319 20.1065 8.5865 20.3199 9.43984C20.1065 9.43984 19.9999 9.5465 19.9999 9.75984C19.6826 9.70493 19.4692 9.81162 19.3599 10.0798C19.0426 10.0249 18.8292 10.1316 18.7199 10.3998C18.3068 10.3239 17.9868 10.4306 17.7599 10.7198C17.4426 10.6649 17.2292 10.7716 17.1199 11.0398C16.8026 10.9849 16.5892 11.0916 16.4799 11.3598C16.1626 11.3049 15.9492 11.4116 15.8399 11.6798C15.5199 11.6798 15.1999 11.6798 14.8799 11.6798C15.4132 11.0398 15.9465 10.3998 16.4799 9.75984C17.2265 9.11984 17.9732 8.47984 18.7199 7.83984Z"
            fill="#148582" />
        <path opacity="0.01" fill-rule="evenodd" clip-rule="evenodd"
            d="M23.5195 8.48016C23.5195 8.3735 23.5195 8.26681 23.5195 8.16016C23.7329 8.16016 23.9462 8.16016 24.1595 8.16016C24.0502 8.42838 23.8368 8.53507 23.5195 8.48016Z"
            fill="#43BFBE" />
        <path opacity="0.832" fill-rule="evenodd" clip-rule="evenodd"
            d="M12 5.59961C11.4666 6.23961 10.9333 6.87961 10.4 7.51961C8.47996 9.33295 6.55996 11.1463 4.63996 12.9596C4.5333 10.3996 4.42661 10.3996 4.31996 12.9596C4.2133 12.9596 4.10661 12.9596 3.99996 12.9596C3.90761 11.9519 4.06761 10.9919 4.47996 10.0796C4.58661 10.293 4.6933 10.5063 4.79996 10.7196C5.08133 9.95286 5.29465 9.2062 5.43996 8.47961C5.54661 8.58627 5.6533 8.69295 5.75996 8.79961C7.53173 7.15827 9.61173 6.09161 12 5.59961Z"
            fill="#273C84" />
        <path opacity="0.01" fill-rule="evenodd" clip-rule="evenodd"
            d="M22.8799 8.80047C22.8799 8.69381 22.8799 8.58712 22.8799 8.48047C23.0932 8.48047 23.3065 8.48047 23.5199 8.48047C23.4105 8.74869 23.1972 8.85538 22.8799 8.80047Z"
            fill="#157064" />
        <path opacity="0.01" fill-rule="evenodd" clip-rule="evenodd"
            d="M22.2402 9.1198C22.2402 9.01315 22.2402 8.90646 22.2402 8.7998C22.4536 8.7998 22.6669 8.7998 22.8802 8.7998C22.7709 9.06803 22.5575 9.17472 22.2402 9.1198Z"
            fill="#0C6556" />
        <path opacity="0.01" fill-rule="evenodd" clip-rule="evenodd"
            d="M21.5996 9.12012C21.813 9.12012 22.0263 9.12012 22.2396 9.12012C22.0263 9.54677 21.813 9.54677 21.5996 9.12012Z"
            fill="#0D5750" />
        <path opacity="0.012" fill-rule="evenodd" clip-rule="evenodd"
            d="M20.6396 9.76043C20.6396 9.65377 20.6396 9.54709 20.6396 9.44043C21.493 9.54709 21.493 9.65377 20.6396 9.76043Z"
            fill="#0D5751" />
        <path opacity="0.01" fill-rule="evenodd" clip-rule="evenodd"
            d="M20 10.0798C20 9.97311 20 9.86642 20 9.75977C20.2133 9.75977 20.4267 9.75977 20.64 9.75977C20.5307 10.028 20.3173 10.1347 20 10.0798Z"
            fill="#0F6A65" />
        <path opacity="0.012" fill-rule="evenodd" clip-rule="evenodd"
            d="M19.3604 10.4001C19.3604 10.2934 19.3604 10.1867 19.3604 10.0801C19.5737 10.0801 19.787 10.0801 20.0004 10.0801C19.891 10.3483 19.6777 10.455 19.3604 10.4001Z"
            fill="#12827E" />
        <path fill-rule="evenodd" clip-rule="evenodd"
            d="M10.4 7.51953C11.0655 8.18296 11.5988 8.92964 12 9.75953C11.5988 10.5894 11.0655 11.3361 10.4 11.9995C8.90666 13.3862 7.41334 14.7729 5.92 16.1595C5.81334 15.7329 5.70666 15.7329 5.6 16.1595C5.49334 16.1595 5.38666 16.1595 5.28 16.1595C4.67494 15.163 4.24829 14.0963 4 12.9595C4.10666 12.9595 4.21334 12.9595 4.32 12.9595C4.42666 13.8129 4.53334 13.8129 4.64 12.9595C6.56 11.1462 8.48 9.33288 10.4 7.51953Z"
            fill="#1D7FBA" />
        <path opacity="0.01" fill-rule="evenodd" clip-rule="evenodd"
            d="M18.7197 10.7204C18.7197 10.6137 18.7197 10.507 18.7197 10.4004C18.9331 10.4004 19.1464 10.4004 19.3597 10.4004C19.2504 10.6686 19.037 10.7753 18.7197 10.7204Z"
            fill="#12827E" />
        <path opacity="0.01" fill-rule="evenodd" clip-rule="evenodd"
            d="M17.7598 11.0397C17.7598 10.9331 17.7598 10.8264 17.7598 10.7197C18.0798 10.7197 18.3998 10.7197 18.7198 10.7197C18.4929 11.009 18.1729 11.1157 17.7598 11.0397Z"
            fill="#12827F" />
        <path opacity="0.01" fill-rule="evenodd" clip-rule="evenodd"
            d="M17.1201 11.36C17.1201 11.2534 17.1201 11.1467 17.1201 11.04C17.3335 11.04 17.5468 11.04 17.7601 11.04C17.6508 11.3083 17.4374 11.415 17.1201 11.36Z"
            fill="#12837F" />
        <path opacity="0.01" fill-rule="evenodd" clip-rule="evenodd"
            d="M21.5996 11.3597C21.8398 11.0161 22.1598 10.9628 22.5596 11.1997C22.2562 11.3542 21.9362 11.4075 21.5996 11.3597Z"
            fill="#E1B522" />
        <path opacity="0.01" fill-rule="evenodd" clip-rule="evenodd"
            d="M16.4805 11.6804C16.4805 11.5737 16.4805 11.467 16.4805 11.3604C16.6938 11.3604 16.9071 11.3604 17.1205 11.3604C17.0111 11.6286 16.7978 11.7353 16.4805 11.6804Z"
            fill="#18958F" />
        <path opacity="0.01" fill-rule="evenodd" clip-rule="evenodd"
            d="M15.8398 11.9997C15.8398 11.893 15.8398 11.7863 15.8398 11.6797C16.0532 11.6797 16.2665 11.6797 16.4798 11.6797C16.3705 11.9479 16.1572 12.0546 15.8398 11.9997Z"
            fill="#18958F" />
        <path opacity="0.012" fill-rule="evenodd" clip-rule="evenodd"
            d="M14.8799 12.32C14.8799 12.2133 14.8799 12.1067 14.8799 12C15.1999 12 15.5199 12 15.8399 12C15.613 12.2893 15.293 12.3959 14.8799 12.32Z"
            fill="#72AC81" />
        <path opacity="0.893" fill-rule="evenodd" clip-rule="evenodd"
            d="M10.4003 12C10.8269 12.5333 11.2536 13.0667 11.6803 13.6C11.6803 13.7067 11.6803 13.8133 11.6803 13.92C11.4669 13.92 11.3603 14.0267 11.3603 14.24C11.1469 14.24 11.0403 14.3467 11.0403 14.56C10.6136 14.6667 10.6136 14.7733 11.0403 14.88C11.0585 15.2349 11.1651 15.5549 11.3603 15.84C11.043 15.7851 10.8296 15.8918 10.7203 16.16C10.5069 16.16 10.4003 16.2667 10.4003 16.48C10.1869 16.48 10.0803 16.5867 10.0803 16.8C9.86693 16.8 9.76027 16.9067 9.76027 17.12C9.54693 17.12 9.44027 17.2267 9.44027 17.44C9.01951 17.7522 8.59285 18.0722 8.16027 18.4C7.7277 18.0722 7.30104 17.7522 6.88027 17.44C6.77362 17.44 6.66693 17.44 6.56027 17.44C6.45362 17.44 6.34693 17.44 6.24027 17.44C5.92399 17.0256 5.60399 16.5989 5.28027 16.16C5.38693 16.16 5.49362 16.16 5.60027 16.16C5.70693 16.16 5.81362 16.16 5.92027 16.16C7.41362 14.7733 8.90693 13.3867 10.4003 12Z"
            fill="#C6D62D" />
        <path opacity="0.012" fill-rule="evenodd" clip-rule="evenodd"
            d="M14.2402 12.6403C14.2402 12.5337 14.2402 12.427 14.2402 12.3203C14.4536 12.3203 14.6669 12.3203 14.8802 12.3203C14.7709 12.5885 14.5575 12.6952 14.2402 12.6403Z"
            fill="#70B857" />
        <path opacity="0.011" fill-rule="evenodd" clip-rule="evenodd"
            d="M23.2004 15.5203C23.1476 14.4483 23.2009 13.3817 23.3604 12.3203C23.6188 13.4489 23.5654 14.5155 23.2004 15.5203Z"
            fill="#FBB039" />
        <path opacity="0.012" fill-rule="evenodd" clip-rule="evenodd"
            d="M13.5996 12.9596C13.5996 12.853 13.5996 12.7463 13.5996 12.6396C13.813 12.6396 14.0263 12.6396 14.2396 12.6396C14.1303 12.9079 13.9169 13.0146 13.5996 12.9596Z"
            fill="#8DC63E" />
        <path opacity="0.904" fill-rule="evenodd" clip-rule="evenodd"
            d="M22.8798 15.5197C22.7731 15.5197 22.6665 15.5197 22.5598 15.5197C22.0325 15.1006 21.4992 14.6739 20.9598 14.2397C20.2069 14.887 19.4602 15.527 18.7198 16.1597C17.8421 15.6031 17.2021 14.8565 16.7998 13.9197C18.5127 13.1455 20.2727 12.3988 22.0798 11.6797C22.3823 11.8094 22.5957 12.0227 22.7198 12.3197C22.8793 13.3811 22.9326 14.4477 22.8798 15.5197Z"
            fill="#EBB428" />
        <path opacity="0.01" fill-rule="evenodd" clip-rule="evenodd"
            d="M12.96 13.28C12.96 13.1733 12.96 13.0666 12.96 12.96C13.1733 12.96 13.3866 12.96 13.6 12.96C13.4906 13.2282 13.2773 13.3349 12.96 13.28Z"
            fill="#8DC63E" />
        <path opacity="0.02" fill-rule="evenodd" clip-rule="evenodd"
            d="M11.6797 13.9199C11.7863 13.9199 11.893 13.9199 11.9997 13.9199C11.9404 14.1344 11.8337 14.1344 11.6797 13.9199Z"
            fill="#9FCC38" />
        <path opacity="0.02" fill-rule="evenodd" clip-rule="evenodd"
            d="M11.3604 14.2402C11.467 14.2402 11.5737 14.2402 11.6804 14.2402C11.6211 14.4547 11.5144 14.4547 11.3604 14.2402Z"
            fill="#C4D82C" />
        <path opacity="0.02" fill-rule="evenodd" clip-rule="evenodd"
            d="M11.04 14.5596C11.1467 14.5596 11.2534 14.5596 11.36 14.5596C11.3007 14.774 11.1941 14.774 11.04 14.5596Z"
            fill="#C4D82C" />
        <path opacity="0.012" fill-rule="evenodd" clip-rule="evenodd"
            d="M22.8799 15.5195C22.9865 15.5195 23.0932 15.5195 23.1999 15.5195C23.2758 15.9327 23.1692 16.2527 22.8799 16.4795C22.8799 16.1595 22.8799 15.8395 22.8799 15.5195Z"
            fill="#F7A463" />
        <path opacity="0.952" fill-rule="evenodd" clip-rule="evenodd"
            d="M22.5602 15.5202C22.5602 15.8402 22.5602 16.1602 22.5602 16.4802C22.1336 16.6936 22.1336 16.9069 22.5602 17.1202C22.1543 18.4857 21.301 19.4457 20.0002 20.0002C19.8936 19.5736 19.7869 19.5736 19.6802 20.0002C19.3629 19.9453 19.1496 20.052 19.0402 20.3202C18.7229 20.2653 18.5096 20.372 18.4002 20.6402C16.9799 20.9922 16.8199 21.3122 17.9202 21.6002C18.1416 21.9 18.0882 22.1133 17.7602 22.2402C17.6536 21.8136 17.5469 21.8136 17.4402 22.2402C17.1202 22.4536 16.8002 22.6669 16.4802 22.8802C15.9237 22.0026 15.177 21.3626 14.2402 20.9602C14.3469 20.7469 14.4536 20.5336 14.5602 20.3202C16.0536 19.0402 17.4402 17.6536 18.7202 16.1602C19.4607 15.5275 20.2073 14.8875 20.9602 14.2402C21.4996 14.6744 22.033 15.1011 22.5602 15.5202Z"
            fill="#F69A56" />
        <path opacity="0.012" fill-rule="evenodd" clip-rule="evenodd"
            d="M22.5596 16.4805C22.6662 16.4805 22.7729 16.4805 22.8796 16.4805C22.9345 16.7978 22.8278 17.0111 22.5596 17.1205C22.5596 16.9071 22.5596 16.6938 22.5596 16.4805Z"
            fill="#F7A560" />
        <path opacity="0.969" fill-rule="evenodd" clip-rule="evenodd"
            d="M13.6002 15.2002C13.853 15.6143 14.173 15.9877 14.5602 16.3202C13.8614 16.9655 13.2214 17.6588 12.6402 18.4002C12.9744 19.3745 13.6144 20.0145 14.5602 20.3202C14.4536 20.5335 14.3469 20.7469 14.2402 20.9602C13.2601 22.2613 12.0868 23.3279 10.7202 24.1602C10.6136 23.7335 10.5069 23.7335 10.4002 24.1602C10.2936 24.1602 10.1869 24.1602 10.0802 24.1602C8.7155 21.9635 7.4355 19.7235 6.24023 17.4402C6.34689 17.4402 6.45358 17.4402 6.56023 17.4402C6.66689 17.8669 6.77358 17.8669 6.88023 17.4402C7.301 17.7524 7.72766 18.0724 8.16023 18.4002C8.59281 18.0724 9.01947 17.7524 9.44023 17.4402C9.66615 17.7785 9.77281 17.6718 9.76023 17.1202C9.97358 17.1202 10.0802 17.0135 10.0802 16.8002C10.2936 16.8002 10.4002 16.6935 10.4002 16.4802C10.6136 16.4802 10.7202 16.3735 10.7202 16.1602C11.0375 16.2151 11.2509 16.1084 11.3602 15.8402C12.1069 15.6269 12.8536 15.4135 13.6002 15.2002Z"
            fill="#F9CF1F" />
        <path opacity="0.999" fill-rule="evenodd" clip-rule="evenodd"
            d="M16.7996 13.9199C17.202 14.8567 17.842 15.6033 18.7196 16.1599C17.4396 17.6533 16.053 19.0399 14.5596 20.3199C13.6139 20.0142 12.9739 19.3742 12.6396 18.3999C13.2208 17.6585 13.8608 16.9652 14.5596 16.3199C14.1724 15.9874 13.8524 15.6141 13.5996 15.1999C14.5724 14.6092 15.6391 14.1826 16.7996 13.9199Z"
            fill="#FDC043" />
        <path opacity="0.012" fill-rule="evenodd" clip-rule="evenodd"
            d="M19.6797 20C19.7863 20 19.893 20 19.9997 20C19.9404 20.2144 19.8337 20.2144 19.6797 20Z"
            fill="#F5964D" />
        <path opacity="0.01" fill-rule="evenodd" clip-rule="evenodd"
            d="M19.04 20.6403C19.04 20.5337 19.04 20.427 19.04 20.3203C19.2534 20.3203 19.4667 20.3203 19.68 20.3203C19.5707 20.5885 19.3574 20.6952 19.04 20.6403Z"
            fill="#F6944E" />
        <path opacity="0.01" fill-rule="evenodd" clip-rule="evenodd"
            d="M18.4004 20.6396C18.6137 20.6396 18.827 20.6396 19.0404 20.6396C18.827 21.0663 18.6137 21.0663 18.4004 20.6396Z"
            fill="#F6934C" />
        <path opacity="0.998" fill-rule="evenodd" clip-rule="evenodd"
            d="M17.4396 22.2402C17.5462 22.2402 17.6529 22.2402 17.7596 22.2402C17.8555 23.2446 18.2821 23.778 19.0396 23.8402C18.6214 24.277 18.6214 24.7037 19.0396 25.1202C18.2883 25.8179 17.4883 26.4579 16.6396 27.0402C15.7826 26.5558 15.0892 25.9158 14.5596 25.1202C15.1996 24.3736 15.8396 23.6269 16.4796 22.8802C16.7996 22.6669 17.1196 22.4536 17.4396 22.2402Z"
            fill="#E02028" />
        <path opacity="0.833" fill-rule="evenodd" clip-rule="evenodd"
            d="M14.2401 20.96C15.1768 21.3623 15.9235 22.0023 16.4801 22.88C15.8401 23.6266 15.2001 24.3733 14.5601 25.12C13.8134 25.6533 13.1734 26.2933 12.6401 27.04C12.5334 27.04 12.4267 27.04 12.3201 27.04C12.2134 27.04 12.1067 27.04 12.0001 27.04C11.2849 26.1468 10.6449 25.1868 10.0801 24.16C10.1867 24.16 10.2934 24.16 10.4001 24.16C10.5067 24.16 10.6134 24.16 10.7201 24.16C12.0867 23.3277 13.26 22.261 14.2401 20.96Z"
            fill="#F06145" />
        <path opacity="0.977" fill-rule="evenodd" clip-rule="evenodd"
            d="M14.56 25.1201C15.0897 25.9156 15.783 26.5556 16.64 27.0401C17.4887 26.4578 18.2887 25.8178 19.04 25.1201C19.1765 25.9233 19.3899 26.6699 19.68 27.3601C19.7657 27.8718 19.659 28.2985 19.36 28.6401C19.2533 27.3601 19.1467 27.3601 19.04 28.6401C18.7718 28.7495 18.6651 28.9628 18.72 29.2801C18.6133 29.2801 18.5067 29.2801 18.4 29.2801C17.8793 28.5986 17.2927 27.9586 16.64 27.3601C16.0533 27.9468 15.4667 28.5335 14.88 29.1201C14.4578 29.1825 14.0312 29.1292 13.6 28.9601C13.6 29.0668 13.6 29.1735 13.6 29.2801C13.6 29.3868 13.6 29.4935 13.6 29.6001C12.9075 28.8571 12.3742 28.0037 12 27.0401C12.1067 27.0401 12.2133 27.0401 12.32 27.0401C12.4267 27.4668 12.5333 27.4668 12.64 27.0401C13.1733 26.2935 13.8133 25.6535 14.56 25.1201Z"
            fill="#C12033" />
        <path opacity="0.01" fill-rule="evenodd" clip-rule="evenodd"
            d="M19.68 27.3598C19.6287 26.816 19.6821 26.2827 19.84 25.7598C20.0894 26.3636 20.0361 26.8969 19.68 27.3598Z"
            fill="#B02025" />
        <path opacity="0.953" fill-rule="evenodd" clip-rule="evenodd"
            d="M18.3996 29.2804C18.3996 29.4937 18.3996 29.707 18.3996 29.9204C18.1863 29.9204 18.0796 30.027 18.0796 30.2404C17.8663 30.2404 17.7596 30.347 17.7596 30.5604C17.5463 30.5604 17.4396 30.667 17.4396 30.8804C17.2263 30.8804 17.1196 30.987 17.1196 31.2004C16.9063 31.2004 16.7996 31.307 16.7996 31.5204C16.4823 31.4654 16.269 31.5721 16.1596 31.8404C15.6263 31.8404 15.093 31.8404 14.5596 31.8404C14.157 31.1405 13.837 30.3939 13.5996 29.6004C14.0263 29.4937 14.0263 29.387 13.5996 29.2804C13.5996 29.1737 13.5996 29.067 13.5996 28.9604C14.0308 29.1294 14.4574 29.1828 14.8796 29.1204C15.4663 28.5337 16.053 27.947 16.6396 27.3604C17.2923 27.9588 17.8789 28.5988 18.3996 29.2804Z"
            fill="#911A1E" />
        <path opacity="0.012" fill-rule="evenodd" clip-rule="evenodd"
            d="M19.04 28.6396C19.1467 28.6396 19.2534 28.6396 19.36 28.6396C19.415 28.957 19.3083 29.1703 19.04 29.2796C19.04 29.0663 19.04 28.853 19.04 28.6396Z"
            fill="#AB1F24" />
        <path opacity="0.01" fill-rule="evenodd" clip-rule="evenodd"
            d="M18.7197 29.2803C18.8264 29.2803 18.9331 29.2803 19.0397 29.2803C19.0946 29.5976 18.988 29.8109 18.7197 29.9203C18.7197 29.7069 18.7197 29.4936 18.7197 29.2803Z"
            fill="#981C20" />
        <path opacity="0.012" fill-rule="evenodd" clip-rule="evenodd"
            d="M18.4004 29.9199C18.507 29.9199 18.6137 29.9199 18.7204 29.9199C18.6611 30.1344 18.5544 30.1344 18.4004 29.9199Z"
            fill="#971C1F" />
        <path opacity="0.01" fill-rule="evenodd" clip-rule="evenodd"
            d="M18.0798 30.2402C18.1864 30.2402 18.2931 30.2402 18.3998 30.2402C18.3998 30.6669 18.1864 30.8802 17.7598 30.8802C17.7598 30.7736 17.7598 30.6669 17.7598 30.5602C17.9731 30.5602 18.0798 30.4536 18.0798 30.2402Z"
            fill="#971C1F" />
        <path opacity="0.012" fill-rule="evenodd" clip-rule="evenodd"
            d="M17.4404 30.8799C17.5471 30.8799 17.6538 30.8799 17.7604 30.8799C17.7011 31.0943 17.5944 31.0943 17.4404 30.8799Z"
            fill="#971C1F" />
        <path opacity="0.012" fill-rule="evenodd" clip-rule="evenodd"
            d="M17.1201 31.2002C17.2268 31.2002 17.3335 31.2002 17.4401 31.2002C17.3808 31.4146 17.2741 31.4146 17.1201 31.2002Z"
            fill="#971C1F" />
        <path opacity="0.012" fill-rule="evenodd" clip-rule="evenodd"
            d="M16.7998 31.5195C16.9065 31.5195 17.0131 31.5195 17.1198 31.5195C17.1198 31.6262 17.1198 31.7329 17.1198 31.8395C17.0131 31.7329 16.9065 31.6262 16.7998 31.5195Z"
            fill="#941B1E" />
    </g>
    <defs>
        <clipPath id="clip0_5414_789">
            <rect width="32" height="32" fill="white" />
        </clipPath>
    </defs>
</svg>