<?xml version="1.0" encoding="UTF-8"?>
<!DOCTYPE svg PUBLIC "-//W3C//DTD SVG 1.1//EN" "http://www.w3.org/Graphics/SVG/1.1/DTD/svg11.dtd">
<svg xmlns="http://www.w3.org/2000/svg" version="1.1" width="512px" height="512px"
    style="shape-rendering:geometricPrecision; text-rendering:geometricPrecision; image-rendering:optimizeQuality; fill-rule:evenodd; clip-rule:evenodd"
    xmlns:xlink="http://www.w3.org/1999/xlink">
    <g>
        <path style="opacity:1" fill="#fefeff"
            d="M -0.5,-0.5 C 170.167,-0.5 340.833,-0.5 511.5,-0.5C 511.5,170.167 511.5,340.833 511.5,511.5C 340.833,511.5 170.167,511.5 -0.5,511.5C -0.5,340.833 -0.5,170.167 -0.5,-0.5 Z" />
    </g>
    <g>
        <path style="opacity:1" fill="#126dff"
            d="M 278.5,93.5 C 277.48,94.9538 276.313,95.2871 275,94.5C 274.683,96.3008 274.016,96.6341 273,95.5C 271.513,96.2529 271.346,97.0862 272.5,98C 271.551,98.6172 270.718,98.4506 270,97.5C 266.904,100.713 263.404,102.546 259.5,103C 259.07,103.92 258.736,104.753 258.5,105.5C 256.737,105.694 254.903,105.694 253,105.5C 251.513,106.253 251.346,107.086 252.5,108C 251.551,108.617 250.718,108.451 250,107.5C 249.683,109.301 249.016,109.634 248,108.5C 246.519,109.471 245.685,110.804 245.5,112.5C 210.648,115.924 181.982,130.924 159.5,157.5C 156.057,157.45 152.89,158.784 150,161.5C 147.53,161.837 145.196,163.17 143,165.5C 141.442,164.655 140.442,165.321 140,167.5C 139.586,167.043 139.086,166.709 138.5,166.5C 136.441,167.567 134.608,168.9 133,170.5C 132.667,170.167 132.333,169.833 132,169.5C 130.833,170.667 129.667,171.833 128.5,173C 127.563,173.692 126.897,173.525 126.5,172.5C 139.05,146.114 158.05,125.614 183.5,111C 213.183,94.3862 244.85,88.5529 278.5,93.5 Z" />
    </g>
    <g>
        <path style="opacity:1" fill="#127aff"
            d="M 308.5,101.5 C 314.287,103.894 319.954,106.56 325.5,109.5C 325.649,110.552 325.483,111.552 325,112.5C 322.646,113.736 320.646,115.403 319,117.5C 318.667,117.167 318.333,116.833 318,116.5C 314.396,118.383 310.896,120.383 307.5,122.5C 297.821,119.272 288.154,116.272 278.5,113.5C 280.773,112.265 282.606,112.598 284,114.5C 285.097,112.947 286.43,111.614 288,110.5C 288.805,112.901 289.638,112.734 290.5,110C 291.993,108.632 293.493,108.465 295,109.5C 296.487,108.747 296.654,107.914 295.5,107C 299.104,106.286 301.937,104.453 304,101.5C 305.333,102.167 306.667,102.833 308,103.5C 308.464,102.906 308.631,102.239 308.5,101.5 Z" />
    </g>
    <g>
        <path style="opacity:1" fill="#0e74ff"
            d="M 278.5,93.5 C 288.76,95.2314 298.76,97.8981 308.5,101.5C 308.631,102.239 308.464,102.906 308,103.5C 306.667,102.833 305.333,102.167 304,101.5C 301.937,104.453 299.104,106.286 295.5,107C 296.654,107.914 296.487,108.747 295,109.5C 293.493,108.465 291.993,108.632 290.5,110C 289.638,112.734 288.805,112.901 288,110.5C 286.43,111.614 285.097,112.947 284,114.5C 282.606,112.598 280.773,112.265 278.5,113.5C 267.503,111.788 256.503,111.454 245.5,112.5C 245.685,110.804 246.519,109.471 248,108.5C 249.016,109.634 249.683,109.301 250,107.5C 250.718,108.451 251.551,108.617 252.5,108C 251.346,107.086 251.513,106.253 253,105.5C 254.903,105.694 256.737,105.694 258.5,105.5C 258.736,104.753 259.07,103.92 259.5,103C 263.404,102.546 266.904,100.713 270,97.5C 270.718,98.4506 271.551,98.6172 272.5,98C 271.346,97.0862 271.513,96.2529 273,95.5C 274.016,96.6341 274.683,96.3008 275,94.5C 276.313,95.2871 277.48,94.9538 278.5,93.5 Z" />
    </g>
    <g>
        <path style="opacity:1" fill="#1281ff"
            d="M 325.5,109.5 C 333.382,113.718 340.715,118.718 347.5,124.5C 347.423,125.75 346.756,126.583 345.5,127C 345.833,127.333 346.167,127.667 346.5,128C 345.24,129.113 344.073,129.28 343,128.5C 342.581,129.672 341.915,130.672 341,131.5C 338.46,130.124 336.46,130.79 335,133.5C 333.442,132.655 332.442,133.321 332,135.5C 331.023,134.226 330.189,134.226 329.5,135.5C 322.131,131.152 314.798,126.819 307.5,122.5C 310.896,120.383 314.396,118.383 318,116.5C 318.333,116.833 318.667,117.167 319,117.5C 320.646,115.403 322.646,113.736 325,112.5C 325.483,111.552 325.649,110.552 325.5,109.5 Z" />
    </g>
    <g>
        <path style="opacity:1" fill="#1079ff"
            d="M 281.5,134.5 C 278.738,137.476 275.738,139.643 272.5,141C 271.167,141 269.833,141 268.5,141C 268.833,141.333 269.167,141.667 269.5,142C 267.809,143.405 265.976,144.572 264,145.5C 263.667,145.167 263.333,144.833 263,144.5C 260.274,147.099 257.441,149.432 254.5,151.5C 226.27,152.613 203.604,164.28 186.5,186.5C 185.883,186.389 185.383,186.056 185,185.5C 179.861,188.21 174.861,191.21 170,194.5C 169.667,194.167 169.333,193.833 169,193.5C 168.641,196.544 167.974,196.878 167,194.5C 166.667,195.167 166.333,195.833 166,196.5C 164.16,195.167 163.66,195.334 164.5,197C 164,197.5 163.5,198 163,198.5C 161.065,198.456 159.232,198.456 157.5,198.5C 170.688,166.817 193.688,145.65 226.5,135C 244.835,130.548 263.168,130.382 281.5,134.5 Z" />
    </g>
    <g>
        <path style="opacity:1" fill="#1080ff"
            d="M 281.5,134.5 C 291.459,136.597 300.792,140.264 309.5,145.5C 307.186,147.583 304.686,149.583 302,151.5C 301.667,151.167 301.333,150.833 301,150.5C 297.062,153.346 292.895,155.679 288.5,157.5C 277.575,153.346 266.242,151.346 254.5,151.5C 257.441,149.432 260.274,147.099 263,144.5C 263.333,144.833 263.667,145.167 264,145.5C 265.976,144.572 267.809,143.405 269.5,142C 269.167,141.667 268.833,141.333 268.5,141C 269.833,141 271.167,141 272.5,141C 275.738,139.643 278.738,137.476 281.5,134.5 Z" />
    </g>
    <g>
        <path style="opacity:1" fill="#108bff"
            d="M 347.5,124.5 C 357.517,133.185 366.517,142.852 374.5,153.5C 374.719,154.675 374.386,155.675 373.5,156.5C 367.78,158.228 363.28,160.895 360,164.5C 359.221,161.903 358.721,161.903 358.5,164.5C 349.833,153.833 340.167,144.167 329.5,135.5C 330.189,134.226 331.023,134.226 332,135.5C 332.442,133.321 333.442,132.655 335,133.5C 336.46,130.79 338.46,130.124 341,131.5C 341.915,130.672 342.581,129.672 343,128.5C 344.073,129.28 345.24,129.113 346.5,128C 346.167,127.667 345.833,127.333 345.5,127C 346.756,126.583 347.423,125.75 347.5,124.5 Z" />
    </g>
    <g>
        <path style="opacity:1" fill="#0f8bff"
            d="M 309.5,145.5 C 321.367,152.364 331.367,161.364 339.5,172.5C 338.254,172.977 337.088,174.31 336,176.5C 335.586,176.043 335.086,175.709 334.5,175.5C 332.432,177.1 330.266,178.766 328,180.5C 327.667,179.833 327.333,179.167 327,178.5C 326.333,179.833 325.667,181.167 325,182.5C 324.23,181.402 323.397,181.402 322.5,182.5C 313.021,171.749 301.688,163.416 288.5,157.5C 292.895,155.679 297.062,153.346 301,150.5C 301.333,150.833 301.667,151.167 302,151.5C 304.686,149.583 307.186,147.583 309.5,145.5 Z" />
    </g>
    <g>
        <path style="opacity:1" fill="#1187ff"
            d="M 301.5,191.5 C 301.321,193.606 300.321,195.272 298.5,196.5C 297.914,196.291 297.414,195.957 297,195.5C 295.757,197.833 294.091,198.5 292,197.5C 290.438,198.931 288.938,200.431 287.5,202C 286.552,202.483 285.552,202.649 284.5,202.5C 260.765,186.97 239.265,189.637 220,210.5C 216.762,214.309 214.596,218.642 213.5,223.5C 206.81,222.664 200.144,221.664 193.5,220.5C 200.134,197.697 214.801,182.531 237.5,175C 262,168.957 283.333,174.457 301.5,191.5 Z" />
    </g>
    <g>
        <path style="opacity:1" fill="#0f97ff"
            d="M 374.5,153.5 C 382.928,165.023 389.262,177.69 393.5,191.5C 390.386,194.383 386.553,197.05 382,199.5C 381.667,199.167 381.333,198.833 381,198.5C 380.311,199.357 379.478,200.023 378.5,200.5C 377.473,199.209 376.473,199.209 375.5,200.5C 371.423,187.682 365.756,175.682 358.5,164.5C 358.721,161.903 359.221,161.903 360,164.5C 363.28,160.895 367.78,158.228 373.5,156.5C 374.386,155.675 374.719,154.675 374.5,153.5 Z" />
    </g>
    <g>
        <path style="opacity:1" fill="#1380ff"
            d="M 186.5,186.5 C 179.404,195.695 174.737,206.029 172.5,217.5C 165.412,217.406 158.412,216.572 151.5,215C 152.829,209.172 154.829,203.672 157.5,198.5C 159.232,198.456 161.065,198.456 163,198.5C 163.5,198 164,197.5 164.5,197C 163.66,195.334 164.16,195.167 166,196.5C 166.333,195.833 166.667,195.167 167,194.5C 167.974,196.878 168.641,196.544 169,193.5C 169.333,193.833 169.667,194.167 170,194.5C 174.861,191.21 179.861,188.21 185,185.5C 185.383,186.056 185.883,186.389 186.5,186.5 Z" />
    </g>
    <g>
        <path style="opacity:1" fill="#1276ff"
            d="M 159.5,157.5 C 146.284,173.603 137.617,191.936 133.5,212.5C 126.776,212.326 120.109,211.659 113.5,210.5C 115.463,196.944 119.796,184.277 126.5,172.5C 126.897,173.525 127.563,173.692 128.5,173C 129.667,171.833 130.833,170.667 132,169.5C 132.333,169.833 132.667,170.167 133,170.5C 134.608,168.9 136.441,167.567 138.5,166.5C 139.086,166.709 139.586,167.043 140,167.5C 140.442,165.321 141.442,164.655 143,165.5C 145.196,163.17 147.53,161.837 150,161.5C 152.89,158.784 156.057,157.45 159.5,157.5 Z" />
    </g>
    <g>
        <path style="opacity:1" fill="#1298ff"
            d="M 339.5,172.5 C 349.624,184.989 356.624,199.156 360.5,215C 353.522,216.081 346.522,216.914 339.5,217.5C 336.69,204.379 331.023,192.712 322.5,182.5C 323.397,181.402 324.23,181.402 325,182.5C 325.667,181.167 326.333,179.833 327,178.5C 327.333,179.167 327.667,179.833 328,180.5C 330.266,178.766 332.432,177.1 334.5,175.5C 335.086,175.709 335.586,176.043 336,176.5C 337.088,174.31 338.254,172.977 339.5,172.5 Z" />
    </g>
    <g>
        <path style="opacity:1" fill="#1094ff"
            d="M 301.5,191.5 C 309.983,199.458 315.649,209.125 318.5,220.5C 311.868,221.663 305.202,222.163 298.5,222C 295.172,214.5 290.506,208 284.5,202.5C 285.552,202.649 286.552,202.483 287.5,202C 288.938,200.431 290.438,198.931 292,197.5C 294.091,198.5 295.757,197.833 297,195.5C 297.414,195.957 297.914,196.291 298.5,196.5C 300.321,195.272 301.321,193.606 301.5,191.5 Z" />
    </g>
    <g>
        <path style="opacity:1" fill="#0d9fff"
            d="M 393.5,191.5 C 396.238,197.448 397.905,203.781 398.5,210.5C 391.833,211.167 385.167,211.833 378.5,212.5C 378.122,208.322 377.122,204.322 375.5,200.5C 376.473,199.209 377.473,199.209 378.5,200.5C 379.478,200.023 380.311,199.357 381,198.5C 381.333,198.833 381.667,199.167 382,199.5C 386.553,197.05 390.386,194.383 393.5,191.5 Z" />
    </g>
    <g>
        <path style="opacity:1" fill="#0fa6ff"
            d="M 313.5,278.5 C 312.778,278.082 312.278,277.416 312,276.5C 308.325,281.339 303.658,283.672 298,283.5C 296.676,285.5 295.009,287.167 293,288.5C 292.667,288.167 292.333,287.833 292,287.5C 291.641,290.544 290.974,290.878 290,288.5C 289.399,290.359 288.566,290.692 287.5,289.5C 292.426,278.222 296.259,266.556 299,254.5C 299.725,253.941 300.558,253.608 301.5,253.5C 307.413,254.958 313.413,255.625 319.5,255.5C 317.968,263.295 315.968,270.962 313.5,278.5 Z" />
    </g>
    <g>
        <path style="opacity:1" fill="#1493ff"
            d="M 176.5,279.5 C 175.763,282.361 174.096,283.361 171.5,282.5C 170.201,283.09 169.368,284.09 169,285.5C 168.586,285.043 168.086,284.709 167.5,284.5C 166.481,285.687 165.314,286.687 164,287.5C 162.984,286.366 162.317,286.699 162,288.5C 161.014,287.829 159.847,287.829 158.5,288.5C 155.541,279.33 153.207,269.997 151.5,260.5C 157.737,260.449 163.904,259.783 170,258.5C 170.5,258.833 171,259.167 171.5,259.5C 173.169,266.175 174.835,272.842 176.5,279.5 Z" />
    </g>
    <g>
        <path style="opacity:1" fill="#1298ff"
            d="M 220.5,280.5 C 219.307,282.054 218.14,283.721 217,285.5C 216.586,285.043 216.086,284.709 215.5,284.5C 214.481,285.687 213.314,286.687 212,287.5C 210.984,286.366 210.317,286.699 210,288.5C 209.667,288.167 209.333,287.833 209,287.5C 207.512,289.16 205.679,290.16 203.5,290.5C 198.152,279.467 194.486,267.8 192.5,255.5C 198.371,255.204 204.204,254.537 210,253.5C 210.833,253.833 211.667,254.167 212.5,254.5C 214.569,263.371 217.235,272.038 220.5,280.5 Z" />
    </g>
    <g>
        <path style="opacity:1" fill="#0eb1ff"
            d="M 344.5,309.5 C 343.504,309.586 342.671,309.252 342,308.5C 339.078,310.221 336.078,312.555 333,315.5C 332.586,315.043 332.086,314.709 331.5,314.5C 328.807,315.851 326.307,317.518 324,319.5C 322.984,318.366 322.317,318.699 322,320.5C 320.667,320.5 319.333,320.5 318,320.5C 317.02,321.981 315.853,323.315 314.5,324.5C 313.893,324.376 313.56,324.043 313.5,323.5C 326.493,303.507 335.66,281.841 341,258.5C 347.489,259.542 353.989,260.709 360.5,262C 357.24,278.546 351.906,294.379 344.5,309.5 Z" />
    </g>
    <g>
        <path style="opacity:1" fill="#11adff"
            d="M 313.5,278.5 C 306.926,298.823 295.926,316.323 280.5,331C 259.418,345.53 240.752,343.03 224.5,323.5C 228.82,322.015 233.153,319.682 237.5,316.5C 239.529,317.629 239.863,317.129 238.5,315C 239.784,314.316 240.951,314.483 242,315.5C 242.464,314.906 242.631,314.239 242.5,313.5C 249.807,320.367 257.807,321.2 266.5,316C 274.826,308.179 281.826,299.346 287.5,289.5C 288.566,290.692 289.399,290.359 290,288.5C 290.974,290.878 291.641,290.544 292,287.5C 292.333,287.833 292.667,288.167 293,288.5C 295.009,287.167 296.676,285.5 298,283.5C 303.658,283.672 308.325,281.339 312,276.5C 312.278,277.416 312.778,278.082 313.5,278.5 Z" />
    </g>
    <g>
        <path style="opacity:1" fill="#1291ff"
            d="M 141.5,297.5 C 141.316,300.173 140.149,300.84 138,299.5C 137.676,301.569 136.842,301.902 135.5,300.5C 134.481,301.687 133.314,302.687 132,303.5C 130.984,302.366 130.317,302.699 130,304.5C 129.086,303.346 128.253,303.513 127.5,305C 127.833,305.333 128.167,305.667 128.5,306C 127.016,306.662 125.683,307.496 124.5,308.5C 119.259,294.873 115.259,280.873 112.5,266.5C 118.471,265.337 124.471,264.337 130.5,263.5C 131.442,263.608 132.275,263.941 133,264.5C 135.055,275.723 137.889,286.723 141.5,297.5 Z" />
    </g>
    <g>
        <path style="opacity:1" fill="#0fb7ff"
            d="M 387.5,308.5 C 385.54,309.138 383.707,309.138 382,308.5C 381.155,311.412 379.488,312.412 377,311.5C 376.25,312.126 375.416,312.626 374.5,313C 374.833,313.333 375.167,313.667 375.5,314C 370.782,315.719 366.282,317.885 362,320.5C 361.235,320.43 360.735,320.097 360.5,319.5C 369.219,301.678 375.552,283.011 379.5,263.5C 385.742,264.891 392.075,265.558 398.5,265.5C 396.554,280.283 392.888,294.616 387.5,308.5 Z" />
    </g>
    <g>
        <path style="opacity:1" fill="#0d9dff"
            d="M 176.5,279.5 C 181.39,292.617 187.39,305.284 194.5,317.5C 193.841,320.408 193.007,320.742 192,318.5C 189.687,320.58 187.687,322.246 186,323.5C 185,323.5 184,323.5 183,323.5C 181.867,327.188 179.701,328.188 176.5,326.5C 169.424,314.348 163.424,301.682 158.5,288.5C 159.847,287.829 161.014,287.829 162,288.5C 162.317,286.699 162.984,286.366 164,287.5C 165.314,286.687 166.481,285.687 167.5,284.5C 168.086,284.709 168.586,285.043 169,285.5C 169.368,284.09 170.201,283.09 171.5,282.5C 174.096,283.361 175.763,282.361 176.5,279.5 Z" />
    </g>
    <g>
        <path style="opacity:1" fill="#0fa4ff"
            d="M 220.5,280.5 C 225.589,293.015 232.922,304.015 242.5,313.5C 242.631,314.239 242.464,314.906 242,315.5C 240.951,314.483 239.784,314.316 238.5,315C 239.863,317.129 239.529,317.629 237.5,316.5C 233.153,319.682 228.82,322.015 224.5,323.5C 215.256,314.032 208.256,303.032 203.5,290.5C 205.679,290.16 207.512,289.16 209,287.5C 209.333,287.833 209.667,288.167 210,288.5C 210.317,286.699 210.984,286.366 212,287.5C 213.314,286.687 214.481,285.687 215.5,284.5C 216.086,284.709 216.586,285.043 217,285.5C 218.14,283.721 219.307,282.054 220.5,280.5 Z" />
    </g>
    <g>
        <path style="opacity:1" fill="#0ebaff"
            d="M 344.5,309.5 C 332.749,336.414 314.416,357.581 289.5,373C 266.086,384.808 243.086,384.308 220.5,371.5C 221.847,370.829 223.014,370.829 224,371.5C 224.915,370.672 225.581,369.672 226,368.5C 226.333,369.167 226.667,369.833 227,370.5C 228.385,369.449 229.385,368.116 230,366.5C 230.333,367.167 230.667,367.833 231,368.5C 231.708,365.732 233.208,364.899 235.5,366C 235.167,365.667 234.833,365.333 234.5,365C 237.05,363.558 239.716,362.392 242.5,361.5C 243.298,361.043 243.631,360.376 243.5,359.5C 256.816,362.674 269.483,360.841 281.5,354C 294.314,346.017 304.981,335.851 313.5,323.5C 313.56,324.043 313.893,324.376 314.5,324.5C 315.853,323.315 317.02,321.981 318,320.5C 319.333,320.5 320.667,320.5 322,320.5C 322.317,318.699 322.984,318.366 324,319.5C 326.307,317.518 328.807,315.851 331.5,314.5C 332.086,314.709 332.586,315.043 333,315.5C 336.078,312.555 339.078,310.221 342,308.5C 342.671,309.252 343.504,309.586 344.5,309.5 Z" />
    </g>
    <g>
        <path style="opacity:1" fill="#0ebfff"
            d="M 387.5,308.5 C 383.597,318.547 378.93,328.214 373.5,337.5C 372.504,337.414 371.671,337.748 371,338.5C 370.667,337.833 370.333,337.167 370,336.5C 367.991,337.833 366.324,339.5 365,341.5C 364.667,340.833 364.333,340.167 364,339.5C 362.647,340.685 361.48,342.019 360.5,343.5C 357.749,343.955 355.582,345.289 354,347.5C 351.771,347.051 350.104,347.051 349,347.5C 348.424,350.124 347.09,350.791 345,349.5C 344.073,352.706 342.907,353.039 341.5,350.5C 348.238,340.426 354.571,330.092 360.5,319.5C 360.735,320.097 361.235,320.43 362,320.5C 366.282,317.885 370.782,315.719 375.5,314C 375.167,313.667 374.833,313.333 374.5,313C 375.416,312.626 376.25,312.126 377,311.5C 379.488,312.412 381.155,311.412 382,308.5C 383.707,309.138 385.54,309.138 387.5,308.5 Z" />
    </g>
    <g>
        <path style="opacity:1" fill="#0e9eff"
            d="M 141.5,297.5 C 146.679,310.193 152.679,322.526 159.5,334.5C 159.316,338.599 157.816,339.599 155,337.5C 154.082,339.632 152.749,340.299 151,339.5C 149.92,342.483 148.087,343.817 145.5,343.5C 144.304,343.846 144.304,344.346 145.5,345C 144.906,345.464 144.239,345.631 143.5,345.5C 135.876,333.921 129.543,321.588 124.5,308.5C 125.683,307.496 127.016,306.662 128.5,306C 128.167,305.667 127.833,305.333 127.5,305C 128.253,303.513 129.086,303.346 130,304.5C 130.317,302.699 130.984,302.366 132,303.5C 133.314,302.687 134.481,301.687 135.5,300.5C 136.842,301.902 137.676,301.569 138,299.5C 140.149,300.84 141.316,300.173 141.5,297.5 Z" />
    </g>
    <g>
        <path style="opacity:1" fill="#11aaff"
            d="M 194.5,317.5 C 202.075,328.411 210.742,338.411 220.5,347.5C 219.811,348.774 218.977,348.774 218,347.5C 217.676,349.569 216.842,349.902 215.5,348.5C 213.932,350.2 212.099,351.534 210,352.5C 209.086,351.346 208.253,351.513 207.5,353C 208.167,353.333 208.833,353.667 209.5,354C 206.729,355.779 204.063,356.946 201.5,357.5C 191.978,348.121 183.645,337.788 176.5,326.5C 179.701,328.188 181.867,327.188 183,323.5C 184,323.5 185,323.5 186,323.5C 187.687,322.246 189.687,320.58 192,318.5C 193.007,320.742 193.841,320.408 194.5,317.5 Z" />
    </g>
    <g>
        <path style="opacity:1" fill="#0ec5ff"
            d="M 373.5,337.5 C 366.969,349.352 359.303,360.352 350.5,370.5C 348.857,370.48 347.524,371.147 346.5,372.5C 345.914,372.291 345.414,371.957 345,371.5C 343.757,373.833 342.091,374.5 340,373.5C 337.55,376.05 334.883,378.383 332,380.5C 331.586,380.043 331.086,379.709 330.5,379.5C 328.199,379.836 326.032,381.169 324,383.5C 322.984,382.366 322.317,382.699 322,384.5C 321.667,384.167 321.333,383.833 321,383.5C 320.097,384.701 318.931,385.535 317.5,386C 318.654,386.914 318.487,387.747 317,388.5C 316.667,388.167 316.333,387.833 316,387.5C 313.239,388.796 310.405,389.963 307.5,391C 306.874,391.75 306.374,392.584 306,393.5C 304.475,393.888 302.808,393.888 301,393.5C 299.513,394.253 299.346,395.086 300.5,396C 299.551,396.617 298.718,396.451 298,395.5C 297.676,397.569 296.842,397.902 295.5,396.5C 294.416,397.665 293.583,398.998 293,400.5C 291.602,399.949 290.268,399.616 289,399.5C 286.904,400.715 287.071,401.549 289.5,402C 285.762,402.693 282.595,404.527 280,407.5C 279.586,407.043 279.086,406.709 278.5,406.5C 277.147,407.685 275.98,409.019 275,410.5C 274.667,410.167 274.333,409.833 274,409.5C 271.455,410.522 268.955,411.688 266.5,413C 267.696,413.654 267.696,414.154 266.5,414.5C 265.167,414.5 263.833,414.5 262.5,414.5C 261.52,415.981 260.353,417.315 259,418.5C 258.667,417.833 258.333,417.167 258,416.5C 256.508,417.92 255.008,419.254 253.5,420.5C 242.266,420.919 231.599,418.919 221.5,414.5C 222.721,413.972 223.887,413.305 225,412.5C 226.049,413.517 227.216,413.684 228.5,413C 227.833,412.667 227.167,412.333 226.5,412C 230.014,411.169 233.181,409.669 236,407.5C 236.333,407.833 236.667,408.167 237,408.5C 239.077,405.575 241.91,403.742 245.5,403C 246.252,402.329 246.586,401.496 246.5,400.5C 264.181,401.746 280.847,398.246 296.5,390C 304.851,384.825 312.851,379.158 320.5,373C 328.1,365.905 335.1,358.405 341.5,350.5C 342.907,353.039 344.073,352.706 345,349.5C 347.09,350.791 348.424,350.124 349,347.5C 350.104,347.051 351.771,347.051 354,347.5C 355.582,345.289 357.749,343.955 360.5,343.5C 361.48,342.019 362.647,340.685 364,339.5C 364.333,340.167 364.667,340.833 365,341.5C 366.324,339.5 367.991,337.833 370,336.5C 370.333,337.167 370.667,337.833 371,338.5C 371.671,337.748 372.504,337.414 373.5,337.5 Z" />
    </g>
    <g>
        <path style="opacity:1" fill="#0bb2ff"
            d="M 220.5,347.5 C 227.437,352.803 235.104,356.803 243.5,359.5C 243.631,360.376 243.298,361.043 242.5,361.5C 239.716,362.392 237.05,363.558 234.5,365C 234.833,365.333 235.167,365.667 235.5,366C 233.208,364.899 231.708,365.732 231,368.5C 230.667,367.833 230.333,367.167 230,366.5C 229.385,368.116 228.385,369.449 227,370.5C 226.667,369.833 226.333,369.167 226,368.5C 225.581,369.672 224.915,370.672 224,371.5C 223.014,370.829 221.847,370.829 220.5,371.5C 213.58,367.573 207.247,362.907 201.5,357.5C 204.063,356.946 206.729,355.779 209.5,354C 208.833,353.667 208.167,353.333 207.5,353C 208.253,351.513 209.086,351.346 210,352.5C 212.099,351.534 213.932,350.2 215.5,348.5C 216.842,349.902 217.676,349.569 218,347.5C 218.977,348.774 219.811,348.774 220.5,347.5 Z" />
    </g>
    <g>
        <path style="opacity:1" fill="#0caaff"
            d="M 159.5,334.5 C 166.704,345.381 174.704,355.714 183.5,365.5C 182.531,366.309 181.698,367.309 181,368.5C 180.667,368.167 180.333,367.833 180,367.5C 179.641,370.544 178.974,370.878 178,368.5C 174.633,371.165 171.3,373.498 168,375.5C 167.329,374.748 166.496,374.414 165.5,374.5C 156.638,365.974 149.305,356.308 143.5,345.5C 144.239,345.631 144.906,345.464 145.5,345C 144.304,344.346 144.304,343.846 145.5,343.5C 148.087,343.817 149.92,342.483 151,339.5C 152.749,340.299 154.082,339.632 155,337.5C 157.816,339.599 159.316,338.599 159.5,334.5 Z" />
    </g>
    <g>
        <path style="opacity:1" fill="#0eb2ff"
            d="M 183.5,365.5 C 188.895,370.901 194.562,375.901 200.5,380.5C 200.688,382.103 200.188,383.437 199,384.5C 198.667,383.833 198.333,383.167 198,382.5C 196.009,385.167 193.676,387.5 191,389.5C 190.667,389.167 190.333,388.833 190,388.5C 187.421,389.157 184.921,390.157 182.5,391.5C 175.812,386.812 170.146,381.146 165.5,374.5C 166.496,374.414 167.329,374.748 168,375.5C 171.3,373.498 174.633,371.165 178,368.5C 178.974,370.878 179.641,370.544 180,367.5C 180.333,367.833 180.667,368.167 181,368.5C 181.698,367.309 182.531,366.309 183.5,365.5 Z" />
    </g>
    <g>
        <path style="opacity:1" fill="#0dc9ff"
            d="M 350.5,370.5 C 329.611,397.454 302.277,413.954 268.5,420C 263.511,420.499 258.511,420.666 253.5,420.5C 255.008,419.254 256.508,417.92 258,416.5C 258.333,417.167 258.667,417.833 259,418.5C 260.353,417.315 261.52,415.981 262.5,414.5C 263.833,414.5 265.167,414.5 266.5,414.5C 267.696,414.154 267.696,413.654 266.5,413C 268.955,411.688 271.455,410.522 274,409.5C 274.333,409.833 274.667,410.167 275,410.5C 275.98,409.019 277.147,407.685 278.5,406.5C 279.086,406.709 279.586,407.043 280,407.5C 282.595,404.527 285.762,402.693 289.5,402C 287.071,401.549 286.904,400.715 289,399.5C 290.268,399.616 291.602,399.949 293,400.5C 293.583,398.998 294.416,397.665 295.5,396.5C 296.842,397.902 297.676,397.569 298,395.5C 298.718,396.451 299.551,396.617 300.5,396C 299.346,395.086 299.513,394.253 301,393.5C 302.808,393.888 304.475,393.888 306,393.5C 306.374,392.584 306.874,391.75 307.5,391C 310.405,389.963 313.239,388.796 316,387.5C 316.333,387.833 316.667,388.167 317,388.5C 318.487,387.747 318.654,386.914 317.5,386C 318.931,385.535 320.097,384.701 321,383.5C 321.333,383.833 321.667,384.167 322,384.5C 322.317,382.699 322.984,382.366 324,383.5C 326.032,381.169 328.199,379.836 330.5,379.5C 331.086,379.709 331.586,380.043 332,380.5C 334.883,378.383 337.55,376.05 340,373.5C 342.091,374.5 343.757,373.833 345,371.5C 345.414,371.957 345.914,372.291 346.5,372.5C 347.524,371.147 348.857,370.48 350.5,370.5 Z" />
    </g>
    <g>
        <path style="opacity:1" fill="#09bdff"
            d="M 200.5,380.5 C 214.278,390.866 229.612,397.533 246.5,400.5C 246.586,401.496 246.252,402.329 245.5,403C 241.91,403.742 239.077,405.575 237,408.5C 236.667,408.167 236.333,407.833 236,407.5C 233.181,409.669 230.014,411.169 226.5,412C 227.167,412.333 227.833,412.667 228.5,413C 227.216,413.684 226.049,413.517 225,412.5C 223.887,413.305 222.721,413.972 221.5,414.5C 206.711,409.615 193.711,401.949 182.5,391.5C 184.921,390.157 187.421,389.157 190,388.5C 190.333,388.833 190.667,389.167 191,389.5C 193.676,387.5 196.009,385.167 198,382.5C 198.333,383.167 198.667,383.833 199,384.5C 200.188,383.437 200.688,382.103 200.5,380.5 Z" />
    </g>
</svg>