<svg width="32" height="32" viewBox="0 0 32 32" fill="none" xmlns="http://www.w3.org/2000/svg">
    <rect width="32" height="32" fill="#FAFAFA" />
    <path fill-rule="evenodd" clip-rule="evenodd"
        d="M29.5028 0.167741C28.6141 0.163092 27.7303 0.218555 26.8511 0.333798C27.3566 0.0955069 27.9089 -0.0152527 28.5084 0.00168501C28.8723 0.0025153 29.2038 0.0578121 29.5028 0.167741Z"
        fill="#FFD1C9" />
    <path fill-rule="evenodd" clip-rule="evenodd"
        d="M29.5029 0.16775C29.713 0.84526 29.8236 1.56495 29.8343 2.32648C29.8328 3.05597 29.7223 3.7202 29.5029 4.31916C29.5029 3.04601 29.5029 1.77302 29.5029 0.499863C28.6172 0.472298 27.7334 0.500029 26.8512 0.582891C25.9716 0.831976 25.0876 1.0256 24.1995 1.16409C24.9963 0.686344 25.8801 0.409528 26.8512 0.333807C27.7304 0.218563 28.6142 0.163101 29.5029 0.16775Z"
        fill="#F59B99" />
    <path fill-rule="evenodd" clip-rule="evenodd"
        d="M24.1995 1.16407C23.8534 1.28048 23.5219 1.44653 23.2051 1.66224C23.1908 1.49685 23.2462 1.35852 23.3708 1.2471C23.6416 1.16507 23.9179 1.1375 24.1995 1.16407Z"
        fill="#FCBAB1" />
    <path fill-rule="evenodd" clip-rule="evenodd"
        d="M22.7079 1.66211C22.4752 2.13985 22.0886 2.41667 21.5478 2.49239C21.1465 2.781 20.7045 3.00235 20.2219 3.15662C20.4235 2.83264 20.6996 2.58356 21.0506 2.40936C21.6313 2.20113 22.1837 1.95204 22.7079 1.66211Z"
        fill="#FDC5C0" />
    <path fill-rule="evenodd" clip-rule="evenodd"
        d="M21.5478 2.49268C21.2956 2.91263 21.0193 3.32777 20.7192 3.7381C20.1807 3.7386 19.7387 3.93239 19.3933 4.3193C19.4319 4.05992 19.5425 3.83856 19.7248 3.65507C20.0049 3.59595 20.1706 3.4299 20.222 3.1569C20.7046 3.00264 21.1466 2.78128 21.5478 2.49268Z"
        fill="#EA6D62" />
    <path fill-rule="evenodd" clip-rule="evenodd"
        d="M19.7247 3.65479C19.5424 3.83828 19.4318 4.05963 19.3932 4.31901C19.2827 4.31901 19.1723 4.31901 19.0618 4.31901C19.117 3.9316 19.338 3.71008 19.7247 3.65479Z"
        fill="#F6B9B1" />
    <path fill-rule="evenodd" clip-rule="evenodd"
        d="M18.896 4.48535C18.2153 5.35333 17.4972 6.18361 16.7415 6.9762C16.9304 6.59759 17.1238 6.21001 17.3215 5.8138C17.7758 5.27462 18.3007 4.83175 18.896 4.48535Z"
        fill="#F9A7A5" />
    <path fill-rule="evenodd" clip-rule="evenodd"
        d="M29.5028 4.65137C28.6914 4.97451 27.8075 5.08527 26.8511 4.98348C27.699 4.76661 28.5828 4.65585 29.5028 4.65137Z"
        fill="#FFD4D4" />
    <path fill-rule="evenodd" clip-rule="evenodd"
        d="M26.8512 4.9834C26.4893 5.32963 26.0473 5.49568 25.5254 5.48157C25.9052 5.18815 26.3471 5.02209 26.8512 4.9834Z"
        fill="#FFC2BB" />
    <path fill-rule="evenodd" clip-rule="evenodd"
        d="M25.5252 5.48145C24.5897 5.88247 23.7057 6.38064 22.8735 6.97595C23.5206 6.1093 24.4046 5.61114 25.5252 5.48145Z"
        fill="#F9A6A1" />
    <path fill-rule="evenodd" clip-rule="evenodd"
        d="M29.5028 4.31935C29.5028 4.43011 29.5028 4.54071 29.5028 4.65147C28.5828 4.65595 27.699 4.76671 26.8511 4.98358C26.3469 5.02227 25.9051 5.18833 25.5253 5.48175C24.4046 5.61144 23.5206 6.10961 22.8735 6.97626C22.763 6.97626 22.6526 6.97626 22.5421 6.97626C22.2111 7.30555 21.8797 7.63766 21.5477 7.97259C21.5477 8.02789 21.5477 8.08335 21.5477 8.13865C21.1024 8.33194 20.7157 8.63632 20.3876 9.05196C20.2305 9.13217 20.0647 9.15973 19.8904 9.13499C19.7576 9.75521 19.5919 10.364 19.3932 10.9616C19.3932 11.0724 19.3932 11.183 19.3932 11.2937C19.104 11.5483 18.9383 11.8804 18.896 12.2901C18.6399 12.4113 18.5019 12.6326 18.4817 12.9543C18.3134 13.6086 18.2306 14.2728 18.2331 14.947C18.2331 15.8325 18.2331 16.7183 18.2331 17.6039C18.0755 17.8395 18.0203 18.1162 18.0673 18.4342C17.7828 18.9896 17.6722 19.5984 17.7359 20.2608C17.5783 20.4964 17.5231 20.7731 17.5701 21.0911C17.0736 21.5887 16.7973 22.1977 16.7415 22.9177C16.6863 22.9177 16.6309 22.9177 16.5758 22.9177C16.3192 22.971 16.2087 23.137 16.2443 23.4158C16.2443 23.5266 16.2443 23.6372 16.2443 23.748C15.9072 23.5668 15.6861 23.2901 15.5814 22.9177C15.4052 21.9414 15.0737 21.0558 14.587 20.2608C14.3238 18.9605 14.2409 17.6321 14.3384 16.2754C14.557 16.979 14.7227 17.6987 14.8356 18.4342C15.3086 18.9513 15.502 19.5602 15.4156 20.2608C15.5814 20.2608 15.7471 20.2608 15.9128 20.2608C15.8497 19.5173 15.684 18.7978 15.4156 18.102C15.4708 17.936 15.5262 17.7699 15.5814 17.6039C15.8063 18.4946 16.0273 19.3803 16.2443 20.2608C16.5206 20.2608 16.7967 20.2608 17.0729 20.2608C17.0729 19.3752 17.0729 18.4894 17.0729 17.6039C16.9072 17.6039 16.7415 17.6039 16.5758 17.6039C16.6175 18.0721 16.5347 18.5149 16.3272 18.9323C16.2443 17.605 16.2168 16.2766 16.2443 14.947C14.3661 14.947 12.4877 14.947 10.6094 14.947C10.6094 15.113 10.6094 15.2791 10.6094 15.4451C11.6038 15.4451 12.5982 15.4451 13.5926 15.4451C13.5926 15.6665 13.5926 15.888 13.5926 16.1094C12.3219 16.1094 11.0514 16.1094 9.78076 16.1094C9.78076 14.8362 9.78076 13.5632 9.78076 12.2901C11.3221 12.1652 12.869 12.0822 14.4212 12.041C14.8139 11.276 15.0901 10.4732 15.2499 9.63316C15.3951 9.65491 15.5056 9.59962 15.5814 9.4671C15.8537 8.97807 16.0746 8.4799 16.2443 7.97259C16.1656 7.50548 16.3313 7.17337 16.7415 6.97626C17.4972 6.18367 18.2153 5.35339 18.896 4.48541C18.896 4.37465 18.9512 4.31935 19.0617 4.31935C19.1723 4.31935 19.2826 4.31935 19.3932 4.31935C19.7386 3.93244 20.1806 3.73865 20.719 3.73816C21.0192 3.32783 21.2955 2.91269 21.5477 2.49273C22.0885 2.41701 22.4751 2.14019 22.7078 1.66245C22.8735 1.66245 23.0393 1.66245 23.205 1.66245C23.5219 1.44674 23.8534 1.28069 24.1994 1.16428C25.0876 1.02579 25.9716 0.832168 26.8511 0.583083C27.7333 0.500221 28.6171 0.472489 29.5028 0.500055C29.5028 1.77321 29.5028 3.0462 29.5028 4.31935Z"
        fill="#FB5E55" />
    <path fill-rule="evenodd" clip-rule="evenodd"
        d="M22.542 6.97607C22.4273 7.54648 22.0958 7.87859 21.5476 7.97241C21.8796 7.63748 22.211 7.30536 22.542 6.97607Z"
        fill="#F5A199" />
    <path fill-rule="evenodd" clip-rule="evenodd"
        d="M16.2444 7.97217C16.0747 8.47947 15.8538 8.97764 15.5815 9.46668C15.5057 9.59919 15.3952 9.65449 15.25 9.63273C15.4154 8.96768 15.7469 8.41404 16.2444 7.97217Z"
        fill="#E97D75" />
    <path fill-rule="evenodd" clip-rule="evenodd"
        d="M21.5478 8.30469C21.2913 8.83989 20.9046 9.28276 20.3877 9.63314C20.6605 9.08349 21.0473 8.64062 21.5478 8.30469Z"
        fill="#FFD4CE" />
    <path fill-rule="evenodd" clip-rule="evenodd"
        d="M21.5478 8.13867C21.5478 8.19397 21.5478 8.24943 21.5478 8.30473C21.0473 8.64066 20.6605 9.08353 20.3877 9.63318C20.3325 9.63318 20.2772 9.63318 20.222 9.63318C19.951 10.0726 19.6747 10.5154 19.3933 10.9616C19.592 10.364 19.7578 9.75523 19.8905 9.13501C20.0649 9.15975 20.2306 9.13219 20.3877 9.05198C20.7158 8.63634 21.1025 8.33196 21.5478 8.13867Z"
        fill="#F1706A" />
    <path fill-rule="evenodd" clip-rule="evenodd"
        d="M20.222 9.63281C20.0725 10.1783 19.9067 10.7319 19.7248 11.2934C19.6838 11.4948 19.5733 11.6056 19.3933 11.6255C19.3933 11.5147 19.3933 11.4041 19.3933 11.2934C19.3933 11.1826 19.3933 11.072 19.3933 10.9613C19.6747 10.5151 19.951 10.0722 20.222 9.63281Z"
        fill="#FDDAD0" />
    <path fill-rule="evenodd" clip-rule="evenodd"
        d="M14.2555 11.7915C12.7931 11.9293 11.3015 12.0124 9.78073 12.0406C9.68859 12.1042 9.6334 12.1872 9.615 12.2897C9.4506 13.5876 9.39524 14.916 9.44927 16.275C9.2847 14.8107 9.22935 13.3162 9.28354 11.7915C10.9409 11.7915 12.5982 11.7915 14.2555 11.7915Z"
        fill="#FDC7C5" />
    <path fill-rule="evenodd" clip-rule="evenodd"
        d="M15.2499 9.63281C15.0901 10.4729 14.8138 11.2756 14.4212 12.0406C12.869 12.0818 11.322 12.1648 9.78072 12.2897C9.72553 12.2897 9.67018 12.2897 9.61499 12.2897C9.63339 12.1873 9.68858 12.1042 9.78072 12.0406C11.3015 12.0124 12.7931 11.9294 14.2555 11.7915C14.5869 11.072 14.9184 10.3523 15.2499 9.63281Z"
        fill="#F99490" />
    <path fill-rule="evenodd" clip-rule="evenodd"
        d="M19.3932 11.2935C19.3932 11.4042 19.3932 11.5148 19.3932 11.6256C19.3067 11.911 19.1409 12.1324 18.896 12.2898C18.9383 11.8801 19.104 11.548 19.3932 11.2935Z"
        fill="#FD9CA3" />
    <path fill-rule="evenodd" clip-rule="evenodd"
        d="M18.8961 12.29C18.8961 12.4561 18.8961 12.6222 18.8961 12.7882C18.6205 13.11 18.5101 13.4976 18.5647 13.9506C18.5647 14.0614 18.5647 14.172 18.5647 14.2827C18.4541 14.5041 18.3438 14.7256 18.2332 14.9469C18.2307 14.2728 18.3136 13.6085 18.4818 12.9543C18.502 12.6326 18.6401 12.4113 18.8961 12.29Z"
        fill="#F87D7A" />
    <path fill-rule="evenodd" clip-rule="evenodd"
        d="M18.8962 12.7881C18.9111 13.2285 18.8007 13.6159 18.5646 13.9505C18.51 13.4975 18.6204 13.1099 18.8962 12.7881Z"
        fill="#FFBEB5" />
    <path fill-rule="evenodd" clip-rule="evenodd"
        d="M9.61495 12.29C9.67014 12.29 9.72549 12.29 9.78068 12.29C9.78068 13.5632 9.78068 14.8362 9.78068 16.1093C11.0513 16.1093 12.3218 16.1093 13.5925 16.1093C13.5925 15.888 13.5925 15.6665 13.5925 15.4451C12.5981 15.4451 11.6037 15.4451 10.6093 15.4451C10.6093 15.2791 10.6093 15.113 10.6093 14.9469C12.4876 14.9469 14.366 14.9469 16.2442 14.9469C16.2167 16.2766 16.2442 17.605 16.3271 18.9323C16.5346 18.5148 16.6174 18.0721 16.5757 17.6038C16.7414 17.6038 16.9071 17.6038 17.0729 17.6038C17.0729 18.4894 17.0729 19.3752 17.0729 20.2607C16.7966 20.2607 16.5205 20.2607 16.2442 20.2607C16.0273 19.3803 15.8062 18.4946 15.5813 17.6038C15.5261 17.7699 15.4707 17.936 15.4156 18.102C15.6839 18.7978 15.8496 19.5173 15.9127 20.2607C15.747 20.2607 15.5813 20.2607 15.4156 20.2607C15.5019 19.5602 15.3085 18.9512 14.8355 18.4341C14.7226 17.6987 14.5569 16.979 14.3383 16.2754C14.2408 17.6321 14.3237 18.9605 14.5869 20.2607C14.5203 19.7664 14.3545 19.3237 14.0897 18.9323C14.0897 18.4894 14.0897 18.0467 14.0897 17.6038C14.1341 17.1689 14.0789 16.7538 13.924 16.3584C12.4887 16.2754 11.0523 16.2478 9.61495 16.2754C9.55976 16.2754 9.50441 16.2754 9.44922 16.2754C9.39519 14.9164 9.45055 13.5879 9.61495 12.29Z"
        fill="#F9625C" />
    <path fill-rule="evenodd" clip-rule="evenodd"
        d="M9.61499 16.275C11.0524 16.2474 12.4888 16.275 13.924 16.358C14.079 16.7534 14.1342 17.1685 14.0897 17.6034C14.0346 17.6034 13.9792 17.6034 13.924 17.6034C13.9729 17.2323 13.9175 16.9002 13.7583 16.6071C12.3772 16.4963 10.996 16.3857 9.61499 16.275Z"
        fill="#F58D87" />
    <path fill-rule="evenodd" clip-rule="evenodd"
        d="M18.5648 14.2827C18.5648 15.3898 18.5648 16.4967 18.5648 17.6038C18.5095 17.6038 18.4542 17.6038 18.399 17.6038C18.3437 17.6038 18.2884 17.6038 18.2332 17.6038C18.2332 16.7183 18.2332 15.8325 18.2332 14.9469C18.3437 14.7256 18.4542 14.5041 18.5648 14.2827Z"
        fill="#F8ACAB" />
    <path fill-rule="evenodd" clip-rule="evenodd"
        d="M9.44922 16.2754C9.50441 16.2754 9.55976 16.2754 9.61495 16.2754C10.996 16.3862 12.3772 16.4967 13.7582 16.6075C13.703 16.6075 13.6477 16.6075 13.5925 16.6075C12.145 16.7129 10.764 16.6022 9.44922 16.2754Z"
        fill="#FCBFBA" />
    <path fill-rule="evenodd" clip-rule="evenodd"
        d="M13.5925 16.6074C13.6477 16.6074 13.7031 16.6074 13.7583 16.6074C13.9177 16.9005 13.973 17.2326 13.9241 17.6038C13.8135 18.0466 13.7031 18.4893 13.5925 18.9322C13.5925 18.1572 13.5925 17.3824 13.5925 16.6074Z"
        fill="#FED395" />
    <path fill-rule="evenodd" clip-rule="evenodd"
        d="M18.5645 17.6035C18.7221 17.8391 18.7773 18.1158 18.7302 18.4338C19.1929 18.4258 19.4967 18.6472 19.6417 19.098C19.6921 19.7702 19.775 20.4344 19.8903 21.0907C19.7798 21.0907 19.6694 21.0907 19.5588 21.0907C19.02 20.0022 18.6886 18.8398 18.5645 17.6035Z"
        fill="#E3FBFA" />
    <path fill-rule="evenodd" clip-rule="evenodd"
        d="M18.2331 17.6035C18.2883 17.6035 18.3436 17.6035 18.3988 17.6035C18.3141 18.525 18.1484 19.4107 17.9016 20.2604C17.9102 19.6463 17.9656 19.0374 18.0673 18.4338C18.0203 18.1158 18.0755 17.8391 18.2331 17.6035Z"
        fill="#929D95" />
    <path fill-rule="evenodd" clip-rule="evenodd"
        d="M18.0676 18.4341C17.9658 19.0377 17.9104 19.6466 17.9018 20.2607C17.8465 20.2607 17.7912 20.2607 17.736 20.2607C17.6723 19.5983 17.7829 18.9895 18.0676 18.4341Z"
        fill="#C47978" />
    <path fill-rule="evenodd" clip-rule="evenodd"
        d="M13.5925 18.9321C13.3853 19.3483 13.275 19.7911 13.2611 20.2606C13.2059 20.2606 13.1505 20.2606 13.0953 20.2606C13.0163 19.6932 13.182 19.2503 13.5925 18.9321Z"
        fill="#FED5AD" />
    <path fill-rule="evenodd" clip-rule="evenodd"
        d="M14.0898 18.9321C14.3547 19.3235 14.5204 19.7662 14.587 20.2606C14.5517 20.7506 14.6623 21.1935 14.9185 21.589C14.6018 21.5767 14.4084 21.4107 14.3384 21.0909C14.2418 20.3715 14.159 19.652 14.0898 18.9321Z"
        fill="#FC935A" />
    <path fill-rule="evenodd" clip-rule="evenodd"
        d="M17.736 20.2607C17.7912 20.2607 17.8466 20.2607 17.9018 20.2607C17.9719 20.6395 17.8614 20.9163 17.5702 21.091C17.5231 20.773 17.5783 20.4964 17.736 20.2607Z"
        fill="#8CB0A9" />
    <path fill-rule="evenodd" clip-rule="evenodd"
        d="M13.9241 17.6035C13.9793 17.6035 14.0347 17.6035 14.0899 17.6035C14.0899 18.0464 14.0899 18.4891 14.0899 18.932C14.159 19.6518 14.2418 20.3713 14.3385 21.0907C14.4084 21.4105 14.6018 21.5766 14.9185 21.5889C14.9737 22.0317 15.0291 22.4744 15.0842 22.9173C15.25 22.9173 15.4157 22.9173 15.5814 22.9173C15.6862 23.2898 15.9073 23.5664 16.2444 23.7476C16.2444 23.9137 16.2444 24.0797 16.2444 24.2458C16.1892 24.2458 16.1338 24.2458 16.0786 24.2458C15.5899 24.5568 15.2584 24.9995 15.0842 25.5742C15.0291 25.5742 14.9737 25.5742 14.9185 25.5742C14.4147 26.0789 13.9728 26.6325 13.5927 27.2348C13.1977 27.4648 12.9214 27.7969 12.764 28.2311C12.5983 28.2311 12.4325 28.2311 12.2668 28.2311C12.2234 27.9857 12.2786 27.7643 12.4325 27.5669C12.7209 27.3451 12.9972 27.1235 13.2612 26.9027C13.0003 26.7149 12.7241 26.6871 12.4325 26.8196C12.21 27.414 11.8233 27.663 11.2724 27.5669C11.4938 27.0671 11.7148 26.5689 11.9353 26.0724C12.8976 26.5294 13.45 26.1973 13.5927 25.0761C13.5375 24.8547 13.4821 24.6332 13.4269 24.4118C13.2 24.7878 13.0343 25.1752 12.9297 25.5742C12.9567 25.1828 12.9292 24.7954 12.8469 24.4118C12.3198 25.3944 11.7398 25.4497 11.1067 24.5779C11.4549 24.1187 11.731 23.6206 11.9353 23.0834C12.3109 22.9482 12.6977 22.8652 13.0955 22.8343C12.7822 22.6553 12.6165 22.3785 12.5983 22.004C12.9751 21.4954 13.1961 20.9142 13.2612 20.2604C13.2751 19.791 13.3855 19.3481 13.5927 18.932C13.7032 18.4891 13.8136 18.0464 13.9241 17.6035Z"
        fill="#FBA358" />
    <path fill-rule="evenodd" clip-rule="evenodd"
        d="M14.587 20.2607C15.0737 21.0558 15.4052 21.9414 15.5814 22.9176C15.4156 22.9176 15.2499 22.9176 15.0842 22.9176C15.029 22.4748 14.9736 22.0321 14.9184 21.5892C14.6622 21.1936 14.5517 20.7508 14.587 20.2607Z"
        fill="#FA7855" />
    <path fill-rule="evenodd" clip-rule="evenodd"
        d="M17.5701 21.0908C17.5701 21.2016 17.5701 21.3122 17.5701 21.4229C17.3026 21.9032 17.0817 22.4013 16.9072 22.9174C16.852 22.9174 16.7966 22.9174 16.7415 22.9174C16.7973 22.1974 17.0736 21.5885 17.5701 21.0908Z"
        fill="#AE958B" />
    <path fill-rule="evenodd" clip-rule="evenodd"
        d="M19.5588 21.0908C19.6694 21.0908 19.7798 21.0908 19.8903 21.0908C20.0373 21.6787 20.2584 22.2321 20.5532 22.7514C20.0691 22.2966 19.7377 21.7431 19.5588 21.0908Z"
        fill="#A6E3E4" />
    <path fill-rule="evenodd" clip-rule="evenodd"
        d="M18.3989 17.6035C18.4541 17.6035 18.5094 17.6035 18.5646 17.6035C18.6888 18.8398 19.0202 20.0022 19.559 21.0907C19.7378 21.743 20.0693 22.2964 20.5534 22.7513C21.3688 23.7459 22.3078 24.6315 23.3708 25.4082C23.6269 25.5663 23.9032 25.6216 24.1995 25.5742C24.1995 25.7403 24.1995 25.9063 24.1995 26.0724C24.5354 26.0455 24.8669 26.0732 25.1939 26.1554C25.7174 26.5053 26.2698 26.7544 26.8512 26.9027C27.6911 27.1813 28.5751 27.2919 29.5029 27.2348C29.5029 28.7293 29.5029 30.2238 29.5029 31.7183C29.0609 31.7183 28.6191 31.7183 28.1771 31.7183C26.1821 31.5041 24.2486 31.0337 22.3764 30.3068C21.1969 29.5943 20.1474 28.7363 19.2276 27.733C18.2408 27.1574 17.495 26.3271 16.9902 25.2421C16.7225 25.095 16.4739 24.9289 16.2444 24.7439C16.2444 24.5779 16.2444 24.4118 16.2444 24.2458C16.2444 24.0797 16.2444 23.9137 16.2444 23.7476C16.2444 23.6368 16.2444 23.5263 16.2444 23.4155C16.5009 23.3622 16.6115 23.1961 16.5758 22.9173C16.631 22.9173 16.6864 22.9173 16.7416 22.9173C16.7968 22.9173 16.8521 22.9173 16.9073 22.9173C16.9073 23.3602 16.9073 23.8029 16.9073 24.2458C17.0817 24.221 17.2474 24.2486 17.4045 24.3288C17.8281 25.3356 18.1596 25.3079 18.3989 24.2458C18.5383 23.634 18.6211 23.0253 18.6475 22.4192C18.5369 22.1978 18.4266 22.1978 18.316 22.4192C18.2658 22.8157 18.1276 23.1755 17.9017 23.4985C17.7446 23.5787 17.5789 23.6063 17.4045 23.5815C17.4683 22.9464 17.634 22.3376 17.9017 21.7549C17.8608 21.5535 17.7502 21.4427 17.5702 21.4228C17.5702 21.3121 17.5702 21.2015 17.5702 21.0907C17.8613 20.916 17.9718 20.6392 17.9017 20.2604C18.1485 19.4107 18.3142 18.525 18.3989 17.6035Z"
        fill="#59CAC4" />
    <path fill-rule="evenodd" clip-rule="evenodd"
        d="M16.5759 22.9175C16.6116 23.1963 16.501 23.3623 16.2443 23.4156C16.2087 23.1368 16.3193 22.9708 16.5759 22.9175Z"
        fill="#CB707B" />
    <path fill-rule="evenodd" clip-rule="evenodd"
        d="M10.9408 23.5815C10.5678 24.0457 10.1258 24.4331 9.61499 24.7439C9.8558 24.1252 10.2976 23.7378 10.9408 23.5815Z"
        fill="#FDE2C8" />
    <path fill-rule="evenodd" clip-rule="evenodd"
        d="M13.0954 20.2607C13.1505 20.2607 13.2059 20.2607 13.2611 20.2607C13.196 20.9145 12.975 21.4957 12.5982 22.0043C12.6164 22.3788 12.7821 22.6556 13.0954 22.8346C12.6976 22.8655 12.3108 22.9485 11.9352 23.0837C11.7309 23.6209 11.4548 24.1191 11.1066 24.5782C11.7397 25.45 12.3197 25.3947 12.8468 24.4122C12.9291 24.7957 12.9566 25.1832 12.9296 25.5745C12.101 25.5745 11.2723 25.5745 10.4436 25.5745C10.4436 25.4085 10.4436 25.2424 10.4436 25.0764C10.6094 25.0764 10.7751 25.0764 10.9408 25.0764C10.9843 24.8309 10.9291 24.6096 10.7751 24.4122C10.4064 24.6795 10.0195 24.9009 9.61499 25.0764C9.61499 24.9656 9.61499 24.855 9.61499 24.7443C10.1258 24.4334 10.5678 24.046 10.9408 23.5819C11.8267 22.5812 12.5448 21.4741 13.0954 20.2607Z"
        fill="#F7A763" />
    <path fill-rule="evenodd" clip-rule="evenodd"
        d="M17.5702 21.4229C17.7501 21.4428 17.8607 21.5535 17.9016 21.755C17.634 22.3377 17.4682 22.9464 17.4044 23.5816C17.5788 23.6063 17.7445 23.5788 17.9016 23.4986C18.1275 23.1756 18.2657 22.8157 18.3159 22.4192C18.4265 22.1978 18.5369 22.1978 18.6474 22.4192C18.6211 23.0253 18.5382 23.6341 18.3988 24.2458C18.1595 25.3079 17.828 25.3356 17.4044 24.3288C17.2473 24.2486 17.0816 24.2211 16.9072 24.2458C16.9072 23.8029 16.9072 23.3602 16.9072 22.9174C17.0817 22.4013 17.3027 21.9031 17.5702 21.4229Z"
        fill="#4FCDBF" />
    <path fill-rule="evenodd" clip-rule="evenodd"
        d="M9.61499 24.7441C9.61499 24.8549 9.61499 24.9655 9.61499 25.0763C9.24293 25.1752 8.91146 25.3413 8.62061 25.5744C8.80921 25.145 9.14067 24.8682 9.61499 24.7441Z"
        fill="#FAD9B8" />
    <path fill-rule="evenodd" clip-rule="evenodd"
        d="M16.0786 24.2461C15.8274 24.7497 15.4959 25.1926 15.0842 25.5745C15.2584 24.9998 15.5899 24.5571 16.0786 24.2461Z"
        fill="#FCCD9B" />
    <path fill-rule="evenodd" clip-rule="evenodd"
        d="M8.28917 25.7402C7.85412 26.2811 7.30174 26.6962 6.63185 26.9857C5.4177 27.1745 4.2024 27.3681 2.98576 27.5669C2.78191 28.892 2.78191 30.2204 2.98576 31.5522C3.42777 31.5522 3.86961 31.5522 4.31161 31.5522C4.06898 31.6618 3.79271 31.7171 3.48296 31.7183C3.12812 31.6995 2.82417 31.5887 2.57143 31.3862C2.46089 30.0577 2.46089 28.7293 2.57143 27.4008C3.60477 27.1997 4.62667 27.0336 5.63746 26.9026C6.50805 26.5164 7.3919 26.1288 8.28917 25.7402Z"
        fill="#F8BE89" />
    <path fill-rule="evenodd" clip-rule="evenodd"
        d="M14.9184 25.5742C14.715 26.086 14.4664 26.5842 14.1726 27.0687C14.005 27.2077 13.8116 27.263 13.5925 27.2348C13.9727 26.6325 14.4146 26.0789 14.9184 25.5742Z"
        fill="#FDCEA7" />
    <path fill-rule="evenodd" clip-rule="evenodd"
        d="M16.0785 24.2461C16.1337 24.2461 16.1891 24.2461 16.2443 24.2461C16.2443 24.4122 16.2443 24.5782 16.2443 24.7443C15.754 25.463 15.174 26.1272 14.5041 26.7369C14.4489 26.903 14.3936 27.0691 14.3384 27.2351C13.7724 27.5046 13.2475 27.8367 12.7639 28.2314C12.9214 27.7972 13.1976 27.4651 13.5926 27.2351C13.8117 27.2633 14.0051 27.208 14.1726 27.0691C14.4665 26.5845 14.7151 26.0863 14.9184 25.5745C14.9736 25.5745 15.029 25.5745 15.0842 25.5745C15.4958 25.1926 15.8273 24.7497 16.0785 24.2461Z"
        fill="#FFF0DB" />
    <path fill-rule="evenodd" clip-rule="evenodd"
        d="M5.6375 26.9029C4.62671 27.0339 3.60481 27.1999 2.57147 27.401C2.46093 28.7295 2.46093 30.0579 2.57147 31.3864C2.82421 31.589 3.12816 31.6997 3.48299 31.7185C3.79275 31.7173 4.06902 31.662 4.31165 31.5524C4.75366 31.5524 5.1955 31.5524 5.6375 31.5524C5.41028 31.7661 5.10633 31.8767 4.72598 31.8845C3.98068 32.0023 3.23489 32.03 2.4886 31.9676C2.29785 30.403 2.27017 28.8255 2.40574 27.235C2.46772 27.0829 2.55059 26.9444 2.65434 26.8198C3.63447 26.8877 4.62886 26.9153 5.6375 26.9029Z"
        fill="#FFEED7" />
    <path fill-rule="evenodd" clip-rule="evenodd"
        d="M12.9298 25.5745C13.0344 25.1755 13.2001 24.7881 13.427 24.4121C13.4822 24.6335 13.5375 24.855 13.5927 25.0763C13.45 26.1975 12.8976 26.5297 11.9354 26.0727C11.7148 26.5692 11.4939 27.0674 11.2725 27.5672C11.8234 27.6633 12.21 27.4142 12.4326 26.8199C12.7241 26.6874 13.0004 26.7151 13.2612 26.903C12.9972 27.1238 12.721 27.3453 12.4326 27.5672C12.2786 27.7646 12.2234 27.986 12.2669 28.2314C12.0459 28.2314 11.8249 28.2314 11.6039 28.2314C11.6039 28.3975 11.6039 28.5635 11.6039 28.7296C11.383 28.7296 11.1619 28.7296 10.941 28.7296C10.941 28.8956 10.941 29.0617 10.941 29.2277C10.8878 29.4848 10.7221 29.5956 10.4438 29.5599C9.5951 29.7555 8.87699 30.1429 8.2893 30.7223C8.2893 30.7776 8.2893 30.833 8.2893 30.8883C8.17876 30.8883 8.06838 30.8883 7.95784 30.8883C7.13316 30.9018 6.35969 31.0678 5.6376 31.3865C5.6376 31.4418 5.6376 31.4972 5.6376 31.5525C5.19559 31.5525 4.75375 31.5525 4.31175 31.5525C3.86974 31.5525 3.4279 31.5525 2.9859 31.5525C2.78205 30.2208 2.78205 28.8923 2.9859 27.5672C4.20253 27.3684 5.41784 27.1748 6.63199 26.986C7.30187 26.6965 7.85426 26.2814 8.2893 25.7406C8.34598 25.6014 8.45636 25.5459 8.62077 25.5745C8.91162 25.3414 9.24309 25.1753 9.61515 25.0763C10.0197 24.9008 10.4065 24.6795 10.7753 24.4121C10.9292 24.6096 10.9844 24.8309 10.941 25.0763C10.7753 25.0763 10.6095 25.0763 10.4438 25.0763C10.4438 25.2424 10.4438 25.4084 10.4438 25.5745C11.2725 25.5745 12.1011 25.5745 12.9298 25.5745Z"
        fill="#FDA255" />
    <path fill-rule="evenodd" clip-rule="evenodd"
        d="M12.2668 28.2314C11.9612 28.7607 11.5192 29.0928 10.9409 29.2278C10.9409 29.0617 10.9409 28.8957 10.9409 28.7296C11.1618 28.7296 11.3829 28.7296 11.6038 28.7296C11.6038 28.5636 11.6038 28.3975 11.6038 28.2314C11.8248 28.2314 12.0458 28.2314 12.2668 28.2314Z"
        fill="#EBAD77" />
    <path fill-rule="evenodd" clip-rule="evenodd"
        d="M10.4438 29.5596C9.95773 29.9158 9.46053 30.2756 8.95223 30.6389C8.73794 30.7203 8.51686 30.748 8.28931 30.722C8.87699 30.1426 9.59511 29.7552 10.4438 29.5596Z"
        fill="#F6C191" />
    <path fill-rule="evenodd" clip-rule="evenodd"
        d="M12.2669 28.2314C12.4326 28.2314 12.5983 28.2314 12.7641 28.2314C12.5045 28.715 12.1731 29.1579 11.7697 29.5599C10.9084 29.8289 10.1351 30.244 9.44943 30.8053C9.06659 30.8878 8.67994 30.9154 8.28931 30.8883C8.28931 30.8331 8.28931 30.7776 8.28931 30.7223C8.51686 30.7484 8.73794 30.7206 8.95223 30.6393C9.46053 30.2759 9.95773 29.9161 10.4438 29.5599C10.7221 29.5956 10.8878 29.4848 10.941 29.2278C11.5192 29.0928 11.9613 28.7607 12.2669 28.2314Z"
        fill="#FFF4E0" />
    <path fill-rule="evenodd" clip-rule="evenodd"
        d="M7.95769 30.8882C7.25731 31.296 6.48384 31.4621 5.63745 31.3864C6.35954 31.0677 7.13301 30.9016 7.95769 30.8882Z"
        fill="#FCCA9C" />
    <path fill-rule="evenodd" clip-rule="evenodd"
        d="M26.8511 26.903C27.8403 26.8774 28.807 26.9882 29.7514 27.2351C29.8342 28.7839 29.8618 30.3339 29.8342 31.8847C29.2472 31.9367 28.6948 31.8812 28.1769 31.7186C28.6189 31.7186 29.0608 31.7186 29.5028 31.7186C29.5028 30.2241 29.5028 28.7296 29.5028 27.2351C28.575 27.2922 27.691 27.1817 26.8511 26.903Z"
        fill="#B3E6E0" />
</svg>