<svg width="32" height="32" viewBox="0 0 32 32" fill="none" xmlns="http://www.w3.org/2000/svg">
    <g clip-path="url(#clip0_5413_758)">
        <path fill-rule="evenodd" clip-rule="evenodd"
            d="M-0.0712891 -0.0712891C10.5954 -0.0712891 21.262 -0.0712891 31.9287 -0.0712891C31.9287 9.12575 31.9287 18.3227 31.9287 27.5198C31.4905 25.3111 31.0639 23.0829 30.6487 20.8354C28.3028 20.6701 25.9323 20.6465 23.5376 20.7643C22.9743 23.1307 22.5476 25.5247 22.2576 27.9465C23.9169 27.9465 25.5761 27.9465 27.2354 27.9465C28.8113 27.9906 30.3758 27.9432 31.9287 27.8043C31.9287 29.1791 31.9287 30.5538 31.9287 31.9287C21.262 31.9287 10.5954 31.9287 -0.0712891 31.9287C-0.0712891 30.6014 -0.0712891 29.2738 -0.0712891 27.9465C1.44575 27.9465 2.96278 27.9465 4.47982 27.9465C6.18649 27.9465 7.89316 27.9465 9.59982 27.9465C9.34937 25.5271 8.9227 23.1567 8.31982 20.8354C5.97435 20.6936 3.60397 20.6462 1.20871 20.6932C0.810246 22.8973 0.383579 25.078 -0.0712891 27.2354C-0.0712891 18.1332 -0.0712891 9.03093 -0.0712891 -0.0712891Z"
            fill="#FDFDFE" />
        <path fill-rule="evenodd" clip-rule="evenodd"
            d="M12.4447 2.77344C13.9455 2.88291 15.4625 3.02513 16.9958 3.2001C16.9958 5.14381 16.9958 7.08751 16.9958 9.03122C15.4803 9.11807 13.9632 9.18918 12.4447 9.24455C13.2112 9.31663 13.9697 9.43515 14.7202 9.6001C13.5504 9.78707 12.3889 9.78707 11.2358 9.6001C11.1698 9.68464 11.1461 9.77946 11.1647 9.88455C11.076 9.82526 11.0285 9.73044 11.0225 9.6001C11.4455 7.29457 11.9196 5.01901 12.4447 2.77344Z"
            fill="#1B73EF" />
        <path fill-rule="evenodd" clip-rule="evenodd"
            d="M12.4444 2.77344C14.8148 2.77344 17.185 2.77344 19.5555 2.77344C19.9696 5.18617 20.3489 7.60394 20.6932 10.0268C17.4924 10.0738 14.316 10.0264 11.1644 9.88455C11.1457 9.77946 11.1694 9.68464 11.2355 9.6001C12.3886 9.78707 13.5501 9.78707 14.7199 9.6001C13.9694 9.43515 13.2108 9.31663 12.4444 9.24455C13.9629 9.18918 15.4799 9.11807 16.9955 9.03122C16.9955 7.08751 16.9955 5.14381 16.9955 3.2001C15.4622 3.02513 13.9452 2.88291 12.4444 2.77344Z"
            fill="#0E5FD9" />
        <path fill-rule="evenodd" clip-rule="evenodd"
            d="M6.7555 11.7329C9.06579 11.6867 11.3651 11.7341 13.6533 11.8751C14.1108 14.1936 14.4901 16.5166 14.7911 18.844C13.2619 18.9844 11.7212 19.0318 10.1688 18.9863C11.6598 18.7765 13.1769 18.6106 14.7199 18.4885C13.2029 18.4411 11.6859 18.3936 10.1688 18.3463C11.3066 18.2989 12.4444 18.2514 13.5822 18.204C12.8251 18.1331 12.0666 18.1093 11.3066 18.1329C11.3066 16.2367 11.3066 14.3403 11.3066 12.444C11.5483 12.4668 11.7853 12.4431 12.0177 12.3729C11.7501 12.3447 11.5131 12.2736 11.3066 12.1596C10.5057 12.0183 8.94125 11.9472 6.61328 11.9463C6.69236 11.8918 6.73976 11.8207 6.7555 11.7329Z"
            fill="#0C5CD7" />
        <path fill-rule="evenodd" clip-rule="evenodd"
            d="M19.2714 11.7335C21.3104 11.7098 23.349 11.7335 25.3869 11.8046C25.5121 11.9975 25.5596 12.2108 25.5292 12.4446C24.6026 12.1379 23.6544 12.0905 22.6847 12.3024C22.8244 14.239 22.8717 16.1828 22.8269 18.1335C23.7289 18.1099 24.6296 18.1335 25.5292 18.2046C23.8233 18.3042 22.1167 18.3753 20.4092 18.4179C19.3651 18.4415 18.3222 18.4179 17.2803 18.3468C17.9325 18.3188 18.5725 18.2477 19.2003 18.1335C19.2714 16.1903 19.2951 14.2467 19.2714 12.3024C20.7885 12.255 20.7885 12.2076 19.2714 12.1602C19.2714 12.0179 19.2714 11.8757 19.2714 11.7335Z"
            fill="#146AE6" />
        <path fill-rule="evenodd" clip-rule="evenodd"
            d="M6.75585 11.7334C6.74011 11.8212 6.6927 11.8923 6.61363 11.9467C8.94159 11.9476 10.506 12.0188 11.307 12.1601C9.61156 12.0046 8.85303 12.052 9.03141 12.3023C9.03141 14.246 9.03141 16.1896 9.03141 18.1334C7.83934 18.1412 6.65416 18.2361 5.47585 18.4178C5.33273 18.5453 5.33273 18.64 5.47585 18.7023C6.06646 18.377 6.68276 18.3533 7.32474 18.6312C6.73634 18.7505 6.16745 18.8691 5.61807 18.9867C5.47585 18.9867 5.33363 18.9867 5.19141 18.9867C5.52994 16.7014 5.9329 14.4258 6.4003 12.1601C6.43379 11.9298 6.55232 11.7875 6.75585 11.7334Z"
            fill="#1E76F3" />
        <path fill-rule="evenodd" clip-rule="evenodd"
            d="M11.3066 12.1596C11.5131 12.2737 11.7501 12.3448 12.0177 12.373C11.7853 12.4432 11.5483 12.4669 11.3066 12.4441C11.3066 14.3403 11.3066 16.2367 11.3066 18.133C12.0666 18.1094 12.8251 18.1331 13.5822 18.2041C12.4444 18.2514 11.3066 18.2989 10.1688 18.3463C11.6859 18.3937 13.2029 18.4412 14.7199 18.4885C13.1769 18.6107 11.6598 18.7765 10.1688 18.9863C8.65179 18.9863 7.13477 18.9863 5.61772 18.9863C6.1671 18.8687 6.73599 18.7501 7.32439 18.6308C6.68241 18.3528 6.06611 18.3766 5.4755 18.7019C5.33238 18.6396 5.33238 18.5448 5.4755 18.4174C6.65381 18.2357 7.83899 18.1408 9.03106 18.133C9.03106 16.1892 9.03106 14.2456 9.03106 12.3019C8.85268 12.0516 9.61121 12.0042 11.3066 12.1596Z"
            fill="#1169E4" />
        <path fill-rule="evenodd" clip-rule="evenodd"
            d="M19.2707 11.7335C19.2707 11.8757 19.2707 12.0179 19.2707 12.1601C20.7878 12.2075 20.7878 12.255 19.2707 12.3024C19.2944 14.2467 19.2707 16.1903 19.1996 18.1335C18.5718 18.2477 17.9318 18.3188 17.2796 18.3468C18.3215 18.4179 19.3644 18.4415 20.4085 18.4179C19.328 18.6977 18.1902 18.7925 16.9951 18.7024C17.3517 16.4194 17.7546 14.1439 18.204 11.8757C18.5426 11.7427 18.8982 11.6953 19.2707 11.7335Z"
            fill="#237CF7" />
        <path fill-rule="evenodd" clip-rule="evenodd"
            d="M25.5285 12.444C25.9528 14.6157 26.332 16.7965 26.6662 18.9862C23.3916 19.0795 20.168 18.9848 16.9951 18.7017C18.1902 18.7919 19.328 18.697 20.4085 18.4173C22.116 18.3746 23.8226 18.3035 25.5285 18.204C24.6289 18.1328 23.7282 18.1092 22.8262 18.1328C22.871 16.1821 22.8237 14.2384 22.684 12.3017C23.6537 12.0899 24.6019 12.1373 25.5285 12.444Z"
            fill="#0E5DD8" />
        <path fill-rule="evenodd" clip-rule="evenodd"
            d="M8.31982 20.8355C6.28238 20.9214 4.24386 20.9925 2.20427 21.0489C8.27242 21.1437 8.27242 21.2384 2.20427 21.3333C3.72131 21.3807 5.23834 21.4282 6.75538 21.4755C5.99834 21.5465 5.23982 21.5702 4.47982 21.5466C4.47982 23.4429 4.47982 25.3393 4.47982 27.2355C5.99393 27.2598 5.99393 27.331 4.47982 27.4489C4.85909 27.4962 5.23834 27.5437 5.6176 27.5911C3.95834 27.6384 2.29909 27.6859 0.639822 27.7333C1.94485 27.7575 3.22485 27.8286 4.47982 27.9466C2.96278 27.9466 1.44575 27.9466 -0.0712891 27.9466C-0.0712891 27.7095 -0.0712891 27.4726 -0.0712891 27.2355C0.383579 25.0782 0.810246 22.8975 1.20871 20.6933C3.60397 20.6464 5.97435 20.6937 8.31982 20.8355Z"
            fill="#1C75F0" />
        <path fill-rule="evenodd" clip-rule="evenodd"
            d="M8.31965 20.8359C8.92253 23.1573 9.3492 25.5277 9.59965 27.947C7.89298 27.947 6.18632 27.947 4.47965 27.947C3.22468 27.829 1.94468 27.7579 0.639648 27.7337C2.29891 27.6864 3.95816 27.6389 5.61743 27.5915C5.23816 27.5441 4.85891 27.4966 4.47965 27.4493C5.99376 27.3314 5.99376 27.2603 4.47965 27.2359C4.47965 25.3397 4.47965 23.4433 4.47965 21.547C5.23964 21.5707 5.99817 21.5469 6.7552 21.4759C5.23816 21.4286 3.72113 21.3811 2.20409 21.3337C8.27225 21.2389 8.27225 21.1441 2.20409 21.0493C4.24369 20.993 6.2822 20.9218 8.31965 20.8359Z"
            fill="#0E60DA" />
        <path fill-rule="evenodd" clip-rule="evenodd"
            d="M19.4136 20.8351C19.4136 21.0247 19.4136 21.2144 19.4136 21.404C17.7524 21.2568 16.9464 21.3041 16.9958 21.5462C16.9958 23.49 16.9958 25.4336 16.9958 27.3773C15.4817 27.4016 15.4817 27.4727 16.9958 27.5906C18.1336 27.638 19.2713 27.6855 20.4091 27.7329C18.8673 27.757 17.3502 27.8282 15.858 27.9462C14.2462 27.9462 12.6343 27.9462 11.0225 27.9462C11.3789 25.5239 11.853 23.1298 12.4447 20.764C14.7921 20.6462 17.1151 20.6698 19.4136 20.8351Z"
            fill="#1970EB" />
        <path fill-rule="evenodd" clip-rule="evenodd"
            d="M19.413 20.8359C19.8012 22.175 20.1094 23.5498 20.3374 24.9604C20.5025 25.9517 20.6212 26.9472 20.693 27.947C19.0812 27.947 17.4692 27.947 15.8574 27.947C17.3496 27.829 18.8667 27.7579 20.4085 27.7337C19.2708 27.6864 18.133 27.6389 16.9952 27.5915C15.4811 27.4736 15.4811 27.4025 16.9952 27.3782C16.9952 25.4344 16.9952 23.4908 16.9952 21.547C16.9458 21.305 17.7518 21.2576 19.413 21.4048C19.413 21.2152 19.413 21.0255 19.413 20.8359Z"
            fill="#0C5CD6" />
        <path fill-rule="evenodd" clip-rule="evenodd"
            d="M30.6489 20.8351C28.3738 20.9062 26.0982 20.9773 23.8223 21.0484C29.8905 21.1433 29.8905 21.238 23.8223 21.3329C24.96 21.3802 26.0978 21.4277 27.2356 21.4751C27.0562 23.6246 27.0562 25.7816 27.2356 27.9462C25.5763 27.9462 23.9171 27.9462 22.2578 27.9462C22.5478 25.5244 22.9745 23.1304 23.5378 20.764C25.9326 20.6462 28.303 20.6698 30.6489 20.8351Z"
            fill="#1C74F0" />
        <path fill-rule="evenodd" clip-rule="evenodd"
            d="M30.6489 20.8359C31.0641 23.0835 31.4907 25.3117 31.9289 27.5204C31.9289 27.6152 31.9289 27.71 31.9289 27.8048C30.376 27.9438 28.8116 27.9911 27.2356 27.947C27.0563 25.7824 27.0563 23.6255 27.2356 21.4759C26.0978 21.4286 24.96 21.3811 23.8223 21.3337C29.8905 21.2389 29.8905 21.1441 23.8223 21.0493C26.0982 20.9782 28.3738 20.907 30.6489 20.8359Z"
            fill="#0D5FD9" />
    </g>
    <defs>
        <clipPath id="clip0_5413_758">
            <rect width="32" height="32" fill="white" />
        </clipPath>
    </defs>
</svg>