<svg width="32" height="32" viewBox="0 0 32 32" fill="none" xmlns="http://www.w3.org/2000/svg">
    <g clip-path="url(#clip0_5450_45)">
        <path opacity="0.981" fill-rule="evenodd" clip-rule="evenodd"
            d="M0.104799 4.72607C1.51578 4.72607 2.92685 4.72607 4.33783 4.72607C4.29196 9.4223 4.34118 14.1156 4.48549 18.8061C4.84835 20.2847 5.78356 21.1544 7.29111 21.4153C8.73299 21.689 10.0291 21.3773 11.1796 20.4799C11.5082 20.1172 11.7051 19.6905 11.7702 19.1999C11.8995 14.3778 11.9816 9.55319 12.0163 4.72607C13.3618 4.72607 14.7071 4.72607 16.0525 4.72607C16.0689 8.66467 16.0525 12.6031 16.0033 16.5415C15.9348 18.0219 15.8363 19.4989 15.7079 20.9722C15.6514 21.1684 15.5366 21.3161 15.3634 21.4153C13.2741 21.5576 11.2068 21.853 9.16152 22.3015C8.48206 22.4232 8.00629 22.8006 7.7341 23.4338C7.57049 24.8616 8.07914 25.961 9.25996 26.7322C9.5166 26.8128 9.77914 26.862 10.0475 26.8799C10.5168 26.8117 10.9761 26.7132 11.4257 26.5845C11.4424 26.7147 11.4096 26.8296 11.3273 26.9292C11.0656 27.0747 10.803 27.1896 10.5397 27.2738C9.94906 27.2738 9.3584 27.2738 8.76775 27.2738C8.45253 27.1397 8.1572 26.9591 7.88176 26.7322C7.28717 26.1701 6.66363 25.6449 6.01135 25.1568C4.87946 24.8453 3.79659 24.4187 2.76275 23.8768C0.929847 22.4216 0.0603033 20.5016 0.154021 18.1168C0.104799 13.6534 0.0883594 9.18979 0.104799 4.72607Z"
            fill="#146B9C" />
        <path opacity="0.989" fill-rule="evenodd" clip-rule="evenodd"
            d="M16.84 4.72607C20.2527 4.72607 23.6653 4.72607 27.0781 4.72607C29.7905 5.14165 31.4641 6.68421 32.0986 9.35377C32.0986 10.3712 32.0986 11.3886 32.0986 12.4061C31.3135 15.4938 29.3118 17.0857 26.0936 17.1815C24.3636 17.1986 22.6409 17.2478 20.9254 17.3292C20.8762 19.8233 20.8597 22.3176 20.8762 24.8122C19.4976 24.8287 18.1194 24.8122 16.7416 24.763C16.6709 24.5674 16.5725 24.3868 16.4463 24.2215C15.8424 24.5795 15.2518 24.9569 14.6743 25.3538C13.8944 25.8049 13.0741 26.1495 12.2132 26.3876C12.1965 26.2574 12.2293 26.1425 12.3117 26.043C13.871 25.3043 15.2 24.2705 16.2986 22.9415C16.4891 22.6588 16.6531 22.3634 16.7908 22.0553C16.8832 20.925 16.9325 19.7927 16.9385 18.6584C16.8809 14.6047 16.8152 10.5514 16.7416 6.49838C16.7745 5.90716 16.8072 5.31639 16.84 4.72607ZM20.9746 8.17223C22.6205 8.16857 24.2611 8.25061 25.8967 8.41838C27.6953 9.19203 28.2039 10.4884 27.4226 12.3076C26.7025 13.2573 25.7344 13.7004 24.5185 13.6368C23.3048 13.6861 22.0908 13.7025 20.8762 13.6861C20.8447 11.8406 20.8775 10.0027 20.9746 8.17223Z"
            fill="#146B9C" />
        <path opacity="0.485" fill-rule="evenodd" clip-rule="evenodd"
            d="M12.7053 21.957C12.8122 21.9688 12.8778 22.0345 12.9021 22.154C12.6864 22.5175 12.391 22.7965 12.0162 22.9909C11.1469 23.4729 10.2281 23.7191 9.25977 23.7293C10.4325 23.175 11.581 22.5842 12.7053 21.957Z"
            fill="#136A9C" />
        <path opacity="0.896" fill-rule="evenodd" clip-rule="evenodd"
            d="M14.379 22.1538C14.61 22.3045 14.6264 22.5014 14.4282 22.7446C13.9465 23.1277 13.4378 23.4723 12.9023 23.7784C11.6563 24.2978 10.3766 24.7081 9.06305 25.0092C9.0415 24.8935 9.07428 24.795 9.1615 24.7138C10.9945 24.0236 12.7336 23.1702 14.379 22.1538Z"
            fill="#136B9C" />
        <path opacity="0.908" fill-rule="evenodd" clip-rule="evenodd"
            d="M15.1665 22.8433C15.2734 22.8551 15.3391 22.9208 15.3634 23.0402C15.2718 23.2475 15.1571 23.4445 15.0188 23.631C13.4122 24.8076 11.6238 25.5953 9.65373 25.994C9.55528 25.9612 9.45684 25.9284 9.3584 25.8956C10.294 25.4246 11.2456 24.9816 12.2132 24.5663C13.2398 24.0447 14.2242 23.4704 15.1665 22.8433Z"
            fill="#136B9C" />
    </g>
    <defs>
        <clipPath id="clip0_5450_45">
            <rect width="32" height="32" fill="white" />
        </clipPath>
    </defs>
</svg>