<svg width="32" height="32" viewBox="0 0 32 32" fill="none" xmlns="http://www.w3.org/2000/svg">
    <rect width="32" height="32" fill="black" />
    <path
        d="M20.1225 18.5591H11.6425C11.2441 18.5591 10.9214 18.8819 10.9214 19.281C10.9214 19.6792 11.2441 20.0028 11.6425 20.0028H20.1225C20.5217 20.0028 20.8444 19.68 20.8444 19.281C20.8444 18.8819 20.5217 18.5591 20.1225 18.5591ZM17.6061 21.6405H11.9884C11.5891 21.6405 11.2672 21.9633 11.2672 22.3623C11.2672 22.7606 11.5891 23.0842 11.9884 23.0842H17.6061C18.0037 23.0842 18.328 22.7606 18.328 22.3623C18.328 21.9633 18.0045 21.6405 17.6061 21.6405ZM14.7518 24.7211H12.6091C12.2107 24.7211 11.888 25.0438 11.888 25.4429C11.888 25.8412 12.2107 26.1648 12.6091 26.1648H14.7518C15.1502 26.1648 15.4737 25.842 15.4737 25.4429C15.4737 25.0438 15.151 24.7211 14.7518 24.7211ZM13.2274 5.16432C15.0116 4.65076 16.963 4.68971 18.7264 5.27562C18.8523 5.31696 18.9806 5.33683 19.1057 5.33683C19.6093 5.33683 20.0787 5.01804 20.2468 4.51243C20.4556 3.882 20.1153 3.20149 19.485 2.99161C17.2634 2.25386 14.8108 2.20457 12.5629 2.85169C11.9246 3.03534 11.5557 3.70233 11.7397 4.34071C11.9222 4.97909 12.5892 5.34955 13.2274 5.16432Z"
        fill="white" />
    <path
        d="M16.0004 15.2886C10.8648 15.2886 8.06232 13.8576 8.06232 13.123C8.06232 12.3877 10.8648 10.9575 16.0004 10.9575C21.1377 10.9575 23.9394 12.3877 23.9394 13.123C23.9394 13.8576 21.1377 15.2886 16.0004 15.2886ZM23.6079 16.1098L22.5672 23.8101C22.5449 23.977 22.3576 24.1408 22.1887 24.1416L18.9782 24.1535C18.0515 24.1575 17.2977 24.9143 17.2977 25.8421V27.917C17.2977 28.0474 17.1877 28.1579 17.0571 28.1579H10.8776C10.6999 28.1579 10.4959 27.9862 10.4664 27.8105L10.4218 27.5426L10.2951 26.7865L10.1086 25.6759L9.87752 24.299L9.62014 22.7655L9.35559 21.185L9.0998 19.6594L8.86952 18.2905L8.69023 17.2156L8.5468 16.3714C8.51413 16.1829 8.47508 16.0224 8.5962 15.857C8.69341 15.7226 8.83924 15.6336 9.00817 15.6408C9.08307 15.6431 9.1763 15.6924 9.24802 15.7139L9.5038 15.7942L10.0903 15.9786C10.5206 16.1098 10.9564 16.2163 11.3987 16.3022C11.8672 16.3928 12.3398 16.4731 12.8131 16.5343C13.3063 16.5995 13.802 16.6401 14.2976 16.6742C14.8052 16.7092 15.3136 16.7267 15.822 16.7291L16.0028 16.7299C18.5607 16.7299 21.0859 16.3769 22.8883 15.6487C22.9569 15.6121 23.0318 15.5875 23.1146 15.5875C23.3888 15.5875 23.6103 15.8093 23.6103 16.0836V16.1082L23.6079 16.1098ZM21.7855 4.48625C21.4453 4.27956 21.0014 4.38927 20.7958 4.73111C20.5895 5.07216 20.6986 5.51656 21.0397 5.72167C23.7712 7.37286 25.4821 10.1704 25.7251 13.3098H25.3713L25.3825 13.1214C25.3825 10.7516 20.6636 9.51218 16.0012 9.51218C11.3397 9.51218 6.62083 10.7516 6.62083 13.1214L6.63597 13.3472H6.32998L6.27978 13.278H6.27899C6.52999 10.1752 8.22009 7.40387 10.9102 5.75347C11.2505 5.54598 11.3565 5.10158 11.1485 4.76053C10.9405 4.42106 10.4959 4.31295 10.1564 4.52203C6.80251 6.57946 4.80005 10.1537 4.80005 14.0842C4.80005 14.4833 5.12277 14.806 5.52119 14.806L6.58179 14.8195L6.58497 14.8219L6.60888 14.8171C6.71805 14.8171 6.8057 14.8927 6.83199 14.9944L6.83518 14.9968L9.04243 28.0498C9.18905 28.9203 9.99466 29.6 10.876 29.6H17.0555C17.6061 29.6 18.0428 29.2876 18.4523 28.9553C18.8404 28.6388 19.2388 28.3383 19.6348 28.0331L20.7926 27.1411L21.9497 26.2459L23.0214 25.4064C23.3975 25.1139 23.7338 24.8308 23.9035 24.3698C23.9481 24.2505 23.9776 24.1257 23.9952 24.0001L25.1888 15.124L25.1952 15.1185C25.1968 14.934 25.3458 14.7854 25.5299 14.7854L25.557 14.7909L26.4781 14.806C26.8765 14.806 27.2 14.4833 27.2 14.0842C27.2 10.1235 25.1753 6.53574 21.7831 4.48466L21.7855 4.48625Z"
        fill="white" />
</svg>