<svg width="32" height="32" viewBox="0 0 32 32" fill="none" xmlns="http://www.w3.org/2000/svg">
    <g clip-path="url(#clip0_5394_325)">
        <path fill-rule="evenodd" clip-rule="evenodd"
            d="M-0.0800781 -0.0800781C10.5866 -0.0800781 21.2532 -0.0800781 31.9199 -0.0800781C31.9199 10.5866 31.9199 21.2532 31.9199 31.9199C21.2532 31.9199 10.5866 31.9199 -0.0800781 31.9199C-0.0800781 21.2532 -0.0800781 10.5866 -0.0800781 -0.0800781Z"
            fill="#732D3B" />
        <path fill-rule="evenodd" clip-rule="evenodd"
            d="M20.4004 9.51995C21.4305 8.92389 22.4438 8.28389 23.4404 7.59995C23.6268 6.37675 23.6534 5.15008 23.5204 3.91995C22.913 3.15239 22.1396 2.93906 21.2004 3.27995C21.1866 3.12061 21.2401 2.98728 21.3604 2.87995C21.2537 2.82663 21.1471 2.77328 21.0404 2.71995C21.3812 2.46965 21.7012 2.46965 22.0004 2.71995C22.4535 2.75389 22.8801 2.78055 23.2804 2.79995C23.3801 3.15363 23.5401 3.47363 23.7604 3.75995C23.8692 5.18272 23.9758 6.59605 24.0804 7.99995C23.4706 8.32562 22.8306 8.59227 22.1604 8.79995C21.9204 9.03995 21.6804 9.27995 21.4404 9.51995C21.1161 9.44215 20.7695 9.44215 20.4004 9.51995Z"
            fill="#36365C" />
        <path fill-rule="evenodd" clip-rule="evenodd"
            d="M20.4001 9.52031C18.65 10.5249 16.9434 11.5916 15.2801 12.7203C13.9438 13.4702 13.0905 14.5902 12.7201 16.0803C12.6134 19.8942 12.5068 23.7342 12.4001 27.6003C11.6431 28.0841 10.8964 28.5641 10.1601 29.0403C9.1848 29.2921 8.51813 28.9721 8.16008 28.0803C8.05341 23.2803 8.05341 18.4803 8.16008 13.6803C8.3972 12.299 9.01053 11.1257 10.0001 10.1603C11.4569 9.35127 12.8969 8.49792 14.3201 7.60031C15.6864 6.78471 17.0198 5.93136 18.3201 5.04031C19.3654 4.57938 20.3254 3.99272 21.2001 3.28031C22.1393 2.93941 22.9127 3.15274 23.5201 3.92031C23.653 5.15043 23.6265 6.37711 23.4401 7.60031C22.4434 8.28424 21.4302 8.92424 20.4001 9.52031Z"
            fill="#FBFAFB" />
        <path fill-rule="evenodd" clip-rule="evenodd"
            d="M18.3196 5.04017C17.0193 5.93123 15.6859 6.78457 14.3196 7.60017C14.3025 7.21566 14.4625 6.92233 14.7996 6.72017C15.1369 6.66259 15.4569 6.55592 15.7596 6.40017C16.1983 5.93006 16.6783 5.53006 17.1996 5.20017C17.5585 5.0443 17.9318 4.99096 18.3196 5.04017Z"
            fill="#363659" />
        <path fill-rule="evenodd" clip-rule="evenodd"
            d="M15.2797 12.7197C15.2432 13.029 15.1098 13.2957 14.8797 13.5197C14.8264 13.4664 14.7731 13.4131 14.7197 13.3597C13.9215 14.1029 13.4681 15.0096 13.3597 16.0797C13.1504 16.2599 12.9371 16.2599 12.7197 16.0797C13.0901 14.5896 13.9435 13.4696 15.2797 12.7197Z"
            fill="#38385B" />
        <path fill-rule="evenodd" clip-rule="evenodd"
            d="M23.1199 13.5195C23.4361 15.1645 23.5428 16.8712 23.4399 18.6395C23.2407 19.6378 22.8407 20.5445 22.2399 21.3595C21.3916 22.0616 20.5116 22.7016 19.5999 23.2795C18.8148 23.6378 18.0681 24.0645 17.3599 24.5595C17.0435 22.8074 16.9369 20.9941 17.0399 19.1195C17.4135 17.9199 18.0535 16.8799 18.9599 15.9995C20.3252 15.1418 21.7119 14.3151 23.1199 13.5195Z"
            fill="#FCFBFC" />
        <path fill-rule="evenodd" clip-rule="evenodd"
            d="M23.1201 13.5205C23.2336 13.3758 23.3936 13.3225 23.6001 13.3605C23.6526 15.1492 23.5993 16.9091 23.4401 18.6405C23.543 16.8722 23.4363 15.1654 23.1201 13.5205Z"
            fill="#B2B3CA" />
        <path fill-rule="evenodd" clip-rule="evenodd"
            d="M9.99961 10.1602C9.01006 11.1255 8.39673 12.2989 8.15961 13.6802C8.05294 18.4802 8.05294 23.2802 8.15961 28.0802C8.51766 28.972 9.18433 29.292 10.1596 29.0402C10.1596 29.2002 10.1596 29.3602 10.1596 29.5202C9.62363 29.5466 9.0903 29.5198 8.55961 29.4402C8.34375 29.3166 8.21043 29.1299 8.15961 28.8802C8.10628 28.9869 8.05294 29.0934 7.99961 29.2002C7.88529 28.4162 7.75196 27.6429 7.59961 26.8802C7.81022 22.8886 7.81022 18.8886 7.59961 14.8802C7.81441 14.0671 7.94775 13.2404 7.99961 12.4002C8.4167 11.3886 9.08335 10.6419 9.99961 10.1602Z"
            fill="#34335B" />
        <path fill-rule="evenodd" clip-rule="evenodd"
            d="M16.8795 19.1201C16.8795 20.9868 16.8795 22.8534 16.8795 24.7201C17.0861 24.758 17.2461 24.7048 17.3595 24.5601C18.0677 24.0651 18.8144 23.6384 19.5995 23.2801C19.515 23.4755 19.4083 23.662 19.2795 23.8401C18.7472 24.2056 18.2139 24.579 17.6795 24.9601C17.2384 25.0852 16.8384 25.0052 16.4795 24.7201C16.4771 22.8422 16.6104 20.9755 16.8795 19.1201Z"
            fill="#303156" />
        <path fill-rule="evenodd" clip-rule="evenodd"
            d="M16.8799 19.1201C16.9332 19.1201 16.9866 19.1201 17.0399 19.1201C16.9368 20.9947 17.0434 22.808 17.3599 24.5601C17.2464 24.7048 17.0864 24.758 16.8799 24.7201C16.8799 22.8534 16.8799 20.9868 16.8799 19.1201Z"
            fill="#9292AE" />
    </g>
    <defs>
        <clipPath id="clip0_5394_325">
            <rect width="32" height="32" rx="10" fill="white" />
        </clipPath>
    </defs>
</svg>