<svg width="32" height="32" viewBox="0 0 32 32" fill="none" xmlns="http://www.w3.org/2000/svg">
    <g clip-path="url(#clip0_5447_73)">
        <path fill-rule="evenodd" clip-rule="evenodd"
            d="M29.5 7.50002C32.8197 23.8471 26.153 31.5138 9.5 30.5C0.937588 25.015 -1.72907 17.3483 1.5 7.50002C3.83333 5.83335 5.83333 3.83335 7.5 1.50002C16.2453 -1.31828 23.5786 0.681726 29.5 7.50002Z"
            fill="#F8FAFA" />
        <path opacity="0.722" fill-rule="evenodd" clip-rule="evenodd"
            d="M9.5 -0.5C13.5 -0.5 17.5 -0.5 21.5 -0.5C25.1604 1.16041 27.8271 3.82707 29.5 7.5C23.5786 0.681704 16.2453 -1.3183 7.5 1.5C8.16667 0.833333 8.83333 0.166667 9.5 -0.5Z"
            fill="#4D98F0" />
        <path opacity="0.965" fill-rule="evenodd" clip-rule="evenodd"
            d="M7.5 1.5C5.83333 3.83333 3.83333 5.83333 1.5 7.5C2.5 4.5 4.5 2.5 7.5 1.5Z"
            fill="#3E8DEC" />
        <path opacity="0.992" fill-rule="evenodd" clip-rule="evenodd"
            d="M1.5 7.5C-1.72907 17.3483 0.937592 25.015 9.5 30.5C4.88948 28.8881 1.55615 25.8881 -0.5 21.5C-0.5 17.5 -0.5 13.5 -0.5 9.5C0.166667 8.83333 0.833333 8.16667 1.5 7.5Z"
            fill="#4187E7" />
        <path fill-rule="evenodd" clip-rule="evenodd"
            d="M13.5 5.49983C16.5184 5.3352 19.5184 5.50187 22.5 5.99983C22.9574 6.41378 23.2907 6.91378 23.5 7.49983C20.1982 7.05621 16.8649 7.55621 13.5 8.99983C12.5769 11.0406 12.2436 13.2073 12.5 15.4998C24.5 16.1665 24.5 16.8331 12.5 17.4998C12.5 20.1665 12.5 22.8331 12.5 25.4998C11.5 25.4998 10.5 25.4998 9.5 25.4998C9.33398 20.1561 9.50065 14.8227 10 9.49983C11.0319 7.97314 12.1986 6.6398 13.5 5.49983Z"
            fill="#595959" />
        <path opacity="0.608" fill-rule="evenodd" clip-rule="evenodd"
            d="M29.5 7.5C30.1667 8.16667 30.8333 8.83333 31.5 9.5C31.5 13.5 31.5 17.5 31.5 21.5C29.1667 25.8333 25.8333 29.1667 21.5 31.5C17.5 31.5 13.5 31.5 9.5 31.5C9.5 31.1667 9.5 30.8333 9.5 30.5C26.153 31.5138 32.8197 23.8471 29.5 7.5Z"
            fill="#3F87EA" />
    </g>
    <defs>
        <clipPath id="clip0_5447_73">
            <rect width="32" height="32" fill="white" />
        </clipPath>
    </defs>
</svg>