<svg width="32" height="32" viewBox="0 0 32 32" fill="none" xmlns="http://www.w3.org/2000/svg">
    <path
        d="M19.4476 0.391851C14.2864 -0.774785 8.67174 0.665378 4.66816 4.68851C0.62129 8.75619 -0.788828 14.4692 0.416163 19.7035C3.71365 10.8139 10.6488 3.75189 19.4476 0.391851ZM27.2012 4.68851C26.5408 4.0182 25.8176 3.41344 25.0417 2.88261C14.3545 6.08205 6.01025 14.5158 2.91789 25.2808C3.43034 26.0177 4.0086 26.7061 4.64549 27.3374C5.12274 27.8171 5.6237 28.2512 6.14631 28.6636C7.66513 23.3152 10.5076 18.441 14.4084 14.4961C18.3092 10.5512 23.141 7.66421 28.4526 6.10484C28.0887 5.60234 27.6568 5.14542 27.2012 4.68851Z"
        fill="#86AC2F" />
    <path
        d="M9.78526 30.7889C11.081 31.338 12.4447 31.7028 13.8321 31.8861C15.4653 27.8259 17.8897 24.1349 20.9628 21.0302C24.0359 17.9255 27.6956 15.4697 31.7266 13.8074C31.5379 12.4077 31.1635 11.0396 30.6134 9.73975C25.7448 11.3652 21.3237 14.1165 17.7058 17.7724C14.088 21.4283 11.3743 25.8867 9.7832 30.7889H9.78526ZM31.9987 32.0001C31.5873 30.3284 31.1097 28.6738 30.567 27.0404C30.2621 26.114 29.9439 25.1921 29.6125 24.275C30.7054 22.4564 31.4243 20.4359 31.7266 18.3331C26.0375 21.4229 21.3798 26.1284 18.3346 31.8623C20.48 31.5325 22.537 30.7706 24.3823 29.6223C25.2924 29.9642 26.1789 30.2854 27.0654 30.5817C28.7714 31.1308 30.4082 31.5867 31.9998 31.9991L31.9987 32.0001Z"
        fill="#86AC2F" />
</svg>