<svg width="32" height="32" viewBox="0 0 32 32" fill="none" xmlns="http://www.w3.org/2000/svg">
    <g clip-path="url(#clip0_5407_599)">
        <path fill-rule="evenodd" clip-rule="evenodd"
            d="M-0.0712891 -0.0712891C10.5954 -0.0712891 21.262 -0.0712891 31.9287 -0.0712891C31.9287 10.5954 31.9287 21.262 31.9287 31.9287C21.262 31.9287 10.5954 31.9287 -0.0712891 31.9287C-0.0712891 21.262 -0.0712891 10.5954 -0.0712891 -0.0712891Z"
            fill="#EA1685" />
        <path fill-rule="evenodd" clip-rule="evenodd"
            d="M5.9019 7.89319C10.7463 7.82501 15.5818 7.89612 20.4086 8.10653C20.7584 8.31386 21.0666 8.5746 21.333 8.88875C23.0055 11.048 24.7122 13.1814 26.453 15.2888C26.5479 15.6681 26.5479 16.0472 26.453 16.4265C24.7937 18.5599 23.1345 20.6932 21.4752 22.8265C21.1066 23.2905 20.6562 23.646 20.1241 23.8932C15.3834 23.9881 10.6426 23.9881 5.9019 23.8932C5.69841 23.8271 5.53248 23.7084 5.40412 23.5376C5.3093 18.465 5.3093 13.3925 5.40412 8.31986C5.56698 8.15824 5.7329 8.01602 5.9019 7.89319Z"
            fill="#FDFBFD" />
        <path fill-rule="evenodd" clip-rule="evenodd"
            d="M18.276 10.8799C19.0833 10.8563 19.8892 10.88 20.6938 10.951C21.3692 11.3734 21.4166 11.8475 20.836 12.3733C20.2311 12.4017 19.6385 12.4728 19.0582 12.5866C18.4158 14.2761 17.7996 15.9827 17.2093 17.7066C17.0977 17.9606 16.9319 18.1739 16.7116 18.3466C14.436 18.4415 12.1605 18.4415 9.8849 18.3466C9.81019 18.2482 9.71538 18.1771 9.60045 18.1333C9.02218 16.6121 8.4296 15.095 7.82268 13.5822C7.70335 13.2067 7.77446 12.8749 8.03601 12.5866C11.1588 12.4696 14.2877 12.3985 17.4227 12.3733C17.5621 11.7857 17.8465 11.2879 18.276 10.8799Z"
            fill="#E81F86" />
        <path fill-rule="evenodd" clip-rule="evenodd"
            d="M9.74219 14.0089C12.1145 13.9616 14.4849 14.009 16.8533 14.1512C16.5068 15.0251 16.1749 15.9021 15.8577 16.7823C14.1511 16.8771 12.4444 16.8771 10.7377 16.7823C10.3916 15.8622 10.0597 14.9378 9.74219 14.0089Z"
            fill="#FDF9FC" />
        <path fill-rule="evenodd" clip-rule="evenodd"
            d="M22.542 14.7197C24.1626 14.8085 24.5419 15.5432 23.6798 16.9242C22.404 17.3535 21.764 16.9031 21.7598 15.5731C21.9532 15.2142 22.2139 14.9298 22.542 14.7197Z"
            fill="#E62285" />
        <path fill-rule="evenodd" clip-rule="evenodd"
            d="M10.1691 18.9862C11.0924 18.7335 11.6139 19.0653 11.7336 19.9818C11.6441 20.8538 11.17 21.2093 10.3114 21.0485C9.44376 20.394 9.39635 19.7066 10.1691 18.9862Z"
            fill="#E62185" />
        <path fill-rule="evenodd" clip-rule="evenodd"
            d="M15.147 18.9869C16.7567 18.9147 17.136 19.5547 16.2848 20.9069C15.5865 21.2786 15.0412 21.1127 14.6493 20.4092C14.5544 20.1247 14.5544 19.8403 14.6493 19.5558C14.845 19.3845 15.0108 19.1949 15.147 18.9869Z"
            fill="#E62486" />
    </g>
    <defs>
        <clipPath id="clip0_5407_599">
            <rect width="32" height="32" fill="white" />
        </clipPath>
    </defs>
</svg>