<svg width="32" height="32" viewBox="0 0 32 32" fill="none" xmlns="http://www.w3.org/2000/svg">
    <g clip-path="url(#clip0_5151_55)">
        <path fill-rule="evenodd" clip-rule="evenodd"
            d="M20.4091 0.0712891C24.2017 0.0712891 27.9942 0.0712891 31.7869 0.0712891C31.7869 10.6906 31.7869 21.3098 31.7869 31.9291C29.132 31.9291 26.4773 31.9291 23.8224 31.9291C23.9137 28.3884 23.8189 24.8802 23.538 21.4046C23.6552 20.8625 23.7263 20.2936 23.7513 19.698C23.8951 19.5789 24.0611 19.5316 24.2491 19.5557C24.2491 19.4135 24.2491 19.2713 24.2491 19.1291C23.9006 19.1003 23.5688 19.1477 23.2535 19.2713C23.0406 19.1567 22.8035 19.0619 22.5424 18.9868C22.4589 19.0911 22.4589 19.2333 22.5424 19.4135C21.8809 18.9864 21.3121 19.0813 20.8358 19.698C20.7735 19.5549 20.6787 19.5549 20.5513 19.698C20.439 19.5139 20.2967 19.3479 20.1246 19.2002C19.6377 19.0939 19.1636 19.1177 18.7024 19.2713C18.4895 19.1567 18.2524 19.0619 17.9913 18.9868C17.8017 18.892 17.8017 18.7973 17.9913 18.7024C18.3553 18.7229 18.7108 18.7229 19.058 18.7024C19.3155 18.571 19.2919 18.4525 18.9869 18.3468C19.0342 18.2995 19.0817 18.252 19.1291 18.2046C19.5602 18.1342 19.9868 18.1578 20.4091 18.2757C20.364 17.8388 20.4114 17.4122 20.5513 16.9957C20.8429 16.9137 20.9851 16.7241 20.978 16.4268C21.1164 16.4961 21.2586 16.5672 21.4046 16.6402C22.3053 16.735 23.2062 16.735 24.1069 16.6402C24.674 16.5583 25.1956 16.3687 25.6713 16.0713C25.8583 14.9182 25.8583 13.7567 25.6713 12.5868C23.7756 12.2195 21.8792 12.2195 19.9824 12.5868C19.9395 13.7841 19.9868 14.9694 20.1246 16.1424C19.9045 16.1881 19.8096 16.3303 19.8402 16.5691C20.0973 16.5678 20.3344 16.6389 20.5513 16.7824C20.1336 16.8337 19.7307 16.7626 19.3424 16.5691C19.0398 16.7618 18.7789 16.7144 18.5602 16.4268C18.7519 16.2703 18.9652 16.128 19.2002 16.0002C19.2713 14.0571 19.2951 12.1133 19.2713 10.1691C19.4135 10.1691 19.5558 10.1691 19.698 10.1691C19.698 10.5483 19.698 10.9276 19.698 11.3068C19.9351 11.3068 20.172 11.3068 20.4091 11.3068C20.4091 10.9276 20.4091 10.5483 20.4091 10.1691C20.7884 10.1691 21.1676 10.1691 21.5469 10.1691C21.5469 9.7898 21.5469 9.41055 21.5469 9.03129C21.9262 9.03129 22.3053 9.03129 22.6846 9.03129C22.6846 8.65203 22.6846 8.27278 22.6846 7.89351C22.5424 7.89351 22.4002 7.89351 22.258 7.89351C22.258 7.51425 22.258 7.135 22.258 6.75573C22.7795 6.75573 23.3009 6.75573 23.8224 6.75573C23.8224 5.99722 23.8224 5.23869 23.8224 4.48018C23.6802 4.48018 23.538 4.48018 23.3958 4.48018C23.3958 4.10091 23.3958 3.72166 23.3958 3.3424C23.6328 3.3424 23.8698 3.3424 24.1069 3.3424C24.1069 2.96314 24.1069 2.58389 24.1069 2.20462C24.2491 2.20462 24.3913 2.20462 24.5335 2.20462C24.5335 1.82536 24.5335 1.44611 24.5335 1.06684C24.2919 1.08963 24.0548 1.06592 23.8224 0.995734C24.2191 0.961407 24.5984 0.866591 24.9602 0.711289C23.4171 0.589188 21.9001 0.423263 20.4091 0.213511C20.4091 0.166104 20.4091 0.118696 20.4091 0.0712891Z"
            fill="#024EE2" />
        <path fill-rule="evenodd" clip-rule="evenodd"
            d="M-0.0712891 -0.0712891C4.47982 -0.0712891 9.03093 -0.0712891 13.582 -0.0712891C12.4494 0.117974 11.3116 0.260195 10.1687 0.355378C9.78945 0.355378 9.4102 0.355378 9.03093 0.355378C9.03093 0.545007 9.03093 0.734637 9.03093 0.924267C7.13404 0.900578 5.23775 0.924281 3.34204 0.995378C4.24154 1.06642 5.14228 1.09013 6.04427 1.06649C6.04427 1.44575 6.04427 1.825 6.04427 2.20427C5.52278 2.20427 5.00131 2.20427 4.47982 2.20427C4.47982 2.58353 4.47982 2.96278 4.47982 3.34204C3.72131 3.34204 2.96278 3.34204 2.20427 3.34204C2.20427 3.72131 2.20427 4.10056 2.20427 4.47982C1.58797 4.47982 0.971673 4.47982 0.355378 4.47982C0.533171 4.83083 0.509467 5.16267 0.284267 5.47538C0.23686 5.14353 0.189451 4.81167 0.142044 4.47982C0.116031 4.88725 0.04492 5.26651 -0.0712891 5.6176C-0.0712891 3.72131 -0.0712891 1.825 -0.0712891 -0.0712891Z"
            fill="#0472E3" />
        <path fill-rule="evenodd" clip-rule="evenodd"
            d="M10.1687 0.355707C11.3246 0.318758 12.4624 0.437276 13.582 0.711263C12.4443 0.75867 11.3065 0.806078 10.1687 0.853485C12.6321 0.971786 12.6321 1.0429 10.1687 1.06682C10.1687 1.44608 10.1687 1.82533 10.1687 2.2046C9.78945 2.2046 9.4102 2.2046 9.03093 2.2046C9.03093 2.96311 9.03093 3.72164 9.03093 4.48015C8.65167 4.48015 8.27242 4.48015 7.89316 4.48015C7.89316 4.85942 7.89316 5.23867 7.89316 5.61793C7.13464 5.61793 6.37611 5.61793 5.6176 5.61793C5.6176 5.99719 5.6176 6.37644 5.6176 6.75571C4.10056 6.75571 2.58353 6.75571 1.06649 6.75571C1.08774 6.90533 1.06404 7.04755 0.995378 7.18237C0.947971 6.66089 0.900562 6.13942 0.853155 5.61793C0.805748 6.37644 0.75834 7.13497 0.710933 7.89349C0.663526 7.60904 0.616118 7.3246 0.568711 7.04015C0.240116 8.057 0.0741902 9.09996 0.0709332 10.169C0.0235258 10.169 -0.0238817 10.169 -0.0712891 10.169C-0.0712891 8.652 -0.0712891 7.13497 -0.0712891 5.61793C0.04492 5.26684 0.116031 4.88758 0.142044 4.48015C0.189451 4.812 0.23686 5.14386 0.284267 5.47571C0.509467 5.163 0.533171 4.83116 0.355378 4.48015C0.971673 4.48015 1.58797 4.48015 2.20427 4.48015C2.20427 4.10089 2.20427 3.72164 2.20427 3.34237C2.96278 3.34237 3.72131 3.34237 4.47982 3.34237C4.47982 2.96311 4.47982 2.58386 4.47982 2.2046C5.00131 2.2046 5.52278 2.2046 6.04427 2.2046C6.04427 1.82533 6.04427 1.44608 6.04427 1.06682C5.14228 1.09046 4.24154 1.06675 3.34204 0.995707C5.23775 0.92461 7.13404 0.900908 9.03093 0.924596C9.03093 0.734967 9.03093 0.545336 9.03093 0.355707C9.4102 0.355707 9.78945 0.355707 10.1687 0.355707Z"
            fill="#006DE4" />
        <path fill-rule="evenodd" clip-rule="evenodd"
            d="M13.5824 -0.0712891C19.698 -0.0712891 25.8135 -0.0712891 31.9291 -0.0712891C31.9291 10.5954 31.9291 21.262 31.9291 31.9287C31.8817 31.9287 31.8342 31.9287 31.7868 31.9287C31.7868 21.3094 31.7868 10.6902 31.7868 0.0709332C27.9942 0.0709332 24.2017 0.0709332 20.4091 0.0709332C18.1315 0.0736381 15.856 0.144749 13.5824 0.284267C14.6721 0.489579 15.7625 0.679209 16.8535 0.853155C16.1162 0.877882 15.4051 0.948993 14.7202 1.06649C14.4831 1.06649 14.2462 1.06649 14.0091 1.06649C14.0091 1.44575 14.0091 1.825 14.0091 2.20427C13.8668 2.20427 13.7246 2.20427 13.5824 2.20427C13.5824 2.58353 13.5824 2.96278 13.5824 3.34204C13.3454 3.34204 13.1083 3.34204 12.8713 3.34204C12.8713 3.72131 12.8713 4.10056 12.8713 4.47982C12.7291 4.47982 12.5868 4.47982 12.4446 4.47982C12.4446 4.85909 12.4446 5.23834 12.4446 5.6176C12.2076 5.6176 11.9706 5.6176 11.7335 5.6176C11.7335 5.99686 11.7335 6.37611 11.7335 6.75538C11.4792 6.71482 11.2422 6.76222 11.0224 6.8976C10.8689 7.18816 10.6319 7.37778 10.3113 7.46649C10.1853 7.58382 10.1379 7.72604 10.1691 7.89316C9.7898 7.89316 9.41055 7.89316 9.03129 7.89316C9.03129 8.03538 9.03129 8.1776 9.03129 8.31982C8.65203 8.31982 8.27278 8.31982 7.89351 8.31982C7.89351 8.55686 7.89351 8.79389 7.89351 9.03093C7.51425 9.03093 7.135 9.03093 6.75573 9.03093C6.75573 9.17316 6.75573 9.31538 6.75573 9.4576C5.23869 9.4576 3.72166 9.4576 2.20462 9.4576C2.20462 9.59982 2.20462 9.74204 2.20462 9.88427C1.65749 9.86731 1.13601 9.96213 0.640178 10.1687C0.592771 9.22056 0.545363 9.22056 0.497956 10.1687C0.355734 10.1687 0.213511 10.1687 0.0712891 10.1687C0.0745461 9.09963 0.240472 8.05667 0.569067 7.03982C0.616474 7.32427 0.663882 7.60871 0.711289 7.89316C0.758696 7.13464 0.806104 6.37611 0.853511 5.6176C0.900918 6.13909 0.948327 6.66056 0.995734 7.18204C1.0644 7.04722 1.0881 6.905 1.06684 6.75538C2.58389 6.75538 4.10091 6.75538 5.61796 6.75538C5.61796 6.37611 5.61796 5.99686 5.61796 5.6176C6.37647 5.6176 7.135 5.6176 7.89351 5.6176C7.89351 5.23834 7.89351 4.85909 7.89351 4.47982C8.27278 4.47982 8.65203 4.47982 9.03129 4.47982C9.03129 3.72131 9.03129 2.96278 9.03129 2.20427C9.41055 2.20427 9.7898 2.20427 10.1691 2.20427C10.1691 1.825 10.1691 1.44575 10.1691 1.06649C12.6324 1.04257 12.6324 0.971456 10.1691 0.853155C11.3068 0.805748 12.4446 0.75834 13.5824 0.710933C12.4627 0.436946 11.3249 0.318428 10.1691 0.355378C11.312 0.260195 12.4498 0.117974 13.5824 -0.0712891Z"
            fill="#0C67E3" />
        <path fill-rule="evenodd" clip-rule="evenodd"
            d="M14.7198 1.06689C15.3361 1.06689 15.9525 1.06689 16.5687 1.06689C16.5687 1.44616 16.5687 1.82541 16.5687 2.20467C16.4265 2.20467 16.2843 2.20467 16.142 2.20467C16.0472 2.96319 15.9525 3.72171 15.8576 4.48023C15.5732 4.48023 15.2887 4.48023 15.0043 4.48023C14.9094 5.23874 14.8147 5.99727 14.7198 6.75578C14.3405 6.75578 13.9613 6.75578 13.582 6.75578C13.582 7.13505 13.582 7.5143 13.582 7.89356C13.2028 7.89356 12.8235 7.89356 12.4443 7.89356C12.4443 8.27283 12.4443 8.65208 12.4443 9.03134C11.6858 9.12616 10.9272 9.22096 10.1687 9.31578C10.1687 9.60023 10.1687 9.88467 10.1687 10.1691C9.30962 10.1339 8.45628 10.1813 7.60871 10.3113C7.51389 10.3587 7.41909 10.4062 7.32427 10.4536C7.68861 10.6158 8.06786 10.7344 8.46204 10.8091C8.28593 10.9073 8.28593 10.9784 8.46204 11.0225C8.41345 11.1417 8.31863 11.1891 8.1776 11.1647C7.79259 10.9479 7.36592 10.8057 6.8976 10.738C6.48214 10.8669 6.05547 10.9143 5.6176 10.8802C5.6176 11.0225 5.6176 11.1647 5.6176 11.3069C4.05316 11.3069 2.48871 11.3069 0.924266 11.3069C0.947323 11.0186 0.923621 10.7341 0.853155 10.4536C0.768224 10.9453 0.626002 11.4194 0.426489 11.8758C0.379082 11.6862 0.331673 11.4965 0.284266 11.3069C0.223142 11.6898 0.246845 12.069 0.355378 12.4447C0.213155 12.4447 0.0709331 12.4447 -0.0712891 12.4447C-0.0712891 11.6862 -0.0712891 10.9276 -0.0712891 10.1691C-0.0238817 10.1691 0.0235258 10.1691 0.0709331 10.1691C0.213155 10.1691 0.355378 10.1691 0.4976 10.1691C0.545007 9.22096 0.592415 9.22096 0.639822 10.1691C1.13566 9.96254 1.65714 9.86772 2.20427 9.88467C2.20427 9.74245 2.20427 9.60023 2.20427 9.45801C3.72131 9.45801 5.23834 9.45801 6.75538 9.45801C6.75538 9.31578 6.75538 9.17356 6.75538 9.03134C7.13464 9.03134 7.51389 9.03134 7.89315 9.03134C7.89315 8.7943 7.89315 8.55727 7.89315 8.32023C8.27242 8.32023 8.65167 8.32023 9.03093 8.32023C9.03093 8.17801 9.03093 8.03578 9.03093 7.89356C9.4102 7.89356 9.78945 7.89356 10.1687 7.89356C10.1376 7.72645 10.185 7.58423 10.3109 7.46689C10.6315 7.37819 10.8685 7.18857 11.022 6.89801C11.2418 6.76262 11.4789 6.71522 11.7332 6.75578C11.7332 6.37652 11.7332 5.99727 11.7332 5.61801C11.9702 5.61801 12.2072 5.61801 12.4443 5.61801C12.4443 5.23874 12.4443 4.85949 12.4443 4.48023C12.5865 4.48023 12.7287 4.48023 12.8709 4.48023C12.8709 4.10096 12.8709 3.72171 12.8709 3.34245C13.108 3.34245 13.345 3.34245 13.582 3.34245C13.582 2.96319 13.582 2.58394 13.582 2.20467C13.7243 2.20467 13.8665 2.20467 14.0087 2.20467C14.0087 1.82541 14.0087 1.44616 14.0087 1.06689C14.2458 1.06689 14.4827 1.06689 14.7198 1.06689Z"
            fill="#0060E3" />
        <path fill-rule="evenodd" clip-rule="evenodd"
            d="M20.4087 0.0712891C20.4087 0.118696 20.4087 0.166104 20.4087 0.213511C19.2699 0.189848 18.1321 0.213553 16.9953 0.284622C17.7538 0.426845 18.5124 0.569067 19.2709 0.711289C17.7566 0.875941 17.7566 0.994461 19.2709 1.06684C19.2709 1.82536 19.2709 2.58389 19.2709 3.3424C19.4605 3.3424 19.6502 3.3424 19.8398 3.3424C19.8398 4.10091 19.8398 4.85944 19.8398 5.61796C19.2709 5.61796 18.702 5.61796 18.1331 5.61796C18.1331 5.99722 18.1331 6.37647 18.1331 6.75573C17.7538 6.75573 17.3746 6.75573 16.9953 6.75573C16.9953 7.135 16.9953 7.51425 16.9953 7.89351C17.3775 7.87017 17.7568 7.89388 18.1331 7.96462C17.896 8.01203 17.6591 8.05944 17.422 8.10684C17.4694 8.15425 17.5169 8.20166 17.5642 8.24907C17.3852 8.3804 17.1956 8.49892 16.9953 8.60462C17.2559 8.68381 17.4455 8.82603 17.5642 9.03129C16.1864 8.81629 14.8353 8.91111 13.5109 9.31573C13.4404 9.5963 13.4167 9.88074 13.4398 10.1691C13.2294 11.2799 13.0635 12.4176 12.942 13.5824C12.8681 12.7966 12.7496 12.0381 12.5864 11.3068C11.2197 11.1114 9.84487 11.0166 8.462 11.0224C8.28588 10.9783 8.28588 10.9072 8.462 10.8091C8.06781 10.7343 7.68856 10.6158 7.32422 10.4535C7.41904 10.4061 7.51384 10.3587 7.60866 10.3113C8.45624 10.1813 9.30957 10.1339 10.1687 10.1691C10.1687 9.88462 10.1687 9.60018 10.1687 9.31573C10.9272 9.22091 11.6857 9.12611 12.4442 9.03129C12.4442 8.65203 12.4442 8.27278 12.4442 7.89351C12.8235 7.89351 13.2027 7.89351 13.582 7.89351C13.582 7.51425 13.582 7.135 13.582 6.75573C13.9613 6.75573 14.3405 6.75573 14.7198 6.75573C14.8146 5.99722 14.9094 5.23869 15.0042 4.48018C15.2887 4.48018 15.5731 4.48018 15.8576 4.48018C15.9524 3.72166 16.0471 2.96314 16.142 2.20462C16.2842 2.20462 16.4264 2.20462 16.5687 2.20462C16.5687 1.82536 16.5687 1.44611 16.5687 1.06684C15.9524 1.06684 15.336 1.06684 14.7198 1.06684C15.4047 0.949349 16.1158 0.878238 16.8531 0.853511C15.7621 0.679565 14.6717 0.489934 13.582 0.284622C15.8556 0.145105 18.1311 0.073994 20.4087 0.0712891Z"
            fill="#025AE3" />
        <path fill-rule="evenodd" clip-rule="evenodd"
            d="M20.4089 0.213456C21.9 0.423208 23.4169 0.589133 24.9601 0.711234C24.5982 0.866536 24.2189 0.961351 23.8223 0.995678C24.0547 1.06587 24.2917 1.08957 24.5334 1.06679C24.5334 1.44605 24.5334 1.8253 24.5334 2.20457C24.3912 2.20457 24.2489 2.20457 24.1067 2.20457C24.1067 2.58383 24.1067 2.96308 24.1067 3.34234C23.8696 3.34234 23.6327 3.34234 23.3956 3.34234C23.3956 3.72161 23.3956 4.10086 23.3956 4.48012C23.5378 4.48012 23.6801 4.48012 23.8223 4.48012C23.8223 5.23864 23.8223 5.99716 23.8223 6.75568C23.3007 6.75568 22.7794 6.75568 22.2578 6.75568C22.2578 7.13494 22.2578 7.51419 22.2578 7.89346C22.4001 7.89346 22.5423 7.89346 22.6845 7.89346C22.6845 8.27272 22.6845 8.65197 22.6845 9.03123C22.3052 9.03123 21.926 9.03123 21.5467 9.03123C21.5467 9.4105 21.5467 9.78975 21.5467 10.169C21.1674 10.169 20.7882 10.169 20.4089 10.169C20.4089 10.5483 20.4089 10.9275 20.4089 11.3068C20.1719 11.3068 19.9349 11.3068 19.6978 11.3068C19.6978 10.9275 19.6978 10.5483 19.6978 10.169C19.5556 10.169 19.4134 10.169 19.2712 10.169C19.3076 9.84297 19.2602 9.53481 19.1289 9.24457C18.6226 9.06868 18.1011 8.99757 17.5645 9.03123C17.4457 8.82598 17.2562 8.68376 16.9956 8.60457C17.1959 8.49887 17.3854 8.38034 17.5645 8.24901C17.5171 8.20161 17.4696 8.15419 17.4223 8.10679C17.6594 8.05939 17.8963 8.01197 18.1334 7.96457C17.7571 7.89383 17.3778 7.87012 16.9956 7.89346C16.9956 7.51419 16.9956 7.13494 16.9956 6.75568C17.3749 6.75568 17.7541 6.75568 18.1334 6.75568C18.1334 6.37641 18.1334 5.99716 18.1334 5.6179C18.7023 5.6179 19.2712 5.6179 19.84 5.6179C19.84 4.85939 19.84 4.10086 19.84 3.34234C19.6505 3.34234 19.4607 3.34234 19.2712 3.34234C19.2712 2.58383 19.2712 1.8253 19.2712 1.06679C17.7569 0.994405 17.7569 0.875886 19.2712 0.711234C18.5127 0.569011 17.7541 0.426789 16.9956 0.284567C18.1324 0.213497 19.2702 0.189793 20.4089 0.213456Z"
            fill="#0054E2" />
        <path fill-rule="evenodd" clip-rule="evenodd"
            d="M17.5645 9.03133C18.1011 8.99767 18.6226 9.06878 19.1289 9.24467C19.2602 9.53491 19.3076 9.84307 19.2711 10.1691C19.2949 12.1134 19.2711 14.0571 19.2 16.0002C18.9651 16.1281 18.7518 16.2703 18.56 16.4269C16.8302 17.0646 15.1473 16.9697 13.5111 16.1424C13.44 14.1519 13.4163 12.1608 13.44 10.1691C13.417 9.88078 13.4407 9.59634 13.5111 9.31578C14.8355 8.91115 16.1866 8.81633 17.5645 9.03133Z"
            fill="#FAFBFD" />
        <path fill-rule="evenodd" clip-rule="evenodd"
            d="M8.46208 11.0222C9.84495 11.0164 11.2198 11.1113 12.5865 11.3067C12.6102 12.8718 12.5865 14.4363 12.5154 16C10.667 17.0549 8.79443 17.1022 6.89764 16.1422C6.7557 14.9133 6.70828 13.6807 6.75541 12.4444C6.75541 12.0652 6.75541 11.6859 6.75541 11.3067C7.22277 11.2061 7.69684 11.1587 8.17764 11.1644C8.31866 11.1888 8.41348 11.1414 8.46208 11.0222Z"
            fill="#FAFBFD" />
        <path fill-rule="evenodd" clip-rule="evenodd"
            d="M8.1776 11.1642C7.6968 11.1585 7.22273 11.2059 6.75538 11.3065C6.75538 11.6857 6.75538 12.065 6.75538 12.4442C6.61439 13.1833 6.47217 13.9419 6.32871 14.7198C6.23024 14.6451 6.15913 14.5503 6.11538 14.4353C6.01446 14.6448 5.84854 14.7397 5.6176 14.7198C5.6176 14.5776 5.6176 14.4353 5.6176 14.2931C4.09467 14.2936 2.57763 14.3883 1.06649 14.5776C0.872628 14.7757 0.75411 15.0126 0.710933 15.2887C0.475258 14.8849 0.285629 14.4582 0.142044 14.0087C0.117118 14.6514 0.0460072 15.2678 -0.0712891 15.8576C-0.0712891 14.7198 -0.0712891 13.582 -0.0712891 12.4442C0.0709332 12.4442 0.213155 12.4442 0.355378 12.4442C0.246845 12.0686 0.223142 11.6893 0.284267 11.3065C0.331673 11.4961 0.379082 11.6857 0.426489 11.8753C0.626002 11.419 0.768225 10.9449 0.853155 10.4531C0.923621 10.7337 0.947324 11.0181 0.924267 11.3065C2.48871 11.3065 4.05316 11.3065 5.6176 11.3065C5.6176 11.1642 5.6176 11.022 5.6176 10.8798C6.05547 10.9139 6.48214 10.8665 6.8976 10.7376C7.36592 10.8052 7.79259 10.9474 8.1776 11.1642Z"
            fill="#0156E3" />
        <path fill-rule="evenodd" clip-rule="evenodd"
            d="M20.9777 16.4265C20.6932 16.3317 20.4088 16.237 20.1243 16.1421C19.9865 14.969 19.9392 13.7838 19.9821 12.5865C21.8789 12.2192 23.7753 12.2192 25.671 12.5865C25.858 13.7564 25.858 14.9178 25.671 16.071C25.1953 16.3684 24.6737 16.5579 24.1066 16.6399C23.2059 16.7347 22.305 16.7347 21.4043 16.6399C21.2583 16.5669 21.1161 16.4958 20.9777 16.4265Z"
            fill="#FAFBFD" />
        <path fill-rule="evenodd" clip-rule="evenodd"
            d="M13.4398 10.1689C13.4161 12.1606 13.4398 14.1517 13.5109 16.1423C15.1471 16.9696 16.83 17.0644 18.5598 16.4267C18.7786 16.7143 19.0394 16.7617 19.342 16.5689C19.7303 16.7625 20.1332 16.8336 20.5509 16.7823C20.334 16.6388 20.097 16.5677 19.8398 16.5689C19.8092 16.3302 19.9041 16.1879 20.1243 16.1423C20.4087 16.2371 20.6932 16.3319 20.9776 16.4267C20.9847 16.724 20.8425 16.9135 20.5509 16.9956C20.411 17.412 20.3636 17.8387 20.4087 18.2756C19.9865 18.1577 19.5598 18.1341 19.1287 18.2045C19.0814 18.2519 19.0338 18.2994 18.9865 18.3467C19.2916 18.4524 19.3152 18.5709 19.0576 18.7023C18.7104 18.7228 18.3549 18.7228 17.9909 18.7023C17.8014 18.7971 17.8014 18.8919 17.9909 18.9867C18.2521 19.0618 18.4891 19.1565 18.702 19.2712C18.702 19.3185 18.702 19.366 18.702 19.4134C18.5012 19.7126 18.359 20.0444 18.2754 20.4089C18.0352 20.2054 17.7507 20.087 17.422 20.0534C17.303 19.9096 17.2556 19.7436 17.2798 19.5556C17.5304 19.5353 17.7675 19.5828 17.9909 19.6978C18.1332 19.6505 18.228 19.5556 18.2754 19.4134C17.726 19.0036 17.2282 19.051 16.782 19.5556C16.7284 20.2814 17.084 20.6133 17.8487 20.5512C17.8487 20.6934 17.8487 20.8356 17.8487 20.9778C17.5178 21.0138 17.2333 20.919 16.9954 20.6934C16.6907 20.8267 16.6432 21.0162 16.8532 21.2623C16.7654 21.2781 16.6943 21.3254 16.6398 21.4045C16.5925 21.1201 16.545 20.8356 16.4976 20.5512C16.4704 20.8652 16.3993 21.1496 16.2843 21.4045C16.3274 20.7033 16.2799 20.016 16.142 19.3423C14.9287 18.7684 14.4072 19.124 14.5776 20.4089C14.4618 20.1059 14.3907 19.7741 14.3643 19.4134C14.3313 19.5893 14.2602 19.7315 14.1509 19.8401C13.8865 19.2106 13.4124 18.9972 12.7287 19.2001C12.429 19.3798 12.2868 19.6405 12.302 19.9823C12.2045 20.174 12.0623 20.34 11.8754 20.4801C12.2469 20.6324 12.2469 20.751 11.8754 20.8356C11.7346 20.0093 11.6872 19.156 11.7332 18.2756C11.5909 18.2756 11.4487 18.2756 11.3065 18.2756C11.3065 19.1763 11.3065 20.0771 11.3065 20.9778C11.2038 20.2367 11.0853 19.4782 10.9509 18.7023C10.8984 19.4895 10.8747 20.2481 10.8798 20.9778C10.792 20.962 10.7209 20.9147 10.6665 20.8356C10.5954 19.9836 10.5717 19.1302 10.5954 18.2756C10.4532 18.2756 10.3109 18.2756 10.1687 18.2756C10.1687 19.1289 10.1687 19.9823 10.1687 20.8356C10.0739 20.2406 9.97911 19.6242 9.88427 18.9867C9.78943 19.7668 9.69461 20.5254 9.59982 21.2623C9.59982 20.5512 9.59982 19.8401 9.59982 19.1289C9.4576 19.1289 9.31538 19.1289 9.17316 19.1289C9.17316 19.7452 9.17316 20.3616 9.17316 20.9778C8.89338 21.0118 8.63264 20.9645 8.39093 20.8356C8.31999 20.2687 8.29628 19.6998 8.31982 19.1289C8.48693 19.1601 8.62916 19.1127 8.74649 18.9867C8.47295 18.8718 8.18851 18.8007 7.89316 18.7734C8.65167 18.6312 8.65167 18.4889 7.89316 18.3467C8.83671 18.2297 8.83671 18.1586 7.89316 18.1334C7.89316 17.8963 7.89316 17.6594 7.89316 17.4223C5.6176 17.4223 3.34204 17.4223 1.06649 17.4223C1.08927 17.6639 1.06557 17.901 0.995378 18.1334C0.900562 16.806 0.805748 16.806 0.710933 18.1334C0.663526 17.7541 0.616118 17.3749 0.568711 16.9956C0.382595 17.3357 0.240372 17.3357 0.142044 16.9956C0.117871 18.3954 0.0467595 19.7702 -0.0712891 21.1201C-0.0712891 19.366 -0.0712891 17.6119 -0.0712891 15.8578C0.0460072 15.268 0.117118 14.6516 0.142044 14.0089C0.285629 14.4585 0.475258 14.8852 0.710933 15.2889C0.75411 15.0129 0.872628 14.7759 1.06649 14.5778C2.57763 14.3885 4.09467 14.2938 5.6176 14.2934C5.6176 14.4356 5.6176 14.5778 5.6176 14.7201C5.84854 14.74 6.01446 14.6451 6.11538 14.4356C6.15913 14.5505 6.23024 14.6454 6.32871 14.7201C6.47217 13.9421 6.61439 13.1836 6.75538 12.4445C6.70825 13.6807 6.75566 14.9133 6.8976 16.1423C8.79439 17.1023 10.667 17.0549 12.5154 16.0001C12.5865 14.4363 12.6102 12.8719 12.5865 11.3067C12.7496 12.038 12.8681 12.7965 12.942 13.5823C13.0635 12.4175 13.2294 11.2797 13.4398 10.1689Z"
            fill="#1049E3" />
        <path fill-rule="evenodd" clip-rule="evenodd"
            d="M8.31982 19.1289C8.1776 19.1289 8.03538 19.1289 7.89316 19.1289C7.89316 19.6505 7.89316 20.1719 7.89316 20.6934C7.70512 20.6692 7.53921 20.7166 7.39538 20.8356C7.28196 20.5854 7.30565 20.3484 7.46649 20.1245C7.56496 20.1992 7.63607 20.294 7.67982 20.4089C7.80223 19.4876 7.77852 19.2032 7.60871 19.5556C7.46649 19.5556 7.32427 19.5556 7.18204 19.5556C7.18204 19.3185 7.18204 19.0816 7.18204 18.8445C7.32427 18.8445 7.46649 18.8445 7.60871 18.8445C7.60871 18.6549 7.60871 18.4652 7.60871 18.2756C7.22384 18.3023 6.89198 18.4446 6.61316 18.7023C6.50259 19.1698 6.40777 19.8335 6.32871 20.6934C6.24537 20.7231 6.17426 20.7706 6.11538 20.8356C6.01039 20.2368 6.0341 19.6444 6.18649 19.0578C6.17074 18.8129 6.09963 18.7893 5.97316 18.9867C5.92575 19.4607 5.87834 19.9349 5.83093 20.4089C5.78353 20.0296 5.73611 19.6505 5.68871 19.2712C5.59389 19.7452 5.59389 20.2194 5.68871 20.6934C5.73611 20.646 5.78353 20.5985 5.83093 20.5512C5.8996 20.686 5.92331 20.8282 5.90204 20.9778C4.19538 20.9778 2.48871 20.9778 0.782044 20.9778C0.782044 21.5467 0.782044 22.1156 0.782044 22.6845C0.781492 25.7127 0.686677 25.7127 0.4976 22.6845C0.365975 22.5222 0.247455 22.5222 0.142044 22.6845C0.0709387 25.7656 0.0472351 28.8471 0.0709332 31.9289C0.0235258 31.9289 -0.0238817 31.9289 -0.0712891 31.9289C-0.0712891 28.326 -0.0712891 24.723 -0.0712891 21.1201C0.0467595 19.7702 0.117871 18.3954 0.142044 16.9956C0.240372 17.3357 0.382595 17.3357 0.568711 16.9956C0.616118 17.3749 0.663526 17.7541 0.710933 18.1334C0.805748 16.806 0.900562 16.806 0.995378 18.1334C1.06557 17.901 1.08927 17.6639 1.06649 17.4223C3.34204 17.4223 5.6176 17.4223 7.89316 17.4223C7.89316 17.6594 7.89316 17.8963 7.89316 18.1334C8.83671 18.1586 8.83671 18.2297 7.89316 18.3467C8.65167 18.4889 8.65167 18.6312 7.89316 18.7734C8.18851 18.8007 8.47295 18.8718 8.74649 18.9867C8.62916 19.1127 8.48693 19.1601 8.31982 19.1289Z"
            fill="#043DE4" />
        <path fill-rule="evenodd" clip-rule="evenodd"
            d="M10.8801 20.9776C11.0086 21.0784 11.056 21.2207 11.0223 21.4043C10.5418 21.4909 10.2574 21.3013 10.1689 20.8354C10.1689 19.9821 10.1689 19.1287 10.1689 18.2754C10.3112 18.2754 10.4534 18.2754 10.5956 18.2754C10.572 19.13 10.5957 19.9833 10.6667 20.8354C10.7211 20.9145 10.7922 20.9618 10.8801 20.9776Z"
            fill="#F5FAF8" />
        <path fill-rule="evenodd" clip-rule="evenodd"
            d="M11.8755 20.8354C12.0613 20.9729 12.1561 21.1626 12.16 21.4043C11.8246 21.4394 11.5401 21.3447 11.3066 21.1198C11.3066 21.0725 11.3066 21.025 11.3066 20.9776C11.3066 20.0769 11.3066 19.1761 11.3066 18.2754C11.4489 18.2754 11.5911 18.2754 11.7333 18.2754C11.6874 19.1557 11.7348 20.0091 11.8755 20.8354Z"
            fill="#F6FAF6" />
        <path fill-rule="evenodd" clip-rule="evenodd"
            d="M14.1511 19.8401C14.4128 21.0715 13.9387 21.5692 12.7289 21.3334C12.3469 20.9713 12.2047 20.5209 12.3022 19.9823C12.287 19.6406 12.4292 19.3799 12.7289 19.2001C13.4126 18.9973 13.8867 19.2106 14.1511 19.8401Z"
            fill="#E8EEF5" />
        <path fill-rule="evenodd" clip-rule="evenodd"
            d="M16.2845 21.4046C16.1423 21.4046 16.0001 21.4046 15.8579 21.4046C15.9039 20.8279 15.8566 20.259 15.7156 19.698C15.4922 19.5829 15.2551 19.5354 15.0045 19.5557C15.0497 20.2003 15.0024 20.8167 14.8623 21.4046C14.6 21.1516 14.5053 20.8198 14.5779 20.4091C14.4075 19.1241 14.929 18.7685 16.1423 19.3424C16.2801 20.0161 16.3276 20.7035 16.2845 21.4046Z"
            fill="#F5F8F7" />
        <path fill-rule="evenodd" clip-rule="evenodd"
            d="M7.60884 19.5554C7.60884 19.6976 7.60884 19.8398 7.60884 19.9821C7.46661 19.9821 7.32439 19.9821 7.18217 19.9821C7.18217 20.4561 7.18217 20.9303 7.18217 21.4043C6.99255 21.4043 6.80291 21.4043 6.61328 21.4043C6.61328 20.5036 6.61328 19.6028 6.61328 18.7021C6.89211 18.4444 7.22397 18.3021 7.60884 18.2754C7.60884 18.465 7.60884 18.6547 7.60884 18.8443C7.46661 18.8443 7.32439 18.8443 7.18217 18.8443C7.18217 19.0814 7.18217 19.3183 7.18217 19.5554C7.32439 19.5554 7.46661 19.5554 7.60884 19.5554Z"
            fill="#EAF0F6" />
        <path fill-rule="evenodd" clip-rule="evenodd"
            d="M22.542 19.4135C22.6969 19.9224 22.7205 20.4439 22.6131 20.9779C22.542 21.1439 22.4235 21.2624 22.2575 21.3335C21.8068 21.4726 21.4038 21.4015 21.0487 21.1201C20.8615 20.6667 20.7904 20.1926 20.8353 19.6979C21.3116 19.0812 21.8805 18.9864 22.542 19.4135Z"
            fill="#EBF1F5" />
        <path fill-rule="evenodd" clip-rule="evenodd"
            d="M13.1555 19.5556C13.2972 19.5434 13.4157 19.5909 13.5111 19.6978C13.6059 20.0771 13.6059 20.4563 13.5111 20.8356C12.9906 21.0518 12.7773 20.8622 12.8711 20.2667C12.903 19.9887 12.9978 19.7517 13.1555 19.5556Z"
            fill="#103AE1" />
        <path fill-rule="evenodd" clip-rule="evenodd"
            d="M18.2757 20.4087C18.4663 21.0538 18.2056 21.4331 17.4935 21.5465C17.2681 21.4691 17.0547 21.3743 16.8535 21.262C16.6436 21.016 16.6911 20.8264 16.9957 20.6931C17.2337 20.9187 17.5181 21.0136 17.8491 20.9776C17.8491 20.8354 17.8491 20.6931 17.8491 20.5509C17.0843 20.6131 16.7288 20.2811 16.7824 19.5554C17.2285 19.0508 17.7263 19.0034 18.2757 19.4131C18.2284 19.5554 18.1335 19.6502 17.9913 19.6976C17.7679 19.5825 17.5308 19.535 17.2802 19.5554C17.256 19.7434 17.3034 19.9094 17.4224 20.0531C17.7511 20.0867 18.0355 20.2052 18.2757 20.4087Z"
            fill="#EBF0F5" />
        <path fill-rule="evenodd" clip-rule="evenodd"
            d="M20.551 19.6977C20.599 20.2393 20.5279 20.7606 20.3377 21.2621C20.0474 21.3934 19.7392 21.4408 19.4133 21.4043C19.278 21.6062 19.2306 21.8431 19.271 22.1155C19.0815 22.1155 18.8917 22.1155 18.7021 22.1155C18.7021 21.2148 18.7021 20.3139 18.7021 19.4132C18.7021 19.3659 18.7021 19.3184 18.7021 19.271C19.1634 19.1174 19.6374 19.0937 20.1244 19.1999C20.2965 19.3477 20.4387 19.5136 20.551 19.6977Z"
            fill="#E5EBF6" />
        <path fill-rule="evenodd" clip-rule="evenodd"
            d="M19.271 19.5557C19.5081 19.5557 19.745 19.5557 19.9821 19.5557C20.0054 19.9378 19.9817 20.3171 19.911 20.6934C19.7618 20.922 19.5485 21.0167 19.271 20.9779C19.271 20.5039 19.271 20.0297 19.271 19.5557Z"
            fill="#0C44E3" />
        <path fill-rule="evenodd" clip-rule="evenodd"
            d="M23.5379 21.4043C23.3956 21.4043 23.2534 21.4043 23.1112 21.4043C23.0715 20.6797 23.119 19.9686 23.2534 19.271C23.5687 19.1474 23.9005 19.1 24.249 19.1287C24.249 19.271 24.249 19.4132 24.249 19.5554C24.061 19.5312 23.895 19.5786 23.7512 19.6976C23.7262 20.2933 23.6551 20.8621 23.5379 21.4043Z"
            fill="#DDE6F5" />
        <path fill-rule="evenodd" clip-rule="evenodd"
            d="M6.61334 18.7021C6.61334 19.6028 6.61334 20.5037 6.61334 21.4044C6.80296 21.4044 6.9926 21.4044 7.18223 21.4044C7.18223 20.9303 7.18223 20.4562 7.18223 19.9821C7.32445 19.9821 7.46667 19.9821 7.60889 19.9821C7.60889 19.8399 7.60889 19.6977 7.60889 19.5555C7.77871 19.2031 7.80242 19.4875 7.68 20.4088C7.63626 20.2939 7.56515 20.199 7.46667 20.1244C7.30583 20.3482 7.28214 20.5853 7.39556 20.8355C7.53939 20.7164 7.70531 20.6691 7.89334 20.6933C7.8644 20.9621 7.95922 21.1754 8.17778 21.3333C8.67936 21.4482 9.15344 21.4244 9.6 21.2621C9.6948 20.5253 9.78962 19.7667 9.88445 18.9866C9.9793 19.624 10.0741 20.2404 10.1689 20.8355C10.2573 21.3014 10.5417 21.491 11.0222 21.4044C11.056 21.2208 11.0086 21.0785 10.88 20.9777C10.8749 20.248 10.8986 19.4893 10.9511 18.7021C11.0855 19.4781 11.204 20.2366 11.3067 20.9777C11.3067 21.0251 11.3067 21.0726 11.3067 21.1199C11.2632 21.6099 11.2632 22.1313 11.3067 22.6844C11.6859 22.6844 12.0652 22.6844 12.4444 22.6844C12.4444 22.9688 12.4444 23.2533 12.4444 23.5377C12.8237 23.5377 13.203 23.5377 13.5822 23.5377C13.5822 24.391 13.5822 25.2444 13.5822 26.0977C13.9615 26.0977 14.3407 26.0977 14.72 26.0977C14.7231 26.6798 14.818 27.2487 15.0044 27.8044C14.818 28.36 14.7231 28.9289 14.72 29.511C15.0993 29.511 15.4785 29.511 15.8578 29.511C15.8578 30.317 15.8578 31.1228 15.8578 31.9288C14.6251 31.9288 13.3926 31.9288 12.16 31.9288C12.16 31.5021 12.16 31.0755 12.16 30.6488C11.8756 30.6488 11.5911 30.6488 11.3067 30.6488C11.3054 29.5014 11.2106 28.3636 11.0222 27.2355C10.7378 27.2355 10.4533 27.2355 10.1689 27.2355C10.1689 26.8562 10.1689 26.477 10.1689 26.0977C9.78963 26.0977 9.41038 26.0977 9.03112 26.0977C9.03112 25.7184 9.03112 25.3392 9.03112 24.9599C8.65185 24.9599 8.2726 24.9599 7.89334 24.9599C7.89334 24.7228 7.89334 24.4859 7.89334 24.2488C7.51407 24.2488 7.13482 24.2488 6.75556 24.2488C6.75556 24.1066 6.75556 23.9644 6.75556 23.8221C6.3763 23.8221 5.99705 23.8221 5.61778 23.8221C5.61778 23.4428 5.61778 23.0637 5.61778 22.6844C4.48 22.6844 3.34223 22.6844 2.20445 22.6844C2.20445 22.8266 2.20445 22.9688 2.20445 23.111C1.82518 23.111 1.44594 23.111 1.06667 23.111C1.09722 22.8722 1.00241 22.73 0.782227 22.6844C0.782227 22.1155 0.782227 21.5466 0.782227 20.9777C2.48889 20.9777 4.19556 20.9777 5.90223 20.9777C5.92349 20.8281 5.89978 20.6859 5.83112 20.551C5.78371 20.5984 5.7363 20.6459 5.68889 20.6933C5.59407 20.2192 5.59407 19.7451 5.68889 19.271C5.7363 19.6503 5.78371 20.0295 5.83112 20.4088C5.87852 19.9348 5.92594 19.4606 5.97334 18.9866C6.09982 18.7892 6.17093 18.8128 6.18667 19.0577C6.03428 19.6442 6.01057 20.2367 6.11556 20.8355C6.17444 20.7705 6.24555 20.723 6.32889 20.6933C6.40795 19.8334 6.50277 19.1696 6.61334 18.7021Z"
            fill="#0235E2" />
        <path fill-rule="evenodd" clip-rule="evenodd"
            d="M8.31993 19.1289C8.29639 19.6998 8.3201 20.2687 8.39104 20.8356C8.63274 20.9644 8.89348 21.0118 9.17326 20.9778C9.17326 20.3615 9.17326 19.7452 9.17326 19.1289C9.31548 19.1289 9.4577 19.1289 9.59993 19.1289C9.59993 19.84 9.59993 20.5511 9.59993 21.2622C9.15336 21.4245 8.67928 21.4483 8.1777 21.3334C7.95914 21.1755 7.86432 20.9622 7.89326 20.6934C7.89326 20.1718 7.89326 19.6504 7.89326 19.1289C8.03548 19.1289 8.1777 19.1289 8.31993 19.1289Z"
            fill="#F6F9F7" />
        <path fill-rule="evenodd" clip-rule="evenodd"
            d="M24.5332 18.5601C24.6755 18.5601 24.8177 18.5601 24.9599 18.5601C24.9599 18.7496 24.9599 18.9394 24.9599 19.1289C25.1021 19.1289 25.2444 19.1289 25.3866 19.1289C25.3866 19.2712 25.3866 19.4134 25.3866 19.5556C25.2444 19.5556 25.1021 19.5556 24.9599 19.5556C24.9366 19.9378 24.9603 20.3171 25.031 20.6934C25.132 20.9029 25.2978 20.9977 25.5288 20.9778C25.5288 21.1201 25.5288 21.2623 25.5288 21.4045C25.167 21.4608 24.8588 21.366 24.6044 21.1201C24.5334 20.268 24.5096 19.4147 24.5332 18.5601Z"
            fill="#EFF5F6" />
        <path fill-rule="evenodd" clip-rule="evenodd"
            d="M18.7021 19.4136C18.7021 20.3143 18.7021 21.2151 18.7021 22.1158C18.8917 22.1158 19.0814 22.1158 19.271 22.1158C19.2306 21.8434 19.278 21.6065 19.4132 21.4047C19.5141 21.5333 19.6563 21.5806 19.8399 21.5469C19.8622 21.7422 19.8385 21.9319 19.7688 22.1158C19.5081 22.2818 19.2473 22.4476 18.9866 22.6136C19.2456 22.9629 19.3404 23.3658 19.271 23.8225C19.6503 23.8225 20.0295 23.8225 20.4088 23.8225C20.4088 25.3395 20.4088 26.8565 20.4088 28.3736C20.7881 28.3736 21.1673 28.3736 21.5466 28.3736C21.5466 29.5587 21.5466 30.744 21.5466 31.9291C20.4088 31.9291 19.271 31.9291 18.1332 31.9291C18.1332 30.3647 18.1332 28.8002 18.1332 27.2358C17.8962 27.2358 17.6592 27.2358 17.4221 27.2358C17.4221 26.8565 17.4221 26.4773 17.4221 26.098C17.2799 26.098 17.1377 26.098 16.9955 26.098C16.9955 25.3395 16.9955 24.5809 16.9955 23.8225C16.6162 23.8225 16.237 23.8225 15.8577 23.8225C15.8577 23.4432 15.8577 23.064 15.8577 22.6847C15.4784 22.6847 15.0992 22.6847 14.7199 22.6847C14.6863 22.2425 14.7337 21.8158 14.8621 21.4047C15.0022 20.8167 15.0496 20.2003 15.0044 19.5558C15.255 19.5355 15.492 19.583 15.7155 19.698C15.8564 20.2591 15.9038 20.828 15.8577 21.4047C15.9999 21.4047 16.1421 21.4047 16.2844 21.4047C16.3994 21.1498 16.4705 20.8654 16.4977 20.5514C16.5451 20.8358 16.5926 21.1202 16.6399 21.4047C16.6944 21.3256 16.7655 21.2782 16.8532 21.2625C17.0545 21.3747 17.2678 21.4695 17.4932 21.5469C18.2054 21.4336 18.466 21.0542 18.2755 20.4091C18.3591 20.0446 18.5013 19.7128 18.7021 19.4136Z"
            fill="#0542E2" />
        <path fill-rule="evenodd" clip-rule="evenodd"
            d="M14.5776 20.4091C14.5051 20.8199 14.5998 21.1517 14.8621 21.4047C14.7337 21.8158 14.6863 22.2425 14.7199 22.6847C15.0992 22.6847 15.4783 22.6847 15.8576 22.6847C15.8576 23.064 15.8576 23.4432 15.8576 23.8225C16.237 23.8225 16.6161 23.8225 16.9954 23.8225C16.9954 24.5809 16.9954 25.3395 16.9954 26.098C17.1376 26.098 17.2799 26.098 17.4221 26.098C17.4221 26.4773 17.4221 26.8565 17.4221 27.2358C17.6592 27.2358 17.8961 27.2358 18.1332 27.2358C18.1332 28.8002 18.1332 30.3647 18.1332 31.9291C17.3747 31.9291 16.6161 31.9291 15.8576 31.9291C15.8576 31.1232 15.8576 30.3173 15.8576 29.5114C15.4783 29.5114 15.0992 29.5114 14.7199 29.5114C14.723 28.9292 14.8179 28.3603 15.0043 27.8047C14.8179 27.249 14.723 26.6801 14.7199 26.098C14.3406 26.098 13.9614 26.098 13.5821 26.098C13.5821 25.2447 13.5821 24.3914 13.5821 23.538C13.2028 23.538 12.8236 23.538 12.4443 23.538C12.4443 23.2536 12.4443 22.9691 12.4443 22.6847C12.065 22.6847 11.6858 22.6847 11.3065 22.6847C11.2631 22.1316 11.2631 21.6102 11.3065 21.1202C11.54 21.3451 11.8245 21.4398 12.1599 21.4047C12.156 21.163 12.0612 20.9733 11.8754 20.8358C12.247 20.7512 12.247 20.6326 11.8754 20.4802C12.0623 20.3402 12.2045 20.1742 12.3021 19.9825C12.2046 20.5211 12.3468 20.9715 12.7288 21.3336C13.9386 21.5694 14.4127 21.0716 14.151 19.8402C14.2602 19.7317 14.3313 19.5895 14.3643 19.4136C14.3908 19.7742 14.4619 20.1061 14.5776 20.4091Z"
            fill="#033BE3" />
        <path fill-rule="evenodd" clip-rule="evenodd"
            d="M23.2535 19.2713C23.1191 19.9689 23.0716 20.68 23.1113 21.4046C23.2535 21.4046 23.3957 21.4046 23.5379 21.4046C23.8188 24.8802 23.9137 28.3884 23.8224 31.929C23.0639 31.929 22.3053 31.929 21.5468 31.929C21.5468 30.7439 21.5468 29.5586 21.5468 28.3735C21.1675 28.3735 20.7883 28.3735 20.409 28.3735C20.409 26.8564 20.409 25.3395 20.409 23.8224C20.0297 23.8224 19.6506 23.8224 19.2713 23.8224C19.3407 23.3657 19.2458 22.9628 18.9868 22.6135C19.2475 22.4475 19.5083 22.2817 19.769 22.1157C19.8387 21.9318 19.8625 21.7421 19.8401 21.5468C19.6565 21.5805 19.5143 21.5332 19.4135 21.4046C19.7395 21.441 20.0477 21.3936 20.3379 21.2624C20.5281 20.7609 20.5992 20.2395 20.5513 19.6979C20.6787 19.5549 20.7734 19.5549 20.8357 19.6979C20.7908 20.1926 20.8619 20.6667 21.049 21.1201C21.4042 21.4015 21.8072 21.4726 22.2579 21.3335C22.4239 21.2624 22.5424 21.1439 22.6135 20.9779C22.7209 20.4439 22.6973 19.9224 22.5424 19.4135C22.4589 19.2333 22.4589 19.0911 22.5424 18.9868C22.8035 19.0619 23.0406 19.1566 23.2535 19.2713Z"
            fill="#0347E2" />
        <path fill-rule="evenodd" clip-rule="evenodd"
            d="M21.5467 19.5557C21.7363 19.5557 21.926 19.5557 22.1156 19.5557C22.1156 20.0297 22.1156 20.5039 22.1156 20.9779C21.8818 21.0083 21.6685 20.9608 21.4756 20.8357C21.3709 20.3959 21.3947 19.9692 21.5467 19.5557Z"
            fill="#1A48DD" />
        <path fill-rule="evenodd" clip-rule="evenodd"
            d="M0.782009 22.6842C1.00219 22.7299 1.097 22.8721 1.06645 23.1109C1.44572 23.1109 1.82497 23.1109 2.20423 23.1109C2.20423 22.9687 2.20423 22.8264 2.20423 22.6842C3.34201 22.6842 4.47979 22.6842 5.61756 22.6842C5.61756 23.0635 5.61756 23.4427 5.61756 23.822C5.99683 23.822 6.37608 23.822 6.75534 23.822C6.75534 23.9642 6.75534 24.1064 6.75534 24.2487C7.13461 24.2487 7.51386 24.2487 7.89312 24.2487C7.89312 24.4857 7.89312 24.7227 7.89312 24.9598C8.27238 24.9598 8.65163 24.9598 9.0309 24.9598C9.0309 25.3391 9.0309 25.7182 9.0309 26.0975C9.41016 26.0975 9.78941 26.0975 10.1687 26.0975C10.1687 26.4768 10.1687 26.856 10.1687 27.2353C10.4531 27.2353 10.7376 27.2353 11.022 27.2353C11.2104 28.3634 11.3052 29.5012 11.3065 30.6487C11.5909 30.6487 11.8753 30.6487 12.1598 30.6487C12.1598 31.0753 12.1598 31.502 12.1598 31.9287C8.13016 31.9287 4.10052 31.9287 0.0708974 31.9287C0.0471994 28.8468 0.070903 25.7653 0.142009 22.6842C0.247419 22.5219 0.365939 22.5219 0.497564 22.6842C0.686641 25.7124 0.781457 25.7124 0.782009 22.6842Z"
            fill="#002AE2" />
    </g>
    <defs>
        <clipPath id="clip0_5151_55">
            <rect width="32" height="32" fill="white" />
        </clipPath>
    </defs>
</svg>