<svg width="32" height="32" viewBox="0 0 32 32" fill="none" xmlns="http://www.w3.org/2000/svg">
    <g clip-path="url(#clip0_5109_320)">
        <path fill-rule="evenodd" clip-rule="evenodd"
            d="M22.5996 2.06612C22.0312 2.20056 21.4511 2.29998 20.8595 2.36439C20.603 2.35155 20.3483 2.32314 20.0956 2.27917C19.6583 2.29879 19.2198 2.29879 18.7799 2.27917C18.3938 2.33699 18.0118 2.3583 17.634 2.34308C17.2354 2.43006 16.8393 2.46556 16.4457 2.44961C15.7928 2.62782 15.142 2.81957 14.4935 3.02484C14.3298 3.14594 14.1459 3.21696 13.9417 3.23789C13.7057 3.36321 13.4793 3.49814 13.2627 3.64269C12.3732 3.8646 11.5103 4.16287 10.6738 4.53749C10.6981 4.46271 10.7335 4.39168 10.7799 4.32444C11.4957 3.6491 12.295 3.09517 13.1778 2.66266C13.2166 2.55697 13.2803 2.52857 13.3688 2.57744C13.6925 2.38299 14.0249 2.20545 14.3661 2.04482C14.813 1.87643 15.2516 1.69179 15.6818 1.49089C16.0361 1.49266 16.3473 1.37903 16.6155 1.15001C16.7538 1.11662 16.8882 1.12373 17.0187 1.17131C17.0456 1.10883 17.081 1.05202 17.1248 1.00087C17.0353 0.964443 16.9434 0.936039 16.8489 0.915655C16.7759 0.975078 16.691 1.00349 16.5943 1.00087C16.2047 0.893472 15.8157 0.893472 15.4271 1.00087C15.3757 0.967899 15.3757 0.932392 15.4271 0.89435C15.1752 0.84482 14.9205 0.809313 14.6632 0.787825C14.6041 0.792968 14.5474 0.80717 14.4935 0.830435C14.4427 0.753865 14.372 0.711255 14.2813 0.702605C17.1859 0.336448 19.9587 0.790953 22.5996 2.06612Z"
            fill="#F3B347" />
        <path fill-rule="evenodd" clip-rule="evenodd"
            d="M14.2812 0.703125C14.3719 0.711775 14.4426 0.754385 14.4934 0.830955C14.5473 0.80769 14.604 0.793488 14.6631 0.788345C14.9204 0.809833 15.1751 0.84534 15.427 0.894869C15.3756 0.932911 15.3756 0.968418 15.427 1.00139C15.8156 0.893992 16.2046 0.893992 16.5942 1.00139C16.6909 1.00401 16.7758 0.975598 16.8488 0.916174C16.9433 0.936559 17.0352 0.964963 17.1247 1.00139C17.0809 1.05254 17.0455 1.10935 17.0186 1.17183C16.8881 1.12425 16.7537 1.11714 16.6154 1.15053C16.3472 1.37955 16.036 1.49318 15.6817 1.49141C15.2515 1.69231 14.8129 1.87695 14.366 2.04534C14.0248 2.20597 13.6924 2.38351 13.3687 2.57796C13.2802 2.52909 13.2165 2.55749 13.1777 2.66318C12.2949 3.09569 11.4956 3.64962 10.7798 4.32496C10.7334 4.3922 10.698 4.46323 10.6737 4.53801C10.1014 4.81813 9.54965 5.13059 9.01855 5.47543C9.15929 5.27857 9.27952 5.06552 9.3793 4.83628C9.85849 4.30545 10.3607 3.79413 10.8859 3.30233C11.2021 3.07319 11.4991 2.82463 11.7772 2.55665C12.359 2.19352 12.9108 1.78873 13.4323 1.34227C13.478 1.20812 13.5346 1.08029 13.6021 0.958784C13.5766 0.874941 13.5201 0.832331 13.4323 0.830955C13.7051 0.757303 13.988 0.714694 14.2812 0.703125Z"
            fill="#F2B842" />
        <path fill-rule="evenodd" clip-rule="evenodd"
            d="M22.5996 2.06641C23.0095 2.25792 23.4056 2.47097 23.7879 2.70555C23.2663 2.74089 22.7428 2.74089 22.2176 2.70555C21.7678 2.72826 21.3151 2.77087 20.8595 2.83338C20.3388 2.81435 19.8224 2.87116 19.3104 3.00382C19.2777 2.99765 19.2494 2.98345 19.2256 2.96121C19.1336 3.0303 19.0275 3.0658 18.9073 3.06774C18.5158 3.07832 18.1268 3.11382 17.7401 3.17426C17.6739 3.16987 17.6102 3.15566 17.5492 3.13165C17.1367 3.26841 16.7123 3.33943 16.276 3.3447C15.2614 3.34791 14.257 3.44733 13.2627 3.64297C13.4794 3.49843 13.7057 3.36349 13.9417 3.23818C14.1459 3.21724 14.3298 3.14623 14.4935 3.02513C15.142 2.81985 15.7928 2.62811 16.4457 2.44989C16.8393 2.46585 17.2354 2.43034 17.634 2.34337C18.0118 2.35858 18.3938 2.33728 18.7799 2.27946C19.2198 2.29908 19.6583 2.29908 20.0956 2.27946C20.3483 2.32343 20.603 2.35184 20.8595 2.36468C21.4511 2.30027 22.0312 2.20084 22.5996 2.06641Z"
            fill="#F2AB49" />
        <path fill-rule="evenodd" clip-rule="evenodd"
            d="M13.4322 0.831055C13.5199 0.832431 13.5765 0.875041 13.6019 0.958884C13.5344 1.08039 13.4778 1.20822 13.4322 1.34237C12.9106 1.78883 12.3588 2.19362 11.777 2.55675C11.499 2.82473 11.2019 3.07329 10.8857 3.30243C10.3605 3.79423 9.8583 4.30555 9.37911 4.83638C9.27933 5.06562 9.1591 5.27867 9.01837 5.47553C8.60911 5.78667 8.19889 6.09912 7.7876 6.41295C7.92196 6.0883 8.09172 5.76165 8.29688 5.43292C8.62202 4.97179 8.95445 4.51728 9.29423 4.0694C9.59046 3.77906 9.8805 3.48079 10.1643 3.1746C10.3657 3.0576 10.5213 2.90137 10.6311 2.70589C11.274 2.23614 11.8753 1.71062 12.4348 1.12932C12.4642 1.08941 12.4571 1.061 12.4136 1.0441C12.7428 0.947469 13.0823 0.876451 13.4322 0.831055Z"
            fill="#F2BE40" />
        <path fill-rule="evenodd" clip-rule="evenodd"
            d="M23.7878 2.70605C24.0018 2.81322 24.1999 2.94105 24.382 3.08954C23.5977 3.14897 22.8055 3.19158 22.0053 3.21737C21.5997 3.17136 21.1894 3.19976 20.7746 3.30259C20.7241 3.2917 20.6746 3.2775 20.626 3.25998C19.9778 3.37416 19.3341 3.50199 18.695 3.64347C17.8881 3.49782 17.0818 3.39839 16.2759 3.3452C16.7122 3.33993 17.1366 3.26891 17.5491 3.13215C17.6102 3.15616 17.6738 3.17037 17.7401 3.17476C18.1267 3.11433 18.5158 3.07882 18.9072 3.06824C19.0275 3.0663 19.1336 3.0308 19.2255 2.96171C19.2493 2.98395 19.2776 2.99815 19.3104 3.00432C19.8223 2.87166 20.3387 2.81485 20.8594 2.83388C21.315 2.77137 21.7677 2.72876 22.2175 2.70605C22.7427 2.7414 23.2662 2.7414 23.7878 2.70605Z"
            fill="#F1A44E" />
        <path fill-rule="evenodd" clip-rule="evenodd"
            d="M24.3818 3.08887C24.549 3.17179 24.7046 3.27122 24.8487 3.38714C24.6387 3.47066 24.4194 3.48487 24.1908 3.42975C23.8791 3.45659 23.5679 3.485 23.2572 3.51497C22.923 3.49556 22.5905 3.52397 22.2598 3.60019C22.1787 3.60071 22.0938 3.58651 22.0052 3.55758C21.6258 3.61275 21.2508 3.68376 20.8805 3.77062C20.8283 3.74473 20.7717 3.73052 20.7107 3.72802C20.3639 3.78808 20.0173 3.84489 19.671 3.89845C19.3394 3.81883 19.014 3.73361 18.6948 3.6428C19.334 3.50131 19.9776 3.37348 20.6259 3.25931C20.6744 3.27682 20.7239 3.29103 20.7744 3.30192C21.1893 3.19909 21.5995 3.17068 22.0052 3.2167C22.8053 3.1909 23.5975 3.14829 24.3818 3.08887Z"
            fill="#F29F53" />
        <path fill-rule="evenodd" clip-rule="evenodd"
            d="M12.4136 1.04395C12.4571 1.06084 12.4642 1.08925 12.4348 1.12917C11.8753 1.71047 11.274 2.23599 10.6311 2.70573C10.5213 2.90121 10.3657 3.05744 10.1643 3.17444C9.88051 3.48063 9.59048 3.7789 9.29424 4.06925C8.95446 4.51712 8.62203 4.97164 8.29689 5.43276C8.09174 5.7615 7.92198 6.08814 7.78761 6.41279C7.44919 6.73828 7.10967 7.06497 6.76904 7.39281C7.09036 6.44521 7.55016 5.55041 8.14835 4.70839C8.54394 4.20473 8.94712 3.70762 9.3579 3.21705C9.73083 2.87138 10.0987 2.5234 10.4614 2.17311C10.6858 2.04675 10.8839 1.89051 11.0555 1.7044C11.1687 1.59077 11.2818 1.47715 11.395 1.36352C11.3854 1.34653 11.3712 1.33943 11.3526 1.34221C11.6929 1.21051 12.0466 1.11109 12.4136 1.04395Z"
            fill="#F2C440" />
        <path fill-rule="evenodd" clip-rule="evenodd"
            d="M16.276 3.34473C17.0819 3.39792 17.8882 3.49734 18.6951 3.643C19.0143 3.73381 19.3396 3.81903 19.6712 3.89865C19.9888 4.022 20.3142 4.13562 20.6473 4.23953C20.8748 4.36323 21.1153 4.46264 21.3688 4.5378C21.5251 4.64467 21.6948 4.72989 21.8781 4.79346C22.062 4.92849 22.26 5.04213 22.4722 5.13434C22.6756 5.28637 22.8878 5.42843 23.1089 5.56044C23.2941 5.71763 23.4921 5.85965 23.703 5.98654C23.8593 6.14334 24.0291 6.2854 24.2123 6.41264C24.3951 6.58188 24.579 6.75232 24.764 6.92395C24.9491 7.12392 25.133 7.32274 25.3157 7.52049C25.4859 7.72106 25.6557 7.91992 25.825 8.11703C26.0906 8.46622 26.3452 8.82129 26.589 9.18228C28.3509 12.0823 28.9167 15.207 28.2866 18.5564C28.1678 18.9621 28.0546 19.374 27.947 19.7921C27.8065 20.1724 27.6651 20.5559 27.5226 20.9426C27.4277 21.1192 27.3429 21.3038 27.268 21.4965C27.0842 21.8371 26.9003 22.1779 26.7163 22.5192C26.5826 22.6734 26.4694 22.8438 26.3768 23.0305C26.192 23.2447 26.0223 23.4719 25.8675 23.7122C25.6424 23.981 25.416 24.2509 25.1884 24.5218C24.9197 24.7633 24.665 25.019 24.4245 25.2888C24.2851 25.3577 24.1719 25.4571 24.085 25.5871C23.7438 25.8432 23.4043 26.0989 23.0664 26.354C22.7889 26.5144 22.5201 26.6849 22.26 26.8654C21.8651 27.0636 21.469 27.2625 21.0717 27.4619C20.6102 27.6495 20.1434 27.8199 19.6712 27.9732C19.2215 28.1003 18.7689 28.2139 18.3131 28.3141C18.0168 28.3622 17.7197 28.4049 17.4218 28.4419C17.16 28.4597 16.9054 28.4882 16.6579 28.5271C16.474 28.5271 16.2901 28.5271 16.1062 28.5271C15.6673 28.5208 15.2288 28.5066 14.7905 28.4845C14.2587 28.4003 13.7211 28.3151 13.1778 28.2289C12.8742 28.1313 12.563 28.046 12.2441 27.9732C12.0557 27.8864 11.8576 27.8154 11.65 27.7602C11.3133 27.6199 10.9738 27.4778 10.6314 27.3341C10.3696 27.1813 10.1009 27.0393 9.82503 26.908C9.73323 26.8405 9.63422 26.7837 9.52795 26.7375C9.31672 26.5969 9.10452 26.4549 8.89135 26.3114C8.62257 26.1126 8.35375 25.9138 8.08498 25.7149C7.85419 25.4923 7.61368 25.2792 7.36349 25.0758C7.20786 24.8911 7.0381 24.7207 6.85421 24.5644C6.75397 24.4497 6.65491 24.3361 6.55713 24.2236C6.24252 23.8512 5.94544 23.4677 5.66588 23.0731C5.45224 22.7313 5.24003 22.3904 5.02928 22.0505C4.80409 21.6126 4.59189 21.1723 4.39267 20.7295C4.32188 20.5305 4.25113 20.3317 4.18047 20.133C3.88697 19.2669 3.67476 18.3863 3.54387 17.4912C3.49865 16.8956 3.47036 16.299 3.45898 15.7016C3.48035 15.1459 3.52279 14.592 3.58631 14.0398C3.70917 13.3333 3.87894 12.6373 4.09559 11.9519C4.16387 11.8005 4.22046 11.6442 4.26535 11.4832C4.48706 10.8959 4.75583 10.3277 5.07172 9.77881C5.28124 9.39827 5.50758 9.02897 5.75076 8.67096C6.07288 8.23361 6.41241 7.80751 6.76933 7.39266C7.10996 7.06482 7.44948 6.73813 7.7879 6.41264C8.19919 6.09881 8.60941 5.78636 9.01867 5.47522C9.54976 5.13038 10.1015 4.81792 10.6738 4.5378C11.5103 4.16318 12.3732 3.86491 13.2627 3.643C14.257 3.44735 15.2614 3.34793 16.276 3.34473Z"
            fill="#000F33" />
        <path fill-rule="evenodd" clip-rule="evenodd"
            d="M24.8486 3.3877C25.0571 3.49926 25.241 3.64129 25.4003 3.81379C23.7925 3.82111 22.2081 3.96314 20.647 4.23989C20.3139 4.13598 19.9885 4.02236 19.6709 3.89901C20.0173 3.84545 20.3639 3.78864 20.7107 3.72857C20.7716 3.73108 20.8282 3.74529 20.8804 3.77118C21.2508 3.68432 21.6257 3.61331 22.0051 3.55813C22.0937 3.58707 22.1786 3.60127 22.2598 3.60074C22.5905 3.52453 22.9229 3.49612 23.2571 3.51552C23.5678 3.48556 23.879 3.45715 24.1908 3.43031C24.4194 3.48543 24.6387 3.47122 24.8486 3.3877Z"
            fill="#F19856" />
        <path fill-rule="evenodd" clip-rule="evenodd"
            d="M25.4003 3.81348C25.5797 3.91083 25.7353 4.03866 25.8671 4.19697C25.3915 4.20978 24.9177 4.19558 24.4454 4.15436C24.1321 4.19427 23.8209 4.23688 23.5117 4.28218C23.4494 4.28564 23.3787 4.2714 23.2995 4.23958C22.9899 4.32752 22.6786 4.3559 22.3658 4.32479C22.2773 4.39063 22.1853 4.40482 22.0899 4.3674C21.8496 4.43128 21.6092 4.48812 21.3685 4.53784C21.115 4.46268 20.8745 4.36327 20.647 4.23958C22.2081 3.96282 23.7925 3.82079 25.4003 3.81348Z"
            fill="#F2925B" />
        <path fill-rule="evenodd" clip-rule="evenodd"
            d="M11.3526 1.34239C11.3712 1.3396 11.3854 1.3467 11.3951 1.36369C11.2819 1.47732 11.1687 1.59094 11.0555 1.70457C10.8839 1.89068 10.6858 2.04692 10.4614 2.17328C10.0987 2.52357 9.73084 2.87156 9.35792 3.21722C8.94714 3.70779 8.54395 4.2049 8.14837 4.70856C7.55017 5.55058 7.09037 6.44538 6.76906 7.39299C6.41213 7.80783 6.07261 8.23393 5.75049 8.67128C5.79055 8.41809 5.84717 8.16951 5.92025 7.92561C5.90612 7.91142 5.89194 7.89719 5.87781 7.883C6.30756 6.57172 6.92294 5.35734 7.72396 4.23986C7.92776 4.02991 8.11166 3.80266 8.27569 3.5581C8.83569 2.98161 9.40863 2.42058 9.99452 1.87501C9.96931 1.85523 9.941 1.84812 9.90964 1.8537C10.3724 1.64196 10.8534 1.47152 11.3526 1.34239Z"
            fill="#F2CA40" />
        <path fill-rule="evenodd" clip-rule="evenodd"
            d="M25.8673 4.19691C26.0213 4.29465 26.1628 4.40825 26.2917 4.53779C25.733 4.5804 25.1742 4.5804 24.6153 4.53779C23.7095 4.60745 22.7971 4.69267 21.8779 4.79344C21.6947 4.72987 21.5249 4.64465 21.3687 4.53779C21.6094 4.48806 21.8498 4.43122 22.0901 4.36735C22.1855 4.40476 22.2775 4.39057 22.366 4.32474C22.6788 4.35584 22.9901 4.32746 23.2997 4.23952C23.3789 4.27135 23.4496 4.28558 23.5119 4.28213C23.8211 4.23682 24.1323 4.19421 24.4456 4.1543C24.9179 4.19552 25.3917 4.20972 25.8673 4.19691Z"
            fill="#F28C5F" />
        <path fill-rule="evenodd" clip-rule="evenodd"
            d="M26.2917 4.53809C26.4332 4.65173 26.5605 4.77956 26.6737 4.92157C26.0288 4.94412 25.3851 4.94412 24.7427 4.92157C24.4573 4.94782 24.1744 4.99043 23.8938 5.0494C23.7141 5.00437 23.5372 5.01855 23.3633 5.09201C23.3232 5.07126 23.2808 5.05707 23.236 5.0494C22.9839 5.13373 22.7292 5.16211 22.4721 5.13462C22.2599 5.04242 22.0618 4.92878 21.8779 4.79375C22.7971 4.69297 23.7095 4.60775 24.6153 4.53809C25.1742 4.5807 25.733 4.5807 26.2917 4.53809Z"
            fill="#F28662" />
        <path fill-rule="evenodd" clip-rule="evenodd"
            d="M6.76924 3.68614C6.78783 3.68335 6.80201 3.69045 6.81168 3.70744C6.23687 4.45678 5.7205 5.24506 5.26261 6.07229C5.01391 6.6935 4.7734 7.31841 4.54113 7.94712C4.48336 8.21369 4.44797 8.46935 4.43502 8.7141C4.31131 8.52163 4.23348 8.30858 4.2016 8.07495C4.08509 7.81465 3.97899 7.53057 3.8833 7.22275C4.03643 6.84672 4.16375 6.46323 4.26526 6.07229C4.99252 5.15737 5.82715 4.36197 6.76924 3.68614Z"
            fill="#F0DD43" />
        <path fill-rule="evenodd" clip-rule="evenodd"
            d="M26.6738 4.92188C26.8577 5.07813 27.0274 5.24856 27.183 5.43319C26.4478 5.42552 25.7121 5.41129 24.9761 5.39058C24.3541 5.45305 23.7316 5.50985 23.1088 5.56102C22.8877 5.42902 22.6755 5.28696 22.4722 5.13492C22.7293 5.16241 22.984 5.13403 23.2361 5.0497C23.2808 5.05737 23.3233 5.07156 23.3634 5.09231C23.5373 5.01886 23.7141 5.00467 23.8939 5.0497C24.1745 4.99073 24.4574 4.94812 24.7427 4.92188C25.3852 4.94442 26.0288 4.94442 26.6738 4.92188Z"
            fill="#F17F66" />
        <path fill-rule="evenodd" clip-rule="evenodd"
            d="M9.90989 1.8534C9.94126 1.84782 9.96956 1.85493 9.99477 1.87471C9.40889 2.42028 8.83594 2.98131 8.27594 3.5578C8.11191 3.80236 7.92802 4.02961 7.72422 4.23956C6.9232 5.35704 6.30781 6.57142 5.87806 7.8827C5.8922 7.89689 5.90637 7.91112 5.9205 7.92531C5.84742 8.16921 5.79081 8.41779 5.75074 8.67098C5.50756 9.02899 5.28122 9.39829 5.0717 9.77884C5.03821 9.76678 5.0099 9.74547 4.98682 9.71492C5.08846 8.56071 5.36432 7.43155 5.8144 6.32744C6.52112 4.97884 7.39823 3.75737 8.4457 2.66299C8.47507 2.62308 8.46798 2.59467 8.42448 2.57777C8.88984 2.28027 9.38499 2.03882 9.90989 1.8534Z"
            fill="#F1D141" />
        <path fill-rule="evenodd" clip-rule="evenodd"
            d="M8.42429 2.57812C8.46779 2.59502 8.47488 2.62343 8.44551 2.66334C7.39804 3.75773 6.52092 4.97919 5.81421 6.32779C5.36413 7.4319 5.08827 8.56106 4.98662 9.71528C5.00971 9.74583 5.03802 9.76713 5.0715 9.77919C4.75562 10.3281 4.48684 10.8962 4.26514 11.4836C4.27176 10.9449 4.27176 10.3981 4.26514 9.8431C4.30304 9.67169 4.34548 9.50125 4.39246 9.33179C4.36873 9.30089 4.3546 9.2654 4.35002 9.22526C4.39483 9.05721 4.42314 8.88677 4.4349 8.71394C4.44784 8.46919 4.48324 8.21353 4.541 7.94697C4.77327 7.31826 5.01378 6.69334 5.26248 6.07213C5.72037 5.24491 6.23674 4.45662 6.81156 3.70729C6.80188 3.69029 6.7877 3.68319 6.76912 3.68598C7.27445 3.25016 7.82618 2.88088 8.42429 2.57812Z"
            fill="#F0D742" />
        <path fill-rule="evenodd" clip-rule="evenodd"
            d="M27.1832 5.43323C27.354 5.56354 27.4954 5.71979 27.6076 5.90194C26.9481 5.916 26.2903 5.88758 25.6341 5.81672C24.9917 5.86935 24.3481 5.92615 23.7031 5.98716C23.4922 5.86027 23.2941 5.71825 23.1089 5.56106C23.7317 5.50989 24.3542 5.45309 24.9763 5.39062C25.7123 5.41133 26.4479 5.42557 27.1832 5.43323Z"
            fill="#F1796A" />
        <path fill-rule="evenodd" clip-rule="evenodd"
            d="M27.6076 5.90163C27.7367 6.03112 27.8498 6.17318 27.9472 6.32772C27.3235 6.34771 26.701 6.31933 26.0798 6.2425C25.4593 6.31324 24.8368 6.37008 24.2124 6.41294C24.0292 6.28571 23.8594 6.14365 23.7031 5.98685C24.3481 5.92583 24.9918 5.86903 25.6342 5.81641C26.2903 5.88727 26.9482 5.91569 27.6076 5.90163Z"
            fill="#F1736E" />
        <path fill-rule="evenodd" clip-rule="evenodd"
            d="M27.9472 6.32741C28.1068 6.47352 28.2341 6.64396 28.3291 6.83873C27.2401 6.7377 26.1508 6.75189 25.0612 6.88134C24.9653 6.87997 24.8734 6.86574 24.7853 6.83873C24.7657 6.86404 24.7586 6.89246 24.7641 6.92395C24.5791 6.75231 24.3952 6.58187 24.2124 6.41263C24.8368 6.36976 25.4593 6.31292 26.0798 6.24219C26.701 6.31901 27.3234 6.34739 27.9472 6.32741Z"
            fill="#F16D71" />
        <path fill-rule="evenodd" clip-rule="evenodd"
            d="M28.329 6.8389C28.4912 7.02238 28.6327 7.22124 28.7534 7.43543C28.3544 7.3506 27.9513 7.33641 27.5439 7.39283C27.3913 7.38349 27.2428 7.35507 27.0983 7.30761C26.8807 7.32904 26.6685 7.36457 26.4617 7.41413C26.1916 7.42465 25.9228 7.44596 25.6553 7.47804C25.529 7.41059 25.4158 7.42478 25.3158 7.52065C25.1331 7.3229 24.9491 7.12408 24.764 6.92412C24.7585 6.89263 24.7656 6.86421 24.7853 6.8389C24.8733 6.86591 24.9653 6.88014 25.0611 6.88151C26.1507 6.75206 27.24 6.73787 28.329 6.8389Z"
            fill="#F16775" />
        <path fill-rule="evenodd" clip-rule="evenodd"
            d="M15.6393 6.79635C16.9368 6.74807 18.1959 6.93981 19.4165 7.37158C20.3633 7.93722 20.5543 8.69709 19.9894 9.65121C19.5917 10.1596 19.0753 10.3513 18.4403 10.2264C15.6975 9.34352 13.3845 9.98978 11.5013 12.1652C10.0865 14.0842 9.81769 16.1579 10.695 18.3862C11.8096 20.697 13.6487 21.9185 16.2122 22.0507C18.8755 21.9598 20.7712 20.71 21.8992 18.301C22.0692 17.7601 22.239 17.2204 22.4085 16.6818C22.9574 15.9195 23.6577 15.742 24.5093 16.1492C24.9642 16.4353 25.2046 16.8472 25.2308 17.3849C24.7838 20.1017 23.4115 22.2038 21.1141 23.6912C18.5524 25.1957 15.8645 25.4655 13.0504 24.5007C10.1303 23.2895 8.25584 21.1519 7.42707 18.088C6.6763 14.2554 7.80097 11.1094 10.8011 8.64987C12.2431 7.58258 13.8558 6.96474 15.6393 6.79635Z"
            fill="#FDFDFE" />
        <path fill-rule="evenodd" clip-rule="evenodd"
            d="M28.7531 7.43545C28.9157 7.64803 29.0571 7.87527 29.1775 8.1172C28.5762 8.0933 27.975 8.06492 27.3738 8.03198C26.9491 8.08214 26.5247 8.08214 26.1006 8.03198C25.9944 8.02508 25.9024 8.0535 25.8247 8.1172C25.6554 7.92009 25.4856 7.72123 25.3154 7.52067C25.4155 7.42479 25.5287 7.41061 25.655 7.47806C25.9225 7.44597 26.1913 7.42467 26.4613 7.41414C26.6681 7.36459 26.8803 7.32905 27.0979 7.30762C27.2424 7.35508 27.391 7.38351 27.5435 7.39284C27.9509 7.33642 28.3541 7.35061 28.7531 7.43545Z"
            fill="#F16079" />
        <path fill-rule="evenodd" clip-rule="evenodd"
            d="M4.26527 6.07227C4.16376 6.46321 4.03644 6.8467 3.88331 7.22273C3.979 7.53055 4.0851 7.81463 4.20161 8.07493C4.23349 8.30856 4.31132 8.52161 4.43503 8.71408C4.42328 8.8869 4.39497 9.05734 4.35015 9.22539C4.35473 9.26553 4.36887 9.30103 4.39259 9.33192C4.34561 9.50138 4.30317 9.67182 4.26527 9.84324C4.27189 10.3982 4.27189 10.945 4.26527 11.4837C4.22038 11.6447 4.16379 11.801 4.09551 11.9524C3.89591 11.4168 3.69078 10.8913 3.48012 10.3759C3.44906 10.2185 3.4137 10.0622 3.37402 9.90715C3.41265 9.53027 3.45509 9.1539 3.50134 8.77799C3.49773 8.73082 3.48358 8.68821 3.4589 8.65016C3.51615 8.419 3.56566 8.18465 3.60745 7.9471C3.69374 7.75804 3.77154 7.56629 3.84087 7.37187C3.74887 7.21472 3.67813 7.05135 3.62867 6.88185C3.81029 6.5884 4.02249 6.31851 4.26527 6.07227Z"
            fill="#EBDD46" />
        <path fill-rule="evenodd" clip-rule="evenodd"
            d="M3.62856 6.88184C3.67803 7.05134 3.74876 7.2147 3.84076 7.37185C3.77144 7.56628 3.69363 7.75802 3.60734 7.94708C3.56556 8.18463 3.51604 8.41899 3.4588 8.65014C3.48347 8.6882 3.49762 8.73081 3.50124 8.77797C3.45498 9.15388 3.41254 9.53025 3.37392 9.90714C3.41359 10.0622 3.44895 10.2184 3.48002 10.3758C3.69067 10.8913 3.8958 11.4168 4.0954 11.9524C3.87875 12.6378 3.70899 13.3338 3.58612 14.0403C3.3206 13.5169 3.09426 12.9985 2.90707 12.485C2.77062 11.8877 2.61501 11.2841 2.44023 10.6741C2.44911 10.6491 2.46326 10.6278 2.48267 10.6102C2.36552 10.1688 2.28064 9.70717 2.22803 9.22538C2.59817 8.38217 3.06501 7.60096 3.62856 6.88184Z"
            fill="#E5E24B" />
        <path fill-rule="evenodd" clip-rule="evenodd"
            d="M29.1775 8.11748C29.4071 8.45039 29.6052 8.8055 29.7717 9.18273C29.3024 9.20079 28.8355 9.15818 28.3711 9.0549C27.9339 9.06845 27.4953 9.07556 27.0555 9.0762C26.8997 9.11455 26.7441 9.15009 26.5886 9.18273C26.3449 8.82174 26.0903 8.46667 25.8247 8.11748C25.9024 8.05378 25.9944 8.02536 26.1006 8.03226C26.5247 8.08241 26.9491 8.08241 27.3738 8.03226C27.9749 8.0652 28.5762 8.09358 29.1775 8.11748Z"
            fill="#F15A7D" />
        <path fill-rule="evenodd" clip-rule="evenodd"
            d="M29.7719 9.18252C31.6422 13.2136 31.819 17.3184 30.3024 21.4968C30.0593 22.1125 29.7834 22.7091 29.4748 23.2864C29.4437 23.2277 29.4153 23.1637 29.3899 23.0946C29.3657 22.1842 29.2171 21.2397 28.9443 20.2611C28.8056 19.9143 28.6924 19.5593 28.6048 19.1958C28.4967 18.9789 28.3906 18.7658 28.2865 18.5567C28.9166 15.2073 28.3508 12.0825 26.5889 9.18252C26.7443 9.14988 26.8999 9.11434 27.0557 9.07599C27.4955 9.07535 27.9341 9.06824 28.3714 9.05469C28.8357 9.15797 29.3026 9.20058 29.7719 9.18252Z"
            fill="#F05480" />
        <path fill-rule="evenodd" clip-rule="evenodd"
            d="M2.22827 9.22461C2.28089 9.7064 2.36577 10.168 2.48292 10.6094C2.4635 10.6271 2.44936 10.6484 2.44048 10.6733C2.61525 11.2833 2.77087 11.8869 2.90732 12.4843C3.0945 12.9977 3.32085 13.5161 3.58636 14.0395C3.52285 14.5917 3.48041 15.1456 3.45904 15.7013C3.07374 15.0492 2.7908 14.3603 2.61024 13.6347C2.56264 13.5039 2.49191 13.3903 2.39804 13.2939C2.42174 13.263 2.43588 13.2275 2.44048 13.1873C2.32844 12.8482 2.24356 12.5002 2.18583 12.1434C2.19998 12.1292 2.21413 12.115 2.22827 12.1008C2.1529 11.6184 2.08217 11.1354 2.01607 10.652C2.03402 10.532 2.04817 10.4113 2.05851 10.2899C2.02202 10.1056 1.99373 9.93513 1.97363 9.77854C2.02501 9.5761 2.10989 9.39147 2.22827 9.22461Z"
            fill="#DDE54F" />
        <path fill-rule="evenodd" clip-rule="evenodd"
            d="M1.97327 9.7793C1.99337 9.93589 2.02166 10.1063 2.05815 10.2906C2.04781 10.4121 2.03366 10.5328 2.01571 10.6528C2.08181 11.1362 2.15254 11.6191 2.22791 12.1015C2.21377 12.1157 2.19962 12.13 2.18547 12.1441C2.2432 12.501 2.32808 12.849 2.44011 13.1881C2.43552 13.2282 2.42138 13.2637 2.39767 13.2946C2.49154 13.391 2.56228 13.5047 2.60988 13.6355C2.79044 14.3611 3.07338 15.05 3.45868 15.7021C3.47006 16.2995 3.49835 16.896 3.54356 17.4917C3.55286 17.5417 3.53871 17.5844 3.50112 17.6195C2.72372 16.1671 2.172 14.6118 1.84595 12.9537C1.75425 12.2177 1.66937 11.4721 1.59131 10.7167C1.68617 10.3878 1.81349 10.0753 1.97327 9.7793Z"
            fill="#D8E853" />
        <path fill-rule="evenodd" clip-rule="evenodd"
            d="M1.59148 10.7168C1.66954 11.4721 1.75442 12.2178 1.84612 12.9538C2.17217 14.6119 2.72389 16.1672 3.50129 17.6196C3.53888 17.5844 3.55302 17.5418 3.54373 17.4918C3.67463 18.3869 3.88683 19.2675 4.18034 20.1336C4.11121 20.0856 4.04755 20.0288 3.98935 19.9631C3.60408 19.3683 3.23627 18.7576 2.88591 18.1309C2.66303 17.5333 2.40839 16.951 2.12198 16.3839C1.63001 14.9007 1.34 13.3668 1.25195 11.782C1.33228 11.4124 1.44546 11.0573 1.59148 10.7168Z"
            fill="#CCEB5A" />
        <path fill-rule="evenodd" clip-rule="evenodd"
            d="M1.25183 11.7812C1.33988 13.366 1.62989 14.9 2.12186 16.3831C2.40827 16.9502 2.66291 17.5325 2.88578 18.1301C3.23615 18.7568 3.60396 19.3676 3.98923 19.9623C4.04743 20.028 4.11109 20.0848 4.18021 20.1328C4.25088 20.3314 4.32163 20.5302 4.39242 20.7293C4.40303 20.845 4.41011 20.9586 4.41364 21.0702C4.14361 20.7566 3.87482 20.4442 3.60727 20.1328C2.05386 17.7342 1.22627 15.1208 1.12451 12.2926C1.14142 12.111 1.18386 11.9406 1.25183 11.7812Z"
            fill="#C0EE5F" />
        <path fill-rule="evenodd" clip-rule="evenodd"
            d="M1.12451 12.293C1.22627 15.1212 2.05386 17.7346 3.60727 20.1332C3.87482 20.4446 4.14361 20.757 4.41363 21.0706C4.41011 20.959 4.40302 20.8454 4.39241 20.7297C4.59163 21.1725 4.80383 21.6128 5.02902 22.0506C5.03458 22.088 5.02045 22.1164 4.98658 22.1358C4.89737 22.0632 4.79836 22.0064 4.6895 21.9654C4.64769 22.0622 4.6123 22.1616 4.5834 22.2637C4.02699 21.7048 3.53186 21.0941 3.09798 20.4315C2.10084 18.6784 1.42179 16.8036 1.06085 14.807C0.975816 14.2199 0.940446 13.6375 0.954749 13.0599C0.985072 12.7936 1.04166 12.5379 1.12451 12.293Z"
            fill="#B5EF65" />
        <path fill-rule="evenodd" clip-rule="evenodd"
            d="M0.954958 13.0596C0.940655 13.6371 0.976025 14.2195 1.06106 14.8066C1.422 16.8032 2.10105 18.678 3.09819 20.4311C3.53207 21.0937 4.0272 21.7045 4.5836 22.2633C4.61251 22.1612 4.6479 22.0618 4.68971 21.965C4.79857 22.0061 4.89758 22.0629 4.98679 22.1355C5.02066 22.116 5.03479 22.0876 5.02923 22.0502C5.23999 22.3902 5.45219 22.7311 5.66583 23.0729C5.66329 23.096 5.64915 23.1102 5.62339 23.1155C5.48555 23.0667 5.34409 23.0312 5.19899 23.009C5.03071 22.9584 4.87513 22.8589 4.73215 22.7107C4.6628 22.6897 4.59205 22.6826 4.51994 22.6894C4.50581 22.661 4.49164 22.6326 4.4775 22.6042C4.63173 22.3523 4.56807 22.2244 4.28652 22.2207C3.71869 21.6225 3.25184 20.955 2.88599 20.218C2.73872 20.0701 2.64677 19.9068 2.61013 19.728C2.06913 18.7197 1.65179 17.6615 1.35814 16.5536C1.13935 15.6175 0.962516 14.6801 0.827637 13.7413C0.852545 13.5054 0.894985 13.2782 0.954958 13.0596Z"
            fill="#A6EF6E" />
        <path fill-rule="evenodd" clip-rule="evenodd"
            d="M18.1431 15.0201C19.3005 14.9682 20.0573 15.4938 20.4136 16.5967C20.5313 17.7601 20.0432 18.5341 18.9494 18.9189C17.703 19.0869 16.9038 18.5685 16.5515 17.3636C16.4384 16.136 16.9689 15.3548 18.1431 15.0201Z"
            fill="#FDFDFD" />
        <path fill-rule="evenodd" clip-rule="evenodd"
            d="M0.70025 15.4033C0.718414 15.9723 0.75378 16.5404 0.806351 17.1077C0.90084 17.4194 0.992795 17.7319 1.08221 18.0451C1.07333 18.0701 1.05918 18.0914 1.03977 18.109C1.15496 18.4529 1.25399 18.7938 1.33685 19.1317C1.32271 19.1459 1.30856 19.1601 1.29441 19.1743C1.36948 19.271 1.39777 19.3704 1.37929 19.4726C1.44825 19.5089 1.4624 19.5515 1.42174 19.6004C1.49158 19.6666 1.50573 19.7376 1.46418 19.8134C1.62961 20.0139 1.72157 20.2483 1.74004 20.5165C1.98121 21.0487 2.23586 21.5884 2.50396 22.1357C2.61766 22.3356 2.75205 22.5202 2.90715 22.6896C3.06023 22.7586 3.20169 22.8439 3.33155 22.9453C3.36517 23.1165 3.41468 23.2869 3.48009 23.4566C3.49424 23.4424 3.50839 23.4282 3.52253 23.414C3.54524 23.5444 3.55939 23.6722 3.56497 23.7975C3.24316 23.6214 2.96023 23.3941 2.71616 23.1157C2.68571 23.1562 2.65034 23.1633 2.61006 23.137C1.97413 22.0102 1.50021 20.8242 1.18831 19.5791C1.15984 19.547 1.12448 19.5328 1.08221 19.5365C0.762145 18.1699 0.634824 16.7921 0.70025 15.4033Z"
            fill="#65F78C" />
        <path fill-rule="evenodd" clip-rule="evenodd"
            d="M0.827584 13.8691C0.969415 16.4025 1.64846 18.7531 2.86472 20.9211C3.13264 21.2951 3.38728 21.6715 3.62864 22.0502C3.48201 21.9867 3.36177 21.8873 3.2679 21.752C3.26083 21.7662 3.25376 21.7804 3.24668 21.7946C3.43877 22.0371 3.62268 22.2857 3.79841 22.5402C3.57597 22.4812 3.38499 22.3605 3.22546 22.1781C3.20854 22.1878 3.20147 22.202 3.20424 22.2207C3.05713 22.0119 2.90859 21.7989 2.75862 21.5815C2.38906 20.7756 2.01418 19.9731 1.63395 19.1741C1.65336 19.1564 1.66751 19.1351 1.67639 19.1102C1.14306 17.6644 0.831836 16.1731 0.742703 14.6361C0.737937 14.3708 0.766228 14.1152 0.827584 13.8691Z"
            fill="#8DF476" />
        <path fill-rule="evenodd" clip-rule="evenodd"
            d="M0.74281 14.6367C0.831943 16.1737 1.14317 17.665 1.6765 19.1108C1.66761 19.1357 1.65347 19.157 1.63406 19.1747C2.01428 19.9737 2.38917 20.7762 2.75873 21.5821C2.90869 21.7995 3.05723 22.0125 3.20435 22.2213C3.25717 22.461 3.29961 22.7024 3.33167 22.9456C3.20182 22.8442 3.06035 22.759 2.90727 22.69C2.75217 22.5206 2.61778 22.336 2.50408 22.1361C2.23598 21.5888 1.98133 21.0491 1.74016 20.5169C1.72169 20.2486 1.62973 20.0143 1.4643 19.8138C1.50585 19.738 1.4917 19.667 1.42186 19.6008C1.46252 19.5519 1.44837 19.5093 1.37942 19.4729C1.39789 19.3708 1.3696 19.2714 1.29453 19.1747C1.30868 19.1605 1.32283 19.1462 1.33697 19.1321C1.25411 18.7942 1.15508 18.4533 1.03989 18.1094C1.0593 18.0918 1.07345 18.0705 1.08233 18.0455C0.992915 17.7323 0.90096 17.4198 0.806471 17.1081C0.7539 16.5408 0.718534 15.9727 0.70037 15.4037C0.686666 15.1399 0.700811 14.8843 0.74281 14.6367Z"
            fill="#74F681" />
        <path fill-rule="evenodd" clip-rule="evenodd"
            d="M28.2863 18.5566C28.3904 18.7658 28.4965 18.9788 28.6046 19.1958C28.6922 19.5592 28.8054 19.9143 28.9441 20.261C29.2169 21.2397 29.3655 22.1842 29.3897 23.0946C29.4152 23.1637 29.4435 23.2276 29.4746 23.2863C29.3344 23.5682 29.1788 23.838 29.0078 24.0959C28.97 24.0635 28.9417 24.0209 28.9229 23.9681C28.9078 23.7807 28.9078 23.6031 28.9229 23.4355C28.8796 23.1554 28.823 22.8642 28.7531 22.562C28.6155 21.6068 28.3467 20.6836 27.9468 19.7923C28.0543 19.3742 28.1675 18.9623 28.2863 18.5566Z"
            fill="#EC5486" />
        <path fill-rule="evenodd" clip-rule="evenodd"
            d="M0.827637 13.7412C0.962516 14.6799 1.13935 15.6174 1.35814 16.5535C1.65179 17.6614 2.06913 18.7196 2.61013 19.7279C2.64677 19.9066 2.73872 20.07 2.88599 20.2179C3.25184 20.9548 3.71869 21.6224 4.28652 22.2206C4.56807 22.2243 4.63173 22.3522 4.4775 22.6041C4.34127 22.4996 4.1998 22.4357 4.0531 22.4123C3.88778 22.3095 3.74631 22.1888 3.6287 22.0501C3.38733 21.6714 3.13269 21.295 2.86477 20.921C1.64851 18.753 0.969468 16.4024 0.827637 13.869C0.827637 13.8264 0.827637 13.7838 0.827637 13.7412Z"
            fill="#9BF270" />
        <path fill-rule="evenodd" clip-rule="evenodd"
            d="M27.9469 19.792C28.3468 20.6833 28.6156 21.6065 28.7532 22.5616C28.8231 22.8639 28.8797 23.1551 28.923 23.4351C28.9079 23.6028 28.9079 23.7803 28.923 23.9678C28.9418 24.0206 28.9701 24.0632 29.0079 24.0956C28.799 24.4611 28.5585 24.802 28.2864 25.1182C28.2657 24.9381 28.2375 24.7605 28.2015 24.5856C28.2064 24.5316 28.2206 24.4747 28.2439 24.4152C28.1937 24.0804 28.1229 23.7395 28.0317 23.3925C27.9887 22.7836 27.8755 22.18 27.6922 21.5816C27.7011 21.5566 27.7153 21.5353 27.7347 21.5177C27.6472 21.3279 27.5764 21.1362 27.5225 20.9425C27.6649 20.5558 27.8063 20.1723 27.9469 19.792Z"
            fill="#E6558E" />
        <path fill-rule="evenodd" clip-rule="evenodd"
            d="M27.5227 20.9424C27.5767 21.1361 27.6474 21.3278 27.7349 21.5176C27.7155 21.5353 27.7013 21.5566 27.6925 21.5815C27.8757 22.1799 27.9889 22.7836 28.032 23.3924C28.1232 23.7395 28.1939 24.0803 28.2442 24.4151C28.2208 24.4747 28.2067 24.5315 28.2018 24.5855C28.2377 24.7604 28.266 24.938 28.2866 25.1181C28.1934 25.2774 28.0802 25.4194 27.9471 25.5442C27.9218 24.8597 27.8086 24.1567 27.6076 23.4351C27.6206 23.3634 27.6348 23.2924 27.65 23.222C27.6329 23.1592 27.6046 23.1024 27.5651 23.0516C27.5845 23.0339 27.5987 23.0126 27.6076 22.9877C27.5254 22.7653 27.4689 22.5452 27.4378 22.3272C27.4572 22.3096 27.4714 22.2883 27.4803 22.2633C27.3962 22.0108 27.3254 21.7552 27.2681 21.4963C27.3429 21.3036 27.4278 21.119 27.5227 20.9424Z"
            fill="#DE5598" />
        <path fill-rule="evenodd" clip-rule="evenodd"
            d="M27.268 21.4971C27.3254 21.7559 27.3962 22.0116 27.4802 22.264C27.4714 22.289 27.4572 22.3103 27.4378 22.328C27.4688 22.5459 27.5254 22.7661 27.6076 22.9884C27.5987 23.0134 27.5845 23.0347 27.5651 23.0523C27.6046 23.1032 27.6329 23.16 27.65 23.2228C27.6347 23.2932 27.6206 23.3641 27.6076 23.4358C27.8086 24.1574 27.9217 24.8605 27.9471 25.545C27.7794 25.8104 27.5813 26.0518 27.3529 26.2694C27.3218 25.9327 27.2794 25.5989 27.2256 25.268C27.2397 25.2539 27.2539 25.2396 27.268 25.2254C27.1822 24.9483 27.1115 24.6784 27.0558 24.4158C27.0558 24.3164 27.0558 24.217 27.0558 24.1176C27.0054 23.9323 26.9205 23.7477 26.8012 23.5636C26.8023 23.4134 26.8164 23.2642 26.8436 23.1162C26.8235 22.9197 26.7811 22.7209 26.7163 22.5197C26.9004 22.1785 27.0843 21.8376 27.268 21.4971Z"
            fill="#D555A2" />
        <path fill-rule="evenodd" clip-rule="evenodd"
            d="M3.6286 22.0502C3.74622 22.1889 3.88768 22.3096 4.05301 22.4124C4.1997 22.4358 4.34118 22.4997 4.47741 22.6042C4.49154 22.6326 4.50572 22.6609 4.51985 22.6894C4.4783 22.927 4.4783 23.1543 4.51985 23.3711C4.46633 23.4558 4.48047 23.5339 4.56229 23.6055C4.50317 23.7198 4.4466 23.7269 4.39253 23.6268C4.27866 23.5838 4.16549 23.5411 4.05301 23.499C3.80487 23.3246 3.56438 23.14 3.33152 22.945C3.29947 22.7018 3.25703 22.4603 3.2042 22.2207C3.20142 22.202 3.2085 22.1878 3.22542 22.1781C3.38494 22.3605 3.57593 22.4812 3.79836 22.5402C3.62264 22.2857 3.43873 22.0371 3.24664 21.7946C3.25372 21.7804 3.26079 21.7661 3.26786 21.752C3.36173 21.8873 3.48197 21.9867 3.6286 22.0502Z"
            fill="#86F082" />
        <path fill-rule="evenodd" clip-rule="evenodd"
            d="M4.51993 22.69C4.59204 22.6832 4.66279 22.6903 4.73213 22.7113C4.87511 22.8596 5.0307 22.959 5.19898 23.0096C5.34408 23.0318 5.48553 23.0673 5.62338 23.1161C5.64914 23.1108 5.66327 23.0966 5.66582 23.0735C5.94537 23.4681 6.24246 23.8516 6.55707 24.224C6.51331 24.2559 6.46378 24.2843 6.40853 24.3092C6.17723 24.1892 5.92967 24.1111 5.66582 24.0748C5.61069 23.9515 5.53998 23.8378 5.45362 23.7339C5.33767 23.7164 5.22448 23.6879 5.1141 23.6487C4.91717 23.516 4.7191 23.4237 4.51993 23.3718C4.47838 23.1549 4.47838 22.9277 4.51993 22.69Z"
            fill="#98E581" />
        <path fill-rule="evenodd" clip-rule="evenodd"
            d="M1.08203 19.5367C1.1243 19.533 1.15966 19.5473 1.18813 19.5793C1.50003 20.8245 1.97395 22.0105 2.60988 23.1372C2.65016 23.1635 2.68553 23.1564 2.71598 23.1159C2.96005 23.3943 3.24298 23.6216 3.56479 23.7977C3.5592 23.6725 3.54506 23.5446 3.52235 23.4142C3.5082 23.4284 3.49405 23.4426 3.47991 23.4568C3.4145 23.2871 3.36499 23.1167 3.33137 22.9455C3.56423 23.1405 3.80472 23.3251 4.05285 23.4994C4.19696 23.7081 4.36674 23.8999 4.56214 24.0746C4.54274 24.0923 4.52857 24.1136 4.5197 24.1386C4.57665 24.296 4.63322 24.4523 4.68946 24.6073C4.74013 24.7084 4.75426 24.8078 4.7319 24.9055C4.20196 24.695 3.67853 24.4677 3.16161 24.2238C3.13586 24.2291 3.12171 24.2433 3.11917 24.2664C2.16139 22.8178 1.48235 21.2413 1.08203 19.5367Z"
            fill="#68F49B" />
        <path fill-rule="evenodd" clip-rule="evenodd"
            d="M26.3765 23.0303C26.4501 23.3003 26.4855 23.5844 26.4826 23.8825C26.7115 24.3234 26.8317 24.7851 26.8433 25.2673C26.8986 25.3616 26.941 25.461 26.9706 25.5656C26.9706 25.7928 26.9706 26.0201 26.9706 26.2473C26.9989 26.3041 27.0272 26.361 27.0555 26.4178C27.0182 26.4755 27.004 26.5395 27.0131 26.6095C26.815 26.8367 26.6028 27.0498 26.3765 27.2486C26.3343 26.9616 26.306 26.6846 26.2916 26.4178C26.3407 26.0279 26.3973 25.6515 26.4614 25.2886C26.35 24.7414 26.1519 24.2159 25.8672 23.712C26.022 23.4717 26.1917 23.2445 26.3765 23.0303Z"
            fill="#CA55B2" />
        <path fill-rule="evenodd" clip-rule="evenodd"
            d="M26.716 22.5195C26.7808 22.7207 26.8232 22.9196 26.8433 23.1161C26.8161 23.2641 26.8019 23.4132 26.8009 23.5635C26.9202 23.7475 27.005 23.9321 27.0555 24.1174C27.0555 24.2168 27.0555 24.3163 27.0555 24.4157C27.1112 24.6782 27.1819 24.9481 27.2677 25.2253C27.2536 25.2394 27.2394 25.2537 27.2253 25.2679C27.2791 25.5987 27.3215 25.9325 27.3526 26.2692C27.2536 26.397 27.1404 26.5107 27.0131 26.6101C27.004 26.54 27.0182 26.4761 27.0555 26.4183C27.0272 26.3615 26.9989 26.3047 26.9706 26.2479C26.9706 26.0207 26.9706 25.7934 26.9706 25.5661C26.941 25.4616 26.8986 25.3622 26.8433 25.2679C26.8317 24.7857 26.7114 24.324 26.4826 23.883C26.4855 23.5849 26.4501 23.3009 26.3765 23.0308C26.4692 22.8442 26.5823 22.6737 26.716 22.5195Z"
            fill="#D055AB" />
        <path fill-rule="evenodd" clip-rule="evenodd"
            d="M4.52007 23.3711C4.71924 23.423 4.91731 23.5153 5.11423 23.6481C5.22462 23.6873 5.33781 23.7157 5.45375 23.7333C5.54012 23.8372 5.61082 23.9508 5.66595 24.0742C5.92981 24.1104 6.17736 24.1886 6.40866 24.3085C6.46392 24.2836 6.51345 24.2552 6.5572 24.2233C6.65498 24.3358 6.75404 24.4495 6.85428 24.5642C6.76567 24.5797 6.66665 24.5797 6.5572 24.5642C6.5572 24.6352 6.5572 24.7062 6.5572 24.7772C6.21721 24.7638 5.88478 24.707 5.55985 24.6068C5.53863 24.621 5.51741 24.6352 5.49619 24.6494C5.53053 24.7163 5.5447 24.7874 5.53863 24.8624C5.49191 24.9092 5.43533 24.9163 5.36887 24.8837C5.15922 24.7543 4.93288 24.662 4.68983 24.6068C4.63359 24.4518 4.57702 24.2955 4.52007 24.1381C4.52894 24.1131 4.54311 24.0918 4.56251 24.0742C4.36711 23.8994 4.19733 23.7076 4.05322 23.4989C4.16571 23.5411 4.27888 23.5837 4.39275 23.6268C4.44681 23.7269 4.50339 23.7198 4.56251 23.6054C4.48068 23.5338 4.46655 23.4557 4.52007 23.3711Z"
            fill="#83E891" />
        <path fill-rule="evenodd" clip-rule="evenodd"
            d="M4.68943 24.6071C4.93249 24.6623 5.15882 24.7546 5.36848 24.8841C5.43494 24.9167 5.49151 24.9096 5.53824 24.8628C5.68729 24.8896 5.70142 24.9535 5.58068 25.0545C5.59604 25.1156 5.62431 25.1654 5.66556 25.2037C5.63869 25.2199 5.61039 25.234 5.58068 25.2463C5.61009 25.2896 5.63836 25.3323 5.66556 25.3741C5.42904 25.3677 5.20266 25.3251 4.98651 25.2463C5.00956 25.3544 5.052 25.4539 5.11384 25.5445C4.62399 25.4042 4.14299 25.248 3.67086 25.0758C3.45562 24.8285 3.27171 24.5586 3.11914 24.2662C3.12169 24.2431 3.13583 24.2289 3.16158 24.2236C3.6785 24.4676 4.20193 24.6949 4.73187 24.9054C4.75424 24.8077 4.74011 24.7082 4.68943 24.6071Z"
            fill="#65F0A8" />
        <path fill-rule="evenodd" clip-rule="evenodd"
            d="M6.85418 24.5645C7.03808 24.7207 7.20784 24.8911 7.36347 25.0758C7.36347 25.1184 7.36347 25.161 7.36347 25.2036C7.10106 25.2178 6.83933 25.1895 6.57832 25.1184C6.5849 25.2169 6.5849 25.3163 6.57832 25.4167C6.27992 25.333 5.9758 25.2621 5.66586 25.2036C5.6246 25.1653 5.59634 25.1156 5.58097 25.0545C5.70172 24.9535 5.68758 24.8896 5.53853 24.8627C5.5446 24.7876 5.53043 24.7166 5.49609 24.6497C5.51731 24.6355 5.53853 24.6213 5.55975 24.6071C5.88468 24.7073 6.21711 24.7641 6.5571 24.7775C6.5571 24.7065 6.5571 24.6355 6.5571 24.5645C6.66656 24.58 6.76557 24.58 6.85418 24.5645Z"
            fill="#81E19B" />
        <path fill-rule="evenodd" clip-rule="evenodd"
            d="M24.4245 25.2891C24.6422 25.5172 24.8049 25.787 24.9125 26.0986C25.0142 26.1726 25.0496 26.2578 25.0186 26.3543C24.9188 26.8011 24.7491 27.213 24.5094 27.59C24.4753 27.5281 24.4541 27.4571 24.4457 27.3769C24.4294 27.4006 24.4082 27.4148 24.382 27.4196C24.3825 27.3549 24.4108 27.3052 24.4669 27.2704C24.4154 27.1702 24.38 27.0637 24.3608 26.9508C24.3216 26.9275 24.2862 26.8992 24.2547 26.8656C24.3243 26.6347 24.3809 26.4003 24.4245 26.1626C24.3529 25.9426 24.2398 25.7509 24.085 25.5873C24.1719 25.4574 24.2851 25.358 24.4245 25.2891Z"
            fill="#A657D2" />
        <path fill-rule="evenodd" clip-rule="evenodd"
            d="M7.36355 25.2034C7.32565 25.3716 7.3186 25.542 7.34233 25.7147C7.12529 25.6591 6.906 25.6591 6.6845 25.7147C6.72945 25.8212 6.68701 25.878 6.55718 25.8851C6.34133 25.8181 6.12204 25.7613 5.89936 25.7147C5.87814 25.7218 5.85692 25.7289 5.8357 25.736C5.86761 25.7646 5.88179 25.8001 5.87814 25.8425C5.81405 25.7856 5.7433 25.7359 5.66594 25.6934C5.70838 25.6792 5.75082 25.665 5.79326 25.6508C5.75481 25.5562 5.71237 25.4638 5.66594 25.3738C5.63873 25.332 5.61047 25.2894 5.58105 25.246C5.61076 25.2338 5.63907 25.2196 5.66594 25.2034C5.97588 25.2618 6.28 25.3328 6.5784 25.4164C6.58498 25.316 6.58498 25.2166 6.5784 25.1182C6.83941 25.1892 7.10114 25.2176 7.36355 25.2034Z"
            fill="#77E1A7" />
        <path fill-rule="evenodd" clip-rule="evenodd"
            d="M25.8675 23.7119C26.1523 24.2158 26.3503 24.7413 26.4617 25.2885C26.3976 25.6514 26.341 26.0278 26.2919 26.4176C26.3063 26.6845 26.3346 26.9615 26.3768 27.2485C26.0422 27.601 25.6744 27.9135 25.2734 28.1859C25.316 27.9694 25.408 27.7564 25.5492 27.5468C25.5947 27.3856 25.63 27.2222 25.6553 27.0568C25.5886 26.6761 25.5179 26.2855 25.4431 25.885C25.4685 25.577 25.4755 25.2503 25.4643 24.905C25.4121 24.7412 25.3201 24.6134 25.1885 24.5215C25.4161 24.2506 25.6424 23.9807 25.8675 23.7119Z"
            fill="#C156BE" />
        <path fill-rule="evenodd" clip-rule="evenodd"
            d="M3.6709 25.0762C4.14302 25.2484 4.62402 25.4046 5.11387 25.5449C5.21955 25.6723 5.33273 25.793 5.45339 25.9071C5.434 25.9247 5.41982 25.946 5.41095 25.971C5.4573 26.0815 5.52804 26.1738 5.62315 26.2479C5.21025 26.1906 4.80002 26.0983 4.39238 25.971C4.12182 25.6978 3.88133 25.3995 3.6709 25.0762Z"
            fill="#5DF3B6" />
        <path fill-rule="evenodd" clip-rule="evenodd"
            d="M7.3633 25.0762C7.61349 25.2796 7.854 25.4927 8.08479 25.7153C8.10571 25.8136 8.11984 25.913 8.12723 26.0136C7.90658 26.0343 7.69438 26.0059 7.49062 25.9284C7.45633 25.9415 7.42802 25.9628 7.40574 25.9923C7.43672 26.0841 7.46503 26.1764 7.49062 26.2692C7.30618 26.2763 7.12228 26.2692 6.9389 26.2479C6.64814 26.1597 6.35106 26.0958 6.04765 26.0562C6.00126 25.9774 5.94469 25.9064 5.87789 25.8431C5.88154 25.8007 5.86736 25.7652 5.83545 25.7366C5.85667 25.7295 5.87789 25.7224 5.89911 25.7153C6.12179 25.7619 6.34108 25.8187 6.55693 25.8858C6.68676 25.8786 6.7292 25.8218 6.68426 25.7153C6.90575 25.6598 7.12504 25.6598 7.34208 25.7153C7.31836 25.5426 7.3254 25.3722 7.3633 25.204C7.3633 25.1614 7.3633 25.1188 7.3633 25.0762Z"
            fill="#77DCAD" />
        <path fill-rule="evenodd" clip-rule="evenodd"
            d="M25.1882 24.5215C25.3199 24.6134 25.4118 24.7412 25.4641 24.905C25.4753 25.2503 25.4682 25.577 25.4429 25.885C25.5177 26.2854 25.5884 26.6761 25.6551 27.0568C25.6298 27.2222 25.5944 27.3855 25.549 27.5468C25.4077 27.7564 25.3158 27.9694 25.2731 28.1859C25.0871 28.3442 24.889 28.4862 24.679 28.612C24.8884 28.2104 25.0864 27.7985 25.2731 27.3763C25.22 27.0342 25.1351 26.6933 25.0185 26.3537C25.0494 26.2572 25.0141 26.172 24.9124 26.098C24.8048 25.7864 24.6421 25.5166 24.4243 25.2885C24.6648 25.0186 24.9195 24.763 25.1882 24.5215Z"
            fill="#B457CA" />
        <path fill-rule="evenodd" clip-rule="evenodd"
            d="M5.66579 25.3739C5.71222 25.4639 5.75466 25.5563 5.79311 25.6509C5.75067 25.6651 5.70823 25.6793 5.66579 25.6935C5.74316 25.736 5.8139 25.7857 5.87799 25.8426C5.94479 25.9059 6.00136 25.9769 6.04775 26.0557C6.1446 26.2379 6.25779 26.4084 6.38727 26.567C6.39092 26.6094 6.37675 26.6449 6.34483 26.6735C6.23029 26.6549 6.11714 26.6619 6.00531 26.6948C6.04737 26.7725 6.10394 26.8364 6.17507 26.8866C6.16094 26.9008 6.14676 26.915 6.13263 26.9292C5.82706 26.902 5.52293 26.8523 5.22016 26.78C5.1877 26.783 5.16648 26.7972 5.1565 26.8227C4.88735 26.5524 4.63271 26.2683 4.39258 25.9705C4.80022 26.0978 5.21045 26.1901 5.62335 26.2474C5.52824 26.1733 5.45749 26.081 5.41115 25.9705C5.42002 25.9455 5.43419 25.9242 5.45359 25.9065C5.33293 25.7925 5.21974 25.6718 5.11406 25.5444C5.05223 25.4537 5.00979 25.3542 4.98674 25.2461C5.20289 25.325 5.42927 25.3676 5.66579 25.3739Z"
            fill="#5FEFBE" />
        <path fill-rule="evenodd" clip-rule="evenodd"
            d="M8.08481 25.7148C8.35358 25.9137 8.6224 26.1125 8.89117 26.3114C8.88782 26.3723 8.90195 26.4292 8.93361 26.4818C8.91133 26.5113 8.88302 26.5326 8.84873 26.5457C8.66535 26.567 8.48145 26.5741 8.29701 26.567C8.29582 26.6558 8.32413 26.7339 8.38189 26.8014C8.16094 26.8604 7.93461 26.8674 7.70284 26.8227C7.6127 26.6451 7.54195 26.4605 7.49064 26.2688C7.46505 26.1759 7.43674 26.0836 7.40576 25.9918C7.42804 25.9623 7.45635 25.941 7.49064 25.9279C7.6944 26.0054 7.9066 26.0338 8.12725 26.0131C8.11986 25.9125 8.10573 25.8131 8.08481 25.7148Z"
            fill="#72D5B8" />
        <path fill-rule="evenodd" clip-rule="evenodd"
            d="M6.04785 26.0557C6.35126 26.0952 6.64834 26.1592 6.9391 26.2474C7.12248 26.2687 7.30638 26.2758 7.49082 26.2687C7.54213 26.4604 7.61288 26.645 7.70302 26.8226C7.51849 26.8052 7.3346 26.7981 7.1513 26.8013C7.21309 26.8757 7.26967 26.9538 7.32106 27.0357C7.13937 27.0536 6.95544 27.0607 6.76934 27.057C6.85269 27.1188 6.90926 27.1969 6.9391 27.2913C6.76484 27.2109 6.59508 27.1186 6.42981 27.0144C6.51796 27.0062 6.60284 26.9849 6.68446 26.9505C6.62156 26.866 6.55081 26.7879 6.47225 26.7161C6.5147 26.7019 6.55714 26.6877 6.59958 26.6735C6.51673 26.6579 6.44603 26.6224 6.38737 26.567C6.25789 26.4083 6.1447 26.2379 6.04785 26.0557Z"
            fill="#66E3C1" />
        <path fill-rule="evenodd" clip-rule="evenodd"
            d="M24.085 25.5869C24.2398 25.7505 24.3529 25.9422 24.4245 26.1621C24.3809 26.3999 24.3243 26.6343 24.2547 26.8652C24.2862 26.8987 24.3216 26.9271 24.3608 26.9504C24.38 27.0633 24.4154 27.1698 24.4669 27.27C24.4108 27.3048 24.3825 27.3545 24.3821 27.4191C24.2966 27.5339 24.2329 27.6618 24.1911 27.8026C24.1769 27.7884 24.1628 27.7742 24.1486 27.76C23.9984 27.9766 23.8711 28.2039 23.7667 28.4418C23.7194 28.4761 23.67 28.5045 23.6181 28.527C23.5872 28.3452 23.5306 28.1748 23.4484 28.0157C23.4708 27.9249 23.5345 27.8397 23.6394 27.76C23.7323 27.5865 23.796 27.4018 23.8303 27.2061C23.821 27.1448 23.7998 27.088 23.7667 27.0356C23.6522 26.8926 23.539 26.7505 23.4271 26.6096C23.3112 26.5139 23.191 26.4287 23.0664 26.3539C23.4043 26.0987 23.7438 25.8431 24.085 25.5869Z"
            fill="#9D58DF" />
        <path fill-rule="evenodd" clip-rule="evenodd"
            d="M8.89134 26.3115C9.10452 26.455 9.31672 26.597 9.52794 26.7376C9.38467 26.805 9.22908 26.8335 9.0611 26.8228C9.0611 26.8939 9.0611 26.9649 9.0611 27.0359C8.88565 27.0779 8.70172 27.0921 8.50938 27.0785C8.51298 27.182 8.55542 27.2672 8.6367 27.3342C8.47878 27.3839 8.32315 27.4337 8.16985 27.4833C8.22643 27.5401 8.28304 27.5969 8.33962 27.6537C8.28139 27.6709 8.22481 27.6922 8.16985 27.7176C8.08786 27.6742 8.00298 27.6671 7.91521 27.6963C8.01423 27.739 8.08497 27.81 8.12741 27.9094C7.99504 27.9693 7.85359 27.9906 7.70301 27.9733C7.52289 27.8709 7.36018 27.743 7.21495 27.5898C7.19445 27.5494 7.1874 27.5068 7.19373 27.462C7.14908 27.4683 7.10664 27.4613 7.06641 27.4407C7.23791 27.4333 7.40767 27.412 7.57569 27.3768C7.49981 27.2883 7.4291 27.196 7.36349 27.0998C7.49879 27.0409 7.63315 27.0338 7.76667 27.0785C7.78403 26.985 7.76281 26.8998 7.70301 26.8228C7.93478 26.8676 8.16111 26.8605 8.38206 26.8015C8.32429 26.734 8.29599 26.6559 8.29718 26.5672C8.48162 26.5743 8.66552 26.5671 8.8489 26.5459C8.88319 26.5328 8.9115 26.5114 8.93378 26.482C8.90212 26.4293 8.88799 26.3725 8.89134 26.3115Z"
            fill="#65DACB" />
        <path fill-rule="evenodd" clip-rule="evenodd"
            d="M6.38751 26.5674C6.44616 26.6228 6.51687 26.6583 6.59971 26.6739C6.55727 26.6881 6.51483 26.7023 6.47239 26.7165C6.55095 26.7883 6.62169 26.8664 6.68459 26.9509C6.60298 26.9853 6.5181 27.0066 6.42995 27.0148C6.59521 27.119 6.76497 27.2113 6.93923 27.2918C6.95697 27.3225 6.98524 27.3438 7.02411 27.3557C6.9958 27.3628 6.96754 27.3699 6.93923 27.377C6.81267 27.3343 6.68535 27.313 6.55727 27.3131C6.64215 27.4125 6.72703 27.5119 6.81191 27.6113C6.76947 27.6255 6.72703 27.6397 6.68459 27.6539C6.78411 27.768 6.8973 27.8674 7.02411 27.9522C6.79948 27.9427 6.57314 27.9214 6.34507 27.8883C5.92257 27.5636 5.52648 27.2085 5.15674 26.823C5.16671 26.7976 5.18793 26.7834 5.2204 26.7804C5.52317 26.8527 5.8273 26.9024 6.13287 26.9296C6.147 26.9154 6.16117 26.9011 6.17531 26.887C6.10418 26.8368 6.0476 26.7729 6.00554 26.6952C6.11737 26.6623 6.23052 26.6552 6.34507 26.6739C6.37698 26.6453 6.39116 26.6098 6.38751 26.5674Z"
            fill="#5BF3D2" />
        <path fill-rule="evenodd" clip-rule="evenodd"
            d="M9.52801 26.7373C9.63428 26.7835 9.73329 26.8403 9.82509 26.9077C9.90908 27.1281 9.99396 27.3341 10.0797 27.5256C9.90628 27.5734 9.72943 27.6089 9.54923 27.6321C9.52801 27.6463 9.50679 27.6605 9.48557 27.6747C9.51387 27.7315 9.54214 27.7884 9.57045 27.8452C9.54923 27.8594 9.52801 27.8736 9.50679 27.8878C9.36864 27.9194 9.23423 27.9336 9.1036 27.9304C9.04703 27.9162 8.99041 27.902 8.93384 27.8878C8.8608 27.727 8.77592 27.5708 8.6792 27.4191C8.89717 27.3727 9.10937 27.3514 9.3158 27.3551C9.22545 27.2512 9.14057 27.1447 9.06116 27.0356C9.06116 26.9645 9.06116 26.8936 9.06116 26.8225C9.22914 26.8331 9.38473 26.8047 9.52801 26.7373Z"
            fill="#66CED0" />
        <path fill-rule="evenodd" clip-rule="evenodd"
            d="M23.0664 26.3545C23.191 26.4293 23.3112 26.5145 23.4271 26.6102C23.539 26.7511 23.6522 26.8932 23.7666 27.0362C23.7998 27.0886 23.821 27.1454 23.8303 27.2067C23.796 27.4024 23.7323 27.5871 23.6393 27.7606C23.5345 27.8403 23.4708 27.9255 23.4483 28.0163C23.2366 28.1864 23.0527 28.3852 22.8966 28.6128C22.856 28.536 22.8277 28.4508 22.8117 28.3572C22.6788 28.146 22.5232 27.9827 22.3449 27.8671C22.2366 27.7958 22.1235 27.7461 22.0054 27.718C22.1661 27.5483 22.2863 27.3495 22.3661 27.1215C22.3944 27.0362 22.3944 26.951 22.3661 26.8658C22.3334 26.9126 22.2981 26.9126 22.26 26.8658C22.5201 26.6853 22.7889 26.5149 23.0664 26.3545Z"
            fill="#935AE8" />
        <path fill-rule="evenodd" clip-rule="evenodd"
            d="M25.0186 26.3545C25.1353 26.6941 25.2202 27.035 25.2733 27.3771C25.0866 27.7993 24.8885 28.2112 24.6791 28.6128C24.5041 28.7739 24.306 28.9018 24.085 28.9963C24.2582 28.6969 24.4279 28.3916 24.5942 28.0802C24.5572 27.9368 24.5147 27.7947 24.4669 27.6541C24.4905 27.6378 24.5047 27.6165 24.5094 27.5902C24.7491 27.2132 24.9188 26.8013 25.0186 26.3545Z"
            fill="#B657D7" />
        <path fill-rule="evenodd" clip-rule="evenodd"
            d="M22.0054 27.7178C22.1235 27.7459 22.2367 27.7955 22.3449 27.8669C22.5232 27.9825 22.6788 28.1458 22.8118 28.3569C22.4899 28.63 22.1716 28.914 21.8569 29.2091C21.8427 29.1949 21.8286 29.1807 21.8144 29.1665C21.6414 29.3066 21.4645 29.4416 21.2839 29.5713C21.2436 29.5976 21.2083 29.5905 21.1778 29.55C21.0438 29.6659 20.8952 29.7582 20.7322 29.827C20.6074 29.9853 20.5225 30.1629 20.4776 30.3596C20.4413 30.2456 20.3917 30.132 20.329 30.0187C20.2569 30.0573 20.1791 30.0715 20.0956 30.0613C20.0532 29.9782 20.0603 29.893 20.1168 29.8057C20.23 29.7489 20.3149 29.6636 20.3715 29.55C20.4256 29.1264 20.659 28.8636 21.0717 28.7617C21.193 28.6186 21.3062 28.4695 21.4112 28.3143C21.6479 28.1489 21.846 27.95 22.0054 27.7178Z"
            fill="#8C5DF3" />
        <path fill-rule="evenodd" clip-rule="evenodd"
            d="M7.70282 26.8228C7.76262 26.8998 7.78384 26.985 7.76648 27.0785C7.63296 27.0338 7.49859 27.0409 7.36329 27.0998C7.42891 27.196 7.49961 27.2883 7.5755 27.3768C7.40747 27.412 7.23771 27.4333 7.06621 27.4407C7.10645 27.4613 7.14889 27.4683 7.19353 27.462C7.18721 27.5068 7.19425 27.5494 7.21475 27.5898C7.35998 27.743 7.5227 27.8709 7.70282 27.9733C7.7835 28.0711 7.88251 28.1492 7.9999 28.2077C7.85845 28.2219 7.71695 28.2361 7.5755 28.2503C7.74993 28.4254 7.94799 28.5674 8.16966 28.6764C8.01361 28.681 7.85802 28.681 7.70282 28.6764C7.88535 28.8222 8.06925 28.9358 8.25454 29.0173C8.18808 29.0432 8.13146 29.0787 8.08478 29.1238C7.46842 28.7602 6.88843 28.3483 6.34473 27.8881C6.5728 27.9212 6.79914 27.9425 7.02377 27.952C6.89696 27.8672 6.78377 27.7678 6.68425 27.6537C6.72669 27.6395 6.76913 27.6253 6.81157 27.6111C6.72669 27.5117 6.64181 27.4123 6.55693 27.3129C6.68501 27.3128 6.81233 27.3341 6.93889 27.3768C6.9672 27.3697 6.99546 27.3626 7.02377 27.3555C6.9849 27.3436 6.95663 27.3223 6.93889 27.2916C6.90906 27.1971 6.85248 27.119 6.76913 27.0572C6.95523 27.0609 7.13917 27.0538 7.32085 27.0359C7.26946 26.954 7.21289 26.8759 7.15109 26.8015C7.33439 26.7983 7.51829 26.8054 7.70282 26.8228Z"
            fill="#5AEEDD" />
        <path fill-rule="evenodd" clip-rule="evenodd"
            d="M24.5093 27.59C24.5046 27.6163 24.4905 27.6376 24.4669 27.6539C24.5146 27.7945 24.5571 27.9366 24.5942 28.08C24.4279 28.3914 24.2581 28.6968 24.0849 28.9961C23.7452 29.2521 23.3773 29.4651 22.9814 29.6353C23.2187 29.3742 23.4662 29.1185 23.7242 28.8683C23.6898 28.76 23.6544 28.6464 23.6181 28.5274C23.6699 28.5049 23.7194 28.4765 23.7666 28.4422C23.871 28.2043 23.9983 27.9771 24.1486 27.7604C24.1627 27.7746 24.1769 27.7889 24.191 27.8031C24.2328 27.6622 24.2965 27.5344 24.382 27.4196C24.4082 27.4148 24.4294 27.4006 24.4456 27.377C24.454 27.4571 24.4753 27.5281 24.5093 27.59Z"
            fill="#B158E3" />
        <path fill-rule="evenodd" clip-rule="evenodd"
            d="M21.0718 27.4619C21.0897 27.5964 21.0402 27.6958 20.9233 27.7602C20.6761 28.2075 20.3507 28.5909 19.9472 28.9106C19.8338 29.195 19.6994 29.4648 19.544 29.7202C19.2866 29.7443 19.1523 29.8863 19.1408 30.1463C19.0348 30.0918 18.9287 30.0918 18.8225 30.1463C18.8257 29.7823 18.8186 29.3988 18.8013 28.9959C19.0411 28.7557 19.2604 28.5072 19.4591 28.2502C19.4993 28.2296 19.5418 28.2225 19.5864 28.2289C19.5759 28.1284 19.6042 28.0432 19.6713 27.9732C20.1435 27.8199 20.6103 27.6495 21.0718 27.4619Z"
            fill="#736DF4" />
        <path fill-rule="evenodd" clip-rule="evenodd"
            d="M22.2601 26.8652C22.2982 26.912 22.3335 26.912 22.3662 26.8652C22.3945 26.9505 22.3945 27.0357 22.3662 27.1209C22.2864 27.3489 22.1662 27.5477 22.0054 27.7174C21.846 27.9497 21.648 28.1485 21.4113 28.314C21.3062 28.4692 21.1931 28.6183 21.0718 28.7614C20.659 28.8633 20.4256 29.1261 20.3715 29.5497C20.3149 29.6633 20.23 29.7485 20.1168 29.8053C20.0603 29.8927 20.0533 29.9779 20.0956 30.061C20.0167 30.1493 19.9177 30.2061 19.7985 30.2314C19.7132 30.1602 19.6142 30.1318 19.5015 30.1462C19.5123 30.0024 19.5265 29.8604 19.5439 29.7201C19.6994 29.4647 19.8338 29.1948 19.9471 28.9105C20.3507 28.5908 20.676 28.2073 20.9232 27.76C21.0401 27.6957 21.0896 27.5963 21.0718 27.4618C21.469 27.2624 21.8651 27.0635 22.2601 26.8652Z"
            fill="#7F63F2" />
        <path fill-rule="evenodd" clip-rule="evenodd"
            d="M10.6312 27.334C10.9736 27.4777 11.3131 27.6198 11.6497 27.7601C11.632 27.7908 11.6037 27.8122 11.5648 27.824C11.6053 27.9073 11.6619 27.9783 11.7346 28.037C11.6651 28.1138 11.5872 28.1209 11.5012 28.0584C11.4067 28.0787 11.3148 28.1071 11.2253 28.1436C11.3009 28.254 11.3858 28.3534 11.48 28.4418C11.3305 28.479 11.1749 28.5145 11.0131 28.5484C11.4093 28.8042 11.3527 28.9249 10.8434 28.9105C10.6624 28.8267 10.4927 28.7273 10.3341 28.6123C10.2021 28.4678 10.0606 28.3329 9.90967 28.2075C10.1502 28.1933 10.3906 28.1791 10.6312 28.1649C10.5321 28.0938 10.4473 28.0086 10.3765 27.9092C10.5416 27.8597 10.7113 27.8171 10.8858 27.7814C10.7547 27.6574 10.6699 27.5082 10.6312 27.334Z"
            fill="#5DC7E4" />
        <path fill-rule="evenodd" clip-rule="evenodd"
            d="M9.825 26.9082C10.1008 27.0395 10.3696 27.1815 10.6314 27.3343C10.6701 27.5085 10.755 27.6577 10.886 27.7817C10.7115 27.8175 10.5418 27.8601 10.3767 27.9095C10.4475 28.0089 10.5324 28.0942 10.6314 28.1652C10.3909 28.1794 10.1504 28.1936 9.90988 28.2078C10.0608 28.3332 10.2023 28.4681 10.3343 28.6126C10.1909 28.5546 10.0495 28.5617 9.90988 28.6339C10.0464 28.75 10.1878 28.8565 10.3343 28.9535C10.2391 28.995 10.1401 29.0092 10.0372 28.9961C10.0089 28.9961 9.98063 28.9961 9.95232 28.9961C9.81554 28.9083 9.68822 28.8017 9.57036 28.6765C9.66746 28.6415 9.76652 28.6131 9.86744 28.5913C9.62456 28.399 9.39822 28.2285 9.1884 28.08C9.15423 28.0325 9.12592 27.9829 9.10352 27.9308C9.23415 27.9341 9.36856 27.9199 9.5067 27.8882C9.52792 27.874 9.54914 27.8598 9.57036 27.8456C9.54205 27.7888 9.51379 27.732 9.48548 27.6752C9.5067 27.661 9.52792 27.6468 9.54914 27.6326C9.72934 27.6094 9.90619 27.5739 10.0796 27.526C9.99387 27.3346 9.90899 27.1286 9.825 26.9082Z"
            fill="#5ECFDF" />
        <path fill-rule="evenodd" clip-rule="evenodd"
            d="M16.1063 28.5273C16.2902 28.5273 16.4742 28.5273 16.6581 28.5273C16.7898 28.8496 16.9242 29.1763 17.0612 29.5074C17.0527 29.7509 17.0951 29.9924 17.1886 30.2317C17.2475 30.3624 17.3253 30.476 17.422 30.5726C17.2113 30.6245 16.9991 30.6671 16.7854 30.7004C16.7431 30.7041 16.7078 30.6899 16.6793 30.6578C16.5737 30.3816 16.4322 30.1259 16.2549 29.8909C16.0706 29.6775 15.8867 29.4645 15.7031 29.2517C15.6703 29.0722 15.5925 28.9159 15.4697 28.783C15.6841 28.6795 15.9105 28.6155 16.1488 28.5913C16.1252 28.5749 16.111 28.5536 16.1063 28.5273Z"
            fill="#6096F7" />
        <path fill-rule="evenodd" clip-rule="evenodd"
            d="M17.4216 28.4424C17.3608 28.4992 17.3042 28.5631 17.2519 28.6341C17.3438 28.8587 17.4286 29.0718 17.5065 29.2733C17.4871 29.2909 17.473 29.3122 17.4641 29.3372C17.527 29.7078 17.5836 30.0913 17.6338 30.4877C17.569 30.5221 17.4983 30.5505 17.4216 30.5729C17.325 30.4763 17.2472 30.3627 17.1882 30.232C17.0948 29.9926 17.0524 29.7512 17.0609 29.5076C16.9239 29.1766 16.7895 28.8499 16.6577 28.5276C16.9052 28.4886 17.1598 28.4602 17.4216 28.4424Z"
            fill="#638BF6" />
        <path fill-rule="evenodd" clip-rule="evenodd"
            d="M18.313 28.3145C18.3405 28.6354 18.3829 28.955 18.4403 29.2732C18.4037 29.5077 18.3895 29.7492 18.3978 29.9975C18.4261 30.1254 18.4544 30.2532 18.4827 30.381C18.4266 30.4158 18.3983 30.4655 18.3978 30.5302C18.2481 30.5326 18.1207 30.5752 18.0159 30.658C17.9329 30.6931 17.848 30.7002 17.7612 30.6793C17.7378 30.5993 17.6953 30.5354 17.6339 30.4876C17.5836 30.0912 17.5271 29.7077 17.4642 29.3371C17.473 29.3121 17.4872 29.2908 17.5066 29.2732C17.4287 29.0717 17.3438 28.8586 17.252 28.634C17.3043 28.563 17.3609 28.4991 17.4217 28.4423C17.7196 28.4052 18.0166 28.3626 18.313 28.3145Z"
            fill="#6D81F6" />
        <path fill-rule="evenodd" clip-rule="evenodd"
            d="M19.6711 27.9736C19.604 28.0436 19.5757 28.1288 19.5862 28.2293C19.5416 28.2229 19.4991 28.23 19.4589 28.2506C19.2602 28.5076 19.0409 28.7561 18.8011 28.9963C18.8184 29.3992 18.8255 29.7827 18.8223 30.1467C18.8424 30.2543 18.8141 30.3538 18.7374 30.445C18.6242 30.4734 18.5111 30.5018 18.3979 30.5302C18.3983 30.4656 18.4266 30.4159 18.4827 30.3811C18.4544 30.2533 18.4262 30.1254 18.3979 29.9976C18.3896 29.7493 18.4037 29.5078 18.4403 29.2732C18.3829 28.9551 18.3405 28.6355 18.313 28.3145C18.7688 28.2143 19.2214 28.1007 19.6711 27.9736Z"
            fill="#7178F5" />
        <path fill-rule="evenodd" clip-rule="evenodd"
            d="M11.65 27.7607C11.8576 27.816 12.0557 27.887 12.2442 27.9738C12.2594 28.0584 12.2947 28.0868 12.3503 28.059C12.4139 28.1229 12.4776 28.1868 12.5412 28.2508C12.3897 28.3138 12.2341 28.3706 12.0744 28.4212C12.2683 28.5965 12.4522 28.7811 12.6261 28.9751C12.6686 28.9893 12.711 29.0035 12.7534 29.0177C12.5835 29.0005 12.4137 29.0289 12.2442 29.103C12.9541 29.661 13.7038 30.1652 14.4935 30.6156C14.6329 30.6507 14.7744 30.672 14.9179 30.6795C15.0185 30.775 15.1316 30.839 15.2574 30.8713C15.1698 30.872 15.0849 30.8862 15.0028 30.9139C14.7521 30.8389 14.4974 30.7608 14.2388 30.6795C13.5668 30.2884 12.8877 29.9049 12.2017 29.5291C12.0394 29.3979 11.8697 29.2771 11.6924 29.1669C11.6019 29.0546 11.5029 28.9481 11.3953 28.8473C11.552 28.811 11.7076 28.7826 11.8622 28.7621C11.7295 28.6548 11.6022 28.5483 11.4802 28.4425C11.3861 28.3541 11.3012 28.2546 11.2256 28.1442C11.3151 28.1078 11.407 28.0794 11.5014 28.059C11.5875 28.1216 11.6654 28.1144 11.7349 28.0377C11.6622 27.979 11.6056 27.908 11.5651 27.8247C11.604 27.8128 11.6322 27.7915 11.65 27.7607Z"
            fill="#5AC1F0" />
        <path fill-rule="evenodd" clip-rule="evenodd"
            d="M23.4484 28.0156C23.5306 28.1747 23.5872 28.3452 23.6181 28.5269C23.6545 28.6459 23.6899 28.7596 23.7242 28.8678C23.4663 29.1181 23.2188 29.3737 22.9815 29.6348C22.0399 30.1356 21.0496 30.519 20.0107 30.7853C19.945 30.7716 19.9167 30.729 19.9258 30.6574C19.8087 30.7179 19.6813 30.7464 19.5439 30.7427C19.5167 30.5508 19.4884 30.359 19.459 30.1674C19.4687 30.1504 19.4828 30.1433 19.5014 30.1461C19.6142 30.1317 19.7132 30.1601 19.7985 30.2313C19.9177 30.206 20.0167 30.1492 20.0956 30.0609C20.1791 30.0711 20.2569 30.0569 20.329 30.0183C20.3917 30.1315 20.4413 30.2452 20.4776 30.3592C20.5164 30.4517 20.5872 30.5086 20.6898 30.5296C20.8807 30.4317 21.0787 30.3465 21.2839 30.2739C21.3088 30.2829 21.33 30.2971 21.3476 30.3166C21.4515 30.1899 21.5858 30.126 21.7508 30.1248C21.9923 29.8911 22.2753 29.7135 22.5996 29.5922C22.7455 29.3979 22.9011 29.2133 23.0664 29.0383C22.9971 28.9022 22.9404 28.7601 22.8967 28.6122C23.0527 28.3846 23.2366 28.1857 23.4484 28.0156Z"
            fill="#A95EF0" />
        <path fill-rule="evenodd" clip-rule="evenodd"
            d="M8.93368 27.8877C8.99025 27.9019 9.04687 27.9161 9.10344 27.9303C9.12585 27.9823 9.15416 28.032 9.18832 28.0794C9.39815 28.228 9.62448 28.3984 9.86737 28.5908C9.76644 28.6125 9.66739 28.641 9.57029 28.676C9.68814 28.8012 9.81546 28.9077 9.95225 28.9956C9.84279 29.0266 9.72961 29.0479 9.61273 29.0595C9.77553 29.1483 9.93116 29.2477 10.0796 29.3577C9.96536 29.324 9.85217 29.3382 9.74005 29.4003C10.2685 29.6448 10.792 29.9289 11.3103 30.2525C11.605 30.3191 11.8808 30.4256 12.1379 30.5721C12.1521 30.5579 12.1662 30.5437 12.1804 30.5295C12.3202 30.6376 12.4687 30.7228 12.626 30.7852C12.512 30.7922 12.3988 30.785 12.2865 30.7639C11.9935 30.6673 11.6964 30.5466 11.3952 30.4017C11.2095 30.4573 11.0256 30.4502 10.8435 30.3804C10.241 30.0994 9.63263 29.8011 9.01856 29.4856C9.13693 29.4753 9.25012 29.4469 9.35808 29.4003C9.15522 29.334 8.97133 29.2346 8.80636 29.1021C8.89124 29.0737 8.97612 29.0453 9.061 29.0169C8.93504 28.8828 8.79354 28.7691 8.6366 28.676C8.78077 28.7183 8.92222 28.7041 9.061 28.6334C8.86968 28.5161 8.68579 28.3882 8.50928 28.2499C8.62522 28.2323 8.73841 28.2039 8.8488 28.1647C8.77805 28.0936 8.70735 28.0226 8.6366 27.9516C8.7393 27.9393 8.83836 27.9179 8.93368 27.8877Z"
            fill="#57E7F1" />
        <path fill-rule="evenodd" clip-rule="evenodd"
            d="M22.8118 28.3564C22.8277 28.4501 22.856 28.5353 22.8966 28.6121C22.9404 28.76 22.9971 28.9021 23.0664 29.0382C22.9011 29.2132 22.7455 29.3979 22.5996 29.5921C22.2753 29.7134 21.9923 29.891 21.7507 30.1248C21.5858 30.1259 21.4515 30.1898 21.3476 30.3165C21.33 30.297 21.3088 30.2828 21.2839 30.2739C21.0787 30.3465 20.8806 30.4317 20.6897 30.5295C20.5872 30.5085 20.5164 30.4517 20.4775 30.3591C20.5225 30.1624 20.6074 29.9848 20.7322 29.8265C20.8952 29.7577 21.0438 29.6654 21.1778 29.5495C21.2083 29.59 21.2436 29.5971 21.2839 29.5708C21.4645 29.4411 21.6414 29.3061 21.8144 29.166C21.8285 29.1802 21.8427 29.1945 21.8568 29.2086C22.1716 28.9135 22.4899 28.6295 22.8118 28.3564Z"
            fill="#9F59F4" />
        <path fill-rule="evenodd" clip-rule="evenodd"
            d="M11.4799 28.4424C11.6018 28.5482 11.7291 28.6547 11.8618 28.762C11.7073 28.7825 11.5516 28.8109 11.395 28.8472C11.5025 28.9479 11.6015 29.0545 11.6921 29.1668C11.8693 29.277 12.0391 29.3977 12.2014 29.5289C12.8874 29.9048 13.5664 30.2883 14.2385 30.6794C14.4971 30.7607 14.7517 30.8388 15.0024 30.9138C14.7761 30.9138 14.5497 30.9138 14.3234 30.9138C14.1735 30.8279 14.0178 30.7498 13.8565 30.6794C13.6729 30.6698 13.4961 30.6343 13.326 30.5729C13.3119 30.5871 13.2977 30.6013 13.2836 30.6155C13.2648 30.5226 13.2224 30.4943 13.1563 30.5303C12.8572 30.3707 12.5601 30.2144 12.265 30.0616C12.2509 30.0757 12.2367 30.09 12.2226 30.1042C12.0623 29.9244 11.8783 29.8108 11.6708 29.7633C11.4106 29.6081 11.1631 29.4377 10.9281 29.252C11.013 29.2235 11.0979 29.1952 11.1828 29.1668C11.0558 29.0955 10.9426 29.0103 10.8433 28.9111C11.3526 28.9254 11.4092 28.8047 11.013 28.5489C11.1748 28.515 11.3304 28.4795 11.4799 28.4424Z"
            fill="#5ACCF6" />
        <path fill-rule="evenodd" clip-rule="evenodd"
            d="M13.1779 28.2295C13.7213 28.3157 14.2589 28.401 14.7907 28.4852C14.7324 28.4785 14.6758 28.4856 14.6209 28.5065C14.7075 28.5996 14.7641 28.7061 14.7907 28.826C14.6753 28.8216 14.5621 28.8359 14.4512 28.8686C14.3904 28.8786 14.3692 28.907 14.3875 28.9539C14.6754 29.1995 14.9654 29.4765 15.2575 29.7848C15.433 29.8902 15.5674 30.0393 15.6607 30.2322C15.7613 30.3475 15.8745 30.4469 16.0002 30.5304C16.0207 30.5708 16.0278 30.6134 16.0214 30.6583C16.157 30.7119 16.2985 30.7402 16.4458 30.7435C16.5273 30.7675 16.5981 30.8102 16.658 30.8713C16.5084 30.8715 16.3598 30.8857 16.2124 30.9139C16.1039 30.9198 16.012 30.8843 15.9366 30.8074C15.7816 30.7861 15.626 30.7791 15.4697 30.7861C15.2874 30.6813 15.1459 30.5392 15.0453 30.36C14.8226 30.2865 14.6387 30.1516 14.4936 29.9552C13.9179 29.5618 13.3803 29.1215 12.8809 28.6343C13.0572 28.5902 13.2269 28.5334 13.3901 28.4638C13.3118 28.3923 13.2411 28.3142 13.1779 28.2295Z"
            fill="#5CAFF5" />
        <path fill-rule="evenodd" clip-rule="evenodd"
            d="M10.3341 28.613C10.4927 28.728 10.6624 28.8274 10.8434 28.9113C10.9427 29.0105 11.0559 29.0957 11.1829 29.1669C11.098 29.1953 11.0131 29.2237 10.9282 29.2521C11.1632 29.4378 11.4107 29.6083 11.6709 29.7635C11.8784 29.8109 12.0624 29.9246 12.2227 30.1043C12.2368 30.0902 12.251 30.0759 12.2651 30.0617C12.5602 30.2146 12.8573 30.3709 13.1564 30.5304C13.2225 30.4944 13.2649 30.5228 13.2837 30.6157C13.2978 30.6015 13.312 30.5872 13.3261 30.573C13.4962 30.6344 13.673 30.6699 13.8566 30.6796C14.0179 30.75 14.1736 30.8281 14.3235 30.9139C14.1759 30.9403 14.0203 30.9403 13.8566 30.9139C12.5722 30.6122 11.3414 30.108 10.1643 29.4013C10.2803 29.3837 10.3934 29.3553 10.5038 29.3161C10.3406 29.2154 10.1851 29.1088 10.037 28.9965C10.1399 29.0096 10.2389 28.9954 10.3341 28.9539C10.1876 28.8569 10.0462 28.7504 9.90967 28.6343C10.0493 28.5621 10.1907 28.555 10.3341 28.613Z"
            fill="#59D8F5" />
        <path fill-rule="evenodd" clip-rule="evenodd"
            d="M12.244 27.9736C12.5628 28.0465 12.874 28.1317 13.1777 28.2293C13.2408 28.314 13.3116 28.3921 13.3899 28.4636C13.2266 28.5332 13.0569 28.59 12.8806 28.6341C13.38 29.1213 13.9176 29.5616 14.4933 29.955C14.6384 30.1514 14.8224 30.2863 15.045 30.3598C15.1457 30.539 15.2872 30.6811 15.4694 30.7859C15.4872 30.8166 15.5154 30.838 15.5543 30.8498C15.4994 30.8707 15.4428 30.8778 15.3846 30.8711C15.3421 30.8711 15.2997 30.8711 15.2572 30.8711C15.1314 30.8388 15.0183 30.7749 14.9177 30.6794C14.7742 30.6719 14.6327 30.6506 14.4933 30.6154C13.7037 30.1651 12.9539 29.6608 12.244 29.1028C12.4135 29.0287 12.5833 29.0003 12.7533 29.0176C12.7108 29.0034 12.6684 28.9892 12.6259 28.975C12.4521 28.781 12.2682 28.5963 12.0742 28.421C12.2339 28.3705 12.3896 28.3137 12.5411 28.2506C12.4774 28.1867 12.4137 28.1228 12.3501 28.0589C12.2946 28.0866 12.2592 28.0582 12.244 27.9736Z"
            fill="#5BBBF6" />
        <path fill-rule="evenodd" clip-rule="evenodd"
            d="M9.95232 28.9961C9.98062 28.9961 10.0089 28.9961 10.0372 28.9961C10.1853 29.1085 10.3409 29.215 10.504 29.3157C10.3937 29.3549 10.2805 29.3833 10.1645 29.4009C11.3416 30.1077 12.5724 30.6119 13.8568 30.9135C13.9423 30.9742 14.0414 31.0026 14.1539 30.9988C13.9646 31.0637 13.7806 31.0423 13.6022 30.9348C13.4041 30.9207 13.2061 30.9064 13.008 30.8922C12.8932 30.8109 12.7659 30.7754 12.6261 30.7857C12.4688 30.7234 12.3203 30.6381 12.1804 30.53C12.1663 30.5442 12.1521 30.5585 12.138 30.5727C11.8809 30.4262 11.605 30.3196 11.3104 30.2531C10.792 29.9295 10.2686 29.6454 9.74011 29.4009C9.85224 29.3387 9.96543 29.3245 10.0796 29.3583C9.93122 29.2482 9.77559 29.1488 9.61279 29.06C9.72967 29.0484 9.84286 29.0271 9.95232 28.9961Z"
            fill="#59E3F6" />
        <path fill-rule="evenodd" clip-rule="evenodd"
            d="M19.5437 29.7207C19.5262 29.861 19.5121 30.003 19.5012 30.1468C19.4826 30.144 19.4685 30.1511 19.4588 30.1681C19.4882 30.3597 19.5166 30.5515 19.5437 30.7433C19.4512 30.7672 19.3592 30.7956 19.2678 30.8286C19.1408 30.7245 18.9922 30.6748 18.8222 30.6794C18.7813 30.6059 18.753 30.5278 18.7373 30.4451C18.814 30.3538 18.8423 30.2544 18.8222 30.1468C18.9284 30.0923 19.0345 30.0923 19.1405 30.1468C19.1519 29.8868 19.2863 29.7447 19.5437 29.7207Z"
            fill="#916EF0" />
        <path fill-rule="evenodd" clip-rule="evenodd"
            d="M14.7904 28.4849C15.2287 28.5069 15.6672 28.5211 16.1061 28.5275C16.1108 28.5538 16.1249 28.5751 16.1485 28.5914C15.9102 28.6157 15.6839 28.6796 15.4695 28.7831C15.5922 28.916 15.67 29.0723 15.7029 29.2518C15.8865 29.4646 16.0704 29.6776 16.2546 29.891C16.432 30.1261 16.5735 30.3817 16.679 30.658C16.7075 30.69 16.7428 30.7042 16.7851 30.7006C16.7907 30.7321 16.7836 30.7605 16.7639 30.7858C16.6628 30.7459 16.5567 30.7318 16.4456 30.7432C16.2982 30.7399 16.1567 30.7116 16.0212 30.658C16.0275 30.6131 16.0205 30.5705 16 30.5301C15.8742 30.4466 15.7611 30.3472 15.6604 30.2319C15.5671 30.039 15.4328 29.8899 15.2573 29.7845C14.9652 29.4762 14.6751 29.1992 14.3872 28.9536C14.3689 28.9067 14.3901 28.8783 14.4509 28.8683C14.5619 28.8356 14.675 28.8213 14.7904 28.8257C14.7638 28.7058 14.7072 28.5993 14.6207 28.5062C14.6755 28.4853 14.7321 28.4782 14.7904 28.4849Z"
            fill="#60A0F6" />
        <path fill-rule="evenodd" clip-rule="evenodd"
            d="M9.06109 27.0361C9.1405 27.1453 9.22538 27.2518 9.31574 27.3557C9.10931 27.352 8.89711 27.3733 8.67913 27.4196C8.77585 27.5714 8.86073 27.7276 8.93377 27.8883C8.83845 27.9186 8.7394 27.9399 8.63669 27.9522C8.70744 28.0233 8.77815 28.0943 8.84889 28.1653C8.73851 28.2045 8.62532 28.2329 8.50937 28.2505C8.68588 28.3889 8.86977 28.5167 9.06109 28.634C8.92231 28.7047 8.78086 28.719 8.63669 28.6766C8.79364 28.7698 8.93513 28.8834 9.06109 29.0175C8.97621 29.0459 8.89133 29.0743 8.80645 29.1027C8.97142 29.2353 9.15531 29.3347 9.35818 29.401C9.25021 29.4475 9.13702 29.4759 9.01865 29.4862C9.63272 29.8017 10.2411 30.1 10.8436 30.381C11.0257 30.4508 11.2096 30.4579 11.3953 30.4023C11.6965 30.5472 11.9936 30.668 12.2866 30.7645C12.3989 30.7857 12.512 30.7928 12.6261 30.7858C12.7659 30.7755 12.8932 30.811 13.008 30.8923C13.2061 30.9065 13.4041 30.9207 13.6022 30.9349C13.7807 31.0424 13.9646 31.0637 14.1539 30.9988C14.3853 31.0508 14.6117 31.1076 14.833 31.1693C14.1852 31.1055 13.5345 31.0487 12.8807 30.9988C11.1627 30.6686 9.56418 30.0436 8.08497 29.124C8.13165 29.0789 8.18827 29.0434 8.25473 29.0175C8.06943 28.9361 7.88554 28.8224 7.703 28.6766C7.85821 28.6812 8.0138 28.6812 8.16985 28.6766C7.94818 28.5677 7.75011 28.4256 7.57568 28.2505C7.71714 28.2363 7.85863 28.2221 8.00009 28.2079C7.8827 28.1495 7.78368 28.0714 7.703 27.9735C7.85358 27.9908 7.99504 27.9695 8.12741 27.9096C8.08497 27.8102 8.01422 27.7392 7.91521 27.6966C8.00297 27.6673 8.08785 27.6744 8.16985 27.7179C8.22481 27.6924 8.28138 27.6711 8.33961 27.654C8.28304 27.5972 8.22642 27.5403 8.16985 27.4835C8.32314 27.4339 8.47877 27.3842 8.63669 27.3344C8.55542 27.2675 8.51298 27.1822 8.50937 27.0787C8.70171 27.0923 8.88565 27.0781 9.06109 27.0361Z"
            fill="#62EBEA" />
        <path fill-rule="evenodd" clip-rule="evenodd"
            d="M17.6341 30.4873C17.6955 30.5351 17.738 30.599 17.7615 30.679C17.8482 30.6999 17.9331 30.6928 18.0161 30.6577C18.1048 30.7383 18.2038 30.8093 18.3132 30.8708C18.2025 30.9056 18.0893 30.927 17.9737 30.9347C18.2005 30.9844 18.4268 31.0342 18.6527 31.0838C18.5778 31.1248 18.4929 31.139 18.3981 31.1265C18.2409 31.1231 18.0854 31.1373 17.9312 31.1691C17.7786 31.1227 17.623 31.0943 17.4644 31.0838C17.3066 30.9254 17.1156 30.8828 16.8914 30.956C16.799 30.9605 16.7212 30.9321 16.658 30.8708C16.598 30.8096 16.5273 30.767 16.4458 30.743C16.557 30.7315 16.6631 30.7457 16.7641 30.7856C16.7838 30.7603 16.7909 30.7318 16.7853 30.7004C16.9991 30.667 17.2113 30.6244 17.4219 30.5725C17.4986 30.5502 17.5693 30.5218 17.6341 30.4873Z"
            fill="#998FDD" />
        <path fill-rule="evenodd" clip-rule="evenodd"
            d="M15.4696 30.7858C15.6259 30.7788 15.7815 30.7859 15.9365 30.8071C16.0119 30.884 16.1039 30.9195 16.2124 30.9137C16.3597 30.8854 16.5083 30.8712 16.658 30.8711C16.7211 30.9324 16.799 30.9607 16.8914 30.9563C17.1156 30.8831 17.3066 30.9257 17.4643 31.0841C17.1401 31.0806 16.8147 31.0948 16.4882 31.1267C16.3892 31.1267 16.2901 31.1267 16.1911 31.1267C15.9627 31.0337 15.7222 30.9769 15.4696 30.9563C15.4381 30.9272 15.4098 30.8988 15.3848 30.8711C15.443 30.8777 15.4997 30.8706 15.5545 30.8497C15.5157 30.8379 15.4874 30.8166 15.4696 30.7858Z"
            fill="#8BACDB" />
        <path fill-rule="evenodd" clip-rule="evenodd"
            d="M18.7376 30.4443C18.7532 30.527 18.7815 30.6052 18.8224 30.6787C18.9925 30.6741 19.141 30.7238 19.2681 30.8278C19.3595 30.7948 19.4514 30.7664 19.5439 30.7426C19.6814 30.7463 19.8087 30.7179 19.9259 30.6574C19.9168 30.7289 19.9451 30.7715 20.0108 30.7852C19.5723 30.9273 19.1196 31.0267 18.6527 31.0835C18.4268 31.0338 18.2004 30.9841 17.9736 30.9343C18.0893 30.9266 18.2025 30.9053 18.3132 30.8704C18.2038 30.8089 18.1048 30.7379 18.0161 30.6574C18.1209 30.5746 18.2483 30.532 18.398 30.5296C18.5112 30.5011 18.6244 30.4728 18.7376 30.4443Z"
            fill="#A97BDE" />
        <path fill-rule="evenodd" clip-rule="evenodd"
            d="M15.2575 30.8711C15.2999 30.8711 15.3423 30.8711 15.3848 30.8711C15.4099 30.8988 15.4381 30.9273 15.4697 30.9563C15.7222 30.9769 15.9627 31.0338 16.1912 31.1268C15.8738 31.1764 15.5485 31.2049 15.215 31.212C15.0896 31.1839 14.9623 31.1697 14.8331 31.1694C14.6118 31.1077 14.3854 31.0509 14.154 30.9989C14.0415 31.0028 13.9425 30.9744 13.8569 30.9137C14.0206 30.9401 14.1762 30.9401 14.3238 30.9137C14.5501 30.9137 14.7765 30.9137 15.0028 30.9137C15.0849 30.886 15.1698 30.8718 15.2575 30.8711Z"
            fill="#81C6D9" />
        <path fill-rule="evenodd" clip-rule="evenodd"
            d="M12.8809 30.999C13.5346 31.0489 14.1853 31.1057 14.8331 31.1695C14.9623 31.1698 15.0897 31.184 15.2151 31.2121C15.2452 31.2506 15.2876 31.2648 15.3424 31.2547C15.3279 31.2904 15.2996 31.3046 15.2575 31.2973C14.4493 31.2811 13.6571 31.1816 12.8809 30.999Z"
            fill="#91E7C2" />
        <path fill-rule="evenodd" clip-rule="evenodd"
            d="M16.191 31.127C16.29 31.127 16.389 31.127 16.4881 31.127C16.7276 31.1884 16.9681 31.2452 17.2095 31.2974C16.9123 31.309 16.6152 31.3232 16.3183 31.34C16.001 31.2903 15.6756 31.2619 15.3422 31.2548C15.2874 31.2649 15.2449 31.2507 15.2148 31.2122C15.5483 31.2051 15.8736 31.1766 16.191 31.127Z"
            fill="#ADC3AE" />
        <path fill-rule="evenodd" clip-rule="evenodd"
            d="M17.4644 31.0835C17.623 31.094 17.7786 31.1224 17.9313 31.1688C18.0854 31.137 18.241 31.1228 18.3981 31.1261C18.0092 31.1981 17.6131 31.2549 17.2098 31.2966C16.9683 31.2443 16.7278 31.1875 16.4883 31.1261C16.8148 31.0942 17.1402 31.08 17.4644 31.0835Z"
            fill="#B7A8B9" />
        <path fill-rule="evenodd" clip-rule="evenodd"
            d="M15.3422 31.2539C15.6757 31.261 16.001 31.2894 16.3183 31.3391C15.9569 31.353 15.6032 31.3388 15.2573 31.2965C15.2994 31.3038 15.3277 31.2896 15.3422 31.2539Z"
            fill="#CDE5A1" />
    </g>
    <defs>
        <clipPath id="clip0_5109_320">
            <rect width="32" height="32" fill="white" />
        </clipPath>
    </defs>
</svg>