<svg width="32" height="32" viewBox="0 0 32 32" fill="none" xmlns="http://www.w3.org/2000/svg">
<path d="M32 16C32 24.8365 24.8365 32 16 32C7.16347 32 0 24.8365 0 16C0 7.16344 7.16347 0 16 0C24.8365 0 32 7.16344 32 16Z" fill="#0099FF"/>
<path d="M27.3245 8.17934C27.3245 12.2004 22.2537 15.4603 15.9986 15.4603C9.74361 15.4603 4.67285 12.2004 4.67285 8.17934C4.67285 4.15821 9.74361 0.898438 15.9986 0.898438C22.2537 0.898438 27.3245 4.15821 27.3245 8.17934Z" fill="url(#paint0_linear_5503_375)"/>
<path d="M16.0623 25.4848C13.6759 25.4848 11.8398 24.9096 10.555 23.7585C9.26988 22.607 8.62793 20.921 8.62793 18.7054V7.37207H13.0906V18.4424C13.0906 19.6738 13.323 20.5922 13.7887 21.1955C14.2546 21.7998 15.0126 22.1011 16.0623 22.1011C17.0886 22.1011 17.8415 21.8113 18.3237 21.2313C18.8053 20.6519 19.0455 19.7219 19.0455 18.4424V7.37207H23.5102V18.6931C23.5102 20.8783 22.8831 22.5558 21.6299 23.7279C20.3761 24.8996 18.521 25.4848 16.0623 25.4848Z" fill="white"/>
<defs>
<linearGradient id="paint0_linear_5503_375" x1="24.3581" y1="2.08463e-06" x2="24.3581" y2="32" gradientUnits="userSpaceOnUse">
<stop stop-color="white" stop-opacity="0.63"/>
<stop offset="0.78125" stop-color="white" stop-opacity="0"/>
</linearGradient>
</defs>
</svg>