<svg width="32" height="32" viewBox="0 0 32 32" fill="none" xmlns="http://www.w3.org/2000/svg">
    <g clip-path="url(#clip0_5008_76)">
        <path fill-rule="evenodd" clip-rule="evenodd"
            d="M-0.0175781 -0.0175781C10.6491 -0.0175781 21.3158 -0.0175781 31.9824 -0.0175781C31.9824 10.6491 31.9824 21.3158 31.9824 31.9824C21.3158 31.9824 10.6491 31.9824 -0.0175781 31.9824C-0.0175781 21.3158 -0.0175781 10.6491 -0.0175781 -0.0175781Z"
            fill="#FEFEFE" />
        <path fill-rule="evenodd" clip-rule="evenodd"
            d="M25.867 5.56473C25.867 5.57657 25.867 5.58844 25.867 5.60028C25.8552 5.60028 25.8433 5.60028 25.8315 5.60028C21.0255 5.58844 16.2255 5.60028 11.4315 5.63584C11.4034 5.62578 11.3797 5.608 11.3604 5.5825C16.1959 5.56473 21.0315 5.55879 25.867 5.56473Z"
            fill="#909090" />
        <path fill-rule="evenodd" clip-rule="evenodd"
            d="M25.8666 5.56445C25.914 10.4771 25.914 15.3956 25.8666 20.32C25.845 20.3156 25.8332 20.3038 25.8311 20.2845C25.8666 15.3956 25.8785 10.5008 25.8666 5.60001C25.8666 5.58817 25.8666 5.57629 25.8666 5.56445Z"
            fill="#F1F1F1" />
        <path fill-rule="evenodd" clip-rule="evenodd"
            d="M25.8307 5.60014C25.8425 10.4856 25.8306 15.3686 25.7951 20.249C24.1716 18.6314 22.5657 16.9959 20.9773 15.3424C20.9596 13.7306 20.9536 12.1187 20.9596 10.5068C19.3714 10.5127 17.7832 10.5068 16.1951 10.489C14.6007 8.87687 13.0126 7.25909 11.4307 5.6357C16.2247 5.60014 21.0247 5.5883 25.8307 5.60014Z"
            fill="#565455" />
        <path fill-rule="evenodd" clip-rule="evenodd"
            d="M25.8315 5.59961C25.8433 5.59961 25.8552 5.59961 25.867 5.59961C25.8788 10.5004 25.867 15.3952 25.8315 20.2841C25.8077 20.2841 25.7959 20.2722 25.7959 20.2485C25.8314 15.368 25.8433 10.485 25.8315 5.59961Z"
            fill="#373737" />
        <path fill-rule="evenodd" clip-rule="evenodd"
            d="M9.83118 6.80908C9.81603 6.96716 9.88715 7.05015 10.0445 7.05797C10.0593 7.14967 10.0356 7.22672 9.9734 7.28908C10.0115 7.33473 10.0589 7.34657 10.1156 7.32464C10.0755 9.21388 10.0162 11.1102 9.93785 13.0135C9.93838 13.2937 9.95026 13.5722 9.9734 13.8491C9.89763 13.9962 9.83836 14.1503 9.79563 14.3113C9.81465 14.3743 9.8443 14.3861 9.88451 14.3469C9.90211 14.417 9.90805 14.4881 9.90229 14.5602C9.90229 14.6076 9.90229 14.655 9.90229 14.7024C9.83662 14.9064 9.79516 15.1197 9.77785 15.3424C9.75413 15.7217 9.75413 16.1009 9.77785 16.4802C9.78464 16.5587 9.80242 16.6298 9.83118 16.6935C9.91719 17.3504 10.095 17.9785 10.3645 18.578C10.4117 18.7435 10.4591 18.9094 10.5067 19.0757C10.4958 19.1045 10.478 19.1282 10.4534 19.1469C10.3586 19.0995 10.2875 19.0284 10.2401 18.9335C10.2341 18.9691 10.2282 19.0046 10.2223 19.0402C10.2903 19.121 10.3259 19.2158 10.329 19.3246C10.3882 19.3246 10.4475 19.3246 10.5067 19.3246C10.5067 19.5143 10.5067 19.7039 10.5067 19.8935C10.4712 19.8935 10.4356 19.8935 10.4001 19.8935C10.4001 20.4624 10.4001 21.0313 10.4001 21.6002C10.3408 21.6002 10.2816 21.6002 10.2223 21.6002C10.2341 23.0108 10.2223 24.4211 10.1867 25.8313C10.0765 25.7732 9.95801 25.7377 9.83118 25.7246C9.44775 25.4912 9.06851 25.2483 8.6934 24.9957C8.62681 24.9352 8.56754 24.87 8.51562 24.8002C8.58446 24.8272 8.64963 24.8627 8.71118 24.9069C8.79374 24.8657 8.85895 24.8064 8.90674 24.7291C8.89952 24.6684 8.8699 24.621 8.81785 24.5869C8.80007 24.3501 8.79417 24.1131 8.80007 23.8757C8.84747 23.8757 8.8949 23.8757 8.94229 23.8757C8.84917 23.5029 8.80174 23.1236 8.80007 22.738C8.84747 22.738 8.8949 22.738 8.94229 22.738C8.94229 21.7898 8.94229 20.8417 8.94229 19.8935C8.98969 19.8935 9.03712 19.8935 9.08451 19.8935C9.08451 18.5661 9.08451 17.2387 9.08451 15.9113C9.13191 15.9113 9.17934 15.9113 9.22674 15.9113C9.22674 15.7217 9.22674 15.532 9.22674 15.3424C9.17934 15.3424 9.13191 15.3424 9.08451 15.3424C9.08451 15.2476 9.08451 15.1528 9.08451 15.058C9.13191 15.058 9.17934 15.058 9.22674 15.058C9.22674 14.7735 9.22674 14.4891 9.22674 14.2046C9.26229 14.2046 9.29785 14.2046 9.3334 14.2046C9.3334 13.8254 9.3334 13.4461 9.3334 13.0669C9.29785 13.0669 9.26229 13.0669 9.22674 13.0669C9.22674 12.972 9.22674 12.8772 9.22674 12.7824C9.27413 12.7824 9.32156 12.7824 9.36896 12.7824C9.36896 11.1706 9.36896 9.5587 9.36896 7.94686C9.41635 7.94686 9.46379 7.94686 9.51118 7.94686C9.51712 7.54373 9.51118 7.14074 9.4934 6.73797C9.43203 6.77623 9.36686 6.78216 9.29785 6.75575C9.37234 6.73598 9.37827 6.7182 9.31563 6.70241C9.24256 6.7448 9.17145 6.7448 9.10229 6.70241C9.08512 6.73612 9.07922 6.77168 9.08451 6.80908C9.0357 6.8035 8.98827 6.80944 8.94229 6.82686C8.84242 6.8739 8.74763 6.92723 8.65785 6.98686C8.68594 6.94085 8.72149 6.89936 8.76451 6.86241C8.98574 6.706 9.21091 6.55788 9.44007 6.41797C9.57849 6.5411 9.70883 6.67148 9.83118 6.80908Z"
            fill="#B9C706" />
        <path fill-rule="evenodd" clip-rule="evenodd"
            d="M8.51548 24.7999C8.21738 24.5642 7.92704 24.3153 7.64437 24.0533C7.3728 23.7579 7.10019 23.4616 6.82659 23.1644C6.80654 23.0795 6.76508 23.0084 6.70215 22.951C6.70275 22.8967 6.72647 22.8789 6.77326 22.8977C6.80302 22.9337 6.81486 22.9751 6.80882 23.0221C6.8822 23.0288 6.95331 23.0466 7.02215 23.0755C7.01031 23.0873 6.99843 23.0992 6.98659 23.111C7.0421 23.1445 7.08953 23.186 7.12882 23.2355C7.05482 23.303 7.07854 23.3326 7.19993 23.3244C7.21177 23.2888 7.22364 23.2533 7.23548 23.2177C7.19705 23.0731 7.17333 22.925 7.16437 22.7733C7.02215 22.7614 7.02215 22.7495 7.16437 22.7377C7.21685 21.3161 7.25241 19.8938 7.27104 18.471C7.30659 18.471 7.34215 18.471 7.3777 18.471C7.35747 17.7575 7.38119 17.0464 7.44882 16.3377C7.41351 16.1975 7.38979 16.0553 7.3777 15.911C7.4843 14.3962 7.54357 12.8791 7.55548 11.3599C7.59104 11.3599 7.62659 11.3599 7.66215 11.3599C7.65621 10.3643 7.66215 9.36874 7.67993 8.37326C7.70364 8.34954 7.72732 8.32586 7.75104 8.30215C7.75907 8.20988 7.77685 8.12099 7.80437 8.03548C7.79253 8.02364 7.78066 8.01177 7.76882 7.99993C7.80874 7.96281 7.85614 7.93913 7.91104 7.92882C7.8992 7.91698 7.88732 7.9051 7.87548 7.89326C8.01653 7.87609 8.14691 7.82869 8.26659 7.75104C8.30816 7.67968 8.33184 7.60266 8.3377 7.51993C8.07733 7.59413 7.85806 7.73635 7.67993 7.94659C7.65607 7.91986 7.62645 7.90798 7.59104 7.91104C7.91399 7.56434 8.26954 7.25618 8.6577 6.98659C8.74748 6.92697 8.84227 6.87363 8.94215 6.82659C8.98812 6.80917 9.03555 6.80323 9.08437 6.80882C9.07907 6.77141 9.08498 6.73586 9.10215 6.70215C9.1713 6.74453 9.24242 6.74453 9.31548 6.70215C9.37813 6.71794 9.37219 6.73571 9.2977 6.75548C9.36672 6.7819 9.43189 6.77596 9.49326 6.7377C9.51104 7.14048 9.51698 7.54346 9.51104 7.94659C9.46364 7.94659 9.41621 7.94659 9.36882 7.94659C9.36882 9.55843 9.36882 11.1703 9.36882 12.7821C9.32142 12.7821 9.27399 12.7821 9.22659 12.7821C9.22659 12.877 9.22659 12.9718 9.22659 13.0666C9.26215 13.0666 9.2977 13.0666 9.33326 13.0666C9.33326 13.4459 9.33326 13.8251 9.33326 14.2044C9.2977 14.2044 9.26215 14.2044 9.22659 14.2044C9.22659 14.4888 9.22659 14.7733 9.22659 15.0577C9.1792 15.0577 9.13177 15.0577 9.08437 15.0577C9.08437 15.1525 9.08437 15.2473 9.08437 15.3421C9.13177 15.3421 9.1792 15.3421 9.22659 15.3421C9.22659 15.5318 9.22659 15.7214 9.22659 15.911C9.1792 15.911 9.13177 15.911 9.08437 15.911C9.08437 17.2384 9.08437 18.5659 9.08437 19.8933C9.03698 19.8933 8.98954 19.8933 8.94215 19.8933C8.94215 20.8414 8.94215 21.7895 8.94215 22.7377C8.89475 22.7377 8.84732 22.7377 8.79993 22.7377C8.8016 23.1234 8.84903 23.5026 8.94215 23.8755C8.89475 23.8755 8.84732 23.8755 8.79993 23.8755C8.79402 24.1128 8.79993 24.3499 8.8177 24.5866C8.86976 24.6207 8.89938 24.6681 8.90659 24.7288C8.85881 24.8062 8.7936 24.8655 8.71104 24.9066C8.64949 24.8625 8.58432 24.8269 8.51548 24.7999Z"
            fill="#BFCB05" />
        <path fill-rule="evenodd" clip-rule="evenodd"
            d="M9.83145 6.80859C10.1901 7.17659 10.5457 7.54399 10.8981 7.91082C10.877 8.09418 10.8415 8.24827 10.7915 8.37304C10.8388 8.37304 10.8863 8.37304 10.9337 8.37304C10.9337 8.42043 10.9337 8.46786 10.9337 8.51526C10.8863 8.51526 10.8388 8.51526 10.7915 8.51526C10.7855 9.71234 10.7915 10.9094 10.8092 12.1064C10.9186 12.1704 10.9245 12.2416 10.827 12.3197C10.8665 12.3469 10.8903 12.3825 10.8981 12.4264C10.4488 13.0876 10.117 13.7987 9.90257 14.5597C9.90833 14.4876 9.90239 14.4165 9.88479 14.3464C9.84457 14.3856 9.81492 14.3738 9.7959 14.3108C9.83864 14.1499 9.89791 13.9958 9.97368 13.8486C9.95053 13.5717 9.93865 13.2932 9.93812 13.013C10.0165 11.1097 10.0758 9.21339 10.1159 7.32415C10.0592 7.34609 10.0118 7.33425 9.97368 7.28859C10.0359 7.22623 10.0596 7.14918 10.0448 7.05748C9.88742 7.04966 9.81631 6.96667 9.83145 6.80859Z"
            fill="#B6C607" />
        <path fill-rule="evenodd" clip-rule="evenodd"
            d="M6.70183 22.9506C5.58151 21.5461 4.85856 19.9579 4.53294 18.1862C4.45657 17.8109 4.39136 17.4317 4.33739 17.0484C4.31961 16.4204 4.31367 15.7922 4.31961 15.164C4.53778 12.3386 5.62816 9.92085 7.59072 7.91064C7.62613 7.90758 7.65575 7.91946 7.67961 7.9462C7.85774 7.73596 8.07701 7.59374 8.33739 7.51953C8.33152 7.60227 8.30784 7.67928 8.26628 7.75064C8.1466 7.8283 8.01621 7.87569 7.87517 7.89286C7.88701 7.9047 7.89888 7.91658 7.91072 7.92842C7.85582 7.93873 7.80843 7.96241 7.7685 7.99953C7.78034 8.01137 7.79221 8.02325 7.80405 8.03509C7.77653 8.1206 7.75876 8.20949 7.75072 8.30175C7.72701 8.32547 7.70333 8.34915 7.67961 8.37286C7.66183 9.36835 7.65589 10.3639 7.66183 11.3595C7.62628 11.3595 7.59072 11.3595 7.55517 11.3595C7.54325 12.8787 7.48398 14.3958 7.37739 15.9106C7.38948 16.0549 7.41319 16.1971 7.4485 16.3373C7.38087 17.046 7.35716 17.7571 7.37739 18.4706C7.34183 18.4706 7.30628 18.4706 7.27072 18.4706C7.25209 19.8934 7.21653 21.3157 7.16405 22.7373C7.02183 22.7491 7.02183 22.761 7.16405 22.7729C7.17301 22.9246 7.19673 23.0727 7.23517 23.2173C7.22333 23.2529 7.21145 23.2884 7.19961 23.324C7.07822 23.3322 7.05451 23.3026 7.1285 23.2351C7.08921 23.1856 7.04178 23.1441 6.98628 23.1106C6.99812 23.0988 7.00999 23.0869 7.02183 23.0751C6.953 23.0462 6.88189 23.0284 6.8085 23.0218C6.81454 22.9747 6.8027 22.9333 6.77294 22.8973C6.72615 22.8785 6.70244 22.8963 6.70183 22.9506Z"
            fill="#C4CD06" />
        <path fill-rule="evenodd" clip-rule="evenodd"
            d="M10.898 7.91113C11.6568 8.68159 12.4153 9.45193 13.1735 10.2222C12.3103 10.8484 11.5518 11.5832 10.898 12.4267C10.8901 12.3828 10.8664 12.3472 10.8268 12.32C10.9244 12.2419 10.9185 12.1708 10.8091 12.1067C10.7913 10.9097 10.7854 9.71266 10.7913 8.51558C10.8387 8.51558 10.8861 8.51558 10.9335 8.51558C10.9335 8.46818 10.9335 8.42075 10.9335 8.37335C10.8861 8.37335 10.8387 8.37335 10.7913 8.37335C10.8413 8.24859 10.8769 8.09449 10.898 7.91113Z"
            fill="#B1C408" />
        <path fill-rule="evenodd" clip-rule="evenodd"
            d="M16.0179 18.8269C15.5961 18.4083 15.1813 17.9816 14.7734 17.5469C14.8439 17.577 14.915 17.5948 14.9868 17.6002C14.9986 17.5884 15.0105 17.5765 15.0223 17.5647C14.9687 17.5349 14.951 17.4934 14.969 17.4402C15.0266 17.5021 15.0799 17.5673 15.129 17.6358C15.1645 17.6595 15.2001 17.6595 15.2357 17.6358C15.221 17.5123 15.2092 17.3879 15.2001 17.2625C15.2257 17.1832 15.2731 17.1181 15.3423 17.0669C15.2964 17.0495 15.2489 17.0435 15.2001 17.0491C15.2001 16.6698 15.2001 16.2906 15.2001 15.9113C15.2475 15.9113 15.2949 15.9113 15.3423 15.9113C15.3422 15.3409 15.3363 14.7957 15.3245 14.2758C15.2866 14.3004 15.2451 14.3181 15.2001 14.3291C15.1311 14.4164 15.0481 14.4815 14.9512 14.5247C15.2712 14.2165 15.5912 13.9084 15.9112 13.6002C15.9591 13.619 16.0065 13.6249 16.0534 13.618C16.0372 13.6033 16.0253 13.5855 16.0179 13.5647C16.0534 13.5291 16.089 13.4936 16.1245 13.458C16.1685 13.4845 16.2159 13.4964 16.2668 13.4936C16.2607 13.6108 16.2844 13.6227 16.3379 13.5291C16.3666 13.5401 16.3903 13.5578 16.409 13.5825C16.3199 15.0622 16.2488 16.5496 16.1957 18.0447C16.196 18.2904 16.2078 18.5334 16.2312 18.7736C16.1939 18.7911 16.1584 18.7852 16.1245 18.7558C16.0973 18.7953 16.0618 18.819 16.0179 18.8269Z"
            fill="#9DBA0F" />
        <path fill-rule="evenodd" clip-rule="evenodd"
            d="M18.4001 27.0403C18.1319 27.0866 17.8712 27.1459 17.6179 27.218C17.3278 27.2701 17.0315 27.2938 16.729 27.2891C16.0727 27.3588 15.4209 27.3706 14.7734 27.3247C15.1527 27.3247 15.5319 27.3247 15.9112 27.3247C15.9106 25.6046 15.958 23.8861 16.0534 22.1691C16.1514 22.159 16.2461 22.1353 16.3379 22.098C15.9457 22.076 15.5546 22.0464 15.1645 22.0091C15.5444 22.0032 15.9236 21.9854 16.3023 21.9558C15.8391 21.9436 15.3888 21.908 14.9512 21.8491C15.371 21.8947 15.7858 21.8947 16.1957 21.8491C16.3849 21.8303 16.5745 21.8126 16.7645 21.7958C17.045 21.7103 17.3295 21.6391 17.6179 21.5825C17.8513 21.4976 18.0764 21.3969 18.2934 21.2803C17.5322 20.4599 16.7736 19.6421 16.0179 18.8269C16.0618 18.8191 16.0973 18.7953 16.1245 18.7558C16.1584 18.7852 16.1939 18.7911 16.2312 18.7736C16.2078 18.5334 16.196 18.2904 16.1957 18.0447C16.2488 16.5497 16.3199 15.0622 16.409 13.5825C16.3903 13.5579 16.3666 13.5401 16.3379 13.5291C16.2844 13.6227 16.2607 13.6108 16.2668 13.4936C16.2159 13.4964 16.1685 13.4846 16.1245 13.458C16.089 13.4936 16.0534 13.5291 16.0179 13.5647C16.0253 13.5855 16.0372 13.6033 16.0534 13.618C16.0065 13.625 15.9591 13.619 15.9112 13.6003C15.9998 13.4689 16.1183 13.3919 16.2668 13.3691C19.2074 16.3809 22.1467 19.3913 25.0845 22.4003C23.4353 24.778 21.2072 26.3247 18.4001 27.0403Z"
            fill="#99B812" />
        <path fill-rule="evenodd" clip-rule="evenodd"
            d="M14.7738 17.5465C14.2875 17.0602 13.8134 16.5624 13.3516 16.0532C13.3708 16.0088 13.3945 15.9673 13.4227 15.9287C13.9365 15.4684 14.4461 15.0002 14.9516 14.5243C15.0485 14.4812 15.1314 14.416 15.2005 14.3287C15.2455 14.3177 15.287 14.3 15.3249 14.2754C15.3366 14.7953 15.3426 15.3405 15.3427 15.9109C15.2953 15.9109 15.2478 15.9109 15.2005 15.9109C15.2005 16.2902 15.2005 16.6695 15.2005 17.0487C15.2493 17.0431 15.2967 17.0491 15.3427 17.0665C15.2734 17.1177 15.226 17.1828 15.2005 17.2621C15.2095 17.3875 15.2214 17.5119 15.236 17.6354C15.2005 17.6591 15.1649 17.6591 15.1293 17.6354C15.0803 17.5669 15.0269 17.5017 14.9693 17.4398C14.9513 17.493 14.9691 17.5345 15.0227 17.5643C15.0108 17.5761 14.999 17.588 14.9871 17.5998C14.9153 17.5944 14.8442 17.5767 14.7738 17.5465Z"
            fill="#A2BD0E" />
        <path fill-rule="evenodd" clip-rule="evenodd"
            d="M9.902 14.7021C9.8381 15.3636 9.81439 16.0273 9.83089 16.6933C9.80212 16.6295 9.78434 16.5584 9.77755 16.4799C9.75384 16.1007 9.75384 15.7214 9.77755 15.3421C9.79487 15.1194 9.83633 14.9061 9.902 14.7021Z"
            fill="#F9F9CD" />
        <path fill-rule="evenodd" clip-rule="evenodd"
            d="M4.32036 15.1641C4.31442 15.7923 4.32036 16.4205 4.33814 17.0485C4.39211 17.4318 4.45732 17.811 4.53369 18.1863C4.49814 18.1863 4.46258 18.1863 4.42703 18.1863C4.41533 17.8733 4.37384 17.5651 4.30258 17.2618C4.27311 16.5565 4.27904 15.8573 4.32036 15.1641Z"
            fill="#EFF0B5" />
        <path fill-rule="evenodd" clip-rule="evenodd"
            d="M10.3644 18.5781C10.5324 18.8598 10.7042 19.1442 10.8799 19.4315C11.091 19.6999 11.3103 19.9606 11.5377 20.2137C11.4808 20.3431 11.3978 20.3549 11.2888 20.2492C11.2533 20.2611 11.2296 20.2848 11.2177 20.3203C11.2533 20.3677 11.2888 20.4152 11.3244 20.4626C11.349 20.4439 11.3668 20.4202 11.3777 20.3915C11.4044 20.4137 11.434 20.4315 11.4666 20.4448C11.4873 20.5024 11.4873 20.5675 11.4666 20.6403C11.5947 20.6951 11.6421 20.784 11.6088 20.907C11.6787 21.7026 11.7025 22.5026 11.6799 23.307C11.6444 23.307 11.6088 23.307 11.5733 23.307C11.5575 24.256 11.5575 25.2042 11.5733 26.1515C11.3676 26.2214 11.1661 26.2806 10.9688 26.3292C10.5729 26.1584 10.1937 25.9569 9.83105 25.7248C9.95788 25.7378 10.0764 25.7734 10.1866 25.8315C10.2222 24.4213 10.234 23.0109 10.2222 21.6003C10.2814 21.6003 10.3407 21.6003 10.3999 21.6003C10.3999 21.0315 10.3999 20.4626 10.3999 19.8937C10.4355 19.8937 10.4711 19.8937 10.5066 19.8937C10.5066 19.7041 10.5066 19.5144 10.5066 19.3248C10.4473 19.3248 10.3881 19.3248 10.3288 19.3248C10.3257 19.216 10.2902 19.1212 10.2222 19.0403C10.2281 19.0048 10.234 18.9692 10.2399 18.9337C10.2873 19.0285 10.3585 19.0996 10.4533 19.147C10.4779 19.1283 10.4957 19.1046 10.5066 19.0759C10.459 18.9096 10.4116 18.7436 10.3644 18.5781Z"
            fill="#B2C406" />
        <path fill-rule="evenodd" clip-rule="evenodd"
            d="M11.5376 20.2129C12.0393 20.6799 12.5963 21.0592 13.2087 21.3507C13.2268 21.399 13.2623 21.4345 13.3154 21.4573C13.2443 21.5047 13.1732 21.5522 13.1021 21.5996C13.0665 22.9267 13.0547 24.2542 13.0665 25.5818C13.0073 25.5818 12.948 25.5818 12.8887 25.5818C12.8887 25.9611 12.8887 26.3403 12.8887 26.7196C12.9492 26.7139 13.0084 26.7198 13.0665 26.7373C13.0933 26.7612 13.1051 26.7908 13.1021 26.8262C12.9535 26.8124 12.8053 26.8361 12.6576 26.8973C12.5688 26.8825 12.4799 26.8706 12.391 26.8618C11.8935 26.7378 11.4194 26.56 10.9688 26.3284C11.166 26.2798 11.3675 26.2206 11.5732 26.1507C11.5574 25.2034 11.5574 24.2552 11.5732 23.3062C11.6087 23.3062 11.6443 23.3062 11.6799 23.3062C11.7024 22.5018 11.6787 21.7018 11.6087 20.9062C11.642 20.7832 11.5946 20.6943 11.4665 20.6396C11.4873 20.5667 11.4873 20.5016 11.4665 20.444C11.434 20.4307 11.4043 20.4129 11.3776 20.3907C11.3667 20.4194 11.3489 20.4431 11.3243 20.4618C11.2887 20.4144 11.2532 20.367 11.2176 20.3196C11.2295 20.284 11.2532 20.2603 11.2887 20.2484C11.3977 20.3542 11.4807 20.3423 11.5376 20.2129Z"
            fill="#ACC108" />
        <path fill-rule="evenodd" clip-rule="evenodd"
            d="M13.2087 21.3516C13.4678 21.4845 13.7404 21.5793 14.0264 21.636C14.1602 21.6732 14.2905 21.7206 14.4176 21.7782C14.402 21.8342 14.3665 21.8757 14.3109 21.9027C14.3807 21.9249 14.44 21.9071 14.4887 21.8493C14.5461 21.8726 14.6054 21.8904 14.6664 21.9027C14.5496 21.9297 14.443 21.9771 14.3464 22.0449C14.5285 22.0955 14.5285 22.131 14.3464 22.1516C14.3817 22.7236 14.3936 23.2984 14.382 23.876C14.3227 23.876 14.2635 23.876 14.2042 23.876C14.2042 24.9545 14.2042 26.0331 14.2042 27.1116C14.0816 27.1255 13.9691 27.1018 13.8664 27.0405C13.7241 27.1158 13.576 27.1277 13.422 27.076C13.4294 27.0552 13.4413 27.0374 13.4576 27.0227C13.3398 26.992 13.2568 26.9446 13.2087 26.8805C13.2324 26.8686 13.2561 26.8567 13.2798 26.8449C13.2217 26.8273 13.1624 26.8214 13.102 26.8271C13.1051 26.7917 13.0932 26.7621 13.0664 26.7382C13.0084 26.7207 12.9491 26.7148 12.8887 26.7205C12.8887 26.3412 12.8887 25.9619 12.8887 25.5827C12.9479 25.5827 13.0072 25.5827 13.0664 25.5827C13.0546 24.2551 13.0664 22.9276 13.102 21.6005C13.1731 21.5531 13.2442 21.5056 13.3153 21.4582C13.2623 21.4354 13.2267 21.3999 13.2087 21.3516Z"
            fill="#A5BE09" />
        <path fill-rule="evenodd" clip-rule="evenodd"
            d="M16.1953 21.8493C15.7854 21.8948 15.3706 21.8948 14.9508 21.8493C14.7741 21.8189 14.5963 21.7952 14.4175 21.7782C14.2904 21.7205 14.1601 21.6731 14.0264 21.6359C14.1695 21.6247 14.3117 21.6188 14.453 21.6182C14.4019 21.626 14.3545 21.6437 14.3108 21.6715C14.9259 21.8294 15.554 21.8887 16.1953 21.8493Z"
            fill="#F2F7C9" />
        <path fill-rule="evenodd" clip-rule="evenodd"
            d="M14.4173 21.7773C14.5961 21.7944 14.7739 21.8181 14.9506 21.8485C15.3882 21.9073 15.8386 21.9429 16.3017 21.9551C15.923 21.9847 15.5438 22.0025 15.164 22.0085C15.554 22.0457 15.9451 22.0753 16.3373 22.0973C16.2456 22.1346 16.1508 22.1584 16.0528 22.1685C15.9574 23.8854 15.91 25.6039 15.9106 27.324C15.5314 27.324 15.1521 27.324 14.7728 27.324C14.7101 27.2898 14.639 27.278 14.5595 27.2885C13.9809 27.2455 13.412 27.1507 12.8528 27.004C12.7812 26.9534 12.6983 26.9297 12.604 26.9329C12.5227 26.9295 12.4516 26.9058 12.3906 26.8618C12.4796 26.8706 12.5685 26.8825 12.6573 26.8973C12.805 26.8362 12.9531 26.8124 13.1017 26.8262C13.1621 26.8205 13.2214 26.8264 13.2795 26.844C13.2558 26.8559 13.2321 26.8677 13.2084 26.8796C13.2565 26.9437 13.3395 26.9911 13.4573 27.0218C13.441 27.0365 13.4292 27.0543 13.4217 27.0751C13.5757 27.1268 13.7239 27.1149 13.8662 27.0396C13.9688 27.1009 14.0814 27.1246 14.204 27.1107C14.204 26.0322 14.204 24.9536 14.204 23.8751C14.2632 23.8751 14.3225 23.8751 14.3817 23.8751C14.3933 23.2976 14.3814 22.7227 14.3462 22.1507C14.5283 22.1302 14.5283 22.0946 14.3462 22.044C14.4427 21.9762 14.5494 21.9288 14.6662 21.9018C14.6051 21.8895 14.5458 21.8717 14.4884 21.8485C14.4397 21.9062 14.3805 21.924 14.3106 21.9018C14.3662 21.8748 14.4018 21.8333 14.4173 21.7773Z"
            fill="#9EBB0E" />
        <path fill-rule="evenodd" clip-rule="evenodd"
            d="M12.6045 26.9329C12.6988 26.9297 12.7817 26.9534 12.8534 27.004C12.7591 27.0072 12.6761 26.9835 12.6045 26.9329Z"
            fill="#D8E08A" />
        <path fill-rule="evenodd" clip-rule="evenodd"
            d="M18.4004 27.04C18.3964 27.062 18.3846 27.0798 18.3648 27.0934C18.1201 27.1551 17.8712 27.1966 17.6182 27.2178C17.8715 27.1457 18.1322 27.0864 18.4004 27.04Z"
            fill="#F5FAD1" />
        <path fill-rule="evenodd" clip-rule="evenodd"
            d="M14.5596 27.2888C14.639 27.2784 14.7101 27.2902 14.7729 27.3244C15.4203 27.3703 16.0722 27.3585 16.7285 27.2888C16.6954 27.3178 16.6599 27.3474 16.6218 27.3777C15.9581 27.4015 15.2944 27.4015 14.6307 27.3777C14.5994 27.3526 14.5757 27.3229 14.5596 27.2888Z"
            fill="#F9FADF" />
    </g>
    <defs>
        <clipPath id="clip0_5008_76">
            <rect width="32" height="32" fill="white" />
        </clipPath>
    </defs>
</svg>