<svg width="32" height="32" viewBox="0 0 32 32" fill="none" xmlns="http://www.w3.org/2000/svg">
    <path opacity="0.999" fill-rule="evenodd" clip-rule="evenodd"
        d="M22.4917 0.00716666C22.523 0.0386047 22.564 0.0590748 22.6146 0.0685771C19.0164 3.56238 15.4389 7.0764 11.8821 10.6107C9.2749 9.51399 6.87167 9.8483 4.67244 11.6137C2.6714 13.5055 2.00918 15.7913 2.6857 18.4712C2.77631 18.7634 2.87872 19.05 2.99293 19.331C1.98366 20.285 0.986882 21.2539 0.00256082 22.2377C-0.00426786 17.9799 0.00256082 13.7221 0.0230428 9.46437C0.265754 5.43523 2.1979 2.54894 5.81943 0.805502C6.6975 0.425756 7.61234 0.180115 8.56402 0.0685771C13.2059 0.00807963 17.8484 -0.0123905 22.4917 0.00716666Z"
        fill="#00ADEE" />
    <path opacity="0.999" fill-rule="evenodd" clip-rule="evenodd"
        d="M22.4915 0.00683594C23.6299 0.0215007 24.7223 0.239852 25.7686 0.66188C21.8622 4.53872 17.9433 8.40074 14.012 12.248C13.4117 11.5652 12.7016 11.0193 11.8818 10.6104C15.4386 7.07607 19.0161 3.56205 22.6144 0.0682463C22.5637 0.0587441 22.5227 0.038274 22.4915 0.00683594Z"
        fill="#00AAEB" />
    <path fill-rule="evenodd" clip-rule="evenodd"
        d="M25.7684 0.662109C26.3943 0.872542 26.9815 1.15912 27.5299 1.52185C22.6154 6.32435 17.7134 11.1416 12.8238 15.9738C11.95 15.9738 11.076 15.9738 10.2021 15.9738C11.0476 15.1561 11.8806 14.3236 12.7009 13.4764C13.3698 13.7338 13.8273 13.5291 14.0732 12.8623C14.1067 12.6514 14.0863 12.4467 14.0118 12.2482C17.9432 8.40096 21.8621 4.53895 25.7684 0.662109Z"
        fill="#00A7E8" />
    <path opacity="0.999" fill-rule="evenodd" clip-rule="evenodd"
        d="M27.5303 1.52148C28.2041 1.93527 28.8049 2.44018 29.3327 3.03627C26.955 5.37024 24.5791 7.70383 22.205 10.0371C20.0483 10.401 18.4166 11.52 17.3098 13.3942C16.9399 14.0784 16.6873 14.8016 16.5519 15.564C16.2083 15.8665 15.8942 16.194 15.6098 16.5466C15.4846 16.2579 15.2662 16.0737 14.9543 15.9939C14.2444 15.9734 13.5344 15.9666 12.8242 15.9734C17.7138 11.1413 22.6157 6.32398 27.5303 1.52148Z"
        fill="#01A4E6" />
    <path opacity="0.999" fill-rule="evenodd" clip-rule="evenodd"
        d="M29.3328 3.03711C30.036 3.74038 30.5959 4.54555 31.0123 5.45258C29.2612 7.1139 27.527 8.79929 25.8099 10.5087C25.8327 10.5244 25.8463 10.5449 25.8509 10.5701C24.6823 10.0812 23.4671 9.90381 22.2051 10.0379C24.5793 7.70467 26.9552 5.37107 29.3328 3.03711Z"
        fill="#00A0E2" />
    <path opacity="0.997" fill-rule="evenodd" clip-rule="evenodd"
        d="M31.012 5.45215C31.2313 5.83609 31.3951 6.24549 31.5036 6.68036C29.9606 8.1678 28.4313 9.66895 26.9156 11.1838C26.5726 10.9578 26.2176 10.7531 25.8505 10.5697C25.846 10.5444 25.8323 10.524 25.8096 10.5083C27.5267 8.79885 29.2609 7.11346 31.012 5.45215Z"
        fill="#009DDF" />
    <path opacity="0.997" fill-rule="evenodd" clip-rule="evenodd"
        d="M31.504 6.68066C31.7222 7.28597 31.8656 7.9137 31.9341 8.56392C31.989 9.27235 32.0095 9.98196 31.9955 10.6928C30.9863 11.6469 29.9895 12.6158 29.0052 13.5996C28.6745 13.0623 28.3127 12.5437 27.9196 12.0438C27.6013 11.7321 27.2668 11.4455 26.916 11.1841C28.4318 9.66926 29.9611 8.16811 31.504 6.68066Z"
        fill="#009ADC" />
    <path fill-rule="evenodd" clip-rule="evenodd"
        d="M11.8825 10.6108C12.7023 11.0198 13.4124 11.5656 14.0126 12.2484C14.0871 12.447 14.1076 12.6517 14.0741 12.8625C13.8281 13.5293 13.3707 13.734 12.7018 13.4767C12.0798 12.7749 11.3151 12.2836 10.4078 12.0028C8.10885 11.4697 6.28596 12.1657 4.9391 14.0908C4.23465 15.2914 4.06395 16.5605 4.42706 17.8982C4.68103 18.8295 5.1726 19.6074 5.90176 20.2318C6.38222 20.6496 6.92843 20.9635 7.54031 21.1734C9.23958 21.6607 10.7825 21.3605 12.1692 20.2727C12.9612 20.2727 13.7532 20.2727 14.5451 20.2727C13.1513 22.2931 11.2123 23.2757 8.72826 23.2204C7.80953 23.1781 6.93564 22.9598 6.10658 22.5654C5.55491 22.2599 5.03607 21.9051 4.54995 21.5009C3.90399 20.8689 3.38514 20.1457 2.99332 19.3311C2.87911 19.0501 2.7767 18.7636 2.68609 18.4714C2.00957 15.7915 2.67179 13.5056 4.67284 11.6139C6.87207 9.84844 9.2753 9.51413 11.8825 10.6108Z"
        fill="#FEFEFE" />
    <path fill-rule="evenodd" clip-rule="evenodd"
        d="M25.8509 10.5696C26.218 10.7531 26.573 10.9578 26.9159 11.1838C27.2668 11.4452 27.6013 11.7318 27.9196 12.0435C28.3126 12.5433 28.6744 13.0619 29.0051 13.5992C29.2533 14.1249 29.4444 14.6708 29.5786 15.2368C29.9134 16.9 29.6676 18.4694 28.8412 19.945C28.2237 20.9853 27.3907 21.8041 26.3424 22.4014C24.8666 23.1521 23.3099 23.3842 21.6726 23.0974C21.0948 22.9524 20.535 22.7477 19.993 22.4833C19.035 21.9627 18.243 21.253 17.6171 20.3544C17.37 19.997 17.1652 19.6149 17.0027 19.208C16.5322 18.0338 16.3821 16.8192 16.5521 15.5644C16.6874 14.802 16.94 14.0788 17.3099 13.3945C18.4167 11.5204 20.0484 10.4013 22.2051 10.0374C23.4671 9.90334 24.6823 10.0808 25.8509 10.5696Z"
        fill="#FEFEFE" />
    <path opacity="0.996" fill-rule="evenodd" clip-rule="evenodd"
        d="M31.9952 10.6924C31.9952 11.4293 31.9952 12.1662 31.9952 12.9032C31.1772 13.6661 30.3716 14.444 29.5784 15.2368C29.4442 14.6707 29.253 14.1248 29.0049 13.5991C29.9892 12.6153 30.986 11.6465 31.9952 10.6924Z"
        fill="#0196D9" />
    <path fill-rule="evenodd" clip-rule="evenodd"
        d="M10.4072 12.0025C9.75066 12.686 9.08159 13.3546 8.39995 14.0086C7.76596 13.584 7.26755 13.7069 6.90477 14.377C6.83886 14.719 6.90031 15.0329 7.08911 15.3187C6.18909 16.1636 5.30157 17.0233 4.42646 17.8979C4.06335 16.5602 4.23405 15.2911 4.93851 14.0905C6.28536 12.1654 8.10825 11.4694 10.4072 12.0025Z"
        fill="#04ADEE" />
    <path fill-rule="evenodd" clip-rule="evenodd"
        d="M24.3352 12.0027C24.3049 11.9974 24.2776 12.0042 24.2533 12.0232C22.3348 13.9133 20.4163 15.8033 18.4978 17.6934C18.4778 17.7464 18.4709 17.801 18.4774 17.8572C17.9955 15.6789 18.6509 13.9252 20.4436 12.5964C21.6603 11.8119 22.9574 11.6141 24.3352 12.0027Z"
        fill="#05A0E1" />
    <path fill-rule="evenodd" clip-rule="evenodd"
        d="M10.4076 12.0029C11.3149 12.2837 12.0796 12.775 12.7016 13.4768C11.8812 14.324 11.0483 15.1564 10.2028 15.9741C9.99618 15.9875 9.79136 15.9739 9.58834 15.9332C9.20218 15.2838 8.80618 14.6424 8.40039 14.009C9.08203 13.3551 9.75109 12.6864 10.4076 12.0029Z"
        fill="#02AAEB" />
    <path fill-rule="evenodd" clip-rule="evenodd"
        d="M24.3348 12.0027C24.7672 12.0874 25.1632 12.2512 25.5227 12.494C23.3723 14.65 21.2013 16.7857 19.0095 18.9012C18.9787 18.9286 18.965 18.9628 18.9685 19.0035C18.7339 18.6557 18.57 18.2736 18.4769 17.8572C18.4705 17.801 18.4774 17.7464 18.4974 17.6934C20.4159 15.8034 22.3344 13.9133 24.2529 12.0232C24.2772 12.0042 24.3045 11.9974 24.3348 12.0027Z"
        fill="#019DDF" />
    <path fill-rule="evenodd" clip-rule="evenodd"
        d="M25.5235 12.4941C26.5326 13.0659 27.229 13.8984 27.6127 14.9915C25.5361 17.026 23.4606 19.0594 21.3862 21.0916C20.5648 20.7691 19.8752 20.2642 19.3175 19.5768C19.1748 19.4005 19.0587 19.2094 18.9693 19.0036C18.9658 18.9629 18.9795 18.9288 19.0103 18.9013C21.202 16.7858 23.3731 14.6501 25.5235 12.4941Z"
        fill="#019ADC" />
    <path opacity="0.995" fill-rule="evenodd" clip-rule="evenodd"
        d="M31.995 12.9033C31.995 14.5 31.995 16.0967 31.995 17.6933C31.9814 17.6933 31.9677 17.6933 31.9541 17.6933C31.9609 17.4473 31.954 17.2017 31.9336 16.9564C30.9321 17.9916 29.9012 18.9878 28.8408 19.945C29.6672 18.4695 29.913 16.9001 29.5782 15.2369C30.3714 14.4441 31.177 13.6663 31.995 12.9033Z"
        fill="#0293D6" />
    <path fill-rule="evenodd" clip-rule="evenodd"
        d="M8.39967 14.0087C8.80546 14.6421 9.20146 15.2835 9.58762 15.9329C9.79064 15.9736 9.99546 15.9872 10.2021 15.9738C11.076 15.9738 11.9499 15.9738 12.8238 15.9738C13.534 15.967 14.244 15.9738 14.9539 15.9943C15.2657 16.0741 15.4842 16.2584 15.6093 16.547C15.638 16.7229 15.6516 16.9003 15.6503 17.0792C15.5729 17.3685 15.3954 17.5801 15.1178 17.7138C14.6424 17.7716 14.1645 17.7921 13.684 17.7752C11.977 17.7888 10.2701 17.7752 8.56353 17.7342C8.54899 17.6924 8.52166 17.6651 8.4816 17.6524C8.04816 16.8539 7.58388 16.076 7.08883 15.3188C6.90002 15.033 6.83858 14.7191 6.90449 14.3771C7.26727 13.707 7.76567 13.5841 8.39967 14.0087Z"
        fill="#FDFEFE" />
    <path fill-rule="evenodd" clip-rule="evenodd"
        d="M27.6123 14.9912C28.3142 17.321 27.6861 19.211 25.7279 20.6614C24.3434 21.493 22.896 21.6363 21.3857 21.0913C23.4602 19.0591 25.5357 17.0257 27.6123 14.9912Z"
        fill="#0396D9" />
    <path fill-rule="evenodd" clip-rule="evenodd"
        d="M7.08941 15.3184C7.58446 16.0756 8.04874 16.8535 8.48218 17.652C7.60523 18.5011 6.74499 19.3609 5.90146 20.2312C5.1723 19.6068 4.68073 18.8289 4.42676 17.8976C5.30187 17.023 6.18939 16.1632 7.08941 15.3184Z"
        fill="#02AAEB" />
    <path opacity="0.999" fill-rule="evenodd" clip-rule="evenodd"
        d="M16.552 15.5645C16.382 16.8193 16.5322 18.0338 17.0026 19.2081C16.6978 19.4648 16.3973 19.7309 16.1014 20.0065C12.4473 23.6107 8.78792 27.2066 5.12308 30.7942C4.25391 30.3626 3.48928 29.7894 2.8291 29.0747C2.91336 28.9287 3.02257 28.799 3.15681 28.6858C5.03452 26.8842 6.89157 25.0624 8.7279 23.2203C11.2119 23.2756 13.1509 22.293 14.5448 20.2726C14.6192 20.2063 14.6738 20.1245 14.7086 20.0269C14.849 19.8421 14.9582 19.6374 15.0363 19.4128C15.087 19.3249 15.1279 19.2293 15.1592 19.1263C15.259 18.9503 15.3273 18.7592 15.3641 18.5531C15.416 18.4546 15.4433 18.3454 15.446 18.2256C15.5593 17.8568 15.6276 17.4747 15.6508 17.0792C15.6522 16.9004 15.6385 16.723 15.6098 16.547C15.8943 16.1944 16.2084 15.8669 16.552 15.5645Z"
        fill="#01A0E2" />
    <path fill-rule="evenodd" clip-rule="evenodd"
        d="M31.9543 17.693C31.9679 18.0216 31.9543 18.3492 31.9134 18.6755C27.421 23.0903 22.9286 27.505 18.4363 31.9197C17.8493 31.9402 17.2621 31.947 16.6748 31.9402C19.7128 28.9244 22.7714 25.929 25.8507 22.9538C26.0392 22.7862 26.2031 22.602 26.3423 22.4011C27.3906 21.8038 28.2235 20.985 28.8411 19.9447C29.9014 18.9874 30.9324 17.9912 31.9339 16.9561C31.9543 17.2013 31.9611 17.447 31.9543 17.693Z"
        fill="#0090D3" />
    <path fill-rule="evenodd" clip-rule="evenodd"
        d="M8.48209 17.6523C8.52216 17.6651 8.54948 17.6924 8.56402 17.7342C10.2706 17.7752 11.9775 17.7888 13.6845 17.7752C13.6845 17.7888 13.6845 17.8025 13.6845 17.8161C12.7559 17.8093 11.8274 17.8161 10.899 17.8366C9.75853 18.9286 8.63886 20.0408 7.53992 21.1732C6.92805 20.9633 6.38183 20.6494 5.90137 20.2316C6.7449 19.3613 7.60514 18.5015 8.48209 17.6523Z"
        fill="#04A7E8" />
    <path fill-rule="evenodd" clip-rule="evenodd"
        d="M13.6846 17.816C13.6509 17.9373 13.6236 18.0601 13.6027 18.1845C13.5404 18.2824 13.4995 18.3915 13.4798 18.512C13.3608 18.7088 13.2516 18.9135 13.1521 19.1261C13.0743 19.2129 13.006 19.3084 12.9473 19.4127C12.7971 19.6038 12.6469 19.7948 12.4967 19.9859C12.3858 20.0818 12.2765 20.1774 12.169 20.2725C10.7822 21.3602 9.2393 21.6605 7.54004 21.1731C8.63898 20.0407 9.75864 18.9285 10.8991 17.8365C11.8275 17.816 12.756 17.8092 13.6846 17.816Z"
        fill="#03A4E5" />
    <path fill-rule="evenodd" clip-rule="evenodd"
        d="M15.6507 17.0791C15.6275 17.4746 15.5593 17.8567 15.4459 18.2254C14.8242 18.2389 14.2098 18.2253 13.6025 18.1845C13.6234 18.0601 13.6508 17.9373 13.6845 17.816C13.6845 17.8024 13.6845 17.7887 13.6845 17.7751C14.1649 17.792 14.6429 17.7715 15.1182 17.7137C15.3959 17.58 15.5734 17.3684 15.6507 17.0791Z"
        fill="#CACAF8" />
    <path opacity="0.995" fill-rule="evenodd" clip-rule="evenodd"
        d="M31.954 17.6934C31.9677 17.6934 31.9814 17.6934 31.995 17.6934C32.0078 19.5093 31.9941 21.3244 31.954 23.1384C28.9501 26.0588 25.9597 28.9928 22.9829 31.9406C20.7986 31.9797 18.6139 31.9933 16.4287 31.9815C16.501 31.9422 16.5829 31.9285 16.6745 31.9406C17.2618 31.9474 17.849 31.9406 18.4359 31.9201C22.9283 27.5054 27.4207 23.0906 31.9131 18.6759C31.9539 18.3495 31.9676 18.022 31.954 17.6934Z"
        fill="#008DD0" />
    <path fill-rule="evenodd" clip-rule="evenodd"
        d="M13.6024 18.1846C14.2096 18.2253 14.8241 18.239 15.4458 18.2255C15.4431 18.3454 15.4158 18.4546 15.3638 18.553C14.7285 18.5665 14.1004 18.5529 13.4795 18.5121C13.4992 18.3916 13.5401 18.2824 13.6024 18.1846Z"
        fill="#D1D0F9" />
    <path fill-rule="evenodd" clip-rule="evenodd"
        d="M13.4801 18.5117C14.101 18.5525 14.7291 18.5662 15.3644 18.5527C15.3276 18.7588 15.2593 18.9498 15.1596 19.1258C14.4905 19.1258 13.8214 19.1258 13.1523 19.1258C13.2518 18.9132 13.3611 18.7085 13.4801 18.5117Z"
        fill="#DBDBFA" />
    <path fill-rule="evenodd" clip-rule="evenodd"
        d="M13.1521 19.126C13.8211 19.126 14.4903 19.126 15.1593 19.126C15.128 19.2291 15.0871 19.3246 15.0364 19.4126C14.34 19.4126 13.6437 19.4126 12.9473 19.4126C13.006 19.3083 13.0743 19.2127 13.1521 19.126Z"
        fill="#E3E3FB" />
    <path opacity="0.999" fill-rule="evenodd" clip-rule="evenodd"
        d="M17.0026 19.208C17.1651 19.6149 17.3699 19.997 17.617 20.3543C17.3258 20.5974 17.0391 20.8498 16.7568 21.1117C13.2803 24.5248 9.81202 27.9433 6.35196 31.3673C5.91979 31.2195 5.51016 31.0284 5.12305 30.7941C8.78788 27.2065 12.4473 23.6106 16.1014 20.0063C16.3973 19.7308 16.6977 19.4647 17.0026 19.208Z"
        fill="#009DDF" />
    <path opacity="0.997" fill-rule="evenodd" clip-rule="evenodd"
        d="M2.99329 19.3311C3.38511 20.1456 3.90396 20.8689 4.54992 21.5009C3.24047 22.8027 1.92278 24.0992 0.596906 25.3902C0.581217 25.3675 0.560735 25.3538 0.53546 25.3493C0.183376 24.3474 0.00587499 23.3102 0.00292969 22.2378C0.987251 21.254 1.98403 20.2851 2.99329 19.3311Z"
        fill="#00AAEB" />
    <path fill-rule="evenodd" clip-rule="evenodd"
        d="M12.9467 19.4131C13.6431 19.4131 14.3395 19.4131 15.0359 19.4131C14.9577 19.6376 14.8485 19.8423 14.7081 20.0272C13.9779 19.9864 13.2406 19.9727 12.4961 19.9862C12.6463 19.7952 12.7965 19.6042 12.9467 19.4131Z"
        fill="#EDEEFD" />
    <path fill-rule="evenodd" clip-rule="evenodd"
        d="M12.4967 19.9865C13.2411 19.973 13.9785 19.9866 14.7087 20.0274C14.6738 20.1249 14.6192 20.2068 14.5449 20.2731C13.7529 20.2731 12.9609 20.2731 12.1689 20.2731C12.2765 20.178 12.3858 20.0824 12.4967 19.9865Z"
        fill="#F5F5FD" />
    <path opacity="0.998" fill-rule="evenodd" clip-rule="evenodd"
        d="M17.6166 20.3545C18.2425 21.2531 19.0345 21.9628 19.9925 22.4834C16.7522 25.6058 13.5297 28.7514 10.3251 31.9201C10.6737 31.9271 11.015 31.9476 11.3492 31.9815C10.0543 32.0422 8.77081 31.9535 7.49855 31.7154C7.10624 31.6279 6.72388 31.5119 6.35156 31.3674C9.81162 27.9435 13.2799 24.525 16.7564 21.1119C17.0387 20.85 17.3254 20.5975 17.6166 20.3545Z"
        fill="#009ADC" />
    <path opacity="0.999" fill-rule="evenodd" clip-rule="evenodd"
        d="M4.54962 21.501C5.03574 21.9051 5.55459 22.2599 6.10625 22.5654C4.5223 24.1075 2.93839 25.6496 1.35443 27.1917C1.00317 26.6123 0.730062 25.9982 0.535156 25.3494C0.560431 25.3539 0.580913 25.3675 0.596602 25.3903C1.92248 24.0993 3.24017 22.8028 4.54962 21.501Z"
        fill="#00A7E8" />
    <path opacity="0.997" fill-rule="evenodd" clip-rule="evenodd"
        d="M26.3419 22.4014C26.2027 22.6022 26.0389 22.7865 25.8504 22.9541C22.771 25.9293 19.7124 28.9247 16.6745 31.9404C16.5829 31.9284 16.501 31.942 16.4287 31.9814C15.1315 31.9814 13.8343 31.9814 12.5371 31.9814C15.5329 29.0214 18.5369 26.0669 21.5492 23.1178C21.588 23.098 21.629 23.0913 21.6721 23.0974C23.3094 23.3841 24.8661 23.1521 26.3419 22.4014Z"
        fill="#0093D6" />
    <path opacity="0.998" fill-rule="evenodd" clip-rule="evenodd"
        d="M19.9927 22.4834C20.5347 22.7479 21.0945 22.9526 21.6722 23.0975C21.6291 23.0914 21.5881 23.0982 21.5493 23.118C18.5371 26.0671 15.5331 29.0216 12.5372 31.9815C12.1412 31.9815 11.7453 31.9815 11.3493 31.9815C11.0152 31.9476 10.6738 31.9271 10.3252 31.9201C13.5298 28.7514 16.7523 25.6058 19.9927 22.4834Z"
        fill="#0096D9" />
    <path opacity="0.998" fill-rule="evenodd" clip-rule="evenodd"
        d="M6.1063 22.5654C6.93537 22.9598 7.80926 23.1782 8.72799 23.2205C6.89166 25.0626 5.03461 26.8844 3.1569 28.686C3.02267 28.7992 2.91346 28.9289 2.82919 29.0749C2.23923 28.523 1.74766 27.8952 1.35449 27.1917C2.93844 25.6496 4.52235 24.1075 6.1063 22.5654Z"
        fill="#00A4E5" />
    <path opacity="0.988" fill-rule="evenodd" clip-rule="evenodd"
        d="M31.9545 23.1387C31.6194 26.3007 30.1311 28.7503 27.4894 30.4874C26.1097 31.3451 24.6077 31.8296 22.9834 31.9408C25.9602 28.993 28.9505 26.059 31.9545 23.1387Z"
        fill="#0089CC" />
</svg>