<svg width="32" height="32" viewBox="0 0 32 32" fill="none" xmlns="http://www.w3.org/2000/svg">
    <g clip-path="url(#clip0_5299_3935)">
        <path fill-rule="evenodd" clip-rule="evenodd"
            d="M-0.0800781 -0.0800781C10.5866 -0.0800781 21.2532 -0.0800781 31.9199 -0.0800781C31.9199 10.5866 31.9199 21.2532 31.9199 31.9199C21.2532 31.9199 10.5866 31.9199 -0.0800781 31.9199C-0.0800781 21.2532 -0.0800781 10.5866 -0.0800781 -0.0800781Z"
            fill="#FEFEFE" />
        <path fill-rule="evenodd" clip-rule="evenodd"
            d="M23.6003 10.16C23.5481 10.657 23.7348 11.0303 24.1603 11.28C24.2395 11.5956 24.2662 11.9156 24.2403 12.24C23.9449 12.1955 23.7315 12.3022 23.6003 12.56C23.7905 12.7085 24.0038 12.7619 24.2403 12.72C24.214 13.1499 24.2408 13.5766 24.3203 14C24.3736 13.6266 24.427 13.2533 24.4803 12.88C24.7182 12.6813 24.8515 12.7613 24.8803 13.12C24.9747 13.8359 25.028 14.5559 25.0403 15.28C25.0547 16.3412 24.9481 17.3545 24.7203 18.32C24.5872 16.9899 24.5072 15.6565 24.4803 14.32C24.427 14.2666 24.3736 14.2133 24.3203 14.16C24.0609 15.4098 23.8742 16.6632 23.7603 17.92C24.3728 18.4422 24.5595 19.1089 24.3203 19.92C24.0536 19.7067 23.787 19.7067 23.5203 19.92C23.4339 20.1816 23.5139 20.3948 23.7603 20.56C23.1932 20.7843 22.9 21.211 22.8803 21.84C22.6174 22.2363 22.3241 22.6096 22.0003 22.96C21.5096 23.0968 21.0563 23.31 20.6403 23.6C20.1324 23.4064 19.6257 23.4064 19.1203 23.6C19.6422 23.6886 19.8022 23.9552 19.6003 24.4C19.2552 24.6064 18.8819 24.7398 18.4803 24.8C16.1131 24.9771 13.7398 25.0038 11.3603 24.88C9.85615 24.8595 8.38948 24.9395 6.96028 25.12C6.84402 24.8961 6.76402 24.6561 6.72028 24.4C6.66695 21.36 6.61361 18.32 6.56028 15.28C6.48028 18.6395 6.45362 21.9995 6.48028 25.36C6.29422 21.8139 6.26754 18.2406 6.40028 14.64C8.33991 8.05541 12.6866 5.46875 19.4403 6.87995C20.6451 7.4465 21.7651 8.13982 22.8003 8.95995C23.1067 9.34389 23.3732 9.74389 23.6003 10.16Z"
            fill="#0F8090" />
        <path fill-rule="evenodd" clip-rule="evenodd"
            d="M20.5602 17.3601C19.0898 17.2409 17.5965 17.1341 16.0802 17.0401C16.0802 16.7201 16.0802 16.4001 16.0802 16.0801C18.1069 16.0801 20.1335 16.0801 22.1602 16.0801C22.1602 16.2401 22.1602 16.4001 22.1602 16.5601C21.8088 19.4711 20.2088 21.3111 17.3602 22.0801C13.8686 22.6413 11.3886 21.3348 9.92018 18.1601C8.91621 13.7937 10.5429 10.9403 14.8002 9.60005C17.6106 9.32549 19.7973 10.3388 21.3602 12.6401C20.7735 12.7467 20.1869 12.7467 19.6002 12.6401C17.5285 10.6772 15.2885 10.4638 12.8802 12.0001C10.3295 14.6106 10.3295 17.2241 12.8802 19.8401C15.1816 21.3268 17.3682 21.1668 19.4402 19.3601C19.9592 18.7753 20.3327 18.1085 20.5602 17.3601Z"
            fill="#F2FAF9" />
        <path fill-rule="evenodd" clip-rule="evenodd"
            d="M23.5997 10.1602C24.448 11.1646 25.008 12.3379 25.2797 13.6802C26.0026 18.8221 24.0559 22.5288 19.4397 24.8002C18.6021 25.0794 17.7488 25.2928 16.8797 25.4402C13.3858 25.5728 9.9191 25.5462 6.47972 25.3602C6.45307 21.9997 6.47972 18.6397 6.55972 15.2802C6.61305 18.3202 6.66639 21.3602 6.71972 24.4002C6.76347 24.6563 6.84347 24.8963 6.95972 25.1202C8.38892 24.9397 9.85559 24.8597 11.3597 24.8802C13.7392 25.004 16.1125 24.9773 18.4797 24.8002C18.8813 24.74 19.2546 24.6066 19.5997 24.4002C19.8016 23.9554 19.6416 23.6888 19.1197 23.6002C19.6252 23.4066 20.1319 23.4066 20.6397 23.6002C21.0557 23.3102 21.509 23.097 21.9997 22.9602C22.3236 22.6098 22.6168 22.2365 22.8797 21.8402C22.8994 21.2112 23.1927 20.7845 23.7597 20.5602C23.5133 20.395 23.4333 20.1818 23.5197 19.9202C23.7864 19.7069 24.053 19.7069 24.3197 19.9202C24.5589 19.1091 24.3722 18.4424 23.7597 17.9202C23.8736 16.6634 24.0604 15.41 24.3197 14.1602C24.373 14.2135 24.4264 14.2668 24.4797 14.3202C24.5066 15.6567 24.5866 16.9901 24.7197 18.3202C24.9476 17.3547 25.0541 16.3414 25.0397 15.2802C25.0274 14.5561 24.9741 13.8361 24.8797 13.1202C24.8509 12.7615 24.7176 12.6815 24.4797 12.8802C24.4264 13.2535 24.373 13.6268 24.3197 14.0002C24.2402 13.5768 24.2135 13.1501 24.2397 12.7202C24.0032 12.7621 23.79 12.7087 23.5997 12.5602C23.7309 12.3024 23.9444 12.1957 24.2397 12.2402C24.2656 11.9158 24.2389 11.5958 24.1597 11.2802C23.7343 11.0305 23.5476 10.6572 23.5997 10.1602Z"
            fill="#25848F" />
        <path fill-rule="evenodd" clip-rule="evenodd"
            d="M22.1599 16.5599C22.1599 16.3999 22.1599 16.2399 22.1599 16.0799C20.1332 16.0799 18.1066 16.0799 16.0799 16.0799C16.0799 16.3999 16.0799 16.7199 16.0799 17.0399C17.5962 17.134 19.0895 17.2407 20.5599 17.3599C19.0132 17.3599 17.4666 17.3599 15.9199 17.3599C15.9199 16.8799 15.9199 16.3999 15.9199 15.9199C18.0532 15.9199 20.1866 15.9199 22.3199 15.9199C22.3628 16.1758 22.3094 16.389 22.1599 16.5599Z"
            fill="#D5F9FB" />
    </g>
    <defs>
        <clipPath id="clip0_5299_3935">
            <rect width="32" height="32" fill="white" />
        </clipPath>
    </defs>
</svg>