<svg width="32" height="32" viewBox="0 0 32 32" fill="none" xmlns="http://www.w3.org/2000/svg">
    <g clip-path="url(#clip0_5059_768)">
        <path fill-rule="evenodd" clip-rule="evenodd"
            d="M-0.0710449 -0.0710449C10.5956 -0.0710449 21.2623 -0.0710449 31.929 -0.0710449C31.929 10.5956 31.929 21.2623 31.929 31.929C21.2623 31.929 10.5956 31.929 -0.0710449 31.929C-0.0710449 21.2623 -0.0710449 10.5956 -0.0710449 -0.0710449Z"
            fill="#FDFDFE" />
        <path fill-rule="evenodd" clip-rule="evenodd"
            d="M14.4356 2.91552C21.1188 2.65959 25.741 5.59886 28.3023 11.7333C29.7021 16.4171 28.8725 20.6364 25.8134 24.3911C24.8847 23.581 24.0314 22.704 23.2534 21.76C24.8405 19.4648 25.433 16.9285 25.0312 14.1511C23.4734 8.87866 19.9416 6.43717 14.4356 6.82663C10.5814 7.64673 8.09253 9.94599 6.96898 13.7244C6.19445 18.1703 7.68778 21.6074 11.449 24.0355C13.774 25.1717 16.1918 25.4088 18.7023 24.7466C19.7772 24.3988 20.7728 23.901 21.689 23.2533C22.6301 23.9806 23.507 24.7866 24.3201 25.6711C24.4078 25.806 24.3842 25.9245 24.249 26.0266C19.9352 29.2089 15.2893 29.7777 10.3112 27.7333C4.6517 24.6395 2.25761 19.8751 3.12898 13.44C4.64621 7.48947 8.41509 3.98133 14.4356 2.91552Z"
            fill="#04307E" />
        <path fill-rule="evenodd" clip-rule="evenodd"
            d="M14.2933 8.74678C18.717 8.27042 21.6326 10.1193 23.04 14.2934C23.6356 18.5338 21.9527 21.402 17.9911 22.8979C13.6009 23.7728 10.5905 22.1373 8.96001 17.9912C8.1557 14.4758 9.22236 11.7024 12.16 9.67122C12.8679 9.3181 13.579 9.00996 14.2933 8.74678Z"
            fill="#03307E" />
    </g>
    <defs>
        <clipPath id="clip0_5059_768">
            <rect width="32" height="32" fill="white" />
        </clipPath>
    </defs>
</svg>