<svg width="32" height="32" viewBox="0 0 32 32" fill="none" xmlns="http://www.w3.org/2000/svg">
    <g clip-path="url(#clip0_5084_583)">
        <path fill-rule="evenodd" clip-rule="evenodd"
            d="M-0.0654297 -0.0771484C8.84541 -0.0771484 17.7562 -0.0771484 26.6671 -0.0771484C26.2569 -0.0104439 25.9495 0.247205 25.7453 0.695798C25.125 1.27104 24.5106 1.83786 23.9016 2.39628C23.5007 2.55786 23.2373 2.86704 23.1115 3.32382C22.7387 3.41328 22.4315 3.61939 22.1897 3.94218C21.341 4.48644 20.507 5.05327 19.6877 5.64266C18.299 6.13563 16.8943 6.49633 15.4737 6.72478C15.8733 6.49032 16.2244 6.15538 16.5272 5.71995C16.6974 5.6442 16.8731 5.61843 17.0539 5.64266C17.0162 5.36797 16.9284 5.11031 16.7905 4.86971C16.8344 4.76665 16.8784 4.6636 16.9222 4.56053C17.2063 4.47543 17.4696 4.37238 17.7123 4.25135C17.9626 3.9237 18.1819 3.563 18.3708 3.16923C18.496 2.9191 18.6716 2.71299 18.8975 2.55087C18.7889 2.41395 18.6572 2.36243 18.5025 2.39628C18.5025 2.13863 18.5025 1.88099 18.5025 1.62333C18.5995 1.34436 18.7312 1.08672 18.8975 0.850388C18.8537 0.798859 18.8097 0.747328 18.7658 0.695798C17.8738 1.30639 17.0398 2.00203 16.2638 2.78275C14.8996 3.66024 13.4511 4.27859 11.9181 4.63783C11.3786 5.00266 11.0494 5.54372 10.9305 6.26102C10.6073 6.5611 10.3659 6.92182 10.2062 7.34314C10.1184 7.34314 10.0306 7.34314 9.9428 7.34314C9.26726 7.43436 8.74051 7.79507 8.36255 8.42527C8.36255 8.47679 8.36255 8.52833 8.36255 8.57986C8.01607 8.82912 7.6649 9.08675 7.30906 9.3528C7.17791 9.33954 7.06817 9.39108 6.97984 9.50739C6.70599 9.90395 6.46457 10.3162 6.25556 10.7441C6.31854 11.1735 6.18686 11.4827 5.8605 11.6716C5.59241 12.3061 5.46072 12.976 5.46543 13.6813C5.29133 13.7076 5.1377 13.656 5.00453 13.5267C4.92997 13.1831 4.82023 12.8739 4.67531 12.5992C4.53984 11.6024 4.34231 10.6233 4.08272 9.66198C3.24724 8.17352 2.56687 8.27658 2.04157 9.97116C1.28201 10.5179 0.579676 11.1363 -0.0654297 11.8262C-0.0654297 7.85843 -0.0654297 3.89065 -0.0654297 -0.0771484Z"
            fill="#FCFCFC" />
        <path fill-rule="evenodd" clip-rule="evenodd"
            d="M27.3252 -0.0771484C28.8616 -0.0771484 30.3979 -0.0771484 31.9342 -0.0771484C31.9342 1.77792 31.9342 3.633 31.9342 5.48807C31.5838 5.38623 31.2766 5.1801 31.0124 4.86971C30.8814 4.05161 30.8376 3.22714 30.8808 2.39628C30.7491 2.39628 30.6174 2.39628 30.4857 2.39628C30.3443 1.91008 30.1687 1.44631 29.9589 1.00498C29.7951 0.3239 29.444 0.117781 28.9054 0.38662C28.3152 0.458674 27.7885 0.304084 27.3252 -0.0771484Z"
            fill="#F9FBF8" />
        <path fill-rule="evenodd" clip-rule="evenodd"
            d="M26.6669 -0.0771484C26.8865 -0.0771484 27.1058 -0.0771484 27.3254 -0.0771484C27.7886 0.304084 28.3154 0.458674 28.9056 0.38662C28.4871 0.572866 28.0481 0.572866 27.5887 0.38662C26.9265 0.576036 26.9703 0.730626 27.7204 0.850388C27.4851 0.976531 27.2656 1.13112 27.062 1.31416C26.9025 1.50279 26.9025 1.68315 27.062 1.85522C26.236 1.9323 26.1922 1.72618 26.9303 1.23686C26.7251 1.20439 26.5496 1.1271 26.4036 1.00498C26.5325 0.75062 26.708 0.544502 26.9303 0.38662C26.8206 0.33509 26.7108 0.28356 26.6011 0.23203C26.3006 0.354119 26.0153 0.508708 25.7451 0.695798C25.9494 0.247205 26.2567 -0.0104439 26.6669 -0.0771484Z"
            fill="#35C556" />
        <path fill-rule="evenodd" clip-rule="evenodd"
            d="M28.9053 0.386588C29.4439 0.11775 29.795 0.323868 29.9588 1.00495C29.6655 0.660108 29.3143 0.453988 28.9053 0.386588Z"
            fill="#60C16A" />
        <path fill-rule="evenodd" clip-rule="evenodd"
            d="M26.6671 3.94199C26.1689 3.56136 26.0372 3.04606 26.272 2.39609C26.5333 2.29473 26.7966 2.19166 27.0621 2.08691C27.15 2.13844 27.2377 2.18998 27.3255 2.2415C27.0831 2.35442 26.8415 2.45748 26.6012 2.55068C26.4724 3.04062 26.5383 3.47864 26.7988 3.86469C26.7687 3.92634 26.7247 3.9521 26.6671 3.94199Z"
            fill="#CEE81B" />
        <path fill-rule="evenodd" clip-rule="evenodd"
            d="M26.4031 1.00488C26.2303 1.20775 26.0546 1.41387 25.8763 1.62324C25.9642 1.7263 26.0519 1.82935 26.1397 1.93242C25.4635 1.99526 24.8929 2.35596 24.4278 3.01454C23.9816 3.50994 23.4549 3.84487 22.8475 4.01937C22.5789 4.35717 22.4032 4.74364 22.3208 5.17879C21.9197 5.45576 21.4807 5.61035 21.0039 5.64256C21.0039 5.59104 21.0039 5.5395 21.0039 5.48797C21.2059 5.19904 21.4693 4.99293 21.794 4.86961C22.1337 4.57401 22.4409 4.23906 22.7158 3.86478C22.8407 3.79015 22.9724 3.76438 23.1109 3.78749C23.1109 3.6329 23.1109 3.47831 23.1109 3.32372C23.5938 3.2722 23.8572 2.96302 23.901 2.39618C24.5099 1.83776 25.1244 1.27094 25.7446 0.695702C26.0149 0.508611 26.3001 0.354022 26.6006 0.231934C26.7103 0.283463 26.8201 0.334994 26.9298 0.386523C26.7075 0.544405 26.532 0.750524 26.4031 1.00488Z"
            fill="#46E742" />
        <path fill-rule="evenodd" clip-rule="evenodd"
            d="M18.5023 2.3963C18.6571 2.36244 18.7888 2.41397 18.8974 2.55089C18.6714 2.71301 18.4959 2.91912 18.3706 3.16925C18.3284 2.92993 18.1967 2.82686 17.9756 2.86007C18.1831 2.76068 18.3588 2.60609 18.5023 2.3963Z"
            fill="#D6564D" />
        <path fill-rule="evenodd" clip-rule="evenodd"
            d="M23.9015 2.396C23.8576 2.96283 23.5942 3.27201 23.1113 3.32353C23.2371 2.86675 23.5005 2.55757 23.9015 2.396Z"
            fill="#70E388" />
        <path fill-rule="evenodd" clip-rule="evenodd"
            d="M17.9755 2.86007C18.1966 2.82687 18.3283 2.92993 18.3706 3.16925C18.1817 3.56302 17.9624 3.92372 17.7121 4.25138C17.4118 4.31672 17.1922 4.21366 17.0537 3.9422C17.3171 3.52995 17.6243 3.16925 17.9755 2.86007Z"
            fill="#D71A17" />
        <path fill-rule="evenodd" clip-rule="evenodd"
            d="M18.5019 1.62305C18.5019 1.8807 18.5019 2.13834 18.5019 2.39599C18.3584 2.60579 18.1827 2.76038 17.9752 2.85976C17.624 3.16894 17.3167 3.52964 17.0534 3.94189C16.6308 4.21475 16.2357 4.52393 15.8682 4.86942C15.2959 4.89504 14.7253 4.86927 14.1562 4.79213C15.0532 4.45645 15.9311 4.04421 16.79 3.55541C17.3469 2.87556 17.9175 2.23145 18.5019 1.62305Z"
            fill="#E9D6D1" />
        <path fill-rule="evenodd" clip-rule="evenodd"
            d="M23.1108 3.32373C23.1108 3.47832 23.1108 3.63291 23.1108 3.7875C22.9723 3.76439 22.8406 3.79016 22.7158 3.86479C22.4408 4.23907 22.1336 4.57402 21.7939 4.86962C21.8091 4.49137 21.9408 4.1822 22.189 3.94209C22.4308 3.61931 22.738 3.41319 23.1108 3.32373Z"
            fill="#39F0AB" />
        <path fill-rule="evenodd" clip-rule="evenodd"
            d="M28.9056 0.38623C29.3146 0.45363 29.6658 0.65975 29.9591 1.00459C30.1688 1.44592 30.3444 1.90969 30.4858 2.39589C30.6175 2.39589 30.7492 2.39589 30.8809 2.39589C30.8377 3.22675 30.8815 4.05122 31.0126 4.86932C31.2767 5.17971 31.584 5.38584 31.9344 5.48768C31.9344 5.64227 31.9344 5.79686 31.9344 5.95145C31.6158 6.06843 31.4402 6.32606 31.4076 6.72439C31.6066 7.70517 31.5628 8.65846 31.2759 9.5843C31.3787 10.1611 31.5982 10.6506 31.9344 11.0529C31.9344 11.3106 31.9344 11.5682 31.9344 11.8258C31.7537 12.2948 31.4463 12.604 31.0126 12.7534C30.7053 12.7534 30.398 12.7534 30.0908 12.7534C29.8783 13.3038 29.7028 13.8706 29.564 14.4539C29.3401 14.4734 29.1426 14.5764 28.9714 14.763C28.8184 14.6569 28.6648 14.6311 28.5105 14.6857C28.819 14.9652 28.9069 15.3001 28.7739 15.6906C28.5048 15.5238 28.3293 15.2661 28.2471 14.9176C28.1004 14.7204 27.9687 14.7204 27.8521 14.9176C27.6325 14.9176 27.4132 14.9176 27.1936 14.9176C27.433 14.7632 27.6526 14.5571 27.8521 14.2993C27.7347 14.1308 27.603 14.1308 27.457 14.2993C27.4132 14.222 27.3692 14.1447 27.3253 14.0674C27.5531 13.7589 27.7287 13.424 27.8521 13.0626C27.6765 13.0626 27.5009 13.0626 27.3253 13.0626C27.3253 12.908 27.3253 12.7534 27.3253 12.5988C27.9175 12.7468 28.4881 12.7468 29.0373 12.5988C29.1476 12.546 29.1916 12.4429 29.1689 12.2896C29.6733 11.6948 29.6295 11.1021 29.0373 10.5118C28.7174 10.4031 28.4102 10.4289 28.1154 10.5891C27.9304 10.2987 27.7109 10.2471 27.457 10.4345C27.3135 10.2967 27.3135 10.1421 27.457 9.97077C26.7159 9.81689 25.9697 9.76535 25.2183 9.81618C25.2183 9.507 25.2183 9.19782 25.2183 8.88865C24.9549 8.88865 24.6916 8.88865 24.4282 8.88865C24.3404 8.37335 24.2527 7.85804 24.1648 7.34275C24.0331 7.34275 23.9015 7.34275 23.7698 7.34275C23.7715 6.49715 23.552 5.74997 23.1113 5.10121C23.1552 4.97239 23.1992 4.84355 23.243 4.71473C23.4262 4.89168 23.6017 4.89168 23.7698 4.71473C23.6819 4.61167 23.5942 4.50862 23.5064 4.40555C23.7006 4.16266 23.9202 3.95655 24.1648 3.7872C24.2014 4.21855 24.1136 4.60502 23.9015 4.94662C24.0617 5.96429 24.2592 6.96913 24.494 7.96111C24.9369 8.32882 25.3978 8.30305 25.8768 7.88381C26.184 7.78075 26.4913 7.78075 26.7986 7.88381C26.7547 7.93534 26.7107 7.98688 26.6669 8.0384C26.8511 8.13032 27.0267 8.10455 27.1936 7.96111C27.5273 8.68838 27.7029 8.68838 27.7204 7.96111C27.9399 7.96111 28.1593 7.96111 28.3788 7.96111C29.0423 7.90843 29.4812 7.52195 29.6957 6.80169C29.7211 6.49126 29.6333 6.25937 29.4323 6.10604C29.36 5.65938 29.1186 5.40173 28.708 5.33309C28.3119 5.40941 27.9827 5.61554 27.7204 5.95145C27.5958 5.69914 27.4641 5.44149 27.3253 5.1785C27.3528 5.08791 27.3968 5.01062 27.457 4.94662C27.21 4.78935 26.9466 4.66053 26.6669 4.56014C26.839 4.34913 26.839 4.143 26.6669 3.94179C26.7246 3.9519 26.7685 3.92614 26.7986 3.86449C26.5381 3.47844 26.4723 3.04042 26.601 2.55048C26.8414 2.45728 27.0829 2.35421 27.3253 2.2413C27.2375 2.18978 27.1498 2.13824 27.0619 2.08671C26.7965 2.19146 26.5331 2.29453 26.2718 2.39589C25.9703 2.15892 25.8826 2.21045 26.0084 2.55048C25.8103 2.95714 25.7226 2.90562 25.7451 2.39589C25.6134 2.39589 25.4817 2.39589 25.35 2.39589C25.3789 2.57753 25.335 2.73212 25.2183 2.85966C24.9309 3.03854 24.6675 3.24465 24.4282 3.47802C24.4282 3.32343 24.4282 3.16884 24.4282 3.01425C24.8933 2.35567 25.4639 1.99496 26.1401 1.93212C26.0523 1.82906 25.9646 1.72601 25.8768 1.62295C26.0551 1.41358 26.2307 1.20746 26.4035 1.00459C26.5496 1.12671 26.7251 1.204 26.9303 1.23647C26.1922 1.72579 26.236 1.93191 27.0619 1.85483C26.9025 1.68276 26.9025 1.5024 27.0619 1.31377C27.2655 1.13073 27.4851 0.976142 27.7204 0.849999C26.9703 0.730237 26.9264 0.575647 27.5887 0.38623C28.048 0.572477 28.4871 0.572477 28.9056 0.38623Z"
            fill="#15C93E" />
        <path fill-rule="evenodd" clip-rule="evenodd"
            d="M26.667 2.70539C26.8907 2.68063 27.1103 2.7064 27.3254 2.78269C27.501 2.9888 27.501 3.19493 27.3254 3.40104C27.1103 3.47733 26.8907 3.5031 26.667 3.47834C26.667 3.22068 26.667 2.96305 26.667 2.70539Z"
            fill="#1EB5E4" />
        <path fill-rule="evenodd" clip-rule="evenodd"
            d="M26.7988 2.85968C26.9536 2.82582 27.0852 2.87735 27.1939 3.01427C26.9895 3.21491 26.8578 3.16338 26.7988 2.85968Z"
            fill="#082DBD" />
        <path fill-rule="evenodd" clip-rule="evenodd"
            d="M27.4567 2.55095C27.5327 2.35411 27.6204 2.35411 27.7201 2.55095C28.0026 3.32911 27.8269 3.74135 27.1934 3.78766C27.5912 3.45533 27.679 3.04308 27.4567 2.55095Z"
            fill="#C5F018" />
        <path fill-rule="evenodd" clip-rule="evenodd"
            d="M18.5024 1.62334C17.9179 2.23174 17.3473 2.87585 16.7904 3.5557C15.9316 4.0445 15.0536 4.45674 14.1567 4.79242C14.7257 4.86956 15.2963 4.89533 15.8686 4.86971C15.6759 5.21939 15.4346 5.52857 15.1443 5.79725C15.0785 5.74573 15.0126 5.69419 14.9468 5.64266C15.2617 5.44036 15.2617 5.28578 14.9468 5.17889C14.6979 5.35084 14.4345 5.47966 14.1567 5.56537C14.5236 5.87785 14.4797 6.10974 14.025 6.26102C14.0525 6.35161 14.0965 6.4289 14.1567 6.4929C13.9515 6.52537 13.776 6.60266 13.6299 6.72479C13.2367 6.78705 12.8856 6.94164 12.5764 7.18855C11.7785 7.15051 10.9884 7.20203 10.2061 7.34314C10.3658 6.92183 10.6072 6.56111 10.9303 6.26102C11.0493 5.54372 11.3785 5.00266 11.918 4.63783C13.451 4.27859 14.8995 3.66024 16.2637 2.78276C17.0397 2.00203 17.8737 1.30639 18.7657 0.695801C18.8096 0.74733 18.8536 0.798861 18.8974 0.85039C18.7311 1.08672 18.5994 1.34437 18.5024 1.62334Z"
            fill="#DD1915" />
        <path fill-rule="evenodd" clip-rule="evenodd"
            d="M13.4977 4.86963C14.1489 4.91964 14.1271 5.07423 13.4319 5.3334C13.3661 5.28187 13.3002 5.23033 13.2344 5.17881C13.3322 5.07341 13.4199 4.97034 13.4977 4.86963Z"
            fill="#D29E89" />
        <path fill-rule="evenodd" clip-rule="evenodd"
            d="M17.0538 3.94189C17.1923 4.21335 17.4118 4.31642 17.7122 4.25107C17.4695 4.3721 17.2061 4.47515 16.9221 4.56025C16.8782 4.66332 16.8342 4.76637 16.7904 4.86943C16.9283 5.11003 17.0161 5.36769 17.0538 5.64238C16.8729 5.61815 16.6973 5.64392 16.527 5.71967C16.2243 6.1551 15.8732 6.49004 15.4735 6.7245C15.3429 6.69798 15.2552 6.74952 15.2101 6.87909C15.095 7.21764 14.8755 7.37223 14.5517 7.34286C14.3767 6.8822 14.0693 6.67609 13.6299 6.7245C13.7759 6.60238 13.9515 6.52508 14.1566 6.49262C14.0965 6.42862 14.0525 6.35132 14.0249 6.26074C14.4797 6.10945 14.5235 5.87757 14.1566 5.56508C14.4345 5.47938 14.6979 5.35056 14.9468 5.17861C15.2616 5.28549 15.2616 5.44008 14.9468 5.64238C15.0126 5.6939 15.0784 5.74544 15.1443 5.79697C15.4345 5.52829 15.6759 5.21911 15.8686 4.86943C16.2361 4.52394 16.6312 4.21476 17.0538 3.94189Z"
            fill="#BB120F" />
        <path fill-rule="evenodd" clip-rule="evenodd"
            d="M26.2717 2.39598C26.0369 3.04596 26.1686 3.56125 26.6668 3.94188C26.8389 4.14309 26.8389 4.34922 26.6668 4.56024C26.9465 4.66063 27.2099 4.78945 27.4569 4.94671C27.3967 5.01071 27.3528 5.088 27.3252 5.17859C27.464 5.44158 27.5957 5.69923 27.7203 5.95154C27.4048 6.86747 27.6243 7.53735 28.3787 7.9612C28.1592 7.9612 27.9398 7.9612 27.7203 7.9612C27.7028 8.68847 27.5272 8.68847 27.1935 7.9612C27.0266 8.10465 26.851 8.13042 26.6668 8.0385C26.7107 7.98697 26.7546 7.93543 26.7985 7.88391C26.4913 7.78084 26.1839 7.78084 25.8767 7.88391C25.3977 8.30314 24.9368 8.32891 24.494 7.9612C24.2592 6.96922 24.0616 5.96439 23.9014 4.94671C24.1135 4.60511 24.2014 4.21864 24.1647 3.78729C24.2086 3.6327 24.2964 3.52963 24.4281 3.47811C24.6674 3.24474 24.9308 3.03863 25.2182 2.85975C25.3349 2.73222 25.3788 2.57763 25.3499 2.39598C25.4816 2.39598 25.6133 2.39598 25.745 2.39598C25.7225 2.90571 25.8102 2.95724 26.0084 2.55057C25.8825 2.21054 25.9702 2.15901 26.2717 2.39598Z"
            fill="#0EB23C" />
        <path fill-rule="evenodd" clip-rule="evenodd"
            d="M19.6873 5.64243C19.7846 5.62217 19.8725 5.64794 19.9507 5.71972C19.7499 5.87564 19.5304 5.95293 19.2923 5.9516C19.2923 6.15772 19.2923 6.36385 19.2923 6.56996C18.9736 6.53787 18.6664 6.58941 18.3705 6.72455C18.2193 6.97942 18.0437 7.21131 17.8437 7.4202C18.0066 7.45608 18.1383 7.53338 18.2388 7.65209C17.6665 7.6777 17.0959 7.65193 16.5268 7.57479C16.0878 7.31463 15.6489 7.08275 15.21 6.87914C15.255 6.74956 15.3427 6.69802 15.4733 6.72455C16.894 6.4961 18.2987 6.1354 19.6873 5.64243Z"
            fill="#4FDCEF" />
        <path fill-rule="evenodd" clip-rule="evenodd"
            d="M19.5559 6.72461C19.3164 6.94663 19.2725 7.20428 19.4242 7.49756C19.8025 7.69464 20.1976 7.82346 20.6094 7.88403C20.6696 7.94803 20.7136 8.02532 20.7411 8.11591C20.496 8.57031 20.2766 9.03408 20.0826 9.50722C20.068 9.60266 20.0242 9.67996 19.951 9.7391C20.1058 9.99793 20.2815 10.2298 20.4777 10.4348C20.4175 10.558 20.3297 10.6096 20.2143 10.5893C20.1265 10.5893 20.0388 10.5893 19.951 10.5893C19.7754 10.3832 19.5997 10.1771 19.4242 9.97099C19.7436 9.94254 19.7436 9.83948 19.4242 9.66181C20.4369 8.54244 20.2612 7.82102 18.8975 7.49756C18.9702 7.26527 18.9702 7.00762 18.8975 6.72461C19.117 6.72461 19.3364 6.72461 19.5559 6.72461Z"
            fill="#5FEFBE" />
        <path fill-rule="evenodd" clip-rule="evenodd"
            d="M13.6297 6.72461C13.5858 6.82767 13.5418 6.93072 13.498 7.03379C13.1943 7.10994 12.8871 7.16146 12.5762 7.18838C12.8853 6.94147 13.2365 6.78688 13.6297 6.72461Z"
            fill="#8F2336" />
        <path fill-rule="evenodd" clip-rule="evenodd"
            d="M21.0045 5.64258C21.0045 5.79717 21.0045 5.95176 21.0045 6.10635C20.4778 6.20941 20.4778 6.31246 21.0045 6.41552C21.0045 6.62164 21.0045 6.82777 21.0045 7.03388C21.3557 7.03388 21.7068 7.03388 22.058 7.03388C22.2023 7.94452 22.0048 8.71747 21.4654 9.35272C21.4018 9.49927 21.38 9.65386 21.3996 9.81649C21.0943 9.84078 20.8749 10.0211 20.7411 10.3576C20.9001 10.5586 20.9879 10.7904 21.0045 11.0532C20.829 11.0017 20.6533 10.9501 20.4778 10.8986C20.3899 10.7956 20.3022 10.6925 20.2144 10.5894C20.3298 10.6097 20.4176 10.5581 20.4778 10.4348C20.2816 10.2299 20.1059 9.99803 19.951 9.7392C20.0242 9.68005 20.0681 9.60276 20.0827 9.50731C20.8876 9.17501 21.1948 8.50512 21.0045 7.49765C20.3334 7.53271 19.9384 7.17201 19.8193 6.41552C19.9579 6.43864 20.0896 6.41287 20.2144 6.33823C20.4269 6.00947 20.6903 5.77758 21.0045 5.64258Z"
            fill="#95F155" />
        <path fill-rule="evenodd" clip-rule="evenodd"
            d="M31.9338 5.95166C31.9338 7.65214 31.9338 9.35263 31.9338 11.0531C31.5976 10.6508 31.3781 10.1613 31.2754 9.58451C31.5622 8.65867 31.6061 7.70538 31.4071 6.72461C31.4396 6.32628 31.6153 6.06864 31.9338 5.95166Z"
            fill="#F6F6F3" />
        <path fill-rule="evenodd" clip-rule="evenodd"
            d="M21.0044 5.48769C21.0044 5.53921 21.0044 5.59075 21.0044 5.64228C20.6902 5.77728 20.4269 6.00916 20.2143 6.33793C20.0895 6.41256 19.9578 6.43833 19.8193 6.41522C19.9383 7.17171 20.3334 7.53241 21.0044 7.49735C21.1947 8.50482 20.8875 9.17471 20.0826 9.50701C20.2766 9.03388 20.496 8.57011 20.7411 8.11571C20.7135 8.02512 20.6696 7.94782 20.6094 7.88382C20.1976 7.82325 19.8025 7.69444 19.4242 7.49735C19.2725 7.20408 19.3163 6.94642 19.5559 6.7244C19.5446 6.57045 19.5885 6.44163 19.6876 6.33793C20.0652 6.20486 20.3726 5.9472 20.6094 5.56498C20.7342 5.49035 20.8659 5.46458 21.0044 5.48769Z"
            fill="#85F180" />
        <path fill-rule="evenodd" clip-rule="evenodd"
            d="M29.4325 6.10644C29.6335 6.25978 29.7213 6.49166 29.6959 6.8021C29.4814 7.52236 29.0425 7.90883 28.379 7.96152C27.6246 7.53766 27.4051 6.86778 27.7206 5.95185C27.9829 5.61595 28.3121 5.40982 28.7083 5.3335C29.1189 5.40213 29.3602 5.65979 29.4325 6.10644Z"
            fill="#C6EA1F" />
        <path fill-rule="evenodd" clip-rule="evenodd"
            d="M28.2468 7.34298C28.2564 7.10694 28.1686 6.95235 27.9834 6.87922C28.0257 6.6399 28.1574 6.53683 28.3785 6.57004C28.4684 6.82921 28.6441 6.93227 28.9052 6.87922C28.9052 6.72463 28.9052 6.57004 28.9052 6.41545C28.7735 6.41545 28.6418 6.41545 28.5101 6.41545C28.8919 5.98022 29.1113 6.10904 29.1686 6.80192C28.9621 7.21339 28.6549 7.39375 28.2468 7.34298Z"
            fill="#1CCABE" />
        <path fill-rule="evenodd" clip-rule="evenodd"
            d="M29.4323 6.10606C29.5765 7.27985 29.1814 7.69209 28.2471 7.34278C28.6552 7.39355 28.9624 7.21319 29.1689 6.80172C29.1116 6.10883 28.8922 5.98001 28.5104 6.41524C28.4226 6.41524 28.3788 6.46677 28.3788 6.56983C28.1577 6.53663 28.026 6.63969 27.9837 6.87901C27.7187 6.15538 27.9381 5.79466 28.6421 5.79689C28.9275 5.85408 29.1909 5.95715 29.4323 6.10606Z"
            fill="#43DB5F" />
        <path fill-rule="evenodd" clip-rule="evenodd"
            d="M28.5106 6.41553C28.6423 6.41553 28.774 6.41553 28.9057 6.41553C28.9057 6.57012 28.9057 6.72471 28.9057 6.8793C28.6445 6.93235 28.4688 6.82929 28.3789 6.57012C28.3789 6.46705 28.4228 6.41553 28.5106 6.41553Z"
            fill="#132FB8" />
        <path fill-rule="evenodd" clip-rule="evenodd"
            d="M9.94255 7.34277C9.50339 7.85893 8.97664 8.21964 8.3623 8.4249C8.74026 7.7947 9.26701 7.434 9.94255 7.34277Z"
            fill="#FBDEAE" />
        <path fill-rule="evenodd" clip-rule="evenodd"
            d="M13.498 7.03369C13.6951 7.15826 13.9146 7.26131 14.1564 7.34287C14.2874 8.16097 14.3313 8.98544 14.2881 9.8163C14.1564 9.8163 14.0247 9.8163 13.893 9.8163C13.6798 9.22178 13.4823 8.60342 13.3005 7.96123C13.2663 8.4384 13.2005 8.90217 13.1029 9.35253C12.9723 9.37906 12.8845 9.32752 12.8395 9.19794C12.8983 8.4913 12.8105 7.82142 12.5762 7.18828C12.8871 7.16137 13.1943 7.10984 13.498 7.03369Z"
            fill="#1E416F" />
        <path fill-rule="evenodd" clip-rule="evenodd"
            d="M12.5757 7.18839C12.8101 7.82153 12.8978 8.49141 12.8391 9.19805C12.7952 9.19805 12.7513 9.19805 12.7074 9.19805C12.729 8.78262 12.707 8.37038 12.6415 7.96134C11.9282 8.08638 11.2039 8.16368 10.4687 8.19322C10.0465 8.50765 9.60751 8.79108 9.15183 9.04346C9.04681 9.11409 9.0029 9.21716 9.02014 9.35264C8.46473 8.9536 8.02577 9.10819 7.70327 9.81641C7.68358 9.65378 7.70554 9.49919 7.76911 9.35264C8.00066 9.10789 8.19819 8.85024 8.36171 8.57969C8.36171 8.52817 8.36171 8.47663 8.36171 8.4251C8.97604 8.21984 9.50279 7.85914 9.94195 7.34298C10.0297 7.34298 10.1175 7.34298 10.2053 7.34298C10.9876 7.20187 11.7778 7.15034 12.5757 7.18839Z"
            fill="#F8B349" />
        <path fill-rule="evenodd" clip-rule="evenodd"
            d="M15.2094 6.87939C15.6483 7.083 16.0873 7.31489 16.5263 7.57505C17.0953 7.65219 17.6659 7.67796 18.2382 7.65234C18.2821 7.65234 18.3261 7.65234 18.3699 7.65234C18.5287 7.86574 18.4849 8.0461 18.2382 8.1934C17.752 8.42765 17.2692 8.65954 16.7897 8.88906C16.7897 8.73447 16.7897 8.57988 16.7897 8.42529C16.5393 8.43561 16.298 8.38409 16.0654 8.2707C15.8721 8.44504 15.6526 8.54811 15.407 8.57988C15.1319 8.43374 14.8685 8.43374 14.6168 8.57988C14.5514 8.17083 14.5294 7.75859 14.551 7.34316C14.8748 7.37253 15.0943 7.21795 15.2094 6.87939Z"
            fill="#0F3251" />
        <path fill-rule="evenodd" clip-rule="evenodd"
            d="M22.1894 3.94189C21.9412 4.182 21.8095 4.49118 21.7944 4.86943C21.4696 4.99275 21.2063 5.19886 21.0042 5.48779C20.8657 5.46468 20.734 5.49045 20.6092 5.56508C20.3724 5.94731 20.0651 6.20496 19.6874 6.33803C19.5883 6.44173 19.5444 6.57055 19.5557 6.7245C19.3362 6.7245 19.1168 6.7245 18.8972 6.7245C18.9699 7.00751 18.9699 7.26516 18.8972 7.49745C20.261 7.82091 20.4367 8.54234 19.424 9.6617C19.7433 9.83937 19.7433 9.94244 19.424 9.97088C19.0821 9.85257 18.7309 9.80103 18.3705 9.81629C18.313 9.57291 18.1813 9.39255 17.9754 9.27523C18.2621 9.08938 18.5695 9.01209 18.8972 9.04334C18.8972 8.88875 18.8972 8.73416 18.8972 8.57958C18.6303 8.60463 18.3669 8.57888 18.1071 8.50228C18.4072 8.43952 18.5829 8.2334 18.6339 7.88392C18.5896 7.72471 18.5018 7.64742 18.3705 7.65204C18.3266 7.65204 18.2827 7.65204 18.2388 7.65204C18.1383 7.53333 18.0066 7.45604 17.8438 7.42016C18.0438 7.21126 18.2193 6.97937 18.3705 6.7245C18.6664 6.58936 18.9736 6.53782 19.2923 6.56991C19.2923 6.3638 19.2923 6.15767 19.2923 5.95156C19.5304 5.95289 19.7499 5.87559 19.9507 5.71967C19.8725 5.6479 19.7847 5.62213 19.6874 5.64238C20.5067 5.05299 21.3407 4.48616 22.1894 3.94189Z"
            fill="#49E8F1" />
        <path fill-rule="evenodd" clip-rule="evenodd"
            d="M13.6298 6.72468C14.0692 6.67626 14.3766 6.88238 14.5516 7.34304C14.53 7.75847 14.552 8.17071 14.6175 8.57975C14.8691 8.43362 15.1325 8.43362 15.4076 8.57975C15.6532 8.54799 15.8727 8.44492 16.066 8.27057C16.2986 8.38397 16.54 8.43549 16.7903 8.42516C16.7903 8.57975 16.7903 8.73434 16.7903 8.88893C16.0891 9.0839 15.3868 9.0839 14.6833 8.88893C14.6481 9.27004 14.5603 9.63074 14.4199 9.97106C14.3321 10.0226 14.2444 10.0741 14.1565 10.1256C13.8496 9.9993 13.5204 9.89625 13.1689 9.81647C12.9472 9.71189 12.9253 9.5573 13.103 9.3527C13.2006 8.90234 13.2665 8.43857 13.3006 7.9614C13.4824 8.60359 13.68 9.22195 13.8932 9.81647C14.0249 9.81647 14.1565 9.81647 14.2882 9.81647C14.3314 8.98561 14.2876 8.16114 14.1565 7.34304C13.9148 7.26148 13.6952 7.15843 13.4981 7.03386C13.542 6.93079 13.5859 6.82775 13.6298 6.72468Z"
            fill="#0E394B" />
        <path fill-rule="evenodd" clip-rule="evenodd"
            d="M16.7903 8.88867C16.7025 8.99174 16.6148 9.09479 16.5269 9.19785C16.0231 9.38569 15.5402 9.59181 15.0784 9.81621C14.8524 9.8361 14.6329 9.88763 14.4199 9.9708C14.5603 9.63048 14.6481 9.26978 14.6833 8.88867C15.3868 9.08364 16.0891 9.08364 16.7903 8.88867Z"
            fill="#083361" />
        <path fill-rule="evenodd" clip-rule="evenodd"
            d="M18.3708 7.65205C18.5021 7.64743 18.5899 7.72472 18.6342 7.88394C18.5832 8.23342 18.4076 8.43953 18.1074 8.50229C18.3673 8.57889 18.6306 8.60465 18.8976 8.57959C18.8976 8.73418 18.8976 8.88877 18.8976 9.04336C18.5698 9.0121 18.2624 9.08939 17.9758 9.27524C18.1816 9.39256 18.3133 9.57292 18.3708 9.8163C18.1602 9.7749 17.9847 9.82643 17.8441 9.97089C17.4582 9.84737 17.0632 9.79585 16.6589 9.8163C16.6589 10.0224 16.6589 10.2285 16.6589 10.4347C16.615 10.4347 16.571 10.4347 16.5272 10.4347C16.5272 10.3316 16.5272 10.2285 16.5272 10.1255C16.5498 9.97219 16.5059 9.86913 16.3955 9.8163C16.4922 9.62957 16.536 9.42344 16.5272 9.19794C16.615 9.09488 16.7027 8.99183 16.7906 8.88877C17.27 8.65925 17.7529 8.42736 18.2391 8.19311C18.4858 8.04581 18.5296 7.86545 18.3708 7.65205Z"
            fill="#51D3E9" />
        <path fill-rule="evenodd" clip-rule="evenodd"
            d="M22.3213 5.17871C22.1634 5.47013 21.9877 5.75354 21.7946 6.02895C21.9502 6.29718 22.1697 6.45177 22.453 6.49272C22.552 6.59642 22.596 6.72524 22.5847 6.87919C22.7598 7.94294 22.716 8.99929 22.453 10.0483C22.6004 10.3383 22.8199 10.4671 23.1114 10.4347C23.1114 10.6409 23.1114 10.847 23.1114 11.0531C23.7791 11.0898 24.1083 11.5021 24.0991 12.2898C24.1367 13.1746 23.9831 13.9991 23.6382 14.7633C23.6059 13.9962 23.6938 13.249 23.9016 12.5217C23.8357 12.2898 23.7699 12.0579 23.704 11.8261C22.9489 11.4791 22.2685 10.9896 21.6629 10.3575C21.7877 10.2828 21.9194 10.257 22.0579 10.2802C22.0363 9.86473 22.0583 9.45249 22.1238 9.04345C22.4364 8.53322 22.5241 7.96639 22.3872 7.34296C22.3322 7.1488 22.2225 7.04575 22.0579 7.03378C21.7067 7.03378 21.3556 7.03378 21.0044 7.03378C21.0044 6.82767 21.0044 6.62154 21.0044 6.41543C20.4777 6.31236 20.4777 6.20931 21.0044 6.10625C21.0044 5.95166 21.0044 5.79707 21.0044 5.64248C21.4813 5.61026 21.9202 5.45567 22.3213 5.17871Z"
            fill="#5CE926" />
        <path fill-rule="evenodd" clip-rule="evenodd"
            d="M8.36179 8.57959C8.19828 8.85014 8.00075 9.10779 7.7692 9.35254C7.70562 9.49909 7.68367 9.65368 7.70336 9.8163C7.5296 10.0392 7.31011 10.1423 7.04492 10.1255C7.13272 9.86783 7.2205 9.61019 7.3083 9.35254C7.66414 9.08649 8.01531 8.82885 8.36179 8.57959Z"
            fill="#F8D075" />
        <path fill-rule="evenodd" clip-rule="evenodd"
            d="M12.7076 9.19814C12.5886 9.30774 12.5447 9.46233 12.5759 9.66191C11.6164 9.60383 10.7605 9.91301 10.008 10.5894C9.8848 11.1481 9.81896 11.7149 9.8105 12.2899C9.85671 13.4584 9.9884 14.5921 10.2056 15.6909C10.2056 15.7424 10.2056 15.794 10.2056 15.8455C10.2699 16.0766 10.3577 16.2828 10.4689 16.4638C10.4689 16.7215 10.4689 16.9791 10.4689 17.2368C10.4689 17.2883 10.4689 17.3399 10.4689 17.3914C10.4689 17.546 10.4689 17.7006 10.4689 17.8551C10.3323 18.0762 10.2445 18.3339 10.2056 18.6281C9.98659 18.9277 9.89881 19.2885 9.94219 19.7102C9.61327 19.8844 9.2621 19.9876 8.88869 20.0194C8.53335 19.9126 8.18219 19.8095 7.83519 19.7102C7.73852 19.5235 7.69463 19.3174 7.70351 19.0919C7.89189 19.0796 8.06746 19.1311 8.23026 19.2464C8.27415 19.1692 8.31805 19.0919 8.36194 19.0146C7.98467 18.6487 7.58961 18.3138 7.17676 18.0097C7.34105 17.6712 7.56053 17.6197 7.83519 17.8551C7.87909 17.752 7.92299 17.6491 7.96688 17.546C7.88887 17.2487 7.75718 16.9911 7.57182 16.773C8.06045 17.1113 8.56524 17.1113 9.08622 16.773C9.11252 16.2731 9.22227 15.8093 9.41544 15.3817C9.38661 15.0083 9.21102 14.8537 8.88869 14.9179C9.07575 14.4911 9.16354 14.0273 9.15207 13.5266C8.50129 13.1913 8.45739 12.7275 9.02038 12.1353C8.84263 11.9112 8.62314 11.8081 8.36194 11.8262C8.32744 11.5977 8.37133 11.3916 8.49363 11.2078C8.71311 11.1563 8.8448 11.0017 8.88869 10.744C8.73711 10.4618 8.64931 10.1527 8.62532 9.8165C8.8009 9.8165 8.97649 9.8165 9.15207 9.8165C9.18332 9.61692 9.13942 9.46233 9.02038 9.35273C9.00314 9.21725 9.04705 9.11418 9.15207 9.04355C9.60774 8.79117 10.0467 8.50774 10.4689 8.19331C11.2041 8.16377 11.9284 8.08647 12.6418 7.96143C12.7073 8.37047 12.7292 8.78271 12.7076 9.19814Z"
            fill="#FBA912" />
        <path fill-rule="evenodd" clip-rule="evenodd"
            d="M16.5267 9.19824C16.5355 9.42374 16.4917 9.62987 16.395 9.8166C15.9516 9.62375 15.5126 9.62375 15.0781 9.8166C15.54 9.5922 16.0228 9.38608 16.5267 9.19824Z"
            fill="#3A584F" />
        <path fill-rule="evenodd" clip-rule="evenodd"
            d="M17.8434 9.97096C18.0027 10.0378 18.1344 10.1408 18.2384 10.2801C17.8733 10.459 17.4782 10.5621 17.0533 10.5893C16.9072 10.5805 16.7755 10.529 16.6582 10.4347C16.6582 10.2286 16.6582 10.0225 16.6582 9.81637C17.0625 9.79592 17.4575 9.84744 17.8434 9.97096Z"
            fill="#81B9E2" />
        <path fill-rule="evenodd" clip-rule="evenodd"
            d="M7.30838 9.35262C7.22058 9.61028 7.1328 9.86791 7.04501 10.1256C7.00111 10.2286 6.95721 10.3317 6.91332 10.4347C6.73956 10.6576 6.52007 10.7607 6.25488 10.7439C6.4639 10.316 6.70532 9.90376 6.97916 9.50721C7.0675 9.3909 7.17723 9.33936 7.30838 9.35262Z"
            fill="#F8DBA4" />
        <path fill-rule="evenodd" clip-rule="evenodd"
            d="M12.7079 9.19824C12.7518 9.19824 12.7957 9.19824 12.8396 9.19824C12.8846 9.32782 12.9724 9.37936 13.103 9.35283C12.9252 9.55743 12.9472 9.71202 13.1688 9.8166C13.5203 9.89638 13.8495 9.99943 14.1565 10.1258C13.9308 10.3172 13.6674 10.4203 13.3664 10.435C12.8333 10.4187 12.3065 10.4702 11.7861 10.5895C12.0092 10.2246 12.2726 9.91544 12.5763 9.66201C12.545 9.46244 12.5889 9.30785 12.7079 9.19824Z"
            fill="#1C2439" />
        <path fill-rule="evenodd" clip-rule="evenodd"
            d="M16.395 9.81651C16.5054 9.86934 16.5494 9.9724 16.5267 10.1257C16.1784 9.9185 15.8272 9.86697 15.4732 9.9711C15.5558 10.1128 15.5998 10.2674 15.6049 10.4349C14.8341 10.3654 14.0879 10.4685 13.3662 10.744C13.3662 10.641 13.3662 10.5379 13.3662 10.4349C13.6672 10.4202 13.9306 10.3171 14.1563 10.1257C14.2442 10.0742 14.3319 10.0226 14.4197 9.9711C14.6326 9.88793 14.8522 9.83641 15.0781 9.81651C15.5126 9.62366 15.9516 9.62366 16.395 9.81651Z"
            fill="#8C7B2C" />
        <path fill-rule="evenodd" clip-rule="evenodd"
            d="M16.5271 10.1258C16.5271 10.2288 16.5271 10.3319 16.5271 10.435C16.2552 10.4376 15.9918 10.4891 15.737 10.5895C15.6492 10.5895 15.6053 10.538 15.6053 10.435C15.6002 10.2675 15.5562 10.1129 15.4736 9.97119C15.8276 9.86706 16.1788 9.91858 16.5271 10.1258Z"
            fill="#B66D11" />
        <path fill-rule="evenodd" clip-rule="evenodd"
            d="M17.8438 9.97116C17.9844 9.82669 18.1599 9.77517 18.3705 9.81657C18.7309 9.80131 19.0821 9.85285 19.424 9.97116C19.5995 10.1773 19.7752 10.3834 19.9507 10.5895C19.358 10.6006 18.8313 10.8067 18.3705 11.2079C18.3266 11.1306 18.2827 11.0533 18.2388 10.976C18.3996 10.6695 18.6191 10.4377 18.8972 10.2803C18.6872 10.136 18.4678 10.136 18.2388 10.2803C18.1348 10.141 18.0031 10.038 17.8438 9.97116Z"
            fill="#D2AE2D" />
        <path fill-rule="evenodd" clip-rule="evenodd"
            d="M24.4277 3.01465C24.4277 3.16924 24.4277 3.32383 24.4277 3.47842C24.296 3.52994 24.2082 3.63301 24.1643 3.7876C23.9196 3.95695 23.7001 4.16306 23.5059 4.40595C23.5937 4.50902 23.6814 4.61207 23.7693 4.71513C23.6012 4.89207 23.4257 4.89207 23.2425 4.71513C23.1987 4.84395 23.1547 4.97279 23.1108 5.1016C23.5514 5.75037 23.771 6.49755 23.7693 7.34315C23.9009 7.34315 24.0326 7.34315 24.1643 7.34315C24.2522 7.85844 24.3399 8.37375 24.4277 8.88904C24.6911 8.88904 24.9544 8.88904 25.2178 8.88904C25.2178 9.19822 25.2178 9.5074 25.2178 9.81658C25.9692 9.76575 26.7154 9.81729 27.4565 9.97117C27.313 10.1425 27.313 10.2971 27.4565 10.4349C27.7104 10.2475 27.9299 10.2991 28.1149 10.5895C27.9394 10.8987 27.7637 11.2079 27.5882 11.5171C27.2673 11.4774 26.9599 11.3744 26.6664 11.2079C26.4121 10.8516 26.1049 10.5682 25.7446 10.3576C25.221 10.4559 24.6942 10.4302 24.1643 10.2803C24.1047 10.1322 24.017 10.0034 23.9009 9.89388C23.6464 9.85506 23.405 9.77776 23.1767 9.66199C23.1109 8.78749 23.089 7.91148 23.1108 7.03397C22.9187 7.04439 22.7431 6.99287 22.5841 6.87938C22.5954 6.72543 22.5514 6.59661 22.4524 6.49291C22.1691 6.45196 21.9496 6.29737 21.7939 6.02914C21.9871 5.75372 22.1628 5.47032 22.3207 5.1789C22.4031 4.74375 22.5788 4.35727 22.8474 4.01948C23.4548 3.84498 23.9815 3.51005 24.4277 3.01465Z"
            fill="#17C92A" />
        <path fill-rule="evenodd" clip-rule="evenodd"
            d="M29.1683 12.29C29.4587 11.5421 29.2831 11.0268 28.6416 10.7441C27.9958 11.0206 27.8202 11.5359 28.1148 12.29C27.7465 12.2179 27.5708 11.9602 27.5881 11.517C27.7636 11.2079 27.9393 10.8987 28.1148 10.5895C28.4095 10.4293 28.7168 10.4035 29.0366 10.5122C29.6288 11.1025 29.6727 11.6951 29.1683 12.29Z"
            fill="#BFED20" />
        <path fill-rule="evenodd" clip-rule="evenodd"
            d="M22.0581 7.03369C22.2227 7.04566 22.3324 7.14871 22.3873 7.34287C22.5243 7.9663 22.4366 8.53313 22.1239 9.04335C22.0585 9.4524 22.0365 9.86464 22.0581 10.2801C21.9195 10.257 21.7879 10.2827 21.663 10.3574C22.2687 10.9895 22.9491 11.479 23.7042 11.826C23.77 12.0578 23.8359 12.2897 23.9017 12.5216C23.6939 13.2489 23.6061 13.9961 23.6383 14.7632C23.6383 14.9177 23.6383 15.0723 23.6383 15.2269C23.2787 14.3311 22.8836 13.4551 22.4531 12.5989C22.6201 12.4 22.5763 12.2454 22.3215 12.1351C22.6185 11.9928 22.7502 11.7351 22.7165 11.3622C22.3381 11.2287 21.9868 11.0226 21.663 10.7438C21.4581 10.9057 21.2386 11.0088 21.0046 11.053C20.988 10.7902 20.9002 10.5584 20.7412 10.3574C20.875 10.0209 21.0944 9.84059 21.3996 9.8163C21.38 9.65367 21.4019 9.49908 21.4655 9.35253C22.0049 8.71728 22.2024 7.94433 22.0581 7.03369Z"
            fill="#86EF3F" />
        <path fill-rule="evenodd" clip-rule="evenodd"
            d="M15.6054 10.4346C15.6054 10.5376 15.6492 10.5891 15.737 10.5891C15.5503 11.0486 15.2649 11.1517 14.8811 10.8983C14.5742 11.2877 14.2012 11.4938 13.7617 11.5167C13.7617 11.3621 13.7617 11.2075 13.7617 11.0529C13.3979 11.0906 13.1126 11.2967 12.9058 11.6713C12.8439 12.0228 12.7122 12.332 12.5107 12.5988C12.4173 12.371 12.2636 12.268 12.0498 12.2896C12.1301 12.1519 12.174 11.9973 12.1815 11.8259C12.5039 11.3535 12.899 10.9927 13.3667 10.7437C14.0883 10.4681 14.8346 10.3651 15.6054 10.4346Z"
            fill="#F0A72A" />
        <path fill-rule="evenodd" clip-rule="evenodd"
            d="M4.67478 12.5989C4.57975 12.5344 4.51391 12.4313 4.47725 12.2898C4.29908 12.473 4.14544 12.6791 4.01634 12.9081C3.87232 12.6966 3.91622 12.5163 4.14803 12.367C3.96912 12.1808 3.83743 11.949 3.75297 11.6714C3.63067 11.8552 3.58678 12.0613 3.62128 12.2898C3.4896 12.2898 3.35791 12.2898 3.22622 12.2898C3.15021 12.8432 3.2819 13.3069 3.62128 13.6811C3.09453 13.7841 2.56778 13.8872 2.04104 13.9902C2.87209 14.1663 3.70612 14.2436 4.54309 14.2221C4.66465 13.9066 4.70855 13.5717 4.67478 13.2173C4.76215 13.4556 4.84995 13.7133 4.93815 13.9902C5.10095 13.8749 5.27653 13.8234 5.4649 13.8356C5.61773 14.5583 5.39826 14.9705 4.80647 15.0724C4.37393 14.8758 3.93497 14.6954 3.4896 14.5313C2.89443 14.5042 2.32379 14.4269 1.77766 14.2994C1.38681 13.8492 0.903959 13.5916 0.329102 13.5265C0.90098 13.5294 1.47162 13.5294 2.04104 13.5265C2.06988 13.3448 2.02598 13.1902 1.90935 13.0627C1.68574 13.2452 1.46626 13.2452 1.25091 13.0627C1.52994 12.9048 1.74943 12.673 1.90935 12.367C1.63482 12.2853 1.3934 12.3626 1.18507 12.5989C1.11922 12.5474 1.05338 12.4959 0.987538 12.4443C1.1677 12.114 1.29939 11.7533 1.3826 11.3622C1.81492 11.0502 2.03439 10.5864 2.04104 9.97091C2.56634 8.27633 3.24671 8.17327 4.08219 9.66173C4.34178 10.6231 4.53931 11.6022 4.67478 12.5989Z"
            fill="#D7110B" />
        <path fill-rule="evenodd" clip-rule="evenodd"
            d="M22.4525 12.5992C22.4086 12.5992 22.3646 12.5992 22.3208 12.5992C21.9149 12.0197 21.4759 11.5043 21.0039 11.0533C21.2379 11.0091 21.4574 10.906 21.6623 10.7441C21.9862 11.0229 22.3374 11.229 22.7158 11.3625C22.7496 11.7354 22.6179 11.9931 22.3208 12.1354C22.5756 12.2457 22.6194 12.4003 22.4525 12.5992Z"
            fill="#9CEE61" />
        <path fill-rule="evenodd" clip-rule="evenodd"
            d="M12.576 9.66167C12.2723 9.91511 12.0089 10.2243 11.7859 10.5892C10.9194 10.8152 10.2609 11.382 9.81055 12.2897C9.819 11.7147 9.88484 11.1478 10.0081 10.5892C10.7605 9.91277 11.6165 9.60359 12.576 9.66167Z"
            fill="#AD7217" />
        <path fill-rule="evenodd" clip-rule="evenodd"
            d="M22.5848 6.87939C22.7439 6.99288 22.9194 7.0444 23.1116 7.03398C23.0897 7.9115 23.1117 8.78751 23.1774 9.662C23.4058 9.77778 23.6471 9.85507 23.9017 9.89389C24.0177 10.0034 24.1054 10.1322 24.1651 10.2804C24.4706 10.4224 24.7559 10.6285 25.021 10.8987C25.0649 10.8472 25.1089 10.7957 25.1527 10.7441C25.1966 11.0018 25.2405 11.2594 25.2844 11.5171C25.7951 11.3072 26.1682 11.5133 26.4037 12.1354C26.1658 13.0039 25.7927 13.7768 25.2844 14.4543C25.2405 13.939 25.1966 13.4237 25.1527 12.9084C24.6861 13.4889 24.3569 14.1588 24.1651 14.918C24.2438 15.1182 24.3097 15.3243 24.3626 15.5364C24.5163 15.2787 24.6698 15.0211 24.8235 14.7635C24.8673 14.8665 24.9113 14.9696 24.9552 15.0726C24.7415 15.7337 24.4342 16.3004 24.0334 16.7731C23.9143 16.6635 23.8705 16.5089 23.9017 16.3093C23.8455 15.9213 23.7578 15.5607 23.6383 15.2272C23.6383 15.0726 23.6383 14.918 23.6383 14.7635C23.9832 13.9993 24.1369 13.1748 24.0992 12.29C24.1084 11.5023 23.7792 11.09 23.1116 11.0533C23.1116 10.8472 23.1116 10.6411 23.1116 10.435C22.82 10.4673 22.6005 10.3385 22.4531 10.0485C22.7161 8.99949 22.76 7.94314 22.5848 6.87939Z"
            fill="#21E01B" />
        <path fill-rule="evenodd" clip-rule="evenodd"
            d="M29.1685 12.29C28.8173 12.29 28.4662 12.29 28.115 12.29C27.8204 11.536 27.996 11.0207 28.6417 10.7441C29.2833 11.0268 29.4589 11.5421 29.1685 12.29Z"
            fill="#3ED450" />
        <path fill-rule="evenodd" clip-rule="evenodd"
            d="M28.9049 11.208C29.1914 11.3955 29.2353 11.6532 29.0366 11.9809C28.3627 12.298 28.1213 12.0404 28.3123 11.208C28.5251 11.0069 28.7226 11.0069 28.9049 11.208Z"
            fill="#18D3BF" />
        <path fill-rule="evenodd" clip-rule="evenodd"
            d="M28.5106 11.3623C28.8618 11.5169 28.8618 11.6715 28.5106 11.8261C28.335 11.6715 28.335 11.5169 28.5106 11.3623Z"
            fill="#1043A5" />
        <path fill-rule="evenodd" clip-rule="evenodd"
            d="M28.5107 11.3623C28.6041 11.2226 28.7358 11.171 28.9058 11.2077C28.9058 11.4654 28.9058 11.723 28.9058 11.9807C28.7358 12.0174 28.6041 11.9658 28.5107 11.8261C28.862 11.6715 28.862 11.5169 28.5107 11.3623Z"
            fill="#139AE6" />
        <path fill-rule="evenodd" clip-rule="evenodd"
            d="M13.3661 10.4346C13.3661 10.5376 13.3661 10.6407 13.3661 10.7438C12.8984 10.9928 12.5034 11.3535 12.1809 11.8259C11.9764 12.1173 11.713 12.2719 11.3908 12.2896C11.2337 12.786 11.0142 13.2497 10.7324 13.681C10.443 14.309 10.2674 14.9789 10.2056 15.6906C9.98844 14.5918 9.85676 13.4581 9.81055 12.2896C10.2609 11.382 10.9194 10.8151 11.7859 10.5892C12.3062 10.4698 12.833 10.4183 13.3661 10.4346Z"
            fill="#F1F4EF" />
        <path fill-rule="evenodd" clip-rule="evenodd"
            d="M9.02061 9.35243C9.13966 9.46204 9.18355 9.61663 9.1523 9.8162C8.97672 9.8162 8.80113 9.8162 8.62555 9.8162C8.64954 10.1524 8.73734 10.4615 8.88892 10.7437C8.84503 11.0014 8.71335 11.156 8.49386 11.2075C8.37157 11.3913 8.32767 11.5974 8.36218 11.8259C8.62338 11.8078 8.84286 11.9109 9.02061 12.135C8.45762 12.7272 8.50153 13.191 9.1523 13.5263C9.16377 14.027 9.07599 14.4908 8.88892 14.9176C9.21126 14.8534 9.38685 15.008 9.41567 15.3814C9.2225 15.809 9.11275 16.2728 9.08646 16.7727C8.56547 17.111 8.06068 17.111 7.57205 16.7727C7.4093 16.3907 7.16788 16.0816 6.84777 15.8452C6.78419 15.6986 6.76224 15.544 6.78193 15.3814C7.33852 15.1997 7.42631 14.8647 7.0453 14.3766C6.87501 14.3008 6.69941 14.2751 6.51855 14.2993C6.51855 14.0416 6.51855 13.784 6.51855 13.5263C6.84089 13.5905 7.01648 13.436 7.0453 13.0626C6.87225 12.8328 6.74057 12.5752 6.65024 12.2896C6.80125 11.9331 6.97684 11.5981 7.17699 11.2848C7.11717 10.9851 7.02937 10.7017 6.91362 10.4346C6.95751 10.3315 7.00141 10.2284 7.0453 10.1254C7.3105 10.1422 7.52998 10.0391 7.70374 9.8162C8.02624 9.10798 8.46519 8.95339 9.02061 9.35243Z"
            fill="#FB8215" />
        <path fill-rule="evenodd" clip-rule="evenodd"
            d="M16.5271 10.4346C16.571 10.4346 16.6149 10.4346 16.6588 10.4346C16.7761 10.5288 16.9078 10.5804 17.0539 10.5892C16.6396 11.3159 16.8151 11.6766 17.5806 11.6713C17.6997 10.7009 17.8313 10.7524 17.9757 11.8259C17.872 12.0739 17.6965 12.1769 17.4489 12.1351C16.8466 12.129 16.3637 12.3866 16.0004 12.908C15.871 12.8089 15.7394 12.7059 15.6053 12.5988C15.4383 12.7423 15.2628 12.768 15.0786 12.6761C15.2185 12.4924 15.3942 12.4151 15.6053 12.4442C15.639 12.0898 15.5952 11.7549 15.4736 11.4394C14.9116 11.3286 14.8239 11.509 15.2102 11.9805C15.1664 12.032 15.1224 12.0835 15.0786 12.1351C14.5315 11.6772 14.0925 11.806 13.7617 12.5215C13.9363 13.071 13.9143 13.6121 13.6958 14.1447C13.6301 13.5285 13.6081 12.9101 13.63 12.2896C13.4983 12.2896 13.3666 12.2896 13.2349 12.2896C13.2568 13.1157 13.2348 13.9402 13.1691 14.7631C13.089 14.5209 12.9793 14.3148 12.8399 14.1447C12.7521 13.9386 12.6643 13.7325 12.5765 13.5264C12.5243 13.3679 12.4365 13.3421 12.3131 13.4491C11.9313 13.871 11.5802 14.309 11.2596 14.7631C11.149 14.1386 11.3245 13.6749 11.7864 13.3718C11.7262 13.2485 11.6384 13.1969 11.523 13.2172C11.6303 13.0106 11.7839 12.856 11.9839 12.7534C12.0475 12.6069 12.0694 12.4523 12.0497 12.2896C12.2636 12.268 12.4172 12.3711 12.5107 12.5988C12.7121 12.332 12.8438 12.0228 12.9057 11.6713C13.1126 11.2967 13.3978 11.0906 13.7617 11.0529C13.7617 11.2075 13.7617 11.3621 13.7617 11.5167C14.2011 11.4938 14.5742 11.2877 14.881 10.8983C15.2649 11.1517 15.5503 11.0486 15.737 10.5892C15.9918 10.4888 16.2552 10.4372 16.5271 10.4346Z"
            fill="#E5F5EF" />
        <path fill-rule="evenodd" clip-rule="evenodd"
            d="M16.0004 12.9084C15.8137 13.1879 15.5503 13.291 15.2103 13.2176C15.2541 13.5268 15.2981 13.836 15.342 14.1451C15.6054 14.1451 15.8687 14.1451 16.1321 14.1451C16.1097 13.9408 16.1536 13.7604 16.2638 13.6041C16.5484 13.5137 16.8117 13.3849 17.0539 13.2176C17.3046 13.2543 17.4803 13.4089 17.5807 13.6814C17.4349 14.063 17.1715 14.2176 16.7905 14.1451C16.7991 14.0774 16.7772 14.0259 16.7247 13.9906C16.2274 14.3639 15.6787 14.5443 15.0786 14.5316C14.8409 15.0124 14.6215 15.502 14.4202 16.0002C14.294 16.0702 14.1842 16.1732 14.0909 16.3094C13.9843 16.9058 14.0063 17.4725 14.1568 18.0099C14.3946 18.2555 14.5702 18.5647 14.6835 18.9374C15.4688 19.0914 16.2589 19.1429 17.0539 19.092C17.2354 19.2055 17.4329 19.3086 17.6465 19.4012C17.6713 19.6425 17.5616 19.7456 17.3173 19.7104C17.3136 20.2754 17.5331 20.6877 17.9757 20.9471C18.0395 21.9488 18.193 22.9278 18.4366 23.8843C18.7267 24.413 19.056 24.5161 19.4243 24.1935C19.4243 24.348 19.4243 24.5026 19.4243 24.6572C19.2934 26.2784 19.2494 27.9274 19.2926 29.6041C19.4681 29.6041 19.6438 29.6041 19.8193 29.6041C19.8193 29.0372 19.8193 28.4705 19.8193 27.9036C19.8108 27.8359 19.8326 27.7843 19.8852 27.749C20.9345 28.8639 21.9001 28.7608 22.7823 27.4398C23.2973 26.2108 23.0998 25.1802 22.1897 24.348C22.1897 24.142 22.1897 23.9358 22.1897 23.7297C22.3214 23.7297 22.4531 23.7297 22.5848 23.7297C22.8766 23.1053 23.184 22.3838 23.5066 21.5654C23.5504 21.4623 23.5944 21.3594 23.6383 21.2563C24.16 21.0474 24.7088 20.9443 25.2844 20.9471C26.084 21.027 26.8741 21.1816 27.6547 21.4108C28.1861 21.2249 28.5153 20.8127 28.6424 20.1741C29.2661 19.5179 29.7708 18.745 30.1568 17.8553C30.3113 17.0086 30.1796 16.2357 29.7617 15.5364C29.6378 14.2669 30.0549 13.3394 31.0128 12.7538C31.4465 12.6044 31.7539 12.2953 31.9346 11.8263C31.9346 18.5251 31.9346 25.2241 31.9346 31.9229C21.2679 31.9229 10.6012 31.9229 -0.0654297 31.9229C-0.0654297 25.6362 -0.0654297 19.3497 -0.0654297 13.063C0.0611723 13.3358 0.105068 13.645 0.0662576 13.9906C0.657924 13.9549 1.22857 14.058 1.77819 14.2997C2.32432 14.4272 2.89497 14.5045 3.49013 14.5316C3.93551 14.6957 4.37446 14.8761 4.807 15.0727C4.91244 15.311 4.95633 15.5686 4.93869 15.8456C4.91701 16.3122 4.93895 16.7759 5.00453 17.2369C5.63093 18.5652 6.57469 19.3897 7.8358 19.7104C8.1828 19.8096 8.53396 19.9127 8.8893 20.0195C9.26271 19.9877 9.61389 19.8846 9.9428 19.7104C10.0596 20.6091 10.3229 21.4336 10.7329 22.1838C10.6806 22.518 10.505 22.7241 10.2062 22.8022C10.4418 22.9758 10.4857 23.1818 10.3379 23.4205C9.83247 22.9575 9.30572 22.5194 8.75762 22.1065C8.52204 22.0261 8.30256 22.0776 8.09918 22.2611C8.35426 22.2799 8.52984 22.4087 8.62593 22.6476C7.11586 22.322 6.10626 22.9918 5.59712 24.6572C5.51006 24.9098 5.46617 25.1932 5.46543 25.5075C5.43908 25.9505 5.52688 26.337 5.72881 26.6669C5.76489 27.0504 5.94047 27.308 6.25556 27.4398C6.39615 27.7861 6.61562 28.0696 6.91399 28.2901C8.82973 28.69 9.97102 27.7883 10.3379 25.5848C9.32826 25.5848 8.31866 25.5848 7.30906 25.5848C7.30906 25.7908 7.30906 25.997 7.30906 26.2031C8.10403 26.1523 8.89415 26.2037 9.67943 26.3577C9.2963 27.3952 8.61592 27.9106 7.63827 27.9036C7.18223 27.8051 6.80911 27.5476 6.51893 27.1307C5.74002 25.8497 5.8278 24.6388 6.78231 23.4978C7.79455 22.8533 8.67247 23.0337 9.41605 24.0389C9.65289 24.238 9.87237 24.238 10.0745 24.0389C10.2488 23.8302 10.3805 23.856 10.4695 24.1162C10.089 24.4086 10.1329 24.5374 10.6012 24.5026C10.575 23.9707 10.6409 23.4554 10.7988 22.9567C11.0493 23.2568 11.1591 23.6175 11.128 24.0389C11.1061 25.1737 11.128 26.3073 11.1938 27.4398C11.4546 28.1806 11.9374 28.4898 12.6424 28.3674C12.9941 28.4023 13.3014 28.2992 13.5642 28.0582C13.6859 28.3666 13.8394 28.4181 14.0251 28.2128C14.1278 26.8465 14.2157 25.4552 14.2885 24.0389C14.2446 23.8328 14.2006 23.6266 14.1568 23.4205C13.8281 23.5875 13.5207 23.7937 13.235 24.0389C13.1054 23.5862 13.0615 23.1225 13.1033 22.6476C13.3464 22.6905 13.5221 22.5874 13.63 22.3384C13.4266 22.1912 13.2071 22.1397 12.9716 22.1838C12.9739 22.7831 12.8203 22.8861 12.5107 22.493C12.4668 22.699 12.4229 22.9053 12.379 23.1113C12.3286 23.0254 12.2628 22.9739 12.1815 22.9567C12.0555 22.5996 11.9238 22.2388 11.7864 21.8746C11.864 21.4847 11.9517 21.0983 12.0498 20.7152C11.9043 20.4501 11.7288 20.2182 11.523 20.0195C11.6108 20.0195 11.6547 19.9681 11.6547 19.865C11.8907 19.8857 12.1101 19.8342 12.3132 19.7104C12.4956 19.5381 12.6931 19.3836 12.9058 19.2466C12.9475 19.525 13.0353 19.5765 13.1691 19.4012C13.2098 19.2055 13.2757 19.0251 13.3667 18.8601C13.2408 18.3354 13.1969 17.7944 13.235 17.2369C13.3654 16.8271 13.497 16.415 13.63 16.0002C13.6244 15.8586 13.5805 15.7555 13.4984 15.691C13.0691 15.3017 12.8497 14.7864 12.8399 14.1451C12.9793 14.3152 13.089 14.5214 13.1691 14.7635C13.2348 13.9406 13.2568 13.1162 13.235 12.2901C13.3667 12.2901 13.4984 12.2901 13.63 12.2901C13.6082 12.9106 13.6302 13.5289 13.6959 14.1451C13.9144 13.6125 13.9363 13.0715 13.7617 12.522C14.0925 11.8064 14.5316 11.6776 15.0786 12.1355C15.1225 12.084 15.1664 12.0324 15.2103 11.9809C14.8239 11.5094 14.9116 11.329 15.4737 11.4398C15.5952 11.7553 15.6391 12.0903 15.6054 12.4447C15.3943 12.4156 15.2186 12.4929 15.0786 12.6765C15.2628 12.7685 15.4384 12.7427 15.6054 12.5993C15.7394 12.7063 15.8711 12.8094 16.0004 12.9084Z"
            fill="#FBFCFB" />
        <path fill-rule="evenodd" clip-rule="evenodd"
            d="M28.1152 12.29C28.4664 12.29 28.8175 12.29 29.1687 12.29C29.1914 12.4433 29.1474 12.5464 29.037 12.5992C28.7701 12.6243 28.5067 12.5985 28.2469 12.5219C28.1737 12.4628 28.1299 12.3855 28.1152 12.29Z"
            fill="#CCEE24" />
        <path fill-rule="evenodd" clip-rule="evenodd"
            d="M2.04157 9.97119C2.03492 10.5867 1.81545 11.0505 1.38313 11.3625C1.29992 11.7536 1.16823 12.1143 0.988068 12.4446C1.05391 12.4961 1.11976 12.5477 1.1856 12.5992C1.39393 12.3629 1.63535 12.2856 1.90988 12.3673C1.74996 12.6732 1.53047 12.9051 1.25144 13.063C1.46679 13.2455 1.68627 13.2455 1.90988 13.063C2.02651 13.1905 2.07041 13.3451 2.04157 13.5267C1.47215 13.5296 0.90151 13.5296 0.329632 13.5267C0.904489 13.5919 1.38734 13.8495 1.77819 14.2997C1.22857 14.0579 0.657924 13.9549 0.0662576 13.9905C0.105068 13.6449 0.0611723 13.3358 -0.0654297 13.063C-0.0654297 12.6507 -0.0654297 12.2385 -0.0654297 11.8263C0.579676 11.1363 1.28201 10.5179 2.04157 9.97119Z"
            fill="#BB180E" />
        <path fill-rule="evenodd" clip-rule="evenodd"
            d="M12.181 11.8262C12.1735 11.9976 12.1296 12.1522 12.0493 12.2899C12.069 12.4526 12.047 12.6072 11.9835 12.7537C11.7835 12.8563 11.6299 13.0109 11.5225 13.2175C11.318 13.5089 11.0546 13.6635 10.7324 13.6812C11.0143 13.25 11.2338 12.7862 11.3909 12.2899C11.7131 12.2722 11.9764 12.1176 12.181 11.8262Z"
            fill="#BEB93B" />
        <path fill-rule="evenodd" clip-rule="evenodd"
            d="M17.9755 11.8262C18.0622 11.9651 18.1499 12.1196 18.2389 12.2899C18.3641 12.4176 18.4958 12.4433 18.634 12.3672C18.5564 11.85 18.6442 11.85 18.8973 12.3672C18.7547 12.6851 18.5352 12.8912 18.2389 12.9856C18.4395 13.2621 18.659 13.2878 18.8973 13.0629C18.9379 13.4376 18.8939 13.7983 18.7656 14.145C18.462 13.6854 18.1108 13.2732 17.7121 12.9083C17.6683 12.9598 17.6243 13.0114 17.5805 13.0629C17.9051 13.3041 17.9929 13.6133 17.8438 13.9904C17.754 13.8756 17.6662 13.7725 17.5805 13.6812C17.4801 13.4088 17.3044 13.2542 17.0537 13.2175C17.2835 12.9179 17.4152 12.5572 17.4488 12.1354C17.6963 12.1772 17.8719 12.0742 17.9755 11.8262Z"
            fill="#EAC336" />
        <path fill-rule="evenodd" clip-rule="evenodd"
            d="M20.7409 12.4445C20.8837 12.7257 21.0593 12.9833 21.2677 13.2175C21.2075 13.3408 21.1196 13.3923 21.0043 13.3721C20.853 13.1171 20.6774 12.8852 20.4775 12.6764C20.5218 12.5172 20.6096 12.4399 20.7409 12.4445Z"
            fill="#B8E7D7" />
        <path fill-rule="evenodd" clip-rule="evenodd"
            d="M17.4486 12.1354C17.4151 12.5572 17.2834 12.9179 17.0536 13.2175C16.8114 13.3847 16.548 13.5136 16.2635 13.604C16.1532 13.7603 16.1094 13.9406 16.1318 14.145C15.8684 14.145 15.605 14.145 15.3416 14.145C15.2978 13.8358 15.2538 13.5267 15.21 13.2175C15.55 13.2909 15.8134 13.1878 16.0001 12.9083C16.3634 12.3869 16.8463 12.1293 17.4486 12.1354Z"
            fill="#F8ED4B" />
        <path fill-rule="evenodd" clip-rule="evenodd"
            d="M6.91364 10.4346C7.02939 10.7017 7.11719 10.9851 7.17701 11.2848C6.97686 11.5981 6.80127 11.9331 6.65026 12.2896C6.74059 12.5752 6.87227 12.8328 7.04532 13.0626C7.0165 13.436 6.84091 13.5906 6.51857 13.5264C6.51857 13.784 6.51857 14.0417 6.51857 14.2993C6.69943 14.2751 6.87503 14.3009 7.04532 14.3766C7.42633 14.8647 7.33854 15.1997 6.78195 15.3814C6.53109 15.2187 6.35549 15.3218 6.2552 15.6906C6.60257 16.1756 6.86594 16.7166 7.04532 17.3138C6.9708 17.4676 6.88301 17.5964 6.78195 17.7003C6.83761 17.3477 6.74982 17.09 6.51857 16.9273C6.41494 16.6794 6.23936 16.5763 5.99183 16.6181C5.99183 16.4636 5.99183 16.309 5.99183 16.1544C5.86014 16.1544 5.72845 16.1544 5.59676 16.1544C5.63727 16.5291 5.59337 16.8898 5.46508 17.2365C5.33548 16.7839 5.29159 16.3201 5.33339 15.8452C5.2017 15.8452 5.07002 15.8452 4.93833 15.8452C4.95597 15.5682 4.91208 15.3106 4.80664 15.0723C5.39843 14.9704 5.6179 14.5582 5.46508 13.8355C5.46508 13.784 5.46508 13.7325 5.46508 13.6809C5.46036 12.9757 5.59205 12.3058 5.86014 11.6713C6.1865 11.4823 6.31819 11.1731 6.2552 10.7437C6.52039 10.7605 6.73988 10.6575 6.91364 10.4346Z"
            fill="#F8CD63" />
        <path fill-rule="evenodd" clip-rule="evenodd"
            d="M4.67476 12.5989C4.67476 12.805 4.67476 13.0112 4.67476 13.2173C4.70853 13.5717 4.66463 13.9066 4.54307 14.2221C3.7061 14.2436 2.87207 14.1663 2.04102 13.9902C2.56776 13.8872 3.09451 13.7841 3.62126 13.681C3.28188 13.3069 3.15019 12.8431 3.2262 12.2897C3.35789 12.2897 3.48958 12.2897 3.62126 12.2897C3.58676 12.0613 3.63065 11.8552 3.75295 11.6714C3.83741 11.949 3.9691 12.1808 4.14801 12.367C3.9162 12.5163 3.8723 12.6966 4.01632 12.9081C4.14542 12.6791 4.29906 12.473 4.47723 12.2897C4.51389 12.4313 4.57973 12.5344 4.67476 12.5989Z"
            fill="#F20403" />
        <path fill-rule="evenodd" clip-rule="evenodd"
            d="M4.6748 12.5991C4.81973 12.8739 4.92946 13.1831 5.00402 13.5267C5.1372 13.656 5.29082 13.7075 5.46493 13.6812C5.46493 13.7328 5.46493 13.7843 5.46493 13.8358C5.27655 13.8236 5.10097 13.8751 4.93818 13.9904C4.84998 13.7135 4.76218 13.4558 4.6748 13.2175C4.6748 13.0114 4.6748 12.8052 4.6748 12.5991Z"
            fill="#CB4234" />
        <path fill-rule="evenodd" clip-rule="evenodd"
            d="M20.4774 10.8984C20.6529 10.95 20.8286 11.0015 21.0041 11.053C21.4761 11.5041 21.9152 12.0194 22.321 12.5989C22.2657 12.8453 22.178 13.0772 22.0576 13.2946C22.1015 13.3719 22.1455 13.4492 22.1893 13.5265C22.6405 13.1829 22.6843 13.2859 22.321 13.8356C22.4297 13.9726 22.5613 14.0241 22.7161 13.9902C22.6968 14.3678 22.8065 14.4709 23.0453 14.2994C23.1089 14.446 23.1308 14.6005 23.1111 14.7632C22.7652 14.8546 22.414 14.9062 22.0576 14.9178C21.8001 14.6588 21.6245 14.7103 21.5309 15.0724C21.402 14.8767 21.2703 14.6706 21.1358 14.454C20.9999 14.692 20.8244 14.7693 20.6091 14.6859C21.0282 14.3496 21.1599 13.9116 21.0041 13.3719C21.1195 13.3921 21.2073 13.3406 21.2675 13.2173C21.0592 12.9831 20.8835 12.7255 20.7408 12.4443C21.1145 12.1652 21.0706 12.0106 20.6091 11.9806C20.6117 11.7266 20.5239 11.5205 20.3457 11.3622C20.4283 11.2205 20.4723 11.0659 20.4774 10.8984Z"
            fill="#C4AA28" />
        <path fill-rule="evenodd" clip-rule="evenodd"
            d="M18.502 15.0727C18.2315 15.0935 18.012 14.9905 17.8435 14.7635C17.6975 14.7547 17.5658 14.7032 17.4485 14.6089C17.2624 14.3871 17.0429 14.2325 16.79 14.1452C17.171 14.2177 17.4344 14.0631 17.5802 13.6814C17.6659 13.7727 17.7537 13.8758 17.8435 13.9906C17.9926 13.6134 17.9048 13.3043 17.5802 13.063C17.624 13.0115 17.668 12.96 17.7118 12.9085C18.1105 13.2734 18.4617 13.6856 18.7653 14.1452C18.8936 13.7985 18.9376 13.4378 18.897 13.063C19.2238 12.4647 19.575 12.4647 19.9505 13.063C19.7427 13.1864 19.5233 13.2637 19.2921 13.2949C18.923 13.6384 18.9448 13.9218 19.3579 14.1452C19.6527 13.7355 19.894 13.787 20.0822 14.2998C20.0194 14.4509 19.9317 14.5797 19.8188 14.6862C19.317 14.6733 18.8779 14.8022 18.502 15.0727Z"
            fill="#CEE8E5" />
        <path fill-rule="evenodd" clip-rule="evenodd"
            d="M11.5229 13.2172C11.6383 13.1969 11.7261 13.2485 11.7863 13.3718C11.3245 13.6749 11.1489 14.1386 11.2596 14.7631C10.9084 15.1238 10.5572 15.4845 10.2061 15.8452C10.2061 15.7937 10.2061 15.7421 10.2061 15.6906C10.2679 14.9789 10.4434 14.309 10.7328 13.6809C11.055 13.6632 11.3184 13.5086 11.5229 13.2172Z"
            fill="#75E2EE" />
        <path fill-rule="evenodd" clip-rule="evenodd"
            d="M12.5764 13.5267C12.5961 13.6893 12.5742 13.8439 12.5106 13.9905C12.1904 14.2365 11.949 14.5457 11.7863 14.918C11.394 15.4816 10.9551 15.9969 10.4694 16.4639C10.3582 16.2829 10.2704 16.0766 10.2061 15.8455C10.5572 15.4849 10.9084 15.1241 11.2596 14.7634C11.5801 14.3093 11.9312 13.8713 12.3131 13.4494C12.4364 13.3425 12.5242 13.3682 12.5764 13.5267Z"
            fill="#CF2019" />
        <path fill-rule="evenodd" clip-rule="evenodd"
            d="M12.5758 13.5264C12.6636 13.7325 12.7514 13.9386 12.8392 14.1447C12.8489 14.786 13.0684 15.3013 13.4976 15.6906C13.3001 15.8588 13.1245 16.0649 12.9709 16.309C12.8831 16.0513 12.7953 15.7937 12.7075 15.536C12.5909 15.6636 12.547 15.8182 12.5758 15.9998C12.1363 15.9326 11.7412 16.0357 11.3906 16.309C11.5716 15.837 11.835 15.4248 12.1807 15.0723C12.0721 14.9353 11.9404 14.8838 11.7857 14.9177C11.9484 14.5454 12.1898 14.2362 12.51 13.9901C12.5735 13.8436 12.5955 13.689 12.5758 13.5264Z"
            fill="#9F1D14" />
        <path fill-rule="evenodd" clip-rule="evenodd"
            d="M22.058 14.9178C22.1986 15.0623 22.3742 15.1138 22.5847 15.0724C22.5847 15.227 22.5847 15.3816 22.5847 15.5362C22.4092 15.4847 22.2335 15.4331 22.058 15.3816C21.8523 15.3456 21.6768 15.2426 21.5312 15.0724C21.6249 14.7104 21.8004 14.6589 22.058 14.9178Z"
            fill="#98D5DE" />
        <path fill-rule="evenodd" clip-rule="evenodd"
            d="M19.9503 10.5893C20.0382 10.5893 20.1259 10.5893 20.2137 10.5893C20.3015 10.6924 20.3892 10.7954 20.4771 10.8985C20.4719 11.066 20.4279 11.2206 20.3454 11.3623C20.5236 11.5205 20.6114 11.7266 20.6088 11.9806C21.0703 12.0106 21.1142 12.1652 20.7404 12.4444C20.6091 12.4398 20.5213 12.5171 20.4771 12.6763C20.677 12.8851 20.8525 13.117 21.0038 13.3719C21.1596 13.9117 21.0279 14.3497 20.6088 14.686C20.8241 14.7694 20.9996 14.6921 21.1355 14.4541C21.27 14.6707 21.4016 14.8768 21.5306 15.0724C21.6761 15.2425 21.8516 15.3456 22.0573 15.3816C22.117 15.5297 22.2047 15.6586 22.3207 15.7681C22.0589 15.7959 21.7955 15.7702 21.5306 15.6908C21.5682 15.9655 21.6561 16.2232 21.7939 16.4637C21.7614 16.6512 21.6736 16.7544 21.5306 16.7729C21.3999 16.7995 21.3122 16.7479 21.2672 16.6183C21.1401 16.2187 20.9644 16.1414 20.7404 16.3864C20.7847 16.5457 20.8725 16.623 21.0038 16.6183C20.995 16.8439 21.0388 17.0499 21.1355 17.2367C21.028 18.2044 21.028 19.1319 21.1355 20.0193C20.8835 20.6264 20.6641 20.5747 20.4771 19.8647C20.3205 19.7211 20.145 19.6696 19.9503 19.7101C19.972 19.1409 19.9502 18.5742 19.8845 18.0096C19.6365 17.8314 19.5268 17.5738 19.5553 17.2367C19.248 17.2367 18.9407 17.2367 18.6334 17.2367C18.6043 16.5727 18.7799 16.4696 19.1602 16.9275C19.248 16.9017 19.3357 16.876 19.4236 16.8502C19.0891 16.6894 18.8696 16.4059 18.7651 16C18.6438 16.3487 18.4243 16.5033 18.1067 16.4637C18.0968 16.0454 18.053 15.6331 17.975 15.227C18.1856 15.2684 18.3611 15.2169 18.5018 15.0724C18.8777 14.8019 19.3168 14.673 19.8186 14.686C19.9315 14.5794 20.0192 14.4506 20.082 14.2995C19.8938 13.7867 19.6524 13.7352 19.3577 14.1449C18.9446 13.9215 18.9228 13.6381 19.2919 13.2946C19.5231 13.2634 19.7425 13.1861 19.9503 13.0628C19.5747 12.4644 19.2235 12.4644 18.8968 13.0628C18.6585 13.2877 18.4389 13.2619 18.2384 12.9855C18.5347 12.891 18.7542 12.6849 18.8968 12.3671C18.6437 11.8498 18.5559 11.8498 18.6334 12.3671C18.4953 12.4432 18.3636 12.4174 18.2384 12.2898C18.1494 12.1195 18.0617 11.9649 17.975 11.826C17.8307 10.7526 17.699 10.701 17.5799 11.6715C16.8144 11.6768 16.6389 11.3161 17.0532 10.5893C17.4782 10.5621 17.8732 10.459 18.2384 10.2802C18.4674 10.1358 18.6868 10.1358 18.8968 10.2802C18.6187 10.4375 18.3992 10.6694 18.2384 10.9758C18.2822 11.0531 18.3262 11.1304 18.3701 11.2077C18.8308 10.8066 19.3576 10.6004 19.9503 10.5893Z"
            fill="#E7A929" />
        <path fill-rule="evenodd" clip-rule="evenodd"
            d="M22.321 12.5991C22.3648 12.5991 22.4088 12.5991 22.4527 12.5991C22.8832 13.4553 23.2782 14.3313 23.6379 15.2271C23.7573 15.5606 23.845 15.9212 23.9012 16.3093C23.7696 16.2062 23.6379 16.1032 23.5062 16.0001C23.4085 15.6167 23.2768 15.256 23.1111 14.918C23.1111 14.8664 23.1111 14.8149 23.1111 14.7634C23.1307 14.6007 23.1089 14.4462 23.0453 14.2996C22.8065 14.4711 22.6968 14.368 22.7161 13.9904C22.5613 14.0243 22.4296 13.9728 22.321 13.8358C22.6843 13.2861 22.6405 13.1831 22.1893 13.5267C22.1455 13.4494 22.1015 13.3721 22.0576 13.2948C22.178 13.0774 22.2657 12.8455 22.321 12.5991Z"
            fill="#6F9F15" />
        <path fill-rule="evenodd" clip-rule="evenodd"
            d="M16.79 14.1448C17.0428 14.2322 17.2624 14.3868 17.4484 14.6086C17.3203 14.8082 17.1886 14.8082 17.0534 14.6086C16.9217 14.6601 16.8339 14.7632 16.79 14.9178C16.9105 15.0458 16.9982 15.2003 17.0534 15.3815C16.9201 15.6988 16.8323 16.0338 16.79 16.3864C16.904 16.8659 16.904 17.3297 16.79 17.7777C16.7962 18.1264 16.9279 18.3583 17.1851 18.4733C17.1902 18.6407 17.2342 18.7953 17.3168 18.9371C17.2566 19.0605 17.1687 19.1119 17.0534 19.0917C16.2584 19.1425 15.4683 19.0911 14.683 18.9371C14.5696 18.5644 14.3941 18.2552 14.1563 18.0096C14.0977 17.2983 14.1855 16.6283 14.4196 15.9999C14.621 15.5017 14.8404 15.0121 15.0781 14.5313C15.6782 14.5439 16.2269 14.3636 16.7242 13.9902C16.7767 14.0255 16.7986 14.0771 16.79 14.1448Z"
            fill="#FCF050" />
        <path fill-rule="evenodd" clip-rule="evenodd"
            d="M27.193 14.918C27.4125 14.918 27.6319 14.918 27.8514 14.918C28.1402 15.2048 28.3158 15.5655 28.3782 16.0001C28.3562 16.1547 28.3343 16.3093 28.3123 16.4639C28.0876 16.7015 27.89 16.9592 27.7197 17.2368C26.6402 17.0091 26.3328 16.3393 26.7979 15.2271C26.999 15.2384 27.1307 15.1354 27.193 14.918Z"
            fill="#C5E91C" />
        <path fill-rule="evenodd" clip-rule="evenodd"
            d="M27.1938 15.2271C28.1352 15.2584 28.3546 15.7479 27.8522 16.6956C26.7866 16.7096 26.5671 16.22 27.1938 15.2271Z"
            fill="#3DD442" />
        <path fill-rule="evenodd" clip-rule="evenodd"
            d="M27.7198 15.6907C27.845 15.9101 27.8889 16.1676 27.8515 16.4637C27.4438 16.5553 27.1366 16.4008 26.9297 15.9999C27.1213 15.5582 27.3847 15.4553 27.7198 15.6907Z"
            fill="#1EC2D1" />
        <path fill-rule="evenodd" clip-rule="evenodd"
            d="M27.7203 15.6909C27.7203 15.897 27.7203 16.1032 27.7203 16.3093C27.5886 16.3093 27.4569 16.3093 27.3252 16.3093C27.3252 16.1032 27.3252 15.897 27.3252 15.6909C27.4569 15.6909 27.5886 15.6909 27.7203 15.6909Z"
            fill="#244CDD" />
        <path fill-rule="evenodd" clip-rule="evenodd"
            d="M17.4485 14.6089C17.5658 14.7032 17.6975 14.7547 17.8435 14.7635C17.705 15.0349 17.4855 15.138 17.1851 15.0727C17.2362 15.4104 17.3679 15.6938 17.5802 15.9229C17.4212 16.1239 17.3334 16.3557 17.3168 16.6185C17.6826 16.5447 17.946 16.6992 18.1069 17.0823C17.9451 17.2031 17.7695 17.2803 17.5802 17.3142C17.746 17.4569 17.9215 17.5858 18.1069 17.7007C17.7402 17.7673 17.389 17.7673 17.0534 17.7007C17.229 17.9067 17.4046 18.113 17.5802 18.319C17.4715 18.456 17.3398 18.5075 17.1851 18.4736C16.9279 18.3586 16.7962 18.1267 16.79 17.778C16.9041 17.33 16.9041 16.8662 16.79 16.3867C16.8323 16.034 16.9201 15.6991 17.0534 15.3818C16.9982 15.2006 16.9105 15.046 16.79 14.9181C16.8339 14.7635 16.9217 14.6604 17.0534 14.6089C17.1887 14.8085 17.3203 14.8085 17.4485 14.6089Z"
            fill="#FDD043" />
        <path fill-rule="evenodd" clip-rule="evenodd"
            d="M22.0578 15.3818C22.2333 15.4334 22.409 15.4849 22.5845 15.5364C22.7179 15.9996 22.5863 16.3602 22.1895 16.6186C22.0606 16.8729 21.885 17.0791 21.6627 17.2369C21.5461 17.1094 21.5022 16.9548 21.531 16.7731C21.6741 16.7546 21.7619 16.6515 21.7944 16.464C21.6565 16.2234 21.5687 15.9657 21.531 15.691C21.796 15.7705 22.0594 15.7961 22.3212 15.7683C22.2051 15.6589 22.1174 15.5299 22.0578 15.3818Z"
            fill="#C4AA28" />
        <path fill-rule="evenodd" clip-rule="evenodd"
            d="M21.268 16.6182C21.1801 16.6182 21.0924 16.6182 21.0046 16.6182C20.8733 16.6228 20.7855 16.5455 20.7412 16.3863C20.9652 16.1413 21.1409 16.2186 21.268 16.6182Z"
            fill="#EDC4BC" />
        <path fill-rule="evenodd" clip-rule="evenodd"
            d="M11.7856 14.9178C11.9404 14.8839 12.072 14.9355 12.1807 15.0724C11.8349 15.4249 11.5715 15.8371 11.3906 16.3091C11.4051 16.4045 11.449 16.4818 11.5222 16.541C11.8707 16.6178 12.2219 16.6436 12.5757 16.6183C12.5823 16.9414 12.4506 17.1474 12.1807 17.2366C11.9612 17.0306 11.7417 17.0306 11.5222 17.2366C11.4345 17.1335 11.3467 17.0306 11.2589 16.9274C11.215 16.9789 11.1711 17.0306 11.1272 17.082C11.3174 17.3237 11.5369 17.5297 11.7856 17.7004C11.9612 17.855 11.9612 18.0096 11.7856 18.1642C11.3923 17.753 10.9533 17.4438 10.4688 17.2366C10.4688 16.9789 10.4688 16.7214 10.4688 16.4637C10.9544 15.9967 11.3933 15.4814 11.7856 14.9178Z"
            fill="#EC070D" />
        <path fill-rule="evenodd" clip-rule="evenodd"
            d="M23.1111 14.7632C23.1111 14.8147 23.1111 14.8662 23.1111 14.9178C22.7569 15.5596 22.7789 16.178 23.177 16.7728C23.2748 16.4413 23.3845 16.4156 23.5062 16.6956C23.4693 16.9112 23.3815 17.0916 23.2428 17.2366C22.8479 17.1078 22.4967 16.9018 22.1893 16.6183C22.5861 16.3599 22.7178 15.9993 22.5844 15.5361C22.5844 15.3815 22.5844 15.227 22.5844 15.0724C22.3738 15.1138 22.1983 15.0622 22.0576 14.9178C22.414 14.9062 22.7652 14.8546 23.1111 14.7632Z"
            fill="#81EAC2" />
        <path fill-rule="evenodd" clip-rule="evenodd"
            d="M24.1649 10.2803C24.6948 10.4301 25.2215 10.4558 25.7451 10.3576C26.1054 10.5681 26.4127 10.8516 26.6669 11.2078C26.9605 11.3743 27.2678 11.4774 27.5888 11.517C27.5715 11.9601 27.7472 12.2178 28.1155 12.2899C28.1301 12.3854 28.174 12.4627 28.2472 12.5218C28.507 12.5984 28.7704 12.6242 29.0373 12.5991C28.4882 12.7471 27.9176 12.7471 27.3254 12.5991C27.3254 12.7537 27.3254 12.9083 27.3254 13.0629C27.5009 13.0629 27.6766 13.0629 27.8521 13.0629C27.7287 13.4243 27.5532 13.7592 27.3254 14.0677C27.3692 14.145 27.4132 14.2223 27.4571 14.2996C27.6031 14.1312 27.7348 14.1312 27.8521 14.2996C27.6526 14.5574 27.4331 14.7635 27.1937 14.918C27.1314 15.1354 26.9997 15.2384 26.7986 15.2271C26.7907 15.1432 26.7469 15.0917 26.6669 15.0725C26.1488 15.4947 26.0171 16.0615 26.2719 16.773C25.9735 16.9171 25.7101 17.1233 25.4818 17.3914C25.8172 17.6935 25.8172 17.9512 25.4818 18.1643C25.248 17.4815 24.8091 17.1723 24.1649 17.2368C24.1574 17.0654 24.1135 16.9108 24.0332 16.773C24.4341 16.3003 24.7413 15.7336 24.955 15.0725C24.9112 14.9695 24.8672 14.8664 24.8233 14.7634C24.6696 15.021 24.5161 15.2787 24.3624 15.5363C24.3095 15.3242 24.2436 15.1181 24.1649 14.918C24.3568 14.1587 24.686 13.4888 25.1525 12.9083C25.1964 13.4236 25.2404 13.9389 25.2842 14.4542C25.7925 13.7767 26.1656 13.0038 26.4036 12.1353C26.168 11.5132 25.7949 11.3071 25.2842 11.517C25.2404 11.2593 25.1964 11.0017 25.1525 10.744C25.1087 10.7956 25.0647 10.8471 25.0209 10.8986C24.7558 10.6284 24.4704 10.4223 24.1649 10.2803Z"
            fill="#16D327" />
        <path fill-rule="evenodd" clip-rule="evenodd"
            d="M14.42 16C14.1858 16.6284 14.098 17.2984 14.1566 18.0097C14.0061 17.4723 13.9841 16.9056 14.0907 16.3092C14.184 16.173 14.2938 16.07 14.42 16Z"
            fill="#F8F499" />
        <path fill-rule="evenodd" clip-rule="evenodd"
            d="M23.111 14.918C23.2767 15.256 23.4084 15.6167 23.5061 16.0001C23.5614 16.2465 23.6491 16.4784 23.7695 16.6957C23.5584 16.9905 23.6022 17.2224 23.9012 17.3914C23.6977 17.5386 23.4782 17.59 23.2427 17.546C23.209 17.9189 23.3407 18.1766 23.6378 18.3189C23.5162 18.7745 23.4285 19.2383 23.3744 19.7102C23.3371 19.8322 23.2713 19.9353 23.1769 20.0194C22.8632 19.79 22.5778 19.5065 22.3209 19.1692C22.1329 19.0797 21.9572 19.1055 21.7942 19.2465C21.9002 18.9817 22.0319 18.7241 22.1892 18.4735C22.3164 18.1804 22.3603 17.8712 22.3209 17.546C22.0596 17.5279 21.8403 17.631 21.6625 17.8552C21.4365 17.693 21.261 17.4869 21.1357 17.2368C21.0391 17.0501 20.9952 16.844 21.004 16.6185C21.0919 16.6185 21.1796 16.6185 21.2674 16.6185C21.3124 16.748 21.4002 16.7996 21.5308 16.773C21.5019 16.9547 21.5458 17.1093 21.6625 17.2368C21.8848 17.079 22.0603 16.8728 22.1892 16.6185C22.4966 16.902 22.8478 17.108 23.2427 17.2368C23.3814 17.0918 23.4692 16.9114 23.5061 16.6957C23.3844 16.4158 23.2747 16.4414 23.1769 16.773C22.7788 16.1782 22.7568 15.5598 23.111 14.918Z"
            fill="#75E3E6" />
        <path fill-rule="evenodd" clip-rule="evenodd"
            d="M24.0332 17.3914C24.0332 17.2883 24.0771 17.2369 24.1649 17.2369C24.8091 17.1724 25.248 17.4816 25.4818 18.1644C25.5251 18.5861 25.4374 18.9469 25.2184 19.2465C25.4236 18.0964 25.0285 17.478 24.0332 17.3914Z"
            fill="#DDEF10" />
        <path fill-rule="evenodd" clip-rule="evenodd"
            d="M23.5058 16C23.6375 16.1031 23.7692 16.2061 23.9009 16.3092C23.8697 16.5088 23.9135 16.6633 24.0326 16.7729C24.1129 16.9107 24.1568 17.0653 24.1643 17.2367C24.0764 17.2367 24.0326 17.2882 24.0326 17.3913C24.0326 17.5459 24.0326 17.7005 24.0326 17.8551C24.3336 17.8698 24.597 17.9729 24.8227 18.1643C24.5284 18.1186 24.265 18.1703 24.0326 18.3188C23.9179 18.7812 23.7862 19.245 23.6375 19.7101C23.5497 19.7101 23.462 19.7101 23.3741 19.7101C23.4283 19.2382 23.516 18.7744 23.6375 18.3188C23.3404 18.1765 23.2087 17.9188 23.2425 17.5459C23.4779 17.59 23.6974 17.5385 23.9009 17.3913C23.602 17.2223 23.5581 16.9905 23.7692 16.6957C23.6488 16.4783 23.5611 16.2464 23.5058 16Z"
            fill="#3BDEC6" />
        <path fill-rule="evenodd" clip-rule="evenodd"
            d="M31.0126 12.7534C30.0547 13.3389 29.6377 14.2665 29.7616 15.536C30.1794 16.2352 30.3111 17.0082 30.1567 17.8549C29.7707 18.7445 29.2659 19.5175 28.6423 20.1737C28.339 20.5022 28.0098 20.8114 27.6546 21.1012C26.6808 20.8349 25.6931 20.7318 24.6916 20.7921C24.6916 20.6375 24.6916 20.4829 24.6916 20.3283C24.3249 20.4186 24.1054 20.264 24.0332 19.8645C24.4306 19.833 24.8257 19.7815 25.2184 19.7099C25.7958 19.8191 26.2567 19.613 26.6011 19.0916C26.6656 19.2915 26.6876 19.4977 26.6669 19.7099C26.8425 19.7099 27.0182 19.7099 27.1937 19.7099C27.1724 19.3966 27.1944 19.0874 27.2595 18.7824C27.3034 18.9885 27.3474 19.1947 27.3912 19.4008C27.5998 19.1904 27.8413 19.0873 28.1155 19.0916C28.3248 18.2308 28.0834 18.0762 27.3912 18.6278C27.2398 18.2794 27.1958 17.9187 27.2595 17.5457C27.5691 17.9388 27.7227 17.8359 27.7204 17.2365C27.8907 16.9589 28.0882 16.7012 28.313 16.4636C28.335 16.309 28.3569 16.1544 28.3789 15.9998C28.3165 15.5652 28.1409 15.2045 27.8521 14.9177C27.9688 14.7204 28.1005 14.7204 28.2472 14.9177C28.3294 15.2661 28.5049 15.5238 28.7739 15.6906C28.9069 15.3002 28.8191 14.9652 28.5106 14.6858C28.6649 14.6312 28.8185 14.6569 28.9715 14.7631C29.1427 14.5764 29.3402 14.4734 29.5641 14.4539C29.7029 13.8707 29.8784 13.3038 30.0908 12.7534C30.398 12.7534 30.7054 12.7534 31.0126 12.7534Z"
            fill="#12BB3B" />
        <path fill-rule="evenodd" clip-rule="evenodd"
            d="M6.78236 15.3818C6.76268 15.5445 6.78463 15.6991 6.84821 15.8456C7.16831 16.082 7.40974 16.3911 7.57249 16.7731C7.75785 16.9913 7.88954 17.2488 7.96755 17.5461C7.92366 17.6492 7.87975 17.7522 7.83586 17.8553C7.5612 17.6198 7.34172 17.6713 7.17743 18.0099C7.59028 18.3139 7.98534 18.6488 8.36261 19.0147C8.31872 19.092 8.27482 19.1693 8.23092 19.2466C8.06813 19.1312 7.89255 19.0798 7.70418 19.092C7.6953 19.3175 7.73919 19.5236 7.83586 19.7103C6.57475 19.3897 5.63098 18.5651 5.00459 17.2369C4.93901 16.7759 4.91707 16.3122 4.93874 15.8456C5.07043 15.8456 5.20212 15.8456 5.3338 15.8456C5.29201 16.3205 5.3359 16.7843 5.46549 17.2369C5.59378 16.8902 5.63769 16.5295 5.59718 16.1548C5.72887 16.1548 5.86055 16.1548 5.99224 16.1548C5.99224 16.3094 5.99224 16.464 5.99224 16.6186C5.95424 17.1054 6.02008 17.5691 6.18977 18.0099C6.39768 18.2108 6.55132 18.1592 6.65068 17.8553C6.73847 17.8553 6.78236 17.8038 6.78236 17.7007C6.88342 17.5968 6.97122 17.468 7.04574 17.3142C6.86635 16.717 6.60298 16.176 6.25562 15.691C6.35591 15.3222 6.5315 15.2191 6.78236 15.3818Z"
            fill="#F8BE36" />
        <path fill-rule="evenodd" clip-rule="evenodd"
            d="M6.51838 16.9277C6.74963 17.0904 6.83742 17.3481 6.78176 17.7007C6.78176 17.8038 6.73787 17.8553 6.65007 17.8553C6.34902 17.6118 6.30513 17.3026 6.51838 16.9277Z"
            fill="#7E6039" />
        <path fill-rule="evenodd" clip-rule="evenodd"
            d="M5.99188 16.6185C6.23941 16.5766 6.41499 16.6797 6.51863 16.9276C6.30537 17.3025 6.34926 17.6117 6.65031 17.8552C6.55095 18.1591 6.39732 18.2107 6.18941 18.0098C6.01972 17.569 5.95387 17.1053 5.99188 16.6185Z"
            fill="#1B150E" />
        <path fill-rule="evenodd" clip-rule="evenodd"
            d="M21.1363 17.2368C21.2615 17.4869 21.437 17.693 21.663 17.8552C21.8408 17.631 22.0602 17.5279 22.3214 17.546C22.3608 17.8713 22.317 18.1804 22.1898 18.4735C22.0324 18.7241 21.9007 18.9817 21.7947 19.2465C21.7069 19.5042 21.6192 19.7617 21.5313 20.0194C21.4501 20.0366 21.3842 20.0881 21.3338 20.174C21.2683 20.5311 21.2465 20.8918 21.2679 21.2561C21.1398 20.8777 21.096 20.4654 21.1363 20.0194C21.0288 19.1321 21.0288 18.2045 21.1363 17.2368Z"
            fill="#D4AC27" />
        <path fill-rule="evenodd" clip-rule="evenodd"
            d="M24.8233 18.1645C24.9989 18.4222 24.9989 18.6797 24.8233 18.9374C24.56 18.9374 24.2966 18.9374 24.0332 18.9374C24.0332 18.7314 24.0332 18.5251 24.0332 18.3191C24.2656 18.1705 24.529 18.1189 24.8233 18.1645Z"
            fill="#258BDA" />
        <path fill-rule="evenodd" clip-rule="evenodd"
            d="M24.165 18.3188C24.3406 18.3188 24.5162 18.3188 24.6918 18.3188C24.6918 18.4734 24.6918 18.628 24.6918 18.7826C24.5162 18.7826 24.3406 18.7826 24.165 18.7826C24.165 18.628 24.165 18.4734 24.165 18.3188Z"
            fill="#141AB5" />
        <path fill-rule="evenodd" clip-rule="evenodd"
            d="M13.4976 15.6907C13.5797 15.7552 13.6236 15.8583 13.6292 15.9999C13.4962 16.4147 13.3646 16.8268 13.2342 17.2366C13.126 17.7222 13.0602 18.2376 13.0367 18.7825C12.7355 19.0445 12.494 19.3537 12.3124 19.71C12.1093 19.8339 11.8899 19.8854 11.6539 19.8646C11.5337 18.861 11.1386 18.0366 10.4688 17.3912C10.4688 17.3397 10.4688 17.2881 10.4688 17.2366C10.9533 17.4438 11.3923 17.7529 11.7856 18.1642C11.9612 18.0096 11.9612 17.855 11.7856 17.7004C11.5369 17.5297 11.3174 17.3236 11.1272 17.082C11.1711 17.0305 11.215 16.9789 11.2589 16.9274C11.3467 17.0305 11.4345 17.1335 11.5222 17.2366C11.7417 17.0305 11.9612 17.0305 12.1807 17.2366C12.4506 17.1474 12.5823 16.9414 12.5757 16.6183C12.2219 16.6436 11.8707 16.6178 11.5222 16.541C11.449 16.4818 11.4051 16.4045 11.3906 16.3091C11.7412 16.0358 12.1362 15.9327 12.5757 15.9999C12.5469 15.8183 12.5908 15.6637 12.7074 15.5361C12.7952 15.7938 12.883 16.0514 12.9708 16.3091C13.1245 16.065 13.3 15.8589 13.4976 15.6907Z"
            fill="#A5140D" />
        <path fill-rule="evenodd" clip-rule="evenodd"
            d="M10.4695 17.855C10.4695 18.1642 10.4695 18.4733 10.4695 18.7825C10.2819 19.0192 10.1942 18.9677 10.2062 18.6279C10.2451 18.3337 10.3329 18.076 10.4695 17.855Z"
            fill="#331108" />
        <path fill-rule="evenodd" clip-rule="evenodd"
            d="M26.798 15.2269C26.3329 16.339 26.6403 17.0088 27.7198 17.2365C27.7221 17.8359 27.5685 17.9388 27.2589 17.5457C27.1952 17.9187 27.2392 18.2794 27.3906 18.6278C28.0828 18.0762 28.3241 18.2308 28.1149 19.0916C27.8407 19.0873 27.5992 19.1904 27.3906 19.4008C27.3468 19.1947 27.3028 18.9885 27.2589 18.7824C27.1937 19.0874 27.1717 19.3966 27.1931 19.7099C27.0175 19.7099 26.8419 19.7099 26.6663 19.7099C26.687 19.4977 26.665 19.2915 26.6005 19.0916C26.2561 19.613 25.7952 19.8191 25.2178 19.7099C25.2178 19.5554 25.2178 19.4008 25.2178 19.2462C25.4368 18.9466 25.5245 18.5858 25.4811 18.1641C25.8166 17.9509 25.8166 17.6932 25.4811 17.3911C25.7095 17.123 25.9729 16.9168 26.2713 16.7727C26.0165 16.0612 26.1481 15.4944 26.6663 15.0723C26.7463 15.0914 26.7901 15.1429 26.798 15.2269Z"
            fill="#14C530" />
        <path fill-rule="evenodd" clip-rule="evenodd"
            d="M13.2343 17.2368C13.1963 17.7943 13.2401 18.3353 13.366 18.86C13.275 19.025 13.2092 19.2054 13.1685 19.4011C13.0347 19.5764 12.9469 19.5249 12.9051 19.2465C12.6925 19.3834 12.4949 19.538 12.3125 19.7102C12.4941 19.3539 12.7356 19.0447 13.0368 18.7827C13.0603 18.2378 13.1262 17.7224 13.2343 17.2368Z"
            fill="#EEC6C4" />
        <path fill-rule="evenodd" clip-rule="evenodd"
            d="M24.0328 18.3188C24.0328 18.5249 24.0328 18.7311 24.0328 18.9372C24.2962 18.9372 24.5596 18.9372 24.823 18.9372C24.5926 19.1668 24.3293 19.3214 24.0328 19.401C23.9766 20.0237 23.8011 20.5904 23.5061 21.1015C23.4204 21.0101 23.3325 20.9071 23.2427 20.7923C22.9954 20.9718 22.8637 20.8686 22.8477 20.4831C22.8915 20.38 22.9355 20.277 22.9793 20.1739C23.2448 20.3604 23.5082 20.3604 23.7695 20.1739C23.6869 20.0322 23.6429 19.8776 23.6378 19.7102C23.7865 19.245 23.9181 18.7812 24.0328 18.3188Z"
            fill="#2DCDCE" />
        <path fill-rule="evenodd" clip-rule="evenodd"
            d="M24.0332 17.3911C25.0285 17.4777 25.4236 18.096 25.2184 19.2462C24.8568 19.4975 24.4617 19.6007 24.0332 19.5554C24.0332 19.5039 24.0332 19.4523 24.0332 19.4008C24.3296 19.3212 24.593 19.1666 24.8233 18.937C24.9989 18.6793 24.9989 18.4218 24.8233 18.1641C24.5976 17.9727 24.3342 17.8696 24.0332 17.8549C24.0332 17.7003 24.0332 17.5457 24.0332 17.3911Z"
            fill="#3AD230" />
        <path fill-rule="evenodd" clip-rule="evenodd"
            d="M10.4688 17.3911C11.1386 18.0365 11.5337 18.8609 11.6539 19.8645C11.6539 19.9677 11.61 20.0191 11.5222 20.0191C11.3228 19.8367 11.1033 19.6821 10.8638 19.5554C10.7618 19.2623 10.6301 19.0046 10.4688 18.7824C10.4688 18.4732 10.4688 18.1641 10.4688 17.8549C10.4688 17.7003 10.4688 17.5457 10.4688 17.3911Z"
            fill="#B4E3E8" />
        <path fill-rule="evenodd" clip-rule="evenodd"
            d="M25.2184 19.2466C25.2184 19.4012 25.2184 19.5558 25.2184 19.7104C24.8257 19.7819 24.4306 19.8334 24.0332 19.8649C24.0332 19.7618 24.0332 19.6589 24.0332 19.5558C24.4617 19.6011 24.8568 19.4979 25.2184 19.2466Z"
            fill="#D9F11E" />
        <path fill-rule="evenodd" clip-rule="evenodd"
            d="M10.2058 18.6279C10.1938 18.9677 10.2816 19.0192 10.4691 18.7825C10.6305 19.0047 10.7622 19.2624 10.8642 19.5555C11.1037 19.6822 11.3232 19.8368 11.5226 20.0192C11.7284 20.2179 11.9039 20.4498 12.0494 20.7149C11.9513 21.098 11.8636 21.4844 11.786 21.8743C11.9234 22.2385 12.0551 22.5993 12.1811 22.9564C12.0494 23.0595 11.9177 23.1625 11.786 23.2656C10.9911 22.0587 10.5083 20.7191 10.3375 19.2463C10.253 19.4771 10.1213 19.6317 9.9424 19.7101C9.89902 19.2883 9.9868 18.9275 10.2058 18.6279Z"
            fill="#E3AA35" />
        <path fill-rule="evenodd" clip-rule="evenodd"
            d="M24.0326 19.4009C24.0326 19.4524 24.0326 19.504 24.0326 19.5555C24.0326 19.6586 24.0326 19.7615 24.0326 19.8646C24.1048 20.2641 24.3243 20.4187 24.691 20.3284C24.691 20.483 24.691 20.6376 24.691 20.7922C25.6925 20.7319 26.6802 20.835 27.654 21.1014C28.0092 20.8115 28.3384 20.5023 28.6417 20.1738C28.5146 20.8124 28.1854 21.2246 27.654 21.4105C26.8734 21.1813 26.0832 21.0267 25.2836 20.9468C24.708 20.944 24.1593 21.0471 23.6375 21.256C23.5497 21.256 23.5059 21.2045 23.5059 21.1014C23.8008 20.5903 23.9764 20.0236 24.0326 19.4009Z"
            fill="#2FA257" />
        <path fill-rule="evenodd" clip-rule="evenodd"
            d="M17.8438 14.7632C18.0123 14.9901 18.2318 15.0932 18.5023 15.0724C18.3616 15.2168 18.1861 15.2684 17.9755 15.227C18.0535 15.6331 18.0973 16.0453 18.1072 16.4637C18.4248 16.5032 18.6444 16.3487 18.7656 15.9999C18.8701 16.4059 19.0896 16.6894 19.4241 16.8501C19.3362 16.876 19.2485 16.9016 19.1607 16.9274C18.7804 16.4695 18.6049 16.5727 18.634 17.2366C18.9412 17.2366 19.2485 17.2366 19.5558 17.2366C19.5273 17.5738 19.637 17.8313 19.885 18.0096C19.9507 18.5741 19.9726 19.1408 19.9508 19.71C20.1455 19.6695 20.321 19.721 20.4776 19.8646C20.6646 20.5747 20.884 20.6263 21.136 20.0192C21.0957 20.4652 21.1396 20.8775 21.2677 21.2559C20.8604 22.1929 20.5093 23.1719 20.2142 24.1931C19.9508 24.1931 19.6875 24.1931 19.4241 24.1931C19.0558 24.5158 18.7265 24.4127 18.4364 23.884C18.1928 22.9275 18.0393 21.9485 17.9755 20.9468C17.5329 20.6874 17.3134 20.2751 17.3171 19.71C17.5614 19.7453 17.6711 19.6422 17.6463 19.4009C17.4327 19.3083 17.2352 19.2052 17.0537 19.0917C17.1691 19.1119 17.2569 19.0605 17.3171 18.9371C17.2345 18.7953 17.1905 18.6407 17.1854 18.4733C17.3401 18.5072 17.4718 18.4557 17.5805 18.3187C17.4049 18.1127 17.2293 17.9064 17.0537 17.7004C17.3893 17.767 17.7405 17.767 18.1072 17.7004C17.9218 17.5855 17.7463 17.4566 17.5805 17.3139C17.7698 17.2801 17.9454 17.2028 18.1072 17.082C17.9463 16.699 17.6829 16.5444 17.3171 16.6183C17.3337 16.3555 17.4215 16.1236 17.5805 15.9226C17.3682 15.6935 17.2365 15.4101 17.1854 15.0724C17.4858 15.1377 17.7053 15.0346 17.8438 14.7632Z"
            fill="#FAAE42" />
        <path fill-rule="evenodd" clip-rule="evenodd"
            d="M23.3747 19.7104C23.4626 19.7104 23.5503 19.7104 23.6381 19.7104C23.6432 19.8778 23.6872 20.0324 23.7698 20.1741C23.5085 20.3606 23.2451 20.3606 22.9797 20.1741C22.9358 20.2772 22.8918 20.3802 22.848 20.4833C22.864 20.8689 22.9957 20.972 23.243 20.7925C23.3328 20.9073 23.4207 21.0103 23.5064 21.1017C23.5064 21.2048 23.5503 21.2563 23.6381 21.2563C23.5942 21.3594 23.5503 21.4623 23.5064 21.5654C23.008 21.4433 22.5691 21.1856 22.1895 20.7925C22.2945 20.5402 22.4262 20.3083 22.5846 20.0968C22.4767 19.8929 22.3451 19.7127 22.1895 19.5558C21.8914 19.7162 21.8474 19.9481 22.0579 20.2514C21.9882 20.4924 21.9004 20.7243 21.7945 20.9471C21.6201 21.1306 21.4884 21.0791 21.3994 20.7925C21.4999 20.604 21.6316 20.4495 21.7945 20.3287C21.7477 20.1707 21.6599 20.0676 21.5311 20.0195C21.6189 19.7618 21.7066 19.5043 21.7945 19.2466C21.9575 19.1056 22.1332 19.0798 22.3212 19.1693C22.5781 19.5066 22.8635 19.7901 23.1772 20.0195C23.2716 19.9354 23.3375 19.8323 23.3747 19.7104Z"
            fill="#66D5F7" />
        <path fill-rule="evenodd" clip-rule="evenodd"
            d="M11.786 23.2659C11.8148 23.4475 11.771 23.6021 11.6543 23.7297C11.3356 23.2047 11.0283 22.6894 10.7325 22.1838C10.3225 21.4336 10.0591 20.6091 9.94238 19.7104C10.1213 19.632 10.253 19.4774 10.3374 19.2466C10.5082 20.7194 10.9911 22.059 11.786 23.2659Z"
            fill="#96B424" />
        <path fill-rule="evenodd" clip-rule="evenodd"
            d="M21.2674 21.2559C21.4704 21.3797 21.6898 21.4312 21.9258 21.4104C21.7609 21.8221 21.6292 22.2344 21.5307 22.6472C21.55 22.2697 21.4403 22.1665 21.2015 22.338C20.8652 22.8319 20.6677 23.3988 20.6089 24.0385C20.4629 24.0473 20.3312 24.0988 20.2139 24.1931C20.509 23.1718 20.8601 22.1928 21.2674 21.2559Z"
            fill="#EAE7E7" />
        <path fill-rule="evenodd" clip-rule="evenodd"
            d="M21.9263 21.4108C22.0576 21.4062 22.1454 21.4835 22.1897 21.6427C22.0493 22.121 21.9616 22.6105 21.9263 23.1113C21.7946 23.1113 21.6629 23.1113 21.5312 23.1113C21.5312 22.9567 21.5312 22.8021 21.5312 22.6476C21.6298 22.2348 21.7614 21.8225 21.9263 21.4108Z"
            fill="#E3AE45" />
        <path fill-rule="evenodd" clip-rule="evenodd"
            d="M23.5058 21.5653C23.1832 22.3837 22.8758 23.1052 22.584 23.7296C22.4523 23.7296 22.3206 23.7296 22.1889 23.7296C22.1889 23.9356 22.1889 24.1419 22.1889 24.3479C21.7932 24.0698 21.3543 23.9667 20.8721 24.0388C21.0589 23.8917 21.2783 23.8403 21.5305 23.8842C21.5305 23.7296 21.5305 23.575 21.5305 23.4204C21.7516 23.4536 21.8833 23.3505 21.9256 23.1112C21.9609 22.6104 22.0486 22.1209 22.1889 21.6426C22.1447 21.4834 22.0569 21.4061 21.9256 21.4107C21.6896 21.4315 21.4702 21.38 21.2671 21.2561C21.2457 20.8918 21.2675 20.5311 21.333 20.174C21.3834 20.0881 21.4493 20.0366 21.5305 20.0194C21.6593 20.0675 21.7471 20.1706 21.7939 20.3286C21.631 20.4493 21.4993 20.6039 21.3988 20.7924C21.4878 21.079 21.6195 21.1305 21.7939 20.947C21.8998 20.7242 21.9876 20.4923 22.0573 20.2513C21.8468 19.948 21.8908 19.7161 22.1889 19.5557C22.3445 19.7126 22.4762 19.8928 22.584 20.0967C22.4256 20.3082 22.2939 20.5401 22.1889 20.7924C22.5685 21.1855 23.0074 21.4432 23.5058 21.5653Z"
            fill="#94E4ED" />
        <path fill-rule="evenodd" clip-rule="evenodd"
            d="M21.5312 22.6473C21.5312 22.8019 21.5312 22.9565 21.5312 23.1111C21.6629 23.1111 21.7946 23.1111 21.9262 23.1111C21.884 23.3504 21.7523 23.4535 21.5312 23.4202C21.5312 23.5748 21.5312 23.7294 21.5312 23.884C21.279 23.8401 21.0596 23.8916 20.8727 24.0386C20.7849 24.0386 20.6972 24.0386 20.6094 24.0386C20.6681 23.3989 20.8656 22.832 21.202 22.3381C21.4407 22.1667 21.5504 22.2698 21.5312 22.6473Z"
            fill="#CCF4EF" />
        <path fill-rule="evenodd" clip-rule="evenodd"
            d="M25.8762 24.6572C25.7445 24.6572 25.6128 24.6572 25.4811 24.6572C25.5095 24.9168 25.4216 25.0714 25.2178 25.121C25.4808 24.2717 25.832 23.4729 26.2713 22.7249C26.4207 22.6091 26.5524 22.6347 26.6663 22.8022C26.3994 23.4287 26.136 24.0471 25.8762 24.6572Z"
            fill="#3E97CF" />
        <path fill-rule="evenodd" clip-rule="evenodd"
            d="M8.62549 22.6472C9.22635 22.9402 9.70921 23.404 10.074 24.0385C9.87193 24.2377 9.65245 24.2377 9.41561 24.0385C8.67202 23.0334 7.79411 22.853 6.78186 23.4975C5.82736 24.6385 5.73957 25.8494 6.51849 27.1303C6.43069 27.2334 6.34291 27.3364 6.25512 27.4395C5.94003 27.3077 5.76445 27.0501 5.72837 26.6666C5.73616 26.1734 5.78007 25.6838 5.86005 25.198C5.84579 24.9381 5.75801 24.7577 5.59668 24.6569C6.10582 22.9915 7.11542 22.3217 8.62549 22.6472Z"
            fill="#3A9CBC" />
        <path fill-rule="evenodd" clip-rule="evenodd"
            d="M12.8399 27.749C12.2561 28.071 11.8611 27.8648 11.6547 27.1307C11.6328 26.0473 11.6547 24.9652 11.7205 23.8843C11.9424 24.1188 12.14 24.3765 12.3131 24.6572C12.4495 25.6403 12.4715 26.6193 12.379 27.5944C12.5121 27.7238 12.6658 27.7753 12.8399 27.749Z"
            fill="#FBF8F6" />
        <path fill-rule="evenodd" clip-rule="evenodd"
            d="M20.609 24.0388C20.6968 24.0388 20.7846 24.0388 20.8724 24.0388C21.3546 23.9668 21.7935 24.0699 22.1893 24.348C23.0994 25.1802 23.2969 26.2108 22.7819 27.4398C21.8997 28.7608 20.934 28.8639 19.8847 27.749C19.8322 27.7842 19.8103 27.8358 19.8189 27.9036C19.6872 27.9036 19.5555 27.9036 19.4238 27.9036C19.4238 26.8214 19.4238 25.7393 19.4238 24.6572C19.4238 24.5026 19.4238 24.348 19.4238 24.1934C19.6872 24.1934 19.9506 24.1934 20.214 24.1934C20.3313 24.0991 20.463 24.0476 20.609 24.0388Z"
            fill="#3FA3D3" />
        <path fill-rule="evenodd" clip-rule="evenodd"
            d="M20.7404 24.5024C22.2362 24.5 22.785 25.3759 22.3865 27.1305C21.4235 28.2568 20.5895 28.1537 19.8844 26.8213C19.6059 25.7259 19.8912 24.9529 20.7404 24.5024Z"
            fill="#F2F8F6" />
        <path fill-rule="evenodd" clip-rule="evenodd"
            d="M11.1273 24.0388C11.2536 24.1088 11.3633 24.2118 11.4566 24.3479C11.4793 25.3035 11.5451 26.231 11.6541 27.1306C11.8605 27.8647 12.2555 28.0709 12.8393 27.7489C13.188 27.7121 13.4295 27.5059 13.5636 27.1306C13.6294 26.1013 13.6513 25.0707 13.6294 24.0388C13.7994 24.0021 13.9311 24.0536 14.0245 24.1934C13.8506 24.646 13.7629 25.1612 13.7611 25.7393C13.7629 26.3173 13.8506 26.8325 14.0245 27.2851C14.0245 27.5943 14.0245 27.9035 14.0245 28.2127C13.8388 28.418 13.6852 28.3665 13.5636 28.0581C13.3007 28.2991 12.9935 28.4022 12.6417 28.3673C11.9368 28.4897 11.454 28.1805 11.1932 27.4397C11.1274 26.3072 11.1054 25.1736 11.1273 24.0388Z"
            fill="#35A8DA" />
        <path fill-rule="evenodd" clip-rule="evenodd"
            d="M5.59719 24.6572C5.75852 24.758 5.8463 24.9384 5.86056 25.1983C5.78057 25.6842 5.73667 26.1737 5.72887 26.6669C5.52695 26.337 5.43915 25.9505 5.4655 25.5075C5.46624 25.1932 5.51013 24.9098 5.59719 24.6572Z"
            fill="#4594D0" />
        <path fill-rule="evenodd" clip-rule="evenodd"
            d="M10.7324 22.1834C11.0282 22.689 11.3354 23.2043 11.6542 23.7293C11.7708 23.6017 11.8147 23.4471 11.7859 23.2655C11.9176 23.1624 12.0492 23.0594 12.1809 22.9563C12.2622 22.9735 12.3281 23.025 12.3785 23.1109C12.4224 22.9048 12.4663 22.6986 12.5102 22.4926C12.8197 22.8857 12.9734 22.7827 12.9711 22.1834C13.2065 22.1393 13.426 22.1908 13.6295 22.338C13.5215 22.587 13.3458 22.6901 13.1027 22.6471C13.061 23.122 13.1048 23.5858 13.2344 24.0385C13.5202 23.7933 13.8276 23.5871 14.1562 23.4201C14.2001 23.6262 14.2441 23.8324 14.2879 24.0385C14.2151 25.4548 14.1273 26.8461 14.0246 28.2124C14.0246 27.9032 14.0246 27.594 14.0246 27.2848C14.0246 26.2542 14.0246 25.2237 14.0246 24.193C13.9312 24.0533 13.7995 24.0018 13.6295 24.0385C13.6514 25.0703 13.6295 26.101 13.5637 27.1302C13.4296 27.5056 13.1881 27.7118 12.8394 27.7486C12.6653 27.7749 12.5116 27.7234 12.3785 27.594C12.471 26.6189 12.449 25.6398 12.3126 24.6568C12.1395 24.3761 11.9419 24.1184 11.72 23.8839C11.6542 24.9648 11.6323 26.0469 11.6542 27.1302C11.5452 26.2307 11.4794 25.3031 11.4567 24.3476C11.3634 24.2114 11.2536 24.1085 11.1274 24.0385C11.1585 23.617 11.0488 23.2564 10.7982 22.9563C10.6403 23.455 10.5745 23.9703 10.6007 24.5022C10.1324 24.537 10.0885 24.4082 10.469 24.1157C10.3799 23.8556 10.2482 23.8298 10.0739 24.0385C9.7091 23.4039 9.22624 22.9401 8.62538 22.6471C8.52929 22.4083 8.35371 22.2795 8.09863 22.2607C8.30201 22.0772 8.52149 22.0257 8.75707 22.1061C9.30518 22.519 9.83193 22.9571 10.3373 23.4201C10.4851 23.1814 10.4412 22.9753 10.2056 22.8017C10.5045 22.7237 10.6801 22.5176 10.7324 22.1834Z"
            fill="#EAF7F7" />
        <path fill-rule="evenodd" clip-rule="evenodd"
            d="M25.2176 25.1209C25.4215 25.0713 25.5093 24.9167 25.481 24.6571C25.6127 24.6571 25.7444 24.6571 25.8761 24.6571C25.2749 25.7875 25.0554 27.0242 25.2176 28.3673C25.0421 28.3673 24.8664 28.3673 24.6909 28.3673C24.8838 26.9918 24.6423 25.755 23.9666 24.6571C23.7331 24.057 23.5356 23.4387 23.374 22.8021C23.5481 22.7758 23.7018 22.8273 23.8349 22.9567C24.2316 23.6817 24.5608 24.4546 24.8226 25.2755C24.8664 25.327 24.9104 25.3786 24.9543 25.4301C25.0441 25.3152 25.1319 25.2123 25.2176 25.1209Z"
            fill="#3BA4C8" />
        <path fill-rule="evenodd" clip-rule="evenodd"
            d="M14.0251 24.1934C14.0251 25.224 14.0251 26.2545 14.0251 27.2851C13.8513 26.8325 13.7636 26.3173 13.7617 25.7393C13.7636 25.1612 13.8513 24.646 14.0251 24.1934Z"
            fill="#2D92D8" />
        <path fill-rule="evenodd" clip-rule="evenodd"
            d="M16.1317 24.0388C17.2754 23.7539 18.0875 24.2177 18.5679 25.4301C18.7778 27.7088 17.9218 28.662 16 28.29C15.8491 28.1903 15.7174 28.0616 15.6049 27.9036C15.4747 28.4612 15.4307 29.0281 15.4732 29.6041C15.2977 29.6041 15.122 29.6041 14.9465 29.6041C14.9109 27.7947 14.9549 25.9911 15.0782 24.1934C15.2945 24.1903 15.4701 24.2934 15.6049 24.5026C15.8368 24.4199 16.0124 24.2653 16.1317 24.0388Z"
            fill="#40A4D5" />
        <path fill-rule="evenodd" clip-rule="evenodd"
            d="M16.3946 24.5024C18.076 24.6345 18.5369 25.6135 17.7773 27.4396C16.833 28.1913 16.0867 27.9852 15.5387 26.8213C15.2691 25.7324 15.5543 24.9594 16.3946 24.5024Z"
            fill="#F2F6F6" />
        <path fill-rule="evenodd" clip-rule="evenodd"
            d="M19.4241 24.6572C19.4241 25.7394 19.4241 26.8215 19.4241 27.9036C19.5558 27.9036 19.6875 27.9036 19.8192 27.9036C19.8192 28.4705 19.8192 29.0372 19.8192 29.6041C19.6436 29.6041 19.468 29.6041 19.2924 29.6041C19.2492 27.9274 19.2932 26.2784 19.4241 24.6572Z"
            fill="#77C4E5" />
        <path fill-rule="evenodd" clip-rule="evenodd"
            d="M6.25488 27.4395C6.34268 27.3364 6.43046 27.2335 6.51826 27.1304C6.80843 27.5473 7.18155 27.8048 7.6376 27.9033C8.61524 27.9103 9.29562 27.3949 9.67875 26.3574C8.89347 26.2034 8.10335 26.152 7.30838 26.2028C7.30838 25.9968 7.30838 25.7905 7.30838 25.5845C8.31799 25.5845 9.32758 25.5845 10.3372 25.5845C9.97035 27.788 8.82905 28.6897 6.91332 28.2898C6.61494 28.0693 6.39547 27.7858 6.25488 27.4395Z"
            fill="#3FACE2" />
    </g>
    <defs>
        <clipPath id="clip0_5084_583">
            <rect width="32" height="32" fill="white" />
        </clipPath>
    </defs>
</svg>