<svg width="32" height="32" viewBox="0 0 32 32" fill="none" xmlns="http://www.w3.org/2000/svg">
    <g clip-path="url(#clip0_5258_210)">
        <path fill-rule="evenodd" clip-rule="evenodd"
            d="M-0.0800781 -0.0800781C10.5866 -0.0800781 21.2532 -0.0800781 31.9199 -0.0800781C31.9199 10.5866 31.9199 21.2532 31.9199 31.9199C21.2532 31.9199 10.5866 31.9199 -0.0800781 31.9199C-0.0800781 21.2532 -0.0800781 10.5866 -0.0800781 -0.0800781Z"
            fill="#FEFEFE" />
        <path fill-rule="evenodd" clip-rule="evenodd"
            d="M14.32 5.35961C17.8144 5.30669 21.281 5.36004 24.72 5.51961C21.9461 5.49295 19.1728 5.51962 16.4 5.59961C17.1176 5.80348 17.8643 5.91015 18.64 5.91961C17.5191 6.01666 16.3991 6.12332 15.28 6.23961C16.1411 6.28877 16.9944 6.39545 17.84 6.55961C16.9618 6.59193 16.1085 6.75193 15.28 7.03961C16.2386 7.11953 17.1986 7.1462 18.16 7.11961C18.356 7.43146 18.2493 7.64481 17.84 7.75961C18.628 8.46658 19.3215 9.23993 19.92 10.0796C17.8407 10.1596 15.7607 10.1863 13.68 10.1596C13.5367 9.74853 13.2701 9.42853 12.88 9.19961C12.6946 8.62009 12.668 8.03341 12.8 7.43961C13.022 7.60818 13.262 7.63485 13.52 7.51961C12.4126 7.32458 11.2926 7.21793 10.16 7.19961C9.94669 7.03961 9.73335 6.87961 9.52002 6.71961C11.12 6.66628 12.72 6.61293 14.32 6.55961C13.7466 6.38786 13.16 6.28119 12.56 6.23961C13.3314 6.03498 14.1314 5.92833 14.96 5.91961C13.3636 5.76138 11.7636 5.68138 10.16 5.67961C10.1839 5.84793 10.1573 6.00793 10.08 6.15961C9.91821 6.02575 9.73156 5.97241 9.52002 5.99961C9.52002 5.83961 9.52002 5.67961 9.52002 5.51961C11.1489 5.57199 12.7489 5.51865 14.32 5.35961Z"
            fill="#3361E2" />
        <path fill-rule="evenodd" clip-rule="evenodd"
            d="M25.68 15.7603C25.5489 16.2091 25.4689 16.6891 25.44 17.2003C24.8076 16.831 24.3809 16.2976 24.16 15.6003C23.8203 15.1823 23.447 14.8089 23.04 14.4803C22.9867 13.8403 22.9332 13.2003 22.88 12.5603C22.8 14.7997 22.7732 17.0397 22.8 19.2803C22.8209 19.4205 22.7676 19.5272 22.64 19.6003C22.3846 17.9517 22.1446 18.0051 21.92 19.7603C21.84 16.9875 21.8132 14.2141 21.84 11.4403C22 11.4403 22.16 11.4403 22.32 11.4403C22.1155 13.5704 22.1155 15.7038 22.32 17.8403C22.4532 15.9225 22.5332 14.0025 22.56 12.0803C22.6667 11.867 22.7732 11.867 22.88 12.0803C22.803 11.6258 22.6163 11.1991 22.32 10.8003C22.4064 10.6006 22.5131 10.4139 22.64 10.2403C22.4883 10.163 22.3283 10.1364 22.16 10.1603C22.16 10.3203 22.16 10.4803 22.16 10.6403C21.774 10.6813 21.5073 10.5213 21.36 10.1603C21.2334 10.2508 21.2334 10.3841 21.36 10.5603C21.3062 10.7251 21.1995 10.8051 21.04 10.8003C20.9913 10.6963 20.938 10.5897 20.88 10.4803C17.5745 10.347 14.2679 10.267 10.96 10.2403C11.8651 10.1604 12.7717 10.1337 13.68 10.1603C15.7606 10.187 17.8406 10.1603 19.92 10.0803C19.3214 9.24061 18.628 8.46727 17.84 7.76029C18.2492 7.64549 18.356 7.43215 18.16 7.12029C20.3801 6.89125 22.5668 7.02458 24.72 7.52029C23.2812 7.48713 21.8412 7.48713 20.4 7.52029C21.1824 7.63644 21.7691 8.03644 22.16 8.72029C22.1265 8.81405 22.0731 8.89405 22 8.96029C23.1436 10.133 24.2102 11.3597 25.2 12.6403C25.0787 12.8585 25.1587 13.0452 25.44 13.2003C25.6152 14.045 25.6952 14.8984 25.68 15.7603Z"
            fill="#2D5BE6" />
        <path fill-rule="evenodd" clip-rule="evenodd"
            d="M14.3201 5.35959C12.749 5.51863 11.149 5.57198 9.52008 5.51959C9.52008 5.67959 9.52008 5.83959 9.52008 5.99959C9.73161 5.97239 9.91827 6.02574 10.0801 6.15959C10.1573 6.00791 10.184 5.84791 10.1601 5.67959C11.7637 5.68137 13.3637 5.76137 14.9601 5.91959C14.1315 5.92831 13.3315 6.03497 12.5601 6.23959C13.16 6.28118 13.7467 6.38785 14.3201 6.55959C12.7201 6.61292 11.1201 6.66627 9.52008 6.71959C9.73341 6.87959 9.94675 7.03959 10.1601 7.19959C11.2927 7.21791 12.4127 7.32457 13.5201 7.51959C13.2621 7.63484 13.0221 7.60817 12.8001 7.43959C12.668 8.0334 12.6947 8.62007 12.8801 9.19959C13.2701 9.42852 13.5368 9.74852 13.6801 10.1596C12.7719 10.133 11.8652 10.1597 10.9601 10.2396C14.268 10.2663 17.5746 10.3463 20.8801 10.4796C20.9382 10.589 20.9914 10.6956 21.0401 10.7996C20.8126 10.7662 20.5993 10.6862 20.4001 10.5596C16.9338 10.4796 13.4672 10.4529 10.0001 10.4796C9.98237 10.3808 9.92904 10.3008 9.84008 10.2396C10.0534 10.1863 10.2668 10.1329 10.4801 10.0796C9.62073 9.1671 8.82073 8.2071 8.08008 7.19959C8.43686 6.76435 8.75686 6.31102 9.04008 5.83959C9.11253 5.68625 9.2192 5.55292 9.36008 5.43959C11.0126 5.35963 12.6659 5.33295 14.3201 5.35959Z"
            fill="#3A67DD" />
        <path fill-rule="evenodd" clip-rule="evenodd"
            d="M24.7198 5.51976C25.4275 5.6403 25.9607 6.01363 26.3198 6.63976C26.1926 7.38365 26.166 8.1303 26.2398 8.87976C26.2559 8.36782 26.3627 7.88782 26.5598 7.43976C26.6665 10.0531 26.6665 12.6664 26.5598 15.2798C26.394 13.2031 26.2873 11.1231 26.2398 9.03976C26.1865 9.14643 26.1331 9.25309 26.0798 9.35976C26.0265 12.1864 25.9731 15.0131 25.9198 17.8398C25.8827 17.6418 25.8027 17.4818 25.6798 17.3598C25.6798 16.8265 25.6798 16.293 25.6798 15.7598C25.695 14.8978 25.615 14.0445 25.4398 13.1998C25.1585 13.0446 25.0785 12.858 25.1998 12.6398C24.21 11.3592 23.1435 10.1325 21.9998 8.95976C22.0729 8.89352 22.1263 8.81352 22.1598 8.71976C21.7689 8.0359 21.1822 7.6359 20.3998 7.51976C21.8411 7.48659 23.2811 7.48659 24.7198 7.51976C22.5667 7.02405 20.3799 6.89072 18.1598 7.11976C17.1983 7.14635 16.2383 7.11968 15.2798 7.03976C16.1083 6.75208 16.9615 6.59208 17.8398 6.55976C16.9942 6.3956 16.1409 6.28893 15.2798 6.23976C16.3988 6.12347 17.5188 6.01681 18.6398 5.91976C17.8641 5.9103 17.1174 5.80363 16.3998 5.59976C19.1726 5.51977 21.9459 5.4931 24.7198 5.51976Z"
            fill="#2A56E7" />
        <path fill-rule="evenodd" clip-rule="evenodd"
            d="M9.03979 5.83984C8.75657 6.31127 8.43657 6.7646 8.07979 7.19984C8.82045 8.20735 9.62045 9.16735 10.4798 10.0798C10.2665 10.1332 10.0531 10.1865 9.83979 10.2398C9.92875 10.3011 9.98208 10.3811 9.99979 10.4798C9.83979 10.4798 9.67979 10.4798 9.51979 10.4798C9.38675 13.0657 9.30675 15.679 9.27979 18.3198C9.22646 18.3731 9.17312 18.4266 9.11979 18.4798C9.04139 18.273 9.01472 18.0595 9.03979 17.8398C9.06643 16.1323 9.03976 14.4257 8.95979 12.7198C8.90646 12.7732 8.85312 12.8265 8.79979 12.8798C7.87261 12.649 7.87261 12.3823 8.79979 12.0798C8.87875 11.8184 8.90542 11.5517 8.87979 11.2798C8.71979 11.2798 8.55979 11.2798 8.39979 11.2798C8.39979 11.4932 8.39979 11.7065 8.39979 11.9198C7.47715 11.7983 6.89049 11.265 6.63979 10.3198C6.67328 10.2261 6.72661 10.1461 6.79979 10.0798C6.59133 10.0463 6.378 10.0729 6.15979 10.1598C5.71752 9.97933 5.61085 9.686 5.83979 9.27984C6.17368 9.31471 6.49368 9.28804 6.79979 9.19984C6.67003 9.08522 6.56336 8.95189 6.47979 8.79984C6.78369 8.41757 7.05037 8.01757 7.27979 7.59984C7.81312 6.95984 8.39979 6.37317 9.03979 5.83984Z"
            fill="#406EDF" />
        <path fill-rule="evenodd" clip-rule="evenodd"
            d="M7.27991 7.59961C7.05048 8.01734 6.78381 8.41734 6.47991 8.79961C6.56348 8.95166 6.67015 9.08499 6.79991 9.19961C6.4938 9.2878 6.1738 9.31447 5.83991 9.27961C5.61096 9.68577 5.71764 9.9791 6.15991 10.1596C6.37812 10.0727 6.59144 10.046 6.79991 10.0796C6.72672 10.1458 6.6734 10.2258 6.63991 10.3196C6.89061 11.2647 7.47727 11.7981 8.39991 11.9196C8.39991 11.7063 8.39991 11.4929 8.39991 11.2796C8.55991 11.2796 8.71991 11.2796 8.87991 11.2796C8.90554 11.5515 8.87887 11.8182 8.79991 12.0796C7.87272 12.3821 7.87272 12.6487 8.79991 12.8796C8.85324 12.8263 8.90658 12.7729 8.95991 12.7196C9.03988 14.4254 9.06655 16.1321 9.03991 17.8396C8.87991 17.8396 8.71991 17.8396 8.55991 17.8396C8.51944 18.2119 8.6261 18.5319 8.87991 18.7996C8.74868 19.0574 8.53533 19.1641 8.23991 19.1196C8.26616 19.5495 8.23949 19.9762 8.15991 20.3996C7.84064 19.6446 7.8673 18.8978 8.23991 18.1596C8.18658 18.0529 8.13324 17.9463 8.07991 17.8396C7.961 18.0649 7.82765 18.2782 7.67991 18.4796C7.77284 16.566 7.77284 14.6461 7.67991 12.7196C7.65296 14.0029 7.57296 15.2829 7.43991 16.5596C6.69135 15.7301 5.94469 14.8767 5.19991 13.9996C5.06727 13.2049 4.98727 12.4049 4.95991 11.5996C4.98208 12.8901 4.84876 14.1167 4.55991 15.2796C4.5068 13.6761 4.56015 12.0761 4.71991 10.4796C4.81367 10.5131 4.89367 10.5664 4.95991 10.6396C5.03831 10.4327 5.06498 10.2194 5.03991 9.99961C5.77408 9.20188 6.52074 8.40188 7.27991 7.59961Z"
            fill="#4474DD" />
        <path fill-rule="evenodd" clip-rule="evenodd"
            d="M9.51976 10.4797C9.67976 10.4797 9.83976 10.4797 9.99976 10.4797C13.4668 10.4531 16.9335 10.4797 20.3998 10.5597C20.599 10.6863 20.8122 10.7663 21.0398 10.7997C21.2535 11.0414 21.4402 11.308 21.5998 11.5997C21.6798 14.2658 21.7065 16.9325 21.6798 19.5997C17.9994 19.6264 14.3194 19.5997 10.6398 19.5197C10.3275 19.4612 10.0608 19.3279 9.83976 19.1197C9.77699 18.8511 9.69699 18.5844 9.59976 18.3197C9.51977 15.7069 9.4931 13.0936 9.51976 10.4797Z"
            fill="#F9FBFA" />
        <path fill-rule="evenodd" clip-rule="evenodd"
            d="M19.9202 12.4004C20.0543 12.4551 20.1078 12.5617 20.0802 12.7204C20.0802 14.4804 20.0802 16.2404 20.0802 18.0004C19.3335 18.0004 18.587 18.0004 17.8402 18.0004C16.6966 17.8417 15.5233 17.7884 14.3202 17.8404C14.138 17.4398 14.0313 17.0132 14.0002 16.5604C13.7638 16.6023 13.5504 16.549 13.3602 16.4004C13.2 15.9727 12.96 15.5994 12.6402 15.2804C12.5603 14.3753 12.5337 13.4686 12.5602 12.5604C15.1789 12.4977 17.0455 12.551 18.1602 12.7204C18.1602 14.4271 18.1602 16.1337 18.1602 17.8404C18.3202 17.8404 18.4802 17.8404 18.6402 17.8404C18.7084 16.2937 18.7884 14.7471 18.8802 13.2004C18.9894 19.3759 19.2028 19.3759 19.5202 13.2004C19.5471 14.7498 19.6271 16.2966 19.7602 17.8404C19.9201 16.0302 19.9734 14.2169 19.9202 12.4004Z"
            fill="#3A68DE" />
        <path fill-rule="evenodd" clip-rule="evenodd"
            d="M19.7599 12.2397C19.8666 12.2397 19.9199 12.293 19.9199 12.3997C19.973 14.2161 19.9197 16.0294 19.7599 17.8397C19.6268 16.2958 19.5468 14.7491 19.5199 13.1997C19.2025 19.3752 18.989 19.3752 18.8799 13.1997C18.7881 14.7463 18.7081 16.293 18.6399 17.8397C18.4799 17.8397 18.3199 17.8397 18.1599 17.8397C18.1599 16.133 18.1599 14.4263 18.1599 12.7197C17.0452 12.5503 15.1786 12.4969 12.5599 12.5597C12.473 12.5501 12.4197 12.4967 12.3999 12.3997C14.8509 12.2398 17.3042 12.1864 19.7599 12.2397Z"
            fill="#3564E5" />
        <path fill-rule="evenodd" clip-rule="evenodd"
            d="M19.7598 12.2403C17.3042 12.187 14.8509 12.2404 12.3998 12.4003C12.4196 12.4973 12.473 12.5507 12.5598 12.5603C12.5333 13.4685 12.5599 14.3752 12.6398 15.2803C12.9596 15.5992 13.1996 15.9725 13.3598 16.4003C13.5501 16.5489 13.7634 16.6022 13.9998 16.5603C14.0309 17.0131 14.1376 17.4396 14.3198 17.8403C15.5229 17.7883 16.6962 17.8415 17.8398 18.0003C15.6986 18.0478 13.5653 17.9945 11.4398 17.8403C11.3411 17.8225 11.2611 17.7692 11.1998 17.6803C11.1199 15.8144 11.0932 13.9477 11.1198 12.0803C14.0278 12.0274 16.9077 12.0808 19.7598 12.2403Z"
            fill="#4771DC" />
        <path fill-rule="evenodd" clip-rule="evenodd"
            d="M26.8001 7.59961C26.9861 11.6257 27.0129 15.6791 26.8801 19.7596C26.3943 20.2722 25.8876 20.7522 25.3601 21.1996C24.9989 20.5121 24.4655 20.3254 23.7601 20.6396C23.4965 20.9169 23.2565 21.2102 23.0401 21.5196C23.0713 20.7599 22.9913 20.0134 22.8001 19.2796C22.7733 17.039 22.8001 14.799 22.8801 12.5596C22.9333 13.1996 22.9868 13.8396 23.0401 14.4796C23.4471 14.8082 23.8204 15.1816 24.1601 15.5996C24.381 16.2969 24.8077 16.8303 25.4401 17.1996C25.469 16.6884 25.549 16.2084 25.6801 15.7596C25.6801 16.2929 25.6801 16.8263 25.6801 17.3596C25.7073 17.5711 25.654 17.7578 25.5201 17.9196C25.6469 18.0932 25.7537 18.2799 25.8401 18.4796C25.5169 18.8154 25.4634 19.1889 25.6801 19.5996C25.7333 19.5729 25.7868 19.5463 25.8401 19.5196C25.9436 19.2622 26.0769 19.0222 26.2401 18.7996C26.2708 19.1319 26.3508 19.4519 26.4801 19.7596C26.7644 15.7122 26.8711 11.6589 26.8001 7.59961Z"
            fill="#3A63DF" />
        <path fill-rule="evenodd" clip-rule="evenodd"
            d="M9.51992 10.4805C9.49326 13.0943 9.51994 15.7077 9.59992 18.3205C9.69715 18.5851 9.77715 18.8518 9.83992 19.1205C9.55896 19.2888 9.45229 19.5555 9.51992 19.9205C9.67992 19.9205 9.83992 19.9205 9.99992 19.9205C9.99992 20.0805 9.99992 20.2405 9.99992 20.4005C10.5439 20.7539 11.0773 21.1539 11.5999 21.6005C11.4399 21.6537 11.2799 21.7072 11.1199 21.7605C11.415 22.1353 11.735 22.4821 12.0799 22.8005C11.8666 22.9072 11.6532 23.0137 11.4399 23.1205C12.2034 23.2856 12.9501 23.4721 13.6799 23.6805C12.2409 23.7605 10.8009 23.787 9.35992 23.7605C9.42672 23.6449 9.53339 23.5649 9.67992 23.5205C8.4476 23.4941 7.75427 22.8808 7.59992 21.6805C7.27992 21.6805 6.95992 21.6805 6.63992 21.6805C6.45765 21.2798 6.35098 20.8533 6.31992 20.4005C6.08347 20.4424 5.87013 20.3891 5.67992 20.2405C5.25578 19.0291 5.01578 19.0291 4.95992 20.2405C4.89368 20.3136 4.81368 20.367 4.71992 20.4005C4.56013 18.6971 4.5068 16.9904 4.55992 15.2805C4.84877 14.1176 4.9821 12.8909 4.95992 11.6005C4.98728 12.4057 5.06728 13.2057 5.19992 14.0005C5.9447 14.8776 6.69136 15.7309 7.43992 16.5605C7.57298 15.2838 7.65298 14.0038 7.67992 12.7205C7.77285 14.6469 7.77285 16.5669 7.67992 18.4805C7.82766 18.279 7.96101 18.0657 8.07992 17.8405C8.13325 17.9472 8.18659 18.0537 8.23992 18.1605C7.86731 18.8987 7.84066 19.6454 8.15992 20.4005C8.2395 19.9771 8.26618 19.5504 8.23992 19.1205C8.53534 19.1649 8.74869 19.0582 8.87992 18.8005C8.62611 18.5328 8.51946 18.2128 8.55992 17.8405C8.71992 17.8405 8.87992 17.8405 9.03992 17.8405C9.01485 18.0601 9.04152 18.2736 9.11992 18.4805C9.17325 18.4272 9.22659 18.3737 9.27992 18.3205C9.30688 15.6797 9.38688 13.0663 9.51992 10.4805Z"
            fill="#4879D9" />
        <path fill-rule="evenodd" clip-rule="evenodd"
            d="M26.32 6.63965C26.5613 6.90869 26.7213 7.22869 26.8 7.59965C26.8711 11.6589 26.7643 15.7122 26.48 19.7596C26.3507 19.452 26.2707 19.132 26.24 18.7996C26.0768 19.0222 25.9435 19.2622 25.84 19.5196C25.7867 19.5464 25.7333 19.5729 25.68 19.5996C25.4634 19.1889 25.5168 18.8155 25.84 18.4796C25.7536 18.28 25.6469 18.0932 25.52 17.9196C25.6539 17.7579 25.7072 17.5712 25.68 17.3596C25.8029 17.4817 25.8829 17.6417 25.92 17.8396C25.9733 15.013 26.0267 12.1863 26.08 9.35965C26.1333 9.25298 26.1867 9.14632 26.24 9.03965C26.2875 11.1229 26.3943 13.2029 26.56 15.2796C26.6667 12.6663 26.6667 10.053 26.56 7.43965C26.3629 7.88771 26.2562 8.36771 26.24 8.87965C26.1663 8.13019 26.1928 7.38354 26.32 6.63965Z"
            fill="#2E5AE2" />
        <path fill-rule="evenodd" clip-rule="evenodd"
            d="M20.0799 12.7197C20.2391 14.5044 20.2924 16.3178 20.2399 18.1597C17.3595 18.1864 14.4794 18.1597 11.5999 18.0797C11.511 18.0184 11.4577 17.9384 11.4399 17.8397C13.5654 17.994 15.6987 18.0472 17.8399 17.9997C18.5867 17.9997 19.3332 17.9997 20.0799 17.9997C20.0799 16.2397 20.0799 14.4797 20.0799 12.7197Z"
            fill="#94AFEC" />
        <path fill-rule="evenodd" clip-rule="evenodd"
            d="M5.04024 10C5.06531 10.2197 5.03864 10.4331 4.96024 10.64C4.894 10.5668 4.814 10.5135 4.72024 10.48C4.56048 12.0764 4.50713 13.6764 4.56024 15.28C4.50712 16.9899 4.56045 18.6966 4.72024 20.4C4.814 20.3666 4.894 20.3131 4.96024 20.24C5.01609 19.0286 5.25609 19.0286 5.68024 20.24C5.87045 20.3886 6.08379 20.4419 6.32024 20.4C6.35129 20.8528 6.45797 21.2794 6.64024 21.68C6.96024 21.68 7.28024 21.68 7.60024 21.68C7.75459 22.8803 8.44792 23.4936 9.68024 23.52C9.53371 23.5645 9.42704 23.6445 9.36024 23.76C8.82593 23.8224 8.29261 23.9024 7.76024 24C9.75723 24.1515 11.7306 24.2581 13.6802 24.32C13.0374 24.5104 12.3974 24.537 11.7602 24.4C10.3768 24.5194 8.99009 24.5994 7.60024 24.64C8.90859 24.6674 10.1886 24.7474 11.4402 24.88C9.55195 24.9642 7.68528 24.8574 5.84024 24.56C5.13453 24.0925 4.62785 23.4525 4.32024 22.64C4.21357 18.5867 4.21357 14.5333 4.32024 10.48C4.52357 10.2588 4.76357 10.0988 5.04024 10Z"
            fill="#527FD6" />
        <path fill-rule="evenodd" clip-rule="evenodd"
            d="M18.6402 20.3997C19.1082 21.1085 19.6682 21.7485 20.3202 22.3197C20.3699 22.6486 20.4499 22.9686 20.5602 23.2797C20.6402 23.333 20.7202 23.3864 20.8002 23.4397C21.0272 23.2123 21.2939 23.0523 21.6002 22.9597C22.0851 23.129 22.5384 23.3424 22.9602 23.5997C22.1602 24.5064 21.3069 25.3597 20.4002 26.1597C20.1584 25.9994 19.8917 25.8926 19.6002 25.8397C19.4597 26.4608 19.0864 26.8874 18.4802 27.1197C18.3734 27.0664 18.2669 27.013 18.1602 26.9597C18.42 26.7406 18.5 26.4739 18.4002 26.1597C18.1869 26.2664 18.0269 26.4264 17.9202 26.6397C18.0782 26.2525 18.025 25.8792 17.7602 25.5197C17.7331 26.5371 17.6531 27.5506 17.5202 28.5597C17.4134 27.3614 17.3069 26.1882 17.2002 25.0397C17.2002 24.9864 17.2002 24.933 17.2002 24.8797C17.0227 24.7533 16.8094 24.6733 16.5602 24.6397C16.7098 24.2587 16.763 23.8587 16.7202 23.4397C16.9832 23.4054 17.2232 23.4589 17.4402 23.5997C17.5469 23.493 17.5469 23.3864 17.4402 23.2797C17.1136 23.132 16.7669 23.0787 16.4002 23.1197C16.4384 23.4344 16.3851 23.7278 16.2402 23.9997C16.0723 24.0784 15.9123 24.0518 15.7602 23.9197C15.6535 24.133 15.5468 24.3464 15.4402 24.5597C15.2984 24.4277 15.2451 24.2677 15.2802 24.0797C13.7868 24.0264 13.7868 23.973 15.2802 23.9197C15.2802 23.7597 15.2802 23.5997 15.2802 23.4397C15.4999 23.4648 15.7132 23.4381 15.9202 23.3597C15.847 23.2934 15.7936 23.2134 15.7602 23.1197C16.0269 23.013 16.2934 22.9064 16.5602 22.7997C15.8417 22.1205 15.2017 21.3738 14.6402 20.5597C15.9692 20.4 17.3026 20.3467 18.6402 20.3997Z"
            fill="#3E6DDE" />
        <path fill-rule="evenodd" clip-rule="evenodd"
            d="M22.8002 19.2798C22.9914 20.0136 23.0714 20.7602 23.0402 21.5198C23.2566 21.2104 23.4966 20.9171 23.7602 20.6398C24.4656 20.3256 24.999 20.5123 25.3602 21.1998C24.6134 22.0531 23.8134 22.8531 22.9602 23.5998C22.5384 23.3426 22.0851 23.1291 21.6002 22.9598C21.2939 23.0525 21.0272 23.2125 20.8002 23.4398C20.7202 23.3866 20.6402 23.3331 20.5602 23.2798C20.4499 22.9688 20.3699 22.6488 20.3202 22.3198C19.6682 21.7486 19.1082 21.1086 18.6402 20.3998C18.7102 20.4102 18.7637 20.3837 18.8002 20.3198C18.5531 20.2734 18.3398 20.1669 18.1602 19.9998C19.368 19.964 20.5414 19.8307 21.6802 19.5998C21.7069 16.9326 21.6802 14.266 21.6002 11.5998C21.4406 11.3082 21.2539 11.0415 21.0402 10.7998C21.1997 10.8046 21.3064 10.7246 21.3602 10.5598C21.2336 10.3837 21.2336 10.2503 21.3602 10.1598C21.5075 10.5208 21.7742 10.6808 22.1602 10.6398C22.1602 10.4798 22.1602 10.3198 22.1602 10.1598C22.3285 10.1359 22.4885 10.1626 22.6402 10.2398C22.5133 10.4135 22.4066 10.6002 22.3202 10.7998C22.6165 11.1987 22.8032 11.6253 22.8802 12.0798C22.7734 11.8665 22.6669 11.8665 22.5602 12.0798C22.5334 14.0021 22.4534 15.9221 22.3202 17.8398C22.1157 15.7033 22.1157 13.57 22.3202 11.4398C22.1602 11.4398 22.0002 11.4398 21.8402 11.4398C21.8134 14.2137 21.8402 16.987 21.9202 19.7598C22.1448 18.0046 22.3848 17.9512 22.6402 19.5998C22.7678 19.5267 22.8211 19.42 22.8002 19.2798Z"
            fill="#3865DE" />
        <path fill-rule="evenodd" clip-rule="evenodd"
            d="M9.8401 19.1201C10.0612 19.3283 10.3278 19.4616 10.6401 19.5201C14.3197 19.6001 17.9998 19.6268 21.6801 19.6001C20.5414 19.831 19.3679 19.9643 18.1601 20.0001C18.3398 20.1672 18.5531 20.2737 18.8001 20.3201C18.7636 20.384 18.7102 20.4105 18.6401 20.4001C17.3025 20.3472 15.9692 20.4004 14.6401 20.5601C15.2016 21.3742 15.8416 22.1209 16.5601 22.8001C16.2934 22.9068 16.0268 23.0134 15.7601 23.1201C15.7936 23.2139 15.8469 23.2939 15.9201 23.3601C15.7132 23.4385 15.4998 23.4652 15.2801 23.4401C15.2801 23.6001 15.2801 23.7601 15.2801 23.9201C13.7868 23.9734 13.7868 24.0268 15.2801 24.0801C15.2451 24.2681 15.2984 24.4281 15.4401 24.5601C15.5468 24.3468 15.6534 24.1334 15.7601 23.9201C15.9123 24.0523 16.0723 24.0788 16.2401 24.0001C16.3851 23.7283 16.4383 23.4348 16.4001 23.1201C16.7668 23.0792 17.1135 23.1324 17.4401 23.2801C17.5468 23.3868 17.5468 23.4934 17.4401 23.6001C17.2231 23.4593 16.9831 23.4059 16.7201 23.4401C16.763 23.8592 16.7097 24.2592 16.5601 24.6401C16.8094 24.6737 17.0227 24.7537 17.2001 24.8801C15.2801 24.8801 13.3601 24.8801 11.4401 24.8801C10.1884 24.7475 8.90845 24.6675 7.6001 24.6401C8.98995 24.5995 10.3766 24.5195 11.7601 24.4001C12.3972 24.5371 13.0372 24.5105 13.6801 24.3201C11.7304 24.2582 9.75709 24.1516 7.7601 24.0001C8.29247 23.9025 8.82579 23.8225 9.3601 23.7601C10.8011 23.7867 12.2411 23.7601 13.6801 23.6801C12.9503 23.4718 12.2036 23.2852 11.4401 23.1201C11.6534 23.0134 11.8668 22.9068 12.0801 22.8001C11.7352 22.4817 11.4152 22.135 11.1201 21.7601C11.2801 21.7068 11.4401 21.6534 11.6001 21.6001C11.0774 21.1536 10.5441 20.7536 10.0001 20.4001C10.0001 20.2401 10.0001 20.0801 10.0001 19.9201C9.8401 19.9201 9.6801 19.9201 9.5201 19.9201C9.45247 19.5552 9.55914 19.2884 9.8401 19.1201Z"
            fill="#4875DB" />
        <path fill-rule="evenodd" clip-rule="evenodd"
            d="M5.83984 24.5596C7.68488 24.857 9.55156 24.9637 11.4398 24.8796C13.3598 24.8796 15.2798 24.8796 17.1998 24.8796C17.1998 24.9329 17.1998 24.9863 17.1998 25.0396C13.6794 25.0663 10.1594 25.0396 6.63984 24.9596C6.32124 24.8997 6.05456 24.7665 5.83984 24.5596Z"
            fill="#7493CB" />
        <path fill-rule="evenodd" clip-rule="evenodd"
            d="M17.1999 25.04C17.3066 26.1885 17.4132 27.3618 17.5199 28.56C17.6529 27.5509 17.7329 26.5375 17.7599 25.52C18.0247 25.8796 18.078 26.2528 17.9199 26.64C18.0266 26.4268 18.1866 26.2668 18.3999 26.16C18.4997 26.4743 18.4197 26.741 18.1599 26.96C18.2666 27.0133 18.3732 27.0668 18.4799 27.12C19.0861 26.8877 19.4594 26.4612 19.5999 25.84C19.8914 25.893 20.1581 25.9997 20.3999 26.16C19.3924 27.2477 18.3524 28.3144 17.2799 29.36C17.1999 27.921 17.1733 26.481 17.1999 25.04Z"
            fill="#4674D4" />
    </g>
    <defs>
        <clipPath id="clip0_5258_210">
            <rect width="32" height="32" fill="white" />
        </clipPath>
    </defs>
</svg>