<svg width="32" height="32" viewBox="0 0 32 32" fill="none" xmlns="http://www.w3.org/2000/svg">
<path d="M12.1001 0C16.154 0 20.2079 0 24.3847 0C23.9677 1.34642 23.9677 1.34642 23.7438 2.0128C23.7282 2.05914 23.7127 2.10547 23.6966 2.15321C23.6812 2.19926 23.6657 2.24531 23.6498 2.29275C23.4248 2.96332 23.203 3.63479 22.9849 4.30761C22.7844 4.92598 22.5826 5.54389 22.3792 6.1613C22.3663 6.20058 22.3533 6.23985 22.34 6.28032C22.2736 6.4818 22.2072 6.68326 22.1408 6.88472C21.9986 7.3159 21.8565 7.74714 21.7145 8.17837C21.7005 8.22098 21.6864 8.26359 21.672 8.30749C21.433 9.03288 21.1949 9.75852 20.9574 10.4844C20.8909 10.6877 20.8244 10.891 20.7579 11.0943C20.7496 11.1197 20.7413 11.1451 20.7327 11.1713C20.4918 11.9076 20.2497 12.6435 20.0078 13.3794C19.9147 13.6626 19.8216 13.9458 19.7286 14.2289C19.7171 14.2639 19.7056 14.2989 19.6937 14.3349C19.4588 15.0497 19.2241 15.7646 18.9895 16.4796C18.9598 16.57 18.9302 16.6605 18.9005 16.751C18.6843 17.4098 18.4683 18.0687 18.2526 18.7277C18.1873 18.9272 18.1219 19.1267 18.0566 19.3262C17.9943 19.5165 17.932 19.7068 17.8698 19.8971C17.8317 20.0136 17.7935 20.1301 17.7554 20.2466C17.7377 20.3007 17.72 20.3548 17.7023 20.4089C17.6782 20.4826 17.6541 20.5563 17.6299 20.6299C17.6164 20.6712 17.6029 20.7124 17.589 20.755C17.5554 20.8524 17.5554 20.8524 17.515 20.9334C15.1147 20.9334 12.7143 20.9334 10.2412 20.9334C10.3806 19.2112 10.3806 19.2112 10.4412 18.5354C10.4483 18.4559 10.4553 18.3763 10.4624 18.2968C10.4814 18.084 10.5004 17.8712 10.5194 17.6584C10.5401 17.4268 10.5607 17.1951 10.5814 16.9635C10.6216 16.5123 10.6619 16.061 10.7022 15.6098C10.7492 15.0834 10.7962 14.557 10.8431 14.0306C10.9269 13.0917 11.0107 12.1528 11.0945 11.2138C11.1758 10.3038 11.257 9.39381 11.3381 8.48379C11.3406 8.45567 11.3432 8.42755 11.3457 8.39858C11.3559 8.2852 11.366 8.17182 11.3761 8.05844C11.3811 8.00192 11.3862 7.94541 11.3912 7.8889C11.3962 7.83252 11.4013 7.77614 11.4063 7.71976C11.4864 6.82191 11.5665 5.92406 11.6466 5.0262C11.6747 4.71162 11.7028 4.39703 11.7308 4.08244C11.7753 3.58424 11.8198 3.08605 11.8642 2.58785C11.8846 2.3604 11.9049 2.13294 11.9252 1.90549C11.9437 1.69726 11.9623 1.48904 11.9809 1.28081C11.9876 1.20557 11.9944 1.13032 12.0011 1.05507C12.0102 0.952626 12.0194 0.850184 12.0285 0.747742C12.0311 0.718703 12.0337 0.689664 12.0363 0.659744C12.0561 0.439642 12.0781 0.219927 12.1001 0Z" fill="#2773FF"/>
<path d="M16.1265 23.4318C17.0958 24.3741 17.6094 25.6404 17.644 26.9891C17.6246 28.2197 17.2223 29.3484 16.4241 30.2865C16.3988 30.3173 16.3736 30.348 16.3475 30.3797C15.582 31.2842 14.3967 31.8502 13.2317 31.9871C13.0471 31.9985 12.8634 32.0007 12.6786 31.9998C12.6289 31.9995 12.5791 31.9993 12.5279 31.9991C12.1447 31.994 11.7835 31.9659 11.4132 31.8656C11.3842 31.8578 11.3552 31.85 11.3254 31.8419C10.4838 31.6053 9.78428 31.169 9.15028 30.57C9.12293 30.5452 9.09558 30.5204 9.06741 30.4948C8.43926 29.9033 8.04319 29.0841 7.81675 28.262C7.803 28.213 7.78924 28.1639 7.77508 28.1133C7.48944 26.8784 7.72676 25.504 8.3787 24.4237C9.15596 23.2322 10.2498 22.4375 11.6396 22.1275C13.2833 21.789 14.9073 22.2998 16.1265 23.4318Z" fill="#2773FF"/>
</svg>