<svg width="32" height="32" viewBox="0 0 32 32" fill="none" xmlns="http://www.w3.org/2000/svg">
    <mask id="mask0_5175_240" style="mask-type:luminance" maskUnits="userSpaceOnUse" x="0" y="0"
        width="32" height="32">
        <path
            d="M29.5424 0H2.45758C1.1003 0 0 1.10054 0 2.45812V29.5419C0 30.8995 1.10029 32 2.45758 32H29.5424C30.8996 32 32 30.8995 32 29.5419V2.45812C32 1.10054 30.8996 0 29.5424 0Z"
            fill="white" />
    </mask>
    <g mask="url(#mask0_5175_240)">
        <path
            d="M32 2.45812C32 1.10054 30.8996 0 29.5424 0H2.45758C1.10029 0 0 1.10054 0 2.45812V29.5419C0 30.8995 1.1003 32 2.45758 32H29.5424C30.8996 32 32 30.8995 32 29.5419V2.45812Z"
            fill="#FF5D5C" />
        <path fill-rule="evenodd" clip-rule="evenodd"
            d="M18.4646 15.1432C18.9375 14.2697 19.5638 13.0975 20.3436 11.6263L21.0201 12.8947C23.7524 18.0183 23.8531 21.4941 21.9928 23.9348C20.4495 25.96 17.8115 26.8591 14.0789 26.6321C17.5003 25.1062 18.9173 21.2382 18.3943 18.3792C17.585 19.7706 16.7913 21.063 16.0197 22.2555C14.9533 23.9036 14.0453 25.1799 13.4649 25.9187L13.1288 26.3463L12.6149 26.1634C10.5223 25.418 9.29435 23.9471 8.85546 21.3453C8.37211 18.4797 9.45866 15.8397 12.6149 14.4986C12.408 15.1598 12.2811 15.8163 12.2343 16.4684C12.0552 18.9589 12.7561 18.9589 13.2552 18.7933C13.8538 18.3862 13.8629 17.8617 13.4516 15.7062C13.1215 13.9758 13.0345 12.9147 13.2511 11.6647C13.5422 9.98386 14.4125 8.44793 16 7.02062C16.0569 6.96931 16.1149 6.91822 16.1737 6.86726L17.9457 5.33301L17.4047 7.60621C16.6142 10.9266 16.9341 12.9295 17.9862 14.4986C18.0771 14.6341 18.2752 14.8955 18.4646 15.1432ZM18.3456 25.0664C19.136 24.7861 20.3106 23.6403 20.8305 23.0168C22.1344 21.4533 22.1483 18.8478 20.3368 14.933C20.0389 15.4948 19.7425 16.0434 19.4477 16.5792C20.7262 19.1233 20.0589 22.6902 18.3456 25.0664ZM14.7623 21.4367C13.9115 22.743 13.1673 23.8046 12.6204 24.533C11.3561 23.9365 10.6439 22.9247 10.3325 21.091C10.0826 19.6189 10.3431 18.3006 10.9971 17.3669C10.9847 17.7269 10.9974 18.0741 11.0414 18.391C11.2538 19.9204 12.2624 20.7446 13.8572 20.172L13.9335 20.1446L14.0022 20.1019C14.8177 19.5951 15.21 18.8561 15.2593 17.9063C15.2918 17.2784 15.2426 16.951 14.9496 15.4254C14.6492 13.8611 14.5736 12.9465 14.7523 11.9217C14.8732 11.229 15.1188 10.5653 15.5134 9.9197C15.3299 12.2094 15.7936 13.9079 16.7536 15.3303C16.9089 15.5603 17.2489 15.9994 17.4692 16.2838C17.5745 16.4198 17.6523 16.5203 17.6696 16.546C17.6818 16.5637 17.6937 16.5816 17.7057 16.5995C16.6981 18.3646 15.7127 19.9777 14.7623 21.4367Z"
            fill="white" />
    </g>
</svg>