<svg width="32" height="32" viewBox="0 0 32 32" fill="none" xmlns="http://www.w3.org/2000/svg">
    <path opacity="0.99" fill-rule="evenodd" clip-rule="evenodd"
        d="M12.8451 0C13.5586 0 14.2723 0 14.9859 0C19.9468 1.79757 24.867 3.71538 29.7465 5.75342C31.2284 6.82776 31.9796 8.27068 32 10.0822C31.9681 10.9665 31.8741 11.8432 31.7183 12.7123C30.9751 13.8755 29.9422 14.1861 28.6197 13.6438C28.3944 13.4978 28.169 13.3516 27.9437 13.2055C27.3686 12.2808 26.5798 11.5867 25.5775 11.1233C24.7766 10.8793 24.0254 10.9889 23.3239 11.4521C21.0488 13.6373 20.4291 16.2126 21.4648 19.1781C22.5037 21.2816 24.175 21.9574 26.4789 21.2055C26.7606 21.0046 27.0423 20.8036 27.3239 20.6027C27.6375 20.115 27.9944 19.6584 28.3944 19.2329C29.3861 18.8366 30.2687 19.001 31.0423 19.726C31.2555 20.1195 31.3495 20.5395 31.3239 20.9863C31.2523 22.0265 31.1959 23.0676 31.1549 24.1096C30.8065 26.2016 29.6234 27.6446 27.6056 28.4384C22.9679 29.6115 18.3482 30.7987 13.7465 32C13.0329 32 12.3192 32 11.6056 32C10.1732 31.6494 9.02766 30.8823 8.16901 29.6986C5.79341 25.9906 3.38966 22.3012 0.957746 18.6301C0.516178 17.9778 0.19693 17.2837 0 16.5479C0 15.8539 0 15.1598 0 14.4658C0.247897 13.5452 0.679823 12.705 1.29577 11.9452C4.23039 8.54327 7.12241 5.10948 9.97183 1.64384C10.7913 0.853145 11.7491 0.3052 12.8451 0Z"
        fill="#20A0B2" />
</svg>