<svg width="32" height="32" viewBox="0 0 32 32" fill="none" xmlns="http://www.w3.org/2000/svg">
    <path
        d="M32 17.0796C32 15.6168 30.7865 14.3968 29.3333 14.3968C25.8405 14.3968 22.3483 14.3968 18.8558 14.3968C18.054 14.3968 17.2414 14.4221 16.4387 14.3805C16.3628 14.3578 16.0438 14.3055 15.8543 14.259C15.7727 14.2148 15.6923 14.1666 15.6135 14.1175C15.575 14.0816 15.535 14.0472 15.4974 14.0107C15.4557 13.9691 15.4166 13.9249 15.3784 13.8807C15.3122 13.7733 15.2469 13.649 15.1952 13.546C14.792 12.3831 14.3709 11.2275 13.9323 10.0772C13.5605 9.10124 13.205 8.08622 12.7188 7.16133C12.2143 6.19998 11.4202 5.42838 10.5308 4.83131C9.73191 4.29366 8.66647 4 7.70689 4C6.02655 4 4.34764 4 2.66816 4C1.2141 4 0 5.22084 0 6.68367C0 8.1465 1.2141 9.36734 2.66816 9.36734C4.14563 9.36734 5.62281 9.36734 7.10027 9.36734C7.27689 9.36734 7.45408 9.36734 7.63071 9.36734C7.65125 9.37739 7.67037 9.38657 7.69177 9.39633C7.76909 9.4615 7.87381 9.54761 7.96426 9.63057C7.98795 9.66243 8.00963 9.69401 8.02704 9.72013C8.0841 9.81256 8.24903 10.1722 8.26615 10.1886C9.04197 12.1213 9.64032 14.1281 10.4709 16.0348C11.564 18.5436 14.2853 19.7644 16.8753 19.7644C21.0277 19.7644 25.1802 19.7644 29.3335 19.7644C30.7865 19.7627 32 18.5422 32 17.0796ZM15.539 14.0696C15.5134 14.0524 15.488 14.0343 15.4634 14.0148C15.4606 14.0113 15.4586 14.0076 15.456 14.0033C15.4806 14.0231 15.5037 14.0406 15.539 14.0696ZM15.3961 13.9559C15.4018 13.9616 15.4061 13.968 15.4106 13.9737C15.337 13.9151 15.3002 13.8801 15.3961 13.9559Z"
        fill="#336ED0" />
    <path
        d="M16.6459 21.5195C18.5028 21.5195 20.0085 23.0343 20.0085 24.9019C20.0085 26.77 18.5028 28.2854 16.6459 28.2854C14.7889 28.2854 13.2832 26.77 13.2832 24.9019C13.2832 23.0343 14.7889 21.5195 16.6459 21.5195Z"
        fill="#336ED0" />
    <path
        d="M26.1945 21.5205C28.0509 21.5205 29.5555 23.0341 29.5555 24.9017C29.5555 26.7699 28.0509 28.2841 26.1945 28.2841C24.3376 28.2841 22.833 26.7699 22.833 24.9017C22.8333 23.0341 24.3376 21.5205 26.1945 21.5205Z"
        fill="#336ED0" />
</svg>