<svg width="32" height="32" viewBox="0 0 32 32" fill="none" xmlns="http://www.w3.org/2000/svg">
    <g clip-path="url(#clip0_5117_898)">
        <path fill-rule="evenodd" clip-rule="evenodd"
            d="M19.0235 0.0163355C20.7131 -0.0807923 22.3096 0.255209 23.8132 1.02434C24.5504 1.42287 25.2148 1.92056 25.8063 2.5174C26.1972 2.94004 26.5004 3.42004 26.7158 3.95741C26.7944 4.27793 26.6808 4.37645 26.3747 4.25299C26.2939 4.21256 26.213 4.17215 26.1322 4.13173C25.1294 3.37739 24.0381 2.77107 22.8583 2.31277C20.9518 1.68402 19.0219 1.60318 17.0682 2.07024C15.4799 2.47801 14.03 3.16516 12.7181 4.13173C10.5654 5.73347 8.88051 7.72674 7.66324 10.1115C6.71289 11.937 5.98034 13.8469 5.46545 15.8413C5.30949 16.2962 5.23628 16.2836 5.24567 15.8034C5.38755 13.9269 5.80937 12.1155 6.5113 10.3692C7.39056 8.12381 8.64345 6.12295 10.2703 4.36667C11.7273 2.83084 13.4273 1.64094 15.3706 0.796971C16.5523 0.359047 17.77 0.0988343 19.0235 0.0163355Z"
            fill="#0461F9" />
        <path fill-rule="evenodd" clip-rule="evenodd"
            d="M17.7353 6.14019C19.3112 6.11828 20.5212 6.76503 21.3654 8.08041C22.0316 9.23484 22.1327 10.4374 21.6685 11.688C21.0454 13.0954 19.9717 13.9266 18.4477 14.1815C16.8807 14.3287 15.6151 13.7855 14.6508 12.552C13.8194 11.35 13.6577 10.0616 14.1658 8.68673C14.7528 7.29509 15.7911 6.46393 17.2806 6.19324C17.4341 6.17255 17.5857 6.15486 17.7353 6.14019Z"
            fill="#0461F9" />
        <path fill-rule="evenodd" clip-rule="evenodd"
            d="M20.7515 15.9326C20.7716 18.1431 20.7818 20.3587 20.7818 22.5794C20.7792 24.795 20.7768 27.0105 20.7742 29.2262C20.7568 29.7809 20.6254 30.3063 20.3801 30.8026C19.8636 31.6143 19.1209 32.0134 18.152 32.0001C17.2202 32.0116 16.4976 31.6326 15.9846 30.8632C15.7278 30.4173 15.5762 29.9372 15.5298 29.4232C15.5127 29.2416 15.5001 29.0597 15.4919 28.8775C15.5069 24.9416 15.5121 21.0055 15.5071 17.0695C17.118 17.2454 18.6539 16.9852 20.1149 16.2888C20.3354 16.1812 20.5476 16.0625 20.7515 15.9326Z"
            fill="#0461F9" />
    </g>
    <defs>
        <clipPath id="clip0_5117_898">
            <rect width="32" height="32" fill="white" />
        </clipPath>
    </defs>
</svg>