<svg width="32" height="32" viewBox="0 0 32 32" fill="none" xmlns="http://www.w3.org/2000/svg">
    <g clip-path="url(#clip0_5379_54)">
        <path fill-rule="evenodd" clip-rule="evenodd"
            d="M-0.0799866 -0.0800781C10.5867 -0.0800781 21.2533 -0.0800781 31.92 -0.0800781C31.92 10.5866 31.92 21.2532 31.92 31.9199C21.2533 31.9199 10.5867 31.9199 -0.0799866 31.9199C-0.0799866 21.2532 -0.0799866 10.5866 -0.0799866 -0.0800781Z"
            fill="#FDFDFD" />
        <path fill-rule="evenodd" clip-rule="evenodd"
            d="M13.68 2.6402C20.6667 2.09092 25.6 4.97092 28.48 11.2802C30.2976 17.1792 28.9376 22.2192 24.4 26.4002C22.099 28.1896 19.4858 29.1764 16.56 29.3602C16.9968 27.3196 17.3701 25.2663 17.68 23.2002C17.4738 20.8146 16.167 19.5613 13.76 19.4402C12.1338 19.561 10.9605 20.361 10.24 21.8402C9.83381 23.7111 9.40715 25.5778 8.96 27.4402C3.59242 23.7128 1.61907 18.6461 3.04 12.2402C4.84536 7.10113 8.39203 3.90113 13.68 2.6402Z"
            fill="#020202" />
        <path fill-rule="evenodd" clip-rule="evenodd"
            d="M15.44 6.48005C18.6192 6.27354 20.4325 7.74021 20.88 10.8801C20.553 13.7151 19.0063 15.5285 16.24 16.3201C15.549 16.4649 14.8557 16.5181 14.16 16.4801C14.7626 16.0657 15.136 15.5057 15.28 14.8001C13.7542 14.4213 12.7676 13.4613 12.32 11.9201C11.9163 9.25909 12.9563 7.44575 15.44 6.48005Z"
            fill="#FBFBFB" />
    </g>
    <defs>
        <clipPath id="clip0_5379_54">
            <rect width="32" height="32" fill="white" />
        </clipPath>
    </defs>
</svg>