<svg width="32" height="32" viewBox="0 0 32 32" fill="none" xmlns="http://www.w3.org/2000/svg">
    <g clip-path="url(#clip0_5450_45)">
        <path opacity="0.899" fill-rule="evenodd" clip-rule="evenodd"
            d="M11.7732 0C17.8231 0 23.873 0 29.9229 0C30.1379 6.16439 29.9052 12.282 29.2248 18.353C28.8048 18.9183 28.2619 19.3105 27.596 19.5294C23.1001 19.7646 18.6014 19.8431 14.1001 19.7647C14.0305 19.2697 14.1081 18.7991 14.3328 18.353C17.3747 14.6282 20.2445 10.785 22.9423 6.82354C22.8749 6.46024 22.7198 6.1465 22.4769 5.88236C18.2914 5.64716 14.103 5.56876 9.91173 5.64707C9.7052 3.44993 10.3257 1.56758 11.7732 0Z"
            fill="#83AF2A" />
        <path opacity="0.903" fill-rule="evenodd" clip-rule="evenodd"
            d="M3.39613 8.47077C8.20751 8.39242 13.0164 8.47087 17.8228 8.70607C14.6309 12.7962 11.5283 16.9531 8.51526 21.1767C9.26605 21.9239 10.1968 22.3945 11.3075 22.5884C14.6936 22.1341 18.1063 21.9772 21.5458 22.1179C21.9518 24.4457 21.3313 26.4064 19.6843 28.0002C15.0305 28.1571 10.3768 28.314 5.72301 28.4708C4.55957 29.6473 3.39613 30.8237 2.23269 32.0002C1.92244 24.6276 1.92244 17.2551 2.23269 9.88254C2.719 9.47153 3.10682 9.00094 3.39613 8.47077Z"
            fill="#5D5F5E" />
    </g>
    <defs>
        <clipPath id="clip0_5450_45">
            <rect width="32" height="32" fill="white" />
        </clipPath>
    </defs>
</svg>