<svg width="32" height="32" viewBox="0 0 32 32" fill="none" xmlns="http://www.w3.org/2000/svg">
    <path opacity="0.991" fill-rule="evenodd" clip-rule="evenodd"
        d="M17.2611 0C22.6909 0.478908 26.8648 3.0152 29.7829 7.60887C31.8237 11.2737 32.4557 15.1783 31.6786 19.3225C30.4377 24.6727 27.3281 28.4938 22.3496 30.7859C19.65 31.842 16.8563 32.2091 13.9685 31.8872C8.46073 31.1641 4.35329 28.3776 1.64629 23.5274C0.629671 21.5829 0.0809076 19.5137 0 17.3202C2.19505 17.3202 4.39011 17.3202 6.58516 17.3202C7.00456 20.8279 8.80057 23.3475 11.973 24.879C15.7466 26.3391 19.2055 25.8052 22.3496 23.2771C25.1726 20.3401 26.054 16.8861 24.9937 12.9151C23.7579 9.18871 21.2136 6.98614 17.3609 6.30735C17.2611 4.20596 17.2279 2.10351 17.2611 0Z"
        fill="#FE6169" />
    <path opacity="0.993" fill-rule="evenodd" clip-rule="evenodd"
        d="M3.5918 3.60449C5.78685 3.60449 7.9819 3.60449 10.177 3.60449C10.177 5.80706 10.177 8.00963 10.177 10.2122C7.9819 10.2122 5.78685 10.2122 3.5918 10.2122C3.5918 8.00963 3.5918 5.80706 3.5918 3.60449Z"
        fill="#FD6169" />
</svg>