<svg width="32" height="32" viewBox="0 0 32 32" fill="none" xmlns="http://www.w3.org/2000/svg">
    <path fill-rule="evenodd" clip-rule="evenodd"
        d="M13.8045 0C14.5567 0 15.3088 0 16.061 0C20.8417 3.36361 25.6645 6.68311 30.5292 9.95851C30.6468 9.84896 30.691 9.71618 30.6619 9.56017C31.2263 10.6799 31.5803 11.8749 31.7238 13.1452C31.7453 13.4144 31.7231 13.6799 31.6574 13.9419C25.0562 9.43883 18.4415 4.96858 11.8135 0.53112C12.4692 0.320325 13.1329 0.143285 13.8045 0Z"
        fill="#FB5253" />
    <path fill-rule="evenodd" clip-rule="evenodd"
        d="M16.061 0C16.7247 0 17.3884 0 18.0521 0C23.9387 0.97698 28.1419 4.1637 30.6619 9.56017C30.691 9.71618 30.6468 9.84896 30.5292 9.95851C25.6646 6.68311 20.8418 3.36361 16.061 0Z"
        fill="#FB5250" />
    <path fill-rule="evenodd" clip-rule="evenodd"
        d="M11.8133 0.53125C18.4413 4.96871 25.056 9.43896 31.6572 13.942C31.7229 13.6801 31.7451 13.4145 31.7236 13.1454C31.943 14.0432 32.0315 14.9727 31.9891 15.9337C31.9005 15.9337 31.8121 15.9337 31.7236 15.9337C24.7124 11.0691 17.6774 6.2226 10.6187 1.39432C10.3737 1.24455 10.1083 1.17816 9.82227 1.19515C10.4309 0.844675 11.0945 0.623375 11.8133 0.53125Z"
        fill="#F95056" />
    <path fill-rule="evenodd" clip-rule="evenodd"
        d="M9.82265 1.19498C10.1087 1.17799 10.3741 1.24438 10.6191 1.39415C17.6778 6.22243 24.7128 11.0689 31.724 15.9336C29.9099 15.9336 28.0959 15.9336 26.2818 15.9336C21.1531 12.9697 16.0206 10.0043 10.8845 7.0373C10.7522 7.9181 10.708 8.80331 10.7518 9.69291C10.6205 8.9659 10.5763 8.21347 10.6191 7.43564C10.6403 7.21003 10.6182 6.98872 10.5527 6.77174C9.61683 5.25253 8.75405 3.70342 7.96436 2.12444C8.50451 1.67722 9.12394 1.3674 9.82265 1.19498Z"
        fill="#F84F5A" />
    <path fill-rule="evenodd" clip-rule="evenodd"
        d="M7.96423 2.12402C8.75392 3.703 9.6167 5.25211 10.5526 6.77133C10.6181 6.9883 10.6402 7.20961 10.6189 7.43523C8.94145 6.28579 7.26013 5.13502 5.57499 3.98294C5.20977 4.34987 4.81156 4.65968 4.38037 4.91241C5.38442 3.73017 6.57904 2.80071 7.96423 2.12402Z"
        fill="#F3314E" />
    <path fill-rule="evenodd" clip-rule="evenodd"
        d="M10.6186 7.43568C10.5759 8.21351 10.6201 8.96593 10.7514 9.69294C10.7514 9.7372 10.7514 9.78147 10.7514 9.82572C10.7514 10.6667 10.7514 11.5076 10.7514 12.3485C10.6629 12.3485 10.6186 12.3043 10.6186 12.2158C10.6407 11.4179 10.6186 10.6212 10.5523 9.82572C8.44086 8.31588 6.29497 6.8553 4.11459 5.44398C4.02387 5.49214 3.93539 5.53641 3.84912 5.57676C3.92608 5.27816 4.10306 5.05687 4.38006 4.91286C4.81125 4.66014 5.20946 4.35032 5.57468 3.9834C7.25982 5.13548 8.94114 6.28624 10.6186 7.43568Z"
        fill="#F12F54" />
    <path fill-rule="evenodd" clip-rule="evenodd"
        d="M10.619 12.2161C7.98555 10.4786 5.3751 8.70818 2.7876 6.90492C3.01426 6.36425 3.36822 5.92165 3.84948 5.57712C3.93575 5.53676 4.02423 5.4925 4.11495 5.44434C6.29533 6.85566 8.44122 8.31624 10.5526 9.82608C10.6189 10.6215 10.641 11.4182 10.619 12.2161Z"
        fill="#EE2C5A" />
    <path fill-rule="evenodd" clip-rule="evenodd"
        d="M2.78739 6.9043C5.37489 8.70756 7.98535 10.478 10.6188 12.2155C10.6188 12.304 10.663 12.3483 10.7515 12.3483C10.84 12.3483 10.8842 12.3925 10.8842 12.4811C10.84 12.4811 10.7958 12.4811 10.7515 12.4811C10.6204 13.1636 10.5761 13.8718 10.6188 14.6055C7.76793 12.7144 4.93623 10.7891 2.12371 8.82961C1.9341 8.75272 1.75713 8.77485 1.59277 8.896C1.89126 8.16499 2.28946 7.50109 2.78739 6.9043Z"
        fill="#EC2A60" />
    <path fill-rule="evenodd" clip-rule="evenodd"
        d="M26.2817 15.9334C26.0554 16.158 25.7899 16.335 25.4853 16.4645C24.7391 16.8591 24.0312 17.3017 23.3616 17.7923C22.7552 18.045 22.1799 18.3548 21.636 18.7218C20.7905 19.1439 19.9941 19.6308 19.2468 20.1823C18.4772 20.5452 17.7249 20.9436 16.9903 21.3774C16.244 21.772 15.5361 22.2145 14.8665 22.7052C14.291 22.9484 13.76 23.2582 13.2737 23.6346C12.6731 23.8395 12.1422 24.1494 11.6808 24.5641C11.3551 24.6606 11.0454 24.7934 10.7517 24.9624C10.7517 20.802 10.7517 16.6415 10.7517 12.4811C10.7959 12.4811 10.8402 12.4811 10.8844 12.4811C11.6296 12.8937 12.3597 13.3363 13.0746 13.8089C13.1408 14.3826 13.1629 14.958 13.1409 15.535C13.1188 17.3059 13.1409 19.0764 13.2073 20.8462C14.7754 19.8966 16.3461 18.9671 17.9194 18.0579C19.1104 17.3734 20.3051 16.6873 21.5033 15.9998C17.9554 13.8714 14.3715 11.8133 10.7517 9.82549C10.7517 9.78124 10.7517 9.73697 10.7517 9.69271C10.7079 8.80311 10.7521 7.91791 10.8844 7.03711C16.0205 10.0041 21.153 12.9695 26.2817 15.9334Z"
        fill="#FFFCFC" />
    <path fill-rule="evenodd" clip-rule="evenodd"
        d="M10.6189 14.6059C10.6189 15.4026 10.6189 16.1992 10.6189 16.9959C7.3699 14.8615 4.14001 12.6927 0.929199 10.4897C1.08246 9.91907 1.30368 9.38794 1.59288 8.89633C1.75723 8.77518 1.9342 8.75304 2.12382 8.82994C4.93633 10.7894 7.76803 12.7147 10.6189 14.6059Z"
        fill="#E92766" />
    <path fill-rule="evenodd" clip-rule="evenodd"
        d="M0.929379 10.4893C4.14019 12.6923 7.37008 14.861 10.6191 16.9955C10.6624 17.6214 10.6182 18.241 10.4863 18.8544C7.20159 16.5807 3.90532 14.3234 0.597541 12.0826C0.546759 12.1564 0.480391 12.2007 0.398438 12.2154C0.475121 11.596 0.652101 11.0206 0.929379 10.4893Z"
        fill="#E7256D" />
    <path fill-rule="evenodd" clip-rule="evenodd"
        d="M10.7515 9.82617C14.3713 11.814 17.9551 13.8721 21.503 16.0004C20.3048 16.688 19.1102 17.3741 17.9192 18.0585C16.3263 17.2176 14.7335 16.3766 13.1407 15.5357C13.1627 14.9587 13.1406 14.3833 13.0743 13.8096C12.3594 13.337 11.6294 12.8944 10.8842 12.4818C10.8842 12.3932 10.84 12.349 10.7515 12.349C10.7515 11.5081 10.7515 10.6671 10.7515 9.82617Z"
        fill="#F93842" />
    <path fill-rule="evenodd" clip-rule="evenodd"
        d="M10.6189 16.9959C10.6189 16.1992 10.6189 15.4025 10.6189 14.6058C10.5762 13.8721 10.6205 13.1639 10.7516 12.4813C10.7516 16.6417 10.7516 20.8023 10.7516 24.9627C10.7074 24.9627 10.6631 24.9627 10.6189 24.9627C10.6189 24.6529 10.6189 24.343 10.6189 24.0332C10.6189 23.5021 10.6189 22.971 10.6189 22.4399C10.6621 21.8577 10.6179 21.2824 10.4862 20.7137C7.03123 18.3666 3.58011 16.0209 0.132812 13.6764C0.153881 13.173 0.242371 12.6861 0.398283 12.2158C0.480237 12.2011 0.546604 12.1568 0.597386 12.083C3.90516 14.3238 7.20143 16.5811 10.4862 18.8548C10.618 18.2413 10.6623 17.6218 10.6189 16.9959Z"
        fill="#E62975" />
    <path fill-rule="evenodd" clip-rule="evenodd"
        d="M0.132735 13.6768C3.58003 16.0213 7.03115 18.3669 10.4861 20.7141C10.6178 21.2828 10.662 21.8581 10.6188 22.4402C7.04533 20.1056 3.50571 17.7155 0 15.2701C0 14.7832 0 14.2964 0 13.8095C0.0884903 13.8095 0.132735 13.7653 0.132735 13.6768Z"
        fill="#E32078" />
    <path fill-rule="evenodd" clip-rule="evenodd"
        d="M0 15.2695C3.50571 17.7149 7.04533 20.105 10.6188 22.4397C10.6188 22.9708 10.6188 23.5019 10.6188 24.033C7.11312 21.5876 3.5735 19.1976 0 16.8629C0 16.3318 0 15.8007 0 15.2695Z"
        fill="#E11E7E" />
    <path fill-rule="evenodd" clip-rule="evenodd"
        d="M13.1406 15.5352C14.7334 16.3761 16.3263 17.2171 17.9191 18.058C16.3458 18.9673 14.7751 19.8967 13.207 20.8464C13.1406 19.0765 13.1185 17.306 13.1406 15.5352Z"
        fill="#F63548" />
    <path fill-rule="evenodd" clip-rule="evenodd"
        d="M26.2818 15.9336C28.0959 15.9336 29.9098 15.9336 31.7239 15.9336C31.8124 15.9336 31.9008 15.9336 31.9894 15.9336C32.0475 17.385 31.8705 18.8014 31.4584 20.1826C31.3639 20.3471 31.2312 20.4135 31.0602 20.3817C29.1698 19.1058 27.3115 17.8001 25.4854 16.4647C25.79 16.3353 26.0554 16.1583 26.2818 15.9336Z"
        fill="#D63248" />
    <path fill-rule="evenodd" clip-rule="evenodd"
        d="M25.4851 16.4648C27.3113 17.8002 29.1696 19.106 31.06 20.3819C31.2309 20.4136 31.3637 20.3472 31.4582 20.1827C31.2765 21.0832 30.9668 21.9241 30.529 22.7055C28.1349 21.0662 25.7457 19.4286 23.3613 17.7926C24.031 17.302 24.7389 16.8595 25.4851 16.4648Z"
        fill="#D32F4F" />
    <path fill-rule="evenodd" clip-rule="evenodd"
        d="M0 16.8633C3.5735 19.198 7.11312 21.588 10.6188 24.0334C10.6188 24.3432 10.6188 24.6531 10.6188 24.9629C9.83991 26.476 9.02139 27.981 8.16322 29.4774C8.08636 29.667 8.10848 29.8441 8.22959 30.0085C3.58306 27.3557 0.839864 23.3723 0 18.0583C0 17.66 0 17.2616 0 16.8633Z"
        fill="#DF1D82" />
    <path fill-rule="evenodd" clip-rule="evenodd"
        d="M23.3613 17.793C25.7456 19.429 28.1349 21.0665 30.529 22.7058C30.3642 23.2575 30.0987 23.7444 29.7326 24.1664C28.7728 23.6855 27.8436 23.1322 26.9452 22.5067C25.1431 21.275 23.3734 20.0136 21.6357 18.7224C22.1797 18.3554 22.755 18.0456 23.3613 17.793Z"
        fill="#D12D54" />
    <path fill-rule="evenodd" clip-rule="evenodd"
        d="M21.6358 18.7217C23.3735 20.0128 25.1432 21.2742 26.9452 22.5059C27.8437 23.1314 28.7729 23.6847 29.7327 24.1657C29.3487 24.9475 28.8619 25.6557 28.2726 26.2901C27.816 26.0837 27.3736 25.8403 26.9452 25.5599C24.3552 23.7855 21.789 21.993 19.2466 20.1823C19.9939 19.6307 20.7903 19.1438 21.6358 18.7217Z"
        fill="#CF2A5A" />
    <path fill-rule="evenodd" clip-rule="evenodd"
        d="M19.2467 20.1826C21.7891 21.9933 24.3553 23.7859 26.9454 25.5602C27.3737 25.8406 27.8161 26.084 28.2727 26.2905C27.8303 26.9986 27.2551 27.5741 26.5472 28.0166C23.4033 25.7367 20.2177 23.5236 16.9902 21.3776C17.7249 20.9438 18.4771 20.5455 19.2467 20.1826Z"
        fill="#CD2760" />
    <path fill-rule="evenodd" clip-rule="evenodd"
        d="M16.99 21.3779C20.2174 23.5239 23.4031 25.737 26.5469 28.0169C26.007 28.601 25.3875 29.0878 24.6886 29.4775C24.6306 29.2685 24.4979 29.1136 24.2904 29.0128C21.1414 26.9077 18 24.8054 14.8662 22.7057C15.5359 22.2151 16.2437 21.7726 16.99 21.3779Z"
        fill="#CB2567" />
    <path fill-rule="evenodd" clip-rule="evenodd"
        d="M14.8663 22.7051C18 24.8047 21.1415 26.907 24.2905 29.0121C24.4979 29.1129 24.6307 29.2679 24.6887 29.4769C24.1734 29.8897 23.5981 30.1995 22.9631 30.4063C22.9779 30.3244 23.0221 30.258 23.0959 30.2072C19.8369 27.9807 16.5629 25.7898 13.2734 23.6345C13.7598 23.2581 14.2907 22.9483 14.8663 22.7051Z"
        fill="#C8236D" />
    <path fill-rule="evenodd" clip-rule="evenodd"
        d="M13.2735 23.6348C16.5629 25.7901 19.837 27.9809 23.0959 30.2074C23.0221 30.2582 22.9779 30.3246 22.9632 30.4066C22.3836 30.7401 21.7642 31.0057 21.1049 31.2032C21.1196 31.1213 21.1638 31.0549 21.2376 31.0041C18.0711 28.8233 14.8854 26.6766 11.6807 24.5642C12.142 24.1496 12.673 23.8396 13.2735 23.6348Z"
        fill="#C72172" />
    <path fill-rule="evenodd" clip-rule="evenodd"
        d="M11.6809 24.5645C14.8857 26.6769 18.0713 28.8235 21.2378 31.0043C21.164 31.0551 21.1198 31.1215 21.1051 31.2035C20.0512 31.5553 18.9893 31.8209 17.9195 32.0001C16.6363 32.0001 15.3533 32.0001 14.0701 32.0001C12 31.7082 10.0533 31.0443 8.22979 30.0084C8.10868 29.8441 8.08655 29.6669 8.16342 29.4773C9.02158 27.9809 9.8401 26.476 10.619 24.9628C10.6633 24.9628 10.7075 24.9628 10.7518 24.9628C11.0455 24.7938 11.3552 24.661 11.6809 24.5645Z"
        fill="#C51E78" />
</svg>