<svg width="32" height="32" viewBox="0 0 32 32" fill="none" xmlns="http://www.w3.org/2000/svg">
    <path fill-rule="evenodd" clip-rule="evenodd"
        d="M8.2263 0.00926783C8.44993 1.71753 7.95168 3.17483 6.73141 4.38119C5.44475 5.20976 4.09935 5.30938 2.6952 4.68012C2.09276 4.44755 1.55707 4.11125 1.0882 3.67122C1.05209 3.60037 1.03969 3.52563 1.05082 3.44701C2.10652 1.68367 3.65126 0.600037 5.68498 0.196102C6.52631 0.0538838 7.37339 -0.00836931 8.2263 0.00926783Z"
        fill="#5485C4" />
    <path fill-rule="evenodd" clip-rule="evenodd"
        d="M9.57218 0.0093207C14.7671 -0.0155656 19.9493 0.00939543 25.119 0.0840543C23.4495 0.0715738 21.7803 0.0840543 20.1112 0.121421C20.4016 0.164692 20.4016 0.226945 20.1112 0.308255C20.0613 0.283369 20.0115 0.258408 19.9617 0.233522C19.8399 0.543816 19.6406 0.792903 19.3637 0.980858C19.3921 0.83438 19.3547 0.684913 19.2516 0.532456C19.1153 0.625798 19.1277 0.712938 19.289 0.794024C19.1021 1.01359 18.9152 1.27516 18.7284 1.57873C18.6634 1.20446 18.6136 1.22935 18.5789 1.65346C18.4767 1.57693 18.4145 1.6143 18.392 1.76556C18.5042 2.03049 18.4668 2.06786 18.2799 1.87766C18.2958 2.04589 18.2211 2.19535 18.0557 2.32606C18.0058 2.27622 17.956 2.22644 17.9062 2.1766C17.8055 2.37793 17.7059 2.57724 17.6072 2.77446C17.567 2.51267 17.4549 2.45042 17.2709 2.58763C17.3763 2.61513 17.451 2.67739 17.4951 2.77446C17.4012 2.81407 17.2891 2.81407 17.1587 2.77446C17.1463 2.79935 17.1339 2.82431 17.1214 2.8492C17.408 2.961 17.408 3.03573 17.1214 3.0734C17.0901 3.29304 16.978 3.4674 16.785 3.59653C16.7601 3.5218 16.7352 3.44707 16.7103 3.37233C16.6574 3.49049 16.5952 3.60259 16.5234 3.70864C16.4244 3.69757 16.3372 3.70998 16.2618 3.746C16.212 3.79585 16.212 3.84562 16.2618 3.89547C16.3107 3.80609 16.3481 3.80609 16.3739 3.89547C16.2975 3.95929 16.2353 4.03403 16.1871 4.11967C16.0758 4.06766 15.9637 4.09262 15.8507 4.1944C15.8151 4.38684 15.8151 4.54872 15.8507 4.68017C15.7389 4.71806 15.6517 4.6807 15.5891 4.56807C15.4143 4.69064 15.352 4.8401 15.4022 5.01647C15.3275 5.07873 15.2528 5.14105 15.178 5.20331C15.4853 5.46547 15.4728 5.50284 15.1406 5.31541C15.1832 5.15152 15.1583 5.00205 15.0659 4.86701C14.9355 4.95288 14.9231 5.05257 15.0285 5.16594C14.9367 5.22431 14.837 5.26167 14.7295 5.27804C14.8237 5.36122 14.911 5.3737 14.9912 5.31541C15.0361 5.42489 14.9987 5.49963 14.879 5.53961C14.7422 5.43281 14.5927 5.39545 14.4306 5.42751C14.5852 5.45172 14.6101 5.51405 14.5053 5.61434C14.541 5.68743 14.5907 5.74969 14.6548 5.80118C14.5381 5.82494 14.4509 5.8872 14.3932 5.98801C14.3211 5.85648 14.2338 5.83152 14.1316 5.91328C14.1708 5.96499 14.2207 6.00236 14.2811 6.02538C14.1086 6.14405 14.0587 6.29352 14.1316 6.47378C14.1067 6.48626 14.0817 6.49867 14.0568 6.51115C14.0013 6.40592 13.939 6.3063 13.87 6.21221C13.8451 6.28695 13.8201 6.36168 13.7952 6.43641C13.7704 6.41153 13.7454 6.38657 13.7205 6.36168C13.6723 6.44732 13.61 6.52206 13.5336 6.58588C13.5093 6.73609 13.4844 6.88556 13.4589 7.03428C13.4151 7.01866 13.3777 6.9937 13.3468 6.95955C13.3137 7.12239 13.239 7.17217 13.1225 7.10902C13.0402 7.25056 12.9406 7.30041 12.8236 7.25848C12.7147 7.61997 12.4904 7.7944 12.1509 7.78162C12.1276 7.87444 12.165 7.94917 12.263 8.00582C12.0704 8.10918 12.0954 8.1715 12.3377 8.19265C12.2264 8.32508 12.1018 8.33756 11.964 8.23002C11.8893 8.3546 11.7896 8.45422 11.665 8.52895C11.6806 8.57275 11.7056 8.61012 11.7398 8.64105C11.6152 8.75316 11.4906 8.86526 11.366 8.97736C11.3545 8.87206 11.3421 8.74748 11.3287 8.60369C11.2175 8.65996 11.205 8.72222 11.2913 8.79052C11.2204 8.82662 11.1457 8.83902 11.0671 8.82789C11.0511 8.95075 11.076 9.06285 11.1418 9.16419C11.0855 9.27532 11.0233 9.2878 10.955 9.20156C10.8475 9.30618 10.7852 9.43077 10.7681 9.57523C10.6693 9.58793 10.5821 9.56304 10.5065 9.50049C10.3828 9.66842 10.3579 9.84277 10.4317 10.0236C10.3819 9.97378 10.3321 9.92401 10.2823 9.87416C10.2982 10.0424 10.2234 10.1919 10.058 10.3226C10.0331 10.2977 10.0082 10.2727 9.98327 10.2478C9.79529 10.3679 9.69558 10.5423 9.6843 10.771C9.63713 10.6684 9.58728 10.5688 9.53481 10.472C9.44324 10.4991 9.35609 10.5364 9.2732 10.5841C9.42889 10.6828 9.40393 10.7825 9.19846 10.8831C9.38913 10.9964 9.36424 11.0586 9.12371 11.0699C9.12939 11.3141 9.02976 11.4137 8.82473 11.3688C8.68601 11.4268 8.58637 11.5264 8.52576 11.6678C8.41446 11.6702 8.31483 11.7076 8.22678 11.7799C8.30152 11.8048 8.37627 11.8297 8.45101 11.8546C8.33889 11.9169 8.25167 12.0041 8.18941 12.1162C8.16452 12.0913 8.13955 12.0663 8.11466 12.0414C8.09351 12.2837 8.03117 12.3087 7.9278 12.1162C7.86987 12.2508 7.79513 12.3007 7.70357 12.2656C7.3217 11.6533 6.79849 11.5163 6.13393 11.8546C5.6238 12.443 5.64869 13.0035 6.20868 13.5361C6.25218 13.6514 6.37678 13.7137 6.5824 13.7229C6.49674 13.7711 6.422 13.8334 6.35817 13.9098C6.27527 13.8283 6.20053 13.8283 6.13393 13.9098C6.32012 13.9876 6.32012 14.0498 6.13393 14.0966C6.17833 14.1313 6.22818 14.1438 6.28342 14.134C6.19462 14.1985 6.1074 14.2733 6.02182 14.3582C5.98444 15.8277 5.97196 17.2975 5.98444 18.7675C5.93459 17.285 5.88481 15.7903 5.83495 14.2834C5.74347 14.3781 5.64383 14.4653 5.53598 14.545C5.58583 14.5699 5.63561 14.5949 5.68546 14.6197C5.41773 14.6642 5.39277 14.7639 5.61072 14.9187C5.54906 15.0448 5.47431 15.0573 5.38649 14.956C5.32422 15.0308 5.26189 15.1055 5.19963 15.1802C5.08265 15.1382 4.94557 15.1009 4.78853 15.0681C4.91246 15.1223 4.94983 15.2095 4.90065 15.3297C4.87576 15.2799 4.85079 15.2301 4.8259 15.1802C4.75505 15.5343 4.54329 15.7461 4.19057 15.8155C4.26532 15.8404 4.34006 15.8653 4.41481 15.8902C4.09176 15.9792 4.06687 16.0789 4.34006 16.1892C4.23804 16.3149 4.12592 16.3273 4.00371 16.2265C3.92075 16.3568 3.80863 16.4564 3.66736 16.5255C3.76535 16.5821 3.80273 16.6568 3.77948 16.7497C3.75459 16.7248 3.72963 16.6998 3.70474 16.6749C3.58559 16.7658 3.47348 16.8654 3.36839 16.9739C3.34977 16.893 3.33737 16.7934 3.33101 16.6749C3.26374 16.7698 3.17659 16.8446 3.06941 16.8991C3.10865 16.9508 3.1585 16.9882 3.2189 17.0112C3.16456 17.1158 3.12718 17.2279 3.10678 17.3475C3.05692 17.2977 3.00715 17.2479 2.95729 17.1981C2.8519 17.2942 2.73978 17.3815 2.62094 17.4596C2.68373 17.5841 2.64635 17.5966 2.50882 17.497C2.38512 17.6649 2.36023 17.8393 2.43408 18.0201C2.40919 18.045 2.38422 18.07 2.35933 18.0949C2.3482 17.8872 2.28586 17.8498 2.17247 17.9828C2.19736 18.0076 2.22233 18.0326 2.24722 18.0575C2.10363 18.1762 1.95414 18.2883 1.79875 18.3938C1.74284 18.5307 1.6681 18.6553 1.57452 18.7675C1.63626 18.8385 1.64866 18.9133 1.61189 18.9917C1.30775 18.7755 1.24542 18.8129 1.42503 19.1038C1.34662 19.1405 1.27188 19.1281 1.20079 19.0664C1.13696 19.1428 1.06222 19.205 0.976561 19.2532C1.01072 19.2842 1.03568 19.3215 1.05131 19.3653C0.974917 19.4292 0.912655 19.5039 0.864445 19.5895C0.832529 19.3659 0.745302 19.3285 0.602839 19.4774C0.693354 19.5442 0.693354 19.6064 0.602839 19.6643C0.511651 19.7548 0.424424 19.7548 0.341233 19.6643C0.30715 19.7572 0.344522 19.8195 0.45335 19.8511C0.317614 19.9833 0.193089 20.0705 0.0796273 20.1127C0.145103 20.1688 0.219848 20.2062 0.303861 20.2248C0.200863 20.3245 0.101228 20.3369 0.00488281 20.2621C0.00488281 17.5966 0.00488281 14.9312 0.00488281 12.2656C0.234274 12.3723 0.309018 12.31 0.229116 12.0788C0.316343 12.0414 0.378605 11.9792 0.415978 11.892C0.440867 11.9169 0.465832 11.9418 0.490722 11.9667C0.541847 11.8707 0.529365 11.7835 0.45335 11.7051C0.509632 11.594 0.571895 11.5815 0.640211 11.6678C0.658523 11.5061 0.733268 11.3815 0.864445 11.2941C0.896061 11.4029 0.958324 11.4403 1.05131 11.4062C1.02642 11.3813 1.00145 11.3564 0.976561 11.3315C1.22568 11.182 1.42503 10.9827 1.57452 10.7336C1.68992 10.7119 1.78956 10.6622 1.8735 10.5841C1.82364 10.5592 1.77386 10.5343 1.72401 10.5094C1.95444 10.4507 2.11634 10.3137 2.20985 10.0984C2.28541 10.1609 2.37264 10.1858 2.47145 10.1731C2.60921 9.79995 2.77118 9.42628 2.95729 9.05209C3.01111 9.17256 2.9987 9.28466 2.91992 9.38839C2.99683 9.61685 3.09646 9.61685 3.2189 9.38839C3.14781 9.33473 3.13541 9.27248 3.18152 9.20156C3.29431 9.15746 3.40643 9.10769 3.51787 9.05209C3.49298 9.00224 3.46802 8.95247 3.44313 8.90262C3.6051 8.79441 3.77948 8.70719 3.96634 8.64105C3.82418 8.53688 3.79929 8.39989 3.8916 8.23002C4.01298 8.21956 4.10013 8.2694 4.1532 8.37949C4.21105 8.19721 4.32317 8.06015 4.48955 7.96845C4.41481 7.93109 4.34006 7.89372 4.26532 7.85635C4.18901 7.81884 4.17652 7.76906 4.22795 7.70688C4.32691 7.81002 4.42654 7.83498 4.52693 7.78162C4.55181 7.83147 4.57678 7.88124 4.60167 7.93109C4.52782 7.75023 4.55271 7.57588 4.67641 7.40795C4.7013 7.43284 4.72627 7.4578 4.75116 7.48268C4.8771 7.36931 4.98922 7.24473 5.08751 7.10902C5.23408 7.2617 5.3462 7.21192 5.42386 6.95955C5.49061 7.05005 5.55287 7.05005 5.61072 6.95955C5.55526 6.82129 5.48052 6.77152 5.38649 6.81008C5.50503 6.68505 5.55489 6.53558 5.53598 6.36168C7.5395 5.86567 8.82264 4.62009 9.38532 2.625C9.61247 1.76197 9.6748 0.890057 9.57218 0.0093207Z"
        fill="#4D7FBF" />
    <path fill-rule="evenodd" clip-rule="evenodd"
        d="M8.2261 0.00927734C8.67457 0.00927734 9.12304 0.00927734 9.5715 0.00927734C9.67413 0.890013 9.61179 1.76193 9.38464 2.62495C8.82197 4.62004 7.53883 5.86563 5.5353 6.36164C3.63642 6.52852 1.91729 6.05523 0.37793 4.9417C0.52256 4.40369 0.746794 3.90552 1.05063 3.44702C1.03949 3.52564 1.0519 3.60038 1.088 3.67123C1.55687 4.11126 2.09257 4.44756 2.69501 4.68013C4.09916 5.30939 5.44456 5.20977 6.73121 4.38119C7.95149 3.17484 8.44974 1.71754 8.2261 0.00927734Z"
        fill="#81A8DB" />
    <path fill-rule="evenodd" clip-rule="evenodd"
        d="M25.1189 0.0842712C26.6481 0.128812 28.0184 0.602101 29.2298 1.50421C29.1571 1.54061 29.0824 1.57797 29.0056 1.61631C29.2736 1.76406 29.2861 1.92601 29.043 2.10208C28.9184 2.05223 28.7939 2.00246 28.6693 1.95261C28.6444 1.9775 28.6194 2.00246 28.5945 2.02735C28.6763 2.18384 28.7012 2.35819 28.6693 2.55048C28.6546 2.41701 28.5923 2.31739 28.4824 2.25155C28.3551 2.34922 28.2305 2.48621 28.1087 2.66258C28.1428 2.69352 28.1678 2.73089 28.1834 2.77468C28.051 2.88589 27.9514 3.02287 27.8844 3.18572C27.9343 3.2106 27.9841 3.23556 28.0339 3.26045C27.8722 3.29281 27.7227 3.25544 27.5855 3.14835C27.517 3.15156 27.4671 3.17645 27.436 3.22308C26.4837 2.54749 25.4622 1.98699 24.3714 1.54158C23.4951 1.38127 22.9221 1.71757 22.6523 2.55048C22.6255 2.37628 22.5756 2.38868 22.5028 2.58785C22.5087 2.79501 22.5337 2.99425 22.5776 3.18572C22.4767 3.24341 22.4145 3.33063 22.3907 3.44728C22.2453 3.57291 22.0959 3.62276 21.9423 3.59675C21.9186 3.73135 21.8687 3.75623 21.7928 3.67149C21.7608 3.86378 21.7857 4.03813 21.8675 4.19462C21.7679 4.14477 21.6931 4.07004 21.6433 3.97042C21.5421 4.05898 21.4549 4.15867 21.3817 4.26935C21.2584 4.30112 21.1213 4.30112 20.9706 4.26935C20.8811 4.46284 20.8064 4.66215 20.7463 4.86722C20.7214 4.81738 20.6965 4.7676 20.6716 4.71776C20.6467 4.81738 20.6217 4.91707 20.5968 5.01669C20.572 4.9918 20.547 4.96684 20.5221 4.94196C20.4542 5.08687 20.3421 5.1616 20.1858 5.16616C20.1746 5.24478 20.187 5.31951 20.2231 5.39036C20.3751 5.3518 20.3751 5.40157 20.2231 5.53983C20.1982 5.51494 20.1733 5.48998 20.1484 5.46509C20.1048 5.57734 20.0425 5.67696 19.9615 5.76403C19.8606 5.65566 19.7361 5.60582 19.5878 5.61456C19.5983 5.73593 19.5484 5.82307 19.4383 5.87613C19.4632 5.90101 19.4882 5.92597 19.5131 5.95086C19.2836 6.25316 18.9846 6.46488 18.6161 6.5861C18.6565 6.67936 18.7063 6.76658 18.7656 6.84766C18.6521 6.94863 18.5524 7.06073 18.4666 7.18397C18.3655 7.09541 18.2783 6.99571 18.205 6.88503C18.2055 7.0194 18.2304 7.14398 18.2798 7.2587C18.2244 7.34397 18.162 7.34397 18.0929 7.2587C17.968 7.44389 17.7936 7.55599 17.5697 7.595C17.6338 7.64649 17.6835 7.70875 17.7192 7.78183C17.6274 7.91792 17.5029 7.99266 17.3455 8.00604C17.3572 8.10864 17.3447 8.20834 17.3081 8.30497C17.2458 8.11814 17.1586 8.10566 17.0465 8.2676C17.2046 8.29929 17.2668 8.3865 17.2333 8.52917C17.0781 8.41774 16.8912 8.35542 16.6728 8.34234C16.753 8.39757 16.8029 8.4723 16.8223 8.56654C16.7877 8.7666 16.7254 8.95343 16.6354 9.12704C16.655 9.0186 16.6426 8.91898 16.598 8.82811C16.4519 8.99013 16.4021 9.16456 16.4485 9.35124C16.2993 9.4342 16.1623 9.40923 16.0374 9.27651C16.0125 9.45086 15.9876 9.62529 15.9627 9.79964C15.9066 9.84643 15.8443 9.88379 15.7758 9.91174C15.8583 9.99627 15.8335 10.0586 15.7011 10.0986C15.6318 9.97803 15.5695 9.85353 15.5142 9.72491C15.431 9.81907 15.4186 9.90629 15.4769 9.98648C15.014 10.0025 15.0015 10.1146 15.4395 10.3228C15.5313 10.1399 15.6435 10.1275 15.7758 10.2854C15.601 10.3843 15.4391 10.4964 15.29 10.6217C15.0758 10.7112 14.864 10.7112 14.6547 10.6217C14.6796 10.6716 14.7045 10.7213 14.7294 10.7712C14.653 10.835 14.5908 10.9097 14.5425 10.9954C14.4672 11.0314 14.38 11.0438 14.2809 11.0327C14.4315 11.149 14.4564 11.286 14.3557 11.4438C14.2062 11.5434 14.0567 11.6431 13.9072 11.7427C13.7903 11.6914 13.6657 11.7039 13.5335 11.7801C13.6543 11.826 13.7539 11.9008 13.8325 12.0043C13.7615 12.0504 13.6993 12.038 13.6456 11.9669C13.6177 12.0354 13.5803 12.0977 13.5335 12.1538C13.2901 12.266 13.041 12.3656 12.786 12.4527C12.8608 12.4776 12.9355 12.5025 13.0103 12.5274C12.8967 12.6184 12.8095 12.7305 12.7487 12.8637C12.7257 12.8033 12.6883 12.7535 12.6366 12.7143C12.5434 12.8268 12.5434 12.9389 12.6366 13.0506C12.4717 13.1236 12.3222 13.2107 12.1881 13.3121C11.4392 13.1964 10.7914 13.3958 10.2447 13.91C10.2166 13.6327 10.0671 13.4833 9.79627 13.4616C9.36955 13.5116 8.97087 13.6361 8.60036 13.8353C8.52681 14.9527 8.50192 16.0737 8.52561 17.1983C8.45662 17.1383 8.38188 17.1258 8.30138 17.1609C8.40101 17.2984 8.38853 17.3358 8.26401 17.273C8.04994 17.7828 7.86308 17.7704 7.70342 17.2356C7.71426 17.1779 7.73915 17.1281 7.77817 17.0862C7.73205 16.916 7.6822 16.7541 7.62868 16.6004C7.64116 15.8028 7.62868 15.0057 7.59131 14.2089C7.4975 14.0524 7.3605 13.9777 7.18021 13.9847C6.88206 14.0444 6.58308 14.0942 6.28328 14.1342C6.22804 14.144 6.17819 14.1315 6.13379 14.0968C6.31998 14.05 6.31998 13.9878 6.13379 13.91C6.20039 13.8285 6.27513 13.8285 6.35802 13.91C6.42185 13.8336 6.4966 13.7714 6.58226 13.7232C6.37663 13.7139 6.25203 13.6516 6.20853 13.5363C7.25638 13.7591 7.7547 13.3356 7.70342 12.2659C7.79499 12.3009 7.86973 12.2511 7.92766 12.1164C8.03103 12.3089 8.09337 12.2839 8.11452 12.0417C8.13941 12.0665 8.16437 12.0915 8.18926 12.1164C8.25152 12.0043 8.33875 11.9171 8.45087 11.8548C8.37612 11.8299 8.30138 11.805 8.22664 11.7801C8.31468 11.7078 8.41432 11.6704 8.52561 11.668C8.58623 11.5267 8.68587 11.427 8.82459 11.369C9.02962 11.414 9.12925 11.3143 9.12357 11.0701C9.3641 11.0588 9.38899 10.9966 9.19831 10.8833C9.40379 10.7827 9.42875 10.683 9.27306 10.5843C9.35595 10.5367 9.4431 10.4993 9.53466 10.4722C9.58713 10.569 9.63699 10.6686 9.68415 10.7712C9.69544 10.5425 9.79515 10.3681 9.98313 10.248C10.008 10.2729 10.033 10.2979 10.0579 10.3228C10.2233 10.1921 10.298 10.0426 10.2821 9.87438C10.332 9.92422 10.3817 9.974 10.4316 10.0238C10.3578 9.84299 10.3826 9.66863 10.5063 9.50071C10.5819 9.56326 10.6691 9.58815 10.7679 9.57544C10.7851 9.43098 10.8473 9.3064 10.9548 9.20177C11.0231 9.28802 11.0854 9.27554 11.1417 9.16441C11.0759 9.06307 11.0509 8.95097 11.0669 8.82811C11.1456 8.83924 11.2203 8.82684 11.2912 8.79074C11.2049 8.72243 11.2174 8.66018 11.3285 8.6039C11.3419 8.74769 11.3544 8.87227 11.3659 8.97757C11.4905 8.86547 11.615 8.75337 11.7396 8.64127C11.7055 8.61033 11.6805 8.57297 11.6649 8.52917C11.7895 8.45444 11.8891 8.35482 11.9639 8.23024C12.1016 8.33778 12.2262 8.3253 12.3376 8.19287C12.0953 8.17172 12.0703 8.10939 12.2628 8.00604C12.1648 7.94939 12.1275 7.87465 12.1507 7.78183C12.4903 7.79461 12.7145 7.62019 12.8234 7.2587C12.9405 7.30062 13.0401 7.25078 13.1224 7.10923C13.2389 7.17238 13.3136 7.12261 13.3466 6.95976C13.3776 6.99392 13.4149 7.01888 13.4588 7.0345C13.4842 6.88578 13.5091 6.73631 13.5335 6.5861C13.6099 6.52227 13.6721 6.44754 13.7204 6.3619C13.7452 6.38678 13.7702 6.41174 13.7951 6.43663C13.82 6.3619 13.845 6.28716 13.8698 6.21243C13.9388 6.30652 14.0012 6.40614 14.0567 6.51136C14.0816 6.49888 14.1066 6.48648 14.1315 6.474C14.0586 6.29374 14.1084 6.14427 14.2809 6.02559C14.2205 6.00258 14.1707 5.96521 14.1315 5.91349C14.2337 5.83174 14.3209 5.8567 14.3931 5.98823C14.4508 5.88741 14.538 5.82516 14.6547 5.80139C14.5906 5.7499 14.5408 5.68765 14.5052 5.61456C14.61 5.51427 14.5851 5.45194 14.4304 5.42773C14.5925 5.39566 14.742 5.43303 14.8789 5.53983C14.9986 5.49984 15.0359 5.42511 14.991 5.31563C14.9108 5.37392 14.8236 5.36144 14.7294 5.27826C14.8369 5.26189 14.9365 5.22452 15.0284 5.16616C14.9229 5.05279 14.9354 4.95309 15.0658 4.86722C15.1581 5.00227 15.1831 5.15173 15.1405 5.31563C15.4727 5.50306 15.4851 5.46569 15.1779 5.20352C15.2526 5.14127 15.3274 5.07894 15.4021 5.01669C15.3519 4.84032 15.4141 4.69085 15.589 4.56829C15.6515 4.68091 15.7388 4.71828 15.8506 4.68039C15.8149 4.54893 15.8149 4.38706 15.8506 4.19462C15.9636 4.09283 16.0757 4.06787 16.1869 4.11989C16.2351 4.03424 16.2974 3.95951 16.3738 3.89569C16.3479 3.8063 16.3106 3.8063 16.2617 3.89569C16.2118 3.84584 16.2118 3.79607 16.2617 3.74622C16.337 3.7102 16.4242 3.69779 16.5233 3.70885C16.595 3.60281 16.6573 3.4907 16.7101 3.37255C16.735 3.44728 16.76 3.52202 16.7849 3.59675C16.9779 3.46761 17.09 3.29326 17.1212 3.07362C17.4079 3.03595 17.4079 2.96122 17.1212 2.84942C17.1337 2.82453 17.1461 2.79957 17.1586 2.77468C17.289 2.81429 17.4011 2.81429 17.495 2.77468C17.4509 2.6776 17.3761 2.61535 17.2707 2.58785C17.4547 2.45064 17.5669 2.51289 17.6071 2.77468C17.7057 2.57746 17.8054 2.37815 17.906 2.17681C17.9559 2.22666 18.0057 2.27643 18.0555 2.32628C18.2209 2.19557 18.2957 2.0461 18.2798 1.87788C18.4667 2.06808 18.5041 2.03071 18.3919 1.76578C18.4143 1.61452 18.4766 1.57715 18.5787 1.65368C18.6134 1.22956 18.6633 1.20468 18.7282 1.57894C18.9151 1.27538 19.102 1.01381 19.2888 0.794241C19.1276 0.713155 19.1151 0.626015 19.2514 0.532673C19.3546 0.68513 19.392 0.834597 19.3636 0.981075C19.6404 0.79312 19.8398 0.544032 19.9615 0.233738C20.0114 0.258625 20.0612 0.283586 20.111 0.308472C20.4015 0.227162 20.4015 0.164909 20.111 0.121638C21.7801 0.0842712 23.4494 0.0717907 25.1189 0.0842712Z"
        fill="#487BBC" />
    <path fill-rule="evenodd" clip-rule="evenodd"
        d="M27.4357 3.22276C29.3926 4.69411 30.4515 6.66207 30.6123 9.12671C30.8634 9.89116 31.2745 10.5513 31.8456 11.1072C31.89 11.1418 31.9398 11.1543 31.9951 11.1445C31.9951 12.1908 31.9951 13.2371 31.9951 14.2833C31.5944 14.0582 31.1958 13.834 30.7992 13.6107C30.4773 13.3017 30.141 13.0028 29.7901 12.7139C29.5103 12.3977 29.2487 12.0738 29.0053 11.7424C28.4621 10.8565 28.0883 9.90985 27.8841 8.90251C27.8009 7.34006 27.1033 6.14432 25.7913 5.3153C25.0318 4.6983 24.1847 4.21253 23.25 3.85799C22.8378 3.51952 22.6385 3.0836 22.652 2.55015C22.9218 1.71725 23.4948 1.38095 24.3711 1.54125C25.4619 1.98666 26.4834 2.54717 27.4357 3.22276Z"
        fill="#81A8DB" />
    <path fill-rule="evenodd" clip-rule="evenodd"
        d="M29.2294 1.50391C30.9482 2.87303 31.8575 4.66663 31.9576 6.88473C31.995 8.30444 32.0074 9.72438 31.995 11.1445C31.9397 11.1543 31.8899 11.1419 31.8455 11.1072C31.2743 10.5513 30.8633 9.89119 30.6122 9.12674C30.4514 6.6621 29.3925 4.69414 27.4355 3.22278C27.4667 3.17615 27.5166 3.15126 27.585 3.14805C27.7223 3.25514 27.8718 3.29251 28.0335 3.26015C27.9836 3.23526 27.9339 3.2103 27.884 3.18541C27.951 3.02257 28.0506 2.88558 28.183 2.77438C28.1674 2.73058 28.1424 2.69322 28.1082 2.66228C28.2301 2.48591 28.3547 2.34892 28.482 2.25124C28.5919 2.31708 28.6542 2.4167 28.6688 2.55018C28.7008 2.35789 28.6759 2.18353 28.5941 2.02704C28.619 2.00216 28.6439 1.97719 28.6688 1.95231C28.7934 2.00216 28.918 2.05193 29.0426 2.10178C29.2857 1.9257 29.2732 1.76376 29.0052 1.61601C29.0819 1.57767 29.1567 1.5403 29.2294 1.50391Z"
        fill="#4074B7" />
    <path fill-rule="evenodd" clip-rule="evenodd"
        d="M22.6527 2.55017C22.6392 3.08362 22.8385 3.51954 23.2507 3.85801C24.1854 4.21255 25.0325 4.69832 25.792 5.31532C25.7032 5.4038 25.616 5.4038 25.5304 5.31532C25.5035 5.54281 25.4537 5.56777 25.3809 5.39005C25.348 5.50783 25.2857 5.60753 25.194 5.68899C25.2725 5.80871 25.2226 5.87096 25.0445 5.87582C25.0944 5.90071 25.1442 5.92567 25.194 5.95055C25.0932 6.00825 25.0309 6.09546 25.0072 6.21212C24.9312 6.12737 24.8814 6.15226 24.8577 6.28686C24.7954 6.10002 24.7082 6.08754 24.5961 6.24949C24.6893 6.36114 24.6893 6.47324 24.5961 6.58579C24.5298 6.52414 24.505 6.4494 24.5213 6.36159C24.4427 6.35045 24.3679 6.36286 24.2971 6.39896C24.3682 6.45262 24.3806 6.51487 24.3345 6.58579C24.2808 6.51472 24.2185 6.50231 24.1476 6.54842C24.2223 6.62316 24.2971 6.69789 24.3718 6.77262C24.2348 6.80999 24.1476 6.89721 24.1102 7.03419C24.0418 6.97231 23.9921 6.89758 23.9607 6.80999C23.9358 6.95946 23.9109 7.10893 23.886 7.25839C23.8611 7.18366 23.8361 7.10893 23.8112 7.03419C23.6742 7.14629 23.5372 7.25839 23.4002 7.37049C23.45 7.39538 23.4998 7.42034 23.5496 7.44523C23.3896 7.54298 23.2401 7.65508 23.1012 7.78153C23.1404 7.83324 23.1903 7.87061 23.2507 7.89363C23.0829 8.06918 22.9957 8.03181 22.9891 7.78153C22.9392 7.88115 22.8894 7.88115 22.8396 7.78153C22.8163 7.87435 22.8537 7.94908 22.9517 8.00573C22.834 8.11663 22.7344 8.24122 22.6527 8.3794C22.4912 8.41938 22.3417 8.48163 22.2042 8.56623C22.5032 8.61608 22.5032 8.66585 22.2042 8.7157C22.3039 8.85321 22.2914 8.89058 22.1669 8.8278C22.1483 8.9118 22.1109 8.98653 22.0548 9.052C21.8634 8.98212 21.8136 9.04445 21.9053 9.23883C21.7886 9.2626 21.7014 9.32485 21.6437 9.42567C21.6188 9.40078 21.5938 9.37582 21.5689 9.35093C21.5337 9.48142 21.4839 9.606 21.4194 9.7246C21.3329 9.68739 21.2706 9.62513 21.2326 9.53777C21.2917 9.45549 21.2917 9.39323 21.2326 9.35093C21.0118 9.56983 21.0367 9.75666 21.3073 9.91144C21.1906 9.9352 21.1034 9.99746 21.0457 10.0983C21.0227 10.0379 20.9853 9.98804 20.9336 9.9488C20.8424 10.0393 20.7552 10.0393 20.672 9.9488C20.6097 10.0111 20.5474 10.0734 20.4851 10.1356C20.66 10.0939 20.8095 10.1063 20.9336 10.173C20.7824 10.2743 20.6329 10.2992 20.4851 10.2477C20.429 10.3132 20.3916 10.3879 20.373 10.4719C20.3481 10.4471 20.3231 10.4221 20.2983 10.3972C20.3163 10.5196 20.3786 10.6317 20.4851 10.7335C20.3107 10.8264 20.2609 10.9509 20.3356 11.1072C20.2672 11.1351 20.2048 11.1725 20.1488 11.2193C20.1488 11.1197 20.1488 11.02 20.1488 10.9203C20.0989 10.8207 20.0491 10.8207 19.9993 10.9203C19.968 10.8328 19.9182 10.758 19.8498 10.6961C19.8037 10.7671 19.8161 10.8293 19.8872 10.883C19.7278 11.0098 19.6282 11.1717 19.5882 11.3687C19.4492 11.3658 19.3496 11.4281 19.2892 11.5556C19.3391 11.5805 19.3888 11.6054 19.4387 11.6303C19.2684 11.6657 19.1189 11.7404 18.9902 11.8545C19.1536 11.8997 19.166 11.9868 19.0276 12.1161C19.0027 12.0662 18.9777 12.0165 18.9529 11.9666C18.7903 12.023 18.6284 12.0853 18.467 12.1534C18.4919 12.1783 18.5169 12.2033 18.5418 12.2282C18.4421 12.278 18.3424 12.3278 18.2428 12.3776C18.4494 12.4091 18.5367 12.5212 18.5044 12.7139C18.4529 12.6499 18.3906 12.6001 18.3175 12.5645C18.3315 12.6629 18.2816 12.7625 18.168 12.8634C18.0584 12.8467 17.9463 12.8219 17.8317 12.7887C17.7943 12.826 17.7569 12.8634 17.7196 12.9008C17.878 12.9081 18.0026 12.9704 18.0933 13.0876C18.0134 13.0981 17.9262 13.0981 17.8317 13.0876C17.7498 13.1768 17.6876 13.2765 17.6448 13.3866C17.123 13.3194 16.5997 13.307 16.0752 13.3492C14.9007 13.6258 14.365 14.3606 14.4682 15.5538C14.5419 15.8009 14.654 16.0251 14.8045 16.2264C14.668 16.3805 14.4936 16.4801 14.2813 16.5254C14.4739 16.6287 14.4489 16.691 14.2066 16.7122C14.2813 16.7371 14.3561 16.762 14.4308 16.7869C14.2496 16.8088 14.1125 16.896 14.0197 17.0485C13.9948 17.0236 13.9699 16.9987 13.945 16.9738C13.8615 16.2207 13.7992 15.4733 13.7581 14.7318C13.4515 14.0269 12.9283 13.5537 12.1885 13.3118C12.3226 13.2104 12.4721 13.1233 12.6369 13.0502C12.5437 12.9386 12.5437 12.8265 12.6369 12.7139C12.6887 12.7532 12.726 12.803 12.7491 12.8634C12.8099 12.7302 12.8971 12.6181 13.0107 12.5271C12.9359 12.5022 12.8612 12.4773 12.7864 12.4524C13.0414 12.3653 13.2905 12.2657 13.5339 12.1534C13.5807 12.0974 13.618 12.0351 13.646 11.9666C13.6997 12.0377 13.7619 12.0501 13.8329 12.004C13.7543 11.9005 13.6547 11.8257 13.5339 11.7798C13.6661 11.7036 13.7907 11.6911 13.9076 11.7424C14.0571 11.6428 14.2066 11.5431 14.3561 11.4435C14.4568 11.2857 14.4319 11.1487 14.2813 11.0324C14.3804 11.0435 14.4676 11.0311 14.5429 10.9951C14.5911 10.9094 14.6534 10.8347 14.7298 10.7709C14.7049 10.721 14.6799 10.6713 14.655 10.6214C14.8644 10.7109 15.0762 10.7109 15.2904 10.6214C15.4395 10.4961 15.6014 10.384 15.7762 10.2851C15.6438 10.1272 15.5317 10.1396 15.4399 10.3225C15.0019 10.1143 15.0143 10.0022 15.4772 9.98617C15.4189 9.90598 15.4314 9.81877 15.5146 9.7246C15.5698 9.85322 15.6322 9.97773 15.7015 10.0983C15.8338 10.0583 15.8587 9.99596 15.7762 9.91144C15.8447 9.88349 15.907 9.84612 15.9631 9.79934C15.988 9.62498 16.0129 9.45055 16.0378 9.2762C16.1627 9.40893 16.2997 9.43389 16.4489 9.35093C16.4025 9.16425 16.4523 8.98982 16.5984 8.8278C16.6429 8.91868 16.6554 9.0183 16.6358 9.12673C16.7258 8.95313 16.7881 8.76629 16.8226 8.56623C16.8033 8.47199 16.7534 8.39726 16.6731 8.34203C16.8916 8.35511 17.0785 8.41744 17.2337 8.52886C17.2672 8.3862 17.205 8.29898 17.0469 8.2673C17.159 8.10535 17.2462 8.11783 17.3085 8.30466C17.3451 8.20803 17.3576 8.10834 17.3458 8.00573C17.5033 7.99235 17.6278 7.91762 17.7196 7.78153C17.6839 7.70844 17.6341 7.64619 17.5701 7.59469C17.794 7.55568 17.9684 7.44358 18.0933 7.25839C18.1624 7.34366 18.2248 7.34366 18.2802 7.25839C18.2307 7.14368 18.2059 7.0191 18.2054 6.88473C18.2787 6.99541 18.3659 7.0951 18.467 7.18366C18.5528 7.06042 18.6525 6.94832 18.766 6.84736C18.7067 6.76627 18.6569 6.67906 18.6165 6.58579C18.985 6.46457 19.284 6.25285 19.5134 5.95055C19.4885 5.92567 19.4636 5.90071 19.4387 5.87582C19.5488 5.82276 19.5986 5.73562 19.5882 5.61425C19.7365 5.60551 19.861 5.65536 19.9619 5.76372C20.0429 5.67666 20.1052 5.57704 20.1488 5.46479C20.1737 5.48967 20.1986 5.51463 20.2235 5.53952C20.3755 5.40126 20.3755 5.35149 20.2235 5.39005C20.1874 5.31921 20.175 5.24447 20.1861 5.16585C20.3425 5.16129 20.4546 5.08656 20.5225 4.94165C20.5474 4.96654 20.5723 4.9915 20.5972 5.01638C20.6221 4.91676 20.6471 4.81707 20.672 4.71745C20.6969 4.7673 20.7218 4.81707 20.7467 4.86692C20.8067 4.66185 20.8815 4.46253 20.971 4.26905C21.1217 4.30081 21.2588 4.30081 21.3821 4.26905C21.4553 4.15837 21.5425 4.05867 21.6437 3.97011C21.6935 4.06973 21.7683 4.14447 21.8679 4.19431C21.7861 4.03782 21.7612 3.86347 21.7931 3.67118C21.8691 3.75593 21.9189 3.73104 21.9426 3.59645C22.0962 3.62245 22.2457 3.57261 22.3911 3.44698C22.4149 3.33032 22.4771 3.2431 22.578 3.18541C22.5341 2.99394 22.5091 2.7947 22.5032 2.58754C22.576 2.38838 22.6259 2.37597 22.6527 2.55017Z"
        fill="#4578BA" />
    <path fill-rule="evenodd" clip-rule="evenodd"
        d="M25.7918 5.31543C27.1038 6.14445 27.8014 7.34019 27.8847 8.90264C27.8131 8.9365 27.7507 8.98627 27.6978 9.05211C27.6703 8.94674 27.6081 8.872 27.511 8.82791C27.4826 8.94158 27.4701 9.06609 27.4736 9.20158C27.4487 9.17669 27.4237 9.15173 27.3988 9.12684C27.3241 9.27631 27.2494 9.42578 27.1746 9.57525C27.0188 9.48953 26.9066 9.53937 26.8383 9.72471C26.7865 9.68548 26.7492 9.63563 26.7261 9.57525C26.6982 9.6437 26.6608 9.70603 26.614 9.76208C26.7016 9.79339 26.7764 9.84317 26.8383 9.91155C26.7216 9.93531 26.6344 9.99757 26.5767 10.0984C26.5536 10.038 26.5163 9.98815 26.4645 9.94891C26.397 10.1251 26.2724 10.2372 26.0908 10.2852C26.1407 10.3101 26.1904 10.3351 26.2403 10.3599C26.1718 10.5843 26.0223 10.7213 25.7918 10.771C25.6823 10.6881 25.6076 10.7255 25.5676 10.8831C25.666 11.0309 25.6286 11.143 25.4555 11.2194C25.2324 11.0544 25.22 11.0918 25.4181 11.3315C25.2811 11.3689 25.1939 11.4561 25.1565 11.5931C24.8791 11.388 24.8417 11.4254 25.0444 11.7052C24.9735 11.7513 24.9112 11.7389 24.8575 11.6678C24.6923 11.7524 24.655 11.8645 24.7454 12.0041C24.6243 12.2516 24.5993 12.2516 24.6707 12.0041C24.6333 11.9667 24.5959 11.9294 24.5586 11.892C24.5087 11.9916 24.4589 12.0913 24.4091 12.1909C24.3473 12.0486 24.2601 12.0236 24.1475 12.1162C24.1831 12.1893 24.2329 12.2515 24.2969 12.303C24.2089 12.3753 24.1093 12.4127 23.998 12.4151C24.0673 12.5099 24.0798 12.6095 24.0353 12.7141C23.9541 12.5323 23.9167 12.5573 23.9232 12.7888C23.8354 12.7724 23.7607 12.7973 23.699 12.8635C23.7742 12.9305 23.7742 12.9803 23.699 13.013C23.6367 12.9383 23.5744 12.8635 23.5121 12.7888C23.4774 12.8957 23.415 12.9829 23.3253 13.0504C23.3594 13.0813 23.3844 13.1187 23.4 13.1625C23.2991 13.2708 23.1746 13.3207 23.0263 13.3119C20.8091 13.2867 19.7129 14.3829 19.7375 16.6002C19.6765 16.4157 19.6391 16.2165 19.6254 16.0023C19.6283 16.3493 19.5535 16.6731 19.4012 16.9739C19.3726 16.9323 19.3352 16.9074 19.2891 16.8991C19.0031 16.2533 18.5048 15.8672 17.7942 15.7408C17.3419 15.6571 16.8934 15.5574 16.4488 15.4418C15.9861 15.2235 15.9612 14.9743 16.374 14.6945C16.7071 14.6297 17.031 14.6546 17.3457 14.7692C17.5377 14.9545 17.7121 15.1538 17.8689 15.3671C19.3325 15.3557 19.5318 14.8325 18.4669 13.7977C18.204 13.6239 17.93 13.4868 17.6447 13.3867C17.6874 13.2766 17.7497 13.1769 17.8315 13.0877C17.926 13.0982 18.0132 13.0982 18.0932 13.0877C18.0024 12.9705 17.8778 12.9082 17.7194 12.9009C17.7568 12.8635 17.7942 12.8262 17.8315 12.7888C17.9461 12.822 18.0582 12.8469 18.1679 12.8635C18.2815 12.7626 18.3314 12.663 18.3174 12.5646C18.3905 12.6002 18.4527 12.65 18.5042 12.7141C18.5365 12.5213 18.4493 12.4092 18.2426 12.3778C18.3423 12.3279 18.442 12.2781 18.5416 12.2283C18.5167 12.2034 18.4918 12.1784 18.4669 12.1536C18.6282 12.0854 18.7901 12.0231 18.9527 11.9667C18.9776 12.0166 19.0026 12.0663 19.0275 12.1162C19.1659 11.9869 19.1535 11.8998 18.9901 11.8546C19.1187 11.7405 19.2682 11.6658 19.4386 11.6304C19.3887 11.6055 19.3389 11.5806 19.2891 11.5557C19.3495 11.4282 19.4491 11.3659 19.588 11.3689C19.628 11.1719 19.7277 11.0099 19.887 10.8831C19.8159 10.8294 19.8035 10.7672 19.8496 10.6963C19.918 10.7581 19.9678 10.8329 19.9991 10.9205C20.049 10.8208 20.0988 10.8208 20.1486 10.9205C20.1486 11.0201 20.1486 11.1198 20.1486 11.2194C20.2047 11.1726 20.267 11.1352 20.3355 11.1073C20.2607 10.951 20.3106 10.8265 20.485 10.7336C20.3785 10.6318 20.3162 10.5197 20.2981 10.3973C20.323 10.4222 20.348 10.4472 20.3729 10.4721C20.3915 10.388 20.4288 10.3133 20.485 10.2478C20.6327 10.2993 20.7822 10.2744 20.9334 10.1731C20.8094 10.1065 20.6599 10.094 20.485 10.1357C20.5472 10.0735 20.6096 10.0112 20.6718 9.94891C20.755 10.0394 20.8423 10.0394 20.9334 9.94891C20.9852 9.98815 21.0225 10.038 21.0456 10.0984C21.1033 9.99757 21.1905 9.93531 21.3072 9.91155C21.0365 9.75677 21.0116 9.56994 21.2324 9.35105C21.2915 9.39334 21.2915 9.4556 21.2324 9.53788C21.2705 9.62524 21.3327 9.6875 21.4193 9.72471C21.4837 9.60611 21.5336 9.48153 21.5688 9.35105C21.5937 9.37593 21.6186 9.40089 21.6435 9.42578C21.7012 9.32496 21.7884 9.26271 21.9051 9.23895C21.8135 9.04456 21.8633 8.98224 22.0546 9.05211C22.1107 8.98664 22.1481 8.91191 22.1667 8.82791C22.2913 8.89069 22.3037 8.85332 22.2041 8.71581C22.5031 8.66596 22.5031 8.61619 22.2041 8.56634C22.3416 8.48174 22.491 8.41949 22.6526 8.37951C22.7343 8.24133 22.8339 8.11675 22.9515 8.00584C22.8536 7.94919 22.8162 7.87446 22.8394 7.78164C22.8893 7.88126 22.9391 7.88126 22.9889 7.78164C22.9956 8.03192 23.0828 8.06929 23.2505 7.89374C23.1901 7.87072 23.1403 7.83336 23.101 7.78164C23.24 7.65519 23.3895 7.54309 23.5495 7.44534C23.4996 7.42045 23.4499 7.39549 23.4 7.3706C23.537 7.2585 23.6741 7.1464 23.8111 7.0343C23.836 7.10904 23.861 7.18377 23.8858 7.2585C23.9107 7.10904 23.9357 6.95957 23.9606 6.8101C23.9919 6.89769 24.0417 6.97242 24.1101 7.0343C24.1475 6.89732 24.2347 6.8101 24.3717 6.77274C24.2969 6.698 24.2222 6.62327 24.1475 6.54853C24.2184 6.50242 24.2807 6.51483 24.3343 6.5859C24.3804 6.51498 24.368 6.45273 24.2969 6.39907C24.3678 6.36297 24.4425 6.35057 24.5212 6.3617C24.5048 6.44951 24.5297 6.52425 24.5959 6.5859C24.6891 6.47335 24.6891 6.36125 24.5959 6.2496C24.708 6.08765 24.7953 6.10013 24.8575 6.28697C24.8812 6.15237 24.9311 6.12749 25.007 6.21223C25.0308 6.09557 25.093 6.00836 25.1939 5.95067C25.144 5.92578 25.0942 5.90082 25.0444 5.87593C25.2225 5.87107 25.2724 5.80882 25.1939 5.6891C25.2856 5.60764 25.3479 5.50794 25.3807 5.39016C25.4535 5.56788 25.5034 5.54292 25.5302 5.31543C25.6158 5.40391 25.703 5.40391 25.7918 5.31543Z"
        fill="#4175B8" />
    <path fill-rule="evenodd" clip-rule="evenodd"
        d="M0.378405 4.94189C1.91777 6.05543 3.63689 6.52871 5.53577 6.36183C5.55469 6.53574 5.50483 6.68521 5.38629 6.81024C5.48031 6.77167 5.55506 6.82145 5.61052 6.9597C5.55267 7.0502 5.4904 7.0502 5.42366 6.9597C5.346 7.21208 5.23388 7.26185 5.08731 7.10917C4.98902 7.24489 4.8769 7.36947 4.75096 7.48284C4.72607 7.45795 4.7011 7.43299 4.67621 7.4081C4.55251 7.57603 4.52762 7.75038 4.60147 7.93124C4.57658 7.88139 4.55161 7.83162 4.52672 7.78177C4.42634 7.83513 4.32671 7.81017 4.22775 7.70704C4.17632 7.76922 4.1888 7.81899 4.26512 7.85651C4.33986 7.89387 4.41461 7.93124 4.48935 7.96861C4.32297 8.0603 4.21085 8.19737 4.153 8.37964C4.09993 8.26956 4.01278 8.21971 3.8914 8.23017C3.79909 8.40004 3.82398 8.53703 3.96614 8.64121C3.77928 8.70735 3.6049 8.79456 3.44293 8.90278C3.46782 8.95262 3.49278 9.0024 3.51767 9.05224C3.40623 9.10785 3.29411 9.15762 3.18132 9.20171C3.13521 9.27263 3.14761 9.33489 3.2187 9.38855C3.09626 9.61701 2.99663 9.61701 2.91972 9.38855C2.9985 9.28482 3.01091 9.17271 2.95709 9.05224C2.77098 9.42644 2.609 9.8001 2.47125 10.1732C2.37244 10.186 2.28521 10.1611 2.20964 10.0985C2.11614 10.3138 1.95424 10.4508 1.72381 10.5095C1.77366 10.5344 1.82344 10.5594 1.87329 10.5843C1.78936 10.6623 1.68972 10.7121 1.57432 10.7338C1.42483 10.9828 1.22548 11.1822 0.976361 11.3316C1.00125 11.3565 1.02622 11.3815 1.05111 11.4064C0.958123 11.4404 0.895861 11.4031 0.864244 11.2943C0.733067 11.3817 0.658323 11.5063 0.64001 11.6679C0.571694 11.5817 0.509432 11.5942 0.453149 11.7053C0.529164 11.7837 0.541647 11.8709 0.490521 11.9669C0.465631 11.942 0.440667 11.917 0.415777 11.8921C0.378405 11.9793 0.316142 12.0416 0.228916 12.079C0.308817 12.3102 0.234073 12.3724 0.00468204 12.2658C-0.00780029 10.472 0.00468204 8.67843 0.0420543 6.88497C0.0730733 6.21976 0.18519 5.57205 0.378405 4.94189Z"
        fill="#5283C2" />
    <path fill-rule="evenodd" clip-rule="evenodd"
        d="M27.8848 8.90237C28.089 9.9097 28.4627 10.8564 29.0059 11.7422C28.7879 11.8677 28.7007 12.042 28.7443 12.2654C28.5532 12.1797 28.4536 12.2545 28.4453 12.4896C28.4205 12.4397 28.3955 12.39 28.3706 12.3401C28.287 12.4187 28.2496 12.506 28.2585 12.6017C28.1445 12.6771 28.0199 12.7145 27.8848 12.7138C27.9083 12.8428 27.9207 12.9674 27.9221 13.0875C27.8972 13.0626 27.8723 13.0376 27.8474 13.0127C27.8049 13.3013 27.7426 13.3013 27.6605 13.0127C27.6356 13.0252 27.6107 13.0376 27.5858 13.0501C27.6362 13.1809 27.661 13.3055 27.6605 13.4238C27.5489 13.526 27.4368 13.5385 27.3242 13.4611C27.2033 13.5385 27.1908 13.6258 27.2868 13.7227C27.2121 13.7725 27.1373 13.7725 27.0626 13.7227C27.1483 13.627 27.1233 13.6021 26.9878 13.648C26.852 13.7825 26.7648 13.9443 26.7262 14.1337C26.4725 14.2911 26.2607 14.4904 26.0909 14.7316C26.0783 14.6646 26.0534 14.5898 26.0161 14.5074C25.9383 14.6936 25.8761 14.6936 25.8293 14.5074C25.7953 14.7552 25.6583 14.9171 25.4182 14.9932C25.6129 14.9951 25.7001 15.0823 25.6798 15.2547C25.5814 15.0658 25.4942 15.0658 25.4182 15.2547C25.3665 15.2155 25.3291 15.1656 25.3061 15.1053C25.2763 15.1223 25.2638 15.1473 25.2687 15.18C24.8371 14.1753 24.0897 13.5525 23.0264 13.3117C23.1747 13.3204 23.2992 13.2706 23.4001 13.1622C23.3845 13.1184 23.3595 13.081 23.3253 13.0501C23.4151 12.9826 23.4775 12.8955 23.5122 12.7885C23.5745 12.8633 23.6368 12.938 23.6991 13.0127C23.7743 12.98 23.7743 12.9302 23.6991 12.8633C23.7607 12.797 23.8355 12.7722 23.9233 12.7885C23.9168 12.557 23.9542 12.532 24.0354 12.7138C24.0799 12.6092 24.0674 12.5096 23.998 12.4149C24.1093 12.4124 24.209 12.375 24.297 12.3028C24.233 12.2513 24.1832 12.189 24.1475 12.1159C24.2602 12.0233 24.3474 12.0483 24.4091 12.1907C24.459 12.091 24.5088 11.9913 24.5586 11.8917C24.596 11.9291 24.6334 11.9664 24.6707 12.0038C24.5994 12.2513 24.6243 12.2513 24.7455 12.0038C24.655 11.8642 24.6924 11.7521 24.8576 11.6675C24.9113 11.7386 24.9735 11.751 25.0445 11.7049C24.8418 11.4251 24.8791 11.3877 25.1566 11.5928C25.194 11.4558 25.2812 11.3686 25.4182 11.3312C25.2201 11.0915 25.2325 11.0542 25.4556 11.2191C25.6287 11.1427 25.666 11.0306 25.5677 10.8828C25.6077 10.7252 25.6824 10.6878 25.7919 10.7707C26.0224 10.721 26.1718 10.584 26.2404 10.3597C26.1905 10.3348 26.1407 10.3098 26.0909 10.2849C26.2725 10.2369 26.3971 10.1248 26.4646 9.94864C26.5163 9.98788 26.5537 10.0377 26.5767 10.0981C26.6344 9.99729 26.7217 9.93504 26.8383 9.91127C26.7764 9.84289 26.7017 9.79312 26.6141 9.76181C26.6609 9.70576 26.6983 9.64343 26.7262 9.57497C26.7492 9.63536 26.7866 9.68521 26.8383 9.72444C26.9067 9.5391 27.0188 9.48925 27.1747 9.57497C27.2494 9.42551 27.3242 9.27604 27.3989 9.12657C27.4238 9.15146 27.4488 9.17642 27.4737 9.2013C27.4702 9.06581 27.4826 8.94131 27.511 8.82764C27.6081 8.87173 27.6704 8.94646 27.6979 9.05184C27.7508 8.986 27.8132 8.93622 27.8848 8.90237Z"
        fill="#3D72B5" />
    <path fill-rule="evenodd" clip-rule="evenodd"
        d="M7.70298 12.2655C7.75426 13.3352 7.25593 13.7587 6.20809 13.5359C5.6481 13.0033 5.62321 12.4428 6.13335 11.8544C6.7979 11.5161 7.32111 11.6532 7.70298 12.2655Z"
        fill="#F9FBFD" />
    <path fill-rule="evenodd" clip-rule="evenodd"
        d="M29.0057 11.7427C29.2491 12.0741 29.5107 12.3979 29.7905 12.7142C30.1414 13.0031 30.4777 13.302 30.7996 13.611C30.6909 13.6872 30.666 13.7745 30.7248 13.8726C30.6705 13.9771 30.6331 14.0892 30.6127 14.2089C30.5817 14.1747 30.5444 14.1498 30.5006 14.1342C30.2597 14.3141 30.0854 14.5383 29.9774 14.8068C29.7483 14.9141 29.5864 15.0884 29.4915 15.3299C29.4109 14.9709 29.3238 14.9585 29.2299 15.2925C29.3526 15.4155 29.3276 15.4903 29.1552 15.5167C29.1801 15.5416 29.205 15.5666 29.2299 15.5915C29.1013 15.7056 28.9518 15.7803 28.7815 15.8157C28.872 15.8824 28.872 15.9446 28.7815 16.0025C28.6298 15.9181 28.6048 15.9555 28.7067 16.1146C28.6026 16.2021 28.5403 16.3142 28.5198 16.4509C28.4682 16.2722 28.3935 16.2722 28.2956 16.4509C28.2707 16.401 28.2458 16.3513 28.2209 16.3014C28.178 16.4503 28.0907 16.5624 27.9593 16.6377C28.0091 16.6626 28.0589 16.6876 28.1088 16.7125C27.95 16.7963 27.813 16.9084 27.6977 17.0488C27.5563 16.7595 27.494 16.7595 27.5108 17.0488C27.3392 17.1136 27.2893 17.2133 27.3613 17.3477C26.336 17.0017 25.8128 17.3753 25.7917 18.4687C25.66 18.6416 25.6102 18.8285 25.6422 19.0292C25.7734 19.083 25.8357 19.1702 25.829 19.2908C25.6728 19.1943 25.5731 19.2441 25.5301 19.4402C25.5084 19.3249 25.4586 19.2252 25.3806 19.1413C25.3345 19.2122 25.3469 19.2745 25.4179 19.3281C25.2809 19.3655 25.1937 19.4527 25.1563 19.5897C25.1254 19.5556 25.088 19.5306 25.0442 19.515C24.9537 19.5728 24.9537 19.6351 25.0442 19.7018C24.9128 19.775 24.7882 19.8249 24.6705 19.8513C24.7713 19.9735 24.7589 20.0856 24.6331 20.1876C24.6082 20.1128 24.5833 20.0381 24.5584 19.9634C24.4861 20.0514 24.4487 20.151 24.4463 20.2623C24.346 20.3671 24.2836 20.3422 24.2594 20.1876C24.2102 20.3077 24.2476 20.395 24.3715 20.4491C24.2929 20.5328 24.2057 20.5701 24.1099 20.5612C24.085 20.6609 24.0601 20.7606 24.0352 20.8602C23.9853 20.6609 23.9355 20.6609 23.8857 20.8602C23.8358 20.8103 23.7861 20.7606 23.7362 20.7107C23.7093 20.8682 23.6594 21.0177 23.5867 21.1591C23.52 21.0686 23.4577 21.0686 23.3998 21.1591C23.2885 21.4101 23.1265 21.6592 22.914 21.9064C22.876 21.7268 22.7888 21.6769 22.6524 21.757C22.668 21.8008 22.693 21.8381 22.7271 21.8691C22.6728 21.9736 22.6354 22.0857 22.615 22.2054C22.5841 22.1712 22.5467 22.1463 22.5029 22.1307C22.3084 22.3956 22.0966 22.6447 21.8676 22.878C21.7916 22.7932 21.7418 22.8181 21.7181 22.9527C21.6498 22.8665 21.5875 22.879 21.5312 22.9901C21.5811 23.015 21.6309 23.0399 21.6807 23.0648C21.5878 23.1511 21.5131 23.2508 21.4565 23.3638C21.3411 23.3854 21.2415 23.4352 21.1575 23.5132C21.1824 23.5381 21.2074 23.5631 21.2323 23.588C20.913 23.8074 20.6763 24.0938 20.5222 24.4474C20.4992 24.387 20.4618 24.3372 20.4101 24.2979C20.1943 24.4119 19.97 24.5738 19.7374 24.7837C19.9006 24.7383 20.0501 24.7881 20.1858 24.9332C20.0643 24.9186 19.9397 24.9186 19.8121 24.9332C19.78 25.0019 19.755 25.0642 19.7374 25.12C19.6036 24.745 19.5164 24.745 19.4758 25.12C19.4509 25.0951 19.4259 25.0701 19.401 25.0453C19.2251 25.3167 19.0382 25.5907 18.8404 25.8673C18.7408 25.8922 18.6411 25.9172 18.5415 25.9421C18.4818 26.06 18.4444 26.1845 18.4293 26.3157C18.4044 26.2908 18.3795 26.2659 18.3546 26.241C18.2639 26.3568 18.1517 26.4439 18.0182 26.5026C18.1023 26.5212 18.177 26.5585 18.2425 26.6147C18.2166 26.704 18.1792 26.704 18.1304 26.6147C18.1067 26.7493 18.0568 26.7741 17.9809 26.6894C17.9061 26.7392 17.8314 26.789 17.7566 26.8389C17.7239 27.0538 17.6492 27.2531 17.5324 27.4367C17.5107 27.3213 17.4609 27.2217 17.3829 27.1378C17.2745 27.3972 17.1001 27.5965 16.8597 27.7357C16.7795 27.6774 16.6923 27.6899 16.5981 27.773C16.7057 27.8471 16.7804 27.9467 16.8223 28.072C16.7021 28.1211 16.6149 28.0838 16.5607 27.9599C16.4346 28.0215 16.4221 28.0963 16.5234 28.1841C16.4617 28.2503 16.3869 28.2752 16.2991 28.2588C16.3103 28.1802 16.2978 28.1055 16.2617 28.0346C16.2369 28.1592 16.2119 28.2837 16.187 28.4083C16.1203 28.3178 16.058 28.3178 16.0001 28.4083C16.0394 28.46 16.0892 28.4974 16.1496 28.5204C16.0953 28.6249 16.0579 28.737 16.0375 28.8567C16.0126 28.7819 15.9877 28.7072 15.9628 28.6325C15.9222 28.7917 15.8599 28.9412 15.7759 29.0809C15.7321 29.0653 15.6947 29.0403 15.6638 29.0061C15.629 29.1131 15.5667 29.2002 15.4769 29.2677C15.4769 29.3424 15.4769 29.4172 15.4769 29.4919C15.2039 29.5203 14.9298 29.6075 14.6547 29.7535C14.7139 29.8802 14.689 30.0047 14.58 30.1271C14.4829 30.1712 14.4206 30.246 14.3931 30.3513C14.3682 30.3265 14.3433 30.3015 14.3184 30.2766C14.2407 30.5323 14.0912 30.7316 13.8699 30.8745C13.845 30.8496 13.8201 30.8246 13.7952 30.7998C13.7788 30.9072 13.7414 31.0068 13.6831 31.0987C13.6523 31.0417 13.6399 30.967 13.6457 30.8745C13.5611 31.0119 13.4988 31.1614 13.4588 31.3229C13.3536 31.3784 13.254 31.4407 13.1599 31.5097C13.2424 31.5942 13.2175 31.6566 13.0851 31.6966C13.033 31.5557 12.9583 31.5308 12.8609 31.6218C12.7799 31.6865 12.7675 31.7612 12.8235 31.846C12.8988 31.6785 12.9611 31.7034 13.0104 31.9208C11.6647 31.9332 10.3193 31.9208 8.97416 31.8834C9.05892 31.8075 9.03403 31.7576 8.89941 31.7339C8.99606 31.6973 9.09577 31.6848 9.19839 31.6966C9.18576 31.3572 9.23561 31.3323 9.34788 31.6218C9.37277 31.6093 9.39774 31.5969 9.42263 31.5845C9.51441 31.4245 9.63901 31.2999 9.79635 31.2108C9.77146 31.1859 9.74649 31.1609 9.7216 31.1361C9.83372 31.0738 9.92095 30.9866 9.98321 30.8745C10.0081 30.8994 10.0331 30.9243 10.058 30.9492C10.0547 30.8163 10.0048 30.6918 9.90846 30.5756C9.83051 30.854 9.79313 30.8291 9.79635 30.5008C9.89516 30.5135 9.98239 30.4886 10.058 30.4261C10.1931 30.5678 10.3551 30.6051 10.5438 30.5382C10.5189 30.5133 10.4939 30.4883 10.469 30.4635C10.5131 30.3507 10.5629 30.2386 10.6185 30.1271C10.6703 30.1664 10.7076 30.2162 10.7307 30.2766C10.7321 29.9498 10.8691 29.7006 11.1417 29.5293C11.1261 29.4855 11.1012 29.4481 11.067 29.4172C11.1826 29.3923 11.2823 29.4297 11.366 29.5293C11.4177 29.49 11.4551 29.4402 11.4781 29.3798C11.6156 29.4794 11.653 29.467 11.5902 29.3424C11.635 29.2212 11.6848 29.1091 11.7397 29.0061C13.0841 29.082 13.6322 28.4592 13.3841 27.1378C13.4934 27.1479 13.5807 27.0732 13.6457 26.9136C13.6918 26.9845 13.6794 27.0468 13.6083 27.1004C13.6932 27.1564 13.7679 27.144 13.8326 27.0631C13.7541 26.9433 13.8039 26.8811 13.982 26.8762C13.7919 26.7941 13.7919 26.707 13.982 26.6147C14.0631 26.7017 14.1253 26.8014 14.1689 26.9136C14.2281 26.7576 14.3153 26.6206 14.4305 26.5026C14.2878 26.4691 14.2006 26.5313 14.1689 26.6894C14.119 26.5898 14.119 26.4901 14.1689 26.3905C14.3303 26.4068 14.4922 26.3571 14.6547 26.241C14.6049 26.1912 14.5551 26.1414 14.5053 26.0915C14.5301 26.0666 14.5551 26.0417 14.58 26.0168C14.7368 26.0903 14.8863 26.0655 15.0285 25.9421C14.9677 25.8439 14.893 25.7567 14.8042 25.6805C14.8752 25.6344 14.9374 25.6468 14.9911 25.7179C15.0657 25.5135 15.2028 25.389 15.4022 25.3442C15.3905 25.2416 15.4029 25.1419 15.4396 25.0453C15.4612 25.1607 15.511 25.2603 15.589 25.3442C15.7227 25.2801 15.8598 25.2053 16.0001 25.12C16.0816 25.0534 16.0816 24.9787 16.0001 24.8958C16.1855 24.8274 16.2354 24.7153 16.1496 24.5595C16.3655 24.3712 16.5524 24.1595 16.7102 23.9243C16.785 23.8246 16.8597 23.8246 16.9344 23.9243C17.0911 23.8335 17.0786 23.7711 16.8971 23.7374C17.0046 23.7211 17.1042 23.6837 17.1961 23.6253C17.0948 23.5375 17.1073 23.4628 17.2334 23.4011C17.2401 23.6514 17.3273 23.6888 17.495 23.5132C17.4452 23.4883 17.3954 23.4634 17.3455 23.4385C17.4464 23.3808 17.5086 23.2936 17.5324 23.1769C17.5561 23.3115 17.606 23.3364 17.6819 23.2517C17.7198 23.1399 17.6824 23.0526 17.5698 22.9901C17.6694 22.9901 17.7691 22.9901 17.8688 22.9901C17.7137 22.8719 17.7137 22.7349 17.8688 22.5791C17.9419 22.5434 18.0041 22.4936 18.0556 22.4296C18.0846 22.4989 18.1345 22.5488 18.2051 22.5791C18.2807 22.5498 18.318 22.4999 18.3172 22.4296C18.3689 22.4688 18.4063 22.5187 18.4293 22.5791C18.5125 22.4849 18.525 22.3977 18.4667 22.3175C18.5474 22.246 18.6345 22.1838 18.7283 22.1307C18.8193 21.8417 18.9688 21.5926 19.1768 21.3833C19.2017 21.4332 19.2266 21.4829 19.2515 21.5328C19.3947 21.5436 19.5317 21.5063 19.6626 21.4207C19.6631 21.3024 19.6383 21.1779 19.5879 21.047C19.6673 20.9582 19.767 20.9209 19.8869 20.9349C19.8869 20.8602 19.8869 20.7854 19.8869 20.7107C20.1087 20.7013 20.2582 20.5892 20.3353 20.3744C20.4535 20.3216 20.5656 20.2593 20.6717 20.1876C20.6966 20.2125 20.7215 20.2374 20.7464 20.2623C20.7975 20.1664 20.7851 20.0791 20.709 20.0007C20.7629 19.8422 20.8501 19.8048 20.9707 19.8886C20.9707 19.789 20.9707 19.6893 20.9707 19.5897C20.9955 19.6146 21.0205 19.6396 21.0454 19.6644C21.0941 19.4983 21.2062 19.4111 21.3817 19.4029C21.174 19.3917 21.1367 19.3294 21.2696 19.216C21.4303 19.3162 21.5175 19.2663 21.5312 19.0666C22.7476 19.3947 23.8065 19.1206 24.7079 18.2445C25.0072 17.87 25.2066 17.4465 25.3058 16.974C25.358 16.3741 25.3456 15.7762 25.2685 15.1804C25.2636 15.1477 25.276 15.1227 25.3058 15.1057C25.3289 15.1661 25.3662 15.2159 25.4179 15.2552C25.494 15.0662 25.5812 15.0662 25.6796 15.2552C25.6998 15.0827 25.6127 14.9955 25.4179 14.9936C25.658 14.9175 25.795 14.7556 25.829 14.5078C25.8758 14.694 25.9381 14.694 26.0159 14.5078C26.0531 14.5903 26.078 14.665 26.0906 14.732C26.2605 14.4909 26.4723 14.2915 26.726 14.1342C26.7645 13.9448 26.8518 13.7829 26.9876 13.6484C27.1231 13.6025 27.1481 13.6274 27.0623 13.7231C27.1371 13.773 27.2118 13.773 27.2866 13.7231C27.1906 13.6262 27.2031 13.539 27.3239 13.4615C27.4366 13.5389 27.5487 13.5264 27.6603 13.4242C27.6608 13.3059 27.6359 13.1814 27.5855 13.0505C27.6104 13.038 27.6354 13.0256 27.6603 13.0131C27.7424 13.3017 27.8046 13.3017 27.8471 13.0131C27.872 13.038 27.897 13.063 27.9219 13.0879C27.9205 12.9678 27.9081 12.8432 27.8845 12.7142C28.0197 12.7149 28.1443 12.6775 28.2582 12.6021C28.2493 12.5064 28.2867 12.4192 28.3704 12.3405C28.3952 12.3904 28.4202 12.4402 28.4451 12.49C28.4533 12.2549 28.553 12.1802 28.7441 12.2658C28.7005 12.0424 28.7877 11.8681 29.0057 11.7427Z"
        fill="#3A6FB3" />
    <path fill-rule="evenodd" clip-rule="evenodd"
        d="M12.1877 13.3121C12.9276 13.554 13.4508 14.0273 13.7574 14.7321C13.7699 16.1024 13.7574 17.4726 13.72 18.8424C13.6577 18.9047 13.5954 18.967 13.5331 19.0293C13.0786 19.0882 12.6301 19.0757 12.1877 18.9919C12.1666 18.9329 12.1292 18.8831 12.0756 18.8424C12.0507 17.6467 12.0258 16.451 12.0009 15.2552C11.7794 14.8023 11.4181 14.6403 10.9171 14.7694C10.5508 14.9116 10.3141 15.1732 10.207 15.5541C10.1939 16.6932 10.1566 17.8266 10.0949 18.9545C9.62154 19.0044 9.14811 19.0044 8.67476 18.9545C8.63738 18.9172 8.60001 18.8798 8.56264 18.8424C8.52527 18.2949 8.51286 17.7469 8.52527 17.1983C8.50157 16.0737 8.52646 14.9527 8.60001 13.8353C8.97052 13.6361 9.36921 13.5116 9.79592 13.4616C10.0668 13.4833 10.2163 13.6327 10.2444 13.91C10.7911 13.3958 11.4388 13.1965 12.1877 13.3121Z"
        fill="#FBFCFD" />
    <path fill-rule="evenodd" clip-rule="evenodd"
        d="M23.0255 13.3119C24.0888 13.5528 24.8363 14.1756 25.2678 15.1803C25.345 15.7761 25.3574 16.3739 25.3052 16.9739C25.2059 17.4464 25.0066 17.8699 24.7072 18.2444C23.8059 19.1205 22.747 19.3945 21.5306 19.0664C20.4769 18.5795 19.879 17.7575 19.7367 16.6002C19.7121 14.3829 20.8083 13.2868 23.0255 13.3119Z"
        fill="#FBFCFD" />
    <path fill-rule="evenodd" clip-rule="evenodd"
        d="M17.6442 13.3865C17.9295 13.4867 18.2035 13.6237 18.4664 13.7976C19.5313 14.8324 19.332 15.3555 17.8684 15.367C17.7116 15.1537 17.5373 14.9544 17.3452 14.7691C17.0305 14.6545 16.7066 14.6296 16.3736 14.6944C15.9607 14.9742 15.9856 15.2233 16.4483 15.4417C16.893 15.5573 17.3414 15.657 17.7937 15.7407C18.5043 15.8671 19.0026 16.2532 19.2886 16.899C19.3551 18.0258 18.8568 18.7606 17.7937 19.1037C17.3245 19.1924 16.851 19.2298 16.3736 19.2158C15.6411 19.0796 15.0557 18.7059 14.6171 18.0948C14.3478 17.4662 14.5596 17.1548 15.2524 17.1606C15.4268 17.1107 15.6012 17.1107 15.7756 17.1606C16.1368 17.8954 16.6849 18.0697 17.42 17.6837C17.5004 17.5547 17.5129 17.4177 17.4573 17.2727C17.2935 17.143 17.1066 17.0558 16.8968 17.0111C16.1191 16.9473 15.4215 16.6857 14.8039 16.2264C14.6534 16.0251 14.5413 15.8009 14.4676 15.5538C14.3644 14.3606 14.9001 13.6258 16.0746 13.3492C16.5991 13.307 17.1223 13.3194 17.6442 13.3865Z"
        fill="#FCFCFD" />
    <path fill-rule="evenodd" clip-rule="evenodd"
        d="M30.7995 13.6108C31.1961 13.8341 31.5947 14.0583 31.9954 14.2834C31.9954 15.7532 31.9954 17.2229 31.9954 18.6927C31.9238 18.7266 31.8614 18.7764 31.8085 18.8422C31.7137 18.8335 31.614 18.8086 31.5095 18.7675C31.4726 18.8896 31.4602 19.0142 31.4722 19.1411C31.3974 19.1411 31.3227 19.1411 31.2479 19.1411C31.2643 19.2289 31.2394 19.3037 31.1732 19.3653C30.9341 19.542 30.685 19.7039 30.4258 19.8511C30.6831 19.8676 30.708 19.9423 30.5005 20.0753C30.5254 20.1002 30.5504 20.1251 30.5752 20.15C30.3401 20.1583 30.2654 20.2579 30.351 20.449C30.0187 20.5321 29.7447 20.7065 29.5288 20.9721C29.6193 21.0388 29.6193 21.1011 29.5288 21.1589C29.4237 21.0716 29.3366 21.0965 29.2672 21.2337C29.2423 21.1589 29.2174 21.0842 29.1925 21.0095C29.0661 21.1746 29.0786 21.3115 29.2298 21.4205C29.0954 21.533 28.9584 21.5455 28.8187 21.4579C28.7939 21.5735 28.8312 21.6731 28.9309 21.7568C28.8494 21.8691 28.7622 21.894 28.6693 21.8315C28.6341 21.962 28.5842 22.0866 28.5198 22.2052C28.4699 22.1056 28.4201 22.1056 28.3703 22.2052C28.3342 22.2761 28.3218 22.3508 28.3329 22.4294C28.1115 22.4008 28.0368 22.4755 28.1087 22.6536C27.9901 22.7721 27.9278 22.8966 27.9218 23.0273C27.8382 22.9487 27.8008 22.8614 27.8097 22.7657C27.7388 22.7296 27.6641 22.7172 27.5855 22.7283C27.5728 22.8271 27.5976 22.9144 27.6602 22.9899C27.4727 23.0961 27.2982 23.2207 27.137 23.3636C27.2555 23.3699 27.3551 23.3823 27.436 23.4009C27.2666 23.4618 27.0921 23.4991 26.9128 23.513C27.1017 23.6681 27.0892 23.7304 26.8754 23.6999C26.8255 23.7995 26.7758 23.8992 26.7259 23.9988C26.6943 23.89 26.632 23.8526 26.539 23.8867C26.7006 24.0185 26.713 24.1555 26.5764 24.2977C26.5515 24.2729 26.5266 24.2479 26.5017 24.223C26.2732 24.4379 26.0365 24.5874 25.7916 24.6714C25.7478 24.6558 25.7104 24.6308 25.6795 24.5967C25.6454 24.6897 25.6828 24.7519 25.7916 24.7835C25.7417 24.8334 25.692 24.8831 25.6421 24.933C25.7547 24.9955 25.7921 25.0828 25.7542 25.1946C25.6264 25.0866 25.4893 25.0243 25.3431 25.0077C25.5218 25.1055 25.5218 25.1803 25.3431 25.2319C25.4308 25.4643 25.3934 25.4768 25.231 25.2693C25.1849 25.3402 25.1973 25.4025 25.2684 25.4561C25.1742 25.5393 25.087 25.5518 25.0068 25.4935C24.9557 25.5894 24.9681 25.6767 25.0441 25.7551C24.9006 25.6452 24.7387 25.6078 24.5583 25.643C24.4999 25.7509 24.5124 25.8505 24.5957 25.9419C24.6455 25.892 24.6953 25.8423 24.7452 25.7924C24.7701 25.8173 24.795 25.8423 24.8199 25.8672C24.6925 26.11 24.543 26.1598 24.3714 26.0166C24.1057 26.2372 24.0808 26.449 24.2967 26.6519C24.1243 26.6721 24.037 26.585 24.0351 26.3903C24.012 26.4849 23.9746 26.5721 23.923 26.6519C24.0055 26.7364 23.9806 26.7987 23.8482 26.8387C23.7486 26.8138 23.6489 26.7888 23.5493 26.764C23.4781 26.8794 23.4532 27.004 23.4745 27.1376C23.292 27.1267 23.2421 27.189 23.325 27.3245C23.1816 27.469 23.0695 27.4565 22.9887 27.2871C22.9375 27.3831 22.95 27.4703 23.026 27.5487C22.8282 27.6457 22.6289 27.7454 22.4281 27.8476C22.715 27.76 22.852 27.8721 22.8392 28.1839C22.7253 28.0255 22.5883 28.0006 22.4281 28.1092C22.1423 28.2361 22.1423 28.3482 22.4281 28.4455C22.2491 28.4964 22.0747 28.5587 21.9049 28.6323C22.0062 28.7201 21.9937 28.7948 21.8675 28.8565C21.8177 28.6572 21.7679 28.6572 21.718 28.8565C21.6931 28.8316 21.6682 28.8067 21.6433 28.7818C21.5786 28.9107 21.5288 29.0353 21.4938 29.1554C21.4081 29.0838 21.3333 29.1087 21.2696 29.2302C21.196 29.0587 21.1337 29.0836 21.0827 29.3049C21.2681 29.4065 21.2432 29.4813 21.0079 29.5291C20.9544 29.6772 20.8672 29.8018 20.7463 29.9028C20.7214 29.8779 20.6965 29.8529 20.6716 29.828C20.6632 30.0483 20.5511 30.1479 20.3352 30.127C20.3462 30.3095 20.2839 30.3593 20.1484 30.2764C20.111 30.3138 20.0736 30.3512 20.0363 30.3885C20.1293 30.5568 20.1293 30.7187 20.0363 30.8743C19.857 30.9661 19.7199 30.9163 19.6252 30.7248C19.5299 30.9844 19.3679 31.1962 19.1393 31.3601C19.2141 31.385 19.2888 31.4099 19.3636 31.4348C19.2048 31.5187 19.0678 31.6308 18.9525 31.7711C18.8765 31.6864 18.8267 31.7113 18.803 31.8458C18.7228 31.7876 18.6356 31.8 18.5414 31.8832C20.1238 31.8958 21.6934 31.9331 23.2503 31.9953C20.5096 31.9953 17.769 31.9953 15.0284 31.9953C14.3693 31.9211 13.6966 31.8961 13.0103 31.9206C12.961 31.7033 12.8987 31.6783 12.8234 31.8458C12.7674 31.761 12.7798 31.6863 12.8608 31.6216C12.9582 31.5306 13.0329 31.5555 13.085 31.6964C13.2174 31.6564 13.2423 31.5941 13.1598 31.5095C13.2539 31.4406 13.3535 31.3782 13.4588 31.3227C13.4987 31.1612 13.561 31.0117 13.6456 30.8743C13.6399 30.9668 13.6523 31.0416 13.683 31.0985C13.7414 31.0067 13.7787 30.907 13.7951 30.7996C13.82 30.8245 13.845 30.8494 13.8698 30.8743C14.0912 30.7314 14.2407 30.5321 14.3183 30.2764C14.3432 30.3013 14.3682 30.3263 14.3931 30.3512C14.4206 30.2458 14.4828 30.1711 14.5799 30.127C14.6889 30.0046 14.7139 29.88 14.6547 29.7533C14.9297 29.6073 15.2038 29.5201 15.4769 29.4917C15.4769 29.417 15.4769 29.3423 15.4769 29.2675C15.5666 29.2001 15.629 29.1129 15.6637 29.006C15.6947 29.0401 15.732 29.0651 15.7758 29.0807C15.8598 28.941 15.9221 28.7916 15.9627 28.6323C15.9876 28.707 16.0125 28.7818 16.0374 28.8565C16.0578 28.7369 16.0952 28.6248 16.1496 28.5202C16.0892 28.4972 16.0393 28.4598 16.0001 28.4081C16.0579 28.3176 16.1202 28.3176 16.1869 28.4081C16.2118 28.2835 16.2368 28.159 16.2617 28.0344C16.2978 28.1053 16.3102 28.18 16.299 28.2586C16.3869 28.275 16.4616 28.2501 16.5233 28.1839C16.422 28.0961 16.4345 28.0214 16.5606 27.9597C16.6148 28.0836 16.7021 28.121 16.8223 28.0718C16.7803 27.9465 16.7056 27.8469 16.598 27.7729C16.6922 27.6897 16.7794 27.6772 16.8596 27.7355C17.1 27.5963 17.2744 27.397 17.3828 27.1376C17.4609 27.2216 17.5107 27.3212 17.5323 27.4366C17.6491 27.2529 17.7238 27.0536 17.7566 26.8387C17.8313 26.7888 17.906 26.7391 17.9808 26.6892C18.0567 26.774 18.1066 26.7491 18.1303 26.6145C18.1792 26.7039 18.2165 26.7039 18.2424 26.6145C18.1769 26.5584 18.1022 26.521 18.0182 26.5024C18.1517 26.4437 18.2638 26.3566 18.3545 26.2408C18.3794 26.2657 18.4044 26.2907 18.4293 26.3156C18.4444 26.1843 18.4817 26.0598 18.5414 25.9419C18.641 25.917 18.7407 25.892 18.8404 25.8672C19.0381 25.5906 19.225 25.3165 19.4009 25.0451C19.4258 25.07 19.4508 25.0949 19.4757 25.1198C19.5163 24.7448 19.6036 24.7448 19.7373 25.1198C19.7549 25.064 19.7799 25.0017 19.812 24.933C19.9396 24.9184 20.0642 24.9184 20.1858 24.933C20.05 24.7879 19.9005 24.7381 19.7373 24.7835C19.97 24.5737 20.1942 24.4117 20.41 24.2977C20.4617 24.337 20.4991 24.3868 20.5221 24.4472C20.6762 24.0937 20.9129 23.8072 21.2322 23.5878C21.2073 23.5629 21.1823 23.5379 21.1574 23.513C21.2414 23.435 21.341 23.3853 21.4564 23.3636C21.513 23.2506 21.5877 23.1509 21.6806 23.0646C21.6308 23.0398 21.581 23.0148 21.5312 22.9899C21.5874 22.8788 21.6497 22.8663 21.718 22.9525C21.7417 22.8179 21.7916 22.7931 21.8675 22.8778C22.0965 22.6446 22.3083 22.3954 22.5028 22.1305C22.5466 22.1461 22.584 22.1711 22.615 22.2052C22.6354 22.0856 22.6727 21.9735 22.7271 21.8689C22.6929 21.838 22.6679 21.8006 22.6523 21.7568C22.7887 21.6768 22.876 21.7266 22.9139 21.9063C23.1264 21.659 23.2884 21.4099 23.3998 21.1589C23.4576 21.0684 23.5199 21.0684 23.5866 21.1589C23.6594 21.0175 23.7092 20.8681 23.7361 20.7105C23.786 20.7604 23.8358 20.8102 23.8856 20.86C23.9355 20.6607 23.9852 20.6607 24.0351 20.86C24.06 20.7604 24.085 20.6607 24.1098 20.5611C24.2056 20.57 24.2928 20.5326 24.3714 20.449C24.2475 20.3948 24.2101 20.3076 24.2593 20.1874C24.2835 20.342 24.3459 20.3669 24.4462 20.2621C24.4487 20.1509 24.486 20.0512 24.5583 19.9632C24.5832 20.0379 24.6082 20.1127 24.6331 20.1874C24.7588 20.0854 24.7713 19.9733 24.6704 19.8511C24.7881 19.8247 24.9127 19.7749 25.0441 19.7016C24.9536 19.6349 24.9536 19.5726 25.0441 19.5148C25.0879 19.5304 25.1253 19.5554 25.1563 19.5895C25.1936 19.4525 25.2809 19.3653 25.4179 19.328C25.3468 19.2743 25.3344 19.2121 25.3805 19.1411C25.4585 19.2251 25.5083 19.3247 25.53 19.4401C25.573 19.244 25.6727 19.1941 25.829 19.2906C25.8356 19.1701 25.7733 19.0828 25.6421 19.029C25.6101 18.8283 25.6599 18.6415 25.7916 18.4685C26.1134 19.1526 26.6366 19.3892 27.3612 19.1785C28.0439 18.5471 28.0439 17.9367 27.3612 17.3475C27.2892 17.2132 27.3391 17.1135 27.5107 17.0486C27.4939 16.7594 27.5562 16.7594 27.6976 17.0486C27.8129 16.9082 27.9499 16.7961 28.1087 16.7123C28.0588 16.6874 28.009 16.6624 27.9592 16.6376C28.0907 16.5622 28.1779 16.4501 28.2208 16.3013C28.2457 16.3511 28.2706 16.4009 28.2955 16.4507C28.3934 16.272 28.4681 16.272 28.5198 16.4507C28.5402 16.314 28.6025 16.2019 28.7066 16.1144C28.6048 15.9553 28.6297 15.9179 28.7814 16.0023C28.8719 15.9445 28.8719 15.8822 28.7814 15.8155C28.9517 15.7801 29.1012 15.7054 29.2298 15.5913C29.205 15.5664 29.18 15.5414 29.1551 15.5165C29.3275 15.4901 29.3525 15.4154 29.2298 15.2923C29.3237 14.9583 29.4109 14.9708 29.4914 15.3297C29.5863 15.0882 29.7482 14.9139 29.9773 14.8066C30.0853 14.5381 30.2597 14.3139 30.5005 14.134C30.5443 14.1496 30.5817 14.1746 30.6126 14.2087C30.633 14.0891 30.6704 13.977 30.7247 13.8724C30.6659 13.7743 30.6908 13.6871 30.7995 13.6108Z"
        fill="#366CB1" />
    <path fill-rule="evenodd" clip-rule="evenodd"
        d="M7.62855 16.6C7.64096 17.3478 7.62855 18.0951 7.59118 18.842C7.53826 18.9079 7.47593 18.9576 7.40432 18.9915C6.95518 19.0039 6.50671 18.9914 6.05892 18.9541C6.00271 18.904 5.97775 18.8417 5.98417 18.7673C5.97169 17.2974 5.98417 15.8276 6.02155 14.358C6.10713 14.2731 6.19436 14.1984 6.28315 14.1338C6.58295 14.0938 6.88193 14.044 7.18009 13.9843C7.36037 13.9773 7.49738 14.052 7.59118 14.2085C7.62855 15.0053 7.64104 15.8025 7.62855 16.6Z"
        fill="#FCFDFE" />
    <path fill-rule="evenodd" clip-rule="evenodd"
        d="M22.2035 14.657C22.9767 14.5968 23.5123 14.9206 23.8105 15.6285C24.0088 16.4077 23.8219 17.0678 23.2499 17.609C22.2036 18.0329 21.5433 17.6966 21.2692 16.6001C21.1211 15.7255 21.4326 15.0777 22.2035 14.657Z"
        fill="#3F72B6" />
    <path fill-rule="evenodd" clip-rule="evenodd"
        d="M5.98424 18.7672C5.97781 18.8417 6.00278 18.9039 6.05899 18.9541C6.50678 18.9913 6.95525 19.0038 7.40439 18.9914C6.99441 19.0532 6.57084 19.0906 6.13373 19.1035C6.23038 19.1401 6.33008 19.1526 6.43271 19.1409C6.44444 19.2435 6.43196 19.3432 6.39534 19.4398C6.37045 19.4149 6.34548 19.39 6.32059 19.3651C6.18426 19.4007 6.07214 19.5128 5.98424 19.7014C5.58085 19.6854 5.53099 19.785 5.83475 20.0003C5.76382 20.0464 5.70156 20.034 5.64789 19.963C5.62039 20.0683 5.55812 20.1431 5.46103 20.1872C5.3614 20.0875 5.26169 20.0875 5.16205 20.1872C5.0894 20.3468 4.9648 20.434 4.78833 20.4487C4.86307 20.4736 4.93782 20.4986 5.01256 20.5235C4.89903 20.6145 4.8118 20.7266 4.75096 20.8598C4.6887 20.6729 4.60147 20.6604 4.48935 20.8224C4.53921 20.8971 4.58899 20.9719 4.63884 21.0466C4.48203 20.9731 4.33254 20.9979 4.19037 21.1213C4.23283 21.2448 4.33246 21.3693 4.48935 21.495C4.33986 21.495 4.19037 21.495 4.04089 21.495C4.11967 21.5987 4.13207 21.7108 4.07826 21.8313C3.95732 21.8022 3.87009 21.7026 3.81665 21.5324C3.63577 21.6883 3.58592 21.8751 3.66716 22.0929C3.62979 22.1302 3.59242 22.1676 3.55505 22.205C3.53643 22.121 3.49906 22.0462 3.44293 21.9808C3.47088 22.0758 3.4211 22.163 3.29344 22.2423C3.11009 22.2967 2.93571 22.3714 2.77023 22.4665C2.72015 22.6608 2.64541 22.8725 2.546 23.1018C2.39651 23.164 2.24702 23.2264 2.09753 23.2886C2.16031 23.4131 2.12294 23.4256 1.98541 23.326C1.92629 23.4832 1.81417 23.5828 1.64906 23.6249C1.77045 23.7272 1.80782 23.8518 1.76118 23.9986C1.68838 23.8209 1.63852 23.8458 1.61169 24.0733C1.51983 23.8904 1.40771 23.878 1.27534 24.0359C1.33573 24.059 1.38559 24.0963 1.42483 24.148C1.35883 24.2264 1.30897 24.3136 1.27534 24.4096C1.32669 24.4965 1.3391 24.5836 1.31271 24.6712C1.22391 24.5917 1.18654 24.492 1.20059 24.3722C1.05933 24.3571 0.94721 24.4068 0.864244 24.5217C0.842119 24.703 0.804747 24.8774 0.752127 25.0448C0.708327 25.0605 0.670954 25.0854 0.64001 25.1196C0.659668 25.0111 0.647186 24.9115 0.602638 24.8206C0.553531 25.0931 0.404042 25.2676 0.154171 25.3438C0.154171 25.4684 0.154171 25.5929 0.154171 25.7174C0.0931048 25.5329 0.0557325 25.3337 0.0420543 25.1196C0.00468204 23.5006 -0.00780029 21.8813 0.00468204 20.2619C0.101028 20.3367 0.200662 20.3242 0.30366 20.2245C0.219647 20.2059 0.144903 20.1686 0.0794265 20.1124C0.192889 20.0703 0.317413 19.9831 0.453149 19.8509C0.344321 19.8192 0.306949 19.757 0.341032 19.664C0.424223 19.7545 0.51145 19.7545 0.602638 19.664C0.693154 19.6062 0.693154 19.5439 0.602638 19.4772C0.745101 19.3282 0.832328 19.3656 0.864244 19.5893C0.912454 19.5036 0.974716 19.4289 1.05111 19.3651C1.03548 19.3213 1.01052 19.2839 0.976361 19.253C1.06202 19.2048 1.13676 19.1425 1.20059 19.0662C1.27168 19.1279 1.34642 19.1403 1.42483 19.1035C1.24522 18.8127 1.30755 18.7753 1.61169 18.9914C1.64846 18.913 1.63606 18.8383 1.57432 18.7672C1.6679 18.655 1.74264 18.5305 1.79855 18.3936C1.95394 18.288 2.10343 18.1759 2.24702 18.0573C2.22213 18.0324 2.19716 18.0074 2.17227 17.9825C2.28566 17.8496 2.348 17.8869 2.35913 18.0946C2.38402 18.0697 2.40899 18.0448 2.43388 18.0199C2.36003 17.839 2.38492 17.6647 2.50862 17.4967C2.64615 17.5964 2.68352 17.5839 2.62074 17.4594C2.73958 17.3812 2.8517 17.294 2.95709 17.1978C3.00694 17.2477 3.05672 17.2974 3.10658 17.3473C3.12698 17.2276 3.16436 17.1155 3.2187 17.011C3.1583 16.988 3.10845 16.9506 3.06921 16.8989C3.17639 16.8443 3.26354 16.7696 3.33081 16.6747C3.33717 16.7931 3.34957 16.8928 3.36818 16.9736C3.47328 16.8652 3.58539 16.7656 3.70453 16.6747C3.72942 16.6996 3.75439 16.7245 3.77928 16.7494C3.80252 16.6566 3.76515 16.5819 3.66716 16.5252C3.80843 16.4562 3.92055 16.3565 4.00351 16.2263C4.12572 16.3271 4.23784 16.3146 4.33986 16.1889C4.06667 16.0787 4.09156 15.979 4.41461 15.89C4.33986 15.8651 4.26512 15.8401 4.19037 15.8152C4.54309 15.7458 4.75484 15.534 4.8257 15.18C4.85059 15.2299 4.87556 15.2796 4.90045 15.3295C4.94963 15.2093 4.91226 15.1221 4.78833 15.0679C4.94537 15.1006 5.08245 15.138 5.19942 15.18C5.26169 15.1053 5.32402 15.0305 5.38629 14.9558C5.47411 15.0571 5.54886 15.0446 5.61052 14.9184C5.39256 14.7637 5.41753 14.664 5.68526 14.6195C5.63541 14.5946 5.58563 14.5697 5.53577 14.5448C5.64363 14.465 5.74327 14.3778 5.83475 14.2832C5.88461 15.7901 5.93439 17.2847 5.98424 18.7672Z"
        fill="#487BBC" />
    <path fill-rule="evenodd" clip-rule="evenodd"
        d="M13.7577 14.7319C13.7988 15.4735 13.8611 16.2209 13.9446 16.9739C13.9695 16.9988 13.9944 17.0238 14.0193 17.0487C14.1122 16.8961 14.2492 16.809 14.4304 16.7871C14.3557 16.7622 14.2809 16.7373 14.2062 16.7124C14.4485 16.6912 14.4735 16.6289 14.2809 16.5255C14.4932 16.4803 14.6676 16.3806 14.8041 16.2266C15.4217 16.6859 16.1194 16.9475 16.897 17.0113C17.1069 17.056 17.2937 17.1432 17.4576 17.2729C17.5131 17.4179 17.5006 17.5549 17.4202 17.6839C16.6852 18.0699 16.137 17.8956 15.7758 17.1608C15.6014 17.1109 15.427 17.1109 15.2526 17.1608C14.5598 17.1549 14.3481 17.4664 14.6173 18.0949C15.0559 18.7061 15.6414 19.0798 16.3738 19.216C16.514 19.2972 16.7133 19.3595 16.9717 19.4028C16.8721 19.4775 16.8721 19.5523 16.9717 19.627C16.8634 19.7105 16.7388 19.7603 16.598 19.7765C16.5412 19.8841 16.4914 19.9962 16.4485 20.1128C16.3869 20.179 16.3121 20.2039 16.2243 20.1875C16.2354 20.2661 16.223 20.3408 16.1869 20.4117C16.1202 20.3212 16.0579 20.3212 16.0001 20.4117C16.0694 20.5065 16.0819 20.6061 16.0374 20.7106C15.9403 20.6758 15.8282 20.6758 15.7011 20.7106C15.6884 20.8094 15.7133 20.8966 15.7758 20.9722C15.6331 21.0057 15.5459 20.9434 15.5142 20.7854C15.4555 20.9188 15.3684 21.0309 15.2526 21.1217C15.3025 21.1465 15.3523 21.1715 15.4021 21.1964C15.3851 21.2812 15.3602 21.3684 15.3274 21.458C15.2836 21.4423 15.2462 21.4174 15.2152 21.3832C15.0944 21.4842 15.0072 21.6088 14.9536 21.7569C14.7615 21.5581 14.6494 21.6079 14.6173 21.9064C14.4774 21.8191 14.3653 21.8564 14.2809 22.0185C14.5624 22.1214 14.5375 22.1961 14.2062 22.2427C14.2773 22.2963 14.2897 22.3586 14.2436 22.4295C14.1498 22.4826 14.0626 22.5449 13.982 22.6163C14.0318 22.6412 14.0816 22.6662 14.1314 22.6911C14.0245 22.7258 13.9373 22.7881 13.8698 22.8779C13.7939 22.7932 13.744 22.818 13.7204 22.9526C13.6887 22.8438 13.6265 22.8065 13.5335 22.8405C13.5584 22.8654 13.5833 22.8904 13.6082 22.9153C13.5514 23.241 13.4641 23.2534 13.3466 22.9526C13.3137 23.0704 13.2515 23.1701 13.1598 23.2516C13.199 23.3033 13.2489 23.3406 13.3093 23.3637C13.0397 23.4589 12.8404 23.6332 12.7113 23.8868C12.5808 23.922 12.4562 23.9719 12.3376 24.0363C12.4957 24.068 12.5579 24.1552 12.5244 24.2978C12.4207 24.2191 12.3086 24.2067 12.1881 24.2605C12.2743 24.3288 12.2619 24.391 12.1507 24.4473C12.1194 24.3597 12.0696 24.285 12.0012 24.2231C11.8192 24.3679 11.8067 24.5049 11.9639 24.6341C11.7571 24.6858 11.7073 24.7979 11.8144 24.9704C11.7895 24.9953 11.7645 25.0203 11.7396 25.0452C11.6201 24.6928 11.4831 24.7177 11.3285 25.1199C11.2602 24.8445 11.2104 24.8694 11.179 25.1946C11.0763 25.3798 10.9392 25.4421 10.7679 25.3815C10.7348 25.4949 10.7847 25.5821 10.9174 25.643C10.8091 25.6933 10.7095 25.7431 10.6185 25.7925C8.80747 25.3492 7.01361 25.399 5.23685 25.942C5.20412 25.9468 5.17915 25.9344 5.16211 25.9046C5.21578 25.7561 5.29052 25.6191 5.38634 25.4936C5.28835 25.4369 5.25098 25.3622 5.27423 25.2694C5.37386 25.3192 5.44861 25.394 5.49846 25.4936C5.61977 25.3345 5.78167 25.2349 5.9843 25.1946C5.89603 25.0677 5.89603 24.9432 5.9843 24.821C6.01502 24.8779 6.02743 24.9527 6.02167 25.0452C6.05262 25.011 6.08999 24.9861 6.13379 24.9704C6.19044 25.0684 6.26519 25.1058 6.35802 25.0825C6.25839 25.0327 6.25839 24.9829 6.35802 24.9331C6.10023 24.8398 6.12512 24.7401 6.43277 24.6341C6.38291 24.6093 6.33313 24.5843 6.28328 24.5594C6.41647 24.4986 6.52859 24.4114 6.61963 24.2978C6.64452 24.3227 6.66948 24.3477 6.69437 24.3726C6.71926 24.2978 6.74423 24.2231 6.76912 24.1484C6.80073 24.2572 6.863 24.2945 6.95598 24.2605C6.93109 24.1857 6.90612 24.111 6.88123 24.0363C7.03072 23.9864 7.18021 23.9367 7.3297 23.8868C7.2421 23.8555 7.16735 23.8057 7.10547 23.7373C7.29995 23.6675 7.41207 23.5305 7.44182 23.3263C7.76755 23.1463 8.07901 22.947 8.37612 22.7284C8.18717 22.6301 8.18717 22.5429 8.37612 22.4669C8.30504 22.4132 8.29263 22.351 8.33875 22.28C8.46402 22.322 8.56366 22.3967 8.63773 22.5042C8.66568 22.4358 8.70306 22.3734 8.74985 22.3174C8.68945 22.2944 8.6396 22.257 8.60036 22.2053C8.68564 22.1362 8.68564 22.0738 8.60036 22.0185C8.67129 21.9724 8.73355 21.9848 8.78722 22.0558C8.83707 21.9562 8.88685 21.8565 8.93671 21.7569C8.98783 21.8529 8.97535 21.9401 8.89933 22.0185C8.93671 22.0558 8.97408 22.0932 9.01145 22.1306C9.02887 21.9602 9.09113 21.8107 9.19831 21.6822C9.38786 21.5423 9.58721 21.4302 9.79627 21.3459C9.7003 21.2489 9.71278 21.1617 9.83364 21.0843C9.85853 21.1341 9.8835 21.1839 9.90839 21.2338C10.1078 21.1232 10.1203 21.0111 9.94576 20.8975C10.1245 20.7996 10.1245 20.7249 9.94576 20.6733C9.98313 20.6359 10.0205 20.5985 10.0579 20.5612C10.1359 20.6451 10.1857 20.7447 10.2074 20.8601C10.3304 20.7439 10.3553 20.6194 10.2821 20.4864C10.5146 20.5741 10.527 20.5367 10.3195 20.3743C10.3814 20.3059 10.4561 20.2562 10.5437 20.2249C10.5188 20.2 10.4939 20.175 10.469 20.1501C10.5644 20.1406 10.6516 20.178 10.7306 20.2622C10.8659 20.1932 10.8535 20.1309 10.6932 20.0754C10.7878 20.0523 10.8751 20.0149 10.9548 19.9633C11.015 20.1427 11.0772 20.1302 11.1417 19.9259C11.1168 19.901 11.0918 19.8761 11.0669 19.8512C11.1915 19.7765 11.316 19.7017 11.4406 19.627C11.286 19.6028 11.2611 19.5404 11.3659 19.4402C11.5089 19.399 11.6584 19.3865 11.8144 19.4028C11.7147 19.3529 11.64 19.2782 11.5901 19.1786C11.7023 19.1163 11.7895 19.0291 11.8517 18.917C11.8766 18.9669 11.9016 19.0166 11.9265 19.0665C12.0021 19.0039 12.0893 18.979 12.1881 18.9918C12.6304 19.0755 13.0789 19.088 13.5335 19.0291C13.5958 18.9669 13.6581 18.9045 13.7204 18.8423C13.7577 17.4724 13.7702 16.1022 13.7577 14.7319Z"
        fill="#4175B8" />
    <path fill-rule="evenodd" clip-rule="evenodd"
        d="M12.1882 18.9915C12.0893 18.9788 12.0021 19.0037 11.9266 19.0662C11.9017 19.0164 11.8767 18.9666 11.8518 18.9168C11.7895 19.0289 11.7023 19.1161 11.5902 19.1783C11.6401 19.2779 11.7148 19.3527 11.8144 19.4025C11.6584 19.3862 11.509 19.3987 11.366 19.4399C11.2612 19.5402 11.2861 19.6025 11.4407 19.6267C11.3161 19.7015 11.1916 19.7762 11.067 19.8509C11.0919 19.8758 11.1168 19.9008 11.1417 19.9257C11.0773 20.13 11.015 20.1425 10.9549 19.963C10.8751 20.0147 10.7879 20.052 10.6933 20.0751C10.8536 20.1307 10.866 20.1929 10.7306 20.262C10.6516 20.1777 10.5645 20.1404 10.469 20.1499C10.4939 20.1748 10.5189 20.1997 10.5438 20.2246C10.4562 20.2559 10.3814 20.3057 10.3195 20.3741C10.5271 20.5365 10.5146 20.5738 10.2822 20.4862C10.3554 20.6191 10.3305 20.7436 10.2074 20.8598C10.1858 20.7444 10.136 20.6448 10.0579 20.5609C10.0206 20.5983 9.9832 20.6356 9.94583 20.673C10.1245 20.7246 10.1245 20.7994 9.94583 20.8972C10.1204 21.0108 10.1079 21.1229 9.90845 21.2335C9.88356 21.1837 9.8586 21.1339 9.83371 21.084C9.71285 21.1615 9.70037 21.2487 9.79634 21.3456C9.58728 21.4299 9.38793 21.542 9.19838 21.6819C9.0912 21.8104 9.02894 21.9599 9.01152 22.1303C8.97415 22.0929 8.93678 22.0556 8.8994 22.0182C8.97542 21.9398 8.9879 21.8526 8.93678 21.7566C8.88692 21.8563 8.83714 21.956 8.78729 22.0556C8.73362 21.9845 8.67136 21.9721 8.60043 22.0182C8.68571 22.0736 8.68571 22.1359 8.60043 22.205C8.63967 22.2568 8.68952 22.2941 8.74991 22.3171C8.70312 22.3732 8.66575 22.4355 8.6378 22.504C8.56373 22.3964 8.46409 22.3217 8.33882 22.2798C8.2927 22.3507 8.30511 22.4129 8.37619 22.4666C8.18724 22.5426 8.18724 22.6298 8.37619 22.7282C8.07908 22.9467 7.76762 23.146 7.44189 23.326C7.41214 23.5302 7.30002 23.6672 7.10554 23.7371C7.16742 23.8055 7.24217 23.8552 7.32977 23.8865C7.18028 23.9364 7.03079 23.9862 6.8813 24.036C6.90619 24.1107 6.93116 24.1855 6.95605 24.2602C6.86306 24.2943 6.8008 24.2569 6.76919 24.1481C6.7443 24.2228 6.71933 24.2976 6.69444 24.3723C6.66955 24.3474 6.64459 24.3225 6.6197 24.2976C6.52866 24.4111 6.41654 24.4983 6.28335 24.5592C6.3332 24.584 6.38298 24.609 6.43283 24.6339C6.12519 24.7399 6.1003 24.8396 6.35809 24.9328C6.25846 24.9827 6.25846 25.0324 6.35809 25.0823C6.26526 25.1055 6.19051 25.0682 6.13386 24.9702C6.09006 24.9858 6.05268 25.0108 6.02174 25.0449C6.0275 24.9524 6.01509 24.8777 5.98437 24.8207C5.89609 24.9429 5.89609 25.0675 5.98437 25.1944C5.78174 25.2347 5.61984 25.3343 5.49853 25.4933C5.44867 25.3937 5.37393 25.319 5.2743 25.2691C5.25105 25.3619 5.28842 25.4367 5.38641 25.4933C5.29059 25.6188 5.21584 25.7559 5.16218 25.9044C5.17922 25.9342 5.20418 25.9466 5.23692 25.9417C4.32967 26.4332 3.48259 27.0186 2.69561 27.698C2.15797 28.039 1.58491 28.3005 0.976486 28.4827C0.482276 27.6273 0.208188 26.7056 0.154297 25.7175C0.154297 25.5929 0.154297 25.4684 0.154297 25.3439C0.404168 25.2676 0.553657 25.0932 0.602764 24.8207C0.647312 24.9116 0.659794 25.0112 0.640136 25.1197C0.67108 25.0855 0.708453 25.0605 0.752253 25.0449C0.804873 24.8774 0.842245 24.7031 0.86437 24.5218C0.947336 24.4069 1.05945 24.3571 1.20072 24.3723C1.18667 24.4921 1.22404 24.5918 1.31284 24.6713C1.33922 24.5837 1.32681 24.4965 1.27546 24.4097C1.3091 24.3137 1.35895 24.2264 1.42495 24.1481C1.38571 24.0964 1.33586 24.059 1.27546 24.036C1.40784 23.8781 1.51995 23.8905 1.61181 24.0734C1.63865 23.8459 1.6885 23.8209 1.7613 23.9986C1.80794 23.8519 1.77057 23.7273 1.64919 23.625C1.8143 23.5829 1.92641 23.4833 1.98554 23.326C2.12307 23.4257 2.16044 23.4132 2.09765 23.2887C2.24714 23.2264 2.39663 23.1641 2.54612 23.1018C2.64553 22.8726 2.72028 22.6608 2.77035 22.4666C2.93584 22.3715 3.11022 22.2967 3.29357 22.2424C3.42123 22.163 3.47101 22.0758 3.44305 21.9808C3.49919 22.0463 3.53656 22.121 3.55517 22.205C3.59254 22.1677 3.62992 22.1303 3.66729 22.0929C3.58604 21.8752 3.6359 21.6883 3.81678 21.5324C3.87022 21.7027 3.95745 21.8023 4.07838 21.8314C4.1322 21.7109 4.11979 21.5988 4.04101 21.4951C4.1905 21.4951 4.33999 21.4951 4.48948 21.4951C4.33259 21.3694 4.23295 21.2449 4.1905 21.1214C4.33266 20.998 4.48215 20.9731 4.63897 21.0467C4.58911 20.9719 4.53933 20.8972 4.48948 20.8225C4.60159 20.6605 4.68882 20.673 4.75108 20.8598C4.81193 20.7267 4.89915 20.6146 5.01269 20.5235C4.93794 20.4986 4.8632 20.4737 4.78846 20.4488C4.96493 20.4341 5.08953 20.3469 5.16218 20.1872C5.26181 20.0876 5.36152 20.0876 5.46116 20.1872C5.55825 20.1431 5.62051 20.0684 5.64802 19.963C5.70168 20.0341 5.76395 20.0465 5.83488 20.0004C5.53112 19.7851 5.58097 19.6855 5.98437 19.7015C6.07227 19.5128 6.18438 19.4007 6.32072 19.3652C6.34561 19.39 6.37057 19.415 6.39546 19.4399C6.43209 19.3433 6.44457 19.2436 6.43283 19.141C6.33021 19.1527 6.2305 19.1402 6.13386 19.1036C6.57096 19.0907 6.99454 19.0533 7.40451 18.9915C7.47612 18.9576 7.53846 18.9079 7.59137 18.842C7.62875 18.0951 7.64115 17.3478 7.62875 16.6C7.68226 16.7537 7.73212 16.9156 7.77824 17.0858C7.73922 17.1277 7.71433 17.1776 7.70349 17.2353C7.86315 17.77 8.05001 17.7825 8.26408 17.2726C8.3886 17.3354 8.40108 17.298 8.30145 17.1605C8.38195 17.1254 8.45669 17.1379 8.52568 17.1979C8.51327 17.7465 8.52568 18.2945 8.56305 18.842C8.60043 18.8794 8.6378 18.9168 8.67517 18.9541C9.14853 19.004 9.62196 19.004 10.0953 18.9541C10.157 17.8262 10.1944 16.6928 10.2074 15.5537C10.3145 15.1728 10.5513 14.9112 10.9175 14.769C11.4185 14.6399 11.7798 14.8019 12.0013 15.2548C12.0262 16.4506 12.0512 17.6463 12.076 18.842C12.1296 18.8827 12.167 18.9325 12.1882 18.9915Z"
        fill="#4578BA" />
    <path fill-rule="evenodd" clip-rule="evenodd"
        d="M19.737 16.6003C19.8792 17.7576 20.4772 18.5796 21.5309 19.0665C21.5171 19.2663 21.4299 19.3161 21.2693 19.216C21.1363 19.3294 21.1737 19.3917 21.3814 19.4028C21.2059 19.411 21.0938 19.4983 21.045 19.6644C21.0201 19.6395 20.9952 19.6145 20.9703 19.5897C20.9703 19.6893 20.9703 19.789 20.9703 19.8886C20.8497 19.8047 20.7625 19.8421 20.7087 20.0007C20.7847 20.0791 20.7972 20.1663 20.746 20.2623C20.7212 20.2374 20.6962 20.2124 20.6713 20.1875C20.5652 20.2593 20.4531 20.3215 20.3349 20.3744C20.2578 20.5891 20.1083 20.7012 19.8865 20.7107C19.8865 20.7854 19.8865 20.8601 19.8865 20.9349C19.7667 20.9208 19.667 20.9582 19.5875 21.047C19.6379 21.1778 19.6628 21.3023 19.6622 21.4206C19.5314 21.5062 19.3944 21.5436 19.2512 21.5327C19.2263 21.4829 19.2013 21.4331 19.1764 21.3833C18.9684 21.5926 18.8189 21.8417 18.7279 22.1306C18.6341 22.1837 18.547 22.246 18.4663 22.3174C18.5246 22.3976 18.5122 22.4848 18.429 22.579C18.4059 22.5186 18.3686 22.4688 18.3168 22.4295C18.3177 22.4999 18.2803 22.5497 18.2047 22.579C18.1341 22.5487 18.0842 22.4989 18.0552 22.4295C18.0037 22.4936 17.9415 22.5434 17.8684 22.579C17.7133 22.7348 17.7133 22.8719 17.8684 22.99C17.7687 22.99 17.669 22.99 17.5694 22.99C17.682 23.0526 17.7194 23.1398 17.6815 23.2516C17.6056 23.3364 17.5557 23.3115 17.532 23.1769C17.5083 23.2935 17.446 23.3807 17.3452 23.4384C17.395 23.4633 17.4448 23.4883 17.4947 23.5132C17.3269 23.6887 17.2397 23.6514 17.2331 23.4011C17.1069 23.4627 17.0944 23.5375 17.1957 23.6253C17.1038 23.6836 17.0042 23.721 16.8967 23.7374C17.0783 23.7711 17.0907 23.8334 16.9341 23.9242C16.8593 23.8246 16.7846 23.8246 16.7098 23.9242C16.552 24.1595 16.3651 24.3712 16.1493 24.5594C16.235 24.7153 16.1851 24.8274 15.9998 24.8957C16.0812 24.9786 16.0812 25.0534 15.9998 25.1199C15.8594 25.2053 15.7223 25.28 15.5887 25.3441C15.5106 25.2602 15.4609 25.1606 15.4392 25.0452C15.4026 25.1418 15.3901 25.2415 15.4018 25.3441C15.2024 25.3889 15.0653 25.5135 14.9907 25.7178C14.9371 25.6467 14.8748 25.6343 14.8039 25.6804C14.8926 25.7566 14.9673 25.8438 15.0281 25.942C14.8859 26.0654 14.7364 26.0903 14.5796 26.0167C14.5547 26.0416 14.5298 26.0666 14.5049 26.0915C14.5547 26.1413 14.6045 26.1911 14.6544 26.2409C14.4919 26.357 14.3299 26.4068 14.1685 26.3904C14.1187 26.49 14.1187 26.5897 14.1685 26.6894C14.2002 26.5313 14.2874 26.469 14.4301 26.5025C14.315 26.6205 14.2277 26.7576 14.1685 26.9136C14.125 26.8013 14.0627 26.7017 13.9817 26.6146C13.7915 26.7069 13.7915 26.7941 13.9817 26.8762C13.8036 26.881 13.7537 26.9433 13.8322 27.063C13.7675 27.144 13.6928 27.1564 13.6079 27.1004C13.679 27.0467 13.6914 26.9845 13.6453 26.9136C13.5803 27.0731 13.4931 27.1478 13.3837 27.1378C13.1474 26.7941 12.8236 26.5574 12.412 26.4278C11.8253 26.1783 11.2273 25.9665 10.6182 25.7925C10.7092 25.7431 10.8088 25.6933 10.9171 25.6431C10.7844 25.5822 10.7345 25.495 10.7677 25.3815C10.9389 25.4421 11.076 25.3798 11.1787 25.1947C11.2101 24.8694 11.2599 24.8446 11.3282 25.1199C11.4828 24.7177 11.6198 24.6928 11.7393 25.0452C11.7642 25.0203 11.7892 24.9954 11.8141 24.9705C11.707 24.7979 11.7568 24.6858 11.9636 24.6342C11.8065 24.5049 11.8189 24.3679 12.0009 24.2231C12.0693 24.285 12.1191 24.3598 12.1504 24.4473C12.2616 24.3911 12.2741 24.3288 12.1878 24.2605C12.3083 24.2067 12.4204 24.2191 12.5241 24.2979C12.5576 24.1552 12.4954 24.068 12.3373 24.0363C12.4559 23.9719 12.5805 23.922 12.711 23.8868C12.8401 23.6333 13.0394 23.4589 13.309 23.3637C13.2486 23.3407 13.1987 23.3033 13.1595 23.2516C13.2512 23.1701 13.3135 23.0704 13.3463 22.9527C13.4638 23.2535 13.5511 23.241 13.6079 22.9153C13.5831 22.8904 13.5581 22.8655 13.5332 22.8406C13.6262 22.8065 13.6884 22.8439 13.7201 22.9527C13.7438 22.8181 13.7936 22.7932 13.8695 22.8779C13.937 22.7882 14.0242 22.7259 14.1312 22.6911C14.0813 22.6662 14.0315 22.6413 13.9817 22.6164C14.0623 22.5449 14.1495 22.4827 14.2433 22.4295C14.2894 22.3586 14.277 22.2964 14.2059 22.2427C14.5372 22.1961 14.5621 22.1214 14.2806 22.0185C14.365 21.8565 14.4771 21.8191 14.617 21.9064C14.6491 21.6079 14.7613 21.5581 14.9533 21.7569C15.0069 21.6088 15.0941 21.4842 15.215 21.3833C15.2459 21.4174 15.2833 21.4424 15.3271 21.458C15.36 21.3685 15.3848 21.2813 15.4018 21.1964C15.352 21.1715 15.3022 21.1466 15.2523 21.1217C15.3681 21.031 15.4553 20.9189 15.5139 20.7854C15.5456 20.9435 15.6328 21.0057 15.7755 20.9722C15.713 20.8967 15.6881 20.8095 15.7008 20.7107C15.8279 20.6758 15.94 20.6758 16.0371 20.7107C16.0816 20.6061 16.0691 20.5065 15.9998 20.4117C16.0576 20.3212 16.1199 20.3212 16.1866 20.4117C16.2227 20.3409 16.2351 20.2661 16.224 20.1875C16.3118 20.2039 16.3866 20.179 16.4482 20.1128C16.4911 19.9963 16.5409 19.8842 16.5977 19.7765C16.7385 19.7603 16.8631 19.7105 16.9714 19.627C16.8718 19.5523 16.8718 19.4776 16.9714 19.4028C16.713 19.3596 16.5137 19.2972 16.3735 19.216C16.851 19.23 17.3244 19.1927 17.7936 19.1039C18.8567 18.7609 19.355 18.026 19.2885 16.8992C19.3346 16.9075 19.372 16.9324 19.4006 16.974C19.553 16.6732 19.6277 16.3494 19.6249 16.0024C19.6386 16.2166 19.6759 16.4158 19.737 16.6003Z"
        fill="#3D72B5" />
    <path fill-rule="evenodd" clip-rule="evenodd"
        d="M27.3616 17.3474C28.0443 17.9366 28.0443 18.547 27.3616 19.1784C26.637 19.3891 26.1138 19.1525 25.792 18.4684C25.8131 17.3751 26.3364 17.0014 27.3616 17.3474Z"
        fill="#FAFBFD" />
    <path fill-rule="evenodd" clip-rule="evenodd"
        d="M31.995 18.6929C32.0075 20.8354 31.995 22.9777 31.9577 25.12C31.9117 25.8628 31.7747 26.5853 31.5466 27.2872C30.0873 26.4918 28.5427 26.2552 26.9124 26.5773C25.8495 26.9895 25.0149 27.6746 24.4085 28.6324C23.7919 29.672 23.4555 30.793 23.3994 31.9955C23.3496 31.9955 23.2998 31.9955 23.2499 31.9955C21.6931 31.9333 20.1234 31.8959 18.541 31.8834C18.6352 31.8002 18.7224 31.7877 18.8026 31.846C18.8263 31.7114 18.8762 31.6865 18.9521 31.7713C19.0674 31.6309 19.2044 31.5188 19.3632 31.435C19.2885 31.4101 19.2137 31.3851 19.139 31.3602C19.3675 31.1963 19.5295 30.9845 19.6248 30.725C19.7196 30.9165 19.8567 30.9662 20.0359 30.8745C20.129 30.7189 20.129 30.5569 20.0359 30.3887C20.0733 30.3513 20.1107 30.314 20.148 30.2766C20.2835 30.3595 20.3458 30.3096 20.3349 30.1271C20.5507 30.148 20.6629 30.0484 20.6712 29.8282C20.6961 29.8531 20.7211 29.878 20.746 29.9029C20.8668 29.802 20.9541 29.6774 21.0076 29.5292C21.2429 29.4814 21.2678 29.4067 21.0823 29.305C21.1334 29.0838 21.1956 29.0588 21.2692 29.2303C21.3329 29.1089 21.4077 29.084 21.4934 29.1556C21.5285 29.0354 21.5783 28.9108 21.6429 28.7819C21.6678 28.8068 21.6928 28.8318 21.7177 28.8566C21.7675 28.6573 21.8173 28.6573 21.8671 28.8566C21.9933 28.795 22.0058 28.7203 21.9045 28.6324C22.0743 28.5588 22.2487 28.4965 22.4277 28.4456C22.1419 28.3483 22.1419 28.2362 22.4277 28.1093C22.588 28.0007 22.725 28.0256 22.8388 28.184C22.8517 27.8723 22.7147 27.7602 22.4277 27.8477C22.6285 27.7455 22.8278 27.6459 23.0257 27.5488C22.9497 27.4704 22.9372 27.3832 22.9883 27.2872C23.0691 27.4567 23.1812 27.4691 23.3247 27.3246C23.2418 27.1891 23.2916 27.1269 23.4742 27.1378C23.4529 27.0041 23.4777 26.8796 23.5489 26.7641C23.6485 26.789 23.7482 26.814 23.8479 26.8388C23.9802 26.7989 24.0051 26.7365 23.9226 26.652C23.9743 26.5723 24.0116 26.485 24.0347 26.3904C24.0367 26.5851 24.1239 26.6723 24.2963 26.652C24.0805 26.4491 24.1054 26.2373 24.3711 26.0168C24.5426 26.16 24.6921 26.1101 24.8196 25.8673C24.7947 25.8424 24.7697 25.8175 24.7448 25.7926C24.695 25.8424 24.6452 25.8922 24.5953 25.942C24.5121 25.8506 24.4996 25.751 24.5579 25.6431C24.7383 25.608 24.9002 25.6453 25.0438 25.7552C24.9678 25.6768 24.9553 25.5896 25.0064 25.4936C25.0866 25.5519 25.1738 25.5394 25.268 25.4563C25.1969 25.4026 25.1845 25.3404 25.2306 25.2694C25.3931 25.477 25.4304 25.4645 25.3428 25.2321C25.5215 25.1804 25.5215 25.1057 25.3428 25.0079C25.489 25.0245 25.626 25.0867 25.7539 25.1947C25.7918 25.0829 25.7544 24.9957 25.6417 24.9331C25.6916 24.8833 25.7414 24.8335 25.7912 24.7837C25.6824 24.752 25.645 24.6898 25.6791 24.5968C25.7101 24.631 25.7474 24.6559 25.7912 24.6716C26.0361 24.5876 26.2728 24.4381 26.5013 24.2232C26.5262 24.248 26.5512 24.273 26.576 24.2979C26.7127 24.1557 26.7002 24.0187 26.5387 23.8869C26.6317 23.8528 26.6939 23.8901 26.7255 23.999C26.7754 23.8993 26.8252 23.7996 26.875 23.7C27.0889 23.7305 27.1014 23.6683 26.9124 23.5132C27.0918 23.4993 27.2662 23.4619 27.4356 23.4011C27.3547 23.3825 27.2551 23.3701 27.1366 23.3637C27.2979 23.2208 27.4723 23.0963 27.6598 22.9901C27.5973 22.9145 27.5724 22.8273 27.5851 22.7285C27.6637 22.7174 27.7385 22.7298 27.8093 22.7659C27.8004 22.8616 27.8378 22.9488 27.9215 23.0274C27.9274 22.8968 27.9897 22.7722 28.1083 22.6538C28.0364 22.4757 28.1112 22.4009 28.3325 22.4296C28.3214 22.3509 28.3338 22.2762 28.3699 22.2054C28.4198 22.1057 28.4696 22.1057 28.5194 22.2054C28.5838 22.0867 28.6337 21.9622 28.6689 21.8317C28.7618 21.8942 28.849 21.8693 28.9305 21.7569C28.8309 21.6732 28.7935 21.5736 28.8184 21.458C28.958 21.5456 29.0951 21.5331 29.2295 21.4206C29.0782 21.3117 29.0657 21.1747 29.1921 21.0096C29.217 21.0843 29.242 21.1591 29.2669 21.2338C29.3362 21.0967 29.4234 21.0718 29.5285 21.1591C29.619 21.1012 29.619 21.039 29.5285 20.9722C29.7443 20.7066 30.0183 20.5323 30.3506 20.4491C30.265 20.258 30.3397 20.1584 30.5749 20.1502C30.55 20.1253 30.525 20.1003 30.5001 20.0754C30.7076 19.9425 30.6827 19.8678 30.4254 19.8512C30.6846 19.704 30.9337 19.5421 31.1728 19.3655C31.2391 19.3038 31.2639 19.2291 31.2476 19.1413C31.3223 19.1413 31.3971 19.1413 31.4718 19.1413C31.4599 19.0143 31.4723 18.8897 31.5092 18.7676C31.6137 18.8088 31.7134 18.8337 31.8082 18.8423C31.8611 18.7765 31.9234 18.7267 31.995 18.6929Z"
        fill="#3269AF" />
    <path fill-rule="evenodd" clip-rule="evenodd"
        d="M10.6186 25.7926C11.2278 25.9665 11.8257 26.1783 12.4125 26.4278C12.824 26.5575 13.1479 26.7941 13.3841 27.1378C13.6322 28.4592 13.0841 29.082 11.7398 29.0061C10.3447 28.2544 8.84977 27.943 7.2551 28.0719C6.7866 28.1617 6.33813 28.3112 5.9097 28.5203C4.95641 29.3123 3.93495 29.9974 2.84518 30.5755C2.06238 30.0173 1.43953 29.3198 0.976562 28.483C1.58498 28.3009 2.15805 28.0393 2.69569 27.6983C3.48267 27.0189 4.32975 26.4336 5.237 25.942C7.01375 25.399 8.80762 25.3492 10.6186 25.7926Z"
        fill="#81A8DB" />
    <path fill-rule="evenodd" clip-rule="evenodd"
        d="M31.5466 27.2872C30.4139 30.2097 28.2712 31.7666 25.1185 31.958C24.5461 31.9954 23.973 32.0078 23.3994 31.9954C23.4555 30.7929 23.7919 29.6719 24.4085 28.6324C25.0149 27.6745 25.8495 26.9894 26.9124 26.5772C28.5427 26.2552 30.0873 26.4918 31.5466 27.2872Z"
        fill="#82A8DB" />
    <path fill-rule="evenodd" clip-rule="evenodd"
        d="M11.7393 29.006C11.6845 29.1089 11.6346 29.221 11.5898 29.3423C11.6526 29.4668 11.6152 29.4793 11.4777 29.3796C11.4547 29.44 11.4173 29.4899 11.3656 29.5291C11.2819 29.4295 11.1823 29.3921 11.0666 29.417C11.1008 29.4479 11.1257 29.4853 11.1414 29.5291C10.8687 29.7005 10.7317 29.9496 10.7303 30.2764C10.7073 30.216 10.6699 30.1662 10.6182 30.127C10.5625 30.2384 10.5128 30.3505 10.4687 30.4633C10.4936 30.4882 10.5185 30.5131 10.5434 30.538C10.3547 30.605 10.1927 30.5676 10.0576 30.4259C9.982 30.4885 9.89478 30.5133 9.79597 30.5006C9.79275 30.8289 9.83012 30.8538 9.90808 30.5754C10.0044 30.6916 10.0543 30.8161 10.0576 30.949C10.0327 30.9242 10.0077 30.8992 9.98283 30.8743C9.92056 30.9864 9.83334 31.0736 9.72122 31.1359C9.74611 31.1608 9.77108 31.1857 9.79597 31.2106C9.63863 31.2998 9.51403 31.4243 9.42224 31.5843C9.39735 31.5968 9.37239 31.6092 9.3475 31.6216C9.23523 31.3321 9.18538 31.357 9.19801 31.6964C9.09538 31.6846 8.99568 31.6971 8.89903 31.7337C9.03365 31.7574 9.05854 31.8073 8.97378 31.8832C10.319 31.9206 11.6644 31.9331 13.01 31.9206C13.6963 31.8961 14.369 31.9211 15.0281 31.9953C12.3122 32.0078 9.59655 31.9953 6.88093 31.9579C5.38567 31.9039 4.04026 31.4431 2.84473 30.5754C3.9345 29.9972 4.95596 29.3121 5.90925 28.5202C6.33769 28.311 6.78615 28.1615 7.25465 28.0718C8.84933 27.9428 10.3442 28.2542 11.7393 29.006Z"
        fill="#3E72B6" />
</svg>