<svg width="32" height="32" viewBox="0 0 32 32" fill="none" xmlns="http://www.w3.org/2000/svg">
    <g clip-path="url(#clip0_5484_234)">
        <path fill-rule="evenodd" clip-rule="evenodd"
            d="M16.4443 -0.0175781C16.6458 -0.0175781 16.8473 -0.0175781 17.0488 -0.0175781C17.1436 0.00612559 17.2384 0.0298293 17.3332 0.053533C17.0306 0.0428596 16.7343 0.019156 16.4443 -0.0175781Z"
            fill="#A8ACAE" />
        <path fill-rule="evenodd" clip-rule="evenodd"
            d="M15.2357 -0.0175781C15.6386 -0.0175781 16.0416 -0.0175781 16.4446 -0.0175781C16.7345 0.019156 17.0308 0.0428596 17.3335 0.053533C20.1764 0.304643 22.7719 1.23501 25.1201 2.84464C28.8368 5.51689 31.0649 9.12578 31.8046 13.6713C31.8391 15.1165 31.851 16.5625 31.8401 18.0091C31.3106 21.9133 29.6039 25.1844 26.7201 27.8224C26.744 27.7745 26.744 27.733 26.7201 27.698C26.7976 27.6823 26.8213 27.6467 26.7912 27.5913C26.8249 27.5741 26.8605 27.5682 26.8979 27.5735C26.9012 27.4654 26.8479 27.4062 26.7379 27.3958C26.7207 27.362 26.7148 27.3265 26.7201 27.2891C26.5779 27.2891 26.4357 27.2891 26.2935 27.2891C26.2935 27.3839 26.2935 27.4787 26.2935 27.5735C26.2461 27.5735 26.1986 27.5735 26.1512 27.5735C26.1512 27.3839 26.1512 27.1943 26.1512 27.0046C26.0674 26.9988 25.9845 27.0048 25.9023 27.0224C25.9735 27.1054 26.0446 27.1884 26.1157 27.2713C26.0335 27.289 25.9506 27.2949 25.8668 27.2891C25.8668 27.1943 25.8668 27.0995 25.8668 27.0046C25.6772 27.0046 25.4875 27.0046 25.2979 27.0046C25.2979 26.9098 25.2979 26.815 25.2979 26.7202C25.1083 26.7202 24.9186 26.7202 24.729 26.7202C24.729 26.815 24.729 26.9098 24.729 27.0046C24.6452 27.0104 24.5623 27.0045 24.4801 26.9869C24.5512 26.9039 24.6223 26.8209 24.6935 26.738C24.4211 26.7202 24.1485 26.7143 23.8757 26.7202C23.8757 26.5306 23.8757 26.3409 23.8757 26.1513C23.3068 26.1513 22.7379 26.1513 22.169 26.1513C22.169 26.2461 22.169 26.3409 22.169 26.4358C21.9794 26.4358 21.7897 26.4358 21.6001 26.4358C21.6001 26.3409 21.6001 26.2461 21.6001 26.1513C21.0312 26.1513 20.4623 26.1513 19.8935 26.1513C19.8935 26.0565 19.8935 25.9617 19.8935 25.8669C19.7038 25.8669 19.5142 25.8669 19.3246 25.8669C19.3246 25.9617 19.3246 26.0565 19.3246 26.1513C19.1349 26.1513 18.9453 26.1513 18.7557 26.1513C18.7557 25.9617 18.7557 25.772 18.7557 25.5824C18.5661 25.5824 18.3764 25.5824 18.1868 25.5824C18.1868 25.3928 18.1868 25.2032 18.1868 25.0135C17.9972 25.0135 17.8075 25.0135 17.6179 25.0135C17.6179 25.2032 17.6179 25.3928 17.6179 25.5824C17.2386 25.5824 16.8594 25.5824 16.4801 25.5824C16.4801 25.2032 16.4801 24.8239 16.4801 24.4446C16.1009 24.4446 15.7216 24.4446 15.3423 24.4446C15.3423 24.0654 15.3423 23.6861 15.3423 23.3069C14.7735 23.3069 14.2046 23.3069 13.6357 23.3069C13.6357 23.1172 13.6357 22.9276 13.6357 22.738C13.2564 22.738 12.8772 22.738 12.4979 22.738C12.4979 22.3587 12.4979 21.9795 12.4979 21.6002C12.3853 21.5814 12.2727 21.5577 12.1601 21.5291C11.9884 21.6206 11.9114 21.5732 11.929 21.3869C11.9997 21.3985 12.0708 21.4103 12.1423 21.4224C12.1779 21.4106 12.2135 21.3987 12.249 21.3869C12.2372 21.375 12.2253 21.3632 12.2135 21.3513C12.0963 21.3176 11.9778 21.3176 11.8579 21.3513C11.8551 21.4022 11.8669 21.4496 11.8935 21.4935C11.87 21.581 11.8226 21.6047 11.7512 21.5646C11.7682 21.5299 11.7919 21.5003 11.8223 21.4758C11.6973 21.2715 11.5432 21.2419 11.3601 21.3869C11.4373 21.3931 11.5203 21.3991 11.609 21.4046C11.7194 21.5513 11.6838 21.6106 11.5023 21.5824C11.5937 21.5328 11.5877 21.4913 11.4846 21.458C11.3673 21.5137 11.2429 21.5433 11.1112 21.5469C10.8148 21.5721 10.5185 21.5839 10.2223 21.5824C10.525 21.5122 10.8332 21.4767 11.1468 21.4758C11.1586 21.4639 11.1705 21.452 11.1823 21.4402C10.9275 21.4389 10.6786 21.4152 10.4357 21.3691C10.6727 21.3572 10.9097 21.3454 11.1468 21.3335C11.2218 21.3035 11.293 21.2739 11.3601 21.2446C11.4702 21.1921 11.5769 21.1328 11.6801 21.0669C11.6436 20.8237 11.5843 20.5867 11.5023 20.3558C11.4786 20.3439 11.4549 20.332 11.4312 20.3202C11.3069 20.3828 11.1765 20.4006 11.0401 20.3735C11.0105 20.3439 10.9809 20.3143 10.9512 20.2846C10.8939 19.9445 10.882 19.6008 10.9157 19.2535C11.096 19.219 11.2797 19.2071 11.4668 19.218C11.4668 18.9572 11.4668 18.6965 11.4668 18.4358C11.289 18.4358 11.1112 18.4358 10.9335 18.4358C10.9447 18.1424 10.9328 17.852 10.8979 17.5646C10.548 17.5353 10.2042 17.5412 9.86679 17.5824C9.76944 17.6014 9.70423 17.5659 9.67123 17.4758C9.65381 17.5217 9.64787 17.5692 9.65345 17.618C9.71273 17.618 9.77196 17.618 9.83123 17.618C9.83123 17.8787 9.83123 18.1395 9.83123 18.4002C9.70032 18.4278 9.61143 18.3803 9.56457 18.258C9.46025 18.3618 9.40691 18.3381 9.40457 18.1869C9.32161 18.1869 9.23863 18.1869 9.15568 18.1869C9.15038 18.2243 9.15628 18.2598 9.17345 18.2935C9.22167 18.2622 9.275 18.2504 9.33345 18.258C9.36809 18.6411 9.31475 18.6648 9.17345 18.3291C9.05847 18.3987 9.06441 18.464 9.19123 18.5246C9.16233 18.5714 9.12677 18.6129 9.08457 18.6491C9.16432 18.6837 9.24727 18.6956 9.33345 18.6846C9.33345 18.7676 9.33345 18.8506 9.33345 18.9335C9.2979 18.9335 9.26234 18.9335 9.22679 18.9335C9.22679 18.8743 9.22679 18.815 9.22679 18.7558C9.19123 18.7558 9.15568 18.7558 9.12012 18.7558C9.12855 18.8017 9.11671 18.8372 9.08457 18.8624C9.00197 18.6613 8.85975 18.5191 8.6579 18.4358C8.67401 18.4017 8.69769 18.372 8.72901 18.3469C8.57321 18.2735 8.4073 18.226 8.23123 18.2046C8.32531 18.187 8.42014 18.181 8.51568 18.1869C8.51568 17.8076 8.51568 17.4284 8.51568 17.0491C8.32606 17.0491 8.13641 17.0491 7.94679 17.0491C7.94679 16.8595 7.94679 16.6698 7.94679 16.4802C7.75717 16.4802 7.56752 16.4802 7.3779 16.4802C7.3779 16.1009 7.3779 15.7217 7.3779 15.3424C7.18828 15.3424 6.99863 15.3424 6.80901 15.3424C6.80901 15.532 6.80901 15.7217 6.80901 15.9113C6.61939 15.9113 6.42974 15.9113 6.24012 15.9113C6.24012 15.7217 6.24012 15.532 6.24012 15.3424C6.0505 15.3424 5.86085 15.3424 5.67123 15.3424C5.67123 15.2476 5.67123 15.1528 5.67123 15.058C5.48161 15.058 5.29196 15.058 5.10234 15.058C5.10234 14.9632 5.10234 14.8684 5.10234 14.7735C4.91273 14.7735 4.72307 14.7735 4.53345 14.7735C4.53345 14.6432 4.53345 14.5128 4.53345 14.3824C4.34384 14.3824 4.15418 14.3824 3.96457 14.3824C3.96457 14.1335 3.96457 13.8846 3.96457 13.6358C3.77495 13.6358 3.58529 13.6358 3.39568 13.6358C3.39568 13.2565 3.39568 12.8772 3.39568 12.498C3.30086 12.498 3.20605 12.498 3.11123 12.498C3.11123 12.3084 3.11123 12.1187 3.11123 11.9291C3.20605 11.9291 3.30086 11.9291 3.39568 11.9291C3.39568 11.5498 3.39568 11.1706 3.39568 10.7913C3.20605 10.7913 3.01642 10.7913 2.82679 10.7913C2.82679 10.6017 2.82679 10.412 2.82679 10.2224C2.63716 10.2224 2.44753 10.2224 2.2579 10.2224C2.26972 9.72408 2.25787 9.2263 2.22234 8.72909C2.15897 8.67494 2.13526 8.60383 2.15123 8.51576C2.06273 8.50857 1.97977 8.52635 1.90234 8.56909C1.94581 8.67376 2.011 8.76265 2.0979 8.83576C2.11556 8.91789 2.12148 9.00084 2.11568 9.08464C2.03272 9.08464 1.94975 9.08464 1.86679 9.08464C1.85866 9.01592 1.82903 8.95664 1.7779 8.90687C1.75419 8.85947 1.73049 8.85947 1.70679 8.90687C1.69052 9.02406 1.6609 9.13666 1.6179 9.24464C1.65409 9.36902 1.6778 9.50534 1.68901 9.65353C1.60081 9.65983 1.53563 9.62427 1.49345 9.54687C1.47629 9.58057 1.47036 9.61613 1.47568 9.65353C1.33046 9.6338 1.30676 9.66936 1.40457 9.7602C1.36024 9.81503 1.36024 9.86836 1.40457 9.9202C1.35716 9.93204 1.30975 9.94392 1.26234 9.95576C1.38346 10.1347 1.3479 10.2176 1.15568 10.2046C1.12892 10.2285 1.11707 10.2581 1.12012 10.2935C1.11449 10.4255 1.11449 10.55 1.12012 10.6669C1.07215 10.6943 1.04252 10.7358 1.03123 10.7913C1.01938 10.7795 1.00753 10.7676 0.995677 10.7558C0.983826 10.8269 0.971972 10.898 0.960121 10.9691C0.948271 10.9335 0.936416 10.898 0.924566 10.8624C0.915314 10.9377 0.879759 10.997 0.817899 11.0402C0.801391 11.0191 0.795463 10.9954 0.800121 10.9691C1.42621 9.0882 2.35658 7.38153 3.59123 5.84909C6.643 2.26392 10.5245 0.308365 15.2357 -0.0175781Z"
            fill="#0B1016" />
        <path fill-rule="evenodd" clip-rule="evenodd"
            d="M8.65787 18.4352C8.11395 18.3126 7.64579 18.4429 7.25343 18.8263C7.23572 18.7084 7.22979 18.5899 7.23565 18.4708C6.934 18.4355 6.62584 18.4236 6.31121 18.4352C6.28163 19.2944 6.26385 20.1596 6.25787 21.0308C6.26189 20.0505 6.2204 19.0727 6.13343 18.0974C6.16017 18.0209 6.16611 17.9438 6.15121 17.8663C6.08771 17.951 6.04621 18.0458 6.02676 18.1508C5.99743 18.1823 5.96187 18.1941 5.9201 18.1863C5.93563 18.0688 5.91192 17.9621 5.84899 17.8663C5.82815 17.8738 5.81037 17.8856 5.79565 17.9019C5.78971 17.8071 5.78381 17.7123 5.77787 17.6174C5.84141 17.4483 5.88881 17.2587 5.9201 17.0486C5.88454 17.0486 5.84899 17.0486 5.81343 17.0486C5.82275 17.1011 5.81091 17.1485 5.77787 17.1908C5.42961 17.1439 5.08593 17.1439 4.74676 17.1908C4.65994 17.196 4.63622 17.1664 4.67565 17.1019C5.00728 17.0841 5.33915 17.0782 5.67121 17.0841C5.67121 16.8826 5.67121 16.6812 5.67121 16.4797C5.38676 16.4797 5.10232 16.4797 4.81787 16.4797C4.81787 16.4441 4.81787 16.4086 4.81787 16.373C4.72305 16.373 4.62826 16.373 4.53343 16.373C4.53343 16.3137 4.53343 16.2545 4.53343 16.1952C4.56899 16.1952 4.60454 16.1952 4.6401 16.1952C4.6401 16.1004 4.6401 16.0056 4.6401 15.9108C4.60454 15.9108 4.56899 15.9108 4.53343 15.9108C4.53343 15.7212 4.53343 15.5315 4.53343 15.3419C4.31978 15.3478 4.10644 15.3419 3.89343 15.3241C3.74648 15.0857 3.67537 15.0916 3.6801 15.3419C3.58527 15.3419 3.49047 15.3419 3.39565 15.3419C3.39565 15.1523 3.39565 14.9626 3.39565 14.773C3.20602 14.773 3.01639 14.773 2.82676 14.773C2.82676 14.6782 2.82676 14.5834 2.82676 14.4886C2.95714 14.4886 3.0875 14.4886 3.21787 14.4886C3.21787 14.3937 3.21787 14.2989 3.21787 14.2041C3.18232 14.2041 3.14676 14.2041 3.11121 14.2041C3.11121 14.1093 3.11121 14.0145 3.11121 13.9197C3.05195 13.9197 2.99269 13.9197 2.93343 13.9197C2.93343 13.8248 2.93343 13.73 2.93343 13.6352C2.89787 13.6352 2.86232 13.6352 2.82676 13.6352C2.80189 14.0025 2.77226 13.9906 2.73787 13.5997C2.70232 13.5167 2.64306 13.4574 2.5601 13.4219C2.54238 13.304 2.53645 13.1854 2.54232 13.0663C2.48306 13.0663 2.4238 13.0663 2.36454 13.0663C2.36454 12.8767 2.36454 12.6871 2.36454 12.4974C2.30528 12.4974 2.24602 12.4974 2.18676 12.4974C2.23385 12.2154 2.25755 11.931 2.25787 11.6441C2.16306 11.6441 2.06825 11.6441 1.97343 11.6441C1.97343 11.4545 1.97343 11.2648 1.97343 11.0752C2.06825 11.0752 2.16306 11.0752 2.25787 11.0752C2.25787 11.0397 2.25787 11.0041 2.25787 10.9686C2.06825 10.9686 1.87861 10.9686 1.68899 10.9686C1.69677 11.0103 1.68492 11.0459 1.65343 11.0752C1.61859 10.9833 1.60673 10.8884 1.61787 10.7908C1.67714 10.7908 1.73639 10.7908 1.79565 10.7908C1.79565 10.696 1.79565 10.6012 1.79565 10.5063C1.64112 10.5122 1.48705 10.5063 1.33343 10.4886C1.28891 10.3928 1.2178 10.3277 1.1201 10.293C1.11705 10.2576 1.1289 10.228 1.15565 10.2041C1.34788 10.2171 1.38343 10.1341 1.26232 9.95522C1.30973 9.94338 1.35714 9.93151 1.40454 9.91967C1.36021 9.86783 1.36021 9.81449 1.40454 9.75967C1.30674 9.66882 1.33044 9.63327 1.47565 9.653C1.47034 9.6156 1.47626 9.58004 1.49343 9.54633C1.5356 9.62374 1.60079 9.65929 1.68899 9.653C1.67778 9.5048 1.65407 9.36848 1.61787 9.24411C1.66087 9.13613 1.6905 9.02352 1.70676 8.90633C1.73047 8.85894 1.75417 8.85894 1.77787 8.90633C1.82901 8.95611 1.85864 9.01538 1.86676 9.08411C1.94973 9.08411 2.03269 9.08411 2.11565 9.08411C2.12146 9.00031 2.11553 8.91736 2.09787 8.83522C2.01097 8.76212 1.94579 8.67323 1.90232 8.56856C1.97974 8.52582 2.0627 8.50804 2.15121 8.51522C2.13524 8.60329 2.15894 8.6744 2.22232 8.72856C2.25785 9.22576 2.2697 9.72354 2.25787 10.2219C2.4475 10.2219 2.63714 10.2219 2.82676 10.2219C2.82676 10.4115 2.82676 10.6012 2.82676 10.7908C3.01639 10.7908 3.20602 10.7908 3.39565 10.7908C3.39565 11.17 3.39565 11.5493 3.39565 11.9286C3.30084 11.9286 3.20602 11.9286 3.11121 11.9286C3.11121 12.1182 3.11121 12.3078 3.11121 12.4974C3.20602 12.4974 3.30084 12.4974 3.39565 12.4974C3.39565 12.8767 3.39565 13.256 3.39565 13.6352C3.58527 13.6352 3.77492 13.6352 3.96454 13.6352C3.96454 13.8841 3.96454 14.133 3.96454 14.3819C4.15416 14.3819 4.34381 14.3819 4.53343 14.3819C4.53343 14.5123 4.53343 14.6426 4.53343 14.773C4.72305 14.773 4.9127 14.773 5.10232 14.773C5.10232 14.8678 5.10232 14.9626 5.10232 15.0574C5.29194 15.0574 5.48159 15.0574 5.67121 15.0574C5.67121 15.1523 5.67121 15.2471 5.67121 15.3419C5.86083 15.3419 6.05048 15.3419 6.2401 15.3419C6.2401 15.5315 6.2401 15.7212 6.2401 15.9108C6.42971 15.9108 6.61937 15.9108 6.80899 15.9108C6.80899 15.7212 6.80899 15.5315 6.80899 15.3419C6.9986 15.3419 7.18826 15.3419 7.37787 15.3419C7.37787 15.7212 7.37787 16.1004 7.37787 16.4797C7.56749 16.4797 7.75715 16.4797 7.94676 16.4797C7.94676 16.6693 7.94676 16.8589 7.94676 17.0486C8.13638 17.0486 8.32603 17.0486 8.51565 17.0486C8.51565 17.4278 8.51565 17.8071 8.51565 18.1863C8.42011 18.1805 8.32529 18.1864 8.23121 18.2041C8.40728 18.2255 8.57318 18.2729 8.72899 18.3463C8.69766 18.3715 8.67398 18.4012 8.65787 18.4352Z"
            fill="#0B1119" />
        <path fill-rule="evenodd" clip-rule="evenodd"
            d="M14.7734 8.90633C13.7537 8.89833 12.7345 8.91017 11.7156 8.94189C11.7793 8.91313 11.8504 8.89535 11.9289 8.88856C12.8831 8.85905 13.8312 8.86495 14.7734 8.90633Z"
            fill="#103A79" />
        <path fill-rule="evenodd" clip-rule="evenodd"
            d="M14.7734 8.90672C15.3598 8.94216 15.9524 8.954 16.5512 8.94227C16.5512 9.61783 16.5512 10.2934 16.5512 10.9689C16.1664 10.9653 15.7872 10.9771 15.4134 11.0045C15.4134 10.6845 15.4134 10.3645 15.4134 10.0445C14.2519 10.0386 13.0904 10.0445 11.929 10.0623C11.8271 10.0688 11.7323 10.0866 11.6446 10.1156C11.6032 11.0577 11.5973 12.0059 11.6268 12.96C11.6571 12.9981 11.6867 13.0337 11.7157 13.0667C12.249 13.0667 12.7823 13.0667 13.3157 13.0667C13.3157 13.446 13.3157 13.8252 13.3157 14.2045C12.5808 14.2104 11.8459 14.2045 11.1112 14.1867C10.8748 14.0689 10.7148 13.8852 10.6312 13.6356C10.5717 13.4499 10.5302 13.2603 10.5068 13.0667C10.5043 12.8764 10.4925 12.6867 10.4712 12.4978C10.4689 11.5495 10.4808 10.6013 10.5068 9.65338C10.497 9.48403 10.5089 9.31809 10.5423 9.1556C10.9158 9.00652 11.3069 8.93541 11.7157 8.94227C12.7345 8.91056 13.7538 8.89872 14.7734 8.90672Z"
            fill="#1D70E2" />
        <path fill-rule="evenodd" clip-rule="evenodd"
            d="M15.4134 11.0042C15.3897 11.0042 15.366 11.0042 15.3423 11.0042C15.3423 10.9924 15.3423 10.9805 15.3423 10.9687C15.3897 10.6842 15.3897 10.3998 15.3423 10.1153C14.1154 10.0706 12.8828 10.0706 11.6445 10.1153C11.7323 10.0863 11.8271 10.0685 11.929 10.062C13.0904 10.0442 14.2519 10.0383 15.4134 10.0442C15.4134 10.3642 15.4134 10.6842 15.4134 11.0042Z"
            fill="#275EB0" />
        <path fill-rule="evenodd" clip-rule="evenodd"
            d="M15.3421 10.1152C15.3895 10.3997 15.3895 10.6841 15.3421 10.9686C15.0837 10.9044 14.8111 10.8747 14.5243 10.8797C14.7908 10.8276 15.0634 10.8098 15.3421 10.8263C15.3421 10.6249 15.3421 10.4234 15.3421 10.2219C14.3109 10.2278 13.2798 10.2219 12.2488 10.2041C13.2924 10.2098 14.3235 10.1802 15.3421 10.1152Z"
            fill="#050F21" />
        <path fill-rule="evenodd" clip-rule="evenodd"
            d="M15.3423 10.1156C14.3237 10.1805 13.2925 10.2102 12.249 10.2045C13.28 10.2222 14.3111 10.2282 15.3423 10.2222C15.3423 10.4237 15.3423 10.6252 15.3423 10.8267C15.0635 10.8102 14.7909 10.828 14.5245 10.88C14.8113 10.8751 15.0839 10.9047 15.3423 10.9689C15.3423 10.9808 15.3423 10.9926 15.3423 11.0045C14.6664 10.957 14.0146 11.0519 13.3867 11.2889C13.336 11.8749 13.3124 12.4674 13.3156 13.0667C12.7823 13.0667 12.249 13.0667 11.7156 13.0667C11.6502 12.0849 11.6265 11.1012 11.6445 10.1156C12.8828 10.0708 14.1154 10.0708 15.3423 10.1156Z"
            fill="#0B0F16" />
        <path fill-rule="evenodd" clip-rule="evenodd"
            d="M10.5066 9.65332C10.4806 10.6012 10.4688 11.5494 10.471 12.4978C10.4473 12.1246 10.4355 11.7454 10.4355 11.36C10.4295 10.7842 10.4532 10.2153 10.5066 9.65332Z"
            fill="#1D4E96" />
        <path fill-rule="evenodd" clip-rule="evenodd"
            d="M14.7734 8.90625C15.3779 8.90625 15.9823 8.90625 16.5868 8.90625C16.5868 9.59365 16.5868 10.2811 16.5868 10.9685C16.9369 10.9568 17.2806 10.9687 17.6179 11.004C17.2559 11.0157 16.9003 11.0038 16.5512 10.9685C16.5512 10.2929 16.5512 9.61736 16.5512 8.94181C15.9524 8.95354 15.3598 8.9417 14.7734 8.90625Z"
            fill="#1F4471" />
        <path fill-rule="evenodd" clip-rule="evenodd"
            d="M16.5512 10.9684C16.9003 11.0038 17.2559 11.0156 17.6179 11.004C17.9261 11.004 18.2342 11.004 18.5423 11.004C18.8321 11.0393 19.1284 11.0511 19.4312 11.0395C19.4312 11.5255 19.4312 12.0114 19.4312 12.4973C19.4268 13.7774 19.4149 15.0574 19.3957 16.3373C17.6179 16.3432 15.8401 16.3373 14.0623 16.3195C13.7662 16.1893 13.5706 15.9701 13.4757 15.6618C13.3758 15.1809 13.3224 14.695 13.3157 14.204C13.3157 13.8247 13.3157 13.4455 13.3157 13.0662C13.3863 12.4866 13.41 11.8941 13.3868 11.2884C14.0146 11.0514 14.6665 10.9565 15.3423 11.004C15.3661 11.004 15.3897 11.004 15.4135 11.004C15.7872 10.9766 16.1664 10.9648 16.5512 10.9684Z"
            fill="#3896EE" />
        <path fill-rule="evenodd" clip-rule="evenodd"
            d="M10.5422 9.15527C10.5088 9.31776 10.4969 9.4837 10.5067 9.65305C10.4533 10.215 10.4296 10.7839 10.4356 11.3597C10.4356 11.7451 10.4474 12.1243 10.4711 12.4975C10.4924 12.6864 10.5042 12.876 10.5067 13.0664C10.486 12.9479 10.4563 12.8294 10.4178 12.7108C10.3916 11.6794 10.3975 10.6483 10.4356 9.6175C10.4 9.6175 10.3644 9.6175 10.3289 9.6175C10.3175 9.49668 10.3294 9.37814 10.3644 9.26194C10.3882 9.34489 10.4118 9.42788 10.4356 9.51083C10.4496 9.37703 10.4852 9.25849 10.5422 9.15527Z"
            fill="#050D21" />
        <path fill-rule="evenodd" clip-rule="evenodd"
            d="M18.5422 11.0049C18.8504 11.0049 19.1585 11.0049 19.4667 11.0049C19.4784 11.509 19.4665 12.0067 19.4311 12.4982C19.4311 12.0123 19.4311 11.5264 19.4311 11.0404C19.1283 11.052 18.832 11.0402 18.5422 11.0049Z"
            fill="#134474" />
        <path fill-rule="evenodd" clip-rule="evenodd"
            d="M16.551 12.1776C16.5627 12.8594 16.5509 13.5349 16.5154 14.2043C15.8426 14.2394 15.167 14.2512 14.4888 14.2398C14.4888 13.8487 14.4888 13.4576 14.4888 13.0665C14.7732 13.0665 15.0577 13.0665 15.3421 13.0665C15.3421 12.7702 15.3421 12.4739 15.3421 12.1776C15.7461 12.1309 16.1491 12.1309 16.551 12.1776Z"
            fill="#1D70E0" />
        <path fill-rule="evenodd" clip-rule="evenodd"
            d="M16.5511 12.1777C17.12 12.1777 17.6889 12.1777 18.2577 12.1777C18.224 13.1726 18.2122 14.1682 18.2222 15.1644C17.0015 15.1644 15.7807 15.1644 14.56 15.1644C14.5545 14.9388 14.5427 14.7136 14.5244 14.4888C14.5244 14.4177 14.5244 14.3466 14.5244 14.2755C15.201 14.2988 15.8648 14.275 16.5155 14.2044C16.551 13.535 16.5628 12.8595 16.5511 12.1777Z"
            fill="#0B0F18" />
        <path fill-rule="evenodd" clip-rule="evenodd"
            d="M15.3421 12.1773C15.3421 12.4736 15.3421 12.7699 15.3421 13.0662C15.0577 13.0662 14.7732 13.0662 14.4888 13.0662C14.5074 12.7821 14.5192 12.4977 14.5243 12.2129C14.7954 12.181 15.068 12.1691 15.3421 12.1773Z"
            fill="#0B0F16" />
        <path fill-rule="evenodd" clip-rule="evenodd"
            d="M13.3866 11.2891C13.4098 11.8947 13.3861 12.4873 13.3155 13.0668C13.3122 12.4676 13.3359 11.875 13.3866 11.2891Z"
            fill="#3D80C1" />
        <path fill-rule="evenodd" clip-rule="evenodd"
            d="M11.6444 10.1152C11.6263 11.1009 11.6501 12.0846 11.7155 13.0663C11.6865 13.0333 11.6569 12.9978 11.6266 12.9597C11.5971 12.0055 11.603 11.0573 11.6444 10.1152Z"
            fill="#1B529E" />
        <path fill-rule="evenodd" clip-rule="evenodd"
            d="M31.8044 13.6709C31.8325 13.7103 31.8503 13.7577 31.8578 13.8131C31.8873 15.2176 31.8814 16.6161 31.84 18.0087C31.8508 16.5621 31.839 15.1161 31.8044 13.6709Z"
            fill="#B0B1B1" />
        <path fill-rule="evenodd" clip-rule="evenodd"
            d="M16.5156 14.2041C15.8648 14.2748 15.2011 14.2985 14.5245 14.2752C14.5245 14.3463 14.5245 14.4174 14.5245 14.4885C14.4901 14.4136 14.4782 14.3306 14.4889 14.2397C15.1672 14.251 15.8427 14.2392 16.5156 14.2041Z"
            fill="#194281" />
        <path fill-rule="evenodd" clip-rule="evenodd"
            d="M7.76884 29.7063C7.38168 29.4833 7.01425 29.2345 6.66662 28.9596C6.84152 29.0127 7.00746 29.0601 7.1644 29.1018C7.17624 29.0841 7.18812 29.0663 7.19996 29.0485C7.16316 29.0032 7.12166 28.9617 7.07551 28.9241C7.05777 28.7585 7.05183 28.5926 7.05773 28.4263C6.97478 28.4263 6.8918 28.4263 6.80884 28.4263C6.80884 28.2367 6.80884 28.047 6.80884 27.8574C6.64291 27.8574 6.477 27.8574 6.31107 27.8574C6.31107 27.7626 6.31107 27.6678 6.31107 27.5729C6.2518 27.5729 6.19256 27.5729 6.13329 27.5729C6.13329 27.4781 6.13329 27.3833 6.13329 27.2885C6.07402 27.2885 6.01478 27.2885 5.95551 27.2885C5.95021 27.2511 5.95612 27.2155 5.97329 27.1818C6.16852 27.0599 6.16262 27.0006 5.95551 27.0041C5.95551 26.9092 5.95551 26.8144 5.95551 26.7196C5.8844 26.7196 5.81329 26.7196 5.74218 26.7196C5.75331 26.6219 5.74147 26.5271 5.70662 26.4352C5.59996 26.3522 5.50513 26.2574 5.42218 26.1507C5.38733 26.0588 5.37549 25.964 5.38662 25.8663C5.35107 25.8663 5.31551 25.8663 5.27996 25.8663C5.27996 25.7715 5.27996 25.6767 5.27996 25.5818C5.2444 25.5818 5.20884 25.5818 5.17329 25.5818C5.12621 25.2998 5.1025 25.0154 5.10218 24.7285C5.00735 24.7285 4.91256 24.7285 4.81773 24.7285C4.81773 24.6692 4.81773 24.61 4.81773 24.5507C4.72291 24.5507 4.62812 24.5507 4.53329 24.5507C4.54438 24.3239 4.5681 24.0987 4.6044 23.8752C4.50957 23.8752 4.41478 23.8752 4.31996 23.8752C4.33162 23.6841 4.31978 23.4944 4.2844 23.3063C4.25507 23.4351 4.23729 23.5654 4.23107 23.6974C4.20735 23.6737 4.18367 23.65 4.15996 23.6263C4.14225 23.5203 4.13631 23.4136 4.14218 23.3063C4.08291 23.3063 4.02367 23.3063 3.9644 23.3063C3.9591 23.2689 3.965 23.2333 3.98218 23.1996C4.05923 23.17 4.11256 23.1167 4.14218 23.0396C4.0481 23.0219 3.95327 23.016 3.85773 23.0218C3.85773 22.927 3.85773 22.8322 3.85773 22.7374C3.70367 22.7374 3.54958 22.7374 3.39551 22.7374C3.39551 22.4885 3.39551 22.2396 3.39551 21.9907C3.3007 21.9907 3.20588 21.9907 3.11107 21.9907C3.11638 22.0281 3.11046 22.0637 3.09329 22.0974C2.91531 21.9816 2.85013 21.8156 2.89773 21.5996C2.77922 21.5996 2.6607 21.5996 2.54218 21.5996C2.54218 21.41 2.54218 21.2203 2.54218 21.0307C2.44736 21.0307 2.35255 21.0307 2.25773 21.0307C2.25773 20.9241 2.25773 20.8174 2.25773 20.7107C2.16292 20.7107 2.0681 20.7107 1.97329 20.7107C1.97329 20.6041 1.97329 20.4974 1.97329 20.3907C1.87847 20.3907 1.78366 20.3907 1.68884 20.3907C1.68884 20.3078 1.68884 20.2248 1.68884 20.1418C1.62958 20.1418 1.57033 20.1418 1.51107 20.1418C1.51107 20.0589 1.51107 19.9759 1.51107 19.8929C1.47551 19.8929 1.43996 19.8929 1.4044 19.8929C1.4044 19.7033 1.4044 19.5137 1.4044 19.3241C1.30958 19.3241 1.21477 19.3241 1.11996 19.3241C1.11996 18.9448 1.11996 18.5656 1.11996 18.1863C0.930327 18.1863 0.740695 18.1863 0.551067 18.1863C0.556976 18.4118 0.551049 18.6369 0.533289 18.8618C0.524428 18.8219 0.506651 18.7863 0.479956 18.7552C0.474512 18.3777 0.456734 17.9984 0.426622 17.6174C0.391067 18.3759 0.355511 18.3759 0.319956 17.6174C0.237624 18.05 0.255402 18.4767 0.373289 18.8974C0.341054 19.0012 0.329202 19.1079 0.337733 19.2174C0.146656 18.3375 0.0281374 17.4486 -0.0178223 16.5507C-0.0178223 16.0885 -0.0178223 15.6263 -0.0178223 15.1641C-0.00597043 15.1641 0.00588145 15.1641 0.0177333 15.1641C0.0177333 15.3656 0.0177333 15.567 0.0177333 15.7685C0.0532888 15.7685 0.0888444 15.7685 0.1244 15.7685C0.131991 15.71 0.120139 15.6567 0.0888444 15.6085C0.109236 15.2404 0.144791 14.8671 0.195511 14.4885C0.222207 14.4574 0.239985 14.4218 0.248844 14.3818C0.310076 14.4806 0.351558 14.5873 0.373289 14.7018C0.308819 14.9096 0.285115 15.1229 0.302178 15.3418C0.349585 15.3418 0.396994 15.3418 0.4444 15.3418C0.468105 15.1522 0.491806 14.9626 0.515511 14.7729C0.478107 14.7782 0.442551 14.7723 0.408844 14.7552C0.431742 14.6577 0.473225 14.5689 0.533289 14.4885C0.551056 14.7727 0.556983 15.0571 0.551067 15.3418C0.669584 15.3418 0.788105 15.3418 0.906622 15.3418C0.906622 15.4367 0.906622 15.5315 0.906622 15.6263C0.942178 15.6263 0.977733 15.6263 1.01329 15.6263C1.01329 15.7211 1.01329 15.8159 1.01329 15.9107C1.1081 15.9107 1.20292 15.9107 1.29773 15.9107C1.29773 16.0056 1.29773 16.1003 1.29773 16.1952C1.33329 16.1952 1.36884 16.1952 1.4044 16.1952C1.4044 16.29 1.4044 16.3848 1.4044 16.4796C1.49922 16.4796 1.59403 16.4796 1.68884 16.4796C1.68884 16.5507 1.68884 16.6218 1.68884 16.6929C1.77181 16.6929 1.85477 16.6929 1.93773 16.6929C1.94488 16.9066 1.95673 17.1199 1.97329 17.3329C2.0681 17.3329 2.16292 17.3329 2.25773 17.3329C2.25773 17.4278 2.25773 17.5226 2.25773 17.6174C2.35255 17.6174 2.44736 17.6174 2.54218 17.6174C2.54218 17.7122 2.54218 17.807 2.54218 17.9018C2.44736 17.9018 2.35255 17.9018 2.25773 17.9018C2.25773 18.0915 2.25773 18.2811 2.25773 18.4707C2.29329 18.4707 2.32884 18.4707 2.3644 18.4707C2.3644 18.3759 2.3644 18.2811 2.3644 18.1863C2.42366 18.1863 2.48292 18.1863 2.54218 18.1863C2.54218 18.3167 2.54218 18.447 2.54218 18.5774C2.63699 18.5774 2.73181 18.5774 2.82662 18.5774C2.82662 18.6367 2.82662 18.6959 2.82662 18.7552C2.94514 18.7552 3.06366 18.7552 3.18218 18.7552C3.18218 18.85 3.18218 18.9448 3.18218 19.0396C3.25329 19.0396 3.3244 19.0396 3.39551 19.0396C3.41922 19.2292 3.44292 19.4189 3.46662 19.6085C3.63256 19.6085 3.79846 19.6085 3.9644 19.6085C3.9644 19.7033 3.9644 19.7981 3.9644 19.8929C3.86957 19.8929 3.77478 19.8929 3.67996 19.8929C3.67996 19.9285 3.67996 19.9641 3.67996 19.9996C3.77478 19.9996 3.86957 19.9996 3.9644 19.9996C3.9644 20.2485 3.9644 20.4974 3.9644 20.7463C3.99996 20.7463 4.03551 20.7463 4.07107 20.7463C4.07107 20.6515 4.07107 20.5567 4.07107 20.4618C4.15402 20.4618 4.237 20.4618 4.31996 20.4618C4.32419 20.5986 4.30051 20.729 4.24884 20.8529C4.34367 20.8529 4.43846 20.8529 4.53329 20.8529C4.53329 21.0544 4.53329 21.2559 4.53329 21.4574C4.6524 21.4515 4.77091 21.4575 4.88884 21.4752C4.9186 21.5111 4.93044 21.5526 4.9244 21.5996C4.88884 21.5996 4.85329 21.5996 4.81773 21.5996C4.81773 21.6944 4.81773 21.7892 4.81773 21.8841C4.877 21.8841 4.93624 21.8841 4.99551 21.8841C4.99551 21.9789 4.99551 22.0737 4.99551 22.1685C5.05478 22.1685 5.11402 22.1685 5.17329 22.1685C5.17329 22.2633 5.17329 22.3581 5.17329 22.4529C5.20884 22.4529 5.2444 22.4529 5.27996 22.4529C5.27996 22.5478 5.27996 22.6426 5.27996 22.7374C5.35476 22.7268 5.42588 22.7386 5.49329 22.7729C5.52884 22.8441 5.5644 22.9152 5.59996 22.9863C5.53254 23.0206 5.46143 23.0325 5.38662 23.0218C5.38662 23.0574 5.38662 23.0929 5.38662 23.1285C5.48145 23.1285 5.57624 23.1285 5.67107 23.1285C5.71171 23.2794 5.73542 23.4335 5.74218 23.5907C5.77773 23.5907 5.81329 23.5907 5.84884 23.5907C5.84884 23.6856 5.84884 23.7803 5.84884 23.8752C5.8844 23.8752 5.91996 23.8752 5.95551 23.8752C5.95551 23.9463 5.95551 24.0174 5.95551 24.0885C6.05318 24.0774 6.14801 24.0892 6.23996 24.1241C6.17254 24.1584 6.10143 24.1702 6.02662 24.1596C6.02662 24.2544 6.02662 24.3492 6.02662 24.4441C6.06218 24.4441 6.09773 24.4441 6.13329 24.4441C6.13329 24.5389 6.13329 24.6337 6.13329 24.7285C6.19256 24.7285 6.2518 24.7285 6.31107 24.7285C6.31107 24.8233 6.31107 24.9181 6.31107 25.0129C6.34662 25.0129 6.38218 25.0129 6.41773 25.0129C6.41773 25.1078 6.41773 25.2026 6.41773 25.2974C6.35846 25.2974 6.29923 25.2974 6.23996 25.2974C6.23996 25.3329 6.23996 25.3685 6.23996 25.4041C6.34726 25.3982 6.45393 25.4041 6.55996 25.4218C6.63107 25.4456 6.67846 25.4929 6.70218 25.5641C6.66847 25.5812 6.63292 25.5871 6.59551 25.5818C6.58964 25.6891 6.59558 25.7958 6.61329 25.9018C6.67825 25.9964 6.7553 26.0794 6.8444 26.1507C6.87924 26.2427 6.89108 26.3375 6.87996 26.4352C6.91551 26.4352 6.95107 26.4352 6.98662 26.4352C6.98076 26.5425 6.98669 26.6491 7.0044 26.7552C7.07135 26.7962 7.10097 26.8554 7.09329 26.9329C7.19096 26.9218 7.28579 26.9337 7.37773 26.9685C7.3484 27 7.31284 27.0118 7.27107 27.0041C7.27107 27.0989 7.27107 27.1937 7.27107 27.2885C7.2118 27.2885 7.15256 27.2885 7.09329 27.2885C7.09329 27.3241 7.09329 27.3596 7.09329 27.3952C7.2006 27.3893 7.30726 27.3952 7.41329 27.4129C7.4844 27.4367 7.5318 27.4841 7.55551 27.5552C7.58922 27.5723 7.62477 27.5782 7.66218 27.5729C7.66218 27.6678 7.66218 27.7626 7.66218 27.8574C7.62662 27.8574 7.59107 27.8574 7.55551 27.8574C7.54964 27.9647 7.55558 28.0714 7.57329 28.1774C7.64113 28.2781 7.67075 28.2662 7.66218 28.1418C7.72145 28.1418 7.78068 28.1418 7.83996 28.1418C7.83996 28.2367 7.83996 28.3315 7.83996 28.4263C7.80255 28.421 7.767 28.4269 7.73329 28.4441C7.8007 28.5486 7.88369 28.6374 7.98218 28.7107C8.01702 28.8027 8.02886 28.8975 8.01773 28.9952C8.05329 28.9952 8.08884 28.9952 8.1244 28.9952C8.1244 29.09 8.1244 29.1848 8.1244 29.2796C8.18481 29.2739 8.24408 29.2798 8.30218 29.2974C8.34772 29.3828 8.4129 29.448 8.49773 29.4929C8.52145 29.6233 8.52145 29.7537 8.49773 29.8841C8.38374 29.9418 8.28895 29.9181 8.21329 29.8129C8.20145 29.8248 8.18957 29.8367 8.17773 29.8485C8.15402 29.8011 8.13034 29.7537 8.10662 29.7063C7.99196 29.6983 7.87939 29.6983 7.76884 29.7063Z"
            fill="#0C1721" />
        <path fill-rule="evenodd" clip-rule="evenodd"
            d="M14.0622 16.3729C15.627 16.3627 17.1915 16.3805 18.7556 16.4262C17.1541 16.4388 15.5541 16.4507 13.9556 16.4618C14.0068 16.4484 14.0424 16.4188 14.0622 16.3729Z"
            fill="#130D0A" />
        <path fill-rule="evenodd" clip-rule="evenodd"
            d="M10.9334 18.4353C10.9039 18.169 10.8861 17.8964 10.88 17.6175C10.56 17.5701 10.24 17.5701 9.92003 17.6175C9.91395 17.8964 9.89617 18.169 9.8667 18.4353C9.8667 18.1509 9.8667 17.8664 9.8667 17.582C10.2042 17.5408 10.5479 17.5349 10.8978 17.5642C10.9327 17.8515 10.9446 18.1419 10.9334 18.4353Z"
            fill="#3571AD" />
        <path fill-rule="evenodd" clip-rule="evenodd"
            d="M10.9333 18.4354C11.1111 18.4354 11.2889 18.4354 11.4666 18.4354C11.4666 18.6961 11.4666 18.9568 11.4666 19.2176C11.2795 19.2067 11.0959 19.2186 10.9155 19.2531C10.8818 19.6004 10.8937 19.9441 10.9511 20.2842C10.9807 20.3139 11.0103 20.3435 11.04 20.3731C11.1764 20.4002 11.3068 20.3824 11.4311 20.3198C11.4548 20.3316 11.4785 20.3435 11.5022 20.3554C11.5842 20.5863 11.6434 20.8233 11.68 21.0665C11.5767 21.1324 11.4701 21.1917 11.36 21.2442C11.0556 21.3106 10.7474 21.3283 10.4355 21.2976C10.0866 21.1986 9.90293 20.9674 9.88441 20.6042C9.8784 20.1359 9.86062 19.6736 9.83108 19.2176C9.74404 19.183 9.64921 19.1711 9.54663 19.182C9.54663 18.945 9.54663 18.708 9.54663 18.4709C9.66087 18.4819 9.76754 18.4701 9.86663 18.4354C9.89611 18.1691 9.91388 17.8965 9.91996 17.6176C10.24 17.5702 10.56 17.5702 10.88 17.6176C10.886 17.8965 10.9038 18.1691 10.9333 18.4354Z"
            fill="#3896EF" />
        <path fill-rule="evenodd" clip-rule="evenodd"
            d="M1.12004 10.293C1.21775 10.3276 1.28886 10.3928 1.33338 10.4885C1.487 10.5063 1.64107 10.5122 1.7956 10.5063C1.7956 10.6011 1.7956 10.6959 1.7956 10.7907C1.73634 10.7907 1.67708 10.7907 1.61782 10.7907C1.60668 10.8884 1.61853 10.9832 1.65338 11.0752C1.68487 11.0459 1.69672 11.0103 1.68893 10.9685C1.87856 10.9685 2.06819 10.9685 2.25782 10.9685C2.25782 11.0041 2.25782 11.0396 2.25782 11.0752C2.16301 11.0752 2.06819 11.0752 1.97338 11.0752C1.97338 11.2648 1.97338 11.4545 1.97338 11.6441C2.06819 11.6441 2.16301 11.6441 2.25782 11.6441C2.2575 11.9309 2.2338 12.2154 2.18671 12.4974C2.24597 12.4974 2.30523 12.4974 2.36449 12.4974C2.36449 12.687 2.36449 12.8767 2.36449 13.0663C2.42375 13.0663 2.48301 13.0663 2.54227 13.0663C2.5364 13.1854 2.54233 13.3039 2.56004 13.4219C2.64301 13.4574 2.70227 13.5167 2.73782 13.5996C2.7722 13.9906 2.80184 14.0024 2.82671 13.6352C2.86227 13.6352 2.89782 13.6352 2.93338 13.6352C2.93338 13.73 2.93338 13.8248 2.93338 13.9196C2.99264 13.9196 3.0519 13.9196 3.11116 13.9196C3.11116 14.0145 3.11116 14.1093 3.11116 14.2041C3.14671 14.2041 3.18227 14.2041 3.21782 14.2041C3.21782 14.2989 3.21782 14.3937 3.21782 14.4885C3.08745 14.4885 2.95708 14.4885 2.82671 14.4885C2.82671 14.5834 2.82671 14.6781 2.82671 14.773C3.01634 14.773 3.20597 14.773 3.3956 14.773C3.3956 14.9626 3.3956 15.1522 3.3956 15.3419C3.49042 15.3419 3.58522 15.3419 3.68004 15.3419C3.67532 15.0916 3.74643 15.0857 3.89338 15.3241C4.10639 15.3418 4.31972 15.3478 4.53338 15.3419C4.53338 15.5315 4.53338 15.7211 4.53338 15.9107C4.56893 15.9107 4.60449 15.9107 4.64004 15.9107C4.64004 16.0056 4.64004 16.1004 4.64004 16.1952C4.60449 16.1952 4.56893 16.1952 4.53338 16.1952C4.53338 16.2545 4.53338 16.3137 4.53338 16.373C4.6282 16.373 4.723 16.373 4.81782 16.373C4.81782 16.4085 4.81782 16.4441 4.81782 16.4796C5.10227 16.4796 5.38671 16.4796 5.67116 16.4796C5.67116 16.6811 5.67116 16.8826 5.67116 17.0841C5.3391 17.0782 5.00723 17.0841 4.6756 17.1019C4.63617 17.1663 4.65988 17.1959 4.74671 17.1907C5.08588 17.1438 5.42956 17.1438 5.77782 17.1907C5.81085 17.1485 5.82269 17.1011 5.81338 17.0485C5.84893 17.0485 5.88449 17.0485 5.92004 17.0485C5.88876 17.2587 5.84136 17.4483 5.77782 17.6174C5.78376 17.7122 5.78966 17.807 5.7956 17.9019C5.81032 17.8856 5.8281 17.8737 5.84893 17.8663C5.91187 17.9621 5.93558 18.0687 5.92004 18.1863C5.96182 18.1941 5.99738 18.1822 6.02671 18.1507C6.04616 18.0458 6.08765 17.951 6.15116 17.8663C6.16605 17.9438 6.16012 18.0208 6.13338 18.0974C6.22035 19.0727 6.26184 20.0505 6.25782 21.0307C6.2638 20.1595 6.28157 19.2943 6.31116 18.4352C6.31116 19.3834 6.31116 20.3315 6.31116 21.2796C6.65487 21.2796 6.99855 21.2796 7.34227 21.2796C7.33206 20.7213 7.3439 20.1643 7.37782 19.6085C7.51841 19.3786 7.71987 19.2897 7.98227 19.3419C8.05754 19.4034 8.11087 19.4805 8.14227 19.573C8.16004 20.1299 8.16598 20.6869 8.16004 21.2441C8.27116 21.2789 8.38966 21.2908 8.5156 21.2796C8.5156 21.3152 8.5156 21.3507 8.5156 21.3863C8.45633 21.3863 8.39709 21.3863 8.33782 21.3863C8.33501 21.4371 8.34685 21.4846 8.37338 21.5285C8.30227 21.5404 8.23116 21.5522 8.16004 21.5641C8.20154 21.5759 8.243 21.5878 8.28449 21.5996C8.3641 21.5786 8.44115 21.5549 8.5156 21.5285C8.5156 21.7419 8.5156 21.9552 8.5156 22.1685C8.70671 22.1569 8.89633 22.1687 9.08449 22.2041C8.99254 22.2389 8.89772 22.2508 8.80004 22.2396C8.80004 22.3107 8.80004 22.3819 8.80004 22.453C8.89487 22.453 8.98966 22.453 9.08449 22.453C9.08449 22.7374 9.08449 23.0219 9.08449 23.3063C9.17932 23.3063 9.27411 23.3063 9.36893 23.3063C9.36893 23.3774 9.36893 23.4485 9.36893 23.5196C9.41071 23.5118 9.44627 23.5237 9.4756 23.5552C9.467 23.6554 9.467 23.7621 9.4756 23.8752C9.53487 23.8752 9.59411 23.8752 9.65338 23.8752C9.65338 24.1004 9.65338 24.3256 9.65338 24.5507C9.7482 24.5507 9.843 24.5507 9.93782 24.5507C9.93782 24.5152 9.93782 24.4796 9.93782 24.4441C10.0326 24.4441 10.1274 24.4441 10.2223 24.4441C10.2223 24.8234 10.2223 25.2026 10.2223 25.5819C10.4119 25.5819 10.6015 25.5819 10.7912 25.5819C10.7912 25.9611 10.7912 26.3404 10.7912 26.7196C10.9808 26.7196 11.1704 26.7196 11.36 26.7196C11.36 26.9093 11.36 27.0989 11.36 27.2885C11.3245 27.2885 11.2889 27.2885 11.2534 27.2885C11.2534 27.3834 11.2534 27.4781 11.2534 27.573C11.2889 27.573 11.3245 27.573 11.36 27.573C11.36 27.6678 11.36 27.7626 11.36 27.8574C11.5497 27.8574 11.7393 27.8574 11.9289 27.8574C11.9289 27.9522 11.9289 28.047 11.9289 28.1419C11.8934 28.1419 11.8578 28.1419 11.8223 28.1419C11.8223 28.2367 11.8223 28.3315 11.8223 28.4263C12.0474 28.4263 12.2726 28.4263 12.4978 28.4263C12.4978 28.8056 12.4978 29.1848 12.4978 29.5641C12.5571 29.5641 12.6163 29.5641 12.6756 29.5641C12.6756 29.6589 12.6756 29.7537 12.6756 29.8485C12.7112 29.8485 12.7467 29.8485 12.7823 29.8485C12.7823 29.7537 12.7823 29.6589 12.7823 29.5641C12.9719 29.5641 13.1615 29.5641 13.3512 29.5641C13.3512 29.6589 13.3512 29.7537 13.3512 29.8485C13.3867 29.8485 13.4223 29.8485 13.4578 29.8485C13.4578 29.7537 13.4578 29.6589 13.4578 29.5641C13.8963 29.5641 14.3349 29.5641 14.7734 29.5641C14.7734 29.7537 14.7734 29.9434 14.7734 30.133C15.2713 30.127 15.7691 30.133 16.2667 30.1507C16.3744 30.3487 16.5404 30.4376 16.7645 30.4174C16.7645 30.3463 16.7645 30.2752 16.7645 30.2041C16.6668 30.2152 16.572 30.2034 16.48 30.1685C16.6682 30.1331 16.8578 30.1213 17.0489 30.133C17.0489 30.2278 17.0489 30.3226 17.0489 30.4174C17.1793 30.4174 17.3097 30.4174 17.44 30.4174C17.44 30.3226 17.44 30.2278 17.44 30.133C17.4993 30.133 17.5586 30.133 17.6178 30.133C17.6178 30.1685 17.6178 30.2041 17.6178 30.2396C17.7126 30.2396 17.8074 30.2396 17.9023 30.2396C17.9023 30.4885 17.9023 30.7374 17.9023 30.9863C17.9378 30.9863 17.9734 30.9863 18.0089 30.9863C18.0089 30.8915 18.0089 30.7967 18.0089 30.7019C18.0682 30.7019 18.1274 30.7019 18.1867 30.7019C18.1867 30.607 18.1867 30.5122 18.1867 30.4174C18.2815 30.4174 18.3763 30.4174 18.4712 30.4174C18.4712 30.5122 18.4712 30.607 18.4712 30.7019C18.5067 30.7019 18.5423 30.7019 18.5778 30.7019C18.5778 30.607 18.5778 30.5122 18.5778 30.4174C18.6963 30.4174 18.8149 30.4174 18.9334 30.4174C18.9334 30.5122 18.9334 30.607 18.9334 30.7019C18.9689 30.7019 19.0045 30.7019 19.04 30.7019C19.04 30.7967 19.04 30.8915 19.04 30.9863C19.1349 30.9863 19.2297 30.9863 19.3245 30.9863C19.3418 31.1005 19.3181 31.2012 19.2534 31.2885C19.2837 31.3249 19.3193 31.3545 19.36 31.3774C19.4619 31.3314 19.5627 31.3314 19.6623 31.3774C19.6756 31.3448 19.6933 31.3152 19.7156 31.2885C19.6578 31.2955 19.5985 31.2955 19.5378 31.2885C19.6026 31.2012 19.6263 31.1005 19.6089 30.9863C19.7038 30.9863 19.7986 30.9863 19.8934 30.9863C19.8772 31.1459 19.8772 31.3 19.8934 31.4485C19.5863 31.488 19.29 31.5591 19.0045 31.6619C18.1592 31.8388 17.3059 31.9455 16.4445 31.9819C16.0415 31.9819 15.6386 31.9819 15.2356 31.9819C12.5662 31.819 10.0773 31.0605 7.76893 29.7063C7.87948 29.6983 7.99204 29.6983 8.10671 29.7063C8.13043 29.7537 8.15411 29.8011 8.17782 29.8485C8.18966 29.8367 8.20154 29.8248 8.21338 29.813C8.28904 29.9181 8.38383 29.9418 8.49782 29.8841C8.52154 29.7537 8.52154 29.6234 8.49782 29.493C8.41299 29.4481 8.34781 29.3829 8.30227 29.2974C8.24417 29.2798 8.1849 29.2739 8.12449 29.2796C8.12449 29.1848 8.12449 29.09 8.12449 28.9952C8.08893 28.9952 8.05338 28.9952 8.01782 28.9952C8.02895 28.8975 8.01711 28.8027 7.98227 28.7107C7.88378 28.6375 7.80079 28.5486 7.73338 28.4441C7.76708 28.4269 7.80264 28.421 7.84004 28.4263C7.84004 28.3315 7.84004 28.2367 7.84004 28.1419C7.78077 28.1419 7.72154 28.1419 7.66227 28.1419C7.67084 28.2663 7.64122 28.2781 7.57338 28.1774C7.55567 28.0714 7.54973 27.9647 7.5556 27.8574C7.59116 27.8574 7.62671 27.8574 7.66227 27.8574C7.66227 27.7626 7.66227 27.6678 7.66227 27.573C7.62486 27.5783 7.58931 27.5724 7.5556 27.5552C7.53188 27.4841 7.48449 27.4367 7.41338 27.413C7.30735 27.3953 7.20068 27.3893 7.09338 27.3952C7.09338 27.3596 7.09338 27.3241 7.09338 27.2885C7.15265 27.2885 7.21188 27.2885 7.27116 27.2885C7.27116 27.1937 7.27116 27.0989 7.27116 27.0041C7.31293 27.0119 7.34849 27 7.37782 26.9685C7.28588 26.9337 7.19105 26.9218 7.09338 26.933C7.10106 26.8554 7.07144 26.7962 7.00449 26.7552C6.98678 26.6492 6.98084 26.5425 6.98671 26.4352C6.95116 26.4352 6.9156 26.4352 6.88004 26.4352C6.89117 26.3375 6.87933 26.2427 6.84449 26.1507C6.75539 26.0794 6.67834 25.9964 6.61338 25.9019C6.59567 25.7958 6.58973 25.6892 6.5956 25.5819C6.633 25.5872 6.66856 25.5813 6.70227 25.5641C6.67855 25.493 6.63116 25.4456 6.56004 25.4219C6.45402 25.4042 6.34735 25.3982 6.24004 25.4041C6.24004 25.3685 6.24004 25.333 6.24004 25.2974C6.29932 25.2974 6.35855 25.2974 6.41782 25.2974C6.41782 25.2026 6.41782 25.1078 6.41782 25.013C6.38227 25.013 6.34671 25.013 6.31116 25.013C6.31116 24.9181 6.31116 24.8234 6.31116 24.7285C6.25188 24.7285 6.19265 24.7285 6.13338 24.7285C6.13338 24.6337 6.13338 24.5389 6.13338 24.4441C6.09782 24.4441 6.06227 24.4441 6.02671 24.4441C6.02671 24.3493 6.02671 24.2545 6.02671 24.1596C6.10152 24.1703 6.17263 24.1584 6.24004 24.1241C6.1481 24.0892 6.05327 24.0774 5.9556 24.0885C5.9556 24.0174 5.9556 23.9463 5.9556 23.8752C5.92004 23.8752 5.88449 23.8752 5.84893 23.8752C5.84893 23.7804 5.84893 23.6856 5.84893 23.5907C5.81338 23.5907 5.77782 23.5907 5.74227 23.5907C5.73551 23.4335 5.7118 23.2794 5.67116 23.1285C5.57633 23.1285 5.48154 23.1285 5.38671 23.1285C5.38671 23.093 5.38671 23.0574 5.38671 23.0219C5.46152 23.0325 5.53263 23.0206 5.60004 22.9863C5.56449 22.9152 5.52893 22.8441 5.49338 22.773C5.42596 22.7386 5.35485 22.7268 5.28004 22.7374C5.28004 22.6426 5.28004 22.5478 5.28004 22.453C5.24449 22.453 5.20893 22.453 5.17338 22.453C5.17338 22.3581 5.17338 22.2634 5.17338 22.1685C5.11411 22.1685 5.05487 22.1685 4.9956 22.1685C4.9956 22.0737 4.9956 21.9789 4.9956 21.8841C4.93633 21.8841 4.87709 21.8841 4.81782 21.8841C4.81782 21.7893 4.81782 21.6945 4.81782 21.5996C4.85338 21.5996 4.88893 21.5996 4.92449 21.5996C4.93053 21.5526 4.91869 21.5111 4.88893 21.4752C4.771 21.4575 4.65249 21.4515 4.53338 21.4574C4.53338 21.2559 4.53338 21.0545 4.53338 20.853C4.43855 20.853 4.34376 20.853 4.24893 20.853C4.3006 20.729 4.32428 20.5986 4.32004 20.4619C4.23709 20.4619 4.15411 20.4619 4.07116 20.4619C4.07116 20.5567 4.07116 20.6515 4.07116 20.7463C4.0356 20.7463 4.00004 20.7463 3.96449 20.7463C3.96449 20.4974 3.96449 20.2485 3.96449 19.9996C3.86966 19.9996 3.77487 19.9996 3.68004 19.9996C3.68004 19.9641 3.68004 19.9285 3.68004 19.893C3.77487 19.893 3.86966 19.893 3.96449 19.893C3.96449 19.7981 3.96449 19.7034 3.96449 19.6085C3.79855 19.6085 3.63265 19.6085 3.46671 19.6085C3.44301 19.4189 3.41931 19.2293 3.3956 19.0396C3.32449 19.0396 3.25338 19.0396 3.18227 19.0396C3.18227 18.9448 3.18227 18.85 3.18227 18.7552C3.06375 18.7552 2.94523 18.7552 2.82671 18.7552C2.82671 18.6959 2.82671 18.6367 2.82671 18.5774C2.7319 18.5774 2.63708 18.5774 2.54227 18.5774C2.54227 18.447 2.54227 18.3167 2.54227 18.1863C2.48301 18.1863 2.42375 18.1863 2.36449 18.1863C2.36449 18.2811 2.36449 18.3759 2.36449 18.4707C2.32893 18.4707 2.29338 18.4707 2.25782 18.4707C2.25782 18.2811 2.25782 18.0915 2.25782 17.9019C2.35264 17.9019 2.44745 17.9019 2.54227 17.9019C2.54227 17.807 2.54227 17.7122 2.54227 17.6174C2.44745 17.6174 2.35264 17.6174 2.25782 17.6174C2.25782 17.5226 2.25782 17.4278 2.25782 17.333C2.16301 17.333 2.06819 17.333 1.97338 17.333C1.95682 17.12 1.94497 16.9066 1.93782 16.693C1.85486 16.693 1.7719 16.693 1.68893 16.693C1.68893 16.6219 1.68893 16.5507 1.68893 16.4796C1.59412 16.4796 1.4993 16.4796 1.40449 16.4796C1.40449 16.3848 1.40449 16.29 1.40449 16.1952C1.36893 16.1952 1.33338 16.1952 1.29782 16.1952C1.29782 16.1004 1.29782 16.0056 1.29782 15.9107C1.20301 15.9107 1.10819 15.9107 1.01338 15.9107C1.01338 15.8159 1.01338 15.7211 1.01338 15.6263C0.977822 15.6263 0.942267 15.6263 0.906711 15.6263C0.906711 15.5315 0.906711 15.4367 0.906711 15.3419C0.788194 15.3419 0.669673 15.3419 0.551156 15.3419C0.557072 15.0572 0.551145 14.7727 0.533378 14.4885C0.473314 14.5689 0.431831 14.6578 0.408933 14.7552C0.44264 14.7724 0.478196 14.7783 0.5156 14.773C0.491895 14.9626 0.468194 15.1522 0.444489 15.3419C0.397083 15.3419 0.349674 15.3419 0.302267 15.3419C0.285204 15.1229 0.308908 14.9096 0.373378 14.7019C0.351647 14.5873 0.310165 14.4807 0.248933 14.3819C0.240074 14.4218 0.222296 14.4574 0.1956 14.4885C0.14488 14.8671 0.109325 15.2405 0.0889334 15.6085C0.120228 15.6567 0.13208 15.7101 0.124489 15.7685C0.0889334 15.7685 0.0533778 15.7685 0.0178223 15.7685C0.0178223 15.567 0.0178223 15.3656 0.0178223 15.1641C0.0647904 13.7213 0.325531 12.3228 0.800045 10.9685C0.795387 10.9948 0.801314 11.0185 0.817822 11.0396C0.879682 10.9964 0.915237 10.9372 0.924489 10.8619C0.93634 10.8974 0.948194 10.933 0.960045 10.9685C0.971895 10.8974 0.983749 10.8263 0.9956 10.7552C1.00745 10.767 1.0193 10.7789 1.03116 10.7907C1.04245 10.7352 1.07208 10.6938 1.12004 10.6663C1.11441 10.5494 1.11441 10.425 1.12004 10.293Z"
            fill="#0A131C" />
        <path fill-rule="evenodd" clip-rule="evenodd"
            d="M4.74671 17.1914C5.06671 17.1914 5.38671 17.1914 5.70671 17.1914C5.70671 17.4759 5.70671 17.7603 5.70671 18.0447C5.40389 18.0563 5.1076 18.0445 4.81782 18.0092C5.10227 18.0092 5.38671 18.0092 5.67116 18.0092C5.67116 17.7485 5.67116 17.4877 5.67116 17.227C5.37487 17.227 5.07855 17.227 4.78227 17.227C4.78227 17.4759 4.78227 17.7247 4.78227 17.9736C4.747 17.7195 4.73516 17.4587 4.74671 17.1914Z"
            fill="#3C78B4" />
        <path fill-rule="evenodd" clip-rule="evenodd"
            d="M4.81778 18.0088C4.79407 18.0088 4.78223 17.9969 4.78223 17.9732C4.78223 17.7243 4.78223 17.4755 4.78223 17.2266C5.07851 17.2266 5.37483 17.2266 5.67112 17.2266C5.67112 17.4873 5.67112 17.7481 5.67112 18.0088C5.38667 18.0088 5.10223 18.0088 4.81778 18.0088Z"
            fill="#3897F0" />
        <path fill-rule="evenodd" clip-rule="evenodd"
            d="M5.63548 18.4002C5.35103 18.4002 5.06659 18.4002 4.78214 18.4002C4.78214 19.3128 4.78214 20.2254 4.78214 21.138C4.78214 21.1617 4.78214 21.1854 4.78214 21.2091C4.74666 20.2671 4.73482 19.3189 4.74659 18.3647C5.04941 18.3531 5.3457 18.3649 5.63548 18.4002Z"
            fill="#215589" />
        <path fill-rule="evenodd" clip-rule="evenodd"
            d="M8.65779 18.4352C8.85964 18.5185 9.00186 18.6608 9.08446 18.8619C9.14423 18.9715 9.16794 19.09 9.15557 19.2174C9.15557 19.893 9.15557 20.5686 9.15557 21.2441C8.82373 21.2441 8.49185 21.2441 8.16001 21.2441C8.16595 20.687 8.16001 20.1299 8.14224 19.573C8.11084 19.4805 8.05751 19.4034 7.98224 19.3419C7.71984 19.2897 7.51838 19.3786 7.37779 19.6086C7.35212 19.6234 7.33434 19.6471 7.32446 19.6797C7.30668 20.1891 7.30074 20.6988 7.30668 21.2086C6.98668 21.2086 6.66668 21.2086 6.34668 21.2086C6.34668 20.296 6.34668 19.3834 6.34668 18.4708C6.64296 18.4708 6.93928 18.4708 7.23557 18.4708C7.2297 18.5899 7.23564 18.7084 7.25335 18.8263C7.6457 18.4429 8.11386 18.3126 8.65779 18.4352Z"
            fill="#3896F0" />
        <path fill-rule="evenodd" clip-rule="evenodd"
            d="M25.2623 18.364C25.9169 18.2681 26.468 18.4577 26.9156 18.9329C27.3755 19.6845 27.2866 20.366 26.649 20.9773C26.2018 21.2463 25.7159 21.3412 25.1912 21.2618C24.3254 20.9595 23.964 20.3491 24.1067 19.4307C24.1847 19.1829 24.2973 18.9578 24.4445 18.7551C24.7033 18.5961 24.9759 18.4657 25.2623 18.364Z"
            fill="#3896EE" />
        <path fill-rule="evenodd" clip-rule="evenodd"
            d="M5.63556 18.4004C5.60104 19.2763 5.58916 20.1533 5.6 21.0315C5.48278 21.0254 5.4709 21.0491 5.56445 21.1026C5.30479 21.1381 5.04402 21.1499 4.78223 21.1382C4.78223 20.2256 4.78223 19.313 4.78223 18.4004C5.06667 18.4004 5.35112 18.4004 5.63556 18.4004Z"
            fill="#3897F0" />
        <path fill-rule="evenodd" clip-rule="evenodd"
            d="M5.63556 18.4004C5.67104 19.3306 5.68288 20.2669 5.67112 21.2093C5.37483 21.2093 5.07851 21.2093 4.78223 21.2093C4.78223 21.1856 4.78223 21.1619 4.78223 21.1382C5.04402 21.1499 5.30479 21.1381 5.56445 21.1026C5.4709 21.0491 5.48278 21.0254 5.6 21.0315C5.58916 20.1533 5.60104 19.2763 5.63556 18.4004Z"
            fill="#3A81C8" />
        <path fill-rule="evenodd" clip-rule="evenodd"
            d="M16.3021 19.5382C16.2667 20.1009 16.2548 20.6698 16.2666 21.2449C15.9347 21.2449 15.6028 21.2449 15.271 21.2449C15.271 20.3204 15.271 19.396 15.271 18.4715C15.5792 18.4715 15.8873 18.4715 16.1954 18.4715C16.184 18.604 16.1958 18.7344 16.231 18.8626C16.3923 18.6045 16.6175 18.4327 16.9066 18.3471C17.0006 18.3294 17.0955 18.3235 17.191 18.3293C17.191 18.6493 17.191 18.9693 17.191 19.2893C16.961 19.2815 16.7358 19.3111 16.5154 19.3782C16.4386 19.4256 16.3675 19.4789 16.3021 19.5382Z"
            fill="#3896EF" />
        <path fill-rule="evenodd" clip-rule="evenodd"
            d="M9.86679 18.4355C9.76769 18.4703 9.66103 18.4821 9.54679 18.4711C9.54679 18.7082 9.54679 18.9452 9.54679 19.1822C9.64936 19.1713 9.74419 19.1832 9.83123 19.2178C9.72456 19.2178 9.6179 19.2178 9.51123 19.2178C9.51123 18.957 9.51123 18.6963 9.51123 18.4355C9.62974 18.4355 9.74828 18.4355 9.86679 18.4355Z"
            fill="#3872AC" />
        <path fill-rule="evenodd" clip-rule="evenodd"
            d="M23.6978 21.3158C23.6978 20.3676 23.6978 19.4195 23.6978 18.4714C23.4368 18.4655 23.1761 18.4714 22.9156 18.4891C22.8695 18.5887 22.8695 18.6895 22.9156 18.7914C22.874 18.8524 22.8148 18.8761 22.7378 18.8625C22.7378 18.8269 22.7378 18.7914 22.7378 18.7558C22.7969 18.67 22.8324 18.5693 22.8445 18.4536C23.1405 18.4358 23.4368 18.4299 23.7333 18.4358C23.7451 19.4019 23.7333 20.3619 23.6978 21.3158Z"
            fill="#397AB9" />
        <path fill-rule="evenodd" clip-rule="evenodd"
            d="M22.7377 18.7552C22.7377 18.7907 22.7377 18.8263 22.7377 18.8619C22.8147 18.8755 22.8739 18.8518 22.9155 18.7907C22.8694 18.6888 22.8694 18.5881 22.9155 18.4885C23.1759 18.4707 23.4367 18.4648 23.6977 18.4707C23.6977 19.4189 23.6977 20.367 23.6977 21.3152C23.5887 21.8214 23.2923 22.171 22.8088 22.3641C22.3536 22.5011 21.8914 22.5248 21.4221 22.4352C21.1259 22.3553 20.8711 22.2072 20.6577 21.9907C20.634 21.9552 20.634 21.9196 20.6577 21.8841C20.8124 21.7175 20.9783 21.5634 21.1555 21.4219C21.2704 21.4823 21.383 21.5475 21.4932 21.6174C21.833 21.7941 22.1649 21.7822 22.4888 21.5819C22.6536 21.3942 22.7188 21.1749 22.6843 20.9241C22.3737 21.2686 21.9885 21.3931 21.5288 21.2974C21.0789 21.1498 20.7945 20.8476 20.6755 20.3907C20.6343 20.1063 20.6343 19.8219 20.6755 19.5374C20.7376 19.3307 20.8087 19.1292 20.8888 18.933C21.2491 18.4593 21.7232 18.2993 22.311 18.453C22.4471 18.515 22.5774 18.5862 22.7021 18.6663C22.7289 18.6902 22.7407 18.7198 22.7377 18.7552Z"
            fill="#3896EF" />
        <path fill-rule="evenodd" clip-rule="evenodd"
            d="M20.8889 18.9336C20.8089 19.1298 20.7378 19.3313 20.6756 19.538C20.6344 19.8225 20.6344 20.107 20.6756 20.3914C20.6483 20.3642 20.6305 20.3287 20.6223 20.2847C20.5986 20.0121 20.5986 19.7395 20.6223 19.4669C20.6746 19.2675 20.7635 19.0897 20.8889 18.9336Z"
            fill="#3D82C6" />
        <path fill-rule="evenodd" clip-rule="evenodd"
            d="M14.7377 19.1111C14.9117 19.4307 14.9591 19.7685 14.88 20.1244C14.8311 20.1555 14.7778 20.1733 14.72 20.1777C14.1459 20.1375 13.5711 20.1316 12.9955 20.1599C12.9555 20.1688 12.92 20.1866 12.8888 20.2133C12.8933 20.2349 12.9051 20.2467 12.9244 20.2488C12.9488 20.3976 13.0317 20.4984 13.1733 20.5511C13.3155 20.5748 13.4577 20.5748 13.6 20.5511C13.6926 20.5229 13.7637 20.4696 13.8133 20.3911C13.8548 20.3443 13.9081 20.3206 13.9733 20.3199C14.0493 20.3405 14.1263 20.3523 14.2044 20.3555C14.3255 20.4127 14.4559 20.4542 14.5955 20.4799C14.7614 20.5456 14.7792 20.6464 14.6488 20.7822C14.0646 21.3233 13.395 21.4596 12.64 21.1911C12.0769 20.9186 11.7925 20.4683 11.7866 19.8399C11.8478 19.0526 12.2626 18.5786 13.0311 18.4177C13.56 18.3318 14.0341 18.4503 14.4533 18.7733C14.569 18.8709 14.6638 18.9835 14.7377 19.1111Z"
            fill="#3995ED" />
        <path fill-rule="evenodd" clip-rule="evenodd"
            d="M13.1734 19.147C13.5147 19.0775 13.7162 19.2079 13.7778 19.5381C13.4815 19.5381 13.1852 19.5381 12.8889 19.5381C12.9019 19.3475 12.9968 19.2171 13.1734 19.147Z"
            fill="#0B1018" />
        <path fill-rule="evenodd" clip-rule="evenodd"
            d="M18.1866 19.4669C18.43 19.4432 18.6789 19.4195 18.9333 19.3958C18.6015 19.3669 18.2696 19.3432 17.9377 19.3247C18.0463 19.2235 18.1767 19.1583 18.3289 19.1291C18.5303 19.1054 18.7318 19.1054 18.9333 19.1291C19.1017 19.2212 19.1491 19.3575 19.0755 19.538C18.7834 19.4746 18.4871 19.4509 18.1866 19.4669Z"
            fill="#0C121D" />
        <path fill-rule="evenodd" clip-rule="evenodd"
            d="M23.7688 18.542C23.8162 18.9858 23.8399 19.4421 23.84 19.9109C23.8281 20.3672 23.8162 20.8235 23.8044 21.2798C23.7688 20.3675 23.757 19.4549 23.7688 18.542Z"
            fill="#170C08" />
        <path fill-rule="evenodd" clip-rule="evenodd"
            d="M16.1956 18.4715C15.8874 18.4715 15.5793 18.4715 15.2712 18.4715C15.2712 19.396 15.2712 20.3204 15.2712 21.2448C15.2357 20.3147 15.2238 19.3784 15.2356 18.436C15.5621 18.4243 15.8821 18.4362 16.1956 18.4715Z"
            fill="#284B72" />
        <path fill-rule="evenodd" clip-rule="evenodd"
            d="M20.1422 19.396C20.1304 19.7287 20.1423 20.0605 20.1778 20.3916C20.2217 20.4181 20.2692 20.4299 20.32 20.4271C20.32 20.6997 20.32 20.9723 20.32 21.2449C20.2741 21.2365 20.2385 21.2483 20.2133 21.2804C19.9749 21.3376 19.7379 21.3198 19.5022 21.2271C19.3997 21.1346 19.3404 21.022 19.3244 20.8893C19.1953 20.9287 19.0887 21.0057 19.0044 21.1204C18.6569 21.3192 18.2895 21.3666 17.9022 21.2627C17.3417 20.956 17.1936 20.5115 17.4578 19.9293C17.6528 19.6916 17.8957 19.5375 18.1867 19.4671C18.4872 19.4511 18.7835 19.4748 19.0756 19.5382C19.1491 19.3577 19.1017 19.2214 18.9333 19.1293C18.7318 19.1056 18.5304 19.1056 18.3289 19.1293C18.1767 19.1585 18.0463 19.2237 17.9378 19.3249C17.8784 19.3338 17.8251 19.3575 17.7778 19.396C17.624 19.2071 17.5291 18.9937 17.4933 18.756C17.8684 18.5052 18.2832 18.3866 18.7378 18.4004C19.1846 18.3756 19.5757 18.5059 19.9111 18.7916C20.0676 18.9624 20.1447 19.1639 20.1422 19.396Z"
            fill="#3895ED" />
        <path fill-rule="evenodd" clip-rule="evenodd"
            d="M25.4756 19.2535C25.9888 19.2394 26.2081 19.4883 26.1334 20.0002C25.9242 20.4747 25.6279 20.5458 25.2445 20.2135C25.0287 19.8136 25.1057 19.4936 25.4756 19.2535Z"
            fill="#0D1119" />
        <path fill-rule="evenodd" clip-rule="evenodd"
            d="M13.8134 20.3912C13.7639 20.4697 13.6928 20.5231 13.6001 20.5512C13.4579 20.5749 13.3157 20.5749 13.1734 20.5512C13.0319 20.4986 12.9489 20.3978 12.9246 20.249C13.2472 20.2219 13.5732 20.2101 13.9023 20.2134C13.9868 20.21 14.0638 20.2278 14.1334 20.2668C14.0274 20.2845 13.9208 20.2904 13.8134 20.2846C13.8134 20.3201 13.8134 20.3557 13.8134 20.3912Z"
            fill="#0B1015" />
        <path fill-rule="evenodd" clip-rule="evenodd"
            d="M21.991 19.2891C22.5507 19.2982 22.7819 19.5827 22.6843 20.1424C22.5735 20.4513 22.3542 20.5638 22.0266 20.4802C21.8932 20.4299 21.7925 20.341 21.7243 20.2135C21.5783 19.8258 21.6672 19.5177 21.991 19.2891Z"
            fill="#0B0F18" />
        <path fill-rule="evenodd" clip-rule="evenodd"
            d="M18.5066 20.036C18.7097 20.0293 18.9111 20.0412 19.111 20.0715C19.1569 20.4169 19.0028 20.5828 18.6488 20.5693C18.3941 20.5813 18.2815 20.4628 18.311 20.2138C18.3725 20.1461 18.4377 20.0869 18.5066 20.036Z"
            fill="#0A1018" />
        <path fill-rule="evenodd" clip-rule="evenodd"
            d="M6.31104 18.4359C6.62567 18.4243 6.93383 18.4362 7.23548 18.4715C6.9392 18.4715 6.64288 18.4715 6.34659 18.4715C6.34659 19.3841 6.34659 20.2967 6.34659 21.2093C6.66659 21.2093 6.98659 21.2093 7.30659 21.2093C7.30065 20.6995 7.30659 20.1899 7.32437 19.6804C7.33425 19.6478 7.35203 19.6241 7.3777 19.6093C7.34378 20.165 7.33194 20.7221 7.34215 21.2804C6.99843 21.2804 6.65475 21.2804 6.31104 21.2804C6.31104 20.3322 6.31104 19.3841 6.31104 18.4359Z"
            fill="#3F80BE" />
        <path fill-rule="evenodd" clip-rule="evenodd"
            d="M14.7378 19.1113C14.8371 19.143 14.8845 19.2142 14.88 19.3247C14.9274 19.3247 14.9749 19.3247 15.0222 19.3247C14.9611 19.6044 14.9374 19.8889 14.9511 20.178C14.9885 20.1727 15.0241 20.1786 15.0578 20.1958C15.046 20.2076 15.0341 20.2195 15.0222 20.2313C15.08 20.271 15.1155 20.3244 15.1289 20.3913C15.0703 20.5995 15.0407 20.8128 15.04 21.0313C15.0075 21.0608 14.9838 21.0963 14.9689 21.138C14.9443 21.1193 14.9265 21.0956 14.9156 21.0669C14.9754 20.8542 15.011 20.6349 15.0222 20.4091C14.8206 20.21 14.5836 20.1507 14.3111 20.2313C14.4134 20.2714 14.5201 20.2951 14.6311 20.3024C14.6193 20.3143 14.6074 20.3262 14.5956 20.338C14.49 20.3324 14.3833 20.3146 14.2756 20.2847C14.2325 20.2934 14.2087 20.3172 14.2045 20.3558C14.1264 20.3526 14.0493 20.3407 13.9734 20.3202C13.9082 20.3209 13.8549 20.3446 13.8134 20.3913C13.8134 20.3558 13.8134 20.3202 13.8134 20.2847C13.9207 20.2905 14.0273 20.2846 14.1334 20.2669C14.0637 20.2279 13.9867 20.2101 13.9022 20.2136C13.5731 20.2102 13.2471 20.222 12.9245 20.2491C12.9052 20.247 12.8933 20.2351 12.8889 20.2136C12.9201 20.1868 12.9556 20.1691 12.9956 20.1602C13.5712 20.1319 14.146 20.1378 14.72 20.178C14.7779 20.1736 14.8312 20.1558 14.88 20.1247C14.9592 19.7688 14.9117 19.431 14.7378 19.1113Z"
            fill="#08101D" />
        <path fill-rule="evenodd" clip-rule="evenodd"
            d="M20.1421 19.3955C20.1716 19.6855 20.1894 19.9818 20.1954 20.2844C20.2307 20.3356 20.2781 20.3711 20.3377 20.3911C20.3554 20.6871 20.3613 20.9834 20.3554 21.28C20.308 21.28 20.2606 21.28 20.2132 21.28C20.2384 21.2478 20.274 21.236 20.3199 21.2444C20.3199 20.9718 20.3199 20.6992 20.3199 20.4266C20.269 20.4294 20.2216 20.4176 20.1777 20.3911C20.1422 20.06 20.1303 19.7282 20.1421 19.3955Z"
            fill="#4688C8" />
        <path fill-rule="evenodd" clip-rule="evenodd"
            d="M9.86658 17.5823C9.86658 17.8667 9.86658 18.1511 9.86658 18.4356C9.74807 18.4356 9.62953 18.4356 9.51102 18.4356C9.51102 18.6963 9.51102 18.9571 9.51102 19.2178C9.61769 19.2178 9.72436 19.2178 9.83102 19.2178C9.86057 19.6739 9.87835 20.1361 9.88436 20.6045C9.90288 20.9677 10.0866 21.1988 10.4355 21.2978C10.7474 21.3286 11.0555 21.3108 11.3599 21.2445C11.2927 21.2737 11.2216 21.3033 11.1466 21.3334C10.9095 21.3452 10.6725 21.3571 10.4355 21.3689C10.6784 21.415 10.9273 21.4387 11.1821 21.44C11.1703 21.4519 11.1584 21.4637 11.1466 21.4756C10.833 21.4765 10.5248 21.5121 10.2221 21.5823C10.5182 21.5837 10.8146 21.5719 11.111 21.5467C11.2426 21.5431 11.3671 21.5135 11.4844 21.4578C11.5875 21.4911 11.5934 21.5326 11.5021 21.5823C11.6836 21.6104 11.7192 21.5512 11.6088 21.4045C11.5201 21.3989 11.4371 21.393 11.3599 21.3867C11.543 21.2417 11.6971 21.2713 11.8221 21.4756C11.7917 21.5001 11.768 21.5297 11.751 21.5645C11.8223 21.6045 11.8698 21.5808 11.8932 21.4934C11.8667 21.4494 11.8549 21.402 11.8577 21.3511C11.9776 21.3174 12.0961 21.3174 12.2132 21.3511C12.2251 21.363 12.237 21.3749 12.2488 21.3867C12.2132 21.3985 12.1777 21.4104 12.1421 21.4223C12.0706 21.4102 11.9995 21.3983 11.9288 21.3867C11.9112 21.573 11.9882 21.6205 12.1599 21.5289C12.2725 21.5575 12.3851 21.5813 12.4977 21.6C12.4977 21.9793 12.4977 22.3585 12.4977 22.7378C12.877 22.7378 13.2562 22.7378 13.6355 22.7378C13.6355 22.9274 13.6355 23.1171 13.6355 23.3067C14.2044 23.3067 14.7732 23.3067 15.3421 23.3067C15.3421 23.686 15.3421 24.0652 15.3421 24.4445C15.7214 24.4445 16.1006 24.4445 16.4799 24.4445C16.4799 24.8237 16.4799 25.203 16.4799 25.5823C16.8592 25.5823 17.2384 25.5823 17.6177 25.5823C17.6177 25.3926 17.6177 25.203 17.6177 25.0134C17.8073 25.0134 17.997 25.0134 18.1866 25.0134C18.1866 25.203 18.1866 25.3926 18.1866 25.5823C18.3762 25.5823 18.5658 25.5823 18.7555 25.5823C18.7555 25.7719 18.7555 25.9615 18.7555 26.1511C18.9451 26.1511 19.1347 26.1511 19.3244 26.1511C19.3244 26.0563 19.3244 25.9615 19.3244 25.8667C19.514 25.8667 19.7036 25.8667 19.8932 25.8667C19.8932 25.9615 19.8932 26.0563 19.8932 26.1511C20.4621 26.1511 21.031 26.1511 21.5999 26.1511C21.5999 26.246 21.5999 26.3408 21.5999 26.4356C21.7895 26.4356 21.9792 26.4356 22.1688 26.4356C22.1688 26.3408 22.1688 26.246 22.1688 26.1511C22.7377 26.1511 23.3066 26.1511 23.8755 26.1511C23.8755 26.3408 23.8755 26.5304 23.8755 26.72C24.1483 26.7141 24.4209 26.72 24.6932 26.7378C24.6221 26.8208 24.551 26.9037 24.4799 26.9867C24.562 27.0044 24.645 27.0103 24.7288 27.0045C24.7288 26.9096 24.7288 26.8149 24.7288 26.72C24.9184 26.72 25.1081 26.72 25.2977 26.72C25.2977 26.8149 25.2977 26.9096 25.2977 27.0045C25.4873 27.0045 25.677 27.0045 25.8666 27.0045C25.8666 27.0993 25.8666 27.1941 25.8666 27.2889C25.9504 27.2947 26.0333 27.2888 26.1155 27.2711C26.0444 27.1882 25.9732 27.1052 25.9021 27.0223C25.9843 27.0046 26.0672 26.9987 26.151 27.0045C26.151 27.1941 26.151 27.3837 26.151 27.5734C26.1984 27.5734 26.2458 27.5734 26.2932 27.5734C26.2932 27.4785 26.2932 27.3837 26.2932 27.2889C26.4355 27.2889 26.5777 27.2889 26.7199 27.2889C26.7146 27.3263 26.7205 27.3619 26.7377 27.3956C26.8477 27.406 26.901 27.4652 26.8977 27.5734C26.8603 27.5681 26.8247 27.574 26.791 27.5911C26.8211 27.6465 26.7974 27.6821 26.7199 27.6978C26.7438 27.7329 26.7438 27.7744 26.7199 27.8223C24.5229 29.8274 21.9511 31.1074 19.0044 31.6623C19.2899 31.5595 19.5862 31.4884 19.8932 31.4489C19.877 31.3004 19.877 31.1463 19.8932 30.9867C19.7984 30.9867 19.7036 30.9867 19.6088 30.9867C19.6262 31.1009 19.6024 31.2016 19.5377 31.2889C19.5984 31.2959 19.6577 31.2959 19.7155 31.2889C19.6932 31.3156 19.6754 31.3452 19.6621 31.3778C19.5625 31.3318 19.4618 31.3318 19.3599 31.3778C19.3192 31.3549 19.2836 31.3253 19.2532 31.2889C19.318 31.2016 19.3417 31.1009 19.3244 30.9867C19.2295 30.9867 19.1347 30.9867 19.0399 30.9867C19.0399 30.8919 19.0399 30.7971 19.0399 30.7023C19.0044 30.7023 18.9688 30.7023 18.9332 30.7023C18.9332 30.6074 18.9332 30.5126 18.9332 30.4178C18.8147 30.4178 18.6962 30.4178 18.5777 30.4178C18.5777 30.5126 18.5777 30.6074 18.5777 30.7023C18.5421 30.7023 18.5066 30.7023 18.471 30.7023C18.471 30.6074 18.471 30.5126 18.471 30.4178C18.3762 30.4178 18.2814 30.4178 18.1866 30.4178C18.1866 30.5126 18.1866 30.6074 18.1866 30.7023C18.1273 30.7023 18.0681 30.7023 18.0088 30.7023C18.0088 30.7971 18.0088 30.8919 18.0088 30.9867C17.9732 30.9867 17.9377 30.9867 17.9021 30.9867C17.9021 30.7378 17.9021 30.4889 17.9021 30.24C17.8073 30.24 17.7125 30.24 17.6177 30.24C17.6177 30.2045 17.6177 30.1689 17.6177 30.1334C17.5584 30.1334 17.4992 30.1334 17.4399 30.1334C17.4399 30.2282 17.4399 30.323 17.4399 30.4178C17.3095 30.4178 17.1792 30.4178 17.0488 30.4178C17.0488 30.323 17.0488 30.2282 17.0488 30.1334C16.8577 30.1217 16.6681 30.1335 16.4799 30.1689C16.5719 30.2038 16.6667 30.2156 16.7644 30.2045C16.7644 30.2756 16.7644 30.3467 16.7644 30.4178C16.5402 30.438 16.3743 30.3491 16.2666 30.1511C15.7689 30.1334 15.2712 30.1274 14.7732 30.1334C14.7732 29.9437 14.7732 29.7541 14.7732 29.5645C14.3347 29.5645 13.8962 29.5645 13.4577 29.5645C13.4577 29.6593 13.4577 29.7541 13.4577 29.8489C13.4221 29.8489 13.3866 29.8489 13.351 29.8489C13.351 29.7541 13.351 29.6593 13.351 29.5645C13.1614 29.5645 12.9718 29.5645 12.7821 29.5645C12.7821 29.6593 12.7821 29.7541 12.7821 29.8489C12.7466 29.8489 12.711 29.8489 12.6755 29.8489C12.6755 29.7541 12.6755 29.6593 12.6755 29.5645C12.6162 29.5645 12.557 29.5645 12.4977 29.5645C12.4977 29.1852 12.4977 28.806 12.4977 28.4267C12.2725 28.4267 12.0473 28.4267 11.8221 28.4267C11.8221 28.3319 11.8221 28.2371 11.8221 28.1423C11.8577 28.1423 11.8932 28.1423 11.9288 28.1423C11.9288 28.0474 11.9288 27.9526 11.9288 27.8578C11.7392 27.8578 11.5495 27.8578 11.3599 27.8578C11.3599 27.763 11.3599 27.6682 11.3599 27.5734C11.3244 27.5734 11.2888 27.5734 11.2532 27.5734C11.2532 27.4785 11.2532 27.3837 11.2532 27.2889C11.2888 27.2889 11.3244 27.2889 11.3599 27.2889C11.3599 27.0993 11.3599 26.9096 11.3599 26.72C11.1703 26.72 10.9806 26.72 10.791 26.72C10.791 26.3408 10.791 25.9615 10.791 25.5823C10.6014 25.5823 10.4118 25.5823 10.2221 25.5823C10.2221 25.203 10.2221 24.8237 10.2221 24.4445C10.1273 24.4445 10.0325 24.4445 9.93769 24.4445C9.93769 24.48 9.93769 24.5156 9.93769 24.5511C9.84286 24.5511 9.74807 24.5511 9.65325 24.5511C9.65325 24.326 9.65325 24.1008 9.65325 23.8756C9.59397 23.8756 9.53474 23.8756 9.47547 23.8756C9.46686 23.7625 9.46686 23.6558 9.47547 23.5556C9.44613 23.5241 9.41058 23.5122 9.3688 23.52C9.3688 23.4489 9.3688 23.3778 9.3688 23.3067C9.27397 23.3067 9.17918 23.3067 9.08436 23.3067C9.08436 23.0223 9.08436 22.7378 9.08436 22.4534C8.98953 22.4534 8.89474 22.4534 8.79991 22.4534C8.79991 22.3823 8.79991 22.3111 8.79991 22.24C8.89758 22.2512 8.99241 22.2393 9.08436 22.2045C8.8962 22.1691 8.70658 22.1573 8.51547 22.1689C8.51547 21.9556 8.51547 21.7423 8.51547 21.5289C8.44101 21.5553 8.36397 21.579 8.28436 21.6C8.24286 21.5882 8.20141 21.5763 8.15991 21.5645C8.23102 21.5526 8.30213 21.5408 8.37325 21.5289C8.34672 21.485 8.33488 21.4375 8.33769 21.3867C8.39696 21.3867 8.4562 21.3867 8.51547 21.3867C8.51547 21.3511 8.51547 21.3156 8.51547 21.28C8.74064 21.28 8.96585 21.28 9.19102 21.28C9.20276 20.5864 9.19092 19.899 9.15547 19.2178C9.16784 19.0903 9.14413 18.9718 9.08436 18.8623C9.1165 18.837 9.12834 18.8015 9.11991 18.7556C9.15547 18.7556 9.19102 18.7556 9.22658 18.7556C9.22658 18.8149 9.22658 18.8741 9.22658 18.9334C9.26213 18.9334 9.29769 18.9334 9.33325 18.9334C9.33325 18.8504 9.33325 18.7674 9.33325 18.6845C9.24706 18.6954 9.16411 18.6836 9.08436 18.6489C9.12656 18.6127 9.16212 18.5712 9.19102 18.5245C9.0642 18.4638 9.05826 18.3986 9.17325 18.3289C9.31454 18.6646 9.36788 18.6409 9.33325 18.2578C9.27479 18.2502 9.22146 18.2621 9.17325 18.2934C9.15607 18.2597 9.15017 18.2241 9.15547 18.1867C9.23842 18.1867 9.32141 18.1867 9.40436 18.1867C9.4067 18.3379 9.46004 18.3616 9.56436 18.2578C9.61122 18.3802 9.70011 18.4276 9.83102 18.4C9.83102 18.1393 9.83102 17.8785 9.83102 17.6178C9.77175 17.6178 9.71252 17.6178 9.65325 17.6178C9.64766 17.569 9.6536 17.5216 9.67102 17.4756C9.70402 17.5657 9.76923 17.6013 9.86658 17.5823Z"
            fill="#0A1119" />
        <path fill-rule="evenodd" clip-rule="evenodd"
            d="M9.15547 19.2178C9.19092 19.899 9.20276 20.5864 9.19102 21.28C8.96585 21.28 8.74064 21.28 8.51547 21.28C8.38953 21.2911 8.27102 21.2792 8.15991 21.2444C8.49175 21.2444 8.82363 21.2444 9.15547 21.2444C9.15547 20.5689 9.15547 19.8933 9.15547 19.2178Z"
            fill="#2F5E8C" />
        <path fill-rule="evenodd" clip-rule="evenodd"
            d="M16.3021 19.5381C16.3021 20.1188 16.3021 20.6996 16.3021 21.2803C15.952 21.2919 15.6083 21.2801 15.271 21.2448C15.6028 21.2448 15.9347 21.2448 16.2666 21.2448C16.2548 20.6696 16.2667 20.1008 16.3021 19.5381Z"
            fill="#336190" />
        <path fill-rule="evenodd" clip-rule="evenodd"
            d="M6.66674 28.9604C6.3093 28.7279 5.96562 28.4731 5.63563 28.1959C2.8709 25.8026 1.10498 22.81 0.337848 19.2182C0.329317 19.1087 0.341169 19.002 0.373404 18.8982C0.255516 18.4774 0.237739 18.0508 0.32007 17.6182C0.355626 18.3767 0.391181 18.3767 0.426737 17.6182C0.456849 17.9992 0.474627 18.3785 0.48007 18.7559C0.506765 18.7871 0.524543 18.8226 0.533404 18.8626C0.551164 18.6377 0.557091 18.4125 0.551181 18.1871C0.74081 18.1871 0.930442 18.1871 1.12007 18.1871C1.12007 18.5663 1.12007 18.9456 1.12007 19.3248C1.21489 19.3248 1.3097 19.3248 1.40451 19.3248C1.40451 19.5144 1.40451 19.7041 1.40451 19.8937C1.44007 19.8937 1.47563 19.8937 1.51118 19.8937C1.51118 19.9767 1.51118 20.0597 1.51118 20.1426C1.57044 20.1426 1.6297 20.1426 1.68896 20.1426C1.68896 20.2256 1.68896 20.3085 1.68896 20.3915C1.78378 20.3915 1.87859 20.3915 1.9734 20.3915C1.9734 20.4982 1.9734 20.6048 1.9734 20.7115C2.06822 20.7115 2.16303 20.7115 2.25785 20.7115C2.25785 20.8182 2.25785 20.9248 2.25785 21.0315C2.35266 21.0315 2.44748 21.0315 2.54229 21.0315C2.54229 21.2211 2.54229 21.4108 2.54229 21.6004C2.66081 21.6004 2.77933 21.6004 2.89785 21.6004C2.85024 21.8164 2.91543 21.9823 3.0934 22.0982C3.11057 22.0645 3.1165 22.0289 3.11118 21.9915C3.206 21.9915 3.30081 21.9915 3.39563 21.9915C3.39563 22.2404 3.39563 22.4893 3.39563 22.7382C3.5497 22.7382 3.70379 22.7382 3.85785 22.7382C3.85785 22.833 3.85785 22.9278 3.85785 23.0226C3.95339 23.0168 4.04821 23.0227 4.14229 23.0404C4.11267 23.1174 4.05934 23.1708 3.98229 23.2004C3.96512 23.2341 3.95922 23.2696 3.96451 23.3071C4.02379 23.3071 4.08302 23.3071 4.14229 23.3071C4.13643 23.4144 4.14236 23.521 4.16007 23.6271C4.18379 23.6508 4.20747 23.6744 4.23118 23.6982C4.2374 23.5662 4.25518 23.4358 4.28451 23.3071C4.31989 23.4952 4.33173 23.6848 4.32007 23.8759C4.4149 23.8759 4.50969 23.8759 4.60451 23.8759C4.56821 24.0995 4.5445 24.3247 4.5334 24.5515C4.62823 24.5515 4.72302 24.5515 4.81785 24.5515C4.81785 24.6108 4.81785 24.67 4.81785 24.7293C4.91267 24.7293 5.00747 24.7293 5.10229 24.7293C5.10261 25.0161 5.12633 25.3006 5.1734 25.5826C5.20896 25.5826 5.24452 25.5826 5.28007 25.5826C5.28007 25.6774 5.28007 25.7722 5.28007 25.8671C5.31563 25.8671 5.35118 25.8671 5.38674 25.8671C5.37561 25.9647 5.38745 26.0596 5.42229 26.1515C5.50524 26.2582 5.60007 26.353 5.70674 26.4359C5.74158 26.5279 5.75342 26.6227 5.74229 26.7204C5.8134 26.7204 5.88452 26.7204 5.95563 26.7204C5.95563 26.8152 5.95563 26.91 5.95563 27.0048C6.16274 27.0014 6.16864 27.0607 5.9734 27.1826C5.95623 27.2163 5.95033 27.2519 5.95563 27.2893C6.0149 27.2893 6.07413 27.2893 6.1334 27.2893C6.1334 27.3841 6.1334 27.4789 6.1334 27.5737C6.19268 27.5737 6.25191 27.5737 6.31118 27.5737C6.31118 27.6685 6.31118 27.7633 6.31118 27.8582C6.47712 27.8582 6.64302 27.8582 6.80896 27.8582C6.80896 28.0478 6.80896 28.2374 6.80896 28.4271C6.89191 28.4271 6.9749 28.4271 7.05785 28.4271C7.05195 28.5934 7.05788 28.7593 7.07563 28.9248C7.12178 28.9625 7.16327 29.004 7.20007 29.0493C7.18823 29.0671 7.17636 29.0848 7.16452 29.1026C7.00757 29.0609 6.84164 29.0135 6.66674 28.9604Z"
            fill="#0C1A27" />
    </g>
    <defs>
        <clipPath id="clip0_5484_234">
            <rect width="32" height="32" fill="white" />
        </clipPath>
    </defs>
</svg>