<svg width="32" height="32" viewBox="0 0 32 32" fill="none" xmlns="http://www.w3.org/2000/svg">
    <g clip-path="url(#clip0_5096_142)">
        <path opacity="0.99" fill-rule="evenodd" clip-rule="evenodd"
            d="M20.0216 14.1819C19.357 14.2121 18.6999 14.2636 18.0503 14.3365C17.2777 14.368 16.5046 14.3809 15.7311 14.3751C15.5636 14.3751 15.3961 14.3751 15.2286 14.3751C14.8031 14.3713 14.3779 14.3584 13.9531 14.3365C13.5402 14.3051 13.1279 14.2665 12.7162 14.2205C12.4949 14.178 12.2758 14.178 12.0591 14.2205C12.0429 14.1926 12.0172 14.1733 11.9818 14.1626C10.9876 14.0616 10.0084 13.8813 9.04411 13.6214C8.45836 13.4352 8.10403 13.0423 7.98115 12.4426C7.72376 11.1858 7.7495 9.93607 8.05846 8.69344C8.57571 6.96516 9.66446 5.74765 11.3247 5.04092C12.4928 4.58182 13.7039 4.31772 14.9581 4.24857C14.9407 3.66293 15.2241 3.44393 15.8084 3.5915C15.8348 2.82409 15.8735 2.05751 15.9244 1.29177C15.9115 1.25956 15.8986 1.22735 15.8857 1.19514C15.4253 1.02866 15.2901 0.719448 15.4799 0.267517C15.8036 -0.0757865 16.1385 -0.0886701 16.4849 0.228866C16.7065 0.686718 16.5842 1.00881 16.1177 1.19514C16.1048 1.25312 16.0919 1.31109 16.079 1.36907C16.1229 2.10969 16.1616 2.85049 16.195 3.5915C16.7787 3.44371 17.0621 3.66274 17.0453 4.24857C18.2277 4.31625 19.3745 4.55461 20.4855 4.96361C22.9183 6.02555 24.1552 7.89371 24.1962 10.568C24.1983 11.3354 24.1016 12.0891 23.9063 12.8291C23.7277 13.188 23.4507 13.4392 23.0752 13.5828C22.067 13.858 21.0492 14.0577 20.0216 14.1819Z"
            fill="#01857B" />
        <path fill-rule="evenodd" clip-rule="evenodd"
            d="M10.7059 7.61133C11.3253 7.60159 11.9437 7.62092 12.5612 7.66931C13.6522 7.89182 14.7539 8.0271 15.8661 8.07515C16.3514 8.07553 16.8346 8.04334 17.3156 7.97852C18.1146 7.86253 18.9134 7.74657 19.7121 7.63066C20.2929 7.59939 20.8727 7.6123 21.4515 7.66931C21.9564 7.77483 22.2721 8.07758 22.3985 8.57761C22.4268 9.02967 22.4139 9.48061 22.3598 9.93039C22.2832 10.6718 22.1672 11.4062 22.0119 12.1335C21.8322 12.4715 21.5552 12.6841 21.1809 12.7712C19.0215 12.9897 16.8569 13.0799 14.6871 13.0418C13.3173 12.9758 11.9516 12.8727 10.5899 12.7326C10.2656 12.6129 10.0272 12.4003 9.87481 12.0949C9.63462 10.9472 9.50575 9.78766 9.48828 8.61626C9.66941 8.00314 10.0753 7.66815 10.7059 7.61133Z"
            fill="#FEFEFE" />
        <path fill-rule="evenodd" clip-rule="evenodd"
            d="M13.2184 9.65969C13.9768 9.6564 14.3054 10.03 14.2041 10.7806C13.9493 11.246 13.5692 11.3942 13.0638 11.2251C12.5259 10.8417 12.4615 10.3908 12.8705 9.87227C12.989 9.80042 13.1049 9.72957 13.2184 9.65969Z"
            fill="#0A867D" />
        <path fill-rule="evenodd" clip-rule="evenodd"
            d="M18.2824 9.65967C19.1153 9.68688 19.4181 10.0991 19.1908 10.8965C18.9495 11.2391 18.621 11.3614 18.2051 11.2637C17.7764 11.0741 17.6024 10.7456 17.6833 10.2781C17.7871 9.97467 17.9868 9.76851 18.2824 9.65967Z"
            fill="#08867C" />
        <path opacity="0.998" fill-rule="evenodd" clip-rule="evenodd"
            d="M12.7164 14.2204C15.6015 17.0795 18.4747 19.9526 21.3361 22.8396C21.2243 23.0671 21.0825 23.2733 20.9109 23.458C17.936 20.5025 14.9661 17.5393 12.0013 14.5683C11.9865 14.5897 11.9672 14.6026 11.9434 14.6069C11.9803 14.5201 12.0061 14.4299 12.0207 14.3363C12.0229 14.2935 12.0357 14.2548 12.0593 14.2204C12.2761 14.1778 12.4951 14.1778 12.7164 14.2204Z"
            fill="#2E9E97" />
        <path opacity="0.998" fill-rule="evenodd" clip-rule="evenodd"
            d="M12.7158 14.2207C13.1276 14.2667 13.5399 14.3053 13.9527 14.3367C16.5296 16.9391 19.1194 19.5288 21.722 22.1055C21.6227 22.3688 21.4938 22.6135 21.3355 22.8399C18.4741 19.9529 15.6009 17.0798 12.7158 14.2207Z"
            fill="#289B93" />
        <path opacity="0.985" fill-rule="evenodd" clip-rule="evenodd"
            d="M20.0211 14.1816C20.4107 14.9479 20.7908 15.7209 21.1614 16.5007C21.3302 16.8767 21.4655 17.2632 21.5672 17.6602C20.4541 16.5665 19.346 15.4649 18.2431 14.3556C18.1799 14.3365 18.1155 14.3301 18.0498 14.3362C18.6994 14.2634 19.3565 14.2118 20.0211 14.1816Z"
            fill="#0A8A81" />
        <path opacity="0.998" fill-rule="evenodd" clip-rule="evenodd"
            d="M13.9531 14.3364C14.378 14.3583 14.8031 14.3712 15.2287 14.3751C17.4933 16.5751 19.7351 18.804 21.9543 21.0617C21.9197 21.4192 21.8424 21.7671 21.7224 22.1053C19.1198 19.5285 16.53 16.9389 13.9531 14.3364Z"
            fill="#229790" />
        <path opacity="0.997" fill-rule="evenodd" clip-rule="evenodd"
            d="M18.0497 14.3363C18.1153 14.3301 18.1798 14.3365 18.2429 14.3556C19.3459 15.4649 20.4539 16.5665 21.5671 17.6602C21.8334 18.4199 21.988 19.2058 22.0309 20.018C20.1576 18.1641 18.2894 16.3024 16.4262 14.4329C16.1873 14.4262 15.9554 14.4069 15.7305 14.3749C16.504 14.3807 17.277 14.3678 18.0497 14.3363Z"
            fill="#148F87" />
        <path opacity="0.996" fill-rule="evenodd" clip-rule="evenodd"
            d="M15.2285 14.375C15.396 14.375 15.5635 14.375 15.731 14.375C15.9559 14.407 16.1879 14.4263 16.4268 14.433C18.2899 16.3024 20.1582 18.1642 22.0315 20.018C22.0391 20.3741 22.0133 20.722 21.9542 21.0616C19.735 18.8039 17.4931 16.575 15.2285 14.375Z"
            fill="#1B938B" />
        <path opacity="0.98" fill-rule="evenodd" clip-rule="evenodd"
            d="M12.0202 14.3364C12.0055 14.43 11.9798 14.5202 11.9428 14.607C11.8246 14.8973 11.7215 15.1936 11.6336 15.496C11.5383 15.7869 11.461 16.0832 11.4017 16.3849C11.3295 16.6764 11.278 16.9727 11.2471 17.2739C11.192 17.6064 11.1663 17.9413 11.1698 18.2788C11.1482 18.779 11.1868 19.2686 11.2857 19.7476C11.486 20.9664 12.0272 22.0035 12.9092 22.859C13.8628 23.761 14.9837 24.3601 16.272 24.6562C16.7706 24.8151 17.286 24.9053 17.8181 24.9268C18.139 24.9605 18.4611 24.9734 18.7845 24.9655C17.6877 25.4316 16.541 25.6055 15.3443 25.4872C13.7076 25.3356 12.3226 24.6721 11.1891 23.4967C10.4269 22.5764 10.0468 21.5135 10.0488 20.308C10.1043 18.7914 10.4715 17.3549 11.1505 15.9984C11.4218 15.4299 11.7117 14.8759 12.0202 14.3364Z"
            fill="#00857B" />
        <path opacity="0.998" fill-rule="evenodd" clip-rule="evenodd"
            d="M20.9106 23.4581C20.7151 23.6923 20.496 23.8984 20.2535 24.0765C17.3803 21.2163 14.507 18.3562 11.6338 15.496C11.7217 15.1937 11.8247 14.8974 11.943 14.607C11.9669 14.6027 11.9862 14.5898 12.001 14.5684C14.9657 17.5394 17.9356 20.5026 20.9106 23.4581Z"
            fill="#34A19B" />
        <path opacity="0.998" fill-rule="evenodd" clip-rule="evenodd"
            d="M11.6333 15.4961C14.5065 18.3563 17.3797 21.2164 20.253 24.0766C20.1341 24.1946 20.0052 24.3041 19.8664 24.4051C19.7861 24.471 19.696 24.5162 19.5959 24.5404C16.8882 21.7943 14.1568 19.0759 11.4014 16.3851C11.4607 16.0834 11.538 15.787 11.6333 15.4961Z"
            fill="#3BA59F" />
        <path opacity="0.998" fill-rule="evenodd" clip-rule="evenodd"
            d="M11.4017 16.3848C14.1571 19.0756 16.8885 21.794 19.5962 24.5401C19.3769 24.6885 19.1449 24.8173 18.9004 24.9266C16.3622 22.3628 13.8111 19.8118 11.2471 17.2737C11.278 16.9725 11.3295 16.6762 11.4017 16.3848Z"
            fill="#41A8A3" />
        <path fill-rule="evenodd" clip-rule="evenodd"
            d="M11.2475 17.2739C13.8115 19.812 16.3626 22.363 18.9009 24.9268C18.8664 24.9504 18.8278 24.9633 18.7849 24.9655C18.4615 24.9734 18.1394 24.9605 17.8186 24.9268C15.6154 22.6979 13.3993 20.482 11.1702 18.2789C11.1667 17.9414 11.1925 17.6064 11.2475 17.2739Z"
            fill="#47ABA6" />
        <path fill-rule="evenodd" clip-rule="evenodd"
            d="M11.1699 18.2788C13.3989 20.4819 15.615 22.6979 17.8182 24.9268C17.2861 24.9053 16.7707 24.8151 16.2721 24.6562C14.6242 22.9891 12.9686 21.3271 11.3052 19.6702C11.2872 19.6932 11.2808 19.719 11.2858 19.7475C11.1869 19.2685 11.1483 18.779 11.1699 18.2788Z"
            fill="#4DAFAA" />
        <path fill-rule="evenodd" clip-rule="evenodd"
            d="M16.2721 24.6564C14.9838 24.3603 13.8629 23.7612 12.9093 22.8591C12.0273 22.0037 11.4862 20.9666 11.2858 19.7477C11.2808 19.7191 11.2872 19.6934 11.3052 19.6704C12.9686 21.3273 14.6243 22.9893 16.2721 24.6564Z"
            fill="#54B3AE" />
        <path opacity="0.093" fill-rule="evenodd" clip-rule="evenodd"
            d="M14.1076 28.1351C16.3812 28.0719 18.6489 28.1557 20.9106 28.3864C22.1935 28.5089 23.4434 28.7795 24.6599 29.198C24.9926 29.3222 25.2825 29.5091 25.5296 29.7585C25.6546 29.953 25.6546 30.1462 25.5296 30.3382C25.4187 30.4621 25.2964 30.5716 25.1624 30.6668C24.2679 31.098 23.3274 31.3815 22.3407 31.5171C18.1146 32.1613 13.8886 32.1613 9.66248 31.5171C8.67895 31.3711 7.73836 31.0877 6.84079 30.6668C6.59434 30.5242 6.43973 30.3181 6.37695 30.0484C6.40069 29.8336 6.50377 29.6661 6.68618 29.5459C7.09463 29.2903 7.53272 29.097 8.00039 28.9661C9.1172 28.6683 10.2511 28.4622 11.4019 28.3477C12.3085 28.2603 13.2105 28.1894 14.1076 28.1351Z"
            fill="#00857A" />
    </g>
    <defs>
        <clipPath id="clip0_5096_142">
            <rect width="32" height="32" fill="white" />
        </clipPath>
    </defs>
</svg>