<svg width="32" height="32" viewBox="0 0 32 32" fill="none" xmlns="http://www.w3.org/2000/svg">
    <g clip-path="url(#clip0_5058_735)">
        <path fill-rule="evenodd" clip-rule="evenodd"
            d="M-0.0710449 -0.0710449C10.5956 -0.0710449 21.2623 -0.0710449 31.929 -0.0710449C31.929 10.5956 31.929 21.2623 31.929 31.929C21.2623 31.929 10.5956 31.929 -0.0710449 31.929C-0.0710449 21.2623 -0.0710449 10.5956 -0.0710449 -0.0710449Z"
            fill="#FDFEFE" />
        <path fill-rule="evenodd" clip-rule="evenodd"
            d="M4.7644 0.355469C4.74069 7.37193 4.7644 14.3883 4.83551 21.4044C4.93752 21.4817 5.00863 21.5766 5.04885 21.6888C4.90662 21.6888 4.7644 21.6888 4.62218 21.6888C4.57493 14.5537 4.62234 7.44249 4.7644 0.355469Z"
            fill="#E5E8EF" />
        <path fill-rule="evenodd" clip-rule="evenodd"
            d="M4.76451 0.355469C6.42377 1.96732 8.08302 3.57918 9.74228 5.19102C9.8371 5.38065 9.97933 5.52287 10.169 5.61769C10.3586 5.90214 10.5956 6.13918 10.8801 6.3288C10.9704 6.65515 11.1601 6.89219 11.449 7.03991C11.5423 13.4106 11.6372 19.7633 11.7334 26.0977C11.7571 27.2365 11.7334 28.3742 11.6623 29.511C9.42789 26.9217 7.22344 24.3144 5.04895 21.6888C5.00873 21.5766 4.93762 21.4817 4.83562 21.4044C4.76451 14.3883 4.7408 7.37193 4.76451 0.355469Z"
            fill="#1E2359" />
        <path fill-rule="evenodd" clip-rule="evenodd"
            d="M23.9645 8.88885C20.8356 8.88885 17.7067 8.88885 14.5778 8.88885C14.5367 8.37594 14.5841 7.87816 14.72 7.39552C16.1742 6.92536 17.644 6.52238 19.1289 6.18663C20.6744 5.56015 22.2862 5.08608 23.9645 4.7644C23.9645 6.13922 23.9645 7.51403 23.9645 8.88885Z"
            fill="#23CA7A" />
        <path fill-rule="evenodd" clip-rule="evenodd"
            d="M10.1689 5.61768C10.5482 5.7125 10.7852 5.94952 10.8801 6.32879C10.5956 6.13916 10.3586 5.90212 10.1689 5.61768Z"
            fill="#149170" />
        <path fill-rule="evenodd" clip-rule="evenodd"
            d="M19.129 6.18672C19.8839 6.07672 20.6423 6.05301 21.4045 6.11561C21.2149 6.0682 21.0252 6.02079 20.8356 5.97338C21.5419 5.94346 22.253 5.84864 22.969 5.68894C22.6548 5.55283 22.6784 5.38692 23.0401 5.19116C23.1112 6.3754 23.1348 7.56058 23.1112 8.74672C20.3616 8.74672 17.6119 8.74672 14.8623 8.74672C14.8229 8.32752 14.8703 7.92455 15.0045 7.53783C15.6617 7.34607 16.3255 7.18014 16.9956 7.04005C17.3607 7.2304 17.74 7.30151 18.1334 7.25338C17.9239 7.15246 17.829 6.98655 17.849 6.75561C18.3267 6.63568 18.7534 6.44605 19.129 6.18672Z"
            fill="#00CC71" />
        <path fill-rule="evenodd" clip-rule="evenodd"
            d="M13.0134 5.76001C13.1791 13.3213 13.2028 20.9064 13.0845 28.5156C12.9897 28.7051 12.8949 28.7051 12.8001 28.5156C12.7314 28.3807 12.7077 28.2385 12.729 28.0889C12.8168 28.1047 12.8879 28.152 12.9423 28.2311C13.0134 20.7408 13.0371 13.2505 13.0134 5.76001Z"
            fill="#E3FDF6" />
        <path fill-rule="evenodd" clip-rule="evenodd"
            d="M10.8799 6.32886C11.0695 6.47108 11.2591 6.6133 11.4488 6.75552C11.4488 6.80293 11.4488 6.85034 11.4488 6.89775C11.4488 6.94515 11.4488 6.99257 11.4488 7.03997C11.1599 6.89224 10.9703 6.6552 10.8799 6.32886Z"
            fill="#114455" />
        <path fill-rule="evenodd" clip-rule="evenodd"
            d="M11.449 7.04004C11.5368 7.05578 11.6079 7.10319 11.6623 7.18226C11.7334 13.4399 11.7571 19.6977 11.7334 25.9556C11.7334 26.003 11.7334 26.0505 11.7334 26.0978C11.6372 19.7634 11.5424 13.4108 11.449 7.04004Z"
            fill="#083A4F" />
        <path fill-rule="evenodd" clip-rule="evenodd"
            d="M11.449 6.89784C11.449 6.85043 11.449 6.80302 11.449 6.75562C11.6386 6.75562 11.8282 6.75562 12.0179 6.75562C11.9942 13.1084 12.0179 19.461 12.089 25.8134C12.26 26.123 12.3311 26.455 12.3023 26.8089C12.0879 26.5699 11.9457 26.2854 11.8756 25.9556C11.8756 19.603 11.8756 13.2504 11.8756 6.89784C11.7334 6.89784 11.5912 6.89784 11.449 6.89784Z"
            fill="#0CC278" />
        <path fill-rule="evenodd" clip-rule="evenodd"
            d="M13.0134 5.76003C13.0371 13.2505 13.0134 20.7409 12.9423 28.2311C12.8879 28.1521 12.8167 28.1047 12.7289 28.0889C12.6236 27.6432 12.4814 27.2165 12.3023 26.8089C12.331 26.4549 12.2599 26.123 12.0889 25.8134C12.0178 19.461 11.9941 13.1083 12.0178 6.75558C11.8282 6.75558 11.6386 6.75558 11.4489 6.75558C11.2593 6.61336 11.0697 6.47114 10.8801 6.32891C10.7852 5.94965 10.5482 5.71262 10.1689 5.6178C9.97932 5.52298 9.83709 5.38076 9.74227 5.19114C9.71859 3.62598 9.7423 2.06154 9.81338 0.497803C10.8773 2.24502 11.944 3.9991 13.0134 5.76003Z"
            fill="#27CD79" />
        <path fill-rule="evenodd" clip-rule="evenodd"
            d="M11.449 7.03993C11.449 6.99252 11.449 6.94511 11.449 6.89771C11.5912 6.89771 11.7334 6.89771 11.8756 6.89771C11.8756 13.2503 11.8756 19.6028 11.8756 25.9555C11.8282 25.9555 11.7808 25.9555 11.7334 25.9555C11.7571 19.6976 11.7334 13.4397 11.6623 7.18215C11.6079 7.10307 11.5368 7.05567 11.449 7.03993Z"
            fill="#0F9572" />
        <path fill-rule="evenodd" clip-rule="evenodd"
            d="M13.8667 9.0312C14.0685 8.89593 14.3055 8.84851 14.5778 8.88897C17.7067 8.88897 20.8356 8.88897 23.9645 8.88897C23.9645 8.93638 23.9645 8.98379 23.9645 9.0312C20.7989 9.17181 17.6225 9.21923 14.4356 9.17342C14.2837 9.04051 14.0941 8.99311 13.8667 9.0312Z"
            fill="#154758" />
        <path fill-rule="evenodd" clip-rule="evenodd"
            d="M13.8667 9.03104C14.0941 8.99295 14.2837 9.04035 14.4356 9.17326C14.2934 9.17326 14.1511 9.17326 14.0089 9.17326C14.0562 15.5026 14.0087 21.8077 13.8667 28.0888C13.8667 21.7362 13.8667 15.3837 13.8667 9.03104Z"
            fill="#1D264D" />
        <path fill-rule="evenodd" clip-rule="evenodd"
            d="M23.9644 9.03114C23.9644 8.98374 23.9644 8.93632 23.9644 8.88892C25.0548 8.88892 26.145 8.88892 27.2355 8.88892C27.2827 16.4034 27.2353 23.8938 27.0932 31.36C27.0932 23.9171 27.0932 16.4741 27.0932 9.03114C26.0503 9.03114 25.0073 9.03114 23.9644 9.03114Z"
            fill="#414564" />
        <path fill-rule="evenodd" clip-rule="evenodd"
            d="M23.9645 9.03101C25.0074 9.03101 26.0505 9.03101 27.0934 9.03101C27.0934 16.4739 27.0934 23.917 27.0934 31.3599C22.6845 31.3599 18.2756 31.3599 13.8667 31.3599C13.8667 30.2695 13.8667 29.1792 13.8667 28.0888C14.0087 21.8077 14.0562 15.5025 14.0089 9.17323C14.1511 9.17323 14.2934 9.17323 14.4356 9.17323C17.6225 9.21904 20.7989 9.17162 23.9645 9.03101Z"
            fill="#1D2259" />
    </g>
    <defs>
        <clipPath id="clip0_5058_735">
            <rect width="32" height="32" fill="white" />
        </clipPath>
    </defs>
</svg>