<svg width="32" height="32" viewBox="0 0 32 32" fill="none" xmlns="http://www.w3.org/2000/svg">
    <g clip-path="url(#clip0_5186_456)">
        <path fill-rule="evenodd" clip-rule="evenodd"
            d="M-0.0273438 -0.0273438C10.6393 -0.0273438 21.306 -0.0273438 31.9727 -0.0273438C31.9727 10.6393 31.9727 21.306 31.9727 31.9727C21.306 31.9727 10.6393 31.9727 -0.0273438 31.9727C-0.0273438 21.306 -0.0273438 10.6393 -0.0273438 -0.0273438Z"
            fill="#FEFEFE" />
        <path fill-rule="evenodd" clip-rule="evenodd"
            d="M22.7671 5.72559C22.8036 5.99956 22.8401 6.27353 22.8767 6.5475C23.051 7.59671 22.7588 8.48257 22 9.20504C21.8444 9.31024 21.68 9.40159 21.5068 9.47901C20.2683 9.89791 19.0354 10.3271 17.8082 10.7667C17.7716 9.63424 17.7716 8.50186 17.8082 7.36942C19.4521 6.79408 21.105 6.24613 22.7671 5.72559Z"
            fill="#080808" />
        <path fill-rule="evenodd" clip-rule="evenodd"
            d="M22.7671 5.72569C22.7704 5.69594 22.7886 5.67769 22.8219 5.6709C22.8764 5.96087 22.8947 6.25309 22.8767 6.54761C22.8401 6.27364 22.8036 5.99967 22.7671 5.72569Z"
            fill="#626262" />
        <path fill-rule="evenodd" clip-rule="evenodd"
            d="M17.0138 7.64355C17.0685 12.7485 17.0868 17.8627 17.0686 22.986C16.8701 24.6692 15.9386 25.6829 14.274 26.0271C13.681 26.1766 13.0783 26.2405 12.4658 26.2189C14.4845 25.9081 15.6625 24.7391 16.0001 22.712C16.1264 21.3132 15.9803 19.9433 15.5617 18.6025C15.1889 17.557 14.8601 16.4976 14.5754 15.4244C14.0156 13.1305 13.97 10.8291 14.4384 8.52027C15.2853 8.2075 16.1437 7.91528 17.0138 7.64355Z"
            fill="#070807" />
        <path fill-rule="evenodd" clip-rule="evenodd"
            d="M17.0137 7.64366C17.017 7.61391 17.0352 7.59566 17.0685 7.58887C17.1415 12.7303 17.1415 17.8628 17.0685 22.9861C17.0867 17.8628 17.0684 12.7486 17.0137 7.64366Z"
            fill="#454545" />
        <path fill-rule="evenodd" clip-rule="evenodd"
            d="M14.4384 8.52051C13.9699 10.8293 14.0156 13.1307 14.5753 15.4246C14.8601 16.4979 15.1888 17.5573 15.5617 18.6027C15.9802 19.9436 16.1263 21.3134 16 22.7123C15.6625 24.7394 14.4844 25.9083 12.4658 26.2191C11.4691 26.2852 10.5741 26.0203 9.78083 25.4246C8.69864 24.2514 8.77168 23.1555 10 22.1369C10.9689 21.5194 12.01 21.355 13.1233 21.6438C13.4521 21.6803 13.7808 21.6803 14.1096 21.6438C14.283 21.5894 14.42 21.489 14.5206 21.3424C14.6031 21.055 14.6213 20.7628 14.5753 20.4657C14.1042 18.4203 13.7389 16.3563 13.4795 14.2739C13.3986 13.2889 13.3803 12.3026 13.4247 11.315C13.4787 10.5689 13.6614 9.85662 13.9726 9.17804C14.1156 8.9456 14.2709 8.72643 14.4384 8.52051Z"
            fill="#07A903" />
        <path fill-rule="evenodd" clip-rule="evenodd"
            d="M22.7123 10.6572C22.7671 10.6572 22.8219 10.6572 22.8767 10.6572C22.8858 11.3515 22.8767 12.0456 22.8493 12.7394C22.6885 13.5638 22.2228 14.1391 21.452 14.4654C20.2485 14.8818 19.0431 15.2928 17.8356 15.6983C17.7808 14.5665 17.7625 13.434 17.7808 12.3011C19.4402 11.7845 21.084 11.2365 22.7123 10.6572Z"
            fill="#080808" />
    </g>
    <defs>
        <clipPath id="clip0_5186_456">
            <rect width="32" height="32" fill="white" />
        </clipPath>
    </defs>
</svg>