<svg width="32" height="32" viewBox="0 0 32 32" fill="none" xmlns="http://www.w3.org/2000/svg">
    <g clip-path="url(#clip0_5296_3734)">
        <path fill-rule="evenodd" clip-rule="evenodd"
            d="M22.1596 -0.0800781C23.1729 -0.0800781 24.1864 -0.0800781 25.1996 -0.0800781C25.9012 0.619906 26.7545 1.12657 27.7596 1.43992C28.0363 1.72615 28.143 2.07282 28.0796 2.47992C28.2929 2.47992 28.5064 2.47992 28.7196 2.47992C28.6945 2.69967 28.7212 2.91301 28.7996 3.11992C29.484 3.58187 29.884 4.22187 29.9996 5.03992C30.2129 5.03992 30.4264 5.03992 30.6396 5.03992C30.5075 5.97602 30.6942 6.82936 31.1996 7.59992C31.3892 8.45712 31.4158 9.31047 31.2796 10.1599C31.0664 10.1599 30.8529 10.1599 30.6396 10.1599C30.7193 10.6688 30.586 11.0955 30.2396 11.4399C30.1864 11.2266 30.1329 11.0132 30.0796 10.7999C29.5873 11.4609 29.4006 12.2076 29.5196 13.0399C29.0451 13.1023 28.6185 12.9956 28.2396 12.7199C28.1147 12.9165 28.0347 13.1298 27.9996 13.3599C27.7446 12.7734 27.3979 12.2401 26.9596 11.7599C26.7252 11.9373 26.5652 11.8573 26.4796 11.5199C26.1844 11.3394 25.8644 11.2594 25.5196 11.2799C25.5196 11.1199 25.5196 10.9599 25.5196 10.7999C25.1126 10.7366 24.7659 10.8433 24.4796 11.1199C24.4491 10.7667 24.3691 10.4467 24.2396 10.1599C23.9945 10.3483 23.7545 10.5616 23.5196 10.7999C23.4412 10.593 23.4145 10.3797 23.4396 10.1599C23.5798 10.1809 23.6865 10.1275 23.7596 9.99992C23.4964 9.80851 23.2299 9.64851 22.9596 9.51992C23.212 9.32439 23.4787 9.16439 23.7596 9.03992C23.5478 8.81037 23.2812 8.65037 22.9596 8.55992C23.3329 8.45325 23.7064 8.34659 24.0796 8.23992C24.0529 8.18659 24.0264 8.13325 23.9996 8.07992C23.2843 7.95847 22.5643 7.82514 21.8396 7.67992C21.8608 7.18792 21.6475 6.76127 21.1996 6.39992C20.3193 6.36095 19.6793 5.96095 19.2796 5.19992C19.0894 5.05133 18.8761 4.998 18.6396 5.03992C18.6396 4.18659 18.6396 3.33325 18.6396 2.47992C18.808 2.50384 18.968 2.47717 19.1196 2.39992C19.4665 1.55855 20.1065 1.15855 21.0396 1.19992C21.0158 1.03161 21.0424 0.871605 21.1196 0.719922C21.5496 0.546805 21.8963 0.280138 22.1596 -0.0800781Z"
            fill="#D1026E" />
        <path fill-rule="evenodd" clip-rule="evenodd"
            d="M28.0801 -0.0800781C29.3601 -0.0800781 30.6401 -0.0800781 31.9201 -0.0800781C31.9201 1.62659 31.9201 3.33325 31.9201 5.03992C31.6722 4.44035 31.2722 3.96035 30.7201 3.59992C30.6406 3.23035 30.614 2.85701 30.6401 2.47992C30.4204 2.50499 30.207 2.47832 30.0001 2.39992C29.3732 1.5367 28.7332 0.710032 28.0801 -0.0800781Z"
            fill="#B00376" />
        <path fill-rule="evenodd" clip-rule="evenodd"
            d="M3.28027 -0.0800781C4.24027 -0.0800781 5.20027 -0.0800781 6.16027 -0.0800781C6.11925 0.286722 6.17258 0.633389 6.32027 0.959922C5.89619 1.65683 5.78952 2.43018 6.00027 3.27992C5.83875 3.7189 5.89208 4.09223 6.16027 4.39992C6.11106 4.52922 6.03106 4.63587 5.92027 4.71992C5.68183 3.97952 5.49517 3.23285 5.36027 2.47992C5.07419 2.43429 4.80752 2.48762 4.56027 2.63992C4.786 2.88272 4.75933 3.09605 4.48027 3.27992C4.31551 2.9845 4.12885 2.71783 3.92027 2.47992C4.11751 1.5342 3.90416 0.680864 3.28027 -0.0800781Z"
            fill="#8E34B9" />
        <path fill-rule="evenodd" clip-rule="evenodd"
            d="M9.52004 -0.0800781C10.3734 -0.0800781 11.2267 -0.0800781 12.08 -0.0800781C11.4982 1.57904 11.3382 3.2857 11.6 5.03992C12.083 5.01359 12.563 5.04024 13.04 5.11992C12.9334 5.27992 12.8267 5.43992 12.72 5.59992C13.0475 5.77154 13.3675 5.95821 13.68 6.15992C13.6267 6.26659 13.5734 6.37325 13.52 6.47992C13.7874 6.80149 13.8941 7.17482 13.84 7.59992C13.7867 7.59992 13.7334 7.59992 13.68 7.59992C13.7229 7.34408 13.6696 7.13074 13.52 6.95992C12.2695 6.80114 10.9895 6.74781 9.68004 6.79992C9.68004 6.74659 9.68004 6.69325 9.68004 6.63992C10.2762 6.69154 10.8629 6.63819 11.44 6.47992C11.28 6.37325 11.12 6.26659 10.96 6.15992C11.1425 6.01184 11.1425 5.87851 10.96 5.75992C10.6986 5.68096 10.4319 5.65429 10.16 5.67992C10.16 5.51992 10.16 5.35992 10.16 5.19992C10.3284 5.22384 10.4884 5.19717 10.64 5.11992C10.2167 5.04034 9.79001 5.01367 9.36004 5.03992C9.32386 4.60005 9.37719 4.17338 9.52004 3.75992C9.29626 2.94679 9.13626 2.12013 9.04004 1.27992C9.2703 0.847178 9.4303 0.393843 9.52004 -0.0800781Z"
            fill="#B21B97" />
        <path fill-rule="evenodd" clip-rule="evenodd"
            d="M25.2004 -0.0800781C26.1604 -0.0800781 27.1204 -0.0800781 28.0804 -0.0800781C28.7335 0.710032 29.3735 1.5367 30.0004 2.39992C30.2073 2.47832 30.4207 2.50499 30.6404 2.47992C30.6143 2.85701 30.6409 3.23035 30.7204 3.59992C31.2726 3.96035 31.6726 4.44035 31.9204 5.03992C31.9204 7.59992 31.9204 10.1599 31.9204 12.7199C31.79 12.8686 31.6567 13.0286 31.5204 13.1999C31.4671 13.0399 31.4137 12.8799 31.3604 12.7199C31.1628 13.4865 30.9228 14.2331 30.6404 14.9599C30.2137 14.9599 29.7871 14.9599 29.3604 14.9599C29.3604 14.7466 29.3604 14.5332 29.3604 14.3199C28.8678 14.2815 28.3878 14.3349 27.9204 14.4799C27.0535 13.9868 26.4135 13.2935 26.0004 12.3999C25.6775 12.1898 25.4908 12.2964 25.4404 12.7199C25.2902 12.1696 24.9436 11.7962 24.4004 11.5999C23.6422 11.9765 23.5622 11.8165 24.1604 11.1199C24.2396 10.8043 24.2663 10.4843 24.2404 10.1599C24.3698 10.4467 24.4498 10.7667 24.4804 11.1199C24.7666 10.8433 25.1134 10.7366 25.5204 10.7999C25.5204 10.9599 25.5204 11.1199 25.5204 11.2799C25.8652 11.2594 26.1852 11.3394 26.4804 11.5199C26.566 11.8573 26.726 11.9373 26.9604 11.7599C27.3986 12.2401 27.7454 12.7734 28.0004 13.3599C28.0354 13.1298 28.1154 12.9165 28.2404 12.7199C28.6193 12.9956 29.0458 13.1023 29.5204 13.0399C29.4014 12.2076 29.5881 11.4609 30.0804 10.7999C30.1337 11.0132 30.1871 11.2266 30.2404 11.4399C30.5868 11.0955 30.7201 10.6688 30.6404 10.1599C30.8537 10.1599 31.0671 10.1599 31.2804 10.1599C31.4166 9.31047 31.39 8.45712 31.2004 7.59992C30.695 6.82936 30.5082 5.97602 30.6404 5.03992C30.4271 5.03992 30.2137 5.03992 30.0004 5.03992C29.8847 4.22187 29.4847 3.58187 28.8004 3.11992C28.722 2.91301 28.6953 2.69967 28.7204 2.47992C28.5071 2.47992 28.2937 2.47992 28.0804 2.47992C28.1438 2.07282 28.037 1.72615 27.7604 1.43992C26.7553 1.12657 25.902 0.619906 25.2004 -0.0800781Z"
            fill="#C80273" />
        <path fill-rule="evenodd" clip-rule="evenodd"
            d="M22.9602 1.35986C23.7902 1.52984 24.5902 1.7965 25.3602 2.15986C25.467 2.05319 25.5735 1.94654 25.6802 1.83986C26.0569 2.07959 26.4302 2.29294 26.8002 2.47986C26.7764 2.64818 26.803 2.80818 26.8802 2.95986C27.7388 3.5253 28.4588 4.21865 29.0402 5.03986C29.4806 6.01186 29.6673 7.02519 29.6002 8.07986C29.4446 8.60449 29.2046 9.08449 28.8802 9.51986C28.667 9.41319 28.4535 9.30654 28.2402 9.19986C28.1078 9.34622 27.9478 9.45289 27.7602 9.51986C27.0412 9.15961 26.2945 8.89295 25.5202 8.71986C25.5202 8.55986 25.5202 8.39986 25.5202 8.23986C25.1431 8.26599 24.7698 8.23932 24.4002 8.15986C24.5519 8.08262 24.7119 8.05594 24.8802 8.07986C24.8802 7.91986 24.8802 7.75986 24.8802 7.59986C24.2402 7.65319 23.6002 7.70654 22.9602 7.75986C23.1559 6.98353 22.8892 6.47686 22.1602 6.23986C21.8151 5.92287 21.5484 5.54954 21.3602 5.11986C21.0446 5.04058 20.7246 5.01393 20.4002 5.03986C20.449 4.19801 20.3956 3.37134 20.2402 2.55986C20.7735 2.50654 21.307 2.45319 21.8402 2.39986C22.0962 2.10946 22.4162 1.92279 22.8002 1.83986C22.942 1.70786 22.9953 1.54787 22.9602 1.35986Z"
            fill="#D40267" />
        <path fill-rule="evenodd" clip-rule="evenodd"
            d="M7.59984 -0.0800781C8.23984 -0.0800781 8.87984 -0.0800781 9.51984 -0.0800781C9.43009 0.393843 9.27009 0.847178 9.03984 1.27992C9.13606 2.12013 9.29606 2.94679 9.51984 3.75992C9.37699 4.17338 9.32366 4.60005 9.35984 5.03992C9.78981 5.01367 10.2165 5.04034 10.6398 5.11992C10.4882 5.19717 10.3282 5.22384 10.1598 5.19992C10.1598 5.35992 10.1598 5.51992 10.1598 5.67992C10.4317 5.65429 10.6984 5.68096 10.9598 5.75992C11.1423 5.87851 11.1423 6.01184 10.9598 6.15992C11.1198 6.26659 11.2798 6.37325 11.4398 6.47992C10.8627 6.63819 10.276 6.69154 9.67984 6.63992C9.29149 6.5153 9.29149 6.32864 9.67984 6.07992C9.06061 5.67727 8.42061 5.30394 7.75984 4.95992C7.8492 4.84397 7.90253 4.71063 7.91984 4.55992C7.61723 3.03429 7.51057 1.48762 7.59984 -0.0800781Z"
            fill="#A624A4" />
        <path fill-rule="evenodd" clip-rule="evenodd"
            d="M6.16045 -0.0800781C6.64045 -0.0800781 7.12045 -0.0800781 7.60045 -0.0800781C7.51119 1.48762 7.61785 3.03429 7.92045 4.55992C7.90314 4.71063 7.84981 4.84397 7.76045 4.95992C8.42122 5.30394 9.06122 5.67727 9.68045 6.07992C9.2921 6.32864 9.2921 6.5153 9.68045 6.63992C9.68045 6.69325 9.68045 6.74659 9.68045 6.79992C9.52045 6.85325 9.41378 6.95992 9.36045 7.11992C9.20401 7.16968 9.09733 7.27635 9.04045 7.43992C9.24364 8.07739 9.24364 8.71739 9.04045 9.35992C8.89874 9.22792 8.84541 9.06792 8.88045 8.87992C8.66892 8.90712 8.48226 8.85378 8.32045 8.71992C8.26713 8.34659 8.21378 7.97325 8.16045 7.59992C7.28602 6.59667 6.75269 5.42335 6.56045 4.07992C6.39569 3.7845 6.20903 3.51783 6.00045 3.27992C5.7897 2.43018 5.89637 1.65683 6.32045 0.959922C6.17276 0.633389 6.11943 0.286722 6.16045 -0.0800781Z"
            fill="#992EAB" />
        <path fill-rule="evenodd" clip-rule="evenodd"
            d="M-0.0800781 -0.0800781C0.133255 -0.0800781 0.346589 -0.0800781 0.559922 -0.0800781C0.573645 0.0792665 0.520312 0.2126 0.399922 0.319922C0.717176 0.498093 0.983843 0.738093 1.19992 1.03992C1.07079 1.43362 1.15079 1.80695 1.43992 2.15992C2.01063 2.71631 2.54395 3.30298 3.03992 3.91992C3.86816 5.8428 4.82816 7.70947 5.91992 9.51992C5.99832 9.72683 6.02499 9.94018 5.99992 10.1599C6.31992 10.1599 6.63992 10.1599 6.95992 10.1599C7.00362 10.5818 7.05695 10.9552 7.11992 11.2799C7.03587 11.3907 6.92922 11.4707 6.79992 11.5199C7.03853 11.8892 7.19853 12.2892 7.27992 12.7199C7.07995 12.7323 6.94663 12.839 6.87992 13.0399C6.77325 12.7199 6.66659 12.3999 6.55992 12.0799C6.27992 12.066 5.98659 11.9593 5.67992 11.7599C5.1857 10.8635 4.7857 9.90351 4.47992 8.87992C4.58091 8.42509 4.50091 8.02509 4.23992 7.67992C4.08824 7.60267 3.92824 7.576 3.75992 7.59992C3.78605 7.22283 3.75938 6.84949 3.67992 6.47992C3.62659 6.58659 3.57325 6.69325 3.51992 6.79992C2.97523 5.7641 2.38856 4.75075 1.75992 3.75992C1.07889 3.39528 0.465552 2.96861 -0.0800781 2.47992C-0.0800781 1.62659 -0.0800781 0.773255 -0.0800781 -0.0800781Z"
            fill="#734CC6" />
        <path fill-rule="evenodd" clip-rule="evenodd"
            d="M12.0804 -0.0800781C13.3604 -0.0800781 14.6404 -0.0800781 15.9204 -0.0800781C15.4303 0.840757 14.817 1.6941 14.0804 2.47992C14.0752 3.75746 14.5286 4.85079 15.4404 5.75992C16.5187 6.52285 17.5854 7.26952 18.6404 7.99992C18.379 8.07888 18.1123 8.10555 17.8404 8.07992C17.8404 8.23992 17.8404 8.39992 17.8404 8.55992C16.6025 8.22095 15.4559 7.68762 14.4004 6.95992C14.1745 7.14962 13.9878 7.36296 13.8404 7.59992C13.8945 7.17482 13.7878 6.80149 13.5204 6.47992C13.5738 6.37325 13.6271 6.26659 13.6804 6.15992C13.3679 5.95821 13.0479 5.77154 12.7204 5.59992C12.8271 5.43992 12.9338 5.27992 13.0404 5.11992C12.5634 5.04024 12.0834 5.01359 11.6004 5.03992C11.3386 3.2857 11.4986 1.57904 12.0804 -0.0800781Z"
            fill="#BF0F86" />
        <path fill-rule="evenodd" clip-rule="evenodd"
            d="M3.91992 2.48014C4.1285 2.71804 4.31515 2.98471 4.47992 3.28014C4.75898 3.09626 4.78565 2.88294 4.55992 2.64014C4.80717 2.48783 5.07384 2.4345 5.35992 2.48014C5.49482 3.23306 5.68147 3.97974 5.91992 4.72014C6.03071 4.63609 6.11071 4.52943 6.15992 4.40014C5.89173 4.09244 5.8384 3.71911 5.99992 3.28014C6.2085 3.51804 6.39515 3.78471 6.55992 4.08014C6.75216 5.42356 7.28549 6.59689 8.15992 7.60014C8.21325 7.97346 8.26659 8.34681 8.31992 8.72014C8.48173 8.85399 8.66839 8.90734 8.87992 8.88014C8.84488 9.06814 8.89821 9.22814 9.03992 9.36014C9.24311 8.71761 9.24311 8.07761 9.03992 7.44014C9.0968 7.27657 9.20347 7.1699 9.35992 7.12014C9.35992 8.98681 9.35992 10.8535 9.35992 12.7201C9.22829 12.1638 9.14829 11.5771 9.11992 10.9601C9.06659 11.0668 9.01325 11.1735 8.95992 11.2801C8.87736 10.84 8.69069 10.4667 8.39992 10.1601C8.06192 11.173 7.90192 11.173 7.91992 10.1601C7.65325 10.1601 7.38659 10.1601 7.11992 10.1601C7.08781 9.45586 6.79448 8.86919 6.23992 8.40014C6.17368 8.47332 6.09368 8.52665 5.99992 8.56014C5.73429 8.05668 5.54763 7.52335 5.43992 6.96014C4.48514 5.63737 3.97848 4.14402 3.91992 2.48014Z"
            fill="#893CB6" />
        <path fill-rule="evenodd" clip-rule="evenodd"
            d="M16.8796 -0.0800781C18.6396 -0.0800781 20.3996 -0.0800781 22.1596 -0.0800781C21.8962 0.280138 21.5495 0.546805 21.1196 0.719922C21.0423 0.871605 21.0158 1.03161 21.0396 1.19992C20.1065 1.15855 19.4665 1.55855 19.1196 2.39992C18.9679 2.47717 18.8079 2.50384 18.6396 2.47992C18.6396 3.33325 18.6396 4.18659 18.6396 5.03992C18.8761 4.998 19.0894 5.05133 19.2796 5.19992C19.6793 5.96095 20.3193 6.36095 21.1996 6.39992C21.6474 6.76127 21.8607 7.18792 21.8396 7.67992C22.5642 7.82514 23.2842 7.95847 23.9996 8.07992C24.0263 8.13325 24.0529 8.18659 24.0796 8.23992C23.7063 8.34659 23.3329 8.45325 22.9596 8.55992C23.2812 8.65037 23.5478 8.81037 23.7596 9.03992C23.4786 9.16439 23.2119 9.32439 22.9596 9.51992C22.2929 9.46408 21.6529 9.33075 21.0396 9.11992C21.3206 9.08757 21.5871 9.00757 21.8396 8.87992C21.8062 8.78616 21.7527 8.70616 21.6796 8.63992C21.2562 8.56034 20.8295 8.53367 20.3996 8.55992C20.3996 8.71992 20.3996 8.87992 20.3996 9.03992C20.2396 9.03992 20.0796 9.03992 19.9196 9.03992C19.9196 8.82659 19.9196 8.61325 19.9196 8.39992C20.0796 8.39992 20.2396 8.39992 20.3996 8.39992C20.3996 8.23992 20.3996 8.07992 20.3996 7.91992C19.907 7.95831 19.427 7.90498 18.9596 7.75992C18.6996 7.34927 18.353 7.02927 17.9196 6.79992C17.8702 6.59738 17.7902 6.41071 17.6796 6.23992C17.387 6.19616 17.147 6.06283 16.9596 5.83992C16.2188 4.81083 15.7654 3.66416 15.5996 2.39992C15.8281 2.09333 15.9881 1.74666 16.0796 1.35992C16.6382 1.0427 16.9049 0.5627 16.8796 -0.0800781Z"
            fill="#CE0675" />
        <path fill-rule="evenodd" clip-rule="evenodd"
            d="M-0.0800781 2.47998C0.465552 2.96867 1.07889 3.39534 1.75992 3.75998C2.38856 4.75081 2.97523 5.76416 3.51992 6.79998C3.57325 6.69331 3.62659 6.58665 3.67992 6.47998C3.75938 6.84955 3.78605 7.22289 3.75992 7.59998C3.92824 7.57606 4.08824 7.60273 4.23992 7.67998C4.50091 8.02515 4.58091 8.42515 4.47992 8.87998C4.7857 9.90356 5.1857 10.8636 5.67992 11.76C5.68267 12.0903 5.736 12.4103 5.83992 12.72C5.57325 12.72 5.30659 12.72 5.03992 12.72C5.06632 13.256 5.03965 13.7893 4.95992 14.32C4.79736 14.1385 4.69069 14.1919 4.63992 14.48C4.60279 14.282 4.52279 14.122 4.39992 14C4.25731 13.4847 4.25731 12.9247 4.39992 12.32C3.71928 10.7936 3.18594 9.2203 2.79992 7.59998C2.56347 7.6419 2.35013 7.58857 2.15992 7.43998C1.72103 6.71486 1.32103 5.9682 0.959922 5.19998C0.746589 5.09331 0.533255 4.98665 0.319922 4.87998C0.314051 4.48416 0.180717 4.16416 -0.0800781 3.91998C-0.0800781 3.43998 -0.0800781 2.95998 -0.0800781 2.47998Z"
            fill="#6A57CD" />
        <path fill-rule="evenodd" clip-rule="evenodd"
            d="M9.68035 6.80008C10.9898 6.74797 12.2698 6.80129 13.5204 6.96008C13.5204 9.68008 13.5204 12.4001 13.5204 15.1201C14.2157 15.1466 14.9091 15.1199 15.6004 15.0401C15.6893 14.9789 15.7426 14.8989 15.7604 14.8001C16.2248 14.1393 16.6516 13.4459 17.0404 12.7201C17.37 12.2816 17.6365 11.8016 17.8404 11.2801C18.1639 10.9551 18.4306 10.5817 18.6404 10.1601C20.0727 9.98235 21.5127 9.95568 22.9604 10.0801C23.0807 10.1874 23.1341 10.3207 23.1204 10.4801C22.9071 10.8534 22.6936 11.2268 22.4804 11.6001C22.0165 12.1523 21.5898 12.739 21.2004 13.3601C20.7736 14.0001 20.3471 14.6401 19.9204 15.2801C19.4616 15.7173 19.2216 16.2506 19.2004 16.8801C20.4914 19.0882 21.8248 21.2748 23.2004 23.4401C23.2788 23.647 23.3055 23.8604 23.2804 24.0801C21.7204 24.129 20.1738 24.0758 18.6404 23.9201C17.7245 22.2494 16.7645 20.5961 15.7604 18.9601C15.0323 18.7521 14.3123 18.7521 13.6004 18.9601C13.5204 20.6126 13.4937 22.2658 13.5204 23.9201C12.2153 24.1052 10.882 24.1318 9.52035 24.0001C9.43139 23.9388 9.37806 23.8588 9.36035 23.7601C9.36035 20.0801 9.36035 16.4001 9.36035 12.7201C9.36035 10.8534 9.36035 8.98675 9.36035 7.12008C9.41368 6.96008 9.52035 6.85341 9.68035 6.80008Z"
            fill="#FCFAFD" />
        <path fill-rule="evenodd" clip-rule="evenodd"
            d="M15.9201 -0.0800781C16.2401 -0.0800781 16.5601 -0.0800781 16.8801 -0.0800781C16.9054 0.562699 16.6387 1.0427 16.0801 1.35992C15.9886 1.74666 15.8286 2.09333 15.6001 2.39992C15.7659 3.66416 16.2193 4.81083 16.9601 5.83992C17.1475 6.06283 17.3875 6.19616 17.6801 6.23992C17.7907 6.41071 17.8707 6.59738 17.9201 6.79992C18.3536 7.02927 18.7001 7.34927 18.9601 7.75992C19.4275 7.90498 19.9075 7.95831 20.4001 7.91992C20.4001 8.07992 20.4001 8.23992 20.4001 8.39992C20.2401 8.39992 20.0801 8.39992 19.9201 8.39992C19.9201 8.61325 19.9201 8.82659 19.9201 9.03992C20.0801 9.03992 20.2401 9.03992 20.4001 9.03992C20.4001 8.87992 20.4001 8.71992 20.4001 8.55992C20.83 8.53367 21.2568 8.56034 21.6801 8.63992C21.7532 8.70616 21.8067 8.78616 21.8401 8.87992C21.5876 9.00757 21.3211 9.08757 21.0401 9.11992C21.6534 9.33075 22.2934 9.46408 22.9601 9.51992C23.2304 9.64851 23.4969 9.80851 23.7601 9.99992C23.687 10.1275 23.5803 10.1809 23.4401 10.1599C23.4224 10.0611 23.3691 9.98114 23.2801 9.91992C22.3216 9.84 21.3616 9.81333 20.4001 9.83992C20.4001 9.67992 20.4001 9.51992 20.4001 9.35992C19.7579 9.3864 19.1179 9.35973 18.4801 9.27992C18.7296 9.12314 18.9963 8.98979 19.2801 8.87992C19.2534 8.82659 19.2268 8.77325 19.2001 8.71992C18.7651 8.56891 18.3118 8.51559 17.8401 8.55992C17.8401 8.39992 17.8401 8.23992 17.8401 8.07992C18.112 8.10555 18.3787 8.07888 18.6401 7.99992C17.5851 7.26952 16.5184 6.52285 15.4401 5.75992C14.5283 4.85079 14.0749 3.75746 14.0801 2.47992C14.8167 1.6941 15.43 0.840757 15.9201 -0.0800781Z"
            fill="#C50A7F" />
        <path fill-rule="evenodd" clip-rule="evenodd"
            d="M17.84 8.55996C18.3117 8.51563 18.7649 8.56895 19.2 8.71996C19.2267 8.77329 19.2533 8.82663 19.28 8.87996C18.9961 8.98983 18.7294 9.12318 18.48 9.27996C19.1177 9.35977 19.7577 9.38644 20.4 9.35996C20.4 9.51996 20.4 9.67996 20.4 9.83996C19.864 9.81356 19.3307 9.84023 18.8 9.91996C18.711 9.98118 18.6577 10.0612 18.64 10.16C18.4302 10.5816 18.1635 10.955 17.84 11.28C17.9467 10.64 17.68 10.3733 17.04 10.48C16.8024 9.39113 16.1091 8.80446 14.96 8.71996C14.7965 8.58332 14.6632 8.42332 14.56 8.23996C14.4417 8.51524 14.3084 8.78191 14.16 9.03996C13.8994 8.59742 13.7927 8.11742 13.84 7.59996C13.9874 7.363 14.174 7.14966 14.4 6.95996C15.4554 7.68766 16.6021 8.22099 17.84 8.55996Z"
            fill="#B3138F" />
        <path fill-rule="evenodd" clip-rule="evenodd"
            d="M13.6797 7.6001C13.733 7.6001 13.7864 7.6001 13.8397 7.6001C13.7924 8.11755 13.8991 8.59755 14.1597 9.0401C14.3081 8.78205 14.4414 8.51538 14.5597 8.2401C14.6629 8.42346 14.7962 8.58346 14.9597 8.7201C16.1088 8.80459 16.8021 9.39127 17.0397 10.4801C17.6797 10.3734 17.9464 10.6401 17.8397 11.2801C17.6358 11.8017 17.3693 12.2817 17.0397 12.7201C17.0221 12.1662 16.8355 11.6862 16.4797 11.2801C16.3126 11.4597 16.2061 11.673 16.1597 11.9201C15.563 11.4836 15.243 10.897 15.1997 10.1601C14.865 11.8475 14.5717 11.8475 14.3197 10.1601C14.1597 10.1601 13.9997 10.1601 13.8397 10.1601C13.8852 9.85375 13.8319 9.58709 13.6797 9.3601C13.6797 8.77343 13.6797 8.18677 13.6797 7.6001Z"
            fill="#A31899" />
        <path fill-rule="evenodd" clip-rule="evenodd"
            d="M20.3996 9.84004C21.3611 9.81344 22.3211 9.84012 23.2796 9.92004C23.3686 9.98125 23.4219 10.0613 23.4396 10.16C23.3329 10.2667 23.2264 10.3734 23.1196 10.48C23.1334 10.3207 23.08 10.1874 22.9596 10.08C21.512 9.95564 20.072 9.98231 18.6396 10.16C18.6574 10.0613 18.7107 9.98125 18.7996 9.92004C19.3304 9.84031 19.8636 9.81364 20.3996 9.84004Z"
            fill="#FFCCF6" />
        <path fill-rule="evenodd" clip-rule="evenodd"
            d="M-0.0800781 7.59995C0.222381 7.56739 0.462381 7.67406 0.639922 7.91995C1.20859 8.95032 1.68859 10.017 2.07992 11.1199C2.42837 11.3034 2.66837 11.5701 2.79992 11.9199C2.33405 12.7473 2.38738 13.5207 2.95992 14.2399C2.62322 14.3182 2.56987 14.5048 2.79992 14.7999C2.55667 15.2956 2.42333 15.829 2.39992 16.3999C2.22239 16.6459 1.98239 16.7524 1.67992 16.7199C1.48437 17.6611 0.897703 18.1411 -0.0800781 18.1599C-0.0800781 14.6399 -0.0800781 11.1199 -0.0800781 7.59995Z"
            fill="#4F71E0" />
        <path fill-rule="evenodd" clip-rule="evenodd"
            d="M13.5195 6.95996C13.6691 7.13078 13.7224 7.34412 13.6795 7.59996C13.6795 8.18663 13.6795 8.77329 13.6795 9.35996C13.6795 10.48 13.6795 11.6 13.6795 12.72C13.6795 13.4666 13.6795 14.2133 13.6795 14.96C14.3806 14.9805 15.0739 14.9271 15.7595 14.8C15.7418 14.8987 15.6885 14.9787 15.5995 15.04C14.9082 15.1198 14.2149 15.1465 13.5195 15.12C13.5195 12.4 13.5195 9.67996 13.5195 6.95996Z"
            fill="#9961AC" />
        <path fill-rule="evenodd" clip-rule="evenodd"
            d="M0.560391 -0.0800781C1.46706 -0.0800781 2.37372 -0.0800781 3.28039 -0.0800781C3.90428 0.680864 4.11762 1.5342 3.92039 2.47992C3.97895 4.14381 4.48561 5.63715 5.44039 6.95992C5.5481 7.52314 5.73476 8.05647 6.00039 8.55992C6.09415 8.52643 6.17415 8.47311 6.24039 8.39992C6.79495 8.86898 7.08828 9.45565 7.12039 10.1599C7.38706 10.1599 7.65372 10.1599 7.92039 10.1599C7.90239 11.1728 8.06239 11.1728 8.40039 10.1599C8.69116 10.4665 8.87783 10.8398 8.96039 11.2799C9.01372 11.1732 9.06706 11.0666 9.12039 10.9599C9.14876 11.5769 9.22876 12.1636 9.36039 12.7199C9.36039 16.3999 9.36039 20.0799 9.36039 23.7599C9.20217 22.8839 9.14884 21.9772 9.20039 21.0399C9.25293 19.0914 9.19961 17.1714 9.04039 15.2799C9.04039 15.0132 9.04039 14.7466 9.04039 14.4799C8.73793 14.5125 8.49793 14.4058 8.32039 14.1599C8.13679 14.3132 7.97679 14.2599 7.84039 13.9999C7.76081 13.5766 7.73413 13.1499 7.76039 12.7199C7.60039 12.7199 7.44039 12.7199 7.28039 12.7199C7.199 12.2892 7.039 11.8892 6.80039 11.5199C6.92969 11.4707 7.03634 11.3907 7.12039 11.2799C7.05741 10.9552 7.00409 10.5818 6.96039 10.1599C6.64039 10.1599 6.32039 10.1599 6.00039 10.1599C6.02546 9.94018 5.99879 9.72683 5.92039 9.51992C4.82863 7.70947 3.86863 5.8428 3.04039 3.91992C2.54442 3.30298 2.01109 2.71631 1.44039 2.15992C1.15126 1.80695 1.07126 1.43362 1.20039 1.03992C0.984312 0.738093 0.717645 0.498093 0.400391 0.319922C0.520781 0.2126 0.574114 0.0792665 0.560391 -0.0800781Z"
            fill="#7941BE" />
        <path fill-rule="evenodd" clip-rule="evenodd"
            d="M23.4405 10.1602C23.4153 10.3799 23.4421 10.5932 23.5205 10.8002C23.7553 10.5619 23.9953 10.3485 24.2405 10.1602C24.2664 10.4845 24.2397 10.8045 24.1605 11.1202C23.5622 11.8167 23.6422 11.9767 24.4005 11.6002C24.9437 11.7965 25.2902 12.1698 25.4405 12.7202C25.4909 12.2967 25.6776 12.19 26.0005 12.4002C26.4136 13.2937 27.0536 13.987 27.9205 14.4802C28.3878 14.3351 28.8678 14.2818 29.3605 14.3202C29.3605 14.5335 29.3605 14.7468 29.3605 14.9602C29.7872 14.9602 30.2137 14.9602 30.6405 14.9602C30.9229 14.2334 31.1629 13.4867 31.3605 12.7202C31.4137 12.8802 31.4672 13.0402 31.5205 13.2002C31.6568 13.0288 31.7901 12.8688 31.9205 12.7202C31.9205 13.5735 31.9205 14.4268 31.9205 15.2802C31.7072 15.2802 31.4937 15.2802 31.2805 15.2802C31.0629 15.9774 30.8496 16.6707 30.6405 17.3602C30.2326 17.3782 29.8593 17.2715 29.5205 17.0402C29.3267 16.9163 29.3267 16.783 29.5205 16.6402C28.0739 16.6254 27.0872 15.9588 26.5605 14.6402C26.3344 14.334 26.0409 14.1207 25.6805 14.0002C25.5318 13.8099 25.4785 13.5966 25.5205 13.3602C25.3089 13.3874 25.1222 13.334 24.9605 13.2002C24.9809 12.889 24.9544 12.5956 24.8805 12.3202C24.4048 12.2589 23.9515 12.3389 23.5205 12.5602C23.4413 12.2445 23.4145 11.9245 23.4405 11.6002C23.0632 11.5606 22.7432 11.6672 22.4805 11.9202C22.4805 11.8135 22.4805 11.7068 22.4805 11.6002C22.6937 11.2268 22.9072 10.8535 23.1205 10.4802C23.2272 10.3735 23.3337 10.2668 23.4405 10.1602Z"
            fill="#CB047F" />
        <path fill-rule="evenodd" clip-rule="evenodd"
            d="M31.9199 15.2798C31.9199 16.1331 31.9199 16.9866 31.9199 17.8398C31.3358 17.8792 30.7758 17.8792 30.2399 17.8398C29.9215 18.1848 29.5748 18.5048 29.1999 18.7998C28.7732 18.6398 28.3466 18.4798 27.9199 18.3198C27.4206 17.2315 26.6738 16.3248 25.6799 15.5998C25.1838 14.6996 24.517 13.8996 23.6799 13.1998C23.4466 12.7403 23.2599 12.2603 23.1199 11.7598C22.9108 11.9703 22.6708 12.1303 22.3999 12.2398C22.2892 12.0899 22.3159 11.9833 22.4799 11.9198C22.7426 11.6669 23.0626 11.5602 23.4399 11.5998C23.414 11.9242 23.4407 12.2442 23.5199 12.5598C23.951 12.3386 24.4042 12.2586 24.8799 12.3198C24.9538 12.5953 24.9804 12.8886 24.9599 13.1998C25.1217 13.3337 25.3084 13.387 25.5199 13.3598C25.478 13.5963 25.5313 13.8096 25.6799 13.9998C26.0404 14.1203 26.3338 14.3337 26.5599 14.6398C27.0866 15.9585 28.0734 16.6251 29.5199 16.6398C29.3262 16.7827 29.3262 16.916 29.5199 17.0398C29.8588 17.2712 30.2321 17.3779 30.6399 17.3598C30.849 16.6704 31.0623 15.977 31.2799 15.2798C31.4932 15.2798 31.7066 15.2798 31.9199 15.2798Z"
            fill="#C90385" />
        <path fill-rule="evenodd" clip-rule="evenodd"
            d="M13.6797 9.35986C13.8319 9.58686 13.8852 9.85351 13.8397 10.1599C13.9997 10.1599 14.1597 10.1599 14.3197 10.1599C14.5717 11.8473 14.865 11.8473 15.1997 10.1599C15.243 10.8968 15.563 11.4834 16.1597 11.9199C16.2061 11.6728 16.3126 11.4595 16.4797 11.2799C16.8355 11.686 17.0221 12.166 17.0397 12.7199C16.6509 13.4457 16.2242 14.139 15.7597 14.7999C15.4644 14.259 15.3044 13.6723 15.2797 13.0399C14.9129 12.9988 14.5662 13.0522 14.2397 13.1999C14.0734 13.0062 13.8868 12.8462 13.6797 12.7199C13.6797 11.5999 13.6797 10.4799 13.6797 9.35986Z"
            fill="#8B1EA7" />
        <path fill-rule="evenodd" clip-rule="evenodd"
            d="M13.6797 12.7202C13.8868 12.8466 14.0734 13.0066 14.2397 13.2002C14.5662 13.0525 14.9129 12.9992 15.2797 13.0402C15.3044 13.6726 15.4644 14.2593 15.7597 14.8002C15.074 14.9274 14.3807 14.9807 13.6797 14.9602C13.6797 14.2135 13.6797 13.4669 13.6797 12.7202Z"
            fill="#7522B0" />
        <path fill-rule="evenodd" clip-rule="evenodd"
            d="M22.4802 11.6001C22.4802 11.7068 22.4802 11.8134 22.4802 11.9201C22.3162 11.9836 22.2895 12.0902 22.4002 12.2401C22.6711 12.1306 22.9111 11.9706 23.1202 11.7601C23.2602 12.2605 23.4469 12.7405 23.6802 13.2001C24.5173 13.8998 25.184 14.6998 25.6802 15.6001C26.6741 16.3251 27.4208 17.2318 27.9202 18.3201C28.3469 18.4801 28.7735 18.6401 29.2002 18.8001C29.5751 18.5051 29.9218 18.1851 30.2402 17.8401C30.776 17.8795 31.336 17.8795 31.9202 17.8401C31.9202 18.3734 31.9202 18.9068 31.9202 19.4401C31.5132 19.6334 31.2997 19.9534 31.2802 20.4001C30.7973 20.3737 30.3173 20.4004 29.8402 20.4801C29.6381 20.8619 29.3447 21.1551 28.9602 21.3601C28.7895 21.2495 28.6028 21.1695 28.4002 21.1201C28.5991 20.9355 28.7591 20.722 28.8802 20.4801C28.3303 20.6863 27.9037 20.5263 27.6002 20.0001C27.7972 19.8108 27.7972 19.6243 27.6002 19.4401C26.9602 19.1734 26.3202 18.9068 25.6802 18.6401C25.5488 18.1686 25.4688 17.6886 25.4402 17.2001C24.3946 16.523 23.7013 15.5631 23.3602 14.3201C23.1826 14.0742 22.9426 13.9675 22.6402 14.0001C22.6132 13.6142 22.7197 13.2675 22.9602 12.9601C22.8292 12.7491 22.6692 12.5624 22.4802 12.4001C22.2888 12.4554 22.2888 12.5354 22.4802 12.6401C22.2733 12.7185 22.0599 12.7452 21.8402 12.7201C21.8421 13.1428 21.6288 13.3562 21.2002 13.3601C21.5896 12.739 22.0164 12.1524 22.4802 11.6001Z"
            fill="#C2068C" />
        <path fill-rule="evenodd" clip-rule="evenodd"
            d="M-0.0800781 3.91992C0.180717 4.1641 0.314051 4.4841 0.319922 4.87992C0.533255 4.98659 0.746589 5.09325 0.959922 5.19992C1.32103 5.96815 1.72103 6.7148 2.15992 7.43992C2.35013 7.58851 2.56347 7.64184 2.79992 7.59992C3.18594 9.22024 3.71928 10.7936 4.39992 12.3199C4.25731 12.9246 4.25731 13.4846 4.39992 13.9999C4.45007 14.4394 4.39672 14.8661 4.23992 15.2799C4.10659 15.1199 3.97325 14.9599 3.83992 14.7999C3.59042 16.0878 3.08376 17.2612 2.31992 18.3199C1.77987 18.5129 1.29988 18.8063 0.879922 19.1999C0.56429 19.2791 0.24429 19.3058 -0.0800781 19.2799C-0.0800781 18.9066 -0.0800781 18.5332 -0.0800781 18.1599C0.897703 18.141 1.48437 17.661 1.67992 16.7199C1.98239 16.7524 2.22239 16.6458 2.39992 16.3999C2.42333 15.8289 2.55667 15.2956 2.79992 14.7999C2.56987 14.5048 2.62322 14.3181 2.95992 14.2399C2.38738 13.5206 2.33405 12.7473 2.79992 11.9199C2.66837 11.57 2.42837 11.3034 2.07992 11.1199C1.68859 10.017 1.20859 8.95029 0.639922 7.91992C0.462381 7.67403 0.222381 7.56736 -0.0800781 7.59992C-0.0800781 6.37325 -0.0800781 5.14659 -0.0800781 3.91992Z"
            fill="#5A65D9" />
        <path fill-rule="evenodd" clip-rule="evenodd"
            d="M21.0402 14.1599C21.1997 14.1551 21.3064 14.2351 21.3602 14.3999C21.1757 14.6645 20.9623 14.9045 20.7202 15.1199C21.2871 15.96 21.8736 16.7868 22.4802 17.5999C22.2807 17.8389 22.2807 18.0789 22.4802 18.3199C22.6282 18.5024 22.7616 18.5024 22.8802 18.3199C23.1946 19.7436 23.7279 21.0768 24.4802 22.3199C25.0549 22.388 25.2949 22.708 25.2002 23.2799C25.1466 24.0568 25.5199 24.4036 26.3202 24.3199C26.5324 24.6652 26.7991 24.9586 27.1202 25.1999C27.3231 25.0514 27.5364 25.0247 27.7602 25.1199C27.6871 25.1861 27.6336 25.2661 27.6002 25.3599C28.2314 25.8042 28.1781 25.9108 27.4402 25.6799C27.4402 25.9466 27.4402 26.2132 27.4402 26.4799C27.2213 26.8101 27.0613 27.1836 26.9602 27.5999C26.8509 27.658 26.7442 27.7112 26.6402 27.7599C26.3236 28.0268 25.9503 28.1333 25.5202 28.0799C25.4759 27.6082 25.5292 27.1549 25.6802 26.7199C25.318 26.5186 24.9445 26.3319 24.5602 26.1599C24.3231 25.5439 24.1896 24.9039 24.1602 24.2399C23.8509 24.7015 23.4509 24.8082 22.9602 24.5599C23.0183 24.4506 23.0716 24.3439 23.1202 24.2399C23.2269 24.2399 23.2802 24.1866 23.2802 24.0799C23.3053 23.8602 23.2786 23.6468 23.2002 23.4399C21.8247 21.2746 20.4912 19.088 19.2002 16.8799C19.2215 16.2504 19.4615 15.7171 19.9202 15.2799C20.0802 15.2799 20.2402 15.2799 20.4002 15.2799C20.4799 14.8277 20.6932 14.4543 21.0402 14.1599Z"
            fill="#9A0FA4" />
        <path fill-rule="evenodd" clip-rule="evenodd"
            d="M5.68012 11.7598C5.98679 11.9591 6.28012 12.0658 6.56012 12.0798C6.66679 12.3998 6.77345 12.7198 6.88012 13.0398C6.94682 12.8388 7.08015 12.7321 7.28012 12.7198C7.44012 12.7198 7.60012 12.7198 7.76012 12.7198C7.73386 13.1497 7.76053 13.5764 7.84012 13.9998C7.97652 14.2597 8.13652 14.3131 8.32012 14.1598C8.49765 14.4057 8.73765 14.5123 9.04012 14.4798C9.04012 14.7464 9.04012 15.0131 9.04012 15.2798C8.90765 16.2642 8.82765 17.2777 8.80012 18.3198C8.58183 17.6522 8.42183 16.959 8.32012 16.2398C8.12743 16.6114 7.9941 17.0114 7.92012 17.4398C8.07898 17.8322 8.10564 18.2322 8.00012 18.6398C7.83756 18.4583 7.73089 18.5116 7.68012 18.7998C7.64937 18.4674 7.56937 18.1474 7.44012 17.8398C7.01084 18.7359 6.50418 19.5894 5.92012 20.3998C5.68951 20.619 5.42284 20.779 5.12012 20.8798C5.04287 21.0314 5.0162 21.1914 5.04012 21.3598C4.53108 21.3948 4.26441 21.6081 4.24012 21.9998C4.01114 21.9066 3.79781 21.7734 3.60012 21.5998C3.53802 21.3558 3.53802 21.089 3.60012 20.7998C2.96012 20.6398 2.96012 20.4798 3.60012 20.3198C3.72892 20.1417 3.83559 19.9551 3.92012 19.7598C4.76905 19.0473 5.40905 18.1673 5.84012 17.1198C5.78679 17.0665 5.73345 17.013 5.68012 16.9598C5.87425 16.3391 6.08757 15.7258 6.32012 15.1198C6.27676 14.6814 6.27676 14.2281 6.32012 13.7598C6.12329 13.4161 5.96329 13.0695 5.84012 12.7198C5.7362 12.4101 5.68287 12.0901 5.68012 11.7598Z"
            fill="#6248D0" />
        <path fill-rule="evenodd" clip-rule="evenodd"
            d="M31.9199 19.4399C31.9199 20.1866 31.9199 20.9332 31.9199 21.6799C31.3857 22.0223 30.799 22.2623 30.1599 22.3999C29.8474 22.9258 29.4209 23.0591 28.8799 22.7999C29.0182 22.5284 29.2314 22.3418 29.5199 22.2399C29.0082 22.3146 28.555 22.5546 28.1599 22.9599C27.4614 22.3119 26.6348 21.6985 25.6799 21.1199C25.2145 20.5801 24.8678 19.9668 24.6399 19.2799C24.3372 19.1791 24.0705 19.0191 23.8399 18.7999C23.6599 18.2745 23.4999 17.7412 23.3599 17.1999C22.762 16.6977 22.4687 16.0577 22.4799 15.2799C21.6679 15.0287 21.3746 14.4953 21.5999 13.6799C21.4167 13.8617 21.23 14.0217 21.0399 14.1599C20.6929 14.4544 20.4796 14.8277 20.3999 15.2799C20.2399 15.2799 20.0799 15.2799 19.9199 15.2799C20.3466 14.6399 20.7732 13.9999 21.1999 13.3599C21.6286 13.356 21.8418 13.1426 21.8399 12.7199C22.0596 12.745 22.273 12.7183 22.4799 12.6399C22.2886 12.5352 22.2886 12.4552 22.4799 12.3999C22.6689 12.5622 22.8289 12.7489 22.9599 12.9599C22.7194 13.2673 22.6129 13.614 22.6399 13.9999C22.9423 13.9673 23.1823 14.074 23.3599 14.3199C23.701 15.5629 24.3943 16.5228 25.4399 17.1999C25.4686 17.6884 25.5486 18.1684 25.6799 18.6399C26.3199 18.9066 26.9599 19.1732 27.5999 19.4399C27.7969 19.6241 27.7969 19.8106 27.5999 19.9999C27.9034 20.5261 28.33 20.6861 28.8799 20.4799C28.7588 20.7218 28.5988 20.9353 28.3999 21.1199C28.6025 21.1693 28.7892 21.2493 28.9599 21.3599C29.3444 21.1549 29.6378 20.8617 29.8399 20.4799C30.317 20.4002 30.797 20.3735 31.2799 20.3999C31.2994 19.9532 31.5129 19.6332 31.9199 19.4399Z"
            fill="#B80795" />
        <path fill-rule="evenodd" clip-rule="evenodd"
            d="M5.83992 12.7202C5.96309 13.0699 6.12309 13.4166 6.31992 13.7602C6.27656 14.2286 6.27656 14.6819 6.31992 15.1202C6.08738 15.7262 5.87405 16.3396 5.67992 16.9602C5.73325 17.0135 5.78659 17.0669 5.83992 17.1202C5.40885 18.1677 4.76885 19.0477 3.91992 19.7602C3.81253 19.5447 3.81253 19.358 3.91992 19.2002C3.83992 19.1735 3.75992 19.1469 3.67992 19.1202C2.83623 19.7682 1.95623 20.3549 1.03992 20.8802C1.14659 21.0402 1.25325 21.2002 1.35992 21.3602C0.8768 21.5743 0.3968 21.7876 -0.0800781 22.0002C-0.0800781 21.0935 -0.0800781 20.1869 -0.0800781 19.2802C0.24429 19.3061 0.56429 19.2794 0.879922 19.2002C1.29988 18.8066 1.77987 18.5132 2.31992 18.3202C3.08376 17.2615 3.59042 16.0881 3.83992 14.8002C3.97325 14.9602 4.10659 15.1202 4.23992 15.2802C4.39672 14.8664 4.45007 14.4397 4.39992 14.0002C4.52279 14.1222 4.60279 14.2822 4.63992 14.4802C4.69069 14.1921 4.79736 14.1388 4.95992 14.3202C5.03965 13.7895 5.06632 13.2562 5.03992 12.7202C5.30659 12.7202 5.57325 12.7202 5.83992 12.7202Z"
            fill="#545AD7" />
        <path fill-rule="evenodd" clip-rule="evenodd"
            d="M9.03992 15.2798C9.19914 17.1713 9.25247 19.0913 9.19992 21.0398C9.06971 20.6988 8.98971 20.3255 8.95992 19.9198C8.9104 20.1223 8.8304 20.3091 8.71992 20.4798C8.92418 20.8743 8.92418 21.2743 8.71992 21.6798C8.51621 21.6404 8.32954 21.6404 8.15992 21.6798C8.08047 22.0494 8.05379 22.4227 8.07992 22.7998C7.60733 22.9833 7.18066 23.25 6.79992 23.5998C6.43626 23.7974 6.14293 23.7441 5.91992 23.4398C5.62309 23.8371 5.32976 23.8371 5.03992 23.4398C4.68783 23.4903 4.31448 23.4103 3.91992 23.1998C4.14712 22.8463 4.41379 22.5263 4.71992 22.2398C4.56807 22.1411 4.43472 22.1676 4.31992 22.3198C4.24563 22.2247 4.21896 22.118 4.23992 21.9998C4.26421 21.6081 4.53088 21.3948 5.03992 21.3598C5.016 21.1915 5.04267 21.0315 5.11992 20.8798C5.42264 20.779 5.68931 20.619 5.91992 20.3998C6.50399 19.5894 7.01064 18.7359 7.43992 17.8398C7.56917 18.1475 7.64917 18.4675 7.67992 18.7998C7.73069 18.5116 7.83736 18.4583 7.99992 18.6398C8.10544 18.2323 8.07879 17.8323 7.91992 17.4398C7.99391 17.0115 8.12723 16.6115 8.31992 16.2398C8.42163 16.959 8.58163 17.6523 8.79992 18.3198C8.82746 17.2777 8.90746 16.2643 9.03992 15.2798Z"
            fill="#5439C9" />
        <path fill-rule="evenodd" clip-rule="evenodd"
            d="M3.91992 19.7601C3.83539 19.9555 3.72872 20.142 3.59992 20.3201C2.95992 20.4801 2.95992 20.6401 3.59992 20.8001C3.53783 21.0894 3.53783 21.3561 3.59992 21.6001C3.79762 21.7737 4.01095 21.907 4.23992 22.0001C4.21896 22.1184 4.24563 22.2251 4.31992 22.3201C4.43472 22.168 4.56807 22.1414 4.71992 22.2401C4.41379 22.5267 4.14712 22.8467 3.91992 23.2001C4.31448 23.4107 4.68783 23.4907 5.03992 23.4401C4.69671 23.6784 4.32336 23.8384 3.91992 23.9201C3.91992 24.0801 3.91992 24.2401 3.91992 24.4001C3.09703 24.4072 2.35035 24.6204 1.67992 25.0401C1.54175 24.7686 1.32841 24.582 1.03992 24.4801C1.38308 24.3612 1.40974 24.228 1.11992 24.0801C0.781384 24.3963 0.381384 24.6096 -0.0800781 24.7201C-0.0800781 23.8134 -0.0800781 22.9068 -0.0800781 22.0001C0.3968 21.7875 0.8768 21.5742 1.35992 21.3601C1.25325 21.2001 1.14659 21.0401 1.03992 20.8801C1.95623 20.3548 2.83623 19.7681 3.67992 19.1201C3.75992 19.1468 3.83992 19.1734 3.91992 19.2001C3.81253 19.3579 3.81253 19.5446 3.91992 19.7601Z"
            fill="#4843C8" />
        <path fill-rule="evenodd" clip-rule="evenodd"
            d="M31.9197 21.6802C31.9197 22.1602 31.9197 22.6402 31.9197 23.1202C31.5645 23.5661 31.138 23.9394 30.6397 24.2402C30.2986 24.4159 29.952 24.5759 29.5997 24.7202C29.493 24.6135 29.3864 24.5069 29.2797 24.4002C29.056 24.4883 28.8426 24.5416 28.6397 24.5602C28.5676 24.1715 28.4341 24.1448 28.2397 24.4802C27.3516 24.6922 26.7116 24.3987 26.3197 23.6002C25.9509 23.4832 25.6576 23.2699 25.4397 22.9602C25.3952 23.1067 25.3152 23.2133 25.1997 23.2802C25.2944 22.7083 25.0544 22.3883 24.4797 22.3202C23.7274 21.0771 23.1941 19.7439 22.8797 18.3202C22.7612 18.5027 22.6277 18.5027 22.4797 18.3202C22.2802 18.0792 22.2802 17.8392 22.4797 17.6002C21.8732 16.7871 21.2866 15.9604 20.7197 15.1202C20.9618 14.9048 21.1752 14.6648 21.3597 14.4002C21.306 14.2354 21.1992 14.1554 21.0397 14.1602C21.2298 14.022 21.4165 13.862 21.5997 13.6802C21.3744 14.4956 21.6677 15.0289 22.4797 15.2802C22.4685 16.0579 22.7618 16.6979 23.3597 17.2002C23.4997 17.7415 23.6597 18.2747 23.8397 18.8002C24.0703 19.0194 24.337 19.1794 24.6397 19.2802C24.8676 19.9671 25.2143 20.5803 25.6797 21.1202C26.6346 21.6987 27.4612 22.3122 28.1597 22.9602C28.5548 22.5549 29.008 22.3149 29.5197 22.2402C29.2312 22.3421 29.018 22.5287 28.8797 22.8002C29.4207 23.0594 29.8472 22.9261 30.1597 22.4002C30.7988 22.2626 31.3855 22.0226 31.9197 21.6802Z"
            fill="#A90798" />
        <path fill-rule="evenodd" clip-rule="evenodd"
            d="M31.9204 23.12C31.9204 23.5467 31.9204 23.9732 31.9204 24.4C30.9205 25.1203 29.9338 25.867 28.9604 26.64C28.5648 26.1054 28.2448 26.1054 28.0004 26.64C27.8386 26.506 27.6519 26.4528 27.4404 26.48C27.4404 26.2132 27.4404 25.9467 27.4404 25.68C28.1783 25.9108 28.2316 25.8043 27.6004 25.36C27.6338 25.2662 27.6872 25.1862 27.7604 25.12C27.5365 25.0248 27.3232 25.0515 27.1204 25.2C26.7992 24.9587 26.5325 24.6652 26.3204 24.32C25.52 24.4036 25.1468 24.0569 25.2004 23.28C25.3159 23.2131 25.3959 23.1065 25.4404 22.96C25.6583 23.2697 25.9516 23.483 26.3204 23.6C26.7122 24.3985 27.3522 24.692 28.2404 24.48C28.4348 24.1446 28.5682 24.1713 28.6404 24.56C28.8432 24.5414 29.0567 24.4881 29.2804 24.4C29.3871 24.5067 29.4936 24.6132 29.6004 24.72C29.9527 24.5756 30.2992 24.4156 30.6404 24.24C31.1386 23.9392 31.5652 23.5659 31.9204 23.12Z"
            fill="#960791" />
        <path fill-rule="evenodd" clip-rule="evenodd"
            d="M16.56 31.9198C14.4267 31.9198 12.2934 31.9198 10.16 31.9198C10.2141 31.4946 10.1074 31.1214 9.84004 30.7998C9.87353 30.706 9.92685 30.626 10 30.5598C9.61596 30.53 9.24263 30.45 8.88004 30.3198C8.68042 29.549 8.28042 29.389 7.68004 29.8398C7.63082 29.7105 7.55082 29.6038 7.44004 29.5198C6.56513 30.1047 6.13847 29.8914 6.16004 28.8798C6.59807 28.8236 7.02474 28.7169 7.44004 28.5598C7.58175 28.4278 7.63508 28.2678 7.60004 28.0798C7.28004 28.0798 6.96004 28.0798 6.64004 28.0798C6.77767 27.7415 7.04433 27.555 7.44004 27.5198C7.16244 27.4156 6.89577 27.4422 6.64004 27.5998C6.49833 27.4678 6.445 27.3078 6.48004 27.1198C6.00286 27.1938 5.52286 27.2471 5.04004 27.2798C5.04004 27.0665 5.04004 26.853 5.04004 26.6398C5.80028 26.0695 6.65362 25.4562 7.60004 24.7998C7.16401 24.6226 6.71068 24.4892 6.24004 24.3998C6.35983 24.1238 6.5465 23.857 6.80004 23.5998C7.18078 23.25 7.60745 22.9833 8.08004 22.7998C8.05391 22.4226 8.08058 22.0494 8.16004 21.6798C8.32965 21.6404 8.51633 21.6404 8.72004 21.6798C8.92429 21.2743 8.92429 20.8743 8.72004 20.4798C8.83052 20.309 8.91052 20.1223 8.96004 19.9198C8.98983 20.3255 9.06983 20.6988 9.20004 21.0398C9.14849 21.977 9.20181 22.8838 9.36004 23.7598C9.37775 23.8585 9.43108 23.9385 9.52004 23.9998C10.8817 24.1314 12.215 24.1049 13.52 23.9198C13.808 22.9185 13.9414 21.8518 13.92 20.7198C14.0664 20.8522 14.1731 21.0122 14.24 21.1998C14.2544 20.7276 14.3877 20.2476 14.64 19.7598C14.6143 20.6172 14.6943 21.4705 14.88 22.3198C15.0389 21.689 15.1456 21.049 15.2 20.3998C15.531 21.0175 15.8777 21.6042 16.24 22.1598C16.4533 22.1598 16.6668 22.1598 16.88 22.1598C16.7224 22.5852 16.5624 23.0119 16.4 23.4398C16.5412 24.2367 16.8079 24.9834 17.2 25.6798C17.1468 25.733 17.0933 25.7865 17.04 25.8398C16.8306 25.4572 16.6706 25.4572 16.56 25.8398C16.7148 27.0447 16.7148 28.218 16.56 29.3598C16.5868 29.6265 16.6133 29.893 16.64 30.1598C17.077 28.8807 17.2637 28.9073 17.2 30.2398C17.1733 30.5865 17.1468 30.933 17.12 31.2798C17.0668 31.2265 17.0133 31.173 16.96 31.1198C16.8344 31.3996 16.7012 31.6663 16.56 31.9198Z"
            fill="#3322B4" />
        <path fill-rule="evenodd" clip-rule="evenodd"
            d="M18.6397 23.9202C18.6397 24.1335 18.7465 24.2402 18.9597 24.2402C19.0879 24.4869 19.1412 24.7535 19.1197 25.0402C19.2797 25.0402 19.4397 25.0402 19.5997 25.0402C19.5997 25.2002 19.5997 25.3602 19.5997 25.5202C19.2823 25.5389 19.0157 25.4322 18.7997 25.2002C18.7465 25.2535 18.693 25.3069 18.6397 25.3602C19.2015 26.6344 19.2548 27.9412 18.7997 29.2802C18.9741 29.7373 19.1609 30.1908 19.3597 30.6402C19.4561 31.0756 19.4293 31.5021 19.2797 31.9202C18.373 31.9202 17.4665 31.9202 16.5597 31.9202C16.7009 31.6668 16.8341 31.4 16.9597 31.1202C17.013 31.1735 17.0665 31.2269 17.1197 31.2802C17.1465 30.9335 17.173 30.5869 17.1997 30.2402C17.2634 28.9077 17.0767 28.8812 16.6397 30.1602C16.613 29.8935 16.5865 29.6269 16.5597 29.3602C16.7145 28.2184 16.7145 27.0452 16.5597 25.8402C16.6703 25.4576 16.8303 25.4576 17.0397 25.8402C17.093 25.7869 17.1465 25.7335 17.1997 25.6802C16.8076 24.9839 16.5409 24.2372 16.3997 23.4402C16.5621 23.0124 16.7221 22.5856 16.8797 22.1602C16.6665 22.1602 16.453 22.1602 16.2397 22.1602C15.8774 21.6047 15.5307 21.018 15.1997 20.4002C15.1453 21.0495 15.0386 21.6895 14.8797 22.3202C14.694 21.4709 14.614 20.6176 14.6397 19.7602C14.3874 20.248 14.2541 20.728 14.2397 21.2002C14.1728 21.0127 14.0661 20.8527 13.9197 20.7202C13.9411 21.8522 13.8077 22.9189 13.5197 23.9202C13.4931 22.266 13.5198 20.6127 13.5997 18.9602C14.3117 18.7522 15.0317 18.7522 15.7597 18.9602C16.7639 20.5962 17.7239 22.2495 18.6397 23.9202Z"
            fill="#5020B2" />
        <path fill-rule="evenodd" clip-rule="evenodd"
            d="M23.1202 24.2399C23.0716 24.3439 23.0183 24.4506 22.9602 24.5599C23.4509 24.8082 23.8509 24.7015 24.1602 24.2399C24.1896 24.9039 24.3231 25.5439 24.5602 26.1599C24.9445 26.3319 25.318 26.5186 25.6802 26.7199C25.5292 27.155 25.4759 27.6082 25.5202 28.0799C25.2533 28.402 24.9333 28.6687 24.5602 28.8799C24.2039 28.7358 24.0439 28.4692 24.0802 28.0799C23.7135 28.1209 23.3668 28.0676 23.0402 27.9199C23.0352 27.1698 22.902 26.4498 22.6402 25.7599C22.6634 25.6364 22.7167 25.5297 22.8002 25.4399C21.8682 25.283 21.8148 25.0697 22.6402 24.7999C22.1383 24.7038 21.6583 24.5438 21.2002 24.3199C21.838 24.2401 22.478 24.2134 23.1202 24.2399Z"
            fill="#850DA4" />
        <path fill-rule="evenodd" clip-rule="evenodd"
            d="M5.03992 23.4399C5.32976 23.8372 5.62309 23.8372 5.91992 23.4399C6.14293 23.7443 6.43626 23.7975 6.79992 23.5999C6.54639 23.8572 6.35971 24.1239 6.23992 24.3999C6.71056 24.4894 7.16389 24.6228 7.59992 24.7999C6.65351 25.4564 5.80016 26.0697 5.03992 26.6399C5.03992 26.8532 5.03992 27.0667 5.03992 27.2799C5.52274 27.2473 6.00274 27.194 6.47992 27.1199C6.44488 27.3079 6.49821 27.4679 6.63992 27.5999C6.89565 27.4423 7.16232 27.4158 7.43992 27.5199C7.04421 27.5551 6.77755 27.7417 6.63992 28.0799C5.44667 28.0926 4.27335 28.2526 3.11992 28.5599C2.53813 28.4243 1.95146 28.3975 1.35992 28.4799C1.21604 28.2822 1.02938 28.1487 0.799922 28.0799C0.549189 28.2969 0.255856 28.4036 -0.0800781 28.3999C-0.0800781 27.1732 -0.0800781 25.9467 -0.0800781 24.7199C0.381384 24.6094 0.781384 24.3961 1.11992 24.0799C1.40974 24.2278 1.38308 24.3611 1.03992 24.4799C1.32841 24.5819 1.54175 24.7684 1.67992 25.0399C2.35035 24.6203 3.09703 24.407 3.91992 24.3999C3.91992 24.2399 3.91992 24.0799 3.91992 23.9199C4.32336 23.8382 4.69671 23.6782 5.03992 23.4399Z"
            fill="#342DB6" />
        <path fill-rule="evenodd" clip-rule="evenodd"
            d="M18.6396 23.9199C20.1731 24.0756 21.7196 24.1289 23.2796 24.0799C23.2796 24.1866 23.2264 24.2399 23.1196 24.2399C22.4774 24.2134 21.8374 24.2401 21.1996 24.3199C21.6577 24.5438 22.1377 24.7038 22.6396 24.7999C21.8142 25.0697 21.8676 25.283 22.7996 25.4399C22.7161 25.5297 22.6628 25.6364 22.6396 25.7599C22.9014 26.4498 23.0347 27.1698 23.0396 27.9199C23.3662 28.0676 23.7129 28.1209 24.0796 28.0799C24.0433 28.4692 24.2033 28.7358 24.5596 28.8799C24.4747 29.2198 24.2612 29.4598 23.9196 29.5999C24.2396 29.7066 24.5596 29.8132 24.8796 29.9199C24.6579 30.4439 24.3379 30.8974 23.9196 31.2799C23.8003 31.4777 23.747 31.6911 23.7596 31.9199C23.2264 31.9199 22.6929 31.9199 22.1596 31.9199C21.9492 31.6583 21.9492 31.3918 22.1596 31.1199C22.0321 30.8588 21.8721 30.6188 21.6796 30.3999C21.814 30.1172 22.0273 29.9038 22.3196 29.7599C21.8718 29.4202 21.5518 28.9935 21.3596 28.4799C21.5113 28.4026 21.6713 28.3761 21.8396 28.3999C21.7476 27.7878 21.5611 27.2012 21.2796 26.6399C21.1566 26.2241 21.1833 25.8241 21.3596 25.4399C20.612 25.2905 20.5587 25.0505 21.1996 24.7199C20.9032 24.5183 20.6099 24.5183 20.3196 24.7199C20.2598 24.5734 20.1798 24.4399 20.0796 24.3199C19.71 24.2404 19.3368 24.2138 18.9596 24.2399C18.7464 24.2399 18.6396 24.1332 18.6396 23.9199Z"
            fill="#7110A3" />
        <path fill-rule="evenodd" clip-rule="evenodd"
            d="M31.92 24.3999C31.92 25.4132 31.92 26.4266 31.92 27.4399C31.7061 27.5703 31.5461 27.757 31.44 27.9999C31.1785 28.0789 30.9118 28.1055 30.64 28.0799C29.8838 27.9386 29.2438 28.1253 28.72 28.6399C28.2326 28.9877 27.6992 29.0945 27.12 28.9599C27.412 28.7253 27.492 28.4321 27.36 28.0799C26.7472 28.8252 26.5072 28.7185 26.64 27.7599C26.744 27.7113 26.8507 27.658 26.96 27.5999C27.0611 27.1836 27.2211 26.8101 27.44 26.4799C27.6515 26.4527 27.8382 26.506 28 26.6399C28.2445 26.1053 28.5645 26.1053 28.96 26.6399C29.9334 25.8669 30.9201 25.1202 31.92 24.3999Z"
            fill="#7D088A" />
        <path fill-rule="evenodd" clip-rule="evenodd"
            d="M18.9596 24.2402C19.3368 24.2141 19.71 24.2406 20.0796 24.3202C20.1798 24.4402 20.2598 24.5736 20.3196 24.7202C20.6099 24.5186 20.9032 24.5186 21.1996 24.7202C20.5587 25.0507 20.612 25.2907 21.3596 25.4402C21.1833 25.8243 21.1566 26.2243 21.2796 26.6402C21.5611 27.2014 21.7476 27.788 21.8396 28.4002C21.6713 28.3763 21.5113 28.4029 21.3596 28.4802C21.5518 28.9938 21.8718 29.4205 22.3196 29.7602C22.0273 29.904 21.814 30.1174 21.6796 30.4002C21.8721 30.619 22.0321 30.859 22.1596 31.1202C21.9492 31.392 21.9492 31.6586 22.1596 31.9202C21.1996 31.9202 20.2396 31.9202 19.2796 31.9202C19.4292 31.5021 19.456 31.0755 19.3596 30.6402C19.1608 30.1907 18.974 29.7373 18.7996 29.2802C19.2547 27.9411 19.2014 26.6344 18.6396 25.3602C18.6929 25.3069 18.7464 25.2534 18.7996 25.2002C19.0156 25.4322 19.2822 25.5389 19.5996 25.5202C19.5996 25.3602 19.5996 25.2002 19.5996 25.0402C19.4396 25.0402 19.2796 25.0402 19.1196 25.0402C19.1411 24.7534 19.0878 24.4869 18.9596 24.2402Z"
            fill="#5E14AA" />
        <path fill-rule="evenodd" clip-rule="evenodd"
            d="M31.92 27.4399C31.92 28.9332 31.92 30.4267 31.92 31.9199C29.9467 31.9199 27.9733 31.9199 26 31.9199C26.2133 31.6907 26.4533 31.4772 26.72 31.2799C26.7984 31.0731 26.8251 30.8596 26.8 30.6399C27.336 30.6663 27.8693 30.6396 28.4 30.5599C28.8638 30.1956 29.2906 29.7956 29.68 29.3599C29.7846 29.1015 29.8646 28.8348 29.92 28.5599C30.1843 28.4161 30.4243 28.2561 30.64 28.0799C30.9118 28.1055 31.1786 28.079 31.44 27.9999C31.5461 27.7571 31.7061 27.5703 31.92 27.4399Z"
            fill="#590B7F" />
        <path fill-rule="evenodd" clip-rule="evenodd"
            d="M6.63992 28.0801C6.95992 28.0801 7.27992 28.0801 7.59992 28.0801C7.63496 28.2681 7.58163 28.4281 7.43992 28.5601C7.02463 28.7172 6.59795 28.8239 6.15992 28.8801C6.13835 29.8918 6.56501 30.105 7.43992 29.5201C7.55071 29.6041 7.63071 29.7108 7.67992 29.8401C8.28031 29.3894 8.68031 29.5494 8.87992 30.3201C9.24251 30.4503 9.61584 30.5303 9.99992 30.5601C9.92674 30.6263 9.87341 30.7063 9.83992 30.8001C10.1073 31.1217 10.214 31.495 10.1599 31.9201C6.74659 31.9201 3.33325 31.9201 -0.0800781 31.9201C-0.0800781 30.7468 -0.0800781 29.5734 -0.0800781 28.4001C0.255856 28.4038 0.549189 28.297 0.799922 28.0801C1.02938 28.1489 1.21604 28.2823 1.35992 28.4801C1.95146 28.3977 2.53813 28.4244 3.11992 28.5601C4.27335 28.2527 5.44667 28.0927 6.63992 28.0801Z"
            fill="#2524AA" />
        <path fill-rule="evenodd" clip-rule="evenodd"
            d="M26.6396 27.7598C26.5068 28.7183 26.7468 28.825 27.3596 28.0798C27.4916 28.4319 27.4116 28.7252 27.1196 28.9598C27.6988 29.0943 28.2323 28.9876 28.7196 28.6398C29.2435 28.1252 29.8835 27.9385 30.6396 28.0798C30.424 28.2559 30.184 28.4159 29.9196 28.5598C29.8643 28.8346 29.7843 29.1014 29.6796 29.3598C29.2902 29.7954 28.8635 30.1954 28.3996 30.5598C27.8689 30.6394 27.3356 30.6662 26.7996 30.6398C26.8248 30.8594 26.798 31.0729 26.7196 31.2798C26.4529 31.477 26.2129 31.6905 25.9996 31.9198C25.2529 31.9198 24.5064 31.9198 23.7596 31.9198C23.747 31.691 23.8003 31.4775 23.9196 31.2798C24.3379 30.8972 24.6579 30.4438 24.8796 29.9198C24.5596 29.813 24.2396 29.7065 23.9196 29.5998C24.2612 29.4596 24.4747 29.2196 24.5596 28.8798C24.9328 28.6686 25.2528 28.4018 25.5196 28.0798C25.9497 28.1332 26.323 28.0266 26.6396 27.7598Z"
            fill="#6C0B8D" />
    </g>
    <defs>
        <clipPath id="clip0_5296_3734">
            <rect width="32" height="32" fill="white" />
        </clipPath>
    </defs>
</svg>