<svg width="32" height="32" viewBox="0 0 32 32" fill="none" xmlns="http://www.w3.org/2000/svg">
    <g clip-path="url(#clip0_4976_861)">
        <rect width="32" height="32" fill="#FAFAFA" />
        <path
            d="M10.9114 9.2036C10.7887 9.20131 10.6661 9.20732 10.5443 9.22159C9.86636 9.30116 9.24631 9.63292 8.81402 10.1474C8.38174 10.6619 8.17075 11.3192 8.22523 11.9816C8.27978 12.6442 8.59563 13.2605 9.10665 13.7015C9.61766 14.1425 10.2842 14.3739 10.9666 14.3473C11.6491 14.3207 12.2944 14.0382 12.7676 13.5588C13.2408 13.0795 13.505 12.4406 13.5049 11.7759L13.4713 11.3659C13.3725 10.7708 13.0621 10.2283 12.5944 9.83316C12.1266 9.43798 11.5307 9.21517 10.9114 9.2036Z"
            fill="black" />
        <path
            d="M23.9153 9.2036C23.7926 9.20131 23.67 9.20732 23.5482 9.22159C22.8703 9.30116 22.2502 9.63292 21.8179 10.1474C21.3856 10.6619 21.1747 11.3192 21.2291 11.9816C21.2837 12.6442 21.5995 13.2605 22.1106 13.7015C22.6216 14.1425 23.2881 14.3739 23.9705 14.3473C24.653 14.3207 25.2983 14.0382 25.7715 13.5588C26.2447 13.0795 26.5089 12.4406 26.5088 11.7759L26.4752 11.3659C26.3764 10.7707 26.066 10.2282 25.5981 9.83301C25.1302 9.43783 24.5347 9.21507 23.9153 9.2036Z"
            fill="black" />
        <path fill-rule="evenodd" clip-rule="evenodd"
            d="M5.31445 0C5.97789 0.609718 6.78287 1.15316 7.68882 1.61756C10.2184 2.91424 13.6182 3.68159 17.3645 3.68159C21.1108 3.68159 24.5083 2.91424 27.0379 1.61756C27.9438 1.15316 28.7488 0.609718 29.4122 0H26.6699C26.5529 0.0652453 26.4338 0.129945 26.3103 0.193253C24.074 1.33958 20.8898 2.0811 17.3645 2.0811C13.8392 2.0811 10.6527 1.33958 8.41642 0.193253C8.29292 0.129972 8.17383 0.0652453 8.05677 0H5.31445Z"
            fill="black" />
        <path d="M17.3628 19.4231L15.7773 17.2447L17.3628 15.0664L18.9482 17.2447L17.3628 19.4231Z"
            stroke="black" stroke-width="3.3789" />
        <path fill-rule="evenodd" clip-rule="evenodd"
            d="M2.58789 4.43945V17.3292C2.58788 18.2619 2.59761 19.1913 2.70591 20.1409C3.4982 27.0857 10.2042 32.0423 17.3623 31.9998V30.7291C11.0152 30.6772 5.11728 26.0916 4.18875 19.9389C4.05559 19.0564 4.04303 18.2149 4.04304 17.3292V4.43945H2.58789Z"
            fill="#96DB1E" />
        <path
            d="M23.9626 6.76753C23.7238 6.76306 23.4851 6.77475 23.248 6.8026C20.5052 7.12464 18.5127 9.4964 18.7335 12.1765C18.9545 14.8566 21.31 16.889 24.0706 16.7813C26.831 16.6737 29.0119 14.4645 29.012 11.7759L28.9462 10.9774C28.5493 8.58607 26.4511 6.81367 23.9626 6.76753Z"
            stroke="black" stroke-width="3.3789" />
        <path
            d="M10.9591 6.76753C10.7202 6.76306 10.4813 6.77475 10.2441 6.8026C7.50128 7.12464 5.50881 9.49641 5.7296 12.1765C5.95055 14.8566 8.30612 16.889 11.0667 16.7813C13.8271 16.6737 16.008 14.4645 16.008 11.7759L15.9423 10.9774C15.5454 8.58622 13.4475 6.81387 10.9591 6.76753Z"
            stroke="black" stroke-width="3.3789" />
    </g>
    <defs>
        <clipPath id="clip0_4976_861">
            <rect width="32" height="32" fill="white" />
        </clipPath>
    </defs>
</svg>