<svg width="32" height="32" viewBox="0 0 32 32" fill="none" xmlns="http://www.w3.org/2000/svg">
    <g clip-path="url(#clip0_5012_125)">
        <path fill-rule="evenodd" clip-rule="evenodd"
            d="M-0.0400391 -0.0400391C10.6266 -0.0400391 21.2933 -0.0400391 31.96 -0.0400391C31.96 10.6266 31.96 21.2933 31.96 31.96C21.2933 31.96 10.6266 31.96 -0.0400391 31.96C-0.0400391 21.2933 -0.0400391 10.6266 -0.0400391 -0.0400391Z"
            fill="#FEFEFE" />
        <path fill-rule="evenodd" clip-rule="evenodd"
            d="M9.31973 6.11967C8.77661 6.09575 8.24325 6.14909 7.71973 6.27967C7.86192 6.19163 8.02189 6.12496 8.19973 6.07967C8.58789 6.01446 8.96125 6.02779 9.31973 6.11967Z"
            fill="#508CB0" />
        <path fill-rule="evenodd" clip-rule="evenodd"
            d="M23 6.19961C22.9128 6.32898 22.7795 6.39565 22.6 6.39961C22.6922 6.55025 22.8255 6.61692 23 6.59961C23 6.73295 23 6.86628 23 6.99961C22.7782 7.02201 22.5782 6.96869 22.4 6.83961C22.3088 6.98195 22.2154 7.11529 22.12 7.23961C21.4416 7.21645 20.8816 7.45645 20.44 7.95961C20.44 7.85295 20.44 7.74628 20.44 7.63961C20.5241 7.65157 20.6041 7.63824 20.68 7.59961C20.7365 7.39619 20.8432 7.22285 21 7.07961C20.8947 6.97509 20.8147 6.85509 20.76 6.71961C20.6016 6.66493 20.4683 6.70493 20.36 6.83961C20.2891 6.77361 20.2624 6.69361 20.28 6.59961C20.1733 6.59961 20.0666 6.59961 19.96 6.59961C20.8992 5.9094 21.9125 5.77606 23 6.19961Z"
            fill="#75B4B4" />
        <path fill-rule="evenodd" clip-rule="evenodd"
            d="M23.0001 6.2002C24.0576 6.47121 24.6443 7.15121 24.7601 8.2402C24.7484 8.64684 24.6552 9.03348 24.4801 9.4002C24.1568 9.84364 23.7701 10.2169 23.3201 10.5202C23.1258 10.5509 22.9391 10.6043 22.7601 10.6802C22.7764 10.5092 22.8564 10.3758 23.0001 10.2802C22.8418 10.1391 22.8152 9.97908 22.9201 9.8002C22.9802 9.87028 23.0202 9.95028 23.0401 10.0402C23.1783 9.81228 23.1916 9.57228 23.0801 9.3202C22.9368 9.43412 22.7901 9.54084 22.6401 9.6402C22.607 9.60364 22.567 9.57692 22.5201 9.5602C22.4304 9.6506 22.3236 9.70396 22.2001 9.7202C22.4884 9.47204 22.7684 9.2054 23.0401 8.9202C23.2243 8.4998 23.1976 8.0998 22.9601 7.7202C22.692 7.52656 22.412 7.36656 22.1201 7.2402C22.2156 7.11587 22.3089 6.98253 22.4001 6.8402C22.5784 6.96927 22.7784 7.0226 23.0001 7.0002C23.0001 6.86686 23.0001 6.73353 23.0001 6.6002C22.8256 6.6175 22.6924 6.55084 22.6001 6.4002C22.7796 6.39623 22.913 6.32956 23.0001 6.2002Z"
            fill="#82BEB2" />
        <path fill-rule="evenodd" clip-rule="evenodd"
            d="M19.9602 6.59961C20.0669 6.59961 20.1736 6.59961 20.2802 6.59961C20.2627 6.69361 20.2894 6.77361 20.3602 6.83961C20.4686 6.70492 20.6019 6.66492 20.7602 6.71961C20.815 6.85508 20.895 6.97508 21.0002 7.07961C20.8434 7.22285 20.7368 7.39619 20.6802 7.59961C20.6044 7.63823 20.5244 7.65157 20.4402 7.63961C20.4402 7.74627 20.4402 7.85295 20.4402 7.95961C20.1986 8.20089 19.9319 8.41425 19.6402 8.59961C19.5304 8.61217 19.4237 8.59881 19.3202 8.55961C19.4086 8.46913 19.3819 8.40241 19.2402 8.35961C19.1756 8.20577 19.1356 8.04577 19.1202 7.87961C18.8699 8.08265 18.6033 8.26937 18.3202 8.43961C18.2402 8.38625 18.1602 8.33297 18.0802 8.27961C17.851 8.57753 17.571 8.79089 17.2402 8.91961C18.0978 8.08865 19.0045 7.31532 19.9602 6.59961Z"
            fill="#68AEB5" />
        <path fill-rule="evenodd" clip-rule="evenodd"
            d="M22.1201 7.23981C22.412 7.36617 22.692 7.52617 22.9601 7.71981C23.1976 8.09941 23.2242 8.49941 23.0401 8.91981C22.7684 9.20501 22.4884 9.47165 22.2001 9.71981C22.0369 9.85397 21.8769 9.98733 21.7201 10.1198C21.3747 10.3587 21.0547 10.6254 20.7601 10.9198C20.2235 11.374 19.6902 11.8273 19.1601 12.2798C18.5056 12.833 17.8389 13.3664 17.1601 13.8798C17.0801 13.7465 16.9734 13.6398 16.8401 13.5598C16.5344 13.1206 16.1344 12.8006 15.6401 12.5998C15.3686 12.6027 15.2619 12.4961 15.3201 12.2798C15.6654 12.0409 15.9854 11.7742 16.2801 11.4798C17.4282 10.5445 18.5482 9.58445 19.6401 8.59981C19.9318 8.41445 20.1985 8.20109 20.4401 7.95981C20.8817 7.45664 21.4417 7.21664 22.1201 7.23981Z"
            fill="#FAFDFC" />
        <path fill-rule="evenodd" clip-rule="evenodd"
            d="M10.1995 8.11999C10.2129 10.3868 10.1995 12.6535 10.1595 14.92C10.0146 15.064 9.86794 15.1973 9.71954 15.32C9.00074 15.8789 8.30738 16.4657 7.63954 17.08C7.56002 16.2945 7.53335 15.4945 7.55954 14.68C7.63935 12.7737 7.66601 10.8537 7.63954 8.91999C7.7237 8.93191 7.8037 8.91863 7.87954 8.87999C7.67498 8.66399 7.60831 8.41063 7.67954 8.11999C8.10962 7.32781 8.73626 7.12781 9.55954 7.51999C9.73978 7.65698 9.87314 7.83032 9.95954 8.03999C10.0255 8.11087 10.1055 8.13751 10.1995 8.11999Z"
            fill="#FDFEFD" />
        <path fill-rule="evenodd" clip-rule="evenodd"
            d="M8.43965 6.91992C8.73725 6.92506 9.03053 6.96506 9.31965 7.03992C9.39013 7.09659 9.44341 7.16325 9.47965 7.23992C9.64821 7.31738 9.83493 7.34405 10.0396 7.31992C10.3216 7.80441 10.5349 8.3244 10.6796 8.87992C10.6006 10.1674 10.5472 11.4607 10.5196 12.7599C10.5996 12.7599 10.6796 12.7599 10.7596 12.7599C10.7041 13.1843 10.6774 13.611 10.6796 14.0399C10.813 14.0399 10.9463 14.0399 11.0796 14.0399C11.0792 13.3961 11.0259 12.7561 10.9196 12.1199C11.0528 10.7018 11.0262 9.2884 10.8396 7.87992C10.844 7.65114 10.924 7.46447 11.0796 7.31992C11.1026 7.55865 11.236 7.66531 11.4796 7.63992C11.5878 7.90675 11.6412 8.18672 11.6396 8.47992C11.4944 9.93432 11.4412 11.3877 11.4796 12.8399C11.5264 13.0802 11.5798 13.3202 11.6396 13.5599C11.6882 13.55 11.7148 13.5234 11.7196 13.4799C11.773 13.4799 11.8263 13.4799 11.8796 13.4799C12.2602 13.5897 12.2869 13.763 11.9596 13.9999C12.101 14.4994 12.181 15.0194 12.1996 15.5599C12.1196 15.5599 12.0396 15.5599 11.9596 15.5599C11.9341 15.2559 11.8541 15.2426 11.7196 15.5199C11.6438 15.5586 11.5638 15.5718 11.4796 15.5599C11.5152 16.5912 11.5152 17.6312 11.4796 18.6799C11.493 18.7333 11.5063 18.7866 11.5196 18.8399C11.5878 18.7542 11.6544 18.6742 11.7196 18.5999C11.7463 18.5999 11.773 18.5999 11.7996 18.5999C11.8796 18.5999 11.9596 18.5999 12.0396 18.5999C12.132 18.823 12.292 18.9963 12.5196 19.1199C12.2914 19.173 12.0781 19.133 11.8796 18.9999C11.8263 19.0266 11.773 19.0533 11.7196 19.0799C11.9123 19.2558 12.1256 19.389 12.3596 19.4799C12.3596 19.5866 12.3596 19.6933 12.3596 19.7999C12.253 19.7999 12.1463 19.7999 12.0396 19.7999C12.0396 19.7199 12.0396 19.6399 12.0396 19.5599C11.8174 19.5982 11.6574 19.5182 11.5596 19.3199C11.4853 19.415 11.4587 19.5217 11.4796 19.6399C11.6555 19.681 11.8155 19.761 11.9596 19.8799C12.0305 19.9459 12.0572 20.0259 12.0396 20.1199C12.013 20.1999 11.9596 20.2533 11.8796 20.2799C11.8229 20.2076 11.7429 20.181 11.6396 20.1999C11.6396 20.2799 11.6396 20.3599 11.6396 20.4399C11.5732 21.5194 11.5332 22.6128 11.5196 23.7199C11.468 23.9646 11.4014 24.2046 11.3196 24.4399C11.2116 24.3239 11.0784 24.2706 10.9196 24.2799C10.9332 23.8518 11.0132 23.4385 11.1596 23.0399C11.0818 22.6074 11.0551 22.1674 11.0796 21.7199C10.9996 21.7199 10.9196 21.7199 10.8396 21.7199C10.8396 21.2933 10.8396 20.8666 10.8396 20.4399C10.9196 20.4399 10.9996 20.4399 11.0796 20.4399C11.0796 20.0133 11.0796 19.5866 11.0796 19.1599C10.9996 19.1599 10.9196 19.1599 10.8396 19.1599C10.8396 17.8799 10.8396 16.5999 10.8396 15.3199C10.5766 15.3541 10.3366 15.3007 10.1196 15.1599C9.99365 15.2364 9.86029 15.2898 9.71965 15.3199C9.86805 15.1973 10.0147 15.0639 10.1596 14.9199C10.1996 12.6534 10.213 10.3867 10.1996 8.11992C10.0364 7.62421 9.68973 7.34421 9.15965 7.27992C8.68557 7.17953 8.25893 7.27287 7.87965 7.55992C7.82293 7.4876 7.74293 7.46094 7.63965 7.47992C7.63965 7.39992 7.63965 7.31992 7.63965 7.23992C7.88112 7.25309 8.12109 7.23976 8.35965 7.19992C8.42661 7.11902 8.45325 7.02569 8.43965 6.91992Z"
            fill="#368CC1" />
        <path fill-rule="evenodd" clip-rule="evenodd"
            d="M9.48035 6.12012C9.92651 6.1883 10.3265 6.3483 10.6804 6.60012C10.6835 6.68677 10.7102 6.76677 10.7604 6.84012C10.4486 6.90502 10.262 7.09169 10.2004 7.40012C10.4968 7.40023 10.6835 7.26689 10.7604 7.00012C11.0756 6.9414 11.1822 7.04806 11.0804 7.32012C10.9248 7.46467 10.8448 7.65133 10.8404 7.88012C11.0269 9.2886 11.0536 10.702 10.9204 12.1201C11.0266 12.7563 11.0799 13.3963 11.0804 14.0401C10.947 14.0401 10.8137 14.0401 10.6804 14.0401C10.6781 13.6112 10.7048 13.1845 10.7604 12.7601C10.6804 12.7601 10.6004 12.7601 10.5204 12.7601C10.548 11.4609 10.6013 10.1676 10.6804 8.88012C10.5356 8.3246 10.3224 7.80461 10.0404 7.32012C9.83563 7.34425 9.64891 7.31757 9.48035 7.24012C9.64251 7.25309 9.80251 7.23976 9.96035 7.20012C9.86963 7.11884 9.89627 7.0655 10.0404 7.04012C9.83683 6.95276 9.62347 6.89943 9.40035 6.88012C9.28635 6.74299 9.31299 6.63632 9.48035 6.56012C9.61107 6.52064 9.74443 6.5073 9.88035 6.52012C9.88035 6.44012 9.88035 6.36012 9.88035 6.28012C9.71611 6.28795 9.58275 6.23462 9.48035 6.12012Z"
            fill="#308AC3" />
        <path fill-rule="evenodd" clip-rule="evenodd"
            d="M6.04004 15.3196C6.04004 14.4663 6.04004 13.613 6.04004 12.7596C6.09338 11.1993 6.1467 9.62597 6.20004 8.03965C6.2601 8.10973 6.3001 8.18973 6.32004 8.27965C6.3467 8.06629 6.37338 7.85298 6.40004 7.63965C6.4809 8.06261 6.54756 8.48933 6.60004 8.91965C6.6667 11.4792 6.7067 14.0392 6.72004 16.5996C6.84885 17.0208 6.94218 17.4474 7.00004 17.8796C6.92004 17.8796 6.84004 17.8796 6.76004 17.8796C6.76326 17.6456 6.69658 17.4324 6.56004 17.2396C6.50004 14.4661 6.43337 11.6928 6.36004 8.91965C6.25871 11.2664 6.25871 13.6132 6.36004 15.9596C6.33338 16.173 6.3067 16.3863 6.28004 16.5996C6.25078 16.1413 6.17078 15.7146 6.04004 15.3196Z"
            fill="#2382C7" />
        <path fill-rule="evenodd" clip-rule="evenodd"
            d="M19.6397 8.59988C18.5478 9.58452 17.4278 10.5445 16.2797 11.4799C16.4327 11.2941 16.5393 11.0808 16.5997 10.8399C16.7064 10.8399 16.8131 10.8399 16.9197 10.8399C16.9072 10.73 16.9205 10.6233 16.9597 10.5199C17.3506 10.2938 17.3106 10.1872 16.8397 10.1999C16.8222 10.1059 16.8488 10.0259 16.9197 9.95988C17.0752 9.90476 17.2352 9.86476 17.3997 9.83988C17.4877 9.64164 17.4211 9.495 17.1997 9.39988C17.0051 9.4782 16.8051 9.53148 16.5997 9.55988C16.5997 9.69324 16.5997 9.82652 16.5997 9.95988C16.4931 9.95988 16.3864 9.95988 16.2797 9.95988C16.2797 10.0399 16.2797 10.1199 16.2797 10.1999C16.0931 10.1999 15.9064 10.1999 15.7197 10.1999C16.2244 9.77556 16.7311 9.34892 17.2397 8.91988C17.5705 8.79116 17.8505 8.5778 18.0797 8.27988C18.1597 8.33324 18.2397 8.38652 18.3197 8.43988C18.6028 8.26964 18.8694 8.08292 19.1197 7.87988C19.1351 8.04604 19.1751 8.20604 19.2397 8.35988C19.3814 8.40268 19.408 8.4694 19.3197 8.55988C19.4232 8.59908 19.5299 8.61244 19.6397 8.59988Z"
            fill="#5EA6B6" />
        <path fill-rule="evenodd" clip-rule="evenodd"
            d="M10.6802 6.59961C10.7868 6.65295 10.8936 6.70627 11.0002 6.75961C11.272 7.07243 11.4987 7.4191 11.6802 7.79961C11.7202 9.69273 11.7336 11.5861 11.7202 13.4796C11.7154 13.523 11.6888 13.5497 11.6402 13.5596C11.5804 13.3198 11.527 13.0798 11.4802 12.8396C11.4417 11.3874 11.495 9.93401 11.6402 8.47961C11.6417 8.18641 11.5884 7.90644 11.4802 7.63961C11.2365 7.665 11.1032 7.55834 11.0802 7.31961C11.182 7.04755 11.0754 6.94089 10.7602 6.99961C10.6833 7.26639 10.4967 7.39972 10.2002 7.39961C10.2618 7.09118 10.4484 6.90451 10.7602 6.83961C10.71 6.76627 10.6833 6.68627 10.6802 6.59961Z"
            fill="#3F89B6" />
        <path fill-rule="evenodd" clip-rule="evenodd"
            d="M23.3197 10.5203C22.9137 10.9502 22.4604 11.3234 21.9597 11.6403C22.0312 11.3268 22.1378 11.0202 22.2797 10.7203C22.2208 10.4964 22.1541 10.483 22.0797 10.6803C21.9731 10.5737 21.8664 10.5737 21.7597 10.6803C21.6907 10.5004 21.7307 10.3538 21.8797 10.2403C21.8064 10.2181 21.7532 10.1781 21.7197 10.1203C21.8765 9.98783 22.0365 9.85447 22.1997 9.72031C22.3232 9.70407 22.43 9.65071 22.5197 9.56031C22.5666 9.57703 22.6066 9.60375 22.6397 9.64031C22.7897 9.54095 22.9364 9.43423 23.0797 9.32031C23.1912 9.57239 23.1779 9.81239 23.0397 10.0403C23.0198 9.95039 22.9798 9.87039 22.9197 9.80031C22.8148 9.97919 22.8414 10.1392 22.9997 10.2803C22.856 10.3759 22.776 10.5093 22.7597 10.6803C22.9387 10.6044 23.1254 10.551 23.3197 10.5203Z"
            fill="#7CB9B3" />
        <path fill-rule="evenodd" clip-rule="evenodd"
            d="M16.2803 11.4804C15.9857 11.7748 15.6657 12.0415 15.3203 12.2804C15.3366 12.1094 15.4166 11.976 15.5603 11.8804C15.5111 11.7511 15.4311 11.6445 15.3203 11.5604C15.4003 11.507 15.4803 11.4538 15.5603 11.4004C15.3254 11.1218 15.3788 10.9084 15.7203 10.7604C15.6269 10.623 15.4935 10.5697 15.3203 10.6004C15.427 10.4404 15.5603 10.307 15.7203 10.2004C15.907 10.2004 16.0937 10.2004 16.2803 10.2004C16.2803 10.1204 16.2803 10.0404 16.2803 9.96039C16.387 9.96039 16.4937 9.96039 16.6003 9.96039C16.6003 9.82703 16.6003 9.69375 16.6003 9.56039C16.8057 9.53199 17.0057 9.47871 17.2003 9.40039C17.4217 9.49551 17.4883 9.64215 17.4003 9.84039C17.2358 9.86527 17.0758 9.90527 16.9203 9.96039C16.8494 10.0264 16.8228 10.1064 16.8403 10.2004C17.3112 10.1877 17.3512 10.2943 16.9603 10.5204C16.9211 10.6238 16.9078 10.7306 16.9203 10.8404C16.8137 10.8404 16.707 10.8404 16.6003 10.8404C16.5399 11.0814 16.4333 11.2946 16.2803 11.4804Z"
            fill="#549EB8" />
        <path fill-rule="evenodd" clip-rule="evenodd"
            d="M12.68 12.7596C12.5312 12.8747 12.3978 13.008 12.28 13.1596C12.1447 13.2687 12.0114 13.3754 11.88 13.4796C11.8266 13.4796 11.7734 13.4796 11.72 13.4796C11.7334 11.5861 11.72 9.69273 11.68 7.79961C11.4985 7.4191 11.2718 7.07243 11 6.75961C11.1594 6.77333 11.2926 6.72 11.4 6.59961C11.4838 6.71339 11.4838 6.83339 11.4 6.95961C11.6968 7.15368 11.8434 7.43368 11.84 7.79961C11.9702 9.10465 11.9834 10.4113 11.88 11.7196C11.9066 12.2262 11.9334 12.733 11.96 13.2396C12.0309 13.1736 12.0575 13.0936 12.04 12.9996C12.2534 12.9196 12.4666 12.8396 12.68 12.7596Z"
            fill="#DCF1F8" />
        <path fill-rule="evenodd" clip-rule="evenodd"
            d="M21.7197 10.1201C21.7531 10.1779 21.8064 10.2179 21.8797 10.2401C21.7306 10.3536 21.6906 10.5002 21.7597 10.6801C21.8663 10.5735 21.973 10.5735 22.0797 10.6801C22.1541 10.4828 22.2207 10.4962 22.2797 10.7201C22.1378 11.02 22.0311 11.3266 21.9597 11.6401C21.7975 11.8556 21.6108 12.0423 21.3997 12.2001C21.209 12.3909 20.9957 12.5509 20.7597 12.6801C20.7354 12.6281 20.7087 12.5748 20.6797 12.5201C20.8663 12.3601 21.053 12.2001 21.2397 12.0401C21.3382 11.948 21.3382 11.8548 21.2397 11.7601C21.4516 11.5652 21.3983 11.4585 21.0797 11.4401C20.8858 11.3144 20.7792 11.1412 20.7597 10.9201C21.0543 10.6257 21.3743 10.359 21.7197 10.1201Z"
            fill="#75B5B5" />
        <path fill-rule="evenodd" clip-rule="evenodd"
            d="M15.3196 10.6002C15.4928 10.5695 15.6261 10.6229 15.7196 10.7602C15.3781 10.9082 15.3247 11.1216 15.5596 11.4002C15.4796 11.4536 15.3996 11.5069 15.3196 11.5602C15.4304 11.6443 15.5104 11.7509 15.5596 11.8802C15.4158 11.9758 15.3358 12.1092 15.3196 12.2802C15.2614 12.4965 15.3681 12.6031 15.6396 12.6002C15.7008 12.7945 15.8341 12.9012 16.0396 12.9202C16.0541 13.0942 16.1075 13.2542 16.1996 13.4002C16.1701 13.513 16.1035 13.593 15.9996 13.6402C15.7127 13.4635 15.4327 13.2768 15.1596 13.0802C15.0606 13.0847 14.9806 13.1247 14.9196 13.2002C15.032 13.3017 15.1653 13.3417 15.3196 13.3202C15.3196 13.4002 15.3196 13.4802 15.3196 13.5602C14.8662 13.5602 14.4129 13.5602 13.9596 13.5602C13.9291 13.4457 13.8491 13.3791 13.7196 13.3602C13.7729 13.3069 13.8262 13.2536 13.8796 13.2002C14.0749 13.2901 14.2882 13.3167 14.5196 13.2802C14.4032 13.1189 14.2432 13.0523 14.0396 13.0802C14.0396 12.9736 14.0396 12.8669 14.0396 12.7602C13.8796 12.7069 13.7196 12.6536 13.5596 12.6002C13.5596 12.4936 13.5596 12.3869 13.5596 12.2802C13.8923 12.2811 14.039 12.1211 13.9996 11.8002C13.9459 11.8604 13.8793 11.8871 13.7996 11.8802C14.2589 11.394 14.7656 10.9673 15.3196 10.6002Z"
            fill="#4A99BD" />
        <path fill-rule="evenodd" clip-rule="evenodd"
            d="M8.4397 6.91973C8.4533 7.02549 8.42666 7.11882 8.3597 7.19973C8.12114 7.23957 7.88118 7.25289 7.6397 7.23973C7.6397 7.31973 7.6397 7.39973 7.6397 7.47973C7.74298 7.46074 7.82298 7.48741 7.8797 7.55973C7.75186 7.73556 7.64519 7.92223 7.5597 8.11973C7.49265 8.14709 7.46598 8.20037 7.4797 8.27973C7.41312 10.6128 7.37312 12.9595 7.3597 15.3197C7.27971 13.1871 7.21304 11.0537 7.1597 8.91973C7.07971 11.4792 7.05305 14.0392 7.0797 16.5997C6.9997 16.5997 6.9197 16.5997 6.8397 16.5997C6.85303 14.0396 6.8397 11.4796 6.7997 8.91973C6.63027 8.45205 6.57694 7.97204 6.6397 7.47973C6.91016 7.39595 7.1635 7.27595 7.3997 7.11973C7.30488 7.01149 7.19822 6.91815 7.0797 6.83973C7.09645 6.79285 7.12311 6.75285 7.1597 6.71973C7.5645 6.85087 7.99117 6.91753 8.4397 6.91973Z"
            fill="#2382C7" />
        <path fill-rule="evenodd" clip-rule="evenodd"
            d="M10.1996 8.12023C10.1056 8.13775 10.0256 8.11111 9.95957 8.04023C9.87317 7.83056 9.73981 7.65722 9.55957 7.52023C8.73629 7.12805 8.10965 7.32805 7.67957 8.12023C7.60835 8.41087 7.67501 8.66423 7.87957 8.88023C7.80373 8.91887 7.72373 8.93215 7.63957 8.92023C7.66604 10.854 7.63938 12.774 7.55957 14.6802C7.55957 12.4936 7.55957 10.3069 7.55957 8.12023C7.64506 7.92273 7.75172 7.73606 7.87957 7.56023C8.25885 7.27317 8.68549 7.17984 9.15957 7.28023C9.68965 7.34452 10.0363 7.62452 10.1996 8.12023Z"
            fill="#EDFBFE" />
        <path fill-rule="evenodd" clip-rule="evenodd"
            d="M7.48031 8.28027C7.48031 11.2403 7.48031 14.2003 7.48031 17.1603C7.3664 16.9991 7.31307 16.8124 7.32031 16.6003C7.24031 16.6003 7.16031 16.6003 7.08031 16.6003C7.05365 14.0397 7.08031 11.4797 7.16031 8.92027C7.21364 11.0543 7.28031 13.1876 7.36031 15.3203C7.37372 12.96 7.41372 10.6134 7.48031 8.28027Z"
            fill="#2B81BD" />
        <path fill-rule="evenodd" clip-rule="evenodd"
            d="M20.7603 10.9199C20.7798 11.141 20.8864 11.3142 21.0803 11.4399C21.3989 11.4583 21.4522 11.565 21.2403 11.7599C21.3387 11.8546 21.3387 11.9478 21.2403 12.0399C21.0536 12.1999 20.8669 12.3599 20.6803 12.5199C20.7093 12.5746 20.7359 12.6279 20.7603 12.6799C20.4956 12.9176 20.229 13.1576 19.9603 13.3999C19.9426 13.0274 19.7559 12.8807 19.4003 12.9599C19.2627 13.2068 19.316 13.3934 19.5603 13.5199C19.4367 13.6149 19.3034 13.6415 19.1603 13.5999C19.1406 13.332 19.1406 13.052 19.1603 12.7599C19.6614 12.7508 19.6614 12.6708 19.1603 12.5199C19.1603 12.4399 19.1603 12.3599 19.1603 12.2799C19.6904 11.8274 20.2237 11.3741 20.7603 10.9199Z"
            fill="#6BAFB5" />
        <path fill-rule="evenodd" clip-rule="evenodd"
            d="M7.56006 8.12012C7.56006 10.3068 7.56006 12.4935 7.56006 14.6801C7.53387 15.4946 7.56054 16.2946 7.64006 17.0801C7.64006 17.1068 7.64006 17.1335 7.64006 17.1601C7.58673 17.1601 7.5334 17.1601 7.48006 17.1601C7.48006 14.2001 7.48006 11.2401 7.48006 8.28012C7.46633 8.20076 7.49301 8.14748 7.56006 8.12012Z"
            fill="#9EC6E1" />
        <path fill-rule="evenodd" clip-rule="evenodd"
            d="M13.9603 13.5598C13.8305 13.6096 13.7239 13.6896 13.6403 13.7998C13.1017 14.1756 12.9417 14.6823 13.1603 15.3198C13.0803 15.3198 13.0003 15.3198 12.9203 15.3198C12.936 14.8819 12.8828 14.4552 12.7603 14.0398C13.0803 14.0132 13.0803 13.9864 12.7603 13.9598C12.745 13.6812 12.6917 13.4145 12.6003 13.1598C12.4936 13.1598 12.3869 13.1598 12.2803 13.1598C12.3981 13.0082 12.5315 12.8749 12.6803 12.7598C13.0536 12.4664 13.4269 12.1732 13.8003 11.8798C13.88 11.8867 13.9466 11.86 14.0003 11.7998C14.0397 12.1207 13.893 12.2807 13.5603 12.2798C13.5603 12.3864 13.5603 12.4932 13.5603 12.5998C13.7203 12.6532 13.8803 12.7064 14.0403 12.7598C14.0403 12.8664 14.0403 12.9732 14.0403 13.0798C14.2439 13.0519 14.4039 13.1185 14.5203 13.2798C14.2889 13.3163 14.0756 13.2896 13.8803 13.1998C13.8269 13.2532 13.7736 13.3064 13.7203 13.3598C13.8498 13.3787 13.9298 13.4453 13.9603 13.5598Z"
            fill="#4392BB" />
        <path fill-rule="evenodd" clip-rule="evenodd"
            d="M21.4002 12.2002C21.364 12.4372 21.244 12.6239 21.0402 12.7602C21.0136 12.7336 20.9869 12.7068 20.9602 12.6802C20.7242 13.0762 20.3909 13.3562 19.9602 13.5202C19.7949 13.8067 19.5549 13.98 19.2402 14.0402C19.4782 13.8292 19.7182 13.6158 19.9602 13.4002C20.229 13.1579 20.4956 12.9179 20.7602 12.6802C20.9962 12.551 21.2095 12.391 21.4002 12.2002Z"
            fill="#E7FAFB" />
        <path fill-rule="evenodd" clip-rule="evenodd"
            d="M19.1602 12.2803C19.1602 12.3603 19.1602 12.4403 19.1602 12.5203C19.6613 12.6712 19.6613 12.7512 19.1602 12.7603C19.1405 13.0524 19.1405 13.3324 19.1602 13.6003C19.3033 13.6419 19.4366 13.6152 19.5602 13.5203C19.3159 13.3938 19.2626 13.2072 19.4002 12.9603C19.7558 12.8811 19.9425 13.0277 19.9602 13.4003C19.7181 13.6159 19.4781 13.8292 19.2402 14.0403C18.9346 14.2605 18.6413 14.5005 18.3602 14.7603C18.2701 14.8649 18.2701 14.9716 18.3602 15.0803C18.3068 15.0803 18.2535 15.0803 18.2002 15.0803C18.0886 14.7315 18.222 14.5048 18.6002 14.4003C18.5054 14.292 18.3986 14.1987 18.2802 14.1203C17.89 14.0052 17.5166 13.9252 17.1602 13.8803C17.839 13.3668 18.5057 12.8335 19.1602 12.2803Z"
            fill="#66A7B7" />
        <path fill-rule="evenodd" clip-rule="evenodd"
            d="M14.6801 16.12C14.5497 16.21 14.4297 16.3168 14.3201 16.44C13.9705 16.0771 13.6105 15.7304 13.2401 15.4C13.2401 15.3467 13.2134 15.32 13.1601 15.32C12.9415 14.6825 13.1015 14.1759 13.6401 13.8C14.302 13.6197 14.9153 13.7131 15.4801 14.08C15.6784 14.3451 15.8917 14.5984 16.1201 14.84C15.6623 15.2982 15.1823 15.7248 14.6801 16.12Z"
            fill="#F8FCFB" />
        <path fill-rule="evenodd" clip-rule="evenodd"
            d="M16.8404 13.5596C16.9737 13.6396 17.0804 13.7462 17.1604 13.8796C17.5168 13.9245 17.8902 14.0045 18.2804 14.1196C18.3988 14.198 18.5056 14.2913 18.6004 14.3996C18.2222 14.5041 18.0888 14.7308 18.2004 15.0796C18.176 15.1316 18.1494 15.1849 18.1204 15.2396C18.6192 15.3337 18.6325 15.4404 18.1604 15.5596C17.9936 15.4581 17.8203 15.3781 17.6404 15.3196C17.6676 15.5189 17.7476 15.6922 17.8804 15.8396C17.8537 15.9062 17.827 15.9729 17.8004 16.0396C17.6549 15.8241 17.4683 15.6641 17.2404 15.5596C17.3204 15.5596 17.4004 15.5596 17.4804 15.5596C17.4804 15.4796 17.4804 15.3996 17.4804 15.3196C17.187 15.3196 16.8937 15.3196 16.6004 15.3196C16.5805 14.9457 16.5005 14.599 16.3604 14.2796C16.4404 14.2796 16.5204 14.2796 16.6004 14.2796C16.6792 14.0401 16.7592 13.8001 16.8404 13.5596Z"
            fill="#59A3BA" />
        <path fill-rule="evenodd" clip-rule="evenodd"
            d="M9.32012 6.11981C9.37348 6.11981 9.42676 6.11981 9.48012 6.11981C9.58252 6.23431 9.71588 6.28764 9.88012 6.27981C9.88012 6.35981 9.88012 6.43981 9.88012 6.51981C9.7442 6.50699 9.61084 6.52033 9.48012 6.55981C9.31276 6.63601 9.28612 6.74268 9.40012 6.87981C9.62324 6.89912 9.8366 6.95245 10.0401 7.03981C9.89604 7.06519 9.8694 7.11853 9.96012 7.19981C9.80228 7.23945 9.64228 7.25278 9.48012 7.23981C9.44388 7.16314 9.3906 7.09647 9.32012 7.03981C9.031 6.96495 8.73772 6.92495 8.44012 6.91981C7.99159 6.91762 7.56492 6.85095 7.16012 6.71981C7.12353 6.75293 7.09687 6.79293 7.08012 6.83981C7.19863 6.91823 7.3053 7.01157 7.40012 7.11981C7.16391 7.27603 6.91058 7.39603 6.64012 7.47981C6.57736 7.97212 6.63069 8.45213 6.80012 8.91981C6.84012 11.4796 6.85345 14.0396 6.84012 16.5998C6.92012 16.5998 7.00012 16.5998 7.08012 16.5998C7.06695 16.8412 7.08028 17.0812 7.12012 17.3198C7.22917 17.4312 7.29583 17.5645 7.32012 17.7198C7.16671 18.0001 6.99338 18.2668 6.80012 18.5198C6.76247 18.2723 6.6158 18.1389 6.36012 18.1198C6.52285 17.9277 6.53618 17.7144 6.40012 17.4798C6.38394 17.6203 6.34395 17.7536 6.28012 17.8798C6.2179 19.3729 6.16457 20.8663 6.12012 22.3598C6.14678 22.5732 6.17346 22.7864 6.20012 22.9998C6.41647 23.2252 6.48314 23.4918 6.40012 23.7998C6.38394 23.6593 6.34395 23.526 6.28012 23.3998C6.25346 23.4664 6.22678 23.5332 6.20012 23.5998C6.32848 23.9196 6.38182 24.253 6.36012 24.5998C6.197 24.4869 6.117 24.3269 6.12012 24.1198C6.04215 21.1884 6.01549 18.2551 6.04012 15.3198C6.17086 15.7148 6.25086 16.1415 6.28012 16.5998C6.30679 16.3864 6.33346 16.1732 6.36012 15.9598C6.25879 13.6133 6.25879 11.2666 6.36012 8.91981C6.43345 11.6929 6.50012 14.4663 6.56012 17.2398C6.69667 17.4325 6.76334 17.6458 6.76012 17.8798C6.84012 17.8798 6.92012 17.8798 7.00012 17.8798C6.94227 17.4476 6.84893 17.0209 6.72012 16.5998C6.70678 14.0394 6.66678 11.4794 6.60012 8.91981C6.54764 8.48949 6.48098 8.06277 6.40012 7.63981C6.37346 7.85315 6.34679 8.06645 6.32012 8.27981C6.30019 8.18989 6.26019 8.10989 6.20012 8.03981C6.14678 9.62613 6.09346 11.1995 6.04012 12.7598C6.04012 11.2132 6.04012 9.66645 6.04012 8.11981C6.23754 7.17571 6.79755 6.56237 7.72012 6.27981C8.24364 6.14923 8.777 6.0959 9.32012 6.11981Z"
            fill="#2882BF" />
        <path fill-rule="evenodd" clip-rule="evenodd"
            d="M12.2796 13.1602C12.3862 13.1602 12.4929 13.1602 12.5996 13.1602C12.691 13.4149 12.7443 13.6815 12.7596 13.9602C13.0796 13.9868 13.0796 14.0135 12.7596 14.0402C12.8821 14.4555 12.9353 14.8822 12.9196 15.3202C12.9996 15.3202 13.0796 15.3202 13.1596 15.3202C13.2129 15.3202 13.2396 15.3468 13.2396 15.4002C13.1837 15.6758 13.0503 15.7024 12.8396 15.4802C12.7237 15.6972 12.7771 15.8572 12.9996 15.9602C13.0591 16.0794 13.1124 16.1994 13.1596 16.3202C13.5373 16.3575 13.884 16.4242 14.1996 16.5202C14.076 16.5963 13.9426 16.623 13.7996 16.6002C13.7816 16.7774 13.8482 16.9108 13.9996 17.0002C14.0529 17.2135 14.0529 17.4268 13.9996 17.6402C13.9462 17.5335 13.8929 17.5335 13.8396 17.6402C13.9711 18.0358 13.8245 18.2224 13.3996 18.2002C13.436 18.8354 13.2493 18.9154 12.8396 18.4402C12.8129 18.5202 12.7862 18.6002 12.7596 18.6802C12.7809 18.853 12.8609 18.9862 12.9996 19.0802C12.9336 19.151 12.8536 19.1777 12.7596 19.1602C12.7596 19.2668 12.7596 19.3735 12.7596 19.4802C12.568 19.749 12.328 19.9624 12.0396 20.1202C12.0571 20.0262 12.0305 19.9462 11.9596 19.8802C11.8154 19.7613 11.6554 19.6813 11.4796 19.6402C11.4586 19.5219 11.4853 19.4153 11.5596 19.3202C11.6573 19.5184 11.8173 19.5984 12.0396 19.5602C12.0396 19.6402 12.0396 19.7202 12.0396 19.8002C12.1462 19.8002 12.2529 19.8002 12.3596 19.8002C12.3596 19.6935 12.3596 19.5868 12.3596 19.4802C12.1256 19.3893 11.9122 19.256 11.7196 19.0802C11.7729 19.0535 11.8262 19.0268 11.8796 19.0002C12.0781 19.1333 12.2913 19.1733 12.5196 19.1202C12.292 18.9966 12.132 18.8232 12.0396 18.6002C12.1542 18.4935 12.2609 18.3735 12.3596 18.2402C12.5089 18.1833 12.6289 18.2233 12.7196 18.3602C12.7462 18.1735 12.7729 17.9868 12.7996 17.8002C12.9383 17.7402 13.0849 17.7002 13.2396 17.6802C13.3439 17.6158 13.3973 17.5225 13.3996 17.4002C13.2899 17.1167 13.1299 16.8634 12.9196 16.6402C13.039 16.5477 13.0257 16.481 12.8796 16.4402C12.804 16.4726 12.7506 16.5259 12.7196 16.6002C12.7398 16.3895 12.7398 16.1762 12.7196 15.9602C12.6245 16.0452 12.5845 16.1519 12.5996 16.2802C12.2796 16.3335 12.1462 16.2002 12.1996 15.8802C12.0929 15.8802 11.9862 15.8802 11.8796 15.8802C11.8302 15.8713 11.7902 15.8446 11.7596 15.8002C11.7196 16.7331 11.7062 17.6665 11.7196 18.6002C11.6544 18.6745 11.5877 18.7545 11.5196 18.8402C11.5062 18.7868 11.4929 18.7335 11.4796 18.6802C11.5151 17.6314 11.5151 16.5914 11.4796 15.5602C11.5637 15.5721 11.6437 15.5588 11.7196 15.5202C11.8541 15.2429 11.9341 15.2562 11.9596 15.5602C12.0396 15.5602 12.1196 15.5602 12.1996 15.5602C12.1809 15.0196 12.1009 14.4996 11.9596 14.0002C12.2869 13.7633 12.2601 13.5899 11.8796 13.4802C12.0109 13.3759 12.1443 13.2693 12.2796 13.1602Z"
            fill="#3D8FBE" />
        <path fill-rule="evenodd" clip-rule="evenodd"
            d="M18.1996 15.0801C18.253 15.0801 18.3063 15.0801 18.3596 15.0801C19.0796 15.7467 19.773 16.4401 20.4396 17.1601C20.4396 17.2934 20.4396 17.4267 20.4396 17.5601C20.4964 17.6324 20.5764 17.659 20.6796 17.6401C20.6796 17.7201 20.6796 17.8001 20.6796 17.8801C20.5196 17.8801 20.3596 17.8801 20.1996 17.8801C20.1996 17.9601 20.1996 18.0401 20.1996 18.1201C20.2796 18.1201 20.3596 18.1201 20.4396 18.1201C20.4526 18.2822 20.4392 18.4422 20.3996 18.6001C20.173 18.3734 19.9463 18.1467 19.7196 17.9201C19.8231 17.8809 19.9298 17.8675 20.0396 17.8801C20.0572 17.7861 20.0305 17.7061 19.9596 17.6401C19.7402 17.7866 19.5002 17.8666 19.2396 17.8801C18.5624 17.243 17.8958 16.5896 17.2396 15.9201C17.006 15.9505 16.7926 16.0438 16.5996 16.2001C16.5781 15.9581 16.6448 15.7447 16.7996 15.5601C16.9551 15.4555 17.1018 15.4555 17.2396 15.5601C17.4676 15.6646 17.6542 15.8246 17.7996 16.0401C17.8263 15.9734 17.853 15.9067 17.8796 15.8401C17.7468 15.6927 17.6668 15.5194 17.6396 15.3201C17.8196 15.3786 17.9929 15.4586 18.1596 15.5601C18.6318 15.4409 18.6185 15.3342 18.1196 15.2401C18.1487 15.1854 18.1753 15.1321 18.1996 15.0801Z"
            fill="#64ABB6" />
        <path fill-rule="evenodd" clip-rule="evenodd"
            d="M15.6396 12.5996C16.134 12.8004 16.534 13.1204 16.8396 13.5596C16.7585 13.8002 16.6785 14.0402 16.5996 14.2796C16.5196 14.2796 16.4396 14.2796 16.3596 14.2796C16.4998 14.599 16.5798 14.9457 16.5996 15.3196C16.893 15.3196 17.1863 15.3196 17.4796 15.3196C17.4796 15.3996 17.4796 15.4796 17.4796 15.5596C17.3996 15.5596 17.3196 15.5596 17.2396 15.5596C17.1018 15.455 16.9551 15.455 16.7996 15.5596C16.6448 15.7442 16.5781 15.9576 16.5996 16.1996C16.1987 16.6004 15.772 16.9738 15.3196 17.3196C15.3196 17.2396 15.3196 17.1596 15.3196 17.0796C15.3996 17.0796 15.4796 17.0796 15.5596 17.0796C15.5716 16.9954 15.5583 16.9154 15.5196 16.8396C15.3992 16.7057 15.2525 16.6257 15.0796 16.5996C15.0796 16.5196 15.0796 16.4396 15.0796 16.3596C15.1596 16.3596 15.2396 16.3596 15.3196 16.3596C15.3196 16.2262 15.3196 16.093 15.3196 15.9596C15.0935 15.9663 14.8801 16.0196 14.6796 16.1196C15.1819 15.7244 15.6619 15.2978 16.1196 14.8396C15.8912 14.598 15.678 14.3446 15.4796 14.0796C14.9149 13.7126 14.3016 13.6193 13.6396 13.7996C13.7232 13.6894 13.8299 13.6094 13.9596 13.5596C14.413 13.5596 14.8663 13.5596 15.3196 13.5596C15.3196 13.4796 15.3196 13.3996 15.3196 13.3196C15.1653 13.3411 15.032 13.3011 14.9196 13.1996C14.9807 13.1241 15.0607 13.0841 15.1596 13.0796C15.4328 13.2762 15.7128 13.4629 15.9996 13.6396C16.1036 13.5924 16.1702 13.5124 16.1996 13.3996C16.1076 13.2536 16.0542 13.0936 16.0396 12.9196C15.8341 12.9006 15.7008 12.7939 15.6396 12.5996Z"
            fill="#549EBA" />
        <path fill-rule="evenodd" clip-rule="evenodd"
            d="M19.2403 17.8799C19.9337 18.6266 20.6537 19.3466 21.4003 20.0399C21.5603 20.2533 21.747 20.4399 21.9603 20.5999C21.9993 20.6778 22.0393 20.7578 22.0803 20.8399C22.8128 21.5557 23.5462 22.2757 24.2803 22.9999C24.5708 24.0724 24.1442 24.6324 23.0003 24.6799C22.495 24.6541 22.095 24.4407 21.8003 24.0399C20.2537 22.4399 18.6803 20.8666 17.0803 19.3199C16.8937 19.1197 16.7204 18.9064 16.5603 18.6799C16.1868 18.373 15.8268 18.053 15.4803 17.7199C15.427 17.5866 15.3737 17.4533 15.3203 17.3199C15.7727 16.9741 16.1994 16.6007 16.6003 16.1999C16.7933 16.0437 17.0066 15.9503 17.2403 15.9199C17.8965 16.5894 18.5631 17.2428 19.2403 17.8799Z"
            fill="#FAFDFD" />
        <path fill-rule="evenodd" clip-rule="evenodd"
            d="M13.2398 15.4004C13.6102 15.7308 13.9702 16.0774 14.3198 16.4404C14.4294 16.3171 14.5494 16.2104 14.6798 16.1204C14.8802 16.0204 15.0936 15.9671 15.3198 15.9604C15.3198 16.0938 15.3198 16.227 15.3198 16.3604C15.2398 16.3604 15.1598 16.3604 15.0798 16.3604C15.0798 16.4404 15.0798 16.5204 15.0798 16.6004C15.2526 16.6265 15.3993 16.7065 15.5198 16.8404C15.5584 16.9162 15.5717 16.9962 15.5598 17.0804C15.4798 17.0804 15.3998 17.0804 15.3198 17.0804C15.3198 17.1604 15.3198 17.2404 15.3198 17.3204C15.3731 17.4538 15.4264 17.587 15.4798 17.7204C15.4736 17.8204 15.4202 17.887 15.3198 17.9204C15.4713 18.0067 15.4979 18.1134 15.3998 18.2404C15.6962 18.3206 15.9094 18.494 16.0398 18.7604C15.9118 18.9387 15.7518 18.9654 15.5598 18.8404C15.4183 18.6453 15.3117 18.4319 15.2398 18.2004C15.0785 18.1039 14.9185 18.1039 14.7598 18.2004C14.9903 18.391 15.177 18.6176 15.3198 18.8804C15.294 19.0666 15.1873 19.1599 14.9998 19.1604C14.7614 18.8687 14.4948 18.6021 14.1998 18.3604C13.7397 18.7682 13.2597 19.1414 12.7598 19.4804C12.7598 19.3738 12.7598 19.267 12.7598 19.1604C12.8538 19.1779 12.9338 19.1513 12.9998 19.0804C12.861 18.9865 12.781 18.8532 12.7598 18.6804C12.7864 18.6004 12.8131 18.5204 12.8398 18.4404C13.2495 18.9157 13.4362 18.8357 13.3998 18.2004C13.8246 18.2226 13.9713 18.036 13.8398 17.6404C13.8931 17.5338 13.9464 17.5338 13.9998 17.6404C14.0531 17.427 14.0531 17.2138 13.9998 17.0004C13.8484 16.911 13.7818 16.7777 13.7998 16.6004C13.9428 16.6232 14.0762 16.5966 14.1998 16.5204C13.8842 16.4244 13.5374 16.3578 13.1598 16.3204C13.1126 16.1997 13.0593 16.0797 12.9998 15.9604C12.7773 15.8574 12.7239 15.6974 12.8398 15.4804C13.0505 15.7026 13.1838 15.676 13.2398 15.4004Z"
            fill="#4998BC" />
        <path fill-rule="evenodd" clip-rule="evenodd"
            d="M11.8799 15.8798C11.8799 15.9332 11.8799 15.9864 11.8799 16.0398C11.7732 16.8398 11.7732 17.6398 11.8799 18.4398C11.8532 18.4932 11.8265 18.5464 11.7999 18.5998C11.7732 18.5998 11.7465 18.5998 11.7199 18.5998C11.7065 17.6661 11.7199 16.7328 11.7599 15.7998C11.7905 15.8443 11.8305 15.8709 11.8799 15.8798Z"
            fill="#CEF3FE" />
        <path fill-rule="evenodd" clip-rule="evenodd"
            d="M11.8798 16.04C12.3315 16.4384 12.7581 16.865 13.1598 17.32C12.7572 17.7227 12.3306 18.096 11.8798 18.44C11.7731 17.64 11.7731 16.84 11.8798 16.04Z"
            fill="#F4FCFB" />
        <path fill-rule="evenodd" clip-rule="evenodd"
            d="M11.8798 15.8799C11.9864 15.8799 12.0932 15.8799 12.1998 15.8799C12.1464 16.1999 12.2798 16.3332 12.5998 16.2799C12.5848 16.1516 12.6248 16.0449 12.7198 15.9599C12.74 16.1759 12.74 16.3892 12.7198 16.5999C12.7508 16.5256 12.8042 16.4723 12.8798 16.4399C13.0259 16.4807 13.0392 16.5474 12.9198 16.6399C13.1301 16.8631 13.2901 17.1164 13.3998 17.3999C13.3975 17.5222 13.3441 17.6156 13.2398 17.6799C13.0852 17.7 12.9385 17.74 12.7998 17.7999C12.7732 17.9865 12.7464 18.1732 12.7198 18.3599C12.6292 18.223 12.5092 18.183 12.3598 18.2399C12.2612 18.3732 12.1544 18.4932 12.0398 18.5999C11.9598 18.5999 11.8798 18.5999 11.7998 18.5999C11.8264 18.5465 11.8532 18.4932 11.8798 18.4399C12.3306 18.0958 12.7572 17.7225 13.1598 17.3199C12.7581 16.8648 12.3315 16.4382 11.8798 16.0399C11.8798 15.9865 11.8798 15.9332 11.8798 15.8799Z"
            fill="#4791B4" />
        <path fill-rule="evenodd" clip-rule="evenodd"
            d="M8.2 20.4398C7.32215 19.8666 7.26881 19.2266 8.04 18.5198C8.14664 18.4398 8.25336 18.3598 8.36 18.2798C8.89256 17.8538 9.3992 17.4005 9.88 16.9198C10.0014 16.9189 10.0947 16.8656 10.16 16.7598C10.2134 17.8264 10.2134 18.8931 10.16 19.9598C9.59776 20.5255 8.9444 20.6855 8.2 20.4398Z"
            fill="#F8FCFB" />
        <path fill-rule="evenodd" clip-rule="evenodd"
            d="M20.4402 17.5596C20.5469 17.5596 20.6536 17.5596 20.7602 17.5596C20.9067 17.8105 21.0667 18.0639 21.2402 18.3196C21.0365 18.4249 20.9832 18.5715 21.0802 18.7596C20.9882 18.9283 20.8815 19.0883 20.7602 19.2396C20.9806 19.5685 21.0606 19.5551 21.0002 19.1996C21.131 19.1601 21.2643 19.1468 21.4002 19.1596C21.3736 19.3996 21.4802 19.5062 21.7202 19.4796C21.7328 19.5894 21.7194 19.6961 21.6802 19.7996C21.5096 19.7392 21.3762 19.6325 21.2802 19.4796C21.2536 19.5062 21.2269 19.5329 21.2002 19.5596C21.2389 19.7225 21.3055 19.8825 21.4002 20.0396C20.6536 19.3462 19.9336 18.6262 19.2402 17.8796C19.5008 17.8661 19.7408 17.7861 19.9602 17.6396C20.0311 17.7056 20.0578 17.7856 20.0402 17.8796C19.9304 17.867 19.8237 17.8804 19.7202 17.9196C19.9469 18.1462 20.1736 18.3729 20.4002 18.5996C20.4398 18.4417 20.4532 18.2817 20.4402 18.1196C20.3602 18.1196 20.2802 18.1196 20.2002 18.1196C20.2002 18.0396 20.2002 17.9596 20.2002 17.8796C20.3602 17.8796 20.5202 17.8796 20.6802 17.8796C20.6802 17.7996 20.6802 17.7196 20.6802 17.6396C20.577 17.6585 20.497 17.6319 20.4402 17.5596Z"
            fill="#6FB1B5" />
        <path fill-rule="evenodd" clip-rule="evenodd"
            d="M6.0396 8.12012C6.0396 9.66676 6.0396 11.2135 6.0396 12.7601C6.0396 13.6135 6.0396 14.4668 6.0396 15.3201C6.01497 18.2554 6.04163 21.1887 6.1196 24.1201C6.05817 24.0591 6.01817 23.9791 5.9996 23.8801C5.93303 18.6133 5.94637 13.36 6.0396 8.12012Z"
            fill="#659CBC" />
        <path fill-rule="evenodd" clip-rule="evenodd"
            d="M20.4404 17.1602C21.1431 17.7826 21.7831 18.4492 22.3604 19.1602C22.3366 19.4882 22.4699 19.7015 22.7604 19.8002C22.7946 20.1065 22.7946 20.3998 22.7604 20.6802C22.8404 20.6802 22.9204 20.6802 23.0004 20.6802C22.9885 20.596 23.0018 20.516 23.0404 20.4402C23.1795 20.6947 23.1928 20.9614 23.0804 21.2402C22.7517 21.0317 22.4583 20.7783 22.2004 20.4802C22.0974 20.461 22.0174 20.501 21.9604 20.6002C21.7471 20.4402 21.5604 20.2535 21.4004 20.0402C21.3057 19.8831 21.2391 19.7231 21.2004 19.5602C21.2271 19.5335 21.2538 19.5068 21.2804 19.4802C21.3764 19.6331 21.5098 19.7398 21.6804 19.8002C21.7196 19.6967 21.733 19.59 21.7204 19.4802C21.4804 19.5068 21.3738 19.4002 21.4004 19.1602C21.2645 19.1474 21.1311 19.1606 21.0004 19.2002C21.0608 19.5557 20.9808 19.569 20.7604 19.2402C20.8817 19.0889 20.9884 18.9289 21.0804 18.7602C20.9834 18.5721 21.0367 18.4254 21.2404 18.3202C21.0669 18.0645 20.9069 17.8111 20.7604 17.5602C20.6538 17.5602 20.5471 17.5602 20.4404 17.5602C20.4404 17.4268 20.4404 17.2935 20.4404 17.1602Z"
            fill="#76B7B3" />
        <path fill-rule="evenodd" clip-rule="evenodd"
            d="M10.9196 24.2802C10.7836 24.2902 10.6636 24.3436 10.5596 24.4402C10.4429 24.4155 10.3496 24.3622 10.2796 24.2802C10.5023 23.941 10.6356 23.5676 10.6796 23.1602C10.6129 22.4661 10.5329 21.7727 10.4396 21.0802C10.5972 20.4498 10.7038 19.8098 10.7596 19.1602C10.6796 19.1602 10.5996 19.1602 10.5196 19.1602C10.5196 18.3068 10.5196 17.4535 10.5196 16.6002C10.276 16.6717 10.036 16.685 9.79965 16.6402C9.86661 16.721 9.89325 16.8144 9.87965 16.9202C9.39885 17.4009 8.89221 17.8542 8.35965 18.2802C8.38909 17.8273 8.40245 17.374 8.39965 16.9202C8.15109 17.0238 7.89774 17.1038 7.63965 17.1602C7.63965 17.1335 7.63965 17.1068 7.63965 17.0802C8.30749 16.4658 9.00085 15.8791 9.71965 15.3202C9.86029 15.29 9.99365 15.2366 10.1196 15.1602C10.3366 15.301 10.5766 15.3543 10.8396 15.3202C10.8396 16.6002 10.8396 17.8802 10.8396 19.1602C10.9196 19.1602 10.9996 19.1602 11.0796 19.1602C11.0796 19.5868 11.0796 20.0135 11.0796 20.4402C10.9996 20.4402 10.9196 20.4402 10.8396 20.4402C10.8396 20.8668 10.8396 21.2935 10.8396 21.7202C10.9196 21.7202 10.9996 21.7202 11.0796 21.7202C11.0551 22.1676 11.0818 22.6076 11.1596 23.0402C11.0132 23.4387 10.9332 23.852 10.9196 24.2802Z"
            fill="#3088C2" />
        <path fill-rule="evenodd" clip-rule="evenodd"
            d="M15.4798 17.7197C15.8262 18.0528 16.1862 18.3728 16.5598 18.6797C16.7198 18.9062 16.8931 19.1195 17.0798 19.3197C17.0363 19.3245 17.0097 19.3512 16.9998 19.3997C17.2962 19.5492 17.4429 19.7892 17.4398 20.1197C17.6102 20.2089 17.757 20.3156 17.8798 20.4397C17.4786 20.4688 17.4652 20.5755 17.8398 20.7597C17.879 20.8632 17.8923 20.9699 17.8798 21.0797C17.7438 21.0925 17.6105 21.0792 17.4798 21.0397C17.3028 20.8763 17.1428 20.703 16.9998 20.5197C16.9444 20.5617 16.9044 20.6151 16.8798 20.6797C16.7008 20.5434 16.5008 20.4634 16.2798 20.4397C15.8264 20.0397 15.3998 19.6131 14.9998 19.1597C15.1873 19.1592 15.294 19.0659 15.3198 18.8797C15.177 18.6169 14.9903 18.3903 14.7598 18.1997C14.9185 18.1032 15.0785 18.1032 15.2398 18.1997C15.3117 18.4312 15.4183 18.6446 15.5598 18.8397C15.7518 18.9647 15.9118 18.938 16.0398 18.7597C15.9094 18.4933 15.6962 18.32 15.3998 18.2397C15.4979 18.1128 15.4713 18.006 15.3198 17.9197C15.4202 17.8864 15.4736 17.8197 15.4798 17.7197Z"
            fill="#55A0B8" />
        <path fill-rule="evenodd" clip-rule="evenodd"
            d="M22.36 19.1602C23.0223 19.7692 23.6623 20.4092 24.28 21.0802C24.1701 21.0676 24.0634 21.081 23.96 21.1202C24.1196 21.2926 24.2262 21.4926 24.28 21.7202C24.2 21.7202 24.12 21.7202 24.04 21.7202C24.04 21.8002 24.04 21.8802 24.04 21.9602C24.12 21.9602 24.2 21.9602 24.28 21.9602C24.28 22.1202 24.28 22.2802 24.28 22.4402C24.1701 22.4276 24.0634 22.441 23.96 22.4802C24.1002 22.6401 24.2069 22.8134 24.28 23.0002C23.5458 22.2759 22.8124 21.5559 22.08 20.8402C22.0389 20.758 21.9989 20.678 21.96 20.6002C22.0169 20.501 22.0969 20.461 22.2 20.4802C22.4579 20.7783 22.7512 21.0317 23.08 21.2402C23.1924 20.9614 23.1791 20.6947 23.04 20.4402C23.0013 20.516 22.988 20.596 23 20.6802C22.92 20.6802 22.84 20.6802 22.76 20.6802C22.7941 20.3998 22.7941 20.1065 22.76 19.8002C22.4694 19.7015 22.3361 19.4882 22.36 19.1602Z"
            fill="#82BCB2" />
        <path fill-rule="evenodd" clip-rule="evenodd"
            d="M7.08012 16.5996C7.16012 16.5996 7.24012 16.5996 7.32012 16.5996C7.31288 16.8118 7.36621 16.9984 7.48012 17.1596C7.53345 17.1596 7.58678 17.1596 7.64012 17.1596C7.89821 17.1032 8.15156 17.0232 8.40012 16.9196C8.40292 17.3734 8.38956 17.8267 8.36012 18.2796C8.25348 18.3596 8.14676 18.4396 8.04012 18.5196C7.90678 18.5196 7.77345 18.5196 7.64012 18.5196C7.64012 18.6262 7.64012 18.733 7.64012 18.8396C7.45567 18.8002 7.269 18.7735 7.08012 18.7596C7.0122 19.0746 6.95887 19.3946 6.92012 19.7196C6.92416 19.9374 6.95083 20.1508 7.00012 20.3596C6.93412 20.4305 6.85412 20.4571 6.76012 20.4396C6.78807 20.1545 6.73473 19.8878 6.60012 19.6396C6.42429 20.27 6.35761 20.91 6.40012 21.5596C6.54896 21.3686 6.65563 21.1553 6.72012 20.9196C6.97742 20.7842 7.23075 20.6374 7.48012 20.4796C7.36272 20.3918 7.29605 20.2718 7.28012 20.1196C7.21389 19.8023 7.17389 19.4823 7.16012 19.1596C7.24012 19.1596 7.32012 19.1596 7.40012 19.1596C7.34269 19.6536 7.47603 20.0803 7.80012 20.4396C7.69186 20.5215 7.63853 20.6282 7.64012 20.7596C7.88587 20.7342 8.12588 20.7609 8.36012 20.8396C7.97112 21.0206 7.57112 21.1806 7.16012 21.3196C7.08036 21.877 7.05369 22.437 7.08012 22.9996C7.00012 22.9996 6.92012 22.9996 6.84012 22.9996C6.86637 22.5696 6.8397 22.143 6.76012 21.7196C6.69188 22.5725 6.63855 23.4258 6.60012 24.2796C6.68012 24.2796 6.76012 24.2796 6.84012 24.2796C6.84012 23.9596 6.84012 23.6396 6.84012 23.3196C6.97002 23.3084 7.06335 23.3618 7.12012 23.4796C7.27873 22.904 7.3454 22.3173 7.32012 21.7196C7.35938 22.5678 7.43938 23.4212 7.56012 24.2796C7.64012 24.2796 7.72012 24.2796 7.80012 24.2796C7.81721 24.5802 7.73721 24.6335 7.56012 24.4396C7.33689 24.5862 7.36355 24.6662 7.64012 24.6796C7.64012 24.7596 7.64012 24.8396 7.64012 24.9196C7.82617 24.8675 8.01284 24.8142 8.20012 24.7596C8.28012 24.7862 8.36012 24.813 8.44012 24.8396C8.25092 24.8864 8.09092 24.9798 7.96012 25.1196C7.70556 25.1522 7.45223 25.1922 7.20012 25.2396C6.81439 25.167 6.72105 24.9803 6.92012 24.6796C6.90337 24.6327 6.87671 24.5927 6.84012 24.5596C6.68344 24.5674 6.5501 24.634 6.44012 24.7596C6.37306 24.7322 6.34639 24.679 6.36012 24.5996C6.38181 24.2528 6.32848 23.9194 6.20012 23.5996C6.22678 23.533 6.25345 23.4662 6.28012 23.3996C6.34394 23.5258 6.38394 23.6591 6.40012 23.7996C6.48313 23.4916 6.41647 23.225 6.20012 22.9996C6.17345 22.7862 6.14678 22.573 6.12012 22.3596C6.16457 20.8661 6.2179 19.3727 6.28012 17.8796C6.34394 17.7534 6.38394 17.6201 6.40012 17.4796C6.53617 17.7142 6.52285 17.9275 6.36012 18.1196C6.6158 18.1387 6.76247 18.2721 6.80012 18.5196C6.99337 18.2666 7.1667 17.9999 7.32012 17.7196C7.29583 17.5643 7.22917 17.431 7.12012 17.3196C7.08028 17.081 7.06695 16.841 7.08012 16.5996Z"
            fill="#2482C6" />
        <path fill-rule="evenodd" clip-rule="evenodd"
            d="M11.8796 20.2802C11.7361 21.4612 11.6694 22.6612 11.6796 23.8802C11.661 23.9792 11.621 24.0592 11.5596 24.1202C11.6345 22.8958 11.6611 21.6692 11.6396 20.4402C11.6396 20.3602 11.6396 20.2802 11.6396 20.2002C11.7429 20.1813 11.8229 20.2079 11.8796 20.2802Z"
            fill="#598CA9" />
        <path fill-rule="evenodd" clip-rule="evenodd"
            d="M16.2803 20.4404C16.5013 20.4641 16.7013 20.5441 16.8803 20.6804C16.9049 20.6158 16.9449 20.5624 17.0003 20.5204C17.1433 20.7037 17.3033 20.877 17.4803 21.0404C17.611 21.0799 17.7444 21.0932 17.8803 21.0804C17.8928 20.9706 17.8795 20.8639 17.8403 20.7604C17.4657 20.5762 17.4791 20.4695 17.8803 20.4404C17.9603 20.4404 18.0403 20.4404 18.1203 20.4404C18.1084 20.5246 18.1216 20.6046 18.1603 20.6804C18.3232 20.8353 18.4965 20.9686 18.6803 21.0804C18.6088 21.2871 18.5822 21.5005 18.6003 21.7204C18.6803 21.7204 18.7603 21.7204 18.8403 21.7204C18.8363 21.8876 18.9163 21.9943 19.0803 22.0404C19.1546 21.9453 19.1812 21.8387 19.1603 21.7204C19.2403 21.7204 19.3203 21.7204 19.4003 21.7204C19.2827 21.9459 19.2027 22.1859 19.1603 22.4404C19.0761 22.4523 18.9961 22.4391 18.9203 22.4004C18.6828 22.1906 18.4828 21.9639 18.3203 21.7204C18.2803 21.7338 18.2403 21.7471 18.2003 21.7604C18.2916 21.8197 18.2916 21.8864 18.2003 21.9604C18.1052 22.0347 17.9985 22.0614 17.8803 22.0404C17.3203 21.5338 16.7869 21.0004 16.2803 20.4404Z"
            fill="#5FA6B8" />
        <path fill-rule="evenodd" clip-rule="evenodd"
            d="M8.04011 18.5195C7.26892 19.2263 7.32226 19.8663 8.20011 20.4395C8.19771 20.5193 8.23771 20.5727 8.32011 20.5995C8.97443 20.7671 9.57443 20.6605 10.1201 20.2795C10.191 20.3455 10.2176 20.4255 10.2001 20.5195C10.1061 20.502 10.0261 20.5287 9.96011 20.5995C10.1039 20.6951 10.1839 20.8285 10.2001 20.9995C9.77107 20.9339 9.34435 20.9339 8.92011 20.9995C9.34723 21.133 9.77387 21.2663 10.2001 21.3995C9.69555 21.4452 9.18891 21.4586 8.68011 21.4395C8.65347 21.4662 8.62675 21.4929 8.60011 21.5195C8.68579 21.5877 8.76579 21.6543 8.84011 21.7195C8.36099 21.6993 7.89431 21.6193 7.44011 21.4795C7.39904 21.5617 7.35904 21.6417 7.32011 21.7195C7.34539 22.3172 7.27872 22.9039 7.12011 23.4795C7.06334 23.3617 6.97001 23.3083 6.84011 23.3195C6.84011 23.6395 6.84011 23.9595 6.84011 24.2795C6.76011 24.2795 6.68011 24.2795 6.60011 24.2795C6.63854 23.4258 6.69187 22.5724 6.76011 21.7195C6.83969 22.1429 6.86636 22.5695 6.84011 22.9995C6.92011 22.9995 7.00011 22.9995 7.08011 22.9995C7.05368 22.437 7.08035 21.877 7.16011 21.3195C7.57111 21.1805 7.97111 21.0205 8.36011 20.8395C8.12587 20.7608 7.88586 20.7342 7.64011 20.7595C7.63852 20.6281 7.69185 20.5215 7.80011 20.4395C7.47602 20.0803 7.34268 19.6535 7.40011 19.1595C7.32011 19.1595 7.24011 19.1595 7.16011 19.1595C7.17387 19.4823 7.21387 19.8023 7.28011 20.1195C7.29604 20.2717 7.36271 20.3917 7.48011 20.4795C7.23074 20.6374 6.97741 20.7841 6.72011 20.9195C6.65562 21.1552 6.54895 21.3685 6.40011 21.5595C6.3576 20.9099 6.42427 20.2699 6.60011 19.6395C6.73472 19.8877 6.78806 20.1544 6.76011 20.4395C6.85411 20.4571 6.93411 20.4304 7.00011 20.3595C6.95082 20.1507 6.92415 19.9374 6.92011 19.7195C6.95886 19.3946 7.01219 19.0746 7.08011 18.7595C7.26899 18.7735 7.45566 18.8001 7.64011 18.8395C7.64011 18.7329 7.64011 18.6262 7.64011 18.5195C7.77344 18.5195 7.90677 18.5195 8.04011 18.5195Z"
            fill="#2983C1" />
        <path fill-rule="evenodd" clip-rule="evenodd"
            d="M8.84031 21.7205C9.08031 21.7205 9.32031 21.7205 9.56031 21.7205C9.06871 21.7997 8.56207 21.8263 8.04031 21.8005C7.87236 21.7115 7.6857 21.6581 7.48031 21.6405C7.467 22.3343 7.48033 23.0277 7.52031 23.7205C7.53888 23.8194 7.57888 23.8994 7.64031 23.9605C7.65894 24.0854 7.71227 24.1921 7.80031 24.2805C7.72031 24.2805 7.64031 24.2805 7.56031 24.2805C7.43958 23.4221 7.35958 22.5687 7.32031 21.7205C7.35925 21.6426 7.39925 21.5626 7.44031 21.4805C7.89452 21.6202 8.36119 21.7002 8.84031 21.7205Z"
            fill="#4483AF" />
        <path fill-rule="evenodd" clip-rule="evenodd"
            d="M8.0396 21.7996C7.88222 21.8188 7.73556 21.7921 7.5996 21.7196C7.54193 22.4685 7.55527 23.2152 7.6396 23.9596C7.57817 23.8986 7.53817 23.8186 7.5196 23.7196C7.47961 23.0268 7.46629 22.3335 7.4796 21.6396C7.68498 21.6573 7.87165 21.7107 8.0396 21.7996Z"
            fill="#CFF3FE" />
        <path fill-rule="evenodd" clip-rule="evenodd"
            d="M10.1996 23.7196C9.96798 24.3306 9.5147 24.6506 8.83958 24.6796C8.65414 24.6398 8.46742 24.6132 8.27958 24.5996C8.14318 24.4642 7.98319 24.3576 7.79958 24.2796C7.71154 24.1912 7.65821 24.0845 7.63958 23.9596C7.55525 23.2151 7.54191 22.4685 7.59958 21.7196C7.73554 21.7921 7.8822 21.8187 8.03958 21.7996C8.56134 21.8254 9.06798 21.7988 9.55958 21.7196C9.75454 21.6991 9.94126 21.6457 10.1196 21.5596C10.1994 22.2776 10.2261 22.9976 10.1996 23.7196Z"
            fill="#F8FCFB" />
        <path fill-rule="evenodd" clip-rule="evenodd"
            d="M10.2803 24.2796C10.2102 24.2901 10.1569 24.2634 10.1203 24.1996C10.1881 24.0469 10.2149 23.8869 10.2003 23.7196C10.2269 22.9976 10.2001 22.2776 10.1203 21.5596C9.94198 21.6458 9.75526 21.6991 9.5603 21.7196C9.3203 21.7196 9.0803 21.7196 8.8403 21.7196C8.76598 21.6544 8.68598 21.5878 8.6003 21.5196C8.62694 21.493 8.65366 21.4662 8.6803 21.4396C9.1891 21.4586 9.69574 21.4453 10.2003 21.3996C9.77406 21.2663 9.34742 21.133 8.9203 20.9996C9.34454 20.9339 9.77126 20.9339 10.2003 20.9996C10.1841 20.8286 10.1041 20.6952 9.9603 20.5996C10.0263 20.5287 10.1063 20.5021 10.2003 20.5196C10.2178 20.4256 10.1912 20.3456 10.1203 20.2796C9.57462 20.6606 8.97462 20.7672 8.3203 20.5996C8.2379 20.5727 8.1979 20.5194 8.2003 20.4396C8.9447 20.6854 9.59806 20.5254 10.1603 19.9596C10.2137 18.893 10.2137 17.8262 10.1603 16.7596C10.095 16.8654 10.0017 16.9187 9.8803 16.9196C9.8939 16.8138 9.86726 16.7205 9.8003 16.6396C10.0366 16.6845 10.2766 16.6711 10.5203 16.5996C10.5203 17.453 10.5203 18.3062 10.5203 19.1596C10.6003 19.1596 10.6803 19.1596 10.7603 19.1596C10.7045 19.8092 10.5978 20.4492 10.4403 21.0796C10.5336 21.7722 10.6136 22.4655 10.6803 23.1596C10.6363 23.567 10.5029 23.9404 10.2803 24.2796Z"
            fill="#3488BD" />
        <path fill-rule="evenodd" clip-rule="evenodd"
            d="M24.2798 21.0798C24.8732 21.553 25.3665 22.113 25.7598 22.7598C26.0559 24.3419 25.4293 25.3286 23.8798 25.7198C23.4758 25.7652 23.1025 25.6852 22.7598 25.4798C22.9862 25.2586 23.1995 25.032 23.3998 24.7998C23.2492 24.7839 23.1159 24.7439 22.9998 24.6798C24.1436 24.6322 24.5702 24.0722 24.2798 22.9998C24.2067 22.813 24.1 22.6397 23.9598 22.4798C24.0632 22.4406 24.1699 22.4272 24.2798 22.4398C24.2798 22.2798 24.2798 22.1198 24.2798 21.9598C24.1998 21.9598 24.1198 21.9598 24.0398 21.9598C24.0398 21.8798 24.0398 21.7998 24.0398 21.7198C24.1198 21.7198 24.1998 21.7198 24.2798 21.7198C24.226 21.4922 24.1194 21.2922 23.9598 21.1198C24.0632 21.0806 24.1699 21.0672 24.2798 21.0798Z"
            fill="#88C2B1" />
        <path fill-rule="evenodd" clip-rule="evenodd"
            d="M17.08 19.3203C18.68 20.867 20.2534 22.4403 21.8 24.0403C21.6022 24.0164 21.4288 23.9364 21.28 23.8003C21.0182 24.0291 21.0582 24.2158 21.4 24.3603C21.1726 24.4006 21.066 24.534 21.08 24.7603C21.1866 24.7603 21.2934 24.7603 21.4 24.7603C21.3838 24.9314 21.3038 25.0647 21.16 25.1603C21.1767 25.2072 21.2034 25.2472 21.24 25.2803C21.4 25.307 21.56 25.3337 21.72 25.3603C21.6195 25.3937 21.5662 25.4603 21.56 25.5603C21.4288 25.4947 21.2954 25.4281 21.16 25.3603C20.0505 24.2642 18.9572 23.1575 17.88 22.0403C17.9982 22.0613 18.1049 22.0346 18.2 21.9603C18.2913 21.8863 18.2913 21.8196 18.2 21.7603C18.24 21.747 18.28 21.7337 18.32 21.7203C18.4825 21.9638 18.6825 22.1905 18.92 22.4003C18.9958 22.439 19.0758 22.4522 19.16 22.4403C19.2024 22.1858 19.2824 21.9458 19.4 21.7203C19.32 21.7203 19.24 21.7203 19.16 21.7203C19.181 21.8386 19.1543 21.9452 19.08 22.0403C18.916 21.9942 18.836 21.8875 18.84 21.7203C18.76 21.7203 18.68 21.7203 18.6 21.7203C18.5819 21.5004 18.6086 21.287 18.68 21.0803C18.4962 20.9685 18.323 20.8352 18.16 20.6803C18.1214 20.6045 18.1081 20.5245 18.12 20.4403C18.04 20.4403 17.96 20.4403 17.88 20.4403C17.7572 20.3162 17.6105 20.2095 17.44 20.1203C17.4431 19.7898 17.2964 19.5498 17 19.4003C17.0099 19.3518 17.0366 19.3251 17.08 19.3203Z"
            fill="#6AADB5" />
        <path fill-rule="evenodd" clip-rule="evenodd"
            d="M11.6403 20.4404C11.6618 21.6694 11.6352 22.896 11.5603 24.1204C11.4098 24.6584 11.0898 25.0718 10.6003 25.3604C9.87139 25.8231 9.09803 25.9699 8.28027 25.8004C9.05803 25.8456 9.75139 25.6456 10.3603 25.2004C10.491 25.1609 10.6244 25.1476 10.7603 25.1604C10.7475 25.0245 10.7608 24.8911 10.8003 24.7604C10.8949 24.8589 10.9882 24.8589 11.0803 24.7604C10.8881 24.37 10.7548 24.37 10.6803 24.7604C10.5736 24.7604 10.4669 24.7604 10.3603 24.7604C10.3603 24.6538 10.3603 24.5471 10.3603 24.4404C9.96779 24.6015 9.55451 24.7082 9.12027 24.7604C8.81587 24.7761 8.53587 24.7228 8.28027 24.6004C8.46811 24.614 8.65483 24.6407 8.84027 24.6804C9.51539 24.6515 9.96867 24.3315 10.2003 23.7204C10.2148 23.8877 10.1881 24.0477 10.1203 24.2004C10.1568 24.2643 10.2102 24.2909 10.2803 24.2804C10.3502 24.3624 10.4436 24.4158 10.5603 24.4404C10.6643 24.3439 10.7843 24.2905 10.9203 24.2804C11.079 24.2711 11.2123 24.3244 11.3203 24.4404C11.402 24.2051 11.4687 23.9651 11.5203 23.7204C11.5338 22.6133 11.5738 21.5199 11.6403 20.4404Z"
            fill="#428DB9" />
        <path fill-rule="evenodd" clip-rule="evenodd"
            d="M7.80043 24.2803C7.98405 24.3583 8.14403 24.4649 8.28043 24.6003C8.53603 24.7227 8.81603 24.776 9.12043 24.7603C9.55467 24.708 9.96795 24.6013 10.3604 24.4403C10.3604 24.5469 10.3604 24.6536 10.3604 24.7603C10.4671 24.7603 10.5738 24.7603 10.6804 24.7603C10.7549 24.3699 10.8883 24.3699 11.0804 24.7603C10.9883 24.8588 10.8951 24.8588 10.8004 24.7603C10.7609 24.891 10.7476 25.0244 10.7604 25.1603C10.6245 25.1475 10.4911 25.1608 10.3604 25.2003C9.75155 25.6455 9.05819 25.8455 8.28043 25.8003C7.53309 25.6934 6.91976 25.3468 6.44043 24.7603C6.55041 24.6347 6.68375 24.568 6.84043 24.5603C6.87702 24.5934 6.90369 24.6334 6.92043 24.6803C6.72137 24.981 6.8147 25.1677 7.20043 25.2403C7.45254 25.1928 7.70587 25.1528 7.96043 25.1203C8.09123 24.9804 8.25123 24.8871 8.44043 24.8403C8.36043 24.8136 8.28043 24.7869 8.20043 24.7603C8.01315 24.8148 7.82649 24.8682 7.64043 24.9203C7.64043 24.8403 7.64043 24.7603 7.64043 24.6803C7.36386 24.6669 7.3372 24.5869 7.56043 24.4403C7.73752 24.6342 7.81752 24.5808 7.80043 24.2803Z"
            fill="#2E85C1" />
        <path fill-rule="evenodd" clip-rule="evenodd"
            d="M21.8003 24.0398C22.095 24.4406 22.495 24.654 23.0003 24.6798C23.1165 24.744 23.2498 24.784 23.4003 24.7998C23.2001 25.032 22.9867 25.2587 22.7603 25.4798C23.103 25.6852 23.4764 25.7652 23.8803 25.7198C23.0944 25.9668 22.321 25.9135 21.5603 25.5598C21.5665 25.4598 21.6198 25.3932 21.7203 25.3598C21.5603 25.3332 21.4003 25.3064 21.2403 25.2798C21.2038 25.2467 21.177 25.2067 21.1603 25.1598C21.3041 25.0642 21.3841 24.9308 21.4003 24.7598C21.2937 24.7598 21.187 24.7598 21.0803 24.7598C21.0663 24.5335 21.173 24.4001 21.4003 24.3598C21.0585 24.2153 21.0185 24.0286 21.2803 23.7998C21.4291 23.9359 21.6025 24.0159 21.8003 24.0398Z"
            fill="#7BB8B4" />
    </g>
    <defs>
        <clipPath id="clip0_5012_125">
            <rect width="32" height="32" fill="white" />
        </clipPath>
    </defs>
</svg>