<svg width="32" height="32" viewBox="0 0 32 32" fill="none" xmlns="http://www.w3.org/2000/svg">
    <path fill-rule="evenodd" clip-rule="evenodd"
        d="M13.5833 0.0650014C22.0017 -0.533691 27.8799 3.00328 31.2176 10.6759C33.3845 18.7315 31.0502 25.1036 24.2145 29.7924C16.6199 33.5854 9.84182 32.4906 3.88013 26.5081C-0.133212 21.4674 -1.03321 15.9093 1.18014 9.83379C3.66051 4.46495 7.79488 1.20869 13.5833 0.0650014Z"
        fill="#44B0FD" />
    <path fill-rule="evenodd" clip-rule="evenodd"
        d="M18.1396 13.7075C18.7806 13.5418 19.4556 13.4857 20.1646 13.539C20.1646 13.8759 20.1646 14.2127 20.1646 14.5496C20.0042 14.3106 19.948 14.03 19.9959 13.7075C19.3771 13.7075 18.7585 13.7075 18.1396 13.7075Z"
        fill="#2E6388" />
    <path fill-rule="evenodd" clip-rule="evenodd"
        d="M12.2332 13.7078C11.6707 13.7078 11.1082 13.7078 10.5457 13.7078C10.5457 15.2797 10.5457 16.8518 10.5457 18.4237C10.378 16.826 10.3218 15.198 10.377 13.5394C11.0302 13.4863 11.649 13.5424 12.2332 13.7078Z"
        fill="#284C65" />
    <path fill-rule="evenodd" clip-rule="evenodd"
        d="M16.1145 13.5392C17.2946 13.2859 17.7728 13.735 17.5489 14.8866C17.0354 15.2922 16.5011 15.3202 15.9457 14.9709C15.6995 14.4536 15.7557 13.9765 16.1145 13.5392Z"
        fill="#1D1B1A" />
    <path fill-rule="evenodd" clip-rule="evenodd"
        d="M12.2334 13.7075C12.2055 14.3277 12.2336 14.9451 12.3178 15.5602C12.6345 14.4851 13.3376 13.8676 14.4271 13.7075C14.5959 13.7075 14.7646 13.7075 14.9334 13.7075C14.9334 14.2689 14.9334 14.8304 14.9334 15.3918C14.4241 15.364 13.9178 15.3921 13.4146 15.476C13.5065 15.5968 13.619 15.681 13.7521 15.7286C14.9474 16.2055 15.4537 17.1039 15.2709 18.4235C14.6521 18.4235 14.0335 18.4235 13.4146 18.4235C13.6612 17.439 13.3237 16.7653 12.4021 16.4024C12.2349 17.0668 12.1787 17.7405 12.2334 18.4235C11.6709 18.4235 11.1084 18.4235 10.5459 18.4235C10.5459 16.8516 10.5459 15.2795 10.5459 13.7075C11.1084 13.7075 11.6709 13.7075 12.2334 13.7075Z"
        fill="#1E1C1B" />
    <path fill-rule="evenodd" clip-rule="evenodd"
        d="M14.4271 13.7074C14.6073 13.55 14.8322 13.4939 15.1021 13.539C15.1021 14.2127 15.1021 14.8864 15.1021 15.5601C14.6152 15.5086 14.1652 15.5647 13.7521 15.7286C13.6189 15.6809 13.5064 15.5967 13.4146 15.4759C13.9177 15.392 14.424 15.3639 14.9333 15.3917C14.9333 14.8303 14.9333 14.2688 14.9333 13.7074C14.7646 13.7074 14.5958 13.7074 14.4271 13.7074Z"
        fill="#2E6082" />
    <path fill-rule="evenodd" clip-rule="evenodd"
        d="M21.1771 14.5498C21.3392 14.8471 21.3956 15.1839 21.3458 15.5604C20.9521 15.5604 20.5582 15.5604 20.1646 15.5604C20.4624 15.3985 20.7999 15.3423 21.1771 15.3919C21.1771 15.1112 21.1771 14.8306 21.1771 14.5498Z"
        fill="#2F6990" />
    <path fill-rule="evenodd" clip-rule="evenodd"
        d="M18.1396 13.7075C18.7585 13.7075 19.3771 13.7075 19.9959 13.7075C19.948 14.0301 20.0042 14.3107 20.1646 14.5497C20.5021 14.5497 20.8396 14.5497 21.1771 14.5497C21.1771 14.8304 21.1771 15.111 21.1771 15.3918C20.8 15.3421 20.4625 15.3984 20.1646 15.5602C20.1646 16.0094 20.1646 16.4584 20.1646 16.9076C20.6881 16.9659 21.1662 16.8536 21.599 16.5708C21.6831 17.1295 21.7112 17.6908 21.6834 18.2551C19.1861 19.0165 18.0612 18.1181 18.3084 15.5602C18.7618 15.5878 19.2119 15.5597 19.6584 15.476C18.6888 15.2672 18.1825 14.6777 18.1396 13.7075Z"
        fill="#1E1D1C" />
    <path fill-rule="evenodd" clip-rule="evenodd"
        d="M15.7769 15.5601C16.3957 15.5601 17.0143 15.5601 17.6331 15.5601C17.6331 16.5145 17.6331 17.4688 17.6331 18.4233C17.0143 18.4233 16.3957 18.4233 15.7769 18.4233C15.7769 17.4688 15.7769 16.5145 15.7769 15.5601Z"
        fill="#1E1D1D" />
</svg>