<svg width="32" height="32" viewBox="0 0 32 32" fill="none" xmlns="http://www.w3.org/2000/svg">
    <path fill-rule="evenodd" clip-rule="evenodd"
        d="M4.74074 0.00370411C12.1877 -0.00617326 19.6346 0.00370411 27.0815 0.0333303C29.4299 0.382795 31.0002 1.67648 31.7926 3.91436C31.8518 4.19089 31.9111 4.46736 31.9704 4.74389C32.0099 12.2294 32.0099 19.715 31.9704 27.2005C31.6367 29.2322 30.5404 30.6839 28.6815 31.5556C28.2013 31.7419 27.7075 31.8802 27.2 31.9704C19.7136 32.0099 12.2271 32.0099 4.74074 31.9704C2.55354 31.5811 1.06218 30.3467 0.266668 28.2671C0.157317 27.8784 0.0783066 27.4834 0.0296311 27.082C-0.00987703 19.636 -0.00987703 12.19 0.0296311 4.74389C0.407284 2.63587 1.58259 1.16444 3.55556 0.329592C3.95679 0.216296 4.35182 0.107668 4.74074 0.00370411Z"
        fill="#03B168" />
    <path fill-rule="evenodd" clip-rule="evenodd"
        d="M9.42225 5.87012C9.69318 6.05161 9.94012 6.26889 10.163 6.52189C10.6579 7.04628 11.1418 7.57955 11.6148 8.12171C8.68412 11.3825 8.23967 14.9575 10.2815 18.8464C12.2564 21.8531 15.0515 23.2258 18.6667 22.9644C20.7265 22.7048 22.4846 21.8457 23.9408 20.3869C24.6512 21.1072 25.3524 21.838 26.0445 22.5793C26.0121 22.7329 25.9232 22.8613 25.7778 22.9644C22.4755 25.861 18.6829 26.7696 14.4 25.69C9.72667 24.1166 6.93165 20.9071 6.01485 16.0615C5.53757 12.1111 6.67339 8.71393 9.42225 5.87012Z"
        fill="#FDFEFE" />
    <path fill-rule="evenodd" clip-rule="evenodd"
        d="M12.2666 10.9655C13.4528 10.9015 14.3121 11.3953 14.8444 12.4468C14.9374 12.7504 14.8485 12.9776 14.5777 13.1282C13.4172 13.2146 12.5184 12.7702 11.8814 11.795C11.8074 11.6423 11.7876 11.4843 11.8222 11.321C11.9475 11.1657 12.0956 11.0472 12.2666 10.9655Z"
        fill="#FBFDFC" />
    <path fill-rule="evenodd" clip-rule="evenodd"
        d="M12.8592 14.1055C13.3546 14.0812 13.8286 14.1701 14.2814 14.3721C14.5817 14.5489 14.6509 14.7957 14.4888 15.1128C14.0539 15.5919 13.5107 15.8585 12.8592 15.9127C12.359 15.9915 11.8849 15.9224 11.4369 15.7053C11.213 15.4629 11.2031 15.2062 11.4073 14.935C11.8014 14.4894 12.2854 14.2129 12.8592 14.1055Z"
        fill="#FBFDFC" />
    <path fill-rule="evenodd" clip-rule="evenodd"
        d="M14.6962 16.3576C15.0005 16.2939 15.2277 16.3927 15.3777 16.6538C15.4258 17.9294 14.8431 18.7687 13.6296 19.1721C13.1696 19.2362 12.9326 19.0288 12.9185 18.5499C13.1625 17.5357 13.7551 16.8049 14.6962 16.3576Z"
        fill="#FBFDFC" />
    <path fill-rule="evenodd" clip-rule="evenodd"
        d="M19.0815 17.1866C19.4128 17.1621 19.7091 17.251 19.9703 17.4532C20.7197 18.0813 21.0259 18.8813 20.8889 19.8529C20.7199 20.2613 20.4335 20.3699 20.0296 20.1788C19.1513 19.4985 18.7464 18.5999 18.8148 17.4828C18.8775 17.3549 18.9664 17.2561 19.0815 17.1866Z"
        fill="#FBFDFC" />
    <path fill-rule="evenodd" clip-rule="evenodd"
        d="M16.9481 17.4239C17.203 17.3822 17.4105 17.4612 17.5703 17.6609C18.0036 18.4925 17.9838 19.322 17.511 20.1495C17.3369 20.4627 17.0801 20.6602 16.7406 20.742C16.5226 20.7415 16.3645 20.6428 16.2666 20.4458C15.871 19.2924 16.0982 18.2851 16.9481 17.4239Z"
        fill="#FBFDFC" />
</svg>