<svg width="32" height="32" viewBox="0 0 32 32" fill="none" xmlns="http://www.w3.org/2000/svg">
    <g clip-path="url(#clip0_5111_513)">
        <path fill-rule="evenodd" clip-rule="evenodd"
            d="M-0.0712891 -0.0712891C10.5954 -0.0712891 21.262 -0.0712891 31.9287 -0.0712891C31.9287 10.5954 31.9287 21.262 31.9287 31.9287C21.262 31.9287 10.5954 31.9287 -0.0712891 31.9287C-0.0712891 21.262 -0.0712891 10.5954 -0.0712891 -0.0712891Z"
            fill="#FDFEFE" />
        <path fill-rule="evenodd" clip-rule="evenodd"
            d="M24.1064 6.75529C25.4113 6.56725 26.7387 6.56725 28.0887 6.75529C28.0382 6.90069 27.9433 6.99551 27.8042 7.03974C26.6282 6.75959 25.3957 6.66478 24.1064 6.75529Z"
            fill="#867FE0" />
        <path fill-rule="evenodd" clip-rule="evenodd"
            d="M17.2801 6.75601C16.2845 6.75601 15.289 6.75601 14.2934 6.75601C14.2934 8.27306 14.2934 9.79008 14.2934 11.3071C14.2934 11.4493 14.2934 11.5916 14.2934 11.7338C14.1519 10.0525 14.1045 8.34582 14.1512 6.61379C15.2205 6.56757 16.2635 6.61499 17.2801 6.75601Z"
            fill="#9E9DEA" />
        <path fill-rule="evenodd" clip-rule="evenodd"
            d="M17.2801 6.75586C17.2801 8.2729 17.2801 9.78993 17.2801 11.307C16.8196 11.4845 16.3218 11.5793 15.7868 11.5914C15.2518 11.5793 14.754 11.4845 14.2935 11.307C14.2935 9.78993 14.2935 8.2729 14.2935 6.75586C15.289 6.75586 16.2846 6.75586 17.2801 6.75586Z"
            fill="#4444FD" />
        <path fill-rule="evenodd" clip-rule="evenodd"
            d="M6.75575 24.6755C5.56679 24.7226 4.38161 24.6752 3.2002 24.5333C3.25178 24.4361 3.2992 24.3413 3.34242 24.2488C6.11345 21.2169 8.91049 18.2065 11.7335 15.2177C8.98234 12.3243 6.1853 9.4799 3.34242 6.6844C4.66982 6.58958 5.99724 6.58958 7.32464 6.6844C8.76653 8.23357 10.2362 9.75061 11.7335 11.2355C13.2223 12.3813 14.5497 13.685 15.7158 15.1466C12.7529 18.3918 9.76624 21.5681 6.75575 24.6755Z"
            fill="#5DD7A2" />
        <path fill-rule="evenodd" clip-rule="evenodd"
            d="M24.1068 6.75581C25.396 6.6653 26.6285 6.76011 27.8046 7.04025C25.1062 9.6991 22.4513 12.425 19.8401 15.218C22.647 18.3812 25.5388 21.4863 28.5157 24.5336C27.2616 24.6748 25.9816 24.7223 24.6757 24.6758C21.7718 21.5104 18.8325 18.3579 15.8579 15.218C18.583 12.3744 21.3326 9.55368 24.1068 6.75581Z"
            fill="#4545FA" />
        <path fill-rule="evenodd" clip-rule="evenodd"
            d="M14.2935 11.3066C14.754 11.4841 15.2518 11.579 15.7868 11.5911C16.3218 11.579 16.8196 11.4841 17.2801 11.3066C17.2801 11.4489 17.2801 11.5911 17.2801 11.7333C16.2846 11.7333 15.289 11.7333 14.2935 11.7333C14.2935 11.5911 14.2935 11.4489 14.2935 11.3066Z"
            fill="#5956C9" />
        <path fill-rule="evenodd" clip-rule="evenodd"
            d="M14.2935 18.1338C15.289 18.1338 16.2846 18.1338 17.2801 18.1338C17.2801 20.3145 17.2801 22.4953 17.2801 24.676C16.2846 24.676 15.289 24.676 14.2935 24.676C14.2935 22.4953 14.2935 20.3145 14.2935 18.1338Z"
            fill="#4444FB" />
        <path fill-rule="evenodd" clip-rule="evenodd"
            d="M3.34234 24.249C3.29912 24.3415 3.2517 24.4363 3.20012 24.5335C4.38153 24.6754 5.56671 24.7228 6.75567 24.6757C5.4541 24.8171 4.12669 24.8644 2.77345 24.8179C2.7717 24.4422 2.96133 24.2526 3.34234 24.249Z"
            fill="#A8E6CD" />
        <path fill-rule="evenodd" clip-rule="evenodd"
            d="M28.5158 24.5332C28.593 24.5417 28.6404 24.5891 28.658 24.6754C27.308 24.8634 25.9807 24.8634 24.6758 24.6754C25.9817 24.7219 27.2617 24.6744 28.5158 24.5332Z"
            fill="#ABABE6" />
    </g>
    <defs>
        <clipPath id="clip0_5111_513">
            <rect width="32" height="32" fill="white" />
        </clipPath>
    </defs>
</svg>