<svg width="32" height="32" viewBox="0 0 32 32" fill="none" xmlns="http://www.w3.org/2000/svg">
    <g clip-path="url(#clip0_5424_289)">
        <path fill-rule="evenodd" clip-rule="evenodd"
            d="M-0.03125 -0.03125C10.6354 -0.03125 21.3021 -0.03125 31.9688 -0.03125C31.9688 10.6354 31.9688 21.3021 31.9688 31.9688C21.3021 31.9688 10.6354 31.9688 -0.03125 31.9688C-0.03125 21.3021 -0.03125 10.6354 -0.03125 -0.03125Z"
            fill="#69B3E3" />
        <path fill-rule="evenodd" clip-rule="evenodd"
            d="M7.34375 11.5938C7.192 11.6383 7.04619 11.7008 6.90625 11.7812C6.84375 15.8852 6.82294 19.9894 6.84375 24.0938C8.04119 24.1561 9.24956 24.1769 10.4687 24.1562C10.4687 25.2812 10.4687 26.4062 10.4687 27.5312C8.13544 27.5312 5.80208 27.5312 3.46875 27.5312C3.44792 21.5103 3.46875 15.4894 3.53125 9.46875C7.69112 7.66488 11.8474 5.85234 16 4.03125C19.9953 5.90915 23.9849 7.79456 27.9688 9.6875C28.0307 10.8181 28.0516 11.9536 28.0312 13.0938C26.8854 13.0938 25.7396 13.0938 24.5938 13.0938C24.6132 12.6819 24.5924 12.2756 24.5312 11.875C21.6748 10.5093 18.8207 9.14469 15.9687 7.78125C13.0737 9.02069 10.1987 10.2916 7.34375 11.5938Z"
            fill="#FEFEFE" />
        <path fill-rule="evenodd" clip-rule="evenodd"
            d="M14.8438 11.2188C15.3945 11.5679 15.9154 11.9638 16.4062 12.4062C16.0636 13.7348 15.7615 15.0681 15.5 16.4062C15.9896 15.875 16.4792 15.3438 16.9688 14.8125C17.8186 14.0965 18.5374 14.2111 19.125 15.1562C19.1566 15.4071 19.0941 15.6363 18.9375 15.8438C18.4505 16.5599 17.8568 17.1745 17.1562 17.6875C16.7077 17.9847 16.2702 18.2972 15.8438 18.625C16.8536 19.3509 17.9786 19.8092 19.2188 20C19.5971 20.0585 19.9721 20.1314 20.3438 20.2188C20.4062 20.1979 20.4688 20.1771 20.5312 20.1562C20.2948 19.5441 20.0969 18.9191 19.9375 18.2812C19.7862 17.4574 19.63 16.6346 19.4688 15.8125C19.4649 15.7056 19.5066 15.6222 19.5938 15.5625C19.9189 15.3521 20.2522 15.1542 20.5938 14.9688C21.3972 15.3659 21.866 16.0117 22 16.9062C22.0833 17.5729 22.1667 18.2396 22.25 18.9062C23.7604 17.2708 25.2708 15.6354 26.7812 14C26.8333 13.957 26.8749 13.9674 26.9062 14.0312C27.0049 14.2496 27.1196 14.4579 27.25 14.6562C27.5524 15.0944 27.5941 15.5527 27.375 16.0312C26.0268 18.2962 24.4852 20.4212 22.75 22.4062C22.2526 22.1527 21.7839 21.8611 21.3438 21.5312C20.2053 21.8075 19.0803 21.7554 17.9688 21.375C17.1191 21.0952 16.2649 20.8348 15.4062 20.5938C15.4062 21.2188 15.4062 21.8438 15.4062 22.4688C14.3923 22.4868 13.7361 22.0077 13.4375 21.0312C13.2491 20.1351 13.1345 19.2289 13.0938 18.3125C13.3299 16.989 13.5696 15.6661 13.8125 14.3438C13.89 13.6576 13.9525 12.9701 14 12.2812C14.3199 11.9517 14.6011 11.5976 14.8438 11.2188Z"
            fill="#FEFEFE" />
        <path fill-rule="evenodd" clip-rule="evenodd"
            d="M7.34374 11.5938C7.28255 11.6887 7.16793 11.7721 6.99999 11.8438C6.96874 15.9062 6.9583 19.9687 6.96874 24.0312C8.13562 24.0208 9.30224 24.0312 10.4687 24.0625C9.26062 24.0938 8.05224 24.1042 6.84374 24.0938C6.82293 19.9894 6.84374 15.8852 6.90624 11.7812C7.04618 11.7008 7.19199 11.6383 7.34374 11.5938Z"
            fill="#5EAEE2" />
        <path fill-rule="evenodd" clip-rule="evenodd"
            d="M14.1563 23.3435C15.1311 23.2164 15.8602 23.5706 16.3438 24.406C16.0613 24.6204 15.7488 24.787 15.4063 24.906C15.0576 24.3809 14.5992 24.2663 14.0313 24.5623C13.6797 24.9711 13.6276 25.419 13.8751 25.906C14.4539 26.4454 14.9539 26.3829 15.3751 25.7185C15.7107 25.8604 16.0336 26.027 16.3438 26.2185C15.8351 27.1217 15.0642 27.4655 14.0313 27.2498C12.8669 26.8702 12.3773 26.0681 12.5626 24.8435C12.8261 24.0484 13.3574 23.5484 14.1563 23.3435Z"
            fill="#FDFDFE" />
        <path fill-rule="evenodd" clip-rule="evenodd"
            d="M18.0317 23.3436C19.1559 23.2105 19.9581 23.648 20.4379 24.6561C20.7317 26.006 20.2213 26.8706 18.9067 27.2499C17.6895 27.4491 16.8666 26.9804 16.4379 25.8436C16.2313 24.5259 16.7625 23.6925 18.0317 23.3436Z"
            fill="#FDFEFE" />
        <path fill-rule="evenodd" clip-rule="evenodd"
            d="M20.8438 23.4063C21.6149 23.3958 22.3857 23.4063 23.1562 23.4375C24.0083 23.6306 24.3729 24.1619 24.25 25.0313C24.1393 25.4026 23.9206 25.6943 23.5938 25.9063C23.8309 26.3284 24.0601 26.7554 24.2812 27.1875C23.8234 27.2188 23.3651 27.2291 22.9062 27.2188C22.7963 26.8318 22.6505 26.4568 22.4688 26.0938C22.3286 26.0329 22.1828 26.012 22.0312 26.0313C22.0312 26.4271 22.0312 26.8229 22.0312 27.2188C21.6354 27.2188 21.2396 27.2188 20.8438 27.2188C20.8438 25.9479 20.8438 24.6771 20.8438 23.4063Z"
            fill="#FCFDFE" />
        <path fill-rule="evenodd" clip-rule="evenodd"
            d="M27.5312 24.4062C26.9688 24.4062 26.4062 24.4062 25.8438 24.4062C25.8438 24.5312 25.8438 24.6562 25.8438 24.7812C26.3949 24.8433 26.9574 24.8642 27.5312 24.8438C27.5312 25.1562 27.5312 25.4688 27.5312 25.7812C26.9688 25.7812 26.4062 25.7812 25.8438 25.7812C25.8438 25.9479 25.8438 26.1146 25.8438 26.2812C26.4062 26.2812 26.9688 26.2812 27.5312 26.2812C27.5312 26.5938 27.5312 26.9062 27.5312 27.2188C26.5729 27.2188 25.6146 27.2188 24.6562 27.2188C24.6562 25.9479 24.6562 24.6771 24.6562 23.4062C25.6146 23.4062 26.5729 23.4062 27.5312 23.4062C27.5312 23.7396 27.5312 24.0729 27.5312 24.4062Z"
            fill="#FDFEFE" />
        <path fill-rule="evenodd" clip-rule="evenodd"
            d="M27.5312 24.4062C27.001 24.4683 26.4593 24.4891 25.9062 24.4688C25.9062 24.5521 25.9062 24.6354 25.9062 24.7188C26.4483 24.7084 26.99 24.7188 27.5312 24.75C26.9691 24.7812 26.4066 24.7916 25.8438 24.7812C25.8438 24.6562 25.8438 24.5312 25.8438 24.4062C26.4062 24.4062 26.9688 24.4062 27.5312 24.4062Z"
            fill="#46A2DD" />
        <path fill-rule="evenodd" clip-rule="evenodd"
            d="M18.0938 24.4064C19.1104 24.3361 19.4958 24.7944 19.25 25.7814C18.9987 26.1919 18.6341 26.3481 18.1563 26.2502C17.6062 25.9519 17.4291 25.5039 17.625 24.9064C17.7518 24.7069 17.908 24.5403 18.0938 24.4064Z"
            fill="#68B2E3" />
        <path fill-rule="evenodd" clip-rule="evenodd"
            d="M22.0312 24.4062C22.3237 24.3958 22.6153 24.4063 22.9062 24.4375C23.1551 24.622 23.1551 24.8095 22.9062 25C22.6153 25.0312 22.3237 25.0416 22.0312 25.0312C22.0312 24.8229 22.0312 24.6145 22.0312 24.4062Z"
            fill="#64B0E3" />
    </g>
    <defs>
        <clipPath id="clip0_5424_289">
            <rect width="32" height="32" fill="white" />
        </clipPath>
    </defs>
</svg>