<svg width="32" height="32" viewBox="0 0 32 32" fill="none" xmlns="http://www.w3.org/2000/svg">
    <path opacity="0.992" fill-rule="evenodd" clip-rule="evenodd"
        d="M14.4075 0C15.445 0 16.4832 0 17.5207 0C22.8957 0.586709 27.0102 3.17086 29.8649 7.75245C31.7778 11.2728 32.4055 15.0162 31.7474 18.9826C30.9111 23.5209 28.5827 27.059 24.7607 29.597C21.1661 31.694 17.3049 32.4186 13.1767 31.7705C7.60909 30.7873 3.63938 27.7322 1.26682 22.6053C-0.422275 18.2097 -0.422275 13.8142 1.26682 9.41886C3.27231 4.99661 6.59114 2.06227 11.2219 0.615849C12.2775 0.323326 13.3396 0.118044 14.4075 0ZM15.2039 8.33207C18.9484 8.18093 21.4216 9.87154 22.6249 13.4038C23.2816 15.8557 23.0159 18.1983 21.8285 20.4317C20.0373 23.0595 17.5641 24.086 14.4075 23.5109C11.7439 22.7775 10.0425 21.0748 9.30326 18.403C8.635 15.7517 9.04479 13.2883 10.5341 11.0128C11.7345 9.48863 13.2911 8.59507 15.2039 8.33207Z"
        fill="#6F2C91" />
</svg>