<svg width="32" height="32" viewBox="0 0 32 32" fill="none" xmlns="http://www.w3.org/2000/svg">
    <g clip-path="url(#clip0_5496_347)">
        <rect width="32" height="32" fill="black" />
        <path fill-rule="evenodd" clip-rule="evenodd"
            d="M20.7569 13.0634C20.9998 13.0634 21.121 13.1851 21.121 13.4288C21.3457 14.0604 21.7099 14.6084 22.2135 15.0728C23.7353 14.6245 25.3132 14.5029 26.9475 14.7074C27.8109 14.976 28.6609 15.2803 29.4966 15.6208C29.99 16.3591 30.5967 16.9681 31.3174 17.4475C32.9233 20.4165 32.6804 23.2175 30.5891 25.8501C27.9744 28.1875 25.0612 28.6139 21.8493 27.1288C20.9135 26.3737 20.1852 25.4603 19.6644 24.3888C18.8476 24.033 17.998 23.9109 17.1153 24.0235C15.903 23.9193 14.8106 24.163 13.8379 24.7541C13.642 25.3449 13.5207 25.9539 13.4738 26.5808C10.4771 31.405 6.59268 32.1967 1.82078 28.9555C1.38234 27.5635 0.775288 26.2849 0 25.1195C0.219222 23.1817 0.765455 21.3551 1.6387 19.6395C3.6157 18.1511 5.86145 17.2984 8.37558 17.0821C8.861 15.7424 9.34679 14.4031 9.83221 13.0634C7.79257 11.0665 6.82137 8.63085 6.91896 5.75677C7.38362 5.00345 7.68733 4.15076 7.82935 3.19943C10.6006 0.181404 13.8172 -0.427608 17.4795 1.37276C20.6695 4.0375 21.2762 7.2645 19.3003 11.0541C19.7307 11.7866 20.2161 12.4563 20.7569 13.0634Z"
            fill="#F2F3F5" />
        <path fill-rule="evenodd" clip-rule="evenodd"
            d="M20.7569 20.7352C20.6051 20.5073 20.3622 20.3856 20.0286 20.3699C18.5028 20.6494 17.0462 21.0147 15.6587 21.4659C14.3179 21.4056 12.9829 21.4663 11.653 21.6486C11.0234 22.3021 10.7805 23.0938 10.9247 24.0232C9.55293 28.3433 7.18591 29.074 3.82366 26.2152C2.94386 24.3582 3.2472 22.7753 4.73405 21.4659C5.9944 20.8846 7.32975 20.641 8.73977 20.7352C9.34791 20.6435 9.89414 20.3998 10.3785 20.0046C11.4465 17.3376 12.4782 14.6586 13.4738 11.9672C13.413 11.7235 13.3525 11.4802 13.2917 11.2365C9.84389 9.39526 9.29765 6.89893 11.653 3.7472C15.418 2.65668 17.2996 4.05737 17.2974 7.94854C16.9857 9.12272 16.4395 10.1577 15.6587 11.0539C16.9074 13.1604 18.3032 15.1697 19.8465 17.0819C20.4725 17.8334 21.2008 18.4424 22.0315 18.9086C24.2462 16.992 26.4312 16.992 28.5863 18.9086C29.7767 23.3148 28.138 25.2022 23.6702 24.5712C22.5555 23.3532 21.5843 22.0745 20.7569 20.7352Z"
            fill="#363950" />
    </g>
    <defs>
        <clipPath id="clip0_5496_347">
            <rect width="32" height="32" fill="white" />
        </clipPath>
    </defs>
</svg>