<svg width="32" height="32" viewBox="0 0 32 32" fill="none" xmlns="http://www.w3.org/2000/svg">
    <path opacity="0.999" fill-rule="evenodd" clip-rule="evenodd"
        d="M0 27.12C0 19.7066 0 12.2934 0 4.88C0.572245 2.21442 2.1988 0.601082 4.87966 0.040002C12.2925 -0.013334 19.7053 -0.013334 27.1181 0.040002C29.6318 0.527226 31.2184 2.00722 31.8778 4.48C31.9702 8.31712 32.0102 12.1571 31.9978 16C32.0102 19.8429 31.9702 23.6829 31.8778 27.52C31.2184 29.9928 29.6318 31.4728 27.1181 31.96C19.7053 32.0133 12.2925 32.0133 4.87966 31.96C2.1988 31.3989 0.572245 29.7856 0 27.12Z"
        fill="#02B89A" />
    <path fill-rule="evenodd" clip-rule="evenodd"
        d="M13.9992 5.83997C15.7639 5.79661 17.5237 5.86325 19.2788 6.03997C20.8771 6.28829 22.3704 6.82157 23.7585 7.63997C24.8796 8.33412 25.6396 9.30748 26.0384 10.56C26.1987 11.7318 25.9054 12.7718 25.1584 13.68C23.7875 15.039 22.1477 15.9056 20.2387 16.28C16.7178 17.0254 13.2513 16.8387 9.83946 15.72C8.4302 15.2092 7.29697 14.3426 6.4397 13.12C5.72878 11.8218 5.75544 10.5418 6.51969 9.27996C7.82492 7.69973 9.49149 6.69973 11.5193 6.27997C12.3573 6.13157 13.184 5.98485 13.9992 5.83997Z"
        fill="#EEF9F7" />
    <path fill-rule="evenodd" clip-rule="evenodd"
        d="M14.3188 8.00009C16.8099 7.81481 19.2364 8.12153 21.5983 8.92008C22.6425 9.27456 23.5092 9.87456 24.1982 10.7201C24.4697 11.2048 24.4163 11.6582 24.0382 12.0801C23.5728 12.5724 23.0394 12.9724 22.4383 13.2801C21.0353 11.4114 19.1555 10.3846 16.7987 10.2001C14.6099 10.0241 12.6366 10.5841 10.8791 11.8801C10.4081 12.3108 9.98153 12.7774 9.59916 13.2801C8.88337 12.9425 8.28341 12.4625 7.79928 11.8401C7.51977 11.3965 7.54644 10.9698 7.87928 10.5601C8.99504 9.48856 10.315 8.78192 11.839 8.44008C12.6689 8.24689 13.4955 8.10025 14.3188 8.00009Z"
        fill="#09B89B" />
    <path fill-rule="evenodd" clip-rule="evenodd"
        d="M14.799 12.4799C16.8864 12.19 18.753 12.6833 20.3986 13.9599C20.0438 14.1154 19.6705 14.2221 19.2787 14.2799C16.9262 14.6797 14.5796 14.653 12.2392 14.1999C12.0476 14.1454 11.8609 14.0787 11.6792 13.9999C12.0065 13.6625 12.3798 13.3825 12.7991 13.1599C13.4457 12.8457 14.1124 12.619 14.799 12.4799Z"
        fill="#0EB99B" />
    <path fill-rule="evenodd" clip-rule="evenodd"
        d="M8.31934 17.52C12.6883 19.8711 17.2213 20.1511 21.9184 18.36C22.5236 18.0434 23.1102 17.7634 23.6783 17.52C23.2649 18.24 22.8517 18.96 22.4384 19.68C21.4484 20.5817 20.2884 21.155 18.9586 21.4C16.5836 21.8604 14.237 21.7537 11.9191 21.08C11.0071 20.7778 10.2205 20.2845 9.55925 19.6C9.164 18.8884 8.75067 18.1951 8.31934 17.52Z"
        fill="#EEF9F7" />
    <path fill-rule="evenodd" clip-rule="evenodd"
        d="M11.4395 22.96C14.029 24.4315 16.7222 24.6315 19.5189 23.56C19.9207 23.3452 20.3207 23.1586 20.7188 23C20.3755 23.54 20.0421 24.0866 19.7189 24.64C18.7325 25.7528 17.4926 26.2595 15.9991 26.16C14.5747 26.25 13.3881 25.77 12.4394 24.72C12.0839 24.1419 11.7506 23.5552 11.4395 22.96Z"
        fill="#EEF9F7" />
</svg>