<svg width="32" height="32" viewBox="0 0 32 32" fill="none" xmlns="http://www.w3.org/2000/svg">
    <g clip-path="url(#clip0_5493_5224)">
        <path opacity="0.889" fill-rule="evenodd" clip-rule="evenodd"
            d="M8.5 -0.5C14.8333 -0.5 21.1667 -0.5 27.5 -0.5C27.5 0.833333 27.5 2.16667 27.5 3.5C28.9587 3.43255 30.2921 3.76589 31.5 4.5C31.5 11.8333 31.5 19.1667 31.5 26.5C27.7586 26.9239 24.7586 28.5905 22.5 31.5C16.1667 31.5 9.83333 31.5 3.5 31.5C3.5 30.1667 3.5 28.8333 3.5 27.5C2.04125 27.5674 0.707917 27.2341 -0.5 26.5C-0.5 18.8333 -0.5 11.1667 -0.5 3.5C3.36031 3.94588 6.36031 2.61254 8.5 -0.5ZM4.5 4.5C11.8333 4.5 19.1667 4.5 26.5 4.5C26.5 11.8333 26.5 19.1667 26.5 26.5C19.1667 26.5 11.8333 26.5 4.5 26.5C4.5 19.1667 4.5 11.8333 4.5 4.5Z"
            fill="#E35536" />
        <path opacity="0.921" fill-rule="evenodd" clip-rule="evenodd"
            d="M8.5 8.5C13.1667 8.5 17.8333 8.5 22.5 8.5C22.5 13.1667 22.5 17.8333 22.5 22.5C17.8333 22.5 13.1667 22.5 8.5 22.5C8.5 17.8333 8.5 13.1667 8.5 8.5Z"
            fill="#E45536" />
    </g>
    <defs>
        <clipPath id="clip0_5493_5224">
            <rect width="32" height="32" fill="white" />
        </clipPath>
    </defs>
</svg>