<svg width="32" height="32" viewBox="0 0 32 32" fill="none" xmlns="http://www.w3.org/2000/svg">
    <g clip-path="url(#clip0_5079_295)">
        <path fill-rule="evenodd" clip-rule="evenodd"
            d="M-0.0400391 -0.0400391C10.6266 -0.0400391 21.2933 -0.0400391 31.96 -0.0400391C31.96 10.6266 31.96 21.2933 31.96 31.96C21.2933 31.96 10.6266 31.96 -0.0400391 31.96C-0.0400391 21.2933 -0.0400391 10.6266 -0.0400391 -0.0400391Z"
            fill="#FDFDFD" />
        <path fill-rule="evenodd" clip-rule="evenodd"
            d="M15.5601 7.96C15.5601 12.5466 15.5601 17.1334 15.5601 21.72C15.5601 22.2266 15.5601 22.7334 15.5601 23.24C15.5334 23.24 15.5067 23.24 15.4801 23.24C15.0001 22.7066 14.4934 22.2 13.9601 21.72C13.9601 18.0934 13.9601 14.4666 13.9601 10.84C13.9601 9.58664 13.9601 8.33336 13.9601 7.08C13.9549 7.04494 13.9682 7.01827 14.0001 7C14.4911 7.37189 15.0111 7.69189 15.5601 7.96Z"
            fill="#0C2140" />
        <path fill-rule="evenodd" clip-rule="evenodd"
            d="M13.9601 7.08008C13.9601 8.33344 13.9601 9.58672 13.9601 10.8401C13.9068 10.8401 13.8801 10.8667 13.8801 10.9201C13.7649 10.8044 13.7116 10.6578 13.7201 10.4801C13.7883 9.96232 13.815 9.44232 13.8001 8.92008C13.7201 8.92008 13.6401 8.92008 13.5601 8.92008C13.5474 8.70512 13.6141 8.51848 13.7601 8.36008C13.8245 8.1044 13.8112 7.86436 13.7201 7.64008C13.7367 7.42083 13.8167 7.23417 13.9601 7.08008Z"
            fill="#3E7581" />
        <path fill-rule="evenodd" clip-rule="evenodd"
            d="M19.3997 11.6399C18.8067 11.5897 18.2467 11.643 17.7197 11.7999C17.6474 11.7432 17.6207 11.6632 17.6397 11.5599C18.2412 11.5339 18.8279 11.5606 19.3997 11.6399Z"
            fill="#BAC3CE" />
        <path fill-rule="evenodd" clip-rule="evenodd"
            d="M13.9598 10.8398C13.9598 14.4665 13.9598 18.0932 13.9598 21.7198C13.9064 18.1732 13.8532 14.6265 13.7998 11.0798C13.8264 11.0265 13.8532 10.9732 13.8798 10.9198C13.8798 10.8665 13.9064 10.8398 13.9598 10.8398Z"
            fill="#D9E2ED" />
        <path fill-rule="evenodd" clip-rule="evenodd"
            d="M13.7201 7.64014C13.8111 7.86442 13.8245 8.10446 13.7601 8.36014C13.6141 8.51854 13.5474 8.70518 13.5601 8.92014C13.6401 8.92014 13.7201 8.92014 13.8001 8.92014C13.815 9.44238 13.7882 9.96238 13.7201 10.4801C13.7115 10.6578 13.7649 10.8045 13.8801 10.9201C13.8534 10.9735 13.8267 11.0268 13.8001 11.0801C12.1307 14.579 10.504 18.099 8.92008 21.6401C10.0009 21.6138 11.0676 21.6405 12.1201 21.7201C11.0267 21.7201 9.93344 21.7201 8.84008 21.7201C8.84008 21.6401 8.84008 21.5601 8.84008 21.4801C8.5192 21.4686 8.1992 21.442 7.88008 21.4001C7.58279 21.41 7.31613 21.49 7.08008 21.6401C9.26592 16.9515 11.4793 12.2848 13.7201 7.64014Z"
            fill="#408A8E" />
        <path fill-rule="evenodd" clip-rule="evenodd"
            d="M19.3997 11.6399C21.1744 15.1891 22.9477 18.7358 24.7197 22.2799C24.7796 22.3707 24.7664 22.4507 24.6797 22.5199C24.3041 22.7607 23.9308 23.0007 23.5597 23.2399C23.4797 23.2399 23.3997 23.2399 23.3197 23.2399C23.3387 23.1366 23.312 23.0566 23.2397 22.9999C23.0658 22.5453 22.8524 22.1186 22.5997 21.7199C22.6135 21.6405 22.5868 21.5872 22.5197 21.5599C20.9145 18.2963 19.3145 15.0429 17.7197 11.7999C18.2467 11.643 18.8067 11.5896 19.3997 11.6399Z"
            fill="#0E2242" />
        <path fill-rule="evenodd" clip-rule="evenodd"
            d="M8.83967 21.7199C8.26471 21.6939 7.70474 21.7206 7.15967 21.7999C7.09261 21.7725 7.06594 21.7193 7.07967 21.6399C7.31572 21.4897 7.58238 21.4097 7.87967 21.3999C8.19879 21.4417 8.51879 21.4684 8.83967 21.4799C8.83967 21.5599 8.83967 21.6399 8.83967 21.7199Z"
            fill="#35727A" />
        <path fill-rule="evenodd" clip-rule="evenodd"
            d="M15.5596 7.95996C15.6395 12.5064 15.6661 17.0664 15.6396 21.64C17.9466 21.6664 20.24 21.6398 22.5196 21.56C22.5866 21.5873 22.6133 21.6406 22.5996 21.72C20.3062 21.72 18.0129 21.72 15.7196 21.72C15.6662 21.72 15.6129 21.72 15.5596 21.72C15.5596 17.1333 15.5596 12.5466 15.5596 7.95996Z"
            fill="#BFC7D0" />
        <path fill-rule="evenodd" clip-rule="evenodd"
            d="M7.16016 21.8001C7.70523 21.7208 8.2652 21.6941 8.84016 21.7201C9.93352 21.7201 11.0268 21.7201 12.1202 21.7201C12.1202 22.2534 12.1202 22.7867 12.1202 23.3201C10.9732 23.3334 9.82648 23.3201 8.68016 23.2801C8.184 22.7705 7.67734 22.2772 7.16016 21.8001Z"
            fill="#0D2241" />
        <path fill-rule="evenodd" clip-rule="evenodd"
            d="M15.7196 21.7202C18.013 21.7202 20.3063 21.7202 22.5996 21.7202C22.8524 22.1189 23.0657 22.5457 23.2396 23.0002C23.2335 23.1002 23.1801 23.1669 23.0796 23.2002C20.5855 23.2381 18.1055 23.2514 15.6396 23.2402C15.6485 23.1909 15.6752 23.1509 15.7196 23.1202C25.4262 23.0536 25.4262 23.0136 15.7196 23.0002C15.7196 22.5736 15.7196 22.1469 15.7196 21.7202Z"
            fill="#3B8A8D" />
        <path fill-rule="evenodd" clip-rule="evenodd"
            d="M15.5596 21.7202C15.6129 21.7202 15.6662 21.7202 15.7196 21.7202C15.7196 22.1469 15.7196 22.5736 15.7196 23.0002C25.4261 23.0136 25.4261 23.0536 15.7196 23.1202C15.6751 23.1509 15.6485 23.1909 15.6396 23.2402C15.6129 23.2402 15.5862 23.2402 15.5596 23.2402C15.5596 22.7336 15.5596 22.2269 15.5596 21.7202Z"
            fill="#417C8B" />
        <path fill-rule="evenodd" clip-rule="evenodd"
            d="M23.2405 23C23.3128 23.0567 23.3394 23.1367 23.3205 23.24C23.4005 23.24 23.4805 23.24 23.5605 23.24C20.8671 23.3466 18.1738 23.3466 15.4805 23.24C15.5071 23.24 15.5338 23.24 15.5605 23.24C15.5871 23.24 15.6138 23.24 15.6405 23.24C18.1063 23.2512 20.5863 23.2378 23.0805 23.2C23.1809 23.1666 23.2343 23.1 23.2405 23Z"
            fill="#5B9794" />
    </g>
    <defs>
        <clipPath id="clip0_5079_295">
            <rect width="32" height="32" fill="white" />
        </clipPath>
    </defs>
</svg>