<svg width="32" height="32" viewBox="0 0 32 32" fill="none" xmlns="http://www.w3.org/2000/svg">
    <path
        d="M20.8516 16C20.8516 24.837 16.1836 32 10.4261 32H0V16C0 7.16403 4.66801 0 10.4254 0C16.1829 0 20.8509 7.16403 20.8509 16H20.8516Z"
        fill="#00AFCC" />
    <path
        d="M11.1489 16C11.1489 7.16403 15.8162 0 21.5744 0H31.9998V16C31.9998 24.837 27.3318 32 21.5744 32C15.8169 32 11.1489 24.836 11.1489 16Z"
        fill="#EC2AAC" />
    <path
        d="M11.1489 15.9998C11.1489 21.6897 13.0846 26.6851 15.9998 29.5225C18.9156 26.6862 20.8507 21.6897 20.8507 15.9998C20.8507 10.3099 18.9149 5.31449 15.9998 2.47705C13.0839 5.31342 11.1489 10.3099 11.1489 15.9998Z"
        fill="#0061A0" />
</svg>