<svg width="32" height="32" viewBox="0 0 32 32" fill="none" xmlns="http://www.w3.org/2000/svg">
    <path opacity="0.737" fill-rule="evenodd" clip-rule="evenodd"
        d="M11.7778 0C14.4584 0 17.139 0 19.8196 0C21.5549 0.689315 23.1633 1.66709 24.6447 2.93333C24.0192 3.55556 23.3937 4.17778 22.7683 4.8C18.1219 1.24444 13.4755 1.24444 8.82916 4.8C7.9296 4.28491 7.5722 3.5738 7.75693 2.66667C9.08623 1.69914 10.4265 0.810251 11.7778 0Z"
        fill="#00CEFC" />
    <path opacity="0.702" fill-rule="evenodd" clip-rule="evenodd"
        d="M13.9225 3.19986C16.9613 2.93183 19.6419 3.73183 21.9643 5.59986C21.4822 6.25917 20.8567 6.70365 20.0879 6.9332C17.2286 5.51097 14.3692 5.51097 11.51 6.9332C10.7411 6.70365 10.1156 6.25917 9.63354 5.59986C11.0271 4.64251 12.4567 3.84251 13.9225 3.19986Z"
        fill="#00CEFC" />
    <path opacity="0.752" fill-rule="evenodd" clip-rule="evenodd"
        d="M3.19995 16.5333C3.19995 13.8666 3.19995 11.2 3.19995 8.53329C4.01443 7.18903 4.90797 5.85569 5.88055 4.53329C6.79241 4.34952 7.50724 4.70507 8.02502 5.59996C4.45089 10.2222 4.45089 14.8444 8.02502 19.4666C7.39955 20.0889 6.77408 20.7111 6.14861 21.3333C4.87575 19.8596 3.89287 18.2596 3.19995 16.5333Z"
        fill="#00CEFC" />
    <path opacity="0.722" fill-rule="evenodd" clip-rule="evenodd"
        d="M24.6448 4.2666C25.7664 4.29934 26.5706 4.83267 27.0573 5.8666C29.7644 11.2848 29.3176 16.4404 25.717 21.3333C24.8882 20.9537 24.3521 20.3315 24.1086 19.4666C26.9679 14.8444 26.9679 10.2222 24.1086 5.59993C24.239 5.11881 24.4178 4.67437 24.6448 4.2666Z"
        fill="#00CEFC" />
    <path opacity="0.696" fill-rule="evenodd" clip-rule="evenodd"
        d="M8.56126 6.3999C9.37734 6.76838 9.91346 7.39062 10.1696 8.26657C9.04291 10.5261 8.86417 12.8372 9.6335 15.1999C9.03391 15.7725 8.49779 16.3947 8.02514 17.0666C5.86269 13.436 6.04139 9.88044 8.56126 6.3999Z"
        fill="#00CEFC" />
    <path opacity="0.68" fill-rule="evenodd" clip-rule="evenodd"
        d="M22.5002 6.3999C24.3688 7.96225 25.2623 10.0067 25.1808 12.5332C25.2152 14.9221 24.411 16.9666 22.7683 18.6666C22.1055 18.187 21.6587 17.5648 21.428 16.7999C22.0475 15.3955 22.5836 13.9732 23.0363 12.5332C22.5836 11.0932 22.0475 9.671 21.428 8.26657C21.6844 7.57185 22.0418 6.94961 22.5002 6.3999Z"
        fill="#00CEFC" />
    <path opacity="0.759" fill-rule="evenodd" clip-rule="evenodd"
        d="M13.9225 6.9333C19.7838 6.50408 22.1963 9.17074 21.1601 14.9333C19.2487 17.9376 16.5681 18.8265 13.1183 17.6C12.3495 17.8295 11.724 18.274 11.2419 18.9333C10.5486 19.1946 9.83373 19.2835 9.09742 19.2C9.01342 18.4675 9.10279 17.7563 9.36548 17.0666C10.0282 16.5871 10.475 15.9648 10.7058 15.2C9.49555 11.4857 10.5678 8.73016 13.9225 6.9333ZM15.5309 9.06664C18.6455 9.75549 19.6284 11.5333 18.4795 14.4C15.623 16.6759 13.5678 16.0537 12.3141 12.5333C12.7702 10.7483 13.8425 9.59277 15.5309 9.06664Z"
        fill="#FEFEFE" />
    <path opacity="0.674" fill-rule="evenodd" clip-rule="evenodd"
        d="M19.2835 18.1336C20.4526 18.0182 21.3461 18.4626 21.9641 19.4669C18.6286 22.1928 15.0545 22.5483 11.2417 20.5336C11.8672 19.9113 12.4926 19.2891 13.1181 18.6669C13.9593 18.9987 14.8529 19.1765 15.7987 19.2002C17.1624 19.2877 18.324 18.9321 19.2835 18.1336Z"
        fill="#00CEFC" />
    <path opacity="0.857" fill-rule="evenodd" clip-rule="evenodd"
        d="M16.6029 31.9999C16.0668 31.9999 15.5306 31.9999 14.9945 31.9999C11.9504 29.5924 9.35916 26.7479 7.22079 23.4666C6.97994 22.0833 7.51605 21.0166 8.82915 20.2666C13.4755 23.8222 18.1219 23.8222 22.7682 20.2666C23.5724 21.0666 24.3766 21.8666 25.1808 22.6666C22.7735 26.2157 19.9142 29.3268 16.6029 31.9999Z"
        fill="#00CEFC" />
</svg>