<svg width="32" height="32" viewBox="0 0 32 32" fill="none" xmlns="http://www.w3.org/2000/svg">
    <path
        d="M15.3165 2.02488C15.3165 6.90279 15.3165 11.7807 15.3165 16.8064C20.2178 16.8064 25.1191 16.8064 30.1689 16.8064C30.1689 21.1713 28.9056 24.5465 25.8963 27.7407C24.8523 28.7532 24.8523 28.7532 24.2686 28.7532C24.2686 28.8868 24.2686 29.0204 24.2686 29.1581C20.2201 31.5815 15.994 32.6369 11.2306 31.607C10.4601 31.3968 9.7362 31.1087 9.00928 30.778C8.70597 30.6426 8.70597 30.6426 8.39652 30.5044C4.81039 28.7223 2.13208 25.6028 0.813102 21.8612C-0.517508 17.88 -0.206772 13.687 1.6848 9.92187C3.79131 6.07212 6.99546 3.65566 11.1233 2.26613C12.5354 1.88877 13.8045 2.02488 15.3165 2.02488Z"
        fill="#006BBB" />
    <path
        d="M16.7407 0C21.4355 0.311494 24.9762 1.57103 28.2615 4.98624C30.792 7.90071 32.0001 11.3518 32.0001 15.1865C26.9645 15.1865 21.9289 15.1865 16.7407 15.1865C16.7407 10.175 16.7407 5.16342 16.7407 0Z"
        fill="#FF7700" />
</svg>