<svg width="32" height="32" viewBox="0 0 32 32" fill="none" xmlns="http://www.w3.org/2000/svg">
    <path opacity="0.998" fill-rule="evenodd" clip-rule="evenodd"
        d="M15.3901 0.0103541C17.3182 -0.0515138 19.2181 0.163873 21.0897 0.656514C23.2561 1.23892 25.2025 2.26881 26.929 3.7462C29.1018 5.69265 30.5802 8.12627 31.3643 11.0471C31.9818 13.4576 32.1494 15.9036 31.8672 18.3851C31.6017 20.9015 30.8194 23.2137 29.5203 25.322C27.9817 27.6856 25.9631 29.421 23.4645 30.5284C21.8104 31.2506 20.0922 31.7011 18.3098 31.8801C16.2505 32.098 14.2016 32.0189 12.1632 31.6425C10.0212 31.2459 8.03754 30.4289 6.21214 29.1915C3.43648 27.2089 1.58087 24.5029 0.645268 21.0737C0.0575967 18.8087 -0.128659 16.5063 0.0864857 14.1664C0.298432 11.6195 1.03417 9.26276 2.29368 7.09583C3.73785 4.73479 5.65866 2.95476 8.05612 1.75573C10.0401 0.793826 12.1215 0.234326 14.3005 0.0771982C14.6657 0.0508617 15.0289 0.0285803 15.3901 0.0103541ZM24.7497 5.95205C25.3796 6.9207 25.8336 7.9804 26.1118 9.13086C26.5158 10.9294 26.3527 12.6674 25.6228 14.3447C25.1627 15.3635 24.5714 16.2845 23.8487 17.1076C21.1181 20.026 18.3823 22.94 15.6416 25.8493C15.2924 26.1364 14.9431 26.1364 14.5939 25.8493C11.7048 22.7922 8.82011 19.7298 5.93973 16.662C5.58865 16.2587 5.57934 15.8478 5.91179 15.4291C7.13413 14.1293 8.35647 12.8296 9.5788 11.5298C9.95598 11.1833 10.3332 11.1833 10.7103 11.5298C12.1725 13.0846 13.6346 14.6393 15.0968 16.194C15.1107 16.204 15.1247 16.204 15.1387 16.194C18.3401 12.7774 21.5439 9.36348 24.7497 5.95205Z"
        fill="#1F87FF" />
</svg>