<svg width="32" height="32" viewBox="0 0 32 32" fill="none" xmlns="http://www.w3.org/2000/svg">
    <g clip-path="url(#clip0_4967_500)">
        <rect width="32" height="32" fill="#FAFAFA" />
        <path
            d="M15.5252 0.0019167C16.0034 0.0034994 16.4816 0.00192589 16.9598 4.18361e-05C18.9061 -0.0013066 20.6811 0.0252782 22.5021 0.778832C22.6483 0.827567 22.7945 0.876302 22.9451 0.926514C23.4925 1.109 24.03 1.31259 24.5695 1.51724C24.5695 1.61471 24.5695 1.71218 24.5695 1.8126C24.7596 1.86515 24.7596 1.86515 24.9537 1.91875C25.517 2.13114 25.9185 2.40865 26.3969 2.77254C26.4774 2.83212 26.558 2.89171 26.6409 2.9531C26.8428 3.10643 27.0361 3.27099 27.2276 3.4371C27.2276 3.53457 27.2276 3.63204 27.2276 3.73247C27.3738 3.7812 27.52 3.82994 27.6706 3.88015C27.9197 4.12323 28.1659 4.36933 28.4089 4.61856C28.5064 4.66729 28.6039 4.71603 28.7043 4.76624C28.7043 4.86371 28.7043 4.96118 28.7043 5.0616C28.8017 5.0616 28.8992 5.0616 28.9996 5.0616C29.0118 5.14689 29.024 5.23218 29.0365 5.32005C29.1263 5.67469 29.1263 5.67469 29.4334 5.92923C29.7965 6.3034 29.8706 6.64096 30.0333 7.12915C30.1795 7.17788 30.3257 7.22662 30.4763 7.27683C30.6603 7.66565 30.6603 7.66565 30.8363 8.18138C30.8832 8.31861 30.8832 8.31861 30.931 8.45861C31.5515 10.3134 31.9739 12.1175 31.983 14.0817C31.9839 14.2244 31.9847 14.3671 31.9856 14.5141C31.987 14.8159 31.9879 15.1178 31.9885 15.4197C31.9899 15.8717 31.9945 16.3237 31.9992 16.7758C32.0146 19.614 31.8223 22.0891 30.3287 24.5556C30.259 24.674 30.1893 24.7924 30.1175 24.9144C29.6781 25.6579 29.237 26.3855 28.7043 27.0662C28.6068 27.0662 28.5094 27.0662 28.4089 27.0662C28.3705 27.153 28.332 27.2398 28.2924 27.3292C28.1026 27.6771 27.9001 27.9001 27.6152 28.1738C27.3334 28.4452 27.062 28.711 26.803 29.0045C26.3026 29.446 25.5525 30.0198 24.8648 30.0198C24.8648 30.1173 24.8648 30.2148 24.8648 30.3152C23.4909 30.9779 22.1703 31.3816 20.677 31.6795C20.1674 31.7623 20.1674 31.7623 19.844 31.9397C19.6108 31.956 19.3769 31.9632 19.1431 31.9658C18.997 31.9677 18.8509 31.9696 18.7004 31.9716C18.4618 31.9732 18.4618 31.9732 18.2185 31.9749C17.9718 31.9767 17.9718 31.9767 17.7202 31.9785C17.3704 31.9805 17.0206 31.9821 16.6707 31.9833C16.1431 31.9858 15.6156 31.9923 15.0879 31.9988C13.2267 32.0115 11.5776 31.9308 9.80236 31.349C9.61132 31.2923 9.42007 31.2364 9.22861 31.1813C7.97364 30.8189 7.97364 30.8189 7.43961 30.4629C7.43961 30.3654 7.43961 30.2679 7.43961 30.1675C7.14723 30.1188 6.85484 30.07 6.55359 30.0198C6.55359 29.9224 6.55359 29.8249 6.55359 29.7245C6.4348 29.6696 6.4348 29.6696 6.31362 29.6137C5.54136 29.2072 4.94552 28.7226 4.33852 28.1C4.22487 28.0162 4.11123 27.9324 3.99414 27.8461C3.51714 27.4382 3.19575 26.9906 2.84335 26.4755C2.71687 26.2939 2.59035 26.1124 2.46379 25.9309C2.40493 25.8454 2.34607 25.76 2.28543 25.672C2.15444 25.4858 2.01573 25.305 1.87483 25.1261C1.65117 24.8095 1.5277 24.5038 1.39432 24.1402C1.22868 23.6892 1.05333 23.3151 0.799671 22.9038C0.485629 22.3561 0.339772 21.8135 0.243525 21.1924C0.216538 21.0232 0.216538 21.0232 0.189007 20.8506C-0.0259749 19.3306 -0.00472751 17.7974 0.00640711 16.2654C0.00993347 15.7458 0.00943443 15.2262 0.0084621 14.7065C0.0092846 14.3725 0.0103339 14.0385 0.0116347 13.7044C0.0114328 13.4741 0.0114328 13.4741 0.0112269 13.2392C0.0195594 12.3803 0.105424 11.6446 0.351394 10.8212C0.382506 10.7108 0.413617 10.6003 0.445671 10.4866C0.533648 10.201 0.622024 9.91563 0.711343 9.63051C0.741514 9.5318 0.771686 9.43309 0.802772 9.3314C1.35561 7.55908 1.35561 7.55908 1.97578 6.98147C2.11751 6.68673 2.11751 6.68673 2.2342 6.36305C2.54962 5.61724 2.99878 5.01453 3.60016 4.47088C3.69763 4.47088 3.79509 4.47088 3.8955 4.47088C3.92901 4.38559 3.96251 4.3003 3.99703 4.21243C4.24165 3.79305 4.54447 3.58257 4.9292 3.28942C5.06369 3.15007 5.06369 3.15007 5.2009 3.0079C7.90897 0.38289 11.9745 -0.0120718 15.5252 0.0019167Z"
            fill="#4A6AB2" />
        <path
            d="M12.0167 11.4115C12.312 11.7068 12.312 11.7068 12.3305 12.1684C12.3244 12.3085 12.3183 12.4486 12.312 12.5929C12.2146 12.5929 12.1171 12.5929 12.0167 12.5929C12.0167 12.8366 12.0167 13.0803 12.0167 13.3313C12.1629 13.2826 12.3091 13.2339 12.4597 13.1837C12.4914 13.05 12.4914 13.05 12.5237 12.9137C12.67 12.3526 13.1205 12.1032 13.5707 11.7709C14.152 11.4343 14.4559 11.4398 15.1178 11.5592C15.6162 11.7438 15.6162 11.7438 16.0038 12.1499C16.1658 12.7357 16.244 13.3176 16.2991 13.9221C16.3776 13.8117 16.456 13.7012 16.5368 13.5875C16.6933 13.3693 16.6933 13.3693 16.8529 13.1467C16.9557 13.0028 17.0585 12.8589 17.1644 12.7106C17.875 11.7821 17.875 11.7821 18.3539 11.5984C19.3454 11.4721 20.3276 11.3957 21.1723 12.0022C21.7798 12.9797 21.4981 14.1689 21.2557 15.2283C21.1348 15.7297 21.008 16.2292 20.877 16.728C20.7795 16.728 20.682 16.728 20.5816 16.728C20.5329 17.3616 20.4841 17.9951 20.4339 18.6479C20.6228 18.6723 20.8116 18.6966 21.0062 18.7217C21.1655 18.7423 21.1655 18.7423 21.328 18.7633C21.616 18.8011 21.616 18.8011 21.9107 18.7956C21.9483 18.7126 21.986 18.6296 22.0249 18.5441C22.2292 18.1614 22.4717 17.8429 22.7413 17.5034C22.8812 17.3263 22.8812 17.3263 23.024 17.1457C23.0952 17.0566 23.1663 16.9675 23.2397 16.8757C23.5321 16.9488 23.5321 16.9488 23.8304 17.0234C24.0289 18.0885 24.0289 18.0885 23.7842 18.6479C23.702 18.7454 23.6198 18.8428 23.535 18.9433C23.4376 18.9433 23.3401 18.9433 23.2397 18.9433C23.2062 19.0255 23.1727 19.1077 23.1382 19.1925C22.8855 19.6377 22.594 19.9398 22.206 20.2724C22.0111 20.2724 21.8161 20.2724 21.6153 20.2724C21.6153 20.3699 21.6153 20.4673 21.6153 20.5678C20.7474 20.6401 20.1063 20.51 19.4002 19.977C18.7256 19.2589 18.7302 18.3231 18.7384 17.3824C18.7959 15.9294 19.2281 14.5524 19.6956 13.1837C18.547 13.4642 18.0884 14.3125 17.4805 15.2512C17.1557 15.8292 16.8754 16.4231 16.5945 17.0234C16.3906 17.4368 16.1833 17.8484 15.9761 18.2602C15.8786 18.4552 15.7811 18.6502 15.6837 18.8452C15.4458 19.3209 15.208 19.7967 14.9701 20.2724C14.7843 20.2785 14.5985 20.2846 14.4071 20.2908C14.3026 20.2943 14.1981 20.2977 14.0904 20.3012C13.7887 20.2724 13.7887 20.2724 13.3457 19.977C13.4401 19.1288 13.5863 18.3086 13.7703 17.4757C14.0571 16.1489 14.3009 14.8173 14.5271 13.479C14.0928 13.5062 14.0928 13.5062 13.6411 13.6267C13.4562 13.8797 13.4562 13.8797 13.3457 14.2174C13.1626 14.5107 12.9778 14.8028 12.792 15.0943C11.9051 16.5179 11.261 17.9761 10.8145 19.5957C10.6876 19.977 10.6876 19.977 10.3923 20.2724C9.49343 20.1921 9.49343 20.1921 9.06325 19.977C8.91289 17.6044 9.38562 15.1969 10.0139 12.916C10.0406 12.8137 10.0673 12.7114 10.0948 12.606C10.238 12.1261 10.3577 11.8817 10.7557 11.5695C11.2081 11.3788 11.5303 11.3574 12.0167 11.4115Z"
            fill="#F3F8FA" />
        <path
            d="M17.9245 11.1161C18.3769 11.0961 18.8285 11.0815 19.2812 11.07C19.4088 11.0638 19.5365 11.0576 19.668 11.0512C20.3477 11.0382 20.6342 11.0422 21.19 11.4697C21.4686 11.8545 21.4686 11.8545 21.4686 12.1499C21.6148 12.1499 21.761 12.1499 21.9116 12.1499C21.9156 12.5868 21.9185 13.0236 21.9208 13.4605C21.9221 13.5849 21.9233 13.7092 21.9246 13.8373C21.9251 13.9562 21.9255 14.0752 21.926 14.1978C21.9268 14.3076 21.9276 14.4174 21.9284 14.5306C21.9116 14.8081 21.9116 14.8081 21.7639 15.1035C21.7106 15.4475 21.661 15.7921 21.6163 16.1373C21.4701 16.186 21.3239 16.2348 21.1732 16.285C21.2463 16.7236 21.2463 16.7236 21.3209 17.1711C21.1747 17.098 21.1747 17.098 21.0256 17.0234C20.9768 17.462 20.9281 17.9006 20.8779 18.3525C21.3652 18.255 21.8525 18.1576 22.3546 18.0571C22.1977 18.4171 22.1977 18.4171 21.9116 18.7956C21.3947 18.934 21.3947 18.934 20.8779 18.9432C20.7317 18.8458 20.5855 18.7483 20.4349 18.6479C20.3908 17.9761 20.4187 17.3835 20.5826 16.728C20.68 16.728 20.7775 16.728 20.8779 16.728C20.8851 16.6458 20.8924 16.5635 20.8998 16.4788C20.9554 15.9115 21.0222 15.3744 21.1825 14.8266C21.3996 14.0135 21.4753 13.0767 21.2171 12.2676C20.9519 11.9002 20.72 11.8287 20.2872 11.7068C19.8848 11.6606 19.8848 11.6606 19.475 11.6699C19.3395 11.6691 19.204 11.6684 19.0643 11.6676C18.1303 11.7589 17.713 12.1709 17.1342 12.8623C16.8066 13.2947 16.5505 13.7366 16.3001 14.2174C16.2514 14.2174 16.2026 14.2174 16.1524 14.2174C16.1452 14.107 16.138 13.9966 16.1305 13.8828C16.1195 13.7374 16.1084 13.5919 16.097 13.4421C16.0816 13.2262 16.0816 13.2262 16.0659 13.006C15.9809 12.4321 15.8225 12.1153 15.4141 11.7068C15.5115 11.7068 15.609 11.7068 15.7094 11.7068C15.7094 11.6094 15.7094 11.5119 15.7094 11.4115C16.2948 11.4931 16.7895 11.6277 17.3338 11.8545C17.4313 11.8545 17.5287 11.8545 17.6291 11.8545C17.7266 11.6108 17.8241 11.3672 17.9245 11.1161Z"
            fill="#52679F" />
        <path
            d="M14.0632 0.01545C14.2146 0.0149585 14.3661 0.0144669 14.5221 0.0139605C14.8413 0.013216 15.1605 0.0128663 15.4797 0.0128901C15.9632 0.012568 16.4466 0.00988435 16.9301 0.00708522C20.6894 -0.00332096 20.6894 -0.00332099 22.1689 0.649443C22.29 0.701605 22.4111 0.753767 22.5358 0.807509C22.6649 0.866334 22.6649 0.866334 22.7965 0.926347C22.7965 1.02382 22.7965 1.12129 22.7965 1.22171C23.0402 1.27045 23.2839 1.31918 23.5349 1.36939C23.0438 1.53309 22.7047 1.49412 22.2059 1.36939C22.2059 1.27192 22.2059 1.17445 22.2059 1.07403C20.9982 0.806362 19.8473 0.737054 18.6127 0.744629C18.4303 0.744696 18.2479 0.744764 18.0599 0.744834C17.6771 0.745277 17.2942 0.746433 16.9114 0.74827C16.3258 0.750978 15.7404 0.751299 15.1548 0.751263C14.7815 0.751988 14.4082 0.752849 14.0349 0.753859C13.7732 0.754105 13.7732 0.754105 13.5063 0.754357C13.3431 0.755299 13.1799 0.756241 13.0117 0.757212C12.869 0.757775 12.7264 0.758338 12.5794 0.758918C11.6962 0.777478 11.6962 0.777478 10.9828 1.22171C10.8854 1.07551 10.7879 0.9293 10.6875 0.778665C10.8824 0.681195 11.0774 0.583725 11.2782 0.483301C11.2782 0.385831 11.2782 0.288361 11.2782 0.187938C12.2114 0.0503925 13.1206 0.0165303 14.0632 0.01545Z"
            fill="#63669F" />
        <path
            d="M0.499065 10.5254C0.874316 11.0883 0.783614 11.2426 0.665772 11.8955C0.422569 13.4302 0.47234 14.9664 0.489836 16.5157C0.493935 16.9552 0.497577 17.3947 0.500347 17.8342C0.502137 18.1053 0.504716 18.3763 0.50822 18.6474C0.513391 19.3061 0.486352 19.9191 0.351394 20.5678C0.448857 20.5678 0.54632 20.5678 0.646737 20.5678C0.646737 20.9089 0.646737 21.25 0.646737 21.6015C0.741154 21.635 0.835571 21.6685 0.93285 21.7031C1.23742 21.8969 1.23742 21.8969 1.33895 22.2661C1.35417 22.3879 1.3694 22.5098 1.38509 22.6353C1.43382 22.7328 1.48256 22.8302 1.53276 22.9307C1.5387 23.2752 1.53914 23.6199 1.53276 23.9644C0.842409 23.1014 0.412995 22.2855 0.243525 21.1919C0.225534 21.0792 0.207543 20.9664 0.189007 20.8502C-0.0259749 19.3301 -0.00472751 17.7969 0.00640711 16.265C0.00993347 15.7453 0.00943443 15.2257 0.0084621 14.7061C0.0092846 14.372 0.0103339 14.038 0.0116347 13.704C0.0114328 13.4737 0.0114328 13.4737 0.0112269 13.2387C0.0204263 12.2906 0.0668418 11.3899 0.499065 10.5254Z"
            fill="#667AA8" />
        <path
            d="M9.95014 11.8545C10.0963 11.8545 10.2425 11.8545 10.3931 11.8545C10.3574 11.9946 10.3216 12.1347 10.2847 12.2791C9.65824 14.7974 9.1556 17.3784 9.06411 19.977C9.16157 20.0257 9.25903 20.0745 9.35945 20.1247C8.99396 20.1978 8.99396 20.1978 8.62109 20.2724C8.65607 19.568 8.69277 18.8637 8.73105 18.1595C8.74383 17.92 8.75614 17.6805 8.76797 17.441C8.78508 17.0963 8.80387 16.7518 8.82299 16.4072C8.82792 16.3005 8.83286 16.1937 8.83795 16.0837C8.87026 15.5324 8.94887 15.1425 9.21178 14.6604C9.21178 14.4655 9.21178 14.2706 9.21178 14.0697C9.30924 14.0697 9.4067 14.0697 9.50712 14.0697C9.69685 13.5005 9.71713 12.9525 9.76093 12.3564C9.80246 12.0022 9.80246 12.0022 9.95014 11.8545Z"
            fill="#5F73A6" />
        <path
            d="M19.3736 13.1309C19.4804 13.1486 19.5872 13.1663 19.6972 13.1845C19.5472 13.9921 19.3914 14.7741 19.1065 15.5474C18.8112 15.2521 18.8112 15.2521 18.7927 14.8644C18.7988 14.7486 18.8049 14.6329 18.8112 14.5136C18.3059 14.7302 17.9599 14.9558 17.6298 15.3997C17.5809 15.7134 17.5809 15.7134 17.5652 16.0551C17.5278 16.6078 17.4923 16.7158 17.1314 17.1811C16.7438 17.4673 16.7438 17.4673 16.3008 17.4673C16.7803 16.2241 17.4395 15.1119 18.2297 14.0429C18.2905 13.9577 18.3512 13.8725 18.4137 13.7848C18.7179 13.3861 18.8648 13.1967 19.3736 13.1309Z"
            fill="#5C71A1" />
        <path
            d="M21.6163 31.3493C20.511 31.9941 19.3197 31.9823 18.0803 31.974C17.9136 31.974 17.7469 31.9739 17.5752 31.9738C17.2245 31.9734 16.8737 31.9722 16.523 31.9704C15.987 31.9677 15.4511 31.9674 14.9151 31.9674C14.5734 31.9667 14.2318 31.9658 13.8901 31.9648C13.6505 31.9646 13.6505 31.9646 13.4062 31.9643C12.6815 31.9598 11.9913 31.9459 11.2793 31.7923C11.2793 31.7436 11.2793 31.6949 11.2793 31.6446C11.4704 31.6409 11.6615 31.6372 11.8583 31.6334C12.5814 31.6193 13.3044 31.6046 14.0274 31.5897C14.3377 31.5833 14.648 31.5772 14.9583 31.5712C16.747 31.5366 18.5316 31.4841 20.3176 31.3787C20.7524 31.3559 21.1812 31.3429 21.6163 31.3493Z"
            fill="#6A8FBA" />
        <path
            d="M6.11133 29.4287C6.88861 29.4999 7.39494 29.6793 8.05874 30.084C8.86846 30.5428 9.55119 30.7532 10.4734 30.8484C10.8368 30.9055 10.8368 30.9055 11.2798 31.2009C11.2798 31.3471 11.2798 31.4933 11.2798 31.6439C10.4592 31.5937 9.72295 31.3954 8.94477 31.1363C8.84758 31.1042 8.75039 31.0721 8.65026 31.039C8.19875 30.8846 7.84006 30.729 7.44037 30.4625C7.44037 30.365 7.44037 30.2675 7.44037 30.1671C7.00179 30.094 7.00179 30.094 6.55434 30.0194C6.55434 29.922 6.55434 29.8245 6.55434 29.7241C6.40815 29.6753 6.26195 29.6266 6.11133 29.5764C6.11133 29.5277 6.11133 29.4789 6.11133 29.4287Z"
            fill="#497BAD" />
        <path
            d="M28.4082 4.7666C28.5057 4.7666 28.6031 4.7666 28.7035 4.7666C28.7035 4.86407 28.7035 4.96154 28.7035 5.06197C28.801 5.06197 28.8985 5.06197 28.9989 5.06197C29.0111 5.14725 29.0233 5.23254 29.0358 5.32041C29.1256 5.67505 29.1256 5.67505 29.4327 5.9296C29.7958 6.30376 29.8699 6.64133 30.0326 7.12951C30.1788 7.17825 30.325 7.22698 30.4756 7.27719C30.7747 7.86432 30.9186 8.23787 30.9186 8.90169C30.4756 8.75401 30.4756 8.75401 30.1803 8.45865C30.1211 8.11562 30.071 7.77083 30.0326 7.42487C29.6671 7.27867 29.6671 7.27867 29.2942 7.12951C29.2942 6.93457 29.2942 6.73963 29.2942 6.53878C29.1968 6.53878 29.0993 6.53878 28.9989 6.53878C28.7312 5.94527 28.5064 5.41476 28.4082 4.7666Z"
            fill="#5F6B9F" />
        <path
            d="M14.5279 13.479C14.5586 14.323 14.5575 15.1955 14.2326 15.9896C14.0864 16.0383 13.9402 16.087 13.7896 16.1372C13.7896 15.7961 13.7896 15.455 13.7896 15.1035C13.887 15.1035 13.9845 15.1035 14.0849 15.1035C14.0849 14.8111 14.0849 14.5187 14.0849 14.2174C13.3954 14.7807 13.3954 14.7807 12.7559 15.3988C12.7559 14.869 12.8864 14.7047 13.1804 14.2728C13.2592 14.1551 13.338 14.0375 13.4192 13.9163C13.78 13.447 13.9143 13.479 14.5279 13.479Z"
            fill="#5A6A97" />
        <path
            d="M21.0247 12.0029C21.1222 12.0517 21.2196 12.1004 21.32 12.1506C21.8201 13.651 21.2629 15.2593 20.877 16.7287C20.7796 16.7287 20.6821 16.7287 20.5817 16.7287C20.533 17.3623 20.4842 17.9959 20.434 18.6486C20.5802 18.6973 20.7264 18.7461 20.877 18.7963C20.7308 18.8694 20.7308 18.8694 20.5817 18.944C20.4842 18.8952 20.3868 18.8465 20.2863 18.7963C20.2252 18.4265 20.2252 18.4265 20.194 17.9748C20.183 17.8254 20.172 17.6759 20.1606 17.522C20.1534 17.4064 20.1461 17.2908 20.1387 17.1718C20.1874 17.1718 20.2361 17.1718 20.2863 17.1718C20.3895 16.8781 20.4863 16.5821 20.5817 16.2857C20.6207 16.1778 20.6597 16.0698 20.6999 15.9586C21.1251 14.6509 21.065 13.3609 21.0247 12.0029Z"
            fill="#CBD8EB" />
        <path
            d="M12.3135 10.9688C12.3744 11.1089 12.4353 11.249 12.4981 11.3933C12.7571 11.8559 12.8611 11.9826 13.3472 12.1502C13.169 12.2827 13.169 12.2827 12.9872 12.4179C12.5759 12.7128 12.5759 12.7128 12.4612 13.184C12.1566 13.3593 12.1566 13.3593 11.8705 13.4793C11.9192 13.1869 11.9679 12.8945 12.0181 12.5932C12.1156 12.5932 12.2131 12.5932 12.3135 12.5932C12.216 12.2521 12.1186 11.911 12.0181 11.5595C11.3952 11.5305 10.9593 11.5887 10.3938 11.8548C10.345 11.7086 10.2963 11.5624 10.2461 11.4118C10.5074 11.3373 10.7689 11.2636 11.0306 11.1903C11.1762 11.1492 11.3218 11.108 11.4719 11.0657C11.8705 10.9688 11.8705 10.9688 12.3135 10.9688Z"
            fill="#5B6CA2" />
        <path
            d="M25.8984 2.69824C26.4063 2.88166 26.8217 3.07592 27.2275 3.43665C27.2275 3.53412 27.2275 3.63159 27.2275 3.73201C27.3737 3.78075 27.5199 3.82948 27.6705 3.8797C27.9076 4.10468 27.9076 4.10468 28.1412 4.37812C28.2194 4.4676 28.2977 4.55707 28.3783 4.64926C28.5565 4.91347 28.5565 4.91347 28.5565 5.35651C28.654 5.40525 28.7514 5.45398 28.8519 5.5042C28.6082 5.5042 28.3645 5.5042 28.1135 5.5042C28.0541 5.33515 28.0541 5.33515 27.9935 5.16268C27.8202 4.7703 27.7093 4.58262 27.3752 4.32274C27.2472 4.2801 27.1193 4.23746 26.9875 4.19352C26.8718 4.13869 26.756 4.08387 26.6368 4.02738C26.5168 3.63971 26.5168 3.63971 26.4891 3.28897C26.3429 3.24023 26.1967 3.1915 26.0461 3.14129C25.9974 2.99508 25.9486 2.84888 25.8984 2.69824Z"
            fill="#56639A" />
        <path
            d="M0.203006 19.9775C0.251737 20.1725 0.300469 20.3674 0.350677 20.5683C0.44814 20.5683 0.545603 20.5683 0.64602 20.5683C0.64602 20.9094 0.64602 21.2506 0.64602 21.602C0.740437 21.6355 0.834854 21.669 0.932133 21.7036C1.2367 21.8974 1.2367 21.8974 1.33823 22.2666C1.35346 22.3884 1.36869 22.5103 1.38438 22.6358C1.43311 22.7333 1.48184 22.8308 1.53205 22.9312C1.53799 23.2757 1.53843 23.6204 1.53205 23.9649C0.563775 22.7545 0.12082 21.5392 0.203006 19.9775Z"
            fill="#5577A5" />
        <path
            d="M17.9252 11.1162C18.6561 11.1162 19.3871 11.1162 20.1402 11.1162C20.1402 11.1649 20.1402 11.2137 20.1402 11.2639C19.5555 11.2639 18.9707 11.2639 18.3682 11.2639C18.3682 11.4101 18.3682 11.5563 18.3682 11.7069C18.1524 11.9285 18.1524 11.9285 17.8698 12.15C17.5023 12.4403 17.3056 12.6364 17.0391 13.0361C16.7955 12.9873 16.5518 12.9386 16.3008 12.8884C16.3008 12.7909 16.3008 12.6935 16.3008 12.593C16.6917 12.3773 16.8759 12.2977 17.3345 12.2977C17.3345 12.1515 17.3345 12.0053 17.3345 11.8546C17.4319 11.8546 17.5294 11.8546 17.6298 11.8546C17.7273 11.6109 17.8247 11.3673 17.9252 11.1162Z"
            fill="#536699" />
        <path
            d="M25.8984 29.5765C25.197 30.0196 25.197 30.0196 24.8647 30.0196C24.8647 30.117 24.8647 30.2145 24.8647 30.3149C24.583 30.4469 24.2996 30.5755 24.0156 30.7026C23.7792 30.8105 23.7792 30.8105 23.538 30.9206C23.0926 31.0533 23.0926 31.0533 22.7396 30.9276C22.6612 30.8716 22.5828 30.8156 22.502 30.758C22.5811 30.7186 22.6603 30.6792 22.7419 30.6386C23.0009 30.5086 23.2593 30.3772 23.5172 30.2451C23.6695 30.1676 23.8218 30.0902 23.9787 30.0103C24.131 29.9325 24.2832 29.8546 24.4401 29.7744C25.2957 29.3756 25.2957 29.3756 25.8984 29.5765Z"
            fill="#5A84B2" />
        <path
            d="M20.5824 16.7285C20.6311 16.7285 20.6798 16.7285 20.7301 16.7285C20.7788 17.2646 20.8275 17.8007 20.8777 18.353C21.365 18.2555 21.8524 18.1581 22.3544 18.0577C22.1975 18.4176 22.1975 18.4176 21.9114 18.7961C21.3946 18.9345 21.3946 18.9345 20.8777 18.9437C20.7315 18.8463 20.5853 18.7488 20.4347 18.6484C20.3907 17.9766 20.4185 17.384 20.5824 16.7285Z"
            fill="#5C71AA" />
        <path
            d="M18.9575 13.1836C19.2011 13.1836 19.4448 13.1836 19.6958 13.1836C19.5458 13.9912 19.39 14.7732 19.1051 15.5465C18.8098 15.2511 18.8098 15.2511 18.8006 14.8819C18.8036 14.7601 18.8066 14.6383 18.8098 14.5127C18.761 14.4153 18.7123 14.3178 18.6621 14.2174C18.7518 13.8704 18.8498 13.5254 18.9575 13.1836Z"
            fill="#5C6D97" />
        <path
            d="M30.0326 23.9648C30.2039 24.2158 30.2039 24.2158 30.3279 24.5556C30.1889 24.9 30.1889 24.9 29.9495 25.2663C29.8667 25.3948 29.7839 25.5233 29.6986 25.6557C29.3741 26.1319 29.0461 26.6027 28.7035 27.0662C28.6061 26.8712 28.5086 26.6763 28.4082 26.4754C28.5544 26.4754 28.7006 26.4754 28.8512 26.4754C28.8649 26.2379 28.8649 26.2379 28.8789 25.9955C29.0238 25.3268 29.2095 25.25 29.7372 24.8509C29.9363 24.39 29.9363 24.39 30.0326 23.9648Z"
            fill="#557CA9" />
        <path
            d="M23.8318 17.1719C23.9292 17.2206 24.0267 17.2693 24.1271 17.3196C24.1271 17.612 24.1271 17.9044 24.1271 18.2056C24.2246 18.2544 24.322 18.3031 24.4224 18.3533C24.325 18.3533 24.2275 18.3533 24.1271 18.3533C24.1149 18.4599 24.1027 18.5665 24.0902 18.6764C23.9562 19.1788 23.7431 19.4542 23.3887 19.8301C23.2913 19.8301 23.1938 19.8301 23.0934 19.8301C23.0934 19.9276 23.0934 20.0251 23.0934 20.1255C22.9472 20.0768 22.801 20.028 22.6504 19.9778C22.8453 19.6367 23.0402 19.2955 23.2411 18.9441C23.3385 18.9441 23.436 18.9441 23.5364 18.9441C23.8314 18.3355 23.8581 17.8435 23.8318 17.1719Z"
            fill="#5E79A9" />
        <path
            d="M6.11133 29.4287C6.91397 29.5013 7.47033 29.706 8.1695 30.1025C8.33834 30.1971 8.50719 30.2917 8.68115 30.3892C8.80774 30.4621 8.93433 30.535 9.06475 30.6102C8.91856 30.7076 8.77236 30.8051 8.62174 30.9055C8.20123 30.794 7.82908 30.6569 7.44037 30.4625C7.44037 30.365 7.44037 30.2675 7.44037 30.1671C7.00179 30.094 7.00179 30.094 6.55434 30.0194C6.55434 29.922 6.55434 29.8245 6.55434 29.7241C6.40815 29.6753 6.26195 29.6266 6.11133 29.5764C6.11133 29.5277 6.11133 29.4789 6.11133 29.4287Z"
            fill="#5E89B5" />
        <path
            d="M21.3206 11.56C21.2719 11.6574 21.2231 11.7549 21.1729 11.8553C21.0477 11.8312 20.9224 11.807 20.7934 11.7821C20.2774 11.7063 19.7928 11.6931 19.2717 11.6984C19.1015 11.6998 18.9313 11.7011 18.756 11.7025C18.6277 11.7042 18.4994 11.7059 18.3672 11.7077C18.3672 11.5615 18.3672 11.4152 18.3672 11.2646C18.647 11.2356 18.927 11.2082 19.2071 11.1815C19.4409 11.1584 19.4409 11.1584 19.6795 11.1348C20.3608 11.1083 20.7509 11.1801 21.3206 11.56Z"
            fill="#6B7AA8" />
        <path
            d="M31.5095 20.2725C31.5582 20.2725 31.607 20.2725 31.6572 20.2725C31.7281 21.5499 31.4246 22.7087 30.7711 23.8168C30.6737 23.8656 30.5762 23.9143 30.4758 23.9645C30.365 23.6415 30.365 23.6415 30.3281 23.2261C30.5958 22.8384 30.5958 22.8384 30.9188 22.4877C31.2418 22.0031 31.2945 21.7004 31.3803 21.1309C31.4174 20.8901 31.4174 20.8901 31.4553 20.6445C31.4732 20.5218 31.4911 20.399 31.5095 20.2725Z"
            fill="#86A2C8" />
        <path
            d="M29.7383 6.53809C29.7779 6.63251 29.8175 6.72693 29.8583 6.82422C30.0169 7.17774 30.0169 7.17774 30.4766 7.27649C30.7757 7.86362 30.9197 8.23718 30.9197 8.90099C30.4766 8.75331 30.4766 8.75331 30.1813 8.45795C30.1569 8.28433 30.1326 8.11071 30.1075 7.93183C30.0831 7.76431 30.0587 7.59678 30.0336 7.42418C29.9362 7.37544 29.8387 7.32671 29.7383 7.27649C29.7383 7.03282 29.7383 6.78914 29.7383 6.53809Z"
            fill="#616CA2" />
        <path
            d="M23.6828 1.51758C24.5157 1.68991 25.0702 1.89359 25.7502 2.40367C25.7015 2.54987 25.6528 2.69608 25.6026 2.84671C25.5276 2.8075 25.4526 2.76828 25.3753 2.72788C24.7723 2.41847 24.1868 2.15613 23.5352 1.96062C23.5839 1.81442 23.6326 1.66821 23.6828 1.51758Z"
            fill="#5D6397" />
        <path
            d="M11.4259 17.4668C11.6355 17.886 11.5322 18.1621 11.4536 18.6206C11.4283 18.7738 11.403 18.9271 11.3769 19.085C11.1537 20.102 11.1537 20.102 10.8352 20.4204C10.54 20.4265 10.2445 20.4267 9.94922 20.4204C10.0642 20.3207 10.1792 20.2209 10.2976 20.1181C10.7448 19.618 10.8603 19.2578 11.0198 18.6113C11.2701 17.6227 11.2701 17.6227 11.4259 17.4668Z"
            fill="#6D87B2" />
        <path
            d="M14.8237 11.1163C14.8237 11.2137 14.8237 11.3112 14.8237 11.4116C14.13 11.7372 13.5335 11.9566 12.7563 12.0024C12.6588 11.9049 12.5614 11.8074 12.4609 11.707C12.5097 11.5608 12.5584 11.4146 12.6086 11.2639C12.8279 11.4102 12.8279 11.4102 13.0516 11.5593C13.1978 11.4618 13.344 11.3644 13.4946 11.2639C13.9667 11.1066 14.3301 11.1053 14.8237 11.1163Z"
            fill="#4E649E" />
        <path
            d="M8.32486 1.51758C8.32486 1.61505 8.32486 1.71252 8.32486 1.81294C8.00506 2.09221 7.64491 2.31723 7.29117 2.55135C7.16325 2.63664 7.03533 2.72192 6.90353 2.80979C6.53713 3.00265 6.22264 3.08376 5.81445 3.14208C5.81445 3.04461 5.81445 2.94714 5.81445 2.84671C6.00938 2.84671 6.20431 2.84671 6.40514 2.84671C6.40514 2.74924 6.40514 2.65177 6.40514 2.55135C6.61569 2.33387 6.61569 2.33387 6.8943 2.09908C6.9851 2.02121 7.0759 1.94335 7.16945 1.86313C7.5593 1.57678 7.84333 1.51758 8.32486 1.51758Z"
            fill="#555A97" />
        <path
            d="M27.6705 27.3613C27.768 27.5075 27.8654 27.6537 27.9658 27.8044C27.884 27.8739 27.8021 27.9433 27.7178 28.0149C27.6108 28.1069 27.5038 28.1988 27.3936 28.2936C27.2874 28.3844 27.1812 28.4752 27.0717 28.5687C26.7561 28.8442 26.7561 28.8442 26.4891 29.2812C26.1753 29.3827 26.1753 29.3827 25.8984 29.4289C25.9261 29.0874 25.9261 29.0874 26.0461 28.6905C26.4737 28.3641 26.6858 28.2474 27.2275 28.2474C27.2762 28.0525 27.3249 27.8575 27.3752 27.6567C27.4726 27.6567 27.5701 27.6567 27.6705 27.6567C27.6705 27.5592 27.6705 27.4618 27.6705 27.3613Z"
            fill="#5B85B0" />
        <path
            d="M19.6953 20.125C19.8141 20.1707 19.9329 20.2164 20.0553 20.2635C20.6733 20.4478 21.2699 20.514 21.9104 20.568C21.9104 20.6655 21.9104 20.763 21.9104 20.8634C21.6245 20.8962 21.3383 20.9265 21.052 20.9557C20.813 20.9814 20.813 20.9814 20.5692 21.0076C20.1383 21.0111 20.1383 21.0111 19.6953 20.7157C19.6953 20.5208 19.6953 20.3258 19.6953 20.125Z"
            fill="#5373A6" />
        <path
            d="M15.7091 18.3525C15.8752 18.9063 15.8752 18.9063 15.7091 19.2386C15.904 19.1899 16.0989 19.1412 16.2997 19.0909C16.1917 19.2894 16.0803 19.4859 15.9675 19.6817C15.875 19.8462 15.875 19.8462 15.7806 20.014C15.7083 20.0992 15.6359 20.1845 15.5614 20.2724C15.3665 20.2724 15.1715 20.2724 14.9707 20.2724C15.0378 20.063 15.1056 19.8538 15.1738 19.6448C15.2303 19.47 15.2303 19.47 15.288 19.2917C15.4066 18.963 15.5462 18.6613 15.7091 18.3525Z"
            fill="#6B85B2" />
        <path
            d="M4.92984 3.28906C5.03078 3.54981 5.03078 3.54981 5.07751 3.87979C4.89811 4.16362 4.89811 4.16362 4.64372 4.4336C4.56016 4.52421 4.47659 4.61483 4.39049 4.70819C4.32482 4.77596 4.25914 4.84374 4.19148 4.91356C4.14275 4.81609 4.09402 4.71862 4.04381 4.6182C3.75142 4.7644 3.75142 4.7644 3.45312 4.91356C3.50186 4.76736 3.55059 4.62115 3.6008 4.47052C3.69826 4.47052 3.79572 4.47052 3.89614 4.47052C3.92964 4.38523 3.96314 4.29994 3.99766 4.21207C4.24027 3.79615 4.5452 3.5725 4.92984 3.28906Z"
            fill="#7077A7" />
        <path
            d="M12.461 15.3994C12.5097 15.5456 12.5585 15.6918 12.6087 15.8425C12.7549 15.745 12.9011 15.6475 13.0517 15.5471C12.9636 16.0407 12.7953 16.3541 12.461 16.7286C12.3635 16.7286 12.2661 16.7286 12.1657 16.7286C12.1657 16.826 12.1657 16.9235 12.1657 17.0239C12.0195 17.0239 11.8733 17.0239 11.7227 17.0239C11.9036 16.4254 12.1212 15.9246 12.461 15.3994Z"
            fill="#6675AA" />
        <path
            d="M2.71484 26.0322C2.97327 26.0507 2.97327 26.0507 3.30553 26.1799C3.5107 26.4696 3.70809 26.765 3.89621 27.066C3.99368 27.1147 4.09114 27.1635 4.19156 27.2137C4.28385 27.5921 4.28385 27.5921 4.33923 27.9521C3.5869 27.598 3.14385 27.022 2.71484 26.3276C2.71484 26.2301 2.71484 26.1327 2.71484 26.0322Z"
            fill="#5F80AD" />
        <path
            d="M2.86259 5.65234C2.96005 5.65234 3.05752 5.65234 3.15793 5.65234C3.1092 5.99349 3.06047 6.33463 3.01026 6.68612C2.86407 6.73485 2.71787 6.78359 2.56725 6.8338C2.51852 6.98 2.46978 7.12621 2.41958 7.27684C2.27338 7.32558 2.12719 7.37431 1.97656 7.42453C2.03583 6.59466 2.29845 6.23029 2.86259 5.65234Z"
            fill="#63669D" />
        <path
            d="M14.5274 13.4795C14.5762 13.4795 14.6249 13.4795 14.6751 13.4795C14.9227 14.862 14.7221 15.7793 14.0844 17.0239C13.8919 16.4847 13.9864 16.127 14.1398 15.584C14.3292 14.8782 14.4576 14.2061 14.5274 13.4795Z"
            fill="#C1D0E2" />
        <path
            d="M18.8107 13.332C18.8594 13.4295 18.9082 13.527 18.9584 13.6274C18.7738 14.1535 18.7738 14.1535 18.5154 14.6612C18.3692 14.7099 18.223 14.7586 18.0723 14.8088C17.8204 15.0491 17.5735 15.2947 17.334 15.5473C17.5735 15.0178 17.894 14.574 18.2385 14.1074C18.3455 13.9619 18.4524 13.8165 18.5627 13.6666C18.6445 13.5562 18.7264 13.4458 18.8107 13.332Z"
            fill="#7487B0" />
        <path
            d="M6.9959 1.8125C6.9959 1.9587 6.9959 2.10491 6.9959 2.25555C6.70351 2.40175 6.70351 2.40175 6.40521 2.55091C6.40521 2.64838 6.40521 2.74585 6.40521 2.84627C6.21029 2.84627 6.01536 2.84627 5.81453 2.84627C5.81453 2.94374 5.81453 3.04121 5.81453 3.14164C5.57087 3.19037 5.32721 3.23911 5.07617 3.28932C5.07617 3.19185 5.07617 3.09438 5.07617 2.99395C5.3926 2.77748 5.70629 2.57879 6.03604 2.38477C6.1276 2.32975 6.21916 2.27473 6.3135 2.21805C6.54039 2.0819 6.76807 1.94708 6.9959 1.8125Z"
            fill="#7B7FA9" />
        <path
            d="M14.5544 11.5411C14.8331 11.5502 14.8331 11.5502 15.1174 11.5596C14.9712 11.6327 14.9712 11.6327 14.8221 11.7073C14.8221 11.8047 14.8221 11.9022 14.8221 12.0026C14.733 12.0205 14.6439 12.0384 14.5521 12.0568C14.4341 12.0816 14.3161 12.1063 14.1945 12.1318C14.0197 12.1678 14.0197 12.1678 13.8414 12.2045C13.4977 12.2967 13.2139 12.4233 12.9023 12.5933C13.726 11.5139 13.726 11.5139 14.5544 11.5411Z"
            fill="#D2E0F0" />
        <path
            d="M13.4934 18.7959C13.5421 18.7959 13.5908 18.7959 13.641 18.7959C13.641 18.933 13.641 19.07 13.641 19.2113C13.7332 19.691 13.7332 19.691 14.0616 19.8395C14.3622 19.9492 14.6604 20.0446 14.9701 20.125C14.9701 20.1738 14.9701 20.2225 14.9701 20.2727C14.7843 20.2788 14.5985 20.2849 14.4071 20.2912C14.3026 20.2946 14.1981 20.298 14.0904 20.3016C13.7887 20.2727 13.7887 20.2727 13.3457 19.9774C13.3944 19.5875 13.4432 19.1976 13.4934 18.7959Z"
            fill="#CFDFF5" />
        <path
            d="M22.7966 17.4668C22.8976 17.7275 22.8976 17.7275 22.9443 18.0575C22.7649 18.3413 22.7649 18.3413 22.5105 18.6113C22.4269 18.7019 22.3434 18.7926 22.2573 18.8859C22.1587 18.9876 22.1587 18.9876 22.0582 19.0913C21.9121 18.9938 21.7659 18.8964 21.6152 18.7959C21.7127 18.7959 21.8102 18.7959 21.9106 18.7959C21.9471 18.7137 21.9837 18.6315 22.0213 18.5467C22.2378 18.1462 22.5057 17.8159 22.7966 17.4668Z"
            fill="#D2DEF1" />
        <path
            d="M10.3924 0.926894C10.2696 0.985719 10.2696 0.985719 10.1443 1.04573C9.98387 1.12397 9.98387 1.12397 9.82016 1.2038C9.71394 1.2552 9.60772 1.3066 9.49828 1.35956C9.18866 1.51254 9.18866 1.51254 8.91567 1.81298C8.76948 1.81298 8.62328 1.81298 8.47266 1.81298C8.57012 1.61804 8.66758 1.4231 8.768 1.22226C8.86546 1.22226 8.96292 1.22226 9.06334 1.22226C9.06334 1.12479 9.06334 1.02732 9.06334 0.926894C9.57048 0.800099 9.89278 0.782769 10.3924 0.926894Z"
            fill="#565C98" />
        <path
            d="M25.4561 29.8721C25.3545 30.1582 25.3545 30.1582 25.1607 30.4628C24.7731 30.5736 24.7731 30.5736 24.4224 30.6105C24.4224 30.7079 24.4224 30.8054 24.4224 30.9058C24.0813 30.9058 23.7401 30.9058 23.3887 30.9058C23.7132 30.5812 23.8576 30.5427 24.2932 30.4443C24.482 30.4017 24.6708 30.3591 24.8654 30.3151C24.8654 30.2176 24.8654 30.1202 24.8654 30.0198C25.1607 29.8721 25.1607 29.8721 25.4561 29.8721Z"
            fill="#CDE4F1" />
        <path
            d="M25.6025 28.8379C25.8949 28.8379 26.1873 28.8379 26.4885 28.8379C26.2936 28.8866 26.0987 28.9354 25.8978 28.9856C25.8978 29.1318 25.8978 29.278 25.8978 29.4286C25.0938 29.6479 25.0938 29.6479 24.2734 29.8717C24.3222 29.7255 24.3709 29.5793 24.4211 29.4286C24.9328 29.3555 24.9328 29.3555 25.4548 29.2809C25.5035 29.1347 25.5523 28.9885 25.6025 28.8379Z"
            fill="#4577B0" />
        <path
            d="M9.21094 31.0538C10.6005 30.9993 10.6005 30.9993 11.2783 31.3492C11.2783 31.4467 11.2783 31.5441 11.2783 31.6446C10.5445 31.5686 9.90643 31.4623 9.21094 31.2015C9.21094 31.1528 9.21094 31.104 9.21094 31.0538Z"
            fill="#6389AF" />
        <path
            d="M26.7852 27.5088C26.8827 27.5088 26.9802 27.5088 27.0806 27.5088C27.0806 27.6063 27.0806 27.7037 27.0806 27.8042C27.178 27.8529 27.2755 27.9016 27.3759 27.9518C27.1361 28.4314 26.6739 28.4985 26.1945 28.6902C26.1458 28.5928 26.0971 28.4953 26.0469 28.3949C26.1945 28.0995 26.1945 28.0995 26.6376 27.9518C26.6863 27.8056 26.735 27.6594 26.7852 27.5088Z"
            fill="#4378BA" />
        <path
            d="M0.204006 19.9775C0.252737 20.1725 0.301469 20.3674 0.351677 20.5683C0.44914 20.5683 0.546603 20.5683 0.64702 20.5683C0.744483 21.2993 0.841946 22.0303 0.942362 22.7835C0.258871 22.1 0.218098 21.2723 0.185547 20.3283C0.191638 20.2125 0.19773 20.0968 0.204006 19.9775Z"
            fill="#8FA5C4" />
        <path
            d="M16.4478 16.7285C16.4478 17.2439 16.3143 17.4839 16.0786 17.9377C16.0101 18.0707 15.9415 18.2038 15.8709 18.3409C15.8176 18.4424 15.7643 18.5438 15.7094 18.6484C15.6119 18.5996 15.5145 18.5509 15.4141 18.5007C15.4597 18.388 15.5054 18.2753 15.5525 18.1592C15.662 17.8822 15.7629 17.6018 15.8571 17.3192C15.9545 17.3192 16.052 17.3192 16.1524 17.3192C16.1524 17.173 16.1524 17.0268 16.1524 16.8762C16.2499 16.8275 16.3473 16.7787 16.4478 16.7285Z"
            fill="#D6E8F4" />
        <path
            d="M19.6962 13.1836C19.7449 13.1836 19.7936 13.1836 19.8438 13.1836C19.8926 13.5735 19.9413 13.9634 19.9915 14.365C19.8453 14.4382 19.8453 14.4382 19.6962 14.5127C19.6231 14.6955 19.6231 14.6955 19.5485 14.8819C19.4008 15.2511 19.4008 15.2511 19.1055 15.3988C19.176 15.1126 19.2468 14.8265 19.3177 14.5404C19.3572 14.3811 19.3966 14.2217 19.4372 14.0576C19.5132 13.7634 19.6001 13.4719 19.6962 13.1836Z"
            fill="#C7D3E9" />
        <path
            d="M13.6411 13.627C13.7386 13.6757 13.836 13.7244 13.9365 13.7746C13.617 14.5261 13.3911 15.0508 12.6074 15.3991C12.8373 14.7093 13.2106 14.2048 13.6411 13.627Z"
            fill="#65789F" />
        <path
            d="M18.8098 13.9229C18.9072 13.9229 19.0047 13.9229 19.1051 13.9229C19.1051 14.1178 19.1051 14.3127 19.1051 14.5136C19.2026 14.5623 19.3 14.611 19.4005 14.6613C19.303 14.9537 19.2055 15.2461 19.1051 15.5474C18.8098 15.252 18.8098 15.252 18.8006 14.8828C18.8036 14.7609 18.8066 14.6391 18.8098 14.5136C18.761 14.4161 18.7123 14.3186 18.6621 14.2182C18.7108 14.1207 18.7596 14.0233 18.8098 13.9229Z"
            fill="#5A6DA9" />
        <path
            d="M16.1523 12.5938C16.396 12.7887 16.6397 12.9836 16.8907 13.1845C16.6958 13.5256 16.5008 13.8668 16.3 14.2182C16.2513 14.2182 16.2026 14.2182 16.1523 14.2182C16.1523 13.6822 16.1523 13.1461 16.1523 12.5938Z"
            fill="#6A80A0" />
        <path
            d="M12.3122 12.0029C12.4583 12.0517 12.6045 12.1004 12.7552 12.1506C12.6701 12.5029 12.5747 12.8398 12.4598 13.1844C12.1553 13.3598 12.1553 13.3598 11.8691 13.4797C11.9179 13.1873 11.9666 12.8949 12.0168 12.5937C12.1143 12.5937 12.2117 12.5937 12.3122 12.5937C12.3122 12.3987 12.3122 12.2038 12.3122 12.0029Z"
            fill="#6E7797" />
        <path
            d="M10.3931 19.3867C10.5393 19.3867 10.6855 19.3867 10.8361 19.3867C10.7346 19.7467 10.7346 19.7467 10.5407 20.1251C10.1808 20.2636 10.1808 20.2636 9.80239 20.2728C9.65619 20.1753 9.51 20.0779 9.35938 19.9774C9.60303 19.9774 9.84669 19.9774 10.0977 19.9774C10.0977 19.88 10.0977 19.7825 10.0977 19.6821C10.1952 19.6821 10.2927 19.6821 10.3931 19.6821C10.3931 19.5846 10.3931 19.4871 10.3931 19.3867Z"
            fill="#DEEDFA" />
        <path
            d="M1.82736 24.4082C1.87609 24.5544 1.92482 24.7006 1.97503 24.8512C2.12122 24.9 2.26742 24.9487 2.41804 24.9989C2.41804 25.1451 2.41804 25.2913 2.41804 25.442C2.56424 25.4907 2.71043 25.5394 2.86106 25.5897C2.71486 25.809 2.71486 25.809 2.56572 26.0327C2.41314 25.8465 2.26281 25.6585 2.11347 25.4697C1.98755 25.3129 1.98755 25.3129 1.85909 25.153C1.79988 25.0534 1.74068 24.9538 1.67969 24.8512C1.72842 24.705 1.77715 24.5588 1.82736 24.4082Z"
            fill="#6182AF" />
        <path
            d="M8.91644 18.2051C8.96517 18.2051 9.0139 18.2051 9.06411 18.2051C9.06411 18.7899 9.06411 19.3747 9.06411 19.9773C9.16157 20.026 9.25903 20.0747 9.35945 20.1249C9.11579 20.1737 8.87213 20.2224 8.62109 20.2726C8.71856 19.5903 8.81602 18.908 8.91644 18.2051Z"
            fill="#7A91BC" />
        <path
            d="M20.582 16.7285C20.6308 16.7285 20.6795 16.7285 20.7297 16.7285C20.7584 17.0176 20.7859 17.3069 20.8128 17.5961C20.8282 17.7572 20.8436 17.9183 20.8595 18.0842C20.8774 18.5007 20.8774 18.5007 20.7297 18.7961C20.6322 18.7473 20.5348 18.6986 20.4344 18.6484C20.4231 17.9814 20.4193 17.3797 20.582 16.7285Z"
            fill="#7482AD" />
        <path
            d="M9.06426 0.926758C9.06426 1.02423 9.06426 1.1217 9.06426 1.22212C8.4507 1.7015 7.89684 1.74909 7.14453 1.81285C7.4649 1.45429 7.73522 1.28036 8.18746 1.12059C8.28968 1.08347 8.3919 1.04635 8.49722 1.0081C8.76892 0.926758 8.76892 0.926758 9.06426 0.926758Z"
            fill="#878AB5" />
        <path
            d="M16.7434 13.1836C16.8542 13.4236 16.8542 13.4236 16.8911 13.7743C16.6235 14.2543 16.6235 14.2543 16.3004 14.6604C16.203 14.6604 16.1055 14.6604 16.0051 14.6604C15.9564 14.7579 15.9076 14.8554 15.8574 14.9558C15.9062 14.6146 15.9549 14.2735 16.0051 13.922C16.1513 13.8733 16.2975 13.8245 16.4481 13.7743C16.6266 13.4789 16.6266 13.4789 16.7434 13.1836Z"
            fill="#C0C5D3" />
        <path
            d="M23.8305 17.1719C23.928 17.2206 24.0254 17.2693 24.1258 17.3196C24.1258 17.612 24.1258 17.9044 24.1258 18.2056C24.2233 18.2544 24.3208 18.3031 24.4212 18.3533C24.3237 18.3533 24.2263 18.3533 24.1258 18.3533C24.0771 18.597 24.0284 18.8407 23.9782 19.0917C23.9294 18.9943 23.8807 18.8968 23.8305 18.7964C23.733 18.7476 23.6356 18.6989 23.5352 18.6487C23.6326 18.5025 23.7301 18.3563 23.8305 18.2056C23.8422 17.8613 23.8435 17.5162 23.8305 17.1719Z"
            fill="#6D88B2" />
        <path
            d="M22.9453 16.5803C23.4437 16.5526 23.4437 16.5526 23.979 16.5803C24.3172 17.0877 24.3007 17.3166 24.2744 17.9095C24.0775 17.5157 23.8806 17.1218 23.6837 16.728C23.4887 16.728 23.2938 16.728 23.093 16.728C23.0443 16.8255 22.9955 16.923 22.9453 17.0234C22.9453 16.8772 22.9453 16.731 22.9453 16.5803Z"
            fill="#526DA3" />
        <path
            d="M13.3461 13.332C13.736 13.332 14.1258 13.332 14.5275 13.332C13.9737 13.6274 13.9737 13.6274 13.6415 13.6274C13.5988 13.7188 13.5562 13.8102 13.5123 13.9043C13.3461 14.2181 13.3461 14.2181 13.0508 14.5135C13.0508 14.3185 13.0508 14.1236 13.0508 13.9228C13.1482 13.9228 13.2457 13.9228 13.3461 13.9228C13.3461 13.7278 13.3461 13.5329 13.3461 13.332Z"
            fill="#D0DCE9" />
        <path
            d="M11.5743 11.375C12.0173 11.4119 12.0173 11.4119 12.3127 11.7073C12.3311 12.1688 12.3311 12.1688 12.3127 12.5934C12.2639 12.5934 12.2152 12.5934 12.165 12.5934C12.165 12.3497 12.165 12.106 12.165 11.855C11.7264 11.8062 11.2878 11.7575 10.8359 11.7073C11.1313 11.4119 11.1313 11.4119 11.5743 11.375Z"
            fill="#B0BDDC" />
        <path
            d="M30.1816 7.12891C30.6684 7.37233 30.7366 7.81857 30.92 8.31036C30.92 8.5053 30.92 8.70024 30.92 8.90109C30.7738 8.85235 30.6276 8.80362 30.477 8.75341C30.3795 8.21732 30.2821 7.68124 30.1816 7.12891Z"
            fill="#939DC5" />
        <path
            d="M1.82897 7.12891C2.06529 7.60158 1.83365 7.97405 1.6813 8.45804C1.5351 8.45804 1.38891 8.45804 1.23828 8.45804C1.49671 7.46119 1.49671 7.46119 1.82897 7.12891Z"
            fill="#747FAE" />
        <path
            d="M3.74847 4.61816C3.84593 4.61816 3.94339 4.61816 4.04381 4.61816C4.09254 4.91057 4.14127 5.20298 4.19148 5.50425C3.94782 5.50425 3.70417 5.50425 3.45312 5.50425C3.58234 4.78431 3.58234 4.78431 3.74847 4.61816Z"
            fill="#545C9F" />
        <path
            d="M23.2402 16.876C23.4352 16.9247 23.6301 16.9734 23.8309 17.0237C23.9751 17.9178 23.9751 17.9178 23.9786 18.2051C23.8811 18.3026 23.7837 18.4001 23.6832 18.5005C23.6832 18.1106 23.6832 17.7207 23.6832 17.319C23.5371 17.2703 23.3909 17.2216 23.2402 17.1713C23.2402 17.0739 23.2402 16.9764 23.2402 16.876Z"
            fill="#CDE2F4" />
        <path
            d="M14.2321 14.9561C14.3244 15.2237 14.3244 15.2237 14.3797 15.5468C14.0844 15.9898 14.0844 15.9898 13.7891 16.1375C13.7891 15.7964 13.7891 15.4552 13.7891 15.1037C13.9353 15.055 14.0815 15.0063 14.2321 14.9561Z"
            fill="#5E76A6" />
        <path
            d="M11.2783 0.483154C10.7932 0.806568 10.5649 0.830615 9.99544 0.870818C9.77529 0.887381 9.77529 0.887381 9.5507 0.904277C9.38252 0.915129 9.38252 0.915129 9.21094 0.926199C9.84049 0.50647 10.5347 0.185677 11.2783 0.483154Z"
            fill="#8082AD" />
        <path
            d="M31.2153 20.8633C31.3127 20.8633 31.4102 20.8633 31.5106 20.8633C31.4131 21.3506 31.3157 21.838 31.2153 22.3401C31.1178 22.2914 31.0203 22.2426 30.9199 22.1924C31.0174 21.7538 31.1148 21.3152 31.2153 20.8633Z"
            fill="#5A78AA" />
        <path
            d="M10.2446 12.1504C10.5399 12.5934 10.5399 12.5934 10.5122 12.9626C10.3857 13.352 10.2608 13.5175 9.94922 13.7749C10.0969 12.6778 10.0969 12.6778 10.2446 12.1504Z"
            fill="#D6E0F1" />
        <path
            d="M3.45167 4.91406C3.45167 5.15774 3.45167 5.40141 3.45167 5.65247C3.27806 5.72101 3.27806 5.72101 3.10095 5.79092C2.72464 5.93731 2.72464 5.93731 2.41797 6.09552C2.5888 5.69688 2.95173 4.91406 3.45167 4.91406Z"
            fill="#8383B1" />
        <path
            d="M25.8984 2.69824C26.4063 2.88166 26.8217 3.07592 27.2275 3.43665C27.2275 3.53412 27.2275 3.63159 27.2275 3.73201C27.0326 3.73201 26.8376 3.73201 26.6368 3.73201C26.5881 3.58581 26.5393 3.4396 26.4891 3.28897C26.3429 3.24023 26.1967 3.1915 26.0461 3.14129C25.9974 2.99508 25.9486 2.84888 25.8984 2.69824Z"
            fill="#63689E" />
        <path
            d="M23.6828 1.51758C24.1214 1.59068 24.1214 1.59068 24.5689 1.66526C24.6176 1.8602 24.6663 2.05514 24.7165 2.25599C24.3267 2.15852 23.9368 2.06105 23.5352 1.96062C23.5839 1.81442 23.6326 1.66821 23.6828 1.51758Z"
            fill="#565995" />
        <path
            d="M9.35938 31.2012C9.56878 31.2432 9.77793 31.2866 9.98698 31.3304C10.1035 31.3544 10.22 31.3784 10.34 31.4031C10.6884 31.4965 10.6884 31.4965 11.2791 31.7919C10.6943 31.7432 10.1095 31.6944 9.50705 31.6442C9.45831 31.498 9.40958 31.3518 9.35938 31.2012Z"
            fill="#C8E0F1" />
        <path
            d="M30.0329 23.9648C30.2082 24.2048 30.2082 24.2048 30.3282 24.5556C30.1252 25.0355 30.1252 25.0355 29.8852 25.4417C29.7877 25.2955 29.6903 25.1493 29.5898 24.9986C29.7929 24.454 29.7929 24.454 30.0329 23.9648Z"
            fill="#5980AD" />
        <path
            d="M22.207 0.926758C22.402 0.926758 22.5969 0.926758 22.7977 0.926758C22.7977 1.02423 22.7977 1.1217 22.7977 1.22212C23.0414 1.27086 23.285 1.31959 23.5361 1.3698C23.045 1.5335 22.7059 1.49453 22.207 1.3698C22.207 1.2236 22.207 1.07739 22.207 0.926758Z"
            fill="#525795" />
        <path
            d="M2.12347 25.4414C2.31839 25.6363 2.51332 25.8313 2.71415 26.0321C2.66542 26.1296 2.61669 26.2271 2.56648 26.3275C2.32282 26.2788 2.07917 26.23 1.82812 26.1798C1.95734 25.6075 1.95734 25.6075 2.12347 25.4414Z"
            fill="#D7E6F2" />
        <path
            d="M18.0712 14.6611C18.1686 14.7586 18.2661 14.8561 18.3665 14.9565C18.1634 15.2519 18.1634 15.2519 17.9235 15.5472C17.826 15.5472 17.7286 15.5472 17.6281 15.5472C17.5794 15.6934 17.5307 15.8396 17.4805 15.9903C17.5588 15.426 17.7015 15.0951 18.0712 14.6611Z"
            fill="#4E66A0" />
        <path
            d="M2.71492 6.39062C2.81238 6.48809 2.90984 6.58556 3.01026 6.68599C2.86407 6.63725 2.71787 6.58852 2.56725 6.53831C2.61598 6.48957 2.66471 6.44084 2.71492 6.39062ZM2.12423 6.68599C2.27043 6.73472 2.41662 6.78346 2.56725 6.83367C2.51852 6.97988 2.46978 7.12608 2.41958 7.27672C2.27338 7.32545 2.12719 7.37419 1.97656 7.4244C2.02529 7.18072 2.07403 6.93705 2.12423 6.68599Z"
            fill="#515F99" />
        <path
            d="M28.4082 4.7666C28.5057 4.7666 28.6031 4.7666 28.7035 4.7666C28.7035 4.86407 28.7035 4.96154 28.7035 5.06197C28.801 5.06197 28.8985 5.06197 28.9989 5.06197C29.0912 5.41271 29.0912 5.41271 29.1466 5.80037C29.0491 5.89784 28.9516 5.99531 28.8512 6.09574C28.6682 5.65652 28.5115 5.23141 28.4082 4.7666Z"
            fill="#7684B1" />
        <path
            d="M4.634 27.9521C4.73146 27.9521 4.82893 27.9521 4.92934 27.9521C4.92934 28.0496 4.92934 28.1471 4.92934 28.2475C5.07554 28.2962 5.22173 28.345 5.37236 28.3952C5.22616 28.6145 5.22616 28.6145 5.07701 28.8382C4.88209 28.6433 4.68716 28.4484 4.48633 28.2475C4.53506 28.15 4.58379 28.0526 4.634 27.9521Z"
            fill="#5B83AB" />
        <path
            d="M16.0043 18.0576C16.1018 18.0576 16.1993 18.0576 16.2997 18.0576C16.2261 18.6022 16.1371 18.8854 15.709 19.2391C15.8382 18.2238 15.8382 18.2238 16.0043 18.0576Z"
            fill="#52699C" />
        <path
            d="M12.1641 13.1836C12.1641 13.3298 12.1641 13.476 12.1641 13.6266C12.0667 13.6266 11.9692 13.6266 11.8688 13.6266C11.8201 13.8216 11.7713 14.0165 11.7211 14.2174C11.6237 14.2174 11.5262 14.2174 11.4258 14.2174C11.4627 13.8666 11.4627 13.8666 11.5735 13.479C11.878 13.2851 11.878 13.2851 12.1641 13.1836Z"
            fill="#BDC1C5" />
        <path
            d="M0.794419 9.34473C0.891882 9.4422 0.989345 9.53967 1.08976 9.64009C1.05284 10.0185 1.05284 10.0185 0.94209 10.3785C0.795896 10.4516 0.795896 10.4516 0.646748 10.5262C0.628289 9.67701 0.628289 9.67701 0.794419 9.34473Z"
            fill="#6474A9" />
    </g>
    <defs>
        <clipPath id="clip0_4967_500">
            <rect width="32" height="32" fill="white" />
        </clipPath>
    </defs>
</svg>