<svg width="32" height="32" viewBox="0 0 32 32" fill="none" xmlns="http://www.w3.org/2000/svg">
    <g clip-path="url(#clip0_5359_299)">
        <path fill-rule="evenodd" clip-rule="evenodd"
            d="M-0.0800781 -0.0800781C10.5866 -0.0800781 21.2532 -0.0800781 31.9199 -0.0800781C31.9199 10.5866 31.9199 21.2532 31.9199 31.9199C21.2532 31.9199 10.5866 31.9199 -0.0800781 31.9199C-0.0800781 21.2532 -0.0800781 10.5866 -0.0800781 -0.0800781Z"
            fill="#FDFDFE" />
        <path fill-rule="evenodd" clip-rule="evenodd"
            d="M23.9199 4.23984C23.7599 4.23984 23.5999 4.23984 23.4399 4.23984C23.3292 4.94241 23.1692 5.63576 22.9599 6.31984C22.4964 6.99379 22.1764 7.74044 21.9999 8.55984C21.6938 9.0506 21.4804 9.58393 21.3599 10.1598C21.1135 10.534 21.0069 10.9606 21.0399 11.4398C20.5381 12.0337 20.2181 12.727 20.0799 13.5198C19.8124 13.9515 19.6257 14.4315 19.5199 14.9598C18.8191 15.7996 18.1258 15.7996 17.4399 14.9598C17.346 14.3502 17.426 13.7635 17.6799 13.1998C18.0861 12.1941 18.4594 11.1808 18.7999 10.1598C18.9877 9.99764 19.0943 9.78432 19.1199 9.51984C19.1199 9.41316 19.1199 9.30651 19.1199 9.19984C19.5895 8.61036 19.8562 7.91704 19.9199 7.11984C20.4081 6.0876 20.8615 5.02092 21.2799 3.91984C21.7453 3.45681 22.3053 3.32348 22.9599 3.51984C23.3093 3.73798 23.6293 3.97798 23.9199 4.23984Z"
            fill="#3872B5" />
        <path fill-rule="evenodd" clip-rule="evenodd"
            d="M14.9598 5.04019C15.6552 5.01367 16.3485 5.04035 17.0398 5.12019C18.0109 5.65747 18.9174 6.27079 19.7598 6.96019C19.6209 7.73476 19.4075 8.48143 19.1198 9.20019C19.1198 9.30686 19.1198 9.41351 19.1198 9.52019C17.5429 9.61348 15.8896 9.69348 14.1598 9.76019C13.8499 9.77964 13.6366 9.91299 13.5198 10.1602C12.9197 10.3958 12.333 10.6625 11.7598 10.9602C11.5865 10.9539 11.4265 10.9005 11.2798 10.8002C11.2528 10.9436 11.1994 11.1036 11.1198 11.2802C11.0105 11.2222 10.9038 11.1688 10.7998 11.1202C10.3304 10.6893 10.3837 10.3427 10.9598 10.0802C10.6932 9.92019 10.4798 9.70686 10.3198 9.44019C10.6537 9.47505 10.9737 9.44838 11.2798 9.36019C11.1732 9.25351 11.0665 9.14686 10.9598 9.04019C11.1397 8.81395 11.2997 8.57395 11.4398 8.32019C11.8697 8.26566 12.1897 8.05231 12.3998 7.68019C11.9994 7.43228 11.9994 7.16561 12.3998 6.88019C12.8979 6.53879 13.3245 6.61879 13.6798 7.12019C13.7332 7.06686 13.7865 7.01351 13.8398 6.96019C13.6798 6.74686 13.5198 6.53351 13.3598 6.32019C13.632 6.36985 13.8987 6.28985 14.1598 6.08019C13.7772 5.96956 13.7772 5.80956 14.1598 5.60019C14.4798 5.54686 14.7998 5.49351 15.1198 5.44019C14.9994 5.33286 14.9461 5.19953 14.9598 5.04019Z"
            fill="#EB1C5D" />
        <path fill-rule="evenodd" clip-rule="evenodd"
            d="M23.92 4.24023C25.1252 4.88335 26.272 5.63001 27.36 6.48023C27.5841 7.71297 27.0774 8.27297 25.84 8.16023C24.9025 7.50526 23.9425 6.89193 22.96 6.32023C23.1692 5.63615 23.3292 4.94281 23.44 4.24023C23.6 4.24023 23.76 4.24023 23.92 4.24023Z"
            fill="#2156A5" />
        <path fill-rule="evenodd" clip-rule="evenodd"
            d="M19.7601 6.95996C19.8668 6.95996 19.9201 7.01329 19.9201 7.11996C19.8564 7.91716 19.5897 8.61049 19.1201 9.19996C19.4078 8.48121 19.6212 7.73454 19.7601 6.95996Z"
            fill="#BC3779" />
        <path fill-rule="evenodd" clip-rule="evenodd"
            d="M21.9999 8.56006C22.1066 8.56006 22.1599 8.61339 22.1599 8.72006C21.9216 9.22683 21.6551 9.70683 21.3599 10.1601C21.4803 9.58415 21.6938 9.05083 21.9999 8.56006Z"
            fill="#8A376D" />
        <path fill-rule="evenodd" clip-rule="evenodd"
            d="M22.16 8.72021C22.8634 9.12423 23.5034 9.60423 24.08 10.1602C23.9067 10.1539 23.7467 10.1006 23.6 10.0002C23.4855 10.3173 23.2987 10.584 23.04 10.8002C22.9291 11.4939 22.7424 12.1606 22.48 12.8002C22.6003 12.9075 22.6538 13.0409 22.64 13.2002C22.1112 12.6177 21.5779 12.031 21.04 11.4402C21.0071 10.961 21.1136 10.5343 21.36 10.1602C21.6552 9.70698 21.9218 9.22698 22.16 8.72021Z"
            fill="#AE1A49" />
        <path fill-rule="evenodd" clip-rule="evenodd"
            d="M19.12 9.52002C19.0944 9.7845 18.9879 9.99783 18.8 10.16C17.0376 9.75087 15.2776 9.75087 13.52 10.16C13.6368 9.91282 13.8501 9.77948 14.16 9.76002C15.8898 9.69332 17.5431 9.61332 19.12 9.52002Z"
            fill="#E14575" />
        <path fill-rule="evenodd" clip-rule="evenodd"
            d="M14.96 5.04004C14.9463 5.19938 14.9996 5.33271 15.12 5.44004C14.8 5.49337 14.48 5.54671 14.16 5.60004C13.7774 5.80942 13.7774 5.96942 14.16 6.08004C13.8989 6.2897 13.6322 6.3697 13.36 6.32004C13.52 6.53337 13.68 6.74671 13.84 6.96004C13.7867 7.01337 13.7334 7.06671 13.68 7.12004C13.3247 6.61865 12.8981 6.53865 12.4 6.88004C11.9996 7.16546 11.9996 7.43214 12.4 7.68004C12.1899 8.05217 11.8699 8.26551 11.44 8.32004C11.2999 8.5738 11.1399 8.8138 10.96 9.04004C11.0667 9.14671 11.1734 9.25337 11.28 9.36004C10.9739 9.44823 10.6539 9.4749 10.32 9.44004C10.48 9.70671 10.6934 9.92004 10.96 10.08C10.3839 10.3425 10.3306 10.6892 10.8 11.12C10.861 11.5107 10.7543 11.6174 10.48 11.44C10.3599 11.5802 10.2799 11.7402 10.24 11.92C10.0218 11.7987 9.83515 11.8787 9.68003 12.16C9.75321 12.2263 9.80654 12.3063 9.84003 12.4C9.44457 12.6234 9.0179 12.7568 8.56003 12.8C8.17968 13.2693 7.69967 13.4826 7.12003 13.44C7.33623 13.1813 7.60291 12.9946 7.92003 12.88C7.70355 12.6904 7.51687 12.4771 7.36003 12.24C6.86451 12.8573 6.22451 12.8573 5.44003 12.24C5.36489 12.0678 5.39156 11.9078 5.52003 11.76C8.31735 9.63151 11.144 7.52484 14 5.44004C14.3051 5.26052 14.6251 5.12719 14.96 5.04004Z"
            fill="#E42260" />
        <path fill-rule="evenodd" clip-rule="evenodd"
            d="M18.8002 10.1599C18.4597 11.1809 18.0864 12.1942 17.6802 13.1999C16.7324 13.563 16.3058 14.2564 16.4002 15.2799C16.4048 16.2757 16.7781 17.1023 17.5202 17.7599C17.9469 17.8666 18.3735 17.8666 18.8002 17.7599C19.2701 16.8474 19.9101 16.0741 20.7202 15.4399C20.8392 14.8762 20.6525 14.3962 20.1602 13.9999C20.0829 13.8482 20.0564 13.6882 20.0802 13.5199C20.2184 12.727 20.5384 12.0337 21.0402 11.4399C21.5781 12.0307 22.1114 12.6174 22.6402 13.1999C22.8015 13.5269 22.9615 13.8469 23.1202 14.1599C24.2967 14.4292 25.4701 14.8025 26.6402 15.2799C24.0228 17.3629 21.3562 19.3897 18.6402 21.3599C18.0381 21.3028 17.4514 21.1695 16.8802 20.9599C16.396 20.5287 15.9161 20.102 15.4402 19.6799C14.9156 18.6265 14.3556 17.5865 13.7602 16.5599C12.4805 15.4144 10.9605 14.801 9.2002 14.7199C9.30687 14.6666 9.41352 14.6132 9.5202 14.5599C9.37522 14.288 9.32189 13.9946 9.3602 13.6799C9.99092 12.6226 10.7909 11.7159 11.7602 10.9599C12.3334 10.6622 12.9201 10.3956 13.5202 10.1599C15.2778 9.75074 17.0378 9.75074 18.8002 10.1599Z"
            fill="#FCFCFD" />
        <path fill-rule="evenodd" clip-rule="evenodd"
            d="M24.08 10.16C25.6723 11.2192 27.2189 12.3392 28.72 13.52C28.5808 13.8038 28.3675 14.0171 28.08 14.16C27.7617 14.003 27.4417 13.843 27.12 13.68C26.6101 14.0131 26.0501 14.2798 25.44 14.48C24.9427 14.347 24.9694 14.2137 25.52 14.08C24.7219 14.0661 23.9219 14.0928 23.12 14.16C22.9613 13.847 22.8013 13.527 22.64 13.2C22.6537 13.0407 22.6003 12.9073 22.48 12.8C22.7424 12.1604 22.9291 11.4937 23.04 10.8C23.2987 10.5838 23.4854 10.3171 23.6 10C23.7467 10.1004 23.9067 10.1537 24.08 10.16Z"
            fill="#D81F60" />
        <path fill-rule="evenodd" clip-rule="evenodd"
            d="M11.76 10.9598C10.7907 11.7158 9.99068 12.6225 9.35996 13.6798C9.15662 13.9372 8.99662 14.2305 8.87996 14.5598C7.85753 14.8316 6.89753 15.2316 5.99996 15.7598C5.64847 15.5447 5.27513 15.358 4.87996 15.1998C4.25996 14.6589 3.61996 14.1522 2.95996 13.6798C3.08634 13.4727 3.24634 13.2861 3.43996 13.1198C4.11734 12.6267 4.81066 12.1733 5.51996 11.7598C5.3915 11.9075 5.36482 12.0675 5.43996 12.2398C6.22444 12.8571 6.86444 12.8571 7.35996 12.2398C7.51681 12.4768 7.70348 12.6902 7.91996 12.8798C7.60284 12.9944 7.33617 13.1811 7.11996 13.4398C7.69961 13.4824 8.17961 13.2691 8.55996 12.7998C9.01783 12.7565 9.4445 12.6232 9.83996 12.3998C9.80647 12.306 9.75314 12.226 9.67996 12.1598C9.83508 11.8785 10.0217 11.7985 10.24 11.9198C10.2798 11.74 10.3598 11.58 10.48 11.4398C10.7542 11.6172 10.8609 11.5105 10.8 11.1198C10.9039 11.1684 11.0106 11.2218 11.12 11.2798C11.1996 11.1033 11.2529 10.9433 11.28 10.7998C11.4266 10.9002 11.5866 10.9535 11.76 10.9598Z"
            fill="#D02261" />
        <path fill-rule="evenodd" clip-rule="evenodd"
            d="M28.0801 14.1602C27.5971 14.5373 27.1171 14.9107 26.6401 15.2802C25.47 14.8028 24.2966 14.4295 23.1201 14.1602C23.922 14.093 24.722 14.0663 25.5201 14.0802C24.9696 14.2139 24.9428 14.3472 25.4401 14.4802C26.0502 14.28 26.6102 14.0133 27.1201 13.6802C27.4419 13.8432 27.7619 14.0032 28.0801 14.1602Z"
            fill="#C82664" />
        <path fill-rule="evenodd" clip-rule="evenodd"
            d="M9.36 13.6802C9.3217 13.9949 9.37502 14.2883 9.52 14.5602C9.41333 14.6135 9.30667 14.6668 9.2 14.7202C10.9603 14.8013 12.4803 15.4147 13.76 16.5602C14.3554 17.5867 14.9154 18.6267 15.44 19.6802C15.9159 20.1023 16.3958 20.529 16.88 20.9602C17.4512 21.1698 18.0379 21.3031 18.64 21.3602C18.3424 21.5904 18.0757 21.857 17.84 22.1602C17.1594 22.52 16.5194 22.9466 15.92 23.4402C12.4694 21.0267 9.16278 18.4667 6 15.7602C6.89757 15.232 7.85757 14.832 8.88 14.5602C8.99666 14.2309 9.15666 13.9376 9.36 13.6802Z"
            fill="#D6E6F3" />
        <path fill-rule="evenodd" clip-rule="evenodd"
            d="M28.7201 13.52C28.9334 15.5973 29.0399 17.7306 29.0401 19.92C29.0134 22.0533 28.9868 24.1867 28.9601 26.32C28.7414 27.2845 28.1814 27.9511 27.2801 28.32C25.5743 28.4 23.8676 28.4267 22.1601 28.4C21.1172 27.437 20.0506 26.5037 18.9601 25.6C17.9503 25.0413 16.9903 24.4013 16.0801 23.68C16.5641 23.6554 16.8306 23.4154 16.8801 22.96C17.0681 22.9951 17.2281 22.9418 17.3601 22.8C17.5722 22.6173 17.7322 22.4039 17.8401 22.16C18.0758 21.8568 18.3425 21.5903 18.6401 21.36C21.3561 19.3898 24.0226 17.3631 26.6401 15.28C27.117 14.9105 27.597 14.5372 28.0801 14.16C28.3676 14.0171 28.5809 13.8038 28.7201 13.52Z"
            fill="#1F56A5" />
        <path fill-rule="evenodd" clip-rule="evenodd"
            d="M17.68 13.2002C17.4261 13.7639 17.3461 14.3506 17.44 14.9602C18.126 15.8 18.8192 15.8 19.52 14.9602C19.6258 14.4319 19.8125 13.9519 20.08 13.5202C20.0562 13.6885 20.0828 13.8485 20.16 14.0002C20.6524 14.3965 20.8391 14.8765 20.72 15.4402C19.91 16.0744 19.27 16.8477 18.8 17.7602C18.3733 17.8669 17.9468 17.8669 17.52 17.7602C16.778 17.1026 16.4047 16.276 16.4 15.2802C16.3056 14.2567 16.7322 13.5633 17.68 13.2002Z"
            fill="#D6E6F2" />
        <path fill-rule="evenodd" clip-rule="evenodd"
            d="M2.95985 13.6802C3.61985 14.1526 4.25985 14.6593 4.87985 15.2002C5.27501 15.3584 5.64836 15.545 5.99985 15.7602C9.16263 18.4667 12.4693 21.0267 15.9198 23.4402C16.5192 22.9466 17.1592 22.52 17.8398 22.1602C17.732 22.404 17.572 22.6175 17.3598 22.8002C17.2278 22.9419 17.0678 22.9952 16.8798 22.9602C16.8304 23.4155 16.5638 23.6555 16.0798 23.6802C16.9901 24.4015 17.9501 25.0415 18.9598 25.6002C20.0504 26.5039 21.117 27.4371 22.1598 28.4002C16.293 28.4269 10.4263 28.4002 4.55985 28.3202C3.79098 27.9779 3.23098 27.4179 2.87985 26.6402C2.74701 22.293 2.77367 17.973 2.95985 13.6802Z"
            fill="#3471B6" />
    </g>
    <defs>
        <clipPath id="clip0_5359_299">
            <rect width="32" height="32" fill="white" />
        </clipPath>
    </defs>
</svg>