<svg width="32" height="32" viewBox="0 0 32 32" fill="none" xmlns="http://www.w3.org/2000/svg">
    <path
        d="M0 7.11118V5.33338C0 5.33338 0 0 4.57142 0C8.88226 0 23.9207 0 27.4284 0C31.9999 0 31.9999 5.33338 31.9999 5.33338V7.11118H0Z"
        fill="white" />
    <path d="M15.238 8.88965H0V19.5564H15.238V8.88965Z" fill="white" fill-opacity="0.6" />
    <path d="M31.9999 8.88965H16.7617V19.5564H31.9999V8.88965Z" fill="white" fill-opacity="0.6" />
    <path
        d="M0 21.333V26.6664C0 26.6664 0 31.9998 4.57142 31.9998C8.88226 31.9998 15.238 31.9998 15.238 31.9998V21.333H0Z"
        fill="white" fill-opacity="0.6" />
    <path
        d="M16.7617 31.9998V21.333H31.9999V26.6664C31.9999 26.6664 31.9999 31.9998 27.4284 31.9998C23.1191 31.9998 16.7617 31.9998 16.7617 31.9998Z"
        fill="white" fill-opacity="0.6" />
</svg>