<svg width="32" height="32" viewBox="0 0 32 32" fill="none" xmlns="http://www.w3.org/2000/svg">
    <g clip-path="url(#clip0_5126_211)">
        <path fill-rule="evenodd" clip-rule="evenodd"
            d="M-0.0625 -0.0625C10.6042 -0.0625 21.2709 -0.0625 31.9375 -0.0625C31.9375 10.6042 31.9375 21.2709 31.9375 31.9375C21.2709 31.9375 10.6042 31.9375 -0.0625 31.9375C-0.0625 21.2709 -0.0625 10.6042 -0.0625 -0.0625Z"
            fill="#FEFEFE" />
        <path fill-rule="evenodd" clip-rule="evenodd"
            d="M15.9375 11.8125C15.9375 11.8542 15.9375 11.8958 15.9375 11.9375C12.4374 15.6869 10.8957 20.1451 11.3125 25.3125C14.3959 25.3125 17.4791 25.3125 20.5625 25.3125C14.792 25.4374 9.00037 25.479 3.1875 25.4375C3.1875 19.1459 3.1875 12.8541 3.1875 6.5625C8.14832 6.63161 12.3983 8.38161 15.9375 11.8125Z"
            fill="#B28EFE" />
        <path fill-rule="evenodd" clip-rule="evenodd"
            d="M20.5625 25.3125C20.9793 20.1451 19.4376 15.6869 15.9375 11.9375C15.9375 11.8958 15.9375 11.8542 15.9375 11.8125C18.6451 9.2083 21.8535 7.5208 25.5625 6.75C26.6003 6.61831 27.6419 6.55581 28.6875 6.5625C28.6875 12.8125 28.6875 19.0625 28.6875 25.3125C25.9791 25.3125 23.2709 25.3125 20.5625 25.3125Z"
            fill="#FEC29B" />
        <path fill-rule="evenodd" clip-rule="evenodd"
            d="M15.9376 11.9375C19.4377 15.6869 20.9794 20.1451 20.5626 25.3125C17.4792 25.3125 14.396 25.3125 11.3126 25.3125C10.8958 20.1451 12.4375 15.6869 15.9376 11.9375Z"
            fill="#A82D9C" />
    </g>
    <defs>
        <clipPath id="clip0_5126_211">
            <rect width="32" height="32" fill="white" />
        </clipPath>
    </defs>
</svg>