<svg width="32" height="32" viewBox="0 0 32 32" fill="none" xmlns="http://www.w3.org/2000/svg">
    <g clip-path="url(#clip0_5118_917)">
        <path fill-rule="evenodd" clip-rule="evenodd"
            d="M-0.0800781 -0.0800781C10.5866 -0.0800781 21.2532 -0.0800781 31.9199 -0.0800781C31.9199 2.90659 31.9199 5.89325 31.9199 8.87992C31.6007 8.56434 31.2274 8.29768 30.7999 8.07992C30.5145 7.506 30.0878 7.07933 29.5199 6.79992C29.4092 6.88397 29.3292 6.99063 29.2799 7.11992C28.8902 6.80515 28.4902 6.53848 28.0799 6.31992C28.0799 6.15992 28.0799 5.99992 28.0799 5.83992C27.2266 5.83992 26.3732 5.83992 25.5199 5.83992C25.5199 5.57325 25.5199 5.30659 25.5199 5.03992C25.0932 5.03992 24.6666 5.03992 24.2399 5.03992C24.2399 4.87992 24.2399 4.71992 24.2399 4.55992C23.3866 4.55992 22.5332 4.55992 21.6799 4.55992C21.6799 4.39992 21.6799 4.23992 21.6799 4.07992C19.5439 4.04418 17.4105 3.93751 15.2799 3.75992C13.5716 3.8669 11.8649 3.97357 10.1599 4.07992C10.1599 4.23992 10.1599 4.39992 10.1599 4.55992C9.30659 4.55992 8.45325 4.55992 7.59992 4.55992C7.59992 4.82659 7.59992 5.09325 7.59992 5.35992C6.74659 5.35992 5.89325 5.35992 5.03992 5.35992C5.03992 5.51992 5.03992 5.67992 5.03992 5.83992C4.61325 5.83992 4.18659 5.83992 3.75992 5.83992C3.75992 5.99992 3.75992 6.15992 3.75992 6.31992C3.34967 6.53848 2.94967 6.80515 2.55992 7.11992C2.52757 6.83903 2.44757 6.57235 2.31992 6.31992C1.62074 6.71888 1.19407 7.30555 1.03992 8.07992C0.612402 8.29768 0.239069 8.56434 -0.0800781 8.87992C-0.0800781 5.89325 -0.0800781 2.90659 -0.0800781 -0.0800781Z"
            fill="#0848EE" />
        <path fill-rule="evenodd" clip-rule="evenodd"
            d="M31.9199 8.87977C31.9199 9.89309 31.9199 10.9064 31.9199 11.9198C31.4932 11.9198 31.0666 11.9198 30.6399 11.9198C30.6399 11.7598 30.6399 11.5998 30.6399 11.4398C31.6223 11.5099 31.6758 11.2965 30.7999 10.7998C30.6513 10.6096 30.598 10.3962 30.6399 10.1598C29.7866 10.0531 28.9332 9.94644 28.0799 9.83977C28.0799 9.67977 28.0799 9.51977 28.0799 9.35977C27.6532 9.35977 27.2266 9.35977 26.7999 9.35977C26.7999 9.09309 26.7999 8.82644 26.7999 8.55977C26.3732 8.55977 25.9466 8.55977 25.5199 8.55977C25.5458 8.88413 25.5191 9.20413 25.4399 9.51977C25.4063 9.27047 25.3263 9.05713 25.1999 8.87977C25.1466 8.87977 25.0932 8.87977 25.0399 8.87977C25.331 8.56431 25.491 8.19098 25.5199 7.75977C25.9466 7.75977 26.3732 7.75977 26.7999 7.75977C26.7999 7.91977 26.7999 8.07977 26.7999 8.23977C27.2266 8.23977 27.6532 8.23977 28.0799 8.23977C28.0799 8.02644 28.0799 7.81309 28.0799 7.59977C27.0652 7.57317 26.0519 7.59985 25.0399 7.67977C25.113 7.74601 25.1665 7.82601 25.1999 7.91977C24.677 8.07769 24.1436 8.13103 23.5999 8.07977C23.5999 7.91977 23.5999 7.75977 23.5999 7.59977C23.8364 7.64169 24.0497 7.58836 24.2399 7.43977C23.3932 7.2806 22.5399 7.22725 21.6799 7.27977C21.6799 7.11977 21.6799 6.95977 21.6799 6.79977C21.2532 6.79977 20.8266 6.79977 20.3999 6.79977C20.3999 6.63977 20.3999 6.47977 20.3999 6.31977C19.9732 6.31977 19.5466 6.31977 19.1199 6.31977C19.1199 6.47977 19.1199 6.63977 19.1199 6.79977C18.2666 6.79977 17.4132 6.79977 16.5599 6.79977C16.5599 6.63977 16.5599 6.47977 16.5599 6.31977C16.1332 6.31977 15.7066 6.31977 15.2799 6.31977C15.2799 6.47977 15.2799 6.63977 15.2799 6.79977C14.4266 6.79977 13.5732 6.79977 12.7199 6.79977C12.7199 6.63977 12.7199 6.47977 12.7199 6.31977C12.2932 6.31977 11.8666 6.31977 11.4399 6.31977C11.4399 6.47977 11.4399 6.63977 11.4399 6.79977C11.0132 6.79977 10.5866 6.79977 10.1599 6.79977C10.1599 6.95977 10.1599 7.11977 10.1599 7.27977C9.30659 7.27977 8.45325 7.27977 7.59992 7.27977C7.59992 7.49309 7.59992 7.70644 7.59992 7.91977C8.21544 7.90069 8.80211 8.00737 9.35992 8.23977C9.35992 8.45309 9.35992 8.66644 9.35992 8.87977C10.0914 9.03509 9.82471 9.06177 8.55992 8.95977C8.79565 8.84623 8.90231 8.65957 8.87992 8.39977C8.02659 8.29309 7.17325 8.18644 6.31992 8.07977C6.31992 8.23977 6.31992 8.39977 6.31992 8.55977C5.89325 8.55977 5.46659 8.55977 5.03992 8.55977C5.03992 8.82644 5.03992 9.09309 5.03992 9.35977C4.61325 9.35977 4.18659 9.35977 3.75992 9.35977C3.75992 9.51977 3.75992 9.67977 3.75992 9.83977C3.33325 9.83977 2.90659 9.83977 2.47992 9.83977C2.47992 10.1064 2.47992 10.3731 2.47992 10.6398C2.04995 10.6135 1.62328 10.6402 1.19992 10.7198C0.756184 11.0028 0.329519 11.2961 -0.0800781 11.5998C-0.0800781 10.6931 -0.0800781 9.78644 -0.0800781 8.87977C0.239069 8.56418 0.612402 8.29753 1.03992 8.07977C1.19407 7.3054 1.62074 6.71873 2.31992 6.31977C2.44757 6.5722 2.52757 6.83887 2.55992 7.11977C2.94967 6.805 3.34967 6.53833 3.75992 6.31977C3.75992 6.15977 3.75992 5.99977 3.75992 5.83977C4.18659 5.83977 4.61325 5.83977 5.03992 5.83977C5.03992 5.67977 5.03992 5.51977 5.03992 5.35977C5.89325 5.35977 6.74659 5.35977 7.59992 5.35977C7.59992 5.09309 7.59992 4.82644 7.59992 4.55977C8.45325 4.55977 9.30659 4.55977 10.1599 4.55977C10.1599 4.39977 10.1599 4.23977 10.1599 4.07977C11.8649 3.97341 13.5716 3.86674 15.2799 3.75977C17.4105 3.93735 19.5439 4.04402 21.6799 4.07977C21.6799 4.23977 21.6799 4.39977 21.6799 4.55977C22.5332 4.55977 23.3866 4.55977 24.2399 4.55977C24.2399 4.71977 24.2399 4.87977 24.2399 5.03977C24.6666 5.03977 25.0932 5.03977 25.5199 5.03977C25.5199 5.30644 25.5199 5.57309 25.5199 5.83977C26.3732 5.83977 27.2266 5.83977 28.0799 5.83977C28.0799 5.99977 28.0799 6.15977 28.0799 6.31977C28.4902 6.53833 28.8902 6.805 29.2799 7.11977C29.3292 6.99047 29.4092 6.88381 29.5199 6.79977C30.0878 7.07917 30.5145 7.50585 30.7999 8.07977C31.2274 8.29753 31.6007 8.56418 31.9199 8.87977Z"
            fill="#0F4EEF" />
        <path fill-rule="evenodd" clip-rule="evenodd"
            d="M25.0399 8.88031C24.8716 8.90423 24.7116 8.87756 24.5599 8.80031C24.3466 8.69364 24.3466 8.58698 24.5599 8.48031C24.2262 8.18796 23.9062 8.18796 23.5999 8.48031C23.7823 8.79606 23.9956 9.08938 24.2399 9.36031C24.1575 9.63633 24.0508 9.90298 23.9199 10.1603C23.8127 9.87369 23.706 9.60702 23.5999 9.36031C23.5466 9.36031 23.4932 9.36031 23.4399 9.36031C21.6324 9.28639 19.8191 9.12639 17.9999 8.88031C18.134 9.51908 18.214 10.1591 18.2399 10.8003C17.8111 11.1804 17.5978 11.6604 17.5999 12.2403C17.4223 12.5192 17.1823 12.7325 16.8799 12.8803C16.9353 13.0716 17.0153 13.0716 17.1199 12.8803C17.1734 13.2559 17.1466 13.6292 17.0399 14.0003C16.7718 14.1097 16.665 14.323 16.7199 14.6403C16.6017 14.6613 16.495 14.6346 16.3999 14.5603C16.1111 13.8999 15.6578 13.3933 15.0399 13.0403C15.0049 12.8102 14.9249 12.5969 14.7999 12.4003C14.6518 12.5828 14.5185 12.5828 14.3999 12.4003C14.3062 12.1396 14.1729 11.8996 13.9999 11.6803C14.0835 11.5283 14.1902 11.3949 14.3199 11.2803C14.1018 11.0575 13.9685 10.7908 13.9199 10.4803C13.8532 10.6813 13.7199 10.7879 13.5199 10.8003C13.3321 10.6381 13.2255 10.4248 13.1999 10.1603C13.2382 9.84556 13.1849 9.55223 13.0399 9.28031C11.4652 9.14838 9.9185 9.17503 8.39992 9.36031C8.24133 10.4505 8.188 11.5705 8.23992 12.7203C8.07992 12.7203 7.91992 12.7203 7.75992 12.7203C7.75992 14.427 7.75992 16.1336 7.75992 17.8403C7.6104 17.6694 7.55707 17.4562 7.59992 17.2003C7.59992 16.1336 7.59992 15.067 7.59992 14.0003C6.31715 14.0005 5.03715 14.0538 3.75992 14.1603C3.75992 14.9603 3.75992 15.7603 3.75992 16.5603C1.78659 16.2936 0.933255 17.147 1.19992 19.1203C0.773255 19.1203 0.346589 19.1203 -0.0800781 19.1203C-0.0800781 16.6136 -0.0800781 14.107 -0.0800781 11.6003C0.329519 11.2967 0.756184 11.0034 1.19992 10.7203C1.62328 10.6407 2.04995 10.6141 2.47992 10.6403C2.47992 10.3736 2.47992 10.107 2.47992 9.84031C2.90659 9.84031 3.33325 9.84031 3.75992 9.84031C3.75992 9.68031 3.75992 9.52031 3.75992 9.36031C4.18659 9.36031 4.61325 9.36031 5.03992 9.36031C5.03992 9.09364 5.03992 8.82698 5.03992 8.56031C5.46659 8.56031 5.89325 8.56031 6.31992 8.56031C6.31992 8.40031 6.31992 8.24031 6.31992 8.08031C7.17325 8.18698 8.02659 8.29364 8.87992 8.40031C8.90231 8.66012 8.79565 8.84678 8.55992 8.96031C9.82471 9.06231 10.0914 9.03564 9.35992 8.88031C9.35992 8.66698 9.35992 8.45364 9.35992 8.24031C8.80211 8.00791 8.21544 7.90124 7.59992 7.92031C7.59992 7.70698 7.59992 7.49364 7.59992 7.28031C8.45325 7.28031 9.30659 7.28031 10.1599 7.28031C10.1599 7.12031 10.1599 6.96031 10.1599 6.80031C10.5866 6.80031 11.0132 6.80031 11.4399 6.80031C11.4399 6.64031 11.4399 6.48031 11.4399 6.32031C11.8666 6.32031 12.2932 6.32031 12.7199 6.32031C12.7199 6.48031 12.7199 6.64031 12.7199 6.80031C13.5732 6.80031 14.4266 6.80031 15.2799 6.80031C15.2799 6.64031 15.2799 6.48031 15.2799 6.32031C15.7066 6.32031 16.1332 6.32031 16.5599 6.32031C16.5599 6.48031 16.5599 6.64031 16.5599 6.80031C17.4132 6.80031 18.2666 6.80031 19.1199 6.80031C19.1199 6.64031 19.1199 6.48031 19.1199 6.32031C19.5466 6.32031 19.9732 6.32031 20.3999 6.32031C20.3999 6.48031 20.3999 6.64031 20.3999 6.80031C20.8266 6.80031 21.2532 6.80031 21.6799 6.80031C21.6799 6.96031 21.6799 7.12031 21.6799 7.28031C22.5399 7.2278 23.3932 7.28114 24.2399 7.44031C24.0497 7.5889 23.8364 7.64223 23.5999 7.60031C23.5999 7.76031 23.5999 7.92031 23.5999 8.08031C24.1436 8.13158 24.677 8.07823 25.1999 7.92031C25.1665 7.82655 25.113 7.74655 25.0399 7.68031C26.0519 7.60039 27.0652 7.57372 28.0799 7.60031C28.0799 7.81364 28.0799 8.02698 28.0799 8.24031C27.6532 8.24031 27.2266 8.24031 26.7999 8.24031C26.7999 8.08031 26.7999 7.92031 26.7999 7.76031C26.3732 7.76031 25.9466 7.76031 25.5199 7.76031C25.491 8.19153 25.331 8.56486 25.0399 8.88031Z"
            fill="#1853F1" />
        <path fill-rule="evenodd" clip-rule="evenodd"
            d="M8.3999 9.35958C9.91848 9.1743 11.4652 9.14765 13.0399 9.27958C13.1849 9.5515 13.2382 9.84483 13.1999 10.1596C13.0932 9.94626 12.9866 9.73291 12.8799 9.51958C11.4156 9.36061 9.9223 9.30728 8.3999 9.35958Z"
            fill="#2F58CF" />
        <path fill-rule="evenodd" clip-rule="evenodd"
            d="M23.4399 9.35988C21.9175 9.30758 20.4242 9.36091 18.9599 9.51988C18.409 11.0487 17.769 12.5421 17.0399 13.9999C17.1466 13.6288 17.1733 13.2555 17.1199 12.8799C17.0152 13.0712 16.9352 13.0712 16.8799 12.8799C17.1823 12.7321 17.4223 12.5187 17.5999 12.2399C17.5978 11.66 17.8111 11.18 18.2399 10.7999C18.214 10.1587 18.134 9.51865 17.9999 8.87988C19.8191 9.12596 21.6324 9.28596 23.4399 9.35988Z"
            fill="#2F5BDF" />
        <path fill-rule="evenodd" clip-rule="evenodd"
            d="M12.8801 9.51953C12.9867 9.73286 13.0934 9.9462 13.2001 10.1595C13.2256 10.424 13.3323 10.6373 13.5201 10.7995C14.077 12.4447 14.717 14.0447 15.4401 15.5995C15.503 16.0661 15.663 16.4928 15.9201 16.8795C16.1421 16.2619 16.4354 15.6753 16.8001 15.1195C16.906 14.7495 16.986 14.3762 17.0401 13.9995C17.7692 12.5417 18.4092 11.0484 18.9601 9.51953C20.4001 9.51953 21.8401 9.51953 23.2801 9.51953C23.2801 13.7862 23.2801 18.0528 23.2801 22.3195C22.2668 22.3195 21.2533 22.3195 20.2401 22.3195C20.2668 19.6523 20.2401 16.9856 20.1601 14.3195C19.9938 14.4385 19.9138 14.5985 19.9201 14.7995C18.8977 17.3642 17.8844 19.9242 16.8801 22.4795C16.2401 22.4795 15.6001 22.4795 14.9601 22.4795C14.1416 20.2027 13.2349 17.9627 12.2401 15.7595C12.1329 15.2519 11.9462 14.7719 11.6801 14.3195C11.6001 16.9856 11.5734 19.6523 11.6001 22.3195C10.5867 22.3195 9.57339 22.3195 8.56006 22.3195C8.56006 18.0528 8.56006 13.7862 8.56006 9.51953C10.0001 9.51953 11.4401 9.51953 12.8801 9.51953Z"
            fill="#FBFDFD" />
        <path fill-rule="evenodd" clip-rule="evenodd"
            d="M8.3999 9.36024C9.9223 9.30794 11.4156 9.36127 12.8799 9.52024C11.4399 9.52024 9.9999 9.52024 8.5599 9.52024C8.5599 13.7869 8.5599 18.0535 8.5599 22.3202C9.57323 22.3202 10.5866 22.3202 11.5999 22.3202C11.5999 22.3735 11.5999 22.427 11.5999 22.4802C10.5332 22.4802 9.46657 22.4802 8.3999 22.4802C8.3999 18.107 8.3999 13.7336 8.3999 9.36024Z"
            fill="#C4DEFD" />
        <path fill-rule="evenodd" clip-rule="evenodd"
            d="M18.96 9.52024C20.4243 9.36127 21.9176 9.30794 23.44 9.36024C23.44 13.7336 23.44 18.107 23.44 22.4802C22.3732 22.4802 21.3067 22.4802 20.24 22.4802C20.24 22.427 20.24 22.3735 20.24 22.3202C21.2532 22.3202 22.2667 22.3202 23.28 22.3202C23.28 18.0535 23.28 13.7869 23.28 9.52024C21.84 9.52024 20.4 9.52024 18.96 9.52024Z"
            fill="#AFCDFA" />
        <path fill-rule="evenodd" clip-rule="evenodd"
            d="M31.9201 11.9196C31.9201 14.3196 31.9201 16.7196 31.9201 19.1196C31.4933 19.1196 31.0668 19.1196 30.6401 19.1196C30.6401 18.6929 30.6401 18.2663 30.6401 17.8396C30.2133 17.8396 29.7868 17.8396 29.3601 17.8396C29.3601 17.4129 29.3601 16.9863 29.3601 16.5596C28.9333 16.5596 28.5068 16.5596 28.0801 16.5596C28.0801 16.1329 28.0801 15.7062 28.0801 15.2796C27.6533 15.2796 27.2268 15.2796 26.8001 15.2796C26.8001 14.6396 26.8001 13.9996 26.8001 13.3596C26.3733 13.3596 25.9468 13.3596 25.5201 13.3596C25.5724 12.5525 25.5191 11.7525 25.3601 10.9596C25.2399 11.0997 25.1599 11.2597 25.1201 11.4396C25.0405 11.0162 25.0138 10.5895 25.0401 10.1596C24.8268 10.1596 24.6133 10.1596 24.4001 10.1596C24.3762 9.99125 24.4028 9.83125 24.4801 9.67957C24.8665 9.53376 25.1065 9.26709 25.2001 8.87957C25.3265 9.05693 25.4065 9.27027 25.4401 9.51957C25.5193 9.20394 25.546 8.88394 25.5201 8.55957C25.9468 8.55957 26.3733 8.55957 26.8001 8.55957C26.8001 8.82624 26.8001 9.0929 26.8001 9.35957C27.2268 9.35957 27.6533 9.35957 28.0801 9.35957C28.0801 9.51957 28.0801 9.67957 28.0801 9.83957C28.9333 9.94624 29.7868 10.0529 30.6401 10.1596C30.5981 10.396 30.6514 10.6094 30.8001 10.7996C31.6759 11.2963 31.6225 11.5097 30.6401 11.4396C30.6401 11.5996 30.6401 11.7596 30.6401 11.9196C31.0668 11.9196 31.4933 11.9196 31.9201 11.9196Z"
            fill="#1A54F2" />
        <path fill-rule="evenodd" clip-rule="evenodd"
            d="M16.72 14.6405C16.6066 14.7851 16.4466 14.8384 16.24 14.8005C16.1946 15.2411 16.0879 15.6677 15.92 16.0805C15.8174 15.8415 15.6574 15.6815 15.44 15.6005C14.717 14.0456 14.077 12.4456 13.52 10.8005C13.72 10.7881 13.8533 10.6814 13.92 10.4805C13.9686 10.7909 14.1019 11.0576 14.32 11.2805C14.1903 11.3951 14.0836 11.5284 14 11.6805C14.173 11.8998 14.3063 12.1398 14.4 12.4005C14.5186 12.5829 14.6519 12.5829 14.8 12.4005C14.925 12.5971 15.005 12.8104 15.04 13.0405C15.6579 13.3934 16.1112 13.9001 16.4 14.5605C16.4951 14.6348 16.6018 14.6614 16.72 14.6405Z"
            fill="#295EEE" />
        <path fill-rule="evenodd" clip-rule="evenodd"
            d="M25.0399 8.88001C25.0932 8.88001 25.1467 8.88001 25.1999 8.88001C25.1063 9.26753 24.8663 9.5342 24.4799 9.68001C24.4027 9.83169 24.3761 9.99169 24.3999 10.16C24.6132 10.16 24.8267 10.16 25.0399 10.16C25.0137 10.59 25.0404 11.0166 25.1199 11.44C25.1598 11.2602 25.2398 11.1002 25.3599 10.96C25.519 11.753 25.5723 12.553 25.5199 13.36C25.9467 13.36 26.3732 13.36 26.7999 13.36C26.7999 14 26.7999 14.64 26.7999 15.28C27.2267 15.28 27.6532 15.28 28.0799 15.28C28.0799 15.7067 28.0799 16.1333 28.0799 16.56C28.5067 16.56 28.9332 16.56 29.3599 16.56C29.3599 16.9867 29.3599 17.4133 29.3599 17.84C29.7867 17.84 30.2132 17.84 30.6399 17.84C30.6399 18.2667 30.6399 18.6933 30.6399 19.12C31.0667 19.12 31.4932 19.12 31.9199 19.12C31.9199 19.9733 31.9199 20.8267 31.9199 21.68C31.4547 21.7181 31.0812 21.5581 30.7999 21.2C30.6932 21.4667 30.5867 21.7333 30.4799 22C30.6654 20.7294 30.1854 19.8494 29.0399 19.36C28.6951 18.4072 27.9484 17.9538 26.7999 18C26.9599 17.8933 27.1199 17.7867 27.2799 17.68C27.2465 17.5862 27.1931 17.5062 27.1199 17.44C26.5892 17.3603 26.0559 17.3336 25.5199 17.36C25.5465 16.3986 25.5198 15.4385 25.4399 14.48C25.2971 15.7154 25.1105 16.9421 24.8799 18.16C24.6673 17.2109 24.5073 16.2509 24.3999 15.28C24.2431 15.6938 24.1899 16.1205 24.2399 16.56C24.0799 16.56 23.9199 16.56 23.7599 16.56C23.6006 14.1882 23.5473 11.7882 23.5999 9.36001C23.706 9.60671 23.8127 9.87338 23.9199 10.16C24.0508 9.90268 24.1575 9.63602 24.2399 9.36001C23.9956 9.08908 23.7823 8.79575 23.5999 8.48001C23.9062 8.18765 24.2262 8.18765 24.5599 8.48001C24.3467 8.58668 24.3467 8.69333 24.5599 8.80001C24.7116 8.87725 24.8716 8.90393 25.0399 8.88001Z"
            fill="#205AF2" />
        <path fill-rule="evenodd" clip-rule="evenodd"
            d="M17.0399 14C16.9859 14.3766 16.9059 14.75 16.7999 15.12C16.4353 15.6758 16.142 16.2624 15.9199 16.88C15.6629 16.4933 15.5029 16.0666 15.4399 15.6C15.6574 15.681 15.8174 15.841 15.9199 16.08C16.0878 15.6673 16.1945 15.2406 16.2399 14.8C16.4465 14.838 16.6065 14.7846 16.7199 14.64C16.6651 14.3227 16.7718 14.1093 17.0399 14Z"
            fill="#3F67DF" />
        <path fill-rule="evenodd" clip-rule="evenodd"
            d="M7.59992 17.2C7.17325 17.2 6.74659 17.2 6.31992 17.2C6.31992 17.4133 6.31992 17.6267 6.31992 17.84C5.90256 17.857 5.58256 18.0435 5.35992 18.4C4.82923 18.4797 4.29591 18.5064 3.75992 18.48C3.75992 18.6933 3.75992 18.9067 3.75992 19.12C4.74235 19.0499 4.79568 19.2632 3.91992 19.76C3.80914 19.676 3.72914 19.5693 3.67992 19.44C3.28632 19.6733 2.93967 19.9666 2.63992 20.32C3.39304 20.4184 3.39304 20.6584 2.63992 21.04C2.52914 20.956 2.44914 20.8493 2.39992 20.72C2.00632 20.9533 1.65967 21.2466 1.35992 21.6C2.11304 21.6984 2.11304 21.9384 1.35992 22.32C1.21133 22.5102 1.158 22.7235 1.19992 22.96C1.03992 22.96 0.879922 22.96 0.719922 22.96C0.719922 23.3867 0.719922 23.8133 0.719922 24.24C0.559922 24.24 0.399922 24.24 0.239922 24.24C0.325621 24.7517 0.218954 25.1784 -0.0800781 25.52C-0.0800781 23.3867 -0.0800781 21.2533 -0.0800781 19.12C0.346589 19.12 0.773255 19.12 1.19992 19.12C0.933255 17.1467 1.78659 16.2933 3.75992 16.56C3.75992 15.76 3.75992 14.96 3.75992 14.16C5.03715 14.0535 6.31715 14.0002 7.59992 14C7.59992 15.0667 7.59992 16.1333 7.59992 17.2Z"
            fill="#225CF3" />
        <path fill-rule="evenodd" clip-rule="evenodd"
            d="M7.59992 17.2002C7.55707 17.456 7.6104 17.6693 7.75992 17.8402C7.78655 19.1213 7.75987 20.4013 7.67992 21.6802C7.62659 20.8269 7.57325 19.9735 7.51992 19.1202C7.12472 19.6493 6.61807 20.0226 5.99992 20.2402C6.42659 20.3469 6.85325 20.4535 7.27992 20.5602C6.98912 21.102 6.64245 21.2085 6.23992 20.8802C5.86997 21.0904 5.54997 21.3572 5.27992 21.6802C5.12787 21.5967 4.99455 21.49 4.87992 21.3602C4.68613 21.484 4.68613 21.6173 4.87992 21.7602C4.47319 22.194 4.04651 22.594 3.59992 22.9602C3.44312 23.374 3.38978 23.8007 3.43992 24.2402C3.27992 24.2402 3.11992 24.2402 2.95992 24.2402C2.95992 25.0935 2.95992 25.9469 2.95992 26.8002C2.79992 26.8002 2.63992 26.8002 2.47992 26.8002C2.53007 26.3607 2.47672 25.934 2.31992 25.5202C2.16075 26.3669 2.10741 27.2202 2.15992 28.0802C1.99992 28.0802 1.83992 28.0802 1.67992 28.0802C1.67992 29.3602 1.67992 30.6402 1.67992 31.9202C1.09325 31.9202 0.506589 31.9202 -0.0800781 31.9202C-0.0800781 29.7869 -0.0800781 27.6535 -0.0800781 25.5202C0.218954 25.1786 0.325621 24.7519 0.239922 24.2402C0.399922 24.2402 0.559922 24.2402 0.719922 24.2402C0.719922 23.8135 0.719922 23.3869 0.719922 22.9602C0.879922 22.9602 1.03992 22.9602 1.19992 22.9602C1.158 22.7237 1.21133 22.5104 1.35992 22.3202C2.11304 21.9386 2.11304 21.6986 1.35992 21.6002C1.65967 21.2468 2.00632 20.9535 2.39992 20.7202C2.44914 20.8495 2.52914 20.9562 2.63992 21.0402C3.39304 20.6586 3.39304 20.4186 2.63992 20.3202C2.93967 19.9668 3.28632 19.6735 3.67992 19.4402C3.72914 19.5695 3.80914 19.6762 3.91992 19.7602C4.79568 19.2634 4.74235 19.0501 3.75992 19.1202C3.75992 18.9069 3.75992 18.6935 3.75992 18.4802C4.29591 18.5066 4.82923 18.4799 5.35992 18.4002C5.58256 18.0437 5.90256 17.8572 6.31992 17.8402C6.31992 17.6269 6.31992 17.4135 6.31992 17.2002C6.74659 17.2002 7.17325 17.2002 7.59992 17.2002Z"
            fill="#2861F6" />
        <path fill-rule="evenodd" clip-rule="evenodd"
            d="M20.24 22.3203C20.24 22.3736 20.24 22.427 20.24 22.4803C20.1333 19.9203 20.0267 17.3603 19.92 14.8003C19.9138 14.5993 19.9938 14.4393 20.16 14.3203C20.24 16.9864 20.2667 19.6531 20.24 22.3203Z"
            fill="#7A94DB" />
        <path fill-rule="evenodd" clip-rule="evenodd"
            d="M31.92 21.6805C31.92 25.0937 31.92 28.5072 31.92 31.9205C31.3332 31.9205 30.7467 31.9205 30.16 31.9205C30.16 30.6405 30.16 29.3605 30.16 28.0805C29.8932 28.0805 29.6267 28.0805 29.36 28.0805C29.36 27.6537 29.36 27.2272 29.36 26.8005C29.2 26.8005 29.04 26.8005 28.88 26.8005C28.88 25.9472 28.88 25.0937 28.88 24.2405C28.72 24.2405 28.56 24.2405 28.4 24.2405C28.2932 22.5337 28.1867 22.5337 28.08 24.2405C27.92 24.2405 27.76 24.2405 27.6 24.2405C27.6 23.8137 27.6 23.3872 27.6 22.9605C27.44 22.9605 27.28 22.9605 27.12 22.9605C27.17 23.4 27.1168 23.8267 26.96 24.2405C26.8008 23.3937 26.7475 22.5405 26.8 21.6805C26.3846 21.431 25.9579 21.1643 25.52 20.8805C25.3782 20.7485 25.3249 20.5885 25.36 20.4005C25.1467 20.4005 24.9332 20.4005 24.72 20.4005C24.847 20.7801 25.007 21.1534 25.2 21.5205C24.9867 21.7337 24.7732 21.7337 24.56 21.5205C24.759 21.2592 24.679 21.0992 24.32 21.0405C24.0555 21.0917 23.8955 21.2517 23.84 21.5205C23.76 19.868 23.7334 18.2147 23.76 16.5605C23.92 16.5605 24.08 16.5605 24.24 16.5605C24.1899 16.1209 24.2432 15.6943 24.4 15.2805C24.5073 16.2513 24.6673 17.2113 24.88 18.1605C25.1105 16.9425 25.2971 15.7159 25.44 14.4805C25.5198 15.439 25.5465 16.399 25.52 17.3605C26.056 17.3341 26.5892 17.3608 27.12 17.4405C27.1931 17.5067 27.2465 17.5867 27.28 17.6805C27.12 17.7872 26.96 17.8937 26.8 18.0005C27.9484 17.9542 28.6952 18.4077 29.04 19.3605C30.1854 19.8499 30.6654 20.7299 30.48 22.0005C30.5867 21.7337 30.6932 21.4672 30.8 21.2005C31.0812 21.5585 31.4547 21.7185 31.92 21.6805Z"
            fill="#2760F6" />
        <path fill-rule="evenodd" clip-rule="evenodd"
            d="M12.2401 15.7603C12.0337 15.6711 11.9004 15.5111 11.8401 15.2803C11.8131 17.7078 11.7331 20.1078 11.6001 22.4803C11.6001 22.427 11.6001 22.3736 11.6001 22.3203C11.5734 19.6531 11.6001 16.9864 11.6801 14.3203C11.9463 14.7726 12.1329 15.2526 12.2401 15.7603Z"
            fill="#617CC8" />
        <path fill-rule="evenodd" clip-rule="evenodd"
            d="M8.39993 9.36035C8.39993 13.7337 8.39993 18.1071 8.39993 22.4804C9.3407 22.5909 10.3007 22.7242 11.2799 22.8804C10.3836 22.8949 9.63691 23.2416 9.03993 23.9204C8.91873 23.7106 8.75873 23.6306 8.55993 23.6804C8.39993 23.8404 8.23993 24.0004 8.07993 24.1604C8.55993 24.2136 9.03993 24.2671 9.51993 24.3204C9.27524 24.7581 9.03524 24.7847 8.79993 24.4004C8.31993 24.7736 7.83993 25.1471 7.35993 25.5204C7.28035 25.9437 7.25368 26.3704 7.27993 26.8004C7.11993 26.8004 6.95993 26.8004 6.79993 26.8004C6.79993 27.2271 6.79993 27.6536 6.79993 28.0804C6.63993 28.0804 6.47993 28.0804 6.31993 28.0804C6.34619 27.6504 6.31952 27.2237 6.23993 26.8004C6.16003 27.652 6.13337 28.5053 6.15993 29.3604C5.99993 29.3604 5.83993 29.3604 5.67993 29.3604C5.7866 30.2136 5.89326 31.0671 5.99993 31.9204C4.55993 31.9204 3.11993 31.9204 1.67993 31.9204C1.67993 30.6404 1.67993 29.3604 1.67993 28.0804C1.83993 28.0804 1.99993 28.0804 2.15993 28.0804C2.10742 27.2204 2.16076 26.3671 2.31993 25.5204C2.47673 25.9341 2.53008 26.3608 2.47993 26.8004C2.63993 26.8004 2.79993 26.8004 2.95993 26.8004C2.95993 25.9471 2.95993 25.0936 2.95993 24.2404C3.11993 24.2404 3.27993 24.2404 3.43993 24.2404C3.38979 23.8008 3.44313 23.3741 3.59993 22.9604C4.04652 22.5941 4.4732 22.1941 4.87993 21.7604C4.68614 21.6175 4.68614 21.4842 4.87993 21.3604C4.99456 21.4901 5.12788 21.5968 5.27993 21.6804C5.54998 21.3573 5.86998 21.0906 6.23993 20.8804C6.64246 21.2087 6.98913 21.1021 7.27993 20.5604C6.85326 20.4536 6.4266 20.3471 5.99993 20.2404C6.61808 20.0228 7.12473 19.6495 7.51993 19.1204C7.57326 19.9736 7.6266 20.8271 7.67993 21.6804C7.75988 20.4015 7.78656 19.1215 7.75993 17.8404C7.75993 16.1336 7.75993 14.427 7.75993 12.7204C7.91993 12.7204 8.07993 12.7204 8.23993 12.7204C8.18801 11.5705 8.24134 10.4505 8.39993 9.36035Z"
            fill="#2F66F5" />
        <path fill-rule="evenodd" clip-rule="evenodd"
            d="M23.4399 9.36035C23.4932 9.36035 23.5467 9.36035 23.5999 9.36035C23.5473 11.7885 23.6006 14.1885 23.7599 16.5604C23.7334 18.2146 23.7599 19.8679 23.8399 21.5204C23.8955 21.2516 24.0555 21.0916 24.3199 21.0404C24.679 21.0991 24.759 21.2591 24.5599 21.5204C24.7732 21.7336 24.9867 21.7336 25.1999 21.5204C25.007 21.1533 24.847 20.78 24.7199 20.4004C24.9332 20.4004 25.1467 20.4004 25.3599 20.4004C25.3249 20.5884 25.3782 20.7484 25.5199 20.8804C25.9579 21.1642 26.3846 21.4309 26.7999 21.6804C26.7475 22.5404 26.8007 23.3936 26.9599 24.2404C27.1167 23.8266 27.17 23.3999 27.1199 22.9604C27.2799 22.9604 27.4399 22.9604 27.5999 22.9604C27.5999 23.3871 27.5999 23.8136 27.5999 24.2404C27.7599 24.2404 27.9199 24.2404 28.0799 24.2404C28.1867 22.5336 28.2932 22.5336 28.3999 24.2404C28.5599 24.2404 28.7199 24.2404 28.8799 24.2404C28.8799 25.0936 28.8799 25.9471 28.8799 26.8004C29.0399 26.8004 29.1999 26.8004 29.3599 26.8004C29.3599 27.2271 29.3599 27.6536 29.3599 28.0804C29.6267 28.0804 29.8932 28.0804 30.1599 28.0804C30.1599 29.3604 30.1599 30.6404 30.1599 31.9204C29.2532 31.9204 28.3467 31.9204 27.4399 31.9204C27.4399 30.6404 27.4399 29.3604 27.4399 28.0804C27.1732 28.0804 26.9067 28.0804 26.6399 28.0804C26.6399 27.6536 26.6399 27.2271 26.6399 26.8004C26.4799 26.8004 26.3199 26.8004 26.1599 26.8004C26.1599 26.3736 26.1599 25.9471 26.1599 25.5204C25.9403 25.5455 25.7268 25.5188 25.5199 25.4404C25.0399 25.0671 24.5599 24.6936 24.0799 24.3204C25.0619 24.3511 25.1419 24.1111 24.3199 23.6004C24.2407 23.2847 24.214 22.9647 24.2399 22.6404C23.9335 22.6858 23.667 22.6325 23.4399 22.4804C23.4399 18.1071 23.4399 13.7337 23.4399 9.36035Z"
            fill="#2F65F5" />
        <path fill-rule="evenodd" clip-rule="evenodd"
            d="M19.9199 14.7998C20.0267 17.3598 20.1332 19.9198 20.2399 22.4798C21.3067 22.4798 22.3732 22.4798 23.4399 22.4798C23.667 22.632 23.9335 22.6852 24.2399 22.6398C24.214 22.9641 24.2407 23.2841 24.3199 23.5998C25.1419 24.1105 25.0619 24.3505 24.0799 24.3198C24.5599 24.6931 25.0399 25.0665 25.5199 25.4398C25.7268 25.5182 25.9403 25.5449 26.1599 25.5198C26.1599 25.9465 26.1599 26.3731 26.1599 26.7998C26.3199 26.7998 26.4799 26.7998 26.6399 26.7998C26.6399 27.2265 26.6399 27.6531 26.6399 28.0798C26.9067 28.0798 27.1732 28.0798 27.4399 28.0798C27.4399 29.3598 27.4399 30.6398 27.4399 31.9198C26.1067 31.9198 24.7732 31.9198 23.4399 31.9198C23.4399 31.0665 23.4399 30.2131 23.4399 29.3598C23.2799 29.3598 23.1199 29.3598 22.9599 29.3598C22.9599 28.9331 22.9599 28.5065 22.9599 28.0798C22.5332 28.0798 22.1067 28.0798 21.6799 28.0798C21.6799 27.6531 21.6799 27.2265 21.6799 26.7998C21.2532 26.7998 20.8267 26.7998 20.3999 26.7998C20.3999 26.2131 20.3999 25.6265 20.3999 25.0398C19.5467 25.0398 18.6932 25.0398 17.8399 25.0398C17.8399 24.8798 17.8399 24.7198 17.8399 24.5598C16.5599 24.5598 15.2799 24.5598 13.9999 24.5598C13.9999 24.7198 13.9999 24.8798 13.9999 25.0398C13.1466 25.0398 12.2933 25.0398 11.4399 25.0398C11.4399 25.3065 11.4399 25.5731 11.4399 25.8398C13.1466 25.9465 13.1466 26.0531 11.4399 26.1598C11.3962 26.472 11.5029 26.712 11.7599 26.8798C11.1931 27.1371 10.7131 27.5105 10.3199 27.9998C11.0819 28.0902 11.0819 28.3302 10.3199 28.7198C10.1713 28.5296 10.118 28.3163 10.1599 28.0798C9.83993 28.0798 9.51993 28.0798 9.19993 28.0798C9.19993 28.5065 9.19993 28.9331 9.19993 29.3598C8.93326 29.3598 8.6666 29.3598 8.39993 29.3598C8.39993 29.7865 8.39993 30.2131 8.39993 30.6398C8.55993 30.6398 8.71993 30.6398 8.87993 30.6398C8.87993 31.0665 8.87993 31.4931 8.87993 31.9198C7.91993 31.9198 6.95993 31.9198 5.99993 31.9198C5.89326 31.0665 5.7866 30.2131 5.67993 29.3598C5.83993 29.3598 5.99993 29.3598 6.15993 29.3598C6.13337 28.5048 6.16003 27.6515 6.23993 26.7998C6.31952 27.2232 6.34619 27.6499 6.31993 28.0798C6.47993 28.0798 6.63993 28.0798 6.79993 28.0798C6.79993 27.6531 6.79993 27.2265 6.79993 26.7998C6.95993 26.7998 7.11993 26.7998 7.27993 26.7998C7.25368 26.3699 7.28035 25.9432 7.35993 25.5198C7.83993 25.1465 8.31993 24.7731 8.79993 24.3998C9.03524 24.7841 9.27524 24.7576 9.51993 24.3198C9.03993 24.2665 8.55993 24.2131 8.07993 24.1598C8.23993 23.9998 8.39993 23.8398 8.55993 23.6798C8.75873 23.63 8.91873 23.71 9.03993 23.9198C9.63691 23.2411 10.3836 22.8944 11.2799 22.8798C10.3007 22.7236 9.3407 22.5904 8.39993 22.4798C9.4666 22.4798 10.5333 22.4798 11.5999 22.4798C11.7329 20.1073 11.8129 17.7073 11.8399 15.2798C11.9002 15.5106 12.0335 15.6706 12.2399 15.7598C13.2348 17.963 14.1415 20.203 14.9599 22.4798C15.5999 22.4798 16.2399 22.4798 16.8799 22.4798C17.8843 19.9244 18.8975 17.3644 19.9199 14.7998Z"
            fill="#366CF8" />
        <path fill-rule="evenodd" clip-rule="evenodd"
            d="M23.4399 31.9196C22.8532 31.9196 22.2666 31.9196 21.6799 31.9196C21.7065 31.0114 21.6797 30.1047 21.5999 29.1996C21.2266 28.8796 20.8532 28.5596 20.4799 28.2396C20.4004 28.6092 20.3738 28.9825 20.3999 29.3596C20.0151 29.1697 19.6417 28.9297 19.2799 28.6396C19.146 28.4778 19.0927 28.2911 19.1199 28.0796C19.5498 28.1058 19.9765 28.0791 20.3999 27.9996C20.0564 27.6417 19.6831 27.3217 19.2799 27.0396C17.9524 26.8599 16.6191 26.7799 15.2799 26.7996C15.2799 26.5863 15.2799 26.3729 15.2799 26.1596C14.8532 26.1596 14.4266 26.1596 13.9999 26.1596C13.9999 26.3196 13.9999 26.4796 13.9999 26.6396C12.2965 26.6669 12.2965 26.7469 13.9999 26.8796C13.5199 26.9329 13.0399 26.9863 12.5599 27.0396C12.1332 27.3596 11.7066 27.6796 11.2799 27.9996C11.3866 28.0529 11.4932 28.1063 11.5999 28.1596C11.1322 28.4868 10.6788 28.8335 10.2399 29.1996C10.16 30.1047 10.1333 31.0114 10.1599 31.9196C9.73323 31.9196 9.30657 31.9196 8.8799 31.9196C8.8799 31.4929 8.8799 31.0663 8.8799 30.6396C8.7199 30.6396 8.5599 30.6396 8.3999 30.6396C8.3999 30.2129 8.3999 29.7863 8.3999 29.3596C8.66657 29.3596 8.93323 29.3596 9.1999 29.3596C9.1999 28.9329 9.1999 28.5063 9.1999 28.0796C9.5199 28.0796 9.8399 28.0796 10.1599 28.0796C10.118 28.3161 10.1713 28.5293 10.3199 28.7196C11.0818 28.33 11.0818 28.09 10.3199 27.9996C10.7131 27.5103 11.1931 27.1369 11.7599 26.8796C11.5028 26.7117 11.3962 26.4717 11.4399 26.1596C13.1466 26.0529 13.1466 25.9463 11.4399 25.8396C11.4399 25.5729 11.4399 25.3063 11.4399 25.0396C12.2932 25.0396 13.1466 25.0396 13.9999 25.0396C13.9999 24.8796 13.9999 24.7196 13.9999 24.5596C15.2799 24.5596 16.5599 24.5596 17.8399 24.5596C17.8399 24.7196 17.8399 24.8796 17.8399 25.0396C18.6932 25.0396 19.5466 25.0396 20.3999 25.0396C20.3999 25.6263 20.3999 26.2129 20.3999 26.7996C20.8266 26.7996 21.2532 26.7996 21.6799 26.7996C21.6799 27.2263 21.6799 27.6529 21.6799 28.0796C22.1066 28.0796 22.5332 28.0796 22.9599 28.0796C22.9599 28.5063 22.9599 28.9329 22.9599 29.3596C23.1199 29.3596 23.2799 29.3596 23.4399 29.3596C23.4399 30.2129 23.4399 31.0663 23.4399 31.9196Z"
            fill="#3B71FB" />
        <path fill-rule="evenodd" clip-rule="evenodd"
            d="M21.6801 31.9202C17.8401 31.9202 14.0001 31.9202 10.1601 31.9202C10.1335 31.012 10.1602 30.1053 10.2401 29.2002C10.679 28.8341 11.1324 28.4874 11.6001 28.1602C11.4934 28.1069 11.3868 28.0534 11.2801 28.0002C11.7068 27.6802 12.1334 27.3602 12.5601 27.0402C13.0401 26.9869 13.5201 26.9334 14.0001 26.8802C12.2967 26.7475 12.2967 26.6675 14.0001 26.6402C14.0001 26.4802 14.0001 26.3202 14.0001 26.1602C14.4268 26.1602 14.8534 26.1602 15.2801 26.1602C15.2801 26.3734 15.2801 26.5869 15.2801 26.8002C16.6193 26.7805 17.9526 26.8605 19.2801 27.0402C19.6833 27.3222 20.0566 27.6422 20.4001 28.0002C19.9767 28.0797 19.55 28.1064 19.1201 28.0802C19.0929 28.2917 19.1462 28.4784 19.2801 28.6402C19.6419 28.9302 20.0153 29.1702 20.4001 29.3602C20.374 28.983 20.4006 28.6098 20.4801 28.2402C20.8534 28.5602 21.2268 28.8802 21.6001 29.2002C21.6799 30.1053 21.7067 31.012 21.6801 31.9202Z"
            fill="#4275FD" />
    </g>
    <defs>
        <clipPath id="clip0_5118_917">
            <rect width="32" height="32" fill="white" />
        </clipPath>
    </defs>
</svg>