<svg width="32" height="32" viewBox="0 0 32 32" fill="none" xmlns="http://www.w3.org/2000/svg">
    <rect width="32" height="32" fill="black" />
    <path opacity="0.907" fill-rule="evenodd" clip-rule="evenodd"
        d="M0 21.9498C0 21.8563 0 21.7627 0 21.6691C1.06313 19.5432 2.13915 17.3915 3.22807 15.2141C2.48444 9.81851 4.5897 6.12324 9.54386 4.12825C17.9712 3.05546 24.0531 6.32976 27.7895 13.9511C26.906 14.8129 25.9703 15.6081 24.9825 16.3367C24.4794 14.5709 24.0115 12.7934 23.5789 11.0043C22.2222 12.7817 20.8655 14.5592 19.5088 16.3367C18.8574 14.4379 18.4363 12.4734 18.2456 10.443C17.4971 10.443 16.7485 10.443 16 10.443C16.5393 14.0279 17.2411 17.5828 18.1053 21.1078C19.5158 19.3703 20.8725 17.5928 22.1754 15.7754C22.6785 17.5413 23.1464 19.3187 23.5789 21.1078C26.3359 17.4701 29.0961 13.8216 31.8596 10.1623C31.9065 10.2559 31.9531 10.3494 32 10.443C31.0175 12.5947 30.0351 14.7463 29.0526 16.898C29.0313 25.8997 24.5869 29.595 15.7193 27.9839C10.6472 26.4673 6.95135 23.3333 4.63158 18.5819C5.12516 17.4282 5.96727 16.4927 7.15789 15.7754C7.7298 17.6007 8.19761 19.4717 8.5614 21.3885C9.8638 19.4782 11.2205 17.6072 12.6316 15.7754C13.241 17.6045 13.7089 19.4755 14.0351 21.3885C14.7611 21.6635 15.5096 21.7571 16.2807 21.6691C15.6399 18.0917 14.8914 14.5368 14.0351 11.0043C12.7322 12.8217 11.3755 14.5992 9.96491 16.3367C9.42841 14.5956 8.96059 12.8181 8.5614 11.0043C5.94153 14.5592 3.32163 18.1142 0.701754 21.6691C0.513471 21.8803 0.279552 21.9739 0 21.9498Z"
        fill="#FEFFFE" />
</svg>