<svg width="32" height="32" viewBox="0 0 32 32" fill="none" xmlns="http://www.w3.org/2000/svg">
    <path
        d="M12.8144 11.7596C11.9769 11.7543 11.262 12.4155 11.262 13.1993C11.262 14.1163 11.9289 14.8202 12.7984 14.8202C13.6787 14.8255 14.3455 14.127 14.3508 13.2206C14.3508 12.4208 13.6466 11.765 12.8144 11.7596ZM19.4402 11.7543C18.5973 11.7543 17.8825 12.4261 17.8825 13.2153V13.2419C17.8718 14.1057 18.5653 14.8148 19.4349 14.8202C20.2991 14.8255 20.9873 14.111 20.9873 13.2099C20.9873 12.4368 20.2778 11.7543 19.4402 11.7543ZM19.4402 11.7543C18.5973 11.7543 17.8825 12.4261 17.8825 13.2153V13.2419C17.8718 14.1057 18.5653 14.8148 19.4349 14.8202C20.2991 14.8255 20.9873 14.111 20.9873 13.2099C20.9873 12.4368 20.2778 11.7543 19.4402 11.7543ZM12.8144 11.7596C11.9769 11.7543 11.262 12.4155 11.262 13.1993C11.262 14.1163 11.9289 14.8202 12.7984 14.8202C13.6787 14.8255 14.3455 14.127 14.3508 13.2206C14.3508 12.4208 13.6466 11.765 12.8144 11.7596ZM16.2874 0.00268137C7.45831 -0.157277 0.165666 6.85957 0.000288338 15.6893V15.9026C-0.0530594 24.9295 7.3036 32.053 16.0046 31.9997C24.7376 32.037 31.8969 24.9562 31.9983 16.2171C32.1263 7.41409 25.1004 0.157308 16.2874 0.00268137ZM9.41083 11.7596C9.11209 11.7596 8.81334 11.765 8.51993 11.7596H8.48792C8.48792 11.7596 8.44524 11.765 8.42924 11.7703C8.35989 11.7863 8.34388 11.8343 8.34922 11.9249V15.8439C8.34922 15.9185 8.34388 15.9719 8.3172 16.0039C8.31187 16.0145 8.30654 16.0199 8.29587 16.0252C8.26386 16.0412 8.22118 16.0465 8.15716 16.0465C7.81574 16.0305 7.46898 16.0305 7.12222 16.0465C6.94617 16.0572 6.92483 15.9932 6.92483 15.8386V11.9196C6.92483 11.8129 6.89816 11.7756 6.82347 11.765C6.80746 11.7596 6.78079 11.7596 6.75412 11.7596H5.86321C5.86321 11.7596 5.82053 11.7596 5.80453 11.7543C5.75118 11.7436 5.72984 11.7063 5.72984 11.6263C5.74051 11.3064 5.72984 10.9865 5.72984 10.6719C5.72451 10.6133 5.73517 10.5813 5.76185 10.5599C5.77252 10.5546 5.78319 10.5493 5.80453 10.5439C5.82053 10.5439 5.84187 10.5439 5.86321 10.5439H9.39483C9.39483 10.5439 9.43218 10.5439 9.44818 10.5439C9.50686 10.5546 9.53353 10.5919 9.5282 10.6719C9.53353 10.9918 9.53354 11.3117 9.53887 11.6263C9.53887 11.7116 9.51753 11.7436 9.46418 11.7543C9.44818 11.7596 9.43217 11.7596 9.41083 11.7596ZM15.2364 23.154C15.2364 23.154 15.2044 23.1807 15.1831 23.1807C15.1671 23.1807 15.1457 23.1753 15.1297 23.1753H13.54C13.54 23.1753 13.5026 23.1753 13.4813 23.1753C13.4386 23.1647 13.4012 23.1433 13.3692 23.1167C13.3532 23.1007 13.3426 23.0847 13.3319 23.0687C12.7771 22.3489 12.2276 21.6344 11.6675 20.9199C11.6461 20.8879 11.6194 20.8613 11.5661 20.7919V20.8026H11.5607V21.6504C11.5607 22.1036 11.5554 22.5568 11.5607 23.01V23.0527C11.5607 23.0527 11.5608 23.0794 11.5554 23.09C11.5501 23.1113 11.5447 23.1273 11.5287 23.1433C11.5234 23.154 11.5127 23.1647 11.4914 23.17C11.4701 23.1753 11.4487 23.1807 11.4167 23.1807H11.3954C11.0273 23.17 10.6592 23.17 10.2964 23.1807C10.2644 23.1807 10.2324 23.1807 10.2111 23.17C10.2004 23.17 10.1844 23.17 10.179 23.1647C10.1684 23.1593 10.1577 23.1487 10.1524 23.138C10.1417 23.1273 10.1364 23.1113 10.131 23.0954C10.1257 23.0687 10.1257 23.042 10.1257 23.01V17.8167C10.115 17.7527 10.1257 17.7154 10.1524 17.6888C10.1684 17.6834 10.179 17.6781 10.2004 17.6728C10.2111 17.6674 10.2217 17.6674 10.2324 17.6674H10.2644C10.6485 17.6728 11.0326 17.6728 11.4167 17.6674H11.4327C11.4327 17.6674 11.4807 17.6728 11.4967 17.6781C11.5127 17.6781 11.5287 17.6888 11.5341 17.7047C11.5501 17.7207 11.5501 17.7527 11.5554 17.7794V19.9122H11.5607C11.6248 19.8482 11.6834 19.7842 11.7368 19.7202C11.7901 19.6509 11.8435 19.5869 11.8915 19.5123C12.1102 19.2244 12.3343 18.9311 12.553 18.6432C12.7717 18.3552 12.9958 18.062 13.2199 17.7741C13.2305 17.7634 13.2359 17.7474 13.2465 17.7367C13.2519 17.7261 13.2625 17.7154 13.2732 17.7047C13.2839 17.6941 13.2999 17.6834 13.3106 17.6781C13.3266 17.6728 13.3426 17.6674 13.3639 17.6674H15.0337C15.055 17.7527 14.991 17.7794 14.9537 17.8221C14.3082 18.6005 13.652 19.379 12.9958 20.1521L12.9745 20.1734C12.9745 20.1734 12.9638 20.1948 12.9585 20.2001C12.9585 20.2001 12.9531 20.2054 12.9531 20.2108C12.9425 20.2321 12.9371 20.2588 12.9371 20.2801C12.9371 20.2961 12.9371 20.3121 12.9478 20.3281C12.9531 20.3441 12.9638 20.3654 12.9745 20.3761C12.9745 20.3921 12.9851 20.3974 12.9958 20.408C13.1772 20.6213 13.3532 20.8346 13.5346 21.0479C13.716 21.2612 13.8921 21.4798 14.0681 21.6984C14.4202 22.1303 14.7776 22.5622 15.1297 22.994C15.1724 23.042 15.2097 23.0954 15.2471 23.1433C15.2417 23.1487 15.2417 23.154 15.2364 23.1593V23.154ZM13.2252 16.2065C12.3716 16.3131 11.5874 16.1532 10.8886 15.6146C10.1844 15.0761 9.84295 14.3456 9.7736 13.4712C9.76293 13.3859 9.76293 13.3006 9.76293 13.2153C9.77894 12.1115 10.2964 11.3064 11.2407 10.7626C12.4837 10.0481 14.1588 10.2933 15.119 11.3491C15.9566 12.2768 16.0473 13.3539 15.5938 14.4683C15.1724 15.5187 14.3348 16.0732 13.2252 16.2065ZM17.1463 23.17H17.1089C16.7355 23.17 16.3567 23.17 15.9779 23.17C15.8446 23.17 15.8179 23.1273 15.8179 23.0047V17.8221C15.8179 17.7527 15.8286 17.7101 15.8552 17.6781C15.8659 17.6674 15.8819 17.6568 15.9033 17.6568C15.9139 17.6514 15.9246 17.6461 15.9406 17.6514C15.9513 17.6461 15.9726 17.6461 15.9886 17.6461C16.3567 17.6568 16.7248 17.6461 17.0929 17.6461C17.1516 17.6461 17.1943 17.6514 17.2263 17.6728C17.253 17.6994 17.2636 17.7367 17.2583 17.8061V23.0207C17.2583 23.1113 17.237 23.1487 17.1836 23.1647C17.1729 23.1647 17.1623 23.1647 17.1463 23.1647V23.17ZM21.8462 18.8724C21.8462 18.8724 21.7822 18.8938 21.7342 18.8938H21.7288C21.4354 18.8884 21.1473 18.8938 20.8593 18.8938C20.7953 18.8938 20.7579 18.9044 20.7366 18.9258C20.7206 18.9364 20.7152 18.9524 20.7099 18.9738C20.6992 18.9898 20.6992 19.0164 20.6992 19.0484V23.0207C20.6992 23.0207 20.6992 23.074 20.6939 23.0954C20.6886 23.1167 20.6779 23.1327 20.6672 23.1487C20.6565 23.1593 20.6405 23.17 20.6192 23.1753C20.6085 23.1807 20.5979 23.186 20.5819 23.1807H20.5445C20.3738 23.1753 20.2084 23.1753 20.0377 23.1753H19.9043C19.7443 23.1753 19.5896 23.1753 19.4295 23.1807C19.2802 23.186 19.2642 23.1273 19.2642 23.0047V19.1017C19.2642 19.0644 19.2642 19.0377 19.2588 19.0111C19.2588 19.0004 19.2588 18.9897 19.2535 18.9844C19.2535 18.9738 19.2535 18.9578 19.2482 18.9524C19.2482 18.9418 19.2428 18.9311 19.2322 18.9258C19.2055 18.8991 19.1521 18.8991 19.0508 18.8991H18.2132C18.2132 18.8991 18.1652 18.8991 18.1492 18.8938C18.0959 18.8778 18.0798 18.8351 18.0798 18.7658C18.0798 18.4406 18.0852 18.1153 18.0798 17.7954C18.0798 17.7581 18.0852 17.7314 18.0905 17.7101C18.0959 17.7101 18.1012 17.6941 18.1065 17.6888C18.1172 17.6781 18.1332 17.6728 18.1492 17.6674C18.1759 17.6621 18.2025 17.6621 18.2399 17.6621H21.7395C21.7395 17.6621 21.7822 17.6621 21.7982 17.6674C21.8569 17.6834 21.8835 17.7207 21.8782 17.8061C21.8782 18.1206 21.8782 18.4352 21.8782 18.7445C21.8835 18.7871 21.8835 18.8191 21.8782 18.8405C21.8729 18.8565 21.8622 18.8671 21.8515 18.8724H21.8462ZM20.3791 16.0945C19.2588 16.4144 18.2025 16.2385 17.3116 15.444C16.8155 14.9908 16.5008 14.3723 16.4261 13.7058C16.2927 12.8047 16.5061 11.9996 17.1356 11.3277C17.6157 10.8105 18.2666 10.48 18.9708 10.3946C20.0484 10.256 20.9873 10.5546 21.7502 11.3544C22.2303 11.8556 22.4917 12.5274 22.4757 13.2206C22.4757 14.6122 21.6862 15.7319 20.3791 16.0945ZM26.2741 15.9132C26.2741 15.9612 26.2687 15.9985 26.2474 16.0199C26.226 16.0359 26.194 16.0465 26.1407 16.0465H23.2439C23.1852 16.0465 23.1532 16.0305 23.1372 16.0092C23.1212 15.9772 23.1212 15.9399 23.1212 15.8972V10.7199C23.1212 10.6826 23.1265 10.6506 23.1319 10.6239C23.1372 10.6026 23.1479 10.5866 23.1586 10.5759C23.1692 10.5599 23.1852 10.5493 23.2066 10.5493C23.2172 10.5439 23.2279 10.5439 23.2386 10.5439C23.2492 10.5439 23.2652 10.5439 23.2813 10.5439H23.3133C23.4893 10.5439 23.6707 10.5439 23.8467 10.5439H23.8574C24.0388 10.5439 24.2202 10.5439 24.3962 10.5439C24.4442 10.5439 24.4762 10.5439 24.5029 10.5653C24.5136 10.5653 24.5243 10.5706 24.5296 10.5813C24.5403 10.5919 24.5456 10.6026 24.5509 10.6239C24.5563 10.6453 24.5563 10.6719 24.5563 10.7039V14.6176C24.5563 14.6975 24.5563 14.7455 24.5723 14.7775C24.5723 14.7935 24.5883 14.8095 24.6096 14.8148C24.6416 14.8308 24.6896 14.8308 24.7697 14.8308H26.13C26.13 14.8308 26.178 14.8308 26.1994 14.8362C26.2207 14.8362 26.2314 14.8415 26.2421 14.8522C26.2527 14.8628 26.2634 14.8735 26.2634 14.8841C26.2741 14.9055 26.2741 14.9321 26.2741 14.9641V15.9185V15.9132ZM19.4402 11.7543C18.5973 11.7543 17.8825 12.4261 17.8825 13.2153V13.2419C17.8718 14.1057 18.5653 14.8148 19.4349 14.8202C20.2991 14.8255 20.9873 14.111 20.9873 13.2099C20.9873 12.4368 20.2778 11.7543 19.4402 11.7543ZM12.8144 11.7596C11.9769 11.7543 11.262 12.4155 11.262 13.1993C11.262 14.1163 11.9289 14.8202 12.7984 14.8202C13.6787 14.8255 14.3455 14.127 14.3508 13.2206C14.3508 12.4208 13.6466 11.765 12.8144 11.7596ZM19.4402 11.7543C18.5973 11.7543 17.8825 12.4261 17.8825 13.2153V13.2419C17.8718 14.1057 18.5653 14.8148 19.4349 14.8202C20.2991 14.8255 20.9873 14.111 20.9873 13.2099C20.9873 12.4368 20.2778 11.7543 19.4402 11.7543ZM19.4402 11.7543C18.5973 11.7543 17.8825 12.4261 17.8825 13.2153V13.2419C17.8718 14.1057 18.5653 14.8148 19.4349 14.8202C20.2991 14.8255 20.9873 14.111 20.9873 13.2099C20.9873 12.4368 20.2778 11.7543 19.4402 11.7543ZM15.8126 23.01V20.4027C15.8126 21.2718 15.8126 22.1409 15.8126 23.01ZM20.6992 22.0236V20.0401V21.0372C20.6992 21.3678 20.6992 21.6984 20.6992 22.0236ZM5.80453 11.7543C5.74051 11.749 5.71383 11.7116 5.71917 11.6263C5.7245 11.3117 5.71917 10.9918 5.71917 10.6719C5.71917 10.6079 5.72984 10.5759 5.76185 10.5599C5.73517 10.5813 5.72451 10.6133 5.72984 10.6719C5.72984 10.9865 5.74051 11.3064 5.72984 11.6263C5.72984 11.7063 5.75118 11.7436 5.80453 11.7543ZM5.86321 11.7596H6.74345C6.45537 11.7703 6.15662 11.7596 5.86321 11.7596ZM8.29587 16.0252C8.26386 16.0465 8.21585 16.0518 8.14649 16.0518C7.79973 16.0359 7.45297 16.0359 7.11155 16.0518C6.9355 16.0572 6.90883 15.9985 6.90883 15.8386C6.9195 15.1934 6.90883 14.5429 6.90883 13.8977V11.9249C6.90883 11.8236 6.88749 11.781 6.82347 11.765C6.89816 11.7756 6.92483 11.8129 6.92483 11.9196V15.8386C6.92483 15.9932 6.94617 16.0572 7.12222 16.0465C7.46898 16.0305 7.81574 16.0305 8.15716 16.0465C8.22118 16.0465 8.26386 16.0412 8.29587 16.0252ZM11.4167 17.6568C11.4167 17.6568 11.4274 17.6568 11.4327 17.6621H11.4167C11.0326 17.6674 10.6485 17.6674 10.2644 17.6621C10.2377 17.6621 10.2164 17.6621 10.2004 17.6674C10.2217 17.6568 10.2431 17.6568 10.2697 17.6568C10.6485 17.6621 11.0326 17.6621 11.4167 17.6568ZM11.5501 17.7741C11.5501 17.7421 11.5447 17.7207 11.5287 17.6994C11.5447 17.7154 11.5447 17.7474 11.5501 17.7741ZM11.5554 17.8114C11.5554 17.8114 11.5554 17.7847 11.5554 17.7741C11.5554 17.7847 11.5607 17.7901 11.5607 17.8061V19.9015H11.5554V17.8114ZM11.5607 20.7919H11.5661V22.9994C11.5661 23.0314 11.5661 23.0634 11.5554 23.0847C11.5608 23.0634 11.5607 23.0367 11.5607 23.0047C11.5554 22.5515 11.5607 22.0983 11.5607 21.6451V20.7919ZM12.9691 20.1681C12.9691 20.1681 12.9585 20.1841 12.9585 20.1894C12.9638 20.1734 12.9798 20.1521 12.9958 20.1415C12.9905 20.1468 12.9798 20.1574 12.9691 20.1681ZM13.0011 20.3974C13.3586 20.8293 13.716 21.2558 14.0681 21.693C13.7107 21.2612 13.3586 20.8293 12.9958 20.4027C12.9851 20.3921 12.9745 20.3867 12.9745 20.3707C12.9798 20.3814 12.9905 20.3867 13.0011 20.3974ZM15.2524 23.1273L15.2471 23.138C15.2097 23.09 15.1724 23.0367 15.1297 22.9887C14.7776 22.5568 14.4202 22.1249 14.0681 21.693C14.4255 22.1196 14.7776 22.5568 15.1351 22.9834C15.1777 23.0314 15.2151 23.0847 15.2524 23.1273ZM17.0982 17.6408C17.1569 17.6408 17.1996 17.6461 17.2263 17.6728C17.1943 17.6514 17.1516 17.6461 17.0929 17.6461C16.7248 17.6461 16.3567 17.6568 15.9886 17.6461C15.9513 17.6461 15.9246 17.6461 15.9033 17.6568C15.9299 17.6461 15.9619 17.6408 15.9993 17.6408C16.3674 17.6514 16.7355 17.6514 17.0982 17.6408ZM17.269 17.8061C17.2583 19.5496 17.2583 21.2878 17.269 23.026C17.269 23.1167 17.2476 23.1593 17.1836 23.17C17.237 23.154 17.2583 23.1167 17.2583 23.026V17.8114C17.2636 17.7421 17.253 17.7048 17.2263 17.6781C17.2583 17.6941 17.269 17.7367 17.269 17.8061ZM18.1492 18.8938C18.0905 18.8831 18.0692 18.8458 18.0692 18.7658C18.0692 18.4406 18.0799 18.1206 18.0692 17.7954C18.0692 17.7581 18.0692 17.7261 18.0905 17.7101C18.0852 17.7314 18.0798 17.7581 18.0798 17.7954C18.0852 18.1153 18.0798 18.4406 18.0798 18.7658C18.0798 18.8351 18.0959 18.8778 18.1492 18.8938ZM19.4295 23.1753C19.5896 23.17 19.7443 23.17 19.9043 23.17C19.7443 23.17 19.5789 23.1753 19.4189 23.1807C19.2748 23.1807 19.2588 23.1273 19.2588 22.9994V19.0964C19.2588 18.9951 19.2588 18.9471 19.2322 18.9204C19.2642 18.9418 19.2642 18.9897 19.2642 19.0964V22.9994C19.2642 23.122 19.2802 23.1807 19.4295 23.1753ZM20.6192 23.17C20.6192 23.17 20.5712 23.1807 20.5392 23.1807C20.3738 23.1753 20.2031 23.17 20.0377 23.17C20.2084 23.17 20.3738 23.17 20.5445 23.1753C20.5765 23.1753 20.6032 23.1753 20.6192 23.17ZM24.5563 10.6986C24.5563 10.6666 24.5563 10.6399 24.5509 10.6186C24.5616 10.6399 24.5616 10.6666 24.5616 10.7039V14.6176C24.5616 14.6975 24.5616 14.7455 24.5723 14.7722C24.5563 14.7402 24.5563 14.6922 24.5563 14.6122V10.6986ZM26.1407 16.0465C26.194 16.0465 26.226 16.0359 26.2474 16.0199C26.2314 16.0412 26.1994 16.0518 26.146 16.0518H23.2439C23.1852 16.0518 23.1532 16.0359 23.1372 16.0092C23.1532 16.0305 23.1852 16.0465 23.2439 16.0465H26.1407ZM26.2741 15.2467V14.9588C26.2741 14.9268 26.2741 14.9001 26.2634 14.8788C26.2794 14.9001 26.2794 14.9321 26.2794 14.9695C26.2794 15.0654 26.2794 15.1561 26.2794 15.2467H26.2741ZM11.3954 23.17H11.4167C11.4167 23.17 11.4007 23.1753 11.3954 23.1753C11.0273 23.1647 10.6592 23.1647 10.2911 23.1753C10.1897 23.1753 10.147 23.1487 10.131 23.0847C10.1524 23.1487 10.2004 23.17 10.2964 23.17C10.6592 23.1593 11.0273 23.1593 11.3954 23.17ZM11.6675 20.9039C11.6408 20.8773 11.6194 20.8506 11.5661 20.7919V20.7813C11.6194 20.8506 11.6461 20.8773 11.6675 20.9039ZM11.8915 19.5016C11.8435 19.5763 11.7901 19.6402 11.7368 19.7096C11.7901 19.6456 11.8382 19.5763 11.8862 19.5016C12.1102 19.2137 12.3343 18.9258 12.553 18.6325C12.3343 18.9204 12.1102 19.2137 11.8915 19.5016ZM13.2199 17.7634C12.9958 18.0513 12.7717 18.3446 12.553 18.6325C12.7717 18.3446 12.9958 18.0513 13.2145 17.7634C13.2252 17.7527 13.2359 17.7367 13.2465 17.7261C13.2359 17.7367 13.2305 17.7527 13.2199 17.7634ZM13.3319 23.0634C13.3319 23.0634 13.3532 23.0953 13.3692 23.1113C13.3532 23.1007 13.3372 23.0847 13.3266 23.0634C12.7771 22.3489 12.2223 21.6291 11.6675 20.9146C12.2276 21.6291 12.7771 22.3435 13.3319 23.0634ZM20.6992 19.0431C20.6992 18.9791 20.7099 18.9418 20.7366 18.9204C20.7099 18.9471 20.7046 18.9844 20.7046 19.0431V23.01C20.7046 23.0794 20.6992 23.122 20.6672 23.1433C20.6939 23.1167 20.6992 23.074 20.6992 23.0154V19.0431ZM21.7288 18.8938C21.4354 18.8884 21.1473 18.8938 20.8593 18.8938C21.1527 18.9044 21.4408 18.8938 21.7288 18.8938ZM21.8782 18.7445C21.8782 18.4352 21.8782 18.1206 21.8782 17.8061C21.8835 17.7207 21.8569 17.6834 21.7982 17.6674C21.8675 17.6781 21.8889 17.7101 21.8889 17.8061C21.8835 18.1206 21.8782 18.4299 21.8942 18.7445C21.8942 18.7925 21.8889 18.8245 21.8729 18.8405C21.8835 18.8191 21.8835 18.7871 21.8729 18.7445H21.8782ZM8.42924 11.7703C8.37055 11.7863 8.35988 11.8343 8.35988 11.9249V15.8386C8.35988 15.9239 8.34921 15.9772 8.3172 16.0039C8.34388 15.9719 8.34922 15.9185 8.34922 15.8439V11.9249C8.34388 11.8343 8.35989 11.7863 8.42924 11.7703ZM9.55487 10.6772C9.54954 10.9972 9.54954 11.3117 9.55487 11.6317C9.55487 11.717 9.5282 11.749 9.46418 11.7596C9.51753 11.749 9.53887 11.717 9.53887 11.6317C9.53887 11.3171 9.53887 10.9972 9.5282 10.6772C9.53353 10.5973 9.50686 10.5599 9.44818 10.5493C9.51753 10.5546 9.54421 10.5919 9.55487 10.6772ZM23.3079 10.5386C23.4893 10.5439 23.6654 10.5493 23.8467 10.5493C23.6707 10.5493 23.4893 10.5493 23.3133 10.5493C23.2386 10.5439 23.1852 10.5493 23.1586 10.5866C23.1852 10.5546 23.2332 10.5439 23.3079 10.5439V10.5386ZM24.3962 10.5386C24.4656 10.5386 24.5083 10.5493 24.5296 10.5813C24.5029 10.5546 24.4656 10.5439 24.3962 10.5439C24.2202 10.5439 24.0388 10.5439 23.8574 10.5439C24.0388 10.5439 24.2148 10.5439 24.3962 10.5333V10.5386ZM26.13 14.8202C26.13 14.8202 26.1834 14.8202 26.1994 14.8308C26.178 14.8255 26.1567 14.8255 26.13 14.8255H24.7697C24.6896 14.8255 24.6416 14.8255 24.6096 14.8095C24.6416 14.8202 24.6896 14.8202 24.7697 14.8202H26.13ZM23.1265 12.0102V15.9026V13.2952C23.1265 12.8687 23.1265 12.4368 23.1265 12.0049V12.0102ZM17.1836 23.17C17.1836 23.17 17.1356 23.1807 17.1036 23.1807C16.7248 23.17 16.346 23.17 15.9673 23.1807C15.8339 23.1807 15.8072 23.138 15.8072 23.0154V17.8327C15.8072 17.7527 15.8179 17.7047 15.8552 17.6834C15.8286 17.7154 15.8179 17.7581 15.8179 17.8274V23.01C15.8179 23.1327 15.8446 23.1753 15.9779 23.1753C16.3567 23.1753 16.7355 23.1753 17.1089 23.1753C17.1409 23.1753 17.1623 23.1753 17.1836 23.1753V23.17Z"
        fill="#449AAB" />
</svg>