<svg width="32" height="32" viewBox="0 0 32 32" fill="none" xmlns="http://www.w3.org/2000/svg">
    <g clip-path="url(#clip0_5432_79)">
        <path opacity="0.997" fill-rule="evenodd" clip-rule="evenodd"
            d="M2.79708 0C11.1601 0 19.5236 0 27.8866 0C27.8866 2.59048 27.8866 5.18094 27.8866 7.77143C19.5961 7.62053 11.385 7.77289 3.25325 8.22857C2.80164 5.57257 2.64974 2.8297 2.79708 0Z"
            fill="#FE0EAE" />
        <path opacity="0.502" fill-rule="evenodd" clip-rule="evenodd"
            d="M27.8867 0C28.0386 0 28.191 0 28.3429 0C28.3429 2.74286 28.3429 5.48571 28.3429 8.22857C19.9799 8.22857 11.6164 8.22857 3.25342 8.22857C11.3851 7.77289 19.5962 7.62053 27.8867 7.77143C27.8867 5.18094 27.8867 2.59048 27.8867 0Z"
            fill="#FF0EAD" />
        <path opacity="0.976" fill-rule="evenodd" clip-rule="evenodd"
            d="M2.79736 11.8857C11.3127 11.8857 19.8276 11.8857 28.343 11.8857C28.343 14.6286 28.343 17.3715 28.343 20.1143C19.8276 20.1143 11.3127 20.1143 2.79736 20.1143C2.79736 17.3715 2.79736 14.6286 2.79736 11.8857Z"
            fill="#FF0EAE" />
        <path opacity="0.976" fill-rule="evenodd" clip-rule="evenodd"
            d="M2.79736 23.7715C11.3127 23.7715 19.8276 23.7715 28.343 23.7715C28.343 26.5143 28.343 29.2572 28.343 32.0001C19.8276 32.0001 11.3127 32.0001 2.79736 32.0001C2.79736 29.2572 2.79736 26.5143 2.79736 23.7715Z"
            fill="#FF0EAE" />
    </g>
    <defs>
        <clipPath id="clip0_5432_79">
            <rect width="32" height="32" fill="white" />
        </clipPath>
    </defs>
</svg>