<svg width="32" height="32" viewBox="0 0 32 32" fill="none" xmlns="http://www.w3.org/2000/svg">
    <path
        d="M30.108 5.31833C29.4689 3.80443 28.7032 2.59444 27.8236 1.7165C26.4125 0.298276 24.9571 0 23.9953 0C23.3372 0 22.4576 0.140696 21.5147 0.675343C22.6284 1.48575 25.0647 3.50053 26.3682 6.56771C27.425 9.05523 28.0008 12.4094 28.0008 16C28.0008 19.5906 27.425 22.9448 26.3682 25.4323C25.3304 27.8917 24.2863 28.4432 24.0016 28.4432C23.7168 28.4432 22.6664 27.8917 21.635 25.4323C20.5845 22.9392 20.0024 19.5906 20.0024 16H16.0032C16.0032 20.007 16.6739 23.8002 17.8889 26.6817C18.528 28.1956 19.2937 29.4056 20.1732 30.2835C21.5843 31.7017 23.0398 32 24.0016 32C24.9634 32 26.4188 31.7017 27.8299 30.2835C28.7095 29.4056 29.4752 28.1899 30.1143 26.6817C31.3292 23.8002 32 20.007 32 16C32 11.993 31.3292 8.19979 30.1143 5.31833H30.108Z"
        fill="#3AA7EA" />
    <path
        d="M22.0589 6.89419C20.0656 2.9603 17.4079 2.375 15.9968 2.375C15.1932 2.375 13.9782 2.56635 12.719 3.46118C12.7696 3.48369 12.8202 3.51183 12.8772 3.53434C14.0732 4.13089 16.4018 5.09891 18.4204 8.35181C19.6037 10.2597 20.0024 13.1242 20.0024 16.0057H24.0016C24.0016 12.5952 23.3182 9.35919 22.0716 6.89419H22.0589Z"
        fill="#3AA7EA" />
    <path
        d="M7.99843 5.92676C3.51196 5.92676 0 10.3503 0 16.0006C0 20.8181 2.55645 24.7463 6.08741 25.7987C4.73323 22.951 3.99921 19.5518 3.99921 16.0006C3.99921 12.1568 6.1064 9.47794 7.99843 9.47794C9.89046 9.47794 11.9976 12.1568 11.9976 16.0006H15.9968C15.9968 10.3503 12.4849 5.92676 7.99843 5.92676Z"
        fill="#3AA7EA" />
    <path
        d="M9.92853 25.1171C11.6117 28.4432 13.7759 29.3774 15.2566 29.5856C15.2186 29.5181 15.1743 29.4449 15.1364 29.3718C13.1494 25.8375 12.042 21.2001 11.9977 16.287V16H7.99854C7.99854 19.4105 8.68194 22.6465 9.92853 25.1115V25.1171Z"
        fill="#3AA7EA" />
</svg>