<svg width="32" height="32" viewBox="0 0 32 32" fill="none" xmlns="http://www.w3.org/2000/svg">
    <g clip-path="url(#clip0_5403_361)">
        <path fill-rule="evenodd" clip-rule="evenodd"
            d="M-0.0712891 -0.0712891C1.58798 -0.0712891 3.24722 -0.0712891 4.90649 -0.0712891C2.20658 0.535378 0.547326 2.19464 -0.0712891 4.90649C-0.0712891 3.24722 -0.0712891 1.58798 -0.0712891 -0.0712891Z"
            fill="#F9FBFC" />
        <path fill-rule="evenodd" clip-rule="evenodd"
            d="M5.33316 -0.0712891C6.32871 -0.0712891 7.32427 -0.0712891 8.31982 -0.0712891C8.31982 0.307971 8.31982 0.687229 8.31982 1.06649C8.03538 1.06649 7.75093 1.06649 7.46649 1.06649C7.37167 1.825 7.27686 2.58353 7.18204 3.34204C6.99242 3.34204 6.80278 3.34204 6.61316 3.34204C6.65773 3.73271 6.61031 4.11196 6.47093 4.47982C5.80944 4.79393 5.40649 5.31541 5.26204 6.04427C4.63802 6.49682 4.37727 7.11311 4.47982 7.89316C4.21455 8.17945 3.97751 8.51131 3.76871 8.88871C3.65138 9.01468 3.50916 9.06208 3.34204 9.03093C2.96278 9.78945 2.58353 10.548 2.20427 11.3065C1.87242 11.3065 1.54056 11.3065 1.20871 11.3065C1.20871 11.6858 1.20871 12.065 1.20871 12.4443C0.971673 12.4443 0.734637 12.4443 0.4976 12.4443C0.4976 12.8235 0.4976 13.2028 0.4976 13.582C0.355378 13.582 0.213155 13.582 0.0709332 13.582C0.11451 13.9924 0.0671027 14.3717 -0.0712891 14.7198C-0.0712891 13.7717 -0.0712891 12.8235 -0.0712891 11.8754C0.210809 11.892 0.447846 11.7972 0.639822 11.5909C0.91193 11.2122 1.22008 10.8804 1.56427 10.5954C1.83945 10.1108 1.95797 9.58935 1.91982 9.03093C2.06204 9.03093 2.20427 9.03093 2.34649 9.03093C2.39779 7.87899 2.54001 6.74121 2.77316 5.6176C3.0102 5.6176 3.24722 5.6176 3.48427 5.6176C3.48427 5.23834 3.48427 4.85909 3.48427 4.47982C3.72131 4.47982 3.95834 4.47982 4.19538 4.47982C4.19538 4.10056 4.19538 3.72131 4.19538 3.34204C4.3376 3.34204 4.47982 3.34204 4.62204 3.34204C4.62204 2.96278 4.62204 2.58353 4.62204 2.20427C4.76427 2.20427 4.90649 2.20427 5.04871 2.20427C5.02537 1.82207 5.04908 1.44281 5.11982 1.06649C5.26365 0.947501 5.42957 0.900093 5.6176 0.924267C5.6176 0.782044 5.6176 0.639822 5.6176 0.4976C5.07563 0.483978 5.07563 0.389163 5.6176 0.213155C5.51197 0.116182 5.41715 0.0213669 5.33316 -0.0712891Z"
            fill="#297FFE" />
        <path fill-rule="evenodd" clip-rule="evenodd"
            d="M21.2623 -0.0712891C22.2105 -0.0712891 23.1585 -0.0712891 24.1067 -0.0712891C23.8331 0.225 23.5249 0.509444 23.1823 0.782044C21.5649 2.98987 19.9294 5.17061 18.2756 7.32427C18.1509 7.79714 18.1271 8.27121 18.2045 8.74649C18.1024 8.61129 17.9839 8.5876 17.8489 8.67538C17.6963 9.05321 17.4593 9.36134 17.1378 9.59982C16.7503 10.5472 16.3474 11.4954 15.9289 12.4443C15.847 12.7113 15.8708 12.972 16.0001 13.2265C15.6308 13.663 15.5124 14.1608 15.6445 14.7198C15.7045 14.4459 15.8705 14.3037 16.1423 14.2932C15.9887 14.6481 15.799 14.9801 15.5734 15.2887C15.2461 13.1399 15.0328 10.9591 14.9334 8.74649C14.8299 8.36437 14.6639 8.03252 14.4356 7.75093C14.1511 7.25407 13.7244 6.94591 13.1556 6.82649C12.1612 6.75543 11.1656 6.73173 10.1689 6.75538C11.0593 6.67265 11.96 6.55413 12.8712 6.39982C12.4177 6.26033 12.3703 6.07071 12.7289 5.83093C12.4883 5.63172 12.3935 5.37097 12.4445 5.04871C13.3965 5.09657 14.3446 5.19139 15.2889 5.33316C17.098 5.37901 18.5202 4.6679 19.5556 3.19982C20.0622 2.0598 20.6311 0.969428 21.2623 -0.0712891Z"
            fill="#7838FE" />
        <path fill-rule="evenodd" clip-rule="evenodd"
            d="M24.1063 -0.0712891C24.9596 -0.0712891 25.8129 -0.0712891 26.6663 -0.0712891C26.6663 0.0235258 26.7136 0.0709332 26.8085 0.0709332C26.112 0.244675 25.6142 0.671341 25.3152 1.35093C24.7463 1.54056 24.367 1.91982 24.1774 2.48871C23.8685 2.64306 23.584 2.83269 23.324 3.0576C22.692 3.89964 22.0994 4.75297 21.5463 5.6176C23.6322 5.665 23.6322 5.71242 21.5463 5.75982C21.5463 5.90204 21.5463 6.04427 21.5463 6.18649C21.3567 6.18649 21.167 6.18649 20.9774 6.18649C20.9168 6.41956 20.9168 6.60919 20.9774 6.75538C20.4072 6.98272 19.9569 7.36198 19.6263 7.89316C18.5333 10.0803 17.3718 12.2137 16.1418 14.2932C15.87 14.3037 15.7041 14.4459 15.644 14.7198C15.5119 14.1608 15.6304 13.663 15.9996 13.2265C15.8703 12.972 15.8466 12.7113 15.9285 12.4443C16.3469 11.4954 16.7498 10.5472 17.1374 9.59982C17.4588 9.36134 17.6959 9.05321 17.8485 8.67538C17.9835 8.5876 18.1019 8.61129 18.204 8.74649C18.1267 8.27121 18.1504 7.79714 18.2752 7.32427C19.9289 5.17061 21.5645 2.98987 23.1818 0.782044C23.5244 0.509444 23.8326 0.225 24.1063 -0.0712891Z"
            fill="#8830FD" />
        <path fill-rule="evenodd" clip-rule="evenodd"
            d="M26.667 -0.0712891C28.421 -0.0712891 30.1752 -0.0712891 31.9292 -0.0712891C31.9292 1.54056 31.9292 3.15242 31.9292 4.76427C31.8819 4.76427 31.8344 4.76427 31.787 4.76427C31.7928 4.11794 31.6032 3.54905 31.2181 3.0576C30.996 2.5041 30.6641 2.03003 30.2225 1.63538C29.3071 0.656545 28.1693 0.135063 26.8092 0.0709332C26.7144 0.0709332 26.667 0.0235258 26.667 -0.0712891Z"
            fill="#FCFBFC" />
        <path fill-rule="evenodd" clip-rule="evenodd"
            d="M4.90649 -0.0712891C5.04871 -0.0712891 5.19093 -0.0712891 5.33316 -0.0712891C5.41715 0.0213669 5.51197 0.116182 5.6176 0.213155C5.07563 0.389163 5.07563 0.483978 5.6176 0.4976C5.6176 0.639822 5.6176 0.782044 5.6176 0.924267C5.42957 0.900093 5.26365 0.947501 5.11982 1.06649C5.04908 1.44281 5.02537 1.82207 5.04871 2.20427C4.90649 2.20427 4.76427 2.20427 4.62204 2.20427C4.62204 2.58353 4.62204 2.96278 4.62204 3.34204C4.47982 3.34204 4.3376 3.34204 4.19538 3.34204C4.19538 3.72131 4.19538 4.10056 4.19538 4.47982C3.95834 4.47982 3.72131 4.47982 3.48427 4.47982C3.48427 4.85909 3.48427 5.23834 3.48427 5.6176C3.24722 5.6176 3.0102 5.6176 2.77316 5.6176C2.54001 6.74121 2.39779 7.87899 2.34649 9.03093C2.20427 9.03093 2.06204 9.03093 1.91982 9.03093C1.95797 9.58935 1.83945 10.1108 1.56427 10.5954C1.22008 10.8804 0.91193 11.2122 0.639822 11.5909C0.447846 11.7972 0.210809 11.892 -0.0712891 11.8754C-0.0712891 9.55242 -0.0712891 7.22945 -0.0712891 4.90649C0.547326 2.19464 2.20658 0.535378 4.90649 -0.0712891Z"
            fill="#2287FE" />
        <path fill-rule="evenodd" clip-rule="evenodd"
            d="M26.8092 0.0712891C28.1692 0.135419 29.307 0.6569 30.2225 1.63573C29.851 1.87713 29.4481 2.20897 29.0136 2.63129C28.6258 3.25068 28.1754 3.81957 27.6625 4.33796C27.5452 4.46392 27.4029 4.51132 27.2358 4.48018C27.0811 5.00801 26.8678 5.52949 26.5958 6.04462C26.2066 6.25616 25.9696 6.58801 25.8847 7.04018C25.8246 6.83309 25.7061 6.76198 25.5292 6.82684C25.6361 6.92225 25.6836 7.04076 25.6714 7.1824C25.4381 7.06576 25.2011 6.94725 24.9603 6.82684C23.6338 6.75576 22.3063 6.73205 20.9781 6.75573C20.9175 6.60954 20.9175 6.41992 20.9781 6.18684C21.1676 6.18684 21.3574 6.18684 21.5469 6.18684C21.5469 6.04462 21.5469 5.9024 21.5469 5.76018C23.6329 5.71278 23.6329 5.66536 21.5469 5.61796C22.1 4.75333 22.6927 3.9 23.3247 3.05796C23.5847 2.83305 23.8692 2.64342 24.1781 2.48907C24.3676 1.92018 24.7469 1.54091 25.3158 1.35129C25.6149 0.671697 26.1127 0.245031 26.8092 0.0712891Z"
            fill="#A026FE" />
        <path fill-rule="evenodd" clip-rule="evenodd"
            d="M30.2226 1.63574C30.6642 2.03039 30.996 2.50446 31.2182 3.05796C31.0444 3.42915 31.0444 3.80841 31.2182 4.19574C31.1944 4.29056 31.1708 4.38537 31.1471 4.48019C31.0997 4.33796 31.0522 4.19574 31.0049 4.05352C31.1472 5.21459 30.6494 5.73608 29.5115 5.61796C29.5115 5.99723 29.5115 6.37648 29.5115 6.75574C28.8155 6.81156 28.4124 7.19081 28.3026 7.89352C27.9233 8.27278 27.5442 8.65203 27.1649 9.0313C27.0943 8.813 27.1179 8.59967 27.236 8.3913C27.1886 8.32019 27.1411 8.24908 27.0937 8.17796C26.9989 8.41501 26.9042 8.65203 26.8093 8.88908C26.6935 8.56677 26.6224 8.23492 26.596 7.89352C26.5719 8.65132 26.5957 9.40984 26.6671 10.1691C26.5249 10.1691 26.3826 10.1691 26.2404 10.1691C26.2858 9.47741 26.2384 8.8137 26.0982 8.17796C26.0626 7.86877 25.9204 7.63175 25.6715 7.46685C25.6715 7.37203 25.6715 7.27723 25.6715 7.18241C25.6838 7.04077 25.6362 6.92226 25.5293 6.82685C25.7062 6.76199 25.8247 6.8331 25.8849 7.04019C25.9698 6.58802 26.2067 6.25617 26.596 6.04463C26.8679 5.5295 27.0812 5.00802 27.236 4.48019C27.4031 4.51133 27.5453 4.46393 27.6626 4.33796C28.1755 3.81958 28.6259 3.25069 29.0137 2.6313C29.4482 2.20898 29.8511 1.87714 30.2226 1.63574Z"
            fill="#B71EFB" />
        <path fill-rule="evenodd" clip-rule="evenodd"
            d="M15.5729 -0.0712891C17.4692 -0.0712891 19.3656 -0.0712891 21.2618 -0.0712891C20.6306 0.969428 20.0618 2.0598 19.5552 3.19982C18.5198 4.6679 17.0976 5.37901 15.2885 5.33316C14.3441 5.19139 13.396 5.09657 12.444 5.04871C12.393 5.37097 12.4878 5.63172 12.7285 5.83093C12.3698 6.07071 12.4172 6.26033 12.8707 6.39982C11.9595 6.55413 11.0588 6.67265 10.1685 6.75538C9.82417 6.80917 9.49232 6.90397 9.17293 7.03982C8.99518 7.02881 8.87667 6.93401 8.81738 6.75538C8.61848 6.83373 8.42886 6.88113 8.24849 6.8976C8.21838 6.43428 8.14727 5.98392 8.03516 5.54649C8.3196 5.21464 8.60405 4.88278 8.88849 4.55093C8.74627 4.50353 8.60405 4.45611 8.46182 4.40871C8.2722 4.31389 8.2722 4.21909 8.46182 4.12427C9.83354 3.78818 11.161 3.90671 12.444 4.47982C12.4213 4.23816 12.445 4.00112 12.5152 3.76871C12.7753 3.53322 12.965 3.24878 13.084 2.91538C13.4159 2.77316 13.7478 2.63093 14.0796 2.48871C14.1033 2.44131 14.127 2.39389 14.1507 2.34649C14.0261 2.23971 13.8839 2.1686 13.724 2.13316C14.3736 1.41365 14.99 0.678838 15.5729 -0.0712891Z"
            fill="#4E5CFE" />
        <path fill-rule="evenodd" clip-rule="evenodd"
            d="M10.1686 6.75595C11.1652 6.73229 12.1608 6.756 13.1552 6.82706C13.7241 6.94648 14.1507 7.25463 14.4352 7.7515C14.6644 10.4536 14.9014 13.1559 15.1463 15.8582C15.3574 15.7206 15.4996 15.5311 15.573 15.2893C15.7986 14.9807 15.9883 14.6487 16.1419 14.2937C17.3718 12.2142 18.5334 10.0809 19.6263 7.89372C19.957 7.36255 20.4073 6.98329 20.9775 6.75595C22.3057 6.73227 23.6332 6.75597 24.9597 6.82706C25.2005 6.94746 25.4375 7.06598 25.6708 7.18261C25.6708 7.27743 25.6708 7.37224 25.6708 7.46706C25.3572 9.41416 25.0254 11.3579 24.6752 13.2982C24.1071 16.0399 23.5619 18.7895 23.0397 21.5471C22.972 22.4214 22.5216 22.9667 21.6886 23.1826C20.979 23.2536 20.2679 23.2773 19.5552 23.2537C19.32 23.0759 19.0829 22.8862 18.8441 22.6848C19.3426 20.0741 19.8641 17.4667 20.4086 14.8626C20.6683 13.8245 20.8816 12.7815 21.0486 11.7337C20.3904 12.984 19.703 14.2166 18.9863 15.4315C17.7885 17.4951 16.627 19.5811 15.5019 21.6893C14.9142 22.3361 14.1794 22.5732 13.2975 22.4004C13.25 22.4004 13.2026 22.4004 13.1552 22.4004C12.663 22.1195 12.3549 21.6928 12.2308 21.1204C11.9926 19.2297 11.8266 17.3334 11.733 15.4315C11.5608 14.1602 11.4423 12.8802 11.3775 11.5915C10.9066 14.0168 10.4088 16.4346 9.88412 18.8448C9.61036 19.7127 9.39702 20.6134 9.24412 21.5471C8.71319 23.0577 7.64652 23.6266 6.04412 23.2537C5.9493 23.2537 5.85449 23.2537 5.75967 23.2537C5.52361 22.9946 5.38139 22.6864 5.33301 22.3293C5.8236 20.3266 6.25027 18.3118 6.61301 16.2848C7.24827 13.6483 7.88827 10.9935 8.53301 8.32039C8.67327 7.85025 8.8866 7.42358 9.17301 7.04039C9.4924 6.90454 9.82424 6.80973 10.1686 6.75595Z"
            fill="#FDFCFC" />
        <path fill-rule="evenodd" clip-rule="evenodd"
            d="M8.32016 -0.0712891C10.7379 -0.0712891 13.1557 -0.0712891 15.5735 -0.0712891C14.9905 0.678838 14.3741 1.41365 13.7246 2.13316C13.8845 2.1686 14.0267 2.23971 14.1513 2.34649C14.1276 2.39389 14.1039 2.44131 14.0802 2.48871C13.7483 2.63093 13.4164 2.77316 13.0846 2.91538C12.9655 3.24878 12.7759 3.53322 12.5157 3.76871C12.4455 4.00112 12.4218 4.23816 12.4446 4.47982C11.1615 3.90671 9.8341 3.78818 8.46238 4.12427C8.27275 4.21909 8.27275 4.31389 8.46238 4.40871C8.6046 4.45611 8.74682 4.50353 8.88904 4.55093C8.6046 4.88278 8.32016 5.21464 8.03571 5.54649C8.14783 5.98392 8.21894 6.43428 8.24904 6.8976C8.42941 6.88113 8.61904 6.83373 8.81793 6.75538C8.87723 6.93401 8.99574 7.02881 9.17349 7.03982C8.88708 7.42301 8.67375 7.84968 8.53349 8.31982C7.88875 10.9929 7.24875 13.6477 6.61349 16.2843C6.52568 16.2685 6.45457 16.2211 6.40016 16.142C6.35275 16.4265 6.30534 16.7109 6.25793 16.9954C6.11571 16.2369 5.97349 16.2369 5.83127 16.9954C5.76158 16.8115 5.73787 16.6218 5.76016 16.4265C5.33599 16.4923 4.90933 16.5397 4.48016 16.5687C4.5107 16.8075 4.41589 16.9497 4.19571 16.9954C4.05349 16.9954 3.91127 16.9954 3.76904 16.9954C3.76904 16.8058 3.76904 16.6161 3.76904 16.4265C4.02334 16.467 4.26038 16.4197 4.48016 16.2843C4.15804 16.1211 3.82619 16.0974 3.4846 16.2132C3.65464 16.3062 3.65464 16.3773 3.4846 16.4265C3.35252 16.2574 3.30512 16.0678 3.34238 15.8576C3.532 15.8576 3.72164 15.8576 3.91127 15.8576C3.91127 15.4783 3.91127 15.0991 3.91127 14.7198C4.05349 14.7198 4.19571 14.7198 4.33793 14.7198C4.31459 14.3377 4.3383 13.9584 4.40904 13.582C4.51446 13.7442 4.63297 13.7442 4.7646 13.582C4.812 13.3924 4.85942 13.2028 4.90682 13.0132C4.43517 11.3279 4.29295 9.62121 4.48016 7.89316C4.3776 7.11311 4.63835 6.49682 5.26238 6.04427C5.40682 5.31541 5.80978 4.79393 6.47127 4.47982C6.61064 4.11196 6.65806 3.73271 6.61349 3.34204C6.80311 3.34204 6.99275 3.34204 7.18238 3.34204C7.2772 2.58353 7.372 1.825 7.46682 1.06649C7.75127 1.06649 8.03571 1.06649 8.32016 1.06649C8.32016 0.687229 8.32016 0.307971 8.32016 -0.0712891Z"
            fill="#366CFE" />
        <path fill-rule="evenodd" clip-rule="evenodd"
            d="M14.4355 7.75098C14.6638 8.03256 14.8298 8.36441 14.9333 8.74653C15.0327 10.9592 15.2461 13.1399 15.5733 15.2888C15.4999 15.5305 15.3577 15.7201 15.1467 15.8576C14.9018 13.1553 14.6647 10.4531 14.4355 7.75098Z"
            fill="#6D5EF4" />
        <path fill-rule="evenodd" clip-rule="evenodd"
            d="M25.6713 7.4668C25.9202 7.63169 26.0624 7.86872 26.098 8.17791C25.9633 10.266 25.6314 12.3046 25.1024 14.2935C24.9077 13.9818 24.7655 13.6499 24.6758 13.2979C25.0259 11.3576 25.3577 9.4139 25.6713 7.4668Z"
            fill="#FB9141" />
        <path fill-rule="evenodd" clip-rule="evenodd"
            d="M4.47982 7.89355C4.29262 9.62161 4.43484 11.3283 4.90649 13.0136C4.85909 13.2032 4.81167 13.3928 4.76427 13.5824C4.63264 13.7446 4.51413 13.7446 4.40871 13.5824C4.33797 13.9588 4.31426 14.3381 4.3376 14.7202C4.19538 14.7202 4.05316 14.7202 3.91093 14.7202C3.91093 15.0995 3.91093 15.4787 3.91093 15.858C3.72131 15.858 3.53167 15.858 3.34204 15.858C3.30478 16.0682 3.35218 16.2578 3.48427 16.4269C3.65431 16.3777 3.65431 16.3066 3.48427 16.2136C3.82586 16.0978 4.1577 16.1215 4.47982 16.2847C4.26005 16.4201 4.023 16.4674 3.76871 16.4269C3.76871 16.6165 3.76871 16.8062 3.76871 16.9958C3.11553 17.4067 2.45182 17.8333 1.7776 18.2758C1.47094 18.5786 1.2339 18.9104 1.06649 19.2713C0.924267 19.2713 0.782044 19.2713 0.639822 19.2713C0.526851 19.6088 0.384628 19.9406 0.213155 20.2669C0.148175 20.3804 0.0533605 20.4277 -0.0712891 20.4091C-0.0712891 18.5129 -0.0712891 16.6165 -0.0712891 14.7202C0.0671027 14.3721 0.11451 13.9928 0.0709332 13.5824C0.213155 13.5824 0.355378 13.5824 0.4976 13.5824C0.4976 13.2032 0.4976 12.8239 0.4976 12.4447C0.734637 12.4447 0.971673 12.4447 1.20871 12.4447C1.20871 12.0654 1.20871 11.6862 1.20871 11.3069C1.54056 11.3069 1.87242 11.3069 2.20427 11.3069C2.58353 10.5484 2.96278 9.78985 3.34204 9.03133C3.50916 9.06248 3.65138 9.01508 3.76871 8.88911C3.97751 8.51171 4.21455 8.17985 4.47982 7.89355Z"
            fill="#2C74FE" />
        <path fill-rule="evenodd" clip-rule="evenodd"
            d="M31.787 4.76465C31.8344 4.76465 31.8819 4.76465 31.9292 4.76465C31.9292 8.08316 31.9292 11.4017 31.9292 14.7202C31.6937 14.999 31.4566 15.2834 31.2181 15.5735C30.5225 16.1968 29.764 16.7419 28.9425 17.2091C28.7587 17.2788 28.5689 17.3025 28.3737 17.2802C27.8048 17.2802 27.2359 17.2802 26.667 17.2802C26.8189 17.1474 27.0085 17.0999 27.2359 17.138C27.66 16.3471 28.2525 15.6833 29.0137 15.1469C29.3455 14.4831 29.6774 13.8195 30.0092 13.1558C30.1541 12.9869 30.3201 12.8447 30.507 12.7291C30.6966 11.4965 30.6966 10.2639 30.507 9.03132C30.4292 8.57586 30.287 8.1492 30.0803 7.75132C30.5236 7.38684 30.7843 6.91277 30.8625 6.32909C31.117 5.99267 31.4252 5.75564 31.787 5.61798C31.787 5.33354 31.787 5.04909 31.787 4.76465Z"
            fill="#E612EC" />
        <path fill-rule="evenodd" clip-rule="evenodd"
            d="M20.4086 14.8623C20.1359 15.2649 19.899 15.6916 19.6974 16.1423C19.4941 15.8741 19.257 15.637 18.9863 15.4312C19.703 14.2163 20.3903 12.9837 21.0486 11.7334C20.8816 12.7812 20.6682 13.8242 20.4086 14.8623Z"
            fill="#FA7968" />
        <path fill-rule="evenodd" clip-rule="evenodd"
            d="M11.7337 15.4308C11.5639 15.4977 11.4691 15.6399 11.4492 15.8575C11.2048 17.1183 10.9203 18.3509 10.5959 19.5553C10.6417 19.0629 10.6417 18.5889 10.5959 18.133C10.362 18.4779 10.1961 18.8572 10.0981 19.2708C10.0251 19.1248 9.95399 18.9825 9.88477 18.8442C10.4095 16.4339 10.9073 14.0161 11.3781 11.5908C11.443 12.8795 11.5615 14.1595 11.7337 15.4308Z"
            fill="#7960F8" />
        <path fill-rule="evenodd" clip-rule="evenodd"
            d="M31.2173 3.05762C31.6024 3.54907 31.792 4.11796 31.7862 4.76428C31.7862 5.04873 31.7862 5.33317 31.7862 5.61762C31.4244 5.75527 31.1162 5.9923 30.8618 6.32873C30.7835 6.91241 30.5228 7.38648 30.0795 7.75095C30.2862 8.14883 30.4284 8.5755 30.5062 9.03095C30.6958 10.2635 30.6958 11.4961 30.5062 12.7287C30.3193 12.8443 30.1533 12.9865 30.0084 13.1554C29.6766 13.8191 29.3447 14.4828 29.0129 15.1465C28.2517 15.683 27.6592 16.3467 27.2351 17.1376C27.0077 17.0995 26.8181 17.147 26.6662 17.2798C26.1114 17.1176 25.5425 16.9991 24.9595 16.9243C24.8526 16.8289 24.8051 16.7104 24.8173 16.5687C24.9305 15.8127 25.0254 15.0542 25.1018 14.2932C25.6307 12.3043 25.9626 10.2658 26.0973 8.17762C26.2375 8.81335 26.2849 9.47706 26.2395 10.1687C26.3818 10.1687 26.524 10.1687 26.6662 10.1687C26.5948 9.40949 26.5711 8.65098 26.5951 7.89317C26.6215 8.23458 26.6927 8.56642 26.8084 8.88873C26.9033 8.65169 26.998 8.41466 27.0929 8.17762C27.1402 8.24873 27.1877 8.31984 27.2351 8.39095C27.117 8.59932 27.0934 8.81265 27.164 9.03095C27.5433 8.65169 27.9224 8.27244 28.3018 7.89317C28.4115 7.19047 28.8146 6.81122 29.5106 6.7554C29.5106 6.37613 29.5106 5.99688 29.5106 5.61762C30.6486 5.73573 31.1463 5.21425 31.004 4.05317C31.0513 4.19539 31.0988 4.33762 31.1462 4.47984C31.1699 4.38502 31.1936 4.29021 31.2173 4.19539C31.0435 3.80807 31.0435 3.4288 31.2173 3.05762Z"
            fill="#D218F2" />
        <path fill-rule="evenodd" clip-rule="evenodd"
            d="M3.76871 16.9951C3.91093 16.9951 4.05316 16.9951 4.19538 16.9951C4.07116 17.4327 3.81041 17.7645 3.41316 17.9907C3.34233 18.4148 3.31863 18.8414 3.34204 19.2707C3.15242 19.2707 2.96278 19.2707 2.77316 19.2707C2.77316 19.65 2.77316 20.0291 2.77316 20.4085C2.63093 20.4085 2.48871 20.4085 2.34649 20.4085C2.30708 20.8277 2.35448 21.2306 2.48871 21.6173C2.16737 21.8613 1.85922 22.1219 1.56427 22.3996C1.20315 22.9886 0.823887 23.5575 0.426489 24.1062C0.310443 24.2944 0.144518 24.3891 -0.0712891 24.3907C-0.0712891 23.0633 -0.0712891 21.7358 -0.0712891 20.4085C0.0533605 20.4271 0.148175 20.3797 0.213155 20.2662C0.384628 19.94 0.526851 19.6082 0.639822 19.2707C0.782044 19.2707 0.924267 19.2707 1.06649 19.2707C1.2339 18.9097 1.47094 18.5779 1.7776 18.2751C2.45182 17.8327 3.11553 17.406 3.76871 16.9951Z"
            fill="#335FFE" />
        <path fill-rule="evenodd" clip-rule="evenodd"
            d="M31.9285 16.9951C31.9285 18.5122 31.9285 20.0291 31.9285 21.5462C31.8812 21.5462 31.8336 21.5462 31.7863 21.5462C31.3603 21.5169 30.981 21.6117 30.6485 21.8307C29.7414 21.8598 28.8407 21.8125 27.9463 21.6885C28.1656 21.5942 28.4027 21.4993 28.6574 21.404C29.36 20.3459 30.1422 19.3503 31.0041 18.4173C31.1382 17.8142 31.4462 17.3401 31.9285 16.9951Z"
            fill="#FE269F" />
        <path fill-rule="evenodd" clip-rule="evenodd"
            d="M31.9288 14.7197C31.9288 15.4782 31.9288 16.2368 31.9288 16.9953C31.4465 17.3403 31.1384 17.8143 31.0043 18.4175C30.1425 19.3505 29.3602 20.346 28.6577 21.4042C28.4029 21.4995 28.1659 21.5943 27.9466 21.6886C27.8517 21.6886 27.757 21.6886 27.6621 21.6886C27.8673 20.9282 28.2229 20.3593 28.7288 19.9819C29.0678 19.4379 29.3523 18.8691 29.5821 18.2753C29.6295 18.3226 29.677 18.3701 29.7243 18.4175C30.0143 18.0234 30.2513 17.5967 30.4354 17.1375C30.9958 16.7753 31.2565 16.2539 31.2177 15.5731C31.4562 15.2829 31.6933 14.9985 31.9288 14.7197Z"
            fill="#FE1DB4" />
        <path fill-rule="evenodd" clip-rule="evenodd"
            d="M31.2182 15.5732C31.257 16.2541 30.9963 16.7754 30.436 17.1377C30.2518 17.5969 30.0148 18.0236 29.7249 18.4177C29.6775 18.3703 29.63 18.3228 29.5826 18.2755C29.3528 18.8692 29.0684 19.4381 28.7293 19.9821C28.2234 20.3594 27.8679 20.9283 27.6626 21.6888C27.2835 21.7504 26.9043 21.8215 26.5249 21.9021C26.2115 22.1924 25.8796 22.4531 25.5293 22.6844C25.6217 22.4092 25.6691 22.1247 25.6715 21.831C25.8137 21.831 25.956 21.831 26.0982 21.831C25.9955 20.977 26.1851 20.1948 26.6671 19.4844C26.4987 19.2642 26.5224 19.0509 26.7382 18.8444C26.8436 19.0066 26.9622 19.0066 27.0937 18.8444C27.2341 18.3796 27.2815 17.9054 27.236 17.4221C27.6463 17.4657 28.0256 17.4183 28.3737 17.2799C28.569 17.3022 28.7587 17.2785 28.9426 17.2088C29.7641 16.7416 30.5226 16.1965 31.2182 15.5732Z"
            fill="#FC17C9" />
        <path fill-rule="evenodd" clip-rule="evenodd"
            d="M10.596 19.556C10.4663 20.8336 10.1581 22.0661 9.67159 23.2538C8.921 23.7449 8.09136 23.9345 7.1827 23.8227C6.74619 23.7537 6.36693 23.564 6.04492 23.2538C7.64733 23.6267 8.71399 23.0578 9.24492 21.5471C9.39783 20.6134 9.61116 19.7127 9.88492 18.8449C9.95414 18.9833 10.0253 19.1255 10.0983 19.2716C10.1962 18.858 10.3621 18.4787 10.596 18.1338C10.6419 18.5896 10.6419 19.0636 10.596 19.556Z"
            fill="#AF62E5" />
        <path fill-rule="evenodd" clip-rule="evenodd"
            d="M6.61316 16.2848C6.25042 18.3118 5.82375 20.3266 5.33316 22.3292C5.38154 22.6864 5.52376 22.9946 5.75982 23.2537C5.54965 23.2164 5.36001 23.2638 5.19093 23.3959C5.2401 23.566 5.31121 23.566 5.40427 23.3959C5.46965 23.7108 5.37483 23.8057 5.11982 23.6804C4.99014 24.0699 4.77681 24.4017 4.47982 24.6759C4.62874 24.8972 4.72355 25.1343 4.76427 25.387C4.36256 25.3274 4.05441 25.4697 3.83982 25.8137C4.00565 26.1954 3.88714 26.4799 3.48427 26.667C3.38945 26.9988 3.29464 27.3308 3.19982 27.6626C2.77478 27.8405 2.63255 28.1249 2.77316 28.5159C2.57687 28.754 2.38725 28.9909 2.20427 29.227C2.01464 29.5115 2.01464 29.7959 2.20427 30.0804C2.10538 30.2192 2.01056 30.3614 1.91982 30.507C0.76566 29.4786 0.101956 28.1986 -0.0712891 26.667C-0.0712891 25.9086 -0.0712891 25.1499 -0.0712891 24.3915C0.144518 24.3899 0.310443 24.2952 0.426489 24.107C0.823887 23.5583 1.20315 22.9894 1.56427 22.4004C1.85922 22.1227 2.16737 21.862 2.48871 21.6181C2.35448 21.2314 2.30708 20.8285 2.34649 20.4092C2.48871 20.4092 2.63093 20.4092 2.77316 20.4092C2.77316 20.0299 2.77316 19.6508 2.77316 19.2715C2.96278 19.2715 3.15242 19.2715 3.34204 19.2715C3.31863 18.8422 3.34233 18.4156 3.41316 17.9915C3.81041 17.7653 4.07116 17.4335 4.19538 16.9959C4.41555 16.9503 4.51037 16.808 4.47982 16.5692C4.90899 16.5402 5.33566 16.4929 5.75982 16.427C5.73754 16.6223 5.76124 16.812 5.83093 16.9959C5.97316 16.2374 6.11538 16.2374 6.2576 16.9959C6.305 16.7115 6.35242 16.427 6.39982 16.1426C6.45424 16.2217 6.52535 16.269 6.61316 16.2848Z"
            fill="#4454FE" />
        <path fill-rule="evenodd" clip-rule="evenodd"
            d="M24.6757 13.2979C24.7654 13.6499 24.9076 13.9817 25.1023 14.2934C25.026 15.0544 24.9311 15.8129 24.8179 16.569C24.4857 18.4031 24.1301 20.2519 23.7512 22.1156C23.633 22.8525 23.2301 23.3503 22.5423 23.609C21.8328 23.6799 21.1217 23.7037 20.409 23.6801C20.0581 23.6438 19.7737 23.5016 19.5557 23.2534C20.2683 23.277 20.9795 23.2533 21.689 23.1823C22.522 22.9664 22.9724 22.4211 23.0401 21.5467C23.5623 18.7892 24.1075 16.0396 24.6757 13.2979Z"
            fill="#FBA620" />
        <path fill-rule="evenodd" clip-rule="evenodd"
            d="M18.9867 15.4307C19.2574 15.6365 19.4945 15.8735 19.6979 16.1418C18.694 17.8885 17.7459 19.6663 16.8534 21.4751C16.5341 22.0082 16.1075 22.4112 15.5734 22.684C14.7568 22.9306 13.9983 22.8357 13.2979 22.3996C14.1798 22.5724 14.9146 22.3353 15.5023 21.6884C16.6274 19.5803 17.7889 17.4943 18.9867 15.4307Z"
            fill="#F6618D" />
        <path fill-rule="evenodd" clip-rule="evenodd"
            d="M20.4089 14.8623C19.8645 17.4664 19.343 20.0738 18.8445 22.6845C18.8445 22.8741 18.8445 23.0638 18.8445 23.2534C18.0372 23.317 17.9899 23.4356 18.7023 23.609C18.4269 23.7246 18.1425 23.7957 17.8489 23.8223C17.8489 24.2016 17.8489 24.5808 17.8489 24.9601C17.6119 24.9601 17.3749 24.9601 17.1378 24.9601C17.0905 25.7186 17.043 26.4772 16.9956 27.2356C16.806 27.2356 16.6163 27.2356 16.4267 27.2356C16.4267 27.6149 16.4267 27.9941 16.4267 28.3734C16.2845 28.3734 16.1423 28.3734 16.0001 28.3734C16.0001 28.7527 16.0001 29.1319 16.0001 29.5112C15.6072 29.6325 15.2279 29.6325 14.8623 29.5112C14.562 29.5092 14.3012 29.6039 14.0801 29.7956C13.9559 29.7622 13.8374 29.7147 13.7245 29.6534C13.5793 29.7248 13.5556 29.8195 13.6534 29.9379C14.0331 30.0408 14.2465 30.2779 14.2934 30.649C13.8126 30.9875 13.4333 31.4141 13.1556 31.929C12.1601 31.929 11.1645 31.929 10.1689 31.929C10.1689 31.5023 10.1689 31.0756 10.1689 30.649C10.3586 30.649 10.5482 30.649 10.7378 30.649C10.7378 30.2697 10.7378 29.8905 10.7378 29.5112C10.8801 29.5112 11.0223 29.5112 11.1645 29.5112C11.2119 28.7527 11.2593 27.9941 11.3067 27.2356C11.4489 27.2356 11.5912 27.2356 11.7334 27.2356C11.8486 26.4327 11.9434 25.6267 12.0178 24.8179C12.2397 24.8206 12.4531 24.8679 12.6578 24.9601C13.3721 24.7667 14.0595 24.5296 14.7201 24.249C14.7201 24.1067 14.7201 23.9645 14.7201 23.8223C14.5248 23.8446 14.3351 23.8209 14.1512 23.7512C14.8761 23.7865 15.445 23.5256 15.8578 22.969C15.8227 22.7965 15.7278 22.7016 15.5734 22.6845C16.1074 22.4117 16.5341 22.0087 16.8534 21.4756C17.7458 19.6669 18.694 17.8891 19.6978 16.1423C19.8994 15.6916 20.1363 15.2649 20.4089 14.8623Z"
            fill="#C11DF7" />
        <path fill-rule="evenodd" clip-rule="evenodd"
            d="M27.6623 21.6885C27.7571 21.6885 27.8518 21.6885 27.9467 21.6885C28.8411 21.8125 29.7418 21.8599 30.6489 21.8307C29.9092 22.0156 29.1506 22.2053 28.3734 22.3996C27.6193 23.2304 26.7186 23.8704 25.6712 24.3196C25.4597 24.673 25.1988 24.9812 24.8889 25.244C24.8416 25.1492 24.7941 25.0544 24.7467 24.9596C24.6765 25.192 24.6528 25.4291 24.6756 25.6707C24.5334 25.6707 24.3912 25.6707 24.2489 25.6707C24.2801 25.8378 24.2327 25.98 24.1067 26.0974C24.0106 25.9406 23.9158 25.7984 23.8223 25.6707C24.1379 24.5166 24.7067 23.521 25.5289 22.684C25.8792 22.4528 26.2112 22.1921 26.5245 21.9018C26.9039 21.8212 27.2831 21.7501 27.6623 21.6885Z"
            fill="#FE3779" />
        <path fill-rule="evenodd" clip-rule="evenodd"
            d="M11.7329 15.4307C11.8265 17.3326 11.9925 19.2289 12.2307 21.1196C12.3548 21.692 12.6629 22.1187 13.1551 22.3996C12.9485 22.588 12.996 22.7065 13.2974 22.7551C13.0113 23.1643 12.8216 23.6147 12.7285 24.1062C12.6538 24.2046 12.5589 24.2757 12.444 24.3196C11.3625 24.3592 10.2958 24.2408 9.24402 23.964C8.81976 24.2223 8.4642 24.5542 8.17735 24.9596C7.98918 25.7065 7.89436 26.465 7.89291 27.2351C7.70328 27.2351 7.51364 27.2351 7.32402 27.2351C7.32402 27.6144 7.32402 27.9936 7.32402 28.3729C7.1818 28.3729 7.03957 28.3729 6.89735 28.3729C6.84995 29.1314 6.80253 29.89 6.75513 30.6484C6.56551 30.6484 6.37587 30.6484 6.18624 30.6484C6.18624 31.0751 6.18624 31.5018 6.18624 31.9284C5.66476 31.9284 5.14328 31.9284 4.6218 31.9284C4.17981 31.7787 3.75315 31.5891 3.3418 31.3596C4.1275 29.4572 4.83861 27.5134 5.47513 25.5284C6.09828 25.0001 6.66717 24.4312 7.1818 23.8218C8.09045 23.9336 8.92009 23.744 9.67069 23.2529C10.1572 22.0652 10.4654 20.8327 10.5951 19.5551C10.9196 18.3508 11.204 17.1181 11.4485 15.8573C11.4684 15.6397 11.5632 15.4975 11.7329 15.4307Z"
            fill="#8A34FD" />
        <path fill-rule="evenodd" clip-rule="evenodd"
            d="M24.8182 16.5693C24.806 16.711 24.8535 16.8295 24.9605 16.9249C25.5434 16.9997 26.1123 17.1182 26.6671 17.2804C27.236 17.2804 27.8049 17.2804 28.3738 17.2804C28.0256 17.4188 27.6463 17.4662 27.236 17.4227C27.2815 17.9059 27.2342 18.3801 27.0938 18.8449C26.9622 19.0072 26.8436 19.0072 26.7382 18.8449C26.5225 19.0514 26.4987 19.2647 26.6671 19.4849C26.1851 20.1953 25.9955 20.9775 26.0982 21.8316C25.956 21.8316 25.8138 21.8316 25.6716 21.8316C25.6691 22.1252 25.6218 22.4097 25.5293 22.6849C24.7072 23.5219 24.1383 24.5174 23.8227 25.6716C23.3616 26.599 22.9112 27.5472 22.4716 28.516C21.9148 29.2304 21.2273 29.7519 20.4093 30.0804C20.1157 30.0829 19.8312 30.1302 19.556 30.2227C19.1311 29.9894 18.657 29.8708 18.1338 29.8671C18.9015 29.7936 19.66 29.675 20.4093 29.5116C20.6878 28.7943 20.83 28.0359 20.836 27.236C21.0731 27.236 21.31 27.236 21.5471 27.236C21.5471 26.4775 21.5471 25.7189 21.5471 24.9604C21.7888 24.9832 22.0258 24.9596 22.2582 24.8893C21.4752 24.742 21.3803 24.4338 21.9738 23.9649C21.4315 23.87 20.9101 23.7752 20.4093 23.6804C21.122 23.7041 21.8331 23.6803 22.5427 23.6093C23.2305 23.3506 23.6334 22.8529 23.7516 22.116C24.1304 20.2523 24.486 18.4034 24.8182 16.5693Z"
            fill="#F113E4" />
        <path fill-rule="evenodd" clip-rule="evenodd"
            d="M31.7868 21.5462C31.5606 21.7928 31.2762 21.9587 30.9334 22.044C31.123 22.1862 31.123 22.3284 30.9334 22.4707C30.2471 22.7291 29.6782 23.1557 29.2268 23.7507C28.8475 23.9402 28.4683 24.13 28.089 24.3195C27.9122 24.4837 27.77 24.6734 27.6623 24.8884C27.1313 24.8759 26.7046 25.0655 26.3823 25.4573C26.1326 25.486 25.8956 25.5572 25.6712 25.6707C25.0565 26.4152 24.3692 27.0789 23.609 27.6618C23.609 27.8513 23.609 28.0411 23.609 28.2307C23.2688 28.6528 22.9132 29.0557 22.5423 29.4395C22.7197 29.652 22.7197 29.8654 22.5423 30.0795C22.3648 30.1563 22.1989 30.2512 22.0446 30.364C22.0071 30.9714 21.7227 31.2559 21.1912 31.2173C21.1047 31.4526 21.0336 31.6896 20.9779 31.9284C20.5039 31.9284 20.0297 31.9284 19.5557 31.9284C19.7154 31.511 19.8576 31.0843 19.9823 30.6484C20.212 30.5554 20.4491 30.4843 20.6934 30.4351C20.5148 30.3758 20.4199 30.2573 20.409 30.0795C21.2269 29.751 21.9144 29.2295 22.4712 28.5151C22.9108 27.5463 23.3612 26.5981 23.8223 25.6707C23.9159 25.7984 24.0106 25.9406 24.1068 26.0973C24.2328 25.98 24.2801 25.8378 24.249 25.6707C24.3912 25.6707 24.5334 25.6707 24.6757 25.6707C24.6529 25.429 24.6765 25.1919 24.7468 24.9595C24.7941 25.0544 24.8416 25.1491 24.889 25.244C25.1989 24.9812 25.4597 24.673 25.6712 24.3195C26.7187 23.8704 27.6194 23.2304 28.3734 22.3995C29.1507 22.2053 29.9093 22.0155 30.649 21.8307C30.9815 21.6116 31.3608 21.5169 31.7868 21.5462Z"
            fill="#FE4462" />
        <path fill-rule="evenodd" clip-rule="evenodd"
            d="M31.9292 23.1113C31.9292 23.4906 31.9292 23.8698 31.9292 24.2491C31.5011 24.5128 31.1219 24.8446 30.7914 25.2447C29.9687 25.4991 29.3287 25.9731 28.8714 26.6669C28.8241 26.6195 28.7765 26.572 28.7292 26.5247C28.1923 26.7297 27.7894 27.0853 27.5203 27.5913C27.1124 27.7138 26.7805 27.9509 26.5247 28.3024C26.3899 28.3711 26.2477 28.3947 26.0981 28.3736C26.0981 28.5158 26.0981 28.658 26.0981 28.8002C25.756 28.969 25.4241 29.1824 25.1025 29.4402C24.8387 29.8734 24.5543 30.2765 24.2492 30.6491C24.0821 30.618 23.9399 30.6653 23.8225 30.7913C23.7319 31.0478 23.5661 31.2373 23.3247 31.3602C23.2551 31.5441 23.2313 31.7338 23.2536 31.9291C22.827 31.9291 22.4003 31.9291 21.9736 31.9291C22.1004 31.3129 22.4322 30.8388 22.9692 30.5069C23.1114 30.2224 23.2536 29.938 23.3959 29.6536C23.5132 29.5275 23.6554 29.4802 23.8225 29.5113C23.9647 28.8951 24.3441 28.5158 24.9603 28.3736C25.1133 27.7698 25.4925 27.3669 26.0981 27.1647C26.4357 26.8747 26.7202 26.5429 26.9514 26.1691C27.2832 26.1217 27.6152 26.0742 27.947 26.0269C28.164 25.7585 28.4484 25.6163 28.8003 25.6002C28.8667 25.1074 29.1512 24.8703 29.6536 24.8891C30.0629 24.335 30.5845 23.9557 31.2181 23.7513C31.4367 23.5086 31.6738 23.2952 31.9292 23.1113Z"
            fill="#FE5940" />
        <path fill-rule="evenodd" clip-rule="evenodd"
            d="M5.75992 23.2535C5.85474 23.2535 5.94955 23.2535 6.04437 23.2535C6.36637 23.5637 6.74564 23.7534 7.18214 23.8224C6.66751 24.4318 6.09862 25.0007 5.47548 25.5291C4.83896 27.5141 4.12785 29.4578 3.34214 31.3602C2.82488 31.1488 2.3508 30.8644 1.91992 30.5068C2.01066 30.3612 2.10548 30.219 2.20437 30.0802C2.01474 29.7957 2.01474 29.5113 2.20437 29.2268C2.38735 28.9908 2.57697 28.7538 2.77326 28.5157C2.63265 28.1248 2.77488 27.8403 3.19992 27.6624C3.29474 27.3306 3.38955 26.9987 3.48437 26.6668C3.88724 26.4797 4.00575 26.1952 3.83992 25.8135C4.05451 25.4695 4.36266 25.3273 4.76437 25.3868C4.72365 25.1341 4.62884 24.897 4.47992 24.6757C4.77691 24.4015 4.99024 24.0697 5.11992 23.6802C5.37493 23.8055 5.46975 23.7106 5.40437 23.3957C5.31131 23.5658 5.2402 23.5658 5.19103 23.3957C5.36011 23.2636 5.54975 23.2163 5.75992 23.2535Z"
            fill="#5A45FD" />
        <path fill-rule="evenodd" clip-rule="evenodd"
            d="M18.8449 22.6846C19.0837 22.886 19.3208 23.0757 19.556 23.2535C19.774 23.5016 20.0585 23.6439 20.4093 23.6801C20.9101 23.7748 21.4315 23.8697 21.9738 23.9646C21.3803 24.4335 21.4751 24.7417 22.2582 24.889C22.0258 24.9593 21.7887 24.9829 21.5471 24.9601C21.5471 25.7186 21.5471 26.4772 21.5471 27.2357C21.31 27.2357 21.0731 27.2357 20.836 27.2357C20.83 28.0355 20.6878 28.794 20.4093 29.5112C19.66 29.6747 18.9015 29.7933 18.1338 29.8668C18.657 29.8705 19.131 29.9891 19.556 30.2223C19.4611 30.2223 19.3664 30.2223 19.2715 30.2223C17.9898 30.1807 16.7098 30.1569 15.4315 30.1512C15.0319 30.2952 14.6527 30.461 14.2938 30.649C14.2468 30.278 14.0335 30.0409 13.6538 29.9379C13.556 29.8196 13.5797 29.7249 13.7249 29.6535C13.8377 29.7148 13.9562 29.7623 14.0804 29.7957C14.3016 29.604 14.5624 29.5092 14.8627 29.5112C15.2283 29.6326 15.6076 29.6326 16.0004 29.5112C16.0004 29.1319 16.0004 28.7528 16.0004 28.3735C16.1427 28.3735 16.2849 28.3735 16.4271 28.3735C16.4271 27.9942 16.4271 27.615 16.4271 27.2357C16.6167 27.2357 16.8064 27.2357 16.996 27.2357C17.0434 26.4772 17.0909 25.7186 17.1382 24.9601C17.3753 24.9601 17.6122 24.9601 17.8493 24.9601C17.8493 24.5808 17.8493 24.2017 17.8493 23.8223C18.1429 23.7958 18.4273 23.7246 18.7027 23.609C17.9903 23.4356 18.0376 23.317 18.8449 23.2535C18.8449 23.0639 18.8449 22.8742 18.8449 22.6846Z"
            fill="#DC13F2" />
        <path fill-rule="evenodd" clip-rule="evenodd"
            d="M31.9288 24.249C31.9288 24.7706 31.9288 25.2919 31.9288 25.8135C31.2642 26.548 30.4582 27.0221 29.511 27.2357C29.3665 27.5985 29.1294 27.9067 28.7999 28.1601C28.8473 28.2075 28.8948 28.255 28.9421 28.3024C28.3485 28.3355 27.827 28.5251 27.3777 28.8712C26.9386 29.4926 26.3934 29.9904 25.7421 30.3646C25.267 30.8284 24.8639 31.3498 24.5332 31.929C24.1066 31.929 23.6799 31.929 23.2532 31.929C23.2309 31.7338 23.2547 31.544 23.3243 31.3601C23.5657 31.2373 23.7315 31.0477 23.8221 30.7912C23.9395 30.6652 24.0817 30.6179 24.2488 30.649C24.5539 30.2764 24.8383 29.8733 25.1021 29.4401C25.4237 29.1823 25.7556 28.969 26.0977 28.8001C26.0977 28.6579 26.0977 28.5157 26.0977 28.3735C26.2473 28.3947 26.3895 28.3711 26.5243 28.3024C26.7801 27.9508 27.112 27.7137 27.5199 27.5912C27.789 27.0852 28.1919 26.7297 28.7288 26.5246C28.7761 26.5719 28.8237 26.6194 28.871 26.6668C29.3283 25.973 29.9683 25.499 30.791 25.2446C31.1215 24.8445 31.5007 24.5127 31.9288 24.249Z"
            fill="#FE652E" />
        <path fill-rule="evenodd" clip-rule="evenodd"
            d="M31.9286 26.8086C31.9286 28.5153 31.9286 30.2219 31.9286 31.9286C30.2219 31.9286 28.5153 31.9286 26.8086 31.9286C29.6512 31.3674 31.3579 29.6607 31.9286 26.8086Z"
            fill="#FCFAF6" />
        <path fill-rule="evenodd" clip-rule="evenodd"
            d="M13.1554 22.4004C13.2028 22.4004 13.2502 22.4004 13.2976 22.4004C13.9981 22.8366 14.7566 22.9314 15.5732 22.6848C15.7276 22.7019 15.8225 22.7968 15.8576 22.9693C15.4448 23.5259 14.8759 23.7868 14.151 23.7515C14.3349 23.8212 14.5246 23.8449 14.7199 23.8226C14.7199 23.9648 14.7199 24.1071 14.7199 24.2493C14.0593 24.5299 13.3719 24.767 12.6576 24.9604C12.4529 24.8682 12.2395 24.8209 12.0176 24.8182C11.9432 25.627 11.8484 26.433 11.7332 27.2359C11.591 27.2359 11.4487 27.2359 11.3065 27.2359C11.2591 27.9944 11.2117 28.753 11.1643 29.5115C11.0221 29.5115 10.8799 29.5115 10.7376 29.5115C10.7376 29.8908 10.7376 30.27 10.7376 30.6493C10.548 30.6493 10.3584 30.6493 10.1687 30.6493C10.1687 31.0759 10.1687 31.5026 10.1687 31.9293C8.84134 31.9293 7.51393 31.9293 6.18652 31.9293C6.18652 31.5026 6.18652 31.0759 6.18652 30.6493C6.37615 30.6493 6.56579 30.6493 6.75541 30.6493C6.80282 29.8908 6.85023 29.1322 6.89763 28.3737C7.03986 28.3737 7.18208 28.3737 7.3243 28.3737C7.3243 27.9944 7.3243 27.6153 7.3243 27.2359C7.51393 27.2359 7.70357 27.2359 7.89319 27.2359C7.89464 26.4658 7.98946 25.7073 8.17763 24.9604C8.46448 24.5551 8.82004 24.2231 9.2443 23.9648C10.2961 24.2416 11.3628 24.3601 12.4443 24.3204C12.5592 24.2766 12.654 24.2055 12.7287 24.1071C12.8219 23.6155 13.0116 23.1651 13.2976 22.7559C12.9962 22.7073 12.9488 22.5888 13.1554 22.4004Z"
            fill="#A02AFD" />
        <path fill-rule="evenodd" clip-rule="evenodd"
            d="M31.7864 21.5469C31.8338 21.5469 31.8813 21.5469 31.9287 21.5469C31.9287 22.0684 31.9287 22.5898 31.9287 23.1113C31.6732 23.2952 31.4361 23.5085 31.2175 23.7513C30.5839 23.9557 30.0624 24.335 29.6531 24.8891C29.1506 24.8703 28.8662 25.1074 28.7998 25.6002C28.4479 25.6163 28.1635 25.7585 27.9464 26.0269C27.6146 26.0742 27.2827 26.1217 26.9509 26.1691C26.7196 26.5429 26.4352 26.8747 26.0975 27.1647C25.492 27.3669 25.1128 27.7698 24.9598 28.3735C24.3435 28.5158 23.9642 28.8951 23.822 29.5113C23.6549 29.4802 23.5127 29.5275 23.3953 29.6535C23.2531 29.938 23.1109 30.2224 22.9687 30.5069C22.4316 30.8388 22.0998 31.3128 21.9731 31.9291C21.6413 31.9291 21.3093 31.9291 20.9775 31.9291C21.0333 31.6903 21.1044 31.4532 21.1909 31.218C21.7224 31.2565 22.0068 30.9721 22.0442 30.3647C22.1985 30.2519 22.3645 30.157 22.542 30.0802C22.7193 29.866 22.7193 29.6527 22.542 29.4402C22.9129 29.0564 23.2685 28.6534 23.6087 28.2313C23.6087 28.0417 23.6087 27.852 23.6087 27.6624C24.3688 27.0796 25.0562 26.4159 25.6709 25.6713C25.8953 25.5578 26.1322 25.4867 26.382 25.458C26.7043 25.0662 27.1309 24.8766 27.662 24.8891C27.7696 24.6741 27.9119 24.4843 28.0887 24.3202C28.468 24.1306 28.8471 23.9409 29.2264 23.7513C29.6778 23.1564 30.2467 22.7297 30.9331 22.4713C31.1227 22.3291 31.1227 22.1869 30.9331 22.0447C31.2759 21.9593 31.5603 21.7935 31.7864 21.5469Z"
            fill="#FE4E52" />
        <path fill-rule="evenodd" clip-rule="evenodd"
            d="M-0.0712891 26.667C0.101956 28.1986 0.76566 29.4786 1.91982 30.507C2.3507 30.8645 2.82478 31.149 3.34204 31.3603C3.75339 31.5899 4.18006 31.7795 4.62204 31.9292C3.0576 31.9292 1.49316 31.9292 -0.0712891 31.9292C-0.0712891 30.1752 -0.0712891 28.421 -0.0712891 26.667Z"
            fill="#FBFBFC" />
        <path fill-rule="evenodd" clip-rule="evenodd"
            d="M19.2708 30.2225C18.5395 30.3856 17.7811 30.5041 16.9953 30.578C17.0206 30.9983 17.0206 31.4486 16.9953 31.9291C15.7153 31.9291 14.4353 31.9291 13.1553 31.9291C13.433 31.4143 13.8123 30.9876 14.2931 30.6491C14.652 30.4611 15.0312 30.2953 15.4308 30.1514C16.7091 30.1571 17.9891 30.1808 19.2708 30.2225Z"
            fill="#FD23A4" />
        <path fill-rule="evenodd" clip-rule="evenodd"
            d="M31.9288 25.8135C31.9288 26.1453 31.9288 26.4772 31.9288 26.809C31.358 29.6612 29.6514 31.3678 26.8088 31.929C26.0503 31.929 25.2917 31.929 24.5332 31.929C24.8639 31.3498 25.2669 30.8284 25.7421 30.3646C26.3933 29.9904 26.9386 29.4926 27.3776 28.8713C27.8269 28.5251 28.3485 28.3355 28.9421 28.3024C28.8947 28.255 28.8472 28.2075 28.7999 28.1601C29.1294 27.9067 29.3665 27.5985 29.511 27.2357C30.4582 27.0221 31.2642 26.5481 31.9288 25.8135Z"
            fill="#FD7818" />
        <path fill-rule="evenodd" clip-rule="evenodd"
            d="M20.4085 30.0801C20.4194 30.2579 20.5143 30.3763 20.6929 30.4356C20.4486 30.4848 20.2115 30.556 19.9818 30.649C19.8571 31.0849 19.7148 31.5115 19.5551 31.929C18.7018 31.929 17.8485 31.929 16.9951 31.929C17.0204 31.4484 17.0204 30.9981 16.9951 30.5779C17.7809 30.5039 18.5394 30.3854 19.2707 30.2223C19.3655 30.2223 19.4603 30.2223 19.5551 30.2223C19.8303 30.1299 20.1148 30.0825 20.4085 30.0801Z"
            fill="#FE367E" />
    </g>
    <defs>
        <clipPath id="clip0_5403_361">
            <rect width="32" height="32" fill="white" />
        </clipPath>
    </defs>
</svg>