<svg width="32" height="32" viewBox="0 0 32 32" fill="none" xmlns="http://www.w3.org/2000/svg">
    <g clip-path="url(#clip0_5227_662)">
        <path fill-rule="evenodd" clip-rule="evenodd"
            d="M-0.0800781 -0.0800781C10.5866 -0.0800781 21.2532 -0.0800781 31.9199 -0.0800781C31.9199 10.5866 31.9199 21.2532 31.9199 31.9199C21.2532 31.9199 10.5866 31.9199 -0.0800781 31.9199C-0.0800781 21.2532 -0.0800781 10.5866 -0.0800781 -0.0800781Z"
            fill="#FDFDFE" />
        <path fill-rule="evenodd" clip-rule="evenodd"
            d="M20.8802 5.52029C17.5732 5.49363 14.2664 5.52029 10.9602 5.60029C11.14 5.64016 11.3 5.72016 11.4402 5.84029C11.3869 5.89362 11.3335 5.94696 11.2802 6.00029C10.5978 5.85011 9.90447 5.79678 9.2002 5.84029C9.69247 5.62333 10.2258 5.48998 10.8002 5.44029C14.1875 5.3076 17.5476 5.33426 20.8802 5.52029Z"
            fill="#3E3DD1" />
        <path fill-rule="evenodd" clip-rule="evenodd"
            d="M9.1999 5.83984C9.04221 6.14508 8.77553 6.30508 8.3999 6.31984C8.58541 6.0398 8.85206 5.8798 9.1999 5.83984Z"
            fill="#5955CC" />
        <path fill-rule="evenodd" clip-rule="evenodd"
            d="M20.8798 5.51976C21.6681 5.48741 22.4148 5.64741 23.1198 5.99976C23.7598 6.53309 24.3998 7.06643 25.0398 7.59976C25.2721 7.83011 25.4321 8.09678 25.5198 8.39976C25.5081 8.64406 25.6148 8.80406 25.8398 8.87976C25.8398 8.93309 25.8398 8.98643 25.8398 9.03976C26.0382 9.82533 26.1715 10.6253 26.2398 11.4398C26.3465 14.5331 26.3465 17.6265 26.2398 20.7198C26.0171 21.1642 25.9371 21.6442 25.9998 22.1598C25.0951 24.8268 23.2284 26.2135 20.3998 26.3198C15.5462 26.3465 10.6928 26.3198 5.83978 26.2398C5.75978 26.1598 5.67978 26.0798 5.59978 25.9998C5.43575 20.3924 5.51575 14.7924 5.83978 9.19976C6.54636 8.55157 7.13303 7.8049 7.59978 6.95976C7.76598 6.63479 8.03265 6.42144 8.39978 6.31976C8.77542 6.30499 9.04209 6.14499 9.19978 5.83976C9.90406 5.79626 10.5974 5.84959 11.2798 5.99976C11.3331 5.94643 11.3865 5.89309 11.4398 5.83976C11.2996 5.71963 11.1396 5.63963 10.9598 5.59976C14.266 5.51976 17.5727 5.49311 20.8798 5.51976Z"
            fill="#3438F0" />
        <path fill-rule="evenodd" clip-rule="evenodd"
            d="M7.59984 6.95996C7.13309 7.8051 6.54642 8.55177 5.83984 9.19996C6.03333 8.68466 6.3 8.20466 6.63984 7.75996C6.86877 7.36993 7.18877 7.10326 7.59984 6.95996Z"
            fill="#4F4AD7" />
        <path fill-rule="evenodd" clip-rule="evenodd"
            d="M25.5199 8.40039C25.7449 8.47609 25.8516 8.63609 25.8399 8.88039C25.6149 8.80469 25.5082 8.64469 25.5199 8.40039Z"
            fill="#8A89DA" />
        <path fill-rule="evenodd" clip-rule="evenodd"
            d="M21.2 11.1202C21.1467 11.1202 21.0932 11.1202 21.04 11.1202C20.3977 11.0937 19.7577 11.1204 19.12 11.2002C18.9382 11.3834 18.7782 11.5701 18.64 11.7602C18.6075 11.4577 18.714 11.2177 18.96 11.0402C19.7363 10.9098 20.483 10.9364 21.2 11.1202Z"
            fill="#443FC9" />
        <path fill-rule="evenodd" clip-rule="evenodd"
            d="M10.9601 11.1202C11.5492 11.0938 12.1359 11.1205 12.7201 11.2002C12.8001 11.2802 12.8801 11.3602 12.9601 11.4402C13.8442 13.4692 14.8309 15.4426 15.9201 17.3602C16.9027 15.5261 17.8094 13.6594 18.6401 11.7602C18.7784 11.5701 18.9384 11.3835 19.1201 11.2002C19.7579 11.1204 20.3979 11.0938 21.0401 11.1202C21.0401 14.3736 21.0401 17.627 21.0401 20.8802C20.4534 20.8802 19.8669 20.8802 19.2801 20.8802C19.3326 18.985 19.2793 17.1183 19.1201 15.2802C18.688 15.7179 18.4213 16.2513 18.3201 16.8802C17.6449 17.9398 17.0582 19.0598 16.5601 20.2402C16.0885 20.2846 15.6352 20.2313 15.2001 20.0802C14.4247 18.5294 13.6514 16.9826 12.8801 15.4402C12.8705 15.3533 12.8172 15.3 12.7201 15.2802C12.5603 17.1439 12.507 19.0105 12.5601 20.8802C11.9735 20.8802 11.3868 20.8802 10.8001 20.8802C10.7488 17.6148 10.8021 14.3615 10.9601 11.1202Z"
            fill="#FAFBFA" />
        <path fill-rule="evenodd" clip-rule="evenodd"
            d="M5.83987 9.2002C5.51584 14.7929 5.43584 20.3928 5.59987 26.0002C5.67987 26.0802 5.75987 26.1602 5.83987 26.2402C10.6929 26.3202 15.5462 26.3469 20.3999 26.3202C15.5203 26.5064 10.6136 26.5332 5.67987 26.4002C5.59987 26.3202 5.51987 26.2402 5.43987 26.1602C5.3332 20.9335 5.3332 15.7069 5.43987 10.4802C5.48457 10.0071 5.6179 9.58045 5.83987 9.2002Z"
            fill="#4040CF" />
        <path fill-rule="evenodd" clip-rule="evenodd"
            d="M10.6401 11.1201C10.7468 11.1201 10.8535 11.1201 10.9601 11.1201C10.8021 14.3613 10.7488 17.6147 10.8001 20.8801C10.7468 20.8801 10.6935 20.8801 10.6401 20.8801C10.6401 17.6268 10.6401 14.3734 10.6401 11.1201Z"
            fill="#E4E6FF" />
        <path fill-rule="evenodd" clip-rule="evenodd"
            d="M21.0401 11.1201C21.0934 11.1201 21.1468 11.1201 21.2001 11.1201C21.2001 14.4268 21.2001 17.7334 21.2001 21.0401C20.5068 21.0401 19.8134 21.0401 19.1201 21.0401C19.1201 19.1201 19.1201 17.2001 19.1201 15.2801C19.2793 17.1182 19.3326 18.9849 19.2801 20.8801C19.8668 20.8801 20.4534 20.8801 21.0401 20.8801C21.0401 17.6268 21.0401 14.3734 21.0401 11.1201Z"
            fill="#B3B4FA" />
        <path fill-rule="evenodd" clip-rule="evenodd"
            d="M25.8398 9.04004C26.1323 9.46164 26.319 9.94164 26.3998 10.48C26.5066 13.9467 26.5066 17.4133 26.3998 20.88C26.3552 21.3532 26.2218 21.7797 25.9998 22.16C25.9371 21.6445 26.0171 21.1645 26.2398 20.72C26.3466 17.6268 26.3466 14.5334 26.2398 11.44C26.1715 10.6256 26.0382 9.82561 25.8398 9.04004Z"
            fill="#4645CA" />
        <path fill-rule="evenodd" clip-rule="evenodd"
            d="M12.8801 15.4403C12.721 17.2784 12.6676 19.1451 12.7201 21.0403C11.995 21.0912 11.3016 21.0379 10.6401 20.8803C10.6935 20.8803 10.7468 20.8803 10.8001 20.8803C11.3868 20.8803 11.9735 20.8803 12.5601 20.8803C12.507 19.0105 12.5603 17.144 12.7201 15.2803C12.8172 15.3 12.8705 15.3534 12.8801 15.4403Z"
            fill="#8985DE" />
        <path fill-rule="evenodd" clip-rule="evenodd"
            d="M18.3201 16.8799C18.3679 17.2165 18.3146 17.5365 18.1601 17.8399C17.8109 18.2824 17.5444 18.7624 17.3601 19.2799C17.3956 19.5287 17.5023 19.7421 17.6801 19.9199C17.4389 20.1181 17.2522 20.0647 17.1201 19.7599C17.0525 20.068 16.8658 20.228 16.5601 20.2399C17.0581 19.0594 17.6449 17.9394 18.3201 16.8799Z"
            fill="#4844D9" />
        <path fill-rule="evenodd" clip-rule="evenodd"
            d="M10.6402 11.1201C10.6402 14.3734 10.6402 17.6268 10.6402 20.8801C11.3017 21.0377 11.995 21.091 12.7202 21.0401C12.6677 19.1449 12.721 17.2782 12.8802 15.4401C13.6514 16.9825 14.4247 18.5292 15.2002 20.0801C15.6353 20.2312 16.0885 20.2844 16.5602 20.2401C16.0063 20.3972 15.4196 20.4505 14.8002 20.4001C14.8352 20.2121 14.7819 20.0521 14.6402 19.9201C14.43 20.0502 14.2433 20.2102 14.0802 20.4001C14.0535 20.3468 14.0269 20.2934 14.0002 20.2401C14.221 19.8772 14.3543 19.504 14.4002 19.1201C14.2155 19.319 14.0022 19.479 13.7602 19.6001C13.6812 19.8616 13.6546 20.1283 13.6802 20.4001C13.5202 20.4001 13.3602 20.4001 13.2002 20.4001C13.2328 20.7025 13.1261 20.9425 12.8802 21.1201C12.082 21.2 11.282 21.2267 10.4802 21.2001C10.4273 17.8124 10.4806 14.4524 10.6402 11.1201Z"
            fill="#3F3EDC" />
        <path fill-rule="evenodd" clip-rule="evenodd"
            d="M21.1998 11.1201C21.4129 12.7165 21.5197 14.3699 21.5198 16.0801C21.4931 17.7334 21.4665 19.3868 21.4398 21.0401C21.1669 21.1694 21.0336 21.3827 21.0398 21.6801C20.6627 21.7062 20.2894 21.6796 19.9198 21.6001C20.9723 21.4206 20.9723 21.2872 19.9198 21.2001C19.6531 21.2534 19.3865 21.3068 19.1198 21.3601C19.5408 21.6009 19.4873 21.7075 18.9598 21.6801C18.763 20.3969 18.763 19.1169 18.9598 17.8401C18.8185 17.6724 18.7118 17.4857 18.6398 17.2801C18.9158 16.6113 18.8091 16.4779 18.3198 16.8801C18.4209 16.2512 18.6877 15.7178 19.1198 15.2801C19.1198 17.2001 19.1198 19.1201 19.1198 21.0401C19.8131 21.0401 20.5065 21.0401 21.1998 21.0401C21.1998 17.7334 21.1998 14.4268 21.1998 11.1201Z"
            fill="#3B3BD6" />
    </g>
    <defs>
        <clipPath id="clip0_5227_662">
            <rect width="32" height="32" fill="white" />
        </clipPath>
    </defs>
</svg>