<svg width="32" height="32" viewBox="0 0 32 32" fill="none" xmlns="http://www.w3.org/2000/svg">
    <g clip-path="url(#clip0_5162_133)">
        <path fill-rule="evenodd" clip-rule="evenodd"
            d="M-0.160156 -0.160156C10.5065 -0.160156 21.1732 -0.160156 31.8398 -0.160156C31.8398 10.5065 31.8398 21.1732 31.8398 31.8398C21.1732 31.8398 10.5065 31.8398 -0.160156 31.8398C-0.160156 21.1732 -0.160156 10.5065 -0.160156 -0.160156Z"
            fill="#FAFAFA" />
        <path fill-rule="evenodd" clip-rule="evenodd"
            d="M28.9602 7.51997C28.7511 7.93815 28.5378 8.3648 28.3202 8.79997C29.5346 9.05693 29.588 9.69693 28.4802 10.72C28.3736 10.6133 28.2669 10.5066 28.1602 10.4C28.0004 11.9964 27.9471 13.5964 28.0002 15.2C27.5736 15.2 27.1469 15.2 26.7202 15.2C26.7202 13.1733 26.7202 11.1466 26.7202 9.11997C26.0802 9.11997 25.4402 9.11997 24.8002 9.11997C24.8002 11.1466 24.8002 13.1733 24.8002 15.2C24.4802 15.2 24.1602 15.2 23.8402 15.2C23.8402 13.1733 23.8402 11.1466 23.8402 9.11997C23.3069 9.11997 22.7736 9.11997 22.2402 9.11997C22.0269 10.1866 21.8136 11.2533 21.6002 12.32C20.9685 11.3657 20.3285 10.4057 19.6802 9.43997C18.8525 9.12637 17.9992 9.01968 17.1202 9.11997C17.1202 11.1466 17.1202 13.1733 17.1202 15.2C17.7602 15.2 18.4002 15.2 19.0402 15.2C18.9874 14.128 19.0408 13.0613 19.2002 12C20.0388 12.9842 20.8388 13.9975 21.6002 15.04C22.014 15.1968 22.4407 15.2501 22.8802 15.2C22.8802 15.7333 22.8802 16.2666 22.8802 16.8C21.1249 16.4363 19.4183 16.4363 17.7602 16.8C17.1486 16.984 16.6153 17.304 16.1602 17.76C15.7336 18.4 15.3069 19.04 14.8802 19.68C14.9805 18.801 14.8738 17.9477 14.5602 17.12C13.9495 16.8485 13.3095 16.7419 12.6402 16.8C11.0659 16.6633 9.57253 16.1833 8.16021 15.36C8.2333 15.2324 8.33999 15.179 8.48021 15.2C9.12021 15.2 9.76021 15.2 10.4002 15.2C11.4241 9.76004 11.8507 9.76004 11.6802 15.2C12.3202 15.2 12.9602 15.2 13.6002 15.2C13.6002 13.1733 13.6002 11.1466 13.6002 9.11997C12.5336 9.11997 11.4669 9.11997 10.4002 9.11997C10.1891 10.34 9.81583 11.5133 9.28021 12.64C8.87132 11.4671 8.49797 10.2937 8.16021 9.11997C7.09356 9.11997 6.02687 9.11997 4.96021 9.11997C4.64021 9.11997 4.32021 9.11997 4.00021 9.11997C4.07029 9.49597 3.96364 9.81597 3.68021 10.08C3.21167 9.15047 2.89166 8.29712 2.72021 7.51997C7.08031 1.13367 13.0536 -1.053 20.6402 0.959972C24.2337 2.1584 27.007 4.34506 28.9602 7.51997Z"
            fill="#191A1B" />
        <path fill-rule="evenodd" clip-rule="evenodd"
            d="M2.72019 7.51953C2.89164 8.29668 3.21165 9.15003 3.68019 10.0795C3.96362 9.81553 4.07027 9.49553 4.00019 9.11953C4.32019 9.11953 4.64019 9.11953 4.96019 9.11953C4.96019 11.1462 4.96019 13.1729 4.96019 15.1995C5.60019 15.1995 6.24019 15.1995 6.88019 15.1995C7.09354 14.2395 7.30685 13.2795 7.52019 12.3195C7.90291 13.2544 8.22291 14.2144 8.48019 15.1995C8.33997 15.1786 8.23328 15.2319 8.16019 15.3595C9.57251 16.1829 11.0659 16.6629 12.6402 16.7995C11.1468 16.7995 9.65354 16.7995 8.16019 16.7995C8.16019 18.8262 8.16019 20.8529 8.16019 22.8795C10.2962 22.9327 12.4295 22.8794 14.5602 22.7195C15.2724 21.7711 15.3791 20.7578 14.8802 19.6795C15.3068 19.0395 15.7335 18.3995 16.1602 17.7595C15.1976 22.2876 17.0109 23.941 21.6002 22.7195C22.6834 22.4376 23.2167 21.7443 23.2002 20.6395C21.6658 20.8677 20.1725 21.1344 18.7202 21.4395C18.0098 20.4471 17.9031 19.3804 18.4002 18.2395C19.0402 18.0262 19.6802 18.0262 20.3202 18.2395C20.7916 18.4666 21.005 18.8399 20.9602 19.3595C21.8135 19.3595 22.6669 19.3595 23.5202 19.3595C23.4921 18.263 22.9588 17.5164 21.9202 17.1195C20.5483 16.8397 19.1616 16.733 17.7602 16.7995C19.4182 16.4359 21.1249 16.4359 22.8802 16.7995C22.8802 16.2662 22.8802 15.7329 22.8802 15.1995C23.2002 15.1995 23.5202 15.1995 23.8402 15.1995C24.1602 15.1995 24.4802 15.1995 24.8002 15.1995C25.4402 15.1995 26.0802 15.1995 26.7202 15.1995C27.1469 15.1995 27.5735 15.1995 28.0002 15.1995C27.9471 13.596 28.0004 11.996 28.1602 10.3995C28.2669 10.5062 28.3735 10.6129 28.4802 10.7195C29.5879 9.69649 29.5346 9.05649 28.3202 8.79953C28.5378 8.36436 28.7511 7.93771 28.9602 7.51953C32.7023 14.0734 32.2223 20.3667 27.5202 26.3995C21.912 31.6811 15.5653 32.8011 8.48019 29.7595C1.81093 25.5369 -0.802404 19.5103 0.640194 11.6795C1.06564 10.1219 1.75898 8.73524 2.72019 7.51953Z"
            fill="#17191B" />
        <path fill-rule="evenodd" clip-rule="evenodd"
            d="M26.7198 15.2001C26.0798 15.2001 25.4398 15.2001 24.7998 15.2001C24.7998 13.1735 24.7998 11.1468 24.7998 9.12012C25.4398 9.12012 26.0798 9.12012 26.7198 9.12012C26.7198 11.1468 26.7198 13.1735 26.7198 15.2001Z"
            fill="#FDFEFE" />
        <path fill-rule="evenodd" clip-rule="evenodd"
            d="M21.6001 12.3204C21.6906 12.5729 21.8506 12.7863 22.0801 12.9604C22.2397 11.6848 22.2931 10.4048 22.2401 9.12043C22.7735 9.12043 23.3068 9.12043 23.8401 9.12043C23.8401 11.1471 23.8401 13.1738 23.8401 15.2004C23.5201 15.2004 23.2001 15.2004 22.8801 15.2004C22.4406 15.2506 22.0139 15.1972 21.6001 15.0404C20.8387 13.998 20.0387 12.9847 19.2001 12.0004C19.0407 13.0618 18.9873 14.1285 19.0401 15.2004C18.4001 15.2004 17.7601 15.2004 17.1201 15.2004C17.1201 13.1738 17.1201 11.1471 17.1201 9.12043C17.9991 9.02014 18.8524 9.12683 19.6801 9.44043C20.3284 10.4061 20.9684 11.3661 21.6001 12.3204Z"
            fill="#F7F8F8" />
        <path fill-rule="evenodd" clip-rule="evenodd"
            d="M14.2402 9.12012C14.8802 9.12012 15.5202 9.12012 16.1602 9.12012C16.1602 11.1468 16.1602 13.1735 16.1602 15.2001C15.5202 15.2001 14.8802 15.2001 14.2402 15.2001C14.2402 13.1735 14.2402 11.1468 14.2402 9.12012Z"
            fill="#F7F8F8" />
        <path fill-rule="evenodd" clip-rule="evenodd"
            d="M4.95996 9.12012C6.02662 9.12012 7.09331 9.12012 8.15996 9.12012C8.49772 10.2939 8.87107 11.4672 9.27996 12.6401C9.81558 11.5135 10.1889 10.3402 10.4 9.12012C11.4666 9.12012 12.5333 9.12012 13.6 9.12012C13.6 11.1468 13.6 13.1735 13.6 15.2001C12.96 15.2001 12.32 15.2001 11.68 15.2001C11.8505 9.76018 11.4238 9.76018 10.4 15.2001C9.75996 15.2001 9.11996 15.2001 8.47996 15.2001C8.22268 14.215 7.90268 13.255 7.51996 12.3201C7.39443 11.7829 7.23443 11.2496 7.03996 10.7201C6.88022 12.2097 6.82691 13.703 6.87996 15.2001C6.23996 15.2001 5.59996 15.2001 4.95996 15.2001C4.95996 13.1735 4.95996 11.1468 4.95996 9.12012Z"
            fill="#F1F2F2" />
        <path fill-rule="evenodd" clip-rule="evenodd"
            d="M22.2401 9.12012C22.2931 10.4045 22.2397 11.6845 22.0801 12.9601C21.8506 12.786 21.6906 12.5726 21.6001 12.3201C21.8134 11.2535 22.0268 10.1868 22.2401 9.12012Z"
            fill="#A5A6A6" />
        <path fill-rule="evenodd" clip-rule="evenodd"
            d="M7.5202 12.3197C7.30685 13.2797 7.09354 14.2397 6.8802 15.1997C6.82714 13.7026 6.88045 12.2093 7.0402 10.7197C7.23466 11.2492 7.39466 11.7825 7.5202 12.3197Z"
            fill="#707070" />
        <path fill-rule="evenodd" clip-rule="evenodd"
            d="M17.76 16.8004C19.1614 16.7339 20.5481 16.8406 21.92 17.1204C22.9586 17.5172 23.4919 18.2639 23.52 19.3604C22.6667 19.3604 21.8134 19.3604 20.96 19.3604C21.0048 18.8408 20.7915 18.4675 20.32 18.2404C19.68 18.0271 19.04 18.0271 18.4 18.2404C17.9029 19.3813 18.0096 20.448 18.72 21.4404C20.1723 21.1353 21.6656 20.8686 23.2 20.6404C23.2166 21.7452 22.6832 22.4385 21.6 22.7204C17.0108 23.9419 15.1974 22.2885 16.16 17.7604C16.6151 17.3044 17.1484 16.9844 17.76 16.8004Z"
            fill="#2F718C" />
        <path fill-rule="evenodd" clip-rule="evenodd"
            d="M12.6402 16.7995C13.3094 16.7414 13.9494 16.8481 14.5602 17.1195C14.8738 17.9472 14.9804 18.8005 14.8802 19.6795C15.3791 20.7578 15.2724 21.7712 14.5602 22.7195C12.4295 22.8794 10.2962 22.9328 8.16016 22.8795C8.16016 20.8529 8.16016 18.8262 8.16016 16.7995C9.6535 16.7995 11.1468 16.7995 12.6402 16.7995Z"
            fill="#2D718D" />
        <path fill-rule="evenodd" clip-rule="evenodd"
            d="M10.0801 18.0801C10.9334 18.0801 11.7867 18.0801 12.6401 18.0801C12.6401 18.4001 12.6401 18.7201 12.6401 19.0401C11.7867 19.0401 10.9334 19.0401 10.0801 19.0401C10.0801 18.7201 10.0801 18.4001 10.0801 18.0801Z"
            fill="#172331" />
        <path fill-rule="evenodd" clip-rule="evenodd"
            d="M10.3999 20.3202C11.1541 20.2679 11.9008 20.3213 12.6399 20.4802C13.0666 20.8002 13.0666 21.1202 12.6399 21.4402C11.9008 21.5991 11.1541 21.6524 10.3999 21.6002C10.3999 21.1735 10.3999 20.7468 10.3999 20.3202Z"
            fill="#121E23" />
    </g>
    <defs>
        <clipPath id="clip0_5162_133">
            <rect width="32" height="32" fill="white" />
        </clipPath>
    </defs>
</svg>