<svg width="32" height="32" viewBox="0 0 32 32" fill="none" xmlns="http://www.w3.org/2000/svg">
    <g clip-path="url(#clip0_5453_144)">
        <path fill-rule="evenodd" clip-rule="evenodd"
            d="M-0.0786133 -0.0834961C10.5881 -0.0834961 21.2547 -0.0834961 31.9214 -0.0834961C31.9214 10.5832 31.9214 21.2498 31.9214 31.9165C21.2547 31.9165 10.5881 31.9165 -0.0786133 31.9165C-0.0786133 21.2498 -0.0786133 10.5832 -0.0786133 -0.0834961Z"
            fill="#FEFEFE" />
        <path fill-rule="evenodd" clip-rule="evenodd"
            d="M14.9806 3.58333C13.1747 3.52864 11.3969 3.58419 9.64722 3.74999C9.59494 3.74999 9.54264 3.74999 9.49036 3.74999C9.43808 3.74999 9.38578 3.74999 9.3335 3.74999C9.35086 3.64709 9.40314 3.56376 9.49036 3.49999C11.3477 3.36231 13.1778 3.39008 14.9806 3.58333Z"
            fill="#9AC5DC" />
        <path fill-rule="evenodd" clip-rule="evenodd"
            d="M20 3.58335C21.8551 3.39007 23.7374 3.3623 25.6471 3.50002C25.7907 3.54642 25.8952 3.62975 25.9608 3.75002C23.9785 3.59658 21.9917 3.54102 20 3.58335Z"
            fill="#9AC7DA" />
        <path fill-rule="evenodd" clip-rule="evenodd"
            d="M8.23505 4.24993C7.76175 4.69954 7.44803 5.25511 7.29388 5.91659C7.19703 5.93504 7.1186 5.99059 7.05858 6.08326C7.03131 5.21934 6.95287 4.38601 6.82329 3.58326C5.77753 3.58326 4.73179 3.58326 3.68604 3.58326C3.68604 3.52771 3.68604 3.47214 3.68604 3.41659C4.77631 3.23441 5.87435 3.20663 6.98015 3.33326C7.10517 3.95749 7.1836 4.59638 7.21545 5.24993C7.26527 4.98978 7.39598 4.79533 7.6076 4.66659C7.39846 4.49993 7.39846 4.33326 7.6076 4.16659C7.81455 4.13409 8.0237 4.16188 8.23505 4.24993Z"
            fill="#D9EEF4" />
        <path fill-rule="evenodd" clip-rule="evenodd"
            d="M19.9999 3.5832C19.9999 3.63875 19.9999 3.69432 19.9999 3.74987C19.8259 3.75935 19.6691 3.8149 19.5293 3.91654C19.5796 3.65852 19.7365 3.5474 19.9999 3.5832Z"
            fill="#9CCADC" />
        <path fill-rule="evenodd" clip-rule="evenodd"
            d="M9.49015 3.75C9.54243 3.75 9.59473 3.75 9.64701 3.75C11.2665 3.9029 12.8874 3.93068 14.5098 3.83333C14.857 4.04555 15.223 4.21222 15.6078 4.33333C15.7124 4.61112 15.8169 4.88888 15.9215 5.16667C16.0704 5.26953 16.2011 5.24177 16.3137 5.08333C16.2558 5.63162 16.2558 6.18717 16.3137 6.75C16.3912 6.47765 16.4172 6.19987 16.3921 5.91667C16.549 5.91667 16.7058 5.91667 16.8627 5.91667C16.8627 6.25 16.8627 6.58333 16.8627 6.91667C17.0196 6.91667 17.1764 6.91667 17.3333 6.91667C17.2912 7.18317 17.3436 7.4054 17.4901 7.58333C17.4901 7.69445 17.4901 7.80555 17.4901 7.91667C17.4379 7.91667 17.3855 7.91667 17.3333 7.91667C17.2247 13.8906 17.1201 19.8905 17.0196 25.9167C17.1237 26.5793 17.176 27.246 17.1764 27.9167C17.1764 27.9722 17.1764 28.0278 17.1764 28.0833C16.2991 28.1345 15.4363 28.0788 14.5882 27.9167C14.4902 21.3017 14.4902 14.6905 14.5882 8.08333C12.1167 7.91813 9.63307 7.86257 7.13721 7.91667C7.13721 7.80555 7.13721 7.69445 7.13721 7.58333C7.31645 7.05268 7.42103 6.49712 7.45093 5.91667C7.66008 5.91667 7.86924 5.91667 8.07838 5.91667C7.97973 5.0151 8.34576 4.45953 9.17642 4.25C9.32155 4.10718 9.42613 3.94052 9.49015 3.75Z"
            fill="#015E99" />
        <path fill-rule="evenodd" clip-rule="evenodd"
            d="M20 3.75022C20 3.69467 20 3.6391 20 3.58355C21.9917 3.54122 23.9785 3.59679 25.9608 3.75022C26.0144 3.88992 26.1189 3.94549 26.2745 3.91689C26.4447 4.2647 26.706 4.48692 27.0588 4.58355C27.3503 4.98074 27.5595 5.42519 27.6863 5.91689C27.4968 5.79454 27.2877 5.73899 27.0588 5.75022C26.9857 5.46669 26.9857 5.21669 27.0588 5.00022C26.7787 4.86947 26.5434 4.67502 26.3529 4.41689C26.3007 4.47244 26.2483 4.528 26.1961 4.58355C25.9595 3.88789 25.5936 3.77677 25.098 4.25022C24.709 3.97254 24.2646 3.83365 23.7647 3.83355C22.5109 3.75027 21.256 3.72249 20 3.75022Z"
            fill="#19608B" />
        <path fill-rule="evenodd" clip-rule="evenodd"
            d="M14.9805 3.5835C15.3611 3.58733 15.7271 3.67066 16.0785 3.8335C16.2507 3.96178 16.2507 4.10066 16.0785 4.25016C15.6857 4.06951 15.3197 3.8473 14.9805 3.5835Z"
            fill="#CFE7E9" />
        <path fill-rule="evenodd" clip-rule="evenodd"
            d="M19.9998 3.75014C21.2558 3.7224 22.5107 3.75019 23.7645 3.83347C24.2644 3.83357 24.7088 3.97245 25.0978 4.25014C25.5934 3.77669 25.9593 3.8878 26.1959 4.58347C26.2481 4.52792 26.3005 4.47235 26.3527 4.4168C26.5432 4.67494 26.7785 4.86939 27.0586 5.00014C26.9855 5.2166 26.9855 5.4666 27.0586 5.75014C27.2875 5.7389 27.4966 5.79445 27.6861 5.9168C27.6861 5.97235 27.6861 6.02792 27.6861 6.08347C27.674 6.7026 27.7262 7.31372 27.8429 7.9168C27.8343 14.6487 27.8343 21.371 27.8429 28.0835C27.3201 28.0835 26.7971 28.0835 26.2743 28.0835C26.1068 27.9278 25.8977 27.8721 25.6468 27.9168C25.5681 24.3585 25.5419 20.8028 25.5684 17.2501C25.4385 19.0228 25.3601 19.0228 25.3331 17.2501C25.5734 14.3663 25.7303 11.4774 25.8037 8.58347C25.7515 8.36125 25.6991 8.13902 25.6468 7.9168C25.5168 8.80055 25.4384 9.68944 25.4116 10.5835C25.3844 9.66417 25.306 8.77529 25.1763 7.9168C24.5099 7.76557 23.8301 7.65445 23.137 7.58347C21.4197 7.74429 19.7203 7.74429 18.039 7.58347C18.009 7.2155 17.9306 6.88217 17.8037 6.58347C17.8037 6.47235 17.8037 6.36125 17.8037 6.25014C17.9005 6.23169 17.9789 6.17614 18.039 6.08347C18.0912 6.4168 18.1436 6.75014 18.1959 7.08347C18.2403 6.54309 18.3711 6.48754 18.588 6.9168C18.893 6.80194 19.2067 6.7186 19.5292 6.6668C19.3201 6.61125 19.1108 6.55569 18.9018 6.50014C19.1545 5.84832 19.5204 5.40387 19.9998 5.1668C19.6668 4.96785 19.3007 4.85675 18.9018 4.83347C19.2432 4.6331 19.6094 4.54977 19.9998 4.58347C19.9998 4.30569 19.9998 4.02792 19.9998 3.75014Z"
            fill="#015E99" />
        <path fill-rule="evenodd" clip-rule="evenodd"
            d="M26.2744 3.9165C26.6272 4.01314 26.8885 4.23535 27.0587 4.58317C26.7059 4.48654 26.4446 4.26432 26.2744 3.9165Z"
            fill="#A1C6DB" />
        <path fill-rule="evenodd" clip-rule="evenodd"
            d="M6.66678 7.25C6.55359 7.31958 6.47516 7.4307 6.43149 7.58333C6.24909 7.2858 6.14451 6.95247 6.11776 6.58333C6.06534 7.69677 5.98691 8.80788 5.88247 9.91667C5.85666 15.4701 5.90895 21.0257 6.03933 26.5833C6.17004 20.3618 6.24847 14.1396 6.27462 7.91667C6.32018 8.32007 6.39861 8.70895 6.50992 9.08333C6.50992 15.4167 6.50992 21.75 6.50992 28.0833C5.7256 28.0833 4.94129 28.0833 4.15698 28.0833C4.00091 20.0398 3.94863 11.9842 4.00011 3.91667C4.73215 3.91667 5.46416 3.91667 6.19619 3.91667C6.35241 3.93097 6.48313 3.8754 6.58835 3.75C6.66672 4.91535 6.69287 6.08202 6.66678 7.25Z"
            fill="#015E9A" />
        <path fill-rule="evenodd" clip-rule="evenodd"
            d="M9.64697 3.75C11.3967 3.5842 13.1745 3.52865 14.9803 3.58333C15.3195 3.84713 15.6855 4.06935 16.0783 4.25C16.3444 4.58747 16.6059 4.9208 16.8627 5.25C17.1105 5.77653 17.2674 6.33208 17.3332 6.91667C17.1764 6.91667 17.0195 6.91667 16.8627 6.91667C16.8627 6.58333 16.8627 6.25 16.8627 5.91667C16.7058 5.91667 16.5489 5.91667 16.3921 5.91667C16.4172 6.19987 16.3911 6.47765 16.3136 6.75C16.2558 6.18717 16.2558 5.63162 16.3136 5.08333C16.201 5.24177 16.0703 5.26953 15.9215 5.16667C15.8169 4.88888 15.7124 4.61112 15.6078 4.33333C15.223 4.21222 14.8569 4.04555 14.5097 3.83333C12.8873 3.93068 11.2664 3.9029 9.64697 3.75Z"
            fill="#185F8D" />
        <path fill-rule="evenodd" clip-rule="evenodd"
            d="M19.9998 3.75C19.9998 4.02778 19.9998 4.30555 19.9998 4.58333C19.6094 4.54963 19.2432 4.63297 18.9018 4.83333C19.3007 4.85662 19.6668 4.96772 19.9998 5.16667C19.5204 5.40373 19.1545 5.84818 18.9018 6.5C19.1108 6.55555 19.3201 6.61112 19.5292 6.66667C19.2067 6.71847 18.893 6.8018 18.588 6.91667C18.3711 6.4874 18.2403 6.54295 18.1959 7.08333C18.1436 6.75 18.0912 6.41667 18.039 6.08333C17.9789 6.176 17.9005 6.23155 17.8037 6.25C17.8037 6.13888 17.8037 6.02778 17.8037 5.91667C18.1599 5.03812 18.7352 4.37145 19.5292 3.91667C19.669 3.81503 19.8258 3.75948 19.9998 3.75Z"
            fill="#106195" />
        <path fill-rule="evenodd" clip-rule="evenodd"
            d="M6.1962 3.91677C5.46417 3.91677 4.73216 3.91677 4.00012 3.91677C3.94864 11.9843 4.00092 20.0399 4.15699 28.0834C4.15699 28.1389 4.15699 28.1946 4.15699 28.2501C4.05241 28.2501 3.94784 28.2501 3.84326 28.2501C3.84326 20.0834 3.84326 11.9168 3.84326 3.75011C4.6581 3.69669 5.44241 3.75224 6.1962 3.91677Z"
            fill="#085785" />
        <path fill-rule="evenodd" clip-rule="evenodd"
            d="M16.8628 5.25C17.0197 5.25 17.1765 5.25 17.3334 5.25C17.3284 5.60313 17.4852 5.82537 17.804 5.91667C17.804 6.02778 17.804 6.13888 17.804 6.25C17.7221 6.53652 17.5652 6.75875 17.3334 6.91667C17.2675 6.33208 17.1106 5.77653 16.8628 5.25Z"
            fill="#D3EBF2" />
        <path fill-rule="evenodd" clip-rule="evenodd"
            d="M3.68604 3.5835C4.73179 3.5835 5.77753 3.5835 6.82329 3.5835C6.77164 4.58963 6.82393 5.58963 6.98015 6.5835C7.16919 6.40401 7.27377 6.1818 7.29388 5.91683C7.44803 5.25535 7.76175 4.69978 8.23505 4.25016C8.57154 4.00208 8.93756 3.83541 9.33309 3.75016C9.38538 3.75016 9.43767 3.75016 9.48996 3.75016C9.42594 3.94068 9.32136 4.10735 9.17623 4.25016C8.34556 4.4597 7.97954 5.01526 8.07819 5.91683C7.86905 5.91683 7.65989 5.91683 7.45074 5.91683C7.42084 6.49728 7.31626 7.05285 7.13702 7.5835C6.87367 7.6193 6.71681 7.50818 6.66643 7.25016C6.69251 6.08218 6.66636 4.91551 6.588 3.75016C6.48277 3.87556 6.35206 3.93113 6.19584 3.91683C5.44205 3.7523 4.65774 3.69675 3.8429 3.75016C3.8429 11.9168 3.8429 20.0835 3.8429 28.2502C3.79062 28.2502 3.73832 28.2502 3.68604 28.2502C3.68604 20.028 3.68604 11.8057 3.68604 3.5835Z"
            fill="#2A6E95" />
        <path fill-rule="evenodd" clip-rule="evenodd"
            d="M6.82345 3.5835C6.95303 4.38625 7.03147 5.21958 7.05874 6.0835C7.11876 5.99083 7.19719 5.93528 7.29404 5.91683C7.27393 6.1818 7.16935 6.40401 6.98031 6.5835C6.82409 5.58963 6.7718 4.58963 6.82345 3.5835Z"
            fill="#92C3D8" />
        <path fill-rule="evenodd" clip-rule="evenodd"
            d="M6.66669 7.25016C6.71707 7.50818 6.87393 7.6193 7.13727 7.5835C7.13727 7.69461 7.13727 7.80571 7.13727 7.91683C6.98173 7.88823 6.87715 7.9438 6.82355 8.0835C6.87561 14.8341 6.82333 21.5563 6.66669 28.2502C6.71875 21.8328 6.66645 15.444 6.50982 9.0835C6.39851 8.70911 6.32008 8.32023 6.27453 7.91683C6.24838 14.1398 6.16995 20.362 6.03923 26.5835C5.90885 21.0258 5.85657 15.4702 5.88237 9.91683C5.98681 8.80805 6.06524 7.69693 6.11767 6.5835C6.14441 6.95263 6.24899 7.28596 6.43139 7.5835C6.47506 7.43086 6.55349 7.31975 6.66669 7.25016Z"
            fill="#106192" />
        <path fill-rule="evenodd" clip-rule="evenodd"
            d="M17.804 6.25C17.804 6.36112 17.804 6.47222 17.804 6.58333C17.8785 7.01368 17.7738 7.34702 17.4902 7.58333C17.3437 7.4054 17.2913 7.18317 17.3334 6.91667C17.5652 6.75875 17.7221 6.53652 17.804 6.25Z"
            fill="#3F80AC" />
        <path fill-rule="evenodd" clip-rule="evenodd"
            d="M27.6863 6.0835C27.8489 6.32188 27.9536 6.59966 28 6.91683C28 7.25016 28 7.5835 28 7.91683C27.9478 7.91683 27.8954 7.91683 27.8431 7.91683C27.7264 7.31375 27.6742 6.70263 27.6863 6.0835Z"
            fill="#22698B" />
        <path fill-rule="evenodd" clip-rule="evenodd"
            d="M17.804 6.5835C17.9309 6.8822 18.0093 7.21553 18.0393 7.5835C19.7205 7.74431 21.42 7.74431 23.1373 7.5835C23.8303 7.65448 24.5102 7.7656 25.1765 7.91683C25.2286 14.6118 25.1764 21.2785 25.0196 27.9168C25.0196 21.3057 25.0196 14.6946 25.0196 8.0835C22.5098 8.0835 20 8.0835 17.4902 8.0835C17.4902 8.02795 17.4902 7.97238 17.4902 7.91683C17.4902 7.80571 17.4902 7.69461 17.4902 7.5835C17.7738 7.34718 17.8785 7.01385 17.804 6.5835Z"
            fill="#0C598C" />
        <path fill-rule="evenodd" clip-rule="evenodd"
            d="M17.3333 7.9165C17.3853 14.6115 17.3331 21.2782 17.1764 27.9165C17.1759 27.2458 17.1237 26.5792 17.0195 25.9165C17.1201 19.8903 17.2247 13.8904 17.3333 7.9165Z"
            fill="#055484" />
        <path fill-rule="evenodd" clip-rule="evenodd"
            d="M17.3331 7.9165C17.3854 7.9165 17.4378 7.9165 17.49 7.9165C17.49 7.97205 17.49 8.02762 17.49 8.08317C17.49 14.7498 17.49 21.4165 17.49 28.0832C17.3854 28.0832 17.2809 28.0832 17.1763 28.0832C17.1763 28.0277 17.1763 27.972 17.1763 27.9165C17.333 21.2782 17.3852 14.6115 17.3331 7.9165Z"
            fill="#37779C" />
        <path fill-rule="evenodd" clip-rule="evenodd"
            d="M24.7061 8.25C24.7061 8.30555 24.7061 8.36112 24.7061 8.41667C22.4054 8.41667 20.1048 8.41667 17.8041 8.41667C17.8303 15.0836 17.8041 21.7502 17.7257 28.4167C17.1375 28.525 16.5361 28.5805 15.9218 28.5833C15.2841 28.5815 14.7089 28.4703 14.1963 28.25C14.2486 28.25 14.3009 28.25 14.3532 28.25C15.3989 28.4722 16.4446 28.4722 17.4904 28.25C17.6471 21.6117 17.6993 14.945 17.6473 8.25C20.0002 8.25 22.3532 8.25 24.7061 8.25Z"
            fill="#EAFAFE" />
        <path fill-rule="evenodd" clip-rule="evenodd"
            d="M17.4902 8.0835C20 8.0835 22.5098 8.0835 25.0196 8.0835C25.0196 14.6946 25.0196 21.3057 25.0196 27.9168C25.0196 27.9723 25.0196 28.028 25.0196 28.0835C25.0196 28.139 25.0196 28.1947 25.0196 28.2502C24.915 21.5835 24.8105 14.9168 24.7059 8.25016C22.353 8.25016 20 8.25016 17.6471 8.25016C17.6992 14.9452 17.6469 21.6118 17.4902 28.2502C17.4902 28.1947 17.4902 28.139 17.4902 28.0835C17.4902 21.4168 17.4902 14.7502 17.4902 8.0835Z"
            fill="#9ABED3" />
        <path fill-rule="evenodd" clip-rule="evenodd"
            d="M13.8823 8.25016C13.8823 8.19461 13.8823 8.13905 13.8823 8.0835C14.0392 8.0835 14.196 8.0835 14.3529 8.0835C14.3529 14.8057 14.3529 21.528 14.3529 28.2502C14.3006 28.2502 14.2483 28.2502 14.196 28.2502C14.2997 21.5257 14.1951 14.8589 13.8823 8.25016Z"
            fill="#88B1C4" />
        <path fill-rule="evenodd" clip-rule="evenodd"
            d="M6.82373 8.08317C6.87733 7.94347 6.98191 7.8879 7.13746 7.9165C9.63331 7.8624 12.117 7.91797 14.5884 8.08317C14.4905 14.6904 14.4905 21.3015 14.5884 27.9165C15.4365 28.0787 16.2993 28.1343 17.1767 28.0832C17.2813 28.0832 17.3858 28.0832 17.4904 28.0832C17.4904 28.1387 17.4904 28.1943 17.4904 28.2498C16.4446 28.472 15.3989 28.472 14.3531 28.2498C14.3531 21.5277 14.3531 14.8054 14.3531 8.08317C14.1963 8.08317 14.0394 8.08317 13.8826 8.08317C11.5296 8.08317 9.17667 8.08317 6.82373 8.08317Z"
            fill="#25678C" />
        <path fill-rule="evenodd" clip-rule="evenodd"
            d="M24.7057 8.25C24.8103 14.9167 24.9148 21.5833 25.0194 28.25C25.0194 28.3055 25.0194 28.3612 25.0194 28.4167C24.7066 21.8078 24.602 15.1412 24.7057 8.41667C24.7057 8.36112 24.7057 8.30555 24.7057 8.25Z"
            fill="#CEE9F3" />
        <path fill-rule="evenodd" clip-rule="evenodd"
            d="M25.1764 7.9165C25.3061 8.77499 25.3846 9.66387 25.4117 10.5832C25.4385 9.68914 25.5169 8.80025 25.647 7.9165C25.6992 8.13872 25.7516 8.36095 25.8038 8.58317C25.7304 11.4771 25.5736 14.366 25.3333 17.2498C25.3602 19.0225 25.4387 19.0225 25.5686 17.2498C25.542 20.8025 25.5682 24.3582 25.647 27.9165C25.8978 27.8718 26.1069 27.9275 26.2744 28.0832C25.8561 28.0832 25.4379 28.0832 25.0195 28.0832C25.0195 28.0277 25.0195 27.972 25.0195 27.9165C25.1762 21.2782 25.2285 14.6115 25.1764 7.9165Z"
            fill="#055F95" />
        <path fill-rule="evenodd" clip-rule="evenodd"
            d="M3.68632 3.4165C3.68632 3.47205 3.68632 3.52762 3.68632 3.58317C3.68632 11.8054 3.68632 20.0277 3.68632 28.2498C4.75509 28.415 5.85313 28.4707 6.98044 28.4165C6.98044 21.6943 6.98044 14.9721 6.98044 8.24984C9.2811 8.24984 11.5817 8.24984 13.8824 8.24984C14.1952 14.8586 14.2998 21.5253 14.1961 28.2498C14.0395 21.6672 13.9872 15.056 14.0393 8.4165C11.7386 8.4165 9.43796 8.4165 7.13731 8.4165C7.11116 14.9167 7.13731 21.4167 7.21574 27.9165C7.37123 28.241 7.42353 28.5743 7.3726 28.9165C7.25489 28.8122 7.12416 28.7288 6.98044 28.6665C5.77897 28.5832 4.57635 28.5555 3.3726 28.5832C3.34645 20.2497 3.3726 11.9163 3.45103 3.58317C3.51105 3.4905 3.58948 3.43495 3.68632 3.4165Z"
            fill="#E2F3F5" />
        <path fill-rule="evenodd" clip-rule="evenodd"
            d="M6.50968 9.0835C6.66631 15.444 6.71861 21.8328 6.66654 28.2502C5.82995 28.2502 4.99333 28.2502 4.15674 28.2502C4.15674 28.1947 4.15674 28.139 4.15674 28.0835C4.94105 28.0835 5.72537 28.0835 6.50968 28.0835C6.50968 21.7502 6.50968 15.4168 6.50968 9.0835Z"
            fill="#005389" />
        <path fill-rule="evenodd" clip-rule="evenodd"
            d="M27.8431 7.9165C27.8953 7.9165 27.9477 7.9165 27.9999 7.9165C27.9999 14.6943 27.9999 21.472 27.9999 28.2498C27.0065 28.2498 26.0129 28.2498 25.0195 28.2498C25.0195 28.1943 25.0195 28.1387 25.0195 28.0832C25.4379 28.0832 25.8561 28.0832 26.2744 28.0832C26.7973 28.0832 27.3202 28.0832 27.8431 28.0832C27.8344 21.3707 27.8344 14.6484 27.8431 7.9165Z"
            fill="#085787" />
        <path fill-rule="evenodd" clip-rule="evenodd"
            d="M6.82329 8.0835C9.17623 8.0835 11.5292 8.0835 13.8821 8.0835C13.8821 8.13905 13.8821 8.19461 13.8821 8.25016C11.5815 8.25016 9.28081 8.25016 6.98015 8.25016C6.98015 14.9724 6.98015 21.6947 6.98015 28.4168C5.85284 28.471 4.7548 28.4153 3.68604 28.2502C3.73832 28.2502 3.79062 28.2502 3.8429 28.2502C3.94748 28.2502 4.05204 28.2502 4.15662 28.2502C4.99322 28.2502 5.82983 28.2502 6.66643 28.2502C6.82307 21.5563 6.87535 14.8341 6.82329 8.0835Z"
            fill="#98BED1" />
        <path fill-rule="evenodd" clip-rule="evenodd"
            d="M27.9999 6.9165C28.1566 14.0549 28.2089 21.2215 28.1568 28.4165C27.111 28.4165 26.0653 28.4165 25.0195 28.4165C25.0195 28.361 25.0195 28.3053 25.0195 28.2498C26.0129 28.2498 27.0065 28.2498 27.9999 28.2498C27.9999 21.472 27.9999 14.6943 27.9999 7.9165C27.9999 7.58317 27.9999 7.24984 27.9999 6.9165Z"
            fill="#679CBB" />
    </g>
    <defs>
        <clipPath id="clip0_5453_144">
            <rect width="32" height="32" fill="white" />
        </clipPath>
    </defs>
</svg>