<svg width="32" height="32" viewBox="0 0 32 32" fill="none" xmlns="http://www.w3.org/2000/svg">
    <path
        d="M24.8401 31.4192C25.8985 31.3894 26.8688 29.2598 26.81 24.2561C26.6483 9.11071 26.5601 6.51947 26.5601 6.51947C26.5307 5.40256 25.6045 4.50903 24.502 4.53881H24.4873L3.95008 5.14939C2.84751 5.17917 1.96545 6.11738 1.99485 7.24919C1.99485 7.24919 2.03896 9.84043 2.7446 24.9709C2.97982 29.9598 4.06768 32.0298 5.12615 32L24.8401 31.4192Z"
        fill="url(#paint0_radial_4988_1150)" />
    <path
        d="M26.7659 19.9076C26.6189 7.82998 26.5601 6.51947 26.5601 6.51947C26.5307 5.40256 25.6045 4.50903 24.502 4.53881H24.4873L3.95008 5.14939C2.84751 5.17917 1.96545 6.11738 1.99485 7.24919C1.99485 7.24919 2.00956 8.5597 2.56819 20.6522C2.6564 20.7564 2.7152 20.8011 2.7152 20.8011C2.6564 13.3997 3.47965 10.3765 3.47965 10.3765C3.47965 10.3765 4.2735 10.9722 6.89026 11.0318C12.4913 11.1509 24.252 7.48746 24.252 7.48746C26.5454 12.804 26.6336 20.1012 26.6336 20.1012C26.6777 20.0267 26.7218 19.9671 26.7659 19.9076Z"
        fill="#C9955D" />
    <path
        d="M22.8566 16.884C22.886 17.986 22.0333 18.9093 20.9455 18.9391C19.8576 18.9689 18.9462 18.1052 18.9168 17.0031C18.8874 15.9011 19.74 14.9778 20.8279 14.948C21.9157 14.9182 22.8272 15.782 22.8566 16.884Z"
        fill="#C9955D" />
    <path
        d="M22.6217 16.7496C22.6511 17.7325 21.8866 18.5366 20.9311 18.5664C19.9608 18.5962 19.1669 17.8218 19.1375 16.8538C19.1081 15.8709 19.8726 15.0668 20.8281 15.037C21.7984 15.0072 22.5923 15.7667 22.6217 16.7496Z"
        fill="url(#paint1_radial_4988_1150)" />
    <path
        d="M23.9151 25.0894C23.9445 25.8489 23.3418 26.4893 22.592 26.519C21.8423 26.5488 21.2101 25.9382 21.1807 25.1787C21.1513 24.4192 21.7541 23.7789 22.5038 23.7491C23.2682 23.7193 23.8857 24.3299 23.9151 25.0894Z"
        fill="#F7B180" />
    <path
        d="M8.71392 25.5367C8.74332 26.2962 8.14058 26.9365 7.39084 26.9663C6.64109 26.9961 6.00895 26.3855 5.97955 25.626C5.95015 24.8665 6.55288 24.2261 7.30263 24.1964C8.05238 24.1666 8.68452 24.7772 8.71392 25.5367Z"
        fill="#F7B180" />
    <path
        d="M6.28785 17.3752C6.31725 18.4772 7.22871 19.341 8.31657 19.3112C9.40444 19.2814 10.2571 18.3581 10.2277 17.2561C10.1983 16.154 9.28683 15.2903 8.19897 15.3201C7.1111 15.3499 6.25845 16.2732 6.28785 17.3752Z"
        fill="#C9955D" />
    <path
        d="M6.50863 17.2262C6.53803 18.2091 7.33188 18.9686 8.30215 18.9537C9.27241 18.924 10.0222 18.1198 10.0075 17.1369C9.99275 16.154 9.1842 15.3945 8.21394 15.4094C7.24368 15.4392 6.47923 16.2434 6.50863 17.2262Z"
        fill="url(#paint2_radial_4988_1150)" />
    <path
        d="M9.49275 16.2879C9.71326 16.6453 9.62505 17.107 9.31633 17.2857C9.00761 17.4644 8.58129 17.3303 8.36077 16.958C8.14026 16.5857 8.22847 16.139 8.53719 15.9603C8.84591 15.7815 9.27223 15.9156 9.49275 16.2879Z"
        fill="white" />
    <path
        d="M22.1211 15.9159C22.3416 16.2882 22.2534 16.735 21.9447 16.9286C21.6359 17.1222 21.1949 16.9732 20.9891 16.6009C20.7833 16.2286 20.8568 15.7819 21.1655 15.6032C21.4742 15.4244 21.9005 15.5436 22.1211 15.9159Z"
        fill="white" />
    <path
        d="M19.2397 25.4171C19.2691 25.6107 19.1368 25.7746 18.9604 25.8043C18.9604 25.8043 18.9604 25.8043 18.9457 25.8043C16.2113 26.2064 13.4476 26.2958 10.6985 26.0426C10.5074 26.0277 10.3751 25.8639 10.3898 25.6703C10.4045 25.4767 10.5662 25.3427 10.7573 25.3576C13.4476 25.5958 16.1672 25.5214 18.8428 25.1193C19.0192 25.1044 19.1956 25.2384 19.2397 25.4171Z"
        fill="#836848" />
    <path
        d="M31.9412 2.14077L31.9853 2.17056C31.9853 2.17056 31.7354 2.17056 31.3385 2.17056C30.3976 2.20034 28.5894 2.36415 27.2369 3.01941L27.3692 2.98963C28.7511 2.64711 29.3244 3.15344 29.3244 3.15344C29.3244 3.15344 27.722 4.04697 28.4424 5.99785C29.1627 7.94873 31.162 16.9287 26.6342 21.858C26.6489 21.6644 27.2957 13.9652 25.4287 8.55931H25.414C24.8554 8.66355 12.6389 10.8527 7.06725 10.2421C4.40638 9.95917 3.61253 9.00607 3.61253 9.00607C3.61253 9.00607 2.77458 13.0419 2.20125 20.3837C2.12774 20.2944 -0.400817 17.6138 0.0549117 11.6271C0.525341 5.53619 2.23065 3.25769 2.23065 3.25769L2.53937 4.5682L3.68604 2.79603L3.98006 4.12143L5.22963 2.73646L5.20023 3.82359C8.64025 2.49818 12.1979 1.48551 15.8143 0.77069C18.9603 0.16011 22.4003 -0.197303 25.5757 0.115433C27.9572 0.338816 30.1771 0.949396 32 2.12588L31.9412 2.14077Z"
        fill="#201A14" />
    <path
        d="M26.3402 3.13878C25.958 3.6749 26.7812 3.66001 27.5163 3.45152C28.0014 3.31749 28.3395 3.19835 28.3542 3.36217C28.3689 3.45152 28.2807 3.61533 28.0896 3.89829C28.0308 3.97275 27.9867 4.04721 27.9426 4.12167C27.7956 4.33016 27.678 4.56843 27.6045 4.80671C27.5016 5.17901 27.5457 5.596 27.7074 6.37039C28.0014 7.75536 28.7364 8.61911 28.8099 11.955C28.9422 18.4033 27.1193 20.5478 27.1193 20.5478C27.1193 20.5478 27.134 20.3095 27.1487 19.8627C27.1928 18.716 27.2369 16.1397 27.0164 12.5358C26.9135 10.9423 26.5313 9.37861 25.8845 7.90429H25.8698C25.0024 8.09788 24.1645 8.2617 23.3706 8.41062L23.2971 8.42551C4.083 12.1337 4.87685 7.85961 3.06864 8.60422C3.06864 8.60422 2.75992 8.23191 2.27479 13.5038C2.15718 14.8143 2.03957 16.4524 1.89256 18.5373C1.87786 18.6862 1.83376 18.7458 1.74556 18.716C1.43684 18.6118 0.731192 17.331 0.437174 14.8887C0.260763 13.3846 0.363669 11.6422 0.584183 10.019V10.0041C0.804696 8.36594 1.11342 6.74269 1.53974 5.13434C1.78966 4.27059 2.03957 4.0621 2.14248 3.98764C2.20128 3.94296 2.21598 4.34505 2.26009 4.65779V4.67268C2.26009 4.70246 2.26009 4.71736 2.27479 4.74714C2.28949 4.79182 2.28949 4.83649 2.30419 4.86628C2.30419 4.88117 2.31889 4.89606 2.31889 4.89606C2.31889 4.89606 2.31889 4.89606 2.31889 4.91095C2.34829 5.00031 2.3924 5.05988 2.4659 5.03009C2.56881 5.00031 2.64231 4.92585 2.70111 4.83649C2.73052 4.80671 2.74522 4.77693 2.75992 4.74714L2.78932 4.70246C2.78932 4.68757 2.80402 4.68757 2.80402 4.68757V4.67268C2.95103 4.41951 3.11274 4.18124 3.28915 3.94296C3.53907 3.6749 3.59787 3.82382 3.62727 4.10678C3.64197 4.22591 3.64197 4.35994 3.67137 4.49397V4.53865C3.67137 4.53865 3.67137 4.53865 3.67137 4.55354C3.67137 4.61311 3.70078 4.67268 3.73018 4.71736C3.81838 4.80671 3.95069 4.71736 4.1124 4.50887C4.18591 4.41951 4.24471 4.31527 4.30351 4.21102C4.58283 3.70469 4.83275 3.46641 4.89155 3.51109C4.90625 3.52598 4.90625 3.61533 4.89155 3.70469C4.87685 3.91318 4.87685 4.21102 5.21497 4.28548H5.24437C5.39138 4.28548 5.78831 4.16634 6.40575 3.95785L6.44985 3.94296C8.37567 3.28771 12.3449 1.84316 17.4461 1.05388L17.549 1.03898C17.8725 0.994308 18.1959 0.949631 18.5193 0.904955C18.5193 0.904955 24.2527 0.100776 29.0452 1.27726C30.28 1.5751 30.7946 1.72403 30.8534 1.78359C30.8975 1.84316 30.677 1.85805 30.3094 1.87295C29.2804 1.9623 27.1193 2.05165 26.3402 3.13878Z"
        fill="#44221B" />
    <path
        d="M27.5157 3.43615C27.8538 3.34679 28.1331 3.25744 28.2654 3.27233C28.3242 3.27233 28.3536 3.30212 28.3536 3.34679C28.3242 3.42125 28.2801 3.49572 28.236 3.57018C28.1625 3.7191 28.0596 3.8978 27.942 4.1063C27.8244 4.31479 27.7068 4.55306 27.6039 4.79134C27.3099 5.46148 27.1187 6.23588 27.4275 6.83157C28.0743 8.15697 28.9711 14.784 27.7803 18.0752C27.7656 18.1198 27.4569 18.9687 27.1482 19.8325C27.1923 18.6858 27.2364 16.1094 27.0158 12.5055C26.9129 10.912 26.5307 9.34835 25.8839 7.87402H25.8692C25.0018 8.06762 24.1639 8.23143 23.37 8.38036L23.2965 8.39525C4.08242 12.1034 4.87627 7.82934 3.06805 8.57395C3.06805 8.57395 2.75933 8.20165 2.2742 13.4735C2.1566 14.8138 2.03899 16.4519 1.89198 18.5368C1.87728 18.6858 1.83318 18.7453 1.74497 18.7155C1.55386 18.3283 1.39215 17.9263 1.25984 17.5093C1.12753 17.2114 1.03933 16.8987 0.980523 16.5711C0.730607 15.0967 0.392486 12.3864 0.804112 10.2568C0.804112 10.2568 1.77437 4.89558 2.03899 4.76155C2.30361 4.62752 2.02429 5.98271 2.42121 5.75933C2.81814 5.53595 3.33267 4.32968 3.53848 4.37436C3.7443 4.41903 3.43558 5.53595 3.7737 5.46148C4.39114 5.32745 4.43524 4.40414 4.71456 4.35946C4.99387 4.31479 4.75866 5.65508 6.64037 4.50838C8.13987 3.59996 20.5768 -0.27201 27.4863 1.20232C27.4863 1.20232 29.5885 1.38102 30.8675 1.8129C30.9116 1.87247 30.6911 1.88736 30.3235 1.90225C29.2945 1.96182 27.3687 2.70643 26.3396 3.31701C25.7516 3.65953 26.7806 3.64464 27.5157 3.43615Z"
        fill="#4E2B1F" />
    <path
        d="M29.7213 1.96216C29.6772 1.94726 29.6184 1.93237 29.5743 1.91748C29.3685 1.84302 29.1479 1.79834 28.9274 1.75367C28.0895 1.58985 26.8987 1.45582 26.8987 1.45582C18.9455 0.0559557 6.49384 4.747 5.8764 5.00016C5.80289 5.02995 5.72939 5.05973 5.67059 5.07462C5.61178 5.08952 5.55298 5.10441 5.50888 5.1193C5.15605 5.17887 4.99434 5.02995 4.80323 4.747C4.55332 4.37469 4.40631 5.41714 3.87707 5.61074C3.34784 5.80434 3.52425 4.80656 3.46545 4.62786C3.40664 4.44915 2.7157 5.96816 2.39228 5.84902C2.06886 5.72988 2.31878 4.85124 2.05416 5.00016C1.78954 5.14909 0.833984 10.4656 0.833984 10.4656V10.4507C1.0104 8.84235 1.28971 7.24888 1.65724 5.6852C1.87775 4.83635 2.11296 4.62786 2.21587 4.5534C2.27467 4.50872 2.28937 4.89592 2.34818 5.20865V5.22355C2.34818 5.25333 2.34818 5.26822 2.36288 5.29801C2.36288 5.34268 2.37758 5.37247 2.39228 5.41715C2.39228 5.43204 2.39228 5.44693 2.40698 5.44693C2.40698 5.44693 2.40698 5.44693 2.40698 5.46182C2.50989 5.67031 2.6716 5.52139 2.77451 5.38736C2.80391 5.35758 2.81861 5.32779 2.83331 5.29801L2.86271 5.25333L2.87741 5.22355V5.20865C2.95092 5.02995 3.61246 3.51094 3.67126 4.64275C3.67126 4.77678 3.68596 4.9257 3.71536 5.05973C3.71536 5.05973 3.71536 5.05973 3.71536 5.07462C3.73006 5.13419 3.74477 5.19376 3.77417 5.23844C3.90648 5.43204 4.11229 5.05973 4.14169 5.02995C4.18579 4.9406 5.05315 3.13864 4.89144 4.24066C4.83263 4.62786 4.97964 4.77678 5.21486 4.80657H5.24426C5.28836 4.80657 5.34717 4.80657 5.39127 4.80657C5.45007 4.80657 5.49417 4.79167 5.55298 4.77678C5.8323 4.70232 6.11161 4.59807 6.37623 4.46404L6.40563 4.44915C6.87606 4.30023 11.992 2.58763 17.0344 1.39625L17.1226 1.38136C23.2676 0.204878 27.6338 1.05373 29.4861 1.57496C29.8977 1.6941 30.1917 1.78345 30.3534 1.84302C30.4416 1.8728 30.4857 1.8877 30.4857 1.8877C30.6915 1.97705 30.1476 2.0664 29.7213 1.96216Z"
        fill="#7C4C2B" />
    <path
        d="M2.98063 8.70801C2.98063 8.70801 2.53961 8.96118 2.3632 9.81003C2.18679 10.6589 2.11328 15.4393 2.11328 15.4393C2.11328 15.4393 2.58371 9.22923 2.98063 8.70801Z"
        fill="#7C4C2B" />
    <path
        d="M28.0758 3.51085C28.0464 3.57042 27.9434 3.57042 27.8993 3.65977C27.1202 4.32992 26.8262 4.50863 25.9882 5.1341C24.6798 6.11698 23.2392 6.92116 21.7103 7.51685C17.4029 9.19967 14.2422 9.64643 11.9047 9.43794C7.81789 9.06564 6.48011 7.12965 5.93618 5.61065L5.75977 5.25324C6.40661 6.77224 8.14131 8.66355 11.9489 8.99118C13.8894 9.15499 17.006 8.82736 21.7397 7.12965C23.0627 6.68289 24.327 6.04252 25.4737 5.22345C26.2234 4.70223 27.032 4.181 28.0758 3.51085C28.1199 3.51085 28.0758 3.45128 28.0758 3.51085Z"
        fill="#7C4C2B" />
    <path
        d="M30.3827 1.85815C30.1916 1.88793 29.9711 1.91772 29.7212 1.96239C28.8832 2.12621 28.06 2.39427 27.2808 2.76657C22.7236 5.08975 14.8586 8.35114 7.69922 5.31314C14.8439 7.97884 23.4145 4.52385 28.207 2.06664C28.4422 1.9475 28.6774 1.84325 28.9126 1.7539C29.1038 1.67944 29.2949 1.61987 29.5007 1.5752C29.927 1.69433 30.221 1.78369 30.3827 1.85815Z"
        fill="#7C4C2B" />
    <path
        d="M31.9716 2.15599C31.9716 2.15599 29.0461 2.08153 27.1203 3.06441C22.2984 5.55141 14.3893 8.66388 7.37695 5.194C14.845 8.18733 23.0187 4.94083 28.1199 2.3347C28.9726 1.93261 29.8988 1.64965 30.8249 1.51562C31.2218 1.70922 31.6041 1.91771 31.9716 2.15599Z"
        fill="#201A14" />
    <path
        d="M28.3532 3.36181C28.3238 3.43627 28.2797 3.51074 28.2356 3.5852C27.4418 4.27024 27.1477 4.44894 26.2804 5.1042C24.9279 6.11687 23.4578 6.93594 21.8848 7.54652C17.4745 9.25912 14.2256 9.73567 11.8294 9.52718C7.63964 9.15488 6.36066 7.05508 5.78732 5.50629L5.72852 5.28291C6.39006 6.83169 7.97776 8.79746 11.8735 9.13998C14.2697 9.34848 17.5186 8.88682 21.9289 7.15932C23.4872 6.54874 24.972 5.72967 26.3245 4.717C27.0742 4.1511 27.5153 3.89793 28.2797 3.27246C28.3238 3.28735 28.3532 3.31714 28.3532 3.36181Z"
        fill="#201A14" />
    <path
        d="M9.14062 5.31242C9.86097 5.44645 10.5813 5.53581 11.3017 5.56559C11.6692 5.58048 12.022 5.61027 12.3895 5.61027H12.9335C13.1099 5.61027 13.301 5.59537 13.4774 5.59537L14.0213 5.58048C14.1977 5.56559 14.3889 5.5507 14.5653 5.53581C14.9328 5.50602 15.2856 5.49113 15.6531 5.43156C16.0207 5.38688 16.3735 5.3571 16.741 5.29753L17.8142 5.11882C17.9906 5.08904 18.167 5.04436 18.3434 5.01458L18.8726 4.89544L19.4019 4.7763C19.5783 4.73163 19.7547 4.68695 19.9311 4.64227L20.9896 4.35932L22.0333 4.0168L22.5479 3.8381C22.7243 3.77853 22.886 3.70407 23.0624 3.6445L24.0768 3.24241L24.3267 3.13816L24.5766 3.01903L25.0764 2.79564L26.0761 2.33398L25.0911 2.81053L24.5913 3.04881L24.3414 3.16795L24.0915 3.27219L23.0771 3.68917C22.9007 3.74874 22.739 3.8381 22.5626 3.88277L22.048 4.06148L21.019 4.41889L19.9605 4.71673C19.7841 4.76141 19.6077 4.82098 19.4313 4.86566L18.902 4.98479L18.3728 5.10393C18.1964 5.14861 18.02 5.19329 17.8436 5.20818L16.7704 5.38688C16.4176 5.44645 16.0501 5.47624 15.6825 5.52091C15.315 5.56559 14.9622 5.58048 14.5947 5.61027C14.4183 5.62516 14.2271 5.64005 14.0507 5.64005L13.5068 5.65494C13.3304 5.65494 13.1393 5.66984 12.9629 5.66984L12.4189 5.65494C12.0514 5.65494 11.6839 5.62516 11.3311 5.61027C10.5813 5.56559 9.84627 5.46134 9.14062 5.31242Z"
        fill="#7C4C2B" />
    <path
        d="M26.2075 4.10645C24.6933 4.91062 23.1203 5.61056 21.5179 6.22114C19.9155 6.84661 18.269 7.33805 16.5931 7.72525C14.9172 8.08266 13.1972 8.29115 11.4772 8.12734C10.6246 8.05288 9.7719 7.84439 8.97805 7.50187C8.1842 7.15935 7.47856 6.63812 6.91992 5.98286C7.49326 6.63812 8.1989 7.14445 9.00745 7.47208C9.8013 7.79971 10.6393 8.0082 11.4919 8.06777C13.1972 8.23158 14.9172 8.0082 16.5931 7.65079C18.269 7.27848 19.9155 6.78704 21.5179 6.17646C22.3265 5.87862 23.1203 5.55099 23.8995 5.20847C24.6786 4.86595 25.4431 4.49364 26.2075 4.10645Z"
        fill="#7C4C2B" />
    <path
        d="M22.7675 2.39355C21.9001 2.70629 21.0033 2.97435 20.0919 3.18284C19.1951 3.40622 18.2837 3.59982 17.3722 3.76364C16.4608 3.92745 15.5493 4.09127 14.6231 4.2104C14.1674 4.26997 13.697 4.31465 13.2413 4.34443C13.006 4.35932 12.7708 4.37422 12.5503 4.35932C12.4327 4.35932 12.3151 4.34443 12.1975 4.32954C12.0799 4.32954 11.9623 4.29976 11.8594 4.24019C11.9623 4.28486 12.0799 4.31465 12.1975 4.31465C12.3151 4.32954 12.4327 4.32954 12.5503 4.32954C12.7855 4.32954 13.006 4.31465 13.2413 4.29976C13.697 4.26997 14.1674 4.2104 14.6231 4.15083C15.0789 4.09127 15.5346 4.0168 15.9903 3.94234C16.4461 3.86788 16.9018 3.79342 17.3575 3.70407C18.269 3.54025 19.1804 3.34665 20.0772 3.13816C20.9886 2.95946 21.8854 2.70629 22.7675 2.39355Z"
        fill="#7C4C2B" />
    <path
        d="M3.67188 6.44434C3.74538 6.63793 3.83359 6.81664 3.96589 6.98045C4.0835 7.14427 4.20111 7.30808 4.34812 7.44211C4.62743 7.72506 4.93615 7.97823 5.28898 8.18672C5.6271 8.39521 5.99462 8.58881 6.36214 8.73773C6.55325 8.81219 6.74437 8.87176 6.92078 8.94622L7.49411 9.12493L6.90608 8.9909C6.71496 8.93133 6.52385 8.87176 6.33274 8.7973L6.05342 8.67816L5.90641 8.6186L5.77411 8.55903L5.49479 8.4101L5.24487 8.26118C4.90675 8.05269 4.58333 7.78463 4.30401 7.48679C4.0247 7.18895 3.80418 6.83153 3.67188 6.44434Z"
        fill="#7C4C2B" />
    <path
        d="M3.93555 6.17676C3.99435 6.2959 4.08256 6.40014 4.17076 6.50439C4.25897 6.60863 4.34717 6.69798 4.45008 6.77245C4.65589 6.93626 4.87641 7.08518 5.11162 7.18943C5.34683 7.30856 5.59675 7.39792 5.84667 7.47238C5.97897 7.51705 6.09658 7.53195 6.22889 7.57662L6.62582 7.65109C6.49351 7.63619 6.3612 7.6213 6.22889 7.60641C6.09658 7.59152 5.96427 7.56173 5.83197 7.53195C5.56735 7.47238 5.31743 7.36813 5.08222 7.26389C4.847 7.14475 4.61179 6.99583 4.42068 6.81712C4.21486 6.63842 4.05315 6.42993 3.93555 6.17676Z"
        fill="#7C4C2B" />
    <path
        d="M2.46535 6.6084C2.45064 6.9807 2.42124 7.3679 2.36244 7.7402C2.30364 8.11251 2.21543 8.48481 2.11252 8.85712C2.00962 9.22942 1.81851 9.55705 1.7303 9.92936C1.62739 10.2868 1.55389 10.6591 1.49509 11.0314C1.37748 11.776 1.31867 12.5355 1.28927 13.295C1.27457 13.6673 1.27457 14.0545 1.30397 14.4268C1.31867 14.7991 1.37748 15.1863 1.48038 15.5437C1.34808 15.1863 1.27457 14.814 1.25987 14.4268C1.24517 14.2332 1.23047 14.0396 1.23047 13.8609C1.23047 13.6822 1.23047 13.4737 1.23047 13.295C1.24517 12.5355 1.33337 11.776 1.46568 11.0314C1.52449 10.6591 1.61269 10.2868 1.7156 9.91446C1.81851 9.54216 1.98022 9.19964 2.06842 8.84223C2.24483 8.09762 2.39184 7.35301 2.46535 6.6084Z"
        fill="#7C4C2B" />
    <path
        d="M18.666 8.96108C19.4599 8.69302 20.2831 8.45474 21.0917 8.24625C21.9002 8.03776 22.7382 7.85906 23.5761 7.72503C24.0024 7.65056 24.4141 7.62078 24.811 7.51653C25.2079 7.41229 25.5901 7.23358 25.9283 6.99531C26.2664 6.75703 26.5457 6.4443 26.7809 6.08688C26.8985 5.90818 27.0014 5.71458 27.0896 5.53587C27.1778 5.34227 27.2513 5.14868 27.3543 4.95508C27.2808 5.14868 27.2219 5.35717 27.1484 5.56566C27.0749 5.77415 26.9867 5.96775 26.8691 6.14645C26.6633 6.53365 26.3693 6.86128 26.0165 7.11445C25.6637 7.36761 25.2667 7.54632 24.8404 7.65056C24.6346 7.69524 24.4141 7.73992 24.2083 7.75481C24.0024 7.78459 23.7819 7.79949 23.5761 7.82927C22.7382 7.94841 21.9149 8.11222 21.0917 8.32071C20.2684 8.5292 19.4746 8.7228 18.666 8.96108Z"
        fill="#7C4C2B" />
    <path
        d="M26.502 7.56152C26.8401 8.14232 27.1194 8.7529 27.3546 9.37837C27.5898 10.0038 27.7221 10.674 27.7368 11.359C27.7515 12.0292 27.7368 12.6993 27.7074 13.3695C27.678 14.0396 27.6192 14.7098 27.5457 15.3799C27.5898 14.7098 27.6339 14.0396 27.6486 13.3695C27.6633 12.6993 27.678 12.0292 27.6633 11.359C27.6486 10.6889 27.5163 10.0336 27.2958 9.39326C27.09 8.76779 26.8107 8.15721 26.502 7.56152Z"
        fill="#7C4C2B" />
    <defs>
        <radialGradient id="paint0_radial_4988_1150" cx="0" cy="0" r="1"
            gradientTransform="matrix(12.7809 -0.37747 -0.372622 -12.9472 14.607 18.2748)"
            gradientUnits="userSpaceOnUse">
            <stop stop-color="#F9C387" />
            <stop offset="0.56" stop-color="#F9C086" />
            <stop offset="0.94" stop-color="#F8B782" />
            <stop offset="1" stop-color="#F8B581" />
        </radialGradient>
        <radialGradient id="paint1_radial_4988_1150" cx="0" cy="0" r="1"
            gradientTransform="matrix(1.74577 -0.0515593 -0.0508971 -1.76848 20.8794 16.8003)"
            gradientUnits="userSpaceOnUse">
            <stop stop-color="#333333" />
            <stop offset="0.46" stop-color="#313131" />
            <stop offset="0.71" stop-color="#292929" />
            <stop offset="0.9" stop-color="#1B1B1B" />
            <stop offset="1" stop-color="#111111" />
        </radialGradient>
        <radialGradient id="paint2_radial_4988_1150" cx="0" cy="0" r="1"
            gradientTransform="matrix(-1.745 0.0530311 -0.05235 -1.7677 8.22061 17.2956)"
            gradientUnits="userSpaceOnUse">
            <stop stop-color="#333333" />
            <stop offset="0.46" stop-color="#313131" />
            <stop offset="0.71" stop-color="#292929" />
            <stop offset="0.9" stop-color="#1B1B1B" />
            <stop offset="1" stop-color="#111111" />
        </radialGradient>
    </defs>
</svg>