<svg width="32" height="32" viewBox="0 0 32 32" fill="none" xmlns="http://www.w3.org/2000/svg">
    <path fill-rule="evenodd" clip-rule="evenodd"
        d="M4.48002 0C12.16 0 19.84 0 27.52 0C29.8294 0.656175 31.3049 2.1495 31.9466 4.48C32.0178 6.96888 32.0178 9.45778 31.9466 11.9467C31.1897 10.9725 30.2119 10.3324 29.0133 10.0267C28.749 9.95583 28.4645 9.92027 28.16 9.92C27.7366 9.89805 27.3456 9.96915 26.9866 10.1333C25.4558 10.6757 24.4246 11.7068 23.8933 13.2267C23.8091 13.345 23.7557 13.4871 23.7333 13.6533C23.6447 17.938 23.6624 22.2047 23.7867 26.4533C24.1611 27.5543 24.9077 27.9277 26.0266 27.5733C26.3288 27.4133 26.56 27.1822 26.72 26.88C26.8604 22.6196 26.9315 18.353 26.9333 14.08C27.245 13.2574 27.8317 12.9552 28.6933 13.1733C29.0919 13.31 29.3586 13.5766 29.4933 13.9733C29.5645 18.1333 29.5645 22.2933 29.4933 26.4533C29.1167 28.3409 27.9967 29.5142 26.1333 29.9733C25.2318 30.0162 24.3429 29.9451 23.4667 29.76C22.2658 29.3237 21.4303 28.5059 20.96 27.3067C20.8449 27.0333 20.7916 26.7489 20.8 26.4533C20.8178 22.2221 20.8 17.9909 20.7467 13.76C20.7243 13.5938 20.6709 13.4516 20.5867 13.3333C19.99 11.5634 18.781 10.4612 16.96 10.0267C16.6598 9.95576 16.3398 9.92021 16 9.92C15.5417 9.89635 15.115 9.96747 14.72 10.1333C13.2044 10.6159 12.191 11.6115 11.68 13.12C11.5408 17.5248 11.4697 21.9338 11.4667 26.3467C11.1157 28.1014 10.1024 29.2748 8.42668 29.8667C7.53783 30.0089 6.64887 30.0089 5.76002 29.8667C4.31341 29.4513 3.35341 28.5268 2.88002 27.0933C2.83064 26.7753 2.79512 26.4553 2.77336 26.1333C2.77336 22.0445 2.77336 17.9555 2.77336 13.8667C3.11863 13.2323 3.65197 13.0013 4.37335 13.1733C4.86093 13.3411 5.16311 13.6789 5.28002 14.1867C5.28183 18.4596 5.35298 22.7263 5.49335 26.9867C6.20514 27.8315 7.00514 27.9381 7.89335 27.3067C8.13591 27.0706 8.29591 26.7862 8.37335 26.4533C8.44449 22.2578 8.44449 18.0622 8.37335 13.8667C7.59991 10.8198 5.6621 9.59315 2.56002 10.1867C1.46733 10.568 0.631812 11.2613 0.0533599 12.2667C-0.0177866 9.67111 -0.0177866 7.07555 0.0533599 4.48C0.695065 2.1495 2.17058 0.656175 4.48002 0ZM5.12002 8.10667C4.84621 8.13029 4.59725 8.20141 4.37335 8.32C2.01293 8.25311 0.892932 7.04422 1.01336 4.69333C1.74328 2.57546 3.18327 1.88212 5.33335 2.61333C6.8413 3.58149 7.28567 4.91483 6.66668 6.61333C6.3005 7.28204 5.78498 7.77982 5.12002 8.10667ZM28.8 8.10667C28.2783 8.25633 27.7449 8.32744 27.2 8.32C24.8582 7.51069 24.1649 5.94624 25.12 3.62667C26.4003 2.19257 27.8759 1.96145 29.5466 2.93333C30.5997 3.88478 30.9019 5.04034 30.4533 6.4C30.0927 7.16932 29.5415 7.73821 28.8 8.10667Z"
        fill="#2C2665" />
    <path fill-rule="evenodd" clip-rule="evenodd"
        d="M14.9333 2.23993C17.5601 2.0405 18.8578 3.24938 18.8266 5.8666C18.1515 7.95548 16.747 8.71993 14.6133 8.15993C12.9403 7.24827 12.3893 5.87938 12.9599 4.05326C13.4069 3.21696 14.0646 2.61251 14.9333 2.23993Z"
        fill="#F8AE40" />
    <path fill-rule="evenodd" clip-rule="evenodd"
        d="M20.9066 32.0021C17.7066 32.0021 14.5066 32.0021 11.3066 32.0021C12.7159 30.9636 13.7114 29.6124 14.2933 27.9487C14.4707 27.742 14.5417 27.4931 14.5066 27.2021C14.5919 22.7948 14.6452 18.386 14.6666 13.9754C15.2243 13.116 15.9887 12.8849 16.96 13.2821C17.2764 13.5061 17.472 13.8084 17.5466 14.1888C17.5822 18.3488 17.6178 22.5087 17.6533 26.6687C18.0067 28.9065 19.0912 30.6842 20.9066 32.0021Z"
        fill="#2F2968" />
</svg>