<svg width="32" height="32" viewBox="0 0 32 32" fill="none" xmlns="http://www.w3.org/2000/svg">
    <g clip-path="url(#clip0_5305_4263)">
        <path fill-rule="evenodd" clip-rule="evenodd"
            d="M-0.0712891 -0.0712891C10.5954 -0.0712891 21.262 -0.0712891 31.9287 -0.0712891C31.9287 10.5954 31.9287 21.262 31.9287 31.9287C21.262 31.9287 10.5954 31.9287 -0.0712891 31.9287C-0.0712891 21.262 -0.0712891 10.5954 -0.0712891 -0.0712891Z"
            fill="#010101" />
        <path fill-rule="evenodd" clip-rule="evenodd"
            d="M17.4226 30.9336C15.9506 30.9421 14.481 30.8946 13.0137 30.7913C6.27378 29.1703 2.22045 24.951 0.85368 18.1336C0.199273 11.7885 2.45112 6.78702 7.60924 3.12911C14.9658 -0.879951 21.5792 0.0918994 27.4492 6.04466C31.6835 11.5273 32.2049 17.3584 29.0137 23.538C26.3638 27.8863 22.5002 30.3514 17.4226 30.9336Z"
            fill="#2AB4A2" />
        <path fill-rule="evenodd" clip-rule="evenodd"
            d="M18.1336 28.658C16.7627 28.7803 15.3879 28.8277 14.0092 28.8002C9.07661 27.8765 5.63958 25.0794 3.69805 20.4091C1.86304 13.9619 3.64082 8.7708 9.03139 4.83578C13.352 2.56971 17.7135 2.4749 22.1158 4.55133C26.9842 7.57981 29.1887 11.965 28.7292 17.7069C27.9013 22.5147 25.2702 25.9043 20.8358 27.8758C19.9486 28.204 19.048 28.4647 18.1336 28.658Z"
            fill="#030303" />
        <path fill-rule="evenodd" clip-rule="evenodd"
            d="M24.8183 7.4668C24.9837 11.0456 25.0074 14.6486 24.8894 18.2757C24.7588 18.5425 24.5455 18.6847 24.2494 18.7024C24.2384 18.5246 24.1436 18.4061 23.9649 18.3468C18.4891 18.323 13.0372 18.2519 7.60938 18.1335C10.2642 18.1335 12.919 18.1335 15.5738 18.1335C15.5738 17.9439 15.5738 17.7542 15.5738 17.5646C12.8516 17.1413 11.3819 15.5533 11.1649 12.8001C11.3345 10.4964 12.5197 8.9794 14.7205 8.24902C15.0011 8.17855 15.2855 8.15485 15.5738 8.17791C15.5738 7.98828 15.5738 7.79864 15.5738 7.60902C15.6596 7.84933 15.8018 8.06267 16.0005 8.24902C15.6584 8.47865 15.6584 8.57346 16.0005 8.53346C16.1074 8.43806 16.1549 8.31955 16.1427 8.17791C16.1901 8.17791 16.2376 8.17791 16.2849 8.17791C18.9554 8.56384 20.3777 10.1046 20.5516 12.8001C20.4956 15.1314 19.3578 16.6484 17.1383 17.3512C16.8097 17.4219 16.4779 17.4455 16.1427 17.4224C16.1427 17.6594 16.1427 17.8964 16.1427 18.1335C18.8449 18.1335 21.5472 18.1335 24.2494 18.1335C24.2967 18.1335 24.3442 18.1335 24.3916 18.1335C24.5338 18.1335 24.676 18.1335 24.8183 18.1335C24.8183 14.5779 24.8183 11.0224 24.8183 7.4668Z"
            fill="#DEE8E7" />
        <path fill-rule="evenodd" clip-rule="evenodd"
            d="M24.8175 7.46684C24.8175 11.0224 24.8175 14.578 24.8175 18.1335C24.6752 18.1335 24.533 18.1335 24.3908 18.1335C24.3908 17.375 24.3908 16.6164 24.3908 15.858C23.6797 15.858 22.9686 15.858 22.2575 15.858C22.1212 15.7935 22.0026 15.6988 21.9019 15.5735C21.807 13.772 21.807 11.9706 21.9019 10.1691C21.9551 10.0388 22.0262 9.92023 22.1152 9.81351C22.8723 9.74248 23.6308 9.71879 24.3908 9.7424C24.4365 9.00361 24.3889 8.2925 24.2486 7.60906C21.5711 7.46727 18.8689 7.41987 16.1419 7.46684C16.1419 7.70388 16.1419 7.94091 16.1419 8.17795C16.1541 8.31959 16.1066 8.43811 15.9997 8.53351C15.6576 8.5735 15.6576 8.4787 15.9997 8.24906C15.801 8.06271 15.6588 7.84938 15.573 7.60906C12.9182 7.60906 10.2634 7.60906 7.60858 7.60906C7.60858 8.32018 7.60858 9.03129 7.60858 9.7424C8.32127 9.7188 9.03238 9.7425 9.74191 9.81351C9.83091 9.92023 9.90202 10.0388 9.95524 10.1691C10.0501 11.9706 10.0501 13.772 9.95524 15.5735C9.85451 15.6988 9.73599 15.7935 9.59969 15.858C9.02303 15.904 8.45414 15.8567 7.89302 15.7157C7.86325 15.6324 7.81585 15.5613 7.7508 15.5024C8.29925 15.4772 8.82074 15.4061 9.31524 15.2891C9.31524 13.6298 9.31524 11.9706 9.31524 10.3113C8.74635 10.3113 8.17746 10.3113 7.60858 10.3113C7.54475 12.0533 7.40252 13.8074 7.18191 15.5735C7.38176 16.4371 7.52398 17.2904 7.60858 18.1335C13.0364 18.252 18.4883 18.3231 23.9641 18.3468C24.1428 18.4061 24.2376 18.5246 24.2486 18.7024C18.6069 18.7261 12.9654 18.7024 7.32413 18.6313C7.20562 18.5128 7.08709 18.3942 6.96858 18.2757C6.87376 14.6728 6.87376 11.0698 6.96858 7.46684C7.03969 7.20611 7.20562 7.04018 7.46635 6.96906C13.1078 6.87424 18.7493 6.87424 24.3908 6.96906C24.6647 7.02914 24.8069 7.19507 24.8175 7.46684Z"
            fill="#DBE6E5" />
        <path fill-rule="evenodd" clip-rule="evenodd"
            d="M22.2578 15.8579C22.9689 15.8579 23.68 15.8579 24.3911 15.8579C24.3911 16.6164 24.3911 17.375 24.3911 18.1335C24.3438 18.1335 24.2963 18.1335 24.2489 18.1335C24.2489 17.4224 24.2489 16.7112 24.2489 16.0001C23.5573 16.0455 22.8935 15.9981 22.2578 15.8579Z"
            fill="#7B8080" />
        <path fill-rule="evenodd" clip-rule="evenodd"
            d="M7.60928 10.311C7.60928 11.9703 7.60928 13.6295 7.60928 15.2888C8.17817 15.2888 8.74706 15.2888 9.31595 15.2888C8.82144 15.4059 8.29996 15.477 7.75151 15.5021C7.81656 15.561 7.86396 15.6321 7.89373 15.7155C8.45485 15.8564 9.02374 15.9038 9.6004 15.8577C8.96466 15.9979 8.30095 16.0453 7.60928 15.9999C7.60928 16.711 7.60928 17.4221 7.60928 18.1333C7.52469 17.2902 7.38247 16.4368 7.18262 15.5733C7.40323 13.8071 7.54545 12.053 7.60928 10.311Z"
            fill="#B0B9B8" />
        <path fill-rule="evenodd" clip-rule="evenodd"
            d="M22.542 10.4532C23.1299 10.3132 23.7463 10.2658 24.3909 10.311C24.3909 12.0177 24.3909 13.7243 24.3909 15.431C23.7463 15.4762 23.1299 15.4289 22.542 15.2888C23.1109 15.2888 23.6798 15.2888 24.2487 15.2888C24.2487 13.6769 24.2487 12.0651 24.2487 10.4532C23.6798 10.4532 23.1109 10.4532 22.542 10.4532Z"
            fill="#676D6D" />
        <path fill-rule="evenodd" clip-rule="evenodd"
            d="M22.542 10.4531C23.1109 10.4531 23.6798 10.4531 24.2487 10.4531C24.2487 12.065 24.2487 13.6768 24.2487 15.2887C23.6798 15.2887 23.1109 15.2887 22.542 15.2887C22.542 13.6768 22.542 12.065 22.542 10.4531Z"
            fill="black" />
        <path fill-rule="evenodd" clip-rule="evenodd"
            d="M7.60938 10.311C8.17826 10.311 8.74715 10.311 9.31604 10.311C9.31604 11.9703 9.31604 13.6295 9.31604 15.2888C8.74715 15.2888 8.17826 15.2888 7.60938 15.2888C7.60938 13.6295 7.60938 11.9703 7.60938 10.311Z"
            fill="#020203" />
        <path fill-rule="evenodd" clip-rule="evenodd"
            d="M15.1463 8.74671C18.4207 8.70982 20.0087 10.3217 19.9107 13.5823C19.1429 16.1835 17.4126 17.2502 14.7196 16.7823C12.4651 15.8499 11.5407 14.1669 11.9463 11.7334C12.4947 10.1652 13.5614 9.16964 15.1463 8.74671Z"
            fill="#050505" />
        <path fill-rule="evenodd" clip-rule="evenodd"
            d="M14.4356 10.4531C15.607 11.0868 16.7922 11.7268 17.9911 12.3731C18.56 12.705 18.56 13.0368 17.9911 13.3687C16.8954 13.9637 15.8052 14.5562 14.72 15.1465C14.586 15.1311 14.4676 15.0837 14.3644 15.0042C14.2495 13.4763 14.2731 11.9593 14.4356 10.4531Z"
            fill="#33A797" />
        <path fill-rule="evenodd" clip-rule="evenodd"
            d="M15.0048 11.4487C15.8072 11.8501 16.5657 12.3241 17.2804 12.871C16.5929 13.3334 15.8817 13.7601 15.147 14.151C15.0054 13.2552 14.9579 12.3544 15.0048 11.4487Z"
            fill="#060706" />
        <path fill-rule="evenodd" clip-rule="evenodd"
            d="M24.2492 7.60889C24.3896 8.29232 24.4371 9.00343 24.3915 9.74222C23.6314 9.71861 22.873 9.74231 22.1159 9.81333C22.0269 9.92005 21.9558 10.0386 21.9026 10.1689C21.8077 11.9704 21.8077 13.7718 21.9026 15.5733C22.0033 15.6986 22.1219 15.7933 22.2581 15.8578C22.8939 15.998 23.5576 16.0454 24.2492 16C24.2492 16.7111 24.2492 17.4222 24.2492 18.1333C21.547 18.1333 18.8448 18.1333 16.1426 18.1333C16.1426 17.8962 16.1426 17.6593 16.1426 17.4222C16.4778 17.4454 16.8096 17.4218 17.1381 17.3511C19.3577 16.6482 20.4954 15.1313 20.5515 12.8C20.3775 10.1044 18.9553 8.56371 16.2848 8.17778C16.2848 7.98815 16.2848 7.79851 16.2848 7.60889C18.9397 7.60889 21.5944 7.60889 24.2492 7.60889Z"
            fill="#040405" />
        <path fill-rule="evenodd" clip-rule="evenodd"
            d="M15.5738 7.60889C15.5738 7.79851 15.5738 7.98815 15.5738 8.17778C15.2855 8.15472 15.0011 8.17842 14.7205 8.24889C12.5197 8.97927 11.3345 10.4963 11.1649 12.8C11.3819 15.5531 12.8516 17.1412 15.5738 17.5644C15.5738 17.754 15.5738 17.9437 15.5738 18.1333C12.919 18.1333 10.2642 18.1333 7.60938 18.1333C7.60938 17.4222 7.60938 16.7111 7.60938 16C8.30104 16.0454 8.96475 15.998 9.60049 15.8578C9.73679 15.7933 9.85531 15.6986 9.95604 15.5733C10.0509 13.7718 10.0509 11.9704 9.95604 10.1689C9.90282 10.0386 9.83171 9.92005 9.74271 9.81333C9.03318 9.74232 8.32206 9.71863 7.60938 9.74222C7.60938 9.03111 7.60938 8.32 7.60938 7.60889C10.2642 7.60889 12.919 7.60889 15.5738 7.60889Z"
            fill="#020202" />
        <path fill-rule="evenodd" clip-rule="evenodd"
            d="M24.2492 7.60898C21.5944 7.60898 18.9397 7.60898 16.2848 7.60898C16.2848 7.7986 16.2848 7.98824 16.2848 8.17787C16.2374 8.17787 16.1899 8.17787 16.1426 8.17787C16.1426 7.94082 16.1426 7.7038 16.1426 7.46675C18.8695 7.41978 21.5718 7.46718 24.2492 7.60898Z"
            fill="#9EA8A7" />
        <path fill-rule="evenodd" clip-rule="evenodd"
            d="M17.9908 23.8223C17.896 18.323 17.8012 18.323 17.7064 23.8223C17.565 22.4259 17.5176 21.0036 17.5642 19.5557C17.7537 19.5557 17.9435 19.5557 18.133 19.5557C18.1795 21.0036 18.1322 22.4259 17.9908 23.8223Z"
            fill="#ADB4B4" />
        <path fill-rule="evenodd" clip-rule="evenodd"
            d="M10.4534 23.8224C10.5004 22.7752 10.453 21.7322 10.3112 20.6935C10.2249 20.7112 10.1775 20.7585 10.1689 20.8358C9.88827 21.3971 9.60382 21.966 9.31559 22.5424C9.18215 22.6922 9.01622 22.7871 8.81782 22.8269C8.35705 22.1435 7.93038 21.4324 7.53782 20.6935C7.46675 21.7355 7.44305 22.7784 7.46671 23.8224C7.32448 23.8224 7.18226 23.8224 7.04004 23.8224C7.04004 22.4476 7.04004 21.0728 7.04004 19.698C7.18226 19.698 7.32448 19.698 7.46671 19.698C7.9231 20.5142 8.42087 21.32 8.96004 22.1158C9.41242 21.3052 9.86279 20.4994 10.3112 19.698C10.4802 19.5659 10.6699 19.5185 10.88 19.5558C10.88 20.978 10.88 22.4002 10.88 23.8224C10.7378 23.8224 10.5956 23.8224 10.4534 23.8224Z"
            fill="#35A797" />
        <path fill-rule="evenodd" clip-rule="evenodd"
            d="M17.9915 23.8222C17.8966 23.8222 17.8019 23.8222 17.707 23.8222C17.8019 18.3229 17.8966 18.3229 17.9915 23.8222Z"
            fill="#F2FBFA" />
        <path fill-rule="evenodd" clip-rule="evenodd"
            d="M7.46705 19.6979C7.32483 19.6979 7.18261 19.6979 7.04038 19.6979C7.04038 21.0728 7.04038 22.4475 7.04038 23.8224C6.89902 22.4259 6.8516 21.0037 6.89816 19.5557C7.12558 19.5176 7.31522 19.5651 7.46705 19.6979Z"
            fill="#286B61" />
        <path fill-rule="evenodd" clip-rule="evenodd"
            d="M10.1689 20.8356C10.1775 20.7584 10.2249 20.711 10.3112 20.6934C10.453 21.732 10.5004 22.7751 10.4534 23.8222C10.3586 22.8267 10.2638 21.8311 10.1689 20.8356Z"
            fill="#2F6661" />
        <path fill-rule="evenodd" clip-rule="evenodd"
            d="M16.1419 19.6978C16.9583 19.9072 17.2665 20.4288 17.0664 21.2622C16.6174 21.9484 15.9774 22.2329 15.1464 22.1155C15.1464 22.6844 15.1464 23.2533 15.1464 23.8222C15.0042 23.8222 14.8619 23.8222 14.7197 23.8222C14.7197 22.4473 14.7197 21.0726 14.7197 19.6978C15.1938 19.6978 15.6679 19.6978 16.1419 19.6978Z"
            fill="#E5EEED" />
        <path fill-rule="evenodd" clip-rule="evenodd"
            d="M15.1465 20.1243C15.4817 20.1012 15.8135 20.1248 16.142 20.1954C16.638 20.544 16.6853 20.9469 16.2843 21.4043C15.9168 21.5313 15.5375 21.5787 15.1465 21.5466C15.1465 21.0725 15.1465 20.5984 15.1465 20.1243Z"
            fill="#060707" />
        <path fill-rule="evenodd" clip-rule="evenodd"
            d="M19.5555 20.6934C20.1267 20.6081 20.6245 20.7503 21.0489 21.1201C21.1176 20.9853 21.1412 20.8431 21.12 20.6934C21.2622 20.6934 21.4044 20.6934 21.5467 20.6934C21.5467 21.7363 21.5467 22.7794 21.5467 23.8223C21.3157 23.8422 21.1499 23.7474 21.0489 23.5379C20.2054 24.1467 19.4467 24.052 18.7733 23.2534C18.2873 22.1346 18.5482 21.2812 19.5555 20.6934Z"
            fill="#DCE4E4" />
        <path fill-rule="evenodd" clip-rule="evenodd"
            d="M19.5552 21.2624C21.0885 21.224 21.4677 21.864 20.693 23.1824C19.7841 23.5812 19.2152 23.2967 18.9863 22.329C19.0576 21.8955 19.2472 21.54 19.5552 21.2624Z"
            fill="#060708" />
        <path fill-rule="evenodd" clip-rule="evenodd"
            d="M24.3908 20.6935C24.601 20.6562 24.7906 20.7036 24.9597 20.8357C24.4308 21.8935 23.9803 22.9839 23.6086 24.1068C23.4955 24.4787 23.2822 24.7631 22.9686 24.9601C22.8737 24.9128 22.779 24.8653 22.6841 24.8179C22.914 24.4382 23.1035 24.0351 23.253 23.609C22.8933 22.7237 22.514 21.8466 22.1152 20.9779C22.3048 20.7883 22.4945 20.7883 22.6841 20.9779C22.9448 21.5942 23.2057 22.2105 23.4663 22.8268C23.8521 22.1501 24.1602 21.439 24.3908 20.6935Z"
            fill="#DFE7E6" />
        <path fill-rule="evenodd" clip-rule="evenodd"
            d="M16.1423 19.6976C15.6682 19.6976 15.1941 19.6976 14.72 19.6976C14.72 21.0725 14.72 22.4472 14.72 23.8221C14.5787 22.4256 14.5313 21.0034 14.5778 19.5554C15.1284 19.5106 15.6499 19.558 16.1423 19.6976Z"
            fill="#7C7C7D" />
        <path fill-rule="evenodd" clip-rule="evenodd"
            d="M11.3066 20.6935C11.4963 20.6935 11.6859 20.6935 11.8755 20.6935C12.1053 21.4374 12.4134 22.1485 12.8 22.8268C13.101 22.1775 13.3617 21.5139 13.5822 20.8357C13.7513 20.7036 13.9409 20.6562 14.1511 20.6935C13.5518 22.0827 13.0303 23.5049 12.5866 24.9601C12.397 24.9601 12.2074 24.9601 12.0178 24.9601C12.1573 24.4898 12.2995 24.0158 12.4444 23.5379C12.0602 22.5816 11.681 21.6335 11.3066 20.6935Z"
            fill="#35A492" />
        <path fill-rule="evenodd" clip-rule="evenodd"
            d="M18.1332 28.6577C17.9755 28.7701 17.7859 28.8412 17.5643 28.871C16.354 28.9881 15.1688 28.9645 14.0088 28.7999C15.3875 28.8274 16.7624 28.78 18.1332 28.6577Z"
            fill="#338479" />
        <path fill-rule="evenodd" clip-rule="evenodd"
            d="M13.0137 30.791C14.481 30.8943 15.9506 30.9418 17.4226 30.9332C16.8794 31.028 16.3105 31.0753 15.7159 31.0755C14.7822 31.0952 13.8814 31.0004 13.0137 30.791Z"
            fill="#378579" />
    </g>
    <defs>
        <clipPath id="clip0_5305_4263">
            <rect width="32" height="32" fill="white" />
        </clipPath>
    </defs>
</svg>