<svg width="32" height="32" viewBox="0 0 32 32" fill="none" xmlns="http://www.w3.org/2000/svg">
    <path
        d="M16 32C24.8366 32 32 24.8366 32 16C32 7.16345 24.8366 0 16 0C7.16345 0 0 7.16345 0 16C0 24.8366 7.16345 32 16 32Z"
        fill="#265DF5" />
    <path
        d="M20.8115 21.9268L20.7758 23.5486L20.6723 28.2312V28.412C12.7598 21.5642 11.4118 19.894 11.1782 19.3863L11.1701 19.3691C11.142 19.2735 11.1353 19.1729 11.1506 19.0744C11.1561 19.0379 11.1639 19.0018 11.1735 18.9662C11.1817 18.9374 11.1897 18.9098 11.2 18.8799C11.2853 18.6559 11.4062 18.4472 11.558 18.2617C11.6668 18.1213 11.7852 17.9886 11.9126 17.8646C12.1848 17.5954 12.4764 17.3465 12.7851 17.1199C12.9382 17.0048 13.0982 16.8897 13.2674 16.7746C13.5943 16.5512 13.9477 16.328 14.3137 16.1104C17.1569 18.7625 20.7655 21.8842 20.8115 21.9268Z"
        fill="url(#paint0_linear_5458_62)" />
    <path
        d="M20.9163 6.54492L20.8806 8.17256L20.8623 8.9783L20.8254 10.5979L20.807 11.4105L20.7713 13.0312C20.7149 13.0543 17.1063 14.454 14.3252 16.1081C13.9592 16.3257 13.607 16.5489 13.2789 16.7723C13.1109 16.8874 12.9497 17.0025 12.7966 17.1176C12.4884 17.3448 12.1969 17.5937 11.9241 17.8623C11.7971 17.9865 11.6787 18.1192 11.5695 18.2594C11.3186 18.5794 11.1678 18.8937 11.146 19.1895L11.1759 17.837V17.8278L11.1817 17.6183V17.5423L11.2058 16.6894L11.2518 14.9984L11.2737 14.172L11.3198 12.496C11.8918 10.1501 19.9713 6.91671 20.9163 6.54492Z"
        fill="white" />
    <path
        d="M13.4674 8.33823C14.7789 8.33823 15.8421 7.27504 15.8421 5.96354C15.8421 4.65205 14.7789 3.58887 13.4674 3.58887C12.1559 3.58887 11.0928 4.65205 11.0928 5.96354C11.0928 7.27504 12.1559 8.33823 13.4674 8.33823Z"
        fill="white" />
    <defs>
        <linearGradient id="paint0_linear_5458_62" x1="19.1758" y1="24.3832" x2="9.79115"
            y2="13.5573" gradientUnits="userSpaceOnUse">
            <stop stop-color="white" />
            <stop offset="1" stop-color="#265DF5" />
        </linearGradient>
    </defs>
</svg>