<svg width="32" height="32" viewBox="0 0 32 32" fill="none" xmlns="http://www.w3.org/2000/svg">
    <g clip-path="url(#clip0_5231_695)">
        <path fill-rule="evenodd" clip-rule="evenodd"
            d="M-0.0712891 -0.0712891C10.5954 -0.0712891 21.262 -0.0712891 31.9287 -0.0712891C31.9287 10.5954 31.9287 21.262 31.9287 31.9287C21.262 31.9287 10.5954 31.9287 -0.0712891 31.9287C-0.0712891 21.262 -0.0712891 10.5954 -0.0712891 -0.0712891Z"
            fill="black" />
        <path fill-rule="evenodd" clip-rule="evenodd"
            d="M11.8756 6.61375C14.774 6.5512 17.6658 6.62231 20.5512 6.82708C24.7062 8.00016 27.1004 10.7261 27.7334 15.0049C27.8045 18.4179 27.8283 21.8312 27.8045 25.2449C22.4947 25.2686 17.1851 25.2449 11.8756 25.1737C7.88901 24.1739 5.35271 21.685 4.26676 17.7071C3.70149 12.8867 5.57409 9.40229 9.88453 7.25375C10.5607 7.02026 11.2244 6.80693 11.8756 6.61375Z"
            fill="#7647FC" />
        <path fill-rule="evenodd" clip-rule="evenodd"
            d="M18.7024 11.164C17.9439 11.164 17.1853 11.164 16.4269 11.164C16.4269 11.7329 16.4269 12.3018 16.4269 12.8707C16.2868 12.2827 16.2394 11.6664 16.2846 11.0218C17.1178 10.976 17.9237 11.0234 18.7024 11.164Z"
            fill="#A88AF5" />
        <path fill-rule="evenodd" clip-rule="evenodd"
            d="M12.3021 11.1641C13.3451 11.1641 14.3881 11.1641 15.431 11.1641C15.6173 12.414 15.3566 13.5518 14.6488 14.5774C14.2692 14.9563 13.8188 15.2171 13.2977 15.3596C11.7814 15.4307 10.2644 15.4545 8.74658 15.4307C9.10592 13.3175 10.2911 11.8953 12.3021 11.1641Z"
            fill="#F6F1EC" />
        <path fill-rule="evenodd" clip-rule="evenodd"
            d="M18.7023 11.1641C21.2073 11.5138 22.6295 12.936 22.969 15.4307C21.2989 15.4927 19.6396 15.4216 17.9912 15.2174C17.0579 14.7 16.5364 13.9178 16.4268 12.8707C16.4268 12.3018 16.4268 11.733 16.4268 11.1641C17.1852 11.1641 17.9438 11.1641 18.7023 11.1641Z"
            fill="#F6F1EC" />
        <path fill-rule="evenodd" clip-rule="evenodd"
            d="M15.2888 18.7022C15.2888 19.366 15.2888 20.0296 15.2888 20.6933C14.3881 20.6933 13.4873 20.6933 12.5866 20.6933C10.3823 20.1953 9.10229 18.8204 8.74658 16.5689C10.2614 16.4031 11.7784 16.3795 13.2977 16.4978C14.3433 16.9027 15.0071 17.6376 15.2888 18.7022Z"
            fill="#F6F0EC" />
        <path fill-rule="evenodd" clip-rule="evenodd"
            d="M22.969 20.6934C20.7883 20.6934 18.6075 20.6934 16.4268 20.6934C16.4268 20.0771 16.4268 19.4607 16.4268 18.8445C16.593 17.8009 17.1619 17.066 18.1334 16.64C19.7343 16.4362 21.3462 16.3651 22.969 16.4267C22.969 17.8489 22.969 19.2712 22.969 20.6934Z"
            fill="#F6F1EC" />
        <path fill-rule="evenodd" clip-rule="evenodd"
            d="M15.2886 18.7021C15.429 19.3855 15.4765 20.0966 15.4309 20.8355C14.4561 20.8816 13.5079 20.8342 12.5864 20.6933C13.4872 20.6933 14.388 20.6933 15.2886 20.6933C15.2886 20.0295 15.2886 19.3659 15.2886 18.7021Z"
            fill="#DACDF3" />
        <path fill-rule="evenodd" clip-rule="evenodd"
            d="M16.4264 18.8447C16.4264 19.461 16.4264 20.0774 16.4264 20.6936C18.6071 20.6936 20.788 20.6936 22.9687 20.6936C20.7655 20.8353 18.5373 20.8828 16.2842 20.8358C16.2389 20.1442 16.2862 19.4805 16.4264 18.8447Z"
            fill="#D0BFF4" />
    </g>
    <defs>
        <clipPath id="clip0_5231_695">
            <rect width="32" height="32" fill="white" />
        </clipPath>
    </defs>
</svg>