<svg width="32" height="32" viewBox="0 0 32 32" fill="none" xmlns="http://www.w3.org/2000/svg">
    <path opacity="0.99" fill-rule="evenodd" clip-rule="evenodd"
        d="M4.83855 0C7.2578 0 9.67704 0 12.0963 0C13.0432 1.42813 14.3335 2.55944 15.9671 3.39394C16.4097 3.79535 16.7322 4.2802 16.9348 4.84848C16.068 5.17324 15.2616 5.49649 14.5155 5.81818C13.199 6.04257 11.9087 6.36582 10.6447 6.78788C9.54858 5.28121 8.33896 3.82668 7.01587 2.42424C6.8546 2.58586 6.69329 2.74748 6.53202 2.90909C5.96969 1.77533 5.0826 1.12886 3.87085 0.969697C4.19342 0.646465 4.51598 0.323232 4.83855 0Z"
        fill="#1479F0" />
    <path fill-rule="evenodd" clip-rule="evenodd"
        d="M12.0962 0C17.096 0 22.0958 0 27.0955 0C29.1814 1.04082 30.7136 2.65699 31.6921 4.84848C31.9339 8.88567 32.0145 12.9261 31.934 16.9697C30.3821 17.5954 29.8176 17.1106 30.2405 15.5152C30.0793 15.6768 29.918 15.8384 29.7567 16C29.0309 14.9495 28.1439 14.0606 27.0955 13.3333C26.6423 12.998 26.3197 13.0788 26.1278 13.5758C25.5654 12.3703 24.9202 11.1582 24.1924 9.93939C23.5012 9.65862 22.8561 9.73944 22.257 10.1818C22.257 10.0202 22.257 9.85857 22.257 9.69697C22.8732 8.04815 22.228 7.4017 20.3216 7.75758C20.1098 7.26967 19.7873 7.26967 19.3539 7.75758C19.4362 7.11656 19.2749 6.55093 18.8701 6.06061C17.4274 5.81915 15.9759 5.73838 14.5154 5.81818C15.2615 5.49648 16.0679 5.17324 16.9347 4.84848C16.7321 4.2802 16.4096 3.79535 15.967 3.39394C14.3334 2.55944 13.0431 1.42813 12.0962 0Z"
        fill="#1581EC" />
    <path opacity="0.992" fill-rule="evenodd" clip-rule="evenodd"
        d="M3.8708 0.969727C5.08255 1.12889 5.96964 1.77536 6.53197 2.90912C6.69323 2.74751 6.85455 2.58589 7.01582 2.42427C8.3389 3.82671 9.54853 5.28124 10.6447 6.78791C8.69981 8.17375 7.16765 9.95155 6.04812 12.1212C5.80702 13.7294 5.72636 15.3455 5.80619 16.9697C4.66997 15.7619 3.3797 14.7114 1.9354 13.8182C2.4936 13.3752 2.41296 12.9711 1.69347 12.6061C0.803069 13.2524 0.561146 13.1717 0.967699 12.3637C0.704386 12.0159 0.38182 11.7735 0 11.6364C0 9.37375 0 7.11116 0 4.84851C0.803388 3.07377 2.09365 1.78084 3.8708 0.969727Z"
        fill="#1B70F5" />
    <path fill-rule="evenodd" clip-rule="evenodd"
        d="M14.5154 5.81832C15.9759 5.73851 17.4274 5.81929 18.8701 6.06074C19.2749 6.55107 19.4362 7.1167 19.3539 7.75771C17.5213 7.81192 15.5859 7.89274 13.5477 8.00014C11.4112 8.81813 9.7983 10.1919 8.70925 12.1213C6.61234 18.4168 8.87032 22.134 15.4831 23.2729C17.0301 23.2977 18.4816 22.9745 19.8378 22.3032C23.2556 20.2031 24.4653 17.1324 23.4667 13.091C22.9238 12.1665 22.5206 11.1968 22.257 10.182C22.8561 9.73958 23.5012 9.65876 24.1924 9.93953C24.9202 11.1583 25.5654 12.3705 26.1278 13.5759C26.2394 15.7543 25.9169 17.8553 25.1601 19.8789C24.2012 21.6468 22.911 23.1014 21.2893 24.2426C19.5494 24.8731 17.7753 25.3579 15.967 25.6971C10.3053 25.3753 6.91833 22.4662 5.80615 16.9698C5.72632 15.3456 5.80698 13.7295 6.04808 12.1213C7.16761 9.95165 8.69977 8.17386 10.6446 6.78802C11.9086 6.36596 13.1989 6.04271 14.5154 5.81832Z"
        fill="#EFF4FB" />
    <path opacity="0.999" fill-rule="evenodd" clip-rule="evenodd"
        d="M20.3216 7.75753C20.1603 9.21207 20.8055 9.85852 22.257 9.69692C22.257 9.85852 22.257 10.0202 22.257 10.1818C22.5206 11.1967 22.9238 12.1664 23.4666 13.0909C24.4653 17.1322 23.2556 20.2029 19.8378 22.303C18.9602 21.2052 18.0732 20.0739 17.1766 18.909C17.0153 19.0706 16.854 19.2323 16.6927 19.3939C16.3734 18.5097 15.8089 17.8632 14.9993 17.4545C14.9993 16.6464 14.9993 15.8384 14.9993 15.0303C15.4831 15.0303 15.967 15.0303 16.4508 15.0303C16.3724 16.0132 16.453 16.9829 16.6927 17.9393C17.3489 18.3661 18.0747 18.5277 18.8701 18.4242C18.9495 17.1213 18.8688 15.8283 18.6281 14.5454C16.7401 11.974 14.8047 11.974 12.8219 14.5454C12.5883 15.005 12.5077 15.4899 12.58 16C11.7072 15.0461 10.7395 14.1572 9.67693 13.3333C9.99951 13.1717 10.322 13.01 10.6446 12.8484C9.9669 12.6496 9.32178 12.4072 8.70923 12.1212C9.79828 10.1917 11.4111 8.81794 13.5477 7.99995C15.5858 7.89256 17.5212 7.81173 19.3539 7.75753C19.7873 7.26963 20.1098 7.26963 20.3216 7.75753Z"
        fill="#1F78F1" />
    <path fill-rule="evenodd" clip-rule="evenodd"
        d="M20.3216 7.75761C22.2279 7.40173 22.8731 8.04818 22.2569 9.697C20.8054 9.8586 20.1603 9.21215 20.3216 7.75761Z"
        fill="#E7EEF9" />
    <path opacity="0.999" fill-rule="evenodd" clip-rule="evenodd"
        d="M8.70916 12.1211C9.32171 12.4071 9.96683 12.6495 10.6446 12.8484C10.322 13.01 9.99944 13.1716 9.67686 13.3332C10.7394 14.1571 11.7071 15.046 12.58 15.9999C12.58 16.808 12.58 17.616 12.58 18.4241C13.6837 18.6291 14.4901 18.3058 14.9992 17.4544C15.8088 17.8632 16.3733 18.5096 16.6927 19.3938C16.8539 19.2322 17.0153 19.0706 17.1765 18.909C18.0731 20.0738 18.9601 21.2052 19.8377 22.3029C18.4815 22.9742 17.03 23.2974 15.4831 23.2726C8.87023 22.1337 6.61225 18.4165 8.70916 12.1211Z"
        fill="#1D6FF5" />
    <path fill-rule="evenodd" clip-rule="evenodd"
        d="M14.9993 17.4546C14.4903 18.306 13.6839 18.6293 12.5801 18.4243C12.5801 17.6162 12.5801 16.8082 12.5801 16.0001C12.5078 15.49 12.5884 15.0052 12.822 14.5455C14.8048 11.9741 16.7402 11.9741 18.6282 14.5455C18.8689 15.8284 18.9495 17.1214 18.8701 18.4243C18.0747 18.5278 17.349 18.3662 16.6928 17.9395C16.4531 16.983 16.3725 16.0133 16.4509 15.0304C15.967 15.0304 15.4832 15.0304 14.9993 15.0304C14.9993 15.8385 14.9993 16.6465 14.9993 17.4546Z"
        fill="#E9EFFA" />
    <path opacity="0.999" fill-rule="evenodd" clip-rule="evenodd"
        d="M31.934 16.9697C31.934 19.3939 31.934 21.8181 31.934 24.2424C31.6353 24.2961 31.3934 24.4577 31.2083 24.7272C30.2219 22.8414 28.6897 21.6293 26.6117 21.0909C26.9786 20.4296 26.7367 19.864 25.8859 19.3939C25.7008 19.6635 25.4589 19.8251 25.1602 19.8788C25.9169 17.8551 26.2394 15.7541 26.1279 13.5757C26.3197 13.0788 26.6423 12.9979 27.0956 13.3333C28.1439 14.0606 29.031 14.9494 29.7567 16C29.918 15.8384 30.0793 15.6767 30.2406 15.5151C29.8176 17.1106 30.3821 17.5954 31.934 16.9697Z"
        fill="#1679EF" />
    <path opacity="0.999" fill-rule="evenodd" clip-rule="evenodd"
        d="M0 11.6365C0.38182 11.7736 0.704386 12.016 0.967699 12.3637C0.561146 13.1717 0.803069 13.2525 1.69347 12.6062C2.41296 12.9712 2.4936 13.3752 1.9354 13.8183C3.3797 14.7114 4.66997 15.762 5.80619 16.9698C6.91837 22.4662 10.3053 25.3753 15.967 25.6971C17.5337 27.022 19.0658 28.4766 20.5636 30.0607C20.7249 29.8991 20.8862 29.7375 21.0474 29.5759C21.5992 30.4385 22.1637 31.2466 22.7409 32.0001C19.6766 32.0001 16.6121 32.0001 13.5478 32.0001C9.21931 28.1565 4.70337 24.4393 0 20.8486C0 17.7779 0 14.7072 0 11.6365Z"
        fill="#1667F9" />
    <path opacity="0.994" fill-rule="evenodd" clip-rule="evenodd"
        d="M31.934 24.2425C32.2201 26.4068 31.575 28.1846 29.9986 29.5759C27.6925 29.1276 25.999 27.8347 24.9182 25.6971C24.7569 25.8587 24.5956 26.0203 24.4343 26.1819C23.6599 25.1062 22.6116 24.4598 21.2893 24.2425C22.9109 23.1013 24.2012 21.6468 25.1601 19.8789C25.4588 19.8252 25.7008 19.6636 25.8859 19.394C26.7366 19.8641 26.9786 20.4297 26.6117 21.091C28.6896 21.6294 30.2218 22.8416 31.2082 24.7274C31.3933 24.4578 31.6353 24.2962 31.934 24.2425Z"
        fill="#1674F2" />
    <path opacity="0.974" fill-rule="evenodd" clip-rule="evenodd"
        d="M0 20.8484C4.70337 24.4391 9.21931 28.1563 13.5478 31.9999C10.6447 31.9999 7.74159 31.9999 4.83849 31.9999C2.74181 30.8686 1.12898 29.2524 0 27.1514C0 25.0504 0 22.9494 0 20.8484Z"
        fill="#1560FD" />
    <path opacity="0.981" fill-rule="evenodd" clip-rule="evenodd"
        d="M21.2894 24.2424C22.6116 24.4597 23.66 25.1061 24.4344 26.1818C24.5957 26.0202 24.757 25.8586 24.9183 25.697C25.9991 27.8346 27.6926 29.1275 29.9987 29.5758C29.2097 30.6149 28.242 31.423 27.0956 32C25.644 32 24.1925 32 22.7409 32C22.1637 31.2465 21.5992 30.4384 21.0475 29.5758C20.8862 29.7374 20.7249 29.899 20.5636 30.0606C19.0659 28.4765 17.5337 27.0219 15.967 25.697C17.7753 25.3578 19.5494 24.8729 21.2894 24.2424Z"
        fill="#176EF6" />
</svg>