<svg width="32" height="32" viewBox="0 0 32 32" fill="none" xmlns="http://www.w3.org/2000/svg">
    <g clip-path="url(#clip0_5196_645)">
        <path d="M8.2793 11.8799L12.2253 7.92956L16.1713 11.8799L12.2253 15.8302L8.2793 11.8799Z"
            fill="#6899FC" />
        <path d="M16.1445 11.8516L20.0905 7.90124L24.0365 11.8516L20.0905 15.8019L16.1445 11.8516Z"
            fill="#6899FC" />
        <path
            d="M0.414551 11.8691L4.36053 7.91882L8.30652 11.8691L4.36053 15.8195L0.414551 11.8691Z"
            fill="#E56F8C" />
        <path d="M8.26807 19.7539L12.2141 15.8036L16.16 19.7539L12.214 23.7042L8.26807 19.7539Z"
            fill="#F8A929" />
        <path d="M24.5029 15.8057L28.4489 11.8553L32.3949 15.8057L28.4489 19.756L24.5029 15.8057Z"
            fill="#F8A929" />
        <path
            d="M8.27099 11.8496L4.31322 15.7721L0.39502 19.7342L4.3528 23.6964L8.31057 19.7342L12.2683 15.7721L8.31057 11.8496H8.27099Z"
            fill="#7476ED" />
        <path d="M16.147 19.7346L20.1047 15.7725L24.0625 19.7346L20.1047 23.6967L16.147 19.7346Z"
            fill="#1B53C6" />
    </g>
    <defs>
        <clipPath id="clip0_5196_645">
            <rect width="32" height="32" fill="white" />
        </clipPath>
    </defs>
</svg>