<svg width="32" height="32" viewBox="0 0 32 32" fill="none" xmlns="http://www.w3.org/2000/svg">
    <g clip-path="url(#clip0_5271_2284)">
        <path fill-rule="evenodd" clip-rule="evenodd"
            d="M-0.0712891 -0.0712891C4.92871 -0.0712891 9.92871 -0.0712891 14.9287 -0.0712891C7.76684 0.731647 2.98113 4.54117 0.571568 11.3573C0.23675 12.5478 0.0224642 13.7383 -0.0712891 14.9287C-0.0712891 9.92871 -0.0712891 4.92871 -0.0712891 -0.0712891Z"
            fill="#FCFCFC" />
        <path fill-rule="evenodd" clip-rule="evenodd"
            d="M14.9287 -0.0712891C15.5954 -0.0712891 16.262 -0.0712891 16.9287 -0.0712891C24.0936 0.735211 28.8793 4.54474 31.2859 11.3573C31.6207 12.5478 31.835 13.7383 31.9287 14.9287C31.9287 15.5954 31.9287 16.262 31.9287 16.9287C30.6906 25.6906 25.6906 30.6906 16.9287 31.9287C16.262 31.9287 15.5954 31.9287 14.9287 31.9287C8.45073 31.2851 3.8555 27.9994 1.143 22.0716C0.50817 20.3906 0.103408 18.6763 -0.0712891 16.9287C-0.0712891 16.262 -0.0712891 15.5954 -0.0712891 14.9287C0.0224642 13.7383 0.23675 12.5478 0.571568 11.3573C2.98113 4.54117 7.76684 0.731647 14.9287 -0.0712891Z"
            fill="#010101" />
        <path fill-rule="evenodd" clip-rule="evenodd"
            d="M16.9287 -0.0712891C21.9287 -0.0712891 26.9287 -0.0712891 31.9287 -0.0712891C31.9287 4.92871 31.9287 9.92871 31.9287 14.9287C31.835 13.7383 31.6207 12.5478 31.2859 11.3573C28.8793 4.54474 24.0936 0.735211 16.9287 -0.0712891Z"
            fill="#FCFCFC" />
        <path fill-rule="evenodd" clip-rule="evenodd"
            d="M24.2141 7.21387C24.5254 7.26244 24.7872 7.4053 24.9998 7.64244C25.0951 10.9282 25.0951 14.2139 24.9998 17.4996C24.2271 22.0342 21.5842 24.7247 17.0712 25.571C11.8084 25.8812 8.4036 23.524 6.85693 18.4996C6.6301 14.8846 6.58248 11.2656 6.71407 7.64244C7.02163 7.36474 7.37877 7.29331 7.7855 7.42815C8.7027 7.94632 9.63127 8.44632 10.5712 8.92815C12.6676 7.50278 14.9772 7.00278 17.4998 7.42815C18.7949 7.69277 19.9854 8.19277 21.0712 8.92815C22.1605 8.40484 23.2082 7.83341 24.2141 7.21387Z"
            fill="#FBFBFB" />
        <path fill-rule="evenodd" clip-rule="evenodd"
            d="M13.9287 12.2143C16.8102 11.9574 19.5722 12.4098 22.2144 13.5715C23.81 14.7895 24.2147 16.337 23.4287 18.2143C22.4489 19.6529 21.0917 20.2006 19.3573 19.8572C18.1987 19.2962 16.9844 18.939 15.7144 18.7858C14.4973 18.9692 13.3307 19.3263 12.2144 19.8572C10.1442 20.2392 8.73948 19.4535 8.00015 17.5C7.56822 15.5306 8.25869 14.1259 10.0716 13.2858C11.3464 12.8273 12.6321 12.4701 13.9287 12.2143Z"
            fill="#030303" />
        <path fill-rule="evenodd" clip-rule="evenodd"
            d="M10.5001 14.3568C11.8782 14.211 12.5924 14.8301 12.643 16.2139C11.3895 16.0151 10.8895 16.5388 11.143 17.7853C11.336 18.0023 11.5503 18.1928 11.7858 18.3568C10.7201 18.8369 9.98196 18.5036 9.57156 17.3568C9.23732 16.1238 9.54685 15.1238 10.5001 14.3568Z"
            fill="#F5F5F5" />
        <path fill-rule="evenodd" clip-rule="evenodd"
            d="M20.0712 14.3572C21.1066 14.2254 21.7972 14.6541 22.1426 15.6429C22.2869 16.4378 22.1916 17.1998 21.8569 17.9287C21.3113 18.6231 20.6685 18.7659 19.9283 18.3572C20.9223 17.5392 20.8748 16.8011 19.7855 16.1429C19.5376 16.0499 19.2995 16.0737 19.0712 16.2144C18.9839 15.3898 19.3173 14.7707 20.0712 14.3572Z"
            fill="#F8F8F8" />
        <path fill-rule="evenodd" clip-rule="evenodd"
            d="M-0.0712891 16.9287C0.103408 18.6763 0.50817 20.3906 1.143 22.0716C3.8555 27.9994 8.45073 31.2851 14.9287 31.9287C9.92871 31.9287 4.92871 31.9287 -0.0712891 31.9287C-0.0712891 26.9287 -0.0712891 21.9287 -0.0712891 16.9287Z"
            fill="#FCFCFC" />
        <path fill-rule="evenodd" clip-rule="evenodd"
            d="M31.9287 16.9287C31.9287 21.9287 31.9287 26.9287 31.9287 31.9287C26.9287 31.9287 21.9287 31.9287 16.9287 31.9287C25.6906 30.6906 30.6906 25.6906 31.9287 16.9287Z"
            fill="#FCFCFC" />
    </g>
    <defs>
        <clipPath id="clip0_5271_2284">
            <rect width="32" height="32" fill="white" />
        </clipPath>
    </defs>
</svg>