<svg width="32" height="32" viewBox="0 0 32 32" fill="none" xmlns="http://www.w3.org/2000/svg">
    <g clip-path="url(#clip0_5361_334)">
        <path fill-rule="evenodd" clip-rule="evenodd"
            d="M-0.0712891 -0.0710449C10.5954 -0.0710449 21.262 -0.0710449 31.9287 -0.0710449C31.9287 10.5956 31.9287 21.2623 31.9287 31.929C21.262 31.929 10.5954 31.929 -0.0712891 31.929C-0.0712891 21.2623 -0.0712891 10.5956 -0.0712891 -0.0710449Z"
            fill="#252A3E" />
        <path fill-rule="evenodd" clip-rule="evenodd"
            d="M21.1198 6.75547C21.0724 6.75547 21.0249 6.75547 20.9776 6.75547C20.8334 6.58855 20.6438 6.49373 20.4087 6.47103C19.7165 6.06672 18.958 5.82968 18.1331 5.75992C17.4107 5.54442 16.652 5.44962 15.8576 5.47547C15.0961 5.49713 14.3377 5.54454 13.582 5.6177C14.3825 5.42864 15.2358 5.33382 16.142 5.33325C16.9954 5.35696 17.8487 5.38065 18.702 5.40436C19.4107 5.77807 20.1693 5.9914 20.9776 6.04436C21.113 6.26414 21.1603 6.50118 21.1198 6.75547Z"
            fill="#1D2F25" />
        <path fill-rule="evenodd" clip-rule="evenodd"
            d="M18.1331 5.76004C16.6161 5.76004 15.0991 5.76004 13.582 5.76004C13.582 5.71263 13.582 5.66522 13.582 5.61781C14.3377 5.54465 15.0961 5.49725 15.8576 5.47559C16.652 5.44973 17.4107 5.54454 18.1331 5.76004Z"
            fill="#94C373" />
        <path fill-rule="evenodd" clip-rule="evenodd"
            d="M13.5821 5.76001C13.565 5.91449 13.4702 6.0093 13.2976 6.04445C12.6854 6.2172 12.0691 6.35942 11.4487 6.47112C12.1122 6.12659 12.8233 5.88955 13.5821 5.76001Z"
            fill="#8DB86E" />
        <path fill-rule="evenodd" clip-rule="evenodd"
            d="M20.4087 6.47119C20.6438 6.49389 20.8334 6.58871 20.9776 6.75564C20.6956 6.80445 20.5058 6.70963 20.4087 6.47119Z"
            fill="#9FAB9A" />
        <path fill-rule="evenodd" clip-rule="evenodd"
            d="M21.2622 6.75562C21.9116 6.85635 22.3856 7.18821 22.6844 7.75117C22.205 7.41755 21.731 7.08568 21.2622 6.75562Z"
            fill="#18331C" />
        <path fill-rule="evenodd" clip-rule="evenodd"
            d="M22.6846 7.75122C23.0266 7.92005 23.3586 8.13339 23.6801 8.39122C23.7992 8.53505 23.8465 8.70097 23.8223 8.889C23.3957 8.55715 23.0164 8.17789 22.6846 7.75122Z"
            fill="#2A3E24" />
        <path fill-rule="evenodd" clip-rule="evenodd"
            d="M13.5822 5.76001C15.0992 5.76001 16.6162 5.76001 18.1333 5.76001C18.9582 5.82977 19.7166 6.06681 20.4088 6.47112C20.506 6.70956 20.6957 6.80438 20.9777 6.75557C21.0251 6.75557 21.0726 6.75557 21.1199 6.75557C21.1673 6.75557 21.2148 6.75557 21.2622 6.75557C21.7309 7.08563 22.2049 7.4175 22.6844 7.75112C23.0162 8.17779 23.3955 8.55705 23.8222 8.8889C23.8222 8.98372 23.8695 9.03112 23.9644 9.03112C24.3322 9.43758 24.6641 9.86424 24.9599 10.3111C25.4574 11.1636 25.8366 12.0644 26.0977 13.0133C26.3132 14.4723 26.4079 15.9418 26.3822 17.4222C26.2921 18.4511 26.0552 19.4466 25.671 20.4089C25.4001 20.8077 25.1632 21.2344 24.9599 21.6889C24.6391 22.2005 24.2598 22.6746 23.8222 23.1111C23.2621 23.2451 22.8828 23.5769 22.6844 24.1067C22.6844 24.154 22.6844 24.2015 22.6844 24.2489C21.97 24.7278 21.2589 25.2018 20.551 25.6711C20.5037 25.6711 20.4562 25.6711 20.4088 25.6711C19.4946 26.0419 18.5464 26.279 17.5644 26.3822C16.2343 26.3916 14.907 26.3441 13.5822 26.24C13.1406 25.9698 12.6665 25.709 12.1599 25.4578C11.8794 25.3874 11.5949 25.3636 11.3066 25.3867C10.9769 25.3167 10.6924 25.1745 10.4533 24.96C10.2531 24.7029 10.0872 24.4184 9.95549 24.1067C9.67483 23.9445 9.4141 23.755 9.17327 23.5378C9.74566 23.3087 9.84048 22.9769 9.45772 22.5422C9.28197 22.4203 9.09235 22.3256 8.88883 22.2578C8.95152 22.6205 8.95152 22.9998 8.88883 23.3956C8.72897 23.1945 8.58675 22.9811 8.46216 22.7556C8.32733 22.6869 8.18511 22.6633 8.03549 22.6845C8.03549 22.4949 8.03549 22.3051 8.03549 22.1156C8.22352 22.1397 8.38944 22.0924 8.53327 21.9733C8.6039 21.6448 8.62761 21.313 8.60438 20.9778C8.05657 20.9762 7.79583 21.2607 7.82216 21.8311C7.38924 21.6458 7.2233 21.314 7.32438 20.8356C7.13476 20.8356 6.94512 20.8356 6.75549 20.8356C6.78604 20.5968 6.69122 20.4546 6.47105 20.4089C6.35184 20.3603 6.30442 20.2655 6.32883 20.1245C5.8447 17.9748 5.65508 15.7939 5.75994 13.5822C6.01137 12.3679 6.46173 11.2301 7.11105 10.1689C7.39987 9.76281 7.70803 9.38355 8.03549 9.03112C8.34815 8.95796 8.6326 8.81574 8.88883 8.60445C9.02091 8.43538 9.06831 8.24574 9.03105 8.03557C9.76985 7.40573 10.5758 6.88425 11.4488 6.47112C12.0692 6.35942 12.6855 6.2172 13.2977 6.04445C13.4703 6.0093 13.5651 5.91449 13.5822 5.76001Z"
            fill="#8DD153" />
        <path fill-rule="evenodd" clip-rule="evenodd"
            d="M18.1331 8.31994C16.998 8.18579 15.8603 8.16208 14.7198 8.24883C14.29 8.26283 13.9107 8.38135 13.582 8.60439C13.0831 8.66419 12.6091 8.80641 12.1598 9.03105C12.1294 8.79726 12.1768 8.58392 12.302 8.39105C14.0127 7.95681 15.7431 7.83829 17.4931 8.0355C17.7756 8.04527 17.9889 8.14007 18.1331 8.31994Z"
            fill="#8DC066" />
        <path fill-rule="evenodd" clip-rule="evenodd"
            d="M18.1331 8.31997C18.3567 8.48883 18.5938 8.63105 18.8443 8.74663C17.8641 8.62664 16.8923 8.48442 15.9287 8.31997C15.1372 8.35036 14.355 8.44518 13.582 8.60441C13.9107 8.38138 14.29 8.26285 14.7198 8.24886C15.8603 8.1621 16.9981 8.18581 18.1331 8.31997Z"
            fill="#162F1D" />
        <path fill-rule="evenodd" clip-rule="evenodd"
            d="M9.0312 8.03564C9.06846 8.24582 9.02106 8.43546 8.88898 8.60453C8.63275 8.81582 8.34831 8.95804 8.03564 9.0312C8.32009 8.65194 8.65194 8.32009 9.0312 8.03564Z"
            fill="#87B870" />
        <path fill-rule="evenodd" clip-rule="evenodd"
            d="M18.8442 8.7467C19.1362 8.73278 19.3733 8.82758 19.5553 9.03114C19.2309 9.09126 18.9939 8.99644 18.8442 8.7467Z"
            fill="#173915" />
        <path fill-rule="evenodd" clip-rule="evenodd"
            d="M23.9644 9.03101C24.1539 9.03101 24.3437 9.03101 24.5332 9.03101C24.7423 9.4318 24.8845 9.85847 24.9599 10.311C24.6641 9.86413 24.3321 9.43746 23.9644 9.03101Z"
            fill="#193118" />
        <path fill-rule="evenodd" clip-rule="evenodd"
            d="M19.5557 9.03101C20.2902 9.29234 20.9066 9.71901 21.4046 10.311C20.8799 10.0019 20.311 9.85964 19.6979 9.88434C19.6505 9.59989 19.603 9.31545 19.5557 9.03101Z"
            fill="#20312E" />
        <path fill-rule="evenodd" clip-rule="evenodd"
            d="M13.5823 5.6177C13.5823 5.6651 13.5823 5.71252 13.5823 5.75992C12.8236 5.88945 12.1125 6.1265 11.449 6.47103C10.5759 6.88416 9.76998 7.40564 9.03118 8.03547C8.65192 8.31992 8.32007 8.65177 8.03563 9.03103C7.70816 9.38346 7.40001 9.76272 7.11118 10.1688C6.46187 11.23 6.01151 12.3678 5.76007 13.5821C5.54829 14.1134 5.45347 14.6824 5.47563 15.2888C5.33538 15.9245 5.28796 16.5883 5.3334 17.2799C5.24806 16.7152 5.10584 16.1463 4.90674 15.5733C4.93558 15.3303 5.05411 15.1408 5.26229 15.0044C5.35317 14.0621 5.5191 13.1377 5.76007 12.231C5.61465 11.9225 5.47243 11.6143 5.3334 11.3066C5.67637 11.2549 5.88971 11.3971 5.9734 11.7333C6.04432 11.2139 6.06803 10.6924 6.04452 10.1688C6.33284 10.1919 6.61729 10.1682 6.89785 10.0977C7.05738 9.79564 7.27071 9.53491 7.53785 9.31547C7.6863 9.00048 7.78112 8.66863 7.82229 8.31992C8.64053 7.95109 9.39905 7.47702 10.0978 6.8977C10.299 6.54188 10.3227 6.16262 10.169 5.75992C10.4893 5.64143 10.7974 5.64143 11.0934 5.75992C11.2039 5.51604 11.3936 5.37381 11.6623 5.33325C12.2684 5.58164 12.9084 5.67646 13.5823 5.6177Z"
            fill="#232F2F" />
        <path fill-rule="evenodd" clip-rule="evenodd"
            d="M10.7379 10.0266C10.0649 10.6654 9.49605 11.3766 9.03125 12.1599C9.15514 11.7241 9.32107 11.2974 9.52903 10.8799C9.90626 10.5416 10.3092 10.2571 10.7379 10.0266Z"
            fill="#91BD6F" />
        <path fill-rule="evenodd" clip-rule="evenodd"
            d="M12.16 21.8311C11.2053 21.1557 10.4468 20.3023 9.88445 19.2711C8.36993 15.6342 9.17584 12.6237 12.3022 10.24C15.7803 8.43695 18.8381 8.98213 21.4756 11.8755C23.11 14.3896 23.2522 16.9969 21.9022 19.6977C19.2587 23.1377 16.0114 23.8488 12.16 21.8311Z"
            fill="#F5F6F7" />
        <path fill-rule="evenodd" clip-rule="evenodd"
            d="M15.0044 10.5955C19.3656 10.5242 21.5227 12.6575 21.4755 16.9955C20.5185 20.4146 18.2667 21.908 14.7199 21.4755C11.2007 20.2288 9.89696 17.7872 10.8088 14.151C11.5922 12.2111 12.9907 11.0259 15.0044 10.5955Z"
            fill="#25293D" />
        <path fill-rule="evenodd" clip-rule="evenodd"
            d="M22.3999 11.3066C22.6201 11.3523 22.7149 11.4945 22.6843 11.7333C22.5562 11.6209 22.4613 11.4787 22.3999 11.3066Z"
            fill="#93A79A" />
        <path fill-rule="evenodd" clip-rule="evenodd"
            d="M9.03101 12.4443C8.67859 13.6487 8.44156 14.8813 8.3199 16.1421C8.51732 16.9225 8.61214 17.7285 8.60435 18.5599C7.73757 16.452 7.8798 14.4135 9.03101 12.4443Z"
            fill="#243C2C" />
        <path fill-rule="evenodd" clip-rule="evenodd"
            d="M18.8443 8.74674C18.9939 8.99648 19.231 9.0913 19.5554 9.03118C19.6027 9.31562 19.6502 9.60007 19.6976 9.88451C20.3107 9.85981 20.8796 10.002 21.4043 10.3112C21.8868 10.8971 22.2188 11.5608 22.3998 12.3023C22.5669 12.2711 22.7092 12.3185 22.8265 12.4445C22.9285 12.7757 23.0707 13.0838 23.2532 13.369C23.1877 13.5539 23.1402 13.7436 23.1109 13.9378C23.3162 14.0648 23.4584 14.3018 23.5376 14.649C23.6588 15.5694 23.7063 16.4939 23.6798 17.4223C23.5585 18.3078 23.3214 19.1611 22.9687 19.9823C22.7941 20.0969 22.6518 20.2391 22.542 20.409C22.3998 20.409 22.2576 20.409 22.1154 20.409C21.825 21.2205 21.2561 21.7419 20.4087 21.9734C20.4087 22.163 20.4087 22.3527 20.4087 22.5423C19.6544 23.1112 18.801 23.4903 17.8487 23.6801C16.8015 23.7271 15.7585 23.6796 14.7198 23.5378C14.062 23.3495 13.3983 23.2073 12.7287 23.1112C12.4433 22.9663 12.2537 22.7293 12.1598 22.4001C12.2825 22.2257 12.2825 22.036 12.1598 21.8312C16.0112 23.8489 19.2586 23.1378 21.902 19.6978C23.252 16.997 23.1098 14.3897 21.4754 11.8756C18.8379 8.98224 15.7801 8.43706 12.302 10.2401C9.17566 12.6238 8.36974 15.6343 9.88427 19.2712C9.78164 19.3306 9.71053 19.4253 9.67094 19.5556C9.28735 19.2427 8.93179 18.9109 8.60427 18.5601C8.61206 17.7286 8.51724 16.9227 8.31982 16.1423C8.44148 14.8815 8.67851 13.6489 9.03094 12.4445C9.03094 12.3497 9.03094 12.2549 9.03094 12.1601C9.49573 11.3767 10.0646 10.6656 10.7376 10.0267C11.217 9.69311 11.6911 9.36125 12.1598 9.03118C12.6091 8.80654 13.0832 8.66432 13.582 8.60451C14.355 8.44528 15.1372 8.35046 15.9287 8.32007C16.8923 8.48452 17.8641 8.62674 18.8443 8.74674Z"
            fill="#25293C" />
        <path fill-rule="evenodd" clip-rule="evenodd"
            d="M5.75993 13.5823C5.65507 15.794 5.8447 17.9748 6.32882 20.1245C6.234 20.0296 6.1392 19.9349 6.04438 19.8401C6.04438 19.7452 6.04438 19.6505 6.04438 19.5556C5.56088 18.1773 5.37124 16.7551 5.47549 15.2889C5.45333 14.6825 5.54815 14.1136 5.75993 13.5823Z"
            fill="#93C66A" />
        <path fill-rule="evenodd" clip-rule="evenodd"
            d="M26.0977 13.0134C26.1925 13.2031 26.2872 13.3927 26.3821 13.5823C26.5468 14.8845 26.5468 16.1645 26.3821 17.4223C26.4078 15.9419 26.3131 14.4723 26.0977 13.0134Z"
            fill="#96C279" />
        <path fill-rule="evenodd" clip-rule="evenodd"
            d="M21.4043 10.311C21.7874 10.5993 22.1192 10.9312 22.3999 11.3066C22.4613 11.4786 22.5562 11.6208 22.6843 11.7333C22.8759 12.1163 23.0655 12.4956 23.2532 12.871C23.8107 14.3618 23.9529 15.8788 23.6799 17.4221C23.7063 16.4937 23.6588 15.5693 23.5376 14.6488C23.4584 14.3016 23.3162 14.0647 23.111 13.9377C23.1403 13.7434 23.1878 13.5538 23.2532 13.3688C23.0707 13.0837 22.9285 12.7755 22.8265 12.4444C22.7092 12.3184 22.567 12.271 22.3999 12.3021C22.2188 11.5607 21.8869 10.897 21.4043 10.311Z"
            fill="#1B2C25" />
        <path fill-rule="evenodd" clip-rule="evenodd"
            d="M26.382 13.5823C26.4961 13.7887 26.5672 14.0258 26.5953 14.2934C26.7989 16.3779 26.633 18.4164 26.0976 20.4089C25.9553 20.4089 25.8131 20.4089 25.6709 20.4089C26.055 19.4467 26.292 18.4511 26.382 17.4223C26.5467 16.1645 26.5467 14.8845 26.382 13.5823Z"
            fill="#1A3520" />
        <path fill-rule="evenodd" clip-rule="evenodd"
            d="M5.47579 15.2888C5.37155 16.755 5.56118 18.1772 6.04468 19.5555C5.77311 19.3457 5.60718 19.0613 5.54691 18.7022C5.39858 18.2389 5.32747 17.7649 5.33357 17.2799C5.28813 16.5883 5.33555 15.9246 5.47579 15.2888Z"
            fill="#27421E" />
        <path fill-rule="evenodd" clip-rule="evenodd"
            d="M23.2532 12.8711C23.431 12.8821 23.5494 12.9769 23.6088 13.1555C24.0203 15.0406 24.0677 16.9368 23.751 18.8444C23.5024 19.2414 23.2417 19.6207 22.9688 19.9822C23.3215 19.161 23.5585 18.3077 23.6799 17.4222C23.9529 15.8788 23.8107 14.3619 23.2532 12.8711Z"
            fill="#8AB968" />
        <path fill-rule="evenodd" clip-rule="evenodd"
            d="M8.60449 18.5601C8.93202 18.9109 9.28757 19.2427 9.67116 19.5556C9.71075 19.4253 9.78186 19.3306 9.88449 19.2712C10.4468 20.3024 11.2053 21.1558 12.16 21.8312C12.2828 22.036 12.2828 22.2257 12.16 22.4001C12.2539 22.7293 12.4435 22.9662 12.7289 23.1112C12.2506 22.9603 11.7765 22.818 11.3067 22.6845C10.6951 21.8831 10.0314 21.1246 9.3156 20.4089C9.2929 20.1739 9.19809 19.9843 9.03116 19.8401C8.84818 19.4268 8.70595 19.0001 8.60449 18.5601Z"
            fill="#222B34" />
        <path fill-rule="evenodd" clip-rule="evenodd"
            d="M9.031 19.8401C9.19792 19.9843 9.29274 20.1739 9.31544 20.409C9.077 20.3118 8.98218 20.1221 9.031 19.8401Z"
            fill="#95B18C" />
        <path fill-rule="evenodd" clip-rule="evenodd"
            d="M6.04443 19.8401C6.13925 19.935 6.23406 20.0297 6.32888 20.1245C6.30447 20.2656 6.35189 20.3603 6.4711 20.409C6.50006 20.7197 6.59486 21.0042 6.75554 21.2623C6.61391 21.2745 6.49539 21.227 6.39999 21.1201C6.1797 20.7202 6.06119 20.2935 6.04443 19.8401Z"
            fill="#1F3820" />
        <path fill-rule="evenodd" clip-rule="evenodd"
            d="M25.6711 20.4089C25.6823 20.803 25.6112 21.1822 25.4577 21.5467C25.314 21.6658 25.148 21.7131 24.96 21.6889C25.1632 21.2344 25.4001 20.8077 25.6711 20.4089Z"
            fill="#1E3624" />
        <path fill-rule="evenodd" clip-rule="evenodd"
            d="M22.542 20.4089C21.9731 21.2623 21.262 21.9734 20.4087 22.5423C20.4087 22.3527 20.4087 22.163 20.4087 21.9734C21.2561 21.7418 21.8249 21.2205 22.1154 20.4089C22.2576 20.4089 22.3998 20.4089 22.542 20.4089Z"
            fill="#19341D" />
        <path fill-rule="evenodd" clip-rule="evenodd"
            d="M9.31543 20.4089C10.0312 21.1246 10.6949 21.8831 11.3065 22.6845C11.0695 22.6845 10.8325 22.6845 10.5954 22.6845C10.4784 22.056 10.1703 21.9611 9.67099 22.4C9.71839 22.0207 9.7658 21.6416 9.81321 21.2623C9.66938 21.1432 9.50346 21.0959 9.31543 21.12C9.31543 20.883 9.31543 20.646 9.31543 20.4089Z"
            fill="#90C961" />
        <path fill-rule="evenodd" clip-rule="evenodd"
            d="M6.47119 20.4089C6.69137 20.4546 6.78619 20.5968 6.75564 20.8356C6.94526 20.8356 7.1349 20.8356 7.32452 20.8356C7.22345 21.314 7.38938 21.6458 7.8223 21.8312C7.79598 21.2607 8.05671 20.9763 8.60452 20.9778C8.62775 21.313 8.60404 21.6448 8.53341 21.9734C8.38958 22.0924 8.22367 22.1398 8.03564 22.1156C8.03564 22.3052 8.03564 22.4949 8.03564 22.6845C8.18525 22.6633 8.32748 22.6869 8.4623 22.7556C8.58689 22.9812 8.72911 23.1945 8.88897 23.3956C8.95166 22.9998 8.95166 22.6205 8.88897 22.2578C9.09249 22.3257 9.28211 22.4204 9.45786 22.5423C9.84062 22.9769 9.7458 23.3087 9.17341 23.5378C9.41424 23.755 9.67497 23.9446 9.95564 24.1067C10.0873 24.4185 10.2533 24.7029 10.4534 24.96C10.406 24.96 10.3586 24.96 10.3112 24.96C10.2638 24.96 10.2164 24.96 10.169 24.96C9.84608 24.608 9.46682 24.3236 9.03119 24.1067C8.21432 23.1961 7.4558 22.248 6.75564 21.2623C6.59495 21.0041 6.50015 20.7197 6.47119 20.4089Z"
            fill="#8FCB5C" />
        <path fill-rule="evenodd" clip-rule="evenodd"
            d="M6.75537 21.2622C7.45553 22.2479 8.21406 23.196 9.03093 24.1067C7.89884 23.4701 7.14031 22.5219 6.75537 21.2622Z"
            fill="#1B3323" />
        <path fill-rule="evenodd" clip-rule="evenodd"
            d="M23.8223 23.1111C23.5309 23.5449 23.1516 23.8767 22.6846 24.1066C22.883 23.5769 23.2623 23.2451 23.8223 23.1111Z"
            fill="#92BA73" />
        <path fill-rule="evenodd" clip-rule="evenodd"
            d="M12.729 23.1111C13.3986 23.2072 14.0623 23.3494 14.7201 23.5378C15.7588 23.6795 16.8018 23.727 17.849 23.68C16.4363 24.0724 15.0141 24.0488 13.5823 23.6089C13.244 23.507 12.9595 23.3411 12.729 23.1111Z"
            fill="#233925" />
        <path fill-rule="evenodd" clip-rule="evenodd"
            d="M9.03125 24.1067C9.46688 24.3236 9.84614 24.608 10.169 24.96C9.78976 24.8178 9.41051 24.6756 9.03125 24.5334C9.03125 24.3911 9.03125 24.2489 9.03125 24.1067Z"
            fill="#1C3419" />
        <path fill-rule="evenodd" clip-rule="evenodd"
            d="M10.311 24.96C10.3584 24.96 10.4059 24.96 10.4533 24.96C10.6924 25.1744 10.9768 25.3167 11.3066 25.3866C11.3066 25.434 11.3066 25.4815 11.3066 25.5288C10.7772 25.6455 10.4454 25.4559 10.311 24.96Z"
            fill="#234020" />
        <path fill-rule="evenodd" clip-rule="evenodd"
            d="M22.6846 24.2488C22.6846 24.391 22.6846 24.5332 22.6846 24.6754C22.1881 24.7584 21.8088 25.0191 21.5468 25.4577C21.2282 25.5966 20.8964 25.6677 20.5513 25.671C21.2591 25.2017 21.9702 24.7276 22.6846 24.2488Z"
            fill="#1C3325" />
        <path fill-rule="evenodd" clip-rule="evenodd"
            d="M11.3066 25.5289C11.3066 25.4815 11.3066 25.434 11.3066 25.3867C11.595 25.3636 11.8794 25.3874 12.16 25.4578C12.6665 25.709 13.1406 25.9698 13.5822 26.24C12.7667 26.1629 12.0082 25.9258 11.3066 25.5289Z"
            fill="#94C371" />
        <path fill-rule="evenodd" clip-rule="evenodd"
            d="M11.3066 25.5288C12.0082 25.9258 12.7667 26.1628 13.5822 26.2399C13.5822 26.2873 13.5822 26.3348 13.5822 26.3821C12.7995 26.4319 12.0409 26.3371 11.3066 26.0977C11.3066 25.9081 11.3066 25.7184 11.3066 25.5288Z"
            fill="#203126" />
        <path fill-rule="evenodd" clip-rule="evenodd"
            d="M13.582 26.3822C13.582 26.3349 13.582 26.2874 13.582 26.24C14.9068 26.3441 16.2342 26.3916 17.5643 26.3822C16.2585 26.5532 14.9312 26.5532 13.582 26.3822Z"
            fill="#98C571" />
        <path fill-rule="evenodd" clip-rule="evenodd"
            d="M20.4087 25.6711C19.8163 26.321 19.0577 26.6292 18.1331 26.5956C16.8058 26.6904 15.4783 26.6904 14.1509 26.5956C13.9293 26.5657 13.7397 26.4946 13.582 26.3823C14.9312 26.5532 16.2585 26.5532 17.5643 26.3823C18.5463 26.279 19.4945 26.0419 20.4087 25.6711Z"
            fill="#213C28" />
    </g>
    <defs>
        <clipPath id="clip0_5361_334">
            <rect width="32" height="32" fill="white" />
        </clipPath>
    </defs>
</svg>