<svg width="32" height="32" viewBox="0 0 32 32" fill="none" xmlns="http://www.w3.org/2000/svg">
    <g clip-path="url(#clip0_5198_673)">
        <path
            d="M27.3248 2.35C28.5998 2.35 29.6498 3.4 29.6498 4.675C29.6498 5.95 28.5998 7 27.3248 7C26.0498 7 24.9998 5.95 24.9998 4.675C25.0248 3.4 26.0498 2.35 27.3248 2.35ZM27.3248 0C24.7498 0 22.6748 2.1 22.6748 4.675C22.6748 7.25 24.7748 9.35 27.3498 9.35C29.9248 9.35 32.0248 7.25 32.0248 4.675C32.0248 2.1 29.8998 0 27.3248 0Z"
            fill="#1E1A3C" />
        <path
            d="M27.3248 13.6752C28.5998 13.6752 29.6498 14.7252 29.6498 16.0002C29.6498 17.2752 28.5998 18.3252 27.3248 18.3252C26.0498 18.3252 24.9998 17.2752 24.9998 16.0002C24.9998 14.7252 26.0498 13.6752 27.3248 13.6752ZM27.3248 11.3252C24.7498 11.3252 22.6748 13.4252 22.6748 16.0002C22.6748 18.5752 24.7748 20.6752 27.3498 20.6752C29.9248 20.6752 32.0248 18.5752 32.0248 16.0002C32.0248 13.4252 29.8998 11.3252 27.3248 11.3252Z"
            fill="#1E1A3C" />
        <path
            d="M27.3249 25.0248C28.5999 25.0248 29.6499 26.0748 29.6499 27.3498C29.6499 28.6248 28.5999 29.6748 27.3249 29.6748C26.0499 29.6748 24.9999 28.6248 24.9999 27.3498C25.0249 26.0498 26.0499 25.0248 27.3249 25.0248ZM27.3249 22.6748C24.7499 22.6748 22.6499 24.7748 22.6499 27.3498C22.6499 29.9248 24.7499 31.9998 27.3249 31.9998C29.8999 31.9998 31.9999 29.8998 31.9999 27.3248C31.9999 24.7498 29.8999 22.6748 27.3249 22.6748Z"
            fill="#1E1A3C" />
        <path d="M28.4999 7.6748H26.1499V12.9998H28.4999V7.6748Z" fill="#1E1A3C" />
        <path d="M28.4999 18.9502H26.1499V24.2752H28.4999V18.9502Z" fill="#1E1A3C" />
        <path
            d="M4.675 2.35C5.95 2.35 7 3.4 7 4.675C7 5.95 5.95 7 4.675 7C3.4 7 2.35 5.95 2.35 4.675C2.35 3.4 3.4 2.35 4.675 2.35ZM4.675 0C2.1 0 0 2.1 0 4.675C0 7.25 2.1 9.35 4.675 9.35C7.25 9.35 9.325 7.25 9.325 4.675C9.325 2.1 7.25 0 4.675 0Z"
            fill="#9CC544" />
        <path
            d="M4.675 13.6752C5.95 13.6752 7 14.7252 7 16.0002C7 17.2752 5.95 18.3252 4.675 18.3252C3.4 18.3252 2.35 17.2752 2.35 16.0002C2.35 14.7252 3.4 13.6752 4.675 13.6752ZM4.675 11.3252C2.1 11.3252 0 13.4252 0 16.0002C0 18.5752 2.1 20.6752 4.675 20.6752C7.25 20.6752 9.325 18.5752 9.325 16.0002C9.325 13.4252 7.25 11.3252 4.675 11.3252Z"
            fill="#9CC544" />
        <path
            d="M4.675 25.0248C5.95 25.0248 7 26.0748 7 27.3498C7 28.6248 5.95 29.6748 4.675 29.6748C3.4 29.6748 2.35 28.6248 2.35 27.3498C2.35 26.0498 3.4 25.0248 4.675 25.0248ZM4.675 22.6748C2.1 22.6748 0 24.7498 0 27.3248C0 29.8998 2.1 31.9998 4.675 31.9998C7.25 31.9998 9.35 29.8998 9.35 27.3248C9.35 24.7498 7.25 22.6748 4.675 22.6748Z"
            fill="#9CC544" />
        <path
            d="M16.0002 2.35C17.2752 2.35 18.3252 3.4 18.3252 4.675C18.3252 5.95 17.2752 7 16.0002 7C14.7252 7 13.6752 5.95 13.6752 4.675C13.6752 3.4 14.7252 2.35 16.0002 2.35ZM16.0002 0C13.4252 0 11.3252 2.1 11.3252 4.675C11.3252 7.25 13.4252 9.325 16.0002 9.325C18.5752 9.325 20.6752 7.225 20.6752 4.65C20.6752 2.075 18.5752 0 16.0002 0Z"
            fill="#9CC544" />
        <path
            d="M16.0002 13.6752C17.2752 13.6752 18.3252 14.7252 18.3252 16.0002C18.3252 17.2752 17.2752 18.3252 16.0002 18.3252C14.7252 18.3252 13.6752 17.2752 13.6752 16.0002C13.6752 14.7252 14.7252 13.6752 16.0002 13.6752ZM16.0002 11.3252C13.4252 11.3252 11.3252 13.4252 11.3252 16.0002C11.3252 18.5752 13.4252 20.6752 16.0002 20.6752C18.5752 20.6752 20.6752 18.5752 20.6752 16.0002C20.6752 13.4252 18.5752 11.3252 16.0002 11.3252Z"
            fill="#9CC544" />
        <path
            d="M16.0002 25.0248C17.2752 25.0248 18.3252 26.0748 18.3252 27.3498C18.3252 28.6248 17.2752 29.6748 16.0002 29.6748C14.7252 29.6748 13.6752 28.6248 13.6752 27.3498C13.6752 26.0498 14.7252 25.0248 16.0002 25.0248ZM16.0002 22.6748C13.4252 22.6748 11.3252 24.7748 11.3252 27.3498C11.3252 29.9248 13.4252 31.9998 16.0002 31.9998C18.5752 31.9998 20.6752 29.8998 20.6752 27.3248C20.6752 24.7498 18.5752 22.6748 16.0002 22.6748Z"
            fill="#9CC544" />
        <path d="M5.85 7.6748H3.5V12.9998H5.85V7.6748Z" fill="#9CC544" />
        <path d="M5.85 19.3252H3.5V24.6502H5.85V19.3252Z" fill="#9CC544" />
        <path d="M17.1752 7.6748H14.8252V12.9998H17.1752V7.6748Z" fill="#9CC544" />
        <path d="M12.8431 17.5065L6.17871 24.1709L7.8404 25.8326L14.5048 19.1682L12.8431 17.5065Z"
            fill="#9CC544" />
    </g>
    <defs>
        <clipPath id="clip0_5198_673">
            <rect width="32" height="32" fill="white" />
        </clipPath>
    </defs>
</svg>