<svg width="32" height="32" viewBox="0 0 32 32" fill="none" xmlns="http://www.w3.org/2000/svg">
    <path opacity="0.996" fill-rule="evenodd" clip-rule="evenodd"
        d="M0 0C10.6667 0 21.3333 0 32 0C32 10.6667 32 21.3333 32 32C21.3333 32 10.6667 32 0 32C0 21.3333 0 10.6667 0 0Z"
        fill="#3E59F5" />
    <path fill-rule="evenodd" clip-rule="evenodd"
        d="M21.9428 10.9714C21.0413 15.0583 20.7364 19.325 21.0286 23.7714C20.2745 19.9797 19.8174 16.0178 19.6571 11.8857C17.219 9.44757 14.781 9.44757 12.3428 11.8857C12.1826 16.0178 11.7254 19.9797 10.9714 23.7714C11.2635 19.325 10.9587 15.0583 10.0571 10.9714C11.1472 8.75674 12.9758 7.84245 15.5428 8.22856C18.2862 7.92831 20.4196 8.84259 21.9428 10.9714Z"
        fill="#D4D8FD" />
    <path fill-rule="evenodd" clip-rule="evenodd"
        d="M10.0574 10.9712C10.9589 15.058 11.2638 19.3247 10.9716 23.7712C9.77868 22.0366 9.16918 19.9033 9.14307 17.3712C9.14615 15.0623 9.45091 12.929 10.0574 10.9712Z"
        fill="#FAFAFE" />
    <path fill-rule="evenodd" clip-rule="evenodd"
        d="M21.9429 10.9712C22.502 13.1774 22.8067 15.4631 22.8572 17.8283C22.8268 20.2149 22.2173 22.1959 21.0286 23.7712C20.7365 19.3247 21.0413 15.058 21.9429 10.9712Z"
        fill="#FBFCFE" />
</svg>