<svg width="32" height="32" viewBox="0 0 32 32" fill="none" xmlns="http://www.w3.org/2000/svg">
    <path
        d="M6.25 24.25C6.25 22.7312 5.01877 21.5 3.5 21.5C1.98122 21.5 0.75 22.7312 0.75 24.25C0.75 25.7687 1.98122 27 3.5 27C5.01877 27 6.25 25.7687 6.25 24.25Z"
        fill="#6DB685" />
    <path
        d="M14.75 12.2632C14.75 10.7371 13.4628 9.5 11.875 9.5C10.2872 9.5 9 10.7371 9 12.2632V24.2369C9 25.763 10.2872 27 11.875 27C13.4628 27 14.75 25.763 14.75 24.2369V12.2632Z"
        fill="#057A55" />
    <path
        d="M23 18.75C23 17.2312 21.7688 16 20.25 16C18.7312 16 17.5 17.2312 17.5 18.75V24.25C17.5 25.7687 18.7312 27 20.25 27C21.7688 27 23 25.7687 23 24.25V18.75Z"
        fill="#6DB685" />
    <path
        d="M31.25 7.53125C31.25 5.9952 30.0187 4.75 28.5 4.75C26.9813 4.75 25.75 5.9952 25.75 7.53125V24.2188C25.75 25.7548 26.9813 27 28.5 27C30.0187 27 31.25 25.7548 31.25 24.2188V7.53125Z"
        fill="#057A55" />
</svg>