<svg width="32" height="32" viewBox="0 0 32 32" fill="none" xmlns="http://www.w3.org/2000/svg">
    <path fill-rule="evenodd" clip-rule="evenodd"
        d="M13.9578 0.0389024C18.8341 -0.24597 23.2005 1.03369 27.0567 3.87788C32.4715 8.86786 33.4378 14.5745 29.9557 20.9976C27.471 24.1595 24.5003 26.8225 21.0441 28.9868C19.3262 29.9553 17.6084 30.9235 15.8905 31.892C15.0801 32.1375 14.4 31.9644 13.8505 31.3732C13.7432 30.1993 13.7074 29.0234 13.7431 27.8455C5.48515 26.5755 0.904103 21.941 0 13.9422C0.557133 7.71268 3.84975 3.45868 9.87786 1.18022C11.243 0.714147 12.603 0.333715 13.9578 0.0389024Z"
        fill="#201E1F" />
    <path fill-rule="evenodd" clip-rule="evenodd"
        d="M13.5283 1.69925C18.5477 1.16032 22.8781 2.54375 26.5198 5.8495C29.3086 9.24645 29.7381 12.9125 27.8082 16.8476C24.9739 20.8115 21.0372 22.8175 15.9978 22.8655C11.2801 22.8339 7.48644 21.0354 4.61675 17.4702C1.5629 11.2276 3.17342 6.42024 9.44831 3.04808C10.811 2.52864 12.171 2.07902 13.5283 1.69925Z"
        fill="#FCFCFC" />
    <path fill-rule="evenodd" clip-rule="evenodd"
        d="M11.1667 8.54716C12.6907 8.50582 13.657 9.19754 14.0656 10.6223C14.3349 12.1114 13.8697 13.3219 12.6698 14.2537C11.0241 14.6522 9.98617 14.0642 9.55616 12.4899C9.14778 10.7923 9.68462 9.47804 11.1667 8.54716Z"
        fill="#211F20" />
    <path fill-rule="evenodd" clip-rule="evenodd"
        d="M19.7559 8.54688C22.2135 8.93272 23.1081 10.3161 22.4401 12.6971C21.9451 14.2103 20.9073 14.7291 19.3264 14.2535C18.1322 13.1404 17.7384 11.7916 18.1453 10.207C18.5808 9.54455 19.1177 8.99118 19.7559 8.54688Z"
        fill="#1F1D1E" />
</svg>