<svg width="32" height="32" viewBox="0 0 32 32" fill="none" xmlns="http://www.w3.org/2000/svg">
    <g clip-path="url(#clip0_5206_849)">
        <path fill-rule="evenodd" clip-rule="evenodd"
            d="M-0.0712891 -0.0712891C10.5954 -0.0712891 21.262 -0.0712891 31.9287 -0.0712891C31.9287 10.5954 31.9287 21.262 31.9287 31.9287C21.262 31.9287 10.5954 31.9287 -0.0712891 31.9287C-0.0712891 21.262 -0.0712891 10.5954 -0.0712891 -0.0712891Z"
            fill="#FEFDFE" />
        <path fill-rule="evenodd" clip-rule="evenodd"
            d="M19.2711 8.17797C18.4962 7.9728 17.7139 7.78318 16.9245 7.60908C16.6599 7.6367 16.3992 7.6841 16.1422 7.7513C15.8306 7.57451 15.4988 7.45599 15.1467 7.39575C15.2889 7.34835 15.4311 7.30093 15.5733 7.25353C14.8273 7.03935 14.0688 6.99195 13.2978 7.1113C12.4336 7.36005 11.5802 7.62079 10.7378 7.89353C10.7535 7.80572 10.8009 7.73461 10.88 7.68019C13.7753 6.51871 16.5723 6.68464 19.2711 8.17797Z"
            fill="#5E15B0" />
        <path fill-rule="evenodd" clip-rule="evenodd"
            d="M19.2711 8.17761C20.7414 8.9606 21.8556 10.0984 22.6134 11.5909C22.7278 12.218 22.5856 12.7869 22.1867 13.2976C19.9683 15.8536 17.2423 16.5883 14.0089 15.5021C13.2868 15.1811 12.6705 14.7306 12.16 14.1509C12.0189 13.9338 11.8056 13.839 11.52 13.8665C11.3231 13.8685 11.1572 13.9159 11.0222 14.0087C10.118 14.3 9.80982 14.9162 10.0978 15.8576C12.2918 18.1377 14.9703 19.0622 18.1333 18.6309C20.1576 18.3287 21.9591 17.5465 23.5378 16.2843C23.1862 20.9275 20.7211 23.7482 16.1422 24.7465C14.4841 24.9467 12.8722 24.7809 11.3067 24.2487C11.1025 24.0236 10.8655 23.8103 10.5956 23.6087C10.4117 23.539 10.222 23.5153 10.0267 23.5376C7.61596 22.0427 6.19374 19.862 5.76002 16.9954C5.7484 15.9489 5.7958 14.906 5.90224 13.8665C6.56881 11.1136 8.18067 9.12253 10.7378 7.89317C11.5802 7.62043 12.4336 7.35969 13.2978 7.11094C14.0688 6.99159 14.8273 7.03899 15.5733 7.25317C15.4311 7.30057 15.2889 7.34798 15.1467 7.39539C15.4988 7.45563 15.8306 7.57415 16.1422 7.75094C16.3992 7.68374 16.6599 7.63634 16.9245 7.60872C17.7139 7.78282 18.4962 7.97244 19.2711 8.17761Z"
            fill="#6002C4" />
        <path fill-rule="evenodd" clip-rule="evenodd"
            d="M25.8133 6.75586C28.3335 6.773 29.1631 7.95818 28.3022 10.3114C27.2903 11.3276 26.1999 11.4224 25.0311 10.5959C24.3715 9.78033 24.2292 8.87959 24.6044 7.89364C24.9654 7.46526 25.3683 7.086 25.8133 6.75586Z"
            fill="#600BC2" />
        <path fill-rule="evenodd" clip-rule="evenodd"
            d="M11.0225 14.0092C11.1574 13.9164 11.3233 13.869 11.5202 13.8669C11.8058 13.8395 12.0192 13.9343 12.1602 14.1514C11.791 14.0425 11.4118 13.9951 11.0225 14.0092Z"
            fill="#824FAA" />
        <path fill-rule="evenodd" clip-rule="evenodd"
            d="M5.90237 13.8662C5.79593 14.9057 5.74853 15.9486 5.76015 16.9951C5.59594 16.025 5.57223 15.0294 5.68904 14.0084C5.74345 13.9294 5.81456 13.882 5.90237 13.8662Z"
            fill="#DDBDEB" />
        <path fill-rule="evenodd" clip-rule="evenodd"
            d="M10.0269 23.5374C10.2222 23.5151 10.4118 23.5388 10.5957 23.6085C10.8657 23.8101 11.1027 24.0234 11.3069 24.2485C10.8404 24.0626 10.4137 23.8257 10.0269 23.5374Z"
            fill="#6930A7" />
    </g>
    <defs>
        <clipPath id="clip0_5206_849">
            <rect width="32" height="32" fill="white" />
        </clipPath>
    </defs>
</svg>