<svg width="32" height="32" viewBox="0 0 32 32" fill="none" xmlns="http://www.w3.org/2000/svg">
    <g clip-path="url(#clip0_5262_2265)">
        <rect width="32" height="32" rx="5" fill="black" />
        <path opacity="0.89" fill-rule="evenodd" clip-rule="evenodd"
            d="M13.0303 5.3955C20.9104 4.80346 25.2956 8.41829 26.1858 16.2399C25.3512 23.9508 21.0845 27.5063 13.3858 26.9066C6.54616 24.6695 3.87949 19.988 5.38584 12.8622C6.73158 9.08613 9.27974 6.59724 13.0303 5.3955ZM13.3858 8.95105C12.5792 9.47578 11.7496 10.0091 10.897 10.5511C7.8135 14.9143 8.16906 18.9439 11.9636 22.6399C18.0287 24.7539 21.4658 22.6205 22.2747 16.2399C21.8145 10.7915 18.8515 8.36193 13.3858 8.95105Z"
            fill="#FEFFFE" />
    </g>
    <defs>
        <clipPath id="clip0_5262_2265">
            <rect width="32" height="32" rx="5" fill="white" />
        </clipPath>
    </defs>
</svg>