<svg width="32" height="32" viewBox="0 0 32 32" fill="none" xmlns="http://www.w3.org/2000/svg">
    <g clip-path="url(#clip0_5332_5344)">
        <rect width="32" height="32" fill="#FAFAFA" />
        <path fill-rule="evenodd" clip-rule="evenodd"
            d="M21.1572 2.13335C21.7914 2.06933 22.3203 2.24651 22.744 2.66463C22.4729 2.77009 22.4288 2.947 22.6118 3.19591C22.9561 3.35131 23.2647 3.52822 23.5374 3.72719C22.5195 3.85496 21.9905 3.41214 21.9506 2.39899C21.6092 2.46195 21.3447 2.37349 21.1572 2.13335Z"
            fill="#B88679" />
        <path fill-rule="evenodd" clip-rule="evenodd"
            d="M22.7438 2.66455C24.2814 3.1257 25.6037 3.92262 26.7107 5.05531C26.0538 5.4612 26.0977 5.90376 26.843 6.3835C27.0604 7.07868 27.1926 7.78714 27.2397 8.50862C26.4859 6.51526 25.252 4.92142 23.5372 3.72711C23.2645 3.52814 22.9559 3.35123 22.6116 3.19583C22.4286 2.94693 22.4727 2.77001 22.7438 2.66455Z"
            fill="#D7825D" />
        <path fill-rule="evenodd" clip-rule="evenodd"
            d="M15.6032 1.86768C17.4555 1.9402 19.3067 2.02865 21.1569 2.13332C21.3444 2.37345 21.6089 2.46191 21.9503 2.39895C21.9902 3.4121 22.5192 3.85492 23.5371 3.72715C25.2519 4.92147 26.4859 6.5153 27.2396 8.50866C27.2396 9.1284 27.2396 9.7484 27.2396 10.3681C26.9447 12.1785 26.5038 13.9495 25.9173 15.6809C25.8133 16.1548 25.6372 16.5974 25.3883 17.0091C24.6002 17.7115 23.8068 18.4199 23.0082 19.1342C23.1856 16.9345 22.8773 14.8094 22.0825 12.7589C19.9758 10.9313 17.7279 10.71 15.3387 12.0948C14.3571 13.279 13.784 14.6513 13.6197 16.2122C13.511 17.5454 13.3788 18.8736 13.223 20.1968C11.8576 20.0852 10.5795 20.3509 9.38833 20.9937C8.78483 23.8778 8.56453 26.7998 8.72718 29.7598C6.67865 29.9256 4.65101 29.9256 2.64453 29.7598C3.66351 29.5829 4.72136 29.4057 5.81808 29.2285C5.43673 28.5512 5.12837 27.843 4.89247 27.1034C4.71607 22.4991 4.71607 17.8945 4.89247 13.2902C6.34648 7.4477 9.91673 3.64002 15.6032 1.86768Z"
            fill="#183663" />
        <path fill-rule="evenodd" clip-rule="evenodd"
            d="M15.6034 1.86771C9.91689 3.64006 6.34664 7.44773 4.89263 13.2902C4.71623 17.8945 4.71623 22.4991 4.89263 27.1035C5.12853 27.843 5.43689 28.5512 5.81825 29.2286C4.72152 29.4057 3.66367 29.5829 2.64469 29.7598C1.24172 29.5457 0.40443 28.7488 0.132298 27.3691C-0.0440992 19.5771 -0.0440992 11.7848 0.132298 3.99283C0.447802 2.96746 1.10896 2.30336 2.11577 2.00053C6.61084 1.86771 11.1067 1.82335 15.6034 1.86771Z"
            fill="#279DBA" />
        <path fill-rule="evenodd" clip-rule="evenodd"
            d="M23.0078 19.1341C23.0078 19.2226 23.0078 19.3113 23.0078 19.3998C19.9966 20.3263 16.9111 20.6804 13.7516 20.4623C13.5752 20.4623 13.3991 20.4623 13.2227 20.4623C13.2227 20.3739 13.2227 20.2851 13.2227 20.1967C13.3784 18.8735 13.5107 17.5453 13.6194 16.2121C13.7836 14.6512 14.3567 13.2789 15.3384 12.0947C17.7275 10.7099 19.9755 10.9312 22.0822 12.7588C22.8769 14.8093 23.1852 16.9344 23.0078 19.1341Z"
            fill="#279CBA" />
        <path fill-rule="evenodd" clip-rule="evenodd"
            d="M27.2393 10.3682C27.5196 11.3967 27.4755 12.4593 27.1071 13.5558C26.9077 14.4016 26.511 15.1101 25.917 15.681C26.5036 13.9495 26.9444 12.1785 27.2393 10.3682Z"
            fill="#313049" />
        <path fill-rule="evenodd" clip-rule="evenodd"
            d="M26.7104 5.05566C28.1692 5.81088 29.139 6.96216 29.6195 8.50898C29.4582 9.78856 29.5463 10.3198 29.884 10.1028C30.1484 10.1028 30.4129 10.1028 30.6774 10.1028C31.2632 12.336 31.5715 14.6383 31.603 17.0094C31.7794 20.3743 31.7794 23.7389 31.603 27.1037C31.4694 27.6398 31.3372 28.1711 31.2063 28.6976C30.4071 28.7783 29.6137 28.9111 28.8261 29.096C28.9142 29.1845 29.0025 29.2732 29.0906 29.3617C27.8563 29.5389 26.6224 29.5389 25.3881 29.3617C24.7375 28.9744 24.1644 28.4874 23.6691 27.9007C23.4607 24.9664 23.5046 22.0444 23.8013 19.1346C24.4236 18.5076 24.9525 17.7992 25.3881 17.0094C25.7893 17.0065 26.0979 16.8296 26.3137 16.4782C27.8534 13.9333 28.1621 11.2769 27.2394 8.50898C27.1923 7.7875 27.06 7.07904 26.8427 6.38386C26.0974 5.90412 26.0535 5.46156 26.7104 5.05566Z"
            fill="#F4793C" />
        <path fill-rule="evenodd" clip-rule="evenodd"
            d="M27.2399 8.50879C28.1626 11.2768 27.854 13.9331 26.3143 16.478C26.0985 16.8294 25.7899 17.0063 25.3887 17.0092C25.6375 16.5975 25.8137 16.155 25.9176 15.6811C26.5116 15.1102 26.9083 14.4017 27.1077 13.5559C27.4761 12.4594 27.5202 11.3968 27.2399 10.3683C27.2399 9.74853 27.2399 9.12853 27.2399 8.50879Z"
            fill="#C2806A" />
        <path fill-rule="evenodd" clip-rule="evenodd"
            d="M25.388 17.0093C24.9524 17.799 24.4235 18.5075 23.8012 19.1344C23.5367 19.3116 23.2723 19.4885 23.0078 19.6657C23.0078 19.5772 23.0078 19.4885 23.0078 19.4C23.0078 19.3116 23.0078 19.2229 23.0078 19.1344C23.8065 18.4201 24.5999 17.7116 25.388 17.0093Z"
            fill="#A07064" />
        <path fill-rule="evenodd" clip-rule="evenodd"
            d="M13.2235 20.1971C13.2235 20.2856 13.2235 20.3743 13.2235 20.4628C12.1566 20.4673 11.1868 20.7329 10.3144 21.2597C10.2263 21.2597 10.138 21.2597 10.0499 21.2597C9.70795 21.6162 9.48765 22.059 9.38875 22.5879C9.25651 24.977 9.21261 27.3678 9.25651 29.7601C9.08012 29.7601 8.90398 29.7601 8.72759 29.7601C8.56494 26.8001 8.78524 23.8781 9.38875 20.994C10.5799 20.3512 11.858 20.0855 13.2235 20.1971Z"
            fill="#3E354A" />
        <path fill-rule="evenodd" clip-rule="evenodd"
            d="M29.6202 8.50879C30.1132 8.85943 30.5541 9.30225 30.9426 9.83699C31.2512 10.8111 31.5596 11.7849 31.8682 12.759C32.0446 17.8062 32.0446 22.8533 31.8682 27.9005C31.7685 28.2835 31.5482 28.5492 31.207 28.6974C31.3379 28.1709 31.4702 27.6396 31.6037 27.1035C31.7801 23.7387 31.7801 20.3741 31.6037 17.0092C31.5722 14.6382 31.2639 12.3359 30.6781 10.1026C30.4136 10.1026 30.1492 10.1026 29.8847 10.1026C29.547 10.3197 29.4589 9.78837 29.6202 8.50879Z"
            fill="#DE8557" />
        <path fill-rule="evenodd" clip-rule="evenodd"
            d="M13.4872 27.9005C13.2587 28.2161 12.9943 28.5261 12.6938 28.8303C11.9867 29.0082 11.3697 29.3182 10.8426 29.76C10.4017 29.76 9.96115 29.76 9.52029 29.76C9.38568 26.8948 9.56181 24.0612 10.0492 21.2595C10.1373 21.2595 10.2256 21.2595 10.3137 21.2595C11.3512 21.0893 12.3651 21.0893 13.355 21.2595C13.4872 23.4715 13.5311 25.6851 13.4872 27.9005Z"
            fill="#F2793E" />
        <path fill-rule="evenodd" clip-rule="evenodd"
            d="M13.2235 20.4624C13.3999 20.4624 13.5761 20.4624 13.7525 20.4624C13.7525 20.5509 13.7525 20.6396 13.7525 20.728C13.8389 23.1671 13.7506 25.5579 13.488 27.9003C13.5319 25.6849 13.488 23.4713 13.3558 21.2593C12.3659 21.089 11.3519 21.089 10.3145 21.2593C11.1869 20.7326 12.1567 20.4669 13.2235 20.4624Z"
            fill="#DE9674" />
        <path fill-rule="evenodd" clip-rule="evenodd"
            d="M23.0085 19.6655C22.9646 22.412 23.0085 25.1568 23.1407 27.9003C23.7754 28.4925 24.3485 29.1125 24.8597 29.7598C24.1515 29.2958 23.402 28.8532 22.6118 28.4316C22.4354 25.5981 22.4354 22.7647 22.6118 19.9312C22.7131 19.7835 22.8453 19.695 23.0085 19.6655Z"
            fill="#FEEDDE" />
        <path fill-rule="evenodd" clip-rule="evenodd"
            d="M10.0491 21.2593C9.5617 24.061 9.38556 26.8946 9.52018 29.7597C9.43211 29.7597 9.34378 29.7597 9.25571 29.7597C9.21181 27.3674 9.25571 24.9766 9.38794 22.5875C9.48685 22.0586 9.70715 21.6158 10.0491 21.2593Z"
            fill="#CC866E" />
        <path fill-rule="evenodd" clip-rule="evenodd"
            d="M13.7519 20.728C14.0581 23.3379 14.1023 25.9943 13.8841 28.6972C13.4856 28.9642 13.1772 29.3183 12.9585 29.7598C12.2719 29.5704 11.5666 29.5704 10.8428 29.7598C11.3698 29.318 11.9868 29.008 12.694 28.83C12.9944 28.5259 13.2589 28.2159 13.4874 27.9003C13.75 25.5579 13.8383 23.1671 13.7519 20.728Z"
            fill="#FDEBDC" />
        <path fill-rule="evenodd" clip-rule="evenodd"
            d="M23.802 19.1343C23.5053 22.0441 23.4614 24.9661 23.6698 27.9004C24.1651 28.4872 24.7382 28.9741 25.3888 29.3614C26.6231 29.5386 27.857 29.5386 29.0913 29.3614C29.0032 29.2729 28.9149 29.1842 28.8268 29.0958C29.6144 28.9109 30.4078 28.778 31.207 28.6973C30.7103 28.8854 30.2695 29.1951 29.8847 29.627C28.2119 29.7599 26.5371 29.8039 24.8599 29.7599C24.3487 29.1125 23.7756 28.4925 23.1409 27.9004C23.0086 25.1569 22.9647 22.412 23.0086 19.6656C23.2731 19.4884 23.5376 19.3115 23.802 19.1343Z"
            fill="#E38350" />
    </g>
    <defs>
        <clipPath id="clip0_5332_5344">
            <rect width="32" height="32" fill="white" />
        </clipPath>
    </defs>
</svg>