<svg width="32" height="32" viewBox="0 0 32 32" fill="none" xmlns="http://www.w3.org/2000/svg">
    <g clip-path="url(#clip0_5429_200)">
        <path fill-rule="evenodd" clip-rule="evenodd"
            d="M-0.0710449 -0.0712891C10.5956 -0.0712891 21.2623 -0.0712891 31.929 -0.0712891C31.929 10.5954 31.929 21.262 31.929 31.9287C21.2623 31.9287 10.5956 31.9287 -0.0710449 31.9287C-0.0710449 21.262 -0.0710449 10.5954 -0.0710449 -0.0712891Z"
            fill="#FFFEFE" />
        <path fill-rule="evenodd" clip-rule="evenodd"
            d="M15.1467 3.48449C16.6142 3.27053 18.0364 3.46015 19.4134 4.05338C19.3511 4.04407 19.3036 4.06777 19.2712 4.12449C19.4014 4.17771 19.5201 4.24882 19.6267 4.33782C19.7439 5.59553 19.7202 6.82812 19.5556 8.0356C18.7905 7.13189 17.8423 6.5156 16.7112 6.18671C16.9889 5.39399 17.0838 4.54066 16.9956 3.62671C16.3862 3.51366 15.7698 3.46625 15.1467 3.48449Z"
            fill="#FECB07" />
        <path fill-rule="evenodd" clip-rule="evenodd"
            d="M19.4132 4.05372C20.8993 4.62034 22.1555 5.52107 23.1821 6.75595C23.969 7.98371 23.7557 9.00296 22.5421 9.81372C21.4048 10.1217 20.5514 9.76612 19.9821 8.74706C19.9003 8.47523 19.7581 8.23819 19.5554 8.03595C19.72 6.82847 19.7437 5.59588 19.6266 4.33817C19.5199 4.24917 19.4013 4.17805 19.271 4.12484C19.3034 4.06812 19.3509 4.04442 19.4132 4.05372Z"
            fill="#FEC304" />
        <path fill-rule="evenodd" clip-rule="evenodd"
            d="M16.7111 6.18628C17.8422 6.51517 18.7904 7.13146 19.5555 8.03517C19.7582 8.23741 19.9004 8.47445 19.9822 8.74628C18.0349 6.90867 15.8542 6.57682 13.44 7.75072C12.667 7.65383 11.9559 7.60642 11.3066 7.6085C12.8314 6.18332 14.6329 5.70925 16.7111 6.18628Z"
            fill="#F9A807" />
        <path fill-rule="evenodd" clip-rule="evenodd"
            d="M9.31546 6.61328C9.2228 10.546 9.2228 14.4807 9.31546 18.4177C7.9986 16.5772 7.28749 14.515 7.18213 12.2311C7.20686 10.0762 7.91797 8.2036 9.31546 6.61328Z"
            fill="#FECA06" />
        <path fill-rule="evenodd" clip-rule="evenodd"
            d="M11.3067 7.60846C11.9559 7.60639 12.667 7.65379 13.44 7.75069C12.6759 8.3724 12.0122 9.08351 11.4489 9.88402C11.0949 9.85526 10.763 9.92637 10.4534 10.0974C10.1447 10.6177 9.81281 11.1155 9.4578 11.5907C9.45265 9.98838 10.0689 8.66098 11.3067 7.60846Z"
            fill="#FDC809" />
        <path fill-rule="evenodd" clip-rule="evenodd"
            d="M15.1467 3.48427C15.7698 3.46603 16.3862 3.51344 16.9956 3.62649C17.0838 4.54044 16.9889 5.39377 16.7111 6.18649C14.633 5.70946 12.8315 6.18353 11.3067 7.60871C10.069 8.66123 9.45266 9.98863 9.45781 11.5909C9.81282 11.1158 10.1447 10.618 10.4534 10.0976C10.7631 9.92662 11.0949 9.85551 11.4489 9.88427C10.4388 12.3863 10.9129 14.5669 12.8711 16.4265C12.8088 16.4172 12.7614 16.4409 12.7289 16.4976C13.1583 17.1692 13.5612 17.8565 13.9378 18.5598C14.0089 20.8823 14.0326 23.2052 14.0089 25.5287C13.7366 25.4883 13.4996 25.5357 13.2978 25.6709C11.8626 23.3227 10.5352 20.9049 9.31559 18.4176C9.22293 14.4806 9.22293 10.5459 9.31559 6.61316C10.7849 4.72373 12.7286 3.68078 15.1467 3.48427Z"
            fill="#FDD505" />
        <path fill-rule="evenodd" clip-rule="evenodd"
            d="M24.6756 13.8669C24.4864 14.0564 24.2493 14.1749 23.9645 14.2225C22.4556 14.2758 21.0334 14.6314 19.6978 15.2891C19.7216 18.2287 19.6978 21.168 19.6267 24.1069C19.4832 24.3238 19.4121 24.5609 19.4134 24.818C18.9052 25.6914 18.3601 26.5447 17.7778 27.378C16.5813 28.697 15.3962 28.697 14.2223 27.378C14.0666 27.1536 13.9481 26.9165 13.8667 26.6669C14.959 26.4293 16.0019 26.05 16.9956 25.5291C17.0424 23.5129 16.995 21.5217 16.8534 19.5558C16.8534 19.5084 16.8534 19.4609 16.8534 19.4136C16.8534 18.7973 16.8534 18.1809 16.8534 17.5647C16.7936 16.1785 16.8647 14.8036 17.0667 13.4403C17.3331 13.1261 17.6413 12.8654 17.9911 12.658C19.84 12.5632 21.6889 12.5632 23.5378 12.658C24.1387 12.8559 24.518 13.2588 24.6756 13.8669Z"
            fill="#FECB02" />
        <path fill-rule="evenodd" clip-rule="evenodd"
            d="M24.6756 13.8662C24.6756 14.0084 24.6756 14.1507 24.6756 14.2929C23.7598 14.519 22.8591 14.8035 21.9733 15.1462C21.8549 16.8984 21.7838 18.6524 21.76 20.4084C21.5401 20.5511 21.5164 20.6933 21.6889 20.8351C21.0001 22.2138 20.2416 23.5413 19.4133 24.8173C19.4121 24.5602 19.4832 24.3231 19.6267 24.1062C19.6978 21.1673 19.7215 18.228 19.6978 15.2884C21.0334 14.6307 22.4556 14.2751 23.9645 14.2218C24.2493 14.1742 24.4864 14.0557 24.6756 13.8662Z"
            fill="#FEC503" />
        <path fill-rule="evenodd" clip-rule="evenodd"
            d="M24.6756 14.293C24.6607 14.8361 24.5422 15.3576 24.32 15.8574C23.4413 17.5206 22.5642 19.1797 21.6889 20.8352C21.5164 20.6934 21.5402 20.5512 21.76 20.4085C21.7838 18.6525 21.8549 16.8985 21.9734 15.1463C22.8591 14.8035 23.7598 14.5191 24.6756 14.293Z"
            fill="#FFBF08" />
        <path fill-rule="evenodd" clip-rule="evenodd"
            d="M12.8712 16.4268C13.5046 16.8382 14.1683 17.1702 14.8623 17.4223C15.4706 18.5763 16.1106 19.7141 16.7823 20.8356C16.8532 20.4115 16.8769 19.9849 16.8534 19.5556C16.9951 21.5216 17.0425 23.5127 16.9957 25.529C16.002 26.0498 14.959 26.4291 13.8668 26.6668C13.5698 26.4056 13.3802 26.0738 13.2979 25.6712C13.4997 25.5359 13.7367 25.4886 14.009 25.529C14.0327 23.2055 14.009 20.8826 13.9379 18.5601C13.5613 17.8568 13.1584 17.1694 12.729 16.4979C12.7615 16.4411 12.8089 16.4175 12.8712 16.4268Z"
            fill="#FDD001" />
        <path fill-rule="evenodd" clip-rule="evenodd"
            d="M14.8623 17.4221C15.1347 17.3818 15.3716 17.4291 15.5734 17.5644C15.9668 18.2108 16.3935 18.827 16.8534 19.4133C16.8534 19.4606 16.8534 19.5081 16.8534 19.5555C16.8769 19.9847 16.8531 20.4114 16.7823 20.8355C16.1106 19.7139 15.4706 18.5761 14.8623 17.4221Z"
            fill="#FBB800" />
        <path fill-rule="evenodd" clip-rule="evenodd"
            d="M15.5732 17.5645C15.9999 17.5645 16.4266 17.5645 16.8532 17.5645C16.8532 18.1807 16.8532 18.7971 16.8532 19.4133C16.3933 18.8271 15.9666 18.2109 15.5732 17.5645Z"
            fill="#F89D00" />
    </g>
    <defs>
        <clipPath id="clip0_5429_200">
            <rect width="32" height="32" fill="white" />
        </clipPath>
    </defs>
</svg>