<svg width="32" height="32" viewBox="0 0 32 32" fill="none" xmlns="http://www.w3.org/2000/svg">
    <path opacity="0.997" fill-rule="evenodd" clip-rule="evenodd"
        d="M5.12197 0C12.374 0 19.626 0 26.878 0C29.3712 0.662236 31.0243 2.22668 31.8371 4.69333C31.9602 8.45735 32.0135 12.2262 31.9971 16C32.0135 19.7738 31.9602 23.5426 31.8371 27.3067C31.0243 29.7733 29.3712 31.3378 26.878 32C19.626 32 12.374 32 5.12197 32C2.62877 31.3378 0.975738 29.7733 0.162872 27.3067C0.0398005 23.5426 -0.0135232 19.7738 0.00290051 16C-0.0135232 12.2262 0.0398005 8.45735 0.162872 4.69333C0.975738 2.22668 2.62877 0.662236 5.12197 0Z"
        fill="#FEFEFE" />
    <path fill-rule="evenodd" clip-rule="evenodd"
        d="M15.7867 4.6938C15.4648 4.67624 15.1449 4.69401 14.8269 4.74713C15.218 4.78269 15.6089 4.81825 16 4.8538C12.096 7.10725 8.18553 9.32947 4.2688 11.5205C6.58262 6.66573 10.4219 4.39016 15.7867 4.6938Z"
        fill="#2C8EFB" />
    <path fill-rule="evenodd" clip-rule="evenodd"
        d="M15.7867 4.69307C16.4621 4.74251 17.102 4.88473 17.7064 5.11973C17.7388 5.18906 17.7743 5.26016 17.813 5.33307C17.1924 5.74644 16.5702 6.13755 15.9467 6.5064C15.9112 6.47085 15.8756 6.43529 15.8401 6.39973C15.4282 6.69717 15.0193 7.01717 14.6136 7.35973C13.9284 7.32031 13.253 7.37364 12.5873 7.51973C12.1205 7.64832 11.8717 7.95054 11.8408 8.4264C11.7701 8.59087 11.699 8.76865 11.6275 8.95973C11.4357 9.15515 11.2402 9.19071 11.0409 9.0664C11.0185 9.2326 10.9652 9.37483 10.881 9.49307C10.8949 8.64618 10.504 8.37951 9.70785 8.69307C8.49911 9.52809 7.53928 10.577 6.82837 11.8397C6.78603 11.7304 6.715 11.7126 6.61507 11.7864C5.7107 12.3341 4.8042 12.8853 3.89557 13.4397C3.86592 13.342 3.8126 13.271 3.7356 13.2264C3.82817 12.6287 4.00595 12.0599 4.26883 11.5197C8.18556 9.32874 12.096 7.10652 16 4.85307C15.609 4.81752 15.218 4.78195 14.8269 4.7464C15.1449 4.69328 15.4649 4.67551 15.7867 4.69307Z"
        fill="#2887F8" />
    <path fill-rule="evenodd" clip-rule="evenodd"
        d="M17.7064 5.12012C19.3526 5.51623 20.7745 6.29845 21.9723 7.46678C21.6542 7.66106 21.3519 7.87439 21.0658 8.10678C21.0303 8.07123 20.9947 8.03567 20.9591 8.00012C20.567 8.25547 20.1581 8.48658 19.7327 8.69345C19.7682 8.729 19.8038 8.76457 19.8394 8.80012C19.4328 8.85029 19.1307 9.04585 18.9329 9.38678C18.8973 9.31567 18.8617 9.24457 18.8262 9.17345C18.7959 9.42791 18.6893 9.49903 18.5063 9.38678C18.209 9.55179 17.9602 9.76512 17.7597 10.0268C17.7242 9.99123 17.6886 9.95567 17.6531 9.92012C17.2742 10.193 16.8298 10.4419 16.32 10.6668C16.2155 10.8248 16.091 10.9671 15.9467 11.0935C15.9026 11.0447 15.8492 11.0091 15.7868 10.9868C15.4089 11.1231 15.089 11.3364 14.8269 11.6268C12.8793 11.5513 11.4573 12.3691 10.561 14.0801C9.58681 14.5912 8.68031 15.1245 7.84153 15.6801C7.77039 15.5379 7.69937 15.5379 7.62823 15.6801C7.60872 15.3745 7.55539 15.0901 7.46826 14.8268C7.84707 12.6717 8.94906 11.0005 10.7743 9.81345C10.8412 9.71566 10.8768 9.60899 10.881 9.49345C10.9652 9.37521 11.0186 9.23298 11.0409 9.06678C11.2402 9.19109 11.4358 9.15553 11.6275 8.96012C11.699 8.76903 11.7701 8.59125 11.8408 8.42678C11.8771 8.65921 11.9837 8.85476 12.1607 9.01345C13.0067 8.93191 13.8598 8.86081 14.7203 8.80012C15.1678 8.48213 15.2566 8.07325 14.9869 7.57345C14.8682 7.48758 14.7438 7.41647 14.6136 7.36012C15.0193 7.01756 15.4282 6.69756 15.8401 6.40012C15.8756 6.43567 15.9112 6.47123 15.9467 6.50678C16.5702 6.13793 17.1924 5.74683 17.8131 5.33345C17.7743 5.26054 17.7388 5.18944 17.7064 5.12012Z"
        fill="#217BF1" />
    <path fill-rule="evenodd" clip-rule="evenodd"
        d="M14.6137 7.36022C14.7439 7.41658 14.8682 7.48769 14.9869 7.57356C15.2566 8.07335 15.1678 8.48224 14.7203 8.80022C13.8599 8.86092 13.0067 8.93202 12.1608 9.01356C11.9837 8.85487 11.8771 8.65932 11.8408 8.42689C11.8717 7.95103 12.1206 7.64881 12.5874 7.52022C13.253 7.37413 13.9284 7.3208 14.6137 7.36022Z"
        fill="#FAFBFE" />
    <path fill-rule="evenodd" clip-rule="evenodd"
        d="M21.9723 7.4668C22.7374 8.10986 23.3772 8.85652 23.8919 9.7068C23.3476 9.7657 22.8854 9.9968 22.5055 10.4001C22.2666 10.5043 22.0178 10.5577 21.759 10.5601C21.7133 10.853 21.5357 11.0309 21.2257 11.0935C21.1632 11.0712 21.1099 11.0355 21.0658 10.9868C20.9591 11.129 20.8525 11.2713 20.7458 11.4135C20.5855 11.3777 20.4434 11.3777 20.3192 11.4135C20.1562 11.5446 20.0317 11.7046 19.946 11.8935C19.7327 11.929 19.5194 11.9646 19.3061 12.0001C19.2452 12.1287 19.1741 12.2531 19.0928 12.3735C18.7603 12.3097 18.5114 12.4519 18.3463 12.8001C18.1012 12.8319 17.8524 12.8319 17.5997 12.8001C16.8009 12.1163 15.8766 11.7251 14.8269 11.6268C15.0889 11.3365 15.4089 11.1231 15.7867 10.9868C15.8492 11.0091 15.9025 11.0447 15.9467 11.0935C16.091 10.9671 16.2155 10.8248 16.32 10.6668C16.8297 10.4419 17.2741 10.193 17.6531 9.92013C17.6886 9.95568 17.7242 9.99124 17.7597 10.0268C17.9602 9.76513 18.209 9.5518 18.5062 9.3868C18.6892 9.49904 18.7959 9.42793 18.8262 9.17346C18.8617 9.24458 18.8973 9.31568 18.9328 9.3868C19.1307 9.04586 19.4328 8.85031 19.8393 8.80013C19.8038 8.76458 19.7682 8.72902 19.7327 8.69346C20.1581 8.48659 20.567 8.25548 20.9591 8.00013C20.9946 8.03568 21.0303 8.07124 21.0658 8.1068C21.3519 7.8744 21.6541 7.66107 21.9723 7.4668Z"
        fill="#1B71ED" />
    <path fill-rule="evenodd" clip-rule="evenodd"
        d="M10.8808 9.49349C10.8766 9.60903 10.841 9.7157 10.7742 9.81349C8.94888 11.0006 7.8469 12.6717 7.46809 14.8268C7.39258 15.2839 7.33926 15.7461 7.30812 16.2135C7.07765 16.6001 6.7399 16.7245 6.29497 16.5868C6.12977 16.4573 6.00542 16.2973 5.9217 16.1068C5.86859 15.753 5.85078 15.3975 5.86838 15.0402C6.06077 13.9299 6.38071 12.8632 6.8282 11.8402C7.53911 10.5774 8.49894 9.52851 9.70768 8.69349C10.5038 8.37994 10.8948 8.6466 10.8808 9.49349Z"
        fill="#FAFBFE" />
    <path fill-rule="evenodd" clip-rule="evenodd"
        d="M23.8918 9.70703C24.3331 10.2523 24.6174 10.8745 24.745 11.5737C24.6638 12.2951 24.2729 12.7573 23.5719 12.9604C22.1835 13.4062 20.7971 13.8506 19.4126 14.2937C19.0998 14.2973 18.8154 14.2085 18.5594 14.027C18.2166 13.6314 17.8966 13.2226 17.5996 12.8004C17.8523 12.8322 18.1011 12.8322 18.3461 12.8004C18.5112 12.4521 18.7601 12.3099 19.0927 12.3737C19.1739 12.2534 19.2451 12.1289 19.306 12.0004C19.5193 11.9648 19.7326 11.9292 19.9459 11.8937C20.0316 11.7048 20.1561 11.5448 20.3191 11.4137C20.4433 11.378 20.5854 11.378 20.7457 11.4137C20.8524 11.2715 20.959 11.1292 21.0656 10.987C21.1098 11.0358 21.1631 11.0714 21.2256 11.0937C21.5355 11.0311 21.7132 10.8533 21.7589 10.5604C22.0177 10.5579 22.2665 10.5046 22.5054 10.4004C22.8853 9.99704 23.3475 9.76593 23.8918 9.70703Z"
        fill="#1C6BE9" />
    <path fill-rule="evenodd" clip-rule="evenodd"
        d="M6.82845 11.8401C6.38096 12.8632 6.06102 13.9298 5.86863 15.0401C5.62302 15.3044 5.39202 15.5889 5.17542 15.8935C5.07154 15.6398 5.00041 15.6754 4.96212 16.0001C4.91403 15.741 4.82508 15.7232 4.69551 15.9468C4.78509 16.1245 4.73177 16.1423 4.53553 16.0001C4.3617 16.1821 4.20173 16.3599 4.05562 16.5335C3.88936 16.4722 3.72939 16.4012 3.57571 16.3201C3.55587 16.0496 3.50255 15.8008 3.41574 15.5735C3.3702 14.7661 3.47685 13.9838 3.73568 13.2268C3.81268 13.2714 3.866 13.3424 3.89565 13.4401C4.80429 12.8857 5.71079 12.3345 6.61516 11.7868C6.71509 11.713 6.78611 11.7308 6.82845 11.8401Z"
        fill="#227DF3" />
    <path fill-rule="evenodd" clip-rule="evenodd"
        d="M27.0914 13.4397C27.97 13.2697 28.4854 13.6253 28.6377 14.5064C28.7271 15.6133 28.6916 16.7156 28.5311 17.813C28.1816 18.4113 27.6662 18.6068 26.9847 18.3997C25.3951 17.8358 23.7954 17.3025 22.1856 16.7997C21.435 16.3532 21.3639 15.8198 21.9723 15.1997C23.6902 14.6112 25.3965 14.0245 27.0914 13.4397Z"
        fill="#1560E4" />
    <path fill-rule="evenodd" clip-rule="evenodd"
        d="M10.561 14.0801C10.5019 14.4263 10.3953 14.7463 10.2411 15.0401C10.1543 15.2674 10.1009 15.5162 10.0811 15.7867C9.45924 16.2415 8.76604 16.6681 8.00148 17.0667C7.11791 17.6119 6.12257 18.1631 5.01536 18.7201C4.9486 18.8001 4.89527 18.889 4.85539 18.9867C4.81987 18.9512 4.78425 18.9156 4.74874 18.8801C4.54163 19.1419 4.27501 19.2841 3.94888 19.3067C3.5544 18.1083 3.37672 16.8639 3.41565 15.5734C3.50246 15.8007 3.55578 16.0496 3.57562 16.3201C3.7293 16.4011 3.88927 16.4722 4.05553 16.5334C4.20164 16.3599 4.36161 16.1821 4.53544 16.0001C4.73168 16.1423 4.785 16.1245 4.69541 15.9467C4.82499 15.7232 4.91394 15.741 4.96203 16.0001C5.00032 15.6754 5.07145 15.6398 5.17533 15.8934C5.39193 15.5889 5.62293 15.3044 5.86854 15.0401C5.85094 15.3974 5.86875 15.7529 5.92186 16.1067C6.00558 16.2973 6.12993 16.4573 6.29513 16.5867C6.74006 16.7245 7.07781 16.6 7.30827 16.2134C7.33942 15.746 7.39274 15.2838 7.46825 14.8267C7.55538 15.0901 7.6087 15.3745 7.62822 15.6801C7.69935 15.5379 7.77038 15.5379 7.84151 15.6801C8.68029 15.1245 9.58679 14.5911 10.561 14.0801Z"
        fill="#1D75EF" />
    <path fill-rule="evenodd" clip-rule="evenodd"
        d="M10.2409 15.04C10.0304 17.7514 11.2035 19.5291 13.7603 20.3734C13.8786 20.4576 14.0207 20.511 14.1869 20.5334C14.0676 20.6479 13.961 20.7723 13.8669 20.9067C13.8044 20.8844 13.7511 20.8488 13.707 20.8C13.6003 20.9422 13.4937 21.0845 13.387 21.2267C13.3515 21.1912 13.3159 21.1556 13.2804 21.12C13.0136 21.2776 12.747 21.4553 12.4805 21.6534C12.418 21.6311 12.3647 21.5955 12.3205 21.5467C12.0552 21.8223 11.7886 22.0179 11.5207 22.1334C11.5642 22.4385 11.4754 22.4564 11.2541 22.1867C11.1384 22.3865 10.9962 22.5643 10.8275 22.72C10.7833 22.6713 10.73 22.6357 10.6675 22.6134C10.5254 22.7556 10.3831 22.8979 10.2409 23.04C10.1784 23.0177 10.1251 22.9821 10.081 22.9334C9.75589 23.1381 9.47146 23.3869 9.22777 23.68C9.19226 23.6445 9.15664 23.6089 9.12113 23.5734C8.80726 23.7734 8.46951 23.9334 8.10798 24.0534C8.03428 24.1672 7.98096 24.2917 7.94801 24.4267C7.91516 24.3405 7.86183 24.2694 7.78803 24.2134C7.76287 24.2931 7.72725 24.3819 7.68139 24.48C7.51939 24.4447 7.37723 24.4625 7.2548 24.5334C5.64229 23.1226 4.5403 21.3804 3.94873 19.3067C4.27486 19.2841 4.54148 19.1419 4.74859 18.88C4.7841 18.9156 4.81972 18.9512 4.85523 18.9867C4.89512 18.889 4.94844 18.8 5.0152 18.72C6.12242 18.163 7.11776 17.6119 8.00133 17.0667C8.76588 16.6681 9.45909 16.2414 10.081 15.7867C10.1008 15.5162 10.1541 15.2673 10.2409 15.04Z"
        fill="#1869E8" />
    <path fill-rule="evenodd" clip-rule="evenodd"
        d="M7.25488 24.5337C7.37731 24.4629 7.51947 24.4451 7.68147 24.4804C7.72733 24.3822 7.76295 24.2934 7.78812 24.2137C7.86192 24.2697 7.91524 24.3408 7.94809 24.427C7.98104 24.292 8.03437 24.1675 8.10806 24.0537C8.4696 23.9337 8.80735 23.7737 9.12121 23.5737C9.15672 23.6092 9.19234 23.6448 9.22786 23.6804C9.47155 23.3872 9.75598 23.1384 10.081 22.9337C10.1252 22.9824 10.1785 23.0181 10.241 23.0404C10.3832 22.8982 10.5254 22.7559 10.6676 22.6137C10.7301 22.636 10.7834 22.6716 10.8276 22.7204C10.9963 22.5646 11.1384 22.3868 11.2542 22.187C11.4755 22.4567 11.5643 22.4389 11.5208 22.1337C11.7887 22.0182 12.0553 21.8227 12.3206 21.547C12.3648 21.5958 12.4181 21.6314 12.4806 21.6537C12.7471 21.4556 13.0137 21.2779 13.2805 21.1204C13.316 21.1559 13.3516 21.1915 13.3871 21.227C13.4938 21.0848 13.6004 20.9426 13.707 20.8004C13.7512 20.8491 13.8045 20.8847 13.867 20.907C13.9611 20.7726 14.0677 20.6483 14.187 20.5337C14.0208 20.5113 13.8786 20.458 13.7604 20.3737C15.8546 20.5175 17.4899 19.7175 18.6661 17.9737C18.9337 17.8312 19.2182 17.7422 19.5193 17.707C21.1415 18.1986 22.7412 18.7497 24.3185 19.3604C24.7242 19.7967 24.8487 20.3123 24.6917 20.907C23.2059 24.0629 20.7707 26.1074 17.3864 27.0404C13.5913 27.8603 10.2141 27.0248 7.25488 24.5337Z"
        fill="#145FE3" />
</svg>