<svg width="32" height="32" viewBox="0 0 32 32" fill="none" xmlns="http://www.w3.org/2000/svg">
    <g clip-path="url(#clip0_5204_828)">
        <path fill-rule="evenodd" clip-rule="evenodd"
            d="M-0.0458984 -0.0439453C10.6208 -0.0439453 21.2874 -0.0439453 31.9541 -0.0439453C31.9541 10.6227 31.9541 21.2894 31.9541 31.9561C21.2874 31.9561 10.6208 31.9561 -0.0458984 31.9561C-0.0458984 21.2894 -0.0458984 10.6227 -0.0458984 -0.0439453Z"
            fill="#FEFEFE" />
        <path fill-rule="evenodd" clip-rule="evenodd"
            d="M31.1316 13.6833C31.1316 14.1496 31.1316 14.6159 31.1316 15.0822C30.2478 15.0822 29.364 15.0822 28.4802 15.0822C28.3565 10.5808 26.3146 7.12725 22.3545 4.72153C18.3947 2.64566 14.3414 2.47079 10.1945 4.19694C6.30997 6.14888 3.99378 9.19445 3.24591 13.3336C3.09724 13.8956 3.03629 14.4785 3.06305 15.0822C2.17924 15.0822 1.29543 15.0822 0.411621 15.0822C0.586274 9.77771 2.96342 5.65388 7.54305 2.7106C13.1 -0.388135 18.6467 -0.358991 24.183 2.79803C28.2136 5.42037 30.5298 9.04879 31.1316 13.6833Z"
            fill="#1F3B45" />
        <path fill-rule="evenodd" clip-rule="evenodd"
            d="M20.9828 14.9943C20.1155 15.0812 19.2318 15.1103 18.3314 15.0817C18.3573 14.9143 18.3269 14.7686 18.2399 14.6445C17.9998 13.6572 17.3598 13.0452 16.3199 12.8085C16.155 12.7506 15.9721 12.7215 15.7714 12.721C15.4684 12.7073 15.1941 12.7656 14.9485 12.8959C14.029 13.2503 13.4804 13.8915 13.3028 14.8194C13.2201 14.8814 13.1897 14.9688 13.2114 15.0817C12.3414 15.1103 11.4881 15.0812 10.6514 14.9943C12.3101 11.448 14.0319 7.92165 15.8171 4.41504C17.5659 7.93243 19.2879 11.4589 20.9828 14.9943Z"
            fill="#1F3B45" />
        <path fill-rule="evenodd" clip-rule="evenodd"
            d="M16.3202 12.8091C15.8596 12.8015 15.4025 12.8306 14.9487 12.8966C15.1943 12.7662 15.4686 12.708 15.7716 12.7217C15.9724 12.7221 16.1552 12.7512 16.3202 12.8091Z"
            fill="#A7B1B4" />
        <path fill-rule="evenodd" clip-rule="evenodd"
            d="M3.24591 13.333C3.1921 13.9437 3.16163 14.5557 3.15448 15.1691C2.22368 15.1977 1.30939 15.1685 0.411621 15.0816C1.29543 15.0816 2.17924 15.0816 3.06305 15.0816C3.03629 14.4779 3.09724 13.895 3.24591 13.333Z"
            fill="#75858B" />
        <path fill-rule="evenodd" clip-rule="evenodd"
            d="M13.3029 14.8193C13.3029 14.9359 13.3029 15.0525 13.3029 15.1691C12.3866 15.1981 11.4723 15.169 10.5601 15.0816C10.5714 15.0286 10.6018 14.9994 10.6515 14.9942C11.4882 15.0811 12.3415 15.1102 13.2115 15.0816C13.1898 14.9688 13.2203 14.8813 13.3029 14.8193Z"
            fill="#65787F" />
        <path fill-rule="evenodd" clip-rule="evenodd"
            d="M18.2402 14.6445C18.3272 14.7686 18.3576 14.9143 18.3317 15.0817C19.2321 15.1103 20.1158 15.0812 20.9831 14.9943C21.0327 14.9995 21.0632 15.0286 21.0745 15.0817C20.1317 15.169 19.187 15.1981 18.2402 15.1691C18.2402 14.9943 18.2402 14.8194 18.2402 14.6445Z"
            fill="#728389" />
        <path fill-rule="evenodd" clip-rule="evenodd"
            d="M31.1314 13.6826C31.2218 14.1613 31.2523 14.6568 31.2228 15.169C30.292 15.1975 29.3777 15.1684 28.48 15.0815C29.3638 15.0815 30.2476 15.0815 31.1314 15.0815C31.1314 14.6153 31.1314 14.1489 31.1314 13.6826Z"
            fill="#75858B" />
        <path fill-rule="evenodd" clip-rule="evenodd"
            d="M0.411621 16.7432C1.32591 16.7432 2.24019 16.7432 3.15448 16.7432C3.42359 21.9674 6.01406 25.7123 10.9259 27.9781C16.2504 29.7703 20.959 28.8232 25.0516 25.1366C27.3319 22.7788 28.4748 19.981 28.4802 16.7432C29.3945 16.7432 30.3088 16.7432 31.223 16.7432C31.0248 22.2673 28.4953 26.5077 23.6345 29.4645C19.1026 31.7872 14.4398 32.0495 9.64591 30.2514C3.80144 27.4995 0.723349 22.9968 0.411621 16.7432Z"
            fill="#DEE0E1" />
        <path fill-rule="evenodd" clip-rule="evenodd"
            d="M10.4688 16.7433C11.383 16.7433 12.2973 16.7433 13.2116 16.7433C13.3274 18.1653 14.1198 18.9522 15.5888 19.1039C17.162 19.0274 18.0154 18.2406 18.1488 16.7433C19.0955 16.7143 20.0402 16.7434 20.983 16.8307C19.2165 20.3844 17.4489 23.9399 15.6802 27.4974C13.9123 23.913 12.1752 20.3283 10.4688 16.7433Z"
            fill="#DEE0E1" />
    </g>
    <defs>
        <clipPath id="clip0_5204_828">
            <rect width="32" height="32" fill="white" />
        </clipPath>
    </defs>
</svg>