<svg width="32" height="32" viewBox="0 0 32 32" fill="none" xmlns="http://www.w3.org/2000/svg">
    <g clip-path="url(#clip0_5327_5200)">
        <path opacity="0.996" fill-rule="evenodd" clip-rule="evenodd"
            d="M29.5938 31.9688C20.4896 31.9688 11.3854 31.9688 2.28125 31.9688C1.06152 31.5824 0.290687 30.7699 -0.03125 29.5312C-0.03125 20.5312 -0.03125 11.5312 -0.03125 2.53125C0.331307 1.13777 1.22714 0.314856 2.65625 0.0625C11.5104 0.0208333 20.3646 0.0208333 29.2188 0.0625C30.6469 0.303228 31.5323 1.12614 31.875 2.53125C31.9167 11.5312 31.9167 20.5312 31.875 29.5312C31.573 30.7809 30.8126 31.5934 29.5938 31.9688Z"
            fill="#3273DC" />
        <path fill-rule="evenodd" clip-rule="evenodd"
            d="M4.40623 24.5938C4.38543 18.9374 4.40627 13.2916 4.46873 7.65631C6.8296 8.45444 9.24629 8.67319 11.7187 8.31256C13.9154 7.96381 16.1029 7.568 18.2812 7.12506C20.7549 6.64125 23.234 6.59963 25.7187 7.00006C26.348 7.16125 26.9625 7.35913 27.5625 7.59381C27.6145 13.2606 27.6042 18.9273 27.5312 24.5938C25.4546 23.8206 23.3088 23.5393 21.0937 23.7501C20.552 23.8126 20.0104 23.8751 19.4687 23.9376C17.2195 24.354 14.9695 24.7707 12.7187 25.1876C10.6788 25.5191 8.6371 25.5399 6.59373 25.2501C5.83613 25.112 5.10697 24.8933 4.40623 24.5938Z"
            fill="#FEFEFE" />
        <path fill-rule="evenodd" clip-rule="evenodd"
            d="M4.46869 7.65625C4.40623 13.2916 4.3854 18.9374 4.40619 24.5938C4.32294 18.9374 4.32294 13.2708 4.40619 7.59375C4.44411 7.6015 4.46494 7.62231 4.46869 7.65625Z"
            fill="#CCDCF6" />
        <path fill-rule="evenodd" clip-rule="evenodd"
            d="M21.5938 10.9688C22.1771 10.9688 22.7604 10.9688 23.3438 10.9688C23.3438 13.7812 23.3438 16.5938 23.3438 19.4062C22.0872 19.37 20.8372 19.4429 19.5938 19.625C17.5846 19.9518 15.5846 20.3268 13.5938 20.75C11.9413 21.06 10.2746 21.1954 8.59375 21.1562C8.59375 18.3438 8.59375 15.5312 8.59375 12.7188C9.76419 12.7458 10.9308 12.6936 12.0938 12.5625C14.4951 12.1572 16.8909 11.7197 19.2812 11.25C20.0626 11.1671 20.8334 11.0733 21.5938 10.9688Z"
            fill="#3273DC" />
    </g>
    <defs>
        <clipPath id="clip0_5327_5200">
            <rect width="32" height="32" fill="white" />
        </clipPath>
    </defs>
</svg>