<svg width="32" height="32" viewBox="0 0 32 32" fill="none" xmlns="http://www.w3.org/2000/svg">
    <g clip-path="url(#clip0_5134_45)">
        <path
            d="M30.1626 32H1.83744C0.8224 32 0 31.1776 0 30.1626V1.83744C0 0.8224 0.8224 0 1.83744 0H30.1626C31.1776 0 32 0.8224 32 1.83744V30.1626C32 31.1776 31.1776 32 30.1626 32Z"
            fill="#FF7519" />
        <path
            d="M17.3082 14.5798V15.8335L13.1265 17.2249C12.8257 17.3254 12.5146 17.1014 12.5146 16.7839V13.9154C12.5146 13.5148 12.7706 13.1602 13.1508 13.0335L14.7962 12.4863L16.1166 12.926C16.8282 13.1634 17.3082 13.8297 17.3082 14.5798Z"
            fill="white" />
        <path
            d="M16.1166 12.9259L10.6107 11.091L10.61 11.0904C9.85929 10.8401 9.81769 9.82187 10.4871 9.48779C9.86889 9.76747 9.46313 10.3857 9.46313 11.075V22.5259C9.46313 23.2766 9.94313 23.9428 10.6548 24.1796L16.1607 26.0145C16.7252 26.2027 17.3076 25.7828 17.3076 25.1876V14.5796C17.3083 13.8296 16.8283 13.1633 16.1166 12.9259Z"
            fill="white" />
        <path opacity="0.5"
            d="M22.5371 6.67005V17.2793C22.5371 18.0288 22.0577 18.6944 21.3467 18.9325L17.3076 20.2784V15.8349L18.8507 15.3209C19.2308 15.1949 19.4868 14.8403 19.4868 14.4397V11.5705C19.4868 11.2525 19.1758 11.0291 18.8763 11.1296L14.7969 12.4864L10.6113 11.0912H10.6094C9.85995 10.8409 9.81771 9.82205 10.4872 9.48733C10.5256 9.46749 10.5678 9.45085 10.6113 9.43613L10.6555 9.42141L20.6523 6.08957C20.658 6.08765 20.6632 6.08573 20.6689 6.08381L21.3915 5.84253C21.8395 5.69277 22.2984 5.92637 22.4686 6.32509C22.5134 6.43197 22.5371 6.54717 22.5371 6.67005Z"
            fill="white" />
    </g>
    <defs>
        <clipPath id="clip0_5134_45">
            <rect width="32" height="32" fill="white" />
        </clipPath>
    </defs>
</svg>