<svg width="32" height="32" viewBox="0 0 32 32" fill="none" xmlns="http://www.w3.org/2000/svg">
    <g clip-path="url(#clip0_4981_870)">
        <path fill-rule="evenodd" clip-rule="evenodd"
            d="M-0.03125 -0.03125C10.6354 -0.03125 21.3021 -0.03125 31.9688 -0.03125C31.9688 10.6354 31.9688 21.3021 31.9688 31.9688C21.3021 31.9688 10.6354 31.9688 -0.03125 31.9688C-0.03125 21.3021 -0.03125 10.6354 -0.03125 -0.03125Z"
            fill="#190434" />
        <path fill-rule="evenodd" clip-rule="evenodd"
            d="M11.2181 18.2191C11.2143 18.1852 11.1935 18.1644 11.1556 18.1566C11.0931 20.9271 11.0722 23.698 11.0931 26.4691C10.1347 26.4691 9.17636 26.4691 8.21805 26.4691C8.18805 21.4466 8.2193 16.4257 8.3118 11.4066C9.11111 8.12819 11.1632 6.13858 14.4681 5.43787C17.6166 4.9772 20.1895 5.96679 22.1868 8.40662C23.7309 10.6871 24.0226 13.1246 23.0618 15.7191C22.0984 17.9951 20.4214 19.443 18.0306 20.0629C15.4049 20.6991 13.1341 20.0845 11.2181 18.2191Z"
            fill="#E9D9FE" />
        <path fill-rule="evenodd" clip-rule="evenodd"
            d="M15.0946 8.09423C17.134 7.86667 18.7485 8.57498 19.9384 10.2192C21.1748 12.5574 20.8519 14.6512 18.9696 16.5005C17.2815 17.7401 15.4898 17.9068 13.5946 17.0005C11.381 15.5264 10.683 13.516 11.5009 10.9692C12.2289 9.4178 13.4268 8.45948 15.0946 8.09423Z"
            fill="#190434" />
        <path fill-rule="evenodd" clip-rule="evenodd"
            d="M11.2187 18.2188C11.1771 20.9688 11.1354 23.7188 11.0937 26.4688C11.0729 23.6976 11.0937 20.9267 11.1562 18.1562C11.1942 18.164 11.215 18.1848 11.2187 18.2188Z"
            fill="#B6A4CB" />
    </g>
    <defs>
        <clipPath id="clip0_4981_870">
            <rect width="32" height="32" fill="white" />
        </clipPath>
    </defs>
</svg>