<svg width="32" height="32" viewBox="0 0 32 32" fill="none" xmlns="http://www.w3.org/2000/svg">
    <g clip-path="url(#clip0_5207_864)">
        <path opacity="0.997" fill-rule="evenodd" clip-rule="evenodd"
            d="M9.96875 0.28125C13.9688 0.270834 17.9688 0.28125 21.9688 0.3125C23.5543 0.340642 25.096 0.611475 26.5938 1.125C29.0599 2.25785 30.612 4.14327 31.25 6.78125C31.452 7.83456 31.577 8.89706 31.625 9.96875C31.6667 13.9688 31.6667 17.9688 31.625 21.9688C31.5921 23.5537 31.3213 25.0954 30.8125 26.5938C29.3598 29.618 26.9536 31.2534 23.5938 31.5C23.0529 31.5527 22.5113 31.5944 21.9688 31.625C17.9688 31.6667 13.9688 31.6667 9.96875 31.625C8.38319 31.5969 6.8415 31.326 5.34375 30.8125C2.87757 29.6796 1.32549 27.7943 0.6875 25.1562C0.485521 24.1029 0.360521 23.0404 0.3125 21.9688C0.270833 17.9688 0.270833 13.9688 0.3125 9.96875C0.345422 8.38381 0.616255 6.84213 1.125 5.34375C2.26084 2.87402 4.14626 1.32194 6.78125 0.6875C7.84475 0.48604 8.90725 0.350624 9.96875 0.28125Z"
            fill="#111626" />
        <path fill-rule="evenodd" clip-rule="evenodd"
            d="M15.7188 8.15613C19.288 8.11175 21.5693 9.79925 22.5625 13.2186C23.0548 16.2014 22.0651 18.5452 19.5938 20.2499C18.1174 21.0689 16.5549 21.298 14.9063 20.9374C14.0153 20.6221 13.255 20.1116 12.625 19.4061C12.6042 21.0519 12.5833 22.6978 12.5625 24.3436C12.5197 24.5034 12.426 24.6181 12.2813 24.6874C11.5521 24.7291 10.823 24.7291 10.0938 24.6874C9.93752 24.6144 9.82295 24.4999 9.75002 24.3436C9.70833 19.1353 9.70833 13.9269 9.75002 8.71863C9.87114 8.55575 10.0274 8.44119 10.2188 8.37488C10.8085 8.31581 11.3918 8.33669 11.9688 8.43738C12.0651 8.53606 12.138 8.65069 12.1875 8.78113C12.2545 9.22475 12.3483 9.66225 12.4688 10.0936C13.3275 9.0605 14.4108 8.41469 15.7188 8.15613Z"
            fill="#FCFCFC" />
        <path fill-rule="evenodd" clip-rule="evenodd"
            d="M15.531 10.7809C17.7887 10.6546 19.2158 11.6755 19.8123 13.8434C20.0353 15.383 19.5873 16.6851 18.4685 17.7497C16.9501 18.7911 15.4293 18.7911 13.906 17.7497C12.6033 16.5914 12.1553 15.1644 12.5623 13.4684C13.1105 12.076 14.1002 11.1802 15.531 10.7809Z"
            fill="#111726" />
    </g>
    <defs>
        <clipPath id="clip0_5207_864">
            <rect width="32" height="32" fill="white" />
        </clipPath>
    </defs>
</svg>