<svg width="32" height="32" viewBox="0 0 32 32" fill="none" xmlns="http://www.w3.org/2000/svg">
    <g clip-path="url(#clip0_5234_714)">
        <path fill-rule="evenodd" clip-rule="evenodd"
            d="M-0.0800781 -0.0800781C10.5866 -0.0800781 21.2532 -0.0800781 31.9199 -0.0800781C31.9199 10.5866 31.9199 21.2532 31.9199 31.9199C21.2532 31.9199 10.5866 31.9199 -0.0800781 31.9199C-0.0800781 21.2532 -0.0800781 10.5866 -0.0800781 -0.0800781Z"
            fill="#FEFEFE" />
        <path fill-rule="evenodd" clip-rule="evenodd"
            d="M19.7598 2.95965C19.4931 2.95965 19.2265 2.95965 18.9598 2.95965C18.9977 3.16621 18.9444 3.32621 18.7998 3.43965C18.7998 3.17298 18.7998 2.90632 18.7998 2.63965C19.1656 2.65485 19.4856 2.7615 19.7598 2.95965Z"
            fill="#F8C8C4" />
        <path fill-rule="evenodd" clip-rule="evenodd"
            d="M19.7602 2.95996C22.2618 3.99444 24.1285 5.72777 25.3602 8.15996C25.4638 8.39031 25.5171 8.63031 25.5202 8.87996C25.9909 10.5626 26.0974 12.2693 25.8402 14C25.8402 14.0533 25.8402 14.1066 25.8402 14.16C25.695 14.505 25.5885 14.8784 25.5202 15.28C23.3456 20.2576 19.559 22.2843 14.1602 21.36C14.2697 20.6017 14.4297 19.8552 14.6402 19.12C14.8713 18.57 15.0313 17.9835 15.1202 17.36C15.4987 15.7928 15.952 14.2461 16.4802 12.72C16.6242 11.9199 16.7576 11.1199 16.8802 10.32C16.9869 10.32 17.0402 10.2666 17.0402 10.16C17.2714 9.61012 17.4314 9.02345 17.5202 8.39996C17.9459 6.75274 18.3726 5.09942 18.8002 3.43996C18.9448 3.32652 18.9981 3.16652 18.9602 2.95996C19.2269 2.95996 19.4934 2.95996 19.7602 2.95996Z"
            fill="#E74448" />
        <path fill-rule="evenodd" clip-rule="evenodd"
            d="M17.5201 8.40039C17.4313 9.02388 17.2713 9.61055 17.0401 10.1604C17.0292 9.50913 17.1892 8.92247 17.5201 8.40039Z"
            fill="#FBB5B6" />
        <path fill-rule="evenodd" clip-rule="evenodd"
            d="M16.56 10.1599C15.3867 9.94654 14.2134 9.94654 13.04 10.1599C13.399 9.95 13.8256 9.84334 14.32 9.83987C15.106 9.82723 15.8527 9.9339 16.56 10.1599Z"
            fill="#A1A9B8" />
        <path fill-rule="evenodd" clip-rule="evenodd"
            d="M16.5598 10.16C16.6145 10.2941 16.7211 10.3475 16.8798 10.32C16.7572 11.1199 16.6238 11.9199 16.4798 12.72C15.9516 14.2461 15.4983 15.7928 15.1198 17.36C15.021 17.3778 14.941 17.431 14.8798 17.52C14.7477 18.0469 14.6677 18.5802 14.6398 19.12C14.4293 19.8552 14.2693 20.6018 14.1598 21.36C14.0257 21.4147 13.9723 21.5213 13.9998 21.68C13.748 21.9363 13.6413 22.2563 13.6798 22.64C13.5276 22.867 13.4743 23.1336 13.5198 23.44C13.2301 23.8632 13.0701 24.3432 13.0398 24.88C12.8188 25.5579 12.6588 26.2512 12.5598 26.96C12.308 27.2163 12.2013 27.5363 12.2398 27.92C12.1537 28.1787 12.1004 28.4454 12.0798 28.72C11.7221 28.7672 11.4021 28.7138 11.1198 28.56C10.8746 28.2808 10.5546 28.1208 10.1598 28.08C9.59121 27.877 9.11121 27.557 8.71978 27.12C8.54625 26.7861 8.27959 26.5728 7.91978 26.48C6.4069 24.9562 5.42023 23.1429 4.95978 21.04C4.82849 19.9446 4.85514 18.8779 5.03978 17.84C5.27095 17.2901 5.43095 16.7035 5.51978 16.08C5.59797 15.8408 5.70465 15.6274 5.83978 15.44C6.06479 15.3643 6.17146 15.2043 6.15978 14.96C6.25743 14.6505 6.41743 14.3839 6.63978 14.16C6.86479 14.0843 6.97146 13.9243 6.95978 13.68C7.86185 12.4025 9.03519 11.4959 10.4798 10.96C10.9049 10.8904 11.2783 10.7304 11.5998 10.48C12.0348 10.2539 12.5148 10.1472 13.0398 10.16C14.2131 9.94667 15.3865 9.94667 16.5598 10.16Z"
            fill="#14244E" />
        <path fill-rule="evenodd" clip-rule="evenodd"
            d="M11.6 10.4797C11.2785 10.7302 10.9051 10.8902 10.48 10.9597C10.7481 10.5864 11.1214 10.4264 11.6 10.4797Z"
            fill="#626C85" />
        <path fill-rule="evenodd" clip-rule="evenodd"
            d="M25.52 8.87988C25.8749 9.39497 26.0616 9.98164 26.08 10.6399C26.1867 11.5466 26.1867 12.4532 26.08 13.3599C26.0464 13.6092 25.9664 13.8225 25.84 13.9999C26.0973 12.2692 25.9907 10.5626 25.52 8.87988Z"
            fill="#F08A8A" />
        <path fill-rule="evenodd" clip-rule="evenodd"
            d="M6.96002 13.6797C6.9717 13.924 6.86503 14.084 6.64002 14.1597C6.62834 13.9154 6.73502 13.7554 6.96002 13.6797Z"
            fill="#69728A" />
        <path fill-rule="evenodd" clip-rule="evenodd"
            d="M6.16022 14.96C6.1719 15.2043 6.06523 15.3643 5.84022 15.44C5.82854 15.1957 5.93521 15.0357 6.16022 14.96Z"
            fill="#77819A" />
        <path fill-rule="evenodd" clip-rule="evenodd"
            d="M25.84 14.1602C25.8663 14.5901 25.8395 15.0168 25.76 15.4402C25.6987 15.3512 25.6187 15.2979 25.52 15.2802C25.5883 14.8786 25.6949 14.5052 25.84 14.1602Z"
            fill="#FBC9C6" />
        <path fill-rule="evenodd" clip-rule="evenodd"
            d="M5.52007 16.0801C5.43124 16.7036 5.27124 17.2902 5.04007 17.8401C5.02916 17.1889 5.18916 16.6022 5.52007 16.0801Z"
            fill="#ADB5C3" />
        <path fill-rule="evenodd" clip-rule="evenodd"
            d="M15.1201 17.3604C15.0313 17.9839 14.8713 18.5704 14.6401 19.1204C14.668 18.5805 14.748 18.0472 14.8801 17.5204C14.9414 17.4314 15.0214 17.3781 15.1201 17.3604Z"
            fill="#6B465E" />
        <path fill-rule="evenodd" clip-rule="evenodd"
            d="M14 21.6797C14.0385 22.0634 13.9318 22.3834 13.68 22.6397C13.6415 22.256 13.7482 21.936 14 21.6797Z"
            fill="#A5ADBE" />
        <path fill-rule="evenodd" clip-rule="evenodd"
            d="M13.52 23.4404C13.5156 23.987 13.3556 24.467 13.04 24.8804C13.0704 24.3436 13.2304 23.8636 13.52 23.4404Z"
            fill="#9BA1B4" />
        <path fill-rule="evenodd" clip-rule="evenodd"
            d="M7.91992 26.4805C8.27973 26.5733 8.54639 26.7865 8.71992 27.1205C8.36011 27.0277 8.09346 26.8144 7.91992 26.4805Z"
            fill="#545F7C" />
        <path fill-rule="evenodd" clip-rule="evenodd"
            d="M12.5601 26.96C12.5986 27.3436 12.4919 27.6636 12.2401 27.92C12.2016 27.5363 12.3083 27.2163 12.5601 26.96Z"
            fill="#8892A6" />
        <path fill-rule="evenodd" clip-rule="evenodd"
            d="M10.1602 28.0801C10.5549 28.1209 10.8749 28.2809 11.1202 28.5601C10.7254 28.5193 10.4054 28.3593 10.1602 28.0801Z"
            fill="#69748C" />
    </g>
    <defs>
        <clipPath id="clip0_5234_714">
            <rect width="32" height="32" fill="white" />
        </clipPath>
    </defs>
</svg>