<svg width="32" height="32" viewBox="0 0 32 32" fill="none" xmlns="http://www.w3.org/2000/svg">
    <g clip-path="url(#clip0_5188_471)">
        <path fill-rule="evenodd" clip-rule="evenodd"
            d="M-0.0800781 -0.0800781C5.09325 -0.0800781 10.2666 -0.0800781 15.4399 -0.0800781C15.295 0.226599 15.0817 0.493266 14.7999 0.719922C13.9203 1.07919 13.1203 1.55919 12.3999 2.15992C12.3388 2.86642 12.1788 3.50642 11.9199 4.07992C11.6348 3.88479 11.3148 3.77813 10.9599 3.75992C9.99992 4.29325 9.03992 4.82659 8.07992 5.35992C7.83818 5.52032 7.57151 5.62699 7.27992 5.67992C7.2796 6.6436 7.22626 7.6036 7.11992 8.55992C6.19717 8.94509 5.39717 9.53175 4.71992 10.3199C3.75549 11.4986 2.84882 12.7253 1.99992 13.9999C1.74667 14.3983 1.58667 14.825 1.51992 15.2799C1.28902 15.4135 1.12902 15.6269 1.03992 15.9199C0.73893 16.7692 0.472263 17.6225 0.239922 18.4799C0.294828 18.7972 0.18816 19.0106 -0.0800781 19.1199C-0.0800781 12.7199 -0.0800781 6.31992 -0.0800781 -0.0800781Z"
            fill="#FCFEFD" />
        <path fill-rule="evenodd" clip-rule="evenodd"
            d="M16.0801 0.240234C17.1114 0.836788 18.1247 1.47679 19.1201 2.16023C19.279 2.89937 19.3324 3.64604 19.2801 4.40023C19.4022 4.5231 19.5622 4.6031 19.7601 4.64023C19.6012 7.64135 19.5479 10.6547 19.6001 13.6802C18.8562 14.6374 18.003 15.4907 17.0401 16.2402C17.1575 16.047 17.2108 15.8336 17.2001 15.6002C16.8879 15.644 16.6479 15.5373 16.4801 15.2802C16.5278 12.8814 16.5278 10.4814 16.4801 8.08023C16.3569 7.90454 16.2236 7.90454 16.0801 8.08023C16.0801 5.46691 16.0801 2.85356 16.0801 0.240234Z"
            fill="#01153F" />
        <path fill-rule="evenodd" clip-rule="evenodd"
            d="M15.4399 -0.0800781C15.6532 -0.0800781 15.8666 -0.0800781 16.0799 -0.0800781C16.0799 0.0265886 16.0799 0.133255 16.0799 0.239922C15.7606 8.61157 15.654 17.0382 15.7599 25.5199C15.7066 25.5199 15.6532 25.5199 15.5999 25.5199C15.4421 19.9268 15.3887 14.3268 15.4399 8.71992C15.2065 8.70914 14.9932 8.76247 14.7999 8.87992C14.9738 8.48243 15.0805 8.05578 15.1199 7.59992C15.1137 7.20757 15.007 6.88757 14.7999 6.63992C14.8513 6.39223 15.0113 6.28555 15.2799 6.31992C15.4042 4.61621 15.4576 2.90954 15.4399 1.19992C15.2284 1.22712 15.0417 1.17378 14.8799 1.03992C14.8002 1.51698 14.7736 1.99698 14.7999 2.47992C14.5866 2.47992 14.3732 2.47992 14.1599 2.47992C14.1864 3.12213 14.1597 3.76213 14.0799 4.39992C13.9664 4.63565 13.7797 4.74231 13.5199 4.71992C13.7979 4.01048 13.9045 3.26381 13.8399 2.47992C13.5212 2.45248 13.2546 2.55914 13.0399 2.79992C12.8814 3.43119 12.828 4.07119 12.8799 4.71992C12.7481 4.10995 12.6681 3.46995 12.6399 2.79992C12.6533 3.40973 12.5199 3.94306 12.2399 4.39992C12.0266 4.39992 11.9199 4.29325 11.9199 4.07992C12.1788 3.50642 12.3388 2.86642 12.3999 2.15992C13.1203 1.55919 13.9203 1.07919 14.7999 0.719922C15.0817 0.493266 15.295 0.226599 15.4399 -0.0800781Z"
            fill="#2A96E1" />
        <path fill-rule="evenodd" clip-rule="evenodd"
            d="M13.52 4.7198C13.3067 4.7198 13.0934 4.7198 12.88 4.7198C12.8282 4.07106 12.8815 3.43106 13.04 2.7998C13.2547 2.55901 13.5213 2.45236 13.84 2.4798C13.9046 3.26369 13.798 4.01036 13.52 4.7198Z"
            fill="#D7F4FB" />
        <path fill-rule="evenodd" clip-rule="evenodd"
            d="M21.04 3.75977C22.2658 3.92391 23.4925 4.16391 24.72 4.47977C25.2429 4.659 25.6696 4.95234 26 5.35977C25.737 5.32561 25.497 5.37893 25.28 5.51977C25.358 5.76677 25.438 6.03345 25.52 6.31977C25.3005 6.15791 25.0872 5.99791 24.88 5.83977C24.4772 5.39874 23.9972 5.07874 23.44 4.87977C23.1576 4.72594 22.8376 4.67261 22.48 4.71977C21.9512 4.45495 21.4712 4.13495 21.04 3.75977Z"
            fill="#2E9ACC" />
        <path fill-rule="evenodd" clip-rule="evenodd"
            d="M22.48 4.71972C22.8376 4.67257 23.1576 4.7259 23.44 4.87972C23.2334 4.84175 23.0734 4.89508 22.96 5.03972C22.6913 5.07409 22.5313 4.96742 22.48 4.71972Z"
            fill="#48877D" />
        <path fill-rule="evenodd" clip-rule="evenodd"
            d="M22.96 5.04001C23.0734 4.89537 23.2334 4.84204 23.44 4.88001C23.9971 5.07898 24.4771 5.39898 24.88 5.84001C24.6734 5.80204 24.5134 5.85537 24.4 6.00001C24.2932 5.89333 24.1867 5.78668 24.08 5.68001C23.9116 5.70393 23.7516 5.67725 23.6 5.60001C23.4348 5.33972 23.2214 5.15306 22.96 5.04001Z"
            fill="#9BBF5C" />
        <path fill-rule="evenodd" clip-rule="evenodd"
            d="M12.2401 4.55957C12.1112 8.13219 12.0046 11.7055 11.9201 15.2796C11.8134 16.1329 11.7068 16.9863 11.6001 17.8396C11.6801 13.5198 11.7601 9.19981 11.8401 4.87957C11.9068 4.67861 12.0401 4.57195 12.2401 4.55957Z"
            fill="#022257" />
        <path fill-rule="evenodd" clip-rule="evenodd"
            d="M14.8002 6.63965C15.0072 6.8873 15.1139 7.2073 15.1202 7.59965C15.0807 8.0555 14.974 8.48216 14.8002 8.87965C14.5868 8.87965 14.3735 8.87965 14.1602 8.87965C14.1602 8.13298 14.1602 7.38632 14.1602 6.63965C14.3735 6.63965 14.5868 6.63965 14.8002 6.63965Z"
            fill="#CEF0F9" />
        <path fill-rule="evenodd" clip-rule="evenodd"
            d="M20.5598 3.75977C20.7881 6.52741 20.8948 9.30074 20.8798 12.0798C20.5737 12.7063 20.147 13.2396 19.5998 13.6798C19.5476 10.6542 19.6009 7.64089 19.7598 4.63977C19.5619 4.60263 19.4019 4.52263 19.2798 4.39977C19.7796 4.32525 20.2062 4.11193 20.5598 3.75977Z"
            fill="#045080" />
        <path fill-rule="evenodd" clip-rule="evenodd"
            d="M24.3999 5.99997C24.5133 5.85533 24.6733 5.802 24.8799 5.83997C25.0871 5.99811 25.3004 6.15811 25.5199 6.31997C26.1252 6.71179 26.5519 7.24512 26.7999 7.91997C26.9276 8.31458 27.1409 8.63458 27.4399 8.87997C27.4681 9.39634 27.5748 9.87634 27.7599 10.32C27.9671 11.3382 27.9671 12.3515 27.7599 13.36C27.5999 13.36 27.4399 13.36 27.2799 13.36C27.0983 13.0859 26.8316 12.9792 26.4799 13.04C26.3732 13.04 26.2666 13.04 26.1599 13.04C25.933 12.7507 25.613 12.644 25.1999 12.72C25.0109 12.0412 24.9042 11.3478 24.8799 10.64C24.9065 9.83819 24.8797 9.03819 24.7999 8.23997C24.7386 8.15101 24.6586 8.09768 24.5599 8.07997C24.6108 7.3548 24.5575 6.66147 24.3999 5.99997Z"
            fill="#F8F210" />
        <path fill-rule="evenodd" clip-rule="evenodd"
            d="M8.08012 5.36035C8.04508 5.54835 8.09841 5.70835 8.24012 5.84035C8.3882 5.65787 8.52153 5.65787 8.64012 5.84035C8.7697 6.45755 8.74305 7.04422 8.56012 7.60035C8.56012 7.06702 8.56012 6.53368 8.56012 6.00035C8.29345 6.00035 8.02679 6.00035 7.76012 6.00035C7.76012 6.53368 7.76012 7.06702 7.76012 7.60035C7.92012 7.60035 8.08012 7.60035 8.24012 7.60035C8.13077 7.86859 7.91743 7.97526 7.60012 7.92035C7.6266 7.27814 7.59993 6.63814 7.52012 6.00035C7.39153 6.84056 7.4182 7.66723 7.60012 8.48035C7.44844 8.5576 7.28844 8.58427 7.12012 8.56035C7.22645 7.60403 7.2798 6.64403 7.28012 5.68035C7.5717 5.62742 7.83837 5.52075 8.08012 5.36035Z"
            fill="#51A9E2" />
        <path fill-rule="evenodd" clip-rule="evenodd"
            d="M20.5601 3.75977C20.7201 3.75977 20.8801 3.75977 21.0401 3.75977C21.4713 4.13495 21.9513 4.45495 22.4801 4.71977C22.5314 4.96746 22.6914 5.07413 22.9601 5.03977C23.2215 5.15282 23.4349 5.33948 23.6001 5.59977C23.7517 5.67701 23.9117 5.70369 24.0801 5.67977C24.2617 6.73821 24.3684 7.80487 24.4001 8.87977C24.3821 9.87597 24.4887 10.836 24.7201 11.7598C24.645 12.2227 24.805 12.5427 25.2001 12.7198C25.3068 12.8264 25.4133 12.9331 25.5201 13.0398C25.0285 12.9898 24.5753 13.0964 24.1601 13.3598C23.9516 13.2832 23.765 13.1766 23.6001 13.0398C23.2463 12.9651 22.9263 12.8051 22.6401 12.5598C22.2253 11.7306 21.6386 11.5706 20.8801 12.0798C20.8951 9.30074 20.7884 6.52741 20.5601 3.75977Z"
            fill="#02153E" />
        <path fill-rule="evenodd" clip-rule="evenodd"
            d="M25.9998 5.35953C26.2859 5.3139 26.5526 5.36723 26.7998 5.51953C27.1359 5.96265 27.5627 6.28265 28.0798 6.47953C28.9438 7.07369 29.4771 7.87369 29.6798 8.87953C29.2233 8.74518 28.85 8.47851 28.5598 8.07953C28.4396 8.21969 28.3596 8.37969 28.3198 8.55953C28.2691 8.2714 28.1623 8.21807 27.9998 8.39953C27.9465 8.55953 27.8931 8.71953 27.8398 8.87953C27.8185 8.41332 27.6318 8.04 27.2798 7.75953C27.1521 7.83264 27.0988 7.93931 27.1198 8.07953C27.0131 8.0262 26.9065 7.97286 26.7998 7.91953C26.5518 7.24468 26.1251 6.71135 25.5198 6.31953C25.4377 6.03321 25.3577 5.76654 25.2798 5.51953C25.4967 5.3787 25.7367 5.32537 25.9998 5.35953Z"
            fill="#1973A8" />
        <path fill-rule="evenodd" clip-rule="evenodd"
            d="M26.7998 7.91992C26.9065 7.97325 27.0131 8.02659 27.1198 8.07992C27.2704 8.32784 27.3769 8.59451 27.4398 8.87992C27.1408 8.63453 26.9275 8.31453 26.7998 7.91992Z"
            fill="#85B358" />
        <path fill-rule="evenodd" clip-rule="evenodd"
            d="M24.0801 5.67969C24.1868 5.78636 24.2934 5.89302 24.4001 5.99969C24.5577 6.66119 24.611 7.35452 24.5601 8.07969C24.5601 8.34636 24.5601 8.61302 24.5601 8.87969C24.5068 8.87969 24.4534 8.87969 24.4001 8.87969C24.3684 7.80479 24.2617 6.73814 24.0801 5.67969Z"
            fill="#5C5E2B" />
        <path fill-rule="evenodd" clip-rule="evenodd"
            d="M24.5598 8.08008C24.6586 8.09779 24.7386 8.15112 24.7998 8.24008C24.8797 9.0383 24.9064 9.8383 24.8798 10.6401C24.8266 10.6401 24.7731 10.6401 24.7198 10.6401C24.6008 10.0611 24.5475 9.47445 24.5598 8.88008C24.5598 8.61341 24.5598 8.34675 24.5598 8.08008Z"
            fill="#9DA21F" />
        <path fill-rule="evenodd" clip-rule="evenodd"
            d="M17.0401 16.24C16.8268 16.24 16.7201 16.3467 16.7201 16.56C16.6134 19.5207 16.5068 22.5074 16.4001 25.52C16.1889 22.5811 16.1889 19.6479 16.4001 16.72C16.3058 16.2176 16.1991 15.7375 16.0801 15.28C16.0801 12.88 16.0801 10.48 16.0801 8.08001C16.2236 7.90432 16.3569 7.90432 16.4801 8.08001C16.5278 10.4812 16.5278 12.8812 16.4801 15.28C16.6479 15.5371 16.8879 15.6437 17.2001 15.6C17.2108 15.8334 17.1575 16.0467 17.0401 16.24Z"
            fill="#03082D" />
        <path fill-rule="evenodd" clip-rule="evenodd"
            d="M29.6802 8.87977C29.8778 8.91519 30.0378 9.02186 30.1602 9.19977C30.5237 9.91753 30.7904 10.6642 30.9602 11.4398C30.8002 11.4398 30.6402 11.4398 30.4802 11.4398C30.5933 10.7064 30.3533 10.1197 29.7602 9.67977C29.7027 10.1669 29.596 10.2202 29.4402 9.83977C29.2269 10.4798 29.0134 10.4798 28.8002 9.83977C28.7509 9.96906 28.6709 10.0757 28.5602 10.1598C28.4139 9.81351 28.2272 9.49351 28.0002 9.19977C27.9229 9.35145 27.8963 9.51145 27.9202 9.67977C27.8669 9.67977 27.8134 9.67977 27.7602 9.67977C27.7128 9.37529 27.6061 9.10861 27.4402 8.87977C27.3773 8.59436 27.2707 8.32769 27.1202 8.07977C27.0992 7.93954 27.1525 7.83287 27.2802 7.75977C27.6322 8.04023 27.8189 8.41356 27.8402 8.87977C27.8934 8.71977 27.9469 8.55977 28.0002 8.39977C28.1627 8.21831 28.2694 8.27164 28.3202 8.55977C28.36 8.37993 28.44 8.21993 28.5602 8.07977C28.8504 8.47874 29.2237 8.74541 29.6802 8.87977Z"
            fill="#135B8C" />
        <path fill-rule="evenodd" clip-rule="evenodd"
            d="M27.4399 8.87988C27.6059 9.10873 27.7126 9.3754 27.7599 9.67988C27.7599 9.89321 27.7599 10.1066 27.7599 10.3199C27.5748 9.87625 27.4681 9.39625 27.4399 8.87988Z"
            fill="#A1C243" />
        <path fill-rule="evenodd" clip-rule="evenodd"
            d="M10.9598 3.75977C10.9598 4.61309 10.9598 5.46644 10.9598 6.31977C10.4537 10.9744 10.1871 15.6677 10.1598 20.3998C10.1065 22.1065 10.0532 23.813 9.99982 25.5198C9.86571 25.5745 9.81237 25.681 9.83982 25.8398C8.53931 25.4702 7.25931 25.0434 5.99982 24.5598C5.99982 23.4398 5.99982 22.3198 5.99982 21.1998C6.11654 20.3756 6.22322 19.549 6.31982 18.7198C6.28562 17.581 6.09896 17.5543 5.75982 18.6398C5.57426 19.4865 5.44091 20.3398 5.35982 21.1998C5.16821 21.9164 4.95488 22.6097 4.71982 23.2798C4.38318 23.3276 4.06318 23.2743 3.75982 23.1198C3.31512 22.7943 2.88845 22.4743 2.47982 22.1598C2.51779 21.9532 2.46446 21.7932 2.31982 21.6798C2.4059 21.421 2.45923 21.1543 2.47982 20.8798C2.47982 20.7198 2.47982 20.5598 2.47982 20.3998C2.73165 20.1434 2.83832 19.8234 2.79982 19.4398C2.79982 19.333 2.79982 19.2265 2.79982 19.1198C3.05165 18.8634 3.15832 18.5434 3.11982 18.1598C3.22506 18.0161 3.33171 17.8561 3.43982 17.6798C3.55061 17.7638 3.63061 17.8705 3.67982 17.9998C3.7384 17.6874 3.87174 17.4209 4.07982 17.1998C4.52254 17.1406 4.84254 16.9271 5.03982 16.5598C5.1465 16.5598 5.25315 16.5598 5.35982 16.5598C5.78339 16.4911 6.10339 16.2778 6.31982 15.9198C6.61478 15.6351 6.72146 15.2618 6.63982 14.7998C6.77944 14.1168 6.83277 13.4235 6.79982 12.7198C6.92622 12.5424 7.00622 12.3291 7.03982 12.0798C7.08605 10.8895 7.1127 9.7162 7.11982 8.55977C7.28814 8.58369 7.44814 8.55701 7.59982 8.47977C7.4179 7.66665 7.39123 6.83997 7.51982 5.99977C7.59963 6.63756 7.6263 7.27756 7.59982 7.91977C7.91714 7.97468 8.13048 7.86801 8.23982 7.59977C8.3465 7.59977 8.45315 7.59977 8.55982 7.59977C8.74275 7.04364 8.76941 6.45697 8.63982 5.83977C8.52123 5.65729 8.3879 5.65729 8.23982 5.83977C8.09811 5.70777 8.04478 5.54777 8.07982 5.35977C9.03982 4.82644 9.99982 4.29309 10.9598 3.75977Z"
            fill="#0789DC" />
        <path fill-rule="evenodd" clip-rule="evenodd"
            d="M9.04004 8.87988C9.36004 8.87988 9.68004 8.87988 10 8.87988C10.0513 9.42363 9.99796 9.95695 9.84004 10.4799C9.62407 10.7119 9.3574 10.8186 9.04004 10.7999C9.04004 10.1599 9.04004 9.51988 9.04004 8.87988Z"
            fill="#C5EAFB" />
        <path fill-rule="evenodd" clip-rule="evenodd"
            d="M8.55977 7.6C8.45309 7.6 8.34644 7.6 8.23977 7.6C8.07977 7.6 7.91977 7.6 7.75977 7.6C7.75977 7.06667 7.75977 6.53333 7.75977 6C8.02644 6 8.29309 6 8.55977 6C8.55977 6.53333 8.55977 7.06667 8.55977 7.6Z"
            fill="#D7F0FC" />
        <path fill-rule="evenodd" clip-rule="evenodd"
            d="M24.3999 8.87988C24.4532 8.87988 24.5066 8.87988 24.5599 8.87988C24.5476 9.47425 24.6008 10.0609 24.7199 10.6399C24.7199 11.0132 24.7199 11.3866 24.7199 11.7599C24.4885 10.8361 24.382 9.87609 24.3999 8.87988Z"
            fill="#1E2124" />
        <path fill-rule="evenodd" clip-rule="evenodd"
            d="M6.64021 11.4402C6.43242 11.9034 6.16575 12.3301 5.84021 12.7202C5.69601 12.8466 5.58935 13.0066 5.52021 13.2002C5.36087 13.1864 5.22754 13.2398 5.12021 13.3602C5.01703 13.1768 4.88369 13.0168 4.72021 12.8802C4.73417 12.4121 4.84084 11.9321 5.04021 11.4402C5.09354 11.2802 5.20021 11.1735 5.36021 11.1202C5.73042 10.8038 6.10377 10.4838 6.48021 10.1602C6.63701 10.574 6.69036 11.0007 6.64021 11.4402Z"
            fill="#FA8F05" />
        <path fill-rule="evenodd" clip-rule="evenodd"
            d="M30.9601 11.4402C31.0668 11.6535 31.1734 11.8669 31.2801 12.0802C31.2801 12.4535 31.2801 12.8269 31.2801 13.2002C31.0402 13.0117 30.8802 12.745 30.8001 12.4002C30.6193 12.677 30.2993 12.917 29.8401 13.1202C29.6346 13.2296 29.4479 13.2029 29.2801 13.0402C29.2268 13.2002 29.1734 13.3602 29.1201 13.5202C28.9583 13.3863 28.7716 13.333 28.5601 13.3602C28.5852 13.5799 28.5585 13.7933 28.4801 14.0002C28.4268 13.0402 28.3734 12.0802 28.3201 11.1202C28.2756 10.9737 28.1956 10.867 28.0801 10.8002C28.0522 10.4224 27.999 10.0491 27.9201 9.6802C27.8962 9.51188 27.9228 9.35188 28.0001 9.2002C28.2271 9.49394 28.4138 9.81394 28.5601 10.1602C28.6708 10.0761 28.7508 9.96949 28.8001 9.8402C29.0134 10.4802 29.2268 10.4802 29.4401 9.8402C29.5959 10.2206 29.7026 10.1673 29.7601 9.6802C30.3532 10.1201 30.5932 10.7068 30.4801 11.4402C30.6401 11.4402 30.8001 11.4402 30.9601 11.4402Z"
            fill="#0A4475" />
        <path fill-rule="evenodd" clip-rule="evenodd"
            d="M27.7598 9.67969C27.813 9.67969 27.8665 9.67969 27.9198 9.67969C27.9986 10.0486 28.0519 10.4219 28.0798 10.7997C28.1778 11.723 28.0711 12.5764 27.7598 13.3597C27.967 12.3513 27.967 11.3379 27.7598 10.3197C27.7598 10.1064 27.7598 9.89302 27.7598 9.67969Z"
            fill="#8B994A" />
        <path fill-rule="evenodd" clip-rule="evenodd"
            d="M24.7201 10.6396C24.7734 10.6396 24.8268 10.6396 24.8801 10.6396C24.9044 11.3475 25.0112 12.0408 25.2001 12.7196C24.8051 12.5426 24.6451 12.2226 24.7201 11.7596C24.7201 11.3863 24.7201 11.013 24.7201 10.6396Z"
            fill="#807C2B" />
        <path fill-rule="evenodd" clip-rule="evenodd"
            d="M16.0799 0.240234C16.0799 2.85356 16.0799 5.46691 16.0799 8.08023C16.0799 10.4802 16.0799 12.8802 16.0799 15.2802C16.0799 19.0135 16.0799 22.747 16.0799 26.4802C15.8666 26.4802 15.6533 26.4802 15.4399 26.4802C15.6919 26.222 15.7985 25.902 15.7599 25.5202C15.654 17.0385 15.7606 8.61188 16.0799 0.240234Z"
            fill="#084785" />
        <path fill-rule="evenodd" clip-rule="evenodd"
            d="M23.6 13.0397C23.601 13.4148 23.7877 13.6281 24.16 13.6797C25.5407 13.0737 25.9941 13.5003 25.52 14.9597C25.9328 15.1275 26.3594 15.2341 26.8 15.2797C26.9068 15.2797 27.0133 15.2797 27.12 15.2797C27.1066 15.732 27 16.1587 26.8 16.5597C26.4415 16.6877 26.2815 16.9542 26.32 17.3597C25.6564 17.4131 25.3896 17.7864 25.52 18.4797C25.2533 18.4797 24.9868 18.4797 24.72 18.4797C24.8268 18.3729 24.9333 18.2664 25.04 18.1597C25.2138 18.1405 25.3205 18.0337 25.36 17.8397C25.2783 17.2793 25.1716 16.7461 25.04 16.2397C24.7733 16.2397 24.5068 16.2397 24.24 16.2397C23.8133 16.2397 23.3868 16.2397 22.96 16.2397C22.9128 16.5973 22.9663 16.9173 23.12 17.1997C23.12 17.6264 23.12 18.0529 23.12 18.4797C23.6 18.4797 24.08 18.4797 24.56 18.4797C24.5463 18.639 24.5997 18.7723 24.72 18.8797C24.1765 19.5301 23.5365 20.0633 22.8 20.4797C21.2984 22.4352 19.3784 23.7952 17.04 24.5597C17.04 21.7864 17.04 19.0129 17.04 16.2397C18.0029 15.4902 18.8562 14.6368 19.6 13.6797C20.1472 13.2395 20.574 12.7062 20.88 12.0797C21.6386 11.5705 22.2253 11.7305 22.64 12.5597C22.9263 12.805 23.2463 12.965 23.6 13.0397Z"
            fill="#098BDD" />
        <path fill-rule="evenodd" clip-rule="evenodd"
            d="M25.2002 12.72C25.6133 12.644 25.9333 12.7507 26.1602 13.04C26.0535 13.04 25.9469 13.04 25.8402 13.04C25.7335 13.04 25.6269 13.04 25.5202 13.04C25.4135 12.9333 25.3069 12.8266 25.2002 12.72Z"
            fill="#89812D" />
        <path fill-rule="evenodd" clip-rule="evenodd"
            d="M26.48 13.04C26.8317 12.9792 27.0984 13.0859 27.28 13.36C26.9515 13.3756 26.6848 13.269 26.48 13.04Z"
            fill="#7A7719" />
        <path fill-rule="evenodd" clip-rule="evenodd"
            d="M7.12002 8.55957C7.1129 9.716 7.08624 10.8893 7.04002 12.0796C7.00642 12.3289 6.92642 12.5422 6.80002 12.7196C6.80002 12.2929 6.80002 11.8662 6.80002 11.4396C6.80074 10.7941 6.85408 10.1541 6.96002 9.51957C6.7917 9.49565 6.6317 9.52232 6.48002 9.59957C6.01124 10.0409 5.63791 10.5475 5.36002 11.1196C5.20002 11.1729 5.09335 11.2796 5.04002 11.4396C4.66871 11.8132 4.34871 12.2398 4.08002 12.7196C3.77861 12.8606 3.56528 13.1006 3.44002 13.4396C3.28834 13.5168 3.12834 13.5435 2.96002 13.5196C2.59669 14.1877 2.11669 14.7743 1.52002 15.2796C1.58676 14.8246 1.74677 14.398 2.00002 13.9996C2.84892 12.7249 3.75559 11.4982 4.72002 10.3196C5.39727 9.53139 6.19727 8.94474 7.12002 8.55957Z"
            fill="#4BAAD3" />
        <path fill-rule="evenodd" clip-rule="evenodd"
            d="M6.79986 11.4402C6.74654 11.4402 6.69319 11.4402 6.63986 11.4402C6.69001 11.0007 6.63666 10.574 6.47986 10.1602C6.10342 10.4838 5.73007 10.8038 5.35986 11.1202C5.63775 10.5482 6.01108 10.0415 6.47986 9.6002C6.63154 9.52295 6.79154 9.49628 6.95986 9.5202C6.85393 10.1547 6.80058 10.7947 6.79986 11.4402Z"
            fill="#C28342" />
        <path fill-rule="evenodd" clip-rule="evenodd"
            d="M23.6001 13.0403C23.7651 13.1771 23.9516 13.2838 24.1601 13.3603C24.5753 13.097 25.0286 12.9903 25.5201 13.0403C25.6268 13.0403 25.7334 13.0403 25.8401 13.0403C25.8332 13.5859 25.9132 14.1192 26.0801 14.6403C26.3775 14.8129 26.6175 15.0263 26.8001 15.2803C26.3595 15.2348 25.9329 15.1281 25.5201 14.9603C25.9942 13.5009 25.5407 13.0743 24.1601 13.6803C23.7878 13.6287 23.6011 13.4154 23.6001 13.0403Z"
            fill="#0E68B4" />
        <path fill-rule="evenodd" clip-rule="evenodd"
            d="M4.0798 12.7197C3.70254 13.3162 3.38254 13.9562 3.1198 14.6397C3.01313 14.6931 2.90648 14.7464 2.7998 14.7997C2.92225 14.3844 2.9756 13.9577 2.9598 13.5197C3.12812 13.5436 3.28812 13.517 3.4398 13.4397C3.56507 13.1008 3.7784 12.8608 4.0798 12.7197Z"
            fill="#68A5A1" />
        <path fill-rule="evenodd" clip-rule="evenodd"
            d="M25.8398 13.04C25.9465 13.04 26.053 13.04 26.1598 13.04C26.2665 13.04 26.373 13.04 26.4798 13.04C26.6846 13.269 26.9513 13.3757 27.2798 13.36C27.4862 13.5896 27.7527 13.7496 28.0798 13.84C27.9478 13.9818 27.7878 14.0351 27.5998 14C27.5806 14.4925 27.4206 14.9192 27.1198 15.28C27.013 15.28 26.9065 15.28 26.7998 15.28C26.6172 15.026 26.3772 14.8127 26.0798 14.64C25.9129 14.119 25.8329 13.5856 25.8398 13.04Z"
            fill="#05123D" />
        <path fill-rule="evenodd" clip-rule="evenodd"
            d="M6.79982 12.7197C6.83277 13.4234 6.77944 14.1168 6.63982 14.7997C6.53315 15.0664 6.4265 15.3331 6.31982 15.5997C6.32493 14.5916 6.48493 13.6316 6.79982 12.7197Z"
            fill="#8DBA77" />
        <path fill-rule="evenodd" clip-rule="evenodd"
            d="M2.95999 13.5195C2.97578 13.9575 2.92244 14.3842 2.79999 14.7995C2.70121 14.8172 2.62121 14.8706 2.55999 14.9595C2.37705 15.4838 2.24372 16.0171 2.15999 16.5595C2.04453 16.6264 1.96453 16.733 1.91999 16.8795C1.34692 16.4655 1.21358 15.9321 1.51999 15.2795C2.11666 14.7743 2.59666 14.1876 2.95999 13.5195Z"
            fill="#0AA1E5" />
        <path fill-rule="evenodd" clip-rule="evenodd"
            d="M5.04006 11.4404C4.84068 11.9323 4.73401 12.4123 4.72006 12.8804C4.88353 13.0171 5.01687 13.1771 5.12006 13.3604C5.22739 13.24 5.36071 13.1867 5.52006 13.2004C5.0059 14.389 4.4459 15.5623 3.84006 16.7204C3.4999 14.9946 3.28657 14.9412 3.20006 16.5604C3.05539 17.0241 2.84204 17.4507 2.56006 17.8404C2.69342 16.7716 2.88009 15.7049 3.12006 14.6404C3.38279 13.9569 3.70279 13.3169 4.08006 12.7204C4.34875 12.2407 4.66875 11.814 5.04006 11.4404Z"
            fill="#F8A60D" />
        <path fill-rule="evenodd" clip-rule="evenodd"
            d="M28.08 10.7998C28.1955 10.8666 28.2755 10.9733 28.32 11.1198C28.3733 12.0798 28.4267 13.0398 28.48 13.9998C28.5584 13.7929 28.5851 13.5795 28.56 13.3598C28.7715 13.3326 28.9582 13.3859 29.12 13.5198C29.1733 13.3598 29.2267 13.1998 29.28 13.0398C29.4478 13.2025 29.6345 13.2292 29.84 13.1198C30.2992 12.9166 30.6192 12.6766 30.8 12.3998C30.8801 12.7446 31.0401 13.0113 31.28 13.1998C31.28 14.1065 31.28 15.0131 31.28 15.9198C31.1733 15.9198 31.0667 15.9198 30.96 15.9198C30.8563 15.6661 30.7763 15.3994 30.72 15.1198C29.7597 15.4272 28.8262 15.9072 27.92 16.5598C27.7158 15.7307 27.6091 15.7307 27.6 16.5598C27.412 16.5248 27.252 16.578 27.12 16.7198C27.28 16.9331 27.44 17.1465 27.6 17.3598C27.3851 17.9776 27.1451 17.9776 26.88 17.3598C26.7667 17.5008 26.6333 17.6073 26.48 17.6798C26.7093 17.3505 26.816 16.9771 26.8 16.5598C27 16.1588 27.1065 15.7322 27.12 15.2798C27.4208 14.9189 27.5808 14.4923 27.6 13.9998C27.788 14.0348 27.948 13.9815 28.08 13.8398C27.7529 13.7494 27.4864 13.5894 27.28 13.3598C27.44 13.3598 27.6 13.3598 27.76 13.3598C28.0713 12.5765 28.1781 11.7231 28.08 10.7998Z"
            fill="#032D59" />
        <path fill-rule="evenodd" clip-rule="evenodd"
            d="M6.64008 11.4404C6.69341 11.4404 6.74675 11.4404 6.80008 11.4404C6.80008 11.8671 6.80008 12.2938 6.80008 12.7204C6.48518 13.6323 6.32518 14.5923 6.32008 15.6004C6.32008 15.7071 6.32008 15.8138 6.32008 15.9204C5.92547 16.0481 5.60547 16.2614 5.36008 16.5604C5.25341 16.5604 5.14675 16.5604 5.04008 16.5604C4.74974 16.7412 4.42974 16.8478 4.08008 16.8804C4.71755 16.3502 5.01088 15.6569 4.96008 14.8004C5.4236 14.1918 5.71693 13.4985 5.84008 12.7204C6.16561 12.3303 6.43229 11.9037 6.64008 11.4404Z"
            fill="#EEDF21" />
        <path fill-rule="evenodd" clip-rule="evenodd"
            d="M10.9602 6.32031C10.7993 11.0435 10.5326 15.7368 10.1602 20.4003C10.1874 15.6683 10.4541 10.9749 10.9602 6.32031Z"
            fill="#09437B" />
        <path fill-rule="evenodd" clip-rule="evenodd"
            d="M31.2798 12.0801C31.4916 12.6572 31.5983 13.2972 31.5998 14.0001C31.5983 14.703 31.4916 15.343 31.2798 15.9201C31.2798 15.0134 31.2798 14.1068 31.2798 13.2001C31.2798 12.8268 31.2798 12.4534 31.2798 12.0801Z"
            fill="#8496AC" />
        <path fill-rule="evenodd" clip-rule="evenodd"
            d="M2.80016 14.7998C2.69348 15.2798 2.58683 15.7598 2.48016 16.2398C2.37348 16.3465 2.26683 16.4531 2.16016 16.5598C2.24388 16.0174 2.37721 15.4841 2.56016 14.9598C2.62137 14.8708 2.70137 14.8175 2.80016 14.7998Z"
            fill="#4AA2AD" />
        <path fill-rule="evenodd" clip-rule="evenodd"
            d="M14.7998 6.64004C14.5865 6.64004 14.3732 6.64004 14.1598 6.64004C14.1598 7.38671 14.1598 8.13337 14.1598 8.88004C14.3732 8.88004 14.5865 8.88004 14.7998 8.88004C14.9931 8.76258 15.2064 8.70926 15.4398 8.72004C15.3886 14.327 15.442 19.9269 15.5998 25.52C14.2795 25.7007 12.9728 25.914 11.6798 26.16C11.5999 24.6677 11.5732 23.1743 11.5998 21.68C11.5998 21.2533 11.5998 20.8268 11.5998 20.4C11.8833 18.7292 11.99 17.0224 11.9198 15.28C12.0043 11.706 12.111 8.13266 12.2398 4.56004C12.2398 4.50671 12.2398 4.45337 12.2398 4.40004C12.5198 3.94318 12.6532 3.40985 12.6398 2.80004C12.668 3.47007 12.748 4.11007 12.8798 4.72004C13.0932 4.72004 13.3065 4.72004 13.5198 4.72004C13.7796 4.74242 13.9663 4.63577 14.0798 4.40004C14.1596 3.76225 14.1863 3.12225 14.1598 2.48004C14.3732 2.48004 14.5865 2.48004 14.7998 2.48004C14.7735 1.9971 14.8001 1.5171 14.8798 1.04004C15.0416 1.1739 15.2283 1.22723 15.4398 1.20004C15.4575 2.90966 15.4041 4.61633 15.2798 6.32004C15.0112 6.28567 14.8512 6.39234 14.7998 6.64004Z"
            fill="#058ADC" />
        <path fill-rule="evenodd" clip-rule="evenodd"
            d="M12.8801 13.04C12.8801 13.7867 12.8801 14.5334 12.8801 15.28C12.6713 14.9765 12.5646 14.6032 12.5601 14.16C12.5646 13.7169 12.6713 13.3436 12.8801 13.04Z"
            fill="#97CAF1" />
        <path fill-rule="evenodd" clip-rule="evenodd"
            d="M12.8799 15.28C12.8799 14.5333 12.8799 13.7866 12.8799 13.04C13.1067 12.7507 13.4267 12.644 13.8399 12.72C13.8399 13.4666 13.8399 14.2133 13.8399 14.96C13.485 14.9782 13.165 15.0848 12.8799 15.28Z"
            fill="#DEF9FB" />
        <path fill-rule="evenodd" clip-rule="evenodd"
            d="M6.63982 14.7998C6.72146 15.2619 6.61478 15.6352 6.31982 15.9198C6.31982 15.8131 6.31982 15.7065 6.31982 15.5998C6.4265 15.3331 6.53315 15.0665 6.63982 14.7998Z"
            fill="#5DA49E" />
        <path fill-rule="evenodd" clip-rule="evenodd"
            d="M6.31986 15.9199C6.10343 16.278 5.78343 16.4913 5.35986 16.5599C5.60526 16.2609 5.92526 16.0476 6.31986 15.9199Z"
            fill="#5F9990" />
        <path fill-rule="evenodd" clip-rule="evenodd"
            d="M10.9601 3.75977C11.3149 3.77797 11.6349 3.88463 11.9201 4.07977C11.9201 4.29309 12.0267 4.39977 12.2401 4.39977C12.2401 4.45309 12.2401 4.50644 12.2401 4.55977C12.0401 4.57215 11.9068 4.67881 11.8401 4.87977C11.7601 9.20001 11.6801 13.52 11.6001 17.8398C11.6001 18.693 11.6001 19.5465 11.6001 20.3998C11.6001 20.8265 11.6001 21.253 11.6001 21.6798C11.4409 23.4644 11.3876 25.2778 11.4401 27.1198C12.7839 26.9718 14.1172 26.7585 15.4401 26.4798C15.6534 26.4798 15.8667 26.4798 16.0801 26.4798C16.0801 22.7465 16.0801 19.013 16.0801 15.2798C16.1991 15.7373 16.3058 16.2174 16.4001 16.7198C16.1889 19.6476 16.1889 22.5809 16.4001 25.5198C16.5068 22.5071 16.6134 19.5204 16.7201 16.5598C16.7722 19.6386 16.719 22.7054 16.5601 25.7598C16.7201 25.7865 16.8801 25.813 17.0401 25.8398C17.2849 25.8174 17.4449 25.7106 17.5201 25.5198C17.7398 25.5449 17.9532 25.5182 18.1601 25.4398C19.0132 24.7996 19.9198 24.2396 20.8801 23.7598C21.4172 23.2777 22.0039 22.851 22.6401 22.4798C23.031 21.8212 23.5642 21.3412 24.2401 21.0398C24.1982 20.8033 24.2514 20.59 24.4001 20.3998C24.8268 20.0798 25.2001 19.7065 25.5201 19.2798C25.7828 18.7004 26.1028 18.1671 26.4801 17.6798C26.6334 17.6073 26.7668 17.5007 26.8801 17.3598C27.1452 17.9775 27.3852 17.9775 27.6001 17.3598C27.4401 17.1465 27.2801 16.933 27.1201 16.7198C27.2521 16.578 27.4121 16.5247 27.6001 16.5598C27.6092 15.7307 27.7159 15.7307 27.9201 16.5598C28.8263 15.9072 29.7598 15.4272 30.7201 15.1198C30.7764 15.3994 30.8564 15.666 30.9601 15.9198C30.9601 16.3465 30.9601 16.773 30.9601 17.1998C30.6919 17.309 30.5852 17.5225 30.6401 17.8398C30.3833 18.8234 30.0633 19.7834 29.6801 20.7198C29.2334 20.8625 29.0201 21.1825 29.0401 21.6798C25.7826 26.6788 21.2494 29.9321 15.4401 31.4398C14.8088 31.5983 14.1688 31.6516 13.5201 31.5998C11.9734 31.5998 10.4268 31.5998 8.88008 31.5998C8.72008 31.5998 8.56008 31.5998 8.40008 31.5998C8.21841 31.3257 7.95176 31.219 7.60008 31.2798C6.31929 30.9599 5.14597 30.4266 4.08008 29.6798C4.9564 29.1231 5.86307 28.5898 6.80008 28.0798C7.0767 27.7036 7.18337 27.2769 7.12008 26.7998C8.05829 27.0647 9.01829 27.1714 10.0001 27.1198C10.0001 26.5865 10.0001 26.053 10.0001 25.5198C10.0534 23.813 10.1067 22.1065 10.1601 20.3998C10.5325 15.7362 10.7992 11.0429 10.9601 6.31977C10.9601 5.46644 10.9601 4.61309 10.9601 3.75977Z"
            fill="#021640" />
        <path fill-rule="evenodd" clip-rule="evenodd"
            d="M24.24 16.2402C24.3467 16.667 24.4532 17.0935 24.56 17.5202C24.1332 17.5202 23.7067 17.5202 23.28 17.5202C23.28 17.7335 23.28 17.947 23.28 18.1602C23.8667 18.1602 24.4532 18.1602 25.04 18.1602C24.9332 18.267 24.8267 18.3735 24.72 18.4802C24.6667 18.4802 24.6132 18.4802 24.56 18.4802C24.08 18.4802 23.6 18.4802 23.12 18.4802C23.12 18.0535 23.12 17.627 23.12 17.2002C22.9662 16.9178 22.9128 16.5978 22.96 16.2402C23.3867 16.2402 23.8132 16.2402 24.24 16.2402Z"
            fill="#93C9EC" />
        <path fill-rule="evenodd" clip-rule="evenodd"
            d="M5.04008 16.5596C4.8428 16.9269 4.5228 17.1404 4.08008 17.1996C4.08008 17.0929 4.08008 16.9863 4.08008 16.8796C4.42974 16.8469 4.74974 16.7404 5.04008 16.5596Z"
            fill="#659691" />
        <path fill-rule="evenodd" clip-rule="evenodd"
            d="M1.52023 15.2803C1.21383 15.9328 1.34716 16.4662 1.92023 16.8803C1.96478 16.7337 2.04478 16.6272 2.16023 16.5603C1.89452 17.8241 1.78785 19.1041 1.84023 20.4003C1.68806 20.1732 1.63471 19.9067 1.68023 19.6003C1.68023 18.8536 1.68023 18.107 1.68023 17.3603C1.52023 17.3603 1.36023 17.3603 1.20023 17.3603C1.22764 17.8878 1.12098 17.9412 0.880234 17.5203C0.749284 17.7776 0.642618 18.0443 0.560234 18.3203C0.487132 18.448 0.380465 18.5012 0.240234 18.4803C0.472575 17.6228 0.739242 16.7696 1.04023 15.9203C1.12933 15.6272 1.28933 15.4139 1.52023 15.2803Z"
            fill="#35A0CA" />
        <path fill-rule="evenodd" clip-rule="evenodd"
            d="M23.1201 17.1996C23.1201 16.9863 23.1201 16.7729 23.1201 16.5596C23.3334 16.5596 23.5468 16.5596 23.7601 16.5596C23.7601 16.7729 23.7601 16.9863 23.7601 17.1996C23.5468 17.1996 23.3334 17.1996 23.1201 17.1996Z"
            fill="#E5F9FE" />
        <path fill-rule="evenodd" clip-rule="evenodd"
            d="M25.04 16.2402C25.1716 16.7466 25.2783 17.2799 25.36 17.8402C25.3205 18.0343 25.2138 18.141 25.04 18.1602C25.04 17.5202 25.04 16.8802 25.04 16.2402Z"
            fill="#8BC8F0" />
        <path fill-rule="evenodd" clip-rule="evenodd"
            d="M4.07997 17.2C3.87189 17.4212 3.73855 17.6877 3.67997 18C3.63076 17.8708 3.55076 17.764 3.43997 17.68C3.33186 17.8564 3.2252 18.0164 3.11997 18.16C3.06664 17.4668 3.38664 17.1468 4.07997 17.2Z"
            fill="#4D8ABB" />
        <path fill-rule="evenodd" clip-rule="evenodd"
            d="M18.32 16.8799C18.0856 17.2712 18.1656 17.5912 18.56 17.8399C19.0522 17.5517 19.0787 17.2317 18.64 16.8799C18.8533 16.8799 19.0667 16.8799 19.28 16.8799C19.2619 17.2877 19.3686 17.661 19.6 17.9999C19.1862 18.1567 18.7595 18.21 18.32 18.1599C18.32 18.3732 18.32 18.5866 18.32 18.7999C18.5333 18.7999 18.7467 18.7999 18.96 18.7999C18.6946 19.2221 18.4013 19.2221 18.08 18.7999C18.0533 18.4799 18.0267 18.1599 18 17.8399C18.0062 17.4476 18.113 17.1276 18.32 16.8799Z"
            fill="#8CC3E8" />
        <path fill-rule="evenodd" clip-rule="evenodd"
            d="M18.32 16.8799C18.4268 16.8799 18.5333 16.8799 18.64 16.8799C19.0788 17.2317 19.0522 17.5517 18.56 17.8399C18.1656 17.5912 18.0856 17.2712 18.32 16.8799Z"
            fill="#DBF5F9" />
        <path fill-rule="evenodd" clip-rule="evenodd"
            d="M30.96 17.2002C31.0148 17.5175 30.9081 17.7309 30.64 17.8402C30.5851 17.5229 30.6918 17.3095 30.96 17.2002Z"
            fill="#697584" />
        <path fill-rule="evenodd" clip-rule="evenodd"
            d="M16.08 -0.0800781C21.36 -0.0800781 26.64 -0.0800781 31.92 -0.0800781C31.92 10.5866 31.92 21.2532 31.92 31.9199C25.7867 31.9199 19.6533 31.9199 13.52 31.9199C13.52 31.8132 13.52 31.7066 13.52 31.5999C14.1688 31.6518 14.8088 31.5985 15.44 31.4399C21.2493 29.9322 25.7826 26.679 29.04 21.6799C29.3285 21.427 29.5418 21.107 29.68 20.7199C30.0632 19.7836 30.3832 18.8236 30.64 17.8399C30.9082 17.7306 31.0149 17.5172 30.96 17.1999C30.96 16.7732 30.96 16.3466 30.96 15.9199C31.0667 15.9199 31.1733 15.9199 31.28 15.9199C31.4919 15.3428 31.5986 14.7028 31.6 13.9999C31.5986 13.297 31.4919 12.657 31.28 12.0799C31.1733 11.8666 31.0667 11.6532 30.96 11.4399C30.7903 10.6644 30.5235 9.91768 30.16 9.19992C30.0376 9.02202 29.8776 8.91535 29.68 8.87992C29.4773 7.87408 28.944 7.07408 28.08 6.47992C27.5629 6.28304 27.1362 5.96304 26.8 5.51992C26.5528 5.36762 26.2861 5.31429 26 5.35992C25.6696 4.9525 25.2429 4.65915 24.72 4.47992C23.4925 4.16407 22.2658 3.92407 21.04 3.75992C20.88 3.75992 20.72 3.75992 20.56 3.75992C20.2064 4.11208 19.7799 4.32541 19.28 4.39992C19.3323 3.64573 19.2789 2.89906 19.12 2.15992C18.1247 1.47648 17.1114 0.836475 16.08 0.239922C16.08 0.133255 16.08 0.0265886 16.08 -0.0800781Z"
            fill="#FBFBFC" />
        <path fill-rule="evenodd" clip-rule="evenodd"
            d="M17.0401 16.2402C17.0401 19.0135 17.0401 21.787 17.0401 24.5602C17.0401 24.8802 17.0401 25.2002 17.0401 25.5202C17.2001 25.5202 17.3601 25.5202 17.5201 25.5202C17.4449 25.7111 17.2849 25.8178 17.0401 25.8402C16.8801 25.8135 16.7201 25.787 16.5601 25.7602C16.7189 22.7058 16.7722 19.6391 16.7201 16.5602C16.7201 16.347 16.8268 16.2402 17.0401 16.2402Z"
            fill="#0A4280" />
        <path fill-rule="evenodd" clip-rule="evenodd"
            d="M24.2398 16.2402C24.5065 16.2402 24.7731 16.2402 25.0398 16.2402C25.0398 16.8802 25.0398 17.5202 25.0398 18.1602C24.4531 18.1602 23.8665 18.1602 23.2798 18.1602C23.2798 17.947 23.2798 17.7335 23.2798 17.5202C23.7065 17.5202 24.1331 17.5202 24.5598 17.5202C24.4531 17.0935 24.3465 16.667 24.2398 16.2402Z"
            fill="#C8EAF8" />
        <path fill-rule="evenodd" clip-rule="evenodd"
            d="M5.83988 12.7197C5.71673 13.4978 5.4234 14.1911 4.95988 14.7997C5.01068 15.6562 4.71736 16.3495 4.07988 16.8797C4.07988 16.9864 4.07988 17.093 4.07988 17.1997C3.38656 17.1464 3.06656 17.4664 3.11988 18.1597C2.86806 18.416 2.76139 18.736 2.79988 19.1197C2.79988 19.2264 2.79988 19.333 2.79988 19.4397C2.54806 19.696 2.44139 20.016 2.47988 20.3997C2.36443 20.4666 2.28443 20.5732 2.23988 20.7197C2.08323 19.2045 2.16323 17.7111 2.47988 16.2397C2.58656 15.7597 2.69321 15.2797 2.79988 14.7997C2.90656 14.7464 3.01321 14.6931 3.11988 14.6397C2.87992 15.7042 2.69324 16.7709 2.55988 17.8397C2.84187 17.45 3.05521 17.0234 3.19988 16.5597C3.2864 14.9405 3.49972 14.9939 3.83988 16.7197C4.44572 15.5616 5.00572 14.3883 5.51988 13.1997C5.58902 13.0062 5.69568 12.8462 5.83988 12.7197Z"
            fill="#F0BC1A" />
        <path fill-rule="evenodd" clip-rule="evenodd"
            d="M19.2798 16.8799C19.5998 16.8799 19.9198 16.8799 20.2398 16.8799C20.2398 17.5199 20.2398 18.1599 20.2398 18.7999C19.8131 18.7999 19.3865 18.7999 18.9598 18.7999C18.7465 18.7999 18.5331 18.7999 18.3198 18.7999C18.3198 18.5866 18.3198 18.3732 18.3198 18.1599C18.7593 18.21 19.1861 18.1567 19.5998 17.9999C19.3685 17.661 19.2617 17.2877 19.2798 16.8799Z"
            fill="#C9E7F6" />
        <path fill-rule="evenodd" clip-rule="evenodd"
            d="M3.43994 18.4801C4.06945 18.4034 4.65612 18.5102 5.19994 18.8001C5.27604 19.3185 5.27604 19.8518 5.19994 20.4001C4.62057 20.2604 4.03389 20.1538 3.43994 20.0801C3.43994 19.5468 3.43994 19.0134 3.43994 18.4801Z"
            fill="#B6DCF3" />
        <path fill-rule="evenodd" clip-rule="evenodd"
            d="M3.12014 18.1602C3.15863 18.5438 3.05196 18.8638 2.80014 19.1202C2.76164 18.7365 2.86831 18.4165 3.12014 18.1602Z"
            fill="#689F81" />
        <path fill-rule="evenodd" clip-rule="evenodd"
            d="M2.48009 16.2402C2.16343 17.7116 2.08343 19.205 2.24009 20.7202C2.28463 20.5737 2.36463 20.4671 2.48009 20.4002C2.48009 20.5602 2.48009 20.7202 2.48009 20.8802C2.26676 20.8802 2.05342 20.8802 1.84009 20.8802C1.84009 20.7202 1.84009 20.5602 1.84009 20.4002C1.7877 19.1041 1.89438 17.8241 2.16009 16.5602C2.26676 16.4535 2.37342 16.347 2.48009 16.2402Z"
            fill="#B1B148" />
        <path fill-rule="evenodd" clip-rule="evenodd"
            d="M11.9201 15.2803C11.9902 17.0227 11.8836 18.7294 11.6001 20.4003C11.6001 19.547 11.6001 18.6936 11.6001 17.8403C11.7068 16.987 11.8134 16.1336 11.9201 15.2803Z"
            fill="#054883" />
        <path fill-rule="evenodd" clip-rule="evenodd"
            d="M1.67992 19.6004C1.58113 19.5826 1.50113 19.5293 1.43992 19.4404C1.32489 20.0236 1.24489 20.6103 1.19992 21.2004C1.35992 21.2004 1.51992 21.2004 1.67992 21.2004C1.67992 21.3604 1.67992 21.5204 1.67992 21.6804C1.19992 21.6804 0.719922 21.6804 0.239922 21.6804C0.239922 22.1071 0.239922 22.5336 0.239922 22.9604C0.133255 22.9604 0.0265886 22.9604 -0.0800781 22.9604C-0.0800781 21.6804 -0.0800781 20.4004 -0.0800781 19.1204C0.18816 19.0111 0.294827 18.7976 0.239922 18.4804C0.380152 18.5013 0.486819 18.448 0.559922 18.3204C0.642306 18.0444 0.748971 17.7776 0.879922 17.5204C1.12066 17.9413 1.22733 17.8879 1.19992 17.3604C1.35992 17.3604 1.51992 17.3604 1.67992 17.3604C1.67992 18.1071 1.67992 18.8536 1.67992 19.6004Z"
            fill="#1689C0" />
        <path fill-rule="evenodd" clip-rule="evenodd"
            d="M2.79982 19.4404C2.83832 19.8241 2.73165 20.1441 2.47982 20.4004C2.44133 20.0167 2.548 19.6967 2.79982 19.4404Z"
            fill="#6D9D86" />
        <path fill-rule="evenodd" clip-rule="evenodd"
            d="M29.6799 20.7197C29.5416 21.1068 29.3283 21.4268 29.0399 21.6797C29.0199 21.1824 29.2331 20.8624 29.6799 20.7197Z"
            fill="#5D6A7C" />
        <path fill-rule="evenodd" clip-rule="evenodd"
            d="M1.83979 20.8799C2.05312 20.8799 2.26646 20.8799 2.47979 20.8799C2.4592 21.1544 2.40587 21.4212 2.31979 21.6799C1.90638 21.5922 1.74638 21.3255 1.83979 20.8799Z"
            fill="#488E9B" />
        <path fill-rule="evenodd" clip-rule="evenodd"
            d="M5.99986 21.2002C5.89319 21.947 5.78654 22.6935 5.67986 23.4402C5.70641 22.6385 5.67975 21.8385 5.59986 21.0402C5.53865 21.1292 5.45865 21.1825 5.35986 21.2002C5.44095 20.3402 5.5743 19.487 5.75986 18.6402C6.099 17.5548 6.28566 17.5815 6.31986 18.7202C6.22326 19.5495 6.11658 20.3761 5.99986 21.2002Z"
            fill="#053569" />
        <path fill-rule="evenodd" clip-rule="evenodd"
            d="M26.8 16.5596C26.816 16.9769 26.7093 17.3503 26.48 17.6796C26.1028 18.1669 25.7828 18.7002 25.52 19.2796C25.2 19.7063 24.8268 20.0796 24.4 20.3996C24.2514 20.5898 24.1981 20.8031 24.24 21.0396C23.5642 21.341 23.0309 21.821 22.64 22.4796C22.0039 22.8508 21.4172 23.2775 20.88 23.7596C19.9197 24.2394 19.0132 24.7994 18.16 25.4396C17.9532 25.518 17.7397 25.5447 17.52 25.5196C17.36 25.5196 17.2 25.5196 17.04 25.5196C17.04 25.1996 17.04 24.8796 17.04 24.5596C19.3784 23.7951 21.2984 22.4351 22.8 20.4796C23.5365 20.0633 24.1765 19.53 24.72 18.8796C24.5997 18.7722 24.5463 18.6389 24.56 18.4796C24.6133 18.4796 24.6668 18.4796 24.72 18.4796C24.9868 18.4796 25.2533 18.4796 25.52 18.4796C25.3896 17.7863 25.6564 17.413 26.32 17.3596C26.2815 16.9541 26.4415 16.6876 26.8 16.5596Z"
            fill="#0B68B4" />
        <path fill-rule="evenodd" clip-rule="evenodd"
            d="M1.68023 19.6004C1.63471 19.9068 1.68806 20.1734 1.84023 20.4004C1.84023 20.5604 1.84023 20.7204 1.84023 20.8804C1.74683 21.326 1.90683 21.5927 2.32023 21.6804C2.46487 21.7939 2.5182 21.9539 2.48023 22.1604C2.4346 22.4465 2.48793 22.7132 2.64023 22.9604C3.04214 23.3076 3.30879 23.7343 3.44023 24.2404C2.90851 24.6356 2.34851 25.0091 1.76023 25.3604C1.65601 25.638 1.68268 25.9047 1.84023 26.1604C1.76115 26.4046 1.65447 26.6179 1.52023 26.8004C1.18153 26.4484 0.914858 26.0217 0.720234 25.5204C0.457353 24.683 0.297353 23.8297 0.240234 22.9604C0.240234 22.5337 0.240234 22.1071 0.240234 21.6804C0.720234 21.6804 1.20023 21.6804 1.68023 21.6804C1.68023 21.5204 1.68023 21.3604 1.68023 21.2004C1.52023 21.2004 1.36023 21.2004 1.20023 21.2004C1.2452 20.6103 1.3252 20.0236 1.44023 19.4404C1.50145 19.5294 1.58145 19.5827 1.68023 19.6004Z"
            fill="#086599" />
        <path fill-rule="evenodd" clip-rule="evenodd"
            d="M2.48014 22.1602C2.88876 22.4747 3.31543 22.7947 3.76014 23.1202C4.0635 23.2747 4.3835 23.328 4.72014 23.2802C4.72014 23.4402 4.72014 23.6002 4.72014 23.7602C4.53756 24.1069 4.37756 24.4802 4.24014 24.8802C4.13346 24.9334 4.02681 24.9869 3.92014 25.0402C3.83991 24.6954 3.67991 24.4286 3.44014 24.2402C3.3087 23.7341 3.04204 23.3074 2.64014 22.9602C2.48783 22.713 2.4345 22.4462 2.48014 22.1602Z"
            fill="#096CBA" />
        <path fill-rule="evenodd" clip-rule="evenodd"
            d="M5.68024 23.44C5.71635 24.25 5.66302 25.05 5.52024 25.84C5.11954 25.7876 4.82619 25.5741 4.64024 25.2C4.63328 24.724 4.65994 24.244 4.72024 23.76C4.72024 23.6 4.72024 23.44 4.72024 23.28C4.9553 22.61 5.16862 21.9167 5.36024 21.2C5.45902 21.1823 5.53902 21.129 5.60024 21.04C5.68013 21.8383 5.70678 22.6383 5.68024 23.44Z"
            fill="#031644" />
        <path fill-rule="evenodd" clip-rule="evenodd"
            d="M-0.0800781 22.96C0.0265886 22.96 0.133255 22.96 0.239922 22.96C0.29704 23.8292 0.45704 24.6825 0.719922 25.52C0.914546 26.0212 1.18121 26.448 1.51992 26.8C1.67567 27.1115 1.83567 27.4315 1.99992 27.76C2.12235 27.9379 2.28235 28.0446 2.47992 28.08C2.90659 28.72 3.43992 29.2532 4.07992 29.68C5.14581 30.4268 6.31914 30.9601 7.59992 31.28C7.76826 31.5609 8.03493 31.6676 8.39992 31.6C8.55992 31.6 8.71992 31.6 8.87992 31.6C8.87992 31.7067 8.87992 31.8132 8.87992 31.92C5.89325 31.92 2.90659 31.92 -0.0800781 31.92C-0.0800781 28.9332 -0.0800781 25.9467 -0.0800781 22.96Z"
            fill="#F7FAFA" />
        <path fill-rule="evenodd" clip-rule="evenodd"
            d="M4.72002 23.7598C4.65972 24.2438 4.63306 24.7238 4.64002 25.1998C4.82597 25.5738 5.11932 25.7873 5.52002 25.8398C5.66423 25.9662 5.77088 26.1262 5.84002 26.3198C5.38384 26.5414 5.01052 26.4348 4.72002 25.9998C4.32957 26.2226 3.90292 26.3561 3.44002 26.3998C3.17839 26.6794 2.85839 26.8662 2.48002 26.9598C2.39162 27.3161 2.39162 27.6895 2.48002 28.0798C2.28245 28.0444 2.12245 27.9377 2.00002 27.7598C1.83576 27.4313 1.67576 27.1113 1.52002 26.7998C1.65426 26.6172 1.76093 26.4039 1.84002 26.1598C1.68247 25.9041 1.6558 25.6374 1.76002 25.3598C2.34829 25.0084 2.90829 24.635 3.44002 24.2398C3.6798 24.4282 3.8398 24.695 3.92002 25.0398C4.02669 24.9865 4.13335 24.933 4.24002 24.8798C4.37744 24.4798 4.53744 24.1065 4.72002 23.7598Z"
            fill="#044A79" />
        <path fill-rule="evenodd" clip-rule="evenodd"
            d="M6.00002 21.2002C6.00002 22.3202 6.00002 23.4402 6.00002 24.5602C7.25951 25.0439 8.53951 25.4706 9.84002 25.8402C9.84002 26.1602 9.84002 26.4802 9.84002 26.8002C8.48626 26.789 7.15292 26.629 5.84002 26.3202C5.77088 26.1266 5.66423 25.9666 5.52002 25.8402C5.6628 25.0501 5.71613 24.2501 5.68002 23.4402C5.78669 22.6935 5.89335 21.9469 6.00002 21.2002Z"
            fill="#0967B3" />
        <path fill-rule="evenodd" clip-rule="evenodd"
            d="M11.5999 21.6797C11.5733 23.1739 11.6 24.6674 11.6799 26.1597C12.9729 25.9136 14.2796 25.7003 15.5999 25.5197C15.6533 25.5197 15.7066 25.5197 15.7599 25.5197C15.7985 25.9014 15.6919 26.2214 15.4399 26.4797C14.1171 26.7584 12.7838 26.9717 11.4399 27.1197C11.3874 25.2778 11.4408 23.4643 11.5999 21.6797Z"
            fill="#0C68B3" />
        <path fill-rule="evenodd" clip-rule="evenodd"
            d="M9.99987 25.5195C9.99987 26.0528 9.99987 26.5863 9.99987 27.1195C9.01808 27.1712 8.05808 27.0645 7.11987 26.7995C7.18317 27.2767 7.0765 27.7034 6.79987 28.0795C5.86287 28.5896 4.95619 29.1229 4.07987 29.6795C3.43987 29.2528 2.90655 28.7195 2.47987 28.0795C2.39147 27.6893 2.39147 27.3159 2.47987 26.9595C2.85824 26.8659 3.17824 26.6792 3.43987 26.3995C3.90277 26.3559 4.32943 26.2224 4.71987 25.9995C5.01037 26.4346 5.3837 26.5411 5.83987 26.3195C7.15277 26.6283 8.48611 26.7883 9.83987 26.7995C9.83987 26.4795 9.83987 26.1595 9.83987 25.8395C9.81242 25.6808 9.86576 25.5743 9.99987 25.5195Z"
            fill="#053765" />
        <path fill-rule="evenodd" clip-rule="evenodd"
            d="M7.6001 31.2802C7.95178 31.2194 8.21843 31.3261 8.4001 31.6002C8.03511 31.6679 7.76843 31.5612 7.6001 31.2802Z"
            fill="#676E87" />
        <path fill-rule="evenodd" clip-rule="evenodd"
            d="M8.87988 31.5996C10.4266 31.5996 11.9732 31.5996 13.5199 31.5996C13.5199 31.7063 13.5199 31.8129 13.5199 31.9196C11.9732 31.9196 10.4266 31.9196 8.87988 31.9196C8.87988 31.8129 8.87988 31.7063 8.87988 31.5996Z"
            fill="#3E4E71" />
    </g>
    <defs>
        <clipPath id="clip0_5188_471">
            <rect width="32" height="32" fill="white" />
        </clipPath>
    </defs>
</svg>