<svg width="32" height="32" viewBox="0 0 32 32" fill="none" xmlns="http://www.w3.org/2000/svg">
    <g clip-path="url(#clip0_4991_1180)">
        <path fill-rule="evenodd" clip-rule="evenodd"
            d="M-1 -1C9.66666 -1 20.3334 -1 31 -1C31 9.66666 31 20.3334 31 31C20.3334 31 9.66666 31 -1 31C-1 20.3334 -1 9.66666 -1 -1ZM3 3C11 0.333334 19 0.333334 27 3C25.6666 3 25 3.66666 25 5C23.6666 5 23 5.66666 23 7C21.6666 7 21 7.66666 21 9C19.6667 9 19 9.66666 19 11C17.6667 11 17 11.6667 17 13C15.6667 13 14.3333 13 13 13C13 11.6667 12.3333 11 11 11C11 9.66666 10.3333 9 9 9C9 7.66666 8.33334 7 7 7C7 5.66666 6.33334 5 5 5C5 3.66666 4.33334 3 3 3ZM3 3C4.33334 3 5 3.66666 5 5C6.33334 5 7 5.66666 7 7C8.33334 7 9 7.66666 9 9C10.3333 9 11 9.66666 11 11C12.3333 11 13 11.6667 13 13C13 14.3333 13 15.6667 13 17C11.6667 17 11 17.6667 11 19C9.66666 19 9 19.6667 9 21C7.66666 21 7 21.6666 7 23C5.66666 23 5 23.6666 5 25C3.66666 25 3 25.6666 3 27C0.333334 19 0.333334 11 3 3ZM27 3C29.6666 11 29.6666 19 27 27C27 25.6666 26.3334 25 25 25C25 23.6666 24.3334 23 23 23C23 21.6666 22.3334 21 21 21C21 19.6667 20.3334 19 19 19C19 17.6667 18.3333 17 17 17C17 15.6667 17 14.3333 17 13C18.3333 13 19 12.3333 19 11C20.3334 11 21 10.3333 21 9C22.3334 9 23 8.33334 23 7C24.3334 7 25 6.33334 25 5C26.3334 5 27 4.33334 27 3ZM13 17C14.3333 17 15.6667 17 17 17C18.3333 17 19 17.6667 19 19C20.3334 19 21 19.6667 21 21C22.3334 21 23 21.6666 23 23C24.3334 23 25 23.6666 25 25C26.3334 25 27 25.6666 27 27C19 29.6666 11 29.6666 3 27C4.33334 27 5 26.3334 5 25C6.33334 25 7 24.3334 7 23C8.33334 23 9 22.3334 9 21C10.3333 21 11 20.3334 11 19C12.3333 19 13 18.3333 13 17Z"
            fill="#0083FF" />
        <path fill-rule="evenodd" clip-rule="evenodd"
            d="M13 13C14.3333 13 15.6667 13 17 13C17 14.3333 17 15.6667 17 17C15.6667 17 14.3333 17 13 17C13 15.6667 13 14.3333 13 13Z"
            fill="#0083FF" />
    </g>
    <defs>
        <clipPath id="clip0_4991_1180">
            <rect width="32" height="32" fill="white" />
        </clipPath>
    </defs>
</svg>