<svg width="32" height="32" viewBox="0 0 32 32" fill="none" xmlns="http://www.w3.org/2000/svg">
    <g clip-path="url(#clip0_5047_395)">
        <path
            d="M0 0C10.56 0 21.12 0 32 0C32 10.56 32 21.12 32 32C21.44 32 10.88 32 0 32C0 21.44 0 10.88 0 0Z"
            fill="#3B5DE5" />
        <path
            d="M26.5067 15.5466C26.7158 15.6728 26.8956 15.8297 27.0785 15.9903C27.1122 16.0198 27.1461 16.0492 27.1801 16.0785C27.3006 16.1826 27.4178 16.2902 27.5347 16.3982C27.6314 16.4873 27.7301 16.5735 27.8312 16.6576C27.8667 16.6933 27.8667 16.6933 27.8667 16.7466C27.8821 16.7534 27.8976 16.7602 27.9136 16.7672C27.9795 16.8034 28.0234 16.8435 28.0764 16.8968C28.0956 16.9162 28.1149 16.9355 28.1347 16.9554C28.1546 16.9756 28.1745 16.9958 28.195 17.0166C28.2244 17.046 28.2244 17.046 28.2543 17.076C28.3643 17.1869 28.47 17.3002 28.5714 17.419C28.6152 17.4687 28.6611 17.5153 28.7083 17.5616C28.7971 17.6492 28.8869 17.7385 28.96 17.84C28.96 17.8576 28.96 17.8752 28.96 17.8933C28.9776 17.8933 28.9952 17.8933 29.0133 17.8933C29.0588 17.9462 29.1013 17.9994 29.1433 18.055C29.1699 18.0895 29.1965 18.1241 29.2231 18.1586C29.2438 18.1855 29.2438 18.1855 29.2649 18.2129C29.3049 18.2643 29.3456 18.315 29.3869 18.3655C29.5648 18.5832 29.7287 18.8071 29.8849 19.0409C29.9191 19.0919 29.9536 19.1426 29.9882 19.1932C30.9276 20.5729 31.5561 22.1437 31.84 23.7866C31.845 23.8147 31.85 23.8427 31.8551 23.8716C32.3096 26.454 32 29.8283 32 32C21.44 32 10.88 32 0 32C0 27.644 0 23.288 0 18.8C0.074438 18.8992 0.126806 18.9974 0.18 19.1083C0.269201 19.2895 0.365057 19.4602 0.48 19.6266C0.492134 19.6443 0.504269 19.662 0.516771 19.6802C0.697821 19.9423 0.886652 20.1882 1.10986 20.4157C1.14461 20.4512 1.17873 20.4873 1.21281 20.5235C2.28643 21.6409 3.92326 22.1088 5.43412 22.1428C5.58189 22.1447 5.72964 22.1449 5.87742 22.1448C5.944 22.1451 6.01058 22.1453 6.07716 22.1457C6.21868 22.1462 6.36021 22.1466 6.50173 22.1467C6.70634 22.1469 6.91094 22.1475 7.11555 22.1482C7.44775 22.1493 7.77995 22.1501 8.11215 22.1507C8.43428 22.1513 8.7564 22.152 9.07853 22.153C9.09848 22.153 9.11844 22.1531 9.139 22.1531C9.23915 22.1534 9.33929 22.1537 9.43943 22.154C10.2663 22.1565 11.0931 22.1584 11.92 22.16C11.9162 22.2663 11.9123 22.3727 11.9083 22.4791C11.9072 22.5089 11.9062 22.5388 11.9051 22.5696C11.8976 22.767 11.8807 22.9592 11.8533 23.1548C11.8293 23.3321 11.8162 23.5104 11.8017 23.6887C11.7983 23.7294 11.7949 23.77 11.7915 23.8107C11.7845 23.8954 11.7775 23.9801 11.7705 24.0648C11.7619 24.1709 11.753 24.277 11.7442 24.3831C11.7106 24.7868 11.6778 25.1906 11.6483 25.5945C11.645 25.6396 11.645 25.6396 11.6416 25.6856C11.6098 25.9699 11.6098 25.9699 11.6617 26.245C11.6682 26.2613 11.6747 26.2776 11.6814 26.2944C11.7431 26.4218 11.7936 26.4954 11.9183 26.5666C11.9411 26.58 11.9639 26.5933 11.9874 26.607C12.1473 26.6869 12.3053 26.6856 12.475 26.6383C12.6999 26.5438 12.8942 26.392 13.0849 26.2428C13.2067 26.1477 13.3311 26.0567 13.4567 25.9666C13.6253 25.8455 13.7931 25.7234 13.96 25.6C14.1237 25.479 14.2881 25.3589 14.4533 25.24C14.7037 25.0597 14.9519 24.8767 15.2 24.6933C15.4678 24.4954 15.736 24.2983 16.0062 24.1038C16.2366 23.9377 16.4649 23.7688 16.6933 23.6C16.9611 23.4021 17.2294 23.205 17.4995 23.0104C17.7299 22.8443 17.9583 22.6754 18.1867 22.5066C18.4544 22.3087 18.7227 22.1117 18.9929 21.9171C19.2233 21.751 19.4516 21.5821 19.68 21.4133C19.9478 21.2154 20.216 21.0183 20.4862 20.8238C20.7166 20.6577 20.9449 20.4888 21.1733 20.32C21.4411 20.1221 21.7094 19.925 21.9795 19.7304C22.2099 19.5643 22.4383 19.3954 22.6667 19.2266C22.9344 19.0287 23.2027 18.8317 23.4729 18.6371C23.7033 18.471 23.9316 18.3021 24.16 18.1333C24.4278 17.9354 24.696 17.7383 24.9662 17.5438C25.1748 17.3934 25.3816 17.2407 25.5884 17.0879C25.6554 17.0385 25.7224 16.9892 25.7895 16.94C25.8119 16.9235 25.8343 16.907 25.8574 16.8901C25.8998 16.8589 25.9421 16.8279 25.9845 16.7968C26.3325 16.5698 26.3325 16.5698 26.56 16.24C26.5661 16.1528 26.5649 16.0656 26.565 15.9783C26.5653 15.9546 26.5657 15.9308 26.566 15.9064C26.5663 15.7755 26.558 15.6694 26.5067 15.5466Z"
            fill="#3653DF" />
        <path
            d="M14.6601 5.31788C14.7876 5.40762 14.904 5.51095 15.0211 5.61362C15.0933 5.67661 15.1667 5.73823 15.2399 5.79996C15.2689 5.82444 15.2978 5.84891 15.3267 5.8734C15.3841 5.92197 15.4415 5.97051 15.499 6.01903C15.6658 6.15993 15.8319 6.30167 15.9974 6.44411C16.092 6.52535 16.1879 6.60488 16.2849 6.6833C16.4099 6.78468 16.5283 6.89193 16.6467 7.0009C16.7178 7.06468 16.7906 7.1251 16.8649 7.18496C16.9859 7.28251 17.1001 7.38523 17.2138 7.491C17.3 7.57074 17.3884 7.6463 17.4799 7.71996C17.586 7.80528 17.687 7.89399 17.7866 7.98663C17.9101 8.10156 18.0378 8.20931 18.1693 8.31517C18.2622 8.39159 18.3505 8.47251 18.4393 8.5535C18.508 8.6145 18.5784 8.67238 18.6499 8.72996C18.7713 8.82812 18.8862 8.93134 19.0004 9.0376C19.11 9.139 19.2245 9.2331 19.3409 9.32673C19.4161 9.38898 19.4881 9.45383 19.5599 9.51996C19.6553 9.60778 19.7523 9.69187 19.8533 9.7733C19.9801 9.87562 20.1001 9.9838 20.2199 10.0941C20.2916 10.1585 20.365 10.2195 20.4399 10.28C20.5668 10.3823 20.6867 10.4905 20.8066 10.6008C20.8783 10.6651 20.9517 10.7262 21.0266 10.7866C21.1535 10.889 21.2735 10.9972 21.3934 11.1076C21.4644 11.1714 21.5372 11.2318 21.6116 11.2916C21.7325 11.3892 21.8467 11.4919 21.9604 11.5976C22.07 11.699 22.1845 11.7931 22.3009 11.8867C22.4017 11.9701 22.4971 12.059 22.5934 12.1476C22.6644 12.2114 22.7372 12.2718 22.8116 12.3316C22.9325 12.4292 23.0467 12.5319 23.1604 12.6376C23.27 12.739 23.3845 12.8331 23.5009 12.9267C23.5761 12.989 23.6481 13.0538 23.7199 13.12C23.8391 13.2297 23.9623 13.3325 24.0884 13.4342C24.1815 13.5111 24.2701 13.5922 24.3593 13.6735C24.428 13.7345 24.4984 13.7924 24.5699 13.85C24.6913 13.9481 24.8062 14.0513 24.9204 14.1576C25.03 14.259 25.1445 14.3531 25.2609 14.4467C25.3361 14.509 25.4081 14.5738 25.4799 14.64C25.5753 14.7278 25.6723 14.8119 25.7733 14.8933C25.9015 14.9969 26.0237 15.1057 26.1447 15.2176C26.2046 15.272 26.2658 15.3236 26.3283 15.375C26.3615 15.405 26.3943 15.4355 26.4266 15.4666C26.4427 15.4818 26.4587 15.497 26.4752 15.5127C26.5964 15.6545 26.6016 15.7973 26.6033 15.9766C26.6037 16.011 26.6037 16.011 26.6042 16.0461C26.5999 16.2344 26.5525 16.3466 26.4243 16.488C26.2716 16.6222 26.1119 16.7426 25.9455 16.8589C25.8265 16.9422 25.7099 17.0286 25.5933 17.115C25.4273 17.2377 25.2608 17.3594 25.0933 17.48C24.8429 17.6602 24.5947 17.8433 24.3466 18.0266C24.0788 18.2245 23.8106 18.4216 23.5404 18.6162C23.31 18.7823 23.0817 18.9512 22.8533 19.12C22.5855 19.3178 22.3173 19.5149 22.0471 19.7094C21.9018 19.8142 21.7574 19.9202 21.6133 20.0266C21.4495 20.1476 21.2852 20.2677 21.1199 20.3866C20.8696 20.5669 20.6213 20.7499 20.3733 20.9333C20.1055 21.1312 19.8373 21.3283 19.5671 21.5228C19.3367 21.6889 19.1083 21.8578 18.8799 22.0266C18.6122 22.2245 18.3439 22.4216 18.0737 22.6162C17.8433 22.7823 17.615 22.9512 17.3866 23.12C17.1188 23.3179 16.8506 23.5149 16.5804 23.7095C16.35 23.8756 16.1217 24.0445 15.8933 24.2133C15.6255 24.4112 15.3573 24.6083 15.0871 24.8028C14.8567 24.9689 14.6283 25.1378 14.3999 25.3066C14.1324 25.5044 13.8643 25.7014 13.5943 25.8958C13.4442 26.0039 13.2953 26.1134 13.1466 26.2233C12.4592 26.7306 12.4592 26.7306 12.1599 26.6933C11.9505 26.6318 11.7977 26.5522 11.6866 26.36C11.6036 26.2066 11.5975 26.0847 11.6076 25.912C11.6089 25.889 11.6102 25.8659 11.6115 25.8422C11.631 25.5022 11.6585 25.1626 11.6855 24.8231C11.69 24.7659 11.6945 24.7087 11.699 24.6515C11.7689 23.7625 11.7689 23.7625 11.8108 23.3384C11.8359 23.0846 11.8593 22.8306 11.8822 22.5765C11.8859 22.5358 11.8896 22.4952 11.8933 22.4545C11.9022 22.3563 11.9111 22.2581 11.9199 22.16C11.8859 22.16 11.8518 22.1601 11.8167 22.1602C11.0043 22.1619 10.192 22.1632 9.37961 22.164C9.27923 22.1641 9.17885 22.1643 9.07846 22.1644C9.04849 22.1644 9.04849 22.1644 9.01792 22.1644C8.69604 22.1648 8.37417 22.1654 8.0523 22.1661C7.72106 22.1669 7.38983 22.1673 7.0586 22.1675C6.85485 22.1676 6.65111 22.1679 6.44736 22.1686C6.2901 22.1691 6.13284 22.1691 5.97558 22.169C5.91182 22.169 5.84806 22.1692 5.7843 22.1695C5.19995 22.1722 4.61079 22.1377 4.03993 22.005C4.00936 21.9981 3.97878 21.9913 3.94727 21.9842C2.8912 21.7424 1.98299 21.2844 1.19993 20.5333C1.18694 20.521 1.17394 20.5088 1.16055 20.4961C0.963924 20.3101 0.798132 20.1117 0.639935 19.8933C0.609461 19.8517 0.609461 19.8517 0.578372 19.8092C0.435253 19.6086 0.306698 19.4003 0.193218 19.1814C0.16034 19.1189 0.16034 19.1189 0.119782 19.0575C-0.0317068 18.8013 -0.0221237 18.5617 -0.0193067 18.2735C-0.0193766 18.2202 -0.0195159 18.1669 -0.0197201 18.1136C-0.0200766 17.9678 -0.0194401 17.822 -0.0186361 17.6762C-0.0179436 17.5187 -0.0181778 17.3612 -0.0182992 17.2037C-0.018383 16.931 -0.0178834 16.6584 -0.0169825 16.3857C-0.0160386 16.0999 -0.0154195 15.8141 -0.0152458 15.5282C-0.0152348 15.5104 -0.015223 15.4926 -0.0152117 15.4743C-0.0151575 15.3839 -0.0151095 15.2935 -0.0150635 15.2031C-0.0147278 14.5635 -0.0136511 13.9239 -0.0121355 13.2843C-0.0106651 12.6631 -0.00953216 12.0418 -0.00885423 11.4206C-0.00883319 11.4014 -0.00881244 11.3823 -0.00879075 11.3625C-0.00857978 11.1701 -0.00837464 10.9777 -0.00817552 10.7852C-0.00776977 10.3932 -0.0073199 10.0013 -0.00684088 9.60927C-0.00681892 9.59125 -0.00679678 9.57323 -0.00677415 9.55466C-0.00530296 8.35198 -0.00276385 7.14931 -6.51672e-05 5.94663C0.0619428 6.03964 0.102685 6.13772 0.146602 6.23996C0.447668 6.92614 0.841554 7.54173 1.33327 8.10663C1.36524 8.1436 1.36524 8.1436 1.39785 8.18132C1.51934 8.31936 1.64452 8.44342 1.7866 8.55996C1.79999 8.5713 1.81338 8.58263 1.82717 8.59431C2.21335 8.92106 2.63602 9.17234 3.09327 9.38663C3.12201 9.40052 3.15074 9.4144 3.18035 9.42871C4.09848 9.85008 5.13824 9.93262 6.13383 9.9315C6.22918 9.93149 6.32452 9.93193 6.41987 9.93232C6.58409 9.93292 6.74832 9.93324 6.91254 9.93336C7.14997 9.93353 7.3874 9.93415 7.62482 9.93486C8.01026 9.93601 8.3957 9.93681 8.78115 9.93739C9.15501 9.93795 9.52887 9.93868 9.90273 9.93963C9.93745 9.93972 9.93745 9.93972 9.97286 9.93981C10.089 9.9401 10.2051 9.9404 10.3212 9.9407C11.2808 9.94318 12.2404 9.94509 13.1999 9.94663C13.1999 9.93028 13.1998 9.91393 13.1997 9.89709C13.1996 9.86481 13.1996 9.86481 13.1995 9.83189C13.1995 9.81059 13.1994 9.78929 13.1993 9.76734C13.2001 9.69295 13.2067 9.62038 13.2156 9.54653C13.2189 9.51823 13.2222 9.48993 13.2257 9.46077C13.2293 9.43135 13.2329 9.40194 13.2366 9.37163C13.2403 9.34067 13.244 9.3097 13.2478 9.2778C13.2584 9.18962 13.2691 9.10145 13.2799 9.0133C13.2844 8.97597 13.2889 8.93864 13.2934 8.90132C13.3131 8.73956 13.3344 8.57807 13.3565 8.41663C13.4067 8.0487 13.453 7.68077 13.4933 7.31163C13.4977 7.27133 13.5021 7.23103 13.5065 7.19072C13.5087 7.17074 13.5109 7.15075 13.5132 7.13015C13.5398 6.88736 13.5665 6.64458 13.595 6.402C13.5993 6.36465 13.6036 6.32728 13.6078 6.28991C13.6846 5.60408 13.6846 5.60408 13.9757 5.36861C14.1777 5.22852 14.4419 5.19342 14.6601 5.31788Z"
            fill="#FEFEFE" />
        <path
            d="M31.9733 27.3601C31.9821 27.3601 31.9909 27.3601 32 27.3601C32 28.8913 32 30.4225 32 32.0001C30.416 32.0001 28.832 32.0001 27.2 32.0001C27.2 31.9913 27.2 31.9825 27.2 31.9734C27.2258 31.9709 27.2258 31.9709 27.2523 31.9682C27.7771 31.9143 28.2864 31.8381 28.7733 31.6268C28.8046 31.6136 28.836 31.6004 28.8683 31.5868C28.8985 31.5736 28.9288 31.5604 28.96 31.5468C28.9843 31.5373 29.0087 31.5277 29.0338 31.5179C29.1909 31.4557 29.329 31.3887 29.4657 31.289C29.52 31.2534 29.52 31.2534 29.5867 31.2288C29.6641 31.1955 29.7021 31.1541 29.76 31.0934C29.8071 31.0576 29.8549 31.0226 29.9033 30.9884C29.9876 30.9282 30.07 30.868 30.1483 30.8001C30.2133 30.7468 30.2133 30.7468 30.2666 30.7468C30.2666 30.7292 30.2666 30.7116 30.2666 30.6934C30.3067 30.654 30.3067 30.654 30.3616 30.6084C30.5508 30.4574 30.5508 30.4574 30.6933 30.2668C30.7109 30.2668 30.7285 30.2668 30.7466 30.2668C30.753 30.2523 30.7593 30.2378 30.7659 30.2228C30.8086 30.1442 30.862 30.0798 30.9183 30.0101C31.5252 29.2374 31.8447 28.3264 31.9733 27.3601Z"
            fill="#4B84FC" />
        <path
            d="M3.57324 21.8933C3.71544 21.9083 3.8519 21.9331 3.99125 21.9649C4.61512 22.1047 5.23953 22.1453 5.87733 22.1448C5.94391 22.1451 6.01049 22.1454 6.07707 22.1457C6.21859 22.1462 6.36012 22.1466 6.50164 22.1467C6.70625 22.1469 6.91085 22.1475 7.11546 22.1482C7.44766 22.1494 7.77986 22.1502 8.11206 22.1507C8.43418 22.1513 8.75631 22.152 9.07844 22.153C9.09839 22.153 9.11835 22.1531 9.13891 22.1532C9.23905 22.1535 9.3392 22.1537 9.43934 22.154C10.2662 22.1565 11.0931 22.1584 11.9199 22.16C11.9161 22.2666 11.9121 22.3732 11.9081 22.4799C11.9065 22.5249 11.9065 22.5249 11.9049 22.5708C11.8976 22.7627 11.8814 22.9491 11.8544 23.1392C11.8204 23.3891 11.8062 23.642 11.7866 23.8933C11.7778 23.8933 11.769 23.8933 11.7599 23.8933C11.7546 23.8083 11.7497 23.7233 11.7449 23.6383C11.7434 23.6144 11.7419 23.5906 11.7404 23.566C11.7329 23.4303 11.7376 23.308 11.7599 23.1733C11.7674 23.0795 11.7715 22.9855 11.7761 22.8915C11.7838 22.7494 11.7838 22.7494 11.8132 22.72C11.8174 22.6842 11.8199 22.6483 11.8217 22.6124C11.8228 22.5908 11.8239 22.5692 11.8251 22.547C11.8266 22.513 11.8266 22.513 11.8282 22.4783C11.8294 22.4555 11.8305 22.4328 11.8317 22.4093C11.8346 22.3529 11.8373 22.2964 11.8399 22.24C11.8155 22.24 11.7912 22.24 11.7661 22.2401C11.1647 22.2406 10.5633 22.2411 9.96184 22.2414C9.67096 22.2415 9.38008 22.2417 9.08921 22.242C6.85168 22.2443 6.85168 22.2443 5.87366 22.2282C5.84047 22.2277 5.80729 22.2272 5.7731 22.2266C5.68225 22.2251 5.59141 22.2235 5.50056 22.2217C5.47467 22.2212 5.44879 22.2208 5.42212 22.2204C5.30086 22.2177 5.186 22.21 5.06658 22.1866C5.0303 22.1847 4.99395 22.1837 4.95762 22.184C4.93888 22.1841 4.92015 22.1842 4.90085 22.1843C4.87233 22.1846 4.87233 22.1846 4.84324 22.185C4.82361 22.1851 4.80399 22.1852 4.78376 22.1853C4.73581 22.1857 4.68786 22.1861 4.63991 22.1866C4.63991 22.169 4.63991 22.1514 4.63991 22.1333C4.61959 22.1317 4.59928 22.1301 4.57835 22.1284C4.44644 22.1177 4.31474 22.1067 4.18324 22.0916C4.08841 22.079 4.08841 22.079 4.02658 22.08C4.01778 22.0624 4.00898 22.0448 3.99991 22.0266C3.92796 22.0096 3.85768 21.9955 3.78491 21.9833C3.76468 21.9797 3.74445 21.9762 3.72361 21.9725C3.67352 21.9637 3.62339 21.9551 3.57324 21.9466C3.57324 21.929 3.57324 21.9114 3.57324 21.8933Z"
            fill="#446AEC" />
        <path
            d="M13.2266 9.22656C13.2354 9.22656 13.2442 9.22656 13.2533 9.22656C13.2587 9.39739 13.2474 9.56077 13.2264 9.73C13.2239 9.75089 13.2214 9.77178 13.2188 9.79331C13.2126 9.8444 13.2063 9.89548 13.2 9.94656C12.2123 9.94779 11.2247 9.94872 10.237 9.94929C10.1202 9.94935 10.0034 9.94942 9.88666 9.94949C9.86341 9.94951 9.84016 9.94952 9.81621 9.94953C9.44051 9.94977 9.06481 9.95019 8.68911 9.95068C8.30318 9.95118 7.91726 9.95147 7.53134 9.95158C7.29348 9.95165 7.05563 9.95188 6.81777 9.95232C6.65434 9.9526 6.49091 9.95268 6.32748 9.95262C6.2334 9.95258 6.13932 9.95263 6.04524 9.95292C5.59475 9.9541 5.15827 9.95478 4.71997 9.8399C4.71997 9.8311 4.71997 9.8223 4.71997 9.81323C4.88266 9.81011 5.04022 9.81626 5.20174 9.83667C5.21876 9.83773 5.23577 9.8388 5.2533 9.8399C5.2621 9.8311 5.2709 9.8223 5.27997 9.81323C5.33329 9.81214 5.38665 9.81209 5.43997 9.81323C5.43997 9.83083 5.43997 9.84843 5.43997 9.86656C5.46582 9.86464 5.49167 9.86271 5.5183 9.86073C5.77709 9.84247 6.03393 9.83679 6.2933 9.8399C6.2933 9.8487 6.2933 9.8575 6.2933 9.86656C7.15482 9.86839 8.01634 9.8698 8.87787 9.87065C8.97951 9.87075 9.08115 9.87085 9.18279 9.87096C9.20303 9.87098 9.22326 9.871 9.24411 9.87102C9.57204 9.87137 9.89997 9.872 10.2279 9.87273C10.5642 9.87348 10.9005 9.87393 11.2369 9.87409C11.4445 9.8742 11.6521 9.87455 11.8598 9.8752C12.0188 9.87567 12.1779 9.87572 12.3369 9.87561C12.4023 9.87563 12.4676 9.87579 12.533 9.8761C12.622 9.87649 12.7109 9.8764 12.7999 9.87618C12.826 9.87642 12.8521 9.87665 12.879 9.87689C12.9147 9.87665 12.9147 9.87665 12.951 9.87641C12.9716 9.87644 12.9921 9.87647 13.0133 9.8765C13.0817 9.86376 13.1052 9.84171 13.1466 9.78656C13.1602 9.70157 13.1602 9.70157 13.1616 9.60656C13.1684 9.47039 13.1809 9.35467 13.2266 9.22656Z"
            fill="#5961D0" />
        <path
            d="M3.57324 21.8933C3.71544 21.9083 3.8519 21.9331 3.99125 21.9649C4.61512 22.1047 5.23953 22.1453 5.87733 22.1448C5.94391 22.1451 6.01049 22.1454 6.07707 22.1457C6.21859 22.1462 6.36012 22.1466 6.50164 22.1467C6.70625 22.1469 6.91085 22.1475 7.11546 22.1482C7.44766 22.1494 7.77986 22.1502 8.11206 22.1507C8.43418 22.1513 8.75631 22.152 9.07844 22.153C9.09839 22.153 9.11835 22.1531 9.13891 22.1532C9.23905 22.1535 9.3392 22.1537 9.43934 22.154C10.2662 22.1565 11.0931 22.1584 11.9199 22.16C11.9199 22.2392 11.9199 22.3184 11.9199 22.4C11.9111 22.4 11.9023 22.4 11.8932 22.4C11.8932 22.3296 11.8932 22.2592 11.8932 22.1866C9.49964 22.1866 7.10604 22.1866 4.63991 22.1866C4.63991 22.169 4.63991 22.1514 4.63991 22.1333C4.61959 22.1317 4.59928 22.1301 4.57835 22.1284C4.44644 22.1177 4.31474 22.1067 4.18324 22.0916C4.08841 22.079 4.08841 22.079 4.02658 22.08C4.01778 22.0624 4.00898 22.0448 3.99991 22.0266C3.92796 22.0096 3.85768 21.9955 3.78491 21.9833C3.76468 21.9797 3.74445 21.9762 3.72361 21.9725C3.67352 21.9637 3.62339 21.9551 3.57324 21.9466C3.57324 21.929 3.57324 21.9114 3.57324 21.8933Z"
            fill="#6F83DE" />
        <path
            d="M13.2267 9.22656C13.2355 9.22656 13.2443 9.22656 13.2534 9.22656C13.2629 9.45139 13.2392 9.67196 13.2001 9.89323C13.1734 9.9199 13.1734 9.9199 13.1035 9.92318C13.0721 9.92315 13.0406 9.92313 13.0082 9.9231C12.9908 9.92313 12.9733 9.92315 12.9554 9.92317C12.8965 9.92322 12.8376 9.92307 12.7787 9.92292C12.7367 9.92292 12.6946 9.92292 12.6526 9.92293C12.5381 9.92294 12.4236 9.92279 12.3091 9.9226C12.1896 9.92243 12.0701 9.92242 11.9506 9.92239C11.7241 9.9223 11.4977 9.92208 11.2712 9.92182C11.0134 9.92152 10.7557 9.92137 10.4979 9.92124C9.96751 9.92096 9.43712 9.92049 8.90674 9.9199C8.90674 9.9111 8.90674 9.9023 8.90674 9.89323C8.93879 9.89313 8.93879 9.89313 8.97148 9.89304C9.49092 9.89146 10.0104 9.88945 10.5298 9.88694C10.781 9.88574 11.0322 9.88469 11.2834 9.88399C11.5023 9.88338 11.7211 9.88249 11.94 9.88126C12.056 9.88062 12.1719 9.88013 12.2879 9.87996C12.3969 9.8798 12.506 9.87927 12.6151 9.87845C12.6551 9.87821 12.6952 9.87812 12.7353 9.87816C12.7899 9.87821 12.8446 9.87772 12.8992 9.8772C12.9298 9.87707 12.9604 9.87695 12.9919 9.87682C13.0666 9.87249 13.0666 9.87249 13.1165 9.83108C13.1648 9.75998 13.1589 9.69124 13.1617 9.60656C13.1685 9.47039 13.181 9.35467 13.2267 9.22656Z"
            fill="#3749D1" />
        <path
            d="M26.0067 16.8351C26.0221 16.8411 26.0375 16.8472 26.0533 16.8534C26.0162 16.8765 26.0162 16.8765 25.9783 16.9001C25.8941 16.9523 25.8941 16.9523 25.855 17.0151C25.7939 17.0909 25.7155 17.1103 25.6267 17.1468C25.58 17.189 25.58 17.189 25.5467 17.2268C25.5291 17.2268 25.5115 17.2268 25.4933 17.2268C25.4933 17.2444 25.4933 17.262 25.4933 17.2801C25.4768 17.2872 25.4603 17.2944 25.4433 17.3018C25.3787 17.3322 25.3787 17.3322 25.3333 17.4134C25.3157 17.4134 25.2981 17.4134 25.28 17.4134C25.2646 17.4299 25.2492 17.4464 25.2333 17.4634C25.1637 17.5292 25.1048 17.5485 25.0133 17.5734C25.0133 17.591 25.0133 17.6086 25.0133 17.6268C24.9695 17.6544 24.925 17.681 24.88 17.7068C24.8624 17.7244 24.8448 17.742 24.8267 17.7601C24.7799 17.7883 24.7322 17.8141 24.6842 17.8401C24.6353 17.8672 24.6353 17.8672 24.5867 17.9201C24.526 17.9606 24.4651 17.993 24.4 18.0268C24.3824 18.018 24.3648 18.0092 24.3467 18.0001C24.3777 17.9772 24.4087 17.9544 24.4397 17.9315C24.4599 17.9166 24.4802 17.9017 24.5011 17.8863C24.5466 17.8528 24.5921 17.8193 24.6376 17.7858C24.7527 17.7009 24.8679 17.616 24.9829 17.531C25.2163 17.3587 25.4503 17.1875 25.6857 17.0181C25.7044 17.0046 25.7231 16.9911 25.7424 16.9773C25.7596 16.9649 25.7769 16.9526 25.7946 16.9399C25.8314 16.913 25.8674 16.885 25.903 16.8565C25.9467 16.8268 25.9467 16.8268 26.0067 16.8351Z"
            fill="#3A44CA" />
        <path
            d="M3.57324 21.8933C3.7167 21.9085 3.8543 21.9338 3.99492 21.9657C4.57608 22.0965 5.16551 22.1424 5.75991 22.16C5.75991 22.1688 5.75991 22.1776 5.75991 22.1866C5.39031 22.1866 5.02071 22.1866 4.63991 22.1866C4.63991 22.169 4.63991 22.1514 4.63991 22.1333C4.61959 22.1317 4.59928 22.1301 4.57835 22.1284C4.44644 22.1177 4.31474 22.1067 4.18324 22.0916C4.08841 22.079 4.08841 22.079 4.02658 22.08C4.01778 22.0624 4.00898 22.0448 3.99991 22.0266C3.92796 22.0096 3.85768 21.9955 3.78491 21.9833C3.76468 21.9797 3.74445 21.9762 3.72361 21.9725C3.67352 21.9637 3.62339 21.9551 3.57324 21.9466C3.57324 21.929 3.57324 21.9114 3.57324 21.8933Z"
            fill="#5B82EB" />
        <path
            d="M11.6267 25.1733C11.6355 25.1733 11.6443 25.1733 11.6534 25.1733C11.6567 25.4336 11.6512 25.6915 11.6339 25.9512C11.6267 26.0701 11.6277 26.1759 11.6534 26.2933C11.5519 26.2257 11.5466 26.1984 11.5201 26.08C11.5116 25.9246 11.515 25.779 11.5467 25.6267C11.5585 25.5337 11.5696 25.4407 11.5801 25.3475C11.5972 25.2029 11.5972 25.2029 11.6267 25.1733Z"
            fill="#5374E5" />
        <path
            d="M11.8668 22.6133C11.8756 22.6133 11.8844 22.6133 11.8934 22.6133C11.8768 22.9073 11.8535 23.2002 11.8251 23.4933C11.8214 23.5324 11.8176 23.5716 11.8139 23.6108C11.8049 23.705 11.7959 23.7991 11.7868 23.8933C11.778 23.8933 11.7692 23.8933 11.7601 23.8933C11.7548 23.8083 11.7499 23.7233 11.7451 23.6383C11.7436 23.6144 11.7421 23.5905 11.7406 23.5659C11.7331 23.4302 11.738 23.308 11.7601 23.1733C11.7625 23.1377 11.7643 23.1021 11.7657 23.0664C11.7665 23.0484 11.7672 23.0303 11.768 23.0117C11.7694 22.9748 11.7706 22.9378 11.7716 22.9009C11.7769 22.7841 11.7957 22.707 11.8668 22.6133Z"
            fill="#5672E8" />
        <path
            d="M0.560059 7.04004C0.586459 7.04884 0.612859 7.05764 0.640059 7.06671C0.640059 7.09311 0.640059 7.11951 0.640059 7.14671C0.675259 7.14671 0.710459 7.14671 0.746725 7.14671C0.773392 7.22671 0.773392 7.22671 0.746725 7.30671C0.764325 7.30671 0.781925 7.30671 0.800059 7.30671C0.806659 7.33201 0.813259 7.35731 0.820059 7.38337C0.843536 7.46911 0.843536 7.46911 0.905475 7.49212C0.973168 7.52674 0.984227 7.55437 1.01339 7.62337C1.05475 7.71397 1.09988 7.77177 1.17339 7.84004C1.17339 7.85764 1.17339 7.87524 1.17339 7.89337C1.19099 7.90217 1.20859 7.91097 1.22673 7.92004C1.14673 7.92004 1.14673 7.92004 1.09579 7.86993C0.560059 7.20197 0.560059 7.20197 0.560059 7.04004Z"
            fill="#3232C2" />
        <path
            d="M1.30664 8.08008C1.40902 8.12179 1.46929 8.18939 1.54664 8.26674C1.56919 8.27994 1.59174 8.29314 1.61497 8.30674C1.6916 8.3539 1.73327 8.40831 1.78664 8.48008C1.84085 8.53777 1.84085 8.53777 1.91997 8.58674C1.91997 8.60434 1.91997 8.62194 1.91997 8.64008C1.93702 8.64338 1.95407 8.64668 1.97164 8.65008C1.99887 8.65833 1.99887 8.65833 2.02664 8.66674C2.03544 8.68434 2.04424 8.70194 2.05331 8.72008C2.07971 8.72888 2.10611 8.73768 2.13331 8.74674C2.13331 8.76434 2.13331 8.78194 2.13331 8.80008C2.15091 8.80008 2.16851 8.80008 2.18664 8.80008C2.18664 8.81768 2.18664 8.83528 2.18664 8.85341C1.94804 8.77075 1.75974 8.56259 1.57497 8.39508C1.56048 8.38211 1.546 8.36913 1.53107 8.35577C1.43939 8.27137 1.37194 8.1863 1.30664 8.08008Z"
            fill="#3636C2" />
        <path
            d="M11.7333 23.8933C11.7421 23.8933 11.7509 23.8933 11.76 23.8933C11.7662 24.1795 11.7471 24.4588 11.72 24.7433C11.7161 24.7853 11.7123 24.8273 11.7084 24.8692C11.6991 24.9706 11.6896 25.072 11.68 25.1733C11.6712 25.1733 11.6624 25.1733 11.6533 25.1733C11.6533 24.9533 11.6533 24.7333 11.6533 24.5066C11.6709 24.5066 11.6885 24.5066 11.7067 24.5066C11.7023 24.4901 11.6979 24.4736 11.6933 24.4566C11.6648 24.2782 11.6727 24.0971 11.7067 23.92C11.7155 23.9112 11.7243 23.9024 11.7333 23.8933Z"
            fill="#5674E4" />
        <path
            d="M28.08 31.8933C28.0189 31.9697 27.9886 31.9978 27.8902 32.0121C27.8583 32.0115 27.8265 32.011 27.7937 32.0104C27.7592 32.0101 27.7246 32.0097 27.689 32.0094C27.6527 32.0085 27.6163 32.0076 27.58 32.0067C27.5432 32.0061 27.5064 32.0056 27.4696 32.0052C27.3797 32.0039 27.2898 32.0022 27.2 32C27.2 31.9912 27.2 31.9824 27.2 31.9733C27.2194 31.971 27.2389 31.9688 27.259 31.9664C27.3477 31.956 27.4363 31.9455 27.525 31.935C27.5556 31.9314 27.5863 31.9278 27.6179 31.9241C27.6476 31.9206 27.6772 31.9171 27.7078 31.9134C27.735 31.9102 27.7622 31.907 27.7903 31.9037C27.8662 31.8945 27.8662 31.8945 27.9382 31.8771C28 31.8667 28 31.8667 28.08 31.8933Z"
            fill="#4775F6" />
        <path
            d="M25.9468 15.04C25.9732 15.04 25.9996 15.04 26.0268 15.04C26.0623 15.0756 26.0979 15.1112 26.1334 15.1467C26.2036 15.1802 26.2036 15.1802 26.2668 15.2C26.2668 15.2176 26.2668 15.2352 26.2668 15.2534C26.2932 15.2534 26.3196 15.2534 26.3468 15.2534C26.3468 15.271 26.3468 15.2886 26.3468 15.3067C26.382 15.3155 26.4172 15.3243 26.4534 15.3334C26.4567 15.3548 26.46 15.3763 26.4634 15.3984C26.4689 15.4209 26.4744 15.4435 26.4801 15.4667C26.4977 15.4755 26.5153 15.4843 26.5334 15.4934C26.5246 15.5198 26.5158 15.5462 26.5068 15.5734C26.4783 15.5445 26.4783 15.5445 26.4493 15.515C26.3768 15.4434 26.3025 15.3748 26.2268 15.3067C26.1306 15.2203 26.0375 15.1321 25.9468 15.04Z"
            fill="#547FEE" />
        <path
            d="M25.2799 14.3467C25.2975 14.3467 25.3151 14.3467 25.3332 14.3467C25.3332 14.3731 25.3332 14.3995 25.3332 14.4267C25.3508 14.4355 25.3684 14.4443 25.3866 14.4533C25.4031 14.4753 25.4196 14.4973 25.4366 14.52C25.4939 14.5875 25.5144 14.6042 25.5999 14.6133C25.5999 14.6485 25.5999 14.6837 25.5999 14.72C25.6164 14.7217 25.6329 14.7233 25.6499 14.725C25.7066 14.7467 25.7066 14.7467 25.7399 14.815C25.7465 14.8365 25.7531 14.8579 25.7599 14.88C25.575 14.7462 25.4009 14.6004 25.2266 14.4533C25.2442 14.4445 25.2618 14.4357 25.2799 14.4267C25.2799 14.4003 25.2799 14.3739 25.2799 14.3467Z"
            fill="#547CEE" />
        <path
            d="M0.106689 6.10669C0.124289 6.10669 0.141889 6.10669 0.160023 6.10669C0.160023 6.14189 0.160023 6.17709 0.160023 6.21336C0.177623 6.21336 0.195223 6.21336 0.213356 6.21336C0.222156 6.27496 0.230956 6.33656 0.240023 6.40002C0.257623 6.40002 0.275223 6.40002 0.293356 6.40002C0.305456 6.43027 0.317556 6.46052 0.330023 6.49169C0.361915 6.58795 0.361915 6.58795 0.426689 6.61336C0.437731 6.66846 0.437731 6.66846 0.443356 6.73502C0.44535 6.75706 0.447344 6.77909 0.449398 6.80179C0.450704 6.81881 0.45201 6.83582 0.453356 6.85336C0.342473 6.79791 0.301302 6.63311 0.250023 6.52502C0.236273 6.49678 0.222523 6.46854 0.208356 6.43945C0.188865 6.39864 0.188865 6.39864 0.168981 6.357C0.157032 6.33203 0.145082 6.30707 0.13277 6.28134C0.106689 6.21336 0.106689 6.21336 0.106689 6.10669Z"
            fill="#3132BD" />
        <path
            d="M23.7332 18.4534C23.7596 18.4622 23.786 18.471 23.8132 18.48C23.752 18.5295 23.752 18.5295 23.6908 18.579C23.6497 18.6125 23.6497 18.6125 23.6266 18.6667C23.5914 18.6667 23.5562 18.6667 23.5199 18.6667C23.5287 18.6931 23.5375 18.7195 23.5466 18.7467C23.5094 18.75 23.5094 18.75 23.4716 18.7534C23.3843 18.7654 23.3843 18.7654 23.3366 18.8284C23.3217 18.8539 23.3217 18.8539 23.3066 18.88C23.2802 18.8624 23.2538 18.8448 23.2266 18.8267C23.281 18.7844 23.3354 18.7422 23.3899 18.7C23.4051 18.6882 23.4203 18.6764 23.4359 18.6642C23.4814 18.6291 23.5272 18.5944 23.5732 18.56C23.5879 18.549 23.6025 18.5379 23.6176 18.5265C23.6597 18.4963 23.6597 18.4963 23.7332 18.4534Z"
            fill="#3945CC" />
        <path
            d="M31.9199 24.3201C31.9463 24.3201 31.9727 24.3201 31.9999 24.3201C31.9999 24.6369 31.9999 24.9537 31.9999 25.2801C31.9911 25.2801 31.9823 25.2801 31.9733 25.2801C31.9557 24.9633 31.9381 24.6465 31.9199 24.3201Z"
            fill="#5081FC" />
        <path
            d="M11.8667 26.5601C11.8947 26.5716 11.8947 26.5716 11.9234 26.5834C12.1931 26.6889 12.3664 26.6809 12.64 26.5867C12.64 26.6131 12.64 26.6395 12.64 26.6667C12.6243 26.67 12.6085 26.6732 12.5922 26.6765C12.4593 26.7032 12.4593 26.7032 12.335 26.7551C12.2355 26.7818 12.1624 26.7484 12.0667 26.7154C12.0004 26.6935 11.9353 26.6791 11.8667 26.6667C11.8667 26.6315 11.8667 26.5963 11.8667 26.5601Z"
            fill="#4C6BDD" />
        <path
            d="M13.9999 25.5732C14.0087 25.5908 14.0175 25.6084 14.0266 25.6266C13.9255 25.7629 13.8206 25.8714 13.6532 25.9199C13.6268 25.9111 13.6004 25.9023 13.5732 25.8932C13.6293 25.8499 13.6854 25.8065 13.7416 25.7632C13.7574 25.751 13.7733 25.7387 13.7896 25.7261C13.8586 25.6729 13.9275 25.6215 13.9999 25.5732Z"
            fill="#3F5FE2" />
        <path
            d="M13.5467 6.58667C13.5555 6.58667 13.5643 6.58667 13.5734 6.58667C13.5785 6.78594 13.5587 6.97747 13.5334 7.175C13.5296 7.20572 13.5258 7.23643 13.5218 7.26808C13.5125 7.34318 13.503 7.41827 13.4934 7.49334C13.4846 7.49334 13.4758 7.49334 13.4667 7.49334C13.4425 7.33636 13.4378 7.20887 13.4789 7.05542C13.5043 6.93479 13.5071 6.81204 13.5135 6.68917C13.5201 6.61334 13.5201 6.61334 13.5467 6.58667Z"
            fill="#4558D0" />
        <path
            d="M2.95996 9.28003C3.08663 9.30003 3.08663 9.30003 3.14663 9.36003C3.19952 9.37907 3.25285 9.39699 3.30663 9.41336C3.30663 9.43096 3.30663 9.44856 3.30663 9.4667C3.32588 9.47 3.34513 9.4733 3.36496 9.4767C3.43882 9.49311 3.50388 9.51695 3.57329 9.5467C3.48095 9.57917 3.43401 9.56823 3.34538 9.5293C3.32286 9.51959 3.30035 9.50988 3.27715 9.49987C3.25388 9.48947 3.2306 9.47908 3.20663 9.46836C3.1711 9.45292 3.1711 9.45292 3.13486 9.43716C3.07643 9.41172 3.01815 9.386 2.95996 9.36003C2.95996 9.33363 2.95996 9.30723 2.95996 9.28003Z"
            fill="#3A3FC3" />
        <path
            d="M2.18677 21.3066C2.31266 21.3546 2.43349 21.4123 2.5551 21.47C2.57612 21.4799 2.59714 21.4898 2.6188 21.5001C2.67036 21.5245 2.7219 21.5489 2.77343 21.5733C2.77343 21.5909 2.77343 21.6085 2.77343 21.6266C2.70303 21.6178 2.63263 21.609 2.5601 21.6C2.5601 21.5736 2.5601 21.5472 2.5601 21.52C2.53985 21.5157 2.51961 21.5115 2.49875 21.5072C2.27957 21.4557 2.27957 21.4557 2.20843 21.3683C2.20128 21.348 2.19413 21.3276 2.18677 21.3066Z"
            fill="#5586F0" />
        <path
            d="M4.15991 9.70679C4.43991 9.70679 4.43991 9.70679 4.55325 9.73345C4.57456 9.7384 4.59587 9.74335 4.61783 9.74845C4.63392 9.7523 4.65 9.75615 4.66658 9.76012C4.65778 9.77772 4.64898 9.79532 4.63991 9.81345C4.30205 9.82329 4.30205 9.82329 4.15991 9.76012C4.15991 9.74252 4.15991 9.72492 4.15991 9.70679Z"
            fill="#343CCC" />
        <path
            d="M31.92 24.5867C31.9288 24.5867 31.9376 24.5867 31.9466 24.5867C31.9788 24.7369 31.9763 24.8839 31.975 25.0367C31.9749 25.0627 31.9747 25.0886 31.9746 25.1154C31.9743 25.1792 31.9739 25.2429 31.9733 25.3067C31.9645 25.3067 31.9557 25.3067 31.9466 25.3067C31.9466 25.2363 31.9466 25.1659 31.9466 25.0933C31.929 25.0933 31.9114 25.0933 31.8933 25.0933C31.9021 24.9261 31.9109 24.7589 31.92 24.5867Z"
            fill="#1F32C6" />
        <path
            d="M11.7333 23.8933C11.7421 23.8933 11.7509 23.8933 11.76 23.8933C11.7607 23.9522 11.7612 24.0111 11.7616 24.07C11.7619 24.1028 11.7623 24.1356 11.7626 24.1694C11.7602 24.258 11.7503 24.3397 11.7333 24.4266C11.68 24.3733 11.68 24.3733 11.6738 24.3163C11.6801 23.9466 11.6801 23.9466 11.7333 23.8933Z"
            fill="#4B69E3" />
        <path
            d="M14.4534 5.2C14.471 5.2176 14.4886 5.2352 14.5067 5.25333C14.4816 5.25657 14.4565 5.2598 14.4307 5.26313C14.3809 5.26983 14.3809 5.26983 14.3301 5.27667C14.2809 5.28316 14.2809 5.28316 14.2307 5.28979C14.1403 5.30546 14.0593 5.32853 13.9734 5.36C13.9734 5.3424 13.9734 5.3248 13.9734 5.30667C13.9998 5.30667 14.0262 5.30667 14.0534 5.30667C14.0534 5.28907 14.0534 5.27147 14.0534 5.25333C14.0974 5.25333 14.1414 5.25333 14.1867 5.25333C14.1867 5.23573 14.1867 5.21813 14.1867 5.2C14.2822 5.16695 14.3559 5.17669 14.4534 5.2Z"
            fill="#485AD5" />
        <path
            d="M23.2266 18.8533C23.2266 18.9066 23.2266 18.9066 23.1837 18.9508C23.1649 18.967 23.146 18.9832 23.1266 18.9999C23.108 19.0162 23.0895 19.0324 23.0704 19.0491C23.0172 19.0902 22.9666 19.1173 22.9066 19.1466C22.889 19.1642 22.8714 19.1818 22.8533 19.1999C22.8533 19.1647 22.8533 19.1295 22.8533 19.0933C22.9049 19.0456 22.953 19.0066 23.0099 18.9666C23.0248 18.9556 23.0396 18.9447 23.0548 18.9334C23.1653 18.8533 23.1653 18.8533 23.2266 18.8533Z"
            fill="#404DCD" />
        <path
            d="M11.7867 23.2534C11.7955 23.2534 11.8043 23.2534 11.8133 23.2534C11.8161 23.4686 11.8142 23.6798 11.7867 23.8934C11.7779 23.8934 11.7691 23.8934 11.76 23.8934C11.754 23.8068 11.7486 23.7201 11.7433 23.6334C11.7416 23.6089 11.7399 23.5843 11.7381 23.559C11.7368 23.5353 11.7354 23.5116 11.734 23.4872C11.7326 23.4654 11.7312 23.4436 11.7297 23.4212C11.7338 23.3529 11.7523 23.3119 11.7867 23.2534Z"
            fill="#506DDF" />
        <path
            d="M30.0801 30.72C30.1241 30.7288 30.1681 30.7376 30.2134 30.7466C30.112 30.8512 30.005 30.9464 29.8934 31.04C29.8758 31.0312 29.8582 31.0224 29.8401 31.0133C29.8577 30.9869 29.8753 30.9605 29.8934 30.9333C29.9198 30.9333 29.9462 30.9333 29.9734 30.9333C29.9734 30.9157 29.9734 30.8981 29.9734 30.88C29.991 30.88 30.0086 30.88 30.0268 30.88C30.0268 30.8624 30.0268 30.8448 30.0268 30.8266C30.0444 30.8266 30.062 30.8266 30.0801 30.8266C30.0801 30.7914 30.0801 30.7562 30.0801 30.72Z"
            fill="#2532C9" />
        <path
            d="M26.4801 16.3999C26.4801 16.4799 26.4801 16.4799 26.4217 16.5432C26.397 16.5663 26.3722 16.5894 26.3467 16.6132C26.3236 16.638 26.3005 16.6627 26.2767 16.6882C26.2134 16.7466 26.2134 16.7466 26.1334 16.7466C26.1334 16.7642 26.1334 16.7818 26.1334 16.7999C26.1158 16.7911 26.0982 16.7823 26.0801 16.7732C26.2072 16.6419 26.3437 16.5214 26.4801 16.3999Z"
            fill="#3C43C6" />
        <path
            d="M26.5066 15.5466C26.5468 15.5713 26.5868 15.5964 26.6266 15.6216C26.66 15.6425 26.66 15.6425 26.6941 15.6638C26.7114 15.6779 26.7287 15.6921 26.7466 15.7066C26.7466 15.733 26.7466 15.7594 26.7466 15.7866C26.6466 15.8166 26.6466 15.8166 26.5866 15.7866C26.5639 15.7315 26.5639 15.7315 26.5433 15.665C26.5363 15.6429 26.5294 15.6209 26.5222 15.5982C26.5171 15.5812 26.5119 15.5642 26.5066 15.5466Z"
            fill="#2B39C7" />
        <path
            d="M0.266602 19.3333C0.340386 19.4005 0.391203 19.4761 0.444935 19.5599C0.461538 19.5855 0.478141 19.6111 0.495247 19.6374C0.533268 19.7066 0.533268 19.7066 0.533268 19.7866C0.453268 19.7333 0.453268 19.7333 0.426602 19.6533C0.400202 19.6445 0.373802 19.6357 0.346602 19.6266C0.316602 19.5383 0.316602 19.5383 0.293268 19.4399C0.287768 19.4185 0.282268 19.397 0.276602 19.3749C0.273302 19.3612 0.270002 19.3474 0.266602 19.3333Z"
            fill="#628CF7" />
        <path
            d="M24.2666 18.0532C24.2842 18.062 24.3018 18.0708 24.3199 18.0799C24.2495 18.1679 24.1791 18.2559 24.1066 18.3466C24.0978 18.329 24.089 18.3114 24.0799 18.2932C24.0623 18.2932 24.0447 18.2932 24.0266 18.2932C24.0671 18.1719 24.1644 18.1199 24.2666 18.0532Z"
            fill="#3A45D0" />
        <path
            d="M22.8001 19.1733C22.7673 19.2717 22.7544 19.2628 22.6668 19.3067C22.6448 19.3303 22.6228 19.354 22.6001 19.3783C22.5781 19.3987 22.5561 19.419 22.5334 19.44C22.4759 19.4305 22.4759 19.4305 22.4268 19.4133C22.4789 19.3732 22.5311 19.3332 22.5834 19.2933C22.5982 19.2819 22.6131 19.2704 22.6283 19.2587C22.7407 19.1733 22.7407 19.1733 22.8001 19.1733Z"
            fill="#3C49CF" />
        <path
            d="M26.0068 16.8351C26.0222 16.8411 26.0376 16.8472 26.0535 16.8534C26.0287 16.8688 26.004 16.8842 25.9785 16.9001C25.9042 16.9525 25.8618 16.9916 25.8135 17.0668C25.7783 17.058 25.7431 17.0492 25.7068 17.0401C25.9182 16.8228 25.9182 16.8228 26.0068 16.8351Z"
            fill="#323CCB" />
        <path
            d="M2.56011 9.06665C2.59959 9.08826 2.63903 9.10994 2.67845 9.13165C2.70041 9.14372 2.72238 9.15578 2.74501 9.16821C2.80011 9.19998 2.80011 9.19998 2.82678 9.22665C2.83558 9.20905 2.84438 9.19145 2.85345 9.17332C2.87105 9.18212 2.88865 9.19092 2.90678 9.19998C2.92345 9.25498 2.92345 9.25498 2.93345 9.30665C2.82512 9.29123 2.75084 9.25622 2.65845 9.19832C2.6349 9.18371 2.61135 9.1691 2.58709 9.15405C2.56939 9.14281 2.55169 9.13156 2.53345 9.11998C2.54225 9.10238 2.55105 9.08478 2.56011 9.06665Z"
            fill="#383CC1" />
        <path
            d="M3.78673 9.57324C3.81313 9.58204 3.83953 9.59084 3.86673 9.59991C3.86673 9.61751 3.86673 9.63511 3.86673 9.65324C3.90303 9.65077 3.90303 9.65077 3.94007 9.64824C4.03446 9.65369 4.06538 9.67046 4.1334 9.73324C3.98235 9.72351 3.86654 9.7051 3.7334 9.62658C3.751 9.60898 3.7686 9.59138 3.78673 9.57324Z"
            fill="#3739C5" />
        <path
            d="M1.30664 8.08008C1.40879 8.1217 1.47041 8.18856 1.54664 8.26674C1.57304 8.28434 1.59944 8.30194 1.62664 8.32008C1.61784 8.34648 1.60904 8.37288 1.59997 8.40008C1.47836 8.30374 1.3862 8.21373 1.30664 8.08008Z"
            fill="#433FC2" />
        <path
            d="M26.4532 15.3332C26.4565 15.3547 26.4598 15.3761 26.4632 15.3982C26.4715 15.4321 26.4715 15.4321 26.4799 15.4666C26.4975 15.4754 26.5151 15.4842 26.5332 15.4932C26.5244 15.5196 26.5156 15.546 26.5065 15.5732C26.4284 15.4972 26.3561 15.4225 26.2932 15.3332C26.3596 15.3 26.3842 15.3125 26.4532 15.3332Z"
            fill="#4C78EA" />
        <path
            d="M22.3733 11.9468C22.4085 11.9468 22.4437 11.9468 22.48 11.9468C22.48 11.9732 22.48 11.9996 22.48 12.0268C22.5009 12.029 22.5218 12.0312 22.5433 12.0334C22.6133 12.0534 22.6133 12.0534 22.645 12.1051C22.6521 12.1233 22.6593 12.1414 22.6666 12.1601C22.6842 12.1777 22.7018 12.1953 22.72 12.2134C22.61 12.2134 22.5812 12.1687 22.5016 12.0951C22.4776 12.0731 22.4536 12.0512 22.4288 12.0285C22.4105 12.0104 22.3922 11.9922 22.3733 11.9734C22.3733 11.9646 22.3733 11.9558 22.3733 11.9468Z"
            fill="#5776E9" />
        <path
            d="M4.71997 9.81343C5.00152 9.80851 5.00152 9.80851 5.11997 9.84009C5.11997 9.85769 5.11997 9.87529 5.11997 9.89343C4.97548 9.89945 4.85931 9.8792 4.71997 9.84009C4.71997 9.83129 4.71997 9.82249 4.71997 9.81343Z"
            fill="#2E33C6" />
        <path
            d="M13.8399 25.6799C13.8487 25.6975 13.8575 25.7151 13.8666 25.7333C13.8578 25.7509 13.849 25.7685 13.8399 25.7866C13.8135 25.7866 13.7871 25.7866 13.7599 25.7866C13.7599 25.813 13.7599 25.8394 13.7599 25.8666C13.7116 25.8949 13.7116 25.8949 13.6532 25.9199C13.6268 25.9111 13.6004 25.9023 13.5732 25.8933C13.6612 25.8229 13.7492 25.7525 13.8399 25.6799Z"
            fill="#4C68DC" />
        <path
            d="M29.6267 18.72C29.8044 18.8928 29.8044 18.8928 29.84 18.96C29.8184 19.0333 29.8184 19.0333 29.7867 19.0933C29.773 19.0383 29.7596 18.9842 29.75 18.9283C29.7445 18.9124 29.739 18.8964 29.7334 18.88C29.707 18.8712 29.6806 18.8624 29.6534 18.8533C29.6446 18.8093 29.6358 18.7653 29.6267 18.72Z"
            fill="#2331C6" />
        <path
            d="M31.84 27.9734C31.8488 27.9734 31.8576 27.9734 31.8667 27.9734C31.852 28.1131 31.8286 28.2393 31.7867 28.3734C31.7779 28.3734 31.7691 28.3734 31.76 28.3734C31.763 28.3167 31.7664 28.26 31.77 28.2034C31.7719 28.1718 31.7737 28.1403 31.7756 28.1078C31.7867 28.0267 31.7867 28.0267 31.84 27.9734Z"
            fill="#1E2AC4" />
        <path
            d="M1.38672 20.72C1.507 20.7856 1.60499 20.8694 1.70672 20.96C1.68912 20.9776 1.67152 20.9952 1.65339 21.0133C1.64459 20.9869 1.63579 20.9605 1.62672 20.9333C1.57739 20.9053 1.57739 20.9053 1.52005 20.88C1.44056 20.8277 1.41759 20.8126 1.38672 20.72Z"
            fill="#628BF6" />
        <path
            d="M29.2 18.1868C29.2176 18.1868 29.2352 18.1868 29.2533 18.1868C29.2993 18.2393 29.2993 18.2393 29.35 18.3068C29.3668 18.329 29.3836 18.3513 29.401 18.3743C29.4138 18.3916 29.4267 18.4089 29.44 18.4268C29.4136 18.4356 29.3872 18.4444 29.36 18.4534C29.3479 18.4369 29.3358 18.4204 29.3233 18.4034C29.2807 18.3452 29.2807 18.3452 29.2266 18.2934C29.21 18.2368 29.21 18.2368 29.2 18.1868Z"
            fill="#2431C9" />
        <path
            d="M17.8666 22.7734C17.8566 22.8384 17.8566 22.8384 17.8399 22.9068C17.8135 22.92 17.8135 22.92 17.7866 22.9334C17.7299 22.9084 17.7299 22.9084 17.6799 22.8801C17.8066 22.7734 17.8066 22.7734 17.8666 22.7734Z"
            fill="#4158DB" />
        <path
            d="M20.16 21.0933C20.1512 21.1197 20.1424 21.1461 20.1334 21.1733C20.0784 21.1916 20.0784 21.1916 20.0267 21.1999C20.0267 21.2175 20.0267 21.2351 20.0267 21.2533C20.0003 21.2709 19.9739 21.2885 19.9467 21.3066C19.9203 21.2978 19.8939 21.289 19.8667 21.2799C19.9055 21.2487 19.9444 21.2176 19.9834 21.1866C20.0159 21.1606 20.0159 21.1606 20.049 21.1341C20.1067 21.0933 20.1067 21.0933 20.16 21.0933Z"
            fill="#4357CE" />
        <path
            d="M0.560114 19.7866C0.638301 19.8627 0.710598 19.9373 0.773447 20.0266C0.764647 20.0442 0.755847 20.0618 0.746781 20.08C0.680114 20.0183 0.680114 20.0183 0.613447 19.9466C0.613447 19.9202 0.613447 19.8938 0.613447 19.8666C0.587047 19.8578 0.560647 19.849 0.533447 19.84C0.542247 19.8224 0.551047 19.8048 0.560114 19.7866Z"
            fill="#6590F4" />
        <path
            d="M28.24 17.0933C28.2702 17.1175 28.3001 17.142 28.33 17.1666C28.3467 17.1802 28.3634 17.1938 28.3806 17.2078C28.4289 17.2554 28.4534 17.298 28.48 17.3599C28.4536 17.3599 28.4272 17.3599 28.4 17.3599C28.3912 17.3335 28.3824 17.3071 28.3733 17.2799C28.3469 17.2711 28.3205 17.2623 28.2933 17.2533C28.2617 17.1716 28.2617 17.1716 28.24 17.0933Z"
            fill="#2137C7" />
        <path
            d="M0 5.94678C0.0530928 6.02642 0.0784333 6.09603 0.106667 6.18678C0.0714667 6.19558 0.0362667 6.20438 0 6.21344C0 6.12544 0 6.03744 0 5.94678Z"
            fill="#EEEFFD" />
        <path
            d="M30.7467 30.1599C30.7643 30.1687 30.7819 30.1775 30.8 30.1866C30.7736 30.2262 30.7736 30.2262 30.7467 30.2666C30.7291 30.2666 30.7115 30.2666 30.6933 30.2666C30.6856 30.2836 30.6779 30.3007 30.67 30.3182C30.64 30.3732 30.64 30.3732 30.5867 30.3999C30.5867 30.3735 30.5867 30.3471 30.5867 30.3199C30.6043 30.3111 30.6219 30.3023 30.64 30.2932C30.6488 30.2756 30.6576 30.258 30.6667 30.2399C30.6933 30.1866 30.6933 30.1866 30.7467 30.1599Z"
            fill="#2034C6" />
        <path
            d="M14.7201 25.04C14.7377 25.0488 14.7553 25.0576 14.7734 25.0667C14.7384 25.12 14.7384 25.12 14.6934 25.1734C14.667 25.1734 14.6406 25.1734 14.6134 25.1734C14.6046 25.1998 14.5958 25.2262 14.5868 25.2534C14.5692 25.227 14.5516 25.2006 14.5334 25.1734C14.595 25.1294 14.6566 25.0854 14.7201 25.04Z"
            fill="#4967E1" />
        <path
            d="M23.3068 12.6934C23.3728 12.7198 23.3728 12.7198 23.4401 12.7467C23.4401 12.7907 23.4401 12.8347 23.4401 12.88C23.3785 12.836 23.3169 12.792 23.2534 12.7467C23.271 12.7291 23.2886 12.7115 23.3068 12.6934Z"
            fill="#5879EB" />
        <path
            d="M22.8533 12.3733C22.9061 12.3733 22.9589 12.3733 23.0133 12.3733C23.0309 12.4349 23.0485 12.4965 23.0666 12.56C23.031 12.534 22.9954 12.5078 22.9599 12.4816C22.9401 12.4671 22.9203 12.4525 22.8999 12.4376C22.8845 12.4252 22.8691 12.4127 22.8533 12.4C22.8533 12.3912 22.8533 12.3824 22.8533 12.3733Z"
            fill="#577BE9" />
        <path
            d="M27.36 31.8933C27.4304 31.9021 27.5008 31.9109 27.5733 31.92C27.4826 31.9758 27.4119 31.9781 27.3066 31.9733C27.3242 31.9469 27.3418 31.9205 27.36 31.8933Z"
            fill="#2335C5" />
        <path
            d="M30.2667 30.6934C30.2931 30.7066 30.2931 30.7066 30.3201 30.72C30.2937 30.7332 30.2937 30.7332 30.2667 30.7467C30.2667 30.7291 30.2667 30.7115 30.2667 30.6934ZM30.2667 30.7467C30.2579 30.7731 30.2491 30.7995 30.2401 30.8267C30.2225 30.8267 30.2049 30.8267 30.1867 30.8267C30.1867 30.8443 30.1867 30.8619 30.1867 30.88C30.1515 30.8712 30.1163 30.8624 30.0801 30.8534C30.2067 30.7467 30.2067 30.7467 30.2667 30.7467Z"
            fill="#4B77F8" />
        <path
            d="M31.7066 23.2534C31.7154 23.2534 31.7242 23.2534 31.7332 23.2534C31.742 23.3414 31.7508 23.4294 31.7599 23.5201C31.7423 23.5201 31.7247 23.5201 31.7066 23.5201C31.6766 23.3434 31.6766 23.3434 31.7066 23.2534Z"
            fill="#2128C4" />
        <path
            d="M0 5.89331C0.0516667 5.91331 0.0516667 5.91331 0.106667 5.94664C0.126667 6.00331 0.126667 6.00331 0.133333 6.05331C0.106933 6.06211 0.0805333 6.07091 0.0533333 6.07998C0.0357333 6.01838 0.0181333 5.95678 0 5.89331Z"
            fill="#2E2EC0" />
        <path
            d="M13.76 5.43994C13.7952 5.45754 13.8304 5.47514 13.8666 5.49327C13.8226 5.56367 13.7786 5.63407 13.7333 5.70661C13.6983 5.60163 13.7268 5.54328 13.76 5.43994Z"
            fill="#465AD6" />
        <path
            d="M22.9916 19.0501C23.0076 19.0556 23.0235 19.0611 23.0399 19.0667C23.0086 19.0849 23.0086 19.0849 22.9766 19.1034C22.9056 19.1436 22.9056 19.1436 22.8533 19.2001C22.8533 19.1649 22.8533 19.1297 22.8533 19.0934C22.9333 19.0401 22.9333 19.0401 22.9916 19.0501Z"
            fill="#3544D1" />
        <path
            d="M5.30678 9.86658C5.31558 9.88418 5.32438 9.90178 5.33345 9.91992C5.26305 9.91992 5.19265 9.91992 5.12012 9.91992C5.12012 9.90232 5.12012 9.88472 5.12012 9.86658C5.19205 9.83062 5.23083 9.84516 5.30678 9.86658Z"
            fill="#3E44D2" />
        <path
            d="M13.2532 8.80005C13.2708 8.80005 13.2884 8.80005 13.3066 8.80005C13.3066 8.87045 13.3066 8.94085 13.3066 9.01338C13.2978 8.99578 13.289 8.97818 13.2799 8.96005C13.2623 8.95125 13.2447 8.94245 13.2266 8.93338C13.2354 8.88938 13.2442 8.84538 13.2532 8.80005Z"
            fill="#3850D2" />
        <path
            d="M1.22662 7.91992C1.24422 7.91992 1.26182 7.91992 1.27995 7.91992C1.27995 7.94632 1.27995 7.97272 1.27995 7.99992C1.30635 7.99992 1.33275 7.99992 1.35995 7.99992C1.35995 8.01752 1.35995 8.03512 1.35995 8.05326C1.33355 8.06206 1.30715 8.07086 1.27995 8.07992C1.25355 8.05352 1.22715 8.02712 1.19995 7.99992C1.20875 7.97352 1.21755 7.94712 1.22662 7.91992Z"
            fill="#3433C3" />
        <path
            d="M12.9332 26.3467C12.9508 26.3555 12.9684 26.3643 12.9866 26.3733C12.8942 26.4525 12.8942 26.4525 12.7999 26.5333C12.7823 26.5157 12.7647 26.4981 12.7466 26.48C12.8082 26.436 12.8698 26.392 12.9332 26.3467Z"
            fill="#526DDC" />
        <path
            d="M13.1199 26.2134C13.1466 26.2934 13.1466 26.2934 13.1466 26.3467C13.0938 26.3467 13.041 26.3467 12.9866 26.3467C13.0306 26.3027 13.0746 26.2587 13.1199 26.2134Z"
            fill="#4867E3" />
        <path
            d="M1.1734 20.5066C1.2262 20.5506 1.279 20.5946 1.3334 20.6399C1.307 20.6487 1.2806 20.6575 1.2534 20.6666C1.2182 20.6314 1.183 20.5962 1.14673 20.5599C1.15553 20.5423 1.16433 20.5247 1.1734 20.5066Z"
            fill="#5C8CF8" />
        <path
            d="M23.0667 12.5601C23.1294 12.576 23.1916 12.5939 23.2533 12.6134C23.2621 12.631 23.2709 12.6486 23.28 12.6667C23.2624 12.6843 23.2448 12.7019 23.2267 12.7201C23.1728 12.6763 23.1194 12.6318 23.0667 12.5867C23.0667 12.5779 23.0667 12.5691 23.0667 12.5601Z"
            fill="#5A7EED" />
        <path
            d="M19.0133 8.95996C19.0573 9.00396 19.1013 9.04796 19.1466 9.09329C19.129 9.11089 19.1114 9.12849 19.0933 9.14663C19.0493 9.09383 19.0053 9.04103 18.96 8.98663C18.9776 8.97783 18.9952 8.96903 19.0133 8.95996Z"
            fill="#4F6AE4" />
        <path
            d="M1.62676 8.34668C1.64436 8.34668 1.66196 8.34668 1.6801 8.34668C1.71696 8.39005 1.75261 8.43448 1.78676 8.48001C1.75156 8.48001 1.71636 8.48001 1.6801 8.48001C1.63343 8.42668 1.63343 8.42668 1.6001 8.37335C1.6089 8.36455 1.6177 8.35575 1.62676 8.34668Z"
            fill="#2C2BC0" />
        <path
            d="M18.32 8.32007C18.3376 8.37287 18.3552 8.42567 18.3734 8.48007C18.2891 8.44354 18.2669 8.42703 18.2134 8.34674C18.2667 8.32007 18.2667 8.32007 18.32 8.32007Z"
            fill="#4F6AE6" />
    </g>
    <defs>
        <clipPath id="clip0_5047_395">
            <rect width="32" height="32" fill="white" />
        </clipPath>
    </defs>
</svg>