<svg width="32" height="32" viewBox="0 0 32 32" fill="none" xmlns="http://www.w3.org/2000/svg">
    <path opacity="0.993" fill-rule="evenodd" clip-rule="evenodd"
        d="M0 2.34171C0 2.25498 0 2.16826 0 2.08154C1.38753 2.08154 2.77508 2.08154 4.1626 2.08154C4.34706 2.31672 4.60722 2.40344 4.94309 2.34171C5.06001 3.73686 5.23346 5.1244 5.46341 6.50431C5.46341 6.59102 5.46341 6.67776 5.46341 6.76447C4.49405 6.8484 3.54011 6.76166 2.60163 6.50431C1.8215 5.03717 0.954292 3.64964 0 2.34171Z"
        fill="#68A66B" />
    <path opacity="0.991" fill-rule="evenodd" clip-rule="evenodd"
        d="M4.1626 2.08154C6.50406 2.08154 8.84552 2.08154 11.187 2.08154C11.3887 3.55226 11.5622 5.02651 11.7073 6.50431C9.62601 6.50431 7.54471 6.50431 5.46341 6.50431C5.23345 5.1244 5.06 3.73686 4.94309 2.34171C4.60722 2.40344 4.34705 2.31672 4.1626 2.08154Z"
        fill="#5C966A" />
    <path opacity="0.993" fill-rule="evenodd" clip-rule="evenodd"
        d="M11.187 2.08154C14.4824 2.08154 17.7778 2.08154 21.0732 2.08154C21.2576 2.31672 21.5178 2.40344 21.8537 2.34171C21.9706 3.73686 22.144 5.1244 22.374 6.50431C22.9556 6.42764 23.4759 6.51435 23.935 6.76447C23.1545 6.76447 22.374 6.76447 21.5935 6.76447C18.306 6.52496 15.0106 6.43823 11.7073 6.50431C11.5622 5.02651 11.3888 3.55226 11.187 2.08154Z"
        fill="#4C7F64" />
    <path opacity="0.991" fill-rule="evenodd" clip-rule="evenodd"
        d="M21.0731 2.08154C24.7154 2.08154 28.3577 2.08154 31.9999 2.08154C31.1687 3.61322 30.3016 5.13083 29.3983 6.63439C27.5793 6.76437 25.7581 6.80773 23.9349 6.76447C23.4758 6.51435 22.9555 6.42764 22.3739 6.50431C22.144 5.1244 21.9705 3.73686 21.8536 2.34171C21.5177 2.40344 21.2576 2.31672 21.0731 2.08154Z"
        fill="#406E5F" />
    <path opacity="0.985" fill-rule="evenodd" clip-rule="evenodd"
        d="M5.46338 6.76402C5.46338 6.6773 5.46338 6.59057 5.46338 6.50385C7.54468 6.50385 9.62598 6.50385 11.7073 6.50385C15.0105 6.43777 18.3059 6.52451 21.5935 6.76402C23.6748 7.45779 25.7561 8.15154 27.8374 8.84532C23.4146 8.84532 18.9918 8.84532 14.5691 8.84532C13.962 8.84532 13.355 8.84532 12.7479 8.84532C10.3899 8.0027 7.96172 7.30893 5.46338 6.76402Z"
        fill="#505859" />
    <path opacity="0.988" fill-rule="evenodd" clip-rule="evenodd"
        d="M10.6667 8.84533C11.137 10.4099 11.3972 11.9709 11.4472 13.5283C10.58 13.5283 9.71276 13.5283 8.84556 13.5283C8.04636 13.6108 7.26587 13.5241 6.50409 13.2681C5.68856 11.803 4.82136 10.3721 3.90247 8.97541C6.15555 8.84538 8.41028 8.80203 10.6667 8.84533Z"
        fill="#857492" />
    <path opacity="0.998" fill-rule="evenodd" clip-rule="evenodd"
        d="M14.5691 8.84539C18.9919 8.84539 23.4146 8.84539 27.8374 8.84539C27.9513 8.82838 28.0382 8.87172 28.0975 8.97548C27.2304 10.4497 26.363 11.924 25.4959 13.3982C23.5032 13.5282 21.5086 13.5716 19.5122 13.5283C18.7317 13.5283 17.9512 13.5283 17.1707 13.5283C17.2498 13.3592 17.3365 13.1858 17.4309 13.008C17.0039 11.7401 16.7437 10.4393 16.6504 9.10556C15.8997 9.18527 15.2059 9.09856 14.5691 8.84539Z"
        fill="#56515F" />
    <path fill-rule="evenodd" clip-rule="evenodd"
        d="M10.6666 8.8457C11.3604 8.8457 12.0542 8.8457 12.7479 8.8457C13.355 8.8457 13.962 8.8457 14.5691 8.8457C15.2059 9.09887 15.8997 9.18558 16.6504 9.10587C16.7437 10.4396 17.0038 11.7405 17.4309 13.0083C17.3365 13.1861 17.2498 13.3596 17.1707 13.5286C15.2628 13.5286 13.355 13.5286 11.4471 13.5286C11.3971 11.9713 11.1369 10.4103 10.6666 8.8457Z"
        fill="#6B5D70" />
    <path opacity="0.94" fill-rule="evenodd" clip-rule="evenodd"
        d="M8.84558 13.5283C9.71278 13.5283 10.58 13.5283 11.4472 13.5283C13.3551 13.5283 15.2629 13.5283 17.1708 13.5283C17.9513 13.5283 18.7318 13.5283 19.5122 13.5283C20.8448 14.2372 22.2323 14.8876 23.6749 15.4795C23.9972 16.1824 23.8238 16.7461 23.1545 17.1706C23.1545 16.737 23.1545 16.3034 23.1545 15.8698C20.8131 15.8698 18.4716 15.8698 16.1301 15.8698C15.0769 15.8972 14.0363 15.8105 13.0082 15.6096C11.5979 14.9658 10.2103 14.272 8.84558 13.5283Z"
        fill="#4C5455" />
    <path fill-rule="evenodd" clip-rule="evenodd"
        d="M11.9675 15.6098C12.3583 17.0856 12.8786 18.5165 13.5285 19.9025C13.2902 19.9749 13.1168 20.105 13.0082 20.2927C12.4878 20.2927 11.9675 20.2927 11.4472 20.2927C11.0627 20.3609 10.7158 20.2742 10.4065 20.0326C9.62604 18.645 8.84555 17.2575 8.06506 15.87C9.35443 15.6113 10.6552 15.5246 11.9675 15.6098Z"
        fill="#379195" />
    <path opacity="0.996" fill-rule="evenodd" clip-rule="evenodd"
        d="M11.9675 15.6099C12.3144 15.6099 12.6613 15.6099 13.0082 15.6099C14.0363 15.8107 15.0769 15.8974 16.1301 15.87C16.7536 17.3067 17.2739 18.781 17.6911 20.2928C17.4309 20.2928 17.1708 20.2928 16.9106 20.2928C15.6098 20.2928 14.309 20.2928 13.0082 20.2928C13.1168 20.1051 13.2902 19.975 13.5285 19.9025C12.8787 18.5166 12.3583 17.0857 11.9675 15.6099Z"
        fill="#3E7983" />
    <path opacity="0.998" fill-rule="evenodd" clip-rule="evenodd"
        d="M16.1301 15.8701C18.4716 15.8701 20.8131 15.8701 23.1545 15.8701C23.1545 16.3037 23.1545 16.7373 23.1545 17.1709C22.674 18.1748 22.1537 19.172 21.5935 20.1628C20.2956 20.2927 18.9948 20.336 17.6911 20.2929C17.2739 18.7811 16.7536 17.3068 16.1301 15.8701Z"
        fill="#44606F" />
    <path opacity="0.982" fill-rule="evenodd" clip-rule="evenodd"
        d="M11.4471 20.2925C11.9675 20.2925 12.4878 20.2925 13.0081 20.2925C14.3089 20.2925 15.6097 20.2925 16.9106 20.2925C17.8085 21.0468 18.7625 21.7405 19.7723 22.3738C17.8113 22.7073 15.8167 22.7073 13.7886 22.3738C13.0081 21.68 12.2276 20.9863 11.4471 20.2925Z"
        fill="#4F5758" />
    <path opacity="0.975" fill-rule="evenodd" clip-rule="evenodd"
        d="M13.7887 22.374C15.8168 22.7076 17.8114 22.7076 19.7724 22.374C20.0517 22.5693 20.095 22.8295 19.9025 23.1545C18.642 25.3297 17.3845 27.4977 16.1301 29.6586C16.0434 29.6586 15.9567 29.6586 15.87 29.6586C14.5063 27.3661 13.2055 25.0246 11.9675 22.6342C12.551 22.3807 13.158 22.294 13.7887 22.374Z"
        fill="#56536D" />
</svg>