<svg width="32" height="32" viewBox="0 0 32 32" fill="none" xmlns="http://www.w3.org/2000/svg">
    <g clip-path="url(#clip0_5475_121)">
        <path fill-rule="evenodd" clip-rule="evenodd"
            d="M-0.0800781 -0.0800781C10.5866 -0.0800781 21.2532 -0.0800781 31.9199 -0.0800781C31.9199 10.5866 31.9199 21.2532 31.9199 31.9199C21.2532 31.9199 10.5866 31.9199 -0.0800781 31.9199C-0.0800781 21.2532 -0.0800781 10.5866 -0.0800781 -0.0800781Z"
            fill="#FEFEFE" />
        <path fill-rule="evenodd" clip-rule="evenodd"
            d="M11.4399 9.36026C12.3155 9.30403 13.1688 9.41071 13.9999 9.68026C15.0666 9.25359 16.1332 9.25359 17.1999 9.68026C18.5993 9.16503 19.9326 9.29837 21.1999 10.0803C22.4532 11.3336 23.7067 12.5869 24.9599 13.8403C25.8633 15.2916 25.9166 16.7849 25.1199 18.3203C23.9732 19.467 22.8267 20.6135 21.6799 21.7603C20.4646 22.5164 19.1846 22.6499 17.8399 22.1603C16.7199 22.587 15.5999 22.587 14.4799 22.1603C13.1193 22.691 11.8393 22.5575 10.6399 21.7603C9.38661 20.507 8.13327 19.2535 6.87994 18.0003C5.99096 16.5399 5.93763 15.0466 6.71994 13.5203C7.86661 12.3736 9.01327 11.2269 10.1599 10.0803C10.5758 9.79306 11.0025 9.55306 11.4399 9.36026Z"
            fill="#0A0A0A" />
        <path fill-rule="evenodd" clip-rule="evenodd"
            d="M11.4399 10.1603C12.029 10.1338 12.6156 10.1605 13.1999 10.2403C12.0482 11.3385 10.9548 12.4851 9.9199 13.6803C9.19546 15.0065 9.19546 16.3398 9.9199 17.6803C11.2022 18.9359 12.4556 20.2159 13.6799 21.5203C12.8425 21.7715 12.0425 21.6915 11.2799 21.2803C9.97323 19.9735 8.66658 18.667 7.3599 17.3603C6.57848 16.0935 6.63181 14.8669 7.5199 13.6803C8.71461 12.3506 10.0213 11.1773 11.4399 10.1603Z"
            fill="#F6F6F6" />
        <path fill-rule="evenodd" clip-rule="evenodd"
            d="M18 10.16C18.8915 10.0783 19.7448 10.2116 20.56 10.56C21.92 11.92 23.28 13.28 24.64 14.64C25.2188 15.8751 25.1123 17.0485 24.32 18.16C23.1555 19.4854 21.8489 20.6321 20.4 21.6C19.5044 21.7745 18.6512 21.6678 17.84 21.28C16.5332 19.9733 15.2266 18.6667 13.92 17.36C13.1385 16.0933 13.1919 14.8666 14.08 13.68C15.2784 12.3462 16.5851 11.1728 18 10.16Z"
            fill="#FCFCFC" />
    </g>
    <defs>
        <clipPath id="clip0_5475_121">
            <rect width="32" height="32" fill="white" />
        </clipPath>
    </defs>
</svg>