<svg width="32" height="32" viewBox="0 0 32 32" fill="none" xmlns="http://www.w3.org/2000/svg">
    <g clip-path="url(#clip0_5210_934)">
        <path fill-rule="evenodd" clip-rule="evenodd"
            d="M-0.0712891 -0.0712891C10.5954 -0.0712891 21.262 -0.0712891 31.9287 -0.0712891C31.9287 10.5954 31.9287 21.262 31.9287 31.9287C21.262 31.9287 10.5954 31.9287 -0.0712891 31.9287C-0.0712891 21.262 -0.0712891 10.5954 -0.0712891 -0.0712891Z"
            fill="#FEFEFE" />
        <path fill-rule="evenodd" clip-rule="evenodd"
            d="M17.28 9.03101C17.1852 9.03101 17.0905 9.03101 16.9956 9.03101C15.5374 8.42759 14.0203 8.30908 12.4445 8.67545C12.2217 8.76195 12.0321 8.88047 11.8756 9.03101C11.686 9.03101 11.4963 9.03101 11.3067 9.03101C11.2839 8.78935 11.3076 8.5523 11.3778 8.3199C11.4809 8.39933 11.5994 8.44673 11.7334 8.46212C13.4901 8.17165 15.2441 8.24276 16.9956 8.67545C17.1209 8.77619 17.2156 8.8947 17.28 9.03101Z"
            fill="#F7EFDE" />
        <path fill-rule="evenodd" clip-rule="evenodd"
            d="M16.9955 9.03095C16.8533 9.03095 16.711 9.03095 16.5688 9.03095C15.001 8.65631 13.4366 8.65631 11.8755 9.03095C12.032 8.88041 12.2216 8.7619 12.4444 8.6754C14.0202 8.30902 15.5373 8.42753 16.9955 9.03095Z"
            fill="#C06E53" />
        <path fill-rule="evenodd" clip-rule="evenodd"
            d="M16.5691 9.03125C16.7113 9.03125 16.8536 9.03125 16.9958 9.03125C17.0906 9.03125 17.1854 9.03125 17.2802 9.03125C17.3276 9.03125 17.3751 9.03125 17.4224 9.03125C17.9583 9.41886 18.5272 9.77442 19.1291 10.0979C19.5335 10.4786 19.9128 10.8815 20.2669 11.3068C20.3536 11.4335 20.401 11.5757 20.4091 11.7335C20.172 11.7335 19.9351 11.7335 19.698 11.7335C19.4586 10.6172 18.7711 9.95345 17.6358 9.74236C17.1888 9.82875 16.7384 9.87616 16.2847 9.88458C16.3009 9.56915 16.3956 9.2847 16.5691 9.03125Z"
            fill="#CF633E" />
        <path fill-rule="evenodd" clip-rule="evenodd"
            d="M11.3066 9.03125C10.4948 9.62791 9.73632 10.2916 9.03107 11.0224C8.85201 11.2327 8.70979 11.4698 8.6044 11.7335C8.46218 11.8283 8.31996 11.9231 8.17773 12.0179C8.27143 11.6395 8.46107 11.3076 8.74662 11.0224C8.67191 10.9239 8.57711 10.8528 8.46218 10.809C8.72916 10.6405 9.0136 10.4982 9.31551 10.3824C9.26811 10.335 9.22069 10.2875 9.17329 10.2401C9.35394 10.1122 9.49616 9.94627 9.59996 9.74236C9.7735 9.57012 9.93943 9.57012 10.0977 9.74236C10.3849 9.28557 10.7879 9.04854 11.3066 9.03125Z"
            fill="#F7E8DC" />
        <path fill-rule="evenodd" clip-rule="evenodd"
            d="M17.4224 9.03125C18.1945 9.18634 18.9056 9.4945 19.5557 9.95569C19.7453 10.0979 19.7453 10.2401 19.5557 10.3824C20.1287 10.4976 20.3658 10.8058 20.2668 11.3068C19.9127 10.8815 19.5334 10.4786 19.129 10.0979C18.5271 9.77442 17.9583 9.41886 17.4224 9.03125Z"
            fill="#FBEAE1" />
        <path fill-rule="evenodd" clip-rule="evenodd"
            d="M11.3068 9.03125C11.4964 9.03125 11.6861 9.03125 11.8757 9.03125C11.8999 9.21928 11.8525 9.3852 11.7335 9.52903C11.449 9.57643 11.1646 9.62385 10.8801 9.67125C10.2334 10.1083 9.61708 10.5587 9.03125 11.0224C9.7365 10.2916 10.495 9.62791 11.3068 9.03125Z"
            fill="#BA6C4C" />
        <path fill-rule="evenodd" clip-rule="evenodd"
            d="M16.5687 11.3068C16.6161 11.3068 16.6636 11.3068 16.7109 11.3068C17.2225 11.6277 17.6967 12.007 18.1332 12.4446C18.3112 12.658 18.4535 12.8951 18.5598 13.1557C18.3703 13.1557 18.1805 13.1557 17.9909 13.1557C17.9909 13.3927 17.9909 13.6298 17.9909 13.8668C18.1805 13.8668 18.3703 13.8668 18.5598 13.8668C18.6036 14.2116 18.5561 14.5434 18.4176 14.8624C17.7813 14.5825 17.1177 14.5114 16.4265 14.649C15.9658 14.8959 15.6339 15.2515 15.4309 15.7157C15.2234 15.7252 15.0339 15.6779 14.8621 15.5735C14.8621 15.2417 14.8621 14.9097 14.8621 14.5779C14.625 14.5779 14.388 14.5779 14.1509 14.5779C14.1722 14.7275 14.1485 14.8698 14.0798 15.0046C12.8244 14.2777 11.7577 14.4673 10.8798 15.5735C10.6724 15.5639 10.4827 15.6113 10.3109 15.7157C10.3109 15.3364 10.3109 14.9572 10.3109 14.5779C10.1687 14.5779 10.0265 14.5779 9.88428 14.5779C10.0351 13.8777 10.2721 13.214 10.5954 12.5868C10.9783 12.2508 11.3575 11.919 11.7332 11.5913C12.0442 11.4123 12.376 11.2701 12.7287 11.1646C14.0201 10.7608 15.3001 10.8082 16.5687 11.3068Z"
            fill="#F9F9F6" />
        <path fill-rule="evenodd" clip-rule="evenodd"
            d="M16.5688 9.03098C16.3953 9.28444 16.3006 9.56888 16.2844 9.88431C16.7381 9.8759 17.1885 9.82848 17.6355 9.74209C18.7709 9.95318 19.4584 10.6169 19.6977 11.7332C19.9348 11.7332 20.1718 11.7332 20.4088 11.7332C20.4155 12.2207 20.5814 12.6474 20.9066 13.0132C21.055 13.4764 21.1261 13.9505 21.12 14.4354C20.5929 14.2877 20.0713 14.2877 19.5555 14.4354C19.6 14.0448 19.5527 13.6655 19.4133 13.2976C19.1278 13.0831 18.8908 12.8224 18.7022 12.5154C18.5183 12.4457 18.3286 12.422 18.1333 12.4443C17.8672 11.7984 17.3932 11.4191 16.7111 11.3065C16.6637 11.3065 16.6162 11.3065 16.5688 11.3065C16.4937 11.1329 16.3989 10.967 16.2844 10.8088C15.1001 10.7377 13.915 10.714 12.7288 10.7376C12.7288 10.8799 12.7288 11.0221 12.7288 11.1643C12.3762 11.2698 12.0443 11.4121 11.7333 11.591C11.0476 11.5886 10.6683 11.9205 10.5955 12.5865C10.4284 12.5554 10.2862 12.6028 10.1688 12.7288C9.52065 14.1228 9.28361 15.5924 9.45773 17.1376C9.02926 17.4265 8.57888 17.474 8.10662 17.2799C7.92856 16.0539 7.85745 14.8213 7.89329 13.5821C8.04748 12.9292 8.28451 12.313 8.6044 11.7332C8.70978 11.4695 8.85201 11.2325 9.03106 11.0221C9.61689 10.5584 10.2332 10.108 10.88 9.67098C11.1644 9.62358 11.4488 9.57616 11.7333 9.52876C11.8523 9.38493 11.8997 9.21901 11.8755 9.03098C13.4366 8.65634 15.001 8.65634 16.5688 9.03098Z"
            fill="#DD5B30" />
        <path fill-rule="evenodd" clip-rule="evenodd"
            d="M16.569 11.3063C15.3004 10.8077 14.0203 10.7603 12.729 11.164C12.729 11.0218 12.729 10.8796 12.729 10.7374C13.9151 10.7137 15.1003 10.7374 16.2846 10.8085C16.399 10.9667 16.4939 11.1327 16.569 11.3063Z"
            fill="#C0775A" />
        <path fill-rule="evenodd" clip-rule="evenodd"
            d="M16.7109 11.3066C17.393 11.4192 17.8671 11.7985 18.1332 12.4444C17.6967 12.0068 17.2225 11.6275 16.7109 11.3066Z"
            fill="#BA6650" />
        <path fill-rule="evenodd" clip-rule="evenodd"
            d="M11.7335 11.5908C11.3578 11.9186 10.9786 12.2504 10.5957 12.5864C10.6685 11.9203 11.0478 11.5885 11.7335 11.5908Z"
            fill="#BE6345" />
        <path fill-rule="evenodd" clip-rule="evenodd"
            d="M8.60431 11.7334C8.28442 12.3132 8.0474 12.9294 7.8932 13.5823C7.8458 13.5823 7.79838 13.5823 7.75098 13.5823C7.76865 13.0259 7.91088 12.5044 8.17764 12.0178C8.31987 11.923 8.46209 11.8282 8.60431 11.7334Z"
            fill="#BA6E56" />
        <path fill-rule="evenodd" clip-rule="evenodd"
            d="M10.5954 12.5864C10.2722 13.2136 10.0351 13.8773 9.88431 14.5775C9.83691 14.5775 9.78949 14.5775 9.74209 14.5775C9.64727 15.4309 9.55247 16.2842 9.45765 17.1375C9.28353 15.5923 9.52057 14.1227 10.1688 12.7286C10.2861 12.6027 10.4283 12.5553 10.5954 12.5864Z"
            fill="#BD6B52" />
        <path fill-rule="evenodd" clip-rule="evenodd"
            d="M14.8622 15.5735C14.8622 16.1898 14.8622 16.8062 14.8622 17.4224C14.8622 17.7069 14.8622 17.9913 14.8622 18.2758C14.7125 18.5255 14.4755 18.6204 14.151 18.5602C14.1723 18.4106 14.1486 18.2684 14.0799 18.1335C13.5517 18.5309 12.9591 18.6967 12.3022 18.6313C11.7512 18.4752 11.2771 18.2143 10.8799 17.8491C10.7086 17.0874 10.7086 16.3289 10.8799 15.5735C11.7578 14.4673 12.8245 14.2778 14.0799 15.0047C14.1486 14.8698 14.1723 14.7276 14.151 14.578C14.3881 14.578 14.6251 14.578 14.8622 14.578C14.8622 14.9098 14.8622 15.2417 14.8622 15.5735Z"
            fill="#4F4C4A" />
        <path fill-rule="evenodd" clip-rule="evenodd"
            d="M27.0935 14.5781C27.0935 14.7677 27.0935 14.9574 27.0935 15.147C26.9039 15.147 26.7142 15.147 26.5246 15.147C26.5246 16.2374 26.5246 17.3277 26.5246 18.4181C26.335 18.4181 26.1453 18.4181 25.9557 18.4181C25.9744 18.313 25.9506 18.2182 25.8846 18.1337C25.2256 18.6819 24.4908 18.8242 23.6802 18.5603C22.3208 17.6723 22.0837 16.5345 22.9691 15.147C23.881 14.4587 24.8292 14.4113 25.8135 15.0048C25.9395 14.8875 25.9869 14.7452 25.9557 14.5781C26.335 14.5781 26.7142 14.5781 27.0935 14.5781Z"
            fill="#4C4C4C" />
        <path fill-rule="evenodd" clip-rule="evenodd"
            d="M21.5468 14.5781C21.5468 14.6255 21.5468 14.673 21.5468 14.7203C21.1393 14.9028 20.7126 14.9028 20.2668 14.7203C20.1346 14.8894 20.0873 15.079 20.1246 15.2892C20.3126 15.265 20.4785 15.3124 20.6223 15.4314C20.6307 16.4961 20.7493 17.539 20.9779 18.5603C20.883 18.5603 20.8357 18.6077 20.8357 18.7025C20.5204 18.579 20.1886 18.5316 19.8401 18.5603C19.8401 18.4181 19.8401 18.2759 19.8401 18.1337C19.7927 17.707 19.9823 17.5174 20.409 17.5648C20.409 16.8537 20.409 16.1425 20.409 15.4314C20.2668 15.4314 20.1246 15.4314 19.9823 15.4314C19.8043 15.1699 19.8043 14.9092 19.9823 14.6492C20.5017 14.5782 21.0231 14.5546 21.5468 14.5781Z"
            fill="#7A4939" />
        <path fill-rule="evenodd" clip-rule="evenodd"
            d="M12.302 15.0049C13.8273 15.0771 14.4198 15.8356 14.0798 17.2804C13.3057 18.2635 12.4523 18.3583 11.5198 17.5649C10.9212 16.441 11.1819 15.5877 12.302 15.0049Z"
            fill="#F5F5F4" />
        <path fill-rule="evenodd" clip-rule="evenodd"
            d="M22.2579 14.5773C22.2579 14.8144 22.2579 15.0514 22.2579 15.2885C21.8502 15.2698 21.6132 15.4595 21.5468 15.8573C21.4046 15.8573 21.2624 15.8573 21.1202 15.8573C21.0748 16.549 21.1222 17.2127 21.2624 17.8485C21.452 17.8485 21.6417 17.8485 21.8313 17.8485C21.8313 18.0855 21.8313 18.3225 21.8313 18.5596C21.5468 18.5596 21.2624 18.5596 20.9779 18.5596C20.7494 17.5383 20.6308 16.4954 20.6224 15.4307C20.4786 15.3116 20.3126 15.2643 20.1246 15.2885C20.0873 15.0782 20.1347 14.8887 20.2668 14.7196C20.7127 14.902 21.1394 14.902 21.5468 14.7196C21.7661 14.6056 22.0031 14.5583 22.2579 14.5773Z"
            fill="#544C4F" />
        <path fill-rule="evenodd" clip-rule="evenodd"
            d="M24.1067 15.0049C25.8175 15.1488 26.339 16.0021 25.6712 17.5649C24.5648 18.4353 23.6877 18.2457 23.0401 16.996C22.9135 16.0634 23.269 15.3997 24.1067 15.0049Z"
            fill="#F7F7F7" />
        <path fill-rule="evenodd" clip-rule="evenodd"
            d="M31.36 17.8491C31.36 18.0387 31.36 18.2284 31.36 18.418C30.9807 18.418 30.6015 18.418 30.2222 18.418C30.2459 17.5634 30.2221 16.71 30.1511 15.858C29.8564 15.1976 29.3587 14.9843 28.6578 15.218C28.4375 15.3906 28.2717 15.604 28.16 15.858C28.0889 16.7575 28.0653 17.6582 28.0889 18.5602C27.8993 18.5602 27.7096 18.5602 27.52 18.5602C27.52 17.2328 27.52 15.9053 27.52 14.578C27.7706 14.5576 28.0077 14.6051 28.2311 14.7202C29.4993 14.2025 30.3763 14.5818 30.8622 15.858C30.9332 16.52 30.957 17.1836 30.9334 17.8491C31.0756 17.8491 31.2178 17.8491 31.36 17.8491Z"
            fill="#4E4E4E" />
        <path fill-rule="evenodd" clip-rule="evenodd"
            d="M18.56 13.1553C18.6074 13.1553 18.6549 13.1553 18.7022 13.1553C18.7907 13.3155 18.9092 13.4577 19.0578 13.5819C19.1289 15.0982 19.1526 16.6153 19.1289 18.1331C18.4572 18.0888 17.8172 18.1835 17.2089 18.4175C16.7714 18.2477 16.321 18.1528 15.8578 18.1331C15.8581 17.8015 15.7396 17.5171 15.5022 17.2797C15.4314 16.808 15.4076 16.3339 15.4311 15.8575C15.4311 15.8101 15.4311 15.7626 15.4311 15.7153C15.6341 15.2511 15.966 14.8955 16.4267 14.6486C17.1179 14.5109 17.7815 14.582 18.4178 14.8619C18.5563 14.5429 18.6038 14.2111 18.56 13.8664C18.3704 13.8664 18.1807 13.8664 17.9911 13.8664C17.9911 13.6293 17.9911 13.3923 17.9911 13.1553C18.1807 13.1553 18.3704 13.1553 18.56 13.1553Z"
            fill="#4F4D4D" />
        <path fill-rule="evenodd" clip-rule="evenodd"
            d="M16.8531 15.0049C18.4511 15.1084 18.9964 15.9144 18.4886 17.4227C17.6293 18.3689 16.776 18.3689 15.9286 17.4227C15.4488 16.2988 15.7568 15.4928 16.8531 15.0049Z"
            fill="#F7F7F7" />
        <path fill-rule="evenodd" clip-rule="evenodd"
            d="M22.258 14.5781C22.3704 14.7358 22.4415 14.9254 22.4713 15.147C22.6695 14.7737 22.8353 14.7737 22.9691 15.147C22.0838 16.5345 22.3209 17.6723 23.6802 18.5603C23.419 18.5801 23.3716 18.675 23.538 18.8448C23.8145 18.9428 24.0989 19.0139 24.3913 19.0581C24.3676 19.8576 24.3202 20.6871 24.2491 21.547C24.5825 22.3598 24.4878 23.0709 23.9647 23.6803C22.7612 23.591 21.576 23.4488 20.4091 23.2537C20.4091 23.1115 20.4091 22.9692 20.4091 22.827C21.5661 23.1773 22.7512 23.3195 23.9647 23.2537C23.9647 22.021 23.9647 20.7885 23.9647 19.5559C23.2062 19.5559 22.4476 19.5559 21.6891 19.5559C21.6891 19.9352 21.6891 20.3144 21.6891 20.6937C21.3758 20.6789 21.0914 20.5842 20.8358 20.4092C20.2797 20.2585 20.1375 19.9265 20.4091 19.4137C20.658 19.2488 20.8002 19.0118 20.8358 18.7026C20.8358 18.6077 20.8831 18.5603 20.978 18.5603C21.2624 18.5603 21.5469 18.5603 21.8313 18.5603C21.8313 18.3233 21.8313 18.0863 21.8313 17.8492C21.6418 17.8492 21.452 17.8492 21.2624 17.8492C21.4123 17.194 21.5072 16.5304 21.5469 15.8581C21.6133 15.4603 21.8503 15.2706 22.258 15.2892C22.258 15.0522 22.258 14.8152 22.258 14.5781Z"
            fill="#F7EEE7" />
        <path fill-rule="evenodd" clip-rule="evenodd"
            d="M7.75089 13.582C7.72722 14.8155 7.75091 16.0482 7.822 17.2798C7.96971 17.3856 8.04082 17.5278 8.03533 17.7065C7.79735 17.5866 7.63142 17.397 7.53755 17.1376C7.51303 16.2585 7.44192 15.4052 7.32422 14.5776C7.40314 14.2084 7.54536 13.8765 7.75089 13.582Z"
            fill="#B06350" />
        <path fill-rule="evenodd" clip-rule="evenodd"
            d="M14.8623 15.5732C15.0341 15.6776 15.2237 15.725 15.4312 15.7155C15.4312 15.7628 15.4312 15.8103 15.4312 15.8577C15.3838 15.8577 15.3363 15.8577 15.289 15.8577C15.0579 16.34 14.9156 16.8615 14.8623 17.4221C14.8623 16.8059 14.8623 16.1895 14.8623 15.5732Z"
            fill="#946F67" />
        <path fill-rule="evenodd" clip-rule="evenodd"
            d="M19.982 15.4309C20.1242 15.4309 20.2665 15.4309 20.4087 15.4309C20.4087 16.142 20.4087 16.8532 20.4087 17.5643C19.982 17.5169 19.7924 17.7065 19.8398 18.1332C19.6976 18.1332 19.5553 18.1332 19.4131 18.1332C19.3895 17.2785 19.4133 16.4252 19.4842 15.5732C19.628 15.4541 19.794 15.4068 19.982 15.4309Z"
            fill="#D75D34" />
        <path fill-rule="evenodd" clip-rule="evenodd"
            d="M7.75106 13.582C7.79846 13.582 7.84588 13.582 7.89328 13.582C7.85744 14.8212 7.92855 16.0539 8.10661 17.2798C8.57888 17.4739 9.02925 17.4264 9.45772 17.1376C9.48667 17.4064 9.39185 17.6197 9.17328 17.7776C8.78636 17.8632 8.4071 17.8395 8.0355 17.7065C8.04099 17.5278 7.96988 17.3856 7.82217 17.2798C7.75108 16.0482 7.72739 14.8155 7.75106 13.582Z"
            fill="#CB5E42" />
        <path fill-rule="evenodd" clip-rule="evenodd"
            d="M21.5468 15.8574C21.5071 16.5297 21.4123 17.1933 21.2624 17.8485C21.1222 17.2128 21.0748 16.549 21.1202 15.8574C21.2624 15.8574 21.4046 15.8574 21.5468 15.8574Z"
            fill="#976A51" />
        <path fill-rule="evenodd" clip-rule="evenodd"
            d="M27.0933 14.5781C27.2286 14.7799 27.276 15.0169 27.2356 15.2892C27.046 15.2892 26.8563 15.2892 26.6667 15.2892C26.6667 16.3797 26.6667 17.4699 26.6667 18.5603C26.3943 18.6007 26.1574 18.5534 25.9556 18.4181C26.1451 18.4181 26.3349 18.4181 26.5245 18.4181C26.5245 17.3277 26.5245 16.2374 26.5245 15.147C26.714 15.147 26.9038 15.147 27.0933 15.147C27.0933 14.9574 27.0933 14.7677 27.0933 14.5781Z"
            fill="#9FA09F" />
        <path fill-rule="evenodd" clip-rule="evenodd"
            d="M5.76012 17.4221C5.94975 17.4221 6.13939 17.4221 6.32901 17.4221C6.32901 17.8488 6.32901 18.2754 6.32901 18.7021C5.72088 18.6923 5.15199 18.5501 4.62234 18.2754C2.63442 19.076 1.23589 18.5071 0.426788 16.5688C0.239207 14.0542 1.40069 12.9401 3.91123 13.2266C5.37557 13.8098 6.01557 14.8765 5.83123 16.4266C5.63214 16.8874 5.46621 17.3614 5.33345 17.8488C5.47568 17.8488 5.6179 17.8488 5.76012 17.8488C5.76012 17.7066 5.76012 17.5643 5.76012 17.4221Z"
            fill="#4E4E4F" />
        <path fill-rule="evenodd" clip-rule="evenodd"
            d="M1.35129 16.7112C2.44426 16.4875 3.345 16.7957 4.05351 17.6356C3.05056 18.206 2.17352 18.0401 1.4224 17.1379C1.35374 17.003 1.33003 16.8608 1.35129 16.7112Z"
            fill="#EEEFEF" />
        <path fill-rule="evenodd" clip-rule="evenodd"
            d="M2.48869 13.7241C4.08494 13.5939 4.98569 14.3049 5.19092 15.8574C5.17166 16.3232 5.02944 16.7499 4.76425 17.1374C4.64123 17.2915 4.49901 17.3151 4.33758 17.2085C3.41783 16.3544 2.32746 16.0463 1.06647 16.2841C0.952117 15.0896 1.4262 14.2362 2.48869 13.7241Z"
            fill="#F5F6F6" />
        <path fill-rule="evenodd" clip-rule="evenodd"
            d="M5.75977 17.4218C5.96154 17.2865 6.19856 17.2392 6.47088 17.2796C6.51536 17.7833 6.46795 18.2573 6.32865 18.7018C6.32865 18.2751 6.32865 17.8485 6.32865 17.4218C6.13903 17.4218 5.94939 17.4218 5.75977 17.4218Z"
            fill="#999A99" />
        <path fill-rule="evenodd" clip-rule="evenodd"
            d="M7.32466 14.5781C7.27768 15.5782 7.32508 16.5738 7.46688 17.5648C8.2137 18.3179 8.94851 18.3179 9.67132 17.5648C9.74238 16.5704 9.76609 15.5748 9.74243 14.5781C9.78984 14.5781 9.83725 14.5781 9.88466 14.5781C10.0269 14.5781 10.1691 14.5781 10.3113 14.5781C10.3113 14.9574 10.3113 15.3366 10.3113 15.7159C10.3113 15.7633 10.3113 15.8108 10.3113 15.8581C10.1937 16.6382 10.1226 17.4442 10.098 18.2759C9.72717 18.3645 9.37162 18.4594 9.03132 18.5603C8.69948 18.5603 8.36762 18.5603 8.03577 18.5603C7.51297 18.3454 7.15742 17.9663 6.9691 17.4226C6.89809 16.713 6.8744 16.0019 6.89799 15.2892C6.70837 15.2892 6.51873 15.2892 6.3291 15.2892C6.3291 15.0522 6.3291 14.8152 6.3291 14.5781C6.66095 14.5781 6.99281 14.5781 7.32466 14.5781Z"
            fill="#534B46" />
        <path fill-rule="evenodd" clip-rule="evenodd"
            d="M7.32467 14.5781C7.44237 15.4057 7.51348 16.259 7.538 17.1381C7.63187 17.3975 7.7978 17.5871 8.03578 17.707C8.40737 17.84 8.78664 17.8637 9.17355 17.7781C9.39212 17.6203 9.48694 17.4069 9.458 17.1381C9.55282 16.2848 9.64762 15.4315 9.74244 14.5781C9.76609 15.5748 9.74239 16.5704 9.67133 17.5648C8.94852 18.3179 8.21371 18.3179 7.46689 17.5648C7.32509 16.5738 7.27769 15.5782 7.32467 14.5781Z"
            fill="#664336" />
        <path fill-rule="evenodd" clip-rule="evenodd"
            d="M10.3113 15.8574C10.3113 16.7581 10.3113 17.659 10.3113 18.5596C9.88458 18.5596 9.45792 18.5596 9.03125 18.5596C9.37155 18.4587 9.7271 18.3638 10.0979 18.2752C10.1225 17.4435 10.1936 16.6375 10.3113 15.8574Z"
            fill="#884836" />
        <path fill-rule="evenodd" clip-rule="evenodd"
            d="M18.7024 13.1553C18.9181 13.1568 19.0841 13.2516 19.2001 13.4397C19.3186 15.101 19.2949 16.7603 19.129 18.4175C18.4946 18.4021 17.8546 18.4969 17.209 18.7019C16.7172 18.5785 16.2669 18.3889 15.8579 18.1331C16.3211 18.1528 16.7715 18.2477 17.209 18.4175C17.8173 18.1835 18.4573 18.0888 19.129 18.1331C19.1528 16.6153 19.129 15.0982 19.0579 13.5819C18.9093 13.4577 18.7908 13.3155 18.7024 13.1553Z"
            fill="#6D4234" />
        <path fill-rule="evenodd" clip-rule="evenodd"
            d="M31.3599 17.8486C31.4952 18.0504 31.5426 18.2874 31.5022 18.5597C31.0452 18.6038 30.6185 18.5565 30.2222 18.4175C30.6015 18.4175 30.9806 18.4175 31.3599 18.4175C31.3599 18.2279 31.3599 18.0382 31.3599 17.8486Z"
            fill="#9D9D9D" />
        <path fill-rule="evenodd" clip-rule="evenodd"
            d="M10.8801 15.5735C10.7088 16.3288 10.7088 17.0873 10.8801 17.849C10.5407 18.1032 10.517 18.3876 10.809 18.7024C11.5007 19.421 12.2829 19.9899 13.1556 20.409C12.9009 20.4281 12.6638 20.3807 12.4445 20.2668C12.027 19.8899 11.5529 19.7239 11.0223 19.769C10.9538 19.6257 10.9301 19.4597 10.9512 19.2712C10.7379 19.1528 10.5719 18.9868 10.4534 18.7735C9.83183 18.684 9.21552 18.7076 8.60453 18.8446C8.67995 19.2971 8.82218 19.7238 9.0312 20.1246C8.52761 19.7151 8.19574 19.1936 8.03564 18.5601C8.36749 18.5601 8.69935 18.5601 9.0312 18.5601C9.45787 18.5601 9.88453 18.5601 10.3112 18.5601C10.3112 17.6594 10.3112 16.7586 10.3112 15.8579C10.3112 15.8105 10.3112 15.763 10.3112 15.7157C10.483 15.6113 10.6726 15.5639 10.8801 15.5735Z"
            fill="#BE674C" />
        <path fill-rule="evenodd" clip-rule="evenodd"
            d="M20.4087 11.7334C21.0178 12.5748 21.397 13.5229 21.5465 14.5778C21.0228 14.5544 20.5014 14.578 19.982 14.649C19.804 14.9089 19.804 15.1696 19.982 15.4312C19.794 15.407 19.628 15.4544 19.4843 15.5734C19.4133 16.4255 19.3895 17.2788 19.4131 18.1334C19.5554 18.1334 19.6976 18.1334 19.8398 18.1334C19.8398 18.2756 19.8398 18.4178 19.8398 18.5601C20.1883 18.5313 20.5201 18.5787 20.8354 18.7023C20.7998 19.0115 20.6576 19.2486 20.4087 19.4134C20.4087 19.2238 20.4087 19.0341 20.4087 18.8445C19.0852 18.7589 17.7578 18.8063 16.4265 18.9867C17.0083 19.6341 16.8897 20.1557 16.0709 20.5512C15.9082 20.4927 15.7422 20.4454 15.5731 20.409C15.2113 20.5643 14.832 20.6591 14.4354 20.6934C14.0866 20.6879 13.8022 20.593 13.582 20.409C14.6383 20.5074 15.6339 20.3178 16.5687 19.8401C16.083 19.2114 15.5141 18.6901 14.862 18.2756C14.862 17.9912 14.862 17.7067 14.862 17.4223C14.9154 16.8616 15.0576 16.3401 15.2887 15.8578C14.9953 16.7514 15.1849 17.5099 15.8576 18.1334C16.2666 18.3893 16.7169 18.5788 17.2087 18.7023C17.8542 18.4972 18.4942 18.4025 19.1287 18.4178C19.2945 16.7607 19.3183 15.1014 19.1998 13.4401C19.0838 13.2519 18.9178 13.1571 18.702 13.1556C18.6547 13.1556 18.6072 13.1556 18.5598 13.1556C18.4534 12.895 18.3112 12.658 18.1331 12.4445C18.3284 12.4222 18.5181 12.4459 18.702 12.5156C18.8906 12.8226 19.1277 13.0833 19.4131 13.2978C19.5525 13.6657 19.5999 14.045 19.5554 14.4356C20.0712 14.2879 20.5927 14.2879 21.1198 14.4356C21.1259 13.9507 21.0548 13.4766 20.9065 13.0134C20.5812 12.6476 20.4154 12.2209 20.4087 11.7334Z"
            fill="#BF6649" />
        <path fill-rule="evenodd" clip-rule="evenodd"
            d="M15.2889 15.8574C15.3363 15.8574 15.3838 15.8574 15.4312 15.8574C15.4077 16.3339 15.4315 16.8079 15.5023 17.2796C15.7396 17.517 15.8581 17.8015 15.8578 18.133C15.1851 17.5095 14.9955 16.751 15.2889 15.8574Z"
            fill="#75402D" />
        <path fill-rule="evenodd" clip-rule="evenodd"
            d="M12.4445 20.2671C12.1349 20.2549 11.8504 20.16 11.5912 19.9827C10.9963 20.1058 10.4274 20.2954 9.88449 20.5515C10.2933 20.7374 10.6252 21.0219 10.88 21.4049C10.2352 21.1832 9.66628 20.8512 9.17338 20.4093C9.05417 20.3607 9.00675 20.266 9.03116 20.1249C8.82213 19.7241 8.67991 19.2974 8.60449 18.8449C9.21548 18.7079 9.83178 18.6843 10.4534 18.7738C10.5719 18.9871 10.7378 19.1531 10.9512 19.2715C10.9301 19.46 10.9538 19.626 11.0223 19.7693C11.5529 19.7242 12.0269 19.8902 12.4445 20.2671Z"
            fill="#DA5C32" />
        <path fill-rule="evenodd" clip-rule="evenodd"
            d="M10.8801 17.8486C11.2773 18.2139 11.7514 18.4747 12.3024 18.6309C12.9593 18.6963 13.5519 18.5304 14.0801 18.1331C14.1488 18.2679 14.1725 18.4101 14.1512 18.5597C14.4757 18.6199 14.7127 18.525 14.8624 18.2753C15.5144 18.6897 16.0833 19.2111 16.569 19.8397C15.6342 20.3175 14.6386 20.5071 13.5824 20.4086C13.4401 20.4086 13.2979 20.4086 13.1557 20.4086C12.283 19.9895 11.5007 19.4206 10.809 18.702C10.517 18.3872 10.5407 18.1028 10.8801 17.8486Z"
            fill="#F8F5EF" />
        <path fill-rule="evenodd" clip-rule="evenodd"
            d="M20.4087 19.413C20.1371 19.9258 20.2793 20.2578 20.8354 20.4085C20.8112 20.5965 20.8586 20.7625 20.9776 20.9063C21.3094 21.0012 21.6414 21.0012 21.9732 20.9063C22.068 20.527 22.1627 20.1478 22.2576 19.7685C22.7316 19.6737 23.2058 19.6737 23.6798 19.7685C23.8194 20.8228 23.8667 21.8895 23.8221 22.9685C22.6679 22.9819 21.5301 22.887 20.4087 22.6841C20.4087 22.4945 20.4087 22.3048 20.4087 22.1152C19.7686 22.2402 19.2946 22.0269 18.9865 21.4752C18.8443 21.4514 18.7021 21.4278 18.5598 21.4041C18.3422 21.424 18.2 21.5188 18.1332 21.6885C18.0845 21.8077 17.9898 21.8552 17.8487 21.8307C16.7518 22.1465 15.6376 22.3836 14.5065 22.5419C13.5228 22.4687 12.5509 22.3265 11.5909 22.1152C11.4499 22.1396 11.3551 22.0921 11.3065 21.973C11.3065 21.8307 11.3065 21.6885 11.3065 21.5463C11.1229 21.58 10.9807 21.5326 10.8798 21.4041C10.625 21.0211 10.2931 20.7366 9.88428 20.5507C10.4272 20.2946 10.996 20.105 11.5909 19.9819C11.8502 20.1592 12.1347 20.2541 12.4443 20.2663C12.6636 20.3802 12.9006 20.4276 13.1554 20.4085C13.2976 20.4085 13.4398 20.4085 13.5821 20.4085C13.8022 20.5926 14.0866 20.6874 14.4354 20.693C14.832 20.6587 15.2114 20.5638 15.5732 20.4085C15.7423 20.4449 15.9082 20.4923 16.0709 20.5507C16.8897 20.1552 17.0083 19.6337 16.4265 18.9863C17.7578 18.8058 19.0852 18.7585 20.4087 18.8441C20.4087 19.0337 20.4087 19.2234 20.4087 19.413Z"
            fill="#DD5A31" />
        <path fill-rule="evenodd" clip-rule="evenodd"
            d="M20.4087 22.8268C20.4087 22.7794 20.4087 22.7319 20.4087 22.6846C21.5301 22.8875 22.6679 22.9824 23.822 22.969C23.8667 21.89 23.8193 20.8233 23.6798 19.769C23.2058 19.6741 22.7316 19.6741 22.2576 19.769C22.1627 20.1483 22.068 20.5275 21.9731 20.9068C21.6413 21.0016 21.3094 21.0016 20.9776 20.9068C20.8585 20.763 20.8112 20.597 20.8354 20.409C21.0909 20.5839 21.3754 20.6787 21.6887 20.6934C21.6887 20.3141 21.6887 19.935 21.6887 19.5557C22.4472 19.5557 23.2058 19.5557 23.9642 19.5557C23.9642 20.7883 23.9642 22.0208 23.9642 23.2534C22.7508 23.3193 21.5657 23.1771 20.4087 22.8268Z"
            fill="#C06444" />
        <path fill-rule="evenodd" clip-rule="evenodd"
            d="M9.17334 20.4092C9.66624 20.8511 10.2351 21.183 10.88 21.4047C10.9808 21.5333 11.1231 21.5807 11.3067 21.547C11.3067 21.6892 11.3067 21.8314 11.3067 21.9736C10.4175 21.695 9.70642 21.1735 9.17334 20.4092Z"
            fill="#B96F55" />
        <path fill-rule="evenodd" clip-rule="evenodd"
            d="M20.4089 22.6843C20.0645 22.6305 19.7327 22.5357 19.4133 22.3999C19.0503 22.0524 18.6237 21.8153 18.1333 21.6887C18.2001 21.5191 18.3424 21.4242 18.56 21.4043C18.7022 21.428 18.8444 21.4517 18.9866 21.4754C19.2947 22.0271 19.7687 22.2404 20.4089 22.1154C20.4089 22.305 20.4089 22.4947 20.4089 22.6843Z"
            fill="#CB664D" />
        <path fill-rule="evenodd" clip-rule="evenodd"
            d="M17.8491 21.8311C17.2338 22.2378 16.5702 22.5223 15.858 22.6844C14.9086 22.708 13.9605 22.6844 13.0135 22.6133C12.4925 22.5319 12.0185 22.3661 11.5913 22.1155C12.5513 22.3268 13.5232 22.4691 14.5069 22.5422C15.638 22.3839 16.7521 22.1468 17.8491 21.8311Z"
            fill="#C16644" />
        <path fill-rule="evenodd" clip-rule="evenodd"
            d="M18.1335 21.6885C18.6238 21.8151 19.0505 22.0521 19.4135 22.3996C19.0509 22.4157 18.7191 22.3208 18.4179 22.1151C18.0067 22.1871 17.6274 22.3293 17.2801 22.5418C16.8154 22.6822 16.3412 22.7295 15.8579 22.684C16.5702 22.5219 17.2338 22.2375 17.849 21.8307C17.9901 21.8552 18.0848 21.8077 18.1335 21.6885Z"
            fill="#FCEADB" />
    </g>
    <defs>
        <clipPath id="clip0_5210_934">
            <rect width="32" height="32" fill="white" />
        </clipPath>
    </defs>
</svg>