<svg width="32" height="32" viewBox="0 0 32 32" fill="none" xmlns="http://www.w3.org/2000/svg">
    <g clip-path="url(#clip0_5518_242)">
        <path fill-rule="evenodd" clip-rule="evenodd"
            d="M-0.0710449 -0.0712891C10.5956 -0.0712891 21.2623 -0.0712891 31.929 -0.0712891C31.929 10.5954 31.929 21.262 31.929 31.9287C21.2623 31.9287 10.5956 31.9287 -0.0710449 31.9287C-0.0710449 21.262 -0.0710449 10.5954 -0.0710449 -0.0712891Z"
            fill="#FEFEFE" />
        <path fill-rule="evenodd" clip-rule="evenodd"
            d="M25.9555 1.9203C25.978 2.40418 25.9305 2.87825 25.8133 3.34252C24.2489 5.33363 22.6844 7.32474 21.12 9.31585C20.8232 9.47011 20.6336 9.70713 20.5511 10.027C20.0749 10.5036 19.6483 11.0251 19.2711 11.5914C18.9743 11.7457 18.7847 11.9827 18.7022 12.3025C17.5432 13.6672 16.3819 15.042 15.2178 16.427C14.3586 14.9692 13.4816 13.5233 12.5867 12.0892C11.5814 11.4877 10.7518 11.6537 10.0978 12.587C10.0029 13.0136 10.0029 13.4403 10.0978 13.867C11.3176 16.0696 12.5739 18.2504 13.8667 20.4092C14.8599 21.0701 15.737 20.9279 16.4978 19.9825C19.5016 16.1724 22.5594 12.4035 25.6711 8.67585C25.7894 8.57805 25.8841 8.60175 25.9555 8.74696C26.5489 9.83589 26.9756 10.9737 27.2355 12.1603C27.2276 12.9043 27.3224 13.6154 27.52 14.2936C27.55 17.6661 26.4596 20.6055 24.2489 23.1114C24.2015 23.1114 24.154 23.1114 24.1067 23.1114C24.0118 25.387 23.9171 27.6625 23.8222 29.9381C23.131 29.3801 22.4199 28.8586 21.6889 28.3736C21.6216 28.1737 21.4794 28.0788 21.2622 28.0892C20.5662 27.747 19.8551 27.4626 19.1289 27.2359C18.7964 27.0168 18.4171 26.9221 17.9911 26.9514C17.7362 26.8364 17.4518 26.7652 17.1378 26.7381C16.0958 26.667 15.0529 26.6434 14.0089 26.667C9.68986 25.9034 6.60839 23.533 4.76443 19.5559C4.61243 18.8477 4.3754 18.184 4.05332 17.5647C3.6821 15.6186 3.6821 13.6749 4.05332 11.7336C4.35974 11.4325 4.50196 11.0532 4.47999 10.5959C6.98947 4.93057 11.351 2.41799 17.5644 3.05807C18.6812 3.30391 19.7716 3.63577 20.8355 4.05363C21.1524 3.95143 21.4131 3.76179 21.6178 3.48474C22.2551 2.56333 22.9899 1.73369 23.8222 0.995852C24.7787 0.76342 25.4898 1.07157 25.9555 1.9203Z"
            fill="#4AB757" />
        <path fill-rule="evenodd" clip-rule="evenodd"
            d="M25.9555 1.91992C26.1173 2.31864 26.1411 2.74531 26.0266 3.19992C25.9721 3.279 25.901 3.3264 25.8132 3.34214C25.9304 2.87787 25.9779 2.4038 25.9555 1.91992Z"
            fill="#8FD295" />
        <path fill-rule="evenodd" clip-rule="evenodd"
            d="M21.1199 9.31543C21.0374 9.63526 20.8478 9.87229 20.551 10.0265C20.6335 9.70671 20.8231 9.46968 21.1199 9.31543Z"
            fill="#C2E7C6" />
        <path fill-rule="evenodd" clip-rule="evenodd"
            d="M4.47989 10.5957C4.50186 11.0531 4.35964 11.4323 4.05322 11.7335C4.14268 11.3214 4.2849 10.9422 4.47989 10.5957Z"
            fill="#96D59C" />
        <path fill-rule="evenodd" clip-rule="evenodd"
            d="M19.271 11.5908C19.1885 11.9106 18.999 12.1477 18.7021 12.3019C18.7846 11.9821 18.9742 11.7451 19.271 11.5908Z"
            fill="#C4E8C7" />
        <path fill-rule="evenodd" clip-rule="evenodd"
            d="M27.2356 12.1602C27.4695 12.8334 27.5642 13.5445 27.52 14.2935C27.3225 13.6153 27.2276 12.9041 27.2356 12.1602Z"
            fill="#77C87F" />
        <path fill-rule="evenodd" clip-rule="evenodd"
            d="M4.05322 17.5645C4.3753 18.1837 4.61233 18.8474 4.76433 19.5556C4.36298 18.969 4.12596 18.3053 4.05322 17.5645Z"
            fill="#93D499" />
        <path fill-rule="evenodd" clip-rule="evenodd"
            d="M24.1067 23.1113C24.1994 25.4866 24.1046 27.8095 23.8223 30.0802C23.8223 30.0329 23.8223 29.9854 23.8223 29.938C23.9171 27.6624 24.0118 25.3869 24.1067 23.1113Z"
            fill="#7FCC87" />
        <path fill-rule="evenodd" clip-rule="evenodd"
            d="M24.1067 23.1113C24.1541 23.1113 24.2016 23.1113 24.2489 23.1113C24.2489 25.4817 24.2489 27.852 24.2489 30.2224C24.0653 30.2561 23.9231 30.2088 23.8223 30.0802C24.1046 27.8095 24.1994 25.4866 24.1067 23.1113Z"
            fill="#E0F4E2" />
        <path fill-rule="evenodd" clip-rule="evenodd"
            d="M14.0088 26.6671C15.0528 26.6434 16.0958 26.6671 17.1377 26.7382C17.4517 26.7653 17.7361 26.8364 17.991 26.9515C16.64 26.8876 15.3127 26.7929 14.0088 26.6671Z"
            fill="#BBE5C0" />
        <path fill-rule="evenodd" clip-rule="evenodd"
            d="M17.9912 26.9515C18.4172 26.9222 18.7965 27.0169 19.129 27.2359C18.7126 27.2267 18.3333 27.1318 17.9912 26.9515Z"
            fill="#9CD7A1" />
        <path fill-rule="evenodd" clip-rule="evenodd"
            d="M21.2622 28.0887C21.4794 28.0783 21.6216 28.1731 21.6889 28.3731C21.4717 28.3835 21.3295 28.2886 21.2622 28.0887Z"
            fill="#9ED9A4" />
    </g>
    <defs>
        <clipPath id="clip0_5518_242">
            <rect width="32" height="32" fill="white" />
        </clipPath>
    </defs>
</svg>