<svg width="32" height="32" viewBox="0 0 32 32" fill="none" xmlns="http://www.w3.org/2000/svg">
    <g clip-path="url(#clip0_5063_794)">
        <path fill-rule="evenodd" clip-rule="evenodd"
            d="M-0.0710449 -0.0710449C10.5956 -0.0710449 21.2623 -0.0710449 31.929 -0.0710449C31.929 10.5956 31.929 21.2623 31.929 31.929C21.2623 31.929 10.5956 31.929 -0.0710449 31.929C-0.0710449 21.2623 -0.0710449 10.5956 -0.0710449 -0.0710449Z"
            fill="#FEFEFE" />
        <path fill-rule="evenodd" clip-rule="evenodd"
            d="M23.8222 7.89326C20.7502 7.22399 18.1427 7.98251 16 10.1688C15.9526 10.1688 15.9051 10.1688 15.8577 10.1688C15.8577 10.074 15.8577 9.97919 15.8577 9.88437C15.5814 9.46187 15.2022 9.17742 14.72 9.03103C12.7094 7.84208 10.5287 7.46282 8.17773 7.89326C9.36011 4.15277 11.9201 2.16166 15.8577 1.91992C19.2765 2.00261 21.8127 3.51964 23.4666 6.47103C23.6589 6.929 23.7775 7.40307 23.8222 7.89326Z"
            fill="#D24488" />
        <path fill-rule="evenodd" clip-rule="evenodd"
            d="M14.72 9.03107C14.72 9.17329 14.72 9.31552 14.72 9.45774C15.1542 9.46799 15.5333 9.61022 15.8578 9.88441C15.8578 9.97922 15.8578 10.074 15.8578 10.1688C14.0089 12.0651 12.16 13.9614 10.3111 15.8577C10.2637 15.8577 10.2163 15.8577 10.1689 15.8577C8.96073 14.5793 8.2022 13.0622 7.89331 11.3066C7.89331 10.4533 7.89331 9.59996 7.89331 8.74663C7.96983 8.51663 8.01723 8.27958 8.03553 8.03552C8.03553 7.9407 8.08294 7.89329 8.17775 7.89329C10.5287 7.46286 12.7094 7.84212 14.72 9.03107Z"
            fill="#C52C29" />
        <path fill-rule="evenodd" clip-rule="evenodd"
            d="M23.8222 7.89325C23.8222 7.98807 23.8696 8.03547 23.9644 8.03547C24.5396 10.3444 24.2078 12.5252 22.9689 14.5777C22.6849 15.0982 22.3056 15.5249 21.8311 15.8577C19.8874 13.9614 17.9438 12.0651 16 10.1688C18.1427 7.9825 20.7502 7.22398 23.8222 7.89325Z"
            fill="#075AA5" />
        <path fill-rule="evenodd" clip-rule="evenodd"
            d="M23.9644 8.03564C27.0533 8.92018 29.0208 10.9113 29.8666 14.009C30.5469 17.8385 29.2905 20.8487 26.0977 23.0401C25.4748 23.3979 24.811 23.6588 24.1066 23.8223C24.6647 20.9429 24.0247 18.3829 22.1866 16.1423C22.0912 16.0354 21.9727 15.9879 21.8311 16.0001C21.8311 15.9527 21.8311 15.9052 21.8311 15.8579C22.3055 15.5251 22.6848 15.0984 22.9688 14.5779C24.2077 12.5253 24.5395 10.3446 23.9644 8.03564Z"
            fill="#08ABE5" />
        <path fill-rule="evenodd" clip-rule="evenodd"
            d="M7.89333 8.74658C7.89333 9.59992 7.89333 10.4532 7.89333 11.3066C7.70611 10.9387 7.6113 10.512 7.60889 10.0266C7.6113 9.54112 7.70611 9.11445 7.89333 8.74658Z"
            fill="#A8A846" />
        <path fill-rule="evenodd" clip-rule="evenodd"
            d="M14.72 9.03101C15.2022 9.1774 15.5814 9.46184 15.8577 9.88434C15.5333 9.61015 15.1542 9.46793 14.72 9.45767C14.72 9.31545 14.72 9.17323 14.72 9.03101Z"
            fill="#CF3E5D" />
        <path fill-rule="evenodd" clip-rule="evenodd"
            d="M8.03547 8.03564C8.01716 8.27971 7.96976 8.51675 7.89325 8.74676C7.70602 9.11463 7.61122 9.54129 7.6088 10.0268C7.61122 10.5122 7.70602 10.9389 7.89325 11.3068C8.20214 13.0623 8.96067 14.5794 10.1688 15.8579C9.87864 16.0989 9.61789 16.3834 9.38658 16.7112C9.12436 17.4461 8.7451 18.1098 8.2488 18.7023C8.1761 19.0405 8.08128 19.3725 7.96436 19.6979C7.89327 21.0719 7.86957 22.4467 7.89325 23.8223C6.78622 23.5053 5.79066 22.9602 4.90658 22.1868C4.77175 22.1181 4.62953 22.0945 4.47991 22.1156C4.27982 21.5553 3.92426 21.0811 3.41325 20.6934C2.75251 19.5187 2.30213 18.286 2.06213 16.9956C2.04463 15.996 2.09204 15.0004 2.20436 14.009C3.00948 10.9239 4.95317 8.93283 8.03547 8.03564Z"
            fill="#9ABF44" />
        <path fill-rule="evenodd" clip-rule="evenodd"
            d="M15.8577 10.1689C15.9051 10.1689 15.9526 10.1689 15.9999 10.1689C17.9437 12.0652 19.8873 13.9615 21.831 15.8578C21.831 15.9052 21.831 15.9527 21.831 16.0001C20.1963 17.5163 18.6319 19.1045 17.1377 20.7645C16.7257 21.1073 16.299 21.4155 15.8577 21.6889C15.8577 21.6416 15.8577 21.5941 15.8577 21.5467C15.5634 21.1097 15.1841 20.7779 14.7199 20.5512C14.7199 20.5038 14.7199 20.4563 14.7199 20.4089C14.4257 19.9719 14.0464 19.6401 13.5821 19.4134C12.5198 18.1965 11.4294 17.0114 10.311 15.8578C12.1599 13.9615 14.0088 12.0652 15.8577 10.1689Z"
            fill="#FDFDFB" />
        <path fill-rule="evenodd" clip-rule="evenodd"
            d="M2.20437 14.0088C2.09205 15.0002 2.04464 15.9958 2.06214 16.9955C1.96754 16.5237 1.92012 16.0259 1.91992 15.5021C1.92167 14.9472 2.01649 14.4494 2.20437 14.0088Z"
            fill="#DCE9BC" />
        <path fill-rule="evenodd" clip-rule="evenodd"
            d="M21.831 15.9999C21.9727 15.9877 22.0911 16.0352 22.1866 16.1421C24.0246 18.3827 24.6646 20.9427 24.1066 23.8221C24.0117 23.8695 23.917 23.917 23.8221 23.9644C21.8567 24.3091 19.9605 24.0958 18.1332 23.3244C17.3504 22.8471 16.592 22.3493 15.8577 21.831C15.8577 21.7837 15.8577 21.7362 15.8577 21.6888C16.299 21.4153 16.7256 21.1071 17.1377 20.7644C18.6319 19.1044 20.1963 17.5162 21.831 15.9999Z"
            fill="#81B548" />
        <path fill-rule="evenodd" clip-rule="evenodd"
            d="M10.169 15.8577C10.2164 15.8577 10.2638 15.8577 10.3112 15.8577C11.4296 17.0112 12.52 18.1964 13.5823 19.4132C13.8729 19.846 14.2522 20.1778 14.7201 20.4088C14.7201 20.4561 14.7201 20.5036 14.7201 20.551C15.0106 20.9838 15.3899 21.3156 15.8578 21.5466C15.8578 21.5939 15.8578 21.6414 15.8578 21.6888C15.8578 21.7361 15.8578 21.7836 15.8578 21.831C13.6772 23.7656 11.1172 24.4768 8.17784 23.9643C8.12924 23.8452 8.03442 23.7976 7.8934 23.8221C7.86972 22.4465 7.89342 21.0717 7.96451 19.6977C8.08143 19.3723 8.17625 19.0403 8.24895 18.7021C8.74525 18.1096 9.12451 17.4459 9.38673 16.711C9.61804 16.3832 9.87879 16.0987 10.169 15.8577Z"
            fill="#EAAD32" />
        <path fill-rule="evenodd" clip-rule="evenodd"
            d="M13.5823 19.4133C14.0465 19.64 14.4258 19.9718 14.7201 20.4089C14.2521 20.1779 13.8729 19.8461 13.5823 19.4133Z"
            fill="#EAC878" />
        <path fill-rule="evenodd" clip-rule="evenodd"
            d="M14.72 20.551C15.1842 20.7777 15.5635 21.1095 15.8577 21.5466C15.3898 21.3156 15.0105 20.9838 14.72 20.551Z"
            fill="#EAC878" />
        <path fill-rule="evenodd" clip-rule="evenodd"
            d="M15.8577 21.8311C16.592 22.3493 17.3505 22.8471 18.1333 23.3244C19.9606 24.0958 21.8568 24.3091 23.8222 23.9644C22.9603 27.0543 20.9692 28.9979 17.8488 29.7955C16.8139 29.9278 15.771 29.9753 14.72 29.9377C11.3516 29.2488 9.17087 27.2577 8.17773 23.9644C11.1171 24.4768 13.6771 23.7657 15.8577 21.8311Z"
            fill="#FCE037" />
        <path fill-rule="evenodd" clip-rule="evenodd"
            d="M17.8489 29.7957C17.8331 29.8834 17.7857 29.9545 17.7066 30.009C18.0384 30.0563 18.3704 30.1038 18.7022 30.1512C17.3512 30.1643 16.0239 30.0932 14.72 29.9379C15.771 29.9754 16.8139 29.9279 17.8489 29.7957Z"
            fill="#FDFBDE" />
    </g>
    <defs>
        <clipPath id="clip0_5063_794">
            <rect width="32" height="32" fill="white" />
        </clipPath>
    </defs>
</svg>