<svg width="32" height="32" viewBox="0 0 32 32" fill="none" xmlns="http://www.w3.org/2000/svg">
    <path
        d="M0 0C10.56 0 21.12 0 32 0C32 10.56 32 21.12 32 32C21.44 32 10.88 32 0 32C0 21.44 0 10.88 0 0Z"
        fill="#FEFEFE" />
    <path
        d="M16.6399 6.40039C16.8344 6.67602 16.8344 6.67602 17.0568 7.05039C17.5749 7.8533 18.178 8.38228 18.9299 8.96039C19.1724 9.15427 19.4145 9.34865 19.6562 9.54352C19.7711 9.63584 19.886 9.72816 20.0044 9.82328C21.5291 11.0659 22.5953 12.4539 23.0399 14.4004C23.3041 16.9971 22.9338 19.1792 21.2949 21.2798C20.9599 21.6004 20.9599 21.6004 20.3499 21.7404C20.0368 21.6941 20.0368 21.6941 19.6799 21.6004C19.5242 21.5629 19.3685 21.5253 19.208 21.4866C18.7749 21.3746 18.3473 21.2524 17.9199 21.1204C17.9199 21.0148 17.9199 20.9092 17.9199 20.8004C18.0591 20.736 18.0591 20.736 18.2012 20.6704C19.4124 20.0628 20.1241 19.3075 20.6199 18.0404C21.0055 16.7115 20.9653 15.313 20.3199 14.0804C19.713 13.0131 18.8735 12.2644 17.7405 11.7985C16.3812 11.4499 14.851 11.4401 13.5799 12.0704C12.5005 12.7676 11.6611 13.7812 11.2699 15.016C10.9545 16.5675 11.2587 17.9844 12.1168 19.3073C13.7465 21.4574 16.252 22.8259 18.8799 23.3604C18.6789 23.8968 18.4499 24.369 18.1399 24.8504C18.0685 24.962 17.9972 25.0736 17.9237 25.1885C17.8696 25.2716 17.8156 25.3548 17.7599 25.4404C16.7952 25.3642 16.0839 25.1581 15.2299 24.7104C15.1188 24.6531 15.0077 24.5959 14.8933 24.5369C12.3166 23.1761 10.0681 21.2166 9.12991 18.3804C8.60252 16.0851 8.8724 13.9724 10.0774 11.9466C11.17 10.2412 14.3127 6.40039 16.6399 6.40039Z"
        fill="#39AB55" />
    <path
        d="M17.3399 14.0999C17.9356 14.5254 18.3888 15.0176 18.7199 15.6799C18.8438 16.6113 18.8555 17.3797 18.2899 18.1599C17.7979 18.76 17.2773 19.148 16.5012 19.2749C15.5713 19.2846 14.8656 19.2764 14.1443 18.6468C13.5645 18.0088 13.2471 17.4431 13.1899 16.5699C13.2413 15.5325 13.7695 14.8556 14.4999 14.1599C15.4383 13.7429 16.3729 13.7775 17.3399 14.0999Z"
        fill="#39AB55" />
</svg>