<svg width="32" height="32" viewBox="0 0 32 32" fill="none" xmlns="http://www.w3.org/2000/svg">
    <rect width="32" height="32" fill="#FAFAFA" />
    <path
        d="M2.6411 1.12607H22.8484C24.4715 1.12607 29.3757 0.743215 30.2598 1.4127C31.2757 2.18192 30.833 5.47463 30.833 7.18621V23.8925C30.833 25.5087 31.1788 29.5252 30.3417 30.2188C29.5031 30.9137 25.8068 30.5874 24.2406 30.5874H7.75946C5.63188 30.5874 1.78721 31.2091 1.39222 29.4204C1.3854 22.2281 1.37857 15.035 1.37175 7.84136C1.37175 5.39159 0.711293 1.75141 2.6411 1.12607ZM9.37686 6.57201V14.6385L9.39734 14.659H12.8574V10.1139L19.6545 10.1344L9.37686 20.7806V25.8375H9.41781C14.3855 20.6856 19.3538 15.5331 24.3225 10.3801V6.57201H9.37686ZM19.675 16.5221L17.0339 19.286C17.0408 19.3065 17.0476 19.327 17.0544 19.3474C19.4632 21.6265 21.8722 23.9059 24.2815 26.1856H24.3225V20.9034C22.7735 19.4431 21.2243 17.9827 19.675 16.5221Z"
        fill="#222222" />
</svg>