<svg width="32" height="32" viewBox="0 0 32 32" fill="none" xmlns="http://www.w3.org/2000/svg">
    <g clip-path="url(#clip0_5243_897)">
        <path fill-rule="evenodd" clip-rule="evenodd"
            d="M-0.03125 -0.03125C10.6354 -0.03125 21.3021 -0.03125 31.9688 -0.03125C31.9688 10.6354 31.9688 21.3021 31.9688 31.9688C21.3021 31.9688 10.6354 31.9688 -0.03125 31.9688C-0.03125 21.3021 -0.03125 10.6354 -0.03125 -0.03125Z"
            fill="#FEFEFE" />
        <path fill-rule="evenodd" clip-rule="evenodd"
            d="M10.9688 9.09375C12.1386 12.2449 13.2532 15.4116 14.3125 18.5938C15.2347 18.6557 16.1618 18.6765 17.0938 18.6562C17.0938 18.6771 17.0938 18.6979 17.0938 18.7188C16.5564 20.0468 16.046 21.401 15.5625 22.7812C15.2809 23.3449 14.9371 23.8658 14.5312 24.3438C13.847 24.9772 13.0345 25.3418 12.0938 25.4375C9.4685 25.4896 6.8435 25.4792 4.21875 25.4062C4.8556 24.0267 5.38685 22.61 5.8125 21.1562C6.31269 20.1361 6.70856 19.0736 7 17.9688C7.72506 16.4197 8.32919 14.8156 8.8125 13.1562C9.29513 12.2118 9.691 11.2327 10 10.2188C10.127 10.0091 10.252 9.80081 10.375 9.59375C10.5634 9.41575 10.7613 9.24906 10.9688 9.09375Z"
            fill="#4ABACC" />
        <path fill-rule="evenodd" clip-rule="evenodd"
            d="M20.7812 10.0938C20.7812 10.1146 20.7812 10.1354 20.7812 10.1562C20.7189 10.1544 20.6772 10.1856 20.6562 10.25C20.556 10.5503 20.431 10.8419 20.2812 11.125C20.2094 11.2331 20.2094 11.3373 20.2812 11.4375C20.2523 11.5991 20.1794 11.7345 20.0625 11.8438C20.0446 11.9932 20.0133 12.139 19.9688 12.2812C19.9818 12.3179 20.0027 12.3491 20.0312 12.375C19.9375 12.4271 19.8646 12.5 19.8125 12.5938C19.6507 13.1979 19.432 13.7708 19.1562 14.3125C19.191 14.3364 19.2118 14.3677 19.2188 14.4062C19.206 14.5428 19.1644 14.6678 19.0938 14.7812C18.948 14.8226 18.9063 14.9059 18.9688 15.0312C18.9099 15.1733 18.8266 15.2982 18.7188 15.4062C18.6755 15.6973 18.5818 15.9681 18.4375 16.2188C18.4167 16.4062 18.3958 16.5938 18.375 16.7812C18.3333 16.6979 18.2917 16.6979 18.25 16.7812C18.1684 17.0594 18.0955 17.3407 18.0312 17.625C17.8753 17.7816 17.7712 17.9691 17.7188 18.1875C17.7657 18.2294 17.7866 18.2815 17.7812 18.3438C17.6634 18.3976 17.5487 18.4601 17.4375 18.5312C17.4167 18.4896 17.3958 18.4479 17.375 18.4062C17.2901 18.4603 17.2171 18.5228 17.1562 18.5938C17.2566 18.1366 17.4128 17.6991 17.625 17.2812C17.6458 17.1354 17.6667 16.9896 17.6875 16.8438C18.7216 14.3048 19.6903 11.7423 20.5938 9.15625C20.656 9.16163 20.7081 9.14075 20.75 9.09375C20.7785 9.1715 20.7472 9.22356 20.6562 9.25C20.7682 9.27594 20.8515 9.33844 20.9062 9.4375C20.8379 9.624 20.7754 9.83231 20.7188 10.0625C20.733 10.0874 20.7539 10.0978 20.7812 10.0938Z"
            fill="#5B0B17" />
        <path fill-rule="evenodd" clip-rule="evenodd"
            d="M20.7812 8.71875C20.9246 8.89812 21.008 9.10644 21.0312 9.34375C21.0041 9.641 20.952 9.93269 20.875 10.2188C20.8576 10.1615 20.8264 10.1199 20.7812 10.0938C20.7539 10.0978 20.733 10.0874 20.7188 10.0625C20.7754 9.83231 20.8379 9.624 20.9062 9.4375C20.8515 9.33844 20.7682 9.27594 20.6562 9.25C20.7472 9.22356 20.7785 9.1715 20.75 9.09375C20.7081 9.14075 20.656 9.16163 20.5938 9.15625C20.6415 8.99888 20.704 8.85306 20.7812 8.71875Z"
            fill="#81101F" />
        <path fill-rule="evenodd" clip-rule="evenodd"
            d="M21.5938 10.6563C22.6458 13.2243 23.6458 15.8076 24.5938 18.4063C24.5938 18.4896 24.5938 18.573 24.5938 18.6563C22.4062 18.6563 20.2188 18.6563 18.0312 18.6563C18.1821 18.501 18.2862 18.3135 18.3438 18.0938C18.4282 17.9988 18.5219 17.9155 18.625 17.8438C18.893 17.2325 19.1222 16.6075 19.3125 15.9688C19.3634 15.8574 19.4363 15.7636 19.5312 15.6875C19.4593 15.2688 19.5634 14.8938 19.8438 14.5625C19.8229 14.5417 19.8021 14.5208 19.7812 14.5C19.9181 14.4577 19.9389 14.3848 19.8438 14.2813C20.0159 14.0578 20.1409 13.8391 20.2188 13.625C20.1636 13.4511 20.1636 13.274 20.2188 13.0938C20.3778 12.6712 20.5549 12.2545 20.75 11.8438C20.8042 11.5227 20.8876 11.2102 21 10.9063C21.0208 10.9271 21.0417 10.948 21.0625 10.9688C21.0814 10.8195 21.1336 10.6841 21.2188 10.5625C21.3021 10.5208 21.3854 10.5208 21.4688 10.5625C21.4093 10.6074 21.3989 10.6595 21.4375 10.7188C21.4794 10.6718 21.5315 10.6509 21.5938 10.6563Z"
            fill="#EB1B39" />
        <path fill-rule="evenodd" clip-rule="evenodd"
            d="M20.7812 10.1563C20.8014 10.3892 20.7806 10.6184 20.7188 10.8438C20.5351 11.1501 20.3996 11.4626 20.3125 11.7813C20.3344 12.2803 20.1678 12.697 19.8125 13.0313C19.7576 13.2387 19.7054 13.4471 19.6562 13.6563C19.5098 13.9108 19.364 14.1608 19.2188 14.4063C19.2118 14.3678 19.191 14.3365 19.1562 14.3126C19.432 13.7709 19.6507 13.198 19.8125 12.5938C19.8646 12.5001 19.9375 12.4271 20.0312 12.3751C20.0027 12.3492 19.9818 12.318 19.9688 12.2813C20.0133 12.1391 20.0446 11.9933 20.0625 11.8438C20.1794 11.7346 20.2523 11.5991 20.2812 11.4376C20.2094 11.3373 20.2094 11.2332 20.2812 11.1251C20.431 10.842 20.556 10.5504 20.6562 10.2501C20.6772 10.1857 20.7189 10.1545 20.7812 10.1563Z"
            fill="#820F20" />
        <path fill-rule="evenodd" clip-rule="evenodd"
            d="M21.0312 9.34375C21.2548 9.76394 21.4423 10.2014 21.5938 10.6562C21.5315 10.6509 21.4794 10.6718 21.4375 10.7188C21.3989 10.6594 21.4093 10.6074 21.4688 10.5625C21.3854 10.5208 21.3021 10.5208 21.2188 10.5625C21.1336 10.6841 21.0814 10.8195 21.0625 10.9688C21.0417 10.9479 21.0208 10.9271 21 10.9062C20.8876 11.2102 20.8042 11.5227 20.75 11.8438C20.5549 12.2545 20.3778 12.6712 20.2188 13.0938C20.1802 13.0868 20.1489 13.066 20.125 13.0312C20.0999 13.2176 20.0062 13.3529 19.8438 13.4375C19.8095 13.7135 19.7053 13.9531 19.5312 14.1562C19.5902 14.2794 19.5485 14.3731 19.4062 14.4375C19.4271 14.4583 19.4479 14.4792 19.4688 14.5C19.4277 14.8928 19.3236 15.2678 19.1562 15.625C19.1848 15.6509 19.2057 15.6821 19.2188 15.7188C19.1334 15.861 19.0293 16.0068 18.9062 16.1562C18.8789 16.1603 18.858 16.1499 18.8438 16.125C19.0292 15.7449 19.0917 15.3491 19.0312 14.9375C19.1637 14.9161 19.1846 14.8641 19.0938 14.7812C19.1644 14.6678 19.206 14.5428 19.2188 14.4062C19.364 14.1607 19.5098 13.9107 19.6562 13.6562C19.7054 13.447 19.7576 13.2386 19.8125 13.0312C20.1678 12.6969 20.3344 12.2803 20.3125 11.7812C20.3996 11.4625 20.5351 11.15 20.7188 10.8438C20.7806 10.6183 20.8014 10.3891 20.7812 10.1562C20.7812 10.1354 20.7812 10.1146 20.7812 10.0938C20.8264 10.1199 20.8576 10.1615 20.875 10.2188C20.952 9.93269 21.0041 9.641 21.0312 9.34375Z"
            fill="#BD162E" />
        <path fill-rule="evenodd" clip-rule="evenodd"
            d="M20.7812 8.71875C20.704 8.85306 20.6415 8.99888 20.5938 9.15625C19.6903 11.7423 18.7216 14.3048 17.6875 16.8438C17.6667 16.9896 17.6458 17.1354 17.625 17.2812C17.4128 17.6991 17.2566 18.1366 17.1562 18.5938C17.1146 18.5938 17.0938 18.6146 17.0938 18.6562C16.1618 18.6765 15.2347 18.6557 14.3125 18.5938C13.2532 15.4116 12.1386 12.2449 10.9688 9.09375C11.0359 9.00719 11.1192 8.93431 11.2188 8.875C11.4287 8.78856 11.6371 8.70525 11.8438 8.625C14.2961 8.61437 16.744 8.58312 19.1875 8.53125C19.7385 8.55144 20.2697 8.61394 20.7812 8.71875Z"
            fill="#2543A0" />
        <path fill-rule="evenodd" clip-rule="evenodd"
            d="M20.2188 13.0938C20.1636 13.274 20.1636 13.4511 20.2188 13.625C20.1409 13.8391 20.0159 14.0578 19.8438 14.2812C19.9389 14.3848 19.9181 14.4577 19.7812 14.5C19.8021 14.5208 19.8229 14.5417 19.8438 14.5625C19.5634 14.8938 19.4593 15.2688 19.5312 15.6875C19.4363 15.7636 19.3634 15.8574 19.3125 15.9688C19.1222 16.6074 18.893 17.2324 18.625 17.8438C18.5219 17.9155 18.4282 17.9988 18.3438 18.0938C18.2862 18.3134 18.1821 18.5009 18.0312 18.6562C17.9271 18.6562 17.8229 18.6562 17.7188 18.6562C17.9886 18.4 18.2073 18.1292 18.375 17.8438C18.4108 17.5794 18.4837 17.3294 18.5938 17.0938C18.5281 16.9936 18.5698 16.9416 18.7188 16.9375C18.8846 16.7296 18.9471 16.4899 18.9062 16.2188C18.9062 16.1979 18.9062 16.1771 18.9062 16.1562C19.0293 16.0068 19.1334 15.861 19.2188 15.7188C19.2057 15.6821 19.1848 15.6509 19.1562 15.625C19.3236 15.2678 19.4277 14.8928 19.4688 14.5C19.4479 14.4792 19.4271 14.4583 19.4062 14.4375C19.5485 14.3731 19.5902 14.2794 19.5312 14.1562C19.7053 13.9531 19.8095 13.7135 19.8438 13.4375C20.0062 13.3529 20.0999 13.2176 20.125 13.0312C20.1489 13.066 20.1802 13.0868 20.2188 13.0938Z"
            fill="#D11632" />
        <path fill-rule="evenodd" clip-rule="evenodd"
            d="M19.0938 14.7812C19.1846 14.8641 19.1637 14.9161 19.0312 14.9375C19.0917 15.3491 19.0292 15.7449 18.8438 16.125C18.858 16.1499 18.8789 16.1603 18.9062 16.1562C18.9062 16.1771 18.9062 16.1979 18.9062 16.2188C18.8095 16.2388 18.7678 16.3013 18.7812 16.4062C18.7188 16.4062 18.6562 16.4062 18.5938 16.4062C18.5161 16.8837 18.3808 17.342 18.1875 17.7812C18.1406 17.8204 18.0885 17.8516 18.0312 17.875C18.0312 17.9583 18.0312 18.0417 18.0312 18.125C17.954 18.2118 17.8707 18.2846 17.7812 18.3438C17.7866 18.2815 17.7657 18.2294 17.7188 18.1875C17.7712 17.9691 17.8753 17.7816 18.0312 17.625C18.0955 17.3407 18.1684 17.0594 18.25 16.7812C18.2917 16.6979 18.3333 16.6979 18.375 16.7812C18.3958 16.5938 18.4167 16.4062 18.4375 16.2188C18.5818 15.9681 18.6755 15.6973 18.7188 15.4062C18.8266 15.2982 18.9099 15.1733 18.9688 15.0312C18.9063 14.9059 18.948 14.8226 19.0938 14.7812Z"
            fill="#870F21" />
        <path fill-rule="evenodd" clip-rule="evenodd"
            d="M18.9062 16.2188C18.9471 16.4899 18.8846 16.7296 18.7188 16.9375C18.5698 16.9416 18.5281 16.9936 18.5938 17.0938C18.4837 17.3294 18.4108 17.5794 18.375 17.8438C18.2073 18.1292 17.9886 18.4 17.7188 18.6562C17.5104 18.6562 17.3021 18.6562 17.0938 18.6562C17.0938 18.6146 17.1146 18.5938 17.1562 18.5938C17.2171 18.5228 17.2901 18.4603 17.375 18.4062C17.3958 18.4479 17.4167 18.4896 17.4375 18.5312C17.5487 18.4601 17.6634 18.3976 17.7812 18.3438C17.8707 18.2846 17.954 18.2118 18.0312 18.125C18.0312 18.0417 18.0312 17.9583 18.0312 17.875C18.0885 17.8516 18.1406 17.8204 18.1875 17.7812C18.3808 17.342 18.5161 16.8837 18.5938 16.4062C18.6562 16.4062 18.7188 16.4062 18.7812 16.4062C18.7678 16.3013 18.8095 16.2388 18.9062 16.2188Z"
            fill="#AA1228" />
        <path fill-rule="evenodd" clip-rule="evenodd"
            d="M24.5938 18.4062C24.6532 18.4949 24.674 18.5991 24.6562 18.7188C22.1354 18.7188 19.6146 18.7188 17.0938 18.7188C17.0938 18.6979 17.0938 18.6771 17.0938 18.6562C17.3021 18.6562 17.5104 18.6562 17.7188 18.6562C17.8229 18.6562 17.9271 18.6562 18.0312 18.6562C20.2188 18.6562 22.4062 18.6562 24.5938 18.6562C24.5938 18.5729 24.5938 18.4896 24.5938 18.4062Z"
            fill="#F3A3A6" />
    </g>
    <defs>
        <clipPath id="clip0_5243_897">
            <rect width="32" height="32" fill="white" />
        </clipPath>
    </defs>
</svg>