<svg width="32" height="32" viewBox="0 0 32 32" fill="none" xmlns="http://www.w3.org/2000/svg">
    <rect width="32" height="32" fill="#FAFAFA" />
    <path
        d="M14.3585 15.4238C13.9361 15.4801 13.6432 15.8629 13.6995 16.2851C13.7389 16.589 13.9586 16.8423 14.2571 16.9211C14.2571 16.9211 16.127 17.5403 19.3093 17.7993C21.8663 18.0076 24.767 17.6192 24.767 17.6192C25.1894 17.6079 25.5273 17.2533 25.5104 16.8311C25.4935 16.4089 25.1443 16.0711 24.7219 16.088C24.6712 16.088 24.6205 16.0937 24.5755 16.1049C24.5755 16.1049 21.7368 16.4539 19.4332 16.2682C16.3917 16.0205 14.7358 15.4632 14.7358 15.4632C14.6119 15.4238 14.4824 15.4069 14.3585 15.4238ZM14.3585 11.6185C13.9361 11.6748 13.6432 12.0576 13.6995 12.4798C13.7389 12.7837 13.9586 13.0371 14.2571 13.1159C14.2571 13.1159 16.127 13.7351 19.3093 13.994C21.8663 14.2023 24.767 13.8139 24.767 13.8139C25.1894 13.8026 25.5273 13.448 25.5104 13.0258C25.4935 12.6036 25.1443 12.2659 24.7219 12.2827C24.6712 12.2827 24.6205 12.2884 24.5755 12.2996C24.5755 12.2996 21.7368 12.6486 19.4332 12.4629C16.3917 12.2152 14.7358 11.6579 14.7358 11.6579C14.6119 11.6185 14.4824 11.6016 14.3585 11.6185ZM14.3585 7.81322C13.9361 7.86951 13.6432 8.25229 13.6995 8.67448C13.7389 8.97845 13.9586 9.23176 14.2571 9.31057C14.2571 9.31057 16.127 9.92977 19.3093 10.1887C21.8663 10.397 24.767 10.0086 24.767 10.0086C25.1894 9.99732 25.5273 9.64269 25.5104 9.2205C25.4935 8.79832 25.1443 8.46057 24.7219 8.47746C24.6712 8.47746 24.6205 8.48308 24.5755 8.49434C24.5755 8.49434 21.7368 8.84335 19.4332 8.65759C16.3917 8.40991 14.7358 7.85263 14.7358 7.85263C14.6119 7.81322 14.4824 7.79633 14.3585 7.81322ZM14.3585 4.01356C13.9361 4.06985 13.6432 4.45264 13.6995 4.87482C13.7389 5.17879 13.9586 5.4321 14.2571 5.51091C14.2571 5.51091 16.127 6.13012 19.3093 6.38906C21.8663 6.59733 24.767 6.20892 24.767 6.20892C25.1894 6.19766 25.5273 5.84303 25.5104 5.42084C25.4935 4.99866 25.1443 4.66091 24.7219 4.6778C24.6712 4.6778 24.6205 4.68343 24.5755 4.69468C24.5755 4.69468 21.7368 5.04369 19.4332 4.85793C16.3917 4.61025 14.7358 4.05297 14.7358 4.05297C14.6119 4.00794 14.4824 3.99667 14.3585 4.01356ZM9.02469 0C5.02576 0.0281456 3.5332 1.25529 3.5332 1.25529V31.1065C3.5332 31.1065 4.98634 29.8512 9.67241 30.0426C14.3585 30.234 15.3216 31.8777 21.0778 31.9903C26.834 32.1085 28.2815 31.1065 28.2815 31.1065L28.366 0.675495C28.366 0.675495 25.7752 1.40728 20.7342 1.44668C15.6933 1.48609 14.4824 0.163242 9.85264 0.0112555C9.56539 0.00562638 9.28941 0 9.02469 0ZM12.3703 1.94768C12.3703 1.94768 14.7922 2.74701 19.2698 2.97217C23.0548 3.15793 26.8453 2.60065 26.8453 2.60065V29.6486C26.8453 29.6486 24.9247 30.6562 20.126 30.3128C16.4086 30.0483 12.314 28.641 12.314 28.641L12.3703 1.94768ZM10.0329 2.65132C10.4609 2.65132 10.8045 3.00032 10.8045 3.4225C10.8045 3.84469 10.4553 4.1937 10.0329 4.1937C10.0329 4.1937 8.77687 4.19933 8.01651 4.27813C6.73235 4.4076 5.85934 4.87482 5.85934 4.87482C5.48197 5.07184 5.01449 4.93111 4.81736 4.55396C4.62023 4.1768 4.76104 3.70959 5.13841 3.51257C5.13841 3.51257 6.27613 2.91025 7.86444 2.75264C8.78251 2.65694 10.0329 2.65132 10.0329 2.65132ZM9.28941 6.46786C9.71746 6.4566 10.0385 6.46786 10.0385 6.46786C10.4609 6.51852 10.7651 6.90693 10.7144 7.32912C10.6693 7.68375 10.3933 7.95958 10.0385 8.00461C10.0385 8.00461 8.7825 8.01024 8.02214 8.08905C6.73798 8.21852 5.86498 8.68573 5.86498 8.68573C5.48761 8.88275 5.02013 8.7364 4.823 8.35925C4.62587 7.9821 4.77231 7.51488 5.14967 7.31786C5.14967 7.31786 6.2874 6.71555 7.8757 6.55793C8.32066 6.50727 8.86136 6.47912 9.28941 6.46786ZM10.0329 10.2675C10.4609 10.2675 10.8045 10.6165 10.8045 11.0387C10.8045 11.4665 10.4553 11.8099 10.0329 11.8099C10.0329 11.8099 8.77687 11.8043 8.01651 11.8775C6.73235 12.0069 5.85934 12.4741 5.85934 12.4741C5.48197 12.6712 5.01449 12.5248 4.81736 12.1476C4.62023 11.7705 4.76668 11.3033 5.14404 11.1063C5.14404 11.1063 6.28176 10.5039 7.87007 10.3463C8.78251 10.2619 10.0329 10.2675 10.0329 10.2675Z"
        fill="#32322A" />
</svg>