<svg width="32" height="32" viewBox="0 0 32 32" fill="none" xmlns="http://www.w3.org/2000/svg">
    <path fill-rule="evenodd" clip-rule="evenodd"
        d="M15.5525 0C22.2031 0.16262 27.0898 3.12605 30.2128 8.89022C29.8538 9.31083 29.5556 9.78496 29.3189 10.3127C29.1998 10.0756 29.0804 9.83852 28.9613 9.60143C28.3653 10.1941 27.7695 10.7868 27.1735 11.3795C26.7056 10.5291 26.348 10.5291 26.1008 11.3795C25.8624 10.4312 25.624 10.4312 25.3856 11.3795C25.1263 10.7899 24.7091 10.6121 24.1341 10.8461C24.3725 10.9646 24.6109 11.0831 24.8493 11.2017C24.4321 11.3795 24.1341 11.6758 23.9554 12.0907C23.8362 11.8536 23.717 11.6166 23.5978 11.3795C23.3594 11.8536 23.121 12.3278 22.8827 12.8019C22.468 11.9851 22.1104 12.1036 21.8099 13.1575C21.5716 11.261 21.3332 11.261 21.0948 13.1575C20.7372 13.5131 20.3797 13.8687 20.0221 14.2243C19.6645 14.1058 19.307 13.9873 18.9494 13.8687C18.0418 14.3778 17.1479 14.9704 16.2676 15.6468C16.1485 15.6468 16.0292 15.6468 15.9101 15.6468C15.9101 15.4097 15.7909 15.2912 15.5525 15.2912C15.7381 10.1814 15.7381 5.08431 15.5525 0Z"
        fill="#EF3F24" />
    <path fill-rule="evenodd" clip-rule="evenodd"
        d="M15.5525 0C15.738 5.08431 15.738 10.1814 15.5525 15.2912C14.9494 14.1292 13.9959 13.0624 12.6919 12.0907C12.3476 11.1009 11.9304 10.1526 11.4404 9.24582C11.3212 9.60143 11.202 9.95704 11.0829 10.3127C10.1028 8.49901 9.26848 6.60244 8.57988 4.62291C8.4607 5.09705 8.34148 5.57121 8.22231 6.04535C7.84432 5.19185 7.60593 4.36207 7.50717 3.55609C6.67121 3.83655 5.71772 4.54777 4.64662 5.68974C4.50402 5.60852 4.44445 5.48996 4.46783 5.33413C7.51396 2.09983 11.2089 0.32179 15.5525 0Z"
        fill="#2FB449" />
    <path fill-rule="evenodd" clip-rule="evenodd"
        d="M15.5527 15.2907C15.791 15.2907 15.9102 15.4093 15.9102 15.6464C15.791 15.6464 15.6718 15.6464 15.5527 15.6464C15.4335 15.6464 15.3143 15.6464 15.1951 15.6464C14.6482 15.4448 14.1118 15.2078 13.586 14.9351C13.0289 15.2357 12.6713 14.9986 12.5133 14.2239C12.3941 14.461 12.2749 14.6981 12.1558 14.9351C11.527 13.8104 10.8118 13.6918 10.0103 14.5795C9.65277 14.1054 9.2952 13.6312 8.93763 13.1571C8.61064 14.4676 8.37228 14.349 8.22249 12.8015C7.9841 14.2239 7.74575 14.2239 7.50736 12.8015C7.26897 14.2239 7.03061 14.2239 6.79222 12.8015C6.55383 14.2239 6.31547 14.2239 6.07708 12.8015C5.9579 13.0386 5.83869 13.2756 5.71951 13.5127C5.48112 13.0386 5.24277 12.5644 5.00438 12.0903C4.76598 13.0386 4.52763 13.0386 4.28924 12.0903C4.05085 13.0386 3.81249 13.0386 3.5741 12.0903C3.33571 13.0386 3.09735 13.0386 2.85896 12.0903C2.50139 12.4459 2.14382 12.8015 1.78626 13.1571C1.81239 12.4972 1.51443 11.9045 0.892334 11.3791C1.44807 8.96661 2.63995 6.95148 4.46802 5.33371C4.44464 5.48953 4.50421 5.60809 4.64681 5.68932C5.7179 4.54735 6.6714 3.83613 7.50736 3.55566C7.60612 4.36165 7.84451 5.19143 8.22249 6.04492C8.34167 5.57079 8.46089 5.09662 8.58006 4.62249C9.26867 6.60202 10.103 8.49859 11.083 10.3122C11.2022 9.95662 11.3214 9.60101 11.4406 9.2454C11.9306 10.1522 12.3478 11.1005 12.6921 12.0903C13.9961 13.062 14.9496 14.1288 15.5527 15.2907Z"
        fill="#5EBB46" />
    <path fill-rule="evenodd" clip-rule="evenodd"
        d="M30.213 8.89062C31.9368 11.9965 32.4135 15.3155 31.6433 18.8477C31.3687 18.5765 31.1899 18.2209 31.1069 17.7808C30.8684 19.2033 30.6303 19.2033 30.3918 17.7808C30.065 19.0913 29.8265 18.9728 29.6767 17.4252C29.4382 19.796 29.2 19.796 28.9615 17.4252C28.723 19.3218 28.4849 19.3218 28.2464 17.4252C27.9196 18.7357 27.6811 18.6172 27.5312 17.0696C27.2928 18.9662 27.0545 18.9662 26.8161 17.0696C26.4891 18.3801 26.2508 18.2616 26.101 16.714C25.9512 18.2616 25.7128 18.3801 25.3858 17.0696C25.1474 18.0179 24.9091 18.0179 24.6707 17.0696C24.5515 17.3067 24.4323 17.5438 24.3131 17.7808C24.0747 17.3067 23.8364 16.8325 23.598 16.3584C23.4788 16.5955 23.3596 16.8325 23.2404 17.0696C22.8828 16.714 22.5253 16.3584 22.1677 16.0028C21.6564 16.0717 21.1201 16.0717 20.5586 16.0028C20.3111 16.1896 20.1323 16.4266 20.0223 16.714C19.6647 16.3584 19.3072 16.0028 18.9496 15.6472C18.8304 15.8843 18.7112 16.1213 18.592 16.3584C17.9843 16.0362 17.3288 15.9177 16.6254 16.0028C16.387 16.0028 16.2678 15.8843 16.2678 15.6472C17.148 14.9709 18.042 14.3782 18.9496 13.8691C19.3072 13.9877 19.6647 14.1062 20.0223 14.2248C20.3799 13.8691 20.7374 13.5135 21.095 13.1579C21.3334 11.2614 21.5717 11.2614 21.8101 13.1579C22.1106 12.104 22.4682 11.9855 22.8828 12.8023C23.1212 12.3282 23.3596 11.854 23.598 11.3799C23.7172 11.617 23.8364 11.854 23.9556 12.0911C24.1343 11.6762 24.4323 11.3799 24.8495 11.2021C24.6111 11.0836 24.3727 10.965 24.1343 10.8465C24.7093 10.6125 25.1265 10.7903 25.3858 11.3799C25.6242 10.4316 25.8626 10.4316 26.101 11.3799C26.3482 10.5296 26.7058 10.5296 27.1737 11.3799C27.7697 10.7872 28.3654 10.1945 28.9615 9.60184C29.0806 9.83893 29.2 10.076 29.3191 10.3131C29.5558 9.78537 29.854 9.31124 30.213 8.89062Z"
        fill="#F57822" />
    <path fill-rule="evenodd" clip-rule="evenodd"
        d="M0.892229 11.3799C1.51433 11.9054 1.81229 12.498 1.78615 13.1579C2.14372 12.8023 2.50129 12.4467 2.85886 12.0911C3.09725 13.0394 3.3356 13.0394 3.574 12.0911C3.81239 13.0394 4.05074 13.0394 4.28913 12.0911C4.52752 13.0394 4.76588 13.0394 5.00427 12.0911C5.24266 12.5652 5.48102 13.0394 5.71941 13.5135C5.83859 13.2765 5.9578 13.0394 6.07698 12.8023C6.31537 14.2248 6.55372 14.2248 6.79211 12.8023C7.03051 14.2248 7.26886 14.2248 7.50725 12.8023C7.74564 14.2248 7.984 14.2248 8.22239 12.8023C8.37218 14.3499 8.61053 14.4684 8.93753 13.1579C9.2951 13.6321 9.65266 14.1062 10.0102 14.5804C10.8117 13.6927 11.5269 13.8112 12.1556 14.936C12.2748 14.6989 12.394 14.4618 12.5132 14.2248C12.6712 14.9994 13.0288 15.2365 13.5859 14.936C14.1117 15.2086 14.6481 15.4456 15.195 15.6472C15.195 15.7657 15.195 15.8843 15.195 16.0028C13.9653 16.0343 12.9522 16.5085 12.1556 17.4252C11.7924 17.0219 11.554 17.1405 11.4405 17.7808C11.2021 16.8325 10.9638 16.8325 10.7254 17.7808C10.6062 17.5438 10.487 17.3067 10.3678 17.0696C10.1294 17.5438 9.89106 18.0179 9.65266 18.4921C8.76997 17.7291 8.05483 17.9662 7.50725 19.2033C7.38807 18.9662 7.26886 18.7291 7.14968 18.4921C6.8908 19.3665 6.41406 19.7221 5.71941 19.5589C5.18102 20.6165 4.58506 20.735 3.93156 19.9145C3.4674 21.2685 2.75227 21.6241 1.78615 20.9813C1.90444 21.5214 1.84483 21.9955 1.60737 22.4038C-0.262575 18.7784 -0.500966 15.1037 0.892229 11.3799Z"
        fill="#90C93F" />
    <path fill-rule="evenodd" clip-rule="evenodd"
        d="M15.195 16.002C14.9296 16.6868 14.572 17.3387 14.1223 17.9578C14.2415 18.0763 14.3607 18.1949 14.4799 18.3134C13.9894 18.5378 13.5126 18.7748 13.0496 19.0246C13.1014 19.2992 13.2206 19.5362 13.4072 19.7358C12.909 20.1523 12.6111 20.6857 12.5133 21.3361C12.2749 19.9136 12.0365 19.9136 11.7981 21.3361C11.679 21.099 11.5597 20.8619 11.4406 20.6249C11.0925 21.2977 10.8541 22.0089 10.7254 22.7585C10.0308 22.5953 9.55403 22.9509 9.29515 23.8253C8.96841 23.4151 8.67044 23.4744 8.40123 24.0031C8.26968 24.527 8.44846 25.0604 8.93758 25.6034C9.22543 24.7495 9.52339 24.8088 9.8315 25.7812C9.5846 26.1608 9.40582 26.5757 9.29515 27.0258C9.17597 26.6702 9.05676 26.3146 8.93758 25.959C8.40205 27.0242 7.8657 28.091 7.32852 29.1595C4.6577 27.5683 2.75064 25.3161 1.60742 22.4029C1.84488 21.9947 1.90449 21.5205 1.78621 20.9805C2.75232 21.6233 3.46746 21.2677 3.93162 19.9136C4.58511 20.7341 5.18107 20.6156 5.71946 19.558C6.41411 19.7212 6.89086 19.3656 7.14974 18.4912C7.26892 18.7283 7.38813 18.9653 7.50731 19.2024C8.05489 17.9653 8.77003 17.7283 9.65272 18.4912C9.89111 18.0171 10.1295 17.5429 10.3679 17.0688C10.487 17.3059 10.6062 17.5429 10.7254 17.78C10.9638 16.8317 11.2022 16.8317 11.4406 17.78C11.554 17.1396 11.7924 17.0211 12.1557 17.4244C12.9522 16.5077 13.9653 16.0335 15.195 16.002Z"
        fill="#C1D82F" />
    <path fill-rule="evenodd" clip-rule="evenodd"
        d="M15.1951 15.6465C15.3143 15.6465 15.4335 15.6465 15.5527 15.6465C15.9804 17.1064 16.5763 18.4696 17.3405 19.736C17.1021 19.8545 16.8638 19.9731 16.6254 20.0916C17.1806 20.4816 17.6573 20.9558 18.0557 21.514C17.6681 22.2927 17.9065 22.8854 18.7708 23.2921C18.5324 23.4106 18.2941 23.5292 18.0557 23.6477C18.3965 24.343 18.8733 24.9356 19.486 25.4257C19.0804 25.787 19.1996 26.0241 19.8435 26.1369C19.4416 26.2256 19.084 26.4034 18.7708 26.6704C20.0122 27.6936 20.7869 28.879 21.095 30.2264C21.4566 30.5241 21.8738 30.6425 22.3465 30.582C18.2491 32.4109 14.0774 32.4703 9.83159 30.7599C8.85232 30.395 8.01801 29.8616 7.32861 29.1596C7.86579 28.0912 8.40214 27.0243 8.93767 25.9591C9.05685 26.3147 9.17606 26.6704 9.29524 27.026C9.40591 26.5758 9.58469 26.1609 9.83159 25.7813C9.52348 24.809 9.22552 24.7497 8.93767 25.6035C8.44855 25.0605 8.26977 24.5271 8.40132 24.0033C8.67053 23.4745 8.9685 23.4152 9.29524 23.8255C9.55412 22.9511 10.0309 22.5955 10.7255 22.7587C10.8542 22.0091 11.0926 21.2979 11.4407 20.625C11.5598 20.8621 11.679 21.0991 11.7982 21.3362C12.0366 19.9138 12.275 19.9138 12.5134 21.3362C12.6112 20.6859 12.9091 20.1524 13.4073 19.736C13.2207 19.5364 13.1015 19.2993 13.0497 19.0248C13.5127 18.775 13.9894 18.5379 14.48 18.3135C14.3608 18.195 14.2416 18.0765 14.1224 17.9579C14.5721 17.3389 14.9297 16.6869 15.1951 16.0021C15.1951 15.8836 15.1951 15.765 15.1951 15.6465Z"
        fill="#EEE621" />
    <path fill-rule="evenodd" clip-rule="evenodd"
        d="M15.5525 15.6465C15.6717 15.6465 15.7909 15.6465 15.9101 15.6465C16.0292 15.6465 16.1485 15.6465 16.2676 15.6465C16.2676 15.8836 16.3868 16.0021 16.6252 16.0021C17.4428 17.1103 18.4559 18.0586 19.6645 18.847C19.9029 19.3211 20.1413 19.7953 20.3797 20.2694C20.4988 20.0323 20.6181 19.7953 20.7372 19.5582C21.0948 20.2694 21.4524 20.9806 21.8099 21.6918C22.6179 20.8038 23.0947 21.0409 23.2402 22.403C23.3594 22.166 23.4786 21.9289 23.5978 21.6918C24.1964 22.3501 24.6136 22.9427 24.8493 23.4699C25.1988 23.3004 25.4968 23.0633 25.7432 22.7587C26.2796 23.2921 26.8159 23.8255 27.3523 24.3589C26.9886 24.7321 26.929 25.147 27.1735 25.6035C27.4119 24.6552 27.6501 24.6552 27.8886 25.6035C28.2294 24.9374 28.6467 24.8189 29.1401 25.2479C27.3911 27.7011 25.1265 29.4791 22.3463 30.582C21.8736 30.6425 21.4564 30.5241 21.0948 30.2264C20.7867 28.879 20.012 27.6936 18.7706 26.6704C19.0838 26.4034 19.4414 26.2256 19.8433 26.1369C19.1994 26.0241 19.0802 25.787 19.4857 25.4257C18.8731 24.9356 18.3963 24.343 18.0555 23.6477C18.2939 23.5292 18.5322 23.4106 18.7706 23.2921C17.9063 22.8854 17.6679 22.2927 18.0555 21.514C17.6571 20.9558 17.1804 20.4816 16.6252 20.0916C16.8636 19.9731 17.1019 19.8545 17.3403 19.736C16.5761 18.4696 15.9802 17.1064 15.5525 15.6465Z"
        fill="#FEDD0F" />
    <path fill-rule="evenodd" clip-rule="evenodd"
        d="M31.6431 18.847C31.3689 21.208 30.5343 23.3417 29.1402 25.2479C28.6467 24.8189 28.2294 24.9374 27.8887 25.6035C27.6502 24.6552 27.4119 24.6552 27.1735 25.6035C26.929 25.147 26.9886 24.7321 27.3523 24.3589C26.816 23.8255 26.2796 23.2921 25.7432 22.7587C25.4968 23.0633 25.1989 23.3004 24.8493 23.4699C24.6137 22.9427 24.1965 22.3501 23.5978 21.6918C23.4787 21.9289 23.3594 22.166 23.2403 22.403C23.0947 21.0409 22.618 20.8038 21.81 21.6918C21.4524 20.9806 21.0949 20.2694 20.7373 19.5582C20.6181 19.7953 20.4989 20.0323 20.3797 20.2694C20.1413 19.7953 19.903 19.3211 19.6646 18.847C18.456 18.0586 17.4429 17.1103 16.6252 16.0021C17.3287 15.917 17.9842 16.0355 18.5919 16.3577C18.7111 16.1206 18.8303 15.8836 18.9494 15.6465C19.307 16.0021 19.6646 16.3577 20.0221 16.7133C20.1321 16.4259 20.3109 16.1889 20.5585 16.0021C21.1199 16.071 21.6563 16.071 22.1676 16.0021C22.5251 16.3577 22.8827 16.7133 23.2403 17.0689C23.3594 16.8318 23.4787 16.5948 23.5978 16.3577C23.8362 16.8318 24.0746 17.306 24.313 17.7801C24.4322 17.5431 24.5514 17.306 24.6705 17.0689C24.9089 18.0172 25.1473 18.0172 25.3857 17.0689C25.7127 18.3794 25.951 18.2608 26.1008 16.7133C26.2506 18.2608 26.489 18.3794 26.816 17.0689C27.0543 18.9655 27.2927 18.9655 27.5311 17.0689C27.6809 18.6165 27.9194 18.735 28.2462 17.4245C28.4847 19.3211 28.7229 19.3211 28.9614 17.4245C29.1999 19.7953 29.438 19.7953 29.6765 17.4245C29.8263 18.9721 30.0648 19.0906 30.3916 17.7801C30.6301 19.2026 30.8683 19.2026 31.1068 17.7801C31.1897 18.2202 31.3685 18.5758 31.6431 18.847Z"
        fill="#FCB117" />
</svg>