<svg width="32" height="32" viewBox="0 0 32 32" fill="none" xmlns="http://www.w3.org/2000/svg">
    <rect width="32" height="32" fill="#FAFAFA" />
    <path opacity="0.922" fill-rule="evenodd" clip-rule="evenodd"
        d="M15.1291 2.66666C17.9965 2.52974 19.0486 3.80974 18.2856 6.50666C17.3844 7.51176 16.2597 7.83176 14.9114 7.46666C13.5561 6.61102 13.157 5.43769 13.7141 3.94666C14.0393 3.34645 14.5109 2.91978 15.1291 2.66666Z"
        fill="#D41E25" />
    <path opacity="0.863" fill-rule="evenodd" clip-rule="evenodd"
        d="M12.5175 4.58643C12.9266 5.10165 12.9992 5.67054 12.7352 6.29309C11.4799 6.67178 10.3915 7.31178 9.46987 8.21309C11.4622 10.2723 13.4939 12.299 15.5651 14.2931C15.7102 14.4353 15.8553 14.4353 16.0005 14.2931C18.1442 12.2279 20.2485 10.1301 22.3134 7.99976C21.4324 7.21213 20.4165 6.64324 19.2658 6.29309C19.0501 5.70768 19.1227 5.13881 19.4835 4.58643C23.4589 5.92142 25.9986 8.55253 27.1025 12.4798C26.6036 12.4251 26.1319 12.4962 25.6876 12.6931C25.1627 11.4496 24.4733 10.3118 23.6195 9.27976C21.3701 11.342 19.1932 13.4753 17.0889 15.6798C19.1901 17.8456 21.3307 19.979 23.5107 22.0798C24.401 20.9762 25.1266 19.7673 25.6876 18.4531C26.1319 18.65 26.6036 18.7211 27.1025 18.6664C25.9854 22.6419 23.4095 25.2729 19.3746 26.5598C19.1156 25.985 19.0793 25.4161 19.2658 24.8531C20.4165 24.503 21.4324 23.9341 22.3134 23.1464C20.2122 20.9806 18.0716 18.8472 15.8916 16.7464C13.7511 18.8442 11.6104 20.942 9.46987 23.0398C10.4946 23.7553 11.583 24.3597 12.7352 24.8531C12.9751 25.427 12.9388 25.9959 12.6263 26.5598C8.60045 25.2813 6.02447 22.6502 4.89844 18.6664C5.42424 18.6394 5.93217 18.6039 6.42225 18.5598C6.83026 19.7527 7.48332 20.7839 8.38143 21.6531C10.5189 19.665 12.6233 17.6384 14.6944 15.5731C12.5538 13.4753 10.4132 11.3775 8.27259 9.27976C7.51449 10.3032 6.8977 11.4054 6.42225 12.5864C5.93217 12.5423 5.42424 12.5067 4.89844 12.4798C6.02856 8.52814 8.56825 5.89702 12.5175 4.58643Z"
        fill="#6F6F6E" />
    <path opacity="0.935" fill-rule="evenodd" clip-rule="evenodd"
        d="M4.24473 13.1199C6.96366 12.762 8.08839 13.8998 7.61888 16.5332C6.89555 17.9003 5.77083 18.3625 4.24473 17.9199C2.84977 17.211 2.37811 16.1088 2.82976 14.6132C3.19855 14.0036 3.67019 13.5058 4.24473 13.1199Z"
        fill="#459DD6" />
    <path opacity="0.92" fill-rule="evenodd" clip-rule="evenodd"
        d="M25.3606 13.1199C27.9308 12.7599 29.1281 13.8266 28.9524 16.3199C28.3135 17.7871 27.1887 18.3204 25.5783 17.9199C23.8653 17.007 23.4663 15.6914 24.381 13.9732C24.6851 13.6382 25.0116 13.3538 25.3606 13.1199Z"
        fill="#EEBB13" />
    <path opacity="0.914" fill-rule="evenodd" clip-rule="evenodd"
        d="M15.1288 23.5734C17.9962 23.4364 19.0483 24.7164 18.2853 27.4134C16.4046 29.228 14.8083 29.0147 13.4962 26.7734C13.2422 25.2886 13.7864 24.2219 15.1288 23.5734Z"
        fill="#5AB12E" />
</svg>