<svg width="32" height="32" viewBox="0 0 32 32" fill="none" xmlns="http://www.w3.org/2000/svg">
    <g clip-path="url(#clip0_4993_1185)">
        <path fill-rule="evenodd" clip-rule="evenodd"
            d="M-0.03125 -0.03125C10.6354 -0.03125 21.3021 -0.03125 31.9688 -0.03125C31.9688 10.6354 31.9688 21.3021 31.9688 31.9688C21.3021 31.9688 10.6354 31.9688 -0.03125 31.9688C-0.03125 21.3021 -0.03125 10.6354 -0.03125 -0.03125Z"
            fill="black" />
        <path fill-rule="evenodd" clip-rule="evenodd"
            d="M11.7188 8.84401C15.3749 8.7712 19.0416 8.76076 22.7188 8.81276C22.8694 8.81632 22.9527 8.88926 22.9688 9.03151C22.9131 8.99338 22.8506 8.97257 22.7812 8.96901C22.7599 8.91663 22.7182 8.89576 22.6562 8.90651C19.021 8.84407 15.3751 8.82326 11.7188 8.84401Z"
            fill="#090909" />
        <path fill-rule="evenodd" clip-rule="evenodd"
            d="M11.7193 8.84371C15.3756 8.82296 19.0215 8.84377 22.6568 8.90621C19.0109 8.89577 15.365 8.90621 11.7193 8.93746C11.6845 8.96139 11.6637 8.99264 11.6568 9.03121C11.6359 9.03121 11.6151 9.03121 11.5943 9.03121C11.5808 8.92627 11.6225 8.86377 11.7193 8.84371Z"
            fill="#212121" />
        <path fill-rule="evenodd" clip-rule="evenodd"
            d="M22.6562 8.90626C22.7182 8.89551 22.7599 8.91638 22.7812 8.96876C22.7812 8.98957 22.7812 9.01045 22.7812 9.03126C22.7396 9.03126 22.6979 9.03126 22.6562 9.03126C18.9896 9.03126 15.3229 9.03126 11.6562 9.03126C11.6632 8.9927 11.684 8.96145 11.7188 8.93751C15.3645 8.90626 19.0104 8.89582 22.6562 8.90626Z"
            fill="#434343" />
        <path fill-rule="evenodd" clip-rule="evenodd"
            d="M22.6562 9.09376C22.6562 9.11457 22.6562 9.13545 22.6562 9.15626C22.6354 9.15626 22.6146 9.15626 22.5938 9.15626C18.9582 9.13551 15.3332 9.15632 11.7188 9.21876C11.6497 9.28751 11.5664 9.3292 11.4688 9.34376C11.5181 9.26288 11.5806 9.18995 11.6562 9.12501C15.3229 9.09376 18.9895 9.08332 22.6562 9.09376Z"
            fill="#C6C6C6" />
        <path fill-rule="evenodd" clip-rule="evenodd"
            d="M22.9688 9.09375C23.0416 12.7916 23.052 16.4999 23 20.2188C22.949 20.3014 22.8761 20.3431 22.7812 20.3438C22.7812 20.3229 22.7812 20.3021 22.7812 20.2812C22.8438 20.2604 22.8854 20.2188 22.9062 20.1562C22.9687 16.4793 22.9895 12.7918 22.9688 9.09375Z"
            fill="#0B0B0B" />
        <path fill-rule="evenodd" clip-rule="evenodd"
            d="M11.5938 9.03125C11.5521 9.11456 11.4896 9.17706 11.4062 9.21875C11.4062 9.09375 11.4688 9.03125 11.5938 9.03125Z"
            fill="#2C2C2C" />
        <path fill-rule="evenodd" clip-rule="evenodd"
            d="M11.5938 9.03125C11.6146 9.03125 11.6354 9.03125 11.6562 9.03125C15.3229 9.03125 18.9896 9.03125 22.6562 9.03125C22.6562 9.05206 22.6562 9.07294 22.6562 9.09375C18.9895 9.08331 15.3229 9.09375 11.6562 9.125C11.5806 9.18994 11.5181 9.26287 11.4688 9.34375C11.3994 9.34731 11.3369 9.36812 11.2812 9.40625C11.2989 9.32638 11.3406 9.26388 11.4062 9.21875C11.4896 9.17706 11.5521 9.11456 11.5938 9.03125Z"
            fill="#797979" />
        <path fill-rule="evenodd" clip-rule="evenodd"
            d="M22.5938 9.15621C22.6339 12.8923 22.5923 16.6214 22.4688 20.3437C22.0951 20.7174 21.7201 21.0924 21.3438 21.4687C21.3046 21.526 21.2837 21.5885 21.2813 21.6562C21.2289 21.6776 21.208 21.7192 21.2188 21.7812C21.1979 21.7812 21.1771 21.7812 21.1563 21.7812C20.9139 21.9289 20.6952 22.1164 20.5 22.3437C20.4506 22.4215 20.4193 22.5048 20.4063 22.5937C19.3644 22.6041 18.3227 22.5937 17.2813 22.5625C17.3283 22.5205 17.3491 22.4685 17.3438 22.4062C17.3438 22.3854 17.3438 22.3645 17.3438 22.3437C17.5215 22.3535 17.6257 22.2702 17.6563 22.0937C17.7829 22.0039 17.9184 21.9206 18.0625 21.8437C18.1256 21.7484 18.1568 21.6442 18.1563 21.5312C18.2813 21.5312 18.3438 21.4687 18.3438 21.3437C18.6973 21.2818 18.9056 21.0735 18.9688 20.7187C19.0104 20.6354 19.0729 20.5729 19.1563 20.5312C19.1979 20.5312 19.2396 20.5312 19.2813 20.5312C19.4019 20.4838 19.4957 20.4004 19.5625 20.2812C19.5938 17.7188 19.6042 15.1563 19.5938 12.5937C19.6272 12.4226 19.5647 12.308 19.4063 12.25C16.8124 12.198 14.2291 12.2084 11.6563 12.2812C11.5998 12.3255 11.5789 12.388 11.5938 12.4687C11.4688 12.4687 11.4063 12.5312 11.4063 12.6562C11.3405 12.6469 11.278 12.6573 11.2188 12.6875C11.1667 12.7812 11.0938 12.8541 11 12.9062C10.9698 12.9655 10.9594 13.028 10.9688 13.0937C10.7907 13.2347 10.6032 13.3597 10.4063 13.4687C10.4063 13.5312 10.4063 13.5937 10.4063 13.6562C10.2188 13.6354 10.1354 13.7187 10.1563 13.9062C10.1101 13.898 10.0684 13.9085 10.0313 13.9375C9.92438 14.0406 9.84101 14.1552 9.78126 14.2812C9.71876 14.2812 9.65626 14.2812 9.59376 14.2812C9.59376 14.3437 9.59376 14.4062 9.59376 14.4687C9.51113 14.4581 9.4382 14.4789 9.37501 14.5312C9.34376 13.5523 9.33332 12.5731 9.34376 11.5937C9.40626 11.5937 9.46876 11.5937 9.53126 11.5937C9.53126 11.5312 9.53126 11.4687 9.53126 11.4062C9.59376 11.4062 9.65626 11.4062 9.71876 11.4062C9.76288 11.2705 9.82538 11.1455 9.90626 11.0312C9.97501 10.9621 10.0167 10.8788 10.0313 10.7812C10.1354 10.6979 10.2396 10.6145 10.3438 10.5312C10.4271 10.4687 10.5104 10.4062 10.5938 10.3437C10.6669 10.2325 10.771 10.17 10.9063 10.1562C10.9063 10.0937 10.9063 10.0312 10.9063 9.96871C10.9896 9.90621 11.0729 9.84371 11.1563 9.78121C11.2705 9.70033 11.3955 9.63783 11.5313 9.59371C11.5754 9.45796 11.6379 9.33296 11.7188 9.21871C15.3332 9.15627 18.9582 9.13546 22.5938 9.15621Z"
            fill="#FEFEFE" />
        <path fill-rule="evenodd" clip-rule="evenodd"
            d="M22.5938 9.15625C22.6146 9.15625 22.6354 9.15625 22.6562 9.15625C22.6667 12.8438 22.6562 16.5313 22.625 20.2188C22.5807 20.2738 22.5286 20.3154 22.4688 20.3438C22.5922 16.6214 22.6339 12.8923 22.5938 9.15625Z"
            fill="#F3F3F3" />
        <path fill-rule="evenodd" clip-rule="evenodd"
            d="M22.6562 9.09375C22.6948 9.10069 22.7261 9.1215 22.75 9.15625C22.7812 12.8229 22.7917 16.4895 22.7812 20.1562C22.7227 20.2981 22.6394 20.4231 22.5312 20.5312C22.3892 20.5598 22.3059 20.6431 22.2812 20.7812C22.1562 20.7812 22.0938 20.8438 22.0938 20.9688C21.8229 21.1146 21.6146 21.3229 21.4688 21.5938C21.3994 21.5973 21.3369 21.6181 21.2812 21.6562C21.2837 21.5886 21.3046 21.5261 21.3438 21.4688C21.7201 21.0924 22.0951 20.7174 22.4688 20.3438C22.5286 20.3154 22.5807 20.2738 22.625 20.2188C22.6562 16.5313 22.6667 12.8438 22.6562 9.15625C22.6562 9.13544 22.6562 9.11456 22.6562 9.09375Z"
            fill="#AEAEAE" />
        <path fill-rule="evenodd" clip-rule="evenodd"
            d="M22.6562 9.09375C22.6562 9.07294 22.6562 9.05206 22.6562 9.03125C22.6979 9.03125 22.7396 9.03125 22.7812 9.03125C22.8229 9.03125 22.8438 9.05206 22.8438 9.09375C22.8645 12.7918 22.8437 16.4793 22.7812 20.1562C22.7917 16.4895 22.7812 12.8229 22.75 9.15625C22.7261 9.1215 22.6948 9.10069 22.6562 9.09375Z"
            fill="#575757" />
        <path fill-rule="evenodd" clip-rule="evenodd"
            d="M22.8438 9.09375C22.9062 12.7707 22.927 16.4582 22.9062 20.1562C22.8854 20.2188 22.8438 20.2604 22.7812 20.2812C22.7812 20.2396 22.7812 20.1979 22.7812 20.1562C22.8437 16.4793 22.8645 12.7918 22.8438 9.09375Z"
            fill="#3B3B3B" />
        <path fill-rule="evenodd" clip-rule="evenodd"
            d="M22.7812 9.03125C22.7812 9.01044 22.7812 8.98956 22.7812 8.96875C22.8506 8.97231 22.9131 8.99312 22.9688 9.03125C22.9688 9.05206 22.9688 9.07294 22.9688 9.09375C22.9895 12.7918 22.9687 16.4793 22.9062 20.1562C22.927 16.4582 22.9062 12.7707 22.8438 9.09375C22.8438 9.05206 22.8229 9.03125 22.7812 9.03125Z"
            fill="#202020" />
        <path fill-rule="evenodd" clip-rule="evenodd"
            d="M11.4062 9.21875C11.3406 9.26388 11.2989 9.32638 11.2812 9.40625C11.2604 9.40625 11.2396 9.40625 11.2188 9.40625C11.2188 9.34375 11.2188 9.28125 11.2188 9.21875C11.2812 9.21875 11.3438 9.21875 11.4062 9.21875Z"
            fill="#262626" />
        <path fill-rule="evenodd" clip-rule="evenodd"
            d="M11.156 9.40625C11.1412 9.52525 11.0787 9.60862 10.9685 9.65625C10.9428 9.50169 11.0053 9.41838 11.156 9.40625Z"
            fill="#1D1D1D" />
        <path fill-rule="evenodd" clip-rule="evenodd"
            d="M11.4688 9.34375C11.3493 9.47856 11.2451 9.62444 11.1562 9.78125C11.0729 9.84375 10.9896 9.90625 10.9062 9.96875C10.8854 9.96875 10.8646 9.96875 10.8438 9.96875C11.0134 9.79913 11.1593 9.61163 11.2812 9.40625C11.3369 9.36812 11.3994 9.34731 11.4688 9.34375Z"
            fill="#AAAAAA" />
        <path fill-rule="evenodd" clip-rule="evenodd"
            d="M11.7188 9.21875C11.6379 9.333 11.5754 9.458 11.5312 9.59375C11.3955 9.63787 11.2705 9.70037 11.1562 9.78125C11.2451 9.62444 11.3493 9.47856 11.4688 9.34375C11.5664 9.32919 11.6497 9.2875 11.7188 9.21875Z"
            fill="#E5E5E5" />
        <path fill-rule="evenodd" clip-rule="evenodd"
            d="M10.9688 9.65625C10.9271 9.73956 10.8646 9.80206 10.7812 9.84375C10.7812 9.71875 10.8438 9.65625 10.9688 9.65625Z"
            fill="#292929" />
        <path fill-rule="evenodd" clip-rule="evenodd"
            d="M10.7812 9.84375C10.7396 9.92706 10.6771 9.98956 10.5938 10.0312C10.5938 9.90625 10.6562 9.84375 10.7812 9.84375Z"
            fill="#2C2C2C" />
        <path fill-rule="evenodd" clip-rule="evenodd"
            d="M11.1562 9.40625C11.1771 9.40625 11.1979 9.40625 11.2188 9.40625C11.2396 9.40625 11.2604 9.40625 11.2812 9.40625C11.1593 9.61163 11.0134 9.79913 10.8438 9.96875C10.7604 10.0104 10.6979 10.0729 10.6562 10.1562C10.5342 10.2366 10.4301 10.3407 10.3438 10.4688C10.3229 10.4688 10.3021 10.4688 10.2812 10.4688C10.2958 10.3711 10.3375 10.2878 10.4062 10.2188C10.4688 10.1562 10.5312 10.0938 10.5938 10.0312C10.6771 9.98956 10.7396 9.92706 10.7812 9.84375C10.8646 9.80206 10.9271 9.73956 10.9688 9.65625C11.0789 9.60862 11.1414 9.52525 11.1562 9.40625Z"
            fill="#676767" />
        <path fill-rule="evenodd" clip-rule="evenodd"
            d="M10.5938 10.0312C10.5312 10.0938 10.4688 10.1562 10.4062 10.2188C10.4062 10.1562 10.4062 10.0938 10.4062 10.0312C10.4688 10.0312 10.5312 10.0312 10.5938 10.0312Z"
            fill="#262626" />
        <path fill-rule="evenodd" clip-rule="evenodd"
            d="M10.4062 10.2188C10.3375 10.2878 10.2958 10.3711 10.2812 10.4688C10.2396 10.4896 10.1979 10.5104 10.1562 10.5312C10.1899 10.4302 10.2107 10.326 10.2188 10.2188C10.2812 10.2188 10.3438 10.2188 10.4062 10.2188Z"
            fill="#2E2E2E" />
        <path fill-rule="evenodd" clip-rule="evenodd"
            d="M10.8438 9.96875C10.8646 9.96875 10.8854 9.96875 10.9062 9.96875C10.9062 10.0312 10.9062 10.0938 10.9062 10.1562C10.771 10.1701 10.6669 10.2326 10.5938 10.3438C10.5973 10.2744 10.6181 10.2119 10.6562 10.1562C10.6979 10.0729 10.7604 10.0104 10.8438 9.96875Z"
            fill="#D2D2D2" />
        <path fill-rule="evenodd" clip-rule="evenodd"
            d="M10.6562 10.1562C10.6181 10.2119 10.5973 10.2744 10.5938 10.3438C10.5104 10.4062 10.4271 10.4688 10.3438 10.5312C10.3438 10.5104 10.3438 10.4896 10.3438 10.4688C10.4301 10.3407 10.5342 10.2366 10.6562 10.1562Z"
            fill="#B6B6B6" />
        <path fill-rule="evenodd" clip-rule="evenodd"
            d="M10.2812 10.4688C10.3021 10.4688 10.3229 10.4688 10.3438 10.4688C10.3438 10.4896 10.3438 10.5104 10.3438 10.5312C10.2396 10.6146 10.1354 10.6979 10.0312 10.7812C10.0312 10.7604 10.0312 10.7396 10.0312 10.7188C10.0729 10.6562 10.1146 10.5938 10.1562 10.5312C10.1979 10.5104 10.2396 10.4896 10.2812 10.4688Z"
            fill="#888888" />
        <path fill-rule="evenodd" clip-rule="evenodd"
            d="M10.1562 10.5312C10.1146 10.5938 10.0729 10.6562 10.0312 10.7188C9.93362 10.7333 9.85031 10.775 9.78125 10.8438C9.85238 10.6821 9.97738 10.5779 10.1562 10.5312Z"
            fill="#2E2E2E" />
        <path fill-rule="evenodd" clip-rule="evenodd"
            d="M10.0312 10.7812C10.0167 10.8789 9.975 10.9622 9.90625 11.0312C9.85056 11.0694 9.78806 11.0902 9.71875 11.0938C9.80206 10.9688 9.90625 10.8646 10.0312 10.7812Z"
            fill="#B5B5B5" />
        <path fill-rule="evenodd" clip-rule="evenodd"
            d="M9.78125 10.8438C9.73956 10.9271 9.67706 10.9896 9.59375 11.0312C9.59375 10.9062 9.65625 10.8438 9.78125 10.8438Z"
            fill="#2A2A2A" />
        <path fill-rule="evenodd" clip-rule="evenodd"
            d="M9.71875 11.0938C9.65625 11.1979 9.57294 11.2812 9.46875 11.3438C9.48956 11.1979 9.57294 11.1146 9.71875 11.0938Z"
            fill="#9A9A9A" />
        <path fill-rule="evenodd" clip-rule="evenodd"
            d="M10.0312 10.7188C10.0312 10.7396 10.0312 10.7604 10.0312 10.7812C9.90625 10.8646 9.80206 10.9688 9.71875 11.0938C9.57294 11.1146 9.48956 11.1979 9.46875 11.3438C9.36456 11.4062 9.28125 11.4896 9.21875 11.5938C9.19794 11.5938 9.17706 11.5938 9.15625 11.5938C9.15625 11.5729 9.15625 11.5521 9.15625 11.5312C9.15625 11.5104 9.15625 11.4896 9.15625 11.4688C9.31631 11.335 9.46219 11.1892 9.59375 11.0312C9.67706 10.9896 9.73956 10.9271 9.78125 10.8438C9.85031 10.775 9.93362 10.7333 10.0312 10.7188Z"
            fill="#5D5D5D" />
        <path fill-rule="evenodd" clip-rule="evenodd"
            d="M9.90625 11.0312C9.82537 11.1455 9.76287 11.2705 9.71875 11.4062C9.65625 11.4062 9.59375 11.4062 9.53125 11.4062C9.53125 11.4688 9.53125 11.5312 9.53125 11.5938C9.46875 11.5938 9.40625 11.5938 9.34375 11.5938C9.4125 11.5247 9.45419 11.4414 9.46875 11.3438C9.57294 11.2812 9.65625 11.1979 9.71875 11.0938C9.78806 11.0902 9.85056 11.0694 9.90625 11.0312Z"
            fill="#E5E5E5" />
        <path fill-rule="evenodd" clip-rule="evenodd"
            d="M9.34364 11.5938C9.3332 12.5731 9.34364 13.5523 9.37489 14.5312C9.43807 14.4789 9.51101 14.4581 9.59364 14.4688C9.48557 14.5148 9.42307 14.5981 9.40614 14.7188C9.36445 14.7188 9.32282 14.7188 9.28114 14.7188C9.26051 13.6661 9.28132 12.6245 9.34364 11.5938Z"
            fill="#E8E8E8" />
        <path fill-rule="evenodd" clip-rule="evenodd"
            d="M9.15626 11.5938C9.17707 11.5938 9.19795 11.5938 9.21876 11.5938C9.19813 12.6464 9.21895 13.688 9.28126 14.7188C9.28126 14.8021 9.32295 14.8438 9.40626 14.8438C9.34113 14.9244 9.26826 14.9244 9.18751 14.8438C9.15626 13.7606 9.14582 12.6773 9.15626 11.5938Z"
            fill="#797979" />
        <path fill-rule="evenodd" clip-rule="evenodd"
            d="M9.46864 11.3438C9.45407 11.4414 9.41239 11.5247 9.34364 11.5938C9.28132 12.6245 9.26051 13.6661 9.28114 14.7188C9.21882 13.688 9.19801 12.6464 9.21864 11.5938C9.28114 11.4896 9.36445 11.4062 9.46864 11.3438Z"
            fill="#B0B0B0" />
        <path fill-rule="evenodd" clip-rule="evenodd"
            d="M9.15614 11.4688C9.15614 11.4896 9.15614 11.5104 9.15614 11.5312C9.11757 11.5382 9.08632 11.559 9.06239 11.5938C9.03114 12.6977 9.0207 13.8019 9.03114 14.9062C8.96882 13.7713 8.94801 12.6255 8.96864 11.4688C9.03114 11.4688 9.09364 11.4688 9.15614 11.4688Z"
            fill="#181818" />
        <path fill-rule="evenodd" clip-rule="evenodd"
            d="M9.15626 11.5312C9.15626 11.5521 9.15626 11.5729 9.15626 11.5938C9.14582 12.6773 9.15626 13.7606 9.18751 14.8438C9.26826 14.9244 9.34113 14.9244 9.40626 14.8438C9.42707 14.8438 9.44795 14.8438 9.46876 14.8438C9.3527 14.9903 9.20688 15.0111 9.03126 14.9062C9.02082 13.8019 9.03126 12.6977 9.06251 11.5938C9.08645 11.559 9.1177 11.5382 9.15626 11.5312Z"
            fill="#414141" />
        <path fill-rule="evenodd" clip-rule="evenodd"
            d="M11.6562 12.2815C14.2291 12.2087 16.8124 12.1983 19.4062 12.2502C19.5647 12.3082 19.6272 12.4229 19.5938 12.594C19.5729 12.594 19.5521 12.594 19.5312 12.594C19.532 12.4289 19.4487 12.3455 19.2812 12.344C16.7502 12.2815 14.2086 12.2607 11.6562 12.2815Z"
            fill="#F3F3F3" />
        <path fill-rule="evenodd" clip-rule="evenodd"
            d="M11.657 12.2812C14.2093 12.2605 16.7509 12.2813 19.282 12.3437C16.7186 12.3024 14.177 12.3441 11.657 12.4687C11.6361 12.4687 11.6153 12.4687 11.5945 12.4687C11.5796 12.388 11.6005 12.3255 11.657 12.2812Z"
            fill="#DADADA" />
        <path fill-rule="evenodd" clip-rule="evenodd"
            d="M11.5938 12.4687C11.6146 12.4687 11.6354 12.4687 11.6562 12.4687C14.2086 12.448 16.7502 12.4688 19.2812 12.5312C16.7392 12.5104 14.1976 12.5312 11.6562 12.5937C11.6129 12.6573 11.5713 12.7198 11.5312 12.7812C11.5104 12.7812 11.4896 12.7812 11.4688 12.7812C11.4688 12.7604 11.4688 12.7395 11.4688 12.7187C11.5375 12.6496 11.5792 12.5663 11.5938 12.4687Z"
            fill="#757575" />
        <path fill-rule="evenodd" clip-rule="evenodd"
            d="M19.2812 12.5312C19.2812 12.5521 19.2812 12.5729 19.2812 12.5937C16.7601 12.5729 14.2392 12.5937 11.7188 12.6562C11.6872 12.7449 11.6247 12.7866 11.5312 12.7812C11.5713 12.7199 11.6129 12.6574 11.6562 12.5937C14.1976 12.5312 16.7392 12.5104 19.2812 12.5312Z"
            fill="#3F3F3F" />
        <path fill-rule="evenodd" clip-rule="evenodd"
            d="M11.5938 12.4688C11.5792 12.5664 11.5375 12.6497 11.4688 12.7188C11.4479 12.7188 11.4271 12.7188 11.4062 12.7188C11.4062 12.6979 11.4062 12.6771 11.4062 12.6562C11.4062 12.5312 11.4688 12.4688 11.5938 12.4688Z"
            fill="#C4C4C4" />
        <path fill-rule="evenodd" clip-rule="evenodd"
            d="M19.2812 12.5938C19.2812 12.5729 19.2812 12.5521 19.2812 12.5312C19.3438 12.5312 19.4062 12.5312 19.4688 12.5312C19.4688 15.0729 19.4688 17.6146 19.4688 20.1562C19.4479 20.2188 19.4062 20.2604 19.3438 20.2812C19.3645 17.7081 19.3437 15.1456 19.2812 12.5938Z"
            fill="#919191" />
        <path fill-rule="evenodd" clip-rule="evenodd"
            d="M19.2812 12.3435C19.4487 12.3451 19.532 12.4284 19.5312 12.5935C19.552 15.125 19.5312 17.6459 19.4688 20.156C19.4688 17.6144 19.4688 15.0727 19.4688 12.531C19.4062 12.531 19.3438 12.531 19.2812 12.531C16.7502 12.4686 14.2086 12.4478 11.6562 12.4685C14.1762 12.3439 16.7179 12.3022 19.2812 12.3435Z"
            fill="#BABABA" />
        <path fill-rule="evenodd" clip-rule="evenodd"
            d="M19.5312 12.5938C19.5521 12.5938 19.5729 12.5938 19.5938 12.5938C19.6042 15.1563 19.5938 17.7188 19.5625 20.2812C19.4957 20.4004 19.4019 20.4838 19.2812 20.5312C19.3271 20.4558 19.3479 20.3724 19.3438 20.2812C19.4062 20.2604 19.4479 20.2188 19.4688 20.1562C19.5312 17.6461 19.552 15.1252 19.5312 12.5938Z"
            fill="#E8E8E8" />
        <path fill-rule="evenodd" clip-rule="evenodd"
            d="M11.4062 12.7188C11.4271 12.7188 11.4479 12.7188 11.4688 12.7188C11.4688 12.7396 11.4688 12.7604 11.4688 12.7812C11.3021 12.9271 11.1354 13.0729 10.9688 13.2188C10.9688 13.1771 10.9688 13.1354 10.9688 13.0938C11.1146 12.9688 11.2604 12.8438 11.4062 12.7188Z"
            fill="#8E8E8E" />
        <path fill-rule="evenodd" clip-rule="evenodd"
            d="M11.4056 12.6566C11.4056 12.6774 11.4056 12.6983 11.4056 12.7191C11.2598 12.8441 11.114 12.9691 10.9681 13.0941C10.9588 13.0284 10.9692 12.9659 10.9994 12.9066C11.0931 12.8546 11.1661 12.7816 11.2181 12.6879C11.2774 12.6577 11.3399 12.6473 11.4056 12.6566Z"
            fill="#DDDDDD" />
        <path fill-rule="evenodd" clip-rule="evenodd"
            d="M11.4688 12.7812C11.4896 12.7812 11.5104 12.7812 11.5312 12.7812C11.3854 12.9479 11.2396 13.1146 11.0938 13.2812C10.9983 13.2767 10.9358 13.3184 10.9062 13.4062C10.8854 13.4062 10.8646 13.4062 10.8438 13.4062C10.8438 13.3854 10.8438 13.3646 10.8438 13.3438C10.8646 13.2812 10.9062 13.2396 10.9688 13.2188C11.1354 13.0729 11.3021 12.9271 11.4688 12.7812Z"
            fill="#494949" />
        <path fill-rule="evenodd" clip-rule="evenodd"
            d="M10.9688 13.0938C10.9688 13.1354 10.9688 13.1771 10.9688 13.2188C10.9062 13.2396 10.8646 13.2812 10.8438 13.3438C10.7188 13.3438 10.6562 13.4062 10.6562 13.5312C10.5586 13.5458 10.4753 13.5875 10.4062 13.6562C10.4062 13.5938 10.4062 13.5312 10.4062 13.4688C10.6032 13.3598 10.7907 13.2348 10.9688 13.0938Z"
            fill="#C5C5C5" />
        <path fill-rule="evenodd" clip-rule="evenodd"
            d="M11.0938 13.2816C11.0642 13.3695 11.0017 13.4112 10.9062 13.4066C10.9358 13.3187 10.9983 13.277 11.0938 13.2816Z"
            fill="#262626" />
        <path fill-rule="evenodd" clip-rule="evenodd"
            d="M10.8438 13.3438C10.8438 13.3646 10.8438 13.3854 10.8438 13.4062C10.7812 13.4479 10.7188 13.4896 10.6562 13.5312C10.6562 13.4062 10.7188 13.3438 10.8438 13.3438Z"
            fill="#868686" />
        <path fill-rule="evenodd" clip-rule="evenodd"
            d="M10.4055 13.6564C10.343 13.7606 10.2597 13.8439 10.1555 13.9064C10.1347 13.7189 10.218 13.6356 10.4055 13.6564Z"
            fill="#DADADA" />
        <path fill-rule="evenodd" clip-rule="evenodd"
            d="M10.6562 13.5312C10.5104 13.6979 10.3646 13.8646 10.2188 14.0312C10.1979 14.0312 10.1771 14.0312 10.1562 14.0312C10.1562 13.9896 10.1562 13.9479 10.1562 13.9062C10.2604 13.8438 10.3438 13.7604 10.4062 13.6562C10.4753 13.5875 10.5586 13.5458 10.6562 13.5312Z"
            fill="#8B8B8B" />
        <path fill-rule="evenodd" clip-rule="evenodd"
            d="M10.8438 13.4062C10.6607 13.6629 10.4628 13.9129 10.25 14.1562C10.2081 14.2032 10.156 14.2241 10.0938 14.2188C10.1354 14.1562 10.1771 14.0938 10.2188 14.0312C10.3646 13.8646 10.5104 13.6979 10.6562 13.5312C10.7188 13.4896 10.7812 13.4479 10.8438 13.4062Z"
            fill="#3C3C3C" />
        <path fill-rule="evenodd" clip-rule="evenodd"
            d="M10.1562 13.906C10.1562 13.9477 10.1562 13.9893 10.1562 14.031C10.0938 14.0518 10.0521 14.0935 10.0312 14.156C9.93362 14.1706 9.85031 14.2123 9.78125 14.281C9.841 14.155 9.92437 14.0405 10.0312 13.9373C10.0684 13.9083 10.1101 13.8978 10.1562 13.906Z"
            fill="#C6C6C6" />
        <path fill-rule="evenodd" clip-rule="evenodd"
            d="M10.1562 14.0312C10.1771 14.0312 10.1979 14.0312 10.2188 14.0312C10.1771 14.0938 10.1354 14.1562 10.0938 14.2188C10.0729 14.2188 10.0521 14.2188 10.0312 14.2188C10.0312 14.1979 10.0312 14.1771 10.0312 14.1562C10.0521 14.0938 10.0938 14.0521 10.1562 14.0312Z"
            fill="#666666" />
        <path fill-rule="evenodd" clip-rule="evenodd"
            d="M16.6562 14.0938C16.4204 14.0928 16.3579 14.1969 16.4688 14.4063C16.4402 14.4561 16.3985 14.4769 16.3438 14.4688C16.2757 14.375 16.1924 14.2917 16.0938 14.2188C16.0026 14.1386 15.9192 14.1386 15.8438 14.2188C15.7686 14.2753 15.6852 14.2753 15.5938 14.2188C15.5938 14.1979 15.5938 14.1771 15.5938 14.1563C15.5938 14.1354 15.5938 14.1146 15.5938 14.0938C15.9614 14.1206 16.3155 14.1206 16.6562 14.0938Z"
            fill="#131313" />
        <path fill-rule="evenodd" clip-rule="evenodd"
            d="M13.0938 14.1561C13.2538 14.0769 13.4205 14.0769 13.5938 14.1561C13.6168 14.3119 13.5752 14.3536 13.4688 14.2811C13.3553 14.2104 13.2303 14.1688 13.0938 14.1561Z"
            fill="#151515" />
        <path fill-rule="evenodd" clip-rule="evenodd"
            d="M17.2812 14.1558C17.3219 14.1927 17.3636 14.2343 17.4062 14.2808C17.4901 14.1867 17.5943 14.145 17.7188 14.1558C17.7061 14.2894 17.6436 14.3936 17.5312 14.4683C17.5539 14.511 17.5748 14.5527 17.5938 14.5933C17.497 14.5732 17.4553 14.5107 17.4688 14.4058C17.318 14.4218 17.2138 14.3593 17.1562 14.2183C17.0967 14.3148 17.0759 14.419 17.0938 14.5308C17.2722 14.5879 17.4285 14.6921 17.5625 14.8433C17.6367 14.7768 17.668 14.6935 17.6562 14.5933C17.7258 14.6837 17.7362 14.7878 17.6875 14.9058C17.6222 14.9603 17.5701 15.0228 17.5312 15.0933C17.4708 15.0117 17.3874 14.97 17.2812 14.9683C17.2145 14.756 17.0687 14.631 16.8438 14.5933C16.8438 14.5308 16.8438 14.4683 16.8438 14.4058C16.8844 14.4427 16.9261 14.4843 16.9688 14.5308C17.0467 14.4367 17.0467 14.3429 16.9688 14.2495C17.0566 14.1702 17.1607 14.139 17.2812 14.1558Z"
            fill="#303030" />
        <path fill-rule="evenodd" clip-rule="evenodd"
            d="M15.0312 14.1561C14.9107 14.1393 14.8066 14.1705 14.7188 14.2498C14.8148 14.3192 14.8564 14.413 14.8438 14.5311C14.7812 14.5311 14.7188 14.5311 14.6562 14.5311C14.6546 14.4249 14.6129 14.3415 14.5312 14.2811C14.6201 14.2655 14.6826 14.2134 14.7188 14.1248C14.8367 14.0761 14.9409 14.0865 15.0312 14.1561Z"
            fill="#242424" />
        <path fill-rule="evenodd" clip-rule="evenodd"
            d="M16.3438 14.4683C16.2215 14.3636 16.1382 14.3844 16.0938 14.5308C16.0373 14.4865 16.0164 14.424 16.0312 14.3433C15.9263 14.3567 15.8638 14.315 15.8438 14.2183C15.9192 14.1382 16.0026 14.1382 16.0938 14.2183C16.1924 14.2912 16.2757 14.3745 16.3438 14.4683Z"
            fill="#424242" />
        <path fill-rule="evenodd" clip-rule="evenodd"
            d="M9.78125 14.2812C9.73956 14.3646 9.67706 14.4271 9.59375 14.4688C9.59375 14.4062 9.59375 14.3438 9.59375 14.2812C9.65625 14.2812 9.71875 14.2812 9.78125 14.2812Z"
            fill="#D8D8D8" />
        <path fill-rule="evenodd" clip-rule="evenodd"
            d="M13.0938 14.1562C13.1354 14.2812 13.1771 14.4062 13.2188 14.5312C13.0582 14.5164 12.9541 14.4331 12.9062 14.2812C12.9861 14.2636 13.0486 14.2219 13.0938 14.1562Z"
            fill="#292929" />
        <path fill-rule="evenodd" clip-rule="evenodd"
            d="M15.5938 14.0938C15.5938 14.1146 15.5938 14.1354 15.5938 14.1562C15.4896 14.1562 15.3854 14.1562 15.2812 14.1562C15.3626 14.292 15.4251 14.4378 15.4688 14.5938C15.3854 14.5729 15.3021 14.5521 15.2188 14.5312C15.2042 14.4336 15.1625 14.3503 15.0938 14.2812C15.1905 14.2612 15.2322 14.1987 15.2188 14.0938C15.3438 14.0938 15.4688 14.0938 15.5938 14.0938Z"
            fill="#252525" />
        <path fill-rule="evenodd" clip-rule="evenodd"
            d="M17.2812 14.1561C17.1607 14.1393 17.0566 14.1705 16.9688 14.2498C17.0467 14.3432 17.0467 14.437 16.9688 14.5311C16.9261 14.4847 16.8844 14.443 16.8438 14.4061C16.8021 14.3644 16.7604 14.3228 16.7188 14.2811C16.8247 14.2695 16.9081 14.2174 16.9688 14.1248C17.0867 14.0761 17.1909 14.0865 17.2812 14.1561Z"
            fill="#232323" />
        <path fill-rule="evenodd" clip-rule="evenodd"
            d="M14.5312 14.2808C14.6129 14.3412 14.6546 14.4246 14.6562 14.5308C14.7188 14.5308 14.7812 14.5308 14.8438 14.5308C14.8564 14.4127 14.8148 14.3189 14.7188 14.2495C14.8066 14.1702 14.9107 14.139 15.0312 14.1558C15.0836 14.1772 15.1045 14.2188 15.0938 14.2808C15.1625 14.3498 15.2042 14.4332 15.2188 14.5308C15.1623 14.5751 15.1414 14.6376 15.1562 14.7183C15.0958 14.6367 15.0124 14.595 14.9062 14.5933C14.9062 14.6558 14.9062 14.7183 14.9062 14.7808C14.9688 14.7808 15.0312 14.7808 15.0938 14.7808C15.0801 14.8542 15.1009 14.9167 15.1562 14.9683C15.3721 15.1204 15.5491 15.3079 15.6875 15.5308C15.7507 15.5831 15.8236 15.6039 15.9062 15.5933C15.8926 15.6667 15.9134 15.7292 15.9688 15.7808C16.0434 15.8931 16.1476 15.9556 16.2812 15.9683C16.2812 16.0308 16.2812 16.0933 16.2812 16.1558C16.3438 16.1558 16.4062 16.1558 16.4688 16.1558C16.4688 16.2391 16.4688 16.3225 16.4688 16.4058C16.6771 16.5308 16.8854 16.6558 17.0938 16.7808C17.1751 16.9165 17.2376 17.0623 17.2812 17.2183C17.3874 17.22 17.4708 17.2617 17.5312 17.3433C17.682 17.3554 17.7445 17.4387 17.7188 17.5933C17.6611 17.6435 17.5986 17.6539 17.5312 17.6245C17.2945 17.3502 17.0445 17.0898 16.7812 16.8433C16.6912 16.7525 16.5871 16.69 16.4688 16.6558C16.3116 16.4284 16.1241 16.2201 15.9062 16.0308C15.7835 15.9291 15.7002 15.8041 15.6562 15.6558C15.5388 15.6727 15.4554 15.631 15.4062 15.5308C15.2296 15.2955 15.0212 15.0871 14.7812 14.9058C14.6979 14.7808 14.5938 14.6766 14.4688 14.5933C14.4079 14.4902 14.3454 14.386 14.2812 14.2808C14.3021 14.2391 14.3229 14.1975 14.3438 14.1558C14.4074 14.1991 14.4699 14.2407 14.5312 14.2808Z"
            fill="#4B4B4B" />
        <path fill-rule="evenodd" clip-rule="evenodd"
            d="M10.0312 14.1562C10.0312 14.1771 10.0312 14.1979 10.0312 14.2188C9.88544 14.3229 9.76044 14.4479 9.65625 14.5938C9.55862 14.6083 9.47531 14.65 9.40625 14.7188C9.42319 14.5981 9.48569 14.5148 9.59375 14.4688C9.67706 14.4271 9.73956 14.3646 9.78125 14.2812C9.85031 14.2125 9.93362 14.1708 10.0312 14.1562Z"
            fill="#979797" />
        <path fill-rule="evenodd" clip-rule="evenodd"
            d="M12.8438 14.2812C12.7458 14.2204 12.6416 14.21 12.5312 14.25C12.6317 14.3156 12.6733 14.4093 12.6562 14.5312C12.5318 14.542 12.4276 14.5003 12.3438 14.4062C12.2761 14.4603 12.2657 14.5228 12.3125 14.5938C12.5244 14.8784 12.7641 15.1284 13.0312 15.3438C13.1557 15.4661 13.2807 15.5911 13.4062 15.7188C13.4062 15.7396 13.4062 15.7604 13.4062 15.7812C13.3095 15.8013 13.2678 15.8638 13.2812 15.9688C13.1211 15.932 12.9753 15.8695 12.8438 15.7812C12.9271 15.7812 13.0104 15.7812 13.0938 15.7812C13.0938 15.7188 13.0938 15.6562 13.0938 15.5938C12.9062 15.6146 12.8229 15.5312 12.8438 15.3438C12.7703 15.3574 12.7078 15.3366 12.6562 15.2812C12.5233 15.0821 12.3566 14.9154 12.1562 14.7812C12.1354 14.8125 12.1146 14.8438 12.0938 14.875C12.1692 14.9562 12.2109 15.05 12.2188 15.1562C12.4412 15.274 12.6287 15.4407 12.7812 15.6562C12.7396 15.7604 12.6979 15.8646 12.6562 15.9688C12.6656 15.903 12.6552 15.8405 12.625 15.7812C12.475 15.6419 12.3396 15.4961 12.2188 15.3438C12.0698 15.2572 11.9656 15.1322 11.9062 14.9688C11.9755 14.8861 11.9755 14.7923 11.9062 14.6875C11.9271 14.6562 11.9479 14.625 11.9688 14.5938C12.0312 14.6354 12.0938 14.6771 12.1562 14.7188C12.18 14.6237 12.1904 14.5196 12.1875 14.4062C12.2497 14.3709 12.3018 14.3292 12.3438 14.2812C12.4393 14.2283 12.5435 14.1866 12.6562 14.1562C12.7519 14.165 12.8144 14.2067 12.8438 14.2812Z"
            fill="#2B2B2B" />
        <path fill-rule="evenodd" clip-rule="evenodd"
            d="M13.8435 14.1562C13.8852 14.1562 13.906 14.1771 13.906 14.2188C14.029 14.4042 14.1748 14.5709 14.3435 14.7188C14.3643 14.7188 14.3852 14.7188 14.406 14.7188C14.4519 14.7942 14.4727 14.8776 14.4685 14.9688C14.3126 14.9251 14.1668 14.8626 14.031 14.7812C14.031 14.7188 14.031 14.6562 14.031 14.5938C13.9685 14.5938 13.906 14.5938 13.8435 14.5938C13.8435 14.5312 13.8435 14.4688 13.8435 14.4062C13.781 14.4062 13.7185 14.4062 13.656 14.4062C13.6303 14.2517 13.6928 14.1684 13.8435 14.1562Z"
            fill="#505050" />
        <path fill-rule="evenodd" clip-rule="evenodd"
            d="M14.5312 14.2812C14.4699 14.2412 14.4074 14.1996 14.3438 14.1562C14.3229 14.1979 14.3021 14.2396 14.2812 14.2812C14.3454 14.3865 14.4079 14.4907 14.4688 14.5938C14.3854 14.5938 14.3438 14.6354 14.3438 14.7188C14.175 14.5709 14.0292 14.4042 13.9062 14.2188C14.0681 14.2253 14.2139 14.1836 14.3438 14.0938C14.4698 14.0948 14.5323 14.1573 14.5312 14.2812Z"
            fill="#2A2A2A" />
        <path fill-rule="evenodd" clip-rule="evenodd"
            d="M17.5941 14.5938C17.6149 14.5938 17.6357 14.5938 17.6566 14.5938C17.6683 14.6939 17.6371 14.7773 17.5628 14.8438C17.4288 14.6926 17.2726 14.5884 17.0941 14.5312C17.0762 14.4195 17.0971 14.3153 17.1566 14.2188C17.2141 14.3598 17.3183 14.4223 17.4691 14.4062C17.4556 14.5112 17.4973 14.5737 17.5941 14.5938Z"
            fill="#4E4E4E" />
        <path fill-rule="evenodd" clip-rule="evenodd"
            d="M10.0312 14.2188C9.95288 14.3808 9.84875 14.5267 9.71875 14.6562C9.69794 14.6562 9.67706 14.6562 9.65625 14.6562C9.65625 14.6354 9.65625 14.6146 9.65625 14.5938C9.76044 14.4479 9.88544 14.3229 10.0312 14.2188Z"
            fill="#464646" />
        <path fill-rule="evenodd" clip-rule="evenodd"
            d="M12.6562 14.5316C12.722 14.5223 12.7845 14.5327 12.8438 14.5629C12.9792 14.6983 13.1146 14.8337 13.25 14.9691C13.2802 15.0284 13.2906 15.0909 13.2812 15.1566C13.2604 15.1566 13.2396 15.1566 13.2188 15.1566C13.0407 15.0156 12.8532 14.8906 12.6562 14.7816C12.6562 14.6983 12.6562 14.6149 12.6562 14.5316Z"
            fill="#2B2B2B" />
        <path fill-rule="evenodd" clip-rule="evenodd"
            d="M9.65625 14.5938C9.65625 14.6146 9.65625 14.6354 9.65625 14.6562C9.57294 14.6979 9.51044 14.7604 9.46875 14.8438C9.44794 14.8438 9.42706 14.8438 9.40625 14.8438C9.40625 14.8021 9.40625 14.7604 9.40625 14.7188C9.47531 14.65 9.55862 14.6083 9.65625 14.5938Z"
            fill="#676767" />
        <path fill-rule="evenodd" clip-rule="evenodd"
            d="M14.4062 14.7188C14.503 14.7388 14.5447 14.8013 14.5312 14.9062C14.6362 14.8928 14.6987 14.9345 14.7188 15.0312C14.6433 14.9854 14.5599 14.9646 14.4688 14.9688C14.4729 14.8776 14.4521 14.7942 14.4062 14.7188Z"
            fill="#303030" />
        <path fill-rule="evenodd" clip-rule="evenodd"
            d="M9.28125 14.7188C9.32294 14.7188 9.36456 14.7188 9.40625 14.7188C9.40625 14.7604 9.40625 14.8021 9.40625 14.8438C9.32294 14.8438 9.28125 14.8021 9.28125 14.7188Z"
            fill="#9C9C9C" />
        <path fill-rule="evenodd" clip-rule="evenodd"
            d="M12.3438 14.2809C12.3018 14.3288 12.2497 14.3705 12.1875 14.4059C12.1904 14.5192 12.18 14.6233 12.1562 14.7184C12.0938 14.6767 12.0312 14.6351 11.9688 14.5934C11.9479 14.6247 11.9271 14.6559 11.9062 14.6872C11.9755 14.792 11.9755 14.8857 11.9062 14.9684C11.8854 14.9684 11.8646 14.9684 11.8438 14.9684C11.7684 14.8943 11.6851 14.8943 11.5938 14.9684C11.6846 14.823 11.7679 14.6668 11.8438 14.4997C11.9557 14.4737 12.039 14.4112 12.0938 14.3122C12.1746 14.2815 12.2579 14.2711 12.3438 14.2809Z"
            fill="#151515" />
        <path fill-rule="evenodd" clip-rule="evenodd"
            d="M12.6557 14.5312C12.6557 14.6146 12.6557 14.6979 12.6557 14.7812C12.8526 14.8902 13.0401 15.0152 13.2182 15.1562C13.2182 15.2188 13.2182 15.2812 13.2182 15.3438C13.1557 15.3438 13.0932 15.3438 13.0307 15.3438C12.7635 15.1284 12.5239 14.8784 12.3119 14.5938C12.2651 14.5228 12.2755 14.4603 12.3432 14.4062C12.4271 14.5003 12.5312 14.542 12.6557 14.5312Z"
            fill="#525252" />
        <path fill-rule="evenodd" clip-rule="evenodd"
            d="M14.4688 15.7188C14.4281 15.6998 14.3864 15.6789 14.3438 15.6562C14.3065 15.7322 14.2961 15.8156 14.3125 15.9062C14.2317 15.9869 14.1589 15.9869 14.0938 15.9062C14.209 15.8623 14.2402 15.7789 14.1875 15.6562C13.9579 15.4058 13.7079 15.1766 13.4375 14.9688C13.3401 14.8614 13.288 14.7364 13.2812 14.5938C13.5336 14.7101 13.742 14.8871 13.9062 15.125C13.9655 15.1552 14.028 15.1656 14.0938 15.1562C14.1751 15.292 14.2376 15.4378 14.2812 15.5938C14.3862 15.5803 14.4487 15.622 14.4688 15.7188Z"
            fill="#2E2E2E" />
        <path fill-rule="evenodd" clip-rule="evenodd"
            d="M13.8438 14.1562C13.693 14.1683 13.6305 14.2516 13.6562 14.4062C13.7188 14.4062 13.7812 14.4062 13.8438 14.4062C13.8438 14.4687 13.8438 14.5312 13.8438 14.5937C13.9062 14.5937 13.9688 14.5937 14.0312 14.5937C14.0312 14.6562 14.0312 14.7187 14.0312 14.7812C14.167 14.8625 14.3128 14.925 14.4688 14.9687C14.5124 15.1246 14.5749 15.2704 14.6562 15.4062C14.7624 15.4079 14.8458 15.4496 14.9062 15.5312C14.9479 15.5729 14.9896 15.6145 15.0312 15.6562C14.9358 15.7376 14.8733 15.8417 14.8438 15.9687C14.8536 15.8829 14.8431 15.7995 14.8125 15.7187C14.4114 15.3491 14.0468 14.9533 13.7188 14.5312C13.5536 14.5319 13.4703 14.4486 13.4688 14.2812C13.5752 14.3537 13.6168 14.312 13.5938 14.1562C13.6851 14.0821 13.7684 14.0821 13.8438 14.1562Z"
            fill="#2C2C2C" />
        <path fill-rule="evenodd" clip-rule="evenodd"
            d="M9.65642 14.6562C9.67723 14.6562 9.6981 14.6562 9.71892 14.6562C9.71892 14.7188 9.71892 14.7812 9.71892 14.8438C9.65642 14.8438 9.59392 14.8438 9.53142 14.8438C9.53142 14.9062 9.53142 14.9688 9.53142 15.0312C9.38017 15.0182 9.23435 15.0391 9.09392 15.0938C9.03854 15.0422 9.01773 14.9797 9.03142 14.9062C9.20704 15.0111 9.35285 14.9903 9.46892 14.8438C9.5106 14.7604 9.5731 14.6979 9.65642 14.6562Z"
            fill="#171717" />
        <path fill-rule="evenodd" clip-rule="evenodd"
            d="M14.4688 14.5938C14.5938 14.6771 14.6979 14.7812 14.7812 14.9062C14.7759 14.9685 14.7968 15.0206 14.8438 15.0625C14.8066 15.0915 14.7649 15.1019 14.7188 15.0938C14.7188 15.0729 14.7188 15.0521 14.7188 15.0312C14.6987 14.9345 14.6362 14.8928 14.5312 14.9062C14.5447 14.8013 14.503 14.7388 14.4062 14.7188C14.3854 14.7188 14.3646 14.7188 14.3438 14.7188C14.3438 14.6354 14.3854 14.5938 14.4688 14.5938Z"
            fill="#1B1B1B" />
        <path fill-rule="evenodd" clip-rule="evenodd"
            d="M14.7812 14.9062C15.0212 15.0876 15.2296 15.2959 15.4062 15.5312C15.3689 15.5459 15.3481 15.5772 15.3438 15.625C15.4018 15.6923 15.4435 15.7652 15.4688 15.8438C15.3333 15.6891 15.1875 15.5432 15.0312 15.4062C14.9408 15.2873 14.8366 15.1831 14.7188 15.0938C14.7649 15.1019 14.8066 15.0915 14.8438 15.0625C14.7968 15.0206 14.7759 14.9685 14.7812 14.9062Z"
            fill="#2C2C2C" />
        <path fill-rule="evenodd" clip-rule="evenodd"
            d="M15.5938 14.1562C15.5938 14.1771 15.5938 14.1979 15.5938 14.2188C16.2358 14.9651 16.9233 15.6734 17.6562 16.3438C17.6562 16.4062 17.6562 16.4688 17.6562 16.5312C17.5828 16.5449 17.5203 16.5241 17.4688 16.4688C17.1793 16.1174 16.846 15.8257 16.4688 15.5938C16.4781 15.528 16.4677 15.4655 16.4375 15.4062C16.2188 15.2292 16.0208 15.0312 15.8438 14.8125C15.735 14.7066 15.61 14.6337 15.4688 14.5938C15.4251 14.4378 15.3626 14.292 15.2812 14.1562C15.3854 14.1562 15.4896 14.1562 15.5938 14.1562Z"
            fill="#4D4D4D" />
        <path fill-rule="evenodd" clip-rule="evenodd"
            d="M11.8438 14.9692C11.8646 14.9692 11.8854 14.9692 11.9062 14.9692C11.9656 15.1326 12.0698 15.2576 12.2188 15.3442C12.2188 15.4067 12.2188 15.4692 12.2188 15.5317C12.1562 15.5317 12.0938 15.5317 12.0312 15.5317C11.9325 15.37 11.8075 15.2241 11.6562 15.0942C11.6878 15.0055 11.7503 14.9639 11.8438 14.9692Z"
            fill="#525252" />
        <path fill-rule="evenodd" clip-rule="evenodd"
            d="M13.2812 15.1562C13.4062 15.1562 13.4688 15.2188 13.4688 15.3438C13.4062 15.3438 13.3438 15.3438 13.2812 15.3438C13.2812 15.2812 13.2812 15.2188 13.2812 15.1562Z"
            fill="#282828" />
        <path fill-rule="evenodd" clip-rule="evenodd"
            d="M14.4688 14.9683C14.5599 14.9641 14.6433 14.9849 14.7188 15.0308C14.7188 15.0516 14.7188 15.0725 14.7188 15.0933C14.8366 15.1827 14.9408 15.2869 15.0312 15.4058C14.9479 15.4058 14.9062 15.4475 14.9062 15.5308C14.8458 15.4492 14.7624 15.4075 14.6562 15.4058C14.5749 15.27 14.5124 15.1242 14.4688 14.9683Z"
            fill="#525252" />
        <path fill-rule="evenodd" clip-rule="evenodd"
            d="M15.4688 14.5938C15.61 14.6337 15.735 14.7066 15.8438 14.8125C16.0208 15.0312 16.2188 15.2292 16.4375 15.4062C16.4677 15.4655 16.4781 15.528 16.4688 15.5938C16.403 15.6031 16.3405 15.5927 16.2812 15.5625C16.0171 15.3393 15.8088 15.0789 15.6562 14.7812C15.5938 14.7812 15.5312 14.7812 15.4688 14.7812C15.4688 14.7188 15.4688 14.6562 15.4688 14.5938Z"
            fill="#2D2D2D" />
        <path fill-rule="evenodd" clip-rule="evenodd"
            d="M16.6555 14.1562C16.7079 14.1776 16.7288 14.2193 16.718 14.2812C16.7597 14.3229 16.8014 14.3646 16.843 14.4062C16.843 14.4688 16.843 14.5312 16.843 14.5938C17.068 14.6314 17.2138 14.7564 17.2805 14.9688C17.3867 14.9704 17.4701 15.0121 17.5305 15.0938C17.5519 15.1461 17.5935 15.167 17.6555 15.1562C17.6555 15.2396 17.6555 15.3229 17.6555 15.4062C17.5821 15.4199 17.5196 15.3991 17.468 15.3438C17.1963 15.0616 16.915 14.7907 16.6243 14.5312C16.4984 14.3769 16.5089 14.2519 16.6555 14.1562Z"
            fill="#4B4B4B" />
        <path fill-rule="evenodd" clip-rule="evenodd"
            d="M13.2188 15.1562C13.2396 15.1562 13.2604 15.1562 13.2812 15.1562C13.2812 15.2188 13.2812 15.2812 13.2812 15.3438C13.3438 15.3438 13.4062 15.3438 13.4688 15.3438C13.4688 15.4062 13.4688 15.4688 13.4688 15.5312C13.4281 15.4943 13.3864 15.4527 13.3438 15.4062C13.3229 15.4271 13.3021 15.4479 13.2812 15.4688C13.3519 15.5389 13.3936 15.6222 13.4062 15.7188C13.2807 15.5911 13.1557 15.4661 13.0312 15.3438C13.0938 15.3438 13.1562 15.3438 13.2188 15.3438C13.2188 15.2812 13.2188 15.2188 13.2188 15.1562Z"
            fill="#424242" />
        <path fill-rule="evenodd" clip-rule="evenodd"
            d="M17.6563 15.7188C17.7396 15.8021 17.7396 15.8854 17.6563 15.9688C17.4356 15.8627 17.2378 15.7168 17.0625 15.5312C16.9582 15.4269 16.9061 15.3019 16.9063 15.1562C17.1923 15.2965 17.4423 15.484 17.6563 15.7188Z"
            fill="#525252" />
        <path fill-rule="evenodd" clip-rule="evenodd"
            d="M11.5931 15.0938C11.5044 15.1532 11.4003 15.174 11.2806 15.1562C11.3223 15.2812 11.3639 15.4062 11.4056 15.5312C11.3029 15.5325 11.2196 15.4908 11.1556 15.4062C11.0483 15.4792 11.0066 15.5834 11.0306 15.7188C10.7582 15.7409 10.7269 15.8242 10.9368 15.9688C10.9932 15.9536 11.0453 15.9327 11.0931 15.9062C11.0637 15.9808 11.0012 16.0225 10.9056 16.0312C10.594 16.0021 10.5315 15.8667 10.7181 15.625C10.7989 15.5944 10.8823 15.5839 10.9681 15.5938C11.0485 15.263 11.2569 15.0963 11.5931 15.0938Z"
            fill="#121212" />
        <path fill-rule="evenodd" clip-rule="evenodd"
            d="M12.8438 15.7812C12.8545 15.7193 12.8336 15.6776 12.7812 15.6562C12.6287 15.4407 12.4412 15.274 12.2188 15.1562C12.2109 15.05 12.1692 14.9562 12.0938 14.875C12.1146 14.8438 12.1354 14.8125 12.1562 14.7812C12.3566 14.9154 12.5233 15.0821 12.6562 15.2812C12.7078 15.3366 12.7703 15.3574 12.8438 15.3438C12.8229 15.5312 12.9062 15.6146 13.0938 15.5938C13.0938 15.6562 13.0938 15.7188 13.0938 15.7812C13.0104 15.7812 12.9271 15.7812 12.8438 15.7812Z"
            fill="#494949" />
        <path fill-rule="evenodd" clip-rule="evenodd"
            d="M13.0938 14.1562C13.2303 14.169 13.3553 14.2106 13.4688 14.2812C13.4703 14.4487 13.5536 14.532 13.7188 14.5312C14.0468 14.9534 14.4114 15.3492 14.8125 15.7188C14.8431 15.7996 14.8536 15.8829 14.8438 15.9688C14.7014 15.9094 14.5764 15.8261 14.4688 15.7188C14.4487 15.622 14.3862 15.5803 14.2812 15.5938C14.2376 15.4378 14.1751 15.292 14.0938 15.1562C14.028 15.1656 13.9655 15.1552 13.9062 15.125C13.742 14.8871 13.5336 14.7101 13.2812 14.5938C13.288 14.7364 13.3401 14.8614 13.4375 14.9688C13.7079 15.1766 13.9579 15.4058 14.1875 15.6562C14.2402 15.7789 14.209 15.8623 14.0938 15.9062C14.0938 15.8646 14.0729 15.8438 14.0312 15.8438C13.968 15.758 13.9055 15.6747 13.8438 15.5938C13.7666 15.4402 13.6416 15.3569 13.4688 15.3438C13.4688 15.2188 13.4062 15.1562 13.2812 15.1562C13.2906 15.0905 13.2802 15.028 13.25 14.9688C13.1146 14.8333 12.9792 14.6979 12.8438 14.5625C12.7845 14.5323 12.722 14.5219 12.6562 14.5312C12.6733 14.4093 12.6317 14.3156 12.5312 14.25C12.6416 14.21 12.7458 14.2204 12.8438 14.2812C12.8646 14.2812 12.8854 14.2812 12.9062 14.2812C12.9541 14.4331 13.0582 14.5164 13.2188 14.5312C13.1771 14.4062 13.1354 14.2812 13.0938 14.1562Z"
            fill="#4A4A4A" />
        <path fill-rule="evenodd" clip-rule="evenodd"
            d="M15.0312 15.4062C15.0312 15.4896 14.9896 15.5312 14.9062 15.5312C14.9062 15.4479 14.9479 15.4062 15.0312 15.4062Z"
            fill="#6B6B6B" />
        <path fill-rule="evenodd" clip-rule="evenodd"
            d="M11.8433 15.5938C12.0009 15.7701 11.9592 15.8118 11.7183 15.7188C11.6618 15.6744 11.641 15.6119 11.6558 15.5312C11.5933 15.5312 11.5308 15.5312 11.4683 15.5312C11.4519 15.4389 11.4727 15.3556 11.5308 15.2812C11.6571 15.3659 11.7613 15.4701 11.8433 15.5938Z"
            fill="#4C4C4C" />
        <path fill-rule="evenodd" clip-rule="evenodd"
            d="M13.4688 15.3438C13.6416 15.3569 13.7666 15.4402 13.8438 15.5938C13.7056 15.6534 13.6848 15.7472 13.7812 15.875C13.6834 15.9228 13.6001 15.9124 13.5312 15.8438C13.636 15.8011 13.6777 15.7177 13.6562 15.5938C13.5756 15.6086 13.5131 15.5877 13.4688 15.5312C13.4688 15.4688 13.4688 15.4062 13.4688 15.3438Z"
            fill="#323232" />
        <path fill-rule="evenodd" clip-rule="evenodd"
            d="M11.8441 14.9687C11.7506 14.9634 11.6881 15.005 11.6566 15.0937C11.8078 15.2236 11.9328 15.3694 12.0316 15.5312C11.9873 15.5877 11.9248 15.6085 11.8441 15.5937C11.7621 15.47 11.6579 15.3659 11.5316 15.2812C11.4735 15.3555 11.4527 15.4388 11.4691 15.5312C11.5316 15.5312 11.5941 15.5312 11.6566 15.5312C11.6418 15.6119 11.6626 15.6744 11.7191 15.7187C11.7399 15.7604 11.7608 15.802 11.7816 15.8437C11.6736 15.8986 11.559 15.9403 11.4378 15.9687C11.3518 15.9572 11.2998 15.9155 11.2816 15.8437C11.3441 15.8437 11.4066 15.8437 11.4691 15.8437C11.4691 15.7604 11.4691 15.677 11.4691 15.5937C11.2196 15.5544 11.1363 15.6377 11.2191 15.8437C11.1571 15.8329 11.1155 15.8538 11.0941 15.9062C11.0463 15.9326 10.9942 15.9535 10.9378 15.9687C10.7279 15.8242 10.7591 15.7408 11.0316 15.7187C11.0076 15.5834 11.0493 15.4792 11.1566 15.4062C11.2206 15.4907 11.3039 15.5324 11.4066 15.5312C11.3649 15.4062 11.3233 15.2812 11.2816 15.1562C11.4013 15.1739 11.5054 15.1531 11.5941 15.0937C11.5941 15.052 11.5941 15.0104 11.5941 14.9687C11.6854 14.8946 11.7688 14.8946 11.8441 14.9687Z"
            fill="#2A2A2A" />
        <path fill-rule="evenodd" clip-rule="evenodd"
            d="M13.4688 15.5312C13.5131 15.5877 13.5756 15.6086 13.6562 15.5938C13.6777 15.7177 13.636 15.8011 13.5312 15.8438C13.5104 15.8438 13.4896 15.8438 13.4688 15.8438C13.4688 15.8021 13.4479 15.7812 13.4062 15.7812C13.4062 15.7604 13.4062 15.7396 13.4062 15.7188C13.3936 15.6222 13.3519 15.5389 13.2812 15.4688C13.3021 15.4479 13.3229 15.4271 13.3438 15.4062C13.3864 15.4527 13.4281 15.4943 13.4688 15.5312Z"
            fill="#515151" />
        <path fill-rule="evenodd" clip-rule="evenodd"
            d="M16.6562 14.0938C16.6562 14.1146 16.6562 14.1354 16.6562 14.1563C16.5096 14.2519 16.4991 14.3769 16.625 14.5313C16.9157 14.7907 17.197 15.0616 17.4688 15.3438C17.5203 15.3991 17.5828 15.4199 17.6562 15.4063C17.6562 15.3229 17.6562 15.2396 17.6562 15.1563C17.7105 15.3329 17.7105 15.5204 17.6562 15.7188C17.4422 15.484 17.1923 15.2965 16.9062 15.1563C16.9061 15.3019 16.9582 15.4269 17.0625 15.5313C17.2377 15.7168 17.4356 15.8627 17.6562 15.9688C17.6086 16.0168 17.5461 16.048 17.4688 16.0625C17.5713 16.1331 17.6338 16.2268 17.6562 16.3438C16.9233 15.6734 16.2358 14.9651 15.5938 14.2188C15.6852 14.2753 15.7686 14.2753 15.8438 14.2188C15.8638 14.3155 15.9263 14.3572 16.0312 14.3438C16.0164 14.4244 16.0373 14.4869 16.0938 14.5313C16.3003 14.6912 16.4878 14.8787 16.6562 15.0938C16.7078 15.1491 16.7703 15.1699 16.8438 15.1563C16.7718 14.8556 16.6051 14.6264 16.3438 14.4688C16.3985 14.4769 16.4402 14.4561 16.4688 14.4063C16.3579 14.1969 16.4204 14.0928 16.6562 14.0938Z"
            fill="#2C2C2C" />
        <path fill-rule="evenodd" clip-rule="evenodd"
            d="M16.3438 14.4688C16.6051 14.6264 16.7718 14.8556 16.8438 15.1563C16.7703 15.17 16.7078 15.1492 16.6562 15.0938C16.4878 14.8787 16.3003 14.6912 16.0938 14.5313C16.1382 14.3849 16.2215 14.3641 16.3438 14.4688Z"
            fill="#555555" />
        <path fill-rule="evenodd" clip-rule="evenodd"
            d="M12.2188 15.3438C12.3396 15.4961 12.475 15.6419 12.625 15.7812C12.6552 15.8405 12.6656 15.903 12.6562 15.9688C12.5905 15.9781 12.528 15.9677 12.4688 15.9375C12.3739 15.8322 12.2697 15.7384 12.1562 15.6562C12.1266 15.9609 12.0016 16.0234 11.7812 15.8438C11.7604 15.8021 11.7396 15.7604 11.7188 15.7188C11.9596 15.8118 12.0013 15.7701 11.8438 15.5938C11.9244 15.6086 11.9869 15.5877 12.0312 15.5312C12.0938 15.5312 12.1562 15.5312 12.2188 15.5312C12.2188 15.4688 12.2188 15.4062 12.2188 15.3438Z"
            fill="#3F3F3F" />
        <path fill-rule="evenodd" clip-rule="evenodd"
            d="M15.4062 15.5312C15.4554 15.6315 15.5388 15.6732 15.6562 15.6562C15.7002 15.8046 15.7835 15.9296 15.9062 16.0312C15.72 16.0474 15.6054 15.9641 15.5625 15.7812C15.548 15.8586 15.5168 15.9211 15.4688 15.9688C15.4688 15.9271 15.4688 15.8854 15.4688 15.8438C15.4435 15.7652 15.4018 15.6923 15.3438 15.625C15.3481 15.5772 15.3689 15.5459 15.4062 15.5312Z"
            fill="#1C1C1C" />
        <path fill-rule="evenodd" clip-rule="evenodd"
            d="M15.0312 15.4062C15.1875 15.5432 15.3333 15.6891 15.4688 15.8438C15.4688 15.8854 15.4688 15.9271 15.4688 15.9688C15.2723 15.9394 15.1264 15.8353 15.0312 15.6562C14.9896 15.6146 14.9479 15.5729 14.9062 15.5312C14.9896 15.5312 15.0312 15.4896 15.0312 15.4062Z"
            fill="#4C4C4C" />
        <path fill-rule="evenodd" clip-rule="evenodd"
            d="M11.2809 15.8434C11.2601 15.8434 11.2392 15.8434 11.2184 15.8434C11.1357 15.6375 11.219 15.5542 11.4684 15.5934C11.4684 15.6767 11.4684 15.7601 11.4684 15.8434C11.4059 15.8434 11.3434 15.8434 11.2809 15.8434Z"
            fill="#414141" />
        <path fill-rule="evenodd" clip-rule="evenodd"
            d="M12.6562 15.9688C12.4574 15.9699 12.2491 15.9907 12.0312 16.0312C11.8761 16.0556 11.7928 15.9931 11.7812 15.8438C12.0016 16.0234 12.1266 15.9609 12.1562 15.6562C12.2697 15.7384 12.3739 15.8322 12.4688 15.9375C12.528 15.9677 12.5905 15.9781 12.6562 15.9688Z"
            fill="#141414" />
        <path fill-rule="evenodd" clip-rule="evenodd"
            d="M15.2195 14.5312C15.3028 14.5521 15.3861 14.5729 15.4695 14.5938C15.4695 14.6562 15.4695 14.7188 15.4695 14.7812C15.532 14.7812 15.5945 14.7812 15.657 14.7812C15.8095 15.0789 16.0178 15.3393 16.282 15.5625C16.3412 15.5927 16.4037 15.6031 16.4695 15.5938C16.5131 15.7497 16.5756 15.8955 16.657 16.0312C16.7195 16.0312 16.782 16.0312 16.8445 16.0312C16.8445 16.0938 16.8445 16.1562 16.8445 16.2188C16.907 16.2188 16.9695 16.2188 17.032 16.2188C17.032 16.2812 17.032 16.3438 17.032 16.4062C17.1153 16.4062 17.1986 16.4062 17.282 16.4062C17.3256 16.5622 17.3881 16.708 17.4695 16.8438C17.532 16.8438 17.5945 16.8438 17.657 16.8438C17.657 16.9479 17.657 17.0521 17.657 17.1562C16.8266 16.3468 15.9933 15.5343 15.157 14.7188C15.1421 14.6381 15.163 14.5756 15.2195 14.5312Z"
            fill="#515151" />
        <path fill-rule="evenodd" clip-rule="evenodd"
            d="M13.8438 15.5938C13.9055 15.6747 13.968 15.758 14.0312 15.8438C13.9693 15.833 13.9276 15.8539 13.9062 15.9062C13.7306 16.0111 13.5848 15.9903 13.4688 15.8438C13.4896 15.8438 13.5104 15.8438 13.5312 15.8438C13.6001 15.9124 13.6834 15.9228 13.7812 15.875C13.6848 15.7472 13.7056 15.6534 13.8438 15.5938Z"
            fill="#242424" />
        <path fill-rule="evenodd" clip-rule="evenodd"
            d="M14.4688 15.7188C14.5764 15.8261 14.7014 15.9094 14.8438 15.9688C14.8733 15.8418 14.9358 15.7376 15.0312 15.6562C15.1264 15.8353 15.2723 15.9394 15.4688 15.9688C15.2525 16.0109 15.0337 16.0317 14.8125 16.0312C14.7056 16.0351 14.6222 15.9934 14.5625 15.9062C14.409 16.0201 14.2319 16.0618 14.0312 16.0312C14.0312 15.9688 14.0312 15.9062 14.0312 15.8438C14.0729 15.8438 14.0938 15.8646 14.0938 15.9062C14.1589 15.9869 14.2317 15.9869 14.3125 15.9062C14.2961 15.8156 14.3065 15.7322 14.3438 15.6562C14.3864 15.6789 14.4281 15.6998 14.4688 15.7188Z"
            fill="#151515" />
        <path fill-rule="evenodd" clip-rule="evenodd"
            d="M12.7803 15.6562C12.8327 15.6776 12.8536 15.7193 12.8428 15.7812C12.9743 15.8695 13.1201 15.932 13.2803 15.9688C13.2669 15.8638 13.3086 15.8013 13.4053 15.7812C13.447 15.7812 13.4678 15.8021 13.4678 15.8438C13.5839 15.9903 13.7297 16.0111 13.9053 15.9062C13.7719 16.0231 13.6052 16.0648 13.4053 16.0312C13.3845 15.7812 13.3636 15.7812 13.3428 16.0312C13.1955 16.0414 13.0497 16.0311 12.9053 16C12.8019 15.9097 12.7602 15.7951 12.7803 15.6562Z"
            fill="#131313" />
        <path fill-rule="evenodd" clip-rule="evenodd"
            d="M15.9062 16.0312C16.1241 16.2206 16.3116 16.4289 16.4688 16.6562C16.4474 16.7086 16.4057 16.7295 16.3438 16.7188C16.3095 16.5572 16.2053 16.4948 16.0312 16.5312C16.0312 16.5938 16.0312 16.6562 16.0312 16.7188C16.0104 16.7188 15.9896 16.7188 15.9688 16.7188C15.8698 16.554 15.8906 16.4081 16.0312 16.2812C15.9606 16.2111 15.9189 16.1278 15.9062 16.0312Z"
            fill="#202020" />
        <path fill-rule="evenodd" clip-rule="evenodd"
            d="M15.1562 14.7188C15.9926 15.5343 16.8259 16.3468 17.6562 17.1562C17.5906 17.2014 17.5489 17.2639 17.5312 17.3438C17.4708 17.2621 17.3874 17.2204 17.2812 17.2188C17.2376 17.0628 17.1751 16.917 17.0938 16.7812C16.8854 16.6562 16.6771 16.5312 16.4688 16.4062C16.4688 16.3229 16.4688 16.2396 16.4688 16.1562C16.4062 16.1562 16.3438 16.1562 16.2812 16.1562C16.2812 16.0938 16.2812 16.0312 16.2812 15.9688C16.1476 15.9561 16.0434 15.8936 15.9688 15.7812C15.9134 15.7297 15.8926 15.6672 15.9062 15.5938C15.8236 15.6044 15.7507 15.5836 15.6875 15.5312C15.5491 15.3084 15.3721 15.1209 15.1562 14.9688C15.1009 14.9172 15.0801 14.8547 15.0938 14.7812C15.0312 14.7812 14.9688 14.7812 14.9062 14.7812C14.9062 14.7188 14.9062 14.6562 14.9062 14.5938C15.0124 14.5954 15.0958 14.6371 15.1562 14.7188Z"
            fill="#323232" />
        <path fill-rule="evenodd" clip-rule="evenodd"
            d="M16.3438 16.7191C16.2824 16.679 16.2199 16.6374 16.1562 16.5941C16.1009 16.6456 16.0801 16.7081 16.0938 16.7816C16.0521 16.7816 16.0312 16.7608 16.0312 16.7191C16.0312 16.6566 16.0312 16.5941 16.0312 16.5316C16.2053 16.4951 16.3095 16.5576 16.3438 16.7191Z"
            fill="#363636" />
        <path fill-rule="evenodd" clip-rule="evenodd"
            d="M16.4688 15.5938C16.846 15.8257 17.1793 16.1174 17.4688 16.4688C17.5203 16.5241 17.5828 16.5449 17.6562 16.5312C17.6562 16.4688 17.6562 16.4062 17.6562 16.3438C17.737 16.4872 17.6954 16.6018 17.5312 16.6875C17.7097 16.8155 17.7514 16.9718 17.6562 17.1562C17.6562 17.0521 17.6562 16.9479 17.6562 16.8438C17.5938 16.8438 17.5312 16.8438 17.4688 16.8438C17.3874 16.708 17.3249 16.5622 17.2812 16.4062C17.1979 16.4062 17.1146 16.4062 17.0312 16.4062C17.0312 16.3438 17.0312 16.2812 17.0312 16.2188C16.9688 16.2188 16.9062 16.2188 16.8438 16.2188C16.8438 16.1562 16.8438 16.0938 16.8438 16.0312C16.7812 16.0312 16.7188 16.0312 16.6562 16.0312C16.5749 15.8955 16.5124 15.7497 16.4688 15.5938Z"
            fill="#2F2F2F" />
        <path fill-rule="evenodd" clip-rule="evenodd"
            d="M16.4688 16.6562C16.5871 16.6905 16.6912 16.753 16.7812 16.8438C17.0445 17.0903 17.2945 17.3507 17.5312 17.625C17.5986 17.6544 17.6611 17.6439 17.7188 17.5938C17.6935 17.6723 17.6518 17.7452 17.5938 17.8125C17.6089 17.8689 17.6298 17.9209 17.6562 17.9688C17.5943 17.9795 17.5526 17.9586 17.5312 17.9062C17.4667 17.8072 17.3834 17.7238 17.2812 17.6562C17.2369 17.5998 17.1744 17.5789 17.0938 17.5938C17.1031 17.528 17.0927 17.4655 17.0625 17.4062C16.908 17.284 16.7934 17.1382 16.7188 16.9688C16.57 16.9217 16.445 16.8383 16.3438 16.7188C16.4057 16.7295 16.4474 16.7086 16.4688 16.6562Z"
            fill="#2A2A2A" />
        <path fill-rule="evenodd" clip-rule="evenodd"
            d="M15.9692 16.7188C15.9901 16.7188 16.0109 16.7188 16.0317 16.7188C16.0317 16.7604 16.0526 16.7812 16.0942 16.7812C16.0942 16.8229 16.1151 16.8438 16.1567 16.8438C16.1141 16.9485 16.0307 16.9902 15.9067 16.9688C15.9039 17.1298 15.9664 17.2548 16.0942 17.3438C16.1359 17.3854 16.1776 17.4271 16.2192 17.4688C16.1535 17.5785 16.0493 17.6202 15.9067 17.5938C15.9026 17.6849 15.9234 17.7683 15.9692 17.8438C15.8974 17.8256 15.8557 17.7735 15.8442 17.6875C15.8593 17.5635 15.901 17.4489 15.9692 17.3438C15.7045 17.1434 15.7253 16.9871 16.0317 16.875C15.9847 16.8331 15.9639 16.781 15.9692 16.7188Z"
            fill="#141414" />
        <path fill-rule="evenodd" clip-rule="evenodd"
            d="M16.3439 16.7188C16.4452 16.8383 16.5702 16.9217 16.7189 16.9688C16.7936 17.1382 16.9082 17.284 17.0627 17.4062C17.0929 17.4655 17.1032 17.528 17.0939 17.5938C17.0027 17.5979 16.9194 17.5771 16.8439 17.5312C16.6386 17.2843 16.4094 17.0551 16.1564 16.8438C16.1147 16.8438 16.0939 16.8229 16.0939 16.7812C16.0802 16.7078 16.101 16.6453 16.1564 16.5938C16.22 16.6371 16.2825 16.6787 16.3439 16.7188Z"
            fill="#545454" />
        <path fill-rule="evenodd" clip-rule="evenodd"
            d="M16.1563 16.8438C16.4093 17.0551 16.6385 17.2843 16.8438 17.5312C16.8639 17.628 16.9264 17.6697 17.0313 17.6562C17.0313 17.7188 17.0313 17.7812 17.0313 17.8438C17.1671 17.8879 17.2921 17.9504 17.4063 18.0312C17.4668 18.1129 17.5502 18.1546 17.6563 18.1562C17.6563 18.0938 17.6563 18.0312 17.6563 17.9688C17.725 18.0376 17.7354 18.1209 17.6876 18.2188C17.6062 18.2553 17.5333 18.2969 17.4688 18.3438C17.0264 18.016 16.6305 17.6306 16.2813 17.1875C16.2221 17.1573 16.1596 17.1469 16.0938 17.1562C16.0938 17.2188 16.0938 17.2812 16.0938 17.3438C15.966 17.2548 15.9035 17.1298 15.9063 16.9688C16.0303 16.9902 16.1137 16.9485 16.1563 16.8438Z"
            fill="#2D2D2D" />
        <path fill-rule="evenodd" clip-rule="evenodd"
            d="M17.0938 17.5935C17.1744 17.5787 17.2369 17.5995 17.2812 17.656C17.2612 17.7527 17.1987 17.7944 17.0938 17.781C17.0938 17.7185 17.0938 17.656 17.0938 17.5935Z"
            fill="#5B5B5B" />
        <path fill-rule="evenodd" clip-rule="evenodd"
            d="M16.8438 17.5312C16.9192 17.5771 17.0026 17.5979 17.0938 17.5938C17.0938 17.6562 17.0938 17.7188 17.0938 17.7812C17.1987 17.7947 17.2612 17.753 17.2812 17.6562C17.3834 17.7238 17.4667 17.8072 17.5312 17.9062C17.3646 17.8229 17.3229 17.8646 17.4062 18.0312C17.292 17.9504 17.167 17.8879 17.0312 17.8438C17.0312 17.7812 17.0312 17.7188 17.0312 17.6562C16.9263 17.6697 16.8638 17.628 16.8438 17.5312Z"
            fill="#444444" />
        <path fill-rule="evenodd" clip-rule="evenodd"
            d="M17.5319 17.9059C17.5533 17.9583 17.5949 17.9792 17.6569 17.9684C17.6569 18.0309 17.6569 18.0934 17.6569 18.1559C17.5507 18.1542 17.4673 18.1125 17.4069 18.0309C17.3236 17.8642 17.3652 17.8226 17.5319 17.9059Z"
            fill="#5A5A5A" />
        <path fill-rule="evenodd" clip-rule="evenodd"
            d="M15.9688 17.8438C16.0104 17.8646 16.0521 17.8854 16.0938 17.9062C16.1146 17.9688 16.1562 18.0104 16.2188 18.0312C16.1761 18.136 16.0927 18.1777 15.9688 18.1562C15.9688 18.2396 15.9688 18.3229 15.9688 18.4062C15.8922 18.3655 15.8505 18.2926 15.8438 18.1875C15.8701 18.0632 15.9117 17.9486 15.9688 17.8438Z"
            fill="#151515" />
        <path fill-rule="evenodd" clip-rule="evenodd"
            d="M16.2188 18.0312C16.3132 18.0939 16.4174 18.1356 16.5312 18.1562C16.5729 18.3021 16.6146 18.4479 16.6562 18.5938C16.5938 18.5938 16.5312 18.5938 16.4688 18.5938C16.4561 18.4601 16.3936 18.3559 16.2812 18.2812C16.2069 18.2232 16.1236 18.2024 16.0312 18.2188C16.0312 18.2812 16.0312 18.3438 16.0312 18.4062C16.0104 18.4062 15.9896 18.4062 15.9688 18.4062C15.9688 18.3229 15.9688 18.2396 15.9688 18.1562C16.0927 18.1777 16.1761 18.136 16.2188 18.0312Z"
            fill="#2F2F2F" />
        <path fill-rule="evenodd" clip-rule="evenodd"
            d="M16.2193 17.4688C16.3628 17.5809 16.4982 17.7059 16.6255 17.8438C16.6557 17.903 16.6661 17.9655 16.6568 18.0312C16.7225 18.0219 16.785 18.0323 16.8443 18.0625C16.9071 18.1567 16.9904 18.2296 17.0943 18.2812C17.2066 18.3559 17.2691 18.4601 17.2818 18.5938C17.3443 18.5938 17.4068 18.5938 17.4693 18.5938C17.4857 18.6861 17.4648 18.7694 17.4068 18.8438C17.386 18.8333 17.3651 18.8229 17.3443 18.8125C16.9821 18.44 16.6071 18.0754 16.2193 17.7188C16.1428 17.6491 16.0595 17.6387 15.9693 17.6875C16.052 17.7385 16.0936 17.8114 16.0943 17.9062C16.0526 17.8854 16.011 17.8646 15.9693 17.8438C15.9234 17.7683 15.9026 17.6849 15.9068 17.5938C16.0493 17.6202 16.1535 17.5785 16.2193 17.4688Z"
            fill="#2C2C2C" />
        <path fill-rule="evenodd" clip-rule="evenodd"
            d="M16.0312 18.4062C16.4704 18.8038 16.8871 19.2204 17.2812 19.6562C17.1979 19.6562 17.1562 19.6979 17.1562 19.7812C17.0998 19.7369 17.0789 19.6744 17.0938 19.5938C17.0312 19.5938 16.9688 19.5938 16.9062 19.5938C16.9062 19.5312 16.9062 19.4688 16.9062 19.4062C16.8438 19.4062 16.7812 19.4062 16.7188 19.4062C16.7188 19.3438 16.7188 19.2812 16.7188 19.2188C16.653 19.2281 16.5905 19.2177 16.5312 19.1875C16.4232 19.0659 16.3087 18.9513 16.1875 18.8438C16.1562 18.8646 16.125 18.8854 16.0938 18.9062C16.2078 19.0255 16.3119 19.1505 16.4062 19.2812C16.3601 19.2731 16.3184 19.2835 16.2812 19.3125C16.3282 19.3544 16.3491 19.4065 16.3438 19.4688C16.2683 19.4229 16.1849 19.4021 16.0938 19.4062C16.0938 19.4688 16.0938 19.5312 16.0938 19.5938C16.0435 19.4882 15.981 19.3841 15.9062 19.2812C15.9613 19.1893 16.0446 19.1372 16.1562 19.125C16.0672 18.9937 15.9839 18.8583 15.9062 18.7188C15.9969 18.6344 16.0386 18.5302 16.0312 18.4062Z"
            fill="#2A2A2A" />
        <path fill-rule="evenodd" clip-rule="evenodd"
            d="M17.6562 19.0936C17.7396 19.1978 17.7396 19.3019 17.6562 19.4061C17.5688 19.4436 17.5063 19.5061 17.4688 19.5936C17.2481 19.2778 16.9981 18.9861 16.7188 18.7186C16.8885 18.7041 17.0343 18.777 17.1562 18.9374C17.2155 18.9675 17.278 18.9779 17.3438 18.9686C17.3497 19.1419 17.4331 19.2669 17.5938 19.3436C17.6518 19.2693 17.6726 19.186 17.6562 19.0936Z"
            fill="#2E2E2E" />
        <path fill-rule="evenodd" clip-rule="evenodd"
            d="M17.4688 18.3441C17.7549 18.5153 17.7757 18.7028 17.5312 18.9066C17.5746 18.9702 17.6162 19.0327 17.6562 19.0941C17.6726 19.1865 17.6518 19.2698 17.5938 19.3441C17.4331 19.2674 17.3497 19.1424 17.3438 18.9691C17.278 18.9784 17.2155 18.9681 17.1562 18.9379C17.0343 18.7776 16.8885 18.7046 16.7188 18.7191C16.9981 18.9866 17.2481 19.2783 17.4688 19.5941C17.4244 19.6506 17.3619 19.6714 17.2812 19.6566C16.8871 19.2208 16.4704 18.8041 16.0312 18.4066C16.0312 18.3441 16.0312 18.2816 16.0312 18.2191C16.1236 18.2027 16.2069 18.2236 16.2812 18.2816C16.3936 18.3563 16.4561 18.4605 16.4688 18.5941C16.5312 18.5941 16.5938 18.5941 16.6562 18.5941C16.6146 18.4483 16.5729 18.3024 16.5312 18.1566C16.4174 18.1359 16.3132 18.0942 16.2188 18.0316C16.1562 18.0108 16.1146 17.9691 16.0938 17.9066C16.0931 17.8118 16.0514 17.7389 15.9688 17.6879C16.059 17.6391 16.1423 17.6495 16.2188 17.7191C16.6066 18.0758 16.9816 18.4404 17.3438 18.8129C17.3646 18.8233 17.3854 18.8337 17.4062 18.8441C17.4643 18.7698 17.4851 18.6865 17.4688 18.5941C17.4062 18.5941 17.3438 18.5941 17.2812 18.5941C17.2686 18.4605 17.2061 18.3563 17.0938 18.2816C16.9899 18.2299 16.9066 18.1571 16.8438 18.0629C16.7845 18.0327 16.722 18.0223 16.6562 18.0316C16.6656 17.9659 16.6552 17.9034 16.625 17.8441C16.4977 17.7062 16.3623 17.5812 16.2188 17.4691C16.1771 17.4274 16.1354 17.3858 16.0938 17.3441C16.0938 17.2816 16.0938 17.2191 16.0938 17.1566C16.1595 17.1473 16.222 17.1577 16.2812 17.1879C16.6304 17.631 17.0263 18.0164 17.4688 18.3441Z"
            fill="#4A4A4A" />
        <path fill-rule="evenodd" clip-rule="evenodd"
            d="M17.1562 19.7812C17.2219 19.8264 17.2636 19.8889 17.2812 19.9688C17.2812 20.0104 17.2604 20.0312 17.2188 20.0312C16.9259 19.8008 16.6551 19.5507 16.4062 19.2812C16.3119 19.1505 16.2078 19.0255 16.0938 18.9062C16.125 18.8854 16.1562 18.8646 16.1875 18.8438C16.3087 18.9513 16.4232 19.0659 16.5312 19.1875C16.5905 19.2177 16.653 19.2281 16.7188 19.2188C16.7188 19.2812 16.7188 19.3438 16.7188 19.4062C16.7812 19.4062 16.8438 19.4062 16.9062 19.4062C16.9062 19.4688 16.9062 19.5312 16.9062 19.5938C16.9688 19.5938 17.0312 19.5938 17.0938 19.5938C17.0789 19.6744 17.0998 19.7369 17.1562 19.7812Z"
            fill="#464646" />
        <path fill-rule="evenodd" clip-rule="evenodd"
            d="M16.4062 19.281C16.6551 19.5505 16.9259 19.8005 17.2188 20.031C17.1744 20.0875 17.1119 20.1083 17.0312 20.0935C17.0312 20.156 17.0312 20.2185 17.0312 20.281C16.9688 20.281 16.9062 20.281 16.8438 20.281C16.8438 20.2602 16.8438 20.2393 16.8438 20.2185C16.8939 20.1608 16.9044 20.0983 16.875 20.031C16.6675 19.8704 16.4904 19.6829 16.3438 19.4685C16.3491 19.4063 16.3282 19.3542 16.2812 19.3123C16.3184 19.2833 16.3601 19.2728 16.4062 19.281Z"
            fill="#222222" />
        <path fill-rule="evenodd" clip-rule="evenodd"
            d="M17.6562 19.4062C17.6037 19.5237 17.5828 19.6487 17.5938 19.7812C17.5104 19.7812 17.4271 19.7812 17.3438 19.7812C17.3586 19.8619 17.3377 19.9244 17.2812 19.9688C17.2636 19.8889 17.2219 19.8264 17.1562 19.7812C17.1562 19.6979 17.1979 19.6562 17.2812 19.6562C17.3619 19.6711 17.4244 19.6502 17.4688 19.5938C17.5063 19.5063 17.5688 19.4438 17.6562 19.4062Z"
            fill="#1D1D1D" />
        <path fill-rule="evenodd" clip-rule="evenodd"
            d="M16.3438 19.4683C16.4904 19.6827 16.6675 19.8702 16.875 20.0308C16.9044 20.0981 16.8939 20.1606 16.8438 20.2183C16.6186 20.0769 16.4102 19.9102 16.2188 19.7183C16.2188 19.6766 16.1979 19.6558 16.1562 19.6558C16.1146 19.6558 16.0938 19.635 16.0938 19.5933C16.0938 19.5308 16.0938 19.4683 16.0938 19.4058C16.1849 19.4016 16.2683 19.4224 16.3438 19.4683Z"
            fill="#535353" />
        <path fill-rule="evenodd" clip-rule="evenodd"
            d="M16.2188 19.7188C16.4102 19.9106 16.6186 20.0773 16.8438 20.2188C16.8438 20.2396 16.8438 20.2604 16.8438 20.2812C16.7483 20.3626 16.6858 20.4668 16.6562 20.5938C16.5943 20.6045 16.5526 20.5836 16.5312 20.5312C16.5999 20.4624 16.6103 20.3791 16.5625 20.2812C16.4365 20.1447 16.3011 20.0197 16.1562 19.9062C16.0982 19.9806 16.0774 20.0639 16.0938 20.1562C16.0469 20.0918 16.0053 20.0189 15.9688 19.9375C16.0824 19.8912 16.1658 19.8183 16.2188 19.7188Z"
            fill="#303030" />
        <path fill-rule="evenodd" clip-rule="evenodd"
            d="M16.5308 20.5312C16.4507 20.4263 16.3465 20.3429 16.2183 20.2812C16.1766 20.2396 16.135 20.1979 16.0933 20.1562C16.0769 20.0639 16.0977 19.9806 16.1558 19.9062C16.3006 20.0197 16.436 20.1447 16.562 20.2812C16.6099 20.3791 16.5994 20.4624 16.5308 20.5312Z"
            fill="#4D4D4D" />
        <path fill-rule="evenodd" clip-rule="evenodd"
            d="M19.2812 12.5938C19.3437 15.1456 19.3645 17.7081 19.3438 20.2812C19.3021 20.2812 19.2812 20.3021 19.2812 20.3438C19.1836 20.3583 19.1003 20.4 19.0312 20.4688C19.0312 20.4479 19.0312 20.4271 19.0312 20.4062C19.0911 20.3149 19.164 20.2316 19.25 20.1562C19.2812 17.6355 19.2917 15.1147 19.2812 12.5938Z"
            fill="#515151" />
        <path fill-rule="evenodd" clip-rule="evenodd"
            d="M16.1564 19.6562C16.1981 19.6562 16.2189 19.6771 16.2189 19.7188C16.1659 19.8183 16.0826 19.8912 15.9689 19.9375C16.0055 20.0189 16.0471 20.0918 16.0939 20.1562C16.1356 20.1979 16.1772 20.2396 16.2189 20.2812C16.1762 20.386 16.0929 20.4277 15.9689 20.4062C15.9689 20.4896 15.9689 20.5729 15.9689 20.6562C15.8924 20.6155 15.8507 20.5426 15.8439 20.4375C15.8644 20.3242 15.906 20.22 15.9689 20.125C15.8824 20.0252 15.8407 19.9106 15.8439 19.7812C15.9865 19.8077 16.0907 19.766 16.1564 19.6562Z"
            fill="#161616" />
        <path fill-rule="evenodd" clip-rule="evenodd"
            d="M22.7812 20.1562C22.7812 20.1979 22.7812 20.2396 22.7812 20.2812C22.7812 20.3021 22.7812 20.3229 22.7812 20.3438C22.7228 20.4359 22.6394 20.4984 22.5312 20.5312C22.6394 20.4231 22.7227 20.2981 22.7812 20.1562Z"
            fill="#505050" />
        <path fill-rule="evenodd" clip-rule="evenodd"
            d="M19.3438 20.2812C19.3479 20.3724 19.3271 20.4558 19.2812 20.5312C19.2396 20.5312 19.1979 20.5312 19.1562 20.5312C19.1979 20.4688 19.2396 20.4062 19.2812 20.3438C19.2812 20.3021 19.3021 20.2812 19.3438 20.2812Z"
            fill="#C7C7C7" />
        <path fill-rule="evenodd" clip-rule="evenodd"
            d="M16.2188 20.2812C16.3469 20.3429 16.4511 20.4263 16.5312 20.5312C16.4001 20.4429 16.3376 20.4845 16.3438 20.6562C16.2873 20.6119 16.2664 20.5494 16.2812 20.4688C16.2188 20.4688 16.1562 20.4688 16.0938 20.4688C16.0771 20.6232 16.1396 20.7274 16.2812 20.7812C16.3571 20.7658 16.3988 20.7241 16.4062 20.6562C16.4627 20.7006 16.4836 20.7631 16.4688 20.8438C16.2993 20.8634 16.1535 20.8218 16.0312 20.7188C16.0312 20.6771 16.0104 20.6562 15.9688 20.6562C15.9688 20.5729 15.9688 20.4896 15.9688 20.4062C16.0927 20.4277 16.1761 20.386 16.2188 20.2812Z"
            fill="#2F2F2F" />
        <path fill-rule="evenodd" clip-rule="evenodd"
            d="M19.0312 20.4062C19.0312 20.4271 19.0312 20.4479 19.0312 20.4688C19.0104 20.5312 18.9688 20.5729 18.9062 20.5938C18.8854 20.5938 18.8646 20.5938 18.8438 20.5938C18.8438 20.5312 18.8438 20.4688 18.8438 20.4062C18.9062 20.4062 18.9688 20.4062 19.0312 20.4062Z"
            fill="#252525" />
        <path fill-rule="evenodd" clip-rule="evenodd"
            d="M19.2812 20.3438C19.2396 20.4062 19.1979 20.4688 19.1562 20.5312C19.0729 20.5729 19.0104 20.6354 18.9688 20.7188C18.9271 20.7188 18.9062 20.7396 18.9062 20.7812C18.8854 20.7812 18.8646 20.7812 18.8438 20.7812C18.8473 20.7119 18.8681 20.6494 18.9062 20.5938C18.9688 20.5729 19.0104 20.5312 19.0312 20.4688C19.1003 20.4 19.1836 20.3583 19.2812 20.3438Z"
            fill="#898989" />
        <path fill-rule="evenodd" clip-rule="evenodd"
            d="M16.3444 20.6562C16.3652 20.6562 16.3861 20.6562 16.4069 20.6562C16.3994 20.7241 16.3577 20.7658 16.2819 20.7812C16.1402 20.7274 16.0777 20.6232 16.0944 20.4688C16.1569 20.4688 16.2194 20.4688 16.2819 20.4688C16.2671 20.5494 16.2879 20.6119 16.3444 20.6562Z"
            fill="#484848" />
        <path fill-rule="evenodd" clip-rule="evenodd"
            d="M16.5312 20.5314C16.5526 20.5838 16.5943 20.6046 16.6562 20.5939C16.5645 20.6738 16.5228 20.778 16.5312 20.9064C16.3119 20.9038 16.1036 20.9454 15.9062 21.0314C15.9269 20.9175 15.9686 20.8133 16.0312 20.7189C16.1535 20.8219 16.2993 20.8636 16.4688 20.8439C16.4836 20.7632 16.4627 20.7007 16.4062 20.6564C16.3854 20.6564 16.3646 20.6564 16.3438 20.6564C16.3376 20.4846 16.4001 20.443 16.5312 20.5314Z"
            fill="#1C1C1C" />
        <path fill-rule="evenodd" clip-rule="evenodd"
            d="M22.5312 20.5312C22.5136 20.6111 22.4719 20.6736 22.4062 20.7188C22.3646 20.7396 22.3229 20.7604 22.2812 20.7812C22.3059 20.6431 22.3892 20.5598 22.5312 20.5312Z"
            fill="#5E5E5E" />
        <path fill-rule="evenodd" clip-rule="evenodd"
            d="M22.2812 20.7812C22.2604 20.8229 22.2396 20.8646 22.2188 20.9062C22.1771 20.9271 22.1354 20.9479 22.0938 20.9688C22.0938 20.8438 22.1562 20.7812 22.2812 20.7812Z"
            fill="#656565" />
        <path fill-rule="evenodd" clip-rule="evenodd"
            d="M22.4062 20.7188C22.4062 20.8438 22.3438 20.9062 22.2188 20.9062C22.2396 20.8646 22.2604 20.8229 22.2812 20.7812C22.3229 20.7604 22.3646 20.7396 22.4062 20.7188Z"
            fill="#2A2A2A" />
        <path fill-rule="evenodd" clip-rule="evenodd"
            d="M18.8438 20.5938C18.8646 20.5938 18.8854 20.5938 18.9062 20.5938C18.8681 20.6494 18.8473 20.7119 18.8438 20.7812C18.7396 20.8438 18.6562 20.9271 18.5938 21.0312C18.5729 21.0312 18.5521 21.0312 18.5312 21.0312C18.5312 21.0104 18.5312 20.9896 18.5312 20.9688C18.6372 20.8422 18.7414 20.7172 18.8438 20.5938Z"
            fill="#575757" />
        <path fill-rule="evenodd" clip-rule="evenodd"
            d="M18.8438 20.7812C18.8646 20.7812 18.8854 20.7812 18.9062 20.7812C18.8427 20.9319 18.7385 21.0361 18.5938 21.0938C18.5938 21.0729 18.5938 21.0521 18.5938 21.0312C18.6562 20.9271 18.7396 20.8438 18.8438 20.7812Z"
            fill="#BFBFBF" />
        <path fill-rule="evenodd" clip-rule="evenodd"
            d="M22.2188 20.9062C22.2188 21.0312 22.1562 21.0938 22.0312 21.0938C22.0521 21.0521 22.0729 21.0104 22.0938 20.9688C22.1354 20.9479 22.1771 20.9271 22.2188 20.9062Z"
            fill="#2B2B2B" />
        <path fill-rule="evenodd" clip-rule="evenodd"
            d="M18.5312 20.9688C18.5312 20.9896 18.5312 21.0104 18.5312 21.0312C18.3839 21.1581 18.238 21.2831 18.0938 21.4062C18.0729 21.4062 18.0521 21.4062 18.0312 21.4062C18.0312 21.3438 18.0312 21.2812 18.0312 21.2188C18.2116 21.1636 18.3783 21.0803 18.5312 20.9688Z"
            fill="#343434" />
        <path fill-rule="evenodd" clip-rule="evenodd"
            d="M22.0938 20.9688C22.0729 21.0104 22.0521 21.0521 22.0312 21.0938C21.9896 21.0938 21.9688 21.1146 21.9688 21.1562C21.8854 21.1979 21.8229 21.2604 21.7812 21.3438C21.6979 21.3854 21.6354 21.4479 21.5938 21.5312C21.5521 21.5521 21.5104 21.5729 21.4688 21.5938C21.6146 21.3229 21.8229 21.1146 22.0938 20.9688Z"
            fill="#696969" />
        <path fill-rule="evenodd" clip-rule="evenodd"
            d="M18.9688 20.7188C18.9056 21.0735 18.6973 21.2819 18.3438 21.3438C18.4062 21.2396 18.4896 21.1562 18.5938 21.0938C18.7385 21.0361 18.8427 20.9319 18.9062 20.7812C18.9062 20.7396 18.9271 20.7188 18.9688 20.7188Z"
            fill="#E9E9E9" />
        <path fill-rule="evenodd" clip-rule="evenodd"
            d="M21.9688 21.1562C21.9688 21.2812 21.9062 21.3438 21.7812 21.3438C21.8229 21.2604 21.8854 21.1979 21.9688 21.1562Z"
            fill="#242424" />
        <path fill-rule="evenodd" clip-rule="evenodd"
            d="M18.5312 21.0312C18.5521 21.0312 18.5729 21.0312 18.5938 21.0312C18.5938 21.0521 18.5938 21.0729 18.5938 21.0938C18.4896 21.1562 18.4062 21.2396 18.3438 21.3438C18.2381 21.366 18.1756 21.4285 18.1562 21.5312C18.1146 21.5312 18.0938 21.5521 18.0938 21.5938C18.0729 21.5938 18.0521 21.5938 18.0312 21.5938C18.0348 21.5244 18.0556 21.4619 18.0938 21.4062C18.238 21.2831 18.3839 21.1581 18.5312 21.0312Z"
            fill="#848484" />
        <path fill-rule="evenodd" clip-rule="evenodd"
            d="M18.3438 21.3438C18.3438 21.4688 18.2812 21.5312 18.1562 21.5312C18.1756 21.4285 18.2381 21.366 18.3438 21.3438Z"
            fill="#CACACA" />
        <path fill-rule="evenodd" clip-rule="evenodd"
            d="M21.7812 21.3438C21.7812 21.4688 21.7188 21.5312 21.5938 21.5312C21.6354 21.4479 21.6979 21.3854 21.7812 21.3438Z"
            fill="#2A2A2A" />
        <path fill-rule="evenodd" clip-rule="evenodd"
            d="M18.0312 21.4062C18.0521 21.4062 18.0729 21.4062 18.0938 21.4062C18.0556 21.4619 18.0348 21.5244 18.0312 21.5938C17.9479 21.6562 17.8646 21.7188 17.7812 21.7812C17.8406 21.6389 17.9239 21.5139 18.0312 21.4062Z"
            fill="#4F4F4F" />
        <path fill-rule="evenodd" clip-rule="evenodd"
            d="M21.5938 21.5312C21.5938 21.6562 21.5312 21.7188 21.4062 21.7188C21.4271 21.6771 21.4479 21.6354 21.4688 21.5938C21.5104 21.5729 21.5521 21.5521 21.5938 21.5312Z"
            fill="#313131" />
        <path fill-rule="evenodd" clip-rule="evenodd"
            d="M18.1562 21.5312C18.1568 21.6442 18.1256 21.7484 18.0625 21.8438C17.9184 21.9206 17.7829 22.0039 17.6562 22.0938C17.6944 22.0381 17.7152 21.9756 17.7188 21.9062C17.8806 21.8488 18.0056 21.7446 18.0938 21.5938C18.0938 21.5521 18.1146 21.5312 18.1562 21.5312Z"
            fill="#E8E8E8" />
        <path fill-rule="evenodd" clip-rule="evenodd"
            d="M21.4695 21.5938C21.4487 21.6354 21.4279 21.6771 21.407 21.7188C21.3862 21.7188 21.3654 21.7188 21.3445 21.7188C21.3029 21.7396 21.2612 21.7604 21.2195 21.7812C21.2088 21.7193 21.2297 21.6776 21.282 21.6562C21.3377 21.6181 21.4002 21.5973 21.4695 21.5938Z"
            fill="#8F8F8F" />
        <path fill-rule="evenodd" clip-rule="evenodd"
            d="M18.0312 21.5938C18.0521 21.5938 18.0729 21.5938 18.0938 21.5938C18.0056 21.7446 17.8806 21.8488 17.7188 21.9062C17.7396 21.8646 17.7604 21.8229 17.7812 21.7812C17.8646 21.7188 17.9479 21.6562 18.0312 21.5938Z"
            fill="#A6A6A6" />
        <path fill-rule="evenodd" clip-rule="evenodd"
            d="M21.3438 21.8438C21.3229 21.9896 21.2396 22.0729 21.0938 22.0938C21.1223 21.9517 21.2056 21.8684 21.3438 21.8438Z"
            fill="#1B1B1B" />
        <path fill-rule="evenodd" clip-rule="evenodd"
            d="M17.468 21.9689C17.4298 22.0246 17.409 22.0871 17.4055 22.1564C17.3362 22.16 17.2737 22.1808 17.218 22.2189C17.1972 22.0314 17.2805 21.9481 17.468 21.9689Z"
            fill="#1C1C1C" />
        <path fill-rule="evenodd" clip-rule="evenodd"
            d="M17.7188 21.9062C17.7152 21.9756 17.6944 22.0381 17.6562 22.0938C17.6146 22.0938 17.5729 22.0938 17.5312 22.0938C17.5729 22.0104 17.6354 21.9479 17.7188 21.9062Z"
            fill="#A4A4A4" />
        <path fill-rule="evenodd" clip-rule="evenodd"
            d="M21.3438 21.7188C21.3438 21.7604 21.3438 21.8021 21.3438 21.8438C21.2056 21.8684 21.1223 21.9517 21.0938 22.0938C21.0244 22.0973 20.9619 22.1181 20.9062 22.1562C21.0104 22.0508 21.0938 21.9258 21.1562 21.7812C21.1771 21.7812 21.1979 21.7812 21.2188 21.7812C21.2604 21.7604 21.3021 21.7396 21.3438 21.7188Z"
            fill="#5D5D5D" />
        <path fill-rule="evenodd" clip-rule="evenodd"
            d="M17.7812 21.7812C17.7604 21.8229 17.7396 21.8646 17.7188 21.9062C17.6354 21.9479 17.5729 22.0104 17.5312 22.0938C17.4896 22.1146 17.4479 22.1354 17.4062 22.1562C17.4098 22.0869 17.4306 22.0244 17.4688 21.9688C17.5576 21.8797 17.6618 21.8172 17.7812 21.7812Z"
            fill="#585858" />
        <path fill-rule="evenodd" clip-rule="evenodd"
            d="M21.1562 21.7812C21.0938 21.9258 21.0104 22.0508 20.9062 22.1562C20.7174 22.2201 20.5924 22.3451 20.5312 22.5312C20.4896 22.5521 20.4479 22.5729 20.4062 22.5938C20.4193 22.5049 20.4506 22.4216 20.5 22.3438C20.6952 22.1164 20.9139 21.9289 21.1562 21.7812Z"
            fill="#B5B5B5" />
        <path fill-rule="evenodd" clip-rule="evenodd"
            d="M17.5312 22.0938C17.5312 22.2188 17.4688 22.2812 17.3438 22.2812C17.3646 22.2396 17.3854 22.1979 17.4062 22.1562C17.4479 22.1354 17.4896 22.1146 17.5312 22.0938Z"
            fill="#A7A7A7" />
        <path fill-rule="evenodd" clip-rule="evenodd"
            d="M17.5312 22.0938C17.5729 22.0938 17.6146 22.0938 17.6562 22.0938C17.6257 22.2702 17.5215 22.3536 17.3438 22.3438C17.3438 22.3229 17.3438 22.3021 17.3438 22.2812C17.4688 22.2812 17.5312 22.2188 17.5312 22.0938Z"
            fill="#DFDFDF" />
        <path fill-rule="evenodd" clip-rule="evenodd"
            d="M20.9062 22.1562C20.8886 22.2361 20.8469 22.2986 20.7812 22.3438C20.6979 22.3854 20.6354 22.4479 20.5938 22.5312C20.5729 22.5312 20.5521 22.5312 20.5312 22.5312C20.5924 22.3451 20.7174 22.2201 20.9062 22.1562Z"
            fill="#696969" />
        <path fill-rule="evenodd" clip-rule="evenodd"
            d="M17.4062 22.1562C17.3854 22.1979 17.3646 22.2396 17.3438 22.2812C17.2396 22.3438 17.1562 22.4271 17.0938 22.5312C17.0729 22.5312 17.0521 22.5312 17.0312 22.5312C17.0312 22.5104 17.0312 22.4896 17.0312 22.4688C17.0938 22.3854 17.1562 22.3021 17.2188 22.2188C17.2744 22.1806 17.3369 22.1598 17.4062 22.1562Z"
            fill="#585858" />
        <path fill-rule="evenodd" clip-rule="evenodd"
            d="M20.7812 22.3438C20.7812 22.4688 20.7188 22.5312 20.5938 22.5312C20.6354 22.4479 20.6979 22.3854 20.7812 22.3438Z"
            fill="#303030" />
        <path fill-rule="evenodd" clip-rule="evenodd"
            d="M17.3445 22.2812C17.3445 22.3021 17.3445 22.3229 17.3445 22.3438C17.3445 22.3646 17.3445 22.3854 17.3445 22.4062C17.2344 22.4539 17.1719 22.5372 17.157 22.6562C17.1047 22.6349 17.0838 22.5932 17.0945 22.5312C17.157 22.4271 17.2404 22.3438 17.3445 22.2812Z"
            fill="#A7A7A7" />
        <path fill-rule="evenodd" clip-rule="evenodd"
            d="M17.3438 22.4062C17.3491 22.4685 17.3282 22.5206 17.2812 22.5625C18.3227 22.5938 19.3644 22.6042 20.4062 22.5938C20.3646 22.6354 20.3229 22.6771 20.2812 22.7188C19.2286 22.7394 18.187 22.7186 17.1562 22.6562C17.1711 22.5372 17.2336 22.4539 17.3438 22.4062Z"
            fill="#C5C5C5" />
        <path fill-rule="evenodd" clip-rule="evenodd"
            d="M20.5312 22.5312C20.5358 22.6267 20.4941 22.6892 20.4062 22.7188C20.3646 22.7188 20.3229 22.7188 20.2812 22.7188C20.3229 22.6771 20.3646 22.6354 20.4062 22.5938C20.4479 22.5729 20.4896 22.5521 20.5312 22.5312Z"
            fill="#5A5A5A" />
        <path fill-rule="evenodd" clip-rule="evenodd"
            d="M17.0312 22.5312C17.0521 22.5312 17.0729 22.5312 17.0938 22.5312C17.083 22.5932 17.1039 22.6349 17.1562 22.6562C18.187 22.7186 19.2286 22.7394 20.2812 22.7188C20.2812 22.7604 20.2604 22.7812 20.2188 22.7812C19.1352 22.7917 18.0519 22.7812 16.9688 22.75C17.0157 22.7081 17.0366 22.656 17.0312 22.5938C17.0312 22.5729 17.0312 22.5521 17.0312 22.5312Z"
            fill="#7F7F7F" />
        <path fill-rule="evenodd" clip-rule="evenodd"
            d="M17.0306 22.4688C17.0306 22.4896 17.0306 22.5104 17.0306 22.5312C17.0306 22.5521 17.0306 22.5729 17.0306 22.5938C16.9304 22.6429 16.8887 22.7263 16.9056 22.8438C16.8848 22.8438 16.8639 22.8438 16.8431 22.8438C16.8134 22.6679 16.8759 22.5429 17.0306 22.4688Z"
            fill="#343434" />
        <path fill-rule="evenodd" clip-rule="evenodd"
            d="M17.031 22.5938C17.0364 22.656 17.0155 22.7081 16.9685 22.75C18.0516 22.7812 19.135 22.7917 20.2185 22.7812C19.1253 22.8436 18.0211 22.8644 16.906 22.8438C16.8891 22.7263 16.9308 22.6429 17.031 22.5938Z"
            fill="#595959" />
        <path fill-rule="evenodd" clip-rule="evenodd"
            d="M20.2812 22.7188C20.3229 22.7188 20.3646 22.7188 20.4062 22.7188C20.3779 22.7786 20.3363 22.8307 20.2812 22.875C19.1456 22.9268 18.0206 22.9164 16.9062 22.8438C18.0213 22.8644 19.1255 22.8436 20.2188 22.7812C20.2604 22.7812 20.2812 22.7604 20.2812 22.7188Z"
            fill="#333333" />
        <path fill-rule="evenodd" clip-rule="evenodd"
            d="M20.5312 22.5312C20.5521 22.5312 20.5729 22.5312 20.5938 22.5312C20.5785 22.7039 20.4952 22.8393 20.3438 22.9375C19.7604 22.9479 19.1771 22.9583 18.5938 22.9688C17.9881 22.9686 17.4047 22.927 16.8438 22.8438C16.8646 22.8438 16.8854 22.8438 16.9062 22.8438C18.0206 22.9164 19.1456 22.9268 20.2812 22.875C20.3363 22.8307 20.3779 22.7786 20.4062 22.7188C20.4941 22.6892 20.5358 22.6267 20.5312 22.5312Z"
            fill="#0F0F0F" />
    </g>
    <defs>
        <clipPath id="clip0_4993_1185">
            <rect width="32" height="32" fill="white" />
        </clipPath>
    </defs>
</svg>