<svg width="32" height="32" viewBox="0 0 32 32" fill="none" xmlns="http://www.w3.org/2000/svg">
    <g clip-path="url(#clip0_5214_64)">
        <path fill-rule="evenodd" clip-rule="evenodd"
            d="M-0.0800781 -0.0800781C10.5866 -0.0800781 21.2532 -0.0800781 31.9199 -0.0800781C31.9199 10.5866 31.9199 21.2532 31.9199 31.9199C21.2532 31.9199 10.5866 31.9199 -0.0800781 31.9199C-0.0800781 21.2532 -0.0800781 10.5866 -0.0800781 -0.0800781Z"
            fill="#FCFDFD" />
        <path fill-rule="evenodd" clip-rule="evenodd"
            d="M21.6802 3.28008C22.0589 3.70513 22.5389 4.02513 23.1202 4.24008C23.262 4.37208 23.3153 4.53208 23.2802 4.72008C22.8708 4.70241 22.4975 4.80907 22.1602 5.04008C22.2442 5.15086 22.3509 5.23086 22.4802 5.28008C22.3801 5.40014 22.3001 5.53349 22.2402 5.68008C21.8791 5.43278 21.5324 5.16611 21.2002 4.88008C21.3404 4.75995 21.5004 4.67995 21.6802 4.64008C21.4969 4.53689 21.3369 4.40355 21.2002 4.24008C20.7172 4.84558 20.1839 4.87224 19.6002 4.32008C19.1769 4.24049 18.7501 4.21382 18.3202 4.24008C17.7746 4.24694 17.2413 4.16694 16.7202 4.00008C17.1164 3.79067 17.4364 3.49734 17.6802 3.12008C17.5055 2.70501 17.2388 2.35833 16.8802 2.08008C18.5898 2.0855 20.1898 2.4855 21.6802 3.28008Z"
            fill="#1C5E9A" />
        <path fill-rule="evenodd" clip-rule="evenodd"
            d="M11.4398 4.88034C11.6138 4.64037 11.8272 4.42705 12.0798 4.24034C11.5908 4.17023 11.1641 3.98356 10.7998 3.68034C11.3665 3.69218 11.9532 3.63884 12.5598 3.52034C12.6937 3.35853 12.747 3.17188 12.7198 2.96034C11.914 2.94636 11.114 2.9997 10.3198 3.12034C11.5594 2.4505 12.8927 2.15717 14.3198 2.24034C14.6624 2.44956 14.9824 2.68956 15.2798 2.96034C14.9358 3.38444 14.5625 3.78444 14.1598 4.16034C13.2284 4.32645 12.3217 4.56645 11.4398 4.88034Z"
            fill="#2892C2" />
        <path fill-rule="evenodd" clip-rule="evenodd"
            d="M11.44 4.88019C10.5456 5.27439 9.69223 5.75439 8.87996 6.32019C8.8458 6.05716 8.89913 5.81716 9.03996 5.60019C8.87423 5.34148 8.68756 5.31481 8.47996 5.52019C8.36918 5.43614 8.28918 5.32948 8.23996 5.20019C8.63994 4.95174 9.01327 4.68508 9.35996 4.40019C9.10804 4.21924 8.84137 4.19259 8.55996 4.32019C8.04148 4.65468 7.50815 4.94801 6.95996 5.20019C7.95238 4.31719 9.07238 3.62385 10.32 3.12019C11.1141 2.99955 11.9141 2.9462 12.72 2.96019C12.7472 3.17172 12.6938 3.35838 12.56 3.52019C11.9533 3.63868 11.3666 3.69203 10.8 3.68019C11.1643 3.9834 11.5909 4.17007 12.08 4.24019C11.8273 4.42689 11.614 4.64022 11.44 4.88019Z"
            fill="#207CB3" />
        <path fill-rule="evenodd" clip-rule="evenodd"
            d="M21.6798 3.28027C23.3661 3.93731 24.8061 4.95064 25.9998 6.32027C25.5622 6.18293 25.1889 5.94293 24.8798 5.60027C24.6729 5.52187 24.4595 5.4952 24.2398 5.52027C24.1664 6.092 24.3264 6.572 24.7198 6.96027C24.6005 7.15807 24.5472 7.37139 24.5598 7.60027C23.6625 6.93656 22.756 6.26989 21.8398 5.60027C20.6777 5.06275 19.5043 4.60943 18.3198 4.24027C18.7497 4.21402 19.1765 4.24069 19.5998 4.32027C20.1835 4.87243 20.7168 4.84578 21.1998 4.24027C21.3365 4.40375 21.4965 4.53709 21.6798 4.64027C21.5 4.68015 21.34 4.76015 21.1998 4.88027C21.532 5.16631 21.8787 5.43298 22.2398 5.68027C22.2997 5.53368 22.3797 5.40034 22.4798 5.28027C22.3505 5.23106 22.2438 5.15106 22.1598 5.04027C22.4971 4.80927 22.8704 4.70261 23.2798 4.72027C23.3149 4.53227 23.2616 4.37227 23.1198 4.24027C22.5385 4.02533 22.0585 3.70533 21.6798 3.28027Z"
            fill="#2773A6" />
        <path fill-rule="evenodd" clip-rule="evenodd"
            d="M8.8798 6.32037C5.02596 9.44914 3.47929 13.5025 4.2398 18.4804C4.12435 18.4135 4.04435 18.3069 3.9998 18.1604C3.96276 16.6367 3.88276 15.1167 3.7598 13.6004C4.03785 12.9995 4.30452 12.3862 4.5598 11.7604C4.3144 11.0996 4.02107 10.4596 3.6798 9.84037C3.43244 10.3107 3.13912 10.7373 2.7998 11.1204C3.59454 8.73084 4.9812 6.75751 6.9598 5.20037C7.508 4.9482 8.04132 4.65487 8.5598 4.32037C8.84121 4.19277 9.10788 4.21943 9.3598 4.40037C9.01312 4.68527 8.63979 4.95192 8.2398 5.20037C8.28902 5.32967 8.36902 5.43632 8.4798 5.52037C8.6874 5.315 8.87408 5.34167 9.0398 5.60037C8.89897 5.81735 8.84564 6.05735 8.8798 6.32037Z"
            fill="#23649D" />
        <path fill-rule="evenodd" clip-rule="evenodd"
            d="M26 6.31985C26.4917 6.65091 26.8649 7.07758 27.12 7.59985C26.8848 7.83632 26.6181 8.04965 26.32 8.23985C26.452 8.38157 26.612 8.43489 26.8 8.39985C26.7649 8.58785 26.8182 8.74785 26.96 8.87985C27.2382 8.04262 27.3717 8.04262 27.36 8.87985C27.0744 9.26605 26.7277 9.47939 26.32 9.51985C26.0347 9.27625 25.9281 8.95625 26 8.55985C25.5825 8.50704 25.3158 8.26704 25.2 7.83985C24.9931 7.76145 24.7797 7.73478 24.56 7.75985C24.56 7.70653 24.56 7.65318 24.56 7.59985C24.5473 7.37097 24.6006 7.15765 24.72 6.95985C24.3265 6.57158 24.1665 6.09158 24.24 5.51985C24.4597 5.49478 24.6731 5.52145 24.88 5.59985C25.1891 5.94251 25.5624 6.18251 26 6.31985Z"
            fill="#1C84BD" />
        <path fill-rule="evenodd" clip-rule="evenodd"
            d="M14.6401 8.08008C15.8517 8.17542 16.705 8.76209 17.2001 9.84008C17.4505 10.7805 17.5572 11.7405 17.5201 12.7201C17.3601 12.7201 17.2001 12.7201 17.0401 12.7201C17.0666 11.8651 17.0399 11.0117 16.9601 10.1601C16.873 10.66 16.7397 11.14 16.5601 11.6001C16.1156 11.5236 15.7956 11.6836 15.6001 12.0801C15.4735 11.9896 15.4735 11.8562 15.6001 11.6801C15.4607 11.4619 15.3007 11.2752 15.1201 11.1201C14.9819 10.93 14.8219 10.7433 14.6401 10.5601C13.4146 10.4801 12.1879 10.4535 10.9601 10.4801C10.9067 10.4801 10.8534 10.4801 10.8001 10.4801C10.6676 11.4112 10.5876 12.3712 10.5601 13.3601C10.2871 13.4893 10.1538 13.7027 10.1601 14.0001C9.73339 14.0001 9.30673 14.0001 8.88006 14.0001C8.90631 14.43 8.87964 14.8567 8.80006 15.2801C8.77079 14.8217 8.69079 14.3951 8.56006 14.0001C8.56006 12.0268 8.56006 10.0534 8.56006 8.08008C10.5867 8.08008 12.6134 8.08008 14.6401 8.08008Z"
            fill="#1D5996" />
        <path fill-rule="evenodd" clip-rule="evenodd"
            d="M8.72021 8.24046C10.6943 8.21382 12.6676 8.24047 14.6402 8.32046C14.7741 8.48226 14.8274 8.66892 14.8002 8.88046C15.5264 8.64159 16.1665 8.80159 16.7202 9.36046C16.6305 9.6686 16.6039 9.9886 16.6402 10.3205C16.417 10.0581 16.177 9.8181 15.9202 9.60046C15.0651 9.53809 14.2118 9.45809 13.3602 9.36046C12.7294 9.51932 12.0894 9.62599 11.4402 9.68046C10.5861 9.62697 9.73273 9.57364 8.88021 9.52046C8.82689 9.09378 8.77354 8.66713 8.72021 8.24046Z"
            fill="#104E91" />
        <path fill-rule="evenodd" clip-rule="evenodd"
            d="M10.96 10.4797C12.1878 10.4531 13.4145 10.4797 14.64 10.5597C14.8218 10.7429 14.9818 10.9296 15.12 11.1197C15.1464 11.6557 15.1197 12.189 15.04 12.7197C14.9132 13.0627 14.6732 13.276 14.32 13.3597C13.2 13.3597 12.08 13.3597 10.96 13.3597C10.96 12.3997 10.96 11.4397 10.96 10.4797Z"
            fill="#FAFDFB" />
        <path fill-rule="evenodd" clip-rule="evenodd"
            d="M27.1201 7.59961C27.2733 7.67206 27.4068 7.77873 27.5201 7.91961C27.8177 8.51478 28.1109 9.10143 28.4001 9.67961C28.4031 9.92926 28.4564 10.1693 28.5601 10.3996C28.4044 10.4555 28.2711 10.5888 28.1601 10.7996C28.0817 11.0065 28.0549 11.2199 28.0801 11.4396C28.2401 11.4396 28.4001 11.4396 28.5601 11.4396C28.525 11.2516 28.5783 11.0916 28.7201 10.9596C28.8572 11.1573 28.9637 11.3706 29.0401 11.5996C28.6277 12.0161 28.2277 12.5494 27.8401 13.1996C27.7212 12.7689 27.5345 12.3955 27.2801 12.0796C26.9405 11.4835 26.6471 10.8435 26.4001 10.1596C25.8628 9.29716 25.2495 8.49716 24.5601 7.75961C24.7797 7.73454 24.9932 7.76121 25.2001 7.83961C25.3159 8.26679 25.5826 8.50679 26.0001 8.55961C25.9282 8.95601 26.0348 9.27601 26.3201 9.51961C26.7277 9.47915 27.0745 9.2658 27.3601 8.87961C27.3717 8.04238 27.2383 8.04238 26.9601 8.87961C26.8183 8.74761 26.765 8.58761 26.8001 8.39961C26.6121 8.43465 26.4521 8.38132 26.3201 8.23961C26.6181 8.0494 26.8849 7.83607 27.1201 7.59961Z"
            fill="#1E8FC4" />
        <path fill-rule="evenodd" clip-rule="evenodd"
            d="M28.4001 9.67969C29.2491 11.1506 29.7558 12.7506 29.9201 14.4797C30.1179 16.0811 29.9846 17.6277 29.5201 19.1197C29.4008 16.8859 29.3473 14.6459 29.3601 12.3997C29.0401 12.5064 28.7201 12.613 28.4001 12.7197C28.4532 14.4297 28.4 16.1363 28.2401 17.8397C28.1092 17.4226 28.0292 16.9958 28.0001 16.5597C27.8862 17.4442 27.9128 18.3242 28.0801 19.1997C28.0534 19.333 28.0268 19.4664 28.0001 19.5997C27.9603 19.4198 27.8803 19.2598 27.7601 19.1197C27.2913 19.8195 27.1848 20.5662 27.4401 21.3597C27.2262 21.0638 27.1196 20.7171 27.1201 20.3197C27.9038 17.589 27.9572 14.8424 27.2801 12.0797C27.5345 12.3956 27.7212 12.769 27.8401 13.1997C28.2278 12.5495 28.6278 12.0161 29.0401 11.5997C28.9638 11.3707 28.8572 11.1574 28.7201 10.9597C28.5784 11.0917 28.5251 11.2517 28.5601 11.4397C28.4001 11.4397 28.2401 11.4397 28.0801 11.4397C28.055 11.2199 28.0817 11.0066 28.1601 10.7997C28.2712 10.5889 28.4044 10.4555 28.5601 10.3997C28.4564 10.1693 28.4032 9.92934 28.4001 9.67969Z"
            fill="#2F97C4" />
        <path fill-rule="evenodd" clip-rule="evenodd"
            d="M29.5198 19.1204C29.456 19.9087 29.2427 20.6554 28.8798 21.3604C28.4436 21.6588 27.9636 21.8188 27.4398 21.8404C27.4398 21.6804 27.4398 21.5204 27.4398 21.3604C27.1844 20.567 27.291 19.8202 27.7598 19.1204C27.88 19.2606 27.96 19.4206 27.9998 19.6004C28.0265 19.4671 28.0531 19.3337 28.0798 19.2004C27.9124 18.3249 27.8859 17.4449 27.9998 16.5604C28.0289 16.9966 28.1089 17.4233 28.2398 17.8404C28.3996 16.137 28.4529 14.4304 28.3998 12.7204C28.7198 12.6137 29.0398 12.5071 29.3598 12.4004C29.347 14.6466 29.4004 16.8866 29.5198 19.1204Z"
            fill="#1D96CC" />
        <path fill-rule="evenodd" clip-rule="evenodd"
            d="M10.7998 10.4805C10.8531 10.4805 10.9065 10.4805 10.9598 10.4805C10.9598 11.4405 10.9598 12.4005 10.9598 13.3605C12.0798 13.3605 13.1998 13.3605 14.3198 13.3605C14.3198 13.4138 14.3198 13.4671 14.3198 13.5205C13.1465 13.5205 11.9731 13.5205 10.7998 13.5205C10.7998 12.5071 10.7998 11.4938 10.7998 10.4805Z"
            fill="#8FB6D3" />
        <path fill-rule="evenodd" clip-rule="evenodd"
            d="M17.2 9.83984C17.9874 11.0882 18.0408 12.3682 17.36 13.6798C17.0253 13.67 16.7853 13.51 16.64 13.1998C16.5384 13.4345 16.405 13.6478 16.24 13.8398C16.3638 14.0336 16.4971 14.0336 16.64 13.8398C16.719 14.1013 16.7456 14.368 16.72 14.6398C16.3688 14.8172 16.0488 14.7905 15.76 14.5598C15.9538 14.417 15.9538 14.2837 15.76 14.1598C15.4058 14.5477 15.2458 14.441 15.28 13.8398C14.9907 13.8385 14.724 13.9185 14.48 14.0798C14.6615 14.2424 14.6081 14.3491 14.32 14.3998C14.4267 14.4532 14.5333 14.5065 14.64 14.5598C14.4331 14.6382 14.2197 14.6649 14 14.6398C14.0615 14.2511 14.1682 13.8778 14.32 13.5198C14.32 13.4665 14.32 13.4132 14.32 13.3598C14.6733 13.2762 14.9133 13.0628 15.04 12.7198C15.1197 12.1892 15.1464 11.6558 15.12 11.1198C15.3007 11.275 15.4607 11.4616 15.6 11.6798C15.4734 11.856 15.4734 11.9893 15.6 12.0798C15.7956 11.6833 16.1155 11.5233 16.56 11.5998C16.7397 11.1398 16.873 10.6598 16.96 10.1598C17.0398 11.0115 17.0666 11.8649 17.04 12.7198C17.2 12.7198 17.36 12.7198 17.52 12.7198C17.5571 11.7403 17.4504 10.7803 17.2 9.83984Z"
            fill="#2768A4" />
        <path fill-rule="evenodd" clip-rule="evenodd"
            d="M10.8001 10.4805C10.8001 11.4938 10.8001 12.5071 10.8001 13.5205C11.9734 13.5205 13.1467 13.5205 14.3201 13.5205C14.1682 13.8784 14.0616 14.2518 14.0001 14.6405C14.2198 14.6655 14.4331 14.6389 14.6401 14.5605C14.5334 14.5071 14.4267 14.4538 14.3201 14.4005C14.6082 14.3497 14.6615 14.243 14.4801 14.0805C14.724 13.9191 14.9907 13.8391 15.2801 13.8405C15.2459 14.4416 15.4059 14.5483 15.7601 14.1605C15.9539 14.2843 15.9539 14.4176 15.7601 14.5605C16.0489 14.7911 16.3689 14.8178 16.7201 14.6405C16.7457 14.3686 16.7191 14.1019 16.6401 13.8405C16.4972 14.0343 16.3639 14.0343 16.2401 13.8405C16.405 13.6484 16.5385 13.4351 16.6401 13.2005C16.7853 13.5106 17.0253 13.6706 17.3601 13.6805C17.2287 14.4517 16.802 14.985 16.0801 15.2805C15.4581 15.3038 14.8714 15.4105 14.3201 15.6005C14.0729 15.7172 13.9395 15.9305 13.9201 16.2405C13.8667 16.1872 13.8134 16.1337 13.7601 16.0805C13.3959 16.4907 13.0759 16.4373 12.8001 15.9205C12.7228 16.0721 12.6961 16.2321 12.7201 16.4005C12.4912 16.3878 12.2779 16.4411 12.0801 16.5605C11.9163 16.344 11.7029 16.2373 11.4401 16.2405C11.3867 16.2405 11.3334 16.2405 11.2801 16.2405C11.1916 15.9122 11.0316 15.8588 10.8001 16.0805C10.6773 16.188 10.5706 16.3213 10.4801 16.4805C9.94937 16.5601 9.41604 16.5869 8.88006 16.5605C8.96575 17.0721 8.8591 17.4989 8.56006 17.8405C8.56006 16.5605 8.56006 15.2805 8.56006 14.0005C8.69079 14.3954 8.77079 14.8221 8.80006 15.2805C8.87964 14.8571 8.90631 14.4304 8.88006 14.0005C9.30673 14.0005 9.73339 14.0005 10.1601 14.0005C10.1538 13.7031 10.2871 13.4897 10.5601 13.3605C10.5876 12.3716 10.6676 11.4116 10.8001 10.4805Z"
            fill="#176EAA" />
        <path fill-rule="evenodd" clip-rule="evenodd"
            d="M4.24 18.4798C4.24 18.5331 4.24 18.5866 4.24 18.6398C4.24 18.7998 4.24 18.9598 4.24 19.1198C4.08 19.1198 3.92 19.1198 3.76 19.1198C3.8 19.5541 3.82667 19.9808 3.84 20.3998C3.77376 20.3267 3.69376 20.2733 3.6 20.2398C3.32424 19.6894 3.21757 19.1029 3.28 18.4798C3.44 18.4798 3.6 18.4798 3.76 18.4798C3.76 18.2666 3.76 18.0531 3.76 17.8398C3.54667 17.8398 3.33333 17.8398 3.12 17.8398C3.14563 18.1117 3.11896 18.3784 3.04 18.6398C2.83709 18.6584 2.62376 18.7117 2.4 18.7998C2.21362 17.311 2.08029 15.8177 2 14.3198C2.07042 13.1848 2.33709 12.1181 2.8 11.1198C3.13931 10.7368 3.43264 10.3101 3.68 9.83984C4.02126 10.459 4.31459 11.099 4.56 11.7598C4.30472 12.3856 4.03805 12.999 3.76 13.5998C3.88296 15.1162 3.96296 16.6362 4 18.1598C4.04454 18.3064 4.12454 18.413 4.24 18.4798Z"
            fill="#135394" />
        <path fill-rule="evenodd" clip-rule="evenodd"
            d="M14.6399 8.07992C12.6132 8.07992 10.5866 8.07992 8.5599 8.07992C8.5599 10.0532 8.5599 12.0266 8.5599 13.9999C8.5599 15.2799 8.5599 16.5599 8.5599 17.8399C8.49342 18.8722 8.57342 19.8855 8.7999 20.8799C9.45045 21.0342 10.1171 21.0874 10.7999 21.0399C10.031 21.1978 9.23104 21.2513 8.3999 21.1999C8.3999 16.8266 8.3999 12.4532 8.3999 8.07992C10.4799 7.86659 12.5599 7.86659 14.6399 8.07992Z"
            fill="#4F7F9C" />
        <path fill-rule="evenodd" clip-rule="evenodd"
            d="M14.3199 15.5996C14.5682 16.1223 14.8348 16.6558 15.1199 17.1996C15.4739 17.1121 15.7405 17.2721 15.9199 17.6796C15.4267 17.8527 15.1067 18.1727 14.9599 18.6396C14.7999 18.6396 14.6399 18.6396 14.4799 18.6396C14.4898 18.3049 14.6498 18.0649 14.9599 17.9196C14.5312 17.9449 14.1046 18.0249 13.6799 18.1596C13.1466 17.7863 12.6133 17.4129 12.0799 17.0396C11.8533 16.771 11.64 16.5042 11.4399 16.2396C11.7028 16.2364 11.9161 16.3431 12.0799 16.5596C12.2777 16.4402 12.4911 16.387 12.7199 16.3996C12.696 16.2313 12.7227 16.0713 12.7999 15.9196C13.0758 16.4364 13.3958 16.4898 13.7599 16.0796C13.8133 16.1329 13.8666 16.1863 13.9199 16.2396C13.9394 15.9297 14.0727 15.7164 14.3199 15.5996Z"
            fill="#1D79B4" />
        <path fill-rule="evenodd" clip-rule="evenodd"
            d="M8.4001 8.08008C8.4001 12.4534 8.4001 16.8268 8.4001 21.2001C9.23123 21.2514 10.0312 21.198 10.8001 21.0401C10.9329 19.4146 11.0129 17.7614 11.0401 16.0801C11.1013 16.169 11.1813 16.2223 11.2801 16.2401C11.3334 16.2401 11.3868 16.2401 11.4401 16.2401C11.6401 16.5047 11.8535 16.7714 12.0801 17.0401C11.7245 16.9886 11.4312 17.0953 11.2001 17.3601C11.1468 18.6934 11.0934 20.0268 11.0401 21.3601C10.1684 21.4868 9.28845 21.5935 8.4001 21.6801C8.45024 22.1196 8.3969 22.5463 8.2401 22.9601C8.0349 22.5006 8.0349 22.0473 8.2401 21.6001C8.05045 21.3836 7.83712 21.1969 7.6001 21.0401C7.7321 20.8983 7.8921 20.845 8.0801 20.8801C8.0117 16.5833 8.11837 12.3165 8.4001 8.08008Z"
            fill="#EEFEFD" />
        <path fill-rule="evenodd" clip-rule="evenodd"
            d="M16.0802 15.2803C15.6422 15.5522 15.1622 15.7655 14.6402 15.9203C15.5401 16.7988 16.4467 17.6788 17.3602 18.5603C17.6759 18.6395 17.9959 18.6662 18.3202 18.6403C18.3202 17.787 18.3202 16.9336 18.3202 16.0803C19.1202 16.0803 19.9202 16.0803 20.7202 16.0803C20.7202 16.987 20.7202 17.8936 20.7202 18.8003C20.588 18.0832 20.508 17.3364 20.4802 16.5603C20.181 16.3614 19.8344 16.2547 19.4402 16.2403C19.1202 16.2936 18.8002 16.347 18.4802 16.4003C18.7421 17.2822 18.6888 18.1355 18.3202 18.9603C17.8362 19.1481 17.4095 19.0414 17.0402 18.6403C16.4631 18.482 15.8763 18.4286 15.2802 18.4803C15.2802 18.6936 15.2802 18.907 15.2802 19.1203C15.1202 19.1203 14.9602 19.1203 14.8002 19.1203C14.3906 18.8366 14.0173 18.5166 13.6802 18.1603C14.1048 18.0256 14.5315 17.9456 14.9602 17.9203C14.65 18.0656 14.49 18.3056 14.4802 18.6403C14.6402 18.6403 14.8002 18.6403 14.9602 18.6403C15.107 18.1734 15.427 17.8534 15.9202 17.6803C15.7408 17.2728 15.4741 17.1128 15.1202 17.2003C14.8351 16.6564 14.5684 16.123 14.3202 15.6003C14.8715 15.4103 15.4582 15.3036 16.0802 15.2803Z"
            fill="#287CAB" />
        <path fill-rule="evenodd" clip-rule="evenodd"
            d="M11.2798 16.2403C11.181 16.2225 11.101 16.1692 11.0398 16.0803C11.0127 17.7615 10.9327 19.4148 10.7998 21.0403C10.7998 19.387 10.7998 17.7335 10.7998 16.0803C11.0314 15.8586 11.1914 15.912 11.2798 16.2403Z"
            fill="#79AFC4" />
        <path fill-rule="evenodd" clip-rule="evenodd"
            d="M20.7202 16.0801C20.8783 16.9025 20.9316 17.7559 20.8802 18.6401C21.7644 18.5887 22.6178 18.642 23.4402 18.8001C23.3869 18.8001 23.3335 18.8001 23.2802 18.8001C22.4269 18.8001 21.5735 18.8001 20.7202 18.8001C20.7202 17.8934 20.7202 16.9868 20.7202 16.0801Z"
            fill="#88BAD1" />
        <path fill-rule="evenodd" clip-rule="evenodd"
            d="M20.7198 18.8002C21.5731 18.8002 22.4265 18.8002 23.2798 18.8002C23.3702 19.5718 23.2636 20.2918 22.9598 20.9602C21.5752 20.9489 20.2152 21.0822 18.8798 21.3602C18.3598 20.9857 18.4398 20.719 19.1198 20.5602C18.9198 20.1524 18.5998 19.9391 18.1598 19.9202C18.1326 20.1318 18.1859 20.3185 18.3198 20.4802C17.8931 20.587 17.4665 20.587 17.0398 20.4802C17.383 20.3614 17.4096 20.2281 17.1198 20.0802C16.9118 20.2734 16.6718 20.3801 16.3998 20.4002C15.8164 20.0295 15.2831 19.6028 14.7998 19.1202C14.9598 19.1202 15.1198 19.1202 15.2798 19.1202C15.2798 18.907 15.2798 18.6935 15.2798 18.4802C15.876 18.4286 16.4627 18.482 17.0398 18.6402C17.4091 19.0414 17.8358 19.1481 18.3198 18.9602C18.6884 18.1354 18.7417 17.2822 18.4798 16.4002C18.7998 16.347 19.1198 16.2935 19.4398 16.2402C19.834 16.2546 20.1806 16.3614 20.4798 16.5602C20.5076 17.3364 20.5876 18.0831 20.7198 18.8002Z"
            fill="#1985BD" />
        <path fill-rule="evenodd" clip-rule="evenodd"
            d="M10.8002 16.0801C10.8002 17.7334 10.8002 19.3868 10.8002 21.0401C10.1174 21.0876 9.45077 21.0343 8.80023 20.8801C8.57375 19.8857 8.49375 18.8724 8.56023 17.8401C8.85927 17.4985 8.96592 17.0718 8.88023 16.5601C9.41621 16.5865 9.94954 16.5598 10.4802 16.4801C10.5708 16.3209 10.6774 16.1876 10.8002 16.0801Z"
            fill="#1A84BB" />
        <path fill-rule="evenodd" clip-rule="evenodd"
            d="M2.00004 14.3203C2.08032 15.8182 2.21365 17.3115 2.40004 18.8003C2.6238 18.7122 2.83712 18.6589 3.04004 18.6403C3.119 18.3789 3.14567 18.1122 3.12004 17.8403C3.33336 17.8403 3.54671 17.8403 3.76004 17.8403C3.76004 18.0536 3.76004 18.267 3.76004 18.4803C3.60004 18.4803 3.44004 18.4803 3.28004 18.4803C3.2176 19.1034 3.32428 19.6899 3.60004 20.2403C3.6938 20.2738 3.7738 20.3272 3.84004 20.4003C3.82671 19.9813 3.80004 19.5546 3.76004 19.1203C3.92004 19.1203 4.08004 19.1203 4.24004 19.1203C4.24004 18.9603 4.24004 18.8003 4.24004 18.6403C4.4857 19.4555 4.8057 20.2555 5.20004 21.0403C4.80133 21.1517 4.40133 21.0984 4.00004 20.8803C3.7089 21.2613 3.49557 21.688 3.36004 22.1603C2.14367 19.6614 1.69034 17.0482 2.00004 14.3203Z"
            fill="#265890" />
        <path fill-rule="evenodd" clip-rule="evenodd"
            d="M23.2799 18.7998C23.3332 18.7998 23.3866 18.7998 23.4399 18.7998C23.4399 19.5998 23.4399 20.3998 23.4399 21.1998C22.5332 21.1998 21.6266 21.1998 20.7199 21.1998C20.7199 22.1065 20.7199 23.0131 20.7199 23.9198C19.9199 23.9198 19.1199 23.9198 18.3199 23.9198C18.3199 23.0131 18.3199 22.1065 18.3199 21.1998C17.4837 21.3654 16.8437 21.0987 16.3999 20.3998C16.6719 20.3796 16.9119 20.2729 17.1199 20.0798C17.4097 20.2276 17.3831 20.3609 17.0399 20.4798C17.4666 20.5865 17.8932 20.5865 18.3199 20.4798C18.186 20.318 18.1327 20.1313 18.1599 19.9198C18.5999 19.9387 18.9199 20.152 19.1199 20.5598C18.4399 20.7185 18.3599 20.9852 18.8799 21.3598C20.2153 21.0817 21.5753 20.9484 22.9599 20.9598C23.2637 20.2913 23.3703 19.5713 23.2799 18.7998Z"
            fill="#3494BF" />
        <path fill-rule="evenodd" clip-rule="evenodd"
            d="M19.9198 21.2002C20.0798 21.2002 20.2398 21.2002 20.3998 21.2002C20.5324 21.9927 20.5859 22.7927 20.5598 23.6002C19.9707 23.6266 19.3841 23.6 18.7998 23.5202C18.7267 23.454 18.6732 23.374 18.6398 23.2802C19.2169 23.122 19.8036 23.0685 20.3998 23.1202C20.3735 22.2135 20.3203 22.1602 20.2398 22.9602C19.7065 22.9602 19.1731 22.9602 18.6398 22.9602C18.5897 22.5207 18.643 22.094 18.7998 21.6802C18.9291 21.9879 19.0091 22.3079 19.0398 22.6402C19.3287 22.3512 19.6222 22.0578 19.9198 21.7602C19.8124 21.6024 19.8124 21.4157 19.9198 21.2002Z"
            fill="#1997D1" />
        <path fill-rule="evenodd" clip-rule="evenodd"
            d="M23.12 28.0796C22.9652 27.7129 22.9117 27.3662 22.96 27.0396C23.0668 26.9864 23.1733 26.9329 23.28 26.8796C23.0668 26.8264 22.8533 26.7729 22.64 26.7196C23.0106 25.8206 22.8506 25.7672 22.16 26.5596C21.8016 26.716 21.4284 26.796 21.04 26.7996C22.9783 25.8492 24.5517 24.4627 25.76 22.6396C25.9663 23.0958 26.0463 23.5758 26 24.0796C26.4709 24.0561 26.9242 23.9496 27.36 23.7596C27.5804 23.8454 27.5804 24.0054 27.36 24.2396C26.1669 25.7803 24.7536 27.0603 23.12 28.0796Z"
            fill="#2795C6" />
        <path fill-rule="evenodd" clip-rule="evenodd"
            d="M8.55989 25.5201C8.72895 25.9107 8.94229 26.2841 9.19989 26.6401C8.95775 26.8555 8.74442 27.0955 8.55989 27.3601C9.02221 27.6628 8.96888 27.7961 8.39989 27.7601C7.14947 27.0721 6.05615 26.1654 5.11989 25.0401C4.9033 24.422 4.8233 23.782 4.87989 23.1201C5.49533 23.1273 6.08199 23.2606 6.63989 23.5201C7.31247 24.1659 7.95247 24.8324 8.55989 25.5201Z"
            fill="#195492" />
        <path fill-rule="evenodd" clip-rule="evenodd"
            d="M18.1602 27.6001C17.787 27.7068 17.4135 27.8134 17.0402 27.9201C15.3701 28.0376 13.7701 27.8241 12.2402 27.2801C12.555 27.3184 12.8483 27.2651 13.1202 27.1201C13.4123 27.2166 13.7056 27.3233 14.0002 27.4401C15.3828 27.5998 16.7695 27.6531 18.1602 27.6001Z"
            fill="#DEF5FA" />
        <path fill-rule="evenodd" clip-rule="evenodd"
            d="M23.12 28.0798C22.0202 28.7363 20.8469 29.2163 19.6 29.5198C19.6124 29.3198 19.7191 29.1865 19.92 29.1198C20.6216 29.0671 21.2084 28.8006 21.68 28.3198C21.6268 28.2398 21.5733 28.1598 21.52 28.0798C21.2175 28.3223 20.8975 28.5358 20.56 28.7198C20.385 28.5009 20.4384 28.3142 20.72 28.1598C20.2408 27.9735 19.7608 27.787 19.28 27.5998C18.5588 27.8579 17.8122 27.9644 17.04 27.9198C17.4133 27.8131 17.7868 27.7065 18.16 27.5998C19.1583 27.4539 20.1183 27.1871 21.04 26.7998C21.4284 26.7961 21.8016 26.7161 22.16 26.5598C22.8506 25.7673 23.0106 25.8207 22.64 26.7198C22.8533 26.7731 23.0668 26.8265 23.28 26.8798C23.1733 26.9331 23.0668 26.9865 22.96 27.0398C22.9117 27.3663 22.9652 27.7131 23.12 28.0798Z"
            fill="#2286BA" />
        <path fill-rule="evenodd" clip-rule="evenodd"
            d="M8.5599 25.5195C9.64565 26.2757 10.819 26.8624 12.0799 27.2795C12.0991 27.4533 12.2058 27.56 12.3999 27.5995C12.9534 27.7616 13.4867 27.9216 13.9999 28.0795C13.9484 28.5285 13.7884 28.9285 13.5199 29.2795C13.77 29.401 13.93 29.5877 13.9999 29.8395C11.9058 29.7245 10.0391 29.0311 8.3999 27.7595C8.96889 27.7955 9.02222 27.6623 8.5599 27.3595C8.74443 27.0949 8.95776 26.8549 9.1999 26.6395C8.9423 26.2835 8.72896 25.9101 8.5599 25.5195Z"
            fill="#1F649D" />
        <path fill-rule="evenodd" clip-rule="evenodd"
            d="M14 28.0796C14.6531 28.0547 15.2931 28.1347 15.92 28.3196C15.7478 28.5958 15.7212 28.8891 15.84 29.1996C16.3506 28.9555 16.7506 28.5822 17.04 28.0796C17.1887 28.2699 17.2419 28.4832 17.2 28.7196C17.4133 28.7196 17.6267 28.7196 17.84 28.7196C17.84 29.0396 17.84 29.3596 17.84 29.6796C16.5627 29.7862 15.2828 29.8395 14 29.8396C13.9301 29.5878 13.7701 29.4011 13.52 29.2796C13.7885 28.9286 13.9485 28.5286 14 28.0796Z"
            fill="#156FAC" />
        <path fill-rule="evenodd" clip-rule="evenodd"
            d="M12.0801 27.2803C12.1334 27.2803 12.1868 27.2803 12.2401 27.2803C13.7699 27.8243 15.3699 28.0377 17.0401 27.9203C17.8122 27.9649 18.5588 27.8584 19.2801 27.6003C19.7609 27.7875 20.2409 27.974 20.7201 28.1603C20.4385 28.3147 20.385 28.5014 20.5601 28.7203C20.8975 28.5363 21.2175 28.3228 21.5201 28.0803C21.5734 28.1603 21.6268 28.2403 21.6801 28.3203C21.2084 28.8011 20.6217 29.0676 19.9201 29.1203C19.7191 29.187 19.6124 29.3203 19.6001 29.5203C17.7388 30.0043 15.8722 30.111 14.0001 29.8403C15.2828 29.8401 16.5628 29.7868 17.8401 29.6803C17.8401 29.3603 17.8401 29.0403 17.8401 28.7203C17.6268 28.7203 17.4134 28.7203 17.2001 28.7203C17.242 28.4838 17.1887 28.2705 17.0401 28.0803C16.7506 28.5828 16.3506 28.9561 15.8401 29.2003C15.7212 28.8897 15.7479 28.5964 15.9201 28.3203C15.2932 28.1353 14.6532 28.0553 14.0001 28.0803C13.4869 27.9224 12.9536 27.7624 12.4001 27.6003C12.206 27.5608 12.0993 27.454 12.0801 27.2803Z"
            fill="#1F7AB0" />
    </g>
    <defs>
        <clipPath id="clip0_5214_64">
            <rect width="32" height="32" fill="white" />
        </clipPath>
    </defs>
</svg>