<svg width="32" height="32" viewBox="0 0 32 32" fill="none" xmlns="http://www.w3.org/2000/svg">
    <g clip-path="url(#clip0_5068_45)">
        <path fill-rule="evenodd" clip-rule="evenodd"
            d="M-0.0703125 -0.0712891C2.20524 -0.0712891 4.4808 -0.0712891 6.75635 -0.0712891C6.75635 0.307971 6.75635 0.687229 6.75635 1.06649C6.37709 1.06649 5.99784 1.06649 5.61858 1.06649C5.61858 1.44575 5.61858 1.825 5.61858 2.20427C5.23931 2.20427 4.86006 2.20427 4.4808 2.20427C4.4808 2.58353 4.4808 2.96278 4.4808 3.34204C4.10153 3.34204 3.72228 3.34204 3.34302 3.34204C3.34302 3.72131 3.34302 4.10056 3.34302 4.47982C2.96376 4.47982 2.58451 4.47982 2.20524 4.47982C2.20524 4.85909 2.20524 5.23834 2.20524 5.6176C1.82598 5.6176 1.44673 5.6176 1.06747 5.6176C1.06747 5.99686 1.06747 6.37611 1.06747 6.75538C0.688206 6.75538 0.308947 6.75538 -0.0703125 6.75538C-0.0703125 4.47982 -0.0703125 2.20427 -0.0703125 -0.0712891Z"
            fill="#721BD8" />
        <path fill-rule="evenodd" clip-rule="evenodd"
            d="M6.75635 -0.0712891C7.89413 -0.0712891 9.03191 -0.0712891 10.1697 -0.0712891C10.1697 0.307971 10.1697 0.687229 10.1697 1.06649C9.79042 1.06649 9.41117 1.06649 9.03191 1.06649C9.03191 1.44575 9.03191 1.825 9.03191 2.20427C8.65265 2.20427 8.2734 2.20427 7.89413 2.20427C7.89413 2.58353 7.89413 2.96278 7.89413 3.34204C7.51487 3.34204 7.13562 3.34204 6.75635 3.34204C6.75635 3.72131 6.75635 4.10056 6.75635 4.47982C6.37709 4.47982 5.99784 4.47982 5.61858 4.47982C5.61858 4.85909 5.61858 5.23834 5.61858 5.6176C5.23931 5.6176 4.86006 5.6176 4.4808 5.6176C4.4808 5.99686 4.4808 6.37611 4.4808 6.75538C4.10153 6.75538 3.72228 6.75538 3.34302 6.75538C3.34302 7.13464 3.34302 7.51389 3.34302 7.89316C2.96376 7.89316 2.58451 7.89316 2.20524 7.89316C2.20524 8.27242 2.20524 8.65167 2.20524 9.03093C1.82598 9.03093 1.44673 9.03093 1.06747 9.03093C1.06747 9.4102 1.06747 9.78945 1.06747 10.1687C0.688206 10.1687 0.308947 10.1687 -0.0703125 10.1687C-0.0703125 9.03093 -0.0703125 7.89316 -0.0703125 6.75538C0.308947 6.75538 0.688206 6.75538 1.06747 6.75538C1.06747 6.37611 1.06747 5.99686 1.06747 5.6176C1.44673 5.6176 1.82598 5.6176 2.20524 5.6176C2.20524 5.23834 2.20524 4.85909 2.20524 4.47982C2.58451 4.47982 2.96376 4.47982 3.34302 4.47982C3.34302 4.10056 3.34302 3.72131 3.34302 3.34204C3.72228 3.34204 4.10153 3.34204 4.4808 3.34204C4.4808 2.96278 4.4808 2.58353 4.4808 2.20427C4.86006 2.20427 5.23931 2.20427 5.61858 2.20427C5.61858 1.825 5.61858 1.44575 5.61858 1.06649C5.99784 1.06649 6.37709 1.06649 6.75635 1.06649C6.75635 0.687229 6.75635 0.307971 6.75635 -0.0712891Z"
            fill="#6C1BD0" />
        <path fill-rule="evenodd" clip-rule="evenodd"
            d="M10.1697 -0.0712891C11.3075 -0.0712891 12.4452 -0.0712891 13.583 -0.0712891C13.583 0.307971 13.583 0.687229 13.583 1.06649C13.2038 1.06649 12.8245 1.06649 12.4452 1.06649C12.4452 1.44575 12.4452 1.825 12.4452 2.20427C12.066 2.20427 11.6867 2.20427 11.3075 2.20427C11.3075 2.96278 11.3075 3.72131 11.3075 4.47982C10.549 4.47982 9.79042 4.47982 9.03191 4.47982C9.03191 4.85909 9.03191 5.23834 9.03191 5.6176C8.65265 5.6176 8.2734 5.6176 7.89413 5.6176C7.89413 5.99686 7.89413 6.37611 7.89413 6.75538C7.51487 6.75538 7.13562 6.75538 6.75635 6.75538C6.75635 7.13464 6.75635 7.51389 6.75635 7.89316C6.37709 7.89316 5.99784 7.89316 5.61858 7.89316C5.61858 8.65167 5.61858 9.4102 5.61858 10.1687C5.23931 10.1687 4.86006 10.1687 4.4808 10.1687C4.4808 10.548 4.4808 10.9272 4.4808 11.3065C4.10153 11.3065 3.72228 11.3065 3.34302 11.3065C3.34302 11.6858 3.34302 12.065 3.34302 12.4443C2.96376 12.4443 2.58451 12.4443 2.20524 12.4443C2.20524 12.8235 2.20524 13.2028 2.20524 13.582C1.44673 13.582 0.688206 13.582 -0.0703125 13.582C-0.0703125 12.4443 -0.0703125 11.3065 -0.0703125 10.1687C0.308947 10.1687 0.688206 10.1687 1.06747 10.1687C1.06747 9.78945 1.06747 9.4102 1.06747 9.03093C1.44673 9.03093 1.82598 9.03093 2.20524 9.03093C2.20524 8.65167 2.20524 8.27242 2.20524 7.89316C2.58451 7.89316 2.96376 7.89316 3.34302 7.89316C3.34302 7.51389 3.34302 7.13464 3.34302 6.75538C3.72228 6.75538 4.10153 6.75538 4.4808 6.75538C4.4808 6.37611 4.4808 5.99686 4.4808 5.6176C4.86006 5.6176 5.23931 5.6176 5.61858 5.6176C5.61858 5.23834 5.61858 4.85909 5.61858 4.47982C5.99784 4.47982 6.37709 4.47982 6.75635 4.47982C6.75635 4.10056 6.75635 3.72131 6.75635 3.34204C7.13562 3.34204 7.51487 3.34204 7.89413 3.34204C7.89413 2.96278 7.89413 2.58353 7.89413 2.20427C8.2734 2.20427 8.65265 2.20427 9.03191 2.20427C9.03191 1.825 9.03191 1.44575 9.03191 1.06649C9.41117 1.06649 9.79042 1.06649 10.1697 1.06649C10.1697 0.687229 10.1697 0.307971 10.1697 -0.0712891Z"
            fill="#681AC9" />
        <path fill-rule="evenodd" clip-rule="evenodd"
            d="M18.1342 -0.0712891C20.4098 -0.0712891 22.6853 -0.0712891 24.9609 -0.0712891C24.9609 0.307971 24.9609 0.687229 24.9609 1.06649C24.5816 1.06649 24.2024 1.06649 23.8231 1.06649C23.8231 1.44575 23.8231 1.825 23.8231 2.20427C23.4438 2.20427 23.0646 2.20427 22.6853 2.20427C22.6853 2.58353 22.6853 2.96278 22.6853 3.34204C22.306 3.34204 21.9268 3.34204 21.5475 3.34204C21.5475 3.72131 21.5475 4.10056 21.5475 4.47982C21.1682 4.47982 20.7891 4.47982 20.4098 4.47982C20.4098 4.85909 20.4098 5.23834 20.4098 5.6176C20.0305 5.6176 19.6513 5.6176 19.272 5.6176C19.272 5.99686 19.272 6.37611 19.272 6.75538C18.4861 6.70967 17.7274 6.75707 16.9964 6.8976C15.4793 6.8976 13.9624 6.8976 12.4453 6.8976C12.4453 6.47093 12.4453 6.04427 12.4453 5.6176C12.8246 5.6176 13.2038 5.6176 13.5831 5.6176C13.5831 5.23834 13.5831 4.85909 13.5831 4.47982C13.9624 4.47982 14.3416 4.47982 14.7209 4.47982C14.7209 4.10056 14.7209 3.72131 14.7209 3.34204C15.1002 3.34204 15.4793 3.34204 15.8586 3.34204C15.8586 2.96278 15.8586 2.58353 15.8586 2.20427C16.238 2.20427 16.6171 2.20427 16.9964 2.20427C16.9964 1.825 16.9964 1.44575 16.9964 1.06649C17.3757 1.06649 17.7549 1.06649 18.1342 1.06649C18.1342 0.687229 18.1342 0.307971 18.1342 -0.0712891Z"
            fill="#5B19B4" />
        <path fill-rule="evenodd" clip-rule="evenodd"
            d="M24.9609 -0.0712891C26.0986 -0.0712891 27.2364 -0.0712891 28.3742 -0.0712891C28.3742 0.307971 28.3742 0.687229 28.3742 1.06649C27.9949 1.06649 27.6157 1.06649 27.2364 1.06649C27.2364 1.44575 27.2364 1.825 27.2364 2.20427C26.8571 2.20427 26.478 2.20427 26.0986 2.20427C26.0986 2.58353 26.0986 2.96278 26.0986 3.34204C25.7193 3.34204 25.3402 3.34204 24.9609 3.34204C24.9609 3.72131 24.9609 4.10056 24.9609 4.47982C24.5816 4.47982 24.2024 4.47982 23.8231 4.47982C23.8231 4.85909 23.8231 5.23834 23.8231 5.6176C23.4438 5.6176 23.0646 5.6176 22.6853 5.6176C22.6853 5.99686 22.6853 6.37611 22.6853 6.75538C22.3032 6.73204 21.9239 6.75575 21.5475 6.82649C21.2179 7.1099 20.8387 7.27583 20.4098 7.32427C17.7549 7.32427 15.1002 7.32427 12.4453 7.32427C14.6978 7.22945 16.9734 7.13464 19.272 7.03982C18.5193 6.89834 17.7609 6.85092 16.9964 6.8976C17.7274 6.75707 18.4861 6.70967 19.272 6.75538C19.272 6.37611 19.272 5.99686 19.272 5.6176C19.6513 5.6176 20.0305 5.6176 20.4098 5.6176C20.4098 5.23834 20.4098 4.85909 20.4098 4.47982C20.7891 4.47982 21.1682 4.47982 21.5475 4.47982C21.5475 4.10056 21.5475 3.72131 21.5475 3.34204C21.9268 3.34204 22.306 3.34204 22.6853 3.34204C22.6853 2.96278 22.6853 2.58353 22.6853 2.20427C23.0646 2.20427 23.4438 2.20427 23.8231 2.20427C23.8231 1.825 23.8231 1.44575 23.8231 1.06649C24.2024 1.06649 24.5816 1.06649 24.9609 1.06649C24.9609 0.687229 24.9609 0.307971 24.9609 -0.0712891Z"
            fill="#5517AB" />
        <path fill-rule="evenodd" clip-rule="evenodd"
            d="M28.3726 -0.0712891C29.5578 -0.0712891 30.7431 -0.0712891 31.9282 -0.0712891C31.9282 1.06649 31.9282 2.20427 31.9282 3.34204C31.7898 3.69019 31.7425 4.06945 31.786 4.47982C31.4067 4.47982 31.0275 4.47982 30.6482 4.47982C30.6482 4.85909 30.6482 5.23834 30.6482 5.6176C30.2689 5.6176 29.8897 5.6176 29.5104 5.6176C29.5104 5.99686 29.5104 6.37611 29.5104 6.75538C29.1311 6.75538 28.752 6.75538 28.3726 6.75538C28.3726 7.13464 28.3726 7.51389 28.3726 7.89315C27.9933 7.89315 27.6142 7.89315 27.2349 7.89315C27.2349 8.27242 27.2349 8.65167 27.2349 9.03093C26.8556 9.03093 26.4764 9.03093 26.0971 9.03093C26.0971 9.4102 26.0971 9.78945 26.0971 10.1687C25.7178 10.1687 25.3386 10.1687 24.9593 10.1687C24.9593 10.548 24.9593 10.9272 24.9593 11.3065C24.4829 11.33 24.0088 11.3062 23.5371 11.2354C23.4337 11.0364 23.3626 10.8231 23.3238 10.5954C23.2645 10.774 23.146 10.8688 22.9682 10.8798C22.3791 9.89281 21.7865 8.89726 21.1904 7.89315C20.8822 7.75262 20.6215 7.563 20.4082 7.32427C20.8371 7.27583 21.2163 7.10989 21.546 6.82649C21.9223 6.75575 22.3016 6.73204 22.6838 6.75538C22.6838 6.37611 22.6838 5.99686 22.6838 5.6176C23.0631 5.6176 23.4422 5.6176 23.8215 5.6176C23.8215 5.23834 23.8215 4.85909 23.8215 4.47982C24.2008 4.47982 24.58 4.47982 24.9593 4.47982C24.9593 4.10056 24.9593 3.72131 24.9593 3.34204C25.3386 3.34204 25.7178 3.34204 26.0971 3.34204C26.0971 2.96278 26.0971 2.58353 26.0971 2.20427C26.4764 2.20427 26.8556 2.20427 27.2349 2.20427C27.2349 1.825 27.2349 1.44575 27.2349 1.06649C27.6142 1.06649 27.9933 1.06649 28.3726 1.06649C28.3726 0.687229 28.3726 0.307971 28.3726 -0.0712891Z"
            fill="#4F18A2" />
        <path fill-rule="evenodd" clip-rule="evenodd"
            d="M31.9288 3.3418C31.9288 4.47957 31.9288 5.61735 31.9288 6.75513C31.7904 7.10328 31.743 7.48254 31.7865 7.89291C31.4072 7.89291 31.0281 7.89291 30.6488 7.89291C30.6488 8.27217 30.6488 8.65142 30.6488 9.03069C30.2694 9.03069 29.8903 9.03069 29.511 9.03069C29.511 9.40995 29.511 9.7892 29.511 10.1685C29.1317 10.1685 28.7525 10.1685 28.3732 10.1685C28.3732 10.5477 28.3732 10.927 28.3732 11.3062C27.9939 11.3062 27.6147 11.3062 27.2354 11.3062C27.2354 11.6855 27.2354 12.0648 27.2354 12.444C26.8561 12.444 26.4769 12.444 26.0976 12.444C26.1086 12.9723 26.0612 13.4938 25.9554 14.0085C25.8132 14.0085 25.671 14.0085 25.5288 14.0085C25.5288 13.8662 25.5288 13.724 25.5288 13.5818C25.0086 13.6492 24.9849 13.8388 25.4576 14.1507C25.5686 14.4191 25.5448 14.6561 25.3865 14.8618C24.5112 13.5868 23.7053 12.2594 22.9688 10.8796C23.1465 10.8686 23.265 10.7738 23.3243 10.5951C23.3631 10.8229 23.4342 11.0362 23.5376 11.2351C24.0094 11.306 24.4834 11.3297 24.9599 11.3062C24.9599 10.927 24.9599 10.5477 24.9599 10.1685C25.3392 10.1685 25.7183 10.1685 26.0976 10.1685C26.0976 9.7892 26.0976 9.40995 26.0976 9.03069C26.4769 9.03069 26.8561 9.03069 27.2354 9.03069C27.2354 8.65142 27.2354 8.27217 27.2354 7.89291C27.6147 7.89291 27.9939 7.89291 28.3732 7.89291C28.3732 7.51364 28.3732 7.13439 28.3732 6.75513C28.7525 6.75513 29.1317 6.75513 29.511 6.75513C29.511 6.37587 29.511 5.99662 29.511 5.61735C29.8903 5.61735 30.2694 5.61735 30.6488 5.61735C30.6488 5.23809 30.6488 4.85884 30.6488 4.47957C31.0281 4.47957 31.4072 4.47957 31.7865 4.47957C31.743 4.06921 31.7904 3.68994 31.9288 3.3418Z"
            fill="#491896" />
        <path fill-rule="evenodd" clip-rule="evenodd"
            d="M12.4443 7.32442C15.0991 7.32442 17.7539 7.32442 20.4087 7.32442C20.6221 7.56315 20.8828 7.75278 21.1909 7.89331C21.787 8.89741 22.3796 9.89297 22.9687 10.88C23.7053 12.2598 24.5111 13.5872 25.3865 14.8622C25.6104 15.6427 25.563 16.4012 25.2443 17.1378C24.4935 18.2347 23.8299 19.3962 23.2532 20.6222C23.4159 20.9967 23.6055 21.3522 23.8221 21.6889C24.1925 22.4158 24.5956 23.1269 25.0309 23.8222C25.122 24.0732 25.0982 24.3103 24.9598 24.5333C20.5033 24.5571 16.0471 24.5333 11.5909 24.4622C11.3134 24.4101 11.0763 24.2917 10.8798 24.1066C10.0365 22.846 9.23061 21.566 8.46206 20.2666C8.21148 19.7174 7.92703 19.196 7.60873 18.7022C7.16924 17.9656 6.76627 17.207 6.39984 16.4266C6.30614 15.9448 6.32983 15.4708 6.47095 15.0044C7.45049 13.4912 8.35124 11.9267 9.17317 10.3111C9.74651 9.54624 10.268 8.74033 10.7376 7.89331C11.225 7.46 11.7939 7.27038 12.4443 7.32442Z"
            fill="#FBFAFB" />
        <path fill-rule="evenodd" clip-rule="evenodd"
            d="M13.583 -0.0712891C15.1001 -0.0712891 16.617 -0.0712891 18.1341 -0.0712891C18.1341 0.307971 18.1341 0.687229 18.1341 1.06649C17.7548 1.06649 17.3757 1.06649 16.9964 1.06649C16.9964 1.44575 16.9964 1.825 16.9964 2.20427C16.617 2.20427 16.2379 2.20427 15.8586 2.20427C15.8586 2.58353 15.8586 2.96278 15.8586 3.34204C15.4793 3.34204 15.1001 3.34204 14.7208 3.34204C14.7208 3.72131 14.7208 4.10056 14.7208 4.47982C14.3415 4.47982 13.9623 4.47982 13.583 4.47982C13.583 4.85909 13.583 5.23834 13.583 5.6176C13.2038 5.6176 12.8245 5.6176 12.4452 5.6176C12.4452 6.04427 12.4452 6.47093 12.4452 6.8976C13.9623 6.8976 15.4793 6.8976 16.9964 6.8976C17.7608 6.85092 18.5193 6.89834 19.2719 7.03982C16.9733 7.13464 14.6978 7.22945 12.4452 7.32427C11.7949 7.27022 11.226 7.45985 10.7386 7.89316C10.269 8.74017 9.74747 9.54609 9.17413 10.3109C8.79953 10.1159 8.46767 10.1871 8.17858 10.5243C7.98497 10.7496 7.89015 11.0103 7.89413 11.3065C7.51487 11.3065 7.13562 11.3065 6.75635 11.3065C6.75635 11.6858 6.75635 12.065 6.75635 12.4443C6.37709 12.4443 5.99784 12.4443 5.61858 12.4443C5.61858 12.8235 5.61858 13.2028 5.61858 13.582C5.23931 13.582 4.86006 13.582 4.4808 13.582C4.4808 13.9613 4.4808 14.3405 4.4808 14.7198C4.10153 14.7198 3.72228 14.7198 3.34302 14.7198C3.34302 15.0991 3.34302 15.4783 3.34302 15.8576C2.96376 15.8576 2.58451 15.8576 2.20524 15.8576C2.20524 16.2369 2.20524 16.6161 2.20524 16.9954C1.82598 16.9954 1.44673 16.9954 1.06747 16.9954C1.06747 17.3747 1.06747 17.7538 1.06747 18.1332C0.688206 18.1332 0.308947 18.1332 -0.0703125 18.1332C-0.0703125 16.6161 -0.0703125 15.0991 -0.0703125 13.582C0.688206 13.582 1.44673 13.582 2.20524 13.582C2.20524 13.2028 2.20524 12.8235 2.20524 12.4443C2.58451 12.4443 2.96376 12.4443 3.34302 12.4443C3.34302 12.065 3.34302 11.6858 3.34302 11.3065C3.72228 11.3065 4.10153 11.3065 4.4808 11.3065C4.4808 10.9272 4.4808 10.548 4.4808 10.1687C4.86006 10.1687 5.23931 10.1687 5.61858 10.1687C5.61858 9.4102 5.61858 8.65167 5.61858 7.89316C5.99784 7.89316 6.37709 7.89316 6.75635 7.89316C6.75635 7.51389 6.75635 7.13464 6.75635 6.75538C7.13562 6.75538 7.51487 6.75538 7.89413 6.75538C7.89413 6.37611 7.89413 5.99686 7.89413 5.6176C8.2734 5.6176 8.65265 5.6176 9.03191 5.6176C9.03191 5.23834 9.03191 4.85909 9.03191 4.47982C9.79042 4.47982 10.549 4.47982 11.3075 4.47982C11.3075 3.72131 11.3075 2.96278 11.3075 2.20427C11.6867 2.20427 12.066 2.20427 12.4452 2.20427C12.4452 1.825 12.4452 1.44575 12.4452 1.06649C12.8245 1.06649 13.2038 1.06649 13.583 1.06649C13.583 0.687229 13.583 0.307971 13.583 -0.0712891Z"
            fill="#6219BF" />
        <path fill-rule="evenodd" clip-rule="evenodd"
            d="M19.2716 9.88486C19.688 10.0401 19.9961 10.3245 20.1961 10.7382C20.9688 12.0466 21.7035 13.374 22.4005 14.7204C22.4233 14.9621 22.3996 15.1991 22.3294 15.4315C22.0233 14.3137 21.7862 14.3137 21.6183 15.4315C21.548 15.1991 21.5244 14.9621 21.5472 14.7204C21.1679 14.7204 20.7887 14.7204 20.4094 14.7204C20.4094 15.0997 20.4094 15.4789 20.4094 15.8582C20.0301 15.8582 19.6509 15.8582 19.2716 15.8582C19.2716 16.2375 19.2716 16.6167 19.2716 16.996C18.8923 16.996 18.5131 16.996 18.1338 16.996C18.1338 17.3753 18.1338 17.7544 18.1338 18.1337C17.7545 18.1337 17.3754 18.1337 16.9961 18.1337C16.9961 18.5131 16.9961 18.8922 16.9961 19.2715C16.6168 19.2715 16.2376 19.2715 15.8583 19.2715C15.8583 19.6508 15.8583 20.03 15.8583 20.4093C15.479 20.4093 15.0998 20.4093 14.7205 20.4093C14.7205 20.7886 14.7205 21.1678 14.7205 21.5471C15.8593 21.5235 16.9971 21.5471 18.1338 21.6182C16.1907 21.6893 14.247 21.7131 12.3027 21.6893C12.2947 21.2602 12.2473 21.2129 12.1605 21.5471C12.0359 21.5657 11.941 21.5184 11.8761 21.4049C11.4887 20.6889 11.1094 19.9778 10.7383 19.2715C10.9993 19.1831 11.1652 18.9933 11.2361 18.7026C11.2835 18.0864 11.3309 17.47 11.3783 16.8537C11.6238 17.0068 11.8845 17.0305 12.1605 16.9249C11.9066 16.7595 11.6222 16.6646 11.3072 16.6404C13.2035 16.5931 15.0998 16.5456 16.9961 16.4982C15.8553 16.4743 14.7175 16.4032 13.5827 16.2849C14.7428 16.19 15.8806 16.0953 16.9961 16.0004C17.2504 16.0409 17.4874 15.9936 17.7072 15.8582C17.6895 15.7719 17.6422 15.7245 17.5649 15.716C17.3198 15.2958 17.1302 14.8454 16.9961 14.3649C17.3168 13.6051 17.6961 12.8703 18.1338 12.1604C16.6197 12.0184 15.1027 11.971 13.5827 12.0182C14.9326 11.9001 16.3074 11.829 17.7072 11.8049C17.8494 11.7575 17.9916 11.71 18.1338 11.6626C16.6197 11.5447 16.6197 11.4736 18.1338 11.4493C18.1338 11.0226 18.1338 10.596 18.1338 10.1693C16.9067 10.0451 15.3897 9.97398 13.5827 9.95597C15.4784 9.88487 17.3748 9.86117 19.2716 9.88486Z"
            fill="#4E19A0" />
        <path fill-rule="evenodd" clip-rule="evenodd"
            d="M31.9295 6.75586C31.9295 8.65215 31.9295 10.5485 31.9295 12.4447C31.5028 12.4447 31.0761 12.4447 30.6495 12.4447C30.6495 12.824 30.6495 13.2033 30.6495 13.5825C30.2702 13.5825 29.891 13.5825 29.5117 13.5825C29.5117 13.9618 29.5117 14.341 29.5117 14.7203C29.1324 14.7203 28.7532 14.7203 28.3739 14.7203C28.3739 15.0996 28.3739 15.4788 28.3739 15.8581C27.9946 15.8581 27.6154 15.8581 27.2361 15.8581C27.2361 16.2374 27.2361 16.6166 27.2361 16.9959C26.8568 16.9959 26.4777 16.9959 26.0984 16.9959C26.1652 17.4843 25.9994 17.8636 25.6006 18.1336C25.3405 17.9963 25.0798 17.9725 24.8184 18.0625C25.0958 17.8159 25.2381 17.5077 25.245 17.1381C25.5637 16.4015 25.6111 15.643 25.3872 14.8625C25.5455 14.6569 25.5693 14.4198 25.4584 14.1514C24.9856 13.8396 25.0094 13.6499 25.5295 13.5825C25.5295 13.7247 25.5295 13.867 25.5295 14.0092C25.6717 14.0092 25.8139 14.0092 25.9561 14.0092C26.062 13.4946 26.1093 12.9731 26.0984 12.4447C26.4777 12.4447 26.8568 12.4447 27.2361 12.4447C27.2361 12.0655 27.2361 11.6862 27.2361 11.307C27.6154 11.307 27.9946 11.307 28.3739 11.307C28.3739 10.9277 28.3739 10.5485 28.3739 10.1692C28.7532 10.1692 29.1324 10.1692 29.5117 10.1692C29.5117 9.78993 29.5117 9.41068 29.5117 9.03141C29.891 9.03141 30.2702 9.03141 30.6495 9.03141C30.6495 8.65215 30.6495 8.2729 30.6495 7.89364C31.0288 7.89364 31.4079 7.89364 31.7872 7.89364C31.7437 7.48327 31.7911 7.10401 31.9295 6.75586Z"
            fill="#43168F" />
        <path fill-rule="evenodd" clip-rule="evenodd"
            d="M13.5829 12.0177C15.1028 11.9705 16.6199 12.0179 18.134 12.1599C17.6963 12.8697 17.317 13.6046 16.9962 14.3643C17.1304 14.8449 17.3199 15.2953 17.5651 15.7154C15.574 15.905 13.5829 15.905 11.5918 15.7154C12.3191 14.5148 12.9828 13.2823 13.5829 12.0177Z"
            fill="#FCFBFC" />
        <path fill-rule="evenodd" clip-rule="evenodd"
            d="M31.9295 12.4443C31.9295 13.2028 31.9295 13.9614 31.9295 14.7199C31.7911 15.0681 31.7437 15.4474 31.7872 15.8577C31.4079 15.8577 31.0288 15.8577 30.6495 15.8577C30.6495 16.237 30.6495 16.6161 30.6495 16.9954C30.2702 16.9954 29.891 16.9954 29.5117 16.9954C29.5117 17.3748 29.5117 17.7539 29.5117 18.1332C29.1324 18.1332 28.7532 18.1332 28.3739 18.1332C28.3739 18.5125 28.3739 18.8917 28.3739 19.271C27.9946 19.271 27.6154 19.271 27.2361 19.271C27.2361 19.6503 27.2361 20.0295 27.2361 20.4088C26.8568 20.4088 26.4777 20.4088 26.0984 20.4088C26.0984 20.7881 26.0984 21.1673 26.0984 21.5466C25.5036 21.521 24.9347 21.6158 24.3917 21.831C24.3642 22.3926 24.2931 22.3926 24.1784 21.831C24.0829 21.7241 23.9644 21.6765 23.8228 21.6888C23.6062 21.3521 23.4166 20.9966 23.2539 20.6221C23.8306 19.3962 24.4942 18.2346 25.245 17.1377C25.238 17.5073 25.0958 17.8155 24.8184 18.0621C25.0798 17.9721 25.3404 17.9958 25.6006 18.1332C25.9994 17.8631 26.1652 17.4838 26.0984 16.9954C26.4777 16.9954 26.8568 16.9954 27.2361 16.9954C27.2361 16.6161 27.2361 16.237 27.2361 15.8577C27.6154 15.8577 27.9946 15.8577 28.3739 15.8577C28.3739 15.4784 28.3739 15.0992 28.3739 14.7199C28.7532 14.7199 29.1324 14.7199 29.5117 14.7199C29.5117 14.3406 29.5117 13.9614 29.5117 13.5821C29.891 13.5821 30.2702 13.5821 30.6495 13.5821C30.6495 13.2028 30.6495 12.8236 30.6495 12.4443C31.0761 12.4443 31.5028 12.4443 31.9295 12.4443Z"
            fill="#3D1786" />
        <path fill-rule="evenodd" clip-rule="evenodd"
            d="M9.17413 10.3113C8.3522 11.9269 7.45145 13.4914 6.47191 15.0046C6.43169 14.8924 6.36058 14.7975 6.25858 14.7201C6.21117 15.052 6.16376 15.3839 6.11635 15.7157C5.95749 15.5096 5.86267 15.2725 5.83191 15.0046C5.7608 15.2179 5.68969 15.4313 5.61858 15.6446C5.83784 16.0762 5.90895 16.5267 5.83191 16.9957C5.78451 16.9008 5.73709 16.8061 5.68969 16.7113C5.34039 16.9702 4.93743 17.0651 4.4808 16.9957C4.4808 17.375 4.4808 17.7542 4.4808 18.1335C4.10153 18.1335 3.72228 18.1335 3.34302 18.1335C3.34302 18.5128 3.34302 18.892 3.34302 19.2713C2.96376 19.2713 2.58451 19.2713 2.20524 19.2713C2.20524 19.6506 2.20524 20.0297 2.20524 20.409C1.82598 20.409 1.44673 20.409 1.06747 20.409C1.06747 20.7883 1.06747 21.1675 1.06747 21.5468C0.688206 21.5468 0.308947 21.5468 -0.0703125 21.5468C-0.0703125 20.409 -0.0703125 19.2713 -0.0703125 18.1335C0.308947 18.1335 0.688206 18.1335 1.06747 18.1335C1.06747 17.7542 1.06747 17.375 1.06747 16.9957C1.44673 16.9957 1.82598 16.9957 2.20524 16.9957C2.20524 16.6164 2.20524 16.2372 2.20524 15.8579C2.58451 15.8579 2.96376 15.8579 3.34302 15.8579C3.34302 15.4786 3.34302 15.0995 3.34302 14.7201C3.72228 14.7201 4.10153 14.7201 4.4808 14.7201C4.4808 14.3408 4.4808 13.9616 4.4808 13.5824C4.86006 13.5824 5.23931 13.5824 5.61858 13.5824C5.61858 13.2031 5.61858 12.8239 5.61858 12.4446C5.99784 12.4446 6.37709 12.4446 6.75635 12.4446C6.75635 12.0653 6.75635 11.6861 6.75635 11.3068C7.13562 11.3068 7.51487 11.3068 7.89413 11.3068C7.89015 11.0107 7.98497 10.7499 8.17858 10.5246C8.46767 10.1874 8.79953 10.1163 9.17413 10.3113Z"
            fill="#5D1AB9" />
        <path fill-rule="evenodd" clip-rule="evenodd"
            d="M11.5914 15.7158C13.5826 15.9054 15.5737 15.9054 17.5648 15.7158C17.642 15.7244 17.6894 15.7717 17.707 15.858C17.4873 15.9934 17.2502 16.0408 16.9959 16.0003C15.1446 16.0475 13.2957 16.0001 11.4492 15.858C11.4668 15.7717 11.5142 15.7244 11.5914 15.7158Z"
            fill="#C1A8DB" />
        <path fill-rule="evenodd" clip-rule="evenodd"
            d="M22.4002 14.7201C22.8739 15.1299 23.0399 15.6513 22.8979 16.2845C21.8971 18.2314 20.7831 20.104 19.5557 21.9023C17.1984 22.1351 14.828 22.1825 12.4446 22.0445C12.2565 21.9285 12.1617 21.7625 12.1602 21.5467C12.247 21.2125 12.2944 21.2599 12.3024 21.689C14.2467 21.7127 16.1903 21.689 18.1335 21.6178C16.9967 21.5467 15.8589 21.5231 14.7202 21.5467C14.7202 21.1674 14.7202 20.7883 14.7202 20.409C15.0995 20.409 15.4786 20.409 15.8579 20.409C15.8579 20.0296 15.8579 19.6505 15.8579 19.2712C16.2372 19.2712 16.6164 19.2712 16.9957 19.2712C16.9957 18.8919 16.9957 18.5127 16.9957 18.1334C17.375 18.1334 17.7542 18.1334 18.1335 18.1334C18.1335 17.7541 18.1335 17.3749 18.1335 16.9956C18.5128 16.9956 18.892 16.9956 19.2713 16.9956C19.2713 16.6163 19.2713 16.2371 19.2713 15.8578C19.6506 15.8578 20.0297 15.8578 20.409 15.8578C20.409 15.4785 20.409 15.0994 20.409 14.7201C20.7884 14.7201 21.1675 14.7201 21.5468 14.7201C21.5241 14.9617 21.5477 15.1988 21.6179 15.4312C21.7859 14.3133 22.023 14.3133 22.329 15.4312C22.3993 15.1988 22.4229 14.9617 22.4002 14.7201Z"
            fill="#491895" />
        <path fill-rule="evenodd" clip-rule="evenodd"
            d="M19.2713 9.88487C17.3744 9.86117 15.478 9.88488 13.5824 9.95598C15.3893 9.97398 16.9064 10.0451 18.1335 10.1693C18.1335 10.596 18.1335 11.0226 18.1335 11.4493C16.6194 11.4736 16.6194 11.5447 18.1335 11.6626C17.9913 11.71 17.849 11.7575 17.7068 11.8049C16.3071 11.829 14.9322 11.9002 13.5824 12.0182C12.9823 13.2828 12.3186 14.5153 11.5913 15.716C11.514 15.7245 11.4666 15.7719 11.449 15.8582C13.2955 16.0003 15.1444 16.0476 16.9957 16.0004C15.8802 16.0953 14.7425 16.19 13.5824 16.2849C14.7172 16.4032 15.8549 16.4743 16.9957 16.4982C15.0994 16.5456 13.2031 16.5931 11.3068 16.6404C11.6218 16.6646 11.9062 16.7595 12.1601 16.9249C11.8841 17.0305 11.6234 17.0068 11.3779 16.8538C11.3305 17.47 11.2831 18.0864 11.2357 18.7026C11.1648 18.9933 10.9989 19.1831 10.7379 19.2715C10.1983 18.3845 9.65308 17.4837 9.10236 16.5693C9.00755 16.1426 9.00755 15.716 9.10236 15.2893C10.0865 13.6532 11.0346 11.9939 11.9468 10.3115C12.1195 10.0913 12.3328 9.92533 12.5868 9.81375C14.8395 9.69599 17.0675 9.7197 19.2713 9.88487Z"
            fill="#5719AE" />
        <path fill-rule="evenodd" clip-rule="evenodd"
            d="M6.47191 15.0042C6.3308 15.4705 6.3071 15.9445 6.4008 16.4264C6.76723 17.2068 7.17021 17.9654 7.60969 18.7019C7.62213 19.1426 7.55102 19.1901 7.39635 18.8442C7.30153 19.0338 7.15931 19.176 6.96969 19.2708C7.00704 19.0645 6.98333 18.8749 6.89858 18.7019C6.75765 19.263 6.71025 19.8319 6.75635 20.4086C5.99784 20.4086 5.23931 20.4086 4.4808 20.4086C4.4808 20.7879 4.4808 21.1671 4.4808 21.5464C4.10153 21.5464 3.72228 21.5464 3.34302 21.5464C3.34302 21.9257 3.34302 22.3049 3.34302 22.6842C2.96376 22.6842 2.58451 22.6842 2.20524 22.6842C2.20524 23.0635 2.20524 23.4426 2.20524 23.8219C1.82598 23.8219 1.44673 23.8219 1.06747 23.8219C1.06747 24.2013 1.06747 24.5804 1.06747 24.9597C0.688206 24.9597 0.308947 24.9597 -0.0703125 24.9597C-0.0703125 23.8219 -0.0703125 22.6842 -0.0703125 21.5464C0.308947 21.5464 0.688206 21.5464 1.06747 21.5464C1.06747 21.1671 1.06747 20.7879 1.06747 20.4086C1.44673 20.4086 1.82598 20.4086 2.20524 20.4086C2.20524 20.0293 2.20524 19.6501 2.20524 19.2708C2.58451 19.2708 2.96376 19.2708 3.34302 19.2708C3.34302 18.8915 3.34302 18.5124 3.34302 18.1331C3.72228 18.1331 4.10153 18.1331 4.4808 18.1331C4.4808 17.7538 4.4808 17.3746 4.4808 16.9953C4.93743 17.0647 5.34039 16.9698 5.68969 16.7108C5.73709 16.8057 5.78451 16.9004 5.83191 16.9953C5.90895 16.5262 5.83784 16.0758 5.61858 15.6442C5.68969 15.4308 5.7608 15.2175 5.83191 15.0042C5.86267 15.2721 5.95749 15.5092 6.11635 15.7153C6.16376 15.3835 6.21117 15.0515 6.25858 14.7197C6.36058 14.7971 6.43169 14.892 6.47191 15.0042Z"
            fill="#5A19B1" />
        <path fill-rule="evenodd" clip-rule="evenodd"
            d="M7.60969 18.7021C7.928 19.1959 8.21244 19.7173 8.46302 20.2666C8.45375 20.5789 8.35893 20.8634 8.17858 21.1199C8.0718 20.9953 8.00069 20.8531 7.96524 20.6933C7.8726 20.94 7.89631 21.1771 8.03635 21.4044C7.61991 21.5443 7.19325 21.5917 6.75635 21.5466C6.75635 21.9259 6.75635 22.3051 6.75635 22.6844C6.37709 22.6844 5.99784 22.6844 5.61858 22.6844C5.61858 23.0637 5.61858 23.4428 5.61858 23.8221C5.23931 23.8221 4.86006 23.8221 4.4808 23.8221C4.4808 24.2015 4.4808 24.5806 4.4808 24.9599C4.10153 24.9599 3.72228 24.9599 3.34302 24.9599C3.34302 25.3392 3.34302 25.7184 3.34302 26.0977C2.96376 26.0977 2.58451 26.0977 2.20524 26.0977C2.20524 26.477 2.20524 26.8562 2.20524 27.2355C1.82598 27.2355 1.44673 27.2355 1.06747 27.2355C1.06747 27.6148 1.06747 27.994 1.06747 28.3733C0.688206 28.3733 0.308947 28.3733 -0.0703125 28.3733C-0.0703125 27.2355 -0.0703125 26.0977 -0.0703125 24.9599C0.308947 24.9599 0.688206 24.9599 1.06747 24.9599C1.06747 24.5806 1.06747 24.2015 1.06747 23.8221C1.44673 23.8221 1.82598 23.8221 2.20524 23.8221C2.20524 23.4428 2.20524 23.0637 2.20524 22.6844C2.58451 22.6844 2.96376 22.6844 3.34302 22.6844C3.34302 22.3051 3.34302 21.9259 3.34302 21.5466C3.72228 21.5466 4.10153 21.5466 4.4808 21.5466C4.4808 21.1673 4.4808 20.7881 4.4808 20.4088C5.23931 20.4088 5.99784 20.4088 6.75635 20.4088C6.71025 19.8321 6.75765 19.2632 6.89858 18.7021C6.98333 18.8751 7.00704 19.0647 6.96969 19.271C7.15931 19.1762 7.30153 19.034 7.39635 18.8444C7.55102 19.1903 7.62213 19.1428 7.60969 18.7021Z"
            fill="#5518AB" />
        <path fill-rule="evenodd" clip-rule="evenodd"
            d="M31.9287 14.7197C31.9287 17.3746 31.9287 20.0293 31.9287 22.6842C31.502 22.6842 31.0754 22.6842 30.6487 22.6842C30.6487 23.0635 30.6487 23.4426 30.6487 23.8219C30.2694 23.8219 29.8902 23.8219 29.5109 23.8219C29.5109 24.2013 29.5109 24.5804 29.5109 24.9597C29.1316 24.9597 28.7524 24.9597 28.3731 24.9597C28.3731 25.339 28.3731 25.7182 28.3731 26.0975C27.9938 26.0975 27.6147 26.0975 27.2354 26.0975C27.2354 26.4768 27.2354 26.856 27.2354 27.2353C26.856 27.2353 26.4769 27.2353 26.0976 27.2353C26.0976 27.6146 26.0976 27.9938 26.0976 28.3731C25.7183 28.3731 25.3391 28.3731 24.9598 28.3731C24.9598 28.7524 24.9598 29.1315 24.9598 29.5108C24.5805 29.5108 24.2013 29.5108 23.822 29.5108C23.822 29.8901 23.822 30.2693 23.822 30.6486C23.4427 30.6486 23.0636 30.6486 22.6842 30.6486C22.6842 31.0753 22.6842 31.5019 22.6842 31.9286C20.0294 31.9286 17.3747 31.9286 14.7198 31.9286C15.068 31.7902 15.4473 31.7429 15.8576 31.7864C15.8576 31.4071 15.8576 31.0279 15.8576 30.6486C16.2369 30.6486 16.616 30.6486 16.9954 30.6486C16.9954 30.2693 16.9954 29.8901 16.9954 29.5108C17.3747 29.5108 17.7538 29.5108 18.1331 29.5108C18.1331 29.1315 18.1331 28.7524 18.1331 28.3731C18.5124 28.3731 18.8916 28.3731 19.2709 28.3731C19.2709 27.9938 19.2709 27.6146 19.2709 27.2353C19.6502 27.2353 20.0294 27.2353 20.4087 27.2353C20.4087 26.856 20.4087 26.4768 20.4087 26.0975C20.788 26.0975 21.1672 26.0975 21.5465 26.0975C21.5465 25.7182 21.5465 25.339 21.5465 24.9597C22.7326 24.9833 23.9177 24.9597 25.102 24.8886C23.1588 24.8175 21.2152 24.7938 19.2709 24.8175C16.8527 24.8413 14.4349 24.8175 12.0176 24.7464C16.3558 24.7225 20.6698 24.6514 24.9598 24.5331C25.0982 24.3101 25.1219 24.073 25.0309 23.8219C24.5956 23.1266 24.1925 22.4155 23.822 21.6886C23.9637 21.6764 24.0821 21.7239 24.1776 21.8308C24.2924 22.3925 24.3635 22.3925 24.3909 21.8308C24.9339 21.6157 25.5028 21.5208 26.0976 21.5464C26.0976 21.1671 26.0976 20.7879 26.0976 20.4086C26.4769 20.4086 26.856 20.4086 27.2354 20.4086C27.2354 20.0293 27.2354 19.6501 27.2354 19.2708C27.6147 19.2708 27.9938 19.2708 28.3731 19.2708C28.3731 18.8915 28.3731 18.5124 28.3731 18.1331C28.7524 18.1331 29.1316 18.1331 29.5109 18.1331C29.5109 17.7538 29.5109 17.3746 29.5109 16.9953C29.8902 16.9953 30.2694 16.9953 30.6487 16.9953C30.6487 16.616 30.6487 16.2368 30.6487 15.8575C31.028 15.8575 31.4072 15.8575 31.7865 15.8575C31.7429 15.4472 31.7903 15.0679 31.9287 14.7197Z"
            fill="#38167C" />
        <path fill-rule="evenodd" clip-rule="evenodd"
            d="M31.928 22.6846C31.928 23.443 31.928 24.2017 31.928 24.9601C31.7897 25.3083 31.7423 25.6876 31.7858 26.0979C31.4065 26.0979 31.0273 26.0979 30.648 26.0979C30.648 26.4772 30.648 26.8564 30.648 27.2357C30.2687 27.2357 29.8896 27.2357 29.5103 27.2357C29.5103 27.615 29.5103 27.9942 29.5103 28.3735C29.131 28.3735 28.7518 28.3735 28.3725 28.3735C28.3725 28.7528 28.3725 29.1319 28.3725 29.5112C27.9932 29.5112 27.614 29.5112 27.2347 29.5112C27.2347 29.8905 27.2347 30.2697 27.2347 30.649C26.8554 30.649 26.4762 30.649 26.0969 30.649C26.0969 31.0283 26.0969 31.4075 26.0969 31.7868C25.6866 31.7433 25.3073 31.7906 24.9591 31.929C24.2007 31.929 23.4421 31.929 22.6836 31.929C22.6836 31.5023 22.6836 31.0757 22.6836 30.649C23.0629 30.649 23.4421 30.649 23.8214 30.649C23.8214 30.2697 23.8214 29.8905 23.8214 29.5112C24.2007 29.5112 24.5798 29.5112 24.9591 29.5112C24.9591 29.1319 24.9591 28.7528 24.9591 28.3735C25.3385 28.3735 25.7176 28.3735 26.0969 28.3735C26.0969 27.9942 26.0969 27.615 26.0969 27.2357C26.4762 27.2357 26.8554 27.2357 27.2347 27.2357C27.2347 26.8564 27.2347 26.4772 27.2347 26.0979C27.614 26.0979 27.9932 26.0979 28.3725 26.0979C28.3725 25.7186 28.3725 25.3394 28.3725 24.9601C28.7518 24.9601 29.131 24.9601 29.5103 24.9601C29.5103 24.5808 29.5103 24.2017 29.5103 23.8223C29.8896 23.8223 30.2687 23.8223 30.648 23.8223C30.648 23.443 30.648 23.0639 30.648 22.6846C31.0747 22.6846 31.5014 22.6846 31.928 22.6846Z"
            fill="#301672" />
        <path fill-rule="evenodd" clip-rule="evenodd"
            d="M8.46302 20.2666C9.23158 21.5659 10.0375 22.8459 10.8808 24.1066C10.8018 24.4236 10.6122 24.6606 10.3119 24.8177C10.1719 25.2341 10.1245 25.6608 10.1697 26.0977C9.79042 26.0977 9.41117 26.0977 9.03191 26.0977C9.03191 26.477 9.03191 26.8562 9.03191 27.2355C8.65265 27.2355 8.2734 27.2355 7.89413 27.2355C7.89413 27.6148 7.89413 27.994 7.89413 28.3733C7.51487 28.3733 7.13562 28.3733 6.75635 28.3733C6.75635 28.7526 6.75635 29.1317 6.75635 29.511C6.37709 29.511 5.99784 29.511 5.61858 29.511C5.61858 29.8904 5.61858 30.2695 5.61858 30.6488C5.23931 30.6488 4.86006 30.6488 4.4808 30.6488C4.4808 31.0281 4.4808 31.4073 4.4808 31.7866C4.07043 31.7431 3.69117 31.7904 3.34302 31.9288C2.20524 31.9288 1.06747 31.9288 -0.0703125 31.9288C-0.0703125 30.7437 -0.0703125 29.5584 -0.0703125 28.3733C0.308947 28.3733 0.688206 28.3733 1.06747 28.3733C1.06747 27.994 1.06747 27.6148 1.06747 27.2355C1.44673 27.2355 1.82598 27.2355 2.20524 27.2355C2.20524 26.8562 2.20524 26.477 2.20524 26.0977C2.58451 26.0977 2.96376 26.0977 3.34302 26.0977C3.34302 25.7184 3.34302 25.3392 3.34302 24.9599C3.72228 24.9599 4.10153 24.9599 4.4808 24.9599C4.4808 24.5806 4.4808 24.2015 4.4808 23.8222C4.86006 23.8222 5.23931 23.8222 5.61858 23.8222C5.61858 23.4429 5.61858 23.0637 5.61858 22.6844C5.99784 22.6844 6.37709 22.6844 6.75635 22.6844C6.75635 22.3051 6.75635 21.9259 6.75635 21.5466C7.19325 21.5917 7.61991 21.5443 8.03635 21.4044C7.89631 21.1771 7.8726 20.94 7.96524 20.6933C8.00069 20.8531 8.0718 20.9953 8.17858 21.1199C8.35893 20.8634 8.45375 20.5789 8.46302 20.2666Z"
            fill="#5018A2" />
        <path fill-rule="evenodd" clip-rule="evenodd"
            d="M10.8796 24.1064C11.0761 24.2915 11.3131 24.4099 11.5907 24.462C16.0468 24.5331 20.503 24.5569 24.9596 24.5331C20.6696 24.6514 16.3556 24.7226 12.0174 24.7464C14.4347 24.8176 16.8525 24.8413 19.2707 24.8176C18.9225 24.9559 18.5432 25.0033 18.1329 24.9598C16.9951 24.9598 15.8574 24.9598 14.7196 24.9598C14.7196 25.3391 14.7196 25.7182 14.7196 26.0976C14.3403 26.0976 13.9611 26.0976 13.5818 26.0976C13.5818 26.4769 13.5818 26.856 13.5818 27.2353C13.2025 27.2353 12.8233 27.2353 12.444 27.2353C12.444 27.6146 12.444 27.9938 12.444 28.3731C12.0648 28.3731 11.6855 28.3731 11.3062 28.3731C11.3062 28.7524 11.3062 29.1316 11.3062 29.5109C10.927 29.5109 10.5477 29.5109 10.1685 29.5109C10.1685 29.8902 10.1685 30.2694 10.1685 30.6487C9.7892 30.6487 9.40995 30.6487 9.03069 30.6487C9.03069 31.028 9.03069 31.4071 9.03069 31.7864C8.62032 31.7429 8.24105 31.7903 7.89291 31.9287C6.37587 31.9287 4.85884 31.9287 3.3418 31.9287C3.68994 31.7903 4.06921 31.7429 4.47957 31.7864C4.47957 31.4071 4.47957 31.028 4.47957 30.6487C4.85884 30.6487 5.23809 30.6487 5.61735 30.6487C5.61735 30.2694 5.61735 29.8902 5.61735 29.5109C5.99662 29.5109 6.37587 29.5109 6.75513 29.5109C6.75513 29.1316 6.75513 28.7524 6.75513 28.3731C7.13439 28.3731 7.51364 28.3731 7.89291 28.3731C7.89291 27.9938 7.89291 27.6146 7.89291 27.2353C8.27217 27.2353 8.65142 27.2353 9.03069 27.2353C9.03069 26.856 9.03069 26.4769 9.03069 26.0976C9.40995 26.0976 9.7892 26.0976 10.1685 26.0976C10.1233 25.6606 10.1707 25.234 10.3107 24.8176C10.611 24.6604 10.8006 24.4235 10.8796 24.1064Z"
            fill="#471795" />
        <path fill-rule="evenodd" clip-rule="evenodd"
            d="M18.1326 24.96C18.1326 25.3393 18.1326 25.7184 18.1326 26.0977C17.7533 26.0977 17.3741 26.0977 16.9948 26.0977C16.9948 26.477 16.9948 26.8562 16.9948 27.2355C16.6155 27.2355 16.2363 27.2355 15.857 27.2355C15.857 27.6148 15.857 27.994 15.857 28.3733C15.4777 28.3733 15.0986 28.3733 14.7192 28.3733C14.7192 28.7526 14.7192 29.1318 14.7192 29.5111C14.3399 29.5111 13.9607 29.5111 13.5815 29.5111C13.5815 29.8904 13.5815 30.2695 13.5815 30.6488C13.2022 30.6488 12.823 30.6488 12.4437 30.6488C12.5018 31.126 12.407 31.5527 12.1592 31.9288C10.737 31.9288 9.3148 31.9288 7.89258 31.9288C8.24072 31.7905 8.61999 31.7431 9.03036 31.7866C9.03036 31.4073 9.03036 31.0282 9.03036 30.6488C9.40962 30.6488 9.78887 30.6488 10.1681 30.6488C10.1681 30.2695 10.1681 29.8904 10.1681 29.5111C10.5474 29.5111 10.9266 29.5111 11.3059 29.5111C11.3059 29.1318 11.3059 28.7526 11.3059 28.3733C11.6852 28.3733 12.0644 28.3733 12.4437 28.3733C12.4437 27.994 12.4437 27.6148 12.4437 27.2355C12.823 27.2355 13.2022 27.2355 13.5815 27.2355C13.5815 26.8562 13.5815 26.477 13.5815 26.0977C13.9607 26.0977 14.3399 26.0977 14.7192 26.0977C14.7192 25.7184 14.7192 25.3393 14.7192 24.96C15.857 24.96 16.9948 24.96 18.1326 24.96Z"
            fill="#42168D" />
        <path fill-rule="evenodd" clip-rule="evenodd"
            d="M19.2713 24.8175C21.2156 24.7938 23.1592 24.8175 25.1024 24.8886C23.9181 24.9597 22.733 24.9833 21.5468 24.9597C21.5468 25.339 21.5468 25.7182 21.5468 26.0975C21.1675 26.0975 20.7884 26.0975 20.409 26.0975C20.409 26.4768 20.409 26.856 20.409 27.2353C20.0297 27.2353 19.6506 27.2353 19.2713 27.2353C19.2713 27.6146 19.2713 27.9938 19.2713 28.3731C18.892 28.3731 18.5128 28.3731 18.1335 28.3731C18.1335 28.7524 18.1335 29.1315 18.1335 29.5108C17.7542 29.5108 17.375 29.5108 16.9957 29.5108C16.9957 29.8901 16.9957 30.2693 16.9957 30.6486C16.6164 30.6486 16.2372 30.6486 15.8579 30.6486C15.8579 31.0279 15.8579 31.4071 15.8579 31.7864C15.4476 31.7429 15.0683 31.7902 14.7202 31.9286C13.8668 31.9286 13.0135 31.9286 12.1602 31.9286C12.4079 31.5524 12.5027 31.1258 12.4446 30.6486C12.8239 30.6486 13.2031 30.6486 13.5824 30.6486C13.5824 30.2693 13.5824 29.8901 13.5824 29.5108C13.9616 29.5108 14.3408 29.5108 14.7202 29.5108C14.7202 29.1315 14.7202 28.7524 14.7202 28.3731C15.0995 28.3731 15.4786 28.3731 15.8579 28.3731C15.8579 27.9938 15.8579 27.6146 15.8579 27.2353C16.2372 27.2353 16.6164 27.2353 16.9957 27.2353C16.9957 26.856 16.9957 26.4768 16.9957 26.0975C17.375 26.0975 17.7542 26.0975 18.1335 26.0975C18.1335 25.7182 18.1335 25.339 18.1335 24.9597C18.5438 25.0032 18.9231 24.9559 19.2713 24.8175Z"
            fill="#3D1687" />
        <path fill-rule="evenodd" clip-rule="evenodd"
            d="M31.9298 24.96C31.9298 27.2829 31.9298 29.6059 31.9298 31.9288C29.6069 31.9288 27.2839 31.9288 24.9609 31.9288C25.3091 31.7905 25.6884 31.7431 26.0987 31.7866C26.0987 31.4073 26.0987 31.0282 26.0987 30.6488C26.478 30.6488 26.8572 30.6488 27.2365 30.6488C27.2365 30.2695 27.2365 29.8904 27.2365 29.5111C27.6158 29.5111 27.995 29.5111 28.3743 29.5111C28.3743 29.1318 28.3743 28.7526 28.3743 28.3733C28.7536 28.3733 29.1327 28.3733 29.512 28.3733C29.512 27.994 29.512 27.6148 29.512 27.2355C29.8914 27.2355 30.2705 27.2355 30.6498 27.2355C30.6498 26.8562 30.6498 26.477 30.6498 26.0977C31.0291 26.0977 31.4083 26.0977 31.7876 26.0977C31.7441 25.6874 31.7914 25.3081 31.9298 24.96Z"
            fill="#2C156B" />
    </g>
    <defs>
        <clipPath id="clip0_5068_45">
            <rect width="32" height="32" fill="white" />
        </clipPath>
    </defs>
</svg>