<svg width="32" height="32" viewBox="0 0 32 32" fill="none" xmlns="http://www.w3.org/2000/svg">
    <path
        d="M25.7247 11.5171C25.0676 11.0267 18.9677 6.11997 15.9999 3.72791C13.1744 5.99977 7.37906 10.6588 6.8008 11.1205C6.07802 11.6974 5.25667 12.1301 4.20535 12.1663C3.15402 12.2023 2.06985 12.1663 1.51132 12.1663C0.952811 12.1663 0.854247 11.481 1.31421 11.0844C1.77415 10.6878 13.2074 1.52818 14.3901 0.626654C15.5728 -0.274874 16.7555 -0.0585077 17.314 0.374226C17.8725 0.806961 30.4228 10.8681 30.7842 11.1565C31.1455 11.445 31.0798 12.1663 30.4368 12.1663H28.123C27.433 12.1663 26.546 12.1301 25.7247 11.5171Z"
        fill="#008088" />
    <path
        d="M14.9814 18.8016V15.52H2.95685C0.854199 15.52 0 17.5755 0 18.7295V28.5382C0 31.2211 1.97124 31.9639 2.95685 32V18.8016H14.9814Z"
        fill="#008088" />
    <path d="M32 18.8014H16.9529C16.9529 17.0345 18.2341 15.4839 19.8769 15.4839H32V18.8014Z"
        fill="#008088" />
    <path d="M16.9529 25.4006V22.119H32V25.4006H16.9529Z" fill="#008088" />
    <path d="M32 31.9994V28.6819H16.9529C16.9529 30.0522 17.8399 31.9994 20.0477 31.9994H32Z"
        fill="#008088" />
</svg>