<svg width="32" height="32" viewBox="0 0 32 32" fill="none" xmlns="http://www.w3.org/2000/svg">
    <g clip-path="url(#clip0_5051_606)">
        <path fill-rule="evenodd" clip-rule="evenodd"
            d="M-0.071167 -0.071167C10.5955 -0.071167 21.2622 -0.071167 31.9288 -0.071167C31.9288 10.5955 31.9288 21.2622 31.9288 31.9288C21.2622 31.9288 10.5955 31.9288 -0.071167 31.9288C-0.071167 21.2622 -0.071167 10.5955 -0.071167 -0.071167Z"
            fill="#FEFEFD" />
        <path fill-rule="evenodd" clip-rule="evenodd"
            d="M14.5778 29.6533C18.9696 29.4603 22.5488 27.6589 25.3156 24.2489C28.2687 18.4579 27.0124 13.7883 21.5467 10.24C18.2073 8.51428 14.6991 7.92169 11.0222 8.46222C11.3265 7.50012 11.9428 6.8127 12.8711 6.4C18.8133 5.25831 23.4355 7.22571 26.7378 12.3022C29.6189 18.6748 28.1731 23.8185 22.4 27.7333C20.0128 29.2427 17.4054 29.8827 14.5778 29.6533Z"
            fill="#1C75BA" />
        <path fill-rule="evenodd" clip-rule="evenodd"
            d="M21.2622 22.6845C16.7654 23.4684 12.7358 22.4492 9.17331 19.6267C5.19446 15.685 4.69668 11.3473 7.67997 6.61337C9.17206 4.811 10.9972 3.4836 13.1555 2.63115C17.1585 1.60638 20.8563 2.2938 24.2489 4.69337C25.2554 5.41283 26.0376 6.28987 26.5955 7.32448C23.0009 3.9515 18.7578 2.60038 13.8666 3.27115C8.8431 4.64477 7.01792 7.84477 8.39109 12.8711C9.42324 14.8697 11.0114 16.2208 13.1555 16.9245C15.0937 17.6155 17.0848 18.0897 19.1289 18.3467C21.0355 19.1969 21.7466 20.6429 21.2622 22.6845Z"
            fill="#F78C20" />
        <path fill-rule="evenodd" clip-rule="evenodd"
            d="M13.1555 2.6311C10.9972 3.48356 9.17206 4.81096 7.67998 6.61333C4.69668 11.3472 5.19446 15.685 9.17331 19.6267C12.7358 22.4492 16.7654 23.4684 21.2622 22.6844C20.9918 24.0693 20.186 24.9937 18.8444 25.4578C12.2081 26.4893 7.39628 24.0004 4.40886 17.9911C2.9012 14.0106 3.47008 10.3603 6.11553 7.03999C7.95926 4.75578 10.3059 3.28615 13.1555 2.6311Z"
            fill="#F14C25" />
        <path fill-rule="evenodd" clip-rule="evenodd"
            d="M14.5777 29.6533C10.5158 29.4481 7.2921 27.7177 4.90662 24.4622C5.79026 25.1961 6.73841 25.9072 7.75106 26.5955C11.9235 29.1914 16.2376 29.4758 20.6933 27.4489C23.2388 25.7945 24.3528 23.4479 24.0355 20.4089C23.4786 17.6705 21.8904 15.7979 19.2711 14.7911C17.5561 14.1721 15.8021 13.698 14.0088 13.3689C11.4716 12.6199 10.476 10.9843 11.0222 8.46219C14.699 7.92166 18.2072 8.51424 21.5466 10.24C27.0124 13.7883 28.2686 18.4578 25.3155 24.2489C22.5487 27.6589 18.9695 29.4603 14.5777 29.6533Z"
            fill="#26537C" />
    </g>
    <defs>
        <clipPath id="clip0_5051_606">
            <rect width="32" height="32" fill="white" />
        </clipPath>
    </defs>
</svg>