<svg width="32" height="32" viewBox="0 0 32 32" fill="none" xmlns="http://www.w3.org/2000/svg">
    <g clip-path="url(#clip0_5501_345)">
        <rect width="32" height="32" fill="#FAFAFA" />
        <path opacity="0.993" fill-rule="evenodd" clip-rule="evenodd"
            d="M15.4909 8.15131C15.6233 8.29388 15.7688 8.31811 15.9273 8.22401C16.2451 8.22162 16.5602 8.24586 16.8728 8.29671C16.8808 8.34159 16.9051 8.37794 16.9455 8.40576C17.089 8.44178 17.2344 8.45389 17.3819 8.44211C17.5211 8.42143 17.6423 8.44567 17.7455 8.51481C17.964 8.64397 18.2064 8.71667 18.4728 8.73291C18.497 8.73291 18.5213 8.73291 18.5455 8.73291C18.7315 8.88612 18.9496 8.98306 19.2 9.02371C19.2243 9.02371 19.2485 9.02371 19.2728 9.02371C19.3117 9.16516 19.4086 9.23786 19.5637 9.24181C19.5879 9.24181 19.6122 9.24181 19.6364 9.24181C19.712 9.38947 19.8331 9.48641 20 9.53261C20.1111 9.52731 20.1838 9.57578 20.2182 9.67801C20.2424 9.84764 20.3395 9.94458 20.5091 9.96881C20.9703 10.4301 21.2612 10.9875 21.3819 11.6409C21.3429 11.8734 21.3914 12.0673 21.5273 12.2225C21.5273 12.6102 21.5273 12.998 21.5273 13.3857C21.4824 13.3938 21.4461 13.418 21.4182 13.4584C21.3821 13.6264 21.37 13.796 21.3819 13.9673C21.2544 14.1597 21.1816 14.3778 21.1637 14.6216C21.1486 14.8209 21.0759 14.9905 20.9455 15.1305C20.8432 15.1649 20.7947 15.2376 20.8 15.3486C20.567 15.8 20.2519 16.1877 19.8546 16.5118C19.7576 16.5118 19.7091 16.5603 19.7091 16.6572C19.5981 16.6519 19.5253 16.7004 19.4909 16.8026C19.6319 17.0602 19.7531 17.3268 19.8546 17.6023C19.8493 17.7133 19.8978 17.786 20 17.8204C20.1581 18.0396 20.2794 18.282 20.3637 18.5474C20.3584 18.6585 20.4069 18.7312 20.5091 18.7655C20.5701 18.7904 20.5944 18.8388 20.5819 18.9109C20.5621 19.0476 20.6107 19.1445 20.7273 19.2017C20.9765 19.5301 21.1704 19.8936 21.3091 20.2922C21.3038 20.4033 21.3523 20.476 21.4546 20.5103C21.637 20.778 21.7824 21.0688 21.8909 21.3827C21.8856 21.4938 21.9341 21.5665 22.0364 21.6008C22.3341 22.0262 22.5765 22.4867 22.7637 22.9821C22.7637 23.0548 22.7637 23.1275 22.7637 23.2002C22.6698 23.183 22.5971 23.2072 22.5455 23.273C22.1165 23.3583 21.6801 23.4068 21.2364 23.4184C21.1082 23.3126 21.0112 23.3369 20.9455 23.4911C20.726 23.5059 20.5078 23.5301 20.2909 23.5638C20.2219 23.5164 20.1371 23.4921 20.0364 23.4911C19.8904 23.477 19.7813 23.5255 19.7091 23.6365C19.3716 23.682 19.0323 23.7062 18.6909 23.7092C18.4888 23.7252 18.2949 23.701 18.1091 23.6365C18.0877 23.3999 17.9908 23.206 17.8182 23.0548C17.8121 22.8235 17.7152 22.6539 17.5273 22.5459C17.4061 22.2551 17.2849 21.9643 17.1637 21.6735C17.1576 21.4422 17.0606 21.2726 16.8728 21.1646C16.7515 20.8738 16.6304 20.583 16.5091 20.2922C16.4877 20.0557 16.3908 19.8618 16.2182 19.7106C16.097 19.4683 15.9758 19.2259 15.8546 18.9836C15.6028 18.9122 15.3361 18.888 15.0546 18.9109C15.0546 20.4619 15.0546 22.0128 15.0546 23.5638C13.6243 23.5638 12.194 23.5638 10.7637 23.5638C10.7637 18.4747 10.7637 13.3857 10.7637 8.29671C12.3367 8.17617 13.9125 8.1277 15.4909 8.15131ZM15.8546 11.859C15.9031 11.859 15.9515 11.859 16 11.859C16.1311 11.9287 16.2765 11.9772 16.4364 12.0044C16.4606 12.0044 16.4849 12.0044 16.5091 12.0044C16.6061 12.1498 16.7273 12.271 16.8728 12.3679C16.9465 12.5187 17.0192 12.6641 17.0909 12.8041C17.2161 13.4723 17.1676 14.1266 16.9455 14.767C16.8127 14.8868 16.7157 15.0322 16.6546 15.2032C16.5576 15.2517 16.4849 15.3244 16.4364 15.4213C16.3253 15.416 16.2526 15.4645 16.2182 15.5667C16.0485 15.5667 15.8788 15.5667 15.7091 15.5667C15.5395 15.5667 15.3697 15.5667 15.2 15.5667C15.2237 14.3373 15.1995 13.1135 15.1273 11.8954C15.3685 11.8592 15.6109 11.847 15.8546 11.859Z"
            fill="#020202" />
        <path opacity="0.718" fill-rule="evenodd" clip-rule="evenodd"
            d="M20.2183 9.67773C20.3395 9.75043 20.4364 9.84737 20.5092 9.96854C20.3395 9.9443 20.2425 9.84737 20.2183 9.67773Z"
            fill="#8B8B8B" />
        <path opacity="0.675" fill-rule="evenodd" clip-rule="evenodd"
            d="M27.2728 10.9137C27.2485 10.9137 27.2243 10.9137 27.2 10.9137C25.7455 10.9137 24.2909 10.9137 22.8364 10.9137C22.8364 11.4953 22.8364 12.0769 22.8364 12.6585C23.6252 12.6347 24.401 12.6589 25.1637 12.7312C24.3637 12.7312 23.5637 12.7312 22.7637 12.7312C22.7637 12.1011 22.7637 11.4711 22.7637 10.841C24.2793 10.817 25.7824 10.8412 27.2728 10.9137Z"
            fill="#7A7A7A" />
        <path opacity="0.4" fill-rule="evenodd" clip-rule="evenodd"
            d="M4.50909 10.9137C3.03031 10.9137 1.55151 10.9137 0.0727273 10.9137C0.0727273 14.4275 0.0727273 17.9414 0.0727273 21.4552C1.50324 21.4674 2.93354 21.4552 4.36364 21.4189C4.40793 21.2773 4.45644 21.1439 4.50909 21.019C4.50909 21.1886 4.50909 21.3583 4.50909 21.5279C3.00606 21.5279 1.50303 21.5279 0 21.5279C0 17.9656 0 14.4033 0 10.841C1.51564 10.817 3.01867 10.8412 4.50909 10.9137Z"
            fill="#797979" />
        <path opacity="0.999" fill-rule="evenodd" clip-rule="evenodd"
            d="M4.50912 10.9141C4.50912 11.4957 4.50912 12.0773 4.50912 12.6589C3.70912 12.6589 2.90912 12.6589 2.10912 12.6589C2.10912 14.9853 2.10912 17.3117 2.10912 19.6381C2.94816 19.6629 3.77239 19.7356 4.58184 19.8562C4.58184 19.9289 4.58184 20.0016 4.58184 20.0743C4.59901 20.3003 4.57479 20.5184 4.50912 20.7286C4.41217 20.8013 4.41217 20.874 4.50912 20.9467C4.50912 20.9709 4.50912 20.9952 4.50912 21.0194C4.45646 21.1443 4.40795 21.2776 4.36366 21.4192C2.93357 21.4556 1.50326 21.4677 0.0727539 21.4556C0.0727539 17.9418 0.0727539 14.4279 0.0727539 10.9141C1.55154 10.9141 3.03033 10.9141 4.50912 10.9141Z"
            fill="#020202" />
        <path opacity="0.055" fill-rule="evenodd" clip-rule="evenodd"
            d="M4.72724 10.8408C4.72724 10.8651 4.72724 10.8893 4.72724 10.9135C4.72724 14.4516 4.72724 17.9896 4.72724 21.5277C4.67873 21.0431 4.6303 20.5584 4.58179 20.0737C4.58179 20.001 4.58179 19.9283 4.58179 19.8556C4.64753 19.8041 4.67175 19.7314 4.65451 19.6375C4.63037 16.693 4.65459 13.7607 4.72724 10.8408Z"
            fill="#E3E3E3" />
        <path fill-rule="evenodd" clip-rule="evenodd"
            d="M4.80005 10.9141C6.25459 10.9141 7.70914 10.9141 9.16369 10.9141C9.16369 11.4957 9.16369 12.0773 9.16369 12.6589C8.36369 12.6589 7.56369 12.6589 6.76369 12.6589C6.76369 15.0095 6.76369 17.3602 6.76369 19.7108C7.61219 19.7108 8.46063 19.7108 9.30914 19.7108C9.3271 19.9608 9.30289 20.2031 9.23641 20.4378C9.13947 20.5105 9.13947 20.5832 9.23641 20.6559C9.23641 20.6801 9.23641 20.7044 9.23641 20.7286C9.17947 20.8626 9.13096 21.008 9.09096 21.1648C9.09998 21.2089 9.12419 21.2331 9.16369 21.2375C9.16369 21.286 9.16369 21.3344 9.16369 21.3829C7.71467 21.4546 6.26012 21.4789 4.80005 21.4556C4.80005 17.9418 4.80005 14.4279 4.80005 10.9141Z"
            fill="black" />
        <path opacity="0.992" fill-rule="evenodd" clip-rule="evenodd"
            d="M27.2 10.9141C27.2 14.4279 27.2 17.9418 27.2 21.4556C25.7212 21.4556 24.2424 21.4556 22.7636 21.4556C22.7851 21.2931 22.7608 21.1477 22.6909 21.0194C22.7307 20.5575 22.7792 20.0971 22.8364 19.6381C23.6122 19.6381 24.3879 19.6381 25.1636 19.6381C25.1636 17.3359 25.1636 15.0338 25.1636 12.7316C24.401 12.6593 23.6252 12.635 22.8364 12.6589C22.8364 12.0773 22.8364 11.4957 22.8364 10.9141C24.2909 10.9141 25.7455 10.9141 27.2 10.9141Z"
            fill="#020202" />
        <path opacity="0.983" fill-rule="evenodd" clip-rule="evenodd"
            d="M27.5637 10.9141C29.0182 10.9141 30.4728 10.9141 31.9273 10.9141C31.9273 14.4279 31.9273 17.9418 31.9273 21.4556C30.4235 21.4798 28.9205 21.4556 27.4182 21.3829C27.5058 21.2742 27.5058 21.1773 27.4182 21.0921C27.4337 20.6069 27.4579 20.1222 27.4909 19.6381C28.2667 19.6381 29.0424 19.6381 29.8182 19.6381C29.8182 17.3359 29.8182 15.0338 29.8182 12.7316C29.8577 12.7272 29.8819 12.703 29.8909 12.6589C29.1167 12.5862 28.3409 12.562 27.5637 12.5862C27.5637 12.0288 27.5637 11.4715 27.5637 10.9141Z"
            fill="#020202" />
        <path opacity="0.698" fill-rule="evenodd" clip-rule="evenodd"
            d="M15.8544 11.8594C15.6108 11.8474 15.3684 11.8595 15.1272 11.8957C15.1993 13.1139 15.2235 14.3376 15.1999 15.5671C15.3696 15.5671 15.5393 15.5671 15.709 15.5671C15.5063 15.6381 15.2881 15.6623 15.0544 15.6398C15.0544 14.3554 15.0544 13.0711 15.0544 11.7867C15.336 11.7638 15.6027 11.788 15.8544 11.8594Z"
            fill="#A5A5A5" />
        <path opacity="0.706" fill-rule="evenodd" clip-rule="evenodd"
            d="M16 11.8594C16.1825 11.8269 16.328 11.8754 16.4364 12.0048C16.2765 11.9775 16.1311 11.929 16 11.8594Z"
            fill="#767676" />
        <path opacity="0.635" fill-rule="evenodd" clip-rule="evenodd"
            d="M21.3819 11.6406C21.4569 11.8195 21.5054 12.0134 21.5274 12.2222C21.3915 12.067 21.3429 11.8731 21.3819 11.6406Z"
            fill="#6F6F6F" />
        <path opacity="0.478" fill-rule="evenodd" clip-rule="evenodd"
            d="M16.509 12.0039C16.703 12.0524 16.8242 12.1735 16.8727 12.3674C16.7272 12.2705 16.606 12.1493 16.509 12.0039Z"
            fill="#9D9D9D" />
        <path opacity="0.412" fill-rule="evenodd" clip-rule="evenodd"
            d="M16.8728 12.3682C17.0524 12.4486 17.1251 12.594 17.091 12.8044C17.0193 12.6643 16.9465 12.5189 16.8728 12.3682Z"
            fill="#7F7F7F" />
        <path opacity="0.914" fill-rule="evenodd" clip-rule="evenodd"
            d="M27.5637 10.9141C27.5637 11.4715 27.5637 12.0288 27.5637 12.5862C28.3409 12.562 29.1167 12.5862 29.891 12.6589C29.8819 12.703 29.8577 12.7272 29.8182 12.7316C29.0555 12.6593 28.2798 12.635 27.491 12.6589C27.4673 12.0639 27.4915 11.4823 27.5637 10.9141Z"
            fill="#2D2D2D" />
        <path opacity="0.133" fill-rule="evenodd" clip-rule="evenodd"
            d="M32 10.9137C31.9758 10.9137 31.9515 10.9137 31.9273 10.9137C30.4728 10.9137 29.0182 10.9137 27.5637 10.9137C27.4915 11.4819 27.4672 12.0635 27.4909 12.6585C28.2797 12.6347 29.0555 12.6589 29.8182 12.7312C29.0182 12.7312 28.2182 12.7312 27.4182 12.7312C27.4182 12.1011 27.4182 11.4711 27.4182 10.841C28.9581 10.817 30.4853 10.8412 32 10.9137Z"
            fill="#8E8E8E" />
        <path opacity="0.259" fill-rule="evenodd" clip-rule="evenodd"
            d="M4.50913 12.6582C3.74644 12.7305 2.97069 12.7547 2.18186 12.7309C2.18186 15.0331 2.18186 17.3352 2.18186 19.6374C2.15762 19.6374 2.13337 19.6374 2.10913 19.6374C2.10913 17.311 2.10913 14.9846 2.10913 12.6582C2.90913 12.6582 3.70913 12.6582 4.50913 12.6582Z"
            fill="#C2C2C2" />
        <path opacity="0.71" fill-rule="evenodd" clip-rule="evenodd"
            d="M4.72729 10.9135C4.72729 10.8893 4.72729 10.8651 4.72729 10.8408C6.24795 10.8171 7.76308 10.8413 9.27275 10.9135C9.33108 11.4987 9.31893 12.0803 9.23639 12.6584C8.43748 12.7188 7.63748 12.7552 6.83639 12.7674C6.93333 15.0453 6.93333 17.3233 6.83639 19.6012C7.67326 19.6135 8.49755 19.6499 9.30911 19.7103C8.4606 19.7103 7.61217 19.7103 6.76366 19.7103C6.76366 17.3597 6.76366 15.009 6.76366 12.6584C7.56366 12.6584 8.36366 12.6584 9.16366 12.6584C9.16366 12.0768 9.16366 11.4952 9.16366 10.9135C7.70911 10.9135 6.25457 10.9135 4.80002 10.9135C4.7758 10.9135 4.75151 10.9135 4.72729 10.9135Z"
            fill="#9F9F9F" />
        <path opacity="0.357" fill-rule="evenodd" clip-rule="evenodd"
            d="M21.5273 13.3857C21.5053 13.5946 21.4568 13.7884 21.3818 13.9673C21.37 13.796 21.3821 13.6264 21.4182 13.4584C21.4461 13.418 21.4824 13.3938 21.5273 13.3857Z"
            fill="#7B7B7B" />
        <path opacity="0.329" fill-rule="evenodd" clip-rule="evenodd"
            d="M21.3818 13.9678C21.3638 14.2116 21.2911 14.4297 21.1636 14.6221C21.1815 14.3782 21.2543 14.1601 21.3818 13.9678Z"
            fill="#5A5A5A" />
        <path opacity="0.322" fill-rule="evenodd" clip-rule="evenodd"
            d="M16.9455 14.7666C16.9204 14.9627 16.8234 15.1081 16.6545 15.2028C16.7156 15.0317 16.8127 14.8863 16.9455 14.7666Z"
            fill="#7E7E7E" />
        <path opacity="0.176" fill-rule="evenodd" clip-rule="evenodd"
            d="M20.9454 15.1309C20.9507 15.2419 20.9022 15.3146 20.8 15.349C20.7946 15.2379 20.8432 15.1652 20.9454 15.1309Z"
            fill="#929292" />
        <path opacity="0.631" fill-rule="evenodd" clip-rule="evenodd"
            d="M16.4364 15.4213C16.402 15.5235 16.3293 15.5721 16.2183 15.5667C16.2527 15.4645 16.3254 15.416 16.4364 15.4213Z"
            fill="#888888" />
        <path opacity="0.125" fill-rule="evenodd" clip-rule="evenodd"
            d="M19.8544 16.5117C19.8302 16.5844 19.7817 16.633 19.709 16.6572C19.709 16.5602 19.7575 16.5117 19.8544 16.5117Z"
            fill="#BFBFBF" />
        <path opacity="0.01" fill-rule="evenodd" clip-rule="evenodd"
            d="M19.7091 16.6576C19.6747 16.7599 19.602 16.8084 19.491 16.8031C19.5254 16.7008 19.5981 16.6523 19.7091 16.6576Z"
            fill="#D3D3D3" />
        <path opacity="0.271" fill-rule="evenodd" clip-rule="evenodd"
            d="M19.8546 17.6025C19.9569 17.6369 20.0054 17.7096 20.0001 17.8206C19.8978 17.7863 19.8493 17.7136 19.8546 17.6025Z"
            fill="#939393" />
        <path opacity="0.271" fill-rule="evenodd" clip-rule="evenodd"
            d="M20.3637 18.5479C20.4659 18.5822 20.5144 18.6549 20.5091 18.766C20.4069 18.7316 20.3584 18.6589 20.3637 18.5479Z"
            fill="#979797" />
        <path opacity="0.698" fill-rule="evenodd" clip-rule="evenodd"
            d="M15.8544 18.9834C15.6363 18.9834 15.4181 18.9834 15.1999 18.9834C15.212 20.486 15.1999 21.9885 15.1635 23.4908C15.1357 23.5312 15.0993 23.5554 15.0544 23.5635C15.0544 22.0126 15.0544 20.4616 15.0544 18.9107C15.336 18.8878 15.6027 18.912 15.8544 18.9834Z"
            fill="#AFAFAF" />
        <path opacity="0.475" fill-rule="evenodd" clip-rule="evenodd"
            d="M20.5819 18.9111C20.6673 18.9849 20.7157 19.0818 20.7274 19.2019C20.6107 19.1447 20.5622 19.0478 20.5819 18.9111Z"
            fill="#7A7A7A" />
        <path opacity="0.435" fill-rule="evenodd" clip-rule="evenodd"
            d="M2.10913 19.6377C2.13337 19.6377 2.15762 19.6377 2.18186 19.6377C3.0061 19.6377 3.83037 19.6377 4.65459 19.6377C4.67182 19.7316 4.6476 19.8043 4.58186 19.8558C3.7724 19.7352 2.94817 19.6625 2.10913 19.6377Z"
            fill="#999999" />
        <path opacity="0.31" fill-rule="evenodd" clip-rule="evenodd"
            d="M16.2183 19.7109C16.3908 19.8621 16.4878 20.056 16.5092 20.2925C16.3753 20.1218 16.2783 19.9279 16.2183 19.7109Z"
            fill="#8D8D8D" />
        <path opacity="0.263" fill-rule="evenodd" clip-rule="evenodd"
            d="M21.309 20.292C21.4112 20.3264 21.4598 20.3991 21.4544 20.5101C21.3522 20.4757 21.3037 20.403 21.309 20.292Z"
            fill="#9A9A9A" />
        <path opacity="0.718" fill-rule="evenodd" clip-rule="evenodd"
            d="M9.23628 20.4375C9.3181 20.4991 9.3181 20.5718 9.23628 20.6556C9.13934 20.5829 9.13934 20.5102 9.23628 20.4375Z"
            fill="#888888" />
        <path opacity="0.718" fill-rule="evenodd" clip-rule="evenodd"
            d="M4.50899 20.7285C4.59081 20.7902 4.59081 20.8629 4.50899 20.9466C4.41204 20.8739 4.41204 20.8012 4.50899 20.7285Z"
            fill="#878787" />
        <path opacity="0.039" fill-rule="evenodd" clip-rule="evenodd"
            d="M9.23627 20.7285C9.25824 20.9146 9.23395 21.0842 9.16355 21.2374C9.12406 21.2331 9.09984 21.2088 9.09082 21.1647C9.13082 21.0079 9.17933 20.8625 9.23627 20.7285Z"
            fill="#B0B0B0" />
        <path opacity="0.722" fill-rule="evenodd" clip-rule="evenodd"
            d="M16.8728 21.165C17.0607 21.273 17.1576 21.4426 17.1637 21.6739C17.0495 21.5187 16.9525 21.3491 16.8728 21.165Z"
            fill="#8F8F8F" />
        <path opacity="0.322" fill-rule="evenodd" clip-rule="evenodd"
            d="M4.72729 10.9141C4.75151 10.9141 4.7758 10.9141 4.80002 10.9141C4.80002 14.4279 4.80002 17.9418 4.80002 21.4556C6.26009 21.4789 7.71464 21.4546 9.16366 21.3829C7.71108 21.5274 6.23231 21.5759 4.72729 21.5283C4.72729 17.9902 4.72729 14.4522 4.72729 10.9141Z"
            fill="#676767" />
        <path opacity="0.322" fill-rule="evenodd" clip-rule="evenodd"
            d="M27.2 10.9141C27.2242 10.9141 27.2485 10.9141 27.2727 10.9141C27.2727 14.4522 27.2727 17.9902 27.2727 21.5283C25.7455 21.5283 24.2182 21.5283 22.6909 21.5283C22.6909 21.3587 22.6909 21.189 22.6909 21.0194C22.7608 21.1477 22.7851 21.2931 22.7636 21.4556C24.2424 21.4556 25.7212 21.4556 27.2 21.4556C27.2 17.9418 27.2 14.4279 27.2 10.9141Z"
            fill="#5F5F5F" />
        <path opacity="0.322" fill-rule="evenodd" clip-rule="evenodd"
            d="M31.9273 10.9141C31.9515 10.9141 31.9758 10.9141 32 10.9141C32 14.4522 32 17.9902 32 21.5283C30.4485 21.5283 28.8969 21.5283 27.3454 21.5283C27.324 21.3658 27.3483 21.2204 27.4182 21.0921C27.5058 21.1773 27.5058 21.2742 27.4182 21.3829C28.9204 21.4556 30.4235 21.4798 31.9273 21.4556C31.9273 17.9418 31.9273 14.4279 31.9273 10.9141Z"
            fill="#676767" />
        <path opacity="0.235" fill-rule="evenodd" clip-rule="evenodd"
            d="M21.891 21.3828C21.9933 21.4172 22.0418 21.4899 22.0365 21.6009C21.9342 21.5665 21.8857 21.4938 21.891 21.3828Z"
            fill="#949494" />
        <path opacity="0.722" fill-rule="evenodd" clip-rule="evenodd"
            d="M17.5273 22.5459C17.7152 22.6539 17.8121 22.8235 17.8183 23.0548C17.704 22.8996 17.6071 22.73 17.5273 22.5459Z"
            fill="#939393" />
        <path opacity="0.122" fill-rule="evenodd" clip-rule="evenodd"
            d="M22.7636 22.9824C22.9626 23.2119 22.8898 23.3089 22.5454 23.2732C22.597 23.2075 22.6697 23.1833 22.7636 23.2005C22.7636 23.1278 22.7636 23.0551 22.7636 22.9824Z"
            fill="#5A5A5A" />
        <path opacity="0.847" fill-rule="evenodd" clip-rule="evenodd"
            d="M17.8181 23.0547C17.9907 23.2058 18.0876 23.3997 18.109 23.6363C17.9751 23.4655 17.8782 23.2717 17.8181 23.0547Z"
            fill="#656565" />
        <path opacity="0.102" fill-rule="evenodd" clip-rule="evenodd"
            d="M21.2365 23.418C21.1588 23.4859 21.0618 23.5102 20.9456 23.4907C21.0112 23.3366 21.1082 23.3123 21.2365 23.418Z"
            fill="#8E8E8E" />
        <path opacity="0.427" fill-rule="evenodd" clip-rule="evenodd"
            d="M20.2908 23.5634C20.094 23.5688 19.9 23.593 19.709 23.6361C19.7811 23.5251 19.8902 23.4766 20.0363 23.4906C20.137 23.4917 20.2218 23.516 20.2908 23.5634Z"
            fill="#616161" />
        <path opacity="0.286" fill-rule="evenodd" clip-rule="evenodd"
            d="M18.1091 23.6367C18.2949 23.7013 18.4888 23.7255 18.6909 23.7094C18.6093 23.7572 18.5124 23.7814 18.4 23.7822C18.2667 23.776 18.1698 23.7275 18.1091 23.6367Z"
            fill="#999999" />
    </g>
    <defs>
        <clipPath id="clip0_5501_345">
            <rect width="32" height="32" fill="white" />
        </clipPath>
    </defs>
</svg>