<svg width="32" height="32" viewBox="0 0 32 32" fill="none" xmlns="http://www.w3.org/2000/svg">
    <g clip-path="url(#clip0_5098_186)">
        <mask id="mask0_5098_186" style="mask-type:luminance" maskUnits="userSpaceOnUse" x="0" y="0"
            width="32" height="32">
            <path d="M32 0H0V32H32V0Z" fill="white" />
        </mask>
        <g mask="url(#mask0_5098_186)">
            <path
                d="M29.0216 0H2.97835C1.33345 0 0 1.33345 0 2.97835V29.0216C0 30.6665 1.33345 32 2.97835 32H29.0216C30.6665 32 32 30.6665 32 29.0216V2.97835C32 1.33345 30.6665 0 29.0216 0Z"
                fill="#4F5CD6" />
            <mask id="mask1_5098_186" style="mask-type:luminance" maskUnits="userSpaceOnUse" x="3"
                y="10" width="21" height="20">
                <path
                    d="M23.5703 20.0586L13.5801 10.2666L3.59289 20.1308L13.5831 29.9228L23.5703 20.0586Z"
                    fill="white" />
            </mask>
            <g mask="url(#mask1_5098_186)">
                <path
                    d="M18.805 24.4511L18.8041 17.3524C18.804 17.1498 18.7233 16.9595 18.5769 16.816C18.4304 16.6724 18.2366 16.5938 18.0307 16.5945L17.3756 16.597C17.1699 16.5976 16.976 16.6776 16.8296 16.8222C16.6833 16.9668 16.598 17.1625 16.5981 17.3649L16.5941 21.5107L9.90724 14.9564C9.60573 14.661 9.13155 14.6605 8.83011 14.9582L8.36701 15.4156C8.06557 15.7133 8.04403 16.2034 8.34554 16.4989L15.0563 23.0765L10.8072 23.0846C10.6013 23.0855 10.4111 23.1619 10.2647 23.3064C10.1185 23.4508 10.0396 23.6403 10.0397 23.8427L10.0407 24.4863C10.0408 24.6889 10.1218 24.8788 10.2684 25.0224C10.4147 25.1659 10.6088 25.2443 10.8148 25.2435L18.0293 25.2174C18.2358 25.2166 18.4305 25.1361 18.5766 24.9909C18.724 24.846 18.8052 24.6542 18.805 24.4511Z"
                    fill="url(#paint0_linear_5098_186)" />
            </g>
            <mask id="mask2_5098_186" style="mask-type:luminance" maskUnits="userSpaceOnUse" x="8"
                y="3" width="21" height="20">
                <path
                    d="M28.5809 14.5188L20.3184 3.27686L8.86141 11.4514L17.1239 22.6933L28.5809 14.5188Z"
                    fill="white" />
            </mask>
            <g mask="url(#mask2_5098_186)">
                <path
                    d="M13.4912 8.61584L13.4917 15.7014C13.4917 15.9037 13.5725 16.094 13.719 16.2378C13.8657 16.3817 14.0597 16.4609 14.2659 16.4611L14.9218 16.4612C15.1277 16.4614 15.3219 16.3823 15.4685 16.2386C15.6151 16.0949 15.7004 15.8999 15.7002 15.6978L15.7045 11.5597L22.3991 18.1287C22.7009 18.4249 23.1756 18.4272 23.4775 18.1313L23.9411 17.6765C24.243 17.3806 24.2646 16.8915 23.9628 16.5953L17.2444 10.0029L21.4986 10.0119C21.7047 10.0119 21.8952 9.93643 22.0418 9.79264C22.1882 9.64905 22.2671 9.46031 22.2671 9.25826L22.2661 8.61591C22.2661 8.41359 22.1849 8.22374 22.0382 8.0798C21.8917 7.93601 21.6973 7.85698 21.4911 7.85691L14.2679 7.854C14.0612 7.854 13.8663 7.93359 13.7199 8.07787C13.5724 8.22193 13.491 8.4131 13.4912 8.61584Z"
                    fill="url(#paint1_linear_5098_186)" />
            </g>
        </g>
    </g>
    <defs>
        <linearGradient id="paint0_linear_5098_186" x1="8.52514" y1="15.1585" x2="18.4147"
            y2="25.1512" gradientUnits="userSpaceOnUse">
            <stop stop-color="white" />
            <stop offset="0.0001" stop-color="white" stop-opacity="0.25" />
            <stop offset="0.605" stop-color="white" />
        </linearGradient>
        <linearGradient id="paint1_linear_5098_186" x1="23.7582" y1="17.8906" x2="13.9124"
            y2="7.88843" gradientUnits="userSpaceOnUse">
            <stop stop-color="white" />
            <stop offset="0.0001" stop-color="white" stop-opacity="0.25" />
            <stop offset="0.605" stop-color="white" />
        </linearGradient>
        <clipPath id="clip0_5098_186">
            <rect width="32" height="32" fill="white" />
        </clipPath>
    </defs>
</svg>