<svg width="32" height="32" viewBox="0 0 32 32" fill="none" xmlns="http://www.w3.org/2000/svg">
    <rect width="32" height="32" fill="black" />
    <path opacity="0.977" fill-rule="evenodd" clip-rule="evenodd"
        d="M5.47991 1.08014C7.55806 0.84363 9.27807 1.51029 10.6399 3.08014C10.8047 3.303 10.9247 3.543 10.9999 3.80014C7.32964 4.99039 4.87631 7.41705 3.63991 11.0801C1.25003 9.4443 0.490037 7.23093 1.35991 4.44014C2.17376 2.62561 3.54709 1.50561 5.47991 1.08014Z"
        fill="#FEFFFE" />
    <path opacity="0.977" fill-rule="evenodd" clip-rule="evenodd"
        d="M24.5998 1.07978C27.8809 0.85628 29.9475 2.32294 30.7998 5.47978C31.0907 7.5409 30.4641 9.2609 28.9198 10.6398C28.7066 10.8266 28.4666 10.9733 28.1998 11.0798C26.9998 7.37312 24.5465 4.91978 20.8398 3.71978C21.7208 2.30486 22.9742 1.42486 24.5998 1.07978Z"
        fill="#FEFFFE" />
    <path opacity="0.813" fill-rule="evenodd" clip-rule="evenodd"
        d="M15.0002 4.11987C20.4393 4.01754 24.346 6.39087 26.7202 11.2399C28.4049 15.6577 27.8182 19.7377 24.9602 23.4799C21.4436 27.318 17.1636 28.5314 12.1202 27.1199C7.56223 25.4056 4.90889 22.1389 4.16023 17.3199C3.76685 12.2533 5.70019 8.37331 9.96023 5.67987C11.5393 4.79901 13.2193 4.27901 15.0002 4.11987ZM15.1602 6.59987C19.4264 6.53847 22.5064 8.40515 24.4002 12.1999C25.7698 15.7333 25.2898 18.9867 22.9602 21.9599C20.1581 24.9439 16.7847 25.8639 12.8402 24.7199C9.34239 23.339 7.27575 20.7923 6.64023 17.0799C6.35417 13.0787 7.88751 9.99867 11.2402 7.83987C12.4753 7.1651 13.782 6.75176 15.1602 6.59987Z"
        fill="#FEFFFE" />
    <path opacity="0.977" fill-rule="evenodd" clip-rule="evenodd"
        d="M3.55985 20.9202C3.62996 20.9097 3.6833 20.9363 3.71985 21.0002C4.95902 24.626 7.38568 27.066 10.9998 28.3202C9.60889 30.4203 7.6622 31.247 5.15985 30.8002C2.82527 30.1719 1.45194 28.6651 1.03985 26.2802C0.815545 23.9743 1.65554 22.1877 3.55985 20.9202Z"
        fill="#FEFFFE" />
    <path opacity="0.977" fill-rule="evenodd" clip-rule="evenodd"
        d="M28.1198 20.9199C29.479 21.6058 30.3456 22.6992 30.7198 24.1999C31.2304 26.9512 30.2838 29.0178 27.8798 30.3999C25.5048 31.3708 23.3848 30.9842 21.5198 29.2399C21.2735 28.934 21.0469 28.614 20.8398 28.2799C24.1286 27.1911 26.462 25.0578 27.8398 21.8799C27.958 21.5655 28.0514 21.2455 28.1198 20.9199Z"
        fill="#FEFFFE" />
</svg>