<svg width="32" height="32" viewBox="0 0 32 32" fill="none" xmlns="http://www.w3.org/2000/svg">
    <g clip-path="url(#clip0_5342_58)">
        <path fill-rule="evenodd" clip-rule="evenodd"
            d="M-0.03125 -0.03125C10.6354 -0.03125 21.3021 -0.03125 31.9688 -0.03125C31.9688 10.6354 31.9688 21.3021 31.9688 31.9688C21.3021 31.9688 10.6354 31.9688 -0.03125 31.9688C-0.03125 21.3021 -0.03125 10.6354 -0.03125 -0.03125Z"
            fill="#CC1224" />
        <path fill-rule="evenodd" clip-rule="evenodd"
            d="M5.28125 4.84375C7.65438 6.65569 10.0294 8.46819 12.4062 10.2812C12.5059 9.91356 12.6101 9.549 12.7188 9.1875C13.6225 8.8345 14.5288 8.49075 15.4375 8.15625C15.0667 8.85312 14.7021 9.5615 14.3438 10.2812C14.4856 10.9736 14.7043 11.6403 15 12.2812C16.7334 13.7127 18.4939 15.1086 20.2812 16.4688C20.3542 19.3644 20.3646 22.2602 20.3125 25.1562C19.4583 25.8021 18.6042 26.4479 17.75 27.0938C16.7012 26.3574 15.6699 25.5971 14.6562 24.8125C12.5711 24.6232 10.4878 24.4149 8.40625 24.1875C7.41381 23.0077 6.44506 21.8097 5.5 20.5938C5.41071 15.3486 5.33779 10.0986 5.28125 4.84375Z"
            fill="#FEFEFE" />
        <path fill-rule="evenodd" clip-rule="evenodd"
            d="M20.4062 10.5938C20.4896 11.8021 20.4896 13.0104 20.4062 14.2188C19.8531 13.8477 19.3322 13.431 18.8438 12.9688C19.3662 12.176 19.8871 11.3843 20.4062 10.5938Z"
            fill="#FEFDFD" />
        <path fill-rule="evenodd" clip-rule="evenodd"
            d="M26.3438 10.9062C26.1628 12.7503 25.9441 14.6045 25.6875 16.4688C25.3678 17.3166 25.0136 18.1499 24.625 18.9688C23.8333 20.6354 23.0417 22.3021 22.25 23.9688C22.2083 21.5521 22.2083 19.1354 22.25 16.7188C23.014 16.2464 23.7431 15.7256 24.4375 15.1562C25.1036 13.7511 25.739 12.3344 26.3438 10.9062Z"
            fill="#FEFDFD" />
        <path fill-rule="evenodd" clip-rule="evenodd"
            d="M20.4062 10.5938C20.41 10.5598 20.4308 10.539 20.4688 10.5312C20.5521 11.7812 20.5521 13.0312 20.4688 14.2812C20.4308 14.2735 20.41 14.2527 20.4062 14.2188C20.4896 13.0104 20.4896 11.8021 20.4062 10.5938Z"
            fill="#F5D0D3" />
    </g>
    <defs>
        <clipPath id="clip0_5342_58">
            <rect width="32" height="32" fill="white" />
        </clipPath>
    </defs>
</svg>