<svg width="32" height="32" viewBox="0 0 32 32" fill="none" xmlns="http://www.w3.org/2000/svg">
    <g clip-path="url(#clip0_5043_218)">
        <path fill-rule="evenodd" clip-rule="evenodd"
            d="M-0.0460205 -0.0458984C10.6206 -0.0458984 21.2873 -0.0458984 31.954 -0.0458984C31.954 10.6208 31.954 21.2874 31.954 31.9541C21.2873 31.9541 10.6206 31.9541 -0.0460205 31.9541C-0.0460205 21.2874 -0.0460205 10.6208 -0.0460205 -0.0458984Z"
            fill="#EA0F00" />
        <path fill-rule="evenodd" clip-rule="evenodd"
            d="M22.7586 11.724C22.6182 11.7173 22.5263 11.7787 22.4828 11.908C21.7484 12.3043 21.0128 12.7028 20.2759 13.1034C18.8471 12.2817 17.4066 11.4849 15.954 10.7125C14.9051 11.1911 13.8936 11.7428 12.9196 12.3677C12.7792 12.361 12.6872 12.4223 12.6437 12.5516C12.2968 12.7099 11.9597 12.8938 11.6322 13.1034C10.7359 12.7011 9.87763 12.226 9.0575 11.6781C9.57851 11.2931 10.1302 10.9713 10.7127 10.7125C10.8531 10.7193 10.945 10.6579 10.9885 10.5286C12.6121 9.57149 14.252 8.65195 15.9081 7.77002C18.1556 9.00257 20.4085 10.244 22.6667 11.4942C22.8045 11.5712 22.8352 11.6478 22.7586 11.724Z"
            fill="#FFFAFA" />
        <path fill-rule="evenodd" clip-rule="evenodd"
            d="M10.9885 10.5288C10.945 10.6581 10.8531 10.7194 10.7126 10.7127C10.7561 10.5834 10.8481 10.5221 10.9885 10.5288Z"
            fill="#F9A29A" />
        <path fill-rule="evenodd" clip-rule="evenodd"
            d="M22.7587 11.7241C22.7152 11.8534 22.6232 11.9148 22.4828 11.908C22.5263 11.7788 22.6182 11.7174 22.7587 11.7241Z"
            fill="#F47367" />
        <path fill-rule="evenodd" clip-rule="evenodd"
            d="M12.9195 12.3679C12.876 12.4972 12.7841 12.5585 12.6437 12.5518C12.6872 12.4225 12.7791 12.3612 12.9195 12.3679Z"
            fill="#F57467" />
        <path fill-rule="evenodd" clip-rule="evenodd"
            d="M8.78167 12.4599C8.6899 15.0495 8.65925 17.6548 8.68971 20.276C8.56746 17.655 8.56746 15.019 8.68971 12.3679C8.7455 12.3793 8.77615 12.4099 8.78167 12.4599Z"
            fill="#F69790" />
        <path fill-rule="evenodd" clip-rule="evenodd"
            d="M23.0344 12.5516C23.0996 12.4685 23.1916 12.4379 23.3103 12.4597C23.3404 13.4265 23.3097 14.3766 23.2183 15.3103C23.2773 14.3549 23.2159 13.4354 23.0344 12.5516Z"
            fill="#F69B94" />
        <path fill-rule="evenodd" clip-rule="evenodd"
            d="M8.78157 12.4597C8.88929 12.5374 9.01189 12.5987 9.14938 12.6436C9.19289 12.7729 9.28483 12.8342 9.42524 12.8275C10.0117 13.1286 10.5787 13.4657 11.1264 13.839C11.157 15.4942 11.1877 17.1494 11.2183 18.8045C12.6531 19.5908 14.0784 20.3877 15.4942 21.1953C15.5244 22.1622 15.4937 23.1123 15.4023 24.0459C15.0697 23.9409 14.7632 23.7877 14.4827 23.5862C14.4392 23.4569 14.3473 23.3955 14.2069 23.4022C14.0549 23.3875 13.9323 23.3263 13.839 23.2183C13.7955 23.0891 13.7036 23.0277 13.5632 23.0344C12.9231 22.7451 12.3101 22.4079 11.7241 22.0229C11.6806 21.8936 11.5886 21.8323 11.4482 21.839C10.5014 21.3656 9.58184 20.8445 8.68961 20.2758C8.65915 17.6547 8.6898 15.0493 8.78157 12.4597Z"
            fill="#FFFCFC" />
        <path fill-rule="evenodd" clip-rule="evenodd"
            d="M23.0345 12.5518C23.2161 13.4355 23.2774 14.3551 23.2184 15.3104C23.2184 15.3717 23.1878 15.4023 23.1265 15.4023C22.9861 15.3956 22.8941 15.457 22.8506 15.5862C22.0112 16.0214 21.1836 16.4811 20.3679 16.9656C20.2275 16.9588 20.1355 17.0202 20.092 17.1495C19.7086 17.2722 19.3562 17.4561 19.0345 17.7012C18.9886 19.3867 18.9732 21.0726 18.9886 22.7587C18.1504 23.1624 17.3228 23.5916 16.5058 24.046C16.414 21.4871 16.3834 18.9124 16.4138 16.3219C16.9508 15.9152 17.5332 15.578 18.161 15.3104C18.3014 15.3171 18.3933 15.2558 18.4368 15.1265C19.9605 14.2509 21.493 13.3927 23.0345 12.5518Z"
            fill="#FFFBFA" />
        <path fill-rule="evenodd" clip-rule="evenodd"
            d="M9.14941 12.6436C9.28983 12.6369 9.38178 12.6982 9.42528 12.8275C9.28486 12.8342 9.19292 12.7729 9.14941 12.6436Z"
            fill="#F36C60" />
        <path fill-rule="evenodd" clip-rule="evenodd"
            d="M18.4368 15.1265C18.3933 15.2558 18.3013 15.3171 18.1609 15.3104C18.2044 15.1811 18.2963 15.1198 18.4368 15.1265Z"
            fill="#F9A39B" />
        <path fill-rule="evenodd" clip-rule="evenodd"
            d="M23.1264 15.4024C23.083 15.5316 22.991 15.593 22.8506 15.5863C22.8941 15.457 22.986 15.3956 23.1264 15.4024Z"
            fill="#F46C5F" />
        <path fill-rule="evenodd" clip-rule="evenodd"
            d="M16.4138 16.3218C16.3834 18.9123 16.414 21.487 16.5058 24.0459C16.5002 24.0958 16.4696 24.1265 16.4138 24.1379C16.2916 21.5175 16.2916 18.9121 16.4138 16.3218Z"
            fill="#F8B4AF" />
        <path fill-rule="evenodd" clip-rule="evenodd"
            d="M20.3678 16.9656C20.3243 17.0949 20.2323 17.1562 20.0919 17.1495C20.1354 17.0202 20.2274 16.9589 20.3678 16.9656Z"
            fill="#F57265" />
        <path fill-rule="evenodd" clip-rule="evenodd"
            d="M15.4943 21.1953C15.616 22.1615 15.616 23.1423 15.4943 24.1378C15.4385 24.1264 15.4079 24.0958 15.4023 24.0459C15.4937 23.1123 15.5245 22.1621 15.4943 21.1953Z"
            fill="#F8B2AD" />
        <path fill-rule="evenodd" clip-rule="evenodd"
            d="M11.4482 21.8391C11.5887 21.8324 11.6806 21.8937 11.7241 22.023C11.5837 22.0297 11.4917 21.9684 11.4482 21.8391Z"
            fill="#F89D95" />
        <path fill-rule="evenodd" clip-rule="evenodd"
            d="M13.5632 23.0344C13.7036 23.0277 13.7956 23.0891 13.8391 23.2183C13.6987 23.2251 13.6067 23.1637 13.5632 23.0344Z"
            fill="#F9A199" />
        <path fill-rule="evenodd" clip-rule="evenodd"
            d="M14.2069 23.4024C14.3473 23.3956 14.4393 23.457 14.4828 23.5863C14.3424 23.593 14.2504 23.5316 14.2069 23.4024Z"
            fill="#F9A49D" />
    </g>
    <defs>
        <clipPath id="clip0_5043_218">
            <rect width="32" height="32" fill="white" />
        </clipPath>
    </defs>
</svg>