<svg width="32" height="32" viewBox="0 0 32 32" fill="none" xmlns="http://www.w3.org/2000/svg">
    <path opacity="0.89" fill-rule="evenodd" clip-rule="evenodd"
        d="M6.02353 3.75789C5.05148 3.57676 4.29854 3.83117 3.76471 4.52119C2.00011 5.5405 0.745186 5.03161 0 2.9946C0.484292 0.342443 1.99017 -0.548019 4.51765 0.323056C5.33248 1.33801 5.83439 2.48296 6.02353 3.75789Z"
        fill="#F09708" />
    <path opacity="0.797" fill-rule="evenodd" clip-rule="evenodd"
        d="M6.02347 3.75816C14.7432 3.51307 23.402 3.76748 31.9999 4.52146C31.412 9.57915 30.2826 14.5406 28.6117 19.4058C24.4376 20.4773 20.1709 20.8589 15.8117 20.5507C15.8117 19.7874 15.8117 19.0241 15.8117 18.2608C13.0509 18.2608 10.2902 18.2608 7.52935 18.2608C6.27428 13.6805 5.01935 9.10071 3.76465 4.52146C4.29848 3.83144 5.05142 3.57703 6.02347 3.75816ZM6.77641 6.04806C8.12267 5.83036 9.3776 6.08477 10.5411 6.81135C9.91369 7.06576 9.28619 7.32024 8.65877 7.57465C7.62302 7.43405 6.99559 6.92516 6.77641 6.04806ZM13.5529 6.04806C14.6656 5.84807 15.6696 6.10248 16.5646 6.81135C16.0627 7.06576 15.5608 7.32024 15.0588 7.57465C14.1452 7.38596 13.6432 6.87715 13.5529 6.04806ZM19.5764 6.04806C20.6891 5.84807 21.6931 6.10248 22.5882 6.81135C22.0862 7.06576 21.5843 7.32024 21.0823 7.57465C20.1688 7.38596 19.6668 6.87715 19.5764 6.04806ZM25.5999 6.04806C26.9462 5.83036 28.2011 6.08477 29.3646 6.81135C28.7372 7.06576 28.1097 7.32024 27.4823 7.57465C26.4466 7.43405 25.8191 6.92516 25.5999 6.04806ZM8.2823 10.6278C9.03524 10.6278 9.78818 10.6278 10.5411 10.6278C10.5411 11.3911 10.5411 12.1544 10.5411 12.9177C9.78818 12.9177 9.03524 12.9177 8.2823 12.9177C8.2823 12.1544 8.2823 11.3911 8.2823 10.6278ZM13.5529 10.6278C14.5568 10.6278 15.5608 10.6278 16.5646 10.6278C16.5646 11.3911 16.5646 12.1544 16.5646 12.9177C15.5608 12.9177 14.5568 12.9177 13.5529 12.9177C13.5529 12.1544 13.5529 11.3911 13.5529 10.6278ZM19.5764 10.6278C20.5803 10.6278 21.5843 10.6278 22.5882 10.6278C22.5882 11.3911 22.5882 12.1544 22.5882 12.9177C21.5843 12.9177 20.5803 12.9177 19.5764 12.9177C19.5764 12.1544 19.5764 11.3911 19.5764 10.6278ZM25.5999 10.6278C26.634 10.5082 27.638 10.6355 28.6117 11.0095C28.0034 12.3115 26.9995 12.9476 25.5999 12.9177C25.5999 12.1544 25.5999 11.3911 25.5999 10.6278ZM13.5529 15.9709C14.6656 15.7709 15.6696 16.0253 16.5646 16.7342C16.0627 16.9886 15.5608 17.2431 15.0588 17.4975C14.1452 17.3088 13.6432 16.8 13.5529 15.9709ZM19.5764 15.9709C20.6891 15.7709 21.6931 16.0253 22.5882 16.7342C22.0862 16.9886 21.5843 17.2431 21.0823 17.4975C20.1688 17.3088 19.6668 16.8 19.5764 15.9709ZM25.5999 15.9709C26.9831 16.0774 27.2341 16.5862 26.3529 17.4975C25.7524 17.1488 25.5014 16.6399 25.5999 15.9709Z"
        fill="#37398E" />
    <path opacity="0.718" fill-rule="evenodd" clip-rule="evenodd"
        d="M7.52942 18.2607C10.2902 18.2607 13.051 18.2607 15.8118 18.2607C15.8118 19.024 15.8118 19.7873 15.8118 20.5506C14.3059 20.5506 12.8 20.5506 11.2941 20.5506C11.2941 21.3139 11.2941 22.0772 11.2941 22.8405C16.8214 22.7138 22.3429 22.8405 27.8588 23.2222C28.5218 23.7626 29.0238 24.3992 29.3647 25.1304C28.0158 25.0281 26.7609 25.2823 25.6 25.8937C20.8314 25.8937 16.0627 25.8937 11.2941 25.8937C9.95103 25.5937 8.6961 25.0854 7.52942 24.3671C7.52942 22.3314 7.52942 20.2962 7.52942 18.2607Z"
        fill="#AAABB0" />
    <path opacity="0.737" fill-rule="evenodd" clip-rule="evenodd"
        d="M7.52943 24.3672C8.69611 25.0855 9.95104 25.5938 11.2941 25.8938C11.9168 31.088 10.0345 32.6146 5.64708 30.4736C4.7711 27.8242 5.39853 25.7884 7.52943 24.3672Z"
        fill="#3F418D" />
    <path fill-rule="evenodd" clip-rule="evenodd"
        d="M7.52936 26.6567C9.34531 26.8048 10.0982 27.8223 9.78819 29.7099C8.78429 29.7099 7.78032 29.7099 6.77642 29.7099C6.72567 28.5963 6.97663 27.5788 7.52936 26.6567Z"
        fill="#F1F1F7" />
    <path opacity="0.788" fill-rule="evenodd" clip-rule="evenodd"
        d="M29.3647 25.1304C32.5156 27.8935 32.1392 30.1834 28.2353 32.0001C24.9151 31.1078 24.0368 29.0728 25.6 25.8937C26.7609 25.2823 28.0158 25.0281 29.3647 25.1304Z"
        fill="#3D3E89" />
    <path fill-rule="evenodd" clip-rule="evenodd"
        d="M27.1059 26.6567C27.8589 26.6567 28.6118 26.6567 29.3648 26.6567C29.3648 27.6742 29.3648 28.6925 29.3648 29.7099C26.7644 29.8878 26.0115 28.8703 27.1059 26.6567Z"
        fill="#EBEBF3" />
</svg>