<svg width="32" height="32" viewBox="0 0 32 32" fill="none" xmlns="http://www.w3.org/2000/svg">
    <g clip-path="url(#clip0_5500_84)">
        <path opacity="0.99" fill-rule="evenodd" clip-rule="evenodd"
            d="M21.8665 16.4209C21.8716 17.9548 21.8665 19.4886 21.8515 21.0224C21.7118 21.4384 21.4211 21.6489 20.9793 21.654C20.5442 21.6272 20.2635 21.4067 20.1372 20.9923C20.1222 20.0601 20.1172 19.1277 20.1222 18.1953C20.2759 18.0371 20.4463 17.8917 20.6335 17.7592C21.0626 17.3253 21.4736 16.8792 21.8665 16.4209Z"
            fill="#55B6D9" />
        <path opacity="0.984" fill-rule="evenodd" clip-rule="evenodd"
            d="M0.721575 10.3457C0.831817 10.3457 0.942055 10.3457 1.0523 10.3457C1.35552 10.4402 1.58101 10.6306 1.72877 10.9167C1.76702 11.396 1.78706 11.8769 1.7889 12.3594C2.13148 12.0501 2.51732 11.8047 2.94643 11.623C4.61366 10.889 6.35747 10.5484 8.17785 10.6012C8.27391 10.6066 8.36411 10.6216 8.44844 10.6462C7.04696 10.648 5.87942 11.169 4.94579 12.2091C4.81534 12.3699 4.7001 12.5402 4.60004 12.72C4.56997 12.73 4.54992 12.7501 4.53991 12.7801C3.73686 13.0668 3.05037 13.5277 2.48041 14.1626C2.0987 14.6255 1.8682 15.1565 1.7889 15.7555C1.77888 16.6271 1.76886 17.4987 1.75884 18.3703C1.58308 18.8761 1.2273 19.1016 0.691509 19.0465C0.314422 18.9052 0.0839195 18.6397 0 18.2501C0 15.9259 0 13.6016 0 11.2774C0.0359107 10.8105 0.276436 10.4999 0.721575 10.3457Z"
            fill="#43A599" />
        <path opacity="0.983" fill-rule="evenodd" clip-rule="evenodd"
            d="M16.2956 16.4774C15.9856 16.2327 15.71 15.9522 15.4688 15.6359C15.0229 15.0051 14.592 14.3639 14.1759 13.7124C14.0447 13.5365 13.9094 13.3662 13.77 13.2015C13.7517 13.1747 13.7417 13.1446 13.74 13.1113C13.735 12.45 13.74 11.7888 13.755 11.1277C13.9605 10.5116 14.3764 10.3062 15.0027 10.5116C15.2671 10.6254 15.4325 10.8208 15.4988 11.0976C15.5088 12.38 15.5189 13.6623 15.5289 14.9446C15.6095 15.5466 15.865 16.0575 16.2956 16.4774Z"
            fill="#55B6D9" />
        <path opacity="0.989" fill-rule="evenodd" clip-rule="evenodd"
            d="M22.2185 13.7418C22.2085 13.7818 22.1984 13.8219 22.1884 13.862C21.7184 14.3972 21.2523 14.9382 20.7904 15.4849C20.4748 15.8358 20.1291 16.1464 19.7531 16.4166C20.1117 16.0706 20.3372 15.6498 20.4296 15.1543C20.4686 13.7927 20.4886 12.4302 20.4897 11.0669C20.7302 10.4989 21.1461 10.3136 21.7374 10.5109C21.9911 10.6142 22.1465 10.7995 22.2035 11.0669C22.2185 11.9585 22.2235 12.8501 22.2185 13.7418Z"
            fill="#55B6D9" />
        <path opacity="0.99" fill-rule="evenodd" clip-rule="evenodd"
            d="M31.9898 16.2667C31.9898 16.7276 31.9898 17.1884 31.9898 17.6492C32.0716 18.5544 31.6606 18.9602 30.7571 18.8665C30.3807 18.7958 30.1802 18.5704 30.1558 18.1902C30.1675 17.2429 30.1976 16.2962 30.246 15.3501C30.246 15.1194 30.2361 14.894 30.216 14.6738C30.1252 13.5868 29.584 12.8204 28.5924 12.3747C28.0909 12.1998 27.5798 12.1647 27.0591 12.2695C26.8202 12.3173 26.5897 12.3925 26.3676 12.4949C25.2879 13.088 24.3358 13.8444 23.5113 14.764C23.5773 12.9727 24.399 11.6653 25.9767 10.8419C26.207 10.7469 26.4375 10.6617 26.6682 10.5864C28.3742 10.1881 29.8123 10.6389 30.9826 11.9389C31.4105 12.4735 31.7111 13.0746 31.8846 13.7421C31.9177 13.9713 31.9375 14.2017 31.9447 14.4334C31.9498 15.0496 31.9649 15.6607 31.9898 16.2667Z"
            fill="#44916A" />
        <path opacity="0.999" fill-rule="evenodd" clip-rule="evenodd"
            d="M8.44844 10.6465C8.79849 10.6747 9.13922 10.7348 9.47067 10.8268C11.1013 11.4517 12.0734 12.6238 12.387 14.3432C11.3976 13.4077 10.2351 12.7866 8.89942 12.4798C8.7107 12.44 8.52029 12.41 8.32817 12.3897C7.06199 12.1913 5.81929 12.3015 4.60004 12.7203C4.7001 12.5404 4.81534 12.3701 4.94579 12.2093C5.87942 11.1692 7.04696 10.6483 8.44844 10.6465Z"
            fill="#42747E" />
        <path opacity="0.978" fill-rule="evenodd" clip-rule="evenodd"
            d="M26.6682 10.5859C26.4375 10.6612 26.207 10.7464 25.9767 10.8414C24.399 11.6649 23.5773 12.9723 23.5113 14.7635C23.5113 14.7836 23.5113 14.8036 23.5113 14.8236C23.383 14.967 23.2477 15.1073 23.1054 15.2444C22.8164 15.6127 22.5208 15.9734 22.2185 16.3264C22.1885 15.51 22.1785 14.6885 22.1884 13.8619C22.1985 13.8218 22.2085 13.7817 22.2185 13.7417C22.7208 13.1643 23.2519 12.6083 23.812 12.0736C24.6289 11.3247 25.581 10.8288 26.6682 10.5859Z"
            fill="#43A599" />
        <path opacity="0.977" fill-rule="evenodd" clip-rule="evenodd"
            d="M9.47067 10.8271C11.1287 11.1647 12.5518 11.9261 13.74 13.1113C13.7417 13.1446 13.7517 13.1747 13.7701 13.2015C13.765 13.7726 13.7701 14.3436 13.7851 14.9146C13.8872 16.0402 14.3432 16.992 15.1531 17.7698C14.8331 17.515 14.5475 17.2245 14.2962 16.8982C13.8231 16.2829 13.3721 15.6518 12.9433 15.0047C12.7719 14.8085 12.5965 14.6182 12.4171 14.4337C12.3988 14.4069 12.3888 14.3769 12.387 14.3435C12.0735 12.6241 11.1013 11.452 9.47067 10.8271Z"
            fill="#43A599" />
        <path opacity="0.985" fill-rule="evenodd" clip-rule="evenodd"
            d="M8.32819 12.3896C7.0099 12.4102 6.16304 13.0514 5.78764 14.3131C5.60226 15.5004 6.01816 16.4171 7.03537 17.0631C8.25146 17.6134 9.29874 17.388 10.1772 16.3869C10.8988 15.3243 10.8687 14.2824 10.087 13.2612C9.76082 12.8906 9.36494 12.6301 8.89944 12.4798C10.2351 12.7866 11.3976 13.4077 12.387 14.3432C12.3888 14.3765 12.3988 14.4065 12.4171 14.4333C12.5292 15.8956 12.0382 17.1128 10.9439 18.085C9.84272 18.9605 8.59998 19.251 7.21576 18.9565C5.45196 18.4757 4.39464 17.3387 4.04384 15.5453C3.89501 14.5643 4.06037 13.6426 4.53992 12.7803C4.54993 12.7503 4.56999 12.7302 4.60005 12.7202C5.8193 12.3014 7.06201 12.1912 8.32819 12.3896Z"
            fill="#F74494" />
        <path opacity="0.984" fill-rule="evenodd" clip-rule="evenodd"
            d="M27.0591 12.2695C25.8354 12.7372 25.2391 13.6288 25.2702 14.9444C25.4525 15.9646 26.0288 16.6609 26.9989 17.0332C28.214 17.3348 29.1711 16.9691 29.8702 15.9362C30.0924 15.5449 30.2078 15.1242 30.216 14.6739C30.2361 14.8941 30.246 15.1195 30.246 15.3501C30.1976 16.2963 30.1675 17.243 30.1558 18.1903C29.6936 18.4613 29.2026 18.6667 28.6826 18.8064C26.7424 19.129 25.2241 18.4828 24.1277 16.8679C23.7453 16.2405 23.5398 15.5593 23.5113 14.8242C23.5113 14.8041 23.5113 14.7841 23.5113 14.7641C24.3358 13.8444 25.2879 13.0881 26.3676 12.4949C26.5897 12.3925 26.8202 12.3174 27.0591 12.2695Z"
            fill="#FEAF4F" />
        <path opacity="0.997" fill-rule="evenodd" clip-rule="evenodd"
            d="M13.77 13.2012C13.9094 13.3659 14.0447 13.5362 14.1759 13.7121C14.592 14.3636 15.0229 15.0048 15.4687 15.6356C15.71 15.9519 15.9856 16.2324 16.2956 16.4771C16.4265 16.5782 16.5569 16.6784 16.6864 16.7777C17.1521 17.112 17.6632 17.2222 18.2198 17.1083C18.7876 16.9997 19.2987 16.7693 19.7531 16.417C20.129 16.1467 20.4748 15.8362 20.7904 15.4853C21.2523 14.9386 21.7183 14.3976 22.1884 13.8624C22.1785 14.689 22.1885 15.5105 22.2185 16.3269C22.2185 16.3369 22.2185 16.3469 22.2185 16.3569C21.8257 16.8149 21.4148 17.2607 20.9858 17.6943C20.7987 17.8267 20.6283 17.972 20.4747 18.1301C19.365 18.8092 18.1723 19.0146 16.8969 18.7463C16.2368 18.5518 15.6555 18.2262 15.1531 17.7695C14.3432 16.9917 13.8872 16.04 13.7851 14.9143C13.77 14.3433 13.765 13.7723 13.77 13.2012Z"
            fill="#179290" />
        <path opacity="0.376" fill-rule="evenodd" clip-rule="evenodd"
            d="M16.6864 16.7773C17.1658 17.045 17.6769 17.1552 18.2198 17.1079C17.6632 17.2219 17.1521 17.1117 16.6864 16.7773Z"
            fill="#4FB3D2" />
    </g>
    <defs>
        <clipPath id="clip0_5500_84">
            <rect width="32" height="32" fill="white" />
        </clipPath>
    </defs>
</svg>