<svg width="32" height="32" viewBox="0 0 32 32" fill="none" xmlns="http://www.w3.org/2000/svg">
    <rect width="32" height="32" rx="16" fill="#5950EC" />
    <path opacity="0.954" fill-rule="evenodd" clip-rule="evenodd"
        d="M15.6379 1.8813C17.1195 1.83577 18.5986 1.88147 20.0751 2.01835C23.2144 3.17136 24.4324 5.50127 23.7293 9.00809C22.0227 8.47585 20.2826 8.24741 18.509 8.32282C17.0319 8.59572 16.0313 9.46371 15.5074 10.9268C15.1266 17.3083 14.9961 23.7041 15.1159 30.1143C13.6164 30.1936 12.1373 30.0565 10.6787 29.7032C9.03829 28.9565 8.21177 27.6318 8.19906 25.7286C7.97446 20.4219 8.06145 15.1226 8.46007 9.83041C9.2193 5.51618 11.6119 2.8665 15.6379 1.8813Z"
        fill="#FAFAFA" />
</svg>