<svg width="32" height="32" viewBox="0 0 32 32" fill="none" xmlns="http://www.w3.org/2000/svg">
<g clip-path="url(#clip0_6195_2)">
<path d="M0 16V32H16H32V16V-7.7486e-07H16H0V16ZM20.3911 8.56889C20.6222 8.78222 20.8 9.03111 20.8 9.12C20.8 9.20889 20.4267 9.72444 19.9822 10.24C19.5378 10.7733 19.2356 11.2 19.2889 11.2C19.36 11.2 20.2133 10.7556 21.1911 10.24L22.9511 9.26222L23.2889 9.83111C23.4844 10.1511 23.6267 10.4711 23.5911 10.5422C23.5733 10.6311 21.92 11.5911 19.9289 12.6756L16.32 14.6667L14.5956 16.7111C12.8711 18.7556 12.4267 19.3422 12.7289 19.1644C12.8178 19.1111 15.1289 17.7778 17.8667 16.1778C20.6044 14.5956 23.0044 13.12 23.2178 12.8889L23.5911 12.4978L24.1956 12.9956L24.8 13.4933L24.4444 13.92C22.3289 16.5511 20.8533 18.4 20.7467 18.6133C20.6578 18.7556 21.2444 18.4533 22.0267 17.9733C22.8089 17.4756 23.5378 17.0667 23.6444 17.0667C23.7333 17.0667 23.9111 17.2444 24.0178 17.4578C24.1244 17.6889 24.3733 18.0267 24.5333 18.2222C24.8533 18.56 24.8178 18.6311 23.52 20.7111C22.7911 21.8844 22.1333 22.9511 22.0622 23.0933C21.9378 23.2889 21.7956 23.2533 21.28 22.8978L20.64 22.4711L21.3333 21.3867C22.1867 20.0178 22.4711 19.4844 22.2756 19.6089C22.2044 19.6622 21.1378 20.3022 19.9289 21.0489C18.72 21.7778 17.6711 22.3644 17.6178 22.3289C17.5644 22.2756 17.3689 21.9733 17.1733 21.6178L16.8533 20.9956L18.4356 18.9867C20.4267 16.4622 20.48 16.3733 19.7156 16.8356C19.3778 17.0489 16.8533 18.5244 14.0978 20.1422L9.10222 23.0756L8.60444 22.56L8.12444 22.0622L10.2933 19.4667C11.4844 18.0444 12.4089 16.8889 12.3378 16.8889C12.2844 16.8889 11.4311 17.3333 10.4356 17.8667C9.45778 18.4 8.60444 18.8444 8.51556 18.8444C8.44444 18.8444 8.33778 18.6844 8.26667 18.5067C8.21333 18.3111 8.05333 18.1156 7.91111 18.0622C7.76889 18.0089 7.64444 17.9022 7.64444 17.8133C7.64444 17.6711 9.90222 14.5956 10.8978 13.3511C11.0044 13.2267 10.2933 13.5289 9.28 14.0267C8.28444 14.5244 7.39556 14.9333 7.28889 14.9333C7.04 14.9333 6.54222 13.8844 6.64889 13.5822C6.79111 13.1911 9.95556 9.06667 10.0978 9.06667C10.1689 9.06667 10.4533 9.26222 10.7378 9.47556L11.2533 9.90222L10.5244 10.8622C10.1333 11.3778 9.83111 11.84 9.86667 11.8756C9.90222 11.9111 11.2356 11.2533 12.8533 10.4178L15.7511 8.88889L16.0711 9.54667C16.4267 10.2756 16.4089 10.2933 15.1644 10.9867C14.4533 11.36 13.9378 11.8756 13.0489 13.0844C12.3911 13.9556 11.6622 14.9156 11.4311 15.2356C11.0222 15.7689 11.1111 15.7333 13.1378 14.6311L15.2889 13.4756L17.4578 10.8444C18.6667 9.38667 19.7156 8.19555 19.8044 8.19555C19.9111 8.17778 20.16 8.35555 20.3911 8.56889Z" fill="black"/>
</g>
<defs>
<clipPath id="clip0_6195_2">
<rect width="32" height="32" fill="white"/>
</clipPath>
</defs>
</svg>
