<svg width="32" height="32" viewBox="0 0 32 32" fill="none" xmlns="http://www.w3.org/2000/svg">
    <g clip-path="url(#clip0_5015_238)">
        <path fill-rule="evenodd" clip-rule="evenodd"
            d="M-0.125 -0.125C4.70832 -0.125 9.54168 -0.125 14.375 -0.125C14.375 0.791668 14.375 1.70833 14.375 2.625C10.4977 2.54263 6.6644 2.62595 2.875 2.875C2.62595 6.6644 2.54263 10.4977 2.625 14.375C1.70833 14.375 0.791668 14.375 -0.125 14.375C-0.125 9.54168 -0.125 4.70832 -0.125 -0.125Z"
            fill="#2E0004" />
        <path fill-rule="evenodd" clip-rule="evenodd"
            d="M14.375 -0.125C15.375 -0.125 16.375 -0.125 17.375 -0.125C17.375 0.791668 17.375 1.70833 17.375 2.625C21.2523 2.54263 25.0855 2.62595 28.875 2.875C25.2083 2.875 21.5417 2.875 17.875 2.875C17.7083 2.875 17.5417 2.875 17.375 2.875C16.375 2.875 15.375 2.875 14.375 2.875C10.5417 2.875 6.70832 2.875 2.875 2.875C6.6644 2.62595 10.4977 2.54263 14.375 2.625C14.375 1.70833 14.375 0.791668 14.375 -0.125Z"
            fill="#420204" />
        <path fill-rule="evenodd" clip-rule="evenodd"
            d="M17.375 -0.125C22.2083 -0.125 27.0417 -0.125 31.875 -0.125C31.875 4.70832 31.875 9.54168 31.875 14.375C30.9582 14.375 30.0418 14.375 29.125 14.375C29.2075 10.4977 29.124 6.6644 28.875 2.875C25.0855 2.62595 21.2523 2.54263 17.375 2.625C17.375 1.70833 17.375 0.791668 17.375 -0.125Z"
            fill="#2E0004" />
        <path fill-rule="evenodd" clip-rule="evenodd"
            d="M17.875 2.875C21.5417 2.875 25.2083 2.875 28.875 2.875C28.875 6.04168 28.875 9.20832 28.875 12.375C28.5353 9.3015 28.4517 6.21815 28.625 3.125C25.2302 3.04425 21.8552 3.12757 18.5 3.375C18.2513 3.23352 18.043 3.06685 17.875 2.875Z"
            fill="#650206" />
        <path fill-rule="evenodd" clip-rule="evenodd"
            d="M14.375 5.375C14.375 5.45832 14.375 5.54168 14.375 5.625C11.4583 5.625 8.54168 5.625 5.625 5.625C5.625 8.54168 5.625 11.4583 5.625 14.375C5.54168 14.375 5.45832 14.375 5.375 14.375C5.375 11.4583 5.375 8.54168 5.375 5.625C4.625 5.625 3.875 5.625 3.125 5.625C3.125 4.79167 3.125 3.95833 3.125 3.125C3.95833 3.125 4.79167 3.125 5.625 3.125C5.29168 3.875 5.29168 4.625 5.625 5.375C8.54168 5.375 11.4583 5.375 14.375 5.375Z"
            fill="#590206" />
        <path fill-rule="evenodd" clip-rule="evenodd"
            d="M14.375 2.875C15.375 2.875 16.375 2.875 17.375 2.875C17.375 3.79167 17.375 4.70833 17.375 5.625C16.375 5.625 15.375 5.625 14.375 5.625C14.375 5.54168 14.375 5.45832 14.375 5.375C14.375 4.54167 14.375 3.70833 14.375 2.875Z"
            fill="#700309" />
        <path fill-rule="evenodd" clip-rule="evenodd"
            d="M17.375 2.875C17.5417 2.875 17.7083 2.875 17.875 2.875C18.043 3.06685 18.2513 3.23352 18.5 3.375C21.8552 3.12757 25.2302 3.04425 28.625 3.125C28.4517 6.21815 28.5353 9.3015 28.875 12.375C28.875 13.0417 28.875 13.7083 28.875 14.375C27.9582 14.375 27.0418 14.375 26.125 14.375C26.125 11.4583 26.125 8.54168 26.125 5.625C23.2083 5.625 20.2917 5.625 17.375 5.625C17.375 4.70833 17.375 3.79167 17.375 2.875Z"
            fill="#5C0206" />
        <path fill-rule="evenodd" clip-rule="evenodd"
            d="M2.875 2.875C6.70832 2.875 10.5417 2.875 14.375 2.875C14.375 3.70833 14.375 4.54167 14.375 5.375C11.4583 5.375 8.54168 5.375 5.625 5.375C5.29168 4.625 5.29168 3.875 5.625 3.125C4.79167 3.125 3.95833 3.125 3.125 3.125C3.125 3.95833 3.125 4.79167 3.125 5.625C3.875 5.625 4.625 5.625 5.375 5.625C5.375 8.54168 5.375 11.4583 5.375 14.375C4.54167 14.375 3.70833 14.375 2.875 14.375C2.875 10.5417 2.875 6.70832 2.875 2.875Z"
            fill="#5D0206" />
        <path fill-rule="evenodd" clip-rule="evenodd"
            d="M14.375 5.625C14.375 5.70832 14.375 5.79168 14.375 5.875C11.5417 5.875 8.70832 5.875 5.875 5.875C5.875 8.70832 5.875 11.5417 5.875 14.375C5.79168 14.375 5.70832 14.375 5.625 14.375C5.625 11.4583 5.625 8.54168 5.625 5.625C8.54168 5.625 11.4583 5.625 14.375 5.625Z"
            fill="#7F0209" />
        <path fill-rule="evenodd" clip-rule="evenodd"
            d="M14.375 5.875C14.375 6.79167 14.375 7.70833 14.375 8.625C12.4583 8.625 10.5417 8.625 8.625 8.625C8.625 10.5417 8.625 12.4583 8.625 14.375C7.70833 14.375 6.79167 14.375 5.875 14.375C5.875 11.5417 5.875 8.70832 5.875 5.875C8.70832 5.875 11.5417 5.875 14.375 5.875Z"
            fill="#88010A" />
        <path fill-rule="evenodd" clip-rule="evenodd"
            d="M14.375 5.625C15.375 5.625 16.375 5.625 17.375 5.625C17.375 5.70832 17.375 5.79168 17.375 5.875C17.375 6.79167 17.375 7.70833 17.375 8.625C16.375 8.625 15.375 8.625 14.375 8.625C14.375 7.70833 14.375 6.79167 14.375 5.875C14.375 5.79168 14.375 5.70832 14.375 5.625Z"
            fill="#9F050D" />
        <path fill-rule="evenodd" clip-rule="evenodd"
            d="M17.375 5.875C20.2083 5.875 23.0417 5.875 25.875 5.875C25.875 8.70832 25.875 11.5417 25.875 14.375C24.9583 14.375 24.0417 14.375 23.125 14.375C23.125 12.4583 23.125 10.5417 23.125 8.625C21.2083 8.625 19.2917 8.625 17.375 8.625C17.375 7.70833 17.375 6.79167 17.375 5.875Z"
            fill="#88020A" />
        <path fill-rule="evenodd" clip-rule="evenodd"
            d="M17.375 5.875C17.375 5.79168 17.375 5.70832 17.375 5.625C20.2917 5.625 23.2083 5.625 26.125 5.625C26.125 8.54168 26.125 11.4583 26.125 14.375C26.0417 14.375 25.9583 14.375 25.875 14.375C25.875 11.5417 25.875 8.70832 25.875 5.875C23.0417 5.875 20.2083 5.875 17.375 5.875Z"
            fill="#7F020A" />
        <path fill-rule="evenodd" clip-rule="evenodd"
            d="M17.375 8.625C19.2917 8.625 21.2083 8.625 23.125 8.625C23.125 10.5417 23.125 12.4583 23.125 14.375C22.2083 14.375 21.2917 14.375 20.375 14.375C20.2917 14.375 20.2083 14.375 20.125 14.375C20.125 13.4583 20.125 12.5417 20.125 11.625C19.2083 11.625 18.2917 11.625 17.375 11.625C17.375 11.5417 17.375 11.4583 17.375 11.375C17.375 10.4583 17.375 9.54167 17.375 8.625Z"
            fill="#B8040F" />
        <path fill-rule="evenodd" clip-rule="evenodd"
            d="M14.375 8.625C14.375 9.54167 14.375 10.4583 14.375 11.375C14.375 11.4583 14.375 11.5417 14.375 11.625C13.4583 11.625 12.5417 11.625 11.625 11.625C11.625 12.5417 11.625 13.4583 11.625 14.375C11.5417 14.375 11.4583 14.375 11.375 14.375C10.4583 14.375 9.54167 14.375 8.625 14.375C8.625 12.4583 8.625 10.5417 8.625 8.625C10.5417 8.625 12.4583 8.625 14.375 8.625Z"
            fill="#B8040F" />
        <path fill-rule="evenodd" clip-rule="evenodd"
            d="M14.375 8.625C15.375 8.625 16.375 8.625 17.375 8.625C17.375 9.54167 17.375 10.4583 17.375 11.375C16.375 11.375 15.375 11.375 14.375 11.375C14.375 10.4583 14.375 9.54167 14.375 8.625Z"
            fill="#CC0410" />
        <path fill-rule="evenodd" clip-rule="evenodd"
            d="M14.375 11.625C14.375 12.5417 14.375 13.4583 14.375 14.375C13.4583 14.375 12.5417 14.375 11.625 14.375C11.625 13.4583 11.625 12.5417 11.625 11.625C12.5417 11.625 13.4583 11.625 14.375 11.625Z"
            fill="#E10513" />
        <path fill-rule="evenodd" clip-rule="evenodd"
            d="M17.375 11.625C18.2917 11.625 19.2083 11.625 20.125 11.625C20.125 12.5417 20.125 13.4583 20.125 14.375C19.2083 14.375 18.2917 14.375 17.375 14.375C17.375 13.4583 17.375 12.5417 17.375 11.625Z"
            fill="#E20513" />
        <path fill-rule="evenodd" clip-rule="evenodd"
            d="M14.375 11.375C15.375 11.375 16.375 11.375 17.375 11.375C17.375 11.4583 17.375 11.5417 17.375 11.625C17.375 12.5417 17.375 13.4583 17.375 14.375C18.2917 14.375 19.2083 14.375 20.125 14.375C20.2083 14.375 20.2917 14.375 20.375 14.375C20.375 15.375 20.375 16.375 20.375 17.375C20.2917 17.375 20.2083 17.375 20.125 17.375C19.2083 17.375 18.2917 17.375 17.375 17.375C17.375 18.2917 17.375 19.2083 17.375 20.125C17.375 20.2083 17.375 20.2917 17.375 20.375C16.375 20.375 15.375 20.375 14.375 20.375C14.375 20.2917 14.375 20.2083 14.375 20.125C14.375 19.2083 14.375 18.2917 14.375 17.375C13.4583 17.375 12.5417 17.375 11.625 17.375C11.5417 17.375 11.4583 17.375 11.375 17.375C11.375 16.375 11.375 15.375 11.375 14.375C11.4583 14.375 11.5417 14.375 11.625 14.375C12.5417 14.375 13.4583 14.375 14.375 14.375C14.375 13.4583 14.375 12.5417 14.375 11.625C14.375 11.5417 14.375 11.4583 14.375 11.375Z"
            fill="#F10613" />
        <path fill-rule="evenodd" clip-rule="evenodd"
            d="M2.875 2.875C2.875 6.70832 2.875 10.5417 2.875 14.375C2.875 15.375 2.875 16.375 2.875 17.375C2.875 19.0417 2.875 20.7083 2.875 22.375C2.875 24.5417 2.875 26.7083 2.875 28.875C2.62595 25.0855 2.54263 21.2523 2.625 17.375C1.70833 17.375 0.791668 17.375 -0.125 17.375C-0.125 16.375 -0.125 15.375 -0.125 14.375C0.791668 14.375 1.70833 14.375 2.625 14.375C2.54263 10.4977 2.62595 6.6644 2.875 2.875Z"
            fill="#430205" />
        <path fill-rule="evenodd" clip-rule="evenodd"
            d="M2.875 14.375C3.70833 14.375 4.54167 14.375 5.375 14.375C5.45832 14.375 5.54168 14.375 5.625 14.375C5.625 15.375 5.625 16.375 5.625 17.375C4.70833 17.375 3.79167 17.375 2.875 17.375C2.875 16.375 2.875 15.375 2.875 14.375Z"
            fill="#710308" />
        <path fill-rule="evenodd" clip-rule="evenodd"
            d="M5.625 14.375C5.70832 14.375 5.79168 14.375 5.875 14.375C6.79167 14.375 7.70833 14.375 8.625 14.375C8.625 15.375 8.625 16.375 8.625 17.375C7.79167 17.375 6.95833 17.375 6.125 17.375C5.95832 17.375 5.79168 17.375 5.625 17.375C5.625 16.375 5.625 15.375 5.625 14.375Z"
            fill="#9F040C" />
        <path fill-rule="evenodd" clip-rule="evenodd"
            d="M8.625 14.375C9.54167 14.375 10.4583 14.375 11.375 14.375C11.375 15.375 11.375 16.375 11.375 17.375C10.4583 17.375 9.54167 17.375 8.625 17.375C8.625 16.375 8.625 15.375 8.625 14.375Z"
            fill="#CD0510" />
        <path fill-rule="evenodd" clip-rule="evenodd"
            d="M20.375 14.375C21.2917 14.375 22.2083 14.375 23.125 14.375C23.125 15.375 23.125 16.375 23.125 17.375C22.2083 17.375 21.2917 17.375 20.375 17.375C20.375 16.375 20.375 15.375 20.375 14.375Z"
            fill="#CD0411" />
        <path fill-rule="evenodd" clip-rule="evenodd"
            d="M28.875 2.875C29.124 6.6644 29.2075 10.4977 29.125 14.375C30.0418 14.375 30.9582 14.375 31.875 14.375C31.875 15.375 31.875 16.375 31.875 17.375C30.9582 17.375 30.0418 17.375 29.125 17.375C29.2075 21.2523 29.124 25.0855 28.875 28.875C28.875 25.0417 28.875 21.2083 28.875 17.375C28.875 16.375 28.875 15.375 28.875 14.375C28.875 13.7083 28.875 13.0417 28.875 12.375C28.875 9.20832 28.875 6.04168 28.875 2.875Z"
            fill="#440105" />
        <path fill-rule="evenodd" clip-rule="evenodd"
            d="M26.125 14.375C27.0418 14.375 27.9582 14.375 28.875 14.375C28.875 15.375 28.875 16.375 28.875 17.375C28.7917 17.375 28.7083 17.375 28.625 17.375C27.7918 17.375 26.9582 17.375 26.125 17.375C26.125 16.375 26.125 15.375 26.125 14.375Z"
            fill="#710109" />
        <path fill-rule="evenodd" clip-rule="evenodd"
            d="M23.125 14.375C24.0417 14.375 24.9583 14.375 25.875 14.375C25.9583 14.375 26.0417 14.375 26.125 14.375C26.125 15.375 26.125 16.375 26.125 17.375C25.125 17.375 24.125 17.375 23.125 17.375C23.125 16.375 23.125 15.375 23.125 14.375Z"
            fill="#9F040C" />
        <path fill-rule="evenodd" clip-rule="evenodd"
            d="M6.12477 17.375C6.9581 17.375 7.79145 17.375 8.62477 17.375C8.62477 19.2917 8.62477 21.2083 8.62477 23.125C10.5414 23.125 12.4581 23.125 14.3748 23.125C14.3748 24.0417 14.3748 24.9583 14.3748 25.875C11.5414 25.875 8.7081 25.875 5.87477 25.875C5.79712 23.0214 5.88045 20.1881 6.12477 17.375Z"
            fill="#88020A" />
        <path fill-rule="evenodd" clip-rule="evenodd"
            d="M11.625 17.375C12.5417 17.375 13.4583 17.375 14.375 17.375C14.375 18.2917 14.375 19.2083 14.375 20.125C13.4583 20.125 12.5417 20.125 11.625 20.125C11.625 19.2083 11.625 18.2917 11.625 17.375Z"
            fill="#E20512" />
        <path fill-rule="evenodd" clip-rule="evenodd"
            d="M20.125 17.375C20.125 18.2917 20.125 19.2083 20.125 20.125C19.2083 20.125 18.2917 20.125 17.375 20.125C17.375 19.2083 17.375 18.2917 17.375 17.375C18.2917 17.375 19.2083 17.375 20.125 17.375Z"
            fill="#E20412" />
        <path fill-rule="evenodd" clip-rule="evenodd"
            d="M20.375 17.375C21.2917 17.375 22.2083 17.375 23.125 17.375C23.125 19.2917 23.125 21.2083 23.125 23.125C21.2083 23.125 19.2917 23.125 17.375 23.125C17.375 22.2083 17.375 21.2917 17.375 20.375C18.375 20.375 19.375 20.375 20.375 20.375C20.375 19.375 20.375 18.375 20.375 17.375Z"
            fill="#B8040E" />
        <path fill-rule="evenodd" clip-rule="evenodd"
            d="M-0.125 17.375C0.791668 17.375 1.70833 17.375 2.625 17.375C2.54263 21.2523 2.62595 25.0855 2.875 28.875C6.6644 29.124 10.4977 29.2075 14.375 29.125C14.375 30.0418 14.375 30.9582 14.375 31.875C9.54168 31.875 4.70832 31.875 -0.125 31.875C-0.125 27.0417 -0.125 22.2083 -0.125 17.375Z"
            fill="#2F0004" />
        <path fill-rule="evenodd" clip-rule="evenodd"
            d="M8.625 17.375C9.54167 17.375 10.4583 17.375 11.375 17.375C11.375 18.375 11.375 19.375 11.375 20.375C12.375 20.375 13.375 20.375 14.375 20.375C14.375 21.2917 14.375 22.2083 14.375 23.125C12.4583 23.125 10.5417 23.125 8.625 23.125C8.625 21.2083 8.625 19.2917 8.625 17.375Z"
            fill="#B7050F" />
        <path fill-rule="evenodd" clip-rule="evenodd"
            d="M31.875 17.375C31.875 22.2083 31.875 27.0417 31.875 31.875C27.0417 31.875 22.2083 31.875 17.375 31.875C17.375 30.9582 17.375 30.0418 17.375 29.125C21.2523 29.2075 25.0855 29.124 28.875 28.875C29.124 25.0855 29.2075 21.2523 29.125 17.375C30.0418 17.375 30.9582 17.375 31.875 17.375Z"
            fill="#2F0004" />
        <path fill-rule="evenodd" clip-rule="evenodd"
            d="M11.375 17.375C11.4583 17.375 11.5417 17.375 11.625 17.375C11.625 18.2917 11.625 19.2083 11.625 20.125C12.5417 20.125 13.4583 20.125 14.375 20.125C14.375 20.2083 14.375 20.2917 14.375 20.375C13.375 20.375 12.375 20.375 11.375 20.375C11.375 19.375 11.375 18.375 11.375 17.375Z"
            fill="#CC0510" />
        <path fill-rule="evenodd" clip-rule="evenodd"
            d="M20.125 17.375C20.2083 17.375 20.2917 17.375 20.375 17.375C20.375 18.375 20.375 19.375 20.375 20.375C19.375 20.375 18.375 20.375 17.375 20.375C17.375 20.2917 17.375 20.2083 17.375 20.125C18.2917 20.125 19.2083 20.125 20.125 20.125C20.125 19.2083 20.125 18.2917 20.125 17.375Z"
            fill="#CA0410" />
        <path fill-rule="evenodd" clip-rule="evenodd"
            d="M14.375 20.375C15.375 20.375 16.375 20.375 17.375 20.375C17.375 21.2917 17.375 22.2083 17.375 23.125C16.375 23.125 15.375 23.125 14.375 23.125C14.375 22.2083 14.375 21.2917 14.375 20.375Z"
            fill="#CD0510" />
        <path fill-rule="evenodd" clip-rule="evenodd"
            d="M5.625 17.375C5.79168 17.375 5.95832 17.375 6.125 17.375C5.88068 20.1881 5.79735 23.0214 5.875 25.875C8.70832 25.875 11.5417 25.875 14.375 25.875C14.375 25.9583 14.375 26.0417 14.375 26.125C11.4583 26.125 8.54168 26.125 5.625 26.125C5.625 23.2083 5.625 20.2917 5.625 17.375Z"
            fill="#800209" />
        <path fill-rule="evenodd" clip-rule="evenodd"
            d="M26.125 17.375C26.9582 17.375 27.7918 17.375 28.625 17.375C28.625 21.125 28.625 24.875 28.625 28.625C24.875 28.625 21.125 28.625 17.375 28.625C17.375 27.7918 17.375 26.9582 17.375 26.125C20.2917 26.125 23.2083 26.125 26.125 26.125C26.125 23.2083 26.125 20.2917 26.125 17.375Z"
            fill="#5D0206" />
        <path fill-rule="evenodd" clip-rule="evenodd"
            d="M23.125 17.375C24.125 17.375 25.125 17.375 26.125 17.375C26.125 20.2917 26.125 23.2083 26.125 26.125C23.2083 26.125 20.2917 26.125 17.375 26.125C17.375 25.125 17.375 24.125 17.375 23.125C19.2917 23.125 21.2083 23.125 23.125 23.125C23.125 21.2083 23.125 19.2917 23.125 17.375Z"
            fill="#89020B" />
        <path fill-rule="evenodd" clip-rule="evenodd"
            d="M14.375 23.125C15.375 23.125 16.375 23.125 17.375 23.125C17.375 24.125 17.375 25.125 17.375 26.125C16.375 26.125 15.375 26.125 14.375 26.125C14.375 26.0417 14.375 25.9583 14.375 25.875C14.375 24.9583 14.375 24.0417 14.375 23.125Z"
            fill="#A0040D" />
        <path fill-rule="evenodd" clip-rule="evenodd"
            d="M2.875 17.375C3.79167 17.375 4.70833 17.375 5.625 17.375C5.625 20.2917 5.625 23.2083 5.625 26.125C8.54168 26.125 11.4583 26.125 14.375 26.125C14.375 26.9582 14.375 27.7918 14.375 28.625C10.625 28.625 6.875 28.625 3.125 28.625C3.20652 26.4957 3.12317 24.4125 2.875 22.375C2.875 20.7083 2.875 19.0417 2.875 17.375Z"
            fill="#5D0206" />
        <path fill-rule="evenodd" clip-rule="evenodd"
            d="M14.375 26.125C15.375 26.125 16.375 26.125 17.375 26.125C17.375 26.9582 17.375 27.7918 17.375 28.625C17.375 28.7083 17.375 28.7917 17.375 28.875C16.375 28.875 15.375 28.875 14.375 28.875C14.375 28.7917 14.375 28.7083 14.375 28.625C14.375 27.7918 14.375 26.9582 14.375 26.125Z"
            fill="#730208" />
        <path fill-rule="evenodd" clip-rule="evenodd"
            d="M2.875 22.375C3.12317 24.4125 3.20652 26.4957 3.125 28.625C6.875 28.625 10.625 28.625 14.375 28.625C14.375 28.7083 14.375 28.7917 14.375 28.875C10.5417 28.875 6.70832 28.875 2.875 28.875C2.875 26.7083 2.875 24.5417 2.875 22.375Z"
            fill="#660207" />
        <path fill-rule="evenodd" clip-rule="evenodd"
            d="M28.625 17.375C28.7083 17.375 28.7917 17.375 28.875 17.375C28.875 21.2083 28.875 25.0417 28.875 28.875C25.0417 28.875 21.2083 28.875 17.375 28.875C17.375 28.7917 17.375 28.7083 17.375 28.625C21.125 28.625 24.875 28.625 28.625 28.625C28.625 24.875 28.625 21.125 28.625 17.375Z"
            fill="#670307" />
        <path fill-rule="evenodd" clip-rule="evenodd"
            d="M2.875 28.875C6.70832 28.875 10.5417 28.875 14.375 28.875C15.375 28.875 16.375 28.875 17.375 28.875C21.2083 28.875 25.0417 28.875 28.875 28.875C25.0855 29.124 21.2523 29.2075 17.375 29.125C17.375 30.0418 17.375 30.9582 17.375 31.875C16.375 31.875 15.375 31.875 14.375 31.875C14.375 30.9582 14.375 30.0418 14.375 29.125C10.4977 29.2075 6.6644 29.124 2.875 28.875Z"
            fill="#450104" />
    </g>
    <defs>
        <clipPath id="clip0_5015_238">
            <rect width="32" height="32" fill="white" />
        </clipPath>
    </defs>
</svg>