<svg xmlns="http://www.w3.org/2000/svg" width="16" height="16" fill="none">
  <style>
    @media (prefers-color-scheme:dark){path{fill:#fff}}
  </style>
  <path
    d="M8.37 3.666H5.736A1.182 1.182 0 0 0 4.69 4.79v3.81c0 .257.1.48.267.647.166.167.389.267.644.267.5 0 .912-.412.912-.913V6.184c0-.379.311-.691.69-.691h1.189c.255 0 .478-.1.644-.267a.927.927 0 0 0 .267-.658c0-.501-.433-.902-.934-.902ZM7.181 12.357h2.635a1.181 1.181 0 0 0 1.045-1.126v-3.81a.9.9 0 0 0-.267-.647.897.897 0 0 0-.645-.267c-.5 0-.912.412-.912.914v2.417c0 .38-.31.691-.689.691h-1.19c-.255 0-.477.1-.644.268a.927.927 0 0 0-.267.657.934.934 0 0 0 .934.902Z"
    fill="#BF95F9"/>
  <path fill-rule="evenodd" clip-rule="evenodd"
        d="M4.024 0h4.791a5.683 5.683 0 0 1 5.692 5.716v7.588A3.027 3.027 0 0 1 11.75 16H6.703C3.557 16 1 13.437 1 10.284V3.031A3.03 3.03 0 0 1 4.024 0Zm8.67 5.716c0-2.14-1.744-3.889-3.879-3.889h-4.78c-.667 0-1.2.535-1.2 1.204v7.253a3.88 3.88 0 0 0 3.88 3.889h4.957a1.193 1.193 0 0 0 1.023-.98V5.715Z"
        fill="#BF95F9"/>
</svg>
