<svg width="32" height="32" viewBox="0 0 32 32" fill="none" xmlns="http://www.w3.org/2000/svg">
    <path opacity="0.016" fill-rule="evenodd" clip-rule="evenodd"
        d="M0.048173 8.02637C0.0803985 8.02637 0.112624 8.02637 0.14485 8.02637C0.14485 8.09725 0.14485 8.16811 0.14485 8.23899C0.0638108 8.20266 0.0315852 8.13179 0.048173 8.02637Z"
        fill="#FC8C8C" />
    <path opacity="0.975" fill-rule="evenodd" clip-rule="evenodd"
        d="M4.89844 32C4.89844 26.0136 4.89844 20.0272 4.89844 14.0408C5.61855 11.846 6.92342 10.0501 8.81304 8.65306C14.5569 5.56065 20.3201 2.67631 26.1026 0C26.1569 5.9874 26.1025 11.9738 25.9394 17.9592C25.2111 20.32 23.8519 22.2247 21.8617 23.6735C16.2209 26.5611 10.5665 29.3367 4.89844 32Z"
        fill="#00D800" />
</svg>