<svg width="32" height="32" viewBox="0 0 32 32" fill="none" xmlns="http://www.w3.org/2000/svg">
    <g clip-path="url(#clip0_5310_4331)">
        <path fill-rule="evenodd" clip-rule="evenodd"
            d="M-0.0712891 -0.0712891C10.5954 -0.0712891 21.262 -0.0712891 31.9287 -0.0712891C31.9287 2.63093 31.9287 5.33316 31.9287 8.03538C31.8814 8.03538 31.8338 8.03538 31.7865 8.03538C31.8102 5.56974 31.7865 3.10455 31.7154 0.639822C31.5427 0.419545 31.3294 0.253619 31.0754 0.142044C20.9776 0.0472294 10.8798 0.0472294 0.782044 0.142044C0.528033 0.253619 0.314699 0.419545 0.142044 0.639822C0.0709346 6.85001 0.0472308 13.0604 0.0709332 19.2709C0.0235258 19.2709 -0.0238817 19.2709 -0.0712891 19.2709C-0.0712891 12.8235 -0.0712891 6.37611 -0.0712891 -0.0712891Z"
            fill="#FFF9EE" />
        <path fill-rule="evenodd" clip-rule="evenodd"
            d="M31.7869 8.03573C31.3279 8.0072 30.8774 8.05462 30.4358 8.17796C29.4492 6.74289 28.1455 6.33992 26.5247 6.96907C25.0901 8.12239 24.8768 9.4735 25.8847 11.0224C25.9796 11.212 25.9796 11.4017 25.8847 11.5913C24.6521 14.9098 23.4196 18.2284 22.1869 21.5468C21.6327 21.6224 21.1349 21.8357 20.6936 22.1868C20.5514 22.2817 20.4092 22.2817 20.2669 22.1868C18.8841 21.136 17.4619 20.1404 16.0003 19.2002C16.291 17.8479 15.9117 16.7102 14.8625 15.7868C13.0071 14.9042 11.656 15.402 10.8092 17.2802C10.7378 17.8122 10.7378 18.3338 10.8092 18.8446C9.64768 19.8164 8.48621 20.7884 7.32472 21.7602C6.8461 21.7679 6.37203 21.6967 5.9025 21.5468C5.27898 21.6098 4.7338 21.8469 4.26694 22.258C2.87143 21.2418 1.4729 20.2462 0.0713881 19.2713C0.0476858 13.0607 0.0713895 6.85037 0.142499 0.640178C0.315154 0.419901 0.528487 0.253975 0.782499 0.1424C10.8803 0.0475853 20.9781 0.0475853 31.0758 0.1424C31.3298 0.253975 31.5432 0.419901 31.7158 0.640178C31.7869 3.1049 31.8107 5.5701 31.7869 8.03573Z"
            fill="#FBC430" />
        <path fill-rule="evenodd" clip-rule="evenodd"
            d="M31.7865 8.03545C31.8338 8.03545 31.8814 8.03545 31.9287 8.03545C31.9287 8.50952 31.9287 8.9836 31.9287 9.45767C31.6108 9.41576 31.3264 9.46316 31.0754 9.5999C30.8416 9.56953 30.6282 9.61693 30.4354 9.74212C29.9837 11.2336 28.9645 11.9684 27.3776 11.9466C26.0477 15.2012 24.815 18.496 23.6798 21.831C25.1141 23.0183 25.3275 24.3931 24.3198 25.9555C23.1924 26.9334 21.9835 27.0518 20.6932 26.311C19.9195 25.5554 19.5639 24.6309 19.6265 23.5377C18.0396 22.3649 16.4278 21.2271 14.7909 20.1243C14.3408 20.4244 13.843 20.5667 13.2976 20.551C12.6749 20.4964 12.106 20.3306 11.5909 20.0532C10.5663 21.0307 9.49961 21.9552 8.39093 22.8266C8.89835 24.4335 8.44798 25.6899 7.03982 26.5955C4.44287 27.0588 3.16287 25.9448 3.19982 23.2532C2.15432 22.5384 1.11135 21.8273 0.0709332 21.1199C0.0235258 21.1199 -0.0238817 21.1199 -0.0712891 21.1199C-0.0712891 20.5036 -0.0712891 19.8873 -0.0712891 19.271C-0.0238817 19.271 0.0235258 19.271 0.0709332 19.271C1.47245 20.2459 2.87098 21.2415 4.26649 22.2577C4.73335 21.8467 5.27853 21.6096 5.90204 21.5466C6.37158 21.6965 6.84565 21.7676 7.32427 21.7599C8.48575 20.7881 9.64722 19.8161 10.8087 18.8443C10.7373 18.3335 10.7373 17.8119 10.8087 17.2799C11.6555 15.4017 13.0067 14.9039 14.862 15.7866C15.9112 16.7099 16.2905 17.8476 15.9998 19.1999C17.4614 20.1401 18.8837 21.1357 20.2665 22.1866C20.4087 22.2814 20.5509 22.2814 20.6932 22.1866C21.1345 21.8354 21.6322 21.6221 22.1865 21.5466C23.4191 18.2281 24.6516 14.9095 25.8843 11.591C25.9791 11.4014 25.9791 11.2117 25.8843 11.0221C24.8763 9.47322 25.0897 8.12211 26.5243 6.96878C28.145 6.33964 29.4488 6.74261 30.4354 8.17767C30.877 8.05434 31.3274 8.00692 31.7865 8.03545Z"
            fill="#FDFEFC" />
        <path fill-rule="evenodd" clip-rule="evenodd"
            d="M21.4045 7.04013C18.7497 7.04013 16.0949 7.04013 13.4401 7.04013C13.4401 8.22531 13.4401 9.4105 13.4401 10.5957C13.3927 10.5957 13.3453 10.5957 13.2979 10.5957C13.2979 9.36309 13.2979 8.1305 13.2979 6.89791C16.0248 6.85093 18.727 6.89833 21.4045 7.04013Z"
            fill="#FDE8BD" />
        <path fill-rule="evenodd" clip-rule="evenodd"
            d="M11.7334 6.89795C11.9704 6.89795 12.2075 6.89795 12.4445 6.89795C12.4445 8.13055 12.4445 9.36313 12.4445 10.5957C12.2075 10.5957 11.9704 10.5957 11.7334 10.5957C11.7334 9.36313 11.7334 8.13055 11.7334 6.89795Z"
            fill="#FFFEFC" />
        <path fill-rule="evenodd" clip-rule="evenodd"
            d="M21.4049 7.04004C22.1075 7.50515 22.7237 8.07404 23.2538 8.74671C22.7292 9.366 22.1604 9.93489 21.5471 10.4534C18.8557 10.5937 16.1535 10.6411 13.4404 10.5956C13.4404 9.41041 13.4404 8.22522 13.4404 7.04004C16.0953 7.04004 18.75 7.04004 21.4049 7.04004Z"
            fill="#FFFEFE" />
        <path fill-rule="evenodd" clip-rule="evenodd"
            d="M31.0752 9.59984C31.3262 9.46311 31.6107 9.41571 31.9285 9.45762C31.9285 16.6161 31.9285 23.7747 31.9285 30.9332C31.8812 30.9332 31.8337 30.9332 31.7863 30.9332C31.7863 23.8221 31.7863 16.711 31.7863 9.59984C31.5492 9.59984 31.3123 9.59984 31.0752 9.59984Z"
            fill="#BCE1E2" />
        <path fill-rule="evenodd" clip-rule="evenodd"
            d="M31.0758 9.6002C31.3129 9.6002 31.5499 9.6002 31.7869 9.6002C31.7869 16.7113 31.7869 23.8224 31.7869 30.9335C31.8022 31.2753 31.6599 31.536 31.3603 31.7158C21.0729 31.8106 10.7855 31.8106 0.498053 31.7158C0.379535 31.5973 0.261016 31.4787 0.142497 31.3602C0.0713909 27.9472 0.0476871 24.5338 0.0713863 21.1202C1.11181 21.8276 2.15477 22.5387 3.20028 23.2535C3.16333 25.9451 4.44333 27.0591 7.04028 26.5958C8.44843 25.6902 8.89881 24.4338 8.39139 22.8269C9.50007 21.9555 10.5667 21.031 11.5914 20.0535C12.1065 20.3309 12.6754 20.4967 13.2981 20.5513C13.8434 20.567 14.3413 20.4247 14.7914 20.1246C16.4282 21.2274 18.04 22.3652 19.6269 23.538C19.5644 24.6312 19.9199 25.5557 20.6936 26.3113C21.984 27.0521 23.1929 26.9337 24.3203 25.9558C25.3279 24.3934 25.1146 23.0186 23.6803 21.8313C24.8155 18.4963 26.0481 15.2015 27.3781 11.9469C28.965 11.9687 29.9841 11.2339 30.4358 9.74242C30.6287 9.61724 30.842 9.56984 31.0758 9.6002Z"
            fill="#4ABDCB" />
        <path fill-rule="evenodd" clip-rule="evenodd"
            d="M21.5467 10.4531C20.2228 10.6425 18.8479 10.7374 17.4223 10.7376C16.023 10.7375 14.6481 10.6901 13.2979 10.5953C13.3453 10.5953 13.3927 10.5953 13.4401 10.5953C16.1531 10.6409 18.8553 10.5935 21.5467 10.4531Z"
            fill="#FCCA51" />
        <path fill-rule="evenodd" clip-rule="evenodd"
            d="M-0.0712891 21.1201C-0.0238817 21.1201 0.0235258 21.1201 0.0709332 21.1201C0.047234 24.5337 0.0709377 27.9471 0.142044 31.3601C0.260562 31.4786 0.379082 31.5972 0.4976 31.7157C10.785 31.8105 21.0725 31.8105 31.3598 31.7157C31.6595 31.5359 31.8017 31.2752 31.7865 30.9334C31.8338 30.9334 31.8814 30.9334 31.9287 30.9334C31.9287 31.2653 31.9287 31.5972 31.9287 31.929C21.262 31.929 10.5954 31.929 -0.0712891 31.929C-0.0712891 28.3261 -0.0712891 24.723 -0.0712891 21.1201Z"
            fill="#DDF1F4" />
    </g>
    <defs>
        <clipPath id="clip0_5310_4331">
            <rect width="32" height="32" fill="white" />
        </clipPath>
    </defs>
</svg>