<svg width="32" height="32" viewBox="0 0 32 32" fill="none" xmlns="http://www.w3.org/2000/svg">
    <g clip-path="url(#clip0_5270_2271)">
        <path fill-rule="evenodd" clip-rule="evenodd"
            d="M-0.0712891 -0.0712891C10.5954 -0.0712891 21.262 -0.0712891 31.9287 -0.0712891C31.9287 10.5954 31.9287 21.262 31.9287 31.9287C21.262 31.9287 10.5954 31.9287 -0.0712891 31.9287C-0.0712891 21.262 -0.0712891 10.5954 -0.0712891 -0.0712891Z"
            fill="#FEFEFE" />
        <path fill-rule="evenodd" clip-rule="evenodd"
            d="M22.8266 22.969C20.5262 23.0159 18.2506 22.9684 15.9999 22.8267C16.1925 22.3244 16.4769 21.8741 16.8533 21.4756C18.8444 21.4283 20.8355 21.3808 22.8266 21.3334C26.4093 20.36 27.95 18.0134 27.4488 14.2934C26.3001 11.1587 24.0481 9.76019 20.6933 10.0979C19.3538 10.4887 18.2398 11.2236 17.351 12.3023C15.5417 14.7279 13.7877 17.1932 12.0888 19.6979C10.4985 21.3621 8.67331 21.6703 6.61327 20.6223C4.74262 18.997 4.43448 17.1243 5.68882 15.0045C6.41162 14.1335 7.33607 13.6594 8.46216 13.5823C9.43699 13.5362 10.3851 13.5836 11.3066 13.7245C10.9586 14.206 10.6267 14.7037 10.311 15.2179C9.50511 15.2652 8.6992 15.3127 7.89327 15.3601C6.49679 16.2538 6.23604 17.4153 7.11104 18.8445C8.52425 19.9027 9.80425 19.7604 10.951 18.4179C12.6499 15.9132 14.4039 13.4479 16.2133 11.0223C19.2652 7.89524 22.6548 7.49228 26.3822 9.81341C28.9069 11.8881 29.7838 14.5193 29.0133 17.7067C28.0085 20.7278 25.9462 22.4819 22.8266 22.969Z"
            fill="#17B9FD" />
        <path fill-rule="evenodd" clip-rule="evenodd"
            d="M8.03535 11.3071C9.67266 11.2604 11.2845 11.3078 12.8709 11.4493C12.5901 11.8734 12.3057 12.3001 12.0176 12.7293C10.6452 12.8476 9.27038 12.9187 7.89313 12.9426C5.15302 13.8342 3.99154 15.7069 4.40869 18.5604C5.31322 21.0637 7.091 22.1303 9.74202 21.7604C10.3303 21.6276 10.8992 21.4378 11.4487 21.1915C11.8991 20.836 12.302 20.433 12.6576 19.9826C14.5638 17.0951 16.626 14.3218 18.8442 11.6626C20.184 10.7794 21.6536 10.495 23.2531 10.8093C26.583 12.1837 27.6496 14.5778 26.4531 17.9915C25.7284 19.2853 24.6617 20.1623 23.2531 20.6226C21.3156 20.8729 19.3719 20.8965 17.422 20.6937C17.7009 20.1593 18.0329 19.6615 18.4176 19.2004C19.7924 19.153 21.1672 19.1055 22.542 19.0582C24.666 18.3923 25.5431 16.9463 25.1731 14.7204C24.3174 12.8347 22.8714 12.0999 20.8354 12.516C20.1248 12.7985 19.5322 13.2488 19.0576 13.8671C17.5327 15.9136 16.0629 17.9995 14.6487 20.1248C12.3029 23.5614 9.24513 24.3911 5.47535 22.6137C2.99624 20.8188 2.11919 18.4247 2.84424 15.4315C3.76266 13.0184 5.49303 11.6436 8.03535 11.3071Z"
            fill="#18B9FD" />
        <path fill-rule="evenodd" clip-rule="evenodd"
            d="M8.03564 11.3063C9.67215 11.118 11.3314 11.118 13.0134 11.3063C12.9958 11.3926 12.9484 11.44 12.8712 11.4485C11.2848 11.307 9.67295 11.2596 8.03564 11.3063Z"
            fill="#9FE4FE" />
        <path fill-rule="evenodd" clip-rule="evenodd"
            d="M8.4624 13.5821C9.43577 13.3945 10.4313 13.3945 11.4491 13.5821C11.4315 13.6684 11.3841 13.7158 11.3068 13.7243C10.3854 13.5834 9.43724 13.536 8.4624 13.5821Z"
            fill="#D2F2FE" />
        <path fill-rule="evenodd" clip-rule="evenodd"
            d="M15.9998 22.8271C18.2504 22.9688 20.526 23.0163 22.8264 22.9694C20.4805 23.1346 18.1101 23.1582 15.7153 23.0405C15.7927 22.9385 15.8876 22.8674 15.9998 22.8271Z"
            fill="#32C5FD" />
    </g>
    <defs>
        <clipPath id="clip0_5270_2271">
            <rect width="32" height="32" fill="white" />
        </clipPath>
    </defs>
</svg>