<svg width="32" height="32" viewBox="0 0 32 32" fill="none" xmlns="http://www.w3.org/2000/svg">
    <path opacity="0.975" fill-rule="evenodd" clip-rule="evenodd"
        d="M26.9335 2.93323C21.2436 2.94297 17.5103 5.60966 15.7335 10.9332C15.3779 16.4443 15.0224 21.9555 14.6668 27.4666C10.0765 25.9364 5.45431 24.5142 0.800176 23.1999C0.192203 17.9077 0.103314 12.5744 0.53351 7.1999C4.24151 1.9603 9.30818 0.00474694 15.7335 1.33323C18.4002 1.42212 21.0668 1.51101 23.7335 1.5999C25.0529 1.61947 26.1196 2.06392 26.9335 2.93323Z"
        fill="#6968CC" />
    <path fill-rule="evenodd" clip-rule="evenodd"
        d="M10.4002 2.40014C11.4815 2.31368 12.5481 2.40256 13.6002 2.66681C11.9143 3.42044 10.3143 4.30933 8.80023 5.33347C7.5558 5.68905 6.31132 5.68905 5.06689 5.33347C6.66097 3.91631 8.43873 2.93853 10.4002 2.40014Z"
        fill="#F2F1FA" />
    <path opacity="0.986" fill-rule="evenodd" clip-rule="evenodd"
        d="M26.9332 2.93311C28.151 2.99066 29.2176 3.4351 30.1332 4.26644C30.5344 4.62418 30.7122 5.06863 30.6665 5.59977C27.2984 3.83651 23.9207 4.10317 20.5332 6.39977C19.1433 7.43359 18.1656 8.76692 17.5998 10.3998C17.1559 16.097 17.2448 21.7859 17.8665 27.4664C22.2298 23.7782 26.6743 20.2227 31.1998 16.7998C31.1998 17.1553 31.1998 17.5109 31.1998 17.8664C26.6233 21.7603 21.8233 25.4047 16.7998 28.7998C14.9869 29.091 13.2092 28.9132 11.4665 28.2664C7.74046 26.8766 4.00714 25.5432 0.266487 24.2664C0.174977 23.7376 0.352755 23.382 0.79982 23.1998C5.45395 24.5141 10.0761 25.9363 14.6665 27.4664C14.6985 27.7561 14.8762 27.9339 15.1998 27.9998C15.7325 22.322 15.9102 16.6331 15.7332 10.9331C17.51 5.60953 21.2433 2.94284 26.9332 2.93311Z"
        fill="#F9F3F9" />
    <path fill-rule="evenodd" clip-rule="evenodd"
        d="M15.7335 2.93321C16.9904 2.84611 18.2349 2.935 19.4668 3.19988C17.8651 3.82182 16.4429 4.71071 15.2001 5.86654C13.9192 6.30073 12.6747 6.21182 11.4668 5.59988C12.8061 4.5104 14.2283 3.62151 15.7335 2.93321Z"
        fill="#F3F3FB" />
    <path opacity="0.991" fill-rule="evenodd" clip-rule="evenodd"
        d="M30.6668 5.59989C31.18 9.2864 31.3578 13.0197 31.2002 16.7999C26.6746 20.2228 22.2302 23.7783 17.8668 27.4666C17.2451 21.786 17.1562 16.0971 17.6002 10.3999C18.1659 8.76704 19.1437 7.43371 20.5335 6.39989C23.921 4.1033 27.2988 3.83663 30.6668 5.59989Z"
        fill="#FF3567" />
    <path fill-rule="evenodd" clip-rule="evenodd"
        d="M7.73345 11.4668C8.44454 11.4668 9.15569 11.4668 9.86678 11.4668C9.95553 15.5595 9.86662 19.6485 9.60011 23.7335C9.06678 24.4446 8.53345 24.4446 8.00011 23.7335C7.73361 19.6485 7.6447 15.5595 7.73345 11.4668Z"
        fill="#EEEEF9" />
    <path fill-rule="evenodd" clip-rule="evenodd"
        d="M15.7332 10.9331C15.9102 16.6331 15.7325 22.322 15.1998 27.9998C14.8763 27.9339 14.6985 27.7561 14.6665 27.4664C15.0221 21.9553 15.3776 16.4442 15.7332 10.9331Z"
        fill="#D4D4F1" />
    <path opacity="0.819" fill-rule="evenodd" clip-rule="evenodd"
        d="M31.2 17.8667C27.5437 22.8556 23.0992 27.0334 17.8667 30.4C11.8186 30.3713 6.12971 28.8602 0.800003 25.8667C0.327642 25.4267 0.149864 24.8934 0.266669 24.2667C4.00733 25.5435 7.74064 26.8768 11.4667 28.2667C13.2093 28.9135 14.9871 29.0912 16.8 28.8C21.8235 25.405 26.6235 21.7606 31.2 17.8667Z"
        fill="#6969CD" />
    <path fill-rule="evenodd" clip-rule="evenodd"
        d="M3.46653 19.4668C5.51987 19.5738 6.0532 20.5517 5.06653 22.4001C2.28756 22.6915 1.75423 21.7137 3.46653 19.4668Z"
        fill="#EDEDF9" />
</svg>