<svg width="32" height="32" viewBox="0 0 32 32" fill="none" xmlns="http://www.w3.org/2000/svg">
    <path fill-rule="evenodd" clip-rule="evenodd"
        d="M11.9979 19.9948L4.00049 11.9959L11.9981 3.99658L14.119 6.11813L8.2429 11.9959L14.119 17.8732L11.9979 19.9948ZM19.992 27.9961L17.8709 25.8745L23.7466 19.997L17.8709 14.1194L19.992 11.9979L27.9892 19.9972L19.992 27.9965V27.9961Z"
        fill="white" />
    <path fill-rule="evenodd" clip-rule="evenodd"
        d="M32 15.9986H29.0001C29.0001 8.83144 23.1704 3.00049 16.0047 3.00049V0C24.8243 0 32 7.17697 32 15.9986ZM15.9949 32C7.17529 32 0 24.8228 0 16.0014H2.99987C2.99987 23.1686 8.82941 28.9995 15.9949 28.9995V32Z"
        fill="#009AFF" />
</svg>