<svg width="32" height="32" viewBox="0 0 32 32" fill="none" xmlns="http://www.w3.org/2000/svg">
    <path fill-rule="evenodd" clip-rule="evenodd"
        d="M7.54802 0.0845045C9.41289 -0.20244 11.0729 0.24138 12.5281 1.41597C14.7797 1.58468 17.0254 1.68329 19.2659 1.71185C21.9484 -0.520097 24.536 -0.372157 27.0289 2.15567C27.8758 3.40884 28.1688 4.78962 27.9078 6.29799C27.5096 7.48743 26.8751 8.52301 26.0036 9.40473C26.3273 11.2178 26.3762 13.0424 26.1501 14.8785C25.6439 18.1354 24.814 21.2914 23.66 24.3467C24.8134 24.26 25.9362 24.3585 27.0289 24.6426C27.2293 25.0225 27.1804 25.3678 26.8825 25.6781C25.4081 25.7287 23.9433 25.8767 22.4883 26.122C22.427 26.2954 22.3292 26.4433 22.1953 26.5658C23.4723 27.275 24.8392 27.7188 26.2966 27.8972C26.4401 28.6216 26.1961 29.1148 25.5642 29.3767C24.212 28.9707 22.8937 28.4778 21.6094 27.8972C20.5865 29.1769 19.4147 30.311 18.0941 31.2999C16.4202 32.2334 14.7604 32.2334 13.114 31.2999C11.9422 30.5108 10.9657 29.5246 10.1845 28.3411C8.80687 28.376 7.48861 28.7213 6.22977 29.3767C5.31091 28.9491 5.26208 28.4068 6.08329 27.7493C7.13175 27.515 8.10822 27.1206 9.01275 26.5658C8.87876 26.4433 8.78112 26.2954 8.71981 26.122C7.26472 25.8767 5.79999 25.7287 4.32562 25.6781C3.93503 25.2837 3.93503 24.889 4.32562 24.4946C5.50935 24.4434 6.68114 24.2955 7.84097 24.0508C5.45197 19.2431 4.57313 14.1638 5.20446 8.81297C3.02333 5.06355 3.80453 2.15404 7.54802 0.0845045Z"
        fill="#5B5B5B" />
    <path fill-rule="evenodd" clip-rule="evenodd"
        d="M7.84085 1.56408C9.12076 1.39341 10.2925 1.63997 11.3562 2.30378C9.28144 3.4625 7.52377 4.9912 6.08318 6.88992C5.50725 5.98778 5.36077 5.00152 5.64376 3.93112C6.23791 2.98661 6.97028 2.19759 7.84085 1.56408Z"
        fill="#E3E3E3" />
    <path fill-rule="evenodd" clip-rule="evenodd"
        d="M21.6093 1.5638C24.3507 1.13229 26.0108 2.26652 26.5894 4.96642C26.457 5.9752 26.1151 6.91213 25.5641 7.77729C24.2458 5.6568 22.537 3.93084 20.4375 2.59938C20.7981 2.18373 21.1886 1.83856 21.6093 1.5638Z"
        fill="#E3E3E3" />
    <path fill-rule="evenodd" clip-rule="evenodd"
        d="M13.1164 3.04496C18.7571 2.29221 22.6143 4.56064 24.6878 9.85021C24.9362 16.3966 23.2764 22.413 19.7077 27.8989C18.693 29.4715 17.2769 30.3591 15.46 30.5618C14.6606 30.6225 13.9771 30.376 13.4094 29.8221C11.0029 27.5637 9.29405 24.8513 8.28283 21.6854C7.75565 19.5951 7.16976 17.524 6.52516 15.4719C5.44419 9.50882 7.64128 5.3665 13.1164 3.04496Z"
        fill="#EAEAEA" />
    <path fill-rule="evenodd" clip-rule="evenodd"
        d="M9.89261 13.4004C13.3013 13.431 14.1802 14.9598 12.5291 17.9865C9.42469 18.9941 8.10644 17.8599 8.57436 14.5839C8.98354 14.1193 9.42296 13.7248 9.89261 13.4004Z"
        fill="#5B5B5B" />
    <path fill-rule="evenodd" clip-rule="evenodd"
        d="M19.2652 13.4004C22.8392 13.4034 23.718 14.9322 21.9017 17.9865C18.5756 18.919 17.3549 17.6862 18.2399 14.288C18.6846 14.0917 19.0265 13.7959 19.2652 13.4004Z"
        fill="#5C5C5C" />
    <path fill-rule="evenodd" clip-rule="evenodd"
        d="M10.185 14.8801C11.8425 14.6373 12.3309 15.2784 11.6498 16.8033C9.96268 17.1402 9.47446 16.4992 10.185 14.8801Z"
        fill="#E2E2E2" />
    <path fill-rule="evenodd" clip-rule="evenodd"
        d="M19.5597 14.8801C21.2172 14.6373 21.7055 15.2784 21.0244 16.8033C19.4528 17.0353 18.9644 16.3942 19.5597 14.8801Z"
        fill="#E6E6E6" />
    <path fill-rule="evenodd" clip-rule="evenodd"
        d="M14.287 26.4164C15.4828 26.3703 16.6546 26.5182 17.8023 26.8603C18.0534 27.0641 18.2485 27.3106 18.3882 27.6C16.9147 28.8678 15.2549 29.1146 13.4082 28.3397C13.0935 28.121 12.8981 27.8251 12.8223 27.452C13.2385 26.9718 13.7269 26.6265 14.287 26.4164Z"
        fill="#5D5D5D" />
</svg>