<svg width="32" height="32" viewBox="0 0 32 32" fill="none" xmlns="http://www.w3.org/2000/svg">
    <g clip-path="url(#clip0_5323_5058)">
        <path fill-rule="evenodd" clip-rule="evenodd"
            d="M-0.108398 -0.10791C5.15286 -0.10791 10.4141 -0.10791 15.6754 -0.10791C10.4758 5.23581 5.21454 10.4971 -0.108398 15.6759C-0.108398 10.4146 -0.108398 5.15334 -0.108398 -0.10791Z"
            fill="#477935" />
        <path fill-rule="evenodd" clip-rule="evenodd"
            d="M16.1084 -0.10791C21.3697 -0.10791 26.631 -0.10791 31.8922 -0.10791C31.8922 5.15334 31.8922 10.4146 31.8922 15.6759C26.5588 10.4867 21.2976 5.22543 16.1084 -0.10791Z"
            fill="#477935" />
        <path fill-rule="evenodd" clip-rule="evenodd"
            d="M15.6754 -0.10791C15.8195 -0.10791 15.9637 -0.10791 16.1078 -0.10791C21.297 5.22543 26.5582 10.4867 31.8916 15.6759C31.8916 15.82 31.8916 15.9642 31.8916 16.1083C26.5582 21.2975 21.297 26.5587 16.1078 31.8921C15.9637 31.8921 15.8195 31.8921 15.6754 31.8921C10.4758 26.5483 5.21454 21.2871 -0.108398 16.1083C-0.108398 15.9642 -0.108398 15.82 -0.108398 15.6759C5.21454 10.4971 10.4758 5.23581 15.6754 -0.10791Z"
            fill="#FAF5E4" />
        <path fill-rule="evenodd" clip-rule="evenodd"
            d="M13.7295 9.18904C15.9353 8.93618 18.0254 9.29654 19.9997 10.2701C20.4487 9.88359 20.9172 9.52322 21.4051 9.18904C21.5493 10.7026 21.5493 12.2161 21.4051 13.7296C19.7087 10.2301 17.0781 9.18508 13.5132 10.5944C12.3601 11.6035 12.3601 12.6125 13.5132 13.6215C15.2921 14.4627 17.166 14.9672 19.1349 15.135C21.8328 16.2388 22.5176 18.0767 21.1889 20.6485C19.7177 22.0405 17.9519 22.6891 15.8916 22.5944C14.3951 22.5897 12.9897 22.2293 11.6754 21.5134C11.0985 21.7663 10.594 22.1268 10.1619 22.5944C10.0177 21.153 10.0177 19.7116 10.1619 18.2701C12.0415 21.6109 14.7442 22.5839 18.27 21.189C19.4812 20.0232 19.4091 18.9422 18.0538 17.9458C16.116 17.4238 14.1701 16.9193 12.2159 16.4323C9.99389 15.1934 9.45335 13.4277 10.5943 11.135C11.4682 10.1772 12.5132 9.52859 13.7295 9.18904Z"
            fill="#211D1E" />
        <path fill-rule="evenodd" clip-rule="evenodd"
            d="M31.8922 16.1079C31.8922 21.3692 31.8922 26.6305 31.8922 31.8917C26.631 31.8917 21.3697 31.8917 16.1084 31.8917C21.2976 26.5583 26.5588 21.2971 31.8922 16.1079Z"
            fill="#477935" />
        <path fill-rule="evenodd" clip-rule="evenodd"
            d="M-0.108398 16.1079C5.21454 21.2867 10.4758 26.5479 15.6754 31.8917C10.4141 31.8917 5.15286 31.8917 -0.108398 31.8917C-0.108398 26.6305 -0.108398 21.3692 -0.108398 16.1079Z"
            fill="#477935" />
    </g>
    <defs>
        <clipPath id="clip0_5323_5058">
            <rect width="32" height="32" fill="white" />
        </clipPath>
    </defs>
</svg>