<svg width="32" height="32" viewBox="0 0 32 32" fill="none" xmlns="http://www.w3.org/2000/svg">
    <g clip-path="url(#clip0_5326_5189)">
        <path fill-rule="evenodd" clip-rule="evenodd"
            d="M-0.0800781 -0.0800781C5.03992 -0.0800781 10.1599 -0.0800781 15.2799 -0.0800781C14.9639 0.103343 14.7239 0.37001 14.5599 0.719922C14.4532 2.15992 14.4532 3.59992 14.5599 5.03992C15.0985 5.85736 15.8185 6.04403 16.7199 5.59992C16.8735 5.37282 17.0068 5.13282 17.1199 4.87992C17.2266 3.54659 17.2266 2.21325 17.1199 0.879922C16.9023 0.476304 16.609 0.156305 16.2399 -0.0800781C21.4666 -0.0800781 26.6932 -0.0800781 31.9199 -0.0800781C31.9199 10.5866 31.9199 21.2532 31.9199 31.9199C26.6399 31.9199 21.3599 31.9199 16.0799 31.9199C20.8575 30.6364 22.751 27.5431 21.7599 22.6399C21.195 21.0609 20.2082 19.8074 18.7999 18.8799C17.2522 17.9998 15.7589 17.0398 14.3199 15.9999C13.5502 14.8122 13.7102 13.7989 14.7999 12.9599C15.9577 12.5921 16.7844 12.9388 17.2799 13.9999C17.4778 14.5695 17.5578 15.1562 17.5199 15.7599C18.7529 15.5183 19.9796 15.2516 21.1999 14.9599C21.399 12.1845 20.2257 10.2378 17.6799 9.11992C14.1362 8.18509 11.6029 9.38509 10.0799 12.7199C9.41307 15.2536 10.0264 17.4137 11.9199 19.1999C13.1461 20.0801 14.4261 20.8801 15.7599 21.5999C16.8087 22.1687 17.582 22.9953 18.0799 24.0799C18.4036 25.9374 17.6836 27.1906 15.9199 27.8399C14.1128 28.11 12.9128 27.39 12.3199 25.6799C12.24 24.9351 12.2134 24.1886 12.2399 23.4399C10.9 23.735 9.56663 24.055 8.23992 24.3999C8.13136 27.3033 9.30469 29.5166 11.7599 31.0399C12.4827 31.4487 13.2293 31.742 13.9999 31.9199C9.30659 31.9199 4.61325 31.9199 -0.0800781 31.9199C-0.0800781 21.2532 -0.0800781 10.5866 -0.0800781 -0.0800781Z"
            fill="#FDFEFE" />
        <path fill-rule="evenodd" clip-rule="evenodd"
            d="M15.2805 -0.0800781C15.6005 -0.0800781 15.9205 -0.0800781 16.2405 -0.0800781C16.6096 0.156305 16.9029 0.476304 17.1205 0.879922C17.2272 2.21325 17.2272 3.54659 17.1205 4.87992C17.0074 5.13282 16.8741 5.37282 16.7205 5.59992C15.8191 6.04403 15.0991 5.85736 14.5605 5.03992C14.4538 3.59992 14.4538 2.15992 14.5605 0.719922C14.7245 0.37001 14.9645 0.103343 15.2805 -0.0800781Z"
            fill="#1099F8" />
        <path fill-rule="evenodd" clip-rule="evenodd"
            d="M22.3202 2.15998C23.706 1.97266 24.3192 2.55932 24.1602 3.91998C23.9469 4.23998 23.7335 4.55998 23.5202 4.87998C22.8005 5.64718 22.0272 6.36718 21.2002 7.03998C19.7335 7.27998 19.1202 6.66665 19.3602 5.19998C20.2719 4.10172 21.2586 3.08839 22.3202 2.15998Z"
            fill="#179AF8" />
        <path fill-rule="evenodd" clip-rule="evenodd"
            d="M8.4002 2.16001C8.9953 2.08041 9.52863 2.21374 10.0002 2.56001C10.7735 3.33334 11.5469 4.10669 12.3202 4.88001C12.8269 6.72001 12.1602 7.38668 10.3202 6.88001C9.4394 6.05249 8.61273 5.17249 7.8402 4.24001C7.41582 3.36625 7.60247 2.67291 8.4002 2.16001Z"
            fill="#159AF9" />
        <path fill-rule="evenodd" clip-rule="evenodd"
            d="M16.0803 31.92C15.387 31.92 14.6936 31.92 14.0003 31.92C13.2297 31.7421 12.483 31.4488 11.7603 31.04C9.30506 29.5166 8.13173 27.3034 8.24029 24.4C9.567 24.055 10.9003 23.735 12.2403 23.44C12.2138 24.1886 12.2404 24.9352 12.3203 25.68C12.9132 27.3901 14.1132 28.1101 15.9203 27.84C17.684 27.1907 18.404 25.9374 18.0803 24.08C17.5824 22.9954 16.8091 22.1688 15.7603 21.6C14.4265 20.8802 13.1465 20.0802 11.9203 19.2C10.0268 17.4138 9.41345 15.2537 10.0803 12.72C11.6033 9.38518 14.1366 8.18517 17.6803 9.12001C20.2261 10.2379 21.3993 12.1846 21.2003 14.96C19.98 15.2517 18.7533 15.5184 17.5203 15.76C17.5582 15.1563 17.4782 14.5696 17.2803 14C16.7848 12.9388 15.9581 12.5922 14.8003 12.96C13.7105 13.799 13.5505 14.8123 14.3203 16C15.7593 17.0398 17.2526 17.9998 18.8003 18.88C20.2086 19.8075 21.1953 21.061 21.7603 22.64C22.7513 27.5432 20.8579 30.6365 16.0803 31.92Z"
            fill="#1E3A5F" />
    </g>
    <defs>
        <clipPath id="clip0_5326_5189">
            <rect width="32" height="32" fill="white" />
        </clipPath>
    </defs>
</svg>