<svg width="32" height="32" viewBox="0 0 32 32" fill="none" xmlns="http://www.w3.org/2000/svg">
    <g clip-path="url(#clip0_5417_45)">
        <path fill-rule="evenodd" clip-rule="evenodd"
            d="M-0.0800781 -0.0800781C10.4799 -0.0800781 21.0399 -0.0800781 31.5999 -0.0800781C31.5999 10.5866 31.5999 21.2532 31.5999 31.9199C21.0399 31.9199 10.4799 31.9199 -0.0800781 31.9199C-0.0800781 21.2532 -0.0800781 10.5866 -0.0800781 -0.0800781Z"
            fill="#FDFDFE" />
        <path fill-rule="evenodd" clip-rule="evenodd"
            d="M31.5996 -0.0800781C31.7063 -0.0800781 31.8129 -0.0800781 31.9196 -0.0800781C31.9196 10.5866 31.9196 21.2532 31.9196 31.9199C31.8129 31.9199 31.7063 31.9199 31.5996 31.9199C31.5996 21.2532 31.5996 10.5866 31.5996 -0.0800781Z"
            fill="#4F7F6F" />
        <path fill-rule="evenodd" clip-rule="evenodd"
            d="M10.4798 10.8001C10.3705 11.0684 10.1572 11.175 9.83984 11.1201C9.94919 10.8519 10.1625 10.7452 10.4798 10.8001Z"
            fill="#606060" />
        <path fill-rule="evenodd" clip-rule="evenodd"
            d="M10.48 10.7998C11.3333 10.7998 12.1867 10.7998 13.04 10.7998C13.1493 11.068 13.3627 11.1747 13.68 11.1198C14.32 11.5465 14.8533 12.0798 15.28 12.7198C15.2251 13.0371 15.3318 13.2505 15.6 13.3598C15.6 13.5731 15.6 13.7865 15.6 13.9998C14.7467 13.9998 13.8933 13.9998 13.04 13.9998C13.0949 13.6825 12.9882 13.4691 12.72 13.3598C12.72 13.1465 12.6133 13.0398 12.4 13.0398C12.209 12.8354 11.9424 12.7288 11.6 12.7198C11.2576 12.7288 10.991 12.8354 10.8 13.0398C10.0276 13.3296 9.76096 13.8629 10 14.6398C11.0948 15.2673 12.2148 15.8539 13.36 16.3998C14.6946 17.6332 14.9612 19.0732 14.16 20.7198C13.7867 21.0931 13.4133 21.4665 13.04 21.8398C12.552 22.1625 12.0187 22.3225 11.44 22.3198C10.6933 22.3198 9.94667 22.3198 9.2 22.3198C7.76802 22.1667 6.80802 21.42 6.32 20.0798C6.37491 19.7625 6.26824 19.5491 6 19.4398C6 19.2265 6 19.0131 6 18.7998C6.85333 18.7998 7.70667 18.7998 8.56 18.7998C8.50509 19.1171 8.61176 19.3305 8.88 19.4398C8.93915 20.2044 9.36582 20.5244 10.16 20.3998C10.7357 20.3752 11.269 20.2152 11.76 19.9198C12.2192 19.1944 12.1125 18.5544 11.44 17.9998C10.2841 17.6352 9.21742 17.1019 8.24 16.3998C7.85554 16.111 7.58888 15.7377 7.44 15.2798C6.82518 13.0695 7.62518 11.6828 9.84 11.1198C10.1573 11.1747 10.3707 11.068 10.48 10.7998Z"
            fill="#0F0F0F" />
        <path fill-rule="evenodd" clip-rule="evenodd"
            d="M13.04 10.8001C13.3574 10.7452 13.5707 10.8519 13.68 11.1201C13.3627 11.175 13.1494 11.0684 13.04 10.8001Z"
            fill="#969696" />
        <path fill-rule="evenodd" clip-rule="evenodd"
            d="M19.7601 10.8001C19.6508 11.0684 19.4374 11.175 19.1201 11.1201C19.2294 10.8519 19.4428 10.7452 19.7601 10.8001Z"
            fill="#707070" />
        <path fill-rule="evenodd" clip-rule="evenodd"
            d="M19.7596 10.7998C20.6129 10.7998 21.4663 10.7998 22.3196 10.7998C22.4289 11.068 22.6423 11.1747 22.9596 11.1198C23.9196 11.4398 24.5596 12.0798 24.8796 13.0398C24.8247 13.3571 24.9315 13.5705 25.1996 13.6798C25.1996 13.9998 25.1996 14.3198 25.1996 14.6398C24.3463 14.6398 23.4929 14.6398 22.6396 14.6398C22.7122 13.8613 22.3922 13.328 21.6796 13.0398C21.5462 12.8401 21.3329 12.7335 21.0396 12.7198C20.7463 12.7335 20.533 12.8401 20.3996 13.0398C19.8009 13.1546 19.3209 13.4746 18.9596 13.9998C18.811 14.19 18.7577 14.4034 18.7996 14.6398C18.5314 14.7491 18.4247 14.9625 18.4796 15.2798C18.4796 15.3865 18.4796 15.4931 18.4796 15.5998C18.1903 15.8267 18.0836 16.1467 18.1596 16.5598C18.0585 17.6729 18.2185 18.7395 18.6396 19.7598C18.762 19.9377 18.922 20.0444 19.1196 20.0798C19.3673 20.2868 19.6873 20.3936 20.0796 20.3998C20.4719 20.3936 20.7919 20.2868 21.0396 20.0798C21.5529 19.828 21.7663 19.4012 21.6796 18.7998C21.9689 18.5729 22.0756 18.2529 21.9996 17.8398C21.3596 17.8398 20.7196 17.8398 20.0796 17.8398C20.0796 17.6265 20.0796 17.4131 20.0796 17.1998C20.3478 17.0905 20.4545 16.8771 20.3996 16.5598C21.83 16.2443 23.3233 16.1376 24.8796 16.2398C24.8796 16.4531 24.8796 16.6665 24.8796 16.8798C24.5753 17.3337 24.4686 17.8672 24.5596 18.4798C24.421 19.3328 24.261 20.1862 24.0796 21.0398C23.6036 21.571 23.0169 21.891 22.3196 21.9998C22.0023 21.9449 21.7889 22.0516 21.6796 22.3198C21.3596 22.3198 21.0396 22.3198 20.7196 22.3198C19.9729 22.3198 19.2263 22.3198 18.4796 22.3198C16.7095 21.8281 15.7496 20.6548 15.5996 18.7998C15.5996 18.1598 15.5996 17.5198 15.5996 16.8798C15.5996 16.4531 15.5996 16.0265 15.5996 15.5998C15.8678 15.4905 15.9745 15.2771 15.9196 14.9598C16.0938 14.29 16.3606 13.65 16.7196 13.0398C17.3063 12.4531 17.8929 11.8665 18.4796 11.2798C18.6698 11.1312 18.8831 11.0779 19.1196 11.1198C19.4369 11.1747 19.6503 11.068 19.7596 10.7998Z"
            fill="#0D0D0D" />
        <path fill-rule="evenodd" clip-rule="evenodd"
            d="M22.3203 10.8001C22.6376 10.7452 22.851 10.8519 22.9603 11.1201C22.643 11.175 22.4296 11.0684 22.3203 10.8001Z"
            fill="#747474" />
        <path fill-rule="evenodd" clip-rule="evenodd"
            d="M21.6804 13.0402C21.2537 13.0402 20.8271 13.0402 20.4004 13.0402C20.5338 12.8406 20.7471 12.7339 21.0404 12.7202C21.3337 12.7339 21.547 12.8406 21.6804 13.0402Z"
            fill="#7B7B7B" />
        <path fill-rule="evenodd" clip-rule="evenodd"
            d="M12.3998 13.0402C11.8665 13.0402 11.3331 13.0402 10.7998 13.0402C10.9908 12.8358 11.2575 12.7292 11.5998 12.7202C11.9422 12.7292 12.2088 12.8358 12.3998 13.0402Z"
            fill="#A2A2A2" />
        <path fill-rule="evenodd" clip-rule="evenodd"
            d="M15.2796 12.7202C15.5479 12.8296 15.6545 13.0429 15.5996 13.3602C15.3314 13.2509 15.2247 13.0375 15.2796 12.7202Z"
            fill="#717171" />
        <path fill-rule="evenodd" clip-rule="evenodd"
            d="M24.8802 13.04C25.1483 13.1494 25.2551 13.3627 25.2002 13.68C24.932 13.5707 24.8253 13.3574 24.8802 13.04Z"
            fill="#7B7B7B" />
        <path fill-rule="evenodd" clip-rule="evenodd"
            d="M12.7201 13.3599C12.9883 13.4692 13.095 13.6826 13.0401 13.9999C12.7718 13.8905 12.6651 13.6772 12.7201 13.3599Z"
            fill="#8C8C8C" />
        <path fill-rule="evenodd" clip-rule="evenodd"
            d="M13.04 14C13.8934 14 14.7467 14 15.6 14C15.2411 14.2099 14.8145 14.3165 14.32 14.32C13.8256 14.3165 13.399 14.2099 13.04 14Z"
            fill="#4A4A4A" />
        <path fill-rule="evenodd" clip-rule="evenodd"
            d="M18.7998 14.6401C18.8547 14.9574 18.748 15.1708 18.4798 15.2801C18.4249 14.9628 18.5316 14.7495 18.7998 14.6401Z"
            fill="#969696" />
        <path fill-rule="evenodd" clip-rule="evenodd"
            d="M15.9199 14.96C15.9748 15.2773 15.8682 15.4906 15.5999 15.6C15.545 15.2826 15.6517 15.0693 15.9199 14.96Z"
            fill="#8D8D8D" />
        <path fill-rule="evenodd" clip-rule="evenodd"
            d="M18.4804 15.6001C18.5564 16.0132 18.4497 16.3332 18.1604 16.5601C18.0844 16.147 18.1911 15.827 18.4804 15.6001Z"
            fill="#747474" />
        <path fill-rule="evenodd" clip-rule="evenodd"
            d="M20.4004 16.5601C20.4553 16.8773 20.3485 17.0908 20.0804 17.2001C20.0255 16.8828 20.1322 16.6693 20.4004 16.5601Z"
            fill="#909090" />
        <path fill-rule="evenodd" clip-rule="evenodd"
            d="M15.6003 16.8799C15.6003 17.5199 15.6003 18.1599 15.6003 18.7999C15.3932 18.5522 15.2865 18.2322 15.2803 17.8399C15.2865 17.4476 15.3932 17.1276 15.6003 16.8799Z"
            fill="#8B8B8B" />
        <path fill-rule="evenodd" clip-rule="evenodd"
            d="M24.8798 16.8799C24.9708 17.4925 24.8641 18.026 24.5598 18.4799C24.4687 17.8672 24.5754 17.3338 24.8798 16.8799Z"
            fill="#959595" />
        <path fill-rule="evenodd" clip-rule="evenodd"
            d="M20.0801 17.8398C20.7201 17.8398 21.3601 17.8398 22.0001 17.8398C22.0761 18.253 21.9694 18.573 21.6801 18.7998C21.6801 18.5866 21.6801 18.3731 21.6801 18.1598C21.0674 18.2509 20.534 18.1442 20.0801 17.8398Z"
            fill="#505050" />
        <path fill-rule="evenodd" clip-rule="evenodd"
            d="M8.88 19.4402C8.61176 19.3309 8.50509 19.1175 8.56 18.8002C7.70667 18.8002 6.85333 18.8002 6 18.8002C6.89181 18.4877 7.85181 18.381 8.88 18.4802C8.88 18.8002 8.88 19.1202 8.88 19.4402Z"
            fill="#909090" />
        <path fill-rule="evenodd" clip-rule="evenodd"
            d="M6.00032 19.4399C6.26856 19.5492 6.37524 19.7627 6.32032 20.0799C6.05208 19.9707 5.94541 19.7572 6.00032 19.4399Z"
            fill="#6B6B6B" />
        <path fill-rule="evenodd" clip-rule="evenodd"
            d="M19.1201 20.0801C19.7601 20.0801 20.4001 20.0801 21.0401 20.0801C20.7924 20.2871 20.4724 20.3938 20.0801 20.4001C19.6878 20.3938 19.3678 20.2871 19.1201 20.0801Z"
            fill="#9D9D9D" />
        <path fill-rule="evenodd" clip-rule="evenodd"
            d="M22.3197 21.9998C22.2104 22.268 21.997 22.3747 21.6797 22.3198C21.789 22.0517 22.0024 21.9449 22.3197 21.9998Z"
            fill="#7C7C7C" />
        <path fill-rule="evenodd" clip-rule="evenodd"
            d="M9.2002 22.3198C9.94687 22.3198 10.6935 22.3198 11.4402 22.3198C11.1366 22.5286 10.7633 22.6352 10.3202 22.6398C9.87708 22.6352 9.50375 22.5286 9.2002 22.3198Z"
            fill="#979797" />
        <path fill-rule="evenodd" clip-rule="evenodd"
            d="M18.4805 22.3198C19.2272 22.3198 19.9737 22.3198 20.7205 22.3198C20.4169 22.5286 20.0435 22.6352 19.6005 22.6398C19.1574 22.6352 18.784 22.5286 18.4805 22.3198Z"
            fill="#929292" />
    </g>
    <defs>
        <clipPath id="clip0_5417_45">
            <rect width="32" height="32" fill="white" />
        </clipPath>
    </defs>
</svg>