<svg width="32" height="32" viewBox="0 0 32 32" fill="none" xmlns="http://www.w3.org/2000/svg">
    <path opacity="0.914" fill-rule="evenodd" clip-rule="evenodd"
        d="M1.91235 0C11.2616 0 20.6109 0 29.9601 0C31.0687 0.495256 31.7273 1.3486 31.9362 2.56C32.0213 11.5627 32.0213 20.5654 31.9362 29.568C31.6695 30.7095 31.0108 31.5201 29.9601 32C20.6109 32 11.2616 32 1.91235 32C1.06242 31.5734 0.424966 30.9334 0 30.08C0 20.6934 0 11.3067 0 1.92C0.424966 1.06667 1.06242 0.426666 1.91235 0ZM2.16733 1.408C11.3467 1.38666 20.526 1.408 29.7051 1.472C30.0239 1.62134 30.2576 1.856 30.4063 2.176C30.4914 11.392 30.4914 20.608 30.4063 29.824C30.0923 30.3124 29.6461 30.5898 29.0677 30.656C20.3133 30.7414 11.5591 30.7414 2.80478 30.656C2.18334 30.6538 1.73713 30.3764 1.46613 29.824C1.38114 20.608 1.38114 11.392 1.46613 2.176C1.63948 1.85311 1.87321 1.59711 2.16733 1.408Z"
        fill="#155DA5" />
    <path opacity="0.972" fill-rule="evenodd" clip-rule="evenodd"
        d="M3.05981 3.07227C5.69461 3.07227 8.32939 3.07227 10.9642 3.07227C10.9642 8.70427 10.9642 14.3363 10.9642 19.9683C8.32939 19.9683 5.69461 19.9683 3.05981 19.9683C3.05981 14.3363 3.05981 8.70427 3.05981 3.07227Z"
        fill="#155DA5" />
    <path opacity="0.96" fill-rule="evenodd" clip-rule="evenodd"
        d="M11.9841 3.07227C14.619 3.07227 17.2537 3.07227 19.8885 3.07227C19.8885 5.7176 19.8885 8.36293 19.8885 11.0083C17.2537 11.0083 14.619 11.0083 11.9841 11.0083C11.9841 8.36293 11.9841 5.7176 11.9841 3.07227Z"
        fill="#155DA5" />
    <path opacity="0.979" fill-rule="evenodd" clip-rule="evenodd"
        d="M20.9084 3.07227C23.5433 3.07227 26.178 3.07227 28.8128 3.07227C28.8128 5.7176 28.8128 8.36293 28.8128 11.0083C26.178 11.0083 23.5433 11.0083 20.9084 11.0083C20.9084 8.36293 20.9084 5.7176 20.9084 3.07227Z"
        fill="#155DA5" />
    <path opacity="0.989" fill-rule="evenodd" clip-rule="evenodd"
        d="M11.9841 12.0322C14.619 12.0322 17.2537 12.0322 19.8885 12.0322C19.8885 14.6776 19.8885 17.3229 19.8885 19.9682C17.2537 19.9682 14.619 19.9682 11.9841 19.9682C11.9841 17.3229 11.9841 14.6776 11.9841 12.0322Z"
        fill="#155DA5" />
    <path opacity="0.989" fill-rule="evenodd" clip-rule="evenodd"
        d="M20.9084 12.0322C23.5433 12.0322 26.178 12.0322 28.8128 12.0322C28.8128 17.6642 28.8128 23.2962 28.8128 28.9282C26.178 28.9282 23.5433 28.9282 20.9084 28.9282C20.9084 23.2962 20.9084 17.6642 20.9084 12.0322Z"
        fill="#155DA5" />
    <path opacity="0.999" fill-rule="evenodd" clip-rule="evenodd"
        d="M3.05981 20.9922C5.69461 20.9922 8.32939 20.9922 10.9642 20.9922C10.9642 23.6376 10.9642 26.2828 10.9642 28.9282C8.32939 28.9282 5.69461 28.9282 3.05981 28.9282C3.05981 26.2828 3.05981 23.6376 3.05981 20.9922Z"
        fill="#155DA5" />
    <path opacity="0.979" fill-rule="evenodd" clip-rule="evenodd"
        d="M11.9841 20.9922C14.619 20.9922 17.2537 20.9922 19.8885 20.9922C19.8885 23.6376 19.8885 26.2828 19.8885 28.9282C17.2537 28.9282 14.619 28.9282 11.9841 28.9282C11.9841 26.2828 11.9841 23.6376 11.9841 20.9922Z"
        fill="#155DA5" />
</svg>