<svg width="32" height="32" viewBox="0 0 32 32" fill="none" xmlns="http://www.w3.org/2000/svg">
    <path opacity="0.776" fill-rule="evenodd" clip-rule="evenodd"
        d="M14.2769 0.0298769C15.356 -0.0507471 16.4226 0.0318083 17.4769 0.277494C16.9435 0.360024 16.4102 0.44258 15.8769 0.52511C15.2343 0.51689 14.701 0.351803 14.2769 0.0298769Z"
        fill="#0078FD" />
    <path opacity="0.69" fill-rule="evenodd" clip-rule="evenodd"
        d="M11.8156 0.277352C12.2557 0.206732 12.666 0.289263 13.0464 0.524969C12.4978 0.995714 11.8414 1.24333 11.0771 1.26782C11.0771 1.0202 11.0771 0.772586 11.0771 0.524969C11.3949 0.583729 11.6411 0.501198 11.8156 0.277352Z"
        fill="#0B70EC" />
    <path opacity="0.706" fill-rule="evenodd" clip-rule="evenodd"
        d="M18.7078 0.277748C19.4218 0.223174 20.0782 0.388235 20.6771 0.772982C20.6013 0.973081 20.4783 1.13814 20.3078 1.26822C19.8811 1.08278 19.4298 0.958967 18.954 0.896791C18.7688 0.730689 18.6867 0.52435 18.7078 0.277748Z"
        fill="#116EE6" />
    <path opacity="0.746" fill-rule="evenodd" clip-rule="evenodd"
        d="M9.10766 1.26835C9.50232 1.22175 9.83052 1.34555 10.0923 1.63977C9.58299 2.10391 9.00863 2.35152 8.3692 2.38262C8.25661 2.28011 8.17457 2.1563 8.12305 2.0112C8.46801 1.75845 8.7962 1.51084 9.10766 1.26835Z"
        fill="#0E6CE8" />
    <path opacity="0.741" fill-rule="evenodd" clip-rule="evenodd"
        d="M21.9078 1.02051C22.5373 1.19082 23.1116 1.47971 23.6309 1.88717C22.9146 2.32131 22.2582 2.1975 21.6616 1.51574C21.7509 1.3465 21.833 1.18143 21.9078 1.02051Z"
        fill="#056FF2" />
    <path opacity="0.989" fill-rule="evenodd" clip-rule="evenodd"
        d="M24.6153 27.2679C23.9136 26.7715 23.1751 26.3176 22.3999 25.906C22.1833 25.5703 22.1012 25.1988 22.1538 24.7918C20.923 24.7918 19.6922 24.7918 18.4615 24.7918C18.4615 23.7188 18.4615 22.6457 18.4615 21.5727C20.1025 21.5727 21.7435 21.5727 23.3845 21.5727C23.3845 21.2427 23.3845 20.9123 23.3845 20.5823C23.6462 18.2109 23.1539 16.0237 21.9076 14.0204C22.6506 12.1087 23.6352 10.3754 24.8615 8.82048C24.6541 7.67842 24.1208 7.47206 23.2615 8.20144C23.1011 8.63105 23.1421 9.04375 23.3845 9.43952C22.6516 10.6698 21.8311 11.8254 20.923 12.9062C17.3127 9.60461 13.7025 9.60461 10.0922 12.9062C8.82862 11.5904 8.04913 10.0221 7.75377 8.20144C6.64253 7.49801 6.15022 7.82815 6.27684 9.1919C7.6556 10.5591 8.59918 12.2099 9.10761 14.1442C7.81818 16.3849 7.40792 18.7786 7.87684 21.3251C9.38936 21.5703 10.9483 21.6527 12.5538 21.5727C12.5538 22.6457 12.5538 23.7188 12.5538 24.7918C11.323 24.7918 10.0922 24.7918 8.86146 24.7918C8.90003 25.1317 8.859 25.4621 8.73838 25.7822C8.04327 26.1086 7.42788 26.5214 6.89223 27.0203C1.98113 22.635 0.545229 17.2699 2.58453 10.9252C6.21577 3.29228 12.1645 0.444692 20.4307 2.38244C28.2717 5.73455 31.3486 11.6361 29.6615 20.087C28.6992 23.0208 27.0173 25.4143 24.6153 27.2679Z"
        fill="#0478FC" />
    <path opacity="0.701" fill-rule="evenodd" clip-rule="evenodd"
        d="M6.6461 2.75344C6.95532 2.74389 7.20147 2.86769 7.38456 3.12487C6.93629 3.55654 6.44399 3.92796 5.90764 4.23914C5.64113 4.02496 5.6001 3.77734 5.78456 3.49629C6.06643 3.2149 6.3536 2.96729 6.6461 2.75344Z"
        fill="#0076F7" />
    <path opacity="0.742" fill-rule="evenodd" clip-rule="evenodd"
        d="M24.6156 2.50586C25.3651 2.76467 25.8574 3.2599 26.0925 3.99156C25.4946 3.97051 25.0023 3.7229 24.6156 3.24871C24.3541 3.01976 24.3541 2.77215 24.6156 2.50586Z"
        fill="#0B6FEA" />
    <path opacity="0.641" fill-rule="evenodd" clip-rule="evenodd"
        d="M4.18489 4.73519C4.55296 4.71409 4.79912 4.87918 4.92335 5.23042C3.43304 6.90174 3.18688 6.73668 4.18489 4.73519Z"
        fill="#0B6FE9" />
    <path opacity="0.677" fill-rule="evenodd" clip-rule="evenodd"
        d="M27.0767 4.4873C27.601 4.8902 28.0933 5.34416 28.5536 5.8492C28.3629 6.15364 28.1167 6.23617 27.8152 6.09681C27.1077 5.70003 26.8616 5.16355 27.0767 4.4873Z"
        fill="#0B70EC" />
    <path opacity="0.671" fill-rule="evenodd" clip-rule="evenodd"
        d="M2.46165 7.21094C3.0055 7.88032 2.84139 8.45808 1.96934 8.94425C1.75601 8.28968 1.92011 7.71192 2.46165 7.21094Z"
        fill="#0175F8" />
    <path opacity="0.74" fill-rule="evenodd" clip-rule="evenodd"
        d="M29.0462 6.96289C29.6003 7.37052 30.0106 7.90703 30.277 8.5724C30.1477 8.74385 29.9835 8.86766 29.7847 8.94382C29.0971 8.39664 28.851 7.73632 29.0462 6.96289Z"
        fill="#0074F3" />
    <path opacity="0.704" fill-rule="evenodd" clip-rule="evenodd"
        d="M30.2769 9.93457C30.523 9.93457 30.7692 9.93457 31.0153 9.93457C31.0559 10.5107 31.2199 11.0472 31.5076 11.5441C31.1916 11.7134 30.9043 11.6721 30.6461 11.4203C30.446 10.941 30.3229 10.4457 30.2769 9.93457Z"
        fill="#0471F5" />
    <path opacity="0.633" fill-rule="evenodd" clip-rule="evenodd"
        d="M0.984495 10.1826C1.25186 10.2123 1.41596 10.3774 1.4768 10.6779C1.34234 11.0826 1.26029 11.4953 1.23065 11.9159C0.984495 11.9159 0.738341 11.9159 0.492188 11.9159C0.557903 11.3055 0.722004 10.7277 0.984495 10.1826Z"
        fill="#0076F7" />
    <path fill-rule="evenodd" clip-rule="evenodd"
        d="M23.3844 20.5826C23.1619 20.7582 23.0799 21.0058 23.1383 21.3255C21.5329 21.2455 19.9739 21.328 18.4614 21.5731C18.4614 22.646 18.4614 23.7192 18.4614 24.7921C19.6921 24.7921 20.9229 24.7921 22.1537 24.7921C22.1011 25.1992 22.1832 25.5706 22.3998 25.9064C23.175 26.3179 23.9135 26.7718 24.6152 27.2683C24.1267 27.9279 23.4703 28.3407 22.646 28.5064C22.2797 27.8413 22.1156 27.9237 22.1537 28.754C21.0448 29.4706 19.814 29.9245 18.4614 30.1159C14.1009 30.8151 10.2445 29.7836 6.89214 27.0207C7.42779 26.5217 8.04318 26.1089 8.73829 25.7826C8.85891 25.4624 8.89994 25.1321 8.86137 24.7921C10.0921 24.7921 11.3229 24.7921 12.5537 24.7921C12.7964 23.6853 12.8785 22.5296 12.7998 21.3255C11.1588 21.3255 9.51779 21.3255 7.87675 21.3255C7.40783 18.779 7.81809 16.3853 9.10752 14.1446C8.59909 12.2103 7.65551 10.5595 6.27675 9.19226C6.15013 7.82851 6.64244 7.49836 7.75368 8.20179C8.04904 10.0225 8.82853 11.5907 10.0921 12.9065C13.7024 9.60496 17.3126 9.60496 20.9229 12.9065C21.831 11.8257 22.6515 10.6702 23.3844 9.43987C23.1421 9.04411 23.101 8.6314 23.2614 8.20179C24.1207 7.47241 24.6541 7.67877 24.8614 8.82083C23.6351 10.3757 22.6505 12.1091 21.9075 14.0208C23.1538 16.024 23.6461 18.2112 23.3844 20.5826Z"
        fill="#F4F6F8" />
    <path opacity="0.687" fill-rule="evenodd" clip-rule="evenodd"
        d="M31.0156 12.9062C31.2618 12.9062 31.5079 12.9062 31.7541 12.9062C31.8998 13.5568 31.9818 14.2171 32.0002 14.8872C31.7541 14.8872 31.5079 14.8872 31.2618 14.8872C31.2861 14.2095 31.2039 13.5491 31.0156 12.9062Z"
        fill="#0272F5" />
    <path opacity="0.73" fill-rule="evenodd" clip-rule="evenodd"
        d="M0 13.1533C0.246154 13.1533 0.492308 13.1533 0.738462 13.1533C0.757972 13.8394 0.634895 14.4996 0.369231 15.1343C0.275058 14.9966 0.151982 14.9141 0 14.8866C0 14.3089 0 13.7311 0 13.1533Z"
        fill="#0076F9" />
    <path fill-rule="evenodd" clip-rule="evenodd"
        d="M11.5694 13.8967C12.8595 13.6764 13.5159 14.2129 13.5386 15.5062C13.4528 16.7666 12.7964 17.1794 11.5694 16.7443C10.6273 15.8153 10.6273 14.8662 11.5694 13.8967Z"
        fill="#2B2726" />
    <path fill-rule="evenodd" clip-rule="evenodd"
        d="M17.9694 13.6484C19.5189 13.7682 20.0522 14.5936 19.5694 16.1246C17.8814 17.0665 17.0609 16.5713 17.1079 14.6389C17.2776 14.1808 17.5648 13.8506 17.9694 13.6484Z"
        fill="#2A2625" />
    <path fill-rule="evenodd" clip-rule="evenodd"
        d="M18.7079 14.6396C19.1915 14.7506 19.2736 14.9982 18.9541 15.3825C18.7361 15.1782 18.654 14.9306 18.7079 14.6396Z"
        fill="#DDDDDD" />
    <path fill-rule="evenodd" clip-rule="evenodd"
        d="M12.5541 14.8867C13.0377 14.9977 13.1198 15.2453 12.8003 15.6296C12.5823 15.4253 12.5002 15.1777 12.5541 14.8867Z"
        fill="#DFDEDE" />
    <path fill-rule="evenodd" clip-rule="evenodd"
        d="M15.0153 15.6299C15.231 15.5975 15.3952 15.6799 15.5076 15.8775C15.8045 16.5161 16.1327 17.1352 16.4922 17.7347C15.7538 17.8998 15.0153 17.8998 14.2769 17.7347C14.5963 17.0594 14.8425 16.3579 15.0153 15.6299Z"
        fill="#EA422C" />
    <path opacity="0.636" fill-rule="evenodd" clip-rule="evenodd"
        d="M31.2617 16.125C31.5079 16.125 31.754 16.125 32.0002 16.125C32.0002 16.7027 32.0002 17.2806 32.0002 17.8583C31.754 17.8583 31.5079 17.8583 31.2617 17.8583C31.2617 17.2806 31.2617 16.7027 31.2617 16.125Z"
        fill="#0077FB" />
    <path opacity="0.77" fill-rule="evenodd" clip-rule="evenodd"
        d="M0 16.373C0.42561 16.7328 0.671764 17.2281 0.738462 17.8587C0.535394 18.0781 0.289242 18.1606 0 18.1064C0 17.5287 0 16.9507 0 16.373Z"
        fill="#0077FB" />
    <path fill-rule="evenodd" clip-rule="evenodd"
        d="M11.3232 18.6016C13.8982 19.5878 16.4828 19.5878 19.0771 18.6016C19.2002 18.684 19.3232 18.7667 19.4463 18.8492C17.0874 20.2024 14.6259 20.4089 12.0617 19.4682C11.5877 19.3637 11.3415 19.0748 11.3232 18.6016Z"
        fill="#373332" />
    <path opacity="0.705" fill-rule="evenodd" clip-rule="evenodd"
        d="M31.0153 19.0967C31.2548 19.2173 31.5009 19.3411 31.7537 19.4681C31.6289 20.1035 31.3417 20.6401 30.8922 21.0776C30.7691 20.9952 30.646 20.9125 30.5229 20.83C30.7881 20.2781 30.9522 19.7001 31.0153 19.0967Z"
        fill="#0471F2" />
    <path opacity="0.736" fill-rule="evenodd" clip-rule="evenodd"
        d="M0.492248 19.3438C0.844523 19.4381 1.04965 19.6857 1.10763 20.0866C1.30395 20.5222 1.26293 20.9349 0.984555 21.3247C0.593688 20.9253 0.347534 20.43 0.246094 19.839C0.335382 19.6699 0.417434 19.5047 0.492248 19.3438Z"
        fill="#0471F2" />
    <path fill-rule="evenodd" clip-rule="evenodd"
        d="M7.87695 21.3252C9.51799 21.3252 11.159 21.3252 12.8 21.3252C12.8787 22.5294 12.7966 23.685 12.5539 24.7918C12.5539 23.7189 12.5539 22.6457 12.5539 21.5728C10.9484 21.6528 9.38947 21.5703 7.87695 21.3252Z"
        fill="#6FB1FD" />
    <path fill-rule="evenodd" clip-rule="evenodd"
        d="M23.3845 20.582C23.3845 20.9121 23.3845 21.2424 23.3845 21.5725C21.7435 21.5725 20.1025 21.5725 18.4614 21.5725C19.9739 21.3274 21.5329 21.2449 23.1383 21.3249C23.0799 21.0052 23.162 20.7576 23.3845 20.582Z"
        fill="#5DA8FE" />
    <path opacity="0.704" fill-rule="evenodd" clip-rule="evenodd"
        d="M30.0309 22.0684C30.2704 22.1889 30.5166 22.3128 30.7694 22.4398C30.472 22.9969 30.1439 23.5335 29.7848 24.0493C29.5859 23.973 29.4217 23.8492 29.2925 23.6779C29.6405 23.1844 29.8867 22.6478 30.0309 22.0684Z"
        fill="#0077F9" />
    <path opacity="0.738" fill-rule="evenodd" clip-rule="evenodd"
        d="M1.47711 22.3154C1.99536 22.6836 2.40562 23.1789 2.70788 23.8011C2.52521 23.996 2.32008 24.1609 2.0925 24.2964C1.83662 23.7402 1.54944 23.2036 1.23096 22.6869C1.36781 22.592 1.44986 22.4682 1.47711 22.3154Z"
        fill="#0471F3" />
    <path opacity="0.638" fill-rule="evenodd" clip-rule="evenodd"
        d="M2.95361 25.0391C3.54682 25.1433 3.99809 25.4734 4.30746 26.0295C4.45547 26.3923 4.33239 26.6399 3.93823 26.7724C3.38839 26.3066 3.0602 25.7287 2.95361 25.0391Z"
        fill="#1768D8" />
    <path opacity="0.728" fill-rule="evenodd" clip-rule="evenodd"
        d="M28.554 24.792C28.7947 24.869 28.9589 25.0342 29.0463 25.2872C28.8358 26.1734 28.3435 26.5035 27.5693 26.2777C27.8074 25.7107 28.1355 25.2154 28.554 24.792Z"
        fill="#126BE2" />
    <path fill-rule="evenodd" clip-rule="evenodd"
        d="M15.2616 25.2866C15.9568 25.1829 16.4902 25.4305 16.8616 26.0295C17.3847 27.2062 17.5898 28.4443 17.477 29.7438C16.3253 29.7849 15.1766 29.7435 14.0308 29.6199C13.7945 28.6963 13.7124 27.7472 13.7846 26.7723C14.0308 26.7723 14.277 26.7723 14.5231 26.7723C14.5135 26.1313 14.7597 25.636 15.2616 25.2866Z"
        fill="#2B82FC" />
    <path fill-rule="evenodd" clip-rule="evenodd"
        d="M15.2614 25.7819C16.1105 25.5977 16.5207 25.928 16.4921 26.7724C15.8954 26.8486 15.3211 26.7659 14.769 26.5247C14.9395 26.2727 15.1036 26.0251 15.2614 25.7819Z"
        fill="#E1E7EF" />
    <path opacity="0.665" fill-rule="evenodd" clip-rule="evenodd"
        d="M26.3386 27.2681C26.6478 27.2584 26.8939 27.3823 27.0771 27.6395C26.6517 28.2789 26.0775 28.6503 25.354 28.7538C25.5271 28.1662 25.8552 27.671 26.3386 27.2681Z"
        fill="#0073F7" />
    <path opacity="0.701" fill-rule="evenodd" clip-rule="evenodd"
        d="M5.16901 27.2676C6.1101 27.5422 6.52037 28.1201 6.39977 29.0009C5.90747 28.5881 5.41516 28.1756 4.92285 27.7628C5.01213 27.5937 5.0942 27.4285 5.16901 27.2676Z"
        fill="#0D68E4" />
    <path fill-rule="evenodd" clip-rule="evenodd"
        d="M15.2617 27.5156C15.6255 27.4507 15.9537 27.5331 16.2463 27.7632C16.1104 28.1353 16.1104 28.5479 16.2463 29.0013C15.8826 29.0661 15.5543 28.9837 15.2617 28.7536C15.4494 28.6519 15.6955 28.6108 16.0002 28.6298C15.523 28.405 15.2768 28.0336 15.2617 27.5156Z"
        fill="#CDDFFF" />
    <path opacity="0.829" fill-rule="evenodd" clip-rule="evenodd"
        d="M22.6461 28.5063C22.562 28.7138 22.3979 28.7965 22.1538 28.7539C22.1157 27.9236 22.2798 27.8412 22.6461 28.5063Z"
        fill="#3686FC" />
    <path opacity="0.665" fill-rule="evenodd" clip-rule="evenodd"
        d="M7.63078 29.249C8.32208 29.3652 8.89645 29.6955 9.35385 30.2395C8.83993 30.4844 8.34763 30.4019 7.87693 29.9919C7.65891 29.7876 7.57687 29.54 7.63078 29.249Z"
        fill="#0077F9" />
    <path opacity="0.704" fill-rule="evenodd" clip-rule="evenodd"
        d="M24.1229 29.001C24.3118 29.1674 24.4759 29.3736 24.6152 29.62C24.1059 30.0841 23.5316 30.3317 22.8921 30.3629C22.7796 30.2604 22.6975 30.1365 22.646 29.9914C23.1544 29.6554 23.6467 29.3254 24.1229 29.001Z"
        fill="#046EEE" />
    <path opacity="0.707" fill-rule="evenodd" clip-rule="evenodd"
        d="M20.9232 30.4873C21.1693 30.4873 21.4155 30.4873 21.6616 30.4873C21.6616 30.7349 21.6616 30.9825 21.6616 31.2302C20.9952 31.4651 20.3387 31.4651 19.6924 31.2302C20.0972 30.934 20.5075 30.6864 20.9232 30.4873Z"
        fill="#0E6CE9" />
    <path opacity="0.698" fill-rule="evenodd" clip-rule="evenodd"
        d="M10.5845 30.4873C11.2751 30.566 11.8494 30.855 12.3076 31.354C12.2256 31.4778 12.1435 31.6016 12.0615 31.7254C11.4964 31.4946 10.9221 31.2883 10.3384 31.1063C10.5236 30.9402 10.6057 30.7339 10.5845 30.4873Z"
        fill="#046FF0" />
    <path opacity="0.707" fill-rule="evenodd" clip-rule="evenodd"
        d="M17.7229 31.2295C17.9691 31.2295 18.2152 31.2295 18.4614 31.2295C18.4614 31.4771 18.4614 31.7247 18.4614 31.9723C17.8647 32.0486 17.2903 31.9659 16.7383 31.7247C17.095 31.5583 17.4232 31.3932 17.7229 31.2295Z"
        fill="#0077FC" />
    <path opacity="0.755" fill-rule="evenodd" clip-rule="evenodd"
        d="M13.5386 31.2295C16.1338 31.6272 16.1338 31.8748 13.5386 31.9723C13.5386 31.7247 13.5386 31.4771 13.5386 31.2295Z"
        fill="#0076F9" />
</svg>