<svg width="32" height="32" viewBox="0 0 32 32" fill="none" xmlns="http://www.w3.org/2000/svg">
    <rect width="32" height="32" fill="#FAFAFA" />
    <path fill-rule="evenodd" clip-rule="evenodd"
        d="M16.1087 0.0893217C16.0572 0.0893217 16.0056 0.0893217 15.9541 0.0893217C15.9967 -0.0297739 16.0482 -0.0297739 16.1087 0.0893217Z"
        fill="#DB7F61" />
    <path fill-rule="evenodd" clip-rule="evenodd"
        d="M15.9541 0.0888672C16.0056 0.0888672 16.0572 0.0888672 16.1087 0.0888672C16.1491 0.149875 16.2006 0.201389 16.2633 0.243473C16.4591 0.459922 16.6652 0.666073 16.8816 0.861897C17.8098 1.80048 18.7374 2.73844 19.6643 3.67573C19.7678 3.81014 19.8914 3.92353 20.0353 4.01586C20.0123 4.12254 20.0535 4.17405 20.1589 4.17047C20.1589 4.20139 20.1589 4.23231 20.1589 4.26323C20.078 4.27152 20.0007 4.26122 19.9271 4.23231C19.9059 4.27201 19.9111 4.3081 19.9425 4.34053C20.0227 4.34752 20.1 4.36298 20.1744 4.38691C20.1821 4.35216 20.1976 4.32124 20.2208 4.29415C20.294 4.3371 20.3661 4.37832 20.4372 4.41784C20.4531 4.49062 20.4891 4.55247 20.5454 4.60336C20.5767 4.62924 20.6128 4.63954 20.6536 4.63428C20.7141 4.75661 20.8069 4.84937 20.9319 4.91257C21.1071 5.06718 21.272 5.23208 21.4266 5.40731C21.4582 5.47986 21.4891 5.55199 21.5193 5.62376C21.5605 5.62376 21.6018 5.62376 21.643 5.62376C21.704 5.74658 21.7967 5.83934 21.9213 5.90205C21.9529 5.97459 21.9838 6.04673 22.014 6.1185C22.0552 6.1185 22.0965 6.1185 22.1377 6.1185C22.2605 6.22073 22.3739 6.33412 22.4778 6.45863C22.5164 6.53612 22.537 6.61859 22.5396 6.706C22.6318 6.698 22.6884 6.73921 22.7097 6.82969C22.72 6.81939 22.7303 6.80906 22.7406 6.79877C22.7557 6.83875 22.7609 6.88 22.756 6.92245C22.787 6.92245 22.8179 6.92245 22.8488 6.92245C22.8488 6.95337 22.8488 6.9843 22.8488 7.01522C22.936 7.00953 22.9876 7.05074 23.0034 7.1389C23.0772 7.18711 23.1545 7.22833 23.2353 7.26259C23.2546 7.32332 23.2391 7.37486 23.1889 7.41719C23.1992 7.42749 23.2095 7.43782 23.2198 7.44811C23.258 7.42505 23.2993 7.41475 23.3435 7.41719C23.3435 7.44811 23.3435 7.47903 23.3435 7.50996C23.2121 7.4914 23.1761 7.53262 23.2353 7.63364C23.2868 7.65426 23.3383 7.67486 23.3899 7.69548C23.4156 7.75733 23.4414 7.81917 23.4672 7.88101C23.5157 7.90603 23.5673 7.91635 23.6217 7.91193C23.614 7.80581 23.6552 7.77489 23.7454 7.81917C23.7351 7.83979 23.7248 7.86039 23.7145 7.88101C23.8216 7.94177 23.9143 8.01907 23.9928 8.11292C24.0327 8.12807 24.074 8.13323 24.1164 8.12838C24.1267 8.12838 24.137 8.12838 24.1473 8.12838C24.1412 8.19254 24.1361 8.25438 24.1319 8.31391C24.1643 8.28246 24.2004 8.2773 24.2401 8.29845C24.2945 8.40475 24.377 8.47173 24.4874 8.49943C24.4611 8.58796 24.4095 8.6601 24.3329 8.71588C24.3965 8.76075 24.4274 8.82259 24.4256 8.90141C24.5647 8.9118 24.6214 8.84996 24.5957 8.71588C24.5378 8.752 24.4914 8.73654 24.4565 8.6695C24.5081 8.64888 24.5596 8.64888 24.6111 8.6695C24.636 8.73048 24.6772 8.77686 24.7348 8.80865C24.6649 8.87806 24.6237 8.9605 24.6111 9.05602C24.6971 9.06551 24.7744 9.09643 24.843 9.14878C24.8585 9.14362 24.8739 9.13848 24.8894 9.13332C24.8115 9.07281 24.8115 9.03156 24.8894 9.00963C24.91 9.07148 24.9306 9.13332 24.9512 9.19516C24.9037 9.22948 24.8831 9.27587 24.8894 9.33431C25.0369 9.30407 25.1502 9.35045 25.2295 9.47345C25.0729 9.51452 25.0833 9.54544 25.2604 9.56622C25.2863 9.59748 25.2966 9.63356 25.2913 9.67444C25.3222 9.67444 25.3531 9.67444 25.3841 9.67444C25.4111 9.77614 25.4317 9.87923 25.4459 9.98365C25.5421 9.9971 25.5627 9.96618 25.5077 9.89089C25.5191 9.84729 25.5449 9.81637 25.585 9.79812C25.6314 9.8548 25.6778 9.91151 25.7242 9.96819C25.5676 10.0093 25.5779 10.0402 25.7551 10.061C25.781 10.0922 25.7912 10.1283 25.786 10.1692C25.8169 10.1692 25.8478 10.1692 25.8787 10.1692C25.8658 10.102 25.8658 10.0401 25.8787 9.98365C25.9184 10.0808 25.9905 10.122 26.0952 10.1073C26.0872 10.2177 26.0253 10.2589 25.9097 10.231C25.92 10.3135 25.9303 10.3959 25.9406 10.4784C26.0329 10.4808 26.0535 10.4447 26.0024 10.3702C26.0613 10.2685 26.0974 10.2737 26.1106 10.3856C26.1968 10.408 26.2226 10.4543 26.1879 10.5248C26.2217 10.5793 26.2526 10.636 26.2807 10.6948C26.3167 10.6642 26.3528 10.6333 26.3889 10.6021C26.4513 10.6185 26.4771 10.6597 26.4662 10.7258C26.3528 10.7361 26.291 10.7979 26.2807 10.9113C26.317 10.9045 26.3479 10.9148 26.3734 10.9422C26.3034 10.9674 26.2312 10.9828 26.157 10.9886C26.1835 11.0099 26.2041 11.0357 26.2188 11.0659C26.1658 11.0813 26.1142 11.0916 26.0643 11.0968C26.1119 11.1287 26.1273 11.1699 26.1106 11.2205C26.0762 11.2579 26.0401 11.2579 26.0024 11.2205C25.9737 11.2573 25.9634 11.2985 25.9715 11.3442C25.878 11.332 25.8471 11.3629 25.8787 11.4369C25.8193 11.4619 25.7575 11.4774 25.6932 11.4833C25.7388 11.5053 25.7594 11.5413 25.7551 11.5916C25.6911 11.5931 25.6344 11.5725 25.585 11.5297C25.5696 11.54 25.5541 11.5503 25.5386 11.5606C25.4455 11.6479 25.3837 11.7459 25.3531 11.8544C25.379 11.8856 25.3893 11.9217 25.3841 11.9626C25.3558 12.0323 25.3146 12.0941 25.2604 12.1481C25.1909 12.1661 25.1393 12.2073 25.1058 12.2718C24.7014 12.6557 24.3097 13.0474 23.9309 13.4468C23.7145 13.6736 23.4981 13.9003 23.2816 14.1271C23.2226 14.1449 23.171 14.1758 23.1271 14.2199C23.0658 14.1936 23.004 14.1782 22.9415 14.1735C23.0372 14.2757 23.0166 14.3324 22.8797 14.3435C22.8797 14.3745 22.8797 14.4054 22.8797 14.4363C22.8385 14.4363 22.7973 14.4363 22.756 14.4363C22.7641 14.482 22.7538 14.5232 22.7251 14.56C22.6736 14.56 22.6221 14.56 22.5705 14.56C22.6154 14.6017 22.636 14.6532 22.6324 14.7146C22.6364 14.7374 22.6313 14.7581 22.6169 14.7764C22.4432 14.914 22.2835 15.0686 22.1377 15.2403C21.8706 15.4868 21.6129 15.7445 21.3647 16.0133C21.2728 16.0538 21.2007 16.1156 21.1483 16.1988C21.138 16.2297 21.1174 16.2504 21.0865 16.2607C21.004 16.2813 20.9525 16.3328 20.9319 16.4153C20.8282 16.4984 20.7354 16.5911 20.6536 16.6936C20.5506 16.7348 20.4784 16.8069 20.4372 16.91C20.3803 16.9379 20.3391 16.9791 20.3135 17.0337C20.2502 17.0764 20.1987 17.1279 20.1589 17.1883C20.0758 17.2406 20.0139 17.3128 19.9734 17.4047C19.9631 17.4047 19.9528 17.4047 19.9425 17.4047C19.838 17.4887 19.7452 17.5815 19.6643 17.683C19.5612 17.7242 19.489 17.7964 19.4478 17.8995C19.4375 17.8995 19.4272 17.8995 19.4169 17.8995C19.3439 17.9519 19.2821 18.0137 19.2314 18.085C19.1789 18.09 19.1273 18.0848 19.0768 18.0695C19.1061 18.0546 19.137 18.0495 19.1696 18.0541C19.1696 18.0232 19.1696 17.9922 19.1696 17.9613C19.0717 17.9958 18.979 18.0474 18.8913 18.1159C18.8718 18.1851 18.8306 18.2366 18.7676 18.2705C18.747 18.3455 18.7367 18.4177 18.7367 18.487C18.7186 18.4934 18.7031 18.5038 18.6903 18.5179C18.6743 18.4865 18.6485 18.4659 18.613 18.4561C18.5501 18.5189 18.4779 18.5704 18.3966 18.6107C18.3773 18.6804 18.3361 18.7319 18.2729 18.7653C18.2335 18.8436 18.2335 18.9209 18.2729 18.9972C18.2204 19.0093 18.174 18.9939 18.1338 18.9508C17.9148 19.0804 17.7705 19.2659 17.701 19.5074C17.668 19.4522 17.6216 19.4368 17.5618 19.461C17.4627 19.5654 17.3596 19.6633 17.2527 19.7548C17.2274 19.8045 17.2067 19.856 17.1908 19.9094C17.1015 19.9368 17.0191 19.9781 16.9435 20.033C16.9742 20.1466 16.9742 20.26 16.9435 20.3732C16.8816 20.4453 16.8198 20.5175 16.758 20.5896C16.714 20.5961 16.6728 20.6115 16.6343 20.636C16.5751 20.7102 16.5236 20.7875 16.4797 20.8679C16.4694 20.8988 16.4488 20.9195 16.4179 20.9298C16.3468 21 16.2644 21.0619 16.1705 21.1153C16.1256 21.1598 16.0947 21.2113 16.0778 21.2699C16.0778 21.3008 16.0778 21.3317 16.0778 21.3627C16.0675 21.3627 16.0572 21.3627 16.0469 21.3627C16.0262 21.3627 16.0056 21.3627 15.985 21.3627C15.6294 20.995 15.279 20.6239 14.9338 20.2495C14.8362 20.1777 14.7435 20.1004 14.6556 20.0176C14.0879 19.419 13.5108 18.8315 12.9242 18.2551C12.7646 18.1419 12.6306 18.0027 12.5222 17.8376C12.4606 17.7758 12.3884 17.7294 12.3058 17.6985C12.195 17.5961 12.1022 17.4776 12.0275 17.3429C11.7506 17.0969 11.4878 16.8392 11.2391 16.5699C11.0938 16.4142 10.9393 16.2699 10.7754 16.137C10.7165 16.077 10.6908 16.0048 10.6981 15.9205C10.6672 15.9205 10.6362 15.9205 10.6053 15.9205C10.5825 15.9246 10.5618 15.9194 10.5435 15.9051C10.3817 15.7485 10.2272 15.5888 10.0797 15.4258C10.0527 15.352 10.0063 15.2902 9.94058 15.2403C9.90939 15.1931 9.89393 15.1416 9.8942 15.0857C9.80597 15.0694 9.72351 15.0385 9.64686 14.9929C9.63657 14.962 9.61594 14.9413 9.58503 14.931C9.54381 14.828 9.47165 14.7558 9.3686 14.7146C9.09034 14.4569 8.82237 14.1889 8.56474 13.9106C8.48676 13.8219 8.43522 13.7188 8.41015 13.6014C8.28003 13.6032 8.2388 13.5465 8.28648 13.4314C8.2758 13.3588 8.23973 13.3021 8.17826 13.2613C8.13927 13.2693 8.10835 13.2899 8.08551 13.3231C8.04095 13.2808 7.98942 13.2499 7.93092 13.2304C7.90978 13.1692 7.92524 13.1176 7.9773 13.0758C7.91546 13.0758 7.85363 13.0758 7.79179 13.0758C7.78635 13.0086 7.7812 12.9365 7.77633 12.8593C7.72048 12.7609 7.65864 12.7506 7.59082 12.8284C7.55462 12.7853 7.50824 12.7595 7.45169 12.7511C7.43044 12.6821 7.42013 12.6151 7.42077 12.5501C7.38912 12.5919 7.3479 12.6126 7.2971 12.612C7.09274 12.4592 6.90723 12.2839 6.74058 12.0863C6.72858 12.0187 6.69766 11.9621 6.64783 11.9162C6.65813 11.9008 6.66844 11.8853 6.67875 11.8698C6.71697 11.8929 6.75819 11.9032 6.80242 11.9008C6.80242 11.8698 6.80242 11.8389 6.80242 11.808C6.7715 11.808 6.74058 11.808 6.70966 11.808C6.71747 11.7208 6.70201 11.6384 6.66329 11.5606C6.62672 11.5226 6.59065 11.5226 6.55507 11.5606C6.58599 11.6019 6.61691 11.6431 6.64783 11.6843C6.63237 11.6946 6.61691 11.7049 6.60145 11.7152C6.53238 11.6781 6.46539 11.6369 6.40049 11.5916C6.35836 11.6342 6.32744 11.6291 6.30773 11.5761C6.32388 11.5467 6.34449 11.5209 6.36957 11.4988C6.32458 11.4456 6.29882 11.3838 6.29227 11.3133C6.27947 11.3274 6.26401 11.3377 6.2459 11.3442C6.21349 11.3169 6.17742 11.2963 6.13768 11.2823C6.06849 11.3643 6.01181 11.354 5.96763 11.2514C6.00947 11.2198 6.03008 11.1785 6.02947 11.1277C6.07069 11.1277 6.11192 11.1277 6.15314 11.1277C6.15314 11.0968 6.15314 11.0659 6.15314 11.035C6.10294 11.0393 6.06687 11.0187 6.04493 10.9731C5.95402 11.0253 5.87673 11.0871 5.81305 11.1587C5.6567 11.0021 5.4918 10.8579 5.31836 10.7258C5.31836 10.6948 5.31836 10.6639 5.31836 10.633C5.56466 10.428 5.8017 10.2115 6.02947 9.98365C6.14086 9.91368 6.24392 9.83121 6.33865 9.73628C6.36808 9.78406 6.37838 9.8356 6.36957 9.89089C6.41203 9.89574 6.45326 9.89058 6.49324 9.87543C6.46143 9.74358 6.51296 9.65082 6.64783 9.59714C6.61852 9.5822 6.5876 9.57707 6.55507 9.58168C6.55507 9.45799 6.61691 9.39615 6.74058 9.39615C6.74303 9.44037 6.73272 9.48162 6.70966 9.51983C6.73517 9.54723 6.76609 9.55753 6.80242 9.55076C6.80242 9.50954 6.80242 9.46829 6.80242 9.42707C7.0137 9.34995 7.16829 9.20567 7.26619 8.99417C7.35793 8.94349 7.44037 8.88165 7.51353 8.80865C7.54265 8.81199 7.56842 8.82228 7.59082 8.83957C7.59887 8.90506 7.62979 8.95657 7.68358 8.99417C7.7351 8.9182 7.71448 8.85636 7.62174 8.80865C7.60659 8.76867 7.60144 8.72742 7.60628 8.68496C7.53757 8.675 7.48089 8.69563 7.43623 8.7468C7.42077 8.73134 7.40532 8.71588 7.38986 8.70042C7.48857 8.6687 7.5298 8.60172 7.51353 8.49943C7.66812 8.3242 7.83301 8.1593 8.00821 8.00469C8.13189 7.94285 8.22464 7.85009 8.28648 7.7264C8.67811 7.31413 9.08004 6.91216 9.49227 6.52048C9.61594 6.45863 9.7087 6.36587 9.77053 6.24219C9.85868 6.20409 9.9463 6.16287 10.0333 6.1185C10.0818 6.16043 10.1385 6.18106 10.2034 6.18034C10.1953 6.22605 10.2056 6.26726 10.2343 6.30403C10.2806 6.20582 10.26 6.12339 10.1725 6.05666C10.3459 5.93999 10.5056 5.80601 10.6517 5.65468C10.6668 5.6147 10.672 5.57345 10.6672 5.531C10.7382 5.50595 10.8104 5.48016 10.8836 5.4537C10.9725 5.35948 11.0601 5.26158 11.1464 5.15994C11.1615 5.11996 11.1667 5.07871 11.1618 5.03626C11.2743 5.03867 11.3568 4.99229 11.4092 4.89711C11.5143 4.90534 11.5658 4.85896 11.5638 4.75797C11.3272 4.7879 11.317 4.73635 11.5329 4.60336C11.5735 4.6285 11.6096 4.65942 11.6411 4.69613C11.6514 4.68583 11.6617 4.6755 11.672 4.66521C11.6809 4.71295 11.7015 4.75417 11.7338 4.78889C11.7549 4.7135 11.7394 4.6465 11.6874 4.5879C11.72 4.50649 11.7715 4.48073 11.842 4.5106C11.916 4.42272 11.9881 4.33509 12.0585 4.24777C12.0013 4.26617 11.9394 4.28163 11.8729 4.29415C11.8663 4.24332 11.8767 4.19693 11.9039 4.15501C11.9988 4.15259 12.0915 4.16805 12.1821 4.20139C12.1763 4.25095 12.1918 4.2922 12.2285 4.32507C12.259 4.22483 12.2332 4.14239 12.1512 4.0777C12.2686 3.99839 12.3923 3.93655 12.5222 3.89218C12.5222 3.85096 12.5222 3.80971 12.5222 3.76849C12.478 3.76605 12.4368 3.77634 12.3986 3.79941C12.36 3.75284 12.36 3.70646 12.3986 3.66027C12.4551 3.65182 12.5015 3.62604 12.5377 3.58296C12.548 3.61388 12.5583 3.64481 12.5686 3.67573C12.6296 3.70062 12.6759 3.74187 12.7077 3.79941C12.718 3.77365 12.7284 3.74787 12.7386 3.72211C12.6983 3.66781 12.6777 3.61627 12.6768 3.5675C12.7556 3.52316 12.8277 3.47165 12.8932 3.4129C12.9332 3.39775 12.9745 3.39258 13.0169 3.39744C13.0169 3.35622 13.0169 3.31497 13.0169 3.27375C12.9139 3.3253 12.8108 3.37681 12.7077 3.42836C12.7077 3.45928 12.7077 3.4902 12.7077 3.52112C12.6768 3.52112 12.6459 3.52112 12.615 3.52112C12.6292 3.43445 12.6705 3.36228 12.7386 3.30467C12.882 3.10978 13.0469 2.93458 13.2333 2.77901C13.3158 2.72747 13.3982 2.67595 13.4807 2.62441C13.4998 2.62097 13.5152 2.61068 13.5271 2.59348C13.5783 2.6818 13.6401 2.76423 13.7126 2.84085C13.7177 2.80993 13.7229 2.77901 13.728 2.74809C13.6965 2.6839 13.6759 2.62722 13.6662 2.57802C13.7016 2.55808 13.7325 2.53232 13.7589 2.50072C13.7975 2.51742 13.8336 2.53804 13.8672 2.56256C13.8504 2.47397 13.8917 2.41213 13.9908 2.37704C14.0375 2.22772 14.1199 2.10403 14.2382 2.00598C14.2555 2.02212 14.2761 2.03242 14.3 2.0369C14.3522 1.97447 14.414 1.92293 14.4855 1.8823C14.5087 1.8472 14.5035 1.81628 14.4701 1.78953C14.432 1.76959 14.3907 1.76446 14.3464 1.77407C14.4031 1.71739 14.4598 1.66068 14.5164 1.60401C14.5846 1.68001 14.6464 1.76245 14.7019 1.85138C14.7286 1.75122 14.7029 1.66876 14.6246 1.60401C14.6694 1.5776 14.7106 1.54668 14.7483 1.51124C14.7906 1.56146 14.8422 1.57692 14.9029 1.55762C14.8755 1.49881 14.8858 1.44213 14.9338 1.38756C14.995 1.41798 15.0466 1.4592 15.0884 1.51124C15.1382 1.48589 15.1588 1.44464 15.1502 1.38756C15.1094 1.39281 15.0733 1.38252 15.042 1.35664C15.0212 1.26322 15.0109 1.17046 15.0111 1.07835C15.0321 1.0161 15.0734 0.974883 15.1348 0.954661C15.1842 0.997487 15.2408 1.01808 15.3048 1.0165C15.3048 0.934036 15.3048 0.8516 15.3048 0.769134C15.4512 0.633204 15.5852 0.488895 15.7068 0.336237C15.7583 0.222849 15.8407 0.140413 15.9541 0.0888672Z"
        fill="#FC4705" />
    <path fill-rule="evenodd" clip-rule="evenodd"
        d="M16.2627 0.244141C16.3428 0.263559 16.4149 0.299644 16.4791 0.352365C16.5568 0.540118 16.6908 0.627718 16.8811 0.615195C16.8528 0.640798 16.8322 0.671719 16.8192 0.707959C16.8516 0.756072 16.8722 0.807618 16.8811 0.862565C16.6646 0.666741 16.4585 0.460589 16.2627 0.244141Z"
        fill="#FDEBD4" />
    <path fill-rule="evenodd" clip-rule="evenodd"
        d="M15.7066 0.336914C15.585 0.489572 15.451 0.633881 15.3047 0.769811C15.2771 0.788673 15.2462 0.79897 15.2119 0.800732C15.3572 0.624512 15.5221 0.469906 15.7066 0.336914Z"
        fill="#DE6235" />
    <path fill-rule="evenodd" clip-rule="evenodd"
        d="M15.3046 0.769531C15.3046 0.851998 15.3046 0.934434 15.3046 1.0169C15.2406 1.01848 15.184 0.997884 15.1346 0.955058C15.0731 0.975281 15.0319 1.0165 15.0109 1.07874C15.0107 1.17086 15.021 1.26362 15.0418 1.35703C15.0731 1.38292 15.1092 1.39321 15.15 1.38796C15.1586 1.44504 15.138 1.48628 15.0882 1.51164C15.0464 1.4596 14.9948 1.41838 14.9336 1.38796C14.8856 1.44253 14.8753 1.49921 14.9027 1.55802C14.842 1.57732 14.7904 1.56186 14.7481 1.51164C14.7104 1.54708 14.6692 1.578 14.6244 1.6044C14.7027 1.66915 14.7284 1.75162 14.7017 1.85177C14.6462 1.76284 14.5844 1.68041 14.5162 1.6044C14.4595 1.66108 14.4028 1.71779 14.3462 1.77447C14.3905 1.76485 14.4317 1.76999 14.4698 1.78993C14.5033 1.81668 14.5085 1.8476 14.4853 1.88269C14.4138 1.92332 14.352 1.97487 14.2998 2.0373C14.2759 2.03282 14.2553 2.02252 14.238 2.00638C14.1197 2.10443 14.0373 2.22812 13.9906 2.37743C13.8915 2.41253 13.8502 2.47437 13.8669 2.56296C13.8334 2.53844 13.7973 2.51782 13.7587 2.50112C13.7323 2.53272 13.7014 2.55848 13.666 2.57842C13.6757 2.62762 13.6963 2.6843 13.7278 2.74849C13.7226 2.77941 13.7175 2.81033 13.7124 2.84125C13.6399 2.76463 13.5781 2.68219 13.5268 2.59388C13.515 2.61107 13.4995 2.62137 13.4805 2.6248C13.4908 2.58359 13.5011 2.54234 13.5114 2.50112C13.5732 2.41865 13.6454 2.34651 13.7278 2.28467C13.8523 2.22196 13.9451 2.1292 14.0061 2.00638C14.4002 1.5916 14.8021 1.18963 15.2119 0.800452C15.2462 0.79869 15.2771 0.788393 15.3046 0.769531Z"
        fill="#F44C10" />
    <path fill-rule="evenodd" clip-rule="evenodd"
        d="M14.0058 2.00684C13.9448 2.12964 13.8521 2.2224 13.7275 2.2851C13.81 2.18205 13.9028 2.08929 14.0058 2.00684Z"
        fill="#D8653D" />
    <path fill-rule="evenodd" clip-rule="evenodd"
        d="M13.5107 2.50098C13.5004 2.54219 13.4901 2.58343 13.4798 2.62465C13.3973 2.67619 13.3149 2.7277 13.2324 2.77924C13.3149 2.67619 13.4076 2.58343 13.5107 2.50098Z"
        fill="#D86338" />
    <path fill-rule="evenodd" clip-rule="evenodd"
        d="M19.6641 3.67578C19.8071 3.76725 19.9308 3.8806 20.0351 4.01591C19.8912 3.92358 19.7676 3.8102 19.6641 3.67578Z"
        fill="#D86A3B" />
    <path fill-rule="evenodd" clip-rule="evenodd"
        d="M12.2431 3.7998C12.1689 3.90502 12.0761 3.98748 11.9648 4.04715C12.039 3.94193 12.1318 3.85948 12.2431 3.7998Z"
        fill="#DB6638" />
    <path fill-rule="evenodd" clip-rule="evenodd"
        d="M20.035 4.0166C20.1793 4.14029 20.3133 4.27427 20.437 4.41858C20.3659 4.37906 20.2937 4.33784 20.2205 4.29489C20.1973 4.32198 20.1819 4.3529 20.1742 4.38766C20.0998 4.36372 20.0225 4.34826 19.9423 4.34127C19.9108 4.30884 19.9057 4.27275 19.9268 4.23305C20.0004 4.26196 20.0777 4.27226 20.1587 4.26397C20.1587 4.23305 20.1587 4.20213 20.1587 4.17121C20.0533 4.17479 20.012 4.12328 20.035 4.0166Z"
        fill="#EB561D" />
    <path fill-rule="evenodd" clip-rule="evenodd"
        d="M20.4365 4.41797C20.519 4.4798 20.5911 4.55194 20.6529 4.63439C20.6121 4.63965 20.576 4.62935 20.5447 4.60348C20.4884 4.55259 20.4524 4.49075 20.4365 4.41797Z"
        fill="#D65E30" />
    <path fill-rule="evenodd" clip-rule="evenodd"
        d="M20.6533 4.63477C20.7564 4.71722 20.8491 4.80998 20.9316 4.91303C20.8065 4.84983 20.7138 4.75708 20.6533 4.63477Z"
        fill="#D56C3C" />
    <path fill-rule="evenodd" clip-rule="evenodd"
        d="M9.77051 6.24285C10.4919 5.50074 11.2236 4.76893 11.9657 4.04744C12.077 3.98777 12.1697 3.9053 12.2439 3.80007C12.3779 3.60425 12.5428 3.43932 12.7386 3.30534C12.6704 3.36294 12.6292 3.43511 12.615 3.52178C12.6459 3.52178 12.6768 3.52178 12.7077 3.52178C12.7077 3.49086 12.7077 3.45994 12.7077 3.42902C12.8108 3.37747 12.9138 3.32596 13.0169 3.27441C13.0169 3.31563 13.0169 3.35688 13.0169 3.3981C12.9744 3.39324 12.9332 3.39841 12.8932 3.41356C12.8277 3.47231 12.7555 3.52382 12.6768 3.56817C12.6777 3.61693 12.6983 3.66847 12.7386 3.72277C12.7283 3.74853 12.718 3.77432 12.7077 3.80007C12.6759 3.74253 12.6295 3.70128 12.5686 3.67639C12.5583 3.64547 12.548 3.61455 12.5377 3.58363C12.5015 3.6267 12.4551 3.65249 12.3985 3.66093C12.36 3.70713 12.36 3.75351 12.3985 3.80007C12.4367 3.77701 12.478 3.76671 12.5222 3.76915C12.5222 3.81037 12.5222 3.85162 12.5222 3.89284C12.3923 3.93721 12.2686 3.99905 12.1512 4.07837C12.2332 4.14305 12.259 4.22549 12.2285 4.32573C12.1917 4.29287 12.1763 4.25162 12.1821 4.20205C12.0915 4.16872 11.9988 4.15326 11.9038 4.15567C11.8766 4.1976 11.8663 4.24398 11.8729 4.29481C11.9394 4.28229 12.0012 4.26683 12.0584 4.24843C11.9881 4.33575 11.916 4.42338 11.842 4.51126C11.7715 4.48139 11.7199 4.50715 11.6874 4.58857C11.7394 4.64716 11.7549 4.71417 11.7338 4.78955C11.7015 4.75483 11.6809 4.71361 11.672 4.66587C11.6617 4.67616 11.6513 4.68649 11.641 4.69679C11.6095 4.66009 11.5735 4.62916 11.5328 4.60403C11.3169 4.73702 11.3272 4.78856 11.5637 4.75863C11.5658 4.85962 11.5143 4.906 11.4092 4.89778C11.3568 4.99295 11.2743 5.03933 11.1618 5.03692C11.1667 5.07938 11.1615 5.12063 11.1464 5.16061C11.0601 5.26225 10.9725 5.36014 10.8836 5.45436C10.8103 5.48083 10.7382 5.50662 10.6671 5.53166C10.672 5.57412 10.6668 5.61537 10.6517 5.65535C10.5056 5.80667 10.3459 5.94066 10.1724 6.05732C10.2599 6.12405 10.2806 6.20649 10.2343 6.30469C10.2056 6.26793 10.1953 6.22671 10.2034 6.18101C10.1384 6.18172 10.0818 6.16109 10.0333 6.11916C9.94628 6.16354 9.85865 6.20475 9.77051 6.24285Z"
        fill="#F44C0F" />
    <path fill-rule="evenodd" clip-rule="evenodd"
        d="M21.4258 5.4082C21.5082 5.47004 21.5804 5.54217 21.6422 5.62463C21.601 5.62463 21.5597 5.62463 21.5185 5.62463C21.4883 5.55287 21.4574 5.48074 21.4258 5.4082Z"
        fill="#D76031" />
    <path fill-rule="evenodd" clip-rule="evenodd"
        d="M21.6426 5.62402C21.7456 5.70648 21.8384 5.79924 21.9208 5.90228C21.7963 5.83958 21.7035 5.74683 21.6426 5.62402Z"
        fill="#DC6B3C" />
    <path fill-rule="evenodd" clip-rule="evenodd"
        d="M21.9209 5.90234C22.0034 5.96418 22.0755 6.03631 22.1373 6.11877C22.0961 6.11877 22.0549 6.11877 22.0137 6.11877C21.9834 6.04701 21.9525 5.97488 21.9209 5.90234Z"
        fill="#D55E2F" />
    <path fill-rule="evenodd" clip-rule="evenodd"
        d="M9.77045 6.24219C9.70861 6.36586 9.61586 6.45861 9.49219 6.52045C9.57465 6.4174 9.6674 6.32465 9.77045 6.24219Z"
        fill="#DC6333" />
    <path fill-rule="evenodd" clip-rule="evenodd"
        d="M22.4775 6.45898C23.0451 6.99568 23.5913 7.55227 24.1162 8.12873C24.0737 8.13358 24.0325 8.12842 23.9925 8.11327C23.9141 8.01942 23.8213 7.94212 23.7143 7.88136C23.7245 7.86074 23.7349 7.84014 23.7452 7.81952C23.6549 7.77524 23.6137 7.80616 23.6215 7.91228C23.567 7.9167 23.5155 7.90637 23.4669 7.88136C23.4412 7.81952 23.4154 7.75767 23.3896 7.69583C23.3381 7.67521 23.2866 7.65461 23.235 7.63399C23.1758 7.53297 23.2119 7.49175 23.3432 7.51031C23.3432 7.47938 23.3432 7.44846 23.3432 7.41754C23.299 7.4151 23.2578 7.4254 23.2196 7.44846C23.2093 7.43817 23.1989 7.42784 23.1887 7.41754C23.2389 7.37521 23.2543 7.32366 23.235 7.26294C23.1543 7.22867 23.077 7.18746 23.0031 7.13925C22.9873 7.05109 22.9358 7.00988 22.8486 7.01557C22.8486 6.98464 22.8486 6.95372 22.8486 6.9228C22.8176 6.9228 22.7867 6.9228 22.7558 6.9228C22.7607 6.88035 22.7555 6.8391 22.7403 6.79912C22.73 6.80941 22.7197 6.81974 22.7094 6.83004C22.6882 6.73956 22.6315 6.69835 22.5394 6.70635C22.5368 6.61894 22.5162 6.53647 22.4775 6.45898Z"
        fill="#F14E12" />
    <path fill-rule="evenodd" clip-rule="evenodd"
        d="M8.28607 7.72656C8.22424 7.85023 8.13148 7.94299 8.00781 8.00482C8.09026 7.90177 8.18301 7.80902 8.28607 7.72656Z"
        fill="#D65C2A" />
    <path fill-rule="evenodd" clip-rule="evenodd"
        d="M7.51335 8.5C7.52962 8.60229 7.4884 8.66926 7.38968 8.70099C7.40514 8.71645 7.4206 8.73191 7.43606 8.74737C7.48071 8.6962 7.5374 8.67557 7.60611 8.68553C7.60126 8.72798 7.60642 8.76923 7.62157 8.80921C7.71431 8.85692 7.73492 8.91877 7.6834 8.99474C7.62961 8.95714 7.59869 8.90562 7.59065 8.84013C7.56824 8.82285 7.54248 8.81255 7.51335 8.80921C7.4402 8.88222 7.35775 8.94406 7.26601 8.99474C7.16812 9.20624 7.01353 9.35052 6.80224 9.42764C6.80224 9.46885 6.80224 9.5101 6.80224 9.55132C6.76592 9.55809 6.735 9.5478 6.70949 9.5204C6.73255 9.48218 6.74286 9.44093 6.74041 9.39671C6.61674 9.39671 6.5549 9.45856 6.5549 9.58224C6.58743 9.57763 6.61834 9.58277 6.64765 9.5977C6.51279 9.65138 6.46126 9.74415 6.49306 9.87599C6.45308 9.89114 6.41186 9.89631 6.36939 9.89145C6.37821 9.83617 6.36791 9.78462 6.33848 9.73685C6.24375 9.83178 6.14069 9.91424 6.0293 9.98422C6.34813 9.64473 6.67792 9.3149 7.01867 8.99474C7.14234 8.9329 7.23509 8.84013 7.29693 8.71645C7.35877 8.63398 7.43091 8.56184 7.51335 8.5Z"
        fill="#F24C0F" />
    <path fill-rule="evenodd" clip-rule="evenodd"
        d="M7.29682 8.7168C7.23498 8.84047 7.14223 8.93322 7.01855 8.99506C7.101 8.89201 7.19376 8.79925 7.29682 8.7168Z"
        fill="#D55C2A" />
    <path fill-rule="evenodd" clip-rule="evenodd"
        d="M6.74004 12.0868C6.42055 11.7879 6.11137 11.4787 5.8125 11.1592C5.87618 11.0876 5.95348 11.0258 6.04438 10.9736C6.06632 11.0192 6.10239 11.0398 6.1526 11.0355C6.1526 11.0664 6.1526 11.0973 6.1526 11.1282C6.11137 11.1282 6.07015 11.1282 6.02893 11.1282C6.02954 11.179 6.00893 11.2203 5.96709 11.2519C6.01126 11.3545 6.06794 11.3648 6.13714 11.2828C6.17688 11.2968 6.21295 11.3174 6.24535 11.3447C6.26347 11.3382 6.27893 11.3279 6.29173 11.3138C6.29827 11.3843 6.32404 11.4461 6.36902 11.4993C6.34395 11.5214 6.32333 11.5472 6.30719 11.5766C6.32689 11.6296 6.35781 11.6347 6.39994 11.5921C6.46485 11.6374 6.53184 11.6786 6.60091 11.7157C6.61636 11.7054 6.63182 11.6951 6.64728 11.6848C6.61636 11.6436 6.58545 11.6024 6.55453 11.5611C6.59011 11.5231 6.62617 11.5231 6.66274 11.5611C6.70147 11.6389 6.71693 11.7213 6.70912 11.8085C6.74004 11.8085 6.77095 11.8085 6.80187 11.8085C6.80187 11.8394 6.80187 11.8703 6.80187 11.9013C6.75764 11.9037 6.71642 11.8934 6.6782 11.8703C6.6679 11.8858 6.65759 11.9013 6.64728 11.9167C6.69712 11.9626 6.72804 12.0192 6.74004 12.0868Z"
        fill="#F24B0F" />
    <path fill-rule="evenodd" clip-rule="evenodd"
        d="M8.56451 13.9113C8.11972 13.4974 7.69718 13.0645 7.29688 12.6126C7.34767 12.6132 7.3889 12.5926 7.42055 12.5508C7.41991 12.6158 7.43021 12.6828 7.45146 12.7518C7.50801 12.7602 7.55439 12.786 7.59059 12.8291C7.65842 12.7512 7.72025 12.7615 7.7761 12.86C7.78097 12.9371 7.78612 13.0093 7.79156 13.0764C7.8534 13.0764 7.91523 13.0764 7.97707 13.0764C7.92501 13.1183 7.90956 13.1699 7.93069 13.231C7.98919 13.2505 8.04072 13.2814 8.08528 13.3238C8.10812 13.2906 8.13904 13.27 8.17803 13.262C8.2395 13.3028 8.27557 13.3595 8.28625 13.432C8.23857 13.5472 8.2798 13.6039 8.40992 13.6021C8.43499 13.7195 8.48653 13.8226 8.56451 13.9113Z"
        fill="#EC5018" />
    <path fill-rule="evenodd" clip-rule="evenodd"
        d="M23.9305 13.4473C23.8766 13.5447 23.8147 13.6375 23.745 13.7256C23.7506 13.7581 23.7609 13.7891 23.7759 13.8183C23.7289 13.8301 23.6774 13.8352 23.6213 13.8338C23.5292 13.8836 23.488 13.9609 23.4977 14.0657C23.417 14.0626 23.3449 14.0832 23.2812 14.1275C23.4977 13.9008 23.7141 13.674 23.9305 13.4473Z"
        fill="#FDE3D1" />
    <path fill-rule="evenodd" clip-rule="evenodd"
        d="M23.1268 14.2202C23.077 14.2758 23.0306 14.3376 22.9877 14.4057C22.8755 14.5175 22.757 14.6205 22.6321 14.7149C22.6358 14.6536 22.6151 14.6021 22.5703 14.5603C22.6219 14.5603 22.6734 14.5603 22.7249 14.5603C22.7536 14.5236 22.7639 14.4824 22.7558 14.4367C22.797 14.4367 22.8383 14.4367 22.8795 14.4367C22.8795 14.4057 22.8795 14.3748 22.8795 14.3439C23.0163 14.3328 23.037 14.2761 22.9413 14.1738C23.0038 14.1785 23.0656 14.194 23.1268 14.2202Z"
        fill="#E95018" />
    <path fill-rule="evenodd" clip-rule="evenodd"
        d="M9.36816 14.7148C9.47121 14.7561 9.54338 14.8282 9.58459 14.9313C9.50213 14.8694 9.43 14.7973 9.36816 14.7148Z"
        fill="#D6704A" />
    <path fill-rule="evenodd" clip-rule="evenodd"
        d="M23.2807 14.1279C23.2547 14.186 23.2444 14.2479 23.2498 14.3135C23.2041 14.3054 23.1629 14.3157 23.1261 14.3444C23.1089 14.398 23.0986 14.4496 23.0952 14.499C22.9786 14.528 22.8756 14.5795 22.786 14.6536C22.7566 14.7014 22.7463 14.7529 22.7551 14.8082C22.7139 14.8082 22.6726 14.8082 22.6314 14.8082C22.6364 14.8811 22.6313 14.9532 22.6159 15.0246C22.5634 15.0527 22.5067 15.063 22.4459 15.0556C22.4361 15.1738 22.3742 15.2305 22.2604 15.2256C22.3055 15.2006 22.3158 15.1748 22.2913 15.1483C22.2544 15.2039 22.2028 15.2348 22.1367 15.2411C22.2826 15.0694 22.4423 14.9148 22.6159 14.7773C22.6303 14.7589 22.6355 14.7383 22.6314 14.7154C22.7563 14.621 22.8748 14.5179 22.987 14.4062C23.0299 14.3381 23.0763 14.2763 23.1261 14.2207C23.1701 14.1766 23.2216 14.1457 23.2807 14.1279Z"
        fill="#FBEFE2" />
    <path fill-rule="evenodd" clip-rule="evenodd"
        d="M9.64648 14.9932C9.72313 15.0387 9.80559 15.0697 9.89383 15.0859C9.89355 15.1418 9.90901 15.1934 9.9402 15.2405C10.006 15.2904 10.0523 15.3523 10.0793 15.4261C9.92475 15.2921 9.78045 15.1478 9.64648 14.9932Z"
        fill="#E06031" />
    <path fill-rule="evenodd" clip-rule="evenodd"
        d="M21.3639 16.0137C21.3639 16.024 21.3639 16.0343 21.3639 16.0446C21.3003 16.1081 21.2282 16.1596 21.1475 16.1992C21.1998 16.116 21.272 16.0542 21.3639 16.0137Z"
        fill="#7B2A22" />
    <path fill-rule="evenodd" clip-rule="evenodd"
        d="M10.605 15.9209C10.6359 15.9209 10.6668 15.9209 10.6978 15.9209C10.6905 16.0052 10.7162 16.0773 10.7751 16.1373C10.9389 16.2703 11.0935 16.4146 11.2388 16.5702C11.4875 16.8396 11.7503 17.0973 12.0272 17.3433C12.1019 17.4779 12.1947 17.5965 12.3055 17.6989C12.3881 17.7298 12.4603 17.7762 12.5219 17.838C12.6303 18.0031 12.7643 18.1422 12.9238 18.2554C13.5105 18.8319 14.0876 19.4194 14.6552 20.018C14.7432 20.1007 14.8359 20.178 14.9335 20.2499C15.2787 20.6243 15.6291 20.9954 15.9847 21.363C15.9465 21.3562 15.9156 21.3356 15.892 21.3012C15.867 21.3107 15.8464 21.3262 15.8301 21.3476C15.9315 21.4163 16.0397 21.473 16.1548 21.5176C19.4777 21.5075 22.7911 21.4765 26.0949 21.4249C26.1761 21.4436 26.2585 21.459 26.3422 21.4713C26.3188 21.518 26.2879 21.5593 26.2494 21.5949C26.2753 21.6262 26.2856 21.6623 26.2804 21.7032C26.2494 21.7032 26.2185 21.7032 26.1876 21.7032C26.1836 21.7562 26.1733 21.8078 26.1567 21.8578C26.0717 21.9055 25.979 21.9261 25.8784 21.9196C25.8811 22.0198 25.8605 22.1125 25.8166 22.1979C25.7754 22.1979 25.7341 22.1979 25.6929 22.1979C25.6929 22.2494 25.6929 22.301 25.6929 22.3525C25.4765 22.5793 25.2601 22.806 25.0437 23.0328C24.9276 23.1491 24.804 23.2522 24.6726 23.342C24.6345 23.3488 24.6035 23.3694 24.5799 23.4038C24.5585 23.3876 24.543 23.367 24.5335 23.342C24.5078 23.4038 24.482 23.4657 24.4562 23.5275C24.4356 23.4966 24.415 23.4657 24.3944 23.4347C24.3699 23.4523 24.3699 23.478 24.3944 23.5121C24.3789 23.5584 24.3635 23.6048 24.348 23.6512C24.3352 23.6371 24.3197 23.6267 24.3016 23.6203C24.2642 23.6442 24.2642 23.67 24.3016 23.6976C24.2374 23.7035 24.1756 23.719 24.1161 23.744C24.1505 23.7676 24.1711 23.7985 24.1779 23.8367C24.182 23.8596 24.1768 23.8802 24.1625 23.8986C23.4322 24.6135 22.7056 25.3349 21.9828 26.0631C21.8963 26.1342 21.8138 26.2115 21.7354 26.295C21.7061 26.3098 21.6752 26.3151 21.6427 26.3104C21.6427 26.3413 21.6427 26.3723 21.6427 26.4032C21.4715 26.5383 21.3272 26.6982 21.2098 26.8825C21.1075 26.9641 21.0045 27.0463 20.9007 27.1298C20.6944 27.3627 20.4779 27.5844 20.2514 27.7946C20.2205 27.7946 20.1895 27.7946 20.1586 27.7946C20.1667 27.8404 20.1564 27.8815 20.1277 27.9183C20.0486 27.9836 19.9764 28.0559 19.9113 28.1348C19.5626 28.4628 19.2225 28.803 18.891 29.1552C18.8334 29.2235 18.7612 29.2646 18.6746 29.2789C18.6827 29.3246 18.6724 29.3657 18.6437 29.4025C18.54 29.4857 18.4472 29.5785 18.3654 29.6808C18.3274 29.7059 18.2965 29.7368 18.2726 29.7736C18.2417 29.7736 18.2108 29.7736 18.1799 29.7736C18.1799 29.8045 18.1799 29.8354 18.1799 29.8664C18.0474 29.9783 17.9237 30.102 17.8089 30.2374C17.7721 30.2662 17.7309 30.2764 17.6852 30.2683C17.6933 30.3141 17.683 30.3552 17.6543 30.392C17.5306 30.495 17.4172 30.6085 17.3142 30.7322C17.2774 30.7609 17.2362 30.7711 17.1905 30.7631C17.1986 30.8088 17.1883 30.85 17.1596 30.8868C17.0456 30.9801 16.9425 31.0831 16.8504 31.196C16.8096 31.2405 16.7581 31.2612 16.6958 31.2578C16.6921 31.3441 16.6508 31.4059 16.5722 31.4433C16.4774 31.4322 16.395 31.4582 16.3248 31.5206C16.3507 31.5519 16.361 31.5881 16.3557 31.6289C16.2578 31.6258 16.1651 31.6465 16.0775 31.6907C16.0386 31.7581 15.9922 31.82 15.9383 31.8762C15.8713 31.8299 15.8765 31.7937 15.9538 31.768C15.8783 31.6632 15.7752 31.6168 15.6446 31.6289C15.5088 31.4928 15.3646 31.3691 15.2118 31.2578C15.0778 31.0621 14.9129 30.897 14.7171 30.7631C13.8332 29.8274 12.9262 28.9103 11.9963 28.0111C11.9345 27.9285 11.8623 27.8565 11.7799 27.7946C9.65239 25.6877 7.52938 23.5643 5.4108 21.4249C5.41345 21.3941 5.40315 21.3683 5.37988 21.3476C5.54269 21.2004 5.68697 21.0407 5.81273 20.8683C6.00721 20.7356 6.17211 20.5707 6.30742 20.3736C6.5019 20.2409 6.66679 20.076 6.8021 19.8788C6.94863 19.7789 7.0826 19.6604 7.20404 19.5232C7.37469 19.4555 7.54989 19.404 7.72964 19.3686C7.66382 19.3076 7.59168 19.256 7.51322 19.214C7.62404 19.1188 7.71679 19.0106 7.79148 18.8893C7.9853 18.7573 8.1502 18.5924 8.28616 18.3946C8.48197 18.2606 8.64688 18.0957 8.78085 17.8999C8.97665 17.7659 9.14157 17.6009 9.27553 17.4051C9.47134 17.2711 9.63625 17.1062 9.77022 16.9104C9.96602 16.7764 10.1309 16.6115 10.2649 16.4156C10.3771 16.2879 10.4956 16.1642 10.6205 16.0446C10.6384 16.0004 10.6332 15.9592 10.605 15.9209Z"
        fill="#FD6601" />
    <path fill-rule="evenodd" clip-rule="evenodd"
        d="M21.0862 16.2607C21.0435 16.3241 20.992 16.3756 20.9316 16.4153C20.9523 16.3329 21.0038 16.2814 21.0862 16.2607Z"
        fill="#AA4138" />
    <path fill-rule="evenodd" clip-rule="evenodd"
        d="M21.3641 16.0449C21.6226 16.2932 21.8802 16.5405 22.1371 16.787C22.1489 16.8621 22.1696 16.9343 22.1989 17.0035C22.302 16.9829 22.3638 17.0241 22.3844 17.1272C22.4099 17.1546 22.4408 17.1649 22.4772 17.1581C22.4578 17.2779 22.5094 17.3346 22.6318 17.3282C22.7104 17.3969 22.7104 17.4639 22.6318 17.5291C22.6421 17.5498 22.6524 17.5704 22.6627 17.591C22.6859 17.5639 22.7014 17.533 22.7091 17.4982C22.7463 17.5159 22.7824 17.5365 22.8173 17.5601C22.7581 17.6086 22.7271 17.6705 22.7245 17.7456C22.7894 17.7463 22.8461 17.7257 22.8946 17.6837C22.9468 17.7505 23.0035 17.8175 23.0646 17.8847C23.1046 17.8999 23.1458 17.905 23.1883 17.9002C23.1883 17.9311 23.1883 17.962 23.1883 17.993C23.2307 17.9881 23.272 17.9933 23.312 18.0084C23.3425 18.0751 23.3941 18.1112 23.4665 18.1166C23.8582 18.4877 24.2395 18.869 24.6105 19.2607C24.6897 19.3866 24.7876 19.4999 24.9042 19.6009C24.9192 19.7036 24.9655 19.7861 25.0434 19.8482C25.064 19.8379 25.0846 19.8276 25.1052 19.8173C25.2181 19.9147 25.3263 20.0178 25.4298 20.1265C25.4451 20.177 25.4502 20.2286 25.4453 20.2811C25.5784 20.295 25.6867 20.3569 25.7699 20.4667C25.7852 20.5172 25.7903 20.5687 25.7854 20.6213C25.89 20.6066 25.9622 20.6478 26.0018 20.7449C26.0967 20.8297 26.1998 20.9018 26.311 20.9614C26.3494 21.0464 26.4061 21.1186 26.481 21.1778C26.496 21.2072 26.5011 21.2381 26.4965 21.2706C23.0543 21.2758 19.6121 21.2706 16.1699 21.2551C16.2176 21.2128 16.2588 21.1664 16.2936 21.116C16.3348 21.0542 16.3761 20.9923 16.4173 20.9305C16.4482 20.9202 16.4688 20.8996 16.4791 20.8686C16.5721 20.7848 16.6649 20.7023 16.7574 20.6213C16.8524 20.5573 16.9245 20.4748 16.9738 20.3739C17.0665 20.2914 17.1593 20.209 17.252 20.1265C17.3471 20.0625 17.4192 19.9801 17.4685 19.8792C17.5391 19.8085 17.6113 19.7363 17.6849 19.6627C17.7698 19.6245 17.8419 19.5678 17.9013 19.4926C17.9306 19.4777 17.9616 19.4726 17.9941 19.4772C17.9941 19.4463 17.9941 19.4153 17.9941 19.3844C18.055 19.313 18.1169 19.2409 18.1796 19.168C18.306 19.1137 18.3884 19.021 18.4269 18.8897C18.4633 18.8964 18.4942 18.8861 18.5197 18.8588C18.5647 18.7903 18.6162 18.7284 18.6743 18.6732C18.7687 18.609 18.8614 18.5471 18.9525 18.4877C18.9525 18.4568 18.9525 18.4259 18.9525 18.3949C18.9628 18.3949 18.9732 18.3949 18.9834 18.3949C19.0556 18.3434 19.1174 18.2815 19.169 18.2094C19.169 18.1991 19.169 18.1888 19.169 18.1785C19.287 18.1176 19.3695 18.0248 19.4163 17.9002C19.4266 17.9002 19.4369 17.9002 19.4472 17.9002C19.5312 17.8369 19.6033 17.7647 19.6636 17.6837C19.788 17.6212 19.8807 17.5285 19.9419 17.4055C19.9522 17.4055 19.9625 17.4055 19.9728 17.4055C20.0589 17.3921 20.1311 17.3508 20.1892 17.2818C20.2308 17.308 20.2617 17.344 20.282 17.39C20.3266 17.4141 20.3679 17.409 20.4057 17.3745C20.3689 17.3458 20.3277 17.3355 20.282 17.3436C20.2732 17.2883 20.2835 17.2368 20.3129 17.189C20.3559 17.2244 20.3971 17.2244 20.4366 17.189C20.3901 17.1475 20.3694 17.096 20.3748 17.0344C20.4057 17.0344 20.4366 17.0344 20.4675 17.0344C20.4675 16.9932 20.4675 16.9519 20.4675 16.9107C20.5301 16.838 20.5919 16.7658 20.653 16.6943C20.7782 16.6309 20.871 16.5381 20.9313 16.416C20.9916 16.3762 21.0431 16.3247 21.0859 16.2614C21.1168 16.2511 21.1374 16.2304 21.1477 16.1995C21.2285 16.16 21.3006 16.1085 21.3641 16.0449Z"
        fill="#020561" />
    <path fill-rule="evenodd" clip-rule="evenodd"
        d="M10.2652 16.416C10.1312 16.6118 9.96631 16.7768 9.77051 16.9108C9.9251 16.7355 10.09 16.5706 10.2652 16.416Z"
        fill="#DC7E3E" />
    <path fill-rule="evenodd" clip-rule="evenodd"
        d="M20.9316 16.416C20.8713 16.5382 20.7785 16.6309 20.6533 16.6943C20.7351 16.5919 20.8279 16.4991 20.9316 16.416Z"
        fill="#7B2933" />
    <path fill-rule="evenodd" clip-rule="evenodd"
        d="M20.6529 16.6943C20.5918 16.7659 20.53 16.838 20.4674 16.9108C20.4571 16.9108 20.4468 16.9108 20.4365 16.9108C20.4777 16.8077 20.5499 16.7355 20.6529 16.6943Z"
        fill="#AB4038" />
    <path fill-rule="evenodd" clip-rule="evenodd"
        d="M20.4371 16.9102C20.425 16.9785 20.3838 17.0197 20.3135 17.0338C20.339 16.9793 20.3802 16.938 20.4371 16.9102Z"
        fill="#882C2C" />
    <path fill-rule="evenodd" clip-rule="evenodd"
        d="M20.3128 17.0342C20.2929 17.1159 20.2413 17.1675 20.1582 17.1888C20.1979 17.1284 20.2494 17.0769 20.3128 17.0342Z"
        fill="#812E2C" />
    <path fill-rule="evenodd" clip-rule="evenodd"
        d="M9.77008 16.9102C9.63611 17.106 9.47119 17.2709 9.27539 17.4049C9.43146 17.2282 9.59635 17.0633 9.77008 16.9102Z"
        fill="#DF7E3E" />
    <path fill-rule="evenodd" clip-rule="evenodd"
        d="M20.4364 16.9102C20.4467 16.9102 20.457 16.9102 20.4673 16.9102C20.4673 16.9514 20.4673 16.9926 20.4673 17.0338C20.4364 17.0338 20.4055 17.0338 20.3746 17.0338C20.3693 17.0954 20.3899 17.147 20.4364 17.1884C20.397 17.2239 20.3558 17.2239 20.3128 17.1884C20.2833 17.2362 20.273 17.2878 20.2818 17.3431C20.3275 17.335 20.3687 17.3452 20.4055 17.374C20.3677 17.4084 20.3265 17.4136 20.2818 17.3894C20.2616 17.3435 20.2307 17.3074 20.1891 17.2812C20.1309 17.3503 20.0588 17.3915 19.9727 17.4049C20.0132 17.313 20.075 17.2408 20.1582 17.1884C20.2413 17.1671 20.2928 17.1156 20.3128 17.0338C20.383 17.0197 20.4242 16.9785 20.4364 16.9102Z"
        fill="#19054F" />
    <path fill-rule="evenodd" clip-rule="evenodd"
        d="M9.27496 17.4053C9.14099 17.6011 8.97608 17.766 8.78027 17.9C8.93486 17.7248 9.09975 17.5599 9.27496 17.4053Z"
        fill="#DB7934" />
    <path fill-rule="evenodd" clip-rule="evenodd"
        d="M19.9423 17.4053C19.8812 17.5283 19.7884 17.621 19.6641 17.6835C19.745 17.582 19.8378 17.4892 19.9423 17.4053Z"
        fill="#762736" />
    <path fill-rule="evenodd" clip-rule="evenodd"
        d="M22.1367 16.7871C22.5902 17.22 23.0333 17.6632 23.4662 18.1167C23.3937 18.1113 23.3422 18.0752 23.3116 18.0085C23.2716 17.9933 23.2304 17.9882 23.1879 17.993C23.1879 17.9621 23.1879 17.9312 23.1879 17.9003C23.1455 17.9051 23.1042 17.9 23.0643 17.8848C23.0031 17.8176 22.9464 17.7506 22.8942 17.6838C22.8458 17.7258 22.7891 17.7464 22.7242 17.7457C22.7268 17.6706 22.7577 17.6087 22.8169 17.5601C22.782 17.5366 22.746 17.516 22.7087 17.4983C22.701 17.5331 22.6855 17.564 22.6623 17.5911C22.652 17.5704 22.6417 17.5498 22.6314 17.5292C22.7101 17.4639 22.7101 17.3969 22.6314 17.3282C22.509 17.3347 22.4575 17.278 22.4768 17.1582C22.4405 17.1649 22.4096 17.1546 22.3841 17.1272C22.3634 17.0242 22.3016 16.9829 22.1986 17.0036C22.1692 16.9344 22.1486 16.8622 22.1367 16.7871Z"
        fill="#171257" />
    <path fill-rule="evenodd" clip-rule="evenodd"
        d="M19.6637 17.6836C19.6033 17.7645 19.5312 17.8367 19.4473 17.9C19.4885 17.797 19.5606 17.7248 19.6637 17.6836Z"
        fill="#AA3F38" />
    <path fill-rule="evenodd" clip-rule="evenodd"
        d="M8.78082 17.9004C8.64685 18.0962 8.48194 18.2611 8.28613 18.3951C8.44072 18.2199 8.60561 18.055 8.78082 17.9004Z"
        fill="#DE7833" />
    <path fill-rule="evenodd" clip-rule="evenodd"
        d="M19.4163 17.9004C19.3695 18.025 19.287 18.1178 19.1689 18.1787C19.1777 18.1391 19.1983 18.1082 19.2308 18.0859C19.2815 18.0146 19.3433 17.9528 19.4163 17.9004Z"
        fill="#862C30" />
    <path fill-rule="evenodd" clip-rule="evenodd"
        d="M19.1689 18.209C19.1174 18.2811 19.0555 18.343 18.9834 18.3945C19.0143 18.3017 19.0762 18.2399 19.1689 18.209Z"
        fill="#4F1230" />
    <path fill-rule="evenodd" clip-rule="evenodd"
        d="M18.9531 18.3945C18.9531 18.4254 18.9531 18.4564 18.9531 18.4873C18.862 18.5467 18.7692 18.6085 18.6748 18.6728C18.735 18.607 18.7916 18.5349 18.8449 18.4564C18.8701 18.4155 18.9062 18.3949 18.9531 18.3945Z"
        fill="#752330" />
    <path fill-rule="evenodd" clip-rule="evenodd"
        d="M8.2857 18.3945C8.14974 18.5924 7.98484 18.7573 7.79102 18.8893C7.94709 18.7126 8.11199 18.5477 8.2857 18.3945Z"
        fill="#DF7A35" />
    <path fill-rule="evenodd" clip-rule="evenodd"
        d="M19.2313 18.0856C19.1988 18.1079 19.1782 18.1388 19.1694 18.1784C19.1694 18.1887 19.1694 18.199 19.1694 18.2093C19.0767 18.2402 19.0149 18.302 18.9839 18.3948C18.9736 18.3948 18.9633 18.3948 18.953 18.3948C18.9061 18.3952 18.87 18.4157 18.8448 18.4567C18.7916 18.5352 18.7349 18.6073 18.6748 18.6731C18.6167 18.7283 18.5652 18.7901 18.5202 18.8586C18.4947 18.886 18.4637 18.8963 18.4274 18.8896C18.3443 18.9829 18.2618 19.0757 18.1801 19.1678C18.0735 19.2022 18.0117 19.2744 17.9946 19.3843C17.8708 19.4566 17.7678 19.5494 17.6854 19.6626C17.6118 19.7362 17.5396 19.8084 17.469 19.879C17.3865 19.9409 17.3144 20.013 17.2525 20.0955C17.2025 20.1121 17.151 20.1224 17.0979 20.1264C17.0707 20.2156 17.0294 20.2981 16.9743 20.3738C16.964 20.3738 16.9537 20.3738 16.9434 20.3738C16.9741 20.2606 16.9741 20.1472 16.9434 20.0336C17.019 19.9787 17.1014 19.9374 17.1907 19.9099C17.2066 19.8566 17.2272 19.8051 17.2525 19.7553C17.3595 19.6639 17.4625 19.566 17.5617 19.4616C17.6215 19.4374 17.6679 19.4528 17.7008 19.508C17.7704 19.2665 17.9147 19.081 18.1337 18.9514C18.1739 18.9945 18.2203 19.0099 18.2728 18.9978C18.2333 18.9215 18.2333 18.8442 18.2728 18.7659C18.336 18.7325 18.3772 18.681 18.3965 18.6113C18.4778 18.571 18.5499 18.5195 18.6129 18.4567C18.6484 18.4665 18.6742 18.4871 18.6902 18.5185C18.703 18.5044 18.7185 18.494 18.7366 18.4876C18.7365 18.4183 18.7469 18.3461 18.7675 18.2711C18.8304 18.2372 18.8716 18.1857 18.8912 18.1165C18.9789 18.048 19.0716 17.9964 19.1694 17.9619C19.1694 17.9928 19.1694 18.0238 19.1694 18.0547C19.1369 18.0501 19.106 18.0552 19.0767 18.0701C19.1272 18.0854 19.1788 18.0905 19.2313 18.0856Z"
        fill="#F2490F" />
    <path fill-rule="evenodd" clip-rule="evenodd"
        d="M18.427 18.8896C18.3885 19.0209 18.3061 19.1137 18.1797 19.1679C18.2614 19.0758 18.3439 18.983 18.427 18.8896Z"
        fill="#812933" />
    <path fill-rule="evenodd" clip-rule="evenodd"
        d="M18.1796 19.168C18.1169 19.2409 18.0551 19.313 17.9941 19.3844C18.0113 19.2745 18.0731 19.2023 18.1796 19.168Z"
        fill="#A8403C" />
    <path fill-rule="evenodd" clip-rule="evenodd"
        d="M7.79113 18.8896C7.71645 19.0109 7.62369 19.1191 7.51287 19.2143C7.59133 19.2563 7.66347 19.3079 7.72929 19.3689C7.54954 19.4043 7.37434 19.4558 7.20369 19.5235C7.08226 19.6607 6.94828 19.7792 6.80176 19.8791C7.11928 19.5353 7.44906 19.2054 7.79113 18.8896Z"
        fill="#EF701F" />
    <path fill-rule="evenodd" clip-rule="evenodd"
        d="M17.9937 19.3838C17.9937 19.4147 17.9937 19.4456 17.9937 19.4765C17.9612 19.4719 17.9303 19.4771 17.901 19.492C17.8416 19.5671 17.7694 19.6238 17.6846 19.662C17.767 19.5489 17.87 19.4561 17.9937 19.3838Z"
        fill="#58152D" />
    <path fill-rule="evenodd" clip-rule="evenodd"
        d="M17.4684 19.8789C17.4191 19.9798 17.347 20.0623 17.252 20.1262C17.252 20.116 17.252 20.1056 17.252 20.0953C17.3138 20.0129 17.3859 19.9407 17.4684 19.8789Z"
        fill="#5D1A2D" />
    <path fill-rule="evenodd" clip-rule="evenodd"
        d="M6.8023 19.8789C6.66699 20.0761 6.5021 20.241 6.30762 20.3736C6.46221 20.1984 6.6271 20.0335 6.8023 19.8789Z"
        fill="#DC732D" />
    <path fill-rule="evenodd" clip-rule="evenodd"
        d="M17.2519 20.0957C17.2519 20.106 17.2519 20.1163 17.2519 20.1266C17.1591 20.2091 17.0664 20.2915 16.9736 20.374C17.0288 20.2983 17.07 20.2158 17.0973 20.1266C17.1504 20.1226 17.2019 20.1123 17.2519 20.0957Z"
        fill="#B84536" />
    <path fill-rule="evenodd" clip-rule="evenodd"
        d="M16.9433 20.374C16.9536 20.374 16.9639 20.374 16.9742 20.374C16.925 20.4749 16.8528 20.5574 16.7578 20.6214C16.7578 20.6111 16.7578 20.6007 16.7578 20.5904C16.8196 20.5183 16.8815 20.4462 16.9433 20.374Z"
        fill="#4A122C" />
    <path fill-rule="evenodd" clip-rule="evenodd"
        d="M6.30719 20.374C6.17187 20.5712 6.00698 20.7361 5.8125 20.8688C5.96709 20.6935 6.13198 20.5286 6.30719 20.374Z"
        fill="#DA712A" />
    <path fill-rule="evenodd" clip-rule="evenodd"
        d="M16.7578 20.5898C16.7578 20.6001 16.7578 20.6105 16.7578 20.6208C16.6652 20.7018 16.5725 20.7843 16.4795 20.8681C16.5234 20.7877 16.5749 20.7104 16.6341 20.6362C16.6726 20.6118 16.7138 20.5963 16.7578 20.5898Z"
        fill="#AE4038" />
    <path fill-rule="evenodd" clip-rule="evenodd"
        d="M16.4172 20.9307C16.376 20.9925 16.3348 21.0543 16.2936 21.1162C16.224 21.1341 16.1725 21.1753 16.139 21.2399C16.1184 21.2502 16.0978 21.2605 16.0771 21.2708C16.0941 21.2122 16.125 21.1607 16.1699 21.1162C16.2637 21.0628 16.3462 21.0009 16.4172 20.9307Z"
        fill="#933332" />
    <path fill-rule="evenodd" clip-rule="evenodd"
        d="M26.3107 20.9609C26.4137 21.0434 26.5065 21.1362 26.5889 21.2392C24.8576 21.2804 23.1159 21.3011 21.3638 21.3011C19.6116 21.3011 17.8699 21.2804 16.1387 21.2392C16.1722 21.1747 16.2237 21.1335 16.2933 21.1155C16.2585 21.1659 16.2172 21.2123 16.1696 21.2547C19.6118 21.2701 23.0539 21.2753 26.4962 21.2701C26.5008 21.2376 26.4956 21.2067 26.4807 21.1774C26.4058 21.1181 26.3491 21.046 26.3107 20.9609Z"
        fill="#0C0346" />
    <path fill-rule="evenodd" clip-rule="evenodd"
        d="M16.139 21.2393C17.8703 21.2805 19.612 21.3011 21.3641 21.3011C23.1163 21.3011 24.8579 21.2805 26.5892 21.2393C26.6437 21.2628 26.6746 21.3041 26.682 21.3629C23.147 21.3629 19.6121 21.3629 16.0771 21.3629C16.0771 21.332 16.0771 21.3011 16.0771 21.2702C16.0978 21.2599 16.1184 21.2496 16.139 21.2393Z"
        fill="#3B152B" />
    <path fill-rule="evenodd" clip-rule="evenodd"
        d="M16.0459 21.3633C16.0562 21.3633 16.0665 21.3633 16.0768 21.3633C19.6117 21.3633 23.1467 21.3633 26.6816 21.3633C26.6301 21.4251 26.5786 21.487 26.5271 21.5488C26.4134 21.6624 26.2897 21.7655 26.156 21.858C26.1727 21.808 26.183 21.7565 26.187 21.7034C26.2179 21.7034 26.2488 21.7034 26.2797 21.7034C26.285 21.6625 26.2747 21.6265 26.2488 21.5952C26.2872 21.5595 26.3181 21.5183 26.3416 21.4715C26.2579 21.4593 26.1754 21.4438 26.0942 21.4251C22.7343 21.4457 19.3849 21.4251 16.0459 21.3633Z"
        fill="#F06A1C" />
    <path fill-rule="evenodd" clip-rule="evenodd"
        d="M15.9847 21.3626C16.0053 21.3626 16.0259 21.3626 16.0465 21.3626C19.3855 21.4244 22.7349 21.445 26.0948 21.4245C22.7911 21.4761 19.4777 21.507 16.1547 21.5172C16.0397 21.4726 15.9315 21.4159 15.8301 21.3472C15.8463 21.3258 15.8669 21.3103 15.8919 21.3008C15.9156 21.3352 15.9465 21.3558 15.9847 21.3626Z"
        fill="#F76A01" />
    <path fill-rule="evenodd" clip-rule="evenodd"
        d="M21.9827 26.0635C21.9827 26.1046 21.9827 26.146 21.9827 26.1872C21.9518 26.1872 21.9208 26.1872 21.8899 26.1872C21.8847 26.228 21.895 26.2642 21.9208 26.2954C21.8203 26.3161 21.7276 26.352 21.6426 26.4036C21.6426 26.3727 21.6426 26.3418 21.6426 26.3108C21.6751 26.3155 21.706 26.3102 21.7353 26.2954C21.8137 26.2119 21.8962 26.1346 21.9827 26.0635Z"
        fill="#F9E0BF" />
    <path fill-rule="evenodd" clip-rule="evenodd"
        d="M11.7793 27.7949C11.8618 27.8568 11.9339 27.9288 11.9957 28.0113C11.8927 27.9702 11.8205 27.8979 11.7793 27.7949Z"
        fill="#F0BB85" />
    <path fill-rule="evenodd" clip-rule="evenodd"
        d="M20.2512 27.7949C20.2578 27.8456 20.2475 27.892 20.2203 27.9341C20.1208 28.0095 20.0177 28.0763 19.9111 28.1351C19.9762 28.0562 20.0484 27.9839 20.1276 27.9186C20.1563 27.8818 20.1666 27.8407 20.1585 27.7949C20.1894 27.7949 20.2203 27.7949 20.2512 27.7949Z"
        fill="#F9D8B0" />
    <path fill-rule="evenodd" clip-rule="evenodd"
        d="M18.8908 29.1553C18.8641 29.2378 18.8331 29.3201 18.7981 29.4026C18.6939 29.4651 18.6012 29.5424 18.5198 29.6346C18.4687 29.6534 18.4171 29.6689 18.3652 29.6809C18.447 29.5786 18.5398 29.4858 18.6435 29.4026C18.6722 29.3658 18.6825 29.3247 18.6744 29.279C18.7611 29.2647 18.8332 29.2236 18.8908 29.1553Z"
        fill="#FBEDD3" />
    <path fill-rule="evenodd" clip-rule="evenodd"
        d="M18.2724 29.7734C18.2724 29.8353 18.2415 29.8662 18.1797 29.8662C18.1797 29.8353 18.1797 29.8044 18.1797 29.7734C18.2106 29.7734 18.2415 29.7734 18.2724 29.7734Z"
        fill="#E7B685" />
    <path fill-rule="evenodd" clip-rule="evenodd"
        d="M14.7167 30.7627C14.9125 30.8966 15.0774 31.0617 15.2113 31.2574C15.0877 31.2782 15.0361 31.2265 15.0568 31.1028C14.9907 31.109 14.9391 31.1399 14.9022 31.1956C14.8734 31.1588 14.8632 31.1177 14.8713 31.0719C14.9038 31.0765 14.9347 31.0713 14.964 31.0564C14.9102 30.9999 14.8587 31.0051 14.8094 31.0719C14.7991 31.0564 14.7888 31.041 14.7785 31.0255C14.8158 30.9853 14.8364 30.9389 14.8403 30.8864C14.7995 30.8811 14.7634 30.8913 14.7321 30.9173C14.7168 30.8669 14.7117 30.8153 14.7167 30.7627Z"
        fill="#FBF1DC" />
    <path fill-rule="evenodd" clip-rule="evenodd"
        d="M15.2119 31.2578C15.3647 31.3691 15.509 31.4928 15.6448 31.6289C15.6788 31.6629 15.6994 31.7043 15.7066 31.7526C15.6513 31.7615 15.5998 31.751 15.552 31.7216C15.5927 31.6787 15.5823 31.6477 15.5211 31.6289C15.4805 31.6586 15.4393 31.6533 15.3974 31.6134C15.4286 31.4706 15.3667 31.4035 15.2119 31.4124C15.2119 31.3608 15.2119 31.3095 15.2119 31.2578Z"
        fill="#FCF0D8" />
    <path fill-rule="evenodd" clip-rule="evenodd"
        d="M16.8498 31.1963C16.8395 31.2581 16.8292 31.32 16.8189 31.3818C16.7764 31.3769 16.7352 31.3821 16.6952 31.3973C16.582 31.5717 16.448 31.7263 16.2933 31.8611C16.2421 31.88 16.1906 31.8954 16.1387 31.9075C16.1833 31.8667 16.2038 31.815 16.2005 31.7529C16.3505 31.6858 16.4741 31.5825 16.5715 31.4437C16.6502 31.4062 16.6914 31.3444 16.6952 31.2581C16.7575 31.2615 16.809 31.2408 16.8498 31.1963Z"
        fill="#FBEACD" />
    <path fill-rule="evenodd" clip-rule="evenodd"
        d="M16.5721 31.4429C16.4747 31.5818 16.351 31.685 16.2011 31.7521C16.2044 31.8143 16.1838 31.8659 16.1392 31.9068C16.0986 31.9371 16.0573 31.968 16.0155 31.9995C15.9119 31.9132 15.8089 31.831 15.7064 31.7521C15.6992 31.7039 15.6785 31.6625 15.6445 31.6285C15.7751 31.6164 15.8782 31.6628 15.9537 31.7676C15.8764 31.7933 15.8713 31.8295 15.9383 31.8758C15.9921 31.8196 16.0385 31.7577 16.0774 31.6903C16.165 31.6461 16.2577 31.6254 16.3556 31.6285C16.3609 31.5876 16.3506 31.5515 16.3247 31.5202C16.3949 31.4578 16.4773 31.4318 16.5721 31.4429Z"
        fill="#F06A14" />
</svg>