<svg width="32" height="32" viewBox="0 0 32 32" fill="none" xmlns="http://www.w3.org/2000/svg">
    <g clip-path="url(#clip0_5369_203)">
        <path fill-rule="evenodd" clip-rule="evenodd"
            d="M-0.0799561 -0.0800781C10.5867 -0.0800781 21.2533 -0.0800781 31.92 -0.0800781C31.92 10.5866 31.92 21.2532 31.92 31.9199C21.2533 31.9199 10.5867 31.9199 -0.0799561 31.9199C-0.0799561 21.2532 -0.0799561 10.5866 -0.0799561 -0.0800781Z"
            fill="#FDFDFC" />
        <path fill-rule="evenodd" clip-rule="evenodd"
            d="M27.76 2C21.5597 1.92193 15.3729 2.00193 9.19998 2.24C15.5203 2.37299 21.8136 2.34632 28.08 2.16C29.3349 2.53081 29.9749 3.38414 30 4.72C29.8902 5.97728 29.2502 6.85728 28.08 7.36C21.9467 7.41332 15.8133 7.46667 9.67998 7.52C7.77129 8.15792 7.10462 9.46457 7.67998 11.44C8.0883 12.115 8.6483 12.6217 9.35998 12.96C11.0667 13.0133 12.7733 13.0667 14.48 13.12C16.4171 13.6711 17.1371 14.9244 16.64 16.88C16.2145 17.8387 15.4946 18.452 14.48 18.72C12.3078 18.8821 10.1478 18.8021 7.99998 18.48C4.91681 17.4506 2.97014 15.3706 2.15998 12.24C2.02543 11.1256 1.97209 10.0056 1.99998 8.88C2.71764 5.54816 4.69097 3.30816 7.91998 2.16C8.23998 2.08 8.55998 2 8.87998 1.92C15.2003 1.787 21.4936 1.81368 27.76 2Z"
            fill="#ED4A25" />
        <path fill-rule="evenodd" clip-rule="evenodd"
            d="M27.76 1.99962C27.9187 1.97216 28.0252 2.02551 28.08 2.15962C21.8136 2.34594 15.5203 2.37261 9.19995 2.23962C15.3729 2.00155 21.5596 1.92155 27.76 1.99962Z"
            fill="#FA441C" />
        <path fill-rule="evenodd" clip-rule="evenodd"
            d="M2.00001 8.87988C1.97213 10.0055 2.02547 11.1255 2.16001 12.2399C1.91121 11.6474 1.80454 11.0074 1.84001 10.3199C1.84033 9.81009 1.89366 9.33009 2.00001 8.87988Z"
            fill="#E58167" />
        <path fill-rule="evenodd" clip-rule="evenodd"
            d="M20.5599 13.04C26.0425 13.0839 29.1892 15.8039 29.9999 21.2C29.8366 25.6079 27.6499 28.4612 23.4399 29.76C21.3395 29.9372 19.2329 30.0172 17.1199 30C15.3333 29.9733 13.5466 29.9468 11.7599 29.92C10.148 29.176 9.53469 27.9226 9.91995 26.16C10.2666 25.3868 10.8266 24.8268 11.5999 24.48C15.0666 24.4268 18.5332 24.3733 21.9999 24.32C23.5123 23.9661 24.3123 23.0061 24.3999 21.44C24.2681 20.3772 23.7347 19.5772 22.7999 19.04C21.8187 18.9103 20.8587 18.6968 19.9199 18.4C18.5367 17.4711 18.1367 16.2178 18.7199 14.64C19.1974 13.937 19.8107 13.4037 20.5599 13.04Z"
            fill="#868686" />
        <path fill-rule="evenodd" clip-rule="evenodd"
            d="M5.99996 24.7196C6.1942 24.9834 6.40753 25.25 6.63996 25.5196C6.47009 25.936 6.44341 26.3628 6.55996 26.7996C6.7077 26.5981 6.84105 26.3848 6.95996 26.1596C7.17329 26.8528 7.17329 27.5463 6.95996 28.2396C6.77399 27.4501 6.56066 27.4234 6.31996 28.1596C6.58482 28.3906 6.69148 28.684 6.63996 29.0396C6.51799 29.3215 6.30466 29.4815 5.99996 29.5196C5.50761 29.4951 5.05428 29.6018 4.63996 29.8396C4.50663 29.7863 4.37329 29.7328 4.23996 29.6796C4.3621 29.4845 4.5221 29.3245 4.71996 29.1996C4.63996 29.1463 4.55996 29.0928 4.47996 29.0396C4.21329 29.1996 3.94663 29.3596 3.67996 29.5196C3.65353 29.2 3.49353 28.88 3.19996 28.5596C3.03212 28.8167 2.79212 28.9232 2.47996 28.8796C1.30501 26.954 1.73167 25.4874 3.75996 24.4796C4.53719 24.3386 5.28386 24.4186 5.99996 24.7196Z"
            fill="#EE4A24" />
        <path fill-rule="evenodd" clip-rule="evenodd"
            d="M6 24.7197C7.32792 25.4588 7.78125 26.5788 7.36 28.0797C7.23331 28.4967 6.99331 28.8167 6.64 29.0397C6.69152 28.6842 6.58486 28.3908 6.32 28.1597C6.5607 27.4236 6.77403 27.4503 6.96 28.2397C7.17333 27.5464 7.17333 26.853 6.96 26.1597C6.84109 26.385 6.70774 26.5983 6.56 26.7997C6.44346 26.3629 6.47013 25.9362 6.64 25.5197C6.40757 25.2501 6.19424 24.9836 6 24.7197Z"
            fill="#E25838" />
        <path fill-rule="evenodd" clip-rule="evenodd"
            d="M5.99998 29.5196C4.65118 30.2975 3.47785 30.0841 2.47998 28.8796C2.79214 28.9233 3.03214 28.8167 3.19998 28.5596C3.49355 28.8801 3.65355 29.2001 3.67998 29.5196C3.94665 29.3596 4.21331 29.1996 4.47998 29.0396C4.55998 29.0929 4.63998 29.1463 4.71998 29.1996C4.52212 29.3245 4.36212 29.4845 4.23998 29.6796C4.37331 29.7329 4.50665 29.7863 4.63998 29.8396C5.0543 29.6018 5.50763 29.4951 5.99998 29.5196Z"
            fill="#E55839" />
    </g>
    <defs>
        <clipPath id="clip0_5369_203">
            <rect width="32" height="32" fill="white" />
        </clipPath>
    </defs>
</svg>