<svg width="32" height="32" viewBox="0 0 32 32" fill="none" xmlns="http://www.w3.org/2000/svg">
    <path fill-rule="evenodd" clip-rule="evenodd"
        d="M14.718 0C15.4191 0 16.1203 0 16.8214 0C22.6484 0.731467 26.2985 3.94382 27.7718 9.63707C28.4951 15.0066 26.6184 19.1868 22.1419 22.1776C20.8961 22.8669 19.5763 23.3611 18.1825 23.6602C17.8944 24.2754 17.8532 24.9138 18.0587 25.5753C20.4766 25.5516 22.7451 26.1076 24.864 27.2432C26.0582 28.3686 25.9757 29.3981 24.6166 30.332C23.6393 30.8495 22.6081 31.2201 21.5233 31.444C20.1909 31.6718 18.8711 31.8572 17.5638 32C16.3677 32 15.1717 32 13.9756 32C12.2284 31.8118 10.4962 31.4617 8.77879 30.9498C7.88408 30.6592 7.16231 30.1445 6.61347 29.4054C6.2825 28.5194 6.50934 27.7987 7.294 27.2432C8.09637 26.7289 8.9625 26.3582 9.89239 26.1313C11.3233 25.8136 12.7669 25.5665 14.223 25.39C14.3628 24.886 14.3834 24.3713 14.2849 23.8456C8.00826 22.3152 4.64686 18.3411 4.20068 11.9228C4.502 6.14496 7.3891 2.31485 12.862 0.432432C13.4987 0.293457 14.1173 0.149313 14.718 0Z"
        fill="#060403" />
    <path fill-rule="evenodd" clip-rule="evenodd"
        d="M14.8419 0.988604C20.358 0.775248 24.1937 3.18452 26.349 8.2164C27.8933 13.5982 26.4085 17.9225 21.8946 21.1894C16.6222 23.9807 11.8998 23.2599 7.72722 19.0272C5.27691 15.9335 4.57576 12.474 5.62376 8.64884C7.21925 4.30293 10.2919 1.74952 14.8419 0.988604Z"
        fill="#FD9800" />
    <path fill-rule="evenodd" clip-rule="evenodd"
        d="M19.5435 4.20121C19.8924 4.17001 20.2223 4.23179 20.5334 4.38654C21.75 5.10726 22.7194 6.07509 23.4411 7.29001C23.6189 7.91719 23.3921 8.32902 22.7606 8.52553C22.1261 7.87087 21.5074 7.19133 20.9046 6.48692C20.3587 6.08048 19.8019 5.68923 19.2342 5.31318C19.0394 4.87394 19.1425 4.50328 19.5435 4.20121Z"
        fill="#FDD200" />
    <path fill-rule="evenodd" clip-rule="evenodd"
        d="M20.5335 26.8105C20.4108 26.7893 20.3284 26.8305 20.2861 26.9341C19.2596 26.7919 18.3316 26.4212 17.5021 25.8221C17.1984 25.1585 17.1366 24.479 17.3165 23.7835C17.4814 23.7011 17.6465 23.7011 17.8114 23.7835C17.6018 24.5746 17.7255 25.3159 18.1826 26.0074C18.9319 26.4097 19.7155 26.6774 20.5335 26.8105Z"
        fill="#DC8500" />
    <path fill-rule="evenodd" clip-rule="evenodd"
        d="M15.3368 23.8457C15.9143 23.8457 16.4917 23.8457 17.0691 23.8457C16.7972 25.3839 17.3747 26.4341 18.8013 26.9963C19.3696 27.1786 19.9471 27.3228 20.5336 27.4287C20.4606 27.5892 20.3369 27.6921 20.1624 27.7376C18.0867 28.3054 15.9832 28.429 13.852 28.1083C13.1552 28.0167 12.4953 27.8109 11.8723 27.4905C12.5136 27.2476 13.1735 27.0417 13.852 26.8727C14.7389 26.6047 15.2132 26.0075 15.275 25.0812C15.3366 24.6714 15.3572 24.2596 15.3368 23.8457Z"
        fill="#F69400" />
    <path fill-rule="evenodd" clip-rule="evenodd"
        d="M20.2859 26.9344C20.3283 26.8308 20.4107 26.7895 20.5334 26.8108C21.7452 26.9692 22.9 27.3193 23.9979 27.861C24.6181 28.1297 24.8037 28.5622 24.5547 29.1583C23.7856 29.6965 22.94 30.0878 22.0182 30.332C18.0585 31.2357 14.0991 31.2357 10.1399 30.332C6.5869 29.329 6.54566 28.2583 10.0161 27.1197C10.7457 26.8832 11.4881 26.7596 12.2433 26.749C11.9491 26.8122 11.6604 26.8946 11.3772 26.9961C11.1114 27.2525 11.0701 27.5407 11.2535 27.861C11.9457 28.2561 12.6881 28.5032 13.4806 28.6023C15.8473 28.9794 18.157 28.7735 20.4097 27.9845C20.914 27.5779 20.8727 27.2279 20.2859 26.9344Z"
        fill="#F89500" />
</svg>