<svg width="32" height="32" viewBox="0 0 32 32" fill="none" xmlns="http://www.w3.org/2000/svg">
    <g clip-path="url(#clip0_5324_5071)">
        <path fill-rule="evenodd" clip-rule="evenodd"
            d="M-0.0712891 -0.0712891C1.06649 -0.0712891 2.20427 -0.0712891 3.34204 -0.0712891C3.1087 0.178672 2.82426 0.392006 2.48871 0.568711C1.58435 0.877333 0.731019 1.2803 -0.0712891 1.7776C-0.0712891 1.1613 -0.0712891 0.545007 -0.0712891 -0.0712891Z"
            fill="#5CA491" />
        <path fill-rule="evenodd" clip-rule="evenodd"
            d="M3.34204 -0.0712891C6.18649 -0.0712891 9.03093 -0.0712891 11.8754 -0.0712891C12.2253 1.52955 12.5571 3.1177 12.8709 4.69316C12.7761 4.74056 12.6813 4.78798 12.5865 4.83538C12.7916 4.88897 12.9338 5.00748 13.0132 5.19093C12.5937 5.42066 12.2144 5.70511 11.8754 6.04427C7.88762 5.98746 3.9054 6.08227 -0.0712891 6.32871C-0.0712891 4.81167 -0.0712891 3.29464 -0.0712891 1.7776C0.731019 1.2803 1.58435 0.877333 2.48871 0.568711C2.82426 0.392006 3.1087 0.178672 3.34204 -0.0712891Z"
            fill="#69B5A2" />
        <path fill-rule="evenodd" clip-rule="evenodd"
            d="M11.876 -0.0712891C12.9189 -0.0712891 13.9619 -0.0712891 15.0049 -0.0712891C14.4922 1.4091 14.0655 2.92613 13.7249 4.47982C13.6057 4.52842 13.5582 4.62324 13.5826 4.76427C13.4495 4.97396 13.2598 5.11618 13.0138 5.19093C12.9344 5.00748 12.7922 4.88897 12.5871 4.83538C12.6819 4.78798 12.7767 4.74056 12.8715 4.69316C12.5577 3.1177 12.2259 1.52955 11.876 -0.0712891Z"
            fill="#72C2AE" />
        <path fill-rule="evenodd" clip-rule="evenodd"
            d="M15.0046 -0.0712891C16.5691 -0.0712891 18.1335 -0.0712891 19.6979 -0.0712891C19.6979 0.307971 19.6979 0.687229 19.6979 1.06649C20.0772 1.06649 20.4564 1.06649 20.8357 1.06649C20.8761 1.53249 20.8288 1.98287 20.6935 2.4176C19.8414 2.48864 18.9881 2.51235 18.1335 2.48871C18.1335 2.67834 18.1335 2.86798 18.1335 3.0576C18.8979 3.01092 19.6564 3.05834 20.4091 3.19982C18.5013 3.28069 16.605 3.44661 14.7202 3.6976C14.3268 3.89259 13.9949 4.15332 13.7246 4.47982C14.0653 2.92613 14.4919 1.4091 15.0046 -0.0712891Z"
            fill="#5CA18F" />
        <path fill-rule="evenodd" clip-rule="evenodd"
            d="M19.6979 -0.0712891C22.6373 -0.0712891 25.5764 -0.0712891 28.5157 -0.0712891C27.4132 2.72301 26.3228 5.47263 25.2446 8.1776C25.1973 8.1776 25.1498 8.1776 25.1024 8.1776C24.5432 8.29303 24.0218 8.50636 23.5379 8.8176C23.5853 8.865 23.6328 8.91242 23.6802 8.95982C23.4963 9.02951 23.3066 9.05322 23.1113 9.03093C23.8989 8.00305 24.7047 6.98379 25.5291 5.97316C24.046 4.72497 22.3393 3.99017 20.4091 3.76871C18.0445 3.36247 15.7689 3.69431 13.5824 4.76427C13.558 4.62324 13.6054 4.52842 13.7246 4.47982C13.9949 4.15332 14.3268 3.89259 14.7202 3.6976C16.605 3.44661 18.5013 3.28069 20.4091 3.19982C19.6564 3.05834 18.8979 3.01092 18.1335 3.0576C18.1335 2.86798 18.1335 2.67834 18.1335 2.48871C18.9881 2.51235 19.8414 2.48864 20.6935 2.4176C20.8288 1.98287 20.8761 1.53249 20.8357 1.06649C20.4564 1.06649 20.0773 1.06649 19.6979 1.06649C19.6979 0.687229 19.6979 0.307971 19.6979 -0.0712891Z"
            fill="#5D9F8E" />
        <path fill-rule="evenodd" clip-rule="evenodd"
            d="M28.5153 -0.0712891C29.653 -0.0712891 30.7908 -0.0712891 31.9286 -0.0712891C31.9286 2.20427 31.9286 4.47982 31.9286 6.75538C29.9914 7.13286 28.0476 7.48842 26.0975 7.82204C25.7688 7.85559 25.4844 7.97412 25.2441 8.1776C26.3223 5.47263 27.4127 2.72301 28.5153 -0.0712891Z"
            fill="#69B5A2" />
        <path fill-rule="evenodd" clip-rule="evenodd"
            d="M20.4091 3.76912C22.3393 3.99058 24.046 4.72538 25.5291 5.97357C24.7048 6.9842 23.899 8.00346 23.1113 9.03134C22.7364 9.43096 22.3809 9.85763 22.0447 10.3113C21.7707 10.0214 21.4625 9.78434 21.1202 9.60023C20.7068 9.27247 20.2326 9.08284 19.698 9.03134C19.34 8.82185 18.9371 8.72703 18.4891 8.7469C18.0411 8.72703 17.6382 8.82185 17.2802 9.03134C16.0764 9.52919 15.6024 10.4299 15.858 11.7336C15.858 11.8284 15.858 11.9232 15.858 12.018C16.1542 12.6463 16.6283 13.073 17.2802 13.298C18.699 14.0075 20.0265 14.8609 21.2624 15.858C21.3182 16.0968 21.3893 16.3339 21.4758 16.5691C21.9576 17.0096 22.3369 17.5311 22.6135 18.1336C22.8572 19.4072 23.023 20.6872 23.1113 21.9736C23.058 22.7026 22.9158 23.4137 22.6847 24.1069C22.0354 25.3065 21.1821 26.3496 20.1247 27.2358C17.7531 28.7436 15.1931 29.265 12.4447 28.8002C12.3803 28.664 12.2854 28.5454 12.1602 28.4447C11.6799 28.3804 11.2058 28.2857 10.738 28.1602C10.4547 28.0786 10.2414 27.9126 10.098 27.6625C9.60397 27.7835 9.15359 27.6649 8.74688 27.3069C8.51447 27.2366 8.27743 27.213 8.03577 27.2358C7.38908 26.922 6.82019 26.4954 6.3291 25.9558C7.09089 25.0523 7.8494 24.1516 8.60466 23.2536C9.0756 22.7349 9.54967 22.2135 10.0269 21.6891C10.4155 22.0787 10.8422 22.4106 11.3069 22.6847C11.3069 22.732 11.3069 22.7795 11.3069 22.8269C11.6401 23.1637 12.0193 23.4719 12.4447 23.7513C13.5831 24.0254 14.7209 24.0254 15.858 23.7513C16.2545 23.5676 16.5865 23.3068 16.8535 22.9691C16.8238 22.8858 16.7763 22.8147 16.7113 22.7558C17.2347 22.066 17.4007 21.2838 17.2091 20.4091C16.619 19.2274 15.6946 18.4689 14.4358 18.1336C14.4599 17.9455 14.4126 17.7796 14.2935 17.6358C14.3884 17.5884 14.4831 17.5409 14.578 17.4936C14.2384 17.4505 13.9302 17.3319 13.6535 17.138C13.5037 17.4586 13.2903 17.5059 13.0135 17.2802C11.8692 16.3022 10.8262 15.2593 9.88466 14.1513C9.05281 11.4622 9.47948 8.99704 11.1647 6.75579C11.3069 6.66097 11.4491 6.56616 11.5913 6.47134C11.6477 6.61712 11.7425 6.64083 11.8758 6.54245C12.0654 6.30541 12.255 6.06838 12.4447 5.83134C12.7781 5.71227 13.0625 5.52264 13.298 5.26245C13.6866 5.20372 14.0658 5.1089 14.4358 4.97801C14.5548 4.83418 14.6022 4.66826 14.578 4.48023C14.9132 4.50346 15.245 4.47975 15.5735 4.40912C16.0611 4.13418 16.5826 3.94455 17.138 3.84023C18.2273 3.76916 19.3177 3.74546 20.4091 3.76912Z"
            fill="#FCFEFE" />
        <path fill-rule="evenodd" clip-rule="evenodd"
            d="M20.4086 3.76877C19.3172 3.7451 18.2268 3.76881 17.1375 3.83988C16.5821 3.9442 16.0606 4.13383 15.573 4.40877C15.2445 4.4794 14.9127 4.50311 14.5775 4.47988C14.6017 4.66791 14.5543 4.83383 14.4353 4.97766C14.0653 5.10855 13.6861 5.20337 13.2975 5.2621C13.062 5.52229 12.7776 5.71192 12.4442 5.83099C12.2545 6.06803 12.0649 6.30506 11.8753 6.5421C11.742 6.64048 11.6472 6.61677 11.5908 6.47099C11.6856 6.32877 11.7804 6.18655 11.8753 6.04433C12.2143 5.70517 12.5936 5.42072 13.013 5.19099C13.2591 5.11624 13.4488 4.97402 13.5819 4.76433C15.7685 3.69437 18.044 3.36253 20.4086 3.76877Z"
            fill="#E8F9F7" />
        <path fill-rule="evenodd" clip-rule="evenodd"
            d="M11.8754 6.04428C11.7806 6.1865 11.6858 6.32873 11.5909 6.47095C11.4487 6.56577 11.3065 6.66057 11.1643 6.75539C10.5934 7.08397 9.92972 7.36841 9.17316 7.60873C9.05973 7.67371 9.01232 7.76853 9.03093 7.89317C7.21844 8.30886 5.55918 9.04366 4.05316 10.0976C2.65342 10.6308 1.2786 11.176 -0.0712891 11.7332C-0.0712891 9.93168 -0.0712891 8.13021 -0.0712891 6.32873C3.9054 6.08228 7.88762 5.98748 11.8754 6.04428Z"
            fill="#6DBAA6" />
        <path fill-rule="evenodd" clip-rule="evenodd"
            d="M31.9287 6.75537C31.9287 7.32426 31.9287 7.89315 31.9287 8.46204C30.7359 9.46563 29.5033 10.4138 28.231 11.3065C27.8922 11.74 27.513 12.1193 27.0932 12.4443C25.3476 13.7625 23.6409 15.1372 21.9732 16.5687C21.6826 16.4152 21.493 16.1782 21.4043 15.8576C21.5879 15.7094 21.5879 15.5436 21.4043 15.3598C21.7404 15.276 21.8826 15.0627 21.831 14.7198C21.9732 14.7198 22.1154 14.7198 22.2576 14.7198C22.4337 14.1663 22.5997 13.5974 22.7554 13.0131C23.6562 11.4487 24.4385 9.83683 25.1021 8.17759C25.1494 8.17759 25.1969 8.17759 25.2443 8.17759C25.4845 7.97412 25.769 7.85559 26.0976 7.82204C28.0478 7.48841 29.9915 7.13286 31.9287 6.75537Z"
            fill="#72C2AF" />
        <path fill-rule="evenodd" clip-rule="evenodd"
            d="M11.1646 6.75537C9.47944 8.99662 9.05277 11.4618 9.88461 14.1509C10.536 15.798 11.6738 16.9831 13.2979 17.7065C13.2894 17.7837 13.242 17.8311 13.1557 17.8487C12.2915 17.3871 11.4856 16.8418 10.7379 16.2131C10.3927 15.4464 9.96599 14.7591 9.45795 14.1509C9.29388 12.4576 9.29388 10.7509 9.45795 9.03093C9.52648 8.55724 9.38426 8.17798 9.03128 7.89315C9.01266 7.76851 9.06008 7.67369 9.1735 7.6087C9.93007 7.36839 10.5938 7.08395 11.1646 6.75537Z"
            fill="#68A495" />
        <path fill-rule="evenodd" clip-rule="evenodd"
            d="M9.03093 7.89355C9.38391 8.17838 9.52614 8.55765 9.4576 9.03133C9.35497 8.97195 9.28386 8.87714 9.24427 8.74689C8.43643 8.89968 7.98606 9.37376 7.89316 10.1691C7.27152 10.227 6.70263 10.4166 6.18649 10.738C6.18649 10.9276 6.18649 11.1173 6.18649 11.3069C5.88725 11.2644 5.60281 11.3118 5.33316 11.4491C5.17964 11.7397 4.94261 11.9293 4.62204 12.018C4.36996 13.0771 3.70625 13.5986 2.63093 13.5824C2.63093 13.7247 2.63093 13.8669 2.63093 14.0091C2.38927 13.9863 2.15223 14.01 1.91982 14.0802C1.27447 14.7023 0.610763 15.2949 -0.0712891 15.858C-0.0712891 14.4831 -0.0712891 13.1084 -0.0712891 11.7336C1.2786 11.1764 2.65342 10.6312 4.05316 10.098C5.55918 9.04405 7.21844 8.30924 9.03093 7.89355Z"
            fill="#61A997" />
        <path fill-rule="evenodd" clip-rule="evenodd"
            d="M19.6981 9.03117C18.8921 9.03117 18.0862 9.03117 17.2803 9.03117C17.6382 8.82167 18.0412 8.72685 18.4892 8.74672C18.9372 8.72685 19.3401 8.82167 19.6981 9.03117Z"
            fill="#7CA194" />
        <path fill-rule="evenodd" clip-rule="evenodd"
            d="M17.2804 9.03125C18.0864 9.03125 18.8922 9.03125 19.6982 9.03125C20.2328 9.08275 20.7069 9.27237 21.1204 9.60014C19.3497 10.2722 17.5957 10.9833 15.8582 11.7335C15.6026 10.4298 16.0766 9.5291 17.2804 9.03125Z"
            fill="#5EA38F" />
        <path fill-rule="evenodd" clip-rule="evenodd"
            d="M31.9286 8.4624C31.9286 14.578 31.9286 20.6935 31.9286 26.8091C31.32 27.0951 30.6562 27.2611 29.9375 27.3068C29.4896 27.6359 29.0392 27.9441 28.5863 28.2313C28.2827 28.3205 27.9745 28.3916 27.6619 28.4446C27.3861 28.5738 27.2439 28.7871 27.2352 29.0846C26.8212 29.3644 26.3472 29.5066 25.813 29.5113C25.8423 29.9372 25.7476 30.3166 25.5286 30.6491C25.5286 30.412 25.5286 30.175 25.5286 29.938C25.6206 29.8279 25.6679 29.6857 25.6708 29.5113C25.5065 29.1542 25.4117 28.7749 25.3863 28.3735C25.2441 28.3735 25.1019 28.3735 24.9597 28.3735C24.9597 27.9942 24.9597 27.615 24.9597 27.2357C24.7259 27.2662 24.5125 27.2187 24.3197 27.0935C24.1601 26.6122 23.9941 26.1381 23.8219 25.6713C23.7983 24.7693 23.8219 23.8686 23.893 22.9691C24.1925 22.7143 24.5481 22.6195 24.9597 22.6846C24.9597 21.1675 24.9597 19.6506 24.9597 18.1335C24.5804 18.1335 24.2012 18.1335 23.8219 18.1335C23.5895 17.9242 23.3762 17.6872 23.1819 17.4224C23.1196 17.727 23.001 17.9166 22.8263 17.9913C22.5537 17.5887 22.3168 17.162 22.1152 16.7113C22.3822 16.7682 22.5955 16.9104 22.7552 17.138C23.2913 16.9188 23.8365 16.7055 24.3908 16.498C24.5159 16.3051 24.5634 16.0918 24.533 15.858C25.1736 15.7294 25.5529 15.3502 25.6708 14.7202C26.8417 14.3999 27.3159 13.6414 27.093 12.4446C27.5129 12.1196 27.892 11.7404 28.2308 11.3068C29.5031 10.4141 30.7358 9.46599 31.9286 8.4624Z"
            fill="#5A9A8A" />
        <path fill-rule="evenodd" clip-rule="evenodd"
            d="M25.1019 8.17773C24.4383 9.83697 23.656 11.4488 22.7552 13.0133C22.5995 13.5976 22.4335 14.1665 22.2574 14.72C22.1152 14.72 21.973 14.72 21.8308 14.72C21.8824 15.0629 21.7402 15.2762 21.4041 15.36C21.5877 15.5437 21.5877 15.7095 21.4041 15.8577C21.3567 15.8577 21.3092 15.8577 21.2619 15.8577C20.026 14.8606 18.6985 14.0073 17.2796 13.2977C17.0475 12.9154 16.7631 12.5599 16.4263 12.2311C16.2492 12.1185 16.0597 12.0474 15.8574 12.0177C15.8574 11.9229 15.8574 11.8281 15.8574 11.7333C17.595 10.9831 19.349 10.272 21.1196 9.59996C21.462 9.78406 21.7702 10.0211 22.0441 10.3111C22.3803 9.85735 22.7359 9.43068 23.1108 9.03107C23.306 9.05335 23.4958 9.02965 23.6796 8.95996C23.6323 8.91255 23.5848 8.86514 23.5374 8.81773C24.0213 8.5065 24.5426 8.29316 25.1019 8.17773Z"
            fill="#69B6A2" />
        <path fill-rule="evenodd" clip-rule="evenodd"
            d="M9.4576 9.03103C9.29353 10.751 9.29353 12.4577 9.4576 14.151C6.29673 15.3569 3.12043 16.5421 -0.0712891 17.7066C-0.0712891 17.0903 -0.0712891 16.4739 -0.0712891 15.8577C0.610763 15.2946 1.27447 14.702 1.91982 14.0799C2.15223 14.0097 2.38927 13.986 2.63093 14.0088C2.63093 13.8666 2.63093 13.7244 2.63093 13.5821C3.70625 13.5983 4.36996 13.0768 4.62204 12.0177C4.94261 11.929 5.17964 11.7394 5.33316 11.4488C5.60281 11.3115 5.88725 11.2641 6.18649 11.3066C6.18649 11.117 6.18649 10.9273 6.18649 10.7377C6.70263 10.4163 7.27152 10.2267 7.89316 10.1688C7.98606 9.37345 8.43643 8.89937 9.24427 8.74658C9.28386 8.87683 9.35497 8.97165 9.4576 9.03103Z"
            fill="#5CA290" />
        <path fill-rule="evenodd" clip-rule="evenodd"
            d="M15.8574 12.0176C16.0597 12.0472 16.2492 12.1184 16.4263 12.2309C16.7631 12.5597 17.0475 12.9153 17.2796 13.2976C16.6277 13.0725 16.1537 12.6459 15.8574 12.0176Z"
            fill="#84B6A9" />
        <path fill-rule="evenodd" clip-rule="evenodd"
            d="M9.4576 14.1509C9.96565 14.759 10.3923 15.4464 10.7376 16.2131C11.4852 16.8417 12.2911 17.387 13.1554 17.8487C13.2417 17.831 13.2891 17.7837 13.2976 17.7064C13.4398 17.7538 13.5346 17.8487 13.582 17.9909C13.6414 18.0936 13.7362 18.1647 13.8665 18.2042C13.7874 18.2587 13.74 18.3298 13.7243 18.4175C13.3096 18.3291 12.883 18.2816 12.4443 18.2753C8.27576 18.6543 4.10391 18.9862 -0.0712891 19.2709C-0.0712891 18.7494 -0.0712891 18.228 -0.0712891 17.7064C3.12043 16.5419 6.29673 15.3568 9.4576 14.1509Z"
            fill="#69B6A1" />
        <path fill-rule="evenodd" clip-rule="evenodd"
            d="M27.0936 12.4443C27.3165 13.6412 26.8423 14.3996 25.6714 14.7199C25.5535 15.3499 25.1742 15.7291 24.5336 15.8577C24.5641 16.0915 24.5166 16.3048 24.3914 16.4977C23.8372 16.7052 23.2919 16.9185 22.7559 17.1377C22.5961 16.9101 22.3828 16.7679 22.1159 16.711C22.021 16.711 21.9736 16.6636 21.9736 16.5688C23.6413 15.1373 25.348 13.7626 27.0936 12.4443Z"
            fill="#5CA291" />
        <path fill-rule="evenodd" clip-rule="evenodd"
            d="M23.8221 18.1333C24.2014 18.1333 24.5806 18.1333 24.9599 18.1333C24.9599 19.6504 24.9599 21.1673 24.9599 22.6844C24.5483 22.6193 24.1927 22.7141 23.8932 22.9689C23.8221 23.8684 23.7985 24.7691 23.8221 25.6711C23.2481 25.5372 23.1532 25.2764 23.5376 24.8889C23.4131 24.6634 23.2235 24.5212 22.9688 24.4622C23.0757 24.3668 23.1232 24.2483 23.111 24.1066C23.5567 22.133 23.6516 20.1419 23.3954 18.1333C23.5376 18.1333 23.6799 18.1333 23.8221 18.1333Z"
            fill="#599B87" />
        <path fill-rule="evenodd" clip-rule="evenodd"
            d="M21.2627 15.8579C21.3101 15.8579 21.3576 15.8579 21.4049 15.8579C21.4937 16.1785 21.6832 16.4156 21.9738 16.569C21.9738 16.6639 22.0212 16.7112 22.116 16.7112C22.3176 17.1619 22.5545 17.5886 22.8271 17.9912C23.2625 19.3075 23.3573 20.635 23.1116 21.9735C23.0233 20.6871 22.8574 19.4071 22.6138 18.1335C22.3372 17.531 21.9579 17.0095 21.476 16.569C21.3896 16.3338 21.3184 16.0967 21.2627 15.8579Z"
            fill="#EBFCFA" />
        <path fill-rule="evenodd" clip-rule="evenodd"
            d="M13.7243 18.4176C13.9444 18.4633 14.0393 18.6055 14.0087 18.8443C14.4557 19.091 14.9297 19.3044 15.4309 19.4843C15.2561 19.7017 15.0428 19.8677 14.7909 19.9821C14.7202 20.3106 14.6966 20.6424 14.7198 20.9776C13.6804 21.3397 12.6374 21.6953 11.5909 22.0443C11.3442 22.1369 11.1071 22.1133 10.8798 21.9732C10.7098 22.0224 10.7098 22.0935 10.8798 22.1865C11.0146 22.2552 11.1569 22.2788 11.3065 22.2576C11.3065 22.3998 11.3065 22.5421 11.3065 22.6843C10.8418 22.4102 10.4151 22.0783 10.0265 21.6887C9.54928 22.2131 9.07521 22.7345 8.60427 23.2532C8.39409 23.2159 8.20445 23.2633 8.03538 23.3954C7.67755 23.7151 7.32199 24.0469 6.96871 24.3909C6.92131 24.3436 6.87389 24.2961 6.82649 24.2487C6.4855 24.4416 6.12994 24.6076 5.75982 24.7465C5.58756 24.8735 5.58756 24.992 5.75982 25.1021C5.89886 25.1699 6.01737 25.2646 6.11538 25.3865C6.21742 25.2512 6.33595 25.2276 6.47093 25.3154C6.35242 25.4339 6.23389 25.5525 6.11538 25.6709C5.8122 25.4889 5.50405 25.4889 5.19093 25.6709C4.83818 25.5408 4.74337 25.3275 4.90649 25.0309C4.77166 24.9623 4.62944 24.9386 4.47982 24.9598C4.51708 25.17 4.46968 25.3596 4.3376 25.5287C3.93695 25.6133 3.60508 25.8029 3.34204 26.0976C2.97419 26.237 2.59494 26.2844 2.20427 26.2398C2.23541 26.4069 2.18801 26.5492 2.06204 26.6665C1.69403 26.7652 1.36217 26.931 1.06649 27.1643C0.690164 27.235 0.310905 27.2587 -0.0712891 27.2354C-0.0712891 24.5805 -0.0712891 21.9258 -0.0712891 19.2709C4.10391 18.9862 8.27576 18.6544 12.4443 18.2754C12.883 18.2816 13.3096 18.3292 13.7243 18.4176Z"
            fill="#60A795" />
        <path fill-rule="evenodd" clip-rule="evenodd"
            d="M13.5827 17.9912C14.4744 18.1996 15.233 18.6262 15.8582 19.2712C15.8813 19.6017 16.0471 19.8388 16.356 19.9823C16.4362 20.3599 16.5073 20.7391 16.5693 21.1201C16.4751 21.4031 16.4751 21.6638 16.5693 21.9023C16.2843 22.3462 16.0474 22.7966 15.8582 23.2534C15.0474 23.6399 14.1941 23.7583 13.2982 23.609C12.617 23.3867 11.9533 23.126 11.3071 22.8268C11.3071 22.7794 11.3071 22.7319 11.3071 22.6845C11.3071 22.5423 11.3071 22.4001 11.3071 22.2579C11.1575 22.2791 11.0153 22.2555 10.8805 22.1868C10.7104 22.0938 10.7104 22.0226 10.8805 21.9734C11.1078 22.1135 11.3448 22.1371 11.5916 22.0445C12.6381 21.6955 13.6811 21.34 14.7205 20.9779C14.6973 20.6427 14.7209 20.3109 14.7916 19.9823C15.0434 19.868 15.2568 19.702 15.4316 19.4845C14.9304 19.3046 14.4564 19.0913 14.0093 18.8445C14.0399 18.6058 13.9451 18.4635 13.7249 18.4179C13.7406 18.3301 13.7881 18.259 13.8671 18.2045C13.7369 18.165 13.6421 18.0939 13.5827 17.9912Z"
            fill="#5FA290" />
        <path fill-rule="evenodd" clip-rule="evenodd"
            d="M15.8574 19.271C17.0269 20.1218 17.2876 21.2122 16.6396 22.5421C16.3973 22.8085 16.1366 23.0456 15.8574 23.2532C16.0466 22.7964 16.2835 22.346 16.5685 21.9021C16.4742 21.6636 16.4742 21.4029 16.5685 21.1199C16.5065 20.7389 16.4354 20.3597 16.3552 19.9821C16.0463 19.8386 15.8805 19.6015 15.8574 19.271Z"
            fill="#6B9B8E" />
        <path fill-rule="evenodd" clip-rule="evenodd"
            d="M9.88477 14.1509C10.8263 15.2588 11.8693 16.3017 13.0137 17.2798C13.2904 17.5055 13.5038 17.4581 13.6537 17.1375C13.9303 17.3314 14.2385 17.45 14.5781 17.4931C14.4832 17.5405 14.3885 17.588 14.2937 17.6353C14.4127 17.7791 14.4601 17.9451 14.4359 18.1331C15.6947 18.4685 16.6191 19.2269 17.2092 20.4087C17.4008 21.2833 17.2348 22.0655 16.7114 22.7553C16.7764 22.8142 16.8239 22.8853 16.8537 22.9687C16.5866 23.3063 16.2546 23.5671 15.8581 23.7509C14.721 24.0249 13.5833 24.0249 12.4448 23.7509C12.0195 23.4714 11.6402 23.1632 11.307 22.8264C11.9532 23.1257 12.6169 23.3864 13.2981 23.6087C14.1939 23.758 15.0473 23.6395 15.8581 23.2531C16.1373 23.0455 16.398 22.8084 16.6403 22.542C17.2883 21.2121 17.0276 20.1217 15.8581 19.2709C15.2329 18.6259 14.4743 18.1992 13.5825 17.9909C13.5351 17.8487 13.4403 17.7538 13.2981 17.7064C11.6739 16.9831 10.5361 15.798 9.88477 14.1509Z"
            fill="#ECFBFA" />
        <path fill-rule="evenodd" clip-rule="evenodd"
            d="M23.8223 18.1335C23.6801 18.1335 23.5379 18.1335 23.3957 18.1335C23.6518 20.1421 23.557 22.1332 23.1112 24.1068C22.969 24.1068 22.8268 24.1068 22.6846 24.1068C22.9157 23.4136 23.0579 22.7025 23.1112 21.9735C23.357 20.635 23.2621 19.3075 22.8268 17.9913C23.0014 17.9166 23.1201 17.727 23.1823 17.4224C23.3766 17.6872 23.59 17.9241 23.8223 18.1335Z"
            fill="#629688" />
        <path fill-rule="evenodd" clip-rule="evenodd"
            d="M8.60427 23.2535C7.84901 24.1515 7.0905 25.0522 6.32871 25.9557C6.8198 26.4953 7.38869 26.922 8.03538 27.2357C8.61556 27.6243 9.23186 27.9561 9.88427 28.2313C9.87206 28.3729 9.91948 28.4914 10.0265 28.5868C10.4755 28.6432 10.9022 28.7616 11.3065 28.9424C10.8604 29.0784 10.4337 29.0784 10.0265 28.9424C9.81045 28.7503 9.62083 28.5369 9.4576 28.3024C9.32277 28.2337 9.18055 28.2101 9.03093 28.2313C9.03093 28.4684 9.03093 28.7053 9.03093 28.9424C8.64644 29.0071 8.26717 29.102 7.89316 29.2268C7.52129 29.1175 7.14202 29.07 6.75538 29.0846C6.75538 29.2268 6.75538 29.3691 6.75538 29.5113C4.47982 29.5113 2.20427 29.5113 -0.0712891 29.5113C-0.0712891 28.7528 -0.0712891 27.9942 -0.0712891 27.2357C0.310905 27.2591 0.690164 27.2353 1.06649 27.1646C1.36217 26.9314 1.69403 26.7656 2.06204 26.6668C2.18801 26.5495 2.23541 26.4073 2.20427 26.2402C2.59494 26.2847 2.97419 26.2373 3.34204 26.098C3.60508 25.8033 3.93695 25.6137 4.3376 25.5291C4.46968 25.36 4.51708 25.1704 4.47982 24.9602C4.62944 24.939 4.77166 24.9626 4.90649 25.0313C4.74337 25.3278 4.83818 25.5412 5.19093 25.6713C5.50405 25.4892 5.8122 25.4892 6.11538 25.6713C6.23389 25.5528 6.35242 25.4342 6.47093 25.3157C6.33595 25.228 6.21742 25.2516 6.11538 25.3868C6.01737 25.265 5.89886 25.1702 5.75982 25.1024C5.58756 24.9923 5.58756 24.8739 5.75982 24.7468C6.12994 24.6079 6.4855 24.4419 6.82649 24.2491C6.87389 24.2964 6.92131 24.3439 6.96871 24.3913C7.32199 24.0473 7.67755 23.7155 8.03538 23.3957C8.20445 23.2636 8.39409 23.2163 8.60427 23.2535Z"
            fill="#5EA190" />
        <path fill-rule="evenodd" clip-rule="evenodd"
            d="M22.6843 24.1064C22.8265 24.1064 22.9687 24.1064 23.1109 24.1064C23.1232 24.2481 23.0757 24.3666 22.9687 24.462C23.2234 24.521 23.413 24.6632 23.5376 24.8887C23.1532 25.2762 23.248 25.5371 23.822 25.6709C23.9943 26.1377 24.1602 26.6118 24.3198 27.0931C24.5127 27.2183 24.726 27.2658 24.9598 27.2353C24.9598 27.6146 24.9598 27.9938 24.9598 28.3731C25.102 28.3731 25.2443 28.3731 25.3865 28.3731C25.4118 28.7745 25.5067 29.1538 25.6709 29.5109C25.6681 29.6853 25.6207 29.8275 25.5287 29.9376C25.5287 29.7953 25.5287 29.6531 25.5287 29.5109C24.9651 29.6518 24.3962 29.7941 23.822 29.9376C19.4538 30.3964 15.0923 30.9179 10.7376 31.502C10.4697 31.4713 10.2326 31.3764 10.0265 31.2176C9.72522 31.5222 9.39337 31.7591 9.03093 31.9287C5.99686 31.9287 2.96278 31.9287 -0.0712891 31.9287C-0.0712891 31.1227 -0.0712891 30.3169 -0.0712891 29.5109C2.20427 29.5109 4.47982 29.5109 6.75538 29.5109C6.75538 29.3687 6.75538 29.2264 6.75538 29.0842C7.14202 29.0696 7.52129 29.1171 7.89316 29.2264C8.26717 29.1016 8.64644 29.0067 9.03093 28.942C9.03093 28.7049 9.03093 28.468 9.03093 28.2309C9.18055 28.2097 9.32277 28.2333 9.4576 28.302C9.62083 28.5365 9.81045 28.7499 10.0265 28.942C10.4337 29.078 10.8604 29.078 11.3065 28.942C11.8176 29.0781 12.3391 29.173 12.8709 29.2264C14.5298 29.2028 16.1654 29.0133 17.7776 28.6576C17.935 28.6696 18.0773 28.7171 18.2043 28.7998C18.7116 28.3444 19.3042 28.1074 19.982 28.0887C20.1041 28.7691 20.2463 28.7927 20.4087 28.1598C20.3247 27.8413 20.2298 27.5331 20.1243 27.2353C21.1817 26.3491 22.035 25.3061 22.6843 24.1064Z"
            fill="#5EA492" />
        <path fill-rule="evenodd" clip-rule="evenodd"
            d="M31.9288 26.8091C31.9288 28.5157 31.9288 30.2224 31.9288 31.9291C29.6059 31.9291 27.2829 31.9291 24.96 31.9291C25.2138 31.5284 25.4034 31.1018 25.5288 30.6491C25.7479 30.3166 25.8426 29.9373 25.8133 29.5113C26.3475 29.5066 26.8215 29.3644 27.2355 29.0846C27.2442 28.7871 27.3864 28.5738 27.6622 28.4446C27.9748 28.3916 28.283 28.3205 28.5866 28.2313C29.0395 27.9442 29.4899 27.636 29.9377 27.3069C30.6565 27.2611 31.3203 27.0951 31.9288 26.8091Z"
            fill="#518F80" />
        <path fill-rule="evenodd" clip-rule="evenodd"
            d="M8.03516 27.2354C8.27682 27.2127 8.51386 27.2363 8.74627 27.3065C9.15298 27.6645 9.60336 27.7831 10.0974 27.6621C10.2407 27.9123 10.4541 28.0782 10.7374 28.1599C11.2052 28.2853 11.6793 28.38 12.1596 28.4443C12.2848 28.545 12.3796 28.6636 12.444 28.7999C11.5601 28.7448 10.7068 28.5551 9.88405 28.231C9.23164 27.9558 8.61534 27.624 8.03516 27.2354Z"
            fill="#E7F9F6" />
        <path fill-rule="evenodd" clip-rule="evenodd"
            d="M20.1247 27.2354C20.2302 27.5332 20.3251 27.8414 20.4091 28.1598C20.2467 28.7927 20.1045 28.7691 19.9825 28.0887C19.3046 28.1075 18.712 28.3444 18.2047 28.7998C18.0777 28.7172 17.9355 28.6697 17.778 28.6576C16.1658 29.0133 14.5302 29.2029 12.8714 29.2265C12.3395 29.173 11.818 29.0781 11.3069 28.942C10.9026 28.7613 10.4759 28.6428 10.0269 28.5865C9.9199 28.491 9.87248 28.3726 9.88469 28.2309C10.7074 28.555 11.5608 28.7448 12.4447 28.7998C15.1931 29.2646 17.7531 28.7432 20.1247 27.2354Z"
            fill="#699E91" />
        <path fill-rule="evenodd" clip-rule="evenodd"
            d="M25.529 29.9379C25.529 30.175 25.529 30.4119 25.529 30.649C25.4036 31.1017 25.214 31.5284 24.9601 31.929C19.6506 31.929 14.3408 31.929 9.03125 31.929C9.39369 31.7595 9.72554 31.5225 10.0268 31.2179C10.2329 31.3768 10.47 31.4716 10.7379 31.5023C15.0926 30.9182 19.4541 30.3967 23.8224 29.9379C24.3965 29.7944 24.9654 29.6522 25.529 29.5112C25.529 29.6535 25.529 29.7957 25.529 29.9379Z"
            fill="#62A997" />
    </g>
    <defs>
        <clipPath id="clip0_5324_5071">
            <rect width="32" height="32" fill="white" />
        </clipPath>
    </defs>
</svg>