<svg width="32" height="32" viewBox="0 0 32 32" fill="none" xmlns="http://www.w3.org/2000/svg">
    <g clip-path="url(#clip0_5082_340)">
        <path fill-rule="evenodd" clip-rule="evenodd"
            d="M-0.0712891 -0.0712891C10.5954 -0.0712891 21.262 -0.0712891 31.9287 -0.0712891C31.9287 10.5954 31.9287 21.262 31.9287 31.9287C21.262 31.9287 10.5954 31.9287 -0.0712891 31.9287C-0.0712891 21.262 -0.0712891 10.5954 -0.0712891 -0.0712891Z"
            fill="#FE3A9B" />
        <path fill-rule="evenodd" clip-rule="evenodd"
            d="M15.1462 2.48876C15.6699 2.46525 16.1913 2.48896 16.7107 2.55987C16.9496 2.60919 17.0918 2.75142 17.1373 2.98654C16.947 3.46301 16.7575 3.93708 16.5684 4.40876C16.0944 4.45616 15.6202 4.50358 15.1462 4.55098C15.0812 4.60986 15.0337 4.68097 15.004 4.76432C15.55 5.03512 16.1189 5.29586 16.7107 5.54654C17.2373 6.02952 17.4031 6.62211 17.2084 7.32432C16.9412 8.8247 16.0641 9.4173 14.5773 9.10209C13.181 8.30362 11.9247 8.46953 10.8084 9.59987C10.7641 8.92166 10.8589 8.25795 11.0929 7.60876C11.164 7.34802 11.3299 7.18209 11.5907 7.11098C12.0281 6.96781 12.4784 6.8967 12.9418 6.89765C13.6979 6.93655 14.4327 7.07877 15.1462 7.32432C15.2223 6.93484 15.0801 6.6741 14.7196 6.54209C11.6976 6.24648 11.3657 5.10871 13.724 3.12876C14.1955 2.86852 14.6696 2.65519 15.1462 2.48876Z"
            fill="#FDFAFC" />
        <path fill-rule="evenodd" clip-rule="evenodd"
            d="M18.1336 2.91553C20.2118 3.8454 21.3022 5.45725 21.4047 7.75108C20.8452 7.81919 20.3237 7.72437 19.8403 7.46664C19.486 8.45746 19.0356 9.4056 18.4892 10.3111C18.0862 9.90812 17.6832 9.50515 17.2803 9.10219C17.9372 7.82524 18.2928 6.47413 18.3469 5.04886C17.9858 4.8774 17.7251 4.61666 17.5647 4.26664C17.6867 3.78025 17.8765 3.32988 18.1336 2.91553Z"
            fill="#FDF9FB" />
        <path fill-rule="evenodd" clip-rule="evenodd"
            d="M12.1603 9.45764C12.8829 9.42204 13.594 9.49315 14.2937 9.67097C14.5477 9.78254 14.761 9.94847 14.9337 10.1687C14.634 11.2766 14.4682 12.4144 14.4359 13.5821C14.4393 14.6924 14.5815 15.7828 14.8625 16.8532C14.3497 16.8943 13.8519 16.8469 13.3692 16.711C12.9528 15.7567 12.7394 14.7611 12.7292 13.7243C12.587 13.7243 12.4448 13.7243 12.3025 13.7243C12.2791 14.1536 12.3028 14.5802 12.3737 15.0043C12.6311 15.7053 12.8444 16.4164 13.0137 17.1376C12.5757 17.1809 12.1728 17.3231 11.8048 17.5643C11.2544 16.3675 10.7803 15.1349 10.3825 13.8665C9.91431 11.9219 10.5069 10.4522 12.1603 9.45764Z"
            fill="#FDFBFD" />
        <path fill-rule="evenodd" clip-rule="evenodd"
            d="M16.2845 9.88465C16.6855 9.84874 17.0647 9.91985 17.4222 10.098C17.7946 10.4876 18.1501 10.8906 18.4889 11.3069C19.034 10.8565 19.5793 10.4061 20.1245 9.95576C21.1172 9.6452 21.5438 10.0008 21.4045 11.0224C21.2012 13.1728 20.6087 15.2113 19.6267 17.138C19.4907 17.3362 19.3011 17.4311 19.0578 17.4224C18.6562 17.3436 18.2532 17.2725 17.8489 17.2091C17.7839 17.1502 17.7364 17.0791 17.7067 16.9958C18.1757 15.9702 18.4602 14.9273 18.56 13.8669C18.3177 14.0861 18.057 14.2758 17.7778 14.4358C17.5347 14.2836 17.3214 14.094 17.1378 13.8669C17.0904 13.938 17.0429 14.0091 16.9956 14.0802C16.8216 15.0509 16.8216 16.0227 16.9956 16.9958C16.4827 17.0369 15.9849 16.9895 15.5022 16.8535C14.9312 15.016 14.8837 13.1671 15.36 11.3069C15.5674 10.7454 15.8756 10.2713 16.2845 9.88465Z"
            fill="#FEFBFD" />
        <path fill-rule="evenodd" clip-rule="evenodd"
            d="M12.302 11.3066C12.4442 11.3066 12.5865 11.3066 12.7287 11.3066C12.6446 11.6803 12.5971 12.0595 12.5865 12.4444C12.3968 12.4444 12.2072 12.4444 12.0176 12.4444C12.0261 12.0404 12.1209 11.6611 12.302 11.3066Z"
            fill="#FB469E" />
        <path fill-rule="evenodd" clip-rule="evenodd"
            d="M13.1556 17.7067C14.0733 17.6475 14.9739 17.7186 15.8578 17.92C16.0287 18.0484 16.1473 18.2143 16.2134 18.4178C16.7504 20.6666 15.8733 21.757 13.5823 21.6889C13.4808 22.0176 13.3386 22.3258 13.1556 22.6133C12.6839 22.6842 12.2098 22.7079 11.7334 22.6845C11.9081 21.866 12.0029 21.0364 12.0178 20.1956C11.9659 19.5519 11.9422 18.9119 11.9467 18.2756C12.3557 18.0696 12.7587 17.88 13.1556 17.7067Z"
            fill="#FDFAFC" />
        <path fill-rule="evenodd" clip-rule="evenodd"
            d="M16.7107 17.8491C17.6299 17.8774 18.5306 18.0196 19.4129 18.2758C19.4362 18.6579 19.4125 19.0372 19.3418 19.4136C19.19 19.5118 19.0241 19.583 18.844 19.6269C19.0241 19.6708 19.19 19.742 19.3418 19.8402C19.4197 20.3622 19.4908 20.8837 19.5551 21.4047C19.173 21.3814 18.7937 21.4051 18.4174 21.4758C18.8241 21.6288 19.2508 21.7473 19.6974 21.8313C19.957 22.3728 20.0993 22.9417 20.124 23.538C18.8875 23.5393 17.6549 23.4682 16.4262 23.3247C15.5716 23.3245 15.2634 22.9216 15.5018 22.1158C16.9583 20.9937 17.3612 19.5714 16.7107 17.8491Z"
            fill="#FDF9FB" />
        <path fill-rule="evenodd" clip-rule="evenodd"
            d="M14.5773 19.9825C14.3402 19.9825 14.1033 19.9825 13.8662 19.9825C13.8662 19.7929 13.8662 19.6032 13.8662 19.4136C14.0719 19.2553 14.3089 19.2315 14.5773 19.3425C14.7624 19.5723 14.7624 19.7856 14.5773 19.9825Z"
            fill="#FD419C" />
        <path fill-rule="evenodd" clip-rule="evenodd"
            d="M13.8671 19.4136C13.8671 19.6032 13.8671 19.7929 13.8671 19.9825C14.1042 19.9825 14.3412 19.9825 14.5782 19.9825C14.3272 20.1191 14.0428 20.1666 13.7249 20.1247C13.6844 19.8523 13.7319 19.6154 13.8671 19.4136Z"
            fill="#F4A4CC" />
        <path fill-rule="evenodd" clip-rule="evenodd"
            d="M12.3021 23.1109C13.4866 22.9766 14.5532 23.2611 15.5021 23.9642C15.9794 25.0032 16.1216 26.0934 15.9288 27.2353C15.3352 28.5078 14.4107 28.816 13.1555 28.1598C11.8138 26.8492 11.316 25.261 11.6621 23.3953C11.8929 23.3102 12.1062 23.2153 12.3021 23.1109Z"
            fill="#FEFBFD" />
        <path fill-rule="evenodd" clip-rule="evenodd"
            d="M16.5692 23.9644C17.7998 24.0544 19.0322 24.1255 20.267 24.1777C20.4023 24.6125 20.4496 25.0627 20.4092 25.5288C19.8384 25.5052 19.2695 25.5289 18.7026 25.5999C19.1944 25.8012 19.7159 25.8723 20.267 25.8132C20.2719 26.9446 19.703 27.4188 18.5604 27.2355C18.8338 27.3504 19.1183 27.4215 19.4137 27.4488C18.482 28.2632 17.3916 28.6661 16.1426 28.6577C16.2242 28.1137 16.3902 27.5923 16.6404 27.0932C16.7499 26.1789 16.6788 25.2782 16.427 24.391C16.4533 24.2369 16.5007 24.0946 16.5692 23.9644Z"
            fill="#FDFAFC" />
        <path fill-rule="evenodd" clip-rule="evenodd"
            d="M13.4404 25.1021C13.9537 25.2611 14.2382 25.6166 14.2938 26.1687C14.2326 26.3727 14.114 26.5386 13.9382 26.6665C13.6446 26.1886 13.4787 25.6672 13.4404 25.1021Z"
            fill="#FA499E" />
    </g>
    <defs>
        <clipPath id="clip0_5082_340">
            <rect width="32" height="32" fill="white" />
        </clipPath>
    </defs>
</svg>