<svg width="32" height="32" viewBox="0 0 32 32" fill="none" xmlns="http://www.w3.org/2000/svg">
    <g clip-path="url(#clip0_5111_534)">
        <path
            d="M0 0C10.56 0 21.12 0 32 0C32 10.56 32 21.12 32 32C21.44 32 10.88 32 0 32C0 21.44 0 10.88 0 0Z"
            fill="#0D9F6E" />
        <path
            d="M16.0267 5.32541C16.058 5.3253 16.058 5.3253 16.09 5.3252C16.6483 5.325 17.1944 5.40028 17.7334 5.54707C17.7509 5.55163 17.7685 5.55618 17.7866 5.56088C18.28 5.68921 18.7513 5.89331 19.2 6.13374C19.2302 6.14976 19.2603 6.16578 19.2914 6.18228C19.7401 6.42969 20.1446 6.7348 20.5334 7.06707C20.5502 7.08115 20.567 7.09523 20.5843 7.10974C20.6684 7.18055 20.7461 7.25069 20.8167 7.33541C20.8665 7.39387 20.9157 7.44938 20.97 7.50374C21.8791 8.41281 22.4999 9.65844 22.7734 10.9071C22.7807 10.9403 22.788 10.9736 22.7955 11.0079C22.9627 11.805 22.9978 12.6377 22.8534 13.4404C22.8476 13.4737 22.8476 13.4737 22.8417 13.5077C22.5871 14.9536 21.9491 16.3314 21.3334 17.6537C21.3186 17.6856 21.3186 17.6856 21.3035 17.7182C21.1844 17.9749 21.0605 18.229 20.9329 18.4817C20.9074 18.5323 20.8822 18.583 20.8571 18.6337C20.6142 19.1242 20.3572 19.6071 20.0937 20.0868C20.0525 20.162 20.0115 20.2373 19.9705 20.3126C19.7025 20.8057 19.4257 21.2932 19.1444 21.7789C19.1116 21.8355 19.0789 21.8922 19.0461 21.9488C18.8208 22.3387 18.5895 22.7246 18.355 23.1089C18.2843 23.2247 18.2139 23.3407 18.1437 23.4568C18.1233 23.4904 18.103 23.524 18.0826 23.5576C18.0535 23.6057 18.0243 23.6538 17.9952 23.7019C17.8888 23.8778 17.781 24.0526 17.6702 24.2258C17.63 24.2885 17.5903 24.3514 17.5506 24.4145C17.3959 24.6606 17.2393 24.9053 17.0805 25.1487C17.0057 25.2633 16.9315 25.3781 16.8584 25.4937C16.7788 25.6193 16.6968 25.743 16.614 25.8664C16.5789 25.9189 16.544 25.9716 16.5094 26.0244C16.3649 26.2443 16.2103 26.4559 16.0534 26.6671C15.9618 26.5795 15.8861 26.4918 15.815 26.3871C15.8049 26.3722 15.7947 26.3572 15.7843 26.3419C15.7493 26.2904 15.7147 26.2388 15.68 26.1871C15.6614 26.1595 15.6614 26.1595 15.6425 26.1313C15.4375 25.8267 15.2357 25.52 15.0338 25.2134C15.0073 25.1732 14.9808 25.133 14.9543 25.0929C14.7841 24.8348 14.6176 24.5747 14.4546 24.312C14.3943 24.215 14.3329 24.1186 14.2717 24.0221C14.002 23.5957 13.738 23.1661 13.4794 22.733C13.4141 22.6237 13.3488 22.5145 13.2834 22.4054C13.2639 22.373 13.2639 22.373 13.2441 22.3399C13.1708 22.2176 13.0969 22.0957 13.0225 21.9742C13.006 21.9472 12.9895 21.9202 12.9725 21.8924C12.9408 21.8406 12.9091 21.7888 12.8772 21.7371C12.7894 21.5937 12.7063 21.4486 12.6265 21.3005C12.5594 21.1767 12.4895 21.0545 12.42 20.9321C12.2015 20.5462 11.9863 20.1586 11.7744 19.7691C11.7085 19.6479 11.6423 19.5269 11.5753 19.4062C11.4374 19.1576 11.3044 18.9077 11.1791 18.6524C11.1407 18.575 11.1017 18.4979 11.0627 18.4208C10.855 18.0096 10.6558 17.5954 10.4644 17.1763C10.4314 17.1041 10.3982 17.0321 10.3648 16.9602C10.1093 16.4055 9.88197 15.8366 9.66169 15.2671C9.65109 15.2398 9.64048 15.2124 9.62956 15.1843C9.56772 15.0226 9.51433 14.8602 9.46669 14.6937C9.45431 14.652 9.44191 14.6103 9.4295 14.5686C8.87355 12.6711 8.97476 10.7583 9.93669 8.99207C10.2512 8.43046 10.6288 7.90277 11.0856 7.44853C11.1473 7.38913 11.1473 7.38913 11.195 7.32374C11.2603 7.24543 11.3315 7.18233 11.409 7.11634C11.4485 7.08263 11.4875 7.04837 11.5261 7.01364C11.545 6.99662 11.5639 6.97961 11.5834 6.96207C11.6092 6.93861 11.6092 6.93861 11.6356 6.91468C11.68 6.88041 11.68 6.88041 11.7334 6.88041C11.7334 6.86281 11.7334 6.84521 11.7334 6.82707C11.7863 6.78461 11.8393 6.74561 11.895 6.70707C11.9119 6.69524 11.9288 6.68342 11.9463 6.67123C11.9996 6.63408 12.0531 6.59724 12.1067 6.56041C12.1225 6.54938 12.1383 6.53836 12.1546 6.527C12.5395 6.25888 12.9461 6.00472 13.3867 5.84041C13.4206 5.82631 13.4544 5.8121 13.4883 5.7978C14.2935 5.46247 15.1582 5.32821 16.0267 5.32541Z"
            fill="#FEFEFE" />
        <path
            d="M16.96 8.85356C16.9786 8.85827 16.9972 8.86298 17.0163 8.86783C17.2953 8.9391 17.5383 9.05689 17.7885 9.19791C17.8635 9.24012 17.9393 9.28092 18.015 9.32189C18.0544 9.34353 18.0939 9.36518 18.1333 9.38689C18.1333 9.40449 18.1333 9.42209 18.1333 9.44022C18.1516 9.446 18.1699 9.45177 18.1887 9.45772C18.2895 9.50406 18.3636 9.56757 18.4467 9.64022C18.4631 9.65452 18.4796 9.66882 18.4966 9.68354C18.6359 9.80637 18.7611 9.93745 18.88 10.0802C18.8973 10.1003 18.9147 10.1204 18.9326 10.1411C19.5611 10.8908 19.9096 11.9284 19.8359 12.9075C19.8013 13.3002 19.7487 13.6865 19.6 14.0536C19.5892 14.0824 19.5784 14.1113 19.5673 14.1411C19.4772 14.3821 19.372 14.6025 19.235 14.8202C19.2177 14.8477 19.2177 14.8477 19.2001 14.8758C19.0589 15.0979 18.9095 15.3096 18.72 15.4936C18.6969 15.5167 18.6738 15.5398 18.65 15.5636C18.6291 15.5845 18.6082 15.6054 18.5867 15.6269C18.5718 15.6428 18.557 15.6588 18.5417 15.6752C18.5067 15.7069 18.5067 15.7069 18.4533 15.7069C18.4533 15.7245 18.4533 15.7421 18.4533 15.7602C18.4152 15.7947 18.4152 15.7947 18.3614 15.8338C18.3417 15.8482 18.3219 15.8625 18.3016 15.8774C18.2802 15.8926 18.2587 15.9079 18.2367 15.9236C18.2149 15.9391 18.1932 15.9547 18.1708 15.9707C17.9307 16.1404 17.6858 16.2876 17.4133 16.4002C17.3869 16.4112 17.3604 16.4222 17.3331 16.4335C16.6099 16.7099 15.8272 16.7311 15.08 16.5502C15.058 16.545 15.036 16.5397 15.0133 16.5343C14.8865 16.5019 14.7752 16.459 14.6595 16.3977C14.6046 16.369 14.5484 16.3477 14.49 16.3269C14.3072 16.2561 14.1414 16.1533 13.9733 16.0536C13.9733 16.036 13.9733 16.0184 13.9733 16.0002C13.9509 15.9967 13.9509 15.9967 13.9281 15.9931C13.8489 15.9679 13.8006 15.9265 13.7367 15.8736C13.7132 15.8542 13.6897 15.8348 13.6655 15.8148C13.6439 15.7968 13.6223 15.7788 13.6 15.7602C13.5847 15.7483 13.5694 15.7363 13.5536 15.724C13.4579 15.6486 13.3802 15.5627 13.3017 15.4703C13.2364 15.3936 13.1686 15.3192 13.1009 15.2446C13.0667 15.2002 13.0667 15.2002 13.0667 15.1469C13.0491 15.1469 13.0315 15.1469 13.0133 15.1469C12.9855 15.1032 12.9591 15.0585 12.9333 15.0136C12.9108 14.9828 12.888 14.9523 12.865 14.9219C12.8061 14.841 12.7728 14.7642 12.7467 14.6669C12.7291 14.6669 12.7115 14.6669 12.6933 14.6669C12.5042 14.2644 12.3604 13.8748 12.2667 13.4402C12.2567 13.3948 12.2567 13.3948 12.2466 13.3486C12.0665 12.341 12.3327 11.2301 12.9136 10.3933C13.1392 10.0877 13.398 9.77229 13.7067 9.54689C13.7243 9.54689 13.7419 9.54689 13.76 9.54689C13.76 9.52929 13.76 9.51169 13.76 9.49356C13.8527 9.42401 13.9545 9.36731 14.0533 9.30689C14.0823 9.28771 14.1113 9.26853 14.1412 9.24877C14.5425 8.98755 14.9946 8.84091 15.4667 8.77356C15.4913 8.76903 15.516 8.7645 15.5414 8.75983C16.0048 8.68946 16.5102 8.73087 16.96 8.85356Z"
            fill="#9DD3C1" />
        <path
            d="M15.9731 10.5292C16.3881 10.5175 16.7125 10.6257 17.0667 10.8268C17.0892 10.8391 17.1116 10.8514 17.1347 10.8641C17.556 11.1182 17.8397 11.5441 18 12.0001C18.007 12.0184 18.0139 12.0366 18.021 12.0554C18.0902 12.255 18.0934 12.447 18.0917 12.6568C18.0916 12.6745 18.0915 12.6922 18.0914 12.7104C18.0873 13.2716 17.9281 13.7626 17.5467 14.1868C17.5291 14.1868 17.5115 14.1868 17.4934 14.1868C17.4758 14.222 17.4582 14.2572 17.44 14.2934C17.4224 14.2934 17.4048 14.2934 17.3867 14.2934C17.3867 14.311 17.3867 14.3286 17.3867 14.3468C16.9311 14.7512 16.3995 14.878 15.8069 14.8581C15.3961 14.8321 14.9974 14.6474 14.6934 14.3734C14.6695 14.3521 14.6457 14.3307 14.6211 14.3087C14.4378 14.1354 14.3067 13.9561 14.1867 13.7334C14.1739 13.7096 14.161 13.6858 14.1477 13.6613C13.8829 13.1259 13.8842 12.5264 14.0542 11.9622C14.2525 11.4022 14.6571 10.9514 15.1917 10.6951C15.4484 10.5886 15.6973 10.544 15.9731 10.5292Z"
            fill="#0D9C6B" />
        <path
            d="M21.0132 18.293C21.0453 18.3993 21.0295 18.4564 20.9865 18.5596C20.9748 18.5746 20.9631 18.5895 20.951 18.6049C20.8897 18.6895 20.847 18.7808 20.8015 18.8746C20.7343 19.0126 20.664 19.1471 20.5865 19.2796C20.5689 19.2708 20.5513 19.262 20.5332 19.253C20.5754 19.1075 20.6419 18.9807 20.7132 18.848C20.7251 18.8256 20.7369 18.8033 20.7492 18.7803C20.8361 18.6173 20.9238 18.4547 21.0132 18.293Z"
            fill="#2B8E6C" />
        <path
            d="M22.6399 14.2402C22.6487 14.2402 22.6575 14.2402 22.6666 14.2402C22.6573 14.4272 22.6366 14.5968 22.5765 14.7746C22.5572 14.8262 22.5572 14.8262 22.5599 14.8802C22.5423 14.8802 22.5247 14.8802 22.5066 14.8802C22.5066 14.9242 22.5066 14.9682 22.5066 15.0136C22.4538 15.04 22.4538 15.04 22.3999 15.0669C22.4383 14.9163 22.48 14.769 22.5349 14.6236C22.5825 14.4969 22.6138 14.3729 22.6399 14.2402Z"
            fill="#2E926E" />
        <path
            d="M13.9732 12.3203C13.9908 12.3203 14.0084 12.3203 14.0265 12.3203C14.0265 12.5667 14.0265 12.8131 14.0265 13.067C14.0089 13.067 13.9913 13.067 13.9732 13.067C13.9419 13.0045 13.9431 12.967 13.943 12.8974C13.9429 12.8742 13.9429 12.8511 13.9429 12.8272C13.943 12.8029 13.9431 12.7787 13.9432 12.7536C13.9431 12.7298 13.943 12.7059 13.9429 12.6814C13.9431 12.558 13.9479 12.4417 13.9732 12.3203Z"
            fill="#1D956C" />
        <path
            d="M18.1598 23.3867C18.1686 23.4219 18.1774 23.4571 18.1864 23.4934C18.1688 23.4934 18.1512 23.4934 18.1331 23.4934C18.129 23.5223 18.129 23.5223 18.1248 23.5517C18.1048 23.6333 18.0705 23.6892 18.0264 23.7601C18.0264 23.7777 18.0264 23.7953 18.0264 23.8134C18 23.8134 17.9736 23.8134 17.9464 23.8134C17.9442 23.8332 17.942 23.853 17.9398 23.8734C17.916 23.9604 17.8802 23.995 17.8131 24.0534C17.7955 24.0446 17.7779 24.0358 17.7598 24.0267C17.769 24.0121 17.7783 23.9974 17.7879 23.9823C17.8302 23.9155 17.8725 23.8486 17.9148 23.7817C17.9294 23.7587 17.944 23.7356 17.959 23.7119C18.0271 23.6042 18.095 23.4965 18.1598 23.3867Z"
            fill="#2A8F6C" />
        <path
            d="M20.5067 19.2529C20.5243 19.2793 20.5419 19.3057 20.56 19.3329C20.4867 19.4896 20.4867 19.4896 20.4267 19.5196C20.4174 19.555 20.4086 19.5906 20.4 19.6263C20.3784 19.6691 20.3556 19.7113 20.3317 19.7529C20.3196 19.7742 20.3074 19.7956 20.2949 19.8175C20.2856 19.8336 20.2763 19.8497 20.2667 19.8663C20.2491 19.8663 20.2315 19.8663 20.2134 19.8663C20.2549 19.7235 20.3196 19.5996 20.39 19.4696C20.4013 19.4487 20.4125 19.4278 20.424 19.4063C20.4515 19.3551 20.4791 19.304 20.5067 19.2529Z"
            fill="#218D67" />
        <path
            d="M21.0131 18.293C21.0525 18.3953 21.0277 18.4608 20.9865 18.5596C20.9608 18.5959 20.9342 18.6316 20.9065 18.6663C20.8879 18.7015 20.8699 18.7369 20.8531 18.773C20.8265 18.7196 20.8265 18.7196 20.8376 18.6685C20.8836 18.5329 20.9379 18.4149 21.0131 18.293Z"
            fill="#148A61" />
        <path
            d="M22.0534 15.9463C22.0622 15.9463 22.071 15.9463 22.08 15.9463C22.0896 16.0796 22.0625 16.1591 22 16.2763C21.9852 16.3045 21.9703 16.3328 21.955 16.3619C21.9435 16.3832 21.9319 16.4044 21.92 16.4263C21.9024 16.4175 21.8848 16.4087 21.8667 16.3996C21.9283 16.25 21.9899 16.1004 22.0534 15.9463Z"
            fill="#389576" />
        <path
            d="M22.3734 9.49316C22.4123 9.56376 22.4267 9.59702 22.4267 9.67983C22.4531 9.69743 22.4795 9.71503 22.5067 9.73316C22.4891 9.73316 22.4715 9.73316 22.4534 9.73316C22.471 9.76836 22.4886 9.80356 22.5067 9.83983C22.4803 9.87943 22.4803 9.87943 22.4534 9.91983C22.4353 9.87829 22.4176 9.83659 22.4 9.79483C22.3901 9.77163 22.3802 9.74842 22.37 9.72452C22.346 9.65114 22.3402 9.59645 22.3467 9.51983C22.3555 9.51103 22.3643 9.50223 22.3734 9.49316Z"
            fill="#188E64" />
        <path
            d="M18.8532 22.2402C18.862 22.2578 18.8708 22.2754 18.8798 22.2936C18.8536 22.3471 18.8269 22.4004 18.7998 22.4536C18.7812 22.5265 18.7812 22.5265 18.7732 22.5869C18.738 22.5869 18.7028 22.5869 18.6665 22.5869C18.7103 22.4595 18.7802 22.3524 18.8532 22.2402Z"
            fill="#2A8E6C" />
        <path
            d="M16.1331 14.7734C16.2739 14.7734 16.4147 14.7734 16.5598 14.7734C16.4191 14.8672 16.2701 14.8563 16.1064 14.8534C16.1152 14.827 16.124 14.8006 16.1331 14.7734Z"
            fill="#27A57B" />
        <path
            d="M22.7465 13.8662C22.7864 13.9294 22.802 13.9598 22.7894 14.0349C22.7819 14.0557 22.7743 14.0765 22.7665 14.0979C22.7592 14.1189 22.7519 14.1399 22.7444 14.1615C22.7198 14.2129 22.7198 14.2129 22.6665 14.2395C22.6824 14.1097 22.7084 13.9908 22.7465 13.8662Z"
            fill="#31916F" />
        <path
            d="M9.17315 13.5732C9.18195 13.5732 9.19075 13.5732 9.19982 13.5732C9.21401 13.6287 9.22783 13.6843 9.24148 13.7399C9.24922 13.7708 9.25695 13.8018 9.26492 13.8337C9.27853 13.9125 9.28062 13.9531 9.25315 14.0266C9.1817 13.9194 9.19566 13.8601 9.19982 13.7332C9.18222 13.7332 9.16462 13.7332 9.14648 13.7332C9.15528 13.6804 9.16408 13.6276 9.17315 13.5732Z"
            fill="#47AC88" />
        <path
            d="M12.0002 6.63965C12.009 6.65725 12.0178 6.67485 12.0268 6.69298C11.9869 6.72597 11.947 6.75895 11.9071 6.79194C11.8746 6.81972 11.8437 6.84942 11.8135 6.87965C11.7871 6.89725 11.7607 6.91485 11.7335 6.93298C11.7159 6.91538 11.6983 6.89778 11.6802 6.87965C11.6978 6.87965 11.7154 6.87965 11.7335 6.87965C11.7335 6.86205 11.7335 6.84445 11.7335 6.82632C11.7918 6.78027 11.7918 6.78027 11.8668 6.72965C11.8916 6.7128 11.9163 6.69596 11.9418 6.67861C11.9707 6.65932 11.9707 6.65932 12.0002 6.63965Z"
            fill="#E2F7F0" />
        <path
            d="M17.0966 5.35645C17.1219 5.35755 17.1472 5.35865 17.1733 5.35978C17.1733 5.37738 17.1733 5.39498 17.1733 5.41311C17.2437 5.41311 17.3141 5.41311 17.3866 5.41311C17.3866 5.43071 17.3866 5.44831 17.3866 5.46645C17.2458 5.44885 17.105 5.43125 16.96 5.41311C17.0133 5.35978 17.0133 5.35978 17.0966 5.35645Z"
            fill="#3EA481" />
        <path
            d="M21.4398 17.3867C21.4728 17.4822 21.4651 17.5562 21.4398 17.6534C21.4134 17.671 21.387 17.6886 21.3598 17.7067C21.3505 17.5767 21.3753 17.4995 21.4398 17.3867Z"
            fill="#158C64" />
        <path
            d="M20.1866 19.8662C20.2132 19.9462 20.2132 19.9462 20.1799 20.0429C20.1332 20.1329 20.1332 20.1329 20.0532 20.1595C20.0859 20.0515 20.1252 19.961 20.1866 19.8662Z"
            fill="#28906D" />
        <path
            d="M11.4669 7.06641C11.4669 7.16562 11.4428 7.18505 11.3785 7.25807C11.3621 7.27715 11.3457 7.29623 11.3288 7.31589C11.2802 7.35974 11.2802 7.35974 11.2002 7.35974C11.2388 7.26789 11.2876 7.21677 11.3635 7.15307C11.3828 7.13671 11.4022 7.12035 11.4221 7.10349C11.4442 7.08513 11.4442 7.08513 11.4669 7.06641Z"
            fill="#E1F6F0" />
        <path
            d="M16.5602 25.9199C16.569 25.9375 16.5778 25.9551 16.5869 25.9733C16.496 26.1617 16.496 26.1617 16.3735 26.2133C16.3996 26.1693 16.4257 26.1255 16.4519 26.0816C16.4664 26.0571 16.4809 26.0327 16.4959 26.0075C16.5335 25.9466 16.5335 25.9466 16.5602 25.9199Z"
            fill="#2E9371" />
        <path
            d="M20.3467 19.5732C20.3734 19.6266 20.3734 19.6266 20.3613 19.6775C20.3543 19.6965 20.3473 19.7154 20.34 19.7349C20.3299 19.7634 20.3299 19.7634 20.3196 19.7925C20.2934 19.8399 20.2934 19.8399 20.2134 19.8666C20.2461 19.7585 20.2853 19.6681 20.3467 19.5732Z"
            fill="#329271" />
        <path
            d="M19.0401 21.9199C19.0489 21.9199 19.0577 21.9199 19.0667 21.9199C19.0667 21.9639 19.0667 22.0079 19.0667 22.0533C19.0403 22.0621 19.0139 22.0709 18.9867 22.0799C18.9672 22.1337 18.9672 22.1337 18.9601 22.1866C18.9425 22.1866 18.9249 22.1866 18.9067 22.1866C18.9423 22.0909 18.9839 22.0054 19.0401 21.9199Z"
            fill="#2F926E" />
        <path
            d="M19.92 20.3467C19.9288 20.3467 19.9376 20.3467 19.9466 20.3467C19.9378 20.4083 19.929 20.4699 19.92 20.5333C19.9024 20.5333 19.8848 20.5333 19.8666 20.5333C19.8578 20.5685 19.849 20.6037 19.84 20.64C19.8224 20.64 19.8048 20.64 19.7866 20.64C19.8253 20.5389 19.8707 20.443 19.92 20.3467Z"
            fill="#2C906D" />
        <path
            d="M21.2002 17.8662C21.2251 17.9465 21.2281 17.9693 21.2002 18.0529C21.1826 18.0529 21.165 18.0529 21.1469 18.0529C21.1469 18.0969 21.1469 18.1409 21.1469 18.1862C21.1205 18.1862 21.0941 18.1862 21.0669 18.1862C21.1018 18.0733 21.1454 17.9709 21.2002 17.8662Z"
            fill="#379272" />
        <path
            d="M9.3335 14.2402C9.40171 14.3426 9.44936 14.4471 9.43016 14.5719C9.42466 14.5857 9.41916 14.5994 9.4135 14.6136C9.3551 14.526 9.35076 14.4847 9.3435 14.3819C9.3415 14.3554 9.33951 14.3289 9.33745 14.3016C9.33615 14.2813 9.33484 14.2611 9.3335 14.2402Z"
            fill="#49AC89" />
        <path
            d="M17.0933 25.0938C17.12 25.1737 17.12 25.1737 17.0816 25.2587C17.061 25.2959 17.061 25.2959 17.04 25.3337C17.0136 25.3337 16.9872 25.3337 16.96 25.3337C16.9933 25.2415 17.0313 25.1698 17.0933 25.0938Z"
            fill="#389674" />
        <path
            d="M17.5201 24.4268C17.5289 24.4444 17.5377 24.462 17.5467 24.4801C17.5279 24.531 17.5279 24.531 17.4984 24.5884C17.4889 24.6074 17.4793 24.6264 17.4695 24.646C17.4401 24.6934 17.4401 24.6934 17.3867 24.7201C17.4009 24.5997 17.4498 24.5242 17.5201 24.4268Z"
            fill="#2E906F" />
        <path
            d="M18.6402 22.5869C18.649 22.5869 18.6578 22.5869 18.6668 22.5869C18.6738 22.6708 18.6734 22.7101 18.6268 22.7819C18.607 22.8042 18.607 22.8042 18.5868 22.8269C18.5604 22.8181 18.534 22.8093 18.5068 22.8002C18.5284 22.7646 18.5501 22.7291 18.5718 22.6936C18.5839 22.6738 18.596 22.654 18.6084 22.6336C18.6189 22.6182 18.6294 22.6028 18.6402 22.5869Z"
            fill="#2F946F" />
        <path
            d="M14.0533 11.9463C14.0621 11.9463 14.0709 11.9463 14.08 11.9463C14.0807 11.9846 14.0812 12.023 14.0817 12.0613C14.082 12.0826 14.0823 12.104 14.0826 12.126C14.08 12.1863 14.08 12.1863 14.0533 12.2663C14.0357 12.2663 14.0181 12.2663 14 12.2663C14.0267 12.0377 14.0267 12.0377 14.0533 11.9463Z"
            fill="#289872" />
        <path
            d="M22.8799 11.2803C22.8975 11.2803 22.9151 11.2803 22.9332 11.2803C22.9302 11.3197 22.9268 11.3592 22.9232 11.3986C22.9204 11.4316 22.9204 11.4316 22.9176 11.4652C22.9139 11.4834 22.9103 11.5015 22.9065 11.5203C22.8801 11.5335 22.8801 11.5335 22.8532 11.5469C22.8525 11.5075 22.852 11.4681 22.8515 11.4286C22.8512 11.4066 22.8509 11.3847 22.8506 11.362C22.8532 11.3069 22.8532 11.3069 22.8799 11.2803Z"
            fill="#2F9370" />
        <path
            d="M9.33318 10.373C9.35078 10.3818 9.36838 10.3906 9.38651 10.3997C9.34691 10.5449 9.34691 10.5449 9.30651 10.693C9.25318 10.5864 9.25318 10.5864 9.26547 10.5293C9.27351 10.5107 9.28156 10.4922 9.28984 10.473C9.29775 10.4542 9.30566 10.4354 9.3138 10.416C9.3202 10.4018 9.32659 10.3876 9.33318 10.373Z"
            fill="#3AA782" />
        <path
            d="M21.6532 16.9062C21.679 16.9863 21.6859 17.0407 21.6532 17.1196C21.6268 17.1284 21.6004 17.1372 21.5732 17.1462C21.5881 17.0571 21.6093 16.9854 21.6532 16.9062Z"
            fill="#2E926F" />
        <path
            d="M14.1067 11.8135C14.1331 11.8135 14.1595 11.8135 14.1867 11.8135C14.1603 11.8927 14.1339 11.9719 14.1067 12.0535C14.0979 12.0535 14.0891 12.0535 14.0801 12.0535C14.0889 11.9743 14.0977 11.8951 14.1067 11.8135Z"
            fill="#1B946B" />
        <path
            d="M19.3335 21.4131C19.3423 21.4307 19.3511 21.4483 19.3602 21.4664C19.3352 21.5293 19.3086 21.5917 19.2802 21.6531C19.2538 21.6443 19.2274 21.6355 19.2002 21.6264C19.2442 21.556 19.2882 21.4856 19.3335 21.4131Z"
            fill="#2F906E" />
        <path
            d="M14.48 11.2266C14.4967 11.2749 14.4967 11.2749 14.5067 11.3332C14.4803 11.3728 14.4803 11.3728 14.4533 11.4132C14.4181 11.4044 14.3829 11.3956 14.3467 11.3866C14.3907 11.3338 14.4347 11.281 14.48 11.2266Z"
            fill="#299A74" />
        <path
            d="M14.6668 11.04C14.6756 11.0752 14.6844 11.1104 14.6935 11.1467C14.6302 11.1884 14.6302 11.1884 14.5602 11.2267C14.5426 11.2179 14.525 11.2091 14.5068 11.2C14.5596 11.1472 14.6124 11.0944 14.6668 11.04Z"
            fill="#239770" />
        <path
            d="M21.0134 18.293C21.0317 18.3396 21.0317 18.3396 21.0401 18.3996C21.0017 18.4596 21.0017 18.4596 20.9601 18.5063C20.9425 18.4975 20.9249 18.4887 20.9067 18.4796C20.9419 18.418 20.9771 18.3564 21.0134 18.293Z"
            fill="#2A8B69" />
        <path
            d="M22.8531 13.3066C22.8927 13.333 22.8927 13.333 22.9331 13.36C22.9067 13.4216 22.8803 13.4832 22.8531 13.5466C22.8236 13.458 22.8306 13.3967 22.8531 13.3066Z"
            fill="#419679" />
        <path
            d="M14.8802 10.8799C14.8978 10.8887 14.9154 10.8975 14.9335 10.9065C14.9071 10.9461 14.9071 10.9461 14.8802 10.9865C14.8626 10.9865 14.845 10.9865 14.8269 10.9865C14.8181 11.0041 14.8093 11.0217 14.8002 11.0399C14.7738 11.0311 14.7474 11.0223 14.7202 11.0132C14.773 10.9692 14.8258 10.9252 14.8802 10.8799Z"
            fill="#1C956C" />
    </g>
    <defs>
        <clipPath id="clip0_5111_534">
            <rect width="32" height="32" fill="white" />
        </clipPath>
    </defs>
</svg>