<svg width="32" height="32" viewBox="0 0 32 32" fill="none" xmlns="http://www.w3.org/2000/svg">
    <g clip-path="url(#clip0_5497_350)">
        <path fill-rule="evenodd" clip-rule="evenodd"
            d="M-0.0800781 -0.0800781C10.5866 -0.0800781 21.2532 -0.0800781 31.9199 -0.0800781C31.9199 10.5866 31.9199 21.2532 31.9199 31.9199C21.2532 31.9199 10.5866 31.9199 -0.0800781 31.9199C-0.0800781 21.2532 -0.0800781 10.5866 -0.0800781 -0.0800781Z"
            fill="#FEFEFE" />
        <path fill-rule="evenodd" clip-rule="evenodd"
            d="M22.0004 18.1599C22.0214 18.0416 21.9946 17.9349 21.9204 17.8399C18.6778 15.7166 17.6911 12.7833 18.9604 9.03986C18.9406 8.94279 18.8873 8.88946 18.8004 8.87986C19.3446 7.93002 20.1446 7.42337 21.2004 7.35986C21.8399 7.94572 22.5866 8.31905 23.4404 8.47986C24.079 8.95809 24.5322 9.57142 24.8004 10.3199C25.9911 10.9554 26.3111 11.9154 25.7604 13.1999C25.2759 13.8707 24.6359 14.3507 23.8404 14.6399C23.7262 15.135 23.5662 15.615 23.3604 16.0799C22.9849 16.833 22.5314 17.5263 22.0004 18.1599Z"
            fill="#9A3EE2" />
        <path fill-rule="evenodd" clip-rule="evenodd"
            d="M11.6004 11.6001C11.5135 11.6097 11.4602 11.663 11.4404 11.7601C12.7989 11.9715 14.1323 11.9715 15.4404 11.7601C15.7258 11.6973 15.9925 11.5906 16.2404 11.4401C16.205 11.6377 16.0983 11.7977 15.9204 11.9201C17.1743 14.4298 17.1476 16.9364 15.8404 19.4401C15.7605 20.2918 15.7338 21.1451 15.7604 22.0001C15.5186 21.5131 15.4119 20.9796 15.4404 20.4001C14.5322 20.4267 13.6255 20.3999 12.7204 20.3201C12.3093 20.1764 11.936 19.9897 11.6004 19.7601C11.2264 19.17 10.7464 18.69 10.1604 18.3201C10.2924 18.1783 10.4524 18.1251 10.6404 18.1601C10.6668 17.6241 10.6401 17.0908 10.5604 16.5601C10.233 16.2081 10.073 15.7814 10.0804 15.2801C9.82313 14.819 9.60978 14.339 9.44039 13.8401C9.01229 13.4072 8.66562 12.9272 8.40039 12.4001C8.76705 11.9197 9.06039 11.3864 9.28039 10.8001C10.0396 9.96116 10.7862 9.96116 11.5204 10.8001C11.5994 11.0616 11.626 11.3282 11.6004 11.6001Z"
            fill="#5E0797" />
        <path fill-rule="evenodd" clip-rule="evenodd"
            d="M11.6004 11.6001C12.851 11.7589 14.131 11.8122 15.4404 11.7601C14.1323 11.9714 12.799 11.9714 11.4404 11.7601C11.4602 11.663 11.5135 11.6097 11.6004 11.6001Z"
            fill="#DCB8F4" />
        <path fill-rule="evenodd" clip-rule="evenodd"
            d="M10.4802 11.1201C10.8759 11.1917 10.9025 11.3517 10.5602 11.6001C10.4829 11.4484 10.4562 11.2884 10.4802 11.1201Z"
            fill="#DFB5F5" />
        <path fill-rule="evenodd" clip-rule="evenodd"
            d="M18.7999 8.87988C18.8868 8.88948 18.9401 8.94281 18.9599 9.03988C17.6907 12.7833 18.6774 15.7167 21.9199 17.8399C21.9942 17.9349 22.0209 18.0416 21.9999 18.1599C21.3414 19.0031 20.4881 19.5631 19.4399 19.8399C19.0932 20.0799 18.7467 20.3199 18.3999 20.5599C18.1527 20.8333 18.0195 21.1533 17.9999 21.5199C18.1067 21.9466 18.2132 22.3732 18.3199 22.7999C18.3006 23.0229 18.2473 23.2364 18.1599 23.4399C17.5732 23.6532 16.9867 23.6532 16.3999 23.4399C16.0627 23.0148 15.8494 22.5348 15.7599 21.9999C15.7334 21.1448 15.76 20.2916 15.8399 19.4399C17.1471 16.9362 17.1739 14.4295 15.9199 11.9199C16.0979 11.7975 16.2046 11.6375 16.2399 11.4399C17.1206 10.6132 17.9739 9.75988 18.7999 8.87988Z"
            fill="#760DBD" />
        <path fill-rule="evenodd" clip-rule="evenodd"
            d="M8.4 12.3999C8.66523 12.927 9.0119 13.407 9.44 13.8399C9.60939 14.3388 9.82274 14.8188 10.08 15.2799C10.0726 15.7812 10.2326 16.2079 10.56 16.5599C10.6397 17.0906 10.6664 17.6239 10.64 18.1599C10.452 18.1249 10.292 18.1781 10.16 18.3199C10.746 18.6898 11.226 19.1698 11.6 19.7599C11.2455 19.6474 10.9522 19.4341 10.72 19.1199C10.6051 20.4815 9.88507 21.2815 8.56 21.5199C8.57101 21.9333 8.75768 22.2533 9.12 22.4799C9.22667 22.7999 9.22667 23.1199 9.12 23.4399C8.46946 23.5941 7.8028 23.6474 7.12 23.5999C6.70211 22.5869 6.32878 21.5469 6 20.4799C6.32456 19.9097 6.53789 19.2962 6.64 18.6399C5.72387 16.1125 6.31054 14.0326 8.4 12.3999Z"
            fill="#43066B" />
    </g>
    <defs>
        <clipPath id="clip0_5497_350">
            <rect width="32" height="32" fill="white" />
        </clipPath>
    </defs>
</svg>