<svg width="32" height="32" viewBox="0 0 32 32" fill="none" xmlns="http://www.w3.org/2000/svg">
    <g clip-path="url(#clip0_5353_45)">
        <path fill-rule="evenodd" clip-rule="evenodd"
            d="M-0.0800781 -0.0800781C10.5866 -0.0800781 21.2532 -0.0800781 31.9199 -0.0800781C31.9199 9.78659 31.9199 19.6532 31.9199 29.5199C21.2532 29.5199 10.5866 29.5199 -0.0800781 29.5199C-0.0800781 19.6532 -0.0800781 9.78659 -0.0800781 -0.0800781Z"
            fill="#FDFEFD" />
        <path fill-rule="evenodd" clip-rule="evenodd"
            d="M26.8 21.84C26.652 17.0955 26.5988 12.3488 26.64 7.60002C26.48 7.60002 26.32 7.60002 26.16 7.60002C26.16 11.8667 26.16 16.1333 26.16 20.4C26.2101 20.9667 26.1567 21.5 26 22C26.0532 16.4261 25.9997 10.8794 25.84 5.36002C25.8676 5.20136 25.8141 5.09469 25.68 5.04002C25.6268 5.04002 25.5733 5.04002 25.52 5.04002C25.5551 4.85202 25.5018 4.69202 25.36 4.56002C24.9952 4.36772 24.6218 4.20772 24.24 4.08002C18.6671 3.89373 13.0671 3.86708 7.44004 4.00002C7.24204 4.03716 7.08204 4.11716 6.96004 4.24002C6.63118 4.40943 6.41783 4.67608 6.32004 5.04002C6.21337 5.04002 6.10671 5.04002 6.00004 5.04002C5.89338 7.99954 5.84004 10.9862 5.84004 14C5.8401 17.0419 5.94678 20.0287 6.16004 22.96C6.32004 23.0133 6.42671 23.12 6.48004 23.28C6.61767 23.6183 6.88433 23.8048 7.28004 23.84C8.37546 23.9714 9.44212 23.9447 10.48 23.76C10.5334 23.76 10.5867 23.76 10.64 23.76C10.6537 23.9992 10.547 24.1592 10.32 24.24C8.55254 24.2643 6.84586 23.9711 5.20004 23.36C5.12686 23.2938 5.07353 23.2138 5.04004 23.12C5.23025 22.9714 5.44359 22.9181 5.68004 22.96C5.63049 16.6629 5.68382 10.3695 5.84004 4.08002C6.22831 4.07634 6.60164 3.99634 6.96004 3.84002C12.7294 3.82276 18.4895 3.71608 24.24 3.52002C24.5492 3.85495 24.9224 4.09495 25.36 4.24002C25.6575 4.0496 25.9508 4.0496 26.24 4.24002C26.5068 4.13335 26.7733 4.02669 27.04 3.92002C27.3376 4.19216 27.6844 4.35216 28.08 4.40002C27.8684 5.45189 27.7084 6.51855 27.6 7.60002C27.4408 6.75328 27.3876 5.89996 27.44 5.04002C27.28 5.04002 27.12 5.04002 26.96 5.04002C27.0668 11.0133 27.1733 16.9867 27.28 22.96C27.12 22.96 26.96 22.96 26.8 22.96C26.8 22.5867 26.8 22.2133 26.8 21.84Z"
            fill="#F9FCF3" />
        <path fill-rule="evenodd" clip-rule="evenodd"
            d="M24.24 4.08004C18.666 4.02697 13.1193 4.0803 7.59996 4.24004C7.38663 4.24004 7.17329 4.24004 6.95996 4.24004C7.08196 4.11718 7.24196 4.03718 7.43996 4.00004C13.067 3.8671 18.667 3.89376 24.24 4.08004Z"
            fill="#FDDFBE" />
        <path fill-rule="evenodd" clip-rule="evenodd"
            d="M7.6001 4.23991C13.1195 4.08017 18.6662 4.02684 24.2401 4.07991C24.6219 4.20761 24.9953 4.36761 25.3601 4.55991C25.5019 4.69191 25.5551 4.85191 25.5201 5.03991C24.7339 4.58244 23.8806 4.31577 22.9601 4.23991C17.8401 4.23991 12.7201 4.23991 7.6001 4.23991Z"
            fill="#D58A55" />
        <path fill-rule="evenodd" clip-rule="evenodd"
            d="M6.95982 4.24023C7.17315 4.24023 7.3865 4.24023 7.59982 4.24023C12.7198 4.24023 17.8398 4.24023 22.9598 4.24023C17.8669 4.37342 12.7469 4.45342 7.59982 4.48023C7.21016 4.75471 6.78349 4.94137 6.31982 5.04023C6.41762 4.6763 6.63096 4.40964 6.95982 4.24023Z"
            fill="#E1803C" />
        <path fill-rule="evenodd" clip-rule="evenodd"
            d="M22.9601 4.24023C23.8805 4.31609 24.7338 4.58276 25.5201 5.04023C25.5733 5.04023 25.6268 5.04023 25.6801 5.04023C25.7263 11.016 25.6729 16.9894 25.5201 22.9602C24.8458 23.1615 24.1525 23.3215 23.4401 23.4402C23.4401 23.2802 23.4401 23.1202 23.4401 22.9602C23.2801 22.9602 23.1201 22.9602 22.9601 22.9602C22.8533 5.89356 22.7468 5.89356 22.6401 22.9602C22.4801 22.9602 22.3201 22.9602 22.1601 22.9602C22.2653 18.6369 22.1586 14.3702 21.8401 10.1602C21.8661 9.78315 21.8396 9.4098 21.7601 9.04023C21.7092 8.79049 21.5759 8.60382 21.3601 8.48023C20.1879 8.40028 19.0146 8.37363 17.8401 8.40023C17.6095 8.04436 17.3962 7.67102 17.2001 7.28023C16.8596 7.09958 16.4863 7.07291 16.0801 7.20023C15.721 7.20817 15.4543 7.3415 15.2801 7.60023C14.6073 7.55073 13.9673 7.65739 13.3601 7.92023C13.0357 7.8943 12.7157 7.92095 12.4001 8.00023C12.3111 8.06145 12.2578 8.14145 12.2401 8.24023C12.2401 8.29356 12.2401 8.34691 12.2401 8.40023C11.7571 8.3739 11.2771 8.40055 10.8001 8.48023C10.6592 8.59356 10.5525 8.72689 10.4801 8.88023C10.3244 9.2719 10.271 9.69857 10.3201 10.1602C10.1604 14.3994 10.1071 18.666 10.1601 22.9602C9.30506 22.9337 8.45172 22.9604 7.60005 23.0402C8.48258 23.0679 9.33591 23.1479 10.1601 23.2802C10.1601 23.387 10.1601 23.4935 10.1601 23.6002C10.1601 23.6535 10.1601 23.707 10.1601 23.7602C9.27586 23.8116 8.42253 23.7583 7.60005 23.6002C7.51901 23.3828 7.35901 23.2228 7.12005 23.1202C7.21969 22.649 7.27301 22.169 7.28005 21.6802C7.03482 16.9916 6.87482 12.2982 6.80005 7.60023C6.5901 12.0024 6.5901 16.4023 6.80005 20.8002C6.79857 21.0249 6.71857 21.2114 6.56005 21.3602C6.50673 21.0402 6.45338 20.7202 6.40005 20.4002C6.32005 15.2805 6.2934 10.1605 6.32005 5.04023C6.78372 4.94137 7.21039 4.75471 7.60005 4.48023C12.7471 4.45342 17.8671 4.37342 22.9601 4.24023Z"
            fill="#F57C32" />
        <path fill-rule="evenodd" clip-rule="evenodd"
            d="M5.99984 5.04004C5.94949 11.0183 6.00282 16.9916 6.15984 22.96C5.94658 20.0287 5.83991 17.042 5.83984 14C5.83984 10.9862 5.89319 7.99956 5.99984 5.04004Z"
            fill="#FFEBCC" />
        <path fill-rule="evenodd" clip-rule="evenodd"
            d="M17.1998 7.28005C16.8934 7.23453 16.6268 7.28788 16.3998 7.44005C16.0451 7.57903 15.6717 7.63237 15.2798 7.60005C15.4541 7.34132 15.7207 7.20799 16.0798 7.20005C16.486 7.07272 16.8593 7.0994 17.1998 7.28005Z"
            fill="#C09C7A" />
        <path fill-rule="evenodd" clip-rule="evenodd"
            d="M25.68 5.04004C25.8141 5.09471 25.8675 5.20138 25.84 5.36004C25.8903 11.2316 25.837 17.0983 25.68 22.96C25.6267 22.96 25.5733 22.96 25.52 22.96C25.6728 16.9892 25.7263 11.0158 25.68 5.04004Z"
            fill="#D48952" />
        <path fill-rule="evenodd" clip-rule="evenodd"
            d="M25.8402 5.35986C25.9999 10.8792 26.0533 16.4259 26.0002 21.9999C26.0762 22.413 25.9695 22.733 25.6802 22.9599C25.8371 17.0981 25.8904 11.2314 25.8402 5.35986Z"
            fill="#FEF0C7" />
        <path fill-rule="evenodd" clip-rule="evenodd"
            d="M26.8002 21.8401C26.6699 22.1811 26.5899 22.5543 26.5602 22.9601C26.3987 22.2084 26.372 21.4619 26.4802 20.7201C26.4406 20.526 26.3339 20.4193 26.1602 20.4001C26.1602 16.1334 26.1602 11.8668 26.1602 7.6001C26.3202 7.6001 26.4802 7.6001 26.6402 7.6001C26.5989 12.3489 26.6522 17.0956 26.8002 21.8401Z"
            fill="#FDF7FE" />
        <path fill-rule="evenodd" clip-rule="evenodd"
            d="M13.3602 7.92024C13.3602 7.97356 13.3602 8.02691 13.3602 8.08024C12.9825 8.10809 12.6091 8.16142 12.2402 8.24024C12.2579 8.14145 12.3113 8.06145 12.4002 8.00024C12.7159 7.92096 13.0359 7.8943 13.3602 7.92024Z"
            fill="#BE9167" />
        <path fill-rule="evenodd" clip-rule="evenodd"
            d="M15.2799 7.60015C14.718 7.99221 14.078 8.15221 13.3599 8.08015C13.3599 8.02682 13.3599 7.97348 13.3599 7.92015C13.9671 7.6573 14.6071 7.55064 15.2799 7.60015Z"
            fill="#9AB69B" />
        <path fill-rule="evenodd" clip-rule="evenodd"
            d="M17.2002 7.27979C17.3964 7.67057 17.6096 8.04391 17.8402 8.39979C18.8535 8.50646 19.8669 8.61311 20.8802 8.71979C19.7602 8.71979 18.6402 8.71979 17.5202 8.71979C17.4135 8.71979 17.3069 8.71979 17.2002 8.71979C17.2002 8.23979 17.2002 7.75979 17.2002 7.27979Z"
            fill="#CA8A5E" />
        <path fill-rule="evenodd" clip-rule="evenodd"
            d="M10.3201 10.1602C10.3731 14.561 10.3198 18.9342 10.1601 23.2802C9.33595 23.1478 8.48263 23.0678 7.6001 23.0402C8.45176 22.9603 9.30511 22.9336 10.1601 22.9602C10.1071 18.6659 10.1604 14.3993 10.3201 10.1602Z"
            fill="#E48238" />
        <path fill-rule="evenodd" clip-rule="evenodd"
            d="M10.4802 8.87988C10.5856 13.8428 10.4789 18.7495 10.1602 23.5999C10.1602 23.4932 10.1602 23.3866 10.1602 23.2799C10.3198 18.934 10.3731 14.5607 10.3202 10.1599C10.2711 9.69822 10.3245 9.27155 10.4802 8.87988Z"
            fill="#C78E58" />
        <path fill-rule="evenodd" clip-rule="evenodd"
            d="M12.2402 8.39995C11.715 8.47691 11.2083 8.63691 10.7202 8.87995C10.6402 12.7196 10.6135 16.5596 10.6402 20.4C10.6205 21.5246 10.6738 22.6446 10.8002 23.76C10.7468 23.76 10.6935 23.76 10.6402 23.76C10.5868 23.76 10.5335 23.76 10.4802 23.76C10.3735 23.76 10.2668 23.76 10.1602 23.76C10.1602 23.7067 10.1602 23.6532 10.1602 23.6C10.4789 18.7496 10.5856 13.8429 10.4802 8.87995C10.5526 8.72661 10.6593 8.59328 10.8002 8.47995C11.2772 8.40027 11.7572 8.37362 12.2402 8.39995Z"
            fill="#ACAB92" />
        <path fill-rule="evenodd" clip-rule="evenodd"
            d="M13.3599 8.08008C13.2263 8.31099 13.0129 8.47099 12.7199 8.56008C12.1943 8.69185 11.661 8.77185 11.1199 8.80008C10.8432 9.0863 10.7366 9.43297 10.7999 9.84008C10.8528 13.3878 10.7995 16.9078 10.6399 20.4001C10.6132 16.5598 10.6399 12.7197 10.7199 8.88008C11.208 8.63704 11.7147 8.47704 12.2399 8.40008C12.2399 8.34675 12.2399 8.29341 12.2399 8.24008C12.6088 8.16126 12.9821 8.10793 13.3599 8.08008Z"
            fill="#8FC0C5" />
        <path fill-rule="evenodd" clip-rule="evenodd"
            d="M10.8002 9.83984C10.9602 9.83984 11.1202 9.83984 11.2802 9.83984C11.7215 10.0745 11.6682 10.1812 11.1202 10.1598C11.1202 14.4265 11.1202 18.6931 11.1202 22.9598C11.2802 22.9598 11.4402 22.9598 11.6002 22.9598C11.5022 22.0365 11.6088 21.1832 11.9202 20.3998C12.1306 21.2286 12.1306 22.0821 11.9202 22.9598C11.4927 23.2627 11.3327 23.636 11.4402 24.0798C11.1903 24.0426 10.977 23.9358 10.8002 23.7598C10.6739 22.6445 10.6205 21.5245 10.6402 20.3998C10.7998 16.9075 10.8531 13.3875 10.8002 9.83984Z"
            fill="#73C7D5" />
        <path fill-rule="evenodd" clip-rule="evenodd"
            d="M11.9201 20.4002C11.6087 21.1836 11.5021 22.0368 11.6001 22.9602C11.4401 22.9602 11.2801 22.9602 11.1201 22.9602C11.1201 18.6935 11.1201 14.4269 11.1201 10.1602C11.6681 10.1815 11.7214 10.0748 11.2801 9.8402C11.5468 9.8402 11.8134 9.8402 12.0801 9.8402C12.1073 9.62866 12.054 9.44201 11.9201 9.2802C12.0268 9.17353 12.1334 9.17353 12.2401 9.2802C12.3851 9.55212 12.4384 9.84545 12.4001 10.1602C12.2401 10.1602 12.0801 10.1602 11.9201 10.1602C11.9201 13.5735 11.9201 16.9869 11.9201 20.4002Z"
            fill="#68CFD5" />
        <path fill-rule="evenodd" clip-rule="evenodd"
            d="M17.2002 10.1602C17.4158 15.3022 17.629 20.4755 17.8402 25.6802C17.5878 26.3216 17.4278 26.9883 17.3602 27.6802C16.7674 27.8902 16.3942 27.7035 16.2402 27.1202C16.347 27.1202 16.4535 27.1202 16.5602 27.1202C16.682 27.2627 16.842 27.3694 17.0402 27.4402C17.2002 21.6811 17.2535 15.9211 17.2002 10.1602Z"
            fill="#E6FEFB" />
        <path fill-rule="evenodd" clip-rule="evenodd"
            d="M17.5201 8.72021C18.6401 8.72021 19.7601 8.72021 20.8801 8.72021C21.0226 8.81778 21.1826 8.87111 21.3601 8.88021C21.2546 13.8964 21.3613 18.8564 21.6801 23.7602C22.7524 23.7865 23.8191 23.7332 24.8801 23.6002C24.8132 23.7157 24.7066 23.7957 24.5601 23.8402C23.4005 23.9701 22.2538 23.9436 21.1201 23.7602C21.1933 19.2324 21.2199 14.6991 21.2001 10.1602C21.0401 10.1602 20.8801 10.1602 20.7201 10.1602C20.9503 9.82613 21.057 9.45279 21.0401 9.04021C19.9167 8.84647 18.7967 8.84647 17.6801 9.04021C17.5524 8.96711 17.4991 8.86044 17.5201 8.72021Z"
            fill="#FEEDCF" />
        <path fill-rule="evenodd" clip-rule="evenodd"
            d="M21.3601 8.87988C21.4679 13.8243 21.5747 18.7842 21.6801 23.7599C21.3614 18.856 21.2547 13.8961 21.3601 8.87988Z"
            fill="#DEA977" />
        <path fill-rule="evenodd" clip-rule="evenodd"
            d="M17.8398 8.40011C19.0144 8.3735 20.1877 8.40015 21.3598 8.48011C21.5757 8.60369 21.709 8.79036 21.7598 9.04011C21.8394 9.40967 21.8659 9.78302 21.8398 10.1601C21.6536 14.3996 21.627 18.6663 21.7598 22.9601C21.9213 23.1454 22.1346 23.2521 22.3998 23.2801C22.6688 23.2628 22.8555 23.1561 22.9598 22.9601C23.1198 22.9601 23.2798 22.9601 23.4398 22.9601C23.4398 23.1201 23.4398 23.2801 23.4398 23.4401C24.1523 23.3214 24.8456 23.1614 25.5198 22.9601C25.5198 23.0134 25.5198 23.0668 25.5198 23.1201C25.3003 23.282 25.087 23.442 24.8798 23.6001C23.8189 23.7331 22.7522 23.7863 21.6798 23.7601C21.5744 18.7844 21.4677 13.8245 21.3598 8.88011C21.1824 8.871 21.0224 8.81767 20.8798 8.72011C19.8666 8.61343 18.8531 8.50678 17.8398 8.40011Z"
            fill="#DC8543" />
        <path fill-rule="evenodd" clip-rule="evenodd"
            d="M21.8402 10.1602C22.1588 14.3701 22.2655 18.6368 22.1602 22.9602C22.3202 22.9602 22.4802 22.9602 22.6402 22.9602C22.7469 5.89349 22.8535 5.89349 22.9602 22.9602C22.8559 23.1562 22.6692 23.2629 22.4002 23.2802C22.1349 23.2522 21.9217 23.1454 21.7602 22.9602C21.6274 18.6664 21.654 14.3996 21.8402 10.1602Z"
            fill="#F67C2C" />
        <path fill-rule="evenodd" clip-rule="evenodd"
            d="M16.3999 7.43994C16.6132 7.43994 16.8266 7.43994 17.0399 7.43994C17.0666 13.9468 17.0399 20.4535 16.9599 26.9599C16.8526 27.0803 16.7193 27.1337 16.5599 27.1199C16.4532 27.1199 16.3466 27.1199 16.2399 27.1199C14.687 26.0239 13.087 25.0107 11.4399 24.0799C11.3324 23.6361 11.4924 23.2628 11.9199 22.9599C12.1303 22.0822 12.1303 21.2287 11.9199 20.3999C11.9199 16.9867 11.9199 13.5733 11.9199 10.1599C12.0799 10.1599 12.2399 10.1599 12.3999 10.1599C12.4382 9.84519 12.3849 9.55186 12.2399 9.27994C12.1332 9.17327 12.0266 9.17327 11.9199 9.27994C12.0538 9.44175 12.1071 9.62841 12.0799 9.83994C11.8132 9.83994 11.5466 9.83994 11.2799 9.83994C11.1199 9.83994 10.9599 9.83994 10.7999 9.83994C10.7366 9.43284 10.8433 9.08617 11.1199 8.79994C11.661 8.77172 12.1943 8.69172 12.7199 8.55994C13.013 8.47085 13.2263 8.31085 13.3599 8.07994C14.0781 8.15201 14.7181 7.99201 15.2799 7.59994C15.6718 7.63226 16.0452 7.57892 16.3999 7.43994Z"
            fill="#71CBD3" />
        <path fill-rule="evenodd" clip-rule="evenodd"
            d="M14.8 17.3602C15.9506 17.1495 16.4306 17.6295 16.24 18.8002C15.9557 18.846 15.6891 18.9527 15.44 19.1202C15.1785 19.0329 14.9118 18.9794 14.64 18.9602C14.3824 18.3924 14.4358 17.8589 14.8 17.3602Z"
            fill="#DBF4F6" />
        <path fill-rule="evenodd" clip-rule="evenodd"
            d="M5.99979 5.04004C6.10646 5.04004 6.21311 5.04004 6.31979 5.04004C6.29313 10.1603 6.31979 15.2803 6.39979 20.4C6.45311 20.72 6.50646 21.04 6.55979 21.36C6.7183 21.2112 6.7983 21.0247 6.79979 20.8C6.58983 16.4021 6.58983 12.0022 6.79979 7.60004C6.87455 12.298 7.03455 16.9914 7.27979 21.68C7.27275 22.1688 7.21942 22.6488 7.11979 23.12C7.35875 23.2226 7.51875 23.3826 7.59979 23.6C7.18721 23.617 6.81387 23.5103 6.47979 23.28C6.42646 23.12 6.31979 23.0133 6.15979 22.96C6.00276 16.9916 5.94943 11.0183 5.99979 5.04004Z"
            fill="#E7823E" />
        <path fill-rule="evenodd" clip-rule="evenodd"
            d="M16.3999 7.43988C16.6269 7.2877 16.8935 7.23436 17.1999 7.27988C17.1999 7.75988 17.1999 8.23988 17.1999 8.71988C17.1999 9.19988 17.1999 9.67988 17.1999 10.1599C17.2532 15.9209 17.1999 21.6808 17.0399 27.4399C16.8417 27.3692 16.6817 27.2624 16.5599 27.1199C16.7193 27.1336 16.8525 27.0802 16.9599 26.9599C17.0399 20.4535 17.0666 13.9468 17.0399 7.43988C16.8266 7.43988 16.6132 7.43988 16.3999 7.43988Z"
            fill="#8CC3C0" />
        <path fill-rule="evenodd" clip-rule="evenodd"
            d="M6.47998 23.2798C6.81406 23.51 7.1874 23.6167 7.59998 23.5998C8.42246 23.7579 9.27579 23.8111 10.16 23.7598C10.2667 23.7598 10.3733 23.7598 10.48 23.7598C9.44206 23.9444 8.3754 23.9711 7.27998 23.8398C6.88427 23.8046 6.61761 23.618 6.47998 23.2798Z"
            fill="#FCE1BF" />
        <path fill-rule="evenodd" clip-rule="evenodd"
            d="M20.7199 10.1602C20.8799 10.1602 21.0399 10.1602 21.1999 10.1602C21.2197 14.6991 21.1932 19.2323 21.1199 23.7602C22.2537 23.9435 23.4004 23.9701 24.5599 23.8402C24.7065 23.7957 24.813 23.7157 24.8799 23.6002C25.0871 23.4421 25.3004 23.2821 25.5199 23.1202C25.5199 23.3334 25.5199 23.5469 25.5199 23.7602C25.0447 23.7995 24.8314 24.0661 24.8799 24.5602C25.0932 24.5602 25.3066 24.5602 25.5199 24.5602C25.5199 24.7734 25.5199 24.9869 25.5199 25.2002C24.7609 25.2738 24.1209 25.0338 23.5999 24.4802C23.393 24.4018 23.1796 24.375 22.9599 24.4002C22.9599 24.6134 22.9599 24.8269 22.9599 25.0402C22.362 24.9917 21.802 24.8317 21.2799 24.5602C20.9879 24.631 20.6946 24.6845 20.3999 24.7202C20.6903 19.8741 20.797 15.0208 20.7199 10.1602Z"
            fill="#F3FCF9" />
        <path fill-rule="evenodd" clip-rule="evenodd"
            d="M-0.0800781 29.52C10.5866 29.52 21.2532 29.52 31.9199 29.52C31.9199 30.32 31.9199 31.12 31.9199 31.92C21.2532 31.92 10.5866 31.92 -0.0800781 31.92C-0.0800781 31.12 -0.0800781 30.32 -0.0800781 29.52Z"
            fill="#C8E8ED" />
    </g>
    <defs>
        <clipPath id="clip0_5353_45">
            <rect width="32" height="32" fill="white" />
        </clipPath>
    </defs>
</svg>