<svg width="32" height="32" viewBox="0 0 32 32" fill="none" xmlns="http://www.w3.org/2000/svg">
    <path fill-rule="evenodd" clip-rule="evenodd"
        d="M16.3436 3.89478C16.299 4.18321 16.3558 4.44345 16.514 4.67548C20.511 9.18859 24.4299 13.7427 28.2706 18.3377C24.3952 23.1676 20.306 27.7217 16.0028 32C10.8024 26.6293 5.7476 21.0343 0.838513 15.2149C-0.473151 12.1633 -0.245959 9.30074 1.52006 6.62723C3.28253 4.47835 5.15677 2.46153 7.14279 0.576801C8.69214 -0.0263683 10.2824 -0.156472 11.9136 0.186451C13.4505 1.3664 14.9272 2.60252 16.3436 3.89478Z"
        fill="#77C8A7" />
    <path fill-rule="evenodd" clip-rule="evenodd"
        d="M20.0918 0.381575C21.7638 -0.144734 23.4676 -0.0796626 25.2034 0.57675C27.3048 2.98392 29.4062 5.39106 31.5076 7.79823C32.1009 9.77586 32.1578 11.7276 31.678 13.6535C30.441 12.0409 29.1348 10.4795 27.7592 8.96928C27.9295 6.04165 26.7368 4.67543 24.1811 4.8706C22.8626 3.29476 21.4995 1.79839 20.0918 0.381575Z"
        fill="#72BE9F" />
    <path fill-rule="evenodd" clip-rule="evenodd"
        d="M20.0918 0.381836C21.4996 1.79865 22.8626 3.29502 24.1811 4.87086C26.7369 4.67569 27.9296 6.04192 27.7592 8.96954C29.1349 10.4798 30.4411 12.0412 31.6781 13.6537C30.9253 15.5592 29.7893 17.1206 28.2703 18.338C24.4296 13.7429 20.5107 9.1888 16.5137 4.67569C16.3555 4.44367 16.2987 4.18342 16.3433 3.89499C17.309 3.1137 18.1041 2.13783 18.7287 0.967361C19.153 0.658438 19.6074 0.463263 20.0918 0.381836Z"
        fill="#63A88C" />
    <path fill-rule="evenodd" clip-rule="evenodd"
        d="M24.863 5.84672C26.7316 5.83927 27.2996 6.81514 26.5668 8.77435C24.2438 9.11028 23.6758 8.13441 24.863 5.84672Z"
        fill="#F3F9F6" />
    <path fill-rule="evenodd" clip-rule="evenodd"
        d="M6.1204 5.06543C8.09804 5.18644 8.83638 6.35749 8.33542 8.57858C7.19952 10.14 6.0636 10.14 4.9277 8.57858C4.47274 6.97498 4.87032 5.80393 6.1204 5.06543Z"
        fill="#56AF8C" />
    <path fill-rule="evenodd" clip-rule="evenodd"
        d="M5.77948 5.84643C7.99585 5.70501 8.56382 6.68089 7.48333 8.77406C5.18142 9.06909 4.61346 8.09321 5.77948 5.84643Z"
        fill="#F0F7F4" />
</svg>