<svg width="32" height="32" viewBox="0 0 32 32" fill="none" xmlns="http://www.w3.org/2000/svg">
    <g clip-path="url(#clip0_5465_80)">
        <path fill-rule="evenodd" clip-rule="evenodd"
            d="M-0.0800781 -0.0800781C10.5866 -0.0800781 21.2532 -0.0800781 31.9199 -0.0800781C31.9199 10.5866 31.9199 21.2532 31.9199 31.9199C21.2532 31.9199 10.5866 31.9199 -0.0800781 31.9199C-0.0800781 21.2532 -0.0800781 10.5866 -0.0800781 -0.0800781Z"
            fill="#CDF546" />
        <path fill-rule="evenodd" clip-rule="evenodd"
            d="M20.3999 9.03998C21.0613 8.88239 21.7548 8.82907 22.4799 8.87998C22.5332 8.87998 22.5866 8.87998 22.6399 8.87998C22.6889 9.34164 22.6356 9.76831 22.4799 10.16C22.4799 9.78665 22.4799 9.41331 22.4799 9.03998C21.7866 9.03998 21.0932 9.03998 20.3999 9.03998Z"
            fill="#3B641A" />
        <path fill-rule="evenodd" clip-rule="evenodd"
            d="M23.2798 9.03988C23.2798 8.98655 23.2798 8.93321 23.2798 8.87988C24.0798 8.87988 24.8798 8.87988 25.6798 8.87988C25.6798 9.19988 25.6798 9.51988 25.6798 9.83988C25.5276 9.61289 25.4743 9.34623 25.5198 9.03988C24.7731 9.03988 24.0265 9.03988 23.2798 9.03988Z"
            fill="#3C6318" />
        <path fill-rule="evenodd" clip-rule="evenodd"
            d="M26 8.87988C27.0133 8.87988 28.0267 8.87988 29.04 8.87988C29.089 9.34155 29.0357 9.76822 28.88 10.1599C28.88 9.78655 28.88 9.41321 28.88 9.03988C27.9733 9.03988 27.0667 9.03988 26.16 9.03988C26.16 9.41321 26.16 9.78655 26.16 10.1599C26.0043 9.76822 25.951 9.34155 26 8.87988Z"
            fill="#4D7327" />
        <path fill-rule="evenodd" clip-rule="evenodd"
            d="M8.3999 8.87988C8.50657 8.87988 8.61323 8.87988 8.7199 8.87988C8.7199 8.93321 8.7199 8.98655 8.7199 9.03988C8.74873 10.2679 8.80206 11.4945 8.8799 12.7199C8.7199 11.8666 8.5599 11.0132 8.3999 10.1599C8.3999 9.73321 8.3999 9.30655 8.3999 8.87988Z"
            fill="#83AB54" />
        <path fill-rule="evenodd" clip-rule="evenodd"
            d="M8.72021 9.03992C8.72021 8.98659 8.72021 8.93324 8.72021 8.87992C9.18188 8.83089 9.60855 8.88422 10.0002 9.03992C10.0002 9.83992 10.0002 10.6399 10.0002 11.4399C9.84226 10.6711 9.78893 9.87105 9.84021 9.03992C9.46689 9.03992 9.09354 9.03992 8.72021 9.03992Z"
            fill="#416711" />
        <path fill-rule="evenodd" clip-rule="evenodd"
            d="M18.3199 8.87989C18.7215 8.80845 19.0415 8.91512 19.2799 9.19989C19.6359 10.7776 19.6892 12.3776 19.4399 13.9999C19.2402 13.9135 19.0535 13.8068 18.8799 13.6799C18.8526 12.478 18.7726 11.3047 18.6399 10.1599C18.5332 10.1599 18.4266 10.1599 18.3199 10.1599C18.0305 11.484 17.8972 12.8706 17.9199 14.3199C17.4702 12.756 17.2834 11.156 17.3599 9.51989C17.6799 9.46656 17.9999 9.41322 18.3199 9.35989C18.3199 9.19989 18.3199 9.03989 18.3199 8.87989Z"
            fill="#022917" />
        <path fill-rule="evenodd" clip-rule="evenodd"
            d="M25.9998 20.4002C25.9998 21.0935 25.9998 21.7869 25.9998 22.4802C25.6851 22.5184 25.3916 22.4652 25.1198 22.3202C25.0912 21.7562 25.0112 21.2228 24.8798 20.7202C24.6131 20.7202 24.3465 20.7202 24.0798 20.7202C24.0798 20.9335 24.0798 21.1469 24.0798 21.3602C23.9241 21.7519 23.8708 22.1786 23.9198 22.6402C23.5465 22.6402 23.1731 22.6402 22.7998 22.6402C22.7998 22.0002 22.7998 21.3602 22.7998 20.7202C23.0344 20.5847 23.1678 20.3714 23.1998 20.0802C23.2264 20.722 23.3598 20.802 23.5998 20.3202C23.2513 19.5109 23.0913 18.6575 23.1198 17.7602C23.3561 14.9116 23.4627 12.0582 23.4398 9.2002C24.0798 9.2002 24.7198 9.2002 25.3598 9.2002C25.2891 9.5957 25.2358 9.9957 25.1998 10.4002C25.464 12.4481 25.5974 14.5015 25.5998 16.5602C25.5465 16.2935 25.4931 16.0269 25.4398 15.7602C25.4281 17.6842 25.4014 19.6042 25.3598 21.5202C25.4993 22.114 25.6593 22.0874 25.8398 21.4402C25.6718 20.8874 25.6451 20.3274 25.7598 19.7602C25.7934 20.0095 25.8734 20.2228 25.9998 20.4002Z"
            fill="#022916" />
        <path fill-rule="evenodd" clip-rule="evenodd"
            d="M16.7201 9.20004C16.7673 9.55771 16.7139 9.87771 16.5601 10.16C16.5601 10.1067 16.5601 10.0534 16.5601 10C16.5601 9.68004 16.5601 9.36004 16.5601 9.04004C16.2401 9.04004 15.9201 9.04004 15.6001 9.04004C15.2268 9.04004 14.8534 9.04004 14.4801 9.04004C14.4801 13.1467 14.4801 17.2533 14.4801 21.36C14.4801 21.7868 14.4801 22.2133 14.4801 22.64C14.4801 22.6933 14.4801 22.7468 14.4801 22.8C14.3204 18.5608 14.2671 14.2942 14.3201 10C14.3201 9.62672 14.3201 9.25337 14.3201 8.88004C15.1912 8.78272 15.9912 8.88937 16.7201 9.20004Z"
            fill="#749C40" />
        <path fill-rule="evenodd" clip-rule="evenodd"
            d="M15.6001 9.04004C15.9201 9.04004 16.2401 9.04004 16.5601 9.04004C16.5601 9.36004 16.5601 9.68004 16.5601 10C16.1302 9.97378 15.7035 10.0005 15.2801 10.08C15.4862 11.6715 15.4862 13.2715 15.2801 14.88C15.4393 15.3323 15.7593 15.5723 16.2401 15.6C16.2401 15.8134 16.2401 16.0268 16.2401 16.24C16.0336 16.2021 15.8736 16.2554 15.7601 16.4C15.7601 16.4533 15.7601 16.5068 15.7601 16.56C15.7068 16.56 15.6535 16.56 15.6001 16.56C15.4935 17.8149 15.3868 19.0949 15.2801 20.4C15.1864 20.4335 15.1064 20.4869 15.0401 20.56C15.0654 17.0364 14.9321 13.5697 14.6401 10.16C14.6401 9.84004 14.6401 9.52004 14.6401 9.20004C14.9978 9.24719 15.3178 9.19386 15.6001 9.04004Z"
            fill="#022818" />
        <path fill-rule="evenodd" clip-rule="evenodd"
            d="M19.2801 9.2002C19.6177 9.3526 19.8045 9.61927 19.8401 10.0002C19.8669 10.6935 19.8934 11.3869 19.9201 12.0802C19.9189 12.8357 19.8121 13.529 19.6001 14.1602C19.2801 14.1602 18.9601 14.1602 18.6401 14.1602C18.6401 12.8269 18.6401 11.4935 18.6401 10.1602C18.7728 11.305 18.8528 12.4784 18.8801 13.6802C19.0537 13.8071 19.2405 13.9138 19.4401 14.0002C19.6894 12.3779 19.6361 10.7779 19.2801 9.2002Z"
            fill="#143C06" />
        <path fill-rule="evenodd" clip-rule="evenodd"
            d="M22.6402 8.87988C22.74 9.25327 22.8733 9.62662 23.0402 9.99988C23.0699 9.59419 23.1499 9.22084 23.2802 8.87988C23.2802 8.93321 23.2802 8.98655 23.2802 9.03988C23.1698 12.4265 23.0098 15.7865 22.8002 19.1199C22.7559 16.3421 22.8091 13.5688 22.9602 10.7999C22.6402 10.7999 22.3202 10.7999 22.0002 10.7999C21.8589 12.2346 21.8056 13.6746 21.8402 15.1199C22.0467 15.0819 22.2067 15.1352 22.3202 15.2799C22.1069 15.2799 21.8935 15.2799 21.6802 15.2799C21.6802 13.5732 21.6802 11.8666 21.6802 10.1599C21.9469 10.1599 22.2135 10.1599 22.4802 10.1599C22.6359 9.76822 22.6891 9.34155 22.6402 8.87988Z"
            fill="#B9E057" />
        <path fill-rule="evenodd" clip-rule="evenodd"
            d="M6.16016 9.04004C6.1119 9.44953 6.16525 9.82286 6.32016 10.16C6.47882 10.1326 6.58549 10.1859 6.64016 10.32C6.64016 14.4267 6.64016 18.5333 6.64016 22.64C6.53349 18.6128 6.42683 14.5595 6.32016 10.48C6.1871 11.7567 6.1071 13.0367 6.08016 14.32C5.63211 14.4201 5.17878 14.5268 4.72016 14.64C4.81242 14.968 5.02574 15.128 5.36016 15.12C5.47867 15.6215 5.63867 16.1015 5.84016 16.56C5.36493 15.9489 4.91158 15.3089 4.48016 14.64C4.34702 13.1439 4.3737 11.6505 4.56016 10.16C4.71982 11.4891 4.77315 12.8225 4.72016 14.16C5.14683 14.16 5.57349 14.16 6.00016 14.16C6.02678 12.719 6.00013 11.279 5.92016 9.84004C5.81421 9.60262 5.68088 9.38929 5.52016 9.20004C5.75355 9.21082 5.9669 9.1575 6.16016 9.04004Z"
            fill="#B7E163" />
        <path fill-rule="evenodd" clip-rule="evenodd"
            d="M16.5598 10C16.5598 10.0533 16.5598 10.1067 16.5598 10.16C16.2931 10.16 16.0265 10.16 15.7598 10.16C15.7598 11.8133 15.7598 13.4667 15.7598 15.12C15.9306 15.2695 16.1439 15.3229 16.3998 15.28C16.3998 15.6533 16.3998 16.0267 16.3998 16.4C16.1865 16.4 15.9731 16.4 15.7598 16.4C15.8732 16.2554 16.0332 16.2021 16.2398 16.24C16.2398 16.0267 16.2398 15.8133 16.2398 15.6C15.759 15.5723 15.439 15.3323 15.2798 14.88C15.4858 13.2715 15.4858 11.6715 15.2798 10.08C15.7031 10.0004 16.1299 9.97375 16.5598 10Z"
            fill="#133B08" />
        <path fill-rule="evenodd" clip-rule="evenodd"
            d="M16.7198 9.2002C16.8623 9.29776 17.0223 9.35109 17.1998 9.3602C17.0201 11.1661 16.9934 12.9795 17.1198 14.8002C17.2246 15.1407 17.358 15.4607 17.5198 15.7602C17.3265 15.6427 17.1132 15.5894 16.8798 15.6002C16.8415 15.9149 16.8948 16.2084 17.0398 16.4802C16.8881 16.5575 16.7281 16.584 16.5598 16.5602C16.5598 16.0802 16.5598 15.6002 16.5598 15.1202C16.293 15.1202 16.0265 15.1202 15.7598 15.1202C15.7598 13.4669 15.7598 11.8135 15.7598 10.1602C16.0265 10.1602 16.293 10.1602 16.5598 10.1602C16.7135 9.87786 16.767 9.55786 16.7198 9.2002Z"
            fill="#C0E952" />
        <path fill-rule="evenodd" clip-rule="evenodd"
            d="M18.3202 10.1602C18.4269 10.1602 18.5335 10.1602 18.6402 10.1602C18.6402 11.4935 18.6402 12.8268 18.6402 14.1602C18.9602 14.1602 19.2802 14.1602 19.6002 14.1602C19.1748 14.2269 18.8015 14.3869 18.4802 14.6402C18.3212 13.1759 18.2679 11.6826 18.3202 10.1602Z"
            fill="#A6D471" />
        <path fill-rule="evenodd" clip-rule="evenodd"
            d="M28.4 10.3198C28.4 14.5332 28.4 18.7465 28.4 22.9598C27.8859 23.0094 27.4059 22.9561 26.96 22.7998C27.3332 22.7998 27.7067 22.7998 28.08 22.7998C28.1867 18.6398 28.2932 14.4798 28.4 10.3198Z"
            fill="#C5EF64" />
        <path fill-rule="evenodd" clip-rule="evenodd"
            d="M10.4798 8.87988C10.9065 8.87988 11.3332 8.87988 11.7598 8.87988C11.6532 11.4399 11.5465 13.9999 11.4398 16.5599C11.3096 17.2989 11.2563 18.0456 11.2798 18.7999C11.1198 18.7999 10.9598 18.7999 10.7998 18.7999C10.9553 18.656 11.0619 18.4693 11.1198 18.2399C11.0516 17.9224 10.9983 17.6024 10.9598 17.2799C11.2518 14.596 11.4652 11.9027 11.5998 9.19988C11.2798 9.19988 10.9598 9.19988 10.6398 9.19988C10.6665 11.8138 10.6398 14.4271 10.5598 17.0399C10.5227 17.2378 10.4427 17.3978 10.3198 17.5199C10.4065 14.6406 10.4598 11.7606 10.4798 8.87988Z"
            fill="#113A08" />
        <path fill-rule="evenodd" clip-rule="evenodd"
            d="M13.3601 8.87992C13.3601 8.93324 13.3601 8.98659 13.3601 9.03992C12.9868 9.03992 12.6134 9.03992 12.2401 9.03992C12.2401 13.5732 12.2401 18.1066 12.2401 22.6399C12.8268 22.6399 13.4134 22.6399 14.0001 22.6399C14.0001 22.2666 14.0001 21.8932 14.0001 21.5199C14.0534 21.5199 14.1068 21.5199 14.1601 21.5199C14.1601 21.9466 14.1601 22.3732 14.1601 22.7999C13.4349 22.8508 12.7416 22.7975 12.0801 22.6399C12.0801 18.1066 12.0801 13.5732 12.0801 9.03992C12.4717 8.88422 12.8984 8.83089 13.3601 8.87992Z"
            fill="#224C03" />
        <path fill-rule="evenodd" clip-rule="evenodd"
            d="M13.3599 8.87988C13.5195 13.0124 13.5728 17.1724 13.5199 21.3599C13.7332 21.3599 13.9465 21.3599 14.1599 21.3599C14.1599 21.4132 14.1599 21.4666 14.1599 21.5199C14.1065 21.5199 14.0532 21.5199 13.9999 21.5199C13.7865 21.5199 13.5732 21.5199 13.3599 21.5199C13.3599 17.3599 13.3599 13.1999 13.3599 9.03988C13.3599 8.98655 13.3599 8.93321 13.3599 8.87988Z"
            fill="#90C142" />
        <path fill-rule="evenodd" clip-rule="evenodd"
            d="M18.3198 8.87988C18.3198 9.03988 18.3198 9.19988 18.3198 9.35988C17.9998 9.41321 17.6798 9.46655 17.3598 9.51988C17.2833 11.156 17.47 12.756 17.9198 14.3199C17.8971 12.8706 18.0303 11.484 18.3198 10.1599C18.2675 11.6823 18.3207 13.1756 18.4798 14.6399C18.9563 15.3599 19.4095 16.1066 19.8398 16.8799C19.9465 18.5332 19.9465 20.1866 19.8398 21.8399C19.7953 21.9864 19.7153 22.093 19.5998 22.1599C19.6758 20.4271 19.5958 18.7204 19.3598 17.0399C18.9676 18.1733 18.8876 19.32 19.1198 20.4799C18.8811 20.7984 18.7211 21.1452 18.6398 21.5199C18.6663 20.0789 18.6398 18.6389 18.5598 17.1999C18.2879 16.6525 17.9414 16.1725 17.5198 15.7599C17.358 15.4604 17.2246 15.1404 17.1198 14.7999C16.9934 12.9792 17.0201 11.1658 17.1998 9.35988C17.3339 9.30521 17.3873 9.19854 17.3598 9.03988C17.6694 8.93596 17.9894 8.88263 18.3198 8.87988Z"
            fill="#0D3410" />
        <path fill-rule="evenodd" clip-rule="evenodd"
            d="M28.8802 10.16C28.6134 10.16 28.3469 10.16 28.0802 10.16C28.0802 14.32 28.0802 18.48 28.0802 22.64C27.7069 22.64 27.3334 22.64 26.9602 22.64C27.0131 18.4525 26.9598 14.2925 26.8002 10.16C26.5869 10.16 26.3734 10.16 26.1602 10.16C26.1602 9.78671 26.1602 9.41337 26.1602 9.04004C27.0669 9.04004 27.9734 9.04004 28.8802 9.04004C28.8802 9.41337 28.8802 9.78671 28.8802 10.16Z"
            fill="#032A0F" />
        <path fill-rule="evenodd" clip-rule="evenodd"
            d="M28.0799 10.1598C27.9732 13.867 27.8667 17.6004 27.7599 21.3598C27.6526 17.5894 27.5459 13.8293 27.4399 10.0798C27.6905 9.95737 27.9038 9.98404 28.0799 10.1598Z"
            fill="#03281C" />
        <path fill-rule="evenodd" clip-rule="evenodd"
            d="M28.0801 10.1602C28.3468 10.1602 28.6134 10.1602 28.8801 10.1602C28.7666 10.3048 28.6066 10.3581 28.4001 10.3202C28.2934 14.4802 28.1868 18.6402 28.0801 22.8002C28.0801 22.7469 28.0801 22.6934 28.0801 22.6402C28.0801 18.4802 28.0801 14.3202 28.0801 10.1602Z"
            fill="#83A833" />
        <path fill-rule="evenodd" clip-rule="evenodd"
            d="M22.4799 8.8799C21.7547 8.82899 21.0613 8.88232 20.3999 9.0399C20.3999 13.5732 20.3999 18.1066 20.3999 22.6399C21.0075 22.7972 21.6475 22.8506 22.3199 22.7999C21.6565 22.9834 20.9631 23.0101 20.2399 22.8799C20.12 22.6025 20.04 22.3092 19.9999 21.9999C19.9792 22.5788 19.6859 22.8455 19.1199 22.7999C19.1731 22.6932 19.2266 22.5866 19.2799 22.4799C19.4399 22.4266 19.5466 22.3199 19.5999 22.1599C19.7154 22.093 19.7954 21.9865 19.8399 21.8399C19.9466 20.1866 19.9466 18.5332 19.8399 16.8799C19.4096 16.1066 18.9563 15.36 18.4799 14.6399C18.8011 14.3867 19.1744 14.2267 19.5999 14.1599C19.8119 13.5287 19.9186 12.8354 19.9199 12.0799C19.8931 11.3866 19.8666 10.6932 19.8399 9.9999C19.8042 9.61898 19.6175 9.3523 19.2799 9.1999C19.0415 8.91514 18.7215 8.80846 18.3199 8.8799C17.9895 8.88266 17.6695 8.93598 17.3599 9.0399C17.4323 8.88656 17.5389 8.75323 17.6799 8.6399C18.157 8.56022 18.637 8.53357 19.1199 8.5599C19.1709 7.95194 19.3309 7.92526 19.5999 8.4799C20.6264 8.45934 21.5864 8.59267 22.4799 8.8799Z"
            fill="#C0E858" />
        <path fill-rule="evenodd" clip-rule="evenodd"
            d="M11.7599 8.87988C11.8666 8.93321 11.9733 8.98655 12.0799 9.03988C12.0799 13.5732 12.0799 18.1066 12.0799 22.6399C12.0266 22.6399 11.9733 22.6399 11.9199 22.6399C11.9466 19.3328 11.9199 16.0261 11.8399 12.7199C11.7746 14.0308 11.6413 15.3108 11.4399 16.5599C11.5466 13.9999 11.6533 11.4399 11.7599 8.87988Z"
            fill="#C0E863" />
        <path fill-rule="evenodd" clip-rule="evenodd"
            d="M8.39977 8.88009C8.39977 9.30676 8.39977 9.73342 8.39977 10.1601C8.23977 10.1601 8.07977 10.1601 7.91977 10.1601C7.91977 14.3201 7.91977 18.4801 7.91977 22.6401C7.86644 22.6401 7.8131 22.6401 7.75977 22.6401C7.75977 20.1868 7.75977 17.7334 7.75977 15.2801C7.59977 15.2801 7.43977 15.2801 7.27977 15.2801C7.24417 14.6928 7.19084 14.1061 7.11977 13.5201C7.1731 13.2534 7.22644 12.9868 7.27977 12.7201C7.41071 13.1372 7.49071 13.5639 7.51977 14.0001C7.55132 12.5693 7.63132 11.1293 7.75977 9.68009C7.91977 9.68009 8.07977 9.68009 8.23977 9.68009C8.23977 9.52009 8.23977 9.36009 8.23977 9.20009C7.59977 9.20009 6.95977 9.20009 6.31977 9.20009C6.31977 9.52009 6.31977 9.84009 6.31977 10.1601C6.16486 9.82291 6.11151 9.44958 6.15977 9.04009C6.87497 8.88231 7.62164 8.82897 8.39977 8.88009Z"
            fill="#062E0B" />
        <path fill-rule="evenodd" clip-rule="evenodd"
            d="M8.72021 9.04004C9.09354 9.04004 9.46689 9.04004 9.84021 9.04004C9.78893 9.87118 9.84226 10.6712 10.0002 11.44C9.89669 13.5271 10.0034 15.5538 10.3202 17.52C10.2341 17.7788 10.1808 18.0455 10.1602 18.32C9.77437 18.3781 9.53437 18.2181 9.44021 17.84C9.3618 18.1672 9.38845 18.4872 9.52021 18.8C9.41354 18.8 9.30689 18.8 9.20021 18.8C9.05071 16.8004 8.94404 14.7737 8.88021 12.72C8.80237 11.4947 8.74905 10.268 8.72021 9.04004Z"
            fill="#052D10" />
        <path fill-rule="evenodd" clip-rule="evenodd"
            d="M7.75982 22.6402C7.43982 22.6402 7.11982 22.6402 6.79982 22.6402C6.8528 18.506 6.79947 14.3993 6.63982 10.3202C6.58515 10.1861 6.47848 10.1327 6.31982 10.1602C6.31982 9.8402 6.31982 9.5202 6.31982 9.2002C6.95982 9.2002 7.59982 9.2002 8.23982 9.2002C8.23982 9.3602 8.23982 9.5202 8.23982 9.6802C8.07982 9.6802 7.91982 9.6802 7.75982 9.6802C7.63138 11.1294 7.55138 12.5694 7.51982 14.0002C7.49077 13.564 7.41077 13.1373 7.27982 12.7202C7.2265 12.9869 7.17315 13.2535 7.11982 13.5202C7.1909 14.1062 7.24422 14.6929 7.27982 15.2802C7.43982 15.2802 7.59982 15.2802 7.75982 15.2802C7.75982 17.7335 7.75982 20.1869 7.75982 22.6402Z"
            fill="#012816" />
        <path fill-rule="evenodd" clip-rule="evenodd"
            d="M10.4802 8.87988C10.4601 11.7606 10.4068 14.6406 10.3202 17.5199C10.0033 15.5536 9.89663 13.5269 10.0002 11.4399C10.0002 10.6399 10.0002 9.83988 10.0002 9.03988C10.1323 9.81052 10.2123 10.6105 10.2402 11.4399C10.2679 10.5574 10.3479 9.70403 10.4802 8.87988Z"
            fill="#AAD569" />
        <path fill-rule="evenodd" clip-rule="evenodd"
            d="M20.3999 9.04004C21.0932 9.04004 21.7866 9.04004 22.4799 9.04004C22.4799 9.41337 22.4799 9.78671 22.4799 10.16C22.2132 10.16 21.9466 10.16 21.6799 10.16C21.6799 11.8667 21.6799 13.5734 21.6799 15.28C21.8932 15.28 22.1066 15.28 22.3199 15.28C22.3199 15.7067 22.3199 16.1333 22.3199 16.56C22.1066 16.56 21.8932 16.56 21.6799 16.56C21.6799 18.16 21.6799 19.76 21.6799 21.36C21.8508 21.5095 22.0641 21.5629 22.3199 21.52C22.3199 21.8933 22.3199 22.2668 22.3199 22.64C21.6799 22.64 21.0399 22.64 20.3999 22.64C20.3999 18.1068 20.3999 13.5734 20.3999 9.04004Z"
            fill="#072E0F" />
        <path fill-rule="evenodd" clip-rule="evenodd"
            d="M20.72 9.35986C21.2533 9.35986 21.7867 9.35986 22.32 9.35986C22.32 9.51986 22.32 9.67986 22.32 9.83986C22.0601 9.86225 21.8736 9.75559 21.76 9.51986C21.543 9.6607 21.303 9.71402 21.04 9.67986C20.9168 11.5414 20.8368 13.408 20.8 15.2799C20.72 13.3073 20.6933 11.3339 20.72 9.35986Z"
            fill="#02261F" />
        <path fill-rule="evenodd" clip-rule="evenodd"
            d="M15.7598 15.1201C16.0265 15.1201 16.293 15.1201 16.5598 15.1201C16.5598 15.6001 16.5598 16.0801 16.5598 16.5601C16.293 16.5601 16.0265 16.5601 15.7598 16.5601C15.7598 16.5068 15.7598 16.4534 15.7598 16.4001C15.9731 16.4001 16.1865 16.4001 16.3998 16.4001C16.3998 16.0268 16.3998 15.6534 16.3998 15.2801C16.1439 15.323 15.9306 15.2696 15.7598 15.1201Z"
            fill="#86AB4C" />
        <path fill-rule="evenodd" clip-rule="evenodd"
            d="M8.39992 10.1602C8.13616 14.3647 7.97616 18.5781 7.91992 22.8002C7.91992 22.7469 7.91992 22.6934 7.91992 22.6402C7.91992 18.4802 7.91992 14.3202 7.91992 10.1602C8.07992 10.1602 8.23992 10.1602 8.39992 10.1602Z"
            fill="#9DC853" />
        <path fill-rule="evenodd" clip-rule="evenodd"
            d="M23.2798 9.04004C24.0265 9.04004 24.7731 9.04004 25.5198 9.04004C25.4744 9.34639 25.5276 9.61305 25.6798 9.84004C25.7776 12.9337 25.8843 16.0271 25.9998 19.12C25.9998 19.5468 25.9998 19.9733 25.9998 20.4C25.8734 20.2226 25.7934 20.0093 25.7598 19.76C25.6451 20.3272 25.6718 20.8872 25.8398 21.44C25.6593 22.0872 25.4993 22.1138 25.3598 21.52C25.4014 19.604 25.4281 17.684 25.4398 15.76C25.4931 16.0268 25.5465 16.2933 25.5998 16.56C25.5974 14.5013 25.464 12.448 25.1998 10.4C25.2358 9.99554 25.2891 9.59554 25.3598 9.20004C24.7198 9.20004 24.0798 9.20004 23.4398 9.20004C23.4627 12.0581 23.3561 14.9114 23.1198 17.76C23.0913 18.6573 23.2513 19.5108 23.5998 20.32C23.3598 20.8018 23.2264 20.7218 23.1998 20.08C23.1678 20.3712 23.0344 20.5845 22.7998 20.72C22.7998 20.1868 22.7998 19.6533 22.7998 19.12C23.0094 15.7867 23.1694 12.4267 23.2798 9.04004Z"
            fill="#062F0D" />
        <path fill-rule="evenodd" clip-rule="evenodd"
            d="M24.56 10.1602C24.56 10.2135 24.56 10.2668 24.56 10.3202C24.6843 11.8101 24.7376 13.3035 24.72 14.8002C24.46 15.3427 24.3 15.9294 24.24 16.5602C24.24 16.2934 24.24 16.0269 24.24 15.7602C24.2133 13.946 24.24 12.1327 24.32 10.3202C24.3813 10.2312 24.4613 10.1779 24.56 10.1602Z"
            fill="#9EC655" />
        <path fill-rule="evenodd" clip-rule="evenodd"
            d="M24.5601 10.3198C24.9503 11.7204 25.057 13.1604 24.8801 14.6398C24.9868 15.0665 25.0933 15.4932 25.2001 15.9198C25.1165 17.1197 25.0098 18.2929 24.8801 19.4398C24.9317 18.4494 24.8785 17.4894 24.7201 16.5598C24.7201 15.9732 24.7201 15.3865 24.7201 14.7998C24.7377 13.3031 24.6844 11.8098 24.5601 10.3198Z"
            fill="#052D07" />
        <path fill-rule="evenodd" clip-rule="evenodd"
            d="M24.56 10.1602C24.4613 10.1779 24.3813 10.2312 24.32 10.3202C24.24 12.1327 24.2133 13.9461 24.24 15.7602C24.1867 15.7602 24.1333 15.7602 24.08 15.7602C24.0336 14.0519 24.0069 12.3452 24 10.6402C24.072 10.3171 24.2053 10.0238 24.4 9.76017C24.5573 9.66564 24.664 9.71897 24.72 9.92017C24.7088 10.0425 24.6555 10.1225 24.56 10.1602Z"
            fill="#032B07" />
        <path fill-rule="evenodd" clip-rule="evenodd"
            d="M17.5198 15.76C17.7898 16.2526 18.0031 16.7859 18.1598 17.36C17.6798 17.36 17.1998 17.36 16.7198 17.36C16.7198 18.7467 16.7198 20.1333 16.7198 21.52C16.6665 21.52 16.613 21.52 16.5598 21.52C16.3327 21.3678 16.0662 21.3146 15.7598 21.36C15.7598 19.76 15.7598 18.16 15.7598 16.56C16.0265 16.56 16.293 16.56 16.5598 16.56C16.7281 16.5838 16.8881 16.5573 17.0398 16.48C16.8948 16.2082 16.8415 15.9147 16.8798 15.6C17.1132 15.5892 17.3265 15.6425 17.5198 15.76Z"
            fill="#CCF449" />
        <path fill-rule="evenodd" clip-rule="evenodd"
            d="M3.11996 17.52C3.54663 17.52 3.97328 17.52 4.39996 17.52C4.39996 18.8533 4.39996 20.1867 4.39996 21.52C4.24117 20.2695 4.18784 18.9895 4.23996 17.68C3.91996 17.68 3.59996 17.68 3.27996 17.68C3.12108 19.0375 3.06773 20.4242 3.11996 21.84C2.90663 20.4 2.90663 18.96 3.11996 17.52Z"
            fill="#4E7623" />
        <path fill-rule="evenodd" clip-rule="evenodd"
            d="M3.76012 16.0801C4.12743 16.3842 4.42076 16.7575 4.64012 17.2001C4.66679 17.9201 4.69345 18.6401 4.72012 19.3601C4.71895 20.1418 4.61229 20.8618 4.40012 21.5201C4.40012 20.1868 4.40012 18.8534 4.40012 17.5201C3.97345 17.5201 3.54679 17.5201 3.12012 17.5201C3.52455 17.4135 3.95122 17.307 4.40012 17.2001C4.14252 16.8441 3.92917 16.4706 3.76012 16.0801Z"
            fill="#A4D262" />
        <path fill-rule="evenodd" clip-rule="evenodd"
            d="M6.64014 10.3198C6.79978 14.399 6.85311 18.5056 6.80014 22.6398C7.12014 22.6398 7.44014 22.6398 7.76014 22.6398C7.81346 22.6398 7.86681 22.6398 7.92014 22.6398C7.92014 22.6931 7.92014 22.7465 7.92014 22.7998C7.45847 22.8488 7.0318 22.7955 6.64014 22.6398C6.64014 18.5331 6.64014 14.4265 6.64014 10.3198Z"
            fill="#1B4001" />
        <path fill-rule="evenodd" clip-rule="evenodd"
            d="M15.6 9.04004C15.3176 9.19386 14.9976 9.24719 14.64 9.20004C14.64 9.52004 14.64 9.84004 14.64 10.16C14.6929 13.921 14.6396 17.6543 14.48 21.36C14.48 17.2533 14.48 13.1467 14.48 9.04004C14.8533 9.04004 15.2267 9.04004 15.6 9.04004Z"
            fill="#073000" />
        <path fill-rule="evenodd" clip-rule="evenodd"
            d="M15.6001 16.5601C15.6534 16.5601 15.7068 16.5601 15.7601 16.5601C15.7601 18.1601 15.7601 19.7601 15.7601 21.3601C16.0665 21.3146 16.3331 21.3679 16.5601 21.5201C16.2401 21.5201 15.9201 21.5201 15.6001 21.5201C15.6001 19.8668 15.6001 18.2133 15.6001 16.5601Z"
            fill="#487117" />
        <path fill-rule="evenodd" clip-rule="evenodd"
            d="M17.5202 15.7598C17.9418 16.1724 18.2884 16.6524 18.5602 17.1998C18.6402 18.6388 18.6668 20.0788 18.6402 21.5198C18.3253 20.2505 18.2186 18.9172 18.3202 17.5198C17.8935 17.5198 17.4669 17.5198 17.0402 17.5198C17.0137 19.014 17.0402 20.5074 17.1202 21.9998C17.1647 22.1463 17.2447 22.2529 17.3602 22.3198C17.5202 22.533 17.6802 22.7465 17.8402 22.9598C17.5372 22.8721 17.2706 22.7121 17.0402 22.4798C16.9309 22.5378 16.8242 22.5911 16.7202 22.6398C16.7202 22.2665 16.7202 21.893 16.7202 21.5198C16.7202 20.133 16.7202 18.7465 16.7202 17.3598C17.2002 17.3598 17.6802 17.3598 18.1602 17.3598C18.0036 16.7857 17.7903 16.2524 17.5202 15.7598Z"
            fill="#AAD35E" />
        <path fill-rule="evenodd" clip-rule="evenodd"
            d="M18.6402 21.52C18.4889 21.7811 18.3289 22.0479 18.1602 22.32C18.5191 22.4759 18.8924 22.5293 19.2802 22.48C19.2269 22.5867 19.1735 22.6933 19.1202 22.8C18.7049 22.9224 18.2781 22.9759 17.8402 22.96C17.6802 22.7467 17.5202 22.5333 17.3602 22.32C17.2447 22.2531 17.1647 22.1466 17.1202 22C17.0402 20.5077 17.0137 19.0143 17.0402 17.52C17.4669 17.52 17.8935 17.52 18.3202 17.52C18.2186 18.9175 18.3253 20.2507 18.6402 21.52Z"
            fill="#143A09" />
        <path fill-rule="evenodd" clip-rule="evenodd"
            d="M11.9201 22.6402C11.9411 22.7804 11.8877 22.8871 11.7601 22.9602C11.5623 22.8409 11.349 22.7876 11.1201 22.8002C11.072 21.5065 11.1254 20.2265 11.2801 18.9602C11.2801 18.9069 11.2801 18.8535 11.2801 18.8002C11.2566 18.046 11.3099 17.2993 11.4401 16.5602C11.6415 15.3112 11.7748 14.0312 11.8401 12.7202C11.9201 16.0265 11.9468 19.3332 11.9201 22.6402Z"
            fill="#C6F049" />
        <path fill-rule="evenodd" clip-rule="evenodd"
            d="M24.7202 14.7998C24.7202 15.3865 24.7202 15.9731 24.7202 16.5598C24.7202 17.5198 24.7202 18.4798 24.7202 19.4398C24.5602 19.4398 24.4002 19.4398 24.2402 19.4398C24.2402 18.4798 24.2402 17.5198 24.2402 16.5598C24.3002 15.929 24.4602 15.3423 24.7202 14.7998Z"
            fill="#C6F25D" />
        <path fill-rule="evenodd" clip-rule="evenodd"
            d="M24.0801 15.7598C24.1334 15.7598 24.1868 15.7598 24.2401 15.7598C24.2401 16.0265 24.2401 16.293 24.2401 16.5598C24.2401 17.5198 24.2401 18.4798 24.2401 19.4398C24.4001 19.4398 24.5601 19.4398 24.7201 19.4398C24.7201 18.4798 24.7201 17.5198 24.7201 16.5598C24.8785 17.4894 24.9318 18.4494 24.8801 19.4398C24.653 19.5919 24.3865 19.6452 24.0801 19.5998C24.0801 18.3198 24.0801 17.0398 24.0801 15.7598Z"
            fill="#608A33" />
        <path fill-rule="evenodd" clip-rule="evenodd"
            d="M3.27996 17.6802C3.23919 19.2331 3.29252 20.7799 3.43996 22.3202C3.21495 22.2445 3.10828 22.0845 3.11996 21.8402C3.06774 20.4243 3.12108 19.0376 3.27996 17.6802Z"
            fill="#072E01" />
        <path fill-rule="evenodd" clip-rule="evenodd"
            d="M10.7999 18.8002C10.7999 20.0802 10.7999 21.3602 10.7999 22.6402C10.4266 22.6402 10.0532 22.6402 9.67989 22.6402C9.732 21.3308 9.67867 20.0508 9.51989 18.8002C9.38813 18.4874 9.36147 18.1674 9.43989 17.8402C9.53405 18.2183 9.77405 18.3783 10.1599 18.3202C10.1805 18.0456 10.2338 17.7789 10.3199 17.5202C10.4428 17.3981 10.5228 17.2381 10.5599 17.0402C10.6399 14.4274 10.6665 11.8141 10.6399 9.2002C10.9599 9.2002 11.2799 9.2002 11.5999 9.2002C11.4652 11.903 11.2519 14.5963 10.9599 17.2802C10.9983 17.6028 11.0517 17.9228 11.1199 18.2402C11.062 18.4696 10.9553 18.6564 10.7999 18.8002Z"
            fill="#022915" />
        <path fill-rule="evenodd" clip-rule="evenodd"
            d="M21.6798 16.5601C21.5208 18.2381 21.4673 19.9448 21.5198 21.6801C21.6798 21.6801 21.8398 21.6801 21.9998 21.6801C21.9998 21.9469 21.9998 22.2134 21.9998 22.4801C21.5083 22.5309 21.0283 22.4776 20.5598 22.3201C20.5177 20.4165 20.5712 18.4965 20.7198 16.5601C21.0616 15.506 21.3816 15.506 21.6798 16.5601Z"
            fill="#022916" />
        <path fill-rule="evenodd" clip-rule="evenodd"
            d="M26.7998 10.1602C26.9595 14.2926 27.0128 18.4526 26.9598 22.6402C27.3331 22.6402 27.7065 22.6402 28.0798 22.6402C28.0798 22.6934 28.0798 22.7469 28.0798 22.8002C27.7065 22.8002 27.3331 22.8002 26.9598 22.8002C26.8531 22.8002 26.7998 22.7469 26.7998 22.6402C26.7998 18.4802 26.7998 14.3202 26.7998 10.1602Z"
            fill="#345D16" />
        <path fill-rule="evenodd" clip-rule="evenodd"
            d="M25.6802 8.87988C25.7869 8.87988 25.8935 8.87988 26.0002 8.87988C25.9512 9.34155 26.0045 9.76822 26.1602 10.1599C26.3735 10.1599 26.5869 10.1599 26.8002 10.1599C26.8002 14.3199 26.8002 18.4799 26.8002 22.6399C26.5869 22.6932 26.3735 22.7466 26.1602 22.7999C26.2122 21.5436 26.1589 20.317 26.0002 19.1199C25.8847 16.0269 25.7779 12.9335 25.6802 9.83988C25.6802 9.51988 25.6802 9.19988 25.6802 8.87988Z"
            fill="#BDE654" />
        <path fill-rule="evenodd" clip-rule="evenodd"
            d="M25.9999 19.1201C26.1586 20.3172 26.2119 21.5438 26.1599 22.8001C25.7332 22.8001 25.3066 22.8001 24.8799 22.8001C24.8799 22.1068 24.8799 21.4134 24.8799 20.7201C25.0112 21.2227 25.0912 21.7561 25.1199 22.3201C25.3917 22.4651 25.6852 22.5184 25.9999 22.4801C25.9999 21.7868 25.9999 21.0934 25.9999 20.4001C25.9999 19.9734 25.9999 19.5468 25.9999 19.1201Z"
            fill="#173E06" />
        <path fill-rule="evenodd" clip-rule="evenodd"
            d="M26.3202 16.5601C26.5328 17.4337 26.6395 18.3669 26.6402 19.3601C26.5869 20.2933 26.5335 21.2268 26.4802 22.1601C26.3203 20.2964 26.2671 18.4298 26.3202 16.5601Z"
            fill="#C9F649" />
        <path fill-rule="evenodd" clip-rule="evenodd"
            d="M17.3598 22.3202C17.2124 20.7799 17.159 19.2331 17.1998 17.6802C17.4665 17.6802 17.7331 17.6802 17.9998 17.6802C18.0987 19.0834 17.9921 20.4434 17.6798 21.7602C17.9614 22.3023 17.8547 22.4888 17.3598 22.3202Z"
            fill="#022919" />
        <path fill-rule="evenodd" clip-rule="evenodd"
            d="M5.52012 9.20018C5.68084 9.38943 5.81417 9.60276 5.92012 9.84018C6.00009 11.2792 6.02675 12.7192 6.00012 14.1602C5.57345 14.1602 5.14679 14.1602 4.72012 14.1602C4.77311 12.8226 4.71979 11.4893 4.56012 10.1602C4.37366 11.6507 4.34699 13.144 4.48012 14.6402C4.91155 15.309 5.36489 15.949 5.84012 16.5602C6.01588 18.3147 6.04255 20.0747 5.92012 21.8402C5.46403 22.8271 4.74403 23.1203 3.76012 22.7202C3.61924 22.6069 3.51257 22.4735 3.44012 22.3202C3.29268 20.7799 3.23935 19.2331 3.28012 17.6802C3.60012 17.6802 3.92012 17.6802 4.24012 17.6802C4.18801 18.9896 4.24134 20.2696 4.40012 21.5202C4.6123 20.8619 4.71895 20.1419 4.72012 19.3602C4.69345 18.6402 4.66679 17.9202 4.64012 17.2002C4.42076 16.7576 4.12743 16.3843 3.76012 16.0802C3.61015 15.6371 3.4235 15.2104 3.20012 14.8002C3.09345 13.0402 3.09345 11.2802 3.20012 9.52018C3.88761 8.8008 4.66094 8.69413 5.52012 9.20018Z"
            fill="#092F14" />
        <path fill-rule="evenodd" clip-rule="evenodd"
            d="M14.64 10.1602C14.932 13.5698 15.0653 17.0365 15.04 20.5602C15.1062 20.487 15.1862 20.4336 15.28 20.4002C15.3867 19.095 15.4933 17.815 15.6 16.5602C15.6 18.2134 15.6 19.8669 15.6 21.5202C15.92 21.5202 16.24 21.5202 16.56 21.5202C16.56 21.8934 16.56 22.2669 16.56 22.6402C15.8667 22.6402 15.1733 22.6402 14.48 22.6402C14.48 22.2134 14.48 21.7869 14.48 21.3602C14.6396 17.6544 14.6929 13.9211 14.64 10.1602Z"
            fill="#022910" />
        <path fill-rule="evenodd" clip-rule="evenodd"
            d="M19.6002 22.16C19.5469 22.32 19.4402 22.4268 19.2802 22.48C18.8923 22.5293 18.519 22.4759 18.1602 22.32C18.3288 22.0479 18.4888 21.7812 18.6402 21.52C18.7214 21.1453 18.8814 20.7986 19.1202 20.48C18.888 19.3202 18.968 18.1735 19.3602 17.04C19.5962 18.7205 19.6762 20.4272 19.6002 22.16Z"
            fill="#032817" />
        <path fill-rule="evenodd" clip-rule="evenodd"
            d="M13.3602 9.04004C13.3602 13.2 13.3602 17.36 13.3602 21.52C13.5736 21.52 13.7869 21.52 14.0002 21.52C14.0002 21.8933 14.0002 22.2668 14.0002 22.64C13.4136 22.64 12.8269 22.64 12.2402 22.64C12.2402 18.1068 12.2402 13.5734 12.2402 9.04004C12.6136 9.04004 12.9869 9.04004 13.3602 9.04004Z"
            fill="#032A11" />
        <path fill-rule="evenodd" clip-rule="evenodd"
            d="M12.5599 9.35986C12.7732 9.35986 12.9866 9.35986 13.1999 9.35986C13.2266 13.3602 13.1999 17.3602 13.1199 21.3599C13.0666 21.3066 13.0132 21.2531 12.9599 21.1999C12.9285 21.4856 12.7952 21.6989 12.5599 21.8399C12.5066 21.4399 12.4532 21.0399 12.3999 20.6399C12.4362 19.8787 12.5962 19.1587 12.8799 18.4799C12.8509 18.0437 12.7709 17.617 12.6399 17.1999C12.5866 17.4131 12.5332 17.6266 12.4799 17.8399C12.3732 16.0266 12.3732 14.2132 12.4799 12.3999C12.5332 13.7865 12.5866 15.1732 12.6399 16.5599C12.6845 15.0641 12.7645 13.5708 12.8799 12.0799C12.6281 11.1898 12.5214 10.2831 12.5599 9.35986Z"
            fill="#01291A" />
        <path fill-rule="evenodd" clip-rule="evenodd"
            d="M22.8002 20.7202C22.8002 21.3602 22.8002 22.0002 22.8002 22.6402C23.1735 22.6402 23.5469 22.6402 23.9202 22.6402C23.8713 22.1786 23.9245 21.7519 24.0802 21.3602C24.0802 21.8402 24.0802 22.3202 24.0802 22.8002C23.6002 22.8002 23.1202 22.8002 22.6402 22.8002C22.5893 22.0751 22.6426 21.3817 22.8002 20.7202Z"
            fill="#4B701A" />
        <path fill-rule="evenodd" clip-rule="evenodd"
            d="M24.8801 20.7202C24.8801 21.4135 24.8801 22.1069 24.8801 22.8002C24.6134 22.8002 24.3468 22.8002 24.0801 22.8002C24.0801 22.3202 24.0801 21.8402 24.0801 21.3602C24.0801 21.1469 24.0801 20.9335 24.0801 20.7202C24.3468 20.7202 24.6134 20.7202 24.8801 20.7202Z"
            fill="#C7EF5C" />
        <path fill-rule="evenodd" clip-rule="evenodd"
            d="M16.56 21.52C16.6133 21.52 16.6667 21.52 16.72 21.52C16.72 21.8933 16.72 22.2667 16.72 22.64C16.72 22.7467 16.6667 22.8 16.56 22.8C15.8667 22.8 15.1733 22.8 14.48 22.8C14.48 22.7467 14.48 22.6933 14.48 22.64C15.1733 22.64 15.8667 22.64 16.56 22.64C16.56 22.2667 16.56 21.8933 16.56 21.52Z"
            fill="#376001" />
        <path fill-rule="evenodd" clip-rule="evenodd"
            d="M21.6799 21.3599C21.9466 21.3599 22.2132 21.3599 22.4799 21.3599C22.5295 21.8739 22.4762 22.3539 22.3199 22.7999C21.6476 22.8506 21.0076 22.7971 20.3999 22.6399C21.0399 22.6399 21.6799 22.6399 22.3199 22.6399C22.3199 22.2666 22.3199 21.8931 22.3199 21.5199C22.0641 21.5627 21.8508 21.5093 21.6799 21.3599Z"
            fill="#3E6710" />
        <path fill-rule="evenodd" clip-rule="evenodd"
            d="M14.3198 10C14.2668 14.2942 14.3201 18.5608 14.4798 22.8C15.1731 22.8 15.8665 22.8 16.5598 22.8C16.5598 22.96 16.5598 23.12 16.5598 23.28C13.9984 23.2533 11.4384 23.1733 8.8798 23.04C8.6885 22.9354 8.6885 22.8554 8.8798 22.8C8.98647 22.8533 9.09313 22.9067 9.1998 22.96C9.40812 21.5638 9.40812 20.1773 9.1998 18.8C9.30647 18.8 9.41313 18.8 9.5198 18.8C9.5198 20.1333 9.5198 21.4667 9.5198 22.8C9.94647 22.8 10.3731 22.8 10.7998 22.8C10.8551 21.485 11.0151 20.205 11.2798 18.96C11.125 20.2262 11.0717 21.5062 11.1198 22.8C11.3487 22.7874 11.562 22.8406 11.7598 22.96C11.8874 22.8869 11.9407 22.7802 11.9198 22.64C11.9731 22.64 12.0265 22.64 12.0798 22.64C12.7413 22.7976 13.4346 22.8509 14.1598 22.8C14.1598 22.3733 14.1598 21.9467 14.1598 21.52C14.1598 21.4667 14.1598 21.4133 14.1598 21.36C14.1069 17.5458 14.1602 13.7591 14.3198 10Z"
            fill="#C9F25D" />
        <path fill-rule="evenodd" clip-rule="evenodd"
            d="M9.52002 18.7998C9.6788 20.0504 9.73213 21.3304 9.68002 22.6398C10.0533 22.6398 10.4267 22.6398 10.8 22.6398C10.8 22.6931 10.8 22.7465 10.8 22.7998C10.3733 22.7998 9.94669 22.7998 9.52002 22.7998C9.52002 21.4665 9.52002 20.1331 9.52002 18.7998Z"
            fill="#416A1A" />
        <path fill-rule="evenodd" clip-rule="evenodd"
            d="M10.7998 18.7998C10.9598 18.7998 11.1198 18.7998 11.2798 18.7998C11.2798 18.8531 11.2798 18.9065 11.2798 18.9598C11.0151 20.2048 10.8551 21.4848 10.7998 22.7998C10.7998 22.7465 10.7998 22.6931 10.7998 22.6398C10.7998 21.3598 10.7998 20.0798 10.7998 18.7998Z"
            fill="#779D3B" />
    </g>
    <defs>
        <clipPath id="clip0_5465_80">
            <rect width="32" height="32" fill="white" />
        </clipPath>
    </defs>
</svg>