<svg width="32" height="32" viewBox="0 0 32 32" fill="none" xmlns="http://www.w3.org/2000/svg">
    <g clip-path="url(#clip0_5306_4324)">
        <path fill-rule="evenodd" clip-rule="evenodd"
            d="M-0.571289 -0.571289C10.0954 -0.571289 20.7621 -0.571289 31.4287 -0.571289C31.4287 10.0954 31.4287 20.7621 31.4287 31.4287C20.7621 31.4287 10.0954 31.4287 -0.571289 31.4287C-0.571289 20.7621 -0.571289 10.0954 -0.571289 -0.571289Z"
            fill="#1AACF1" />
        <path fill-rule="evenodd" clip-rule="evenodd"
            d="M14.2861 9.71444C17.0837 8.60236 20.1314 8.22142 23.429 8.57159C23.429 11.2383 23.429 13.905 23.429 16.5716C24.9986 16.3925 26.5225 16.583 28.0004 17.143C24.3058 23.7995 20.8772 23.7995 17.7147 17.143C18.7981 16.5912 19.941 16.4007 21.1433 16.5716C21.1433 14.6668 21.1433 12.7621 21.1433 10.8573C18.7195 11.057 16.4338 10.6761 14.2861 9.71444Z"
            fill="#F4FAFE" />
        <path fill-rule="evenodd" clip-rule="evenodd"
            d="M7.42885 8.57129C10.1969 9.2401 12.1017 10.9544 13.1431 13.7141C12.0597 14.2659 10.9168 14.4564 9.71457 14.2856C9.71457 16.1904 9.71457 18.0951 9.71457 19.9999C12.2866 19.6357 14.5723 20.2072 16.5717 21.7141C13.5477 22.2826 10.5001 22.4731 7.42885 22.2856C7.42885 19.6189 7.42885 16.9522 7.42885 14.2856C5.8592 14.4647 4.3354 14.2741 2.85742 13.7141C4.619 12.1471 6.1428 10.4328 7.42885 8.57129Z"
            fill="#F4FAFE" />
    </g>
    <defs>
        <clipPath id="clip0_5306_4324">
            <rect width="32" height="32" fill="white" />
        </clipPath>
    </defs>
</svg>