<svg width="32" height="32" viewBox="0 0 32 32" fill="none" xmlns="http://www.w3.org/2000/svg">
    <g clip-path="url(#clip0_5490_4662)">
        <path fill-rule="evenodd" clip-rule="evenodd"
            d="M-0.0712891 -0.0712891C10.5954 -0.0712891 21.262 -0.0712891 31.9287 -0.0712891C31.9287 10.5954 31.9287 21.262 31.9287 31.9287C21.262 31.9287 10.5954 31.9287 -0.0712891 31.9287C-0.0712891 21.262 -0.0712891 10.5954 -0.0712891 -0.0712891Z"
            fill="#FEFEFE" />
        <path fill-rule="evenodd" clip-rule="evenodd"
            d="M1.77787 10.0265C10.1217 10.0028 18.4654 10.0265 26.809 10.0976C27.3161 10.1971 27.7192 10.4579 28.0179 10.8798C29.2044 12.4956 30.3185 14.1548 31.3601 15.8576C31.3033 16.0989 31.2322 16.3359 31.1468 16.5687C30.0563 18.1331 28.9661 19.6976 27.8757 21.262C27.4814 21.5836 27.0311 21.7969 26.5245 21.902C18.323 21.9969 10.1216 21.9969 1.9201 21.902C1.61194 21.7836 1.39861 21.5702 1.2801 21.262C1.18528 17.7065 1.18528 14.1509 1.2801 10.5954C1.37819 10.3322 1.54412 10.1426 1.77787 10.0265Z"
            fill="#030303" />
        <path fill-rule="evenodd" clip-rule="evenodd"
            d="M4.19531 13.582C5.42791 13.582 6.66049 13.582 7.89309 13.582C7.89309 13.8191 7.89309 14.0561 7.89309 14.2931C7.41902 14.2931 6.94494 14.2931 6.47087 14.2931C6.32968 15.4523 6.28227 16.6374 6.32865 17.8487C6.0916 17.8487 5.85458 17.8487 5.61753 17.8487C5.61753 16.6636 5.61753 15.4783 5.61753 14.2931C5.17312 14.1538 4.69905 14.1064 4.19531 14.1509C4.19531 13.9613 4.19531 13.7717 4.19531 13.582Z"
            fill="#FBFBFB" />
        <path fill-rule="evenodd" clip-rule="evenodd"
            d="M4.19575 13.582C4.19575 13.7717 4.19575 13.9613 4.19575 14.1509C4.69948 14.1064 5.17355 14.1538 5.61797 14.2931C5.57057 14.2931 5.52315 14.2931 5.47575 14.2931C5.00168 14.2931 4.52759 14.2931 4.05352 14.2931C4.01306 14.0208 4.06048 13.7838 4.19575 13.582Z"
            fill="#B6B6B6" />
        <path fill-rule="evenodd" clip-rule="evenodd"
            d="M18.8446 13.2979C18.8446 14.8149 18.8446 16.3319 18.8446 17.849C19.0817 17.849 19.3187 17.849 19.5558 17.849C19.5558 16.3319 19.5558 14.8149 19.5558 13.2979C19.6506 13.7245 19.7453 14.1512 19.8402 14.5779C19.8402 14.6727 19.8402 14.7674 19.8402 14.8623C19.6991 15.8789 19.6518 16.9218 19.698 17.9912C19.3662 17.9912 19.0342 17.9912 18.7024 17.9912C18.6558 16.4013 18.7031 14.8368 18.8446 13.2979Z"
            fill="#696969" />
        <path fill-rule="evenodd" clip-rule="evenodd"
            d="M18.8442 13.2979C19.0813 13.2979 19.3183 13.2979 19.5553 13.2979C19.5553 14.8149 19.5553 16.3319 19.5553 17.849C19.3183 17.849 19.0813 17.849 18.8442 17.849C18.8442 16.3319 18.8442 14.8149 18.8442 13.2979Z"
            fill="#FDFDFD" />
        <path fill-rule="evenodd" clip-rule="evenodd"
            d="M10.5954 15.5737C10.5954 16.3321 10.5954 17.0907 10.5954 17.8492C10.3583 17.8492 10.1213 17.8492 9.88427 17.8492C9.89358 17.7869 9.86988 17.7394 9.81316 17.707C9.1137 18.1172 8.44999 18.0698 7.82205 17.5648C7.4185 16.7119 7.67923 16.1903 8.60427 16.0003C9.03094 16.0003 9.45761 16.0003 9.88427 16.0003C9.91802 15.8167 9.87062 15.6745 9.74205 15.5737C9.72631 15.4859 9.67891 15.4148 9.59983 15.3603C9.05698 15.2148 8.5592 15.2859 8.1065 15.5737C7.85223 15.3598 7.78112 15.1227 7.89316 14.8626C8.64125 14.5165 9.39977 14.4929 10.1687 14.7914C10.4684 14.9712 10.6106 15.2319 10.5954 15.5737Z"
            fill="#F0F0F0" />
        <path fill-rule="evenodd" clip-rule="evenodd"
            d="M12.0177 14.578C12.6168 14.518 13.1856 14.6127 13.7244 14.8624C14.012 14.6245 14.3439 14.5296 14.7199 14.578C14.7782 15.8224 14.7071 17.0549 14.5066 18.2758C14.1181 18.952 13.5255 19.2365 12.7288 19.1291C12.2728 19.1509 11.8462 19.056 11.4488 18.8447C11.2736 18.2371 11.4632 18.0713 12.0177 18.3469C12.4918 18.4418 12.9659 18.4418 13.4399 18.3469C13.7421 18.0999 13.8606 17.7917 13.7955 17.4224C12.0531 18.1408 11.1524 17.5719 11.0933 15.7158C11.2788 15.2236 11.587 14.8442 12.0177 14.578Z"
            fill="#EEEEEE" />
        <path fill-rule="evenodd" clip-rule="evenodd"
            d="M15.7157 14.5776C16.6425 14.398 17.4247 14.6351 18.0624 15.2887C18.1335 16.1883 18.1571 17.089 18.1335 17.9909C17.7667 18.0502 17.4585 17.9554 17.2091 17.7065C16.4695 18.1427 15.8058 18.0478 15.218 17.422C15.0789 16.9713 15.15 16.5683 15.4313 16.2132C16.0286 16.0187 16.6449 15.9476 17.2802 15.9998C17.309 15.731 17.2143 15.5177 16.9957 15.3598C16.4812 15.2224 16.0071 15.2936 15.5735 15.5732C15.1733 15.1654 15.2207 14.8336 15.7157 14.5776Z"
            fill="#EFEFEF" />
        <path fill-rule="evenodd" clip-rule="evenodd"
            d="M19.8399 14.578C20.1197 14.544 20.3805 14.5914 20.6221 14.7203C20.9174 15.4528 21.2493 16.164 21.6177 16.8536C21.9259 16.1425 22.2339 15.4314 22.5421 14.7203C22.8266 14.5307 23.111 14.5307 23.3955 14.7203C23.3063 14.8507 23.2588 14.9929 23.2532 15.1469C22.67 16.2995 22.1247 17.4848 21.6177 18.7025C21.0578 19.1388 20.4414 19.2337 19.7688 18.9869C19.6842 18.788 19.7079 18.5984 19.8399 18.418C20.2044 18.4253 20.5836 18.3778 20.9777 18.2758C21.039 18.163 21.0865 18.0444 21.1199 17.9203C20.6783 16.9027 20.2516 15.8833 19.8399 14.8625C19.8399 14.7676 19.8399 14.6729 19.8399 14.578Z"
            fill="#EDEDED" />
        <path fill-rule="evenodd" clip-rule="evenodd"
            d="M23.2536 15.1466C23.9103 14.6042 24.6688 14.4384 25.5291 14.6488C26.0236 14.8599 26.0236 15.1207 25.5291 15.4311C25.0657 15.3006 24.5917 15.2531 24.1069 15.2888C24.1069 15.4784 24.1069 15.6681 24.1069 15.8577C24.848 15.8492 25.488 16.0863 26.0269 16.5688C26.1892 17.2635 25.9285 17.7137 25.2447 17.92C24.4782 18.0809 23.7671 17.9623 23.1113 17.5644C23.258 17.3937 23.3766 17.204 23.4669 16.9955C23.9782 17.2737 24.5233 17.3448 25.1024 17.2088C25.292 17.0666 25.292 16.9244 25.1024 16.7822C24.5613 16.7062 24.0399 16.564 23.538 16.3555C23.2992 15.9907 23.2043 15.5878 23.2536 15.1466Z"
            fill="#EAEAEA" />
        <path fill-rule="evenodd" clip-rule="evenodd"
            d="M12.3024 15.2886C12.8736 15.2033 13.3714 15.3455 13.7958 15.7153C13.9558 16.5328 13.624 17.0068 12.8002 17.1375C11.8143 16.7341 11.6484 16.1177 12.3024 15.2886Z"
            fill="#0B0B0B" />
        <path fill-rule="evenodd" clip-rule="evenodd"
            d="M5.47559 14.293C5.52299 14.293 5.57041 14.293 5.61781 14.293C5.61781 15.4781 5.61781 16.6634 5.61781 17.8485C5.85485 17.8485 6.09188 17.8485 6.32892 17.8485C6.28254 16.6372 6.32996 15.4521 6.47114 14.293C6.47114 15.5256 6.47114 16.7581 6.47114 17.9907C6.13929 17.9907 5.80743 17.9907 5.47559 17.9907C5.47559 16.7581 5.47559 15.5256 5.47559 14.293Z"
            fill="#797979" />
        <path fill-rule="evenodd" clip-rule="evenodd"
            d="M9.74227 15.5732C9.87084 15.6741 9.91824 15.8163 9.88449 15.9999C9.45783 15.9999 9.03116 15.9999 8.60449 15.9999C9.02783 15.9427 9.40709 15.8005 9.74227 15.5732Z"
            fill="#545454" />
        <path fill-rule="evenodd" clip-rule="evenodd"
            d="M10.5954 15.5732C10.736 16.3519 10.7834 17.1579 10.7376 17.991C10.4197 18.033 10.1352 17.9855 9.88428 17.8488C10.1213 17.8488 10.3583 17.8488 10.5954 17.8488C10.5954 17.0903 10.5954 16.3317 10.5954 15.5732Z"
            fill="#7E7E7E" />
        <path fill-rule="evenodd" clip-rule="evenodd"
            d="M8.60469 16.5693C9.03135 16.5693 9.45802 16.5693 9.88469 16.5693C9.84491 17.0832 9.56046 17.3676 9.03135 17.4227C8.50696 17.3166 8.36474 17.0321 8.60469 16.5693Z"
            fill="#0F0F0F" />
        <path fill-rule="evenodd" clip-rule="evenodd"
            d="M15.9998 16.5693C16.4264 16.5693 16.8531 16.5693 17.2798 16.5693C17.3461 17.1426 17.0854 17.4271 16.4976 17.4227C15.9291 17.355 15.7633 17.0705 15.9998 16.5693Z"
            fill="#181818" />
    </g>
    <defs>
        <clipPath id="clip0_5490_4662">
            <rect width="32" height="32" fill="white" />
        </clipPath>
    </defs>
</svg>