<svg width="32" height="32" viewBox="0 0 32 32" fill="none" xmlns="http://www.w3.org/2000/svg">
    <path fill-rule="evenodd" clip-rule="evenodd"
        d="M0 0C4.52366 0 9.04735 0 13.571 0C13.4327 1.76242 13.7558 3.42908 14.5403 5C14.1887 5.68345 13.8656 6.35015 13.571 7C12.9248 7.66665 12.2785 8.33335 11.6323 9C11.6323 8.33335 11.3091 8 10.6629 8C10.6048 7.4569 10.2816 7.1236 9.69357 7C9.10551 7.1236 8.78237 7.4569 8.72421 8C8.07799 8 7.75485 8.33335 7.75485 9C7.2284 9.06 6.90531 9.39335 6.7855 10C6.90531 10.6066 7.2284 10.94 7.75485 11C7.75485 11.6666 8.07799 12 8.72421 12C7.99399 12.7377 7.18623 13.4044 6.30082 14C5.33146 15.3333 4.3621 15.3333 3.39275 14C2.52248 12.7261 1.71468 12.7261 0.969357 14C0.646238 14 0.323119 14 0 14C0 9.33335 0 4.66667 0 0Z"
        fill="#030207" />
    <path fill-rule="evenodd" clip-rule="evenodd"
        d="M17.4492 0C17.7724 0 18.0954 0 18.4186 0C18.4971 1.01365 18.4164 2.01365 18.1762 3C17.9908 3.27798 17.7485 3.44464 17.4492 3.5C17.4492 2.33334 17.4492 1.16666 17.4492 0Z"
        fill="#1B1963" />
    <path fill-rule="evenodd" clip-rule="evenodd"
        d="M7.27105 4.99941C6.46323 4.99941 5.65547 4.99941 4.84766 4.99941C5.07565 4.40267 5.56033 4.06934 6.30169 3.99941C7.5018 3.86571 7.82494 4.19904 7.27105 4.99941Z"
        fill="#373185" />
    <path fill-rule="evenodd" clip-rule="evenodd"
        d="M26.1731 5C25.5269 5 24.8806 5 24.2344 5C24.2925 4.45692 24.6157 4.12358 25.2037 4C25.7918 4.12358 26.1149 4.45692 26.1731 5Z"
        fill="#332F8D" />
    <path fill-rule="evenodd" clip-rule="evenodd"
        d="M4.84631 5C4.84631 5.66665 4.84631 6.33335 4.84631 7C4.31987 6.94 3.99675 6.60665 3.87695 6C3.99675 5.39335 4.31987 5.05999 4.84631 5Z"
        fill="#322F89" />
    <path fill-rule="evenodd" clip-rule="evenodd"
        d="M4.84766 5C5.65547 5 6.46323 5 7.27105 5C7.88397 6.4065 7.39929 7.4065 5.81701 8C5.22895 7.8764 4.90581 7.5431 4.84766 7C4.84766 6.33335 4.84766 5.66665 4.84766 5Z"
        fill="#3D3CF4" />
    <path fill-rule="evenodd" clip-rule="evenodd"
        d="M24.2344 5C24.8806 5 25.5269 5 26.1731 5C26.6996 5.05999 27.0227 5.39335 27.1425 6C26.6532 7.4185 25.6838 8.08515 24.2344 8C24.2344 7.33335 23.9113 7 23.2651 7C23.0987 6.0084 23.4218 5.3417 24.2344 5Z"
        fill="#3E3DF6" />
    <path fill-rule="evenodd" clip-rule="evenodd"
        d="M10.6633 8C10.0171 8 9.37083 8 8.72461 8C8.78277 7.4569 9.10591 7.1236 9.69397 7C10.282 7.1236 10.6052 7.4569 10.6633 8Z"
        fill="#352F8D" />
    <path fill-rule="evenodd" clip-rule="evenodd"
        d="M23.2655 6.99979C23.9117 6.99979 24.2348 7.33314 24.2348 7.99979C23.9117 7.99979 23.5886 7.99979 23.2655 7.99979C22.2961 7.99979 21.3268 7.99979 20.3574 7.99979C21.0446 7.09584 22.014 6.76249 23.2655 6.99979Z"
        fill="#181A56" />
    <path fill-rule="evenodd" clip-rule="evenodd"
        d="M13.5715 7C13.5715 8 13.5715 9 13.5715 10C12.9253 10.3334 12.279 10.6666 11.6328 11C11.6328 10.3334 11.6328 9.66665 11.6328 9C12.279 8.33335 12.9253 7.66665 13.5715 7Z"
        fill="#211B7B" />
    <path fill-rule="evenodd" clip-rule="evenodd"
        d="M7.75451 9C7.75451 9.66665 7.75451 10.3334 7.75451 11C7.22806 10.94 6.90497 10.6066 6.78516 10C6.90497 9.39335 7.22806 9.06 7.75451 9Z"
        fill="#31318D" />
    <path fill-rule="evenodd" clip-rule="evenodd"
        d="M8.72326 8C9.36948 8 10.0158 8 10.662 8C11.3082 8 11.6313 8.33335 11.6313 9C11.6313 9.66665 11.6313 10.3334 11.6313 11C11.6313 11.6666 11.3082 12 10.662 12C10.0158 12 9.36948 12 8.72326 12C8.07704 12 7.75391 11.6666 7.75391 11C7.75391 10.3334 7.75391 9.66665 7.75391 9C7.75391 8.33335 8.07704 8 8.72326 8Z"
        fill="#3D3DF7" />
    <path fill-rule="evenodd" clip-rule="evenodd"
        d="M23.2637 8.5C24.4986 9.3978 24.4986 10.2311 23.2637 11C23.2637 10.1666 23.2637 9.33335 23.2637 8.5Z"
        fill="#3F378F" />
    <path fill-rule="evenodd" clip-rule="evenodd"
        d="M13.5709 0C14.8634 0 16.1559 0 17.4483 0C17.4483 1.16666 17.4483 2.33334 17.4483 3.5C17.1621 3.82574 16.839 4.15907 16.479 4.5C17.4097 5.9194 18.2175 7.4194 18.9024 9C19.2733 8.44405 19.7579 8.1107 20.3564 8C21.3258 8 22.2951 8 23.2645 8C23.2645 8.16665 23.2645 8.33335 23.2645 8.5C23.2645 9.33335 23.2645 10.1666 23.2645 11C23.2645 11.6666 22.9414 12 22.2951 12C21.5551 11.9635 21.0704 12.2969 20.8411 13C20.4348 13.1708 20.2732 13.5042 20.3564 14C19.5439 14.3417 19.2207 15.0084 19.3871 16C18.5745 16.3417 18.2514 17.0084 18.4177 18C18.262 18.774 17.7773 19.1074 16.9637 19C15.8328 19 14.7018 19 13.5709 19C12.9247 19 12.6016 18.6666 12.6016 18C12.6016 16.6667 12.6016 15.3333 12.6016 14C14.3085 13.1873 15.924 12.1873 17.4483 11C16.0343 11.0675 14.7418 10.7341 13.5709 10C13.5709 9 13.5709 8 13.5709 7C13.8656 6.35015 14.1886 5.68345 14.5403 5C13.7557 3.42908 13.4326 1.76242 13.5709 0Z"
        fill="#3C3CF4" />
    <path fill-rule="evenodd" clip-rule="evenodd"
        d="M17.4492 10.9998C17.5168 10.0813 17.8399 9.9146 18.4186 10.4998C18.1971 10.8986 17.874 11.0653 17.4492 10.9998Z"
        fill="#040202" />
    <path fill-rule="evenodd" clip-rule="evenodd"
        d="M8.72417 12C9.37039 12 10.0167 12 10.6629 12C10.3398 12.6666 10.0167 13.3334 9.69353 14C8.56263 14 7.43168 14 6.30078 14C7.18619 13.4044 7.99396 12.7377 8.72417 12Z"
        fill="#201A73" />
    <path fill-rule="evenodd" clip-rule="evenodd"
        d="M20.8418 13C21.2481 13.1708 21.4097 13.5042 21.3265 14C21.0034 14 20.6803 14 20.3571 14C20.274 13.5042 20.4356 13.1708 20.8418 13Z"
        fill="#000405" />
    <path fill-rule="evenodd" clip-rule="evenodd"
        d="M22.2958 11.9998C22.9421 12.6664 23.5883 13.3331 24.2345 13.9998C23.2652 13.9998 22.2958 13.9998 21.3265 13.9998C21.4096 13.504 21.2481 13.1706 20.8418 12.9998C21.0711 12.2966 21.5558 11.9633 22.2958 11.9998Z"
        fill="#1E1975" />
    <path fill-rule="evenodd" clip-rule="evenodd"
        d="M31.0197 13.9999C29.8888 13.9999 28.7579 13.9999 27.627 13.9999C28.0206 13.2533 28.6668 12.92 29.5657 12.9999C30.307 13.0698 30.7917 13.4031 31.0197 13.9999Z"
        fill="#18195E" />
    <path fill-rule="evenodd" clip-rule="evenodd"
        d="M3.39214 14.0004C2.58434 14.0004 1.77655 14.0004 0.96875 14.0004C1.71407 12.7264 2.52187 12.7264 3.39214 14.0004Z"
        fill="#3A3588" />
    <path fill-rule="evenodd" clip-rule="evenodd"
        d="M20.3563 14C20.6794 14 21.0025 14 21.3256 14C22.295 14 23.2643 14 24.2337 14C24.8636 14.304 25.5099 14.6373 26.1724 15C26.7728 14.7788 27.2575 14.4455 27.6264 14C28.7573 14 29.8883 14 31.0192 14C31.0192 14.1666 31.0192 14.3334 31.0192 14.5C31.0192 15.6667 31.0192 16.8333 31.0192 18C30.6961 18 30.373 18 30.0498 18C29.0805 18 28.1111 18 27.1418 18C27.0836 17.4569 26.7605 17.1236 26.1724 17C25.5843 17.1236 25.2612 17.4569 25.2031 18C23.9106 18 22.6181 18 21.3256 18C20.4198 16.9324 20.0967 15.5991 20.3563 14Z"
        fill="#3D3EFA" />
    <path fill-rule="evenodd" clip-rule="evenodd"
        d="M0 14C0.323119 14 0.646238 14 0.969357 14C1.77716 14 2.58495 14 3.39275 14C4.3621 15.3333 5.33146 15.3333 6.30082 14C7.43172 14 8.56267 14 9.69357 14C10.2984 14.4169 10.6215 15.0836 10.6629 16C10.6215 16.9164 10.2984 17.5831 9.69357 18C8.72421 18 7.75485 18 6.7855 18C6.15556 17.696 5.50929 17.3627 4.84678 17C4.2587 17.1236 3.93558 17.4569 3.87743 18C2.90807 18 1.93871 18 0.969357 18C0.646238 18 0.323119 18 0 18C0 16.6667 0 15.3333 0 14Z"
        fill="#3B3DF7" />
    <path fill-rule="evenodd" clip-rule="evenodd"
        d="M31.0195 14.5C31.7432 14.906 32.0663 15.5727 31.9889 16.5C31.9211 17.2648 31.598 17.7648 31.0195 18C31.0195 16.8333 31.0195 15.6667 31.0195 14.5Z"
        fill="#1C1867" />
    <path fill-rule="evenodd" clip-rule="evenodd"
        d="M6.7855 18C7.43172 18.6666 8.07799 19.3334 8.72421 20C8.07799 20 7.75485 20.3334 7.75485 21C7.2284 21.06 6.90531 21.3934 6.7855 22C6.90531 22.6066 7.2284 22.94 7.75485 23C7.75485 23.3334 7.75485 23.6666 7.75485 24C8.07799 24 8.40107 24 8.72421 24C8.78237 24.5431 9.10551 24.8764 9.69357 25C10.2816 24.8764 10.6048 24.5431 10.6629 24C11.3091 24 11.6323 23.6666 11.6323 23C12.2785 24 12.9248 25 13.571 26C14.0975 26.06 14.4205 26.3934 14.5403 27C13.7558 28.5709 13.4327 30.2376 13.571 32C9.04735 32 4.52366 32 0 32C0 27.3334 0 22.6666 0 18C0.323119 18 0.646238 18 0.969357 18C1.19735 18.5968 1.68203 18.9301 2.42339 19C3.16475 18.9301 3.64943 18.5968 3.87743 18C3.93558 17.4569 4.2587 17.1236 4.84678 17C5.50929 17.3627 6.15556 17.696 6.7855 18Z"
        fill="#020106" />
    <path fill-rule="evenodd" clip-rule="evenodd"
        d="M0.96875 18C1.93811 18 2.90746 18 3.87682 18C3.64882 18.5968 3.16414 18.9301 2.42279 19C1.68143 18.9301 1.19675 18.5968 0.96875 18Z"
        fill="#171562" />
    <path fill-rule="evenodd" clip-rule="evenodd"
        d="M6.78516 18C7.75451 18 8.72387 18 9.69323 18C10.0164 18.6666 10.3394 19.3334 10.6626 20C10.0164 20 9.37009 20 8.72387 20C8.07765 19.3334 7.43138 18.6666 6.78516 18Z"
        fill="#211C75" />
    <path fill-rule="evenodd" clip-rule="evenodd"
        d="M27.1426 18C28.1119 18 29.0813 18 30.0506 18C29.8227 18.5968 29.338 18.9301 28.5966 19C27.8552 18.9301 27.3706 18.5968 27.1426 18Z"
        fill="#191466" />
    <path fill-rule="evenodd" clip-rule="evenodd"
        d="M21.3268 18C22.6193 18 23.9117 18 25.2042 18C24.2348 18.6666 23.2655 19.3334 22.2961 20C21.6499 20 21.0036 20 20.3574 20C20.6806 19.3334 21.0036 18.6666 21.3268 18Z"
        fill="#1D1B6D" />
    <path fill-rule="evenodd" clip-rule="evenodd"
        d="M13.5708 10C14.7417 10.7341 16.0342 11.0675 17.4482 11C15.9239 12.1873 14.3083 13.1873 12.6014 14C11.9966 14.4169 11.6735 15.0836 11.6321 16C11.6735 16.9164 11.9966 17.5831 12.6014 18C12.6014 18.6666 12.9246 19 13.5708 19C13.7988 19.5968 14.2835 19.9301 15.0248 20C15.9237 20.0799 16.5699 19.7466 16.9635 19C17.7772 19.1074 18.2619 18.774 18.4176 18C19.2301 17.6583 19.5533 16.9916 19.3869 16C19.2206 15.0084 19.5437 14.3417 20.3563 14C20.0967 15.5991 20.4198 16.9324 21.3256 18C21.0025 18.6666 20.6794 19.3334 20.3563 20C19.7101 20 19.3869 20.3334 19.3869 21C18.7677 21.1411 18.283 21.4744 17.9329 22C16.9805 21.6855 16.0112 21.3521 15.0248 21C14.2835 21.0699 13.7988 21.4032 13.5708 22C12.9246 21.6666 12.2783 21.3334 11.6321 21C11.6321 20.3334 11.3089 20 10.6627 20C10.3396 19.3334 10.0165 18.6666 9.69336 18C10.2982 17.5831 10.6213 16.9164 10.6627 16C10.6213 15.0836 10.2982 14.4169 9.69336 14C10.0165 13.3334 10.3396 12.6666 10.6627 12C11.3089 12 11.6321 11.6666 11.6321 11C12.2783 10.6666 12.9246 10.3334 13.5708 10Z"
        fill="#05040C" />
    <path fill-rule="evenodd" clip-rule="evenodd"
        d="M19.3868 16C19.5531 16.9916 19.23 17.6583 18.4174 18C18.2511 17.0084 18.5742 16.3417 19.3868 16Z"
        fill="#2F2D88" />
    <path fill-rule="evenodd" clip-rule="evenodd"
        d="M12.6022 14C12.6022 15.3333 12.6022 16.6667 12.6022 18C11.9973 17.5831 11.6742 16.9164 11.6328 16C11.6742 15.0836 11.9973 14.4169 12.6022 14Z"
        fill="#343489" />
    <path fill-rule="evenodd" clip-rule="evenodd"
        d="M13.5703 19C14.7012 19 15.8322 19 16.9631 19C16.5695 19.7466 15.9232 20.0799 15.0243 20C14.283 19.9301 13.7983 19.5968 13.5703 19Z"
        fill="#1A1A65" />
    <path fill-rule="evenodd" clip-rule="evenodd"
        d="M8.72326 20C9.36948 20 10.0158 20 10.662 20C11.3082 20 11.6313 20.3334 11.6313 21C11.6313 21.6666 11.6313 22.3334 11.6313 23C11.6313 23.6666 11.3082 24 10.662 24C10.0158 24 9.36948 24 8.72326 24C8.40013 24 8.07704 24 7.75391 24C7.75391 23.6666 7.75391 23.3334 7.75391 23C7.75391 22.3334 7.75391 21.6666 7.75391 21C7.75391 20.3334 8.07704 20 8.72326 20Z"
        fill="#3E3EF2" />
    <path fill-rule="evenodd" clip-rule="evenodd"
        d="M7.75451 21C7.75451 21.6666 7.75451 22.3334 7.75451 23C7.22806 22.94 6.90497 22.6066 6.78516 22C6.90497 21.3934 7.22806 21.06 7.75451 21Z"
        fill="#342F8C" />
    <path fill-rule="evenodd" clip-rule="evenodd"
        d="M23.2637 21C23.7901 21.06 24.1132 21.3934 24.233 22C24.1132 22.6066 23.7901 22.94 23.2637 23C23.2637 22.3334 23.2637 21.6666 23.2637 21Z"
        fill="#1D1977" />
    <path fill-rule="evenodd" clip-rule="evenodd"
        d="M11.6328 21C12.279 21.3334 12.9253 21.6666 13.5715 22C13.5715 23.3333 13.5715 24.6667 13.5715 26C12.9253 25 12.279 24 11.6328 23C11.6328 22.3334 11.6328 21.6666 11.6328 21Z"
        fill="#1D1A6D" />
    <path fill-rule="evenodd" clip-rule="evenodd"
        d="M17.9323 22C18.0938 22.3334 18.2554 22.6666 18.4169 23C18.2201 24.5443 17.5738 25.8777 16.4782 27C16.598 27.6066 16.9211 27.94 17.4476 28C17.4476 29.3333 17.4476 30.6667 17.4476 32C16.1551 32 14.8627 32 13.5702 32C13.4318 30.2376 13.755 28.5709 14.5395 27C14.4197 26.3934 14.0966 26.06 13.5702 26C13.5702 24.6667 13.5702 23.3333 13.5702 22C13.7982 21.4032 14.2828 21.0699 15.0242 21C16.0106 21.3521 16.9799 21.6855 17.9323 22Z"
        fill="#3D3DF8" />
    <path fill-rule="evenodd" clip-rule="evenodd"
        d="M19.3876 21C19.3876 21.6666 19.3876 22.3334 19.3876 23C19.0645 23 18.7414 23 18.4183 23C18.2567 22.6666 18.0951 22.3334 17.9336 22C18.2837 21.4744 18.7684 21.1411 19.3876 21Z"
        fill="#342E8A" />
    <path fill-rule="evenodd" clip-rule="evenodd"
        d="M20.3561 20C21.0023 20 21.6486 20 22.2948 20C22.941 20 23.2641 20.3334 23.2641 21C23.2641 21.6666 23.2641 22.3334 23.2641 23C23.2641 23.3334 23.2641 23.6666 23.2641 24C22.941 24 22.6179 24 22.2948 24C21.6486 24 21.0023 24 20.3561 24C19.7099 24 19.3867 23.6666 19.3867 23C19.3867 22.3334 19.3867 21.6666 19.3867 21C19.3867 20.3334 19.7099 20 20.3561 20Z"
        fill="#3D3DF7" />
    <path fill-rule="evenodd" clip-rule="evenodd"
        d="M8.72461 24C9.37083 24 10.0171 24 10.6633 24C10.6052 24.5431 10.282 24.8764 9.69397 25C9.10591 24.8764 8.78277 24.5431 8.72461 24Z"
        fill="#1D1977" />
    <path fill-rule="evenodd" clip-rule="evenodd"
        d="M20.3574 24C21.0036 24 21.6499 24 22.2961 24C22.238 24.5431 21.9148 24.8764 21.3268 25C20.7387 24.8764 20.4156 24.5431 20.3574 24Z"
        fill="#1F1873" />
    <path fill-rule="evenodd" clip-rule="evenodd"
        d="M4.84766 24C5.81701 24 6.78637 24 7.75573 24C7.89856 25.1177 7.73702 26.1177 7.27105 27C6.46323 27 5.65547 27 4.84766 27C4.84766 26 4.84766 25 4.84766 24Z"
        fill="#3938EB" />
    <path fill-rule="evenodd" clip-rule="evenodd"
        d="M23.2637 23.9998C25.0535 23.7219 26.346 24.3886 27.1411 25.9998C27.0213 26.6064 26.6982 26.9398 26.1717 26.9998C25.2024 26.9998 24.233 26.9998 23.2637 26.9998C23.2637 25.9998 23.2637 24.9998 23.2637 23.9998Z"
        fill="#3F3BED" />
    <path fill-rule="evenodd" clip-rule="evenodd"
        d="M4.84631 24C4.84631 25 4.84631 26 4.84631 27C4.26786 26.7648 3.94474 26.2648 3.87695 25.5C3.94474 24.7352 4.26786 24.2352 4.84631 24Z"
        fill="#161661" />
    <path fill-rule="evenodd" clip-rule="evenodd"
        d="M4.84766 27C5.65547 27 6.46323 27 7.27105 27C6.40076 28.2739 5.59299 28.2739 4.84766 27Z"
        fill="#201B71" />
    <path fill-rule="evenodd" clip-rule="evenodd"
        d="M23.2637 27C24.233 27 25.2024 27 26.1717 27C25.9437 27.5968 25.4591 27.9301 24.7177 28C23.9763 27.9301 23.4917 27.5968 23.2637 27Z"
        fill="#101360" />
    <path fill-rule="evenodd" clip-rule="evenodd"
        d="M17.4492 28C18.3551 29.0676 18.6782 30.4009 18.4186 32C18.0954 32 17.7724 32 17.4492 32C17.4492 30.6667 17.4492 29.3333 17.4492 28Z"
        fill="#15165B" />
</svg>