<svg width="32" height="32" viewBox="0 0 32 32" fill="none" xmlns="http://www.w3.org/2000/svg">
    <g clip-path="url(#clip0_5023_1400)">
        <path fill-rule="evenodd" clip-rule="evenodd"
            d="M-0.125 -0.125C0.875 -0.125 1.875 -0.125 2.875 -0.125C2.875 0.875 2.875 1.875 2.875 2.875C1.875 2.875 0.875 2.875 -0.125 2.875C-0.125 1.875 -0.125 0.875 -0.125 -0.125Z"
            fill="#180002" />
        <path fill-rule="evenodd" clip-rule="evenodd"
            d="M2.875 -0.125C3.79167 -0.125 4.70833 -0.125 5.625 -0.125C5.625 0.875 5.625 1.875 5.625 2.875C4.70833 2.875 3.79167 2.875 2.875 2.875C2.875 1.875 2.875 0.875 2.875 -0.125Z"
            fill="#2E0004" />
        <path fill-rule="evenodd" clip-rule="evenodd"
            d="M5.625 -0.125C6.625 -0.125 7.625 -0.125 8.625 -0.125C8.625 0.875 8.625 1.875 8.625 2.875C7.625 2.875 6.625 2.875 5.625 2.875C5.625 1.875 5.625 0.875 5.625 -0.125Z"
            fill="#450205" />
        <path fill-rule="evenodd" clip-rule="evenodd"
            d="M8.625 -0.125C9.625 -0.125 10.625 -0.125 11.625 -0.125C11.625 0.875 11.625 1.875 11.625 2.875C10.625 2.875 9.625 2.875 8.625 2.875C8.625 1.875 8.625 0.875 8.625 -0.125Z"
            fill="#5D0207" />
        <path fill-rule="evenodd" clip-rule="evenodd"
            d="M11.625 -0.125C12.5417 -0.125 13.4583 -0.125 14.375 -0.125C14.375 0.875 14.375 1.875 14.375 2.875C13.4583 2.875 12.5417 2.875 11.625 2.875C11.625 1.875 11.625 0.875 11.625 -0.125Z"
            fill="#720309" />
        <path fill-rule="evenodd" clip-rule="evenodd"
            d="M14.375 -0.125C15.375 -0.125 16.375 -0.125 17.375 -0.125C17.375 0.875 17.375 1.875 17.375 2.875C16.375 2.875 15.375 2.875 14.375 2.875C14.375 1.875 14.375 0.875 14.375 -0.125Z"
            fill="#A0040D" />
        <path fill-rule="evenodd" clip-rule="evenodd"
            d="M17.375 -0.125C18.2917 -0.125 19.2083 -0.125 20.125 -0.125C20.125 0.875 20.125 1.875 20.125 2.875C19.2083 2.875 18.2917 2.875 17.375 2.875C17.375 1.875 17.375 0.875 17.375 -0.125Z"
            fill="#720309" />
        <path fill-rule="evenodd" clip-rule="evenodd"
            d="M20.125 -0.125C21.125 -0.125 22.125 -0.125 23.125 -0.125C23.125 0.875 23.125 1.875 23.125 2.875C22.125 2.875 21.125 2.875 20.125 2.875C20.125 1.875 20.125 0.875 20.125 -0.125Z"
            fill="#5E0207" />
        <path fill-rule="evenodd" clip-rule="evenodd"
            d="M23.125 -0.125C24.125 -0.125 25.125 -0.125 26.125 -0.125C26.125 0.875 26.125 1.875 26.125 2.875C25.125 2.875 24.125 2.875 23.125 2.875C23.125 1.875 23.125 0.875 23.125 -0.125Z"
            fill="#450205" />
        <path fill-rule="evenodd" clip-rule="evenodd"
            d="M26.125 -0.125C27.0418 -0.125 27.9582 -0.125 28.875 -0.125C28.875 0.875 28.875 1.875 28.875 2.875C27.9582 2.875 27.0418 2.875 26.125 2.875C26.125 1.875 26.125 0.875 26.125 -0.125Z"
            fill="#2E0004" />
        <path fill-rule="evenodd" clip-rule="evenodd"
            d="M28.875 -0.125C29.875 -0.125 30.875 -0.125 31.875 -0.125C31.875 0.875 31.875 1.875 31.875 2.875C30.875 2.875 29.875 2.875 28.875 2.875C28.875 1.875 28.875 0.875 28.875 -0.125Z"
            fill="#190003" />
        <path fill-rule="evenodd" clip-rule="evenodd"
            d="M-0.125 2.875C0.875 2.875 1.875 2.875 2.875 2.875C2.875 3.79167 2.875 4.70833 2.875 5.625C1.875 5.625 0.875 5.625 -0.125 5.625C-0.125 4.70833 -0.125 3.79167 -0.125 2.875Z"
            fill="#2E0003" />
        <path fill-rule="evenodd" clip-rule="evenodd"
            d="M2.875 2.875C3.79167 2.875 4.70833 2.875 5.625 2.875C5.625 3.79167 5.625 4.70833 5.625 5.625C4.70833 5.625 3.79167 5.625 2.875 5.625C2.875 4.70833 2.875 3.79167 2.875 2.875Z"
            fill="#450204" />
        <path fill-rule="evenodd" clip-rule="evenodd"
            d="M8.625 2.875C9.625 2.875 10.625 2.875 11.625 2.875C11.625 3.79167 11.625 4.70833 11.625 5.625C10.625 5.625 9.625 5.625 8.625 5.625C8.625 4.70833 8.625 3.79167 8.625 2.875Z"
            fill="#730309" />
        <path fill-rule="evenodd" clip-rule="evenodd"
            d="M20.125 2.875C21.125 2.875 22.125 2.875 23.125 2.875C23.125 3.79167 23.125 4.70833 23.125 5.625C22.2083 5.625 21.2917 5.625 20.375 5.625C20.2917 5.625 20.2083 5.625 20.125 5.625C20.125 4.70833 20.125 3.79167 20.125 2.875Z"
            fill="#730309" />
        <path fill-rule="evenodd" clip-rule="evenodd"
            d="M26.125 2.875C27.0418 2.875 27.9582 2.875 28.875 2.875C28.875 3.79167 28.875 4.70833 28.875 5.625C27.9582 5.625 27.0418 5.625 26.125 5.625C26.125 4.70833 26.125 3.79167 26.125 2.875Z"
            fill="#450205" />
        <path fill-rule="evenodd" clip-rule="evenodd"
            d="M28.875 2.875C29.875 2.875 30.875 2.875 31.875 2.875C31.875 3.79167 31.875 4.70833 31.875 5.625C30.875 5.625 29.875 5.625 28.875 5.625C28.875 4.70833 28.875 3.79167 28.875 2.875Z"
            fill="#2E0003" />
        <path fill-rule="evenodd" clip-rule="evenodd"
            d="M5.625 2.875C6.625 2.875 7.625 2.875 8.625 2.875C8.625 3.79167 8.625 4.70833 8.625 5.625C7.625 5.625 6.625 5.625 5.625 5.625C5.625 4.70833 5.625 3.79167 5.625 2.875Z"
            fill="#5C0207" />
        <path fill-rule="evenodd" clip-rule="evenodd"
            d="M11.625 2.875C12.5417 2.875 13.4583 2.875 14.375 2.875C14.375 3.79167 14.375 4.70833 14.375 5.625C13.4583 5.625 12.5417 5.625 11.625 5.625C11.625 4.70833 11.625 3.79167 11.625 2.875Z"
            fill="#89030B" />
        <path fill-rule="evenodd" clip-rule="evenodd"
            d="M14.375 2.875C15.375 2.875 16.375 2.875 17.375 2.875C17.375 3.79167 17.375 4.70833 17.375 5.625C16.375 5.625 15.375 5.625 14.375 5.625C14.375 4.70833 14.375 3.79167 14.375 2.875Z"
            fill="#B5040E" />
        <path fill-rule="evenodd" clip-rule="evenodd"
            d="M23.125 2.875C24.125 2.875 25.125 2.875 26.125 2.875C26.125 3.79167 26.125 4.70833 26.125 5.625C25.125 5.625 24.125 5.625 23.125 5.625C23.125 4.70833 23.125 3.79167 23.125 2.875Z"
            fill="#5C0207" />
        <path fill-rule="evenodd" clip-rule="evenodd"
            d="M17.375 2.875C18.2917 2.875 19.2083 2.875 20.125 2.875C20.125 3.79167 20.125 4.70833 20.125 5.625C19.2083 5.625 18.2917 5.625 17.375 5.625C17.375 4.70833 17.375 3.79167 17.375 2.875Z"
            fill="#89030B" />
        <path fill-rule="evenodd" clip-rule="evenodd"
            d="M2.875 5.625C3.79167 5.625 4.70833 5.625 5.625 5.625C5.625 6.625 5.625 7.625 5.625 8.625C4.70833 8.625 3.79167 8.625 2.875 8.625C2.875 7.625 2.875 6.625 2.875 5.625Z"
            fill="#5C0207" />
        <path fill-rule="evenodd" clip-rule="evenodd"
            d="M11.625 5.625C12.5417 5.625 13.4583 5.625 14.375 5.625C14.375 6.625 14.375 7.625 14.375 8.625C13.4583 8.625 12.5417 8.625 11.625 8.625C11.625 7.625 11.625 6.625 11.625 5.625Z"
            fill="#9F040D" />
        <path fill-rule="evenodd" clip-rule="evenodd"
            d="M14.375 5.625C15.375 5.625 16.375 5.625 17.375 5.625C17.375 6.625 17.375 7.625 17.375 8.625C16.375 8.625 15.375 8.625 14.375 8.625C14.375 7.625 14.375 6.625 14.375 5.625Z"
            fill="#CC0510" />
        <path fill-rule="evenodd" clip-rule="evenodd"
            d="M26.125 5.625C27.0418 5.625 27.9582 5.625 28.875 5.625C28.875 6.625 28.875 7.625 28.875 8.625C27.9582 8.625 27.0418 8.625 26.125 8.625C26.125 7.625 26.125 6.625 26.125 5.625Z"
            fill="#5B0207" />
        <path fill-rule="evenodd" clip-rule="evenodd"
            d="M-0.125 5.625C0.875 5.625 1.875 5.625 2.875 5.625C2.875 6.625 2.875 7.625 2.875 8.625C1.875 8.625 0.875 8.625 -0.125 8.625C-0.125 7.625 -0.125 6.625 -0.125 5.625Z"
            fill="#450205" />
        <path fill-rule="evenodd" clip-rule="evenodd"
            d="M5.625 5.625C6.625 5.625 7.625 5.625 8.625 5.625C8.625 6.625 8.625 7.625 8.625 8.625C7.625 8.625 6.625 8.625 5.625 8.625C5.625 7.625 5.625 6.625 5.625 5.625Z"
            fill="#710309" />
        <path fill-rule="evenodd" clip-rule="evenodd"
            d="M8.625 5.625C9.625 5.625 10.625 5.625 11.625 5.625C11.625 6.625 11.625 7.625 11.625 8.625C10.625 8.625 9.625 8.625 8.625 8.625C8.625 7.625 8.625 6.625 8.625 5.625Z"
            fill="#8A030B" />
        <path fill-rule="evenodd" clip-rule="evenodd"
            d="M17.375 5.625C18.2917 5.625 19.2083 5.625 20.125 5.625C20.2083 5.625 20.2917 5.625 20.375 5.625C20.375 6.625 20.375 7.625 20.375 8.625C20.2917 8.625 20.2083 8.625 20.125 8.625C19.2083 8.625 18.2917 8.625 17.375 8.625C17.375 7.625 17.375 6.625 17.375 5.625Z"
            fill="#9E040D" />
        <path fill-rule="evenodd" clip-rule="evenodd"
            d="M20.375 5.625C21.2917 5.625 22.2083 5.625 23.125 5.625C23.125 6.625 23.125 7.625 23.125 8.625C22.2083 8.625 21.2917 8.625 20.375 8.625C20.375 7.625 20.375 6.625 20.375 5.625Z"
            fill="#88030B" />
        <path fill-rule="evenodd" clip-rule="evenodd"
            d="M23.125 5.625C24.125 5.625 25.125 5.625 26.125 5.625C26.125 6.625 26.125 7.625 26.125 8.625C25.125 8.625 24.125 8.625 23.125 8.625C23.125 7.625 23.125 6.625 23.125 5.625Z"
            fill="#710309" />
        <path fill-rule="evenodd" clip-rule="evenodd"
            d="M28.875 5.625C29.875 5.625 30.875 5.625 31.875 5.625C31.875 6.625 31.875 7.625 31.875 8.625C30.875 8.625 29.875 8.625 28.875 8.625C28.875 7.625 28.875 6.625 28.875 5.625Z"
            fill="#450205" />
        <path fill-rule="evenodd" clip-rule="evenodd"
            d="M-0.125 8.625C0.875 8.625 1.875 8.625 2.875 8.625C2.875 9.625 2.875 10.625 2.875 11.625C1.875 11.625 0.875 11.625 -0.125 11.625C-0.125 10.625 -0.125 9.625 -0.125 8.625Z"
            fill="#5D0207" />
        <path fill-rule="evenodd" clip-rule="evenodd"
            d="M2.875 8.625C3.79167 8.625 4.70833 8.625 5.625 8.625C5.625 9.625 5.625 10.625 5.625 11.625C4.70833 11.625 3.79167 11.625 2.875 11.625C2.875 10.625 2.875 9.625 2.875 8.625Z"
            fill="#730309" />
        <path fill-rule="evenodd" clip-rule="evenodd"
            d="M8.625 8.625C9.625 8.625 10.625 8.625 11.625 8.625C11.625 9.54167 11.625 10.4583 11.625 11.375C11.625 11.4583 11.625 11.5417 11.625 11.625C10.625 11.625 9.625 11.625 8.625 11.625C8.625 10.625 8.625 9.625 8.625 8.625Z"
            fill="#A1040D" />
        <path fill-rule="evenodd" clip-rule="evenodd"
            d="M11.625 8.625C12.5417 8.625 13.4583 8.625 14.375 8.625C14.375 9.54167 14.375 10.4583 14.375 11.375C14.375 11.4583 14.375 11.5417 14.375 11.625C13.484 11.3943 12.5673 11.311 11.625 11.375C11.625 10.4583 11.625 9.54167 11.625 8.625Z"
            fill="#B6040E" />
        <path fill-rule="evenodd" clip-rule="evenodd"
            d="M14.375 8.625C15.375 8.625 16.375 8.625 17.375 8.625C17.375 9.625 17.375 10.625 17.375 11.625C16.3665 11.6239 15.3665 11.5405 14.375 11.375C14.375 10.4583 14.375 9.54167 14.375 8.625Z"
            fill="#E10513" />
        <path fill-rule="evenodd" clip-rule="evenodd"
            d="M17.375 8.625C18.2917 8.625 19.2083 8.625 20.125 8.625C20.125 9.625 20.125 10.625 20.125 11.625C19.2083 11.625 18.2917 11.625 17.375 11.625C17.375 10.625 17.375 9.625 17.375 8.625Z"
            fill="#B7040E" />
        <path fill-rule="evenodd" clip-rule="evenodd"
            d="M20.125 8.625C20.2083 8.625 20.2917 8.625 20.375 8.625C21.2917 8.625 22.2083 8.625 23.125 8.625C23.125 9.625 23.125 10.625 23.125 11.625C22.2083 11.625 21.2917 11.625 20.375 11.625C20.2917 11.625 20.2083 11.625 20.125 11.625C20.125 10.625 20.125 9.625 20.125 8.625Z"
            fill="#A2040D" />
        <path fill-rule="evenodd" clip-rule="evenodd"
            d="M23.125 8.625C24.125 8.625 25.125 8.625 26.125 8.625C26.125 9.625 26.125 10.625 26.125 11.625C25.125 11.625 24.125 11.625 23.125 11.625C23.125 10.625 23.125 9.625 23.125 8.625Z"
            fill="#8A030B" />
        <path fill-rule="evenodd" clip-rule="evenodd"
            d="M26.125 8.625C27.0418 8.625 27.9582 8.625 28.875 8.625C28.875 9.625 28.875 10.625 28.875 11.625C27.9582 11.625 27.0418 11.625 26.125 11.625C26.125 10.625 26.125 9.625 26.125 8.625Z"
            fill="#730309" />
        <path fill-rule="evenodd" clip-rule="evenodd"
            d="M5.625 8.625C6.625 8.625 7.625 8.625 8.625 8.625C8.625 9.625 8.625 10.625 8.625 11.625C7.625 11.625 6.625 11.625 5.625 11.625C5.625 10.625 5.625 9.625 5.625 8.625Z"
            fill="#89030B" />
        <path fill-rule="evenodd" clip-rule="evenodd"
            d="M28.875 8.625C29.875 8.625 30.875 8.625 31.875 8.625C31.875 9.625 31.875 10.625 31.875 11.625C30.875 11.625 29.875 11.625 28.875 11.625C28.875 10.625 28.875 9.625 28.875 8.625Z"
            fill="#5D0207" />
        <path fill-rule="evenodd" clip-rule="evenodd"
            d="M-0.125 11.625C0.875 11.625 1.875 11.625 2.875 11.625C2.875 12.5417 2.875 13.4583 2.875 14.375C1.875 14.375 0.875 14.375 -0.125 14.375C-0.125 13.4583 -0.125 12.5417 -0.125 11.625Z"
            fill="#720309" />
        <path fill-rule="evenodd" clip-rule="evenodd"
            d="M2.875 11.625C3.79167 11.625 4.70833 11.625 5.625 11.625C5.625 12.5417 5.625 13.4583 5.625 14.375C4.70833 14.375 3.79167 14.375 2.875 14.375C2.875 13.4583 2.875 12.5417 2.875 11.625Z"
            fill="#88030B" />
        <path fill-rule="evenodd" clip-rule="evenodd"
            d="M5.625 11.625C6.625 11.625 7.625 11.625 8.625 11.625C8.625 12.5417 8.625 13.4583 8.625 14.375C7.625 14.375 6.625 14.375 5.625 14.375C5.625 13.4583 5.625 12.5417 5.625 11.625Z"
            fill="#9F040D" />
        <path fill-rule="evenodd" clip-rule="evenodd"
            d="M8.625 11.625C9.625 11.625 10.625 11.625 11.625 11.625C11.625 12.5417 11.625 13.4583 11.625 14.375C11.5417 14.375 11.4583 14.375 11.375 14.375C10.4583 14.375 9.54167 14.375 8.625 14.375C8.625 13.4583 8.625 12.5417 8.625 11.625Z"
            fill="#B7040E" />
        <path fill-rule="evenodd" clip-rule="evenodd"
            d="M20.375 11.625C21.2917 11.625 22.2083 11.625 23.125 11.625C23.125 12.5417 23.125 13.4583 23.125 14.375C22.2083 14.375 21.2917 14.375 20.375 14.375C20.375 13.4583 20.375 12.5417 20.375 11.625Z"
            fill="#B7040E" />
        <path fill-rule="evenodd" clip-rule="evenodd"
            d="M23.125 11.625C24.125 11.625 25.125 11.625 26.125 11.625C26.125 12.5417 26.125 13.4583 26.125 14.375C25.125 14.375 24.125 14.375 23.125 14.375C23.125 13.4583 23.125 12.5417 23.125 11.625Z"
            fill="#9F040D" />
        <path fill-rule="evenodd" clip-rule="evenodd"
            d="M28.875 11.625C29.875 11.625 30.875 11.625 31.875 11.625C31.875 12.5417 31.875 13.4583 31.875 14.375C30.875 14.375 29.875 14.375 28.875 14.375C28.875 13.4583 28.875 12.5417 28.875 11.625Z"
            fill="#720309" />
        <path fill-rule="evenodd" clip-rule="evenodd"
            d="M17.375 11.625C18.2917 11.625 19.2083 11.625 20.125 11.625C20.2083 11.625 20.2917 11.625 20.375 11.625C20.375 12.5417 20.375 13.4583 20.375 14.375C19.375 14.375 18.375 14.375 17.375 14.375C17.375 13.4583 17.375 12.5417 17.375 11.625Z"
            fill="#CC0510" />
        <path fill-rule="evenodd" clip-rule="evenodd"
            d="M11.625 11.3749C12.5673 11.3109 13.484 11.3942 14.375 11.6249C14.375 12.5415 14.375 13.4582 14.375 14.3749C13.4583 14.3749 12.5417 14.3749 11.625 14.3749C11.625 13.4582 11.625 12.5415 11.625 11.6249C11.625 11.5415 11.625 11.4582 11.625 11.3749Z"
            fill="#CC0510" />
        <path fill-rule="evenodd" clip-rule="evenodd"
            d="M26.125 11.625C27.0418 11.625 27.9582 11.625 28.875 11.625C28.875 12.5417 28.875 13.4583 28.875 14.375C27.9582 14.375 27.0418 14.375 26.125 14.375C26.125 13.4583 26.125 12.5417 26.125 11.625Z"
            fill="#88030B" />
        <path fill-rule="evenodd" clip-rule="evenodd"
            d="M14.375 11.375C15.3665 11.5405 16.3665 11.6239 17.375 11.625C17.375 12.5417 17.375 13.4583 17.375 14.375C16.375 14.375 15.375 14.375 14.375 14.375C14.375 13.4583 14.375 12.5417 14.375 11.625C14.375 11.5417 14.375 11.4583 14.375 11.375Z"
            fill="#ED0614" />
        <path fill-rule="evenodd" clip-rule="evenodd"
            d="M-0.125 14.375C0.875 14.375 1.875 14.375 2.875 14.375C2.875 15.375 2.875 16.375 2.875 17.375C1.875 17.375 0.875 17.375 -0.125 17.375C-0.125 16.375 -0.125 15.375 -0.125 14.375Z"
            fill="#9F050D" />
        <path fill-rule="evenodd" clip-rule="evenodd"
            d="M2.875 14.375C3.79167 14.375 4.70833 14.375 5.625 14.375C5.625 15.375 5.625 16.375 5.625 17.375C4.70833 17.375 3.79167 17.375 2.875 17.375C2.875 16.375 2.875 15.375 2.875 14.375Z"
            fill="#B7040F" />
        <path fill-rule="evenodd" clip-rule="evenodd"
            d="M8.625 14.375C9.54167 14.375 10.4583 14.375 11.375 14.375C11.375 15.375 11.375 16.375 11.375 17.375C10.4583 17.375 9.54167 17.375 8.625 17.375C8.625 16.375 8.625 15.375 8.625 14.375Z"
            fill="#E10512" />
        <path fill-rule="evenodd" clip-rule="evenodd"
            d="M14.375 14.375C15.375 14.375 16.375 14.375 17.375 14.375C17.4911 15.3756 17.3244 16.2923 16.875 17.125C16.5484 17.2198 16.2151 17.3031 15.875 17.375C15.6873 17.156 15.5623 16.906 15.5 16.625C15.0963 16.8466 14.7213 17.0965 14.375 17.375C14.375 16.375 14.375 15.375 14.375 14.375Z"
            fill="#F10613" />
        <path fill-rule="evenodd" clip-rule="evenodd"
            d="M20.375 14.375C21.2917 14.375 22.2083 14.375 23.125 14.375C23.125 15.375 23.125 16.375 23.125 17.375C22.125 17.375 21.125 17.375 20.125 17.375C20.3257 16.3474 20.4091 15.3474 20.375 14.375Z"
            fill="#E20413" />
        <path fill-rule="evenodd" clip-rule="evenodd"
            d="M23.125 14.375C24.125 14.375 25.125 14.375 26.125 14.375C26.125 15.375 26.125 16.375 26.125 17.375C25.125 17.375 24.125 17.375 23.125 17.375C23.125 16.375 23.125 15.375 23.125 14.375Z"
            fill="#CE0511" />
        <path fill-rule="evenodd" clip-rule="evenodd"
            d="M26.125 14.375C27.0418 14.375 27.9582 14.375 28.875 14.375C28.875 15.375 28.875 16.375 28.875 17.375C27.9582 17.375 27.0418 17.375 26.125 17.375C26.125 16.375 26.125 15.375 26.125 14.375Z"
            fill="#B7040E" />
        <path fill-rule="evenodd" clip-rule="evenodd"
            d="M28.875 14.375C29.875 14.375 30.875 14.375 31.875 14.375C31.875 15.375 31.875 16.375 31.875 17.375C30.875 17.375 29.875 17.375 28.875 17.375C28.875 16.375 28.875 15.375 28.875 14.375Z"
            fill="#9F040D" />
        <path fill-rule="evenodd" clip-rule="evenodd"
            d="M11.375 14.375C11.4583 14.375 11.5417 14.375 11.625 14.375C12.5417 14.375 13.4583 14.375 14.375 14.375C14.375 15.375 14.375 16.375 14.375 17.375C13.375 17.375 12.375 17.375 11.375 17.375C11.375 16.375 11.375 15.375 11.375 14.375Z"
            fill="#ED0614" />
        <path fill-rule="evenodd" clip-rule="evenodd"
            d="M17.375 14.375C18.375 14.375 19.375 14.375 20.375 14.375C20.4091 15.3474 20.3257 16.3474 20.125 17.375C19.7917 17.375 19.4583 17.375 19.125 17.375C18.625 17.375 18.125 17.375 17.625 17.375C17.5417 17.375 17.4583 17.375 17.375 17.375C17.2896 17.1655 17.1229 17.0821 16.875 17.125C17.3244 16.2923 17.4911 15.3756 17.375 14.375Z"
            fill="#ED0715" />
        <path fill-rule="evenodd" clip-rule="evenodd"
            d="M5.625 14.375C6.625 14.375 7.625 14.375 8.625 14.375C8.625 15.375 8.625 16.375 8.625 17.375C7.625 17.375 6.625 17.375 5.625 17.375C5.625 16.375 5.625 15.375 5.625 14.375Z"
            fill="#CD0411" />
        <path fill-rule="evenodd" clip-rule="evenodd"
            d="M16.875 17.125C17.1229 17.0821 17.2896 17.1655 17.375 17.375C17.375 18.2917 17.375 19.2083 17.375 20.125C16.375 20.2083 15.375 20.2917 14.375 20.375C14.375 19.375 14.375 18.375 14.375 17.375C14.7213 17.0965 15.0963 16.8466 15.5 16.625C15.5623 16.906 15.6873 17.156 15.875 17.375C16.2151 17.3031 16.5484 17.2198 16.875 17.125Z"
            fill="#EE0714" />
        <path fill-rule="evenodd" clip-rule="evenodd"
            d="M11.375 17.375C12.375 17.375 13.375 17.375 14.375 17.375C14.375 18.375 14.375 19.375 14.375 20.375C13.4583 20.375 12.5417 20.375 11.625 20.375C11.625 20.2917 11.625 20.2083 11.625 20.125C11.5417 20.125 11.4583 20.125 11.375 20.125C11.375 19.2083 11.375 18.2917 11.375 17.375Z"
            fill="#C8050F" />
        <path fill-rule="evenodd" clip-rule="evenodd"
            d="M-0.125 17.375C0.875 17.375 1.875 17.375 2.875 17.375C2.875 18.2917 2.875 19.2083 2.875 20.125C1.875 20.125 0.875 20.125 -0.125 20.125C-0.125 19.2083 -0.125 18.2917 -0.125 17.375Z"
            fill="#720309" />
        <path fill-rule="evenodd" clip-rule="evenodd"
            d="M2.875 17.375C3.79167 17.375 4.70833 17.375 5.625 17.375C5.625 18.2917 5.625 19.2083 5.625 20.125C4.70833 20.125 3.79167 20.125 2.875 20.125C2.875 19.2083 2.875 18.2917 2.875 17.375Z"
            fill="#89030B" />
        <path fill-rule="evenodd" clip-rule="evenodd"
            d="M5.625 17.375C6.625 17.375 7.625 17.375 8.625 17.375C8.625 18.2917 8.625 19.2083 8.625 20.125C7.625 20.125 6.625 20.125 5.625 20.125C5.625 19.2083 5.625 18.2917 5.625 17.375Z"
            fill="#9F040D" />
        <path fill-rule="evenodd" clip-rule="evenodd"
            d="M8.625 17.375C9.54167 17.375 10.4583 17.375 11.375 17.375C11.375 18.2917 11.375 19.2083 11.375 20.125C10.4583 20.125 9.54167 20.125 8.625 20.125C8.625 19.2083 8.625 18.2917 8.625 17.375Z"
            fill="#B7040E" />
        <path fill-rule="evenodd" clip-rule="evenodd"
            d="M11.625 20.125C11.625 19.2917 11.625 18.4583 11.625 17.625C11.9904 17.8468 12.4488 18.0969 13 18.375C13.25 18.0417 13.5 18.0417 13.75 18.375C13.8333 18.2083 13.9167 18.0417 14 17.875C13.7967 18.625 13.8383 19.375 14.125 20.125C13.2917 20.125 12.4583 20.125 11.625 20.125Z"
            fill="#D00510" />
        <path fill-rule="evenodd" clip-rule="evenodd"
            d="M23.125 17.375C24.125 17.375 25.125 17.375 26.125 17.375C26.125 18.2917 26.125 19.2083 26.125 20.125C25.125 20.125 24.125 20.125 23.125 20.125C23.125 19.2083 23.125 18.2917 23.125 17.375Z"
            fill="#A0040D" />
        <path fill-rule="evenodd" clip-rule="evenodd"
            d="M28.875 17.375C29.875 17.375 30.875 17.375 31.875 17.375C31.875 18.2917 31.875 19.2083 31.875 20.125C30.875 20.125 29.875 20.125 28.875 20.125C28.875 19.2083 28.875 18.2917 28.875 17.375Z"
            fill="#730309" />
        <path fill-rule="evenodd" clip-rule="evenodd"
            d="M-0.125 20.125C0.875 20.125 1.875 20.125 2.875 20.125C2.875 21.125 2.875 22.125 2.875 23.125C1.875 23.125 0.875 23.125 -0.125 23.125C-0.125 22.125 -0.125 21.125 -0.125 20.125Z"
            fill="#5D0207" />
        <path fill-rule="evenodd" clip-rule="evenodd"
            d="M2.875 20.125C3.79167 20.125 4.70833 20.125 5.625 20.125C5.625 21.125 5.625 22.125 5.625 23.125C4.70833 23.125 3.79167 23.125 2.875 23.125C2.875 22.125 2.875 21.125 2.875 20.125Z"
            fill="#740309" />
        <path fill-rule="evenodd" clip-rule="evenodd"
            d="M5.625 20.125C6.625 20.125 7.625 20.125 8.625 20.125C8.625 21.125 8.625 22.125 8.625 23.125C7.625 23.125 6.625 23.125 5.625 23.125C5.625 22.125 5.625 21.125 5.625 20.125Z"
            fill="#8A030B" />
        <path fill-rule="evenodd" clip-rule="evenodd"
            d="M8.625 20.125C9.54167 20.125 10.4583 20.125 11.375 20.125C11.4583 20.125 11.5417 20.125 11.625 20.125C11.625 20.2083 11.625 20.2917 11.625 20.375C11.625 21.2917 11.625 22.2083 11.625 23.125C10.625 23.125 9.625 23.125 8.625 23.125C8.625 22.125 8.625 21.125 8.625 20.125Z"
            fill="#A2040D" />
        <path fill-rule="evenodd" clip-rule="evenodd"
            d="M11.625 20.375C12.5417 20.375 13.4583 20.375 14.375 20.375C14.375 21.2917 14.375 22.2083 14.375 23.125C13.4583 23.125 12.5417 23.125 11.625 23.125C11.625 22.2083 11.625 21.2917 11.625 20.375Z"
            fill="#B8040E" />
        <path fill-rule="evenodd" clip-rule="evenodd"
            d="M17.375 17.375C17.4583 17.375 17.5417 17.375 17.625 17.375C17.625 18.2917 17.625 19.2083 17.625 20.125C18.4583 20.125 19.2917 20.125 20.125 20.125C20.125 19.2917 20.125 18.4583 20.125 17.625C19.7253 17.692 19.3919 17.6086 19.125 17.375C19.4583 17.375 19.7917 17.375 20.125 17.375C21.125 17.375 22.125 17.375 23.125 17.375C23.125 18.2917 23.125 19.2083 23.125 20.125C22.2046 20.0837 21.2879 20.1253 20.375 20.25C20.135 21.1825 20.0516 22.1408 20.125 23.125C19.2083 23.125 18.2917 23.125 17.375 23.125C17.375 22.125 17.375 21.125 17.375 20.125C17.375 19.2083 17.375 18.2917 17.375 17.375Z"
            fill="#B9040E" />
        <path fill-rule="evenodd" clip-rule="evenodd"
            d="M17.625 17.375C18.125 17.375 18.625 17.375 19.125 17.375C19.3919 17.6086 19.7253 17.692 20.125 17.625C20.125 18.4583 20.125 19.2917 20.125 20.125C19.2917 20.125 18.4583 20.125 17.625 20.125C17.625 19.2083 17.625 18.2917 17.625 17.375Z"
            fill="#CF0510" />
        <path fill-rule="evenodd" clip-rule="evenodd"
            d="M23.1249 20.1248C23.1249 21.1248 23.1249 22.1248 23.1249 23.1248C22.1249 23.1248 21.1249 23.1248 20.1249 23.1248C20.0515 22.1406 20.1349 21.1823 20.3749 20.2498C21.2878 20.1252 22.2045 20.0835 23.1249 20.1248Z"
            fill="#A2040D" />
        <path fill-rule="evenodd" clip-rule="evenodd"
            d="M26.125 17.375C27.0418 17.375 27.9582 17.375 28.875 17.375C28.875 18.2917 28.875 19.2083 28.875 20.125C28.875 20.2083 28.875 20.2917 28.875 20.375C27.9582 20.375 27.0418 20.375 26.125 20.375C26.125 21.2917 26.125 22.2083 26.125 23.125C25.125 23.125 24.125 23.125 23.125 23.125C23.125 22.125 23.125 21.125 23.125 20.125C24.125 20.125 25.125 20.125 26.125 20.125C26.125 19.2083 26.125 18.2917 26.125 17.375Z"
            fill="#8A030B" />
        <path fill-rule="evenodd" clip-rule="evenodd"
            d="M28.875 20.375C28.875 21.2917 28.875 22.2083 28.875 23.125C27.9582 23.125 27.0418 23.125 26.125 23.125C26.125 22.2083 26.125 21.2917 26.125 20.375C27.0418 20.375 27.9582 20.375 28.875 20.375Z"
            fill="#730309" />
        <path fill-rule="evenodd" clip-rule="evenodd"
            d="M28.875 20.125C29.875 20.125 30.875 20.125 31.875 20.125C31.875 21.125 31.875 22.125 31.875 23.125C30.875 23.125 29.875 23.125 28.875 23.125C28.875 22.2083 28.875 21.2917 28.875 20.375C28.875 20.2917 28.875 20.2083 28.875 20.125Z"
            fill="#5D0207" />
        <path fill-rule="evenodd" clip-rule="evenodd"
            d="M17.375 20.125C17.375 21.125 17.375 22.125 17.375 23.125C16.375 23.125 15.375 23.125 14.375 23.125C14.375 22.2083 14.375 21.2917 14.375 20.375C15.375 20.2917 16.375 20.2083 17.375 20.125Z"
            fill="#E20512" />
        <path fill-rule="evenodd" clip-rule="evenodd"
            d="M-0.125 23.125C0.875 23.125 1.875 23.125 2.875 23.125C2.875 24.125 2.875 25.125 2.875 26.125C1.875 26.125 0.875 26.125 -0.125 26.125C-0.125 25.125 -0.125 24.125 -0.125 23.125Z"
            fill="#460205" />
        <path fill-rule="evenodd" clip-rule="evenodd"
            d="M2.875 23.125C3.79167 23.125 4.70833 23.125 5.625 23.125C5.625 24.125 5.625 25.125 5.625 26.125C4.70833 26.125 3.79167 26.125 2.875 26.125C2.875 25.125 2.875 24.125 2.875 23.125Z"
            fill="#5C0207" />
        <path fill-rule="evenodd" clip-rule="evenodd"
            d="M5.625 23.125C6.625 23.125 7.625 23.125 8.625 23.125C8.625 24.125 8.625 25.125 8.625 26.125C7.625 26.125 6.625 26.125 5.625 26.125C5.625 25.125 5.625 24.125 5.625 23.125Z"
            fill="#720309" />
        <path fill-rule="evenodd" clip-rule="evenodd"
            d="M8.625 23.125C9.625 23.125 10.625 23.125 11.625 23.125C11.625 24.125 11.625 25.125 11.625 26.125C12.5417 26.125 13.4583 26.125 14.375 26.125C14.375 27.0418 14.375 27.9582 14.375 28.875C13.4583 28.875 12.5417 28.875 11.625 28.875C11.5417 28.875 11.4583 28.875 11.375 28.875C11.375 27.9582 11.375 27.0418 11.375 26.125C10.4583 26.125 9.54167 26.125 8.625 26.125C8.625 25.125 8.625 24.125 8.625 23.125Z"
            fill="#8A030B" />
        <path fill-rule="evenodd" clip-rule="evenodd"
            d="M11.625 23.125C12.5417 23.125 13.4583 23.125 14.375 23.125C14.375 24.125 14.375 25.125 14.375 26.125C13.4583 26.125 12.5417 26.125 11.625 26.125C11.625 25.125 11.625 24.125 11.625 23.125Z"
            fill="#A0040D" />
        <path fill-rule="evenodd" clip-rule="evenodd"
            d="M14.375 23.125C15.375 23.125 16.375 23.125 17.375 23.125C17.375 24.125 17.375 25.125 17.375 26.125C16.375 26.125 15.375 26.125 14.375 26.125C14.375 25.125 14.375 24.125 14.375 23.125Z"
            fill="#CF0511" />
        <path fill-rule="evenodd" clip-rule="evenodd"
            d="M17.375 23.125C18.2917 23.125 19.2083 23.125 20.125 23.125C20.125 24.125 20.125 25.125 20.125 26.125C19.2083 26.125 18.2917 26.125 17.375 26.125C17.375 25.125 17.375 24.125 17.375 23.125Z"
            fill="#A0040D" />
        <path fill-rule="evenodd" clip-rule="evenodd"
            d="M20.125 23.125C21.125 23.125 22.125 23.125 23.125 23.125C23.125 24.125 23.125 25.125 23.125 26.125C22.125 26.125 21.125 26.125 20.125 26.125C20.125 25.125 20.125 24.125 20.125 23.125Z"
            fill="#8B030B" />
        <path fill-rule="evenodd" clip-rule="evenodd"
            d="M23.125 23.125C24.125 23.125 25.125 23.125 26.125 23.125C26.125 24.125 26.125 25.125 26.125 26.125C25.125 26.125 24.125 26.125 23.125 26.125C23.125 25.125 23.125 24.125 23.125 23.125Z"
            fill="#730309" />
        <path fill-rule="evenodd" clip-rule="evenodd"
            d="M26.125 23.125C27.0418 23.125 27.9582 23.125 28.875 23.125C28.875 24.125 28.875 25.125 28.875 26.125C27.9582 26.125 27.0418 26.125 26.125 26.125C26.125 25.125 26.125 24.125 26.125 23.125Z"
            fill="#5C0207" />
        <path fill-rule="evenodd" clip-rule="evenodd"
            d="M28.875 23.125C29.875 23.125 30.875 23.125 31.875 23.125C31.875 24.125 31.875 25.125 31.875 26.125C30.875 26.125 29.875 26.125 28.875 26.125C28.875 25.125 28.875 24.125 28.875 23.125Z"
            fill="#460205" />
        <path fill-rule="evenodd" clip-rule="evenodd"
            d="M8.625 26.125C9.54167 26.125 10.4583 26.125 11.375 26.125C11.375 27.0418 11.375 27.9582 11.375 28.875C10.4583 28.875 9.54167 28.875 8.625 28.875C8.625 27.9582 8.625 27.0418 8.625 26.125Z"
            fill="#740309" />
        <path fill-rule="evenodd" clip-rule="evenodd"
            d="M17.375 26.125C18.2917 26.125 19.2083 26.125 20.125 26.125C20.125 27.0418 20.125 27.9582 20.125 28.875C19.2083 28.875 18.2917 28.875 17.375 28.875C17.375 27.9582 17.375 27.0418 17.375 26.125Z"
            fill="#8B030B" />
        <path fill-rule="evenodd" clip-rule="evenodd"
            d="M20.125 26.125C21.125 26.125 22.125 26.125 23.125 26.125C23.125 27.0418 23.125 27.9582 23.125 28.875C22.125 28.875 21.125 28.875 20.125 28.875C20.125 27.9582 20.125 27.0418 20.125 26.125Z"
            fill="#750309" />
        <path fill-rule="evenodd" clip-rule="evenodd"
            d="M-0.125 26.125C0.875 26.125 1.875 26.125 2.875 26.125C2.875 27.0418 2.875 27.9582 2.875 28.875C1.875 28.875 0.875 28.875 -0.125 28.875C-0.125 27.9582 -0.125 27.0418 -0.125 26.125Z"
            fill="#2F0003" />
        <path fill-rule="evenodd" clip-rule="evenodd"
            d="M2.875 26.125C3.79167 26.125 4.70833 26.125 5.625 26.125C5.625 27.0418 5.625 27.9582 5.625 28.875C4.70833 28.875 3.79167 28.875 2.875 28.875C2.875 27.9582 2.875 27.0418 2.875 26.125Z"
            fill="#460204" />
        <path fill-rule="evenodd" clip-rule="evenodd"
            d="M5.625 26.125C6.625 26.125 7.625 26.125 8.625 26.125C8.625 27.0418 8.625 27.9582 8.625 28.875C7.625 28.875 6.625 28.875 5.625 28.875C5.625 27.9582 5.625 27.0418 5.625 26.125Z"
            fill="#5D0207" />
        <path fill-rule="evenodd" clip-rule="evenodd"
            d="M14.375 26.125C15.375 26.125 16.375 26.125 17.375 26.125C17.375 27.0418 17.375 27.9582 17.375 28.875C16.375 28.875 15.375 28.875 14.375 28.875C14.375 27.9582 14.375 27.0418 14.375 26.125Z"
            fill="#B8050E" />
        <path fill-rule="evenodd" clip-rule="evenodd"
            d="M26.125 26.125C27.0418 26.125 27.9582 26.125 28.875 26.125C28.875 27.0418 28.875 27.9582 28.875 28.875C27.9582 28.875 27.0418 28.875 26.125 28.875C26.125 27.9582 26.125 27.0418 26.125 26.125Z"
            fill="#460205" />
        <path fill-rule="evenodd" clip-rule="evenodd"
            d="M28.875 26.125C29.875 26.125 30.875 26.125 31.875 26.125C31.875 27.0418 31.875 27.9582 31.875 28.875C30.875 28.875 29.875 28.875 28.875 28.875C28.875 27.9582 28.875 27.0418 28.875 26.125Z"
            fill="#2F0003" />
        <path fill-rule="evenodd" clip-rule="evenodd"
            d="M23.125 26.125C24.125 26.125 25.125 26.125 26.125 26.125C26.125 27.0418 26.125 27.9582 26.125 28.875C25.125 28.875 24.125 28.875 23.125 28.875C23.125 27.9582 23.125 27.0418 23.125 26.125Z"
            fill="#5D0207" />
        <path fill-rule="evenodd" clip-rule="evenodd"
            d="M2.875 28.875C3.79167 28.875 4.70833 28.875 5.625 28.875C5.625 29.875 5.625 30.875 5.625 31.875C4.70833 31.875 3.79167 31.875 2.875 31.875C2.875 30.875 2.875 29.875 2.875 28.875Z"
            fill="#2F0004" />
        <path fill-rule="evenodd" clip-rule="evenodd"
            d="M5.625 28.875C6.625 28.875 7.625 28.875 8.625 28.875C8.625 29.875 8.625 30.875 8.625 31.875C7.625 31.875 6.625 31.875 5.625 31.875C5.625 30.875 5.625 29.875 5.625 28.875Z"
            fill="#470205" />
        <path fill-rule="evenodd" clip-rule="evenodd"
            d="M8.625 28.875C9.54167 28.875 10.4583 28.875 11.375 28.875C11.4583 28.875 11.5417 28.875 11.625 28.875C11.625 29.875 11.625 30.875 11.625 31.875C10.625 31.875 9.625 31.875 8.625 31.875C8.625 30.875 8.625 29.875 8.625 28.875Z"
            fill="#5F0207" />
        <path fill-rule="evenodd" clip-rule="evenodd"
            d="M11.625 28.875C12.5417 28.875 13.4583 28.875 14.375 28.875C14.375 29.875 14.375 30.875 14.375 31.875C13.4583 31.875 12.5417 31.875 11.625 31.875C11.625 30.875 11.625 29.875 11.625 28.875Z"
            fill="#740309" />
        <path fill-rule="evenodd" clip-rule="evenodd"
            d="M14.375 28.875C15.375 28.875 16.375 28.875 17.375 28.875C17.375 29.875 17.375 30.875 17.375 31.875C16.375 31.875 15.375 31.875 14.375 31.875C14.375 30.875 14.375 29.875 14.375 28.875Z"
            fill="#A2040C" />
        <path fill-rule="evenodd" clip-rule="evenodd"
            d="M17.375 28.875C18.2917 28.875 19.2083 28.875 20.125 28.875C20.125 29.875 20.125 30.875 20.125 31.875C19.2083 31.875 18.2917 31.875 17.375 31.875C17.375 30.875 17.375 29.875 17.375 28.875Z"
            fill="#750309" />
        <path fill-rule="evenodd" clip-rule="evenodd"
            d="M20.125 28.875C21.125 28.875 22.125 28.875 23.125 28.875C23.125 29.875 23.125 30.875 23.125 31.875C22.125 31.875 21.125 31.875 20.125 31.875C20.125 30.875 20.125 29.875 20.125 28.875Z"
            fill="#5F0207" />
        <path fill-rule="evenodd" clip-rule="evenodd"
            d="M23.125 28.875C24.125 28.875 25.125 28.875 26.125 28.875C26.125 29.875 26.125 30.875 26.125 31.875C25.125 31.875 24.125 31.875 23.125 31.875C23.125 30.875 23.125 29.875 23.125 28.875Z"
            fill="#470205" />
        <path fill-rule="evenodd" clip-rule="evenodd"
            d="M26.125 28.875C27.0418 28.875 27.9582 28.875 28.875 28.875C28.875 29.875 28.875 30.875 28.875 31.875C27.9582 31.875 27.0418 31.875 26.125 31.875C26.125 30.875 26.125 29.875 26.125 28.875Z"
            fill="#2F0004" />
        <path fill-rule="evenodd" clip-rule="evenodd"
            d="M28.875 28.875C29.875 28.875 30.875 28.875 31.875 28.875C31.875 29.875 31.875 30.875 31.875 31.875C30.875 31.875 29.875 31.875 28.875 31.875C28.875 30.875 28.875 29.875 28.875 28.875Z"
            fill="#180002" />
        <path fill-rule="evenodd" clip-rule="evenodd"
            d="M-0.125 28.875C0.875 28.875 1.875 28.875 2.875 28.875C2.875 29.875 2.875 30.875 2.875 31.875C1.875 31.875 0.875 31.875 -0.125 31.875C-0.125 30.875 -0.125 29.875 -0.125 28.875Z"
            fill="#190003" />
    </g>
    <defs>
        <clipPath id="clip0_5023_1400">
            <rect width="32" height="32" fill="white" />
        </clipPath>
    </defs>
</svg>