<svg width="32" height="32" viewBox="0 0 32 32" fill="none" xmlns="http://www.w3.org/2000/svg">
    <g clip-path="url(#clip0_5325_5138)">
        <path fill-rule="evenodd" clip-rule="evenodd"
            d="M-0.0322266 -0.0322266C10.6345 -0.0322266 21.3011 -0.0322266 31.9678 -0.0322266C31.9678 10.6345 31.9678 21.3011 31.9678 31.9678C21.3011 31.9678 10.6345 31.9678 -0.0322266 31.9678C-0.0322266 21.3011 -0.0322266 10.6345 -0.0322266 -0.0322266Z"
            fill="black" />
        <path fill-rule="evenodd" clip-rule="evenodd"
            d="M20.1918 11.7441C20.2435 12.1258 20.2648 12.5098 20.2558 12.8961C20.1766 13.0058 20.1339 13.1338 20.1278 13.2801C19.5378 14.0288 18.8231 14.1781 17.9838 13.7281C17.9411 13.6214 17.9411 13.5148 17.9838 13.4081C18.4608 12.8976 18.5995 12.3109 18.3998 11.6481C18.3185 11.5345 18.2119 11.4598 18.0798 11.4241C17.9436 11.3518 17.7943 11.3411 17.6318 11.3921C17.5514 11.4188 17.5087 11.4721 17.5038 11.5521C17.1879 11.7506 16.9212 12.0066 16.7038 12.3201C15.9215 13.5502 15.4842 14.8942 15.3918 16.3521C15.3493 16.5107 15.328 16.6814 15.3278 16.8641C15.3174 17.1378 15.36 17.3938 15.4558 17.6321C15.8526 19.3648 16.8339 19.8234 18.3998 19.0081C18.8578 18.6886 19.2632 18.3153 19.6158 17.8881C19.7144 17.7385 19.757 17.5678 19.7438 17.3761C19.825 17.2222 19.8677 17.0515 19.8718 16.8641C20.0282 16.1524 20.2629 15.4697 20.5758 14.8161C20.7251 14.7094 20.8531 14.5814 20.9598 14.4321C21.4277 14.3498 21.8223 14.4778 22.1438 14.8161C22.0682 15.4055 21.8762 15.9602 21.5678 16.4801C21.3346 17.1146 21.1213 17.7546 20.9278 18.4001C20.8767 18.6937 20.8874 18.9817 20.9598 19.2641C21.0325 19.312 21.0965 19.3014 21.1518 19.2321C21.3493 18.9441 21.5306 18.6454 21.6958 18.3361C22.1518 17.0529 22.6318 15.7835 23.1358 14.5281C23.6087 14.3666 24.0567 14.42 24.4798 14.6881C24.5692 14.7746 24.6118 14.8813 24.6078 15.0081C24.2625 15.7909 23.9319 16.5802 23.6158 17.3761C23.0303 19.662 23.4143 19.8327 24.7678 17.8881C24.9468 17.5936 25.1068 17.2949 25.2478 16.9921C25.3301 16.7944 25.3727 16.5811 25.3758 16.3521C25.4744 16.2025 25.517 16.0318 25.5038 15.8401C25.5038 15.7761 25.5038 15.7121 25.5038 15.6481C25.003 15.7553 24.8217 15.5633 24.9598 15.0721C24.9918 15.0401 25.0238 15.0081 25.0558 14.9761C25.2895 14.9442 25.5242 14.9335 25.7598 14.9441C25.7409 14.801 25.7623 14.673 25.8238 14.5601C25.9302 14.4361 25.9729 14.2867 25.9518 14.1121C26.0387 13.7643 26.1454 13.423 26.2718 13.0881C26.4097 12.9526 26.4737 12.7819 26.4638 12.5761C26.7026 11.7853 27.0226 11.028 27.4238 10.3041C27.9985 10.1473 28.4998 10.2859 28.9278 10.7201C28.9705 10.8481 28.9705 10.9761 28.9278 11.1041C28.3326 12.3031 27.8312 13.5404 27.4238 14.8161C27.366 14.8615 27.3446 14.9255 27.3598 15.0081C27.5091 15.0081 27.6585 15.0081 27.8078 15.0081C27.9035 15.5322 27.6688 15.7882 27.1038 15.7761C26.6332 16.8814 26.3878 18.0334 26.3678 19.2321C26.435 19.2972 26.5096 19.3079 26.5918 19.2641C27.1326 18.6818 27.602 18.0525 27.9998 17.3761C28.0575 17.3255 28.1002 17.2615 28.1278 17.1841C28.46 16.5622 28.7587 15.9222 29.0238 15.2641C29.2472 15.1613 29.4179 15.2146 29.5358 15.4241C29.0741 16.3897 28.6367 17.3604 28.2238 18.3361C27.877 18.8805 27.5143 19.4138 27.1358 19.9361C26.9607 20.0802 26.7794 20.2082 26.5918 20.3201C26.3336 20.3198 26.0776 20.2985 25.8238 20.2561C25.5952 20.1451 25.4139 19.9744 25.2798 19.7441C25.1582 19.3914 25.0729 19.0287 25.0238 18.6561C24.7482 19.0703 24.4602 19.4757 24.1598 19.8721C23.9807 20.0729 23.7674 20.2222 23.5198 20.3201C23.2616 20.3198 23.0056 20.2985 22.7518 20.2561C22.586 20.2078 22.4687 20.1011 22.3998 19.9361C22.3349 19.6879 22.2389 19.4533 22.1118 19.2321C21.8686 19.678 21.5272 20.03 21.0878 20.2881C20.6434 20.4015 20.2594 20.3055 19.9358 20.0001C19.7592 19.6988 19.6312 19.3788 19.5518 19.0401C18.4284 20.3003 17.0417 20.7376 15.3918 20.3521C14.5293 19.9637 13.9533 19.313 13.6638 18.4001C13.6236 18.2147 13.5596 18.044 13.4718 17.8881C13.4901 17.7737 13.4687 17.667 13.4078 17.5681C12.8725 18.4159 12.2538 19.1945 11.5518 19.9041C11.3385 20.0321 11.1251 20.1601 10.9118 20.2881C10.4715 20.4533 10.0662 20.4 9.69582 20.1281C9.49441 19.9381 9.32372 19.7248 9.18382 19.4881C8.91898 19.8596 8.57767 20.1369 8.15982 20.3201C7.92206 20.325 7.68743 20.3037 7.45582 20.2561C7.13492 19.9997 6.98554 19.6584 7.00782 19.2321C7.08468 18.6478 7.19137 18.0718 7.32782 17.5041C7.38932 17.3911 7.4107 17.2631 7.39182 17.1201C7.28948 17.1029 7.20417 17.1243 7.13582 17.1841C6.9275 17.4085 6.7675 17.6645 6.65582 17.9521C6.40314 18.6381 6.17917 19.3314 5.98382 20.0321C5.87574 20.119 5.79041 20.2257 5.72782 20.3521C5.50661 20.424 5.32527 20.3706 5.18382 20.1921C5.12171 20.0037 5.06837 19.8117 5.02382 19.6161C4.83207 19.8611 4.61873 20.0851 4.38382 20.2881C3.56505 20.4602 3.12771 20.1295 3.07182 19.2961C3.03143 18.4673 3.12743 17.6567 3.35982 16.8641C3.42069 16.7733 3.44202 16.6666 3.42382 16.5441C3.29582 16.5441 3.16782 16.5441 3.03982 16.5441C2.87084 16.3918 2.87084 16.2318 3.03982 16.0641C3.21048 16.0428 3.38115 16.0214 3.55182 16.0001C3.63934 15.8206 3.70334 15.6393 3.74382 15.4561C3.85752 15.2638 3.92152 15.0505 3.93582 14.8161C4.15869 13.923 4.50002 13.0803 4.95982 12.2881C5.17315 12.2454 5.38648 12.2454 5.59982 12.2881C5.7866 12.3975 5.96793 12.5148 6.14382 12.6401C6.18648 12.7468 6.18648 12.8534 6.14382 12.9601C5.82725 13.6145 5.52858 14.2758 5.24782 14.9441C5.10544 15.2962 5.00944 15.6589 4.95982 16.0321C5.06648 16.0321 5.17315 16.0321 5.27982 16.0321C5.34031 16.4942 5.13765 16.7289 4.67182 16.7361C4.48329 17.099 4.36595 17.483 4.31982 17.8881C4.22869 18.017 4.18602 18.1664 4.19182 18.3361C4.0859 18.71 4.04324 19.094 4.06382 19.4881C4.27402 19.5029 4.43402 19.4175 4.54382 19.2321C4.79443 18.8803 5.0291 18.5177 5.24782 18.1441C5.70613 16.1947 6.3248 14.296 7.10382 12.4481C7.20039 12.2957 7.33902 12.2317 7.51982 12.2561C7.8539 12.2834 8.1419 12.4114 8.38382 12.6401C8.4265 12.7894 8.4265 12.9388 8.38382 13.0881C7.75662 14.2208 7.27662 15.3942 6.94382 16.6081C7.28558 15.9468 7.81895 15.6588 8.54382 15.7441C8.67975 15.8159 8.79706 15.9119 8.89582 16.0321C8.9385 16.3094 8.9385 16.5868 8.89582 16.8641C8.54081 17.7081 8.2955 18.5828 8.15982 19.4881C8.25134 19.4931 8.33671 19.4718 8.41582 19.4241C8.605 19.2028 8.80769 18.9894 9.02382 18.7841C8.99591 17.528 9.47591 16.5146 10.4638 15.7441C10.9879 15.4919 11.4785 15.5346 11.9358 15.8721C12.1086 15.9909 12.2152 16.1509 12.2558 16.3521C12.2951 16.5847 12.3165 16.8194 12.3198 17.0561C12.0905 18.1971 11.3865 18.8051 10.2078 18.8801C10.0724 19.1099 10.1151 19.3232 10.3358 19.5201C10.5471 19.672 10.7817 19.7146 11.0398 19.6481C11.6005 19.3116 12.0698 18.8742 12.4478 18.3361C12.7571 17.8454 13.0665 17.3548 13.3758 16.8641C13.3831 14.4272 14.2898 12.4112 16.0958 10.8161C16.4077 10.6282 16.7277 10.4575 17.0558 10.3041C18.2437 9.97481 19.2143 10.2842 19.9678 11.2321C20.0609 11.3966 20.1355 11.5673 20.1918 11.7441Z"
            fill="#F8F8F8" />
        <path fill-rule="evenodd" clip-rule="evenodd"
            d="M18.0799 11.4239C17.8753 11.4179 17.6833 11.4605 17.5039 11.5519C17.5088 11.4719 17.5515 11.4186 17.6319 11.3919C17.7944 11.341 17.9437 11.3517 18.0799 11.4239Z"
            fill="#4F4F4F" />
        <path fill-rule="evenodd" clip-rule="evenodd"
            d="M20.1924 11.7441C20.2903 11.9486 20.3329 12.1726 20.3204 12.4161C20.3202 12.5883 20.2989 12.7483 20.2564 12.8961C20.2653 12.5098 20.244 12.1258 20.1924 11.7441Z"
            fill="#7B7B7B" />
        <path fill-rule="evenodd" clip-rule="evenodd"
            d="M26.4645 12.5762C26.4744 12.782 26.4104 12.9527 26.2725 13.0882C26.3127 12.9028 26.3767 12.7321 26.4645 12.5762Z"
            fill="#9B9B9B" />
        <path fill-rule="evenodd" clip-rule="evenodd"
            d="M20.2559 12.896C20.2714 13.0495 20.2287 13.1775 20.1279 13.28C20.134 13.1337 20.1767 13.0057 20.2559 12.896Z"
            fill="#747474" />
        <path fill-rule="evenodd" clip-rule="evenodd"
            d="M25.9518 14.1118C25.9728 14.2864 25.9302 14.4358 25.8238 14.5598C25.818 14.3901 25.8606 14.2408 25.9518 14.1118Z"
            fill="#8A8A8A" />
        <path fill-rule="evenodd" clip-rule="evenodd"
            d="M20.9602 14.4321C20.8535 14.5814 20.7255 14.7094 20.5762 14.8161C20.6402 14.6241 20.7682 14.4961 20.9602 14.4321Z"
            fill="#878787" />
        <path fill-rule="evenodd" clip-rule="evenodd"
            d="M27.4242 14.8159C27.5302 14.9158 27.6582 14.9798 27.8082 15.0079C27.6589 15.0079 27.5095 15.0079 27.3602 15.0079C27.345 14.9253 27.3663 14.8613 27.4242 14.8159Z"
            fill="#868686" />
        <path fill-rule="evenodd" clip-rule="evenodd"
            d="M3.93614 14.8159C3.92184 15.0503 3.85784 15.2636 3.74414 15.4559C3.75844 15.2215 3.82244 15.0082 3.93614 14.8159Z"
            fill="#969696" />
        <path fill-rule="evenodd" clip-rule="evenodd"
            d="M25.5044 15.8398C25.5175 16.0315 25.4749 16.2022 25.3764 16.3518C25.3632 16.1602 25.4058 15.9895 25.5044 15.8398Z"
            fill="#8F8F8F" />
        <path fill-rule="evenodd" clip-rule="evenodd"
            d="M3.04004 16.5439C3.16804 16.5439 3.29604 16.5439 3.42404 16.5439C3.44225 16.6665 3.42091 16.7731 3.36004 16.8639C3.36004 16.7786 3.36004 16.6933 3.36004 16.6079C3.2375 16.6261 3.13084 16.6048 3.04004 16.5439Z"
            fill="#959595" />
        <path fill-rule="evenodd" clip-rule="evenodd"
            d="M12.2559 16.3521C12.3517 16.4666 12.3944 16.6052 12.3839 16.7681C12.3833 16.8773 12.362 16.9733 12.3199 17.0561C12.3165 16.8194 12.2952 16.5847 12.2559 16.3521Z"
            fill="#4E4E4E" />
        <path fill-rule="evenodd" clip-rule="evenodd"
            d="M11.1036 16.6719C11.2604 16.6958 11.3244 16.7918 11.2956 16.9599C11.2152 17.6449 10.8632 18.1249 10.2396 18.3999C10.2076 18.3786 10.1756 18.3572 10.1436 18.3359C10.2824 17.8237 10.5064 17.3544 10.8156 16.9279C10.9222 16.849 11.0182 16.7636 11.1036 16.6719Z"
            fill="#131313" />
        <path fill-rule="evenodd" clip-rule="evenodd"
            d="M25.3759 16.3521C25.3728 16.581 25.3301 16.7944 25.2479 16.9921C25.2365 16.7602 25.2792 16.5469 25.3759 16.3521Z"
            fill="#7D7D7D" />
        <path fill-rule="evenodd" clip-rule="evenodd"
            d="M15.3917 16.3521C15.3888 16.7803 15.4101 17.2069 15.4557 17.6321C15.3599 17.3938 15.3173 17.1378 15.3277 16.8641C15.3279 16.6813 15.3492 16.5106 15.3917 16.3521Z"
            fill="#494949" />
        <path fill-rule="evenodd" clip-rule="evenodd"
            d="M19.8715 16.8638C19.8674 17.0512 19.8247 17.2218 19.7435 17.3758C19.7304 17.1841 19.773 17.0134 19.8715 16.8638Z"
            fill="#919191" />
        <path fill-rule="evenodd" clip-rule="evenodd"
            d="M28.1276 17.1841C28.0999 17.2615 28.0573 17.3255 27.9996 17.3761C27.9858 17.2686 28.0285 17.2046 28.1276 17.1841Z"
            fill="#757575" />
        <path fill-rule="evenodd" clip-rule="evenodd"
            d="M7.13574 17.184C7.20409 17.1242 7.28941 17.1028 7.39174 17.12C7.41062 17.263 7.38925 17.391 7.32774 17.504C7.32774 17.3973 7.32774 17.2907 7.32774 17.184C7.26374 17.184 7.19974 17.184 7.13574 17.184Z"
            fill="#595959" />
        <path fill-rule="evenodd" clip-rule="evenodd"
            d="M19.7442 17.376C19.7574 17.5677 19.7148 17.7383 19.6162 17.888C19.6204 17.7006 19.6631 17.5299 19.7442 17.376Z"
            fill="#757575" />
        <path fill-rule="evenodd" clip-rule="evenodd"
            d="M13.4717 17.8882C13.5594 18.0441 13.6234 18.2148 13.6637 18.4002C13.5258 18.2647 13.4618 18.094 13.4717 17.8882Z"
            fill="#555555" />
        <path fill-rule="evenodd" clip-rule="evenodd"
            d="M4.31993 17.8882C4.32572 18.0579 4.28305 18.2072 4.19193 18.3362C4.18613 18.1665 4.2288 18.0171 4.31993 17.8882Z"
            fill="#535353" />
        <path fill-rule="evenodd" clip-rule="evenodd"
            d="M7.45605 20.2559C7.68767 20.3035 7.92229 20.3248 8.16005 20.3199C8.0773 20.362 7.9813 20.3833 7.87205 20.3839C7.70924 20.3944 7.57061 20.3517 7.45605 20.2559Z"
            fill="#686868" />
        <path fill-rule="evenodd" clip-rule="evenodd"
            d="M22.752 20.2559C23.0058 20.2982 23.2618 20.3195 23.52 20.3199C23.4263 20.3621 23.3196 20.3834 23.2 20.3839C23.0268 20.3956 22.8775 20.3529 22.752 20.2559Z"
            fill="#858585" />
        <path fill-rule="evenodd" clip-rule="evenodd"
            d="M25.8242 20.2559C26.078 20.2982 26.334 20.3195 26.5922 20.3199C26.4985 20.3621 26.3918 20.3834 26.2722 20.3839C26.0991 20.3956 25.9498 20.3529 25.8242 20.2559Z"
            fill="#606060" />
    </g>
    <defs>
        <clipPath id="clip0_5325_5138">
            <rect width="32" height="32" fill="white" />
        </clipPath>
    </defs>
</svg>