<svg width="32" height="32" viewBox="0 0 32 32" fill="none" xmlns="http://www.w3.org/2000/svg">
    <g clip-path="url(#clip0_5505_414)">
        <path fill-rule="evenodd" clip-rule="evenodd"
            d="M-0.0800781 -0.0800781C10.5866 -0.0800781 21.2532 -0.0800781 31.9199 -0.0800781C31.9199 10.5866 31.9199 21.2532 31.9199 31.9199C21.2532 31.9199 10.5866 31.9199 -0.0800781 31.9199C-0.0800781 21.2532 -0.0800781 10.5866 -0.0800781 -0.0800781Z"
            fill="#FDFDFD" />
        <path fill-rule="evenodd" clip-rule="evenodd"
            d="M21.0401 4.71956C21.9622 4.49558 22.3087 4.81558 22.0801 5.67956C23.0401 6.21289 23.7868 6.95956 24.3201 7.91956C24.3999 8.55735 24.4266 9.19735 24.4001 9.83956C21.6793 8.61242 18.9058 7.5191 16.0801 6.55956C17.291 5.10734 18.811 4.65399 20.6401 5.19956C20.9199 5.15983 21.0532 4.99983 21.0401 4.71956Z"
            fill="#1C1C25" />
        <path fill-rule="evenodd" clip-rule="evenodd"
            d="M9.8399 6.32047C10.5885 6.29394 11.3351 6.3206 12.0799 6.40047C12.5263 6.49021 12.8996 6.70354 13.1999 7.04047C10.7929 8.75308 8.52627 10.6464 6.3999 12.7205C5.48097 10.9843 5.74765 9.43764 7.1999 8.08047C7.17504 7.71076 7.17504 7.33743 7.1999 6.96047C7.61459 6.7234 7.98792 6.77674 8.3199 7.12047C8.8288 6.82636 9.33547 6.5597 9.8399 6.32047Z"
            fill="#1C1C25" />
        <path fill-rule="evenodd" clip-rule="evenodd"
            d="M23.12 10.9602C23.1337 11.1196 23.0803 11.2529 22.96 11.3602C22.4752 11.5657 21.9952 11.7524 21.52 11.9202C19.1297 9.85807 16.4097 9.29807 13.36 10.2402C8.92572 12.4705 7.45905 15.9638 8.95999 20.7202C10.8205 24.3308 13.7805 25.8508 17.84 25.2802C22.3533 23.8012 24.3533 20.6812 23.84 15.9202C23.6315 15.2414 23.3915 14.5747 23.12 13.9202C23.432 13.6187 23.8054 13.4054 24.24 13.2802C24.4 13.1736 24.56 13.1736 24.72 13.2802C26.5429 17.4882 25.9029 21.2748 22.8 24.6402C18.8845 27.8447 14.7778 28.1113 10.48 25.4402C6.54669 22.0844 5.56004 18.0044 7.51999 13.2002C10.2612 8.72386 14.1812 7.15052 19.28 8.48023C20.7557 9.02975 22.0357 9.85642 23.12 10.9602Z"
            fill="#1E1E26" />
        <path fill-rule="evenodd" clip-rule="evenodd"
            d="M21.5199 11.9202C21.9951 11.7523 22.4751 11.5656 22.9599 11.3602C23.0803 11.2528 23.1337 11.1195 23.1199 10.9602C23.2239 11.0088 23.3307 11.0621 23.4399 11.1202C24.0899 10.6845 24.7831 10.5779 25.5199 10.8002C25.7699 11.5176 25.6099 12.131 25.0399 12.6402C22.1406 13.6182 19.6606 15.2448 17.5999 17.5202C16.9366 18.3917 16.2166 19.2184 15.4399 20.0002C15.1819 20.1154 14.9419 20.0888 14.7199 19.9202C14.5642 18.1213 13.9242 16.5213 12.7999 15.1202C12.7603 14.3719 13.0536 13.7586 13.6799 13.2802C13.9466 13.1735 14.2133 13.1735 14.4799 13.2802C15.239 14.3978 15.799 15.5978 16.1599 16.8802C16.554 16.3258 17.0073 15.8192 17.5199 15.3602C18.8763 14.2078 20.2095 13.0611 21.5199 11.9202Z"
            fill="#59B66A" />
    </g>
    <defs>
        <clipPath id="clip0_5505_414">
            <rect width="32" height="32" fill="white" />
        </clipPath>
    </defs>
</svg>