<svg width="32" height="32" viewBox="0 0 32 32" fill="none" xmlns="http://www.w3.org/2000/svg">
    <g clip-path="url(#clip0_5298_3926)">
        <path opacity="0.999" fill-rule="evenodd" clip-rule="evenodd"
            d="M14.504 -0.034668C15.4779 -0.034668 16.4518 -0.034668 17.4257 -0.034668C23.4441 0.733868 27.8151 3.81792 30.5388 9.21751C31.2795 10.9165 31.7548 12.6788 31.9648 14.5045C31.9648 15.4784 31.9648 16.4523 31.9648 17.4262C31.1963 23.4446 28.1123 27.8156 22.7127 30.5392C21.0137 31.28 19.2514 31.7553 17.4257 31.9653C16.4518 31.9653 15.4779 31.9653 14.504 31.9653C8.48561 31.1968 4.11459 28.1127 1.39093 22.7132C0.650207 21.0142 0.174844 19.2519 -0.0351562 17.4262C-0.0351562 16.4523 -0.0351562 15.4784 -0.0351562 14.5045C0.733379 8.4861 3.81743 4.11508 9.21702 1.39142C10.916 0.650696 12.6783 0.175333 14.504 -0.034668Z"
            fill="#6440FF" />
        <path fill-rule="evenodd" clip-rule="evenodd"
            d="M10.0518 10.7478C10.0518 10.7246 10.0518 10.7014 10.0518 10.6782C13.7619 10.6782 17.4721 10.6782 21.1822 10.6782C21.2049 11.3865 21.1818 12.0821 21.1126 12.7652C21.1126 12.0927 21.1126 11.4203 21.1126 10.7478C17.4257 10.7478 13.7387 10.7478 10.0518 10.7478Z"
            fill="#EBE6FF" />
        <path fill-rule="evenodd" clip-rule="evenodd"
            d="M10.0518 10.748C13.7387 10.748 17.4257 10.748 21.1126 10.748C21.1126 11.4205 21.1126 12.093 21.1126 12.7654C19.6054 12.7654 18.0982 12.7654 16.5909 12.7654C16.2753 14.6431 15.9623 16.5213 15.6518 18.4002C15.5142 19.0328 15.7345 19.485 16.3126 19.7567C17.9357 19.7915 19.5588 19.8031 21.1822 19.7915C21.1822 20.4872 21.1822 21.1828 21.1822 21.8785C19.5125 21.8901 17.8429 21.8785 16.1735 21.8437C14.4624 21.5007 13.5812 20.4573 13.53 18.7133C13.7978 16.7938 14.0992 14.8807 14.4344 12.9741C14.4973 12.9248 14.5204 12.8552 14.5039 12.7654C13.0199 12.7654 11.5358 12.7654 10.0518 12.7654C10.0518 12.093 10.0518 11.4205 10.0518 10.748Z"
            fill="#FEFDFF" />
        <path fill-rule="evenodd" clip-rule="evenodd"
            d="M10.0527 10.6782C10.0527 10.7014 10.0527 10.7246 10.0527 10.7478C10.0527 11.4203 10.0527 12.0927 10.0527 12.7652C11.5367 12.7652 13.0208 12.7652 14.5048 12.7652C14.5213 12.855 14.4982 12.9246 14.4353 12.9739C12.9762 12.8355 11.4922 12.7891 9.98309 12.8347C9.96027 12.1033 9.98351 11.3845 10.0527 10.6782Z"
            fill="#A893FF" />
    </g>
    <defs>
        <clipPath id="clip0_5298_3926">
            <rect width="32" height="32" fill="white" />
        </clipPath>
    </defs>
</svg>