<svg width="32" height="32" viewBox="0 0 32 32" fill="none" xmlns="http://www.w3.org/2000/svg">
    <g clip-path="url(#clip0_5387_119)">
        <path opacity="0.996" fill-rule="evenodd" clip-rule="evenodd"
            d="M8.46875 -0.03125C8.96875 -0.03125 9.46875 -0.03125 9.96875 -0.03125C6.65625 3.32292 3.32292 6.65625 -0.03125 9.96875C-0.03125 9.46875 -0.03125 8.96875 -0.03125 8.46875C0.432457 5.28658 2.03662 2.85949 4.78125 1.1875C5.94143 0.547278 7.17062 0.141028 8.46875 -0.03125Z"
            fill="#E1BBCF" />
        <path fill-rule="evenodd" clip-rule="evenodd"
            d="M9.96875 -0.03125C10.5312 -0.03125 11.0938 -0.03125 11.6562 -0.03125C7.78125 3.88542 3.88542 7.78125 -0.03125 11.6562C-0.03125 11.0938 -0.03125 10.5312 -0.03125 9.96875C3.32292 6.65625 6.65625 3.32292 9.96875 -0.03125Z"
            fill="#DDBAD0" />
        <path fill-rule="evenodd" clip-rule="evenodd"
            d="M11.6562 -0.03125C12.2396 -0.03125 12.8229 -0.03125 13.4062 -0.03125C8.94794 4.46875 4.46875 8.94794 -0.03125 13.4062C-0.03125 12.8229 -0.03125 12.2396 -0.03125 11.6562C3.88542 7.78125 7.78125 3.88542 11.6562 -0.03125Z"
            fill="#D7B8D1" />
        <path fill-rule="evenodd" clip-rule="evenodd"
            d="M13.4062 -0.03125C13.9896 -0.03125 14.5729 -0.03125 15.1562 -0.03125C10.1146 5.05208 5.05208 10.1146 -0.03125 15.1562C-0.03125 14.5729 -0.03125 13.9896 -0.03125 13.4062C4.46875 8.94794 8.94794 4.46875 13.4062 -0.03125Z"
            fill="#D1B7D1" />
        <path fill-rule="evenodd" clip-rule="evenodd"
            d="M15.1562 -0.03125C15.8229 -0.03125 16.4896 -0.03125 17.1562 -0.03125C14.8229 2.32292 12.4896 4.67708 10.1562 7.03125C9.07269 7.23981 8.42681 7.88569 8.21875 8.96875C5.46875 11.6979 2.71875 14.4271 -0.03125 17.1562C-0.03125 16.4896 -0.03125 15.8229 -0.03125 15.1562C5.05208 10.1146 10.1146 5.05208 15.1562 -0.03125Z"
            fill="#CAB5D2" />
        <path fill-rule="evenodd" clip-rule="evenodd"
            d="M17.1562 -0.03125C17.7396 -0.03125 18.3229 -0.03125 18.9062 -0.03125C16.5438 2.36242 14.1688 4.74784 11.7812 7.125C11.816 7.14894 11.8368 7.18019 11.8438 7.21875C11.2891 7.09694 10.7266 7.03444 10.1562 7.03125C12.4896 4.67708 14.8229 2.32292 17.1562 -0.03125Z"
            fill="#C4B3D2" />
        <path fill-rule="evenodd" clip-rule="evenodd"
            d="M18.9062 -0.03125C19.4688 -0.03125 20.0312 -0.03125 20.5938 -0.03125C18.0959 2.49784 15.5855 5.01867 13.0625 7.53125C13.0335 7.56837 13.0231 7.61006 13.0312 7.65625C12.6399 7.498 12.2441 7.35219 11.8438 7.21875C11.8368 7.18019 11.816 7.14894 11.7812 7.125C14.1688 4.74784 16.5438 2.36242 18.9062 -0.03125Z"
            fill="#BEB1D3" />
        <path fill-rule="evenodd" clip-rule="evenodd"
            d="M20.5935 -0.03125C21.1977 -0.03125 21.8018 -0.03125 22.406 -0.03125C22.413 0.00733906 22.4338 0.0385891 22.4685 0.0625C19.7393 2.79167 17.0102 5.52083 14.281 8.25C14.3158 8.27394 14.3366 8.30519 14.3435 8.34375C13.9176 8.09944 13.4801 7.87031 13.031 7.65625C13.0228 7.61006 13.0333 7.56837 13.0623 7.53125C15.5853 5.01867 18.0957 2.49784 20.5935 -0.03125Z"
            fill="#B8AFD3" />
        <path opacity="0.999" fill-rule="evenodd" clip-rule="evenodd"
            d="M22.4066 -0.03125C22.7608 -0.03125 23.1149 -0.03125 23.4691 -0.03125C23.6664 0.0271187 23.8747 0.0687856 24.0941 0.09375C24.1011 0.132339 24.1219 0.163589 24.1566 0.1875C19.6649 4.66883 15.1857 9.15844 10.7191 13.6562C10.5028 13.2856 10.3362 12.8898 10.2191 12.4688C10.2098 12.403 10.2202 12.3405 10.2504 12.2812C11.1983 11.3333 12.1462 10.3854 13.0941 9.4375C13.1534 9.40731 13.2159 9.39694 13.2816 9.40625C13.9411 9.74913 14.3577 9.56163 14.5316 8.84375C14.5036 8.66306 14.4411 8.49637 14.3441 8.34375C14.3372 8.30519 14.3164 8.27394 14.2816 8.25C17.0108 5.52083 19.7399 2.79167 22.4691 0.0625C22.4344 0.0385891 22.4136 0.00733906 22.4066 -0.03125Z"
            fill="#B1ADD4" />
        <path opacity="0.997" fill-rule="evenodd" clip-rule="evenodd"
            d="M24.0938 0.09375C24.6037 0.180444 25.1037 0.305444 25.5938 0.46875C23.5729 2.51042 21.5521 4.55208 19.5312 6.59375C17.5697 7.46719 15.8717 8.71719 14.4375 10.3438C13.2277 11.71 12.1756 13.1891 11.2812 14.7812C11.0268 14.4391 10.8393 14.0641 10.7188 13.6562C15.1853 9.15844 19.6645 4.66883 24.1562 0.1875C24.1215 0.163589 24.1007 0.132339 24.0938 0.09375Z"
            fill="#ACACD4" />
        <path opacity="0.999" fill-rule="evenodd" clip-rule="evenodd"
            d="M25.5938 0.46875C26.0669 0.642825 26.5253 0.851162 26.9688 1.09375C26.9634 1.15599 26.9843 1.20808 27.0312 1.25C25.2655 2.98442 23.5363 4.74484 21.8438 6.53125C21.0693 6.35338 20.2985 6.37419 19.5312 6.59375C21.5521 4.55208 23.5729 2.51042 25.5938 0.46875Z"
            fill="#A5A9D5" />
        <path opacity="0.998" fill-rule="evenodd" clip-rule="evenodd"
            d="M26.9688 1.09375C27.2839 1.25094 27.5756 1.43844 27.8438 1.65625C26.0746 3.44624 24.3038 5.2379 22.5312 7.03125C22.3108 6.84856 22.0816 6.68188 21.8438 6.53125C23.5363 4.74484 25.2655 2.98442 27.0312 1.25C26.9843 1.20808 26.9634 1.15599 26.9688 1.09375Z"
            fill="#9EA7D5" />
        <path opacity="0.998" fill-rule="evenodd" clip-rule="evenodd"
            d="M27.8438 1.65625C28.2149 1.88162 28.5482 2.15246 28.8438 2.46875C28.8164 2.46466 28.7955 2.47508 28.7812 2.5C28.8754 2.55233 28.9067 2.62524 28.875 2.71875C26.977 4.62717 25.0707 6.523 23.1562 8.40625C23.0516 7.90506 22.8433 7.44675 22.5312 7.03125C24.3038 5.2379 26.0746 3.44624 27.8438 1.65625Z"
            fill="#99A6D6" />
        <path opacity="0.998" fill-rule="evenodd" clip-rule="evenodd"
            d="M28.8438 2.46864C29.2017 2.76391 29.5142 3.09725 29.7812 3.46864C27.6323 5.68009 25.4448 7.84676 23.2188 9.96864C23.2316 9.4457 23.2107 8.92489 23.1562 8.40614C25.0707 6.52289 26.977 4.62706 28.875 2.71864C28.9067 2.62513 28.8754 2.55222 28.7812 2.49989C28.7955 2.47496 28.8164 2.46455 28.8438 2.46864Z"
            fill="#92A4D6" />
        <path opacity="0.997" fill-rule="evenodd" clip-rule="evenodd"
            d="M29.7812 3.46875C30.0968 3.78675 30.3677 4.14092 30.5938 4.53125C27.9636 7.06763 25.3594 9.64056 22.7812 12.25C22.7441 12.279 22.7024 12.2894 22.6562 12.2812C22.7805 12.1584 22.8743 12.0126 22.9375 11.8438C23.0598 11.222 23.1536 10.597 23.2188 9.96875C25.4448 7.84687 27.6323 5.6802 29.7812 3.46875Z"
            fill="#8CA2D7" />
        <path opacity="0.999" fill-rule="evenodd" clip-rule="evenodd"
            d="M30.5938 4.53125C30.8141 4.88854 31.0016 5.26354 31.1562 5.65625C27.6144 9.13544 24.1353 12.6354 20.7188 16.1562C20.5938 16.2919 20.4791 16.4377 20.375 16.5938C20.3333 16.7396 20.3333 16.8854 20.375 17.0312C20.6231 17.4563 20.8834 17.8729 21.1562 18.2812C20.8061 18.3584 20.4519 18.4104 20.0938 18.4375C19.3024 18.4688 18.5107 18.4792 17.7188 18.4688C17.3432 18.4791 16.9682 18.4687 16.5938 18.4375C17.7188 17.3125 18.8438 16.1875 19.9688 15.0625C20.028 15.0323 20.0905 15.0219 20.1562 15.0312C21.1859 15.1682 21.5817 14.7307 21.3438 13.7188C21.8057 13.2571 22.2432 12.7779 22.6562 12.2812C22.7024 12.2894 22.7441 12.279 22.7812 12.25C25.3594 9.64056 27.9636 7.06763 30.5938 4.53125Z"
            fill="#86A0D7" />
        <path opacity="0.998" fill-rule="evenodd" clip-rule="evenodd"
            d="M31.1562 5.65625C31.3959 6.10399 31.5625 6.58312 31.6562 7.09375C29.3038 9.46706 26.9496 11.8421 24.5938 14.2188C24.1868 14.0779 23.7701 13.9738 23.3438 13.9062C22.8386 13.9781 22.6198 14.2697 22.6875 14.7812C22.7427 14.9439 22.8364 15.0793 22.9688 15.1875C23.3933 15.3392 23.81 15.4954 24.2188 15.6562C23.5695 16.2429 22.9654 16.8679 22.4062 17.5312C22.118 17.0917 21.8055 16.6647 21.4688 16.25C21.2273 16.1654 20.9773 16.1341 20.7188 16.1562C24.1353 12.6354 27.6144 9.13544 31.1562 5.65625Z"
            fill="#7F9ED8" />
        <path fill-rule="evenodd" clip-rule="evenodd"
            d="M21.8441 6.53154C22.082 6.68216 22.3112 6.84885 22.5316 7.03154C22.8437 7.44704 23.052 7.90535 23.1566 8.40654C23.211 8.92529 23.2319 9.4461 23.2191 9.96904C23.1539 10.5973 23.0602 11.2223 22.9378 11.844C22.8746 12.0129 22.7808 12.1587 22.6566 12.2815C22.0997 12.5239 21.7247 12.3572 21.5316 11.7815C21.6487 11.1413 21.732 10.4955 21.7816 9.84404C21.792 9.44766 21.7816 9.05185 21.7503 8.65654C21.7089 8.4356 21.6152 8.2481 21.4691 8.09404C21.4093 7.92729 21.2843 7.83354 21.0941 7.81279C20.8387 7.76516 20.5887 7.77554 20.3441 7.84404C19.8235 8.01047 19.3235 8.22922 18.8441 8.50029C16.0425 10.3536 13.8966 12.7807 12.4066 15.7815C12.3007 15.92 12.2174 16.0763 12.1566 16.2503C12.3138 16.5004 12.4805 16.74 12.6566 16.969C12.9238 17.3821 13.2363 17.7571 13.5941 18.094C13.6608 18.255 13.765 18.3904 13.9066 18.5003C14.281 18.5315 14.656 18.5419 15.0316 18.5315C15.9385 18.5521 16.8343 18.5313 17.7191 18.469C18.511 18.4795 19.3027 18.469 20.0941 18.4378C20.4523 18.4107 20.8065 18.3587 21.1566 18.2815C20.8838 17.8732 20.6234 17.4565 20.3753 17.0315C20.3337 16.8857 20.3337 16.7398 20.3753 16.594C20.4795 16.438 20.5941 16.2922 20.7191 16.1565C20.9777 16.1344 21.2277 16.1657 21.4691 16.2503C21.8058 16.665 22.1183 17.092 22.4066 17.5315C22.4997 17.7593 22.6247 17.9677 22.7816 18.1565C23.673 18.0156 24.5272 17.7552 25.3441 17.3753C25.8393 16.9844 25.8393 16.5886 25.3441 16.1878C24.9917 15.9594 24.6167 15.7823 24.2191 15.6565C23.8103 15.4957 23.3937 15.3395 22.9691 15.1878C22.8368 15.0796 22.743 14.9442 22.6878 14.7815C22.6202 14.27 22.8389 13.9783 23.3441 13.9065C23.7705 13.974 24.1872 14.0782 24.5941 14.219C24.9935 14.3873 25.3893 14.5748 25.7816 14.7815C26.1302 14.984 26.4427 15.234 26.7191 15.5315C27.0402 15.9325 27.1861 16.3908 27.1566 16.9065C27.1091 17.5955 26.7966 18.1267 26.2191 18.5003C25.3182 18.9985 24.3598 19.3423 23.3441 19.5315C23.6719 20.3023 23.9011 21.0939 24.0316 21.9065C24.0707 22.5643 24.0082 23.2102 23.8441 23.844C23.5682 24.745 22.9848 25.3283 22.0941 25.594C21.5668 25.6157 21.046 25.5741 20.5316 25.469C20.064 25.2459 19.5848 25.0376 19.0941 24.844C18.7823 24.6046 18.449 24.3963 18.0941 24.219C17.7799 23.947 17.4466 23.697 17.0941 23.469C16.7831 23.2209 16.4706 22.9709 16.1566 22.719C15.8226 22.3851 15.4684 22.0726 15.0941 21.7815C14.5316 21.1773 13.9483 20.594 13.3441 20.0315C13.3372 19.993 13.3163 19.9617 13.2816 19.9378C12.4465 19.8578 11.6132 19.764 10.7816 19.6565C10.7021 19.6609 10.6292 19.6817 10.5628 19.719C10.1209 20.7263 9.88134 21.7783 9.84409 22.8753C9.84415 23.1262 9.86503 23.3658 9.90659 23.594C10.065 24.13 10.4192 24.307 10.9691 24.1253C11.4313 23.9671 11.8688 23.7588 12.2816 23.5003C12.9227 23.0262 13.5268 22.5053 14.0941 21.9378C14.3673 21.8233 14.6381 21.8337 14.9066 21.969C15.1998 22.2947 15.231 22.6488 15.0003 23.0315C14.097 23.9673 13.0657 24.7278 11.9066 25.3128C11.6773 25.3927 11.4481 25.4657 11.2191 25.5315C10.6638 25.6437 10.1221 25.602 9.59409 25.4065C9.26247 25.1999 8.99165 24.9291 8.78159 24.594C8.56934 24.1826 8.44434 23.7451 8.40659 23.2815C8.39109 22.4783 8.4744 21.6866 8.65659 20.9065C8.80397 20.4123 8.97065 19.9228 9.15659 19.4378C9.09734 19.4076 9.03484 19.3972 8.96909 19.4065C8.41028 19.2509 7.84778 19.0842 7.28159 18.9065C6.88309 18.7317 6.48728 18.5442 6.09409 18.344C5.70055 18.0547 5.34639 17.7214 5.03159 17.344C4.81292 16.8693 4.72958 16.3693 4.78159 15.844C5.02701 15.1378 5.48534 14.6065 6.15659 14.2503C6.67278 13.9602 7.2144 13.731 7.78159 13.5628C8.10228 13.4882 8.39397 13.5402 8.65659 13.719C8.91228 14.0772 8.89147 14.421 8.59409 14.7503C7.94334 14.9603 7.31834 15.2312 6.71909 15.5628C6.0774 16.0104 6.05656 16.4896 6.65659 17.0003C6.81484 17.1106 6.98153 17.2043 7.15659 17.2815C7.97309 17.6777 8.82728 17.9069 9.71909 17.969C9.96928 17.427 10.2193 16.8854 10.4691 16.344C10.1926 15.8115 9.9009 15.2907 9.59409 14.7815C9.42403 14.3372 9.23653 13.8997 9.03159 13.469C8.6939 12.5975 8.4439 11.7017 8.28159 10.7815C8.22228 10.1807 8.20147 9.57647 8.21909 8.96904C8.42715 7.88597 9.07303 7.2401 10.1566 7.03154C10.7269 7.03472 11.2894 7.09722 11.8441 7.21904C12.2444 7.35247 12.6403 7.49829 13.0316 7.65654C13.4807 7.8706 13.9182 8.09972 14.3441 8.34404C14.4411 8.49666 14.5036 8.66335 14.5316 8.84404C14.3577 9.56191 13.9411 9.74941 13.2816 9.40654C12.8567 9.13166 12.3983 8.92335 11.9066 8.78154C11.355 8.53341 10.7717 8.43966 10.1566 8.50029C9.7104 8.76347 9.5229 9.15929 9.59409 9.68779C9.62578 10.1488 9.68828 10.5967 9.78159 11.0315C9.88009 11.5309 10.026 12.0101 10.2191 12.469C10.3362 12.89 10.5028 13.2859 10.7191 13.6565C10.8397 14.0643 11.0272 14.4393 11.2816 14.7815C12.1759 13.1894 13.228 11.7103 14.4378 10.344C15.8721 8.71747 17.57 7.46747 19.5316 6.59404C20.2988 6.37447 21.0697 6.35366 21.8441 6.53154Z"
            fill="#FDFEFE" />
        <path opacity="0.998" fill-rule="evenodd" clip-rule="evenodd"
            d="M31.6562 7.09375C31.7872 7.5465 31.8914 8.00488 31.9688 8.46875C31.9688 8.53125 31.9688 8.59375 31.9688 8.65625C31.9302 8.64931 31.8989 8.6285 31.875 8.59375C29.8072 10.6302 27.7759 12.6927 25.7812 14.7812C25.3889 14.5746 24.9931 14.3871 24.5938 14.2188C26.9496 11.8421 29.3038 9.46706 31.6562 7.09375Z"
            fill="#799CD8" />
        <path fill-rule="evenodd" clip-rule="evenodd"
            d="M21.4688 8.09377C18.4865 11.0135 15.549 13.9718 12.6562 16.9688C12.4801 16.7397 12.3134 16.5001 12.1562 16.25C12.2171 16.076 12.3004 15.9198 12.4062 15.7813C15.0677 13.2136 17.7031 10.6095 20.3125 7.96877C20.3415 7.93165 20.3519 7.88996 20.3438 7.84377C20.5883 7.77527 20.8383 7.7649 21.0938 7.81252C21.2839 7.83327 21.4089 7.92702 21.4688 8.09377Z"
            fill="#9EA7D5" />
        <path fill-rule="evenodd" clip-rule="evenodd"
            d="M21.4688 8.09375C21.6148 8.24781 21.7086 8.43531 21.75 8.65625C21.7812 9.05156 21.7916 9.44737 21.7812 9.84375C19.0073 12.5551 16.2782 15.3051 13.5938 18.0938C13.236 17.7568 12.9235 17.3818 12.6562 16.9688C15.549 13.9718 18.4865 11.0135 21.4688 8.09375Z"
            fill="#99A6D6" />
        <path fill-rule="evenodd" clip-rule="evenodd"
            d="M20.3438 7.84375C20.3519 7.88994 20.3415 7.93163 20.3125 7.96875C17.7031 10.6094 15.0677 13.2136 12.4062 15.7812C13.8963 12.7804 16.0421 10.3533 18.8438 8.5C19.3231 8.22894 19.8231 8.01019 20.3438 7.84375Z"
            fill="#A4AAD5" />
        <path fill-rule="evenodd" clip-rule="evenodd"
            d="M11.9063 8.78153C11.1825 9.41134 10.4846 10.078 9.81254 10.7815C9.78192 10.8623 9.77148 10.9457 9.78129 11.0315C9.68798 10.5967 9.62548 10.1488 9.59379 9.68778C9.52261 9.15928 9.71011 8.76347 10.1563 8.50028C10.7714 8.43965 11.3547 8.5334 11.9063 8.78153Z"
            fill="#BEB2D3" />
        <path opacity="0.998" fill-rule="evenodd" clip-rule="evenodd"
            d="M31.9688 8.65625C31.9688 9.19794 31.9688 9.73956 31.9688 10.2812C30.1979 12.0104 28.4479 13.7604 26.7188 15.5312C26.4423 15.2337 26.1298 14.9838 25.7812 14.7812C27.7759 12.6927 29.8072 10.6302 31.875 8.59375C31.8989 8.6285 31.9302 8.64931 31.9688 8.65625Z"
            fill="#739BD9" />
        <path fill-rule="evenodd" clip-rule="evenodd"
            d="M11.9059 8.78125C12.3976 8.92306 12.856 9.13138 13.2809 9.40625C13.2152 9.39694 13.1527 9.40731 13.0934 9.4375C12.1455 10.3854 11.1976 11.3333 10.2497 12.2812C10.2195 12.3405 10.2091 12.403 10.2184 12.4688C10.0253 12.0098 9.87941 11.5306 9.78091 11.0312C9.7711 10.9454 9.78154 10.8621 9.81216 10.7812C10.4842 10.0777 11.1822 9.41106 11.9059 8.78125Z"
            fill="#B8AFD3" />
        <path fill-rule="evenodd" clip-rule="evenodd"
            d="M8.21875 8.96875C8.20112 9.57619 8.22194 10.1804 8.28125 10.7812C8.24269 10.7743 8.21144 10.7535 8.1875 10.7188C5.45617 13.4605 2.71659 16.1897 -0.03125 18.9062C-0.03125 18.3229 -0.03125 17.7396 -0.03125 17.1562C2.71875 14.4271 5.46875 11.6979 8.21875 8.96875Z"
            fill="#C4B3D2" />
        <path fill-rule="evenodd" clip-rule="evenodd"
            d="M21.7812 9.84375C21.7316 10.4952 21.6483 11.1411 21.5312 11.7812C19.2938 13.9874 17.0647 16.2062 14.8438 18.4375C14.9211 18.452 14.9836 18.4832 15.0312 18.5312C14.6557 18.5416 14.2807 18.5312 13.9062 18.5C13.7647 18.3901 13.6605 18.2547 13.5938 18.0938C16.2782 15.3051 19.0073 12.5551 21.7812 9.84375Z"
            fill="#92A4D6" />
        <path fill-rule="evenodd" clip-rule="evenodd"
            d="M31.9688 10.2812C31.9688 10.8646 31.9688 11.4479 31.9688 12.0312C30.3178 13.6196 28.7137 15.2446 27.1562 16.9062C27.1858 16.3906 27.0399 15.9322 26.7188 15.5312C28.4479 13.7604 30.1979 12.0104 31.9688 10.2812Z"
            fill="#6D99D9" />
        <path fill-rule="evenodd" clip-rule="evenodd"
            d="M8.28125 10.7812C8.44356 11.7014 8.69356 12.5972 9.03125 13.4688C8.87006 13.4578 8.74506 13.5411 8.65625 13.7188C8.39362 13.5399 8.10194 13.4879 7.78125 13.5625C7.21406 13.7307 6.67244 13.9599 6.15625 14.25C5.485 14.6062 5.02667 15.1375 4.78125 15.8438C3.17708 17.4271 1.57292 19.0104 -0.03125 20.5938C-0.03125 20.0312 -0.03125 19.4688 -0.03125 18.9062C2.71659 16.1897 5.45617 13.4605 8.1875 10.7188C8.21144 10.7535 8.24269 10.7743 8.28125 10.7812Z"
            fill="#BEB1D3" />
        <path fill-rule="evenodd" clip-rule="evenodd"
            d="M21.5312 11.7812C21.7243 12.3569 22.0993 12.5236 22.6562 12.2812C22.2432 12.7779 21.8057 13.2571 21.3438 13.7188C20.8967 13.2761 20.4175 13.2344 19.9062 13.5938C19.5249 14.1531 19.6082 14.6323 20.1562 15.0312C20.0905 15.0219 20.028 15.0323 19.9688 15.0625C18.8438 16.1875 17.7188 17.3125 16.5938 18.4375C16.9682 18.4687 17.3432 18.4791 17.7188 18.4688C16.8339 18.531 15.9381 18.5518 15.0312 18.5312C14.9836 18.4832 14.9211 18.452 14.8438 18.4375C17.0647 16.2062 19.2938 13.9874 21.5312 11.7812Z"
            fill="#8DA3D7" />
        <path fill-rule="evenodd" clip-rule="evenodd"
            d="M31.9688 12.0312C31.9688 12.6979 31.9688 13.3646 31.9688 14.0312C29.3229 16.6562 26.6771 19.2812 24.0312 21.9062C23.9007 21.0936 23.6716 20.302 23.3438 19.5312C24.3595 19.342 25.3179 18.9983 26.2188 18.5C26.7962 18.1264 27.1088 17.5952 27.1562 16.9062C28.7137 15.2446 30.3178 13.6196 31.9688 12.0312Z"
            fill="#6797DA" />
        <path fill-rule="evenodd" clip-rule="evenodd"
            d="M21.3441 13.719C21.5821 14.731 21.1862 15.1685 20.1566 15.0315C19.6086 14.6326 19.5252 14.1534 19.9066 13.594C20.4179 13.2347 20.8971 13.2764 21.3441 13.719Z"
            fill="#FCFDFE" />
        <path fill-rule="evenodd" clip-rule="evenodd"
            d="M9.0316 13.4687C9.23654 13.8994 9.42404 14.3369 9.5941 14.7812C8.7366 15.5761 7.9241 16.4095 7.1566 17.2812C6.98154 17.204 6.81485 17.1103 6.6566 17C6.05657 16.4893 6.07741 16.0101 6.7191 15.5625C7.31835 15.2309 7.94335 14.96 8.5941 14.75C8.89148 14.4207 8.91229 14.0769 8.6566 13.7187C8.74541 13.541 8.87041 13.4577 9.0316 13.4687Z"
            fill="#B2AED4" />
        <path fill-rule="evenodd" clip-rule="evenodd"
            d="M31.9688 14.0312C31.9688 14.6146 31.9688 15.1979 31.9688 15.7812C29.2604 18.4688 26.5521 21.1562 23.8438 23.8438C24.0078 23.2099 24.0703 22.5641 24.0312 21.9062C26.6771 19.2812 29.3229 16.6562 31.9688 14.0312Z"
            fill="#6095DA" />
        <path fill-rule="evenodd" clip-rule="evenodd"
            d="M9.59375 14.7812C9.90056 15.2904 10.1923 15.8112 10.4688 16.3438C10.2189 16.8851 9.96894 17.4268 9.71875 17.9688C8.82694 17.9066 7.97275 17.6774 7.15625 17.2812C7.92375 16.4095 8.73625 15.5761 9.59375 14.7812Z"
            fill="#AAABD5" />
        <path fill-rule="evenodd" clip-rule="evenodd"
            d="M31.9688 15.7812C31.9688 16.3438 31.9688 16.9062 31.9688 17.4688C27.1146 22.2812 22.2812 27.1146 17.4688 31.9688C16.9062 31.9688 16.3438 31.9688 15.7812 31.9688C17.8854 29.8438 19.9896 27.7188 22.0938 25.5938C22.9845 25.328 23.5678 24.7447 23.8438 23.8438C26.5521 21.1562 29.2604 18.4688 31.9688 15.7812Z"
            fill="#5A93DB" />
        <path fill-rule="evenodd" clip-rule="evenodd"
            d="M4.78125 15.8438C4.72924 16.3691 4.81257 16.8691 5.03125 17.3438C3.34375 19.0104 1.65625 20.6771 -0.03125 22.3438C-0.03125 21.7604 -0.03125 21.1771 -0.03125 20.5938C1.57292 19.0104 3.17708 17.4271 4.78125 15.8438Z"
            fill="#B8AFD3" />
        <path fill-rule="evenodd" clip-rule="evenodd"
            d="M24.2188 15.6562C24.6163 15.7821 24.9913 15.9591 25.3438 16.1875C25.8389 16.5883 25.8389 16.9841 25.3438 17.375C24.5269 17.7549 23.6727 18.0153 22.7812 18.1562C22.6243 17.9674 22.4993 17.7591 22.4062 17.5312C22.9654 16.8679 23.5695 16.2429 24.2188 15.6562Z"
            fill="#759BD9" />
        <path opacity="0.997" fill-rule="evenodd" clip-rule="evenodd"
            d="M5.03125 17.3438C5.34604 17.7211 5.70021 18.0544 6.09375 18.3438C4.09899 20.2447 2.13024 22.1822 0.1875 24.1562C0.170099 24.099 0.138849 24.0574 0.09375 24.0312C0.0631525 23.8341 0.0214861 23.6466 -0.03125 23.4688C-0.03125 23.0938 -0.03125 22.7188 -0.03125 22.3438C1.65625 20.6771 3.34375 19.0104 5.03125 17.3438Z"
            fill="#B1ADD4" />
        <path fill-rule="evenodd" clip-rule="evenodd"
            d="M31.9688 17.4688C31.9688 18.0521 31.9688 18.6354 31.9688 19.2188C27.6979 23.4479 23.4479 27.6979 19.2188 31.9688C18.6354 31.9688 18.0521 31.9688 17.4688 31.9688C22.2812 27.1146 27.1146 22.2812 31.9688 17.4688Z"
            fill="#5491DB" />
        <path fill-rule="evenodd" clip-rule="evenodd"
            d="M11.4062 17.7188C11.5644 17.918 11.731 18.1159 11.9062 18.3125C11.6456 18.3632 11.3956 18.332 11.1562 18.2188C11.2404 18.0504 11.3237 17.8838 11.4062 17.7188Z"
            fill="#A3ADD9" />
        <path opacity="0.998" fill-rule="evenodd" clip-rule="evenodd"
            d="M6.09375 18.3438C6.48694 18.5439 6.88275 18.7314 7.28125 18.9062C7.23506 18.8981 7.19337 18.9085 7.15625 18.9375C4.93534 21.1688 2.70617 23.3876 0.46875 25.5938C0.294726 25.0851 0.169726 24.5643 0.09375 24.0312C0.138849 24.0574 0.170099 24.099 0.1875 24.1562C2.13024 22.1822 4.09899 20.2447 6.09375 18.3438Z"
            fill="#ABABD4" />
        <path opacity="0.999" fill-rule="evenodd" clip-rule="evenodd"
            d="M7.28125 18.906C7.84744 19.0837 8.40994 19.2504 8.96875 19.406C6.38025 21.9007 3.81772 24.432 1.28125 26.9998C1.2441 27.0288 1.20243 27.0392 1.15625 27.031C0.878069 26.5787 0.6489 26.0995 0.46875 25.5935C2.70617 23.3873 4.93534 21.1686 7.15625 18.9373C7.19337 18.9083 7.23506 18.8978 7.28125 18.906Z"
            fill="#A4A9D5" />
        <path fill-rule="evenodd" clip-rule="evenodd"
            d="M31.9688 19.2188C31.9688 19.8854 31.9688 20.5521 31.9688 21.2188C28.3646 24.7812 24.7812 28.3646 21.2188 31.9688C20.5521 31.9688 19.8854 31.9688 19.2188 31.9688C23.4479 27.6979 27.6979 23.4479 31.9688 19.2188Z"
            fill="#4E8FDC" />
        <path opacity="0.999" fill-rule="evenodd" clip-rule="evenodd"
            d="M8.96875 19.4066C9.0345 19.3973 9.097 19.4077 9.15625 19.4379C8.97031 19.9229 8.80363 20.4124 8.65625 20.9066C6.32125 23.2208 3.9879 25.5333 1.65625 27.8441C1.44277 27.6052 1.2761 27.3343 1.15625 27.0316C1.20243 27.0398 1.2441 27.0294 1.28125 27.0004C3.81772 24.4326 6.38025 21.9013 8.96875 19.4066Z"
            fill="#9EA7D5" />
        <path fill-rule="evenodd" clip-rule="evenodd"
            d="M22.0938 20.1562C21.0697 21.1177 20.0905 22.1178 19.1562 23.1562C18.4672 22.6867 17.8006 22.1867 17.1562 21.6562C17.6852 21.0959 18.2269 20.5439 18.7812 20C18.8989 19.9876 19.003 19.9564 19.0938 19.9062C19.97 19.8644 20.845 19.8019 21.7188 19.7188C21.9431 19.7676 22.0681 19.9134 22.0938 20.1562Z"
            fill="#759BD9" />
        <path fill-rule="evenodd" clip-rule="evenodd"
            d="M13.3438 20.0312C12.1824 21.0987 11.047 22.2029 9.9375 23.3438C9.90687 23.4246 9.89644 23.5079 9.90625 23.5938C9.86469 23.3656 9.84381 23.1259 9.84375 22.875C9.881 21.7781 10.1206 20.726 10.5625 19.7188C10.6289 19.6814 10.7018 19.6606 10.7812 19.6562C11.6129 19.7638 12.4462 19.8575 13.2812 19.9375C13.316 19.9614 13.3368 19.9927 13.3438 20.0312Z"
            fill="#93A5D6" />
        <path fill-rule="evenodd" clip-rule="evenodd"
            d="M19.0938 19.9062C19.003 19.9564 18.8989 19.9876 18.7812 20C18.2269 20.5439 17.6852 21.0959 17.1562 21.6562C16.544 21.1171 15.9398 20.565 15.3438 20C16.594 19.9718 17.844 19.9405 19.0938 19.9062Z"
            fill="#819FD8" />
        <path fill-rule="evenodd" clip-rule="evenodd"
            d="M13.3434 20.0312C13.9476 20.5938 14.5309 21.1771 15.0934 21.7812C14.9684 21.7812 14.9059 21.8438 14.9059 21.9688C14.6374 21.8334 14.3666 21.823 14.0934 21.9375C13.5261 22.5051 12.922 23.0259 12.2809 23.5C11.8681 23.7585 11.4306 23.9668 10.9684 24.125C10.4185 24.3067 10.0643 24.1297 9.90591 23.5938C9.8961 23.5079 9.90654 23.4246 9.93716 23.3438C11.0467 22.2029 12.182 21.0987 13.3434 20.0312Z"
            fill="#8BA2D7" />
        <path opacity="0.998" fill-rule="evenodd" clip-rule="evenodd"
            d="M8.65625 20.9062C8.47406 21.6863 8.39075 22.478 8.40625 23.2812C6.474 25.1197 4.56775 26.9947 2.6875 28.9062C2.65848 28.9434 2.64806 28.9851 2.65625 29.0312C2.27778 28.6736 1.94445 28.2777 1.65625 27.8438C3.9879 25.5329 6.32125 23.2204 8.65625 20.9062Z"
            fill="#99A6D6" />
        <path opacity="0.996" fill-rule="evenodd" clip-rule="evenodd"
            d="M31.9688 21.2188C31.9688 21.9688 31.9688 22.7188 31.9688 23.4688C31.5049 26.651 29.9007 29.0781 27.1562 30.75C25.9961 31.3903 24.7669 31.7965 23.4688 31.9688C22.7188 31.9688 21.9688 31.9688 21.2188 31.9688C24.7812 28.3646 28.3646 24.7812 31.9688 21.2188Z"
            fill="#468DDC" />
        <path fill-rule="evenodd" clip-rule="evenodd"
            d="M22.0938 20.1562C22.5067 21.0923 22.6629 22.0715 22.5625 23.0938C22.5059 23.3829 22.4017 23.6538 22.25 23.9062C22.1676 24.0304 22.053 24.1034 21.9062 24.125C21.3309 24.1999 20.7893 24.0958 20.2812 23.8125C19.8963 23.6096 19.5213 23.3909 19.1562 23.1562C20.0905 22.1178 21.0697 21.1177 22.0938 20.1562Z"
            fill="#6B98DA" />
        <path opacity="0.998" fill-rule="evenodd" clip-rule="evenodd"
            d="M15.0938 21.7812C15.4681 22.0723 15.8223 22.3848 16.1562 22.7188C13.1511 25.6301 10.1719 28.5781 7.21875 31.5625C7.12138 31.5756 7.03806 31.6069 6.96875 31.6562C6.508 31.5376 6.07052 31.3709 5.65625 31.1562C7.51044 29.2812 9.36456 27.4062 11.2188 25.5312C11.4478 25.4654 11.6769 25.3924 11.9062 25.3125C13.0654 24.7275 14.0966 23.9671 15 23.0312C15.2307 22.6486 15.1994 22.2944 14.9062 21.9688C14.9062 21.8438 14.9688 21.7812 15.0938 21.7812Z"
            fill="#809ED8" />
        <path opacity="0.998" fill-rule="evenodd" clip-rule="evenodd"
            d="M16.1562 22.7188C16.4703 22.9706 16.7828 23.2206 17.0938 23.4688C14.2448 26.2239 11.4219 29.0156 8.625 31.8438C8.596 31.8809 8.58556 31.9226 8.59375 31.9688C8.55206 31.9688 8.51044 31.9688 8.46875 31.9688C7.97331 31.8789 7.47331 31.7748 6.96875 31.6562C7.03806 31.6069 7.12138 31.5756 7.21875 31.5625C10.1719 28.5781 13.1511 25.6301 16.1562 22.7188Z"
            fill="#789CD8" />
        <path opacity="0.998" fill-rule="evenodd" clip-rule="evenodd"
            d="M8.40602 23.2812C8.44377 23.7448 8.56877 24.1823 8.78102 24.5938C8.73484 24.5856 8.69315 24.596 8.65602 24.625C6.93509 26.3564 5.20594 28.0751 3.46852 29.7812C3.15979 29.5769 2.88895 29.3269 2.65602 29.0312C2.64784 28.9851 2.65825 28.9434 2.68727 28.9062C4.56752 26.9947 6.47377 25.1197 8.40602 23.2812Z"
            fill="#92A4D6" />
        <path opacity="0.999" fill-rule="evenodd" clip-rule="evenodd"
            d="M17.0935 23.4688C17.446 23.6967 17.7793 23.9467 18.0935 24.2188C15.4508 26.7573 12.8466 29.3406 10.281 31.9688C9.71852 31.9688 9.15602 31.9688 8.59352 31.9688C8.58533 31.9226 8.59577 31.8809 8.62477 31.8438C11.4216 29.0156 14.2446 26.2239 17.0935 23.4688Z"
            fill="#739AD9" />
        <path fill-rule="evenodd" clip-rule="evenodd"
            d="M18.0938 24.2188C18.4486 24.396 18.7819 24.6043 19.0938 24.8438C16.7396 27.2188 14.3854 29.5938 12.0312 31.9688C11.4479 31.9688 10.8646 31.9688 10.2812 31.9688C12.8468 29.3406 15.451 26.7573 18.0938 24.2188Z"
            fill="#6D99D9" />
        <path fill-rule="evenodd" clip-rule="evenodd"
            d="M19.0938 24.8438C19.5845 25.0373 20.0636 25.2456 20.5312 25.4688C18.3438 27.6146 16.1771 29.7812 14.0312 31.9688C13.3646 31.9688 12.6979 31.9688 12.0312 31.9688C14.3854 29.5938 16.7396 27.2188 19.0938 24.8438Z"
            fill="#6797DA" />
        <path opacity="0.998" fill-rule="evenodd" clip-rule="evenodd"
            d="M8.78125 24.5935C8.99131 24.9286 9.26212 25.1994 9.59375 25.406C7.90456 27.1369 6.19623 28.8452 4.46875 30.531C4.08829 30.3411 3.75495 30.0911 3.46875 29.781C5.20617 28.0749 6.93531 26.3561 8.65625 24.6248C8.69337 24.5958 8.73506 24.5853 8.78125 24.5935Z"
            fill="#8CA2D7" />
        <path opacity="0.997" fill-rule="evenodd" clip-rule="evenodd"
            d="M9.59375 25.4062C10.1217 25.6017 10.6634 25.6434 11.2188 25.5312C9.36456 27.4062 7.51044 29.2812 5.65625 31.1562C5.2303 30.9954 4.83447 30.7871 4.46875 30.5312C6.19623 28.8454 7.90456 27.1371 9.59375 25.4062Z"
            fill="#86A0D7" />
        <path fill-rule="evenodd" clip-rule="evenodd"
            d="M20.5312 25.4688C21.0457 25.5738 21.5665 25.6154 22.0938 25.5938C19.9896 27.7188 17.8854 29.8438 15.7812 31.9688C15.1979 31.9688 14.6146 31.9688 14.0312 31.9688C16.1771 29.7812 18.3438 27.6146 20.5312 25.4688Z"
            fill="#6095DA" />
    </g>
    <defs>
        <clipPath id="clip0_5387_119">
            <rect width="32" height="32" fill="white" />
        </clipPath>
    </defs>
</svg>