<svg width="32" height="32" viewBox="0 0 32 32" fill="none" xmlns="http://www.w3.org/2000/svg">
    <g clip-path="url(#clip0_5120_45)">
        <path fill-rule="evenodd" clip-rule="evenodd"
            d="M-0.5 -0.5C10.1667 -0.5 20.8333 -0.5 31.5 -0.5C31.5 10.1667 31.5 20.8333 31.5 31.5C20.8333 31.5 10.1667 31.5 -0.5 31.5C-0.5 20.8333 -0.5 10.1667 -0.5 -0.5Z"
            fill="#ECECEC" />
        <path fill-rule="evenodd" clip-rule="evenodd"
            d="M23.4998 27.5C23.8631 25.0885 22.8631 23.5885 20.4998 23C17.6406 22.447 14.8073 22.6137 11.9998 23.5C9.43148 23.0492 7.09814 22.0492 4.99983 20.5C5.18042 24.0398 7.01375 26.5398 10.4998 28C14.673 27.7719 18.673 27.9386 22.4998 28.5C18.1922 29.3676 13.8588 29.5343 9.49983 29C0.815762 22.5127 0.315762 15.346 7.99983 7.49997C8.49458 1.25387 10.8279 0.253867 14.9998 4.49997C17.8804 0.436418 19.2138 1.10309 18.9998 6.49997C20.7797 8.29288 22.613 9.95954 24.4998 11.5C24.3331 11.8333 24.1665 12.1667 23.9998 12.5C19.7023 10.1293 15.2023 9.46257 10.4998 10.5C6.28076 14.29 6.61409 17.6233 11.4998 20.5C12.3475 13.8143 16.0142 11.3143 22.4998 13C20.5271 13.4955 18.5271 13.6621 16.4998 13.5C16.2808 14.675 16.6141 15.675 17.4998 16.5C23.7388 17.2192 26.2388 20.5525 24.9998 26.5C24.6172 27.056 24.1172 27.3893 23.4998 27.5Z"
            fill="#293034" />
        <path fill-rule="evenodd" clip-rule="evenodd"
            d="M10.5003 3.5C12.9735 3.94731 13.1402 4.94731 11.0003 6.5C10.5175 5.55198 10.3508 4.55198 10.5003 3.5Z"
            fill="#E0E0E0" />
        <path fill-rule="evenodd" clip-rule="evenodd"
            d="M23.5 27.5C23.5 28.1667 23.1667 28.5 22.5 28.5C18.6732 27.9386 14.6732 27.7719 10.5 28C7.01392 26.5398 5.18059 24.0398 5 20.5C7.09831 22.0492 9.43165 23.0492 12 23.5C14.8075 22.6137 17.6408 22.447 20.5 23C22.8633 23.5885 23.8633 25.0885 23.5 27.5Z"
            fill="#359AD5" />
    </g>
    <defs>
        <clipPath id="clip0_5120_45">
            <rect width="32" height="32" fill="white" />
        </clipPath>
    </defs>
</svg>