<svg width="32" height="32" viewBox="0 0 32 32" fill="none" xmlns="http://www.w3.org/2000/svg">
    <g clip-path="url(#clip0_5454_213)">
        <path fill-rule="evenodd" clip-rule="evenodd"
            d="M-0.0712891 -0.0712891C10.5954 -0.0712891 21.262 -0.0712891 31.9287 -0.0712891C31.9287 10.5954 31.9287 21.262 31.9287 31.9287C21.262 31.9287 10.5954 31.9287 -0.0712891 31.9287C-0.0712891 21.262 -0.0712891 10.5954 -0.0712891 -0.0712891Z"
            fill="#FDFEFE" />
        <path fill-rule="evenodd" clip-rule="evenodd"
            d="M14.7201 3.2002C14.7537 3.64229 14.7064 4.06896 14.5779 4.4802C13.0583 4.7668 11.7309 5.43051 10.5957 6.47131C10.7504 6.17513 10.8926 5.86698 11.0224 5.54686C10.8801 5.42835 10.7379 5.30982 10.5957 5.19131C10.8559 5.08003 11.0692 5.17485 11.2357 5.47575C11.3124 5.24327 11.2413 5.05365 11.0224 4.90686C11.1116 4.77647 11.159 4.63425 11.1646 4.4802C12.2477 3.80285 13.4329 3.37618 14.7201 3.2002Z"
            fill="#0BA3ED" />
        <path fill-rule="evenodd" clip-rule="evenodd"
            d="M14.7199 3.19988C16.5275 3.00334 18.2342 3.28779 19.8399 4.05321C17.9779 4.42278 18.0254 4.54129 19.9821 4.40877C19.7538 4.79742 19.6116 5.22409 19.5554 5.68877C19.7867 5.66099 20.0238 5.66099 20.2665 5.68877C20.3856 5.8326 20.4329 5.99851 20.4087 6.18655C20.5759 6.1554 20.7181 6.2028 20.8354 6.32877C21.0374 6.64292 21.2745 6.92737 21.5465 7.1821C21.5027 7.29703 21.4316 7.39184 21.3332 7.46655C21.06 7.1162 20.7282 6.83175 20.3376 6.61321C20.2708 6.76636 20.2945 6.90858 20.4087 7.03988C19.708 6.50778 18.9494 6.05741 18.1332 5.68877C17.207 5.39824 16.259 5.27972 15.2887 5.33321C15.6399 5.217 16.0191 5.14589 16.4265 5.11988C15.8576 5.07248 15.2887 5.02506 14.7199 4.97766C15.4769 4.90663 16.2354 4.88294 16.9954 4.90655C16.9954 4.76432 16.9954 4.6221 16.9954 4.47988C16.1894 4.47988 15.3836 4.47988 14.5776 4.47988C14.7061 4.06864 14.7534 3.64198 14.7199 3.19988Z"
            fill="#1095EE" />
        <path fill-rule="evenodd" clip-rule="evenodd"
            d="M14.5776 4.47998C15.3836 4.47998 16.1895 4.47998 16.9954 4.47998C16.9954 4.6222 16.9954 4.76442 16.9954 4.90665C16.2354 4.88304 15.4769 4.90673 14.7199 4.97776C15.2888 5.02516 15.8576 5.07258 16.4265 5.11998C16.0191 5.14599 15.6399 5.2171 15.2888 5.33331C12.0138 5.70572 9.99901 7.50719 9.24431 10.7378C9.1361 11.8878 9.20721 13.0256 9.45765 14.1511C9.31542 14.4355 9.1732 14.72 9.03098 15.0044C8.89129 14.5404 8.79647 14.0662 8.74653 13.5822C8.60431 13.5822 8.46209 13.5822 8.31987 13.5822C8.0698 11.4456 8.47276 9.45449 9.52876 7.60887C9.88143 7.21166 10.237 6.83239 10.5954 6.47109C11.7307 5.4303 13.0581 4.76659 14.5776 4.47998Z"
            fill="#1086EE" />
        <path fill-rule="evenodd" clip-rule="evenodd"
            d="M11.1643 4.47998C11.1587 4.63404 11.1113 4.77626 11.0221 4.90665C11.2411 5.05343 11.3122 5.24306 11.2354 5.47554C11.0689 5.17464 10.8556 5.07982 10.5954 5.19109C10.7377 5.30961 10.8799 5.42813 11.0221 5.54665C10.8924 5.86676 10.7501 6.17491 10.5954 6.47109C10.237 6.83239 9.88144 7.21166 9.52877 7.60887C8.47277 9.45449 8.06981 11.4456 8.31988 13.5822C8.46211 13.5822 8.60433 13.5822 8.74655 13.5822C8.79648 14.0662 8.8913 14.5404 9.03099 15.0044C9.38432 15.6877 9.76358 16.3514 10.1688 16.9955C10.0915 17.1895 10.0678 17.3791 10.0977 17.5644C10.3091 17.6576 10.475 17.7998 10.5954 17.9911C10.271 18.1016 9.96285 18.2438 9.67099 18.4178C9.51358 18.2454 9.44247 18.2927 9.45766 18.56C6.48503 15.0228 6.12948 11.2301 8.39099 7.1822C9.10841 6.06173 10.0329 5.161 11.1643 4.47998Z"
            fill="#15ADEE" />
        <path fill-rule="evenodd" clip-rule="evenodd"
            d="M12.5865 9.03125C12.5454 9.29102 12.6165 9.52806 12.7999 9.74236C12.6549 9.91121 12.4889 10.0534 12.3021 10.169C12.1003 10.0972 12.0055 9.95503 12.0176 9.74236C12.1746 9.47377 12.3643 9.23673 12.5865 9.03125Z"
            fill="#DCE9F4" />
        <path fill-rule="evenodd" clip-rule="evenodd"
            d="M16.9953 7.60898C18.3211 7.89139 19.2692 8.64991 19.8398 9.88454C19.7122 9.72836 19.5937 9.72836 19.4842 9.88454C19.4246 9.71784 19.3299 9.57562 19.1998 9.45787C19.2622 9.87454 19.3333 10.3012 19.4131 10.7379C18.9793 11.8348 18.1734 12.4511 16.9953 12.5868C15.9076 12.3796 14.841 12.1426 13.7953 11.8757C13.332 11.8747 12.8816 11.9458 12.4442 12.089C12.3792 12.1479 12.3318 12.219 12.302 12.3023C12.7113 12.8498 12.972 13.4661 13.0842 14.1512C13.2163 14.6235 13.5244 14.8606 14.0087 14.8623C14.0087 15.0519 14.0087 15.2416 14.0087 15.4312C14.7196 15.5401 15.4308 15.6588 16.142 15.7868C15.273 15.904 14.4197 15.8328 13.582 15.5734C13.4517 15.5795 13.3569 15.6269 13.2976 15.7157C11.6993 14.5769 11.0355 13.0125 11.3065 11.0223C11.4202 11.7611 11.5387 12.5196 11.662 13.2979C11.8157 13.6529 12.0053 13.9847 12.2309 14.2934C11.9987 13.7123 11.8328 13.096 11.7331 12.4445C11.781 12.0639 11.8284 11.6846 11.8753 11.3068C12.0176 11.3068 12.1598 11.3068 12.302 11.3068C12.386 10.7259 12.6704 10.2756 13.1553 9.95565C13.0364 9.81182 12.9889 9.6459 13.0131 9.45787C13.0605 9.45787 13.1079 9.45787 13.1553 9.45787C13.2621 9.61055 13.4043 9.63424 13.582 9.52898C14.0087 9.19714 14.4353 8.86527 14.862 8.53343C14.4668 7.78666 13.9927 7.71555 13.4398 8.32009C13.12 8.40255 12.8829 8.59218 12.7287 8.88898C12.6339 8.88898 12.5865 8.93639 12.5865 9.03121C12.3642 9.23669 12.1746 9.47373 12.0176 9.74232C11.9702 9.74232 11.9227 9.74232 11.8753 9.74232C12.3238 8.79631 13.0349 8.10891 14.0087 7.68009C15.018 7.26132 16.0136 7.23761 16.9953 7.60898Z"
            fill="#0E529B" />
        <path fill-rule="evenodd" clip-rule="evenodd"
            d="M13.4401 8.31982C13.5629 8.48883 13.7052 8.65474 13.8668 8.8176C13.5656 8.96681 13.3286 9.18014 13.1557 9.4576C13.1083 9.4576 13.0609 9.4576 13.0134 9.4576C12.8573 9.33003 12.8573 9.21151 13.0134 9.10205C12.8832 9.06245 12.7884 8.99134 12.729 8.88871C12.8833 8.59191 13.1203 8.40228 13.4401 8.31982Z"
            fill="#DAECF5" />
        <path fill-rule="evenodd" clip-rule="evenodd"
            d="M16.9957 7.60897C17.3144 7.76836 17.6464 7.93429 17.9912 8.10675C18.1834 8.56115 18.5153 8.82189 18.9868 8.88897C19.0179 9.05608 18.9706 9.1983 18.8446 9.31564C18.0572 8.68982 17.1565 8.40537 16.1424 8.46231C16.1668 8.17903 16.072 7.94199 15.8579 7.75119C16.2257 7.61182 16.605 7.5644 16.9957 7.60897Z"
            fill="#3475BE" />
        <path fill-rule="evenodd" clip-rule="evenodd"
            d="M13.1558 9.45802C13.3287 9.18056 13.5657 8.96722 13.8669 8.81802C13.7053 8.65516 13.563 8.48924 13.4402 8.32024C13.9931 7.71569 14.4672 7.78681 14.8624 8.53357C14.4358 8.86542 14.0091 9.19728 13.5824 9.52913C13.4047 9.63439 13.2625 9.61069 13.1558 9.45802Z"
            fill="#4987CF" />
        <path fill-rule="evenodd" clip-rule="evenodd"
            d="M12.7289 8.88867C12.7882 8.9913 12.8831 9.06241 13.0133 9.10201C12.8571 9.21147 12.8571 9.32999 13.0133 9.45756C12.9891 9.64559 13.0365 9.81151 13.1555 9.95534C12.6706 10.2752 12.3862 10.7256 12.3022 11.3064C12.16 11.3064 12.0178 11.3064 11.8755 11.3064C11.8286 11.6843 11.7812 12.0636 11.7333 12.4442C11.8329 13.0957 11.9989 13.712 12.2311 14.2931C12.0055 13.9844 11.8159 13.6526 11.6622 13.2976C11.5389 12.5193 11.4204 11.7607 11.3066 11.022C11.3884 10.5368 11.578 10.1101 11.8755 9.74201C11.9229 9.74201 11.9703 9.74201 12.0178 9.74201C12.0056 9.95467 12.1005 10.0969 12.3022 10.1687C12.4891 10.0531 12.655 9.91085 12.8 9.74201C12.6166 9.5277 12.5455 9.29066 12.5866 9.03089C12.5866 8.93607 12.634 8.88867 12.7289 8.88867Z"
            fill="#427DC4" />
        <path fill-rule="evenodd" clip-rule="evenodd"
            d="M20.4087 7.04004C20.7722 7.18843 21.0804 7.42548 21.3331 7.75115C21.392 7.6861 21.4631 7.6387 21.5465 7.60893C22.356 8.11093 22.8302 8.84574 22.9687 9.81337C23.665 12.3456 23.191 14.5974 21.5465 16.5689C21.2879 15.8921 21.4065 15.2757 21.902 14.72C22.9741 11.8331 22.4763 9.2731 20.4087 7.04004Z"
            fill="#1AAEEE" />
        <path fill-rule="evenodd" clip-rule="evenodd"
            d="M19.8398 4.05322C23.5212 6.00955 25.2041 9.09103 24.8887 13.2977C24.5914 15.2187 23.833 16.9253 22.6131 18.4177C21.9667 17.9792 21.6112 17.3628 21.5465 16.5688C23.191 14.5973 23.665 12.3455 22.9687 9.81322C22.8302 8.84559 22.356 8.11078 21.5465 7.60878C21.4631 7.63855 21.392 7.68595 21.3331 7.751C21.0804 7.42533 20.7722 7.18828 20.4087 7.03989C20.2945 6.90859 20.2707 6.76637 20.3376 6.61322C20.7281 6.83176 21.0599 7.11621 21.3331 7.46656C21.4316 7.39185 21.5027 7.29704 21.5465 7.18211C21.2744 6.92738 21.0373 6.64293 20.8354 6.32878C20.718 6.20281 20.5758 6.15541 20.4087 6.18656C20.4329 5.99852 20.3855 5.83261 20.2665 5.68878C20.0237 5.661 19.7866 5.661 19.5554 5.68878C19.6115 5.2241 19.7538 4.79743 19.982 4.40878C18.0253 4.5413 17.9778 4.42279 19.8398 4.05322Z"
            fill="#0E86EE" />
        <path fill-rule="evenodd" clip-rule="evenodd"
            d="M19.84 9.88467C20.6039 11.4579 20.5328 13.0224 19.6267 14.578C19.4287 14.9111 19.3102 14.9111 19.2711 14.578C19.0632 14.7143 18.8736 14.8801 18.7022 15.0758C18.7971 15.1231 18.8918 15.1706 18.9867 15.218C17.1934 16.7688 15.2972 16.9346 13.2978 15.7158C13.3571 15.627 13.4519 15.5797 13.5822 15.5736C14.4199 15.833 15.2733 15.9041 16.1422 15.7869C15.431 15.6589 14.7199 15.5403 14.0089 15.4313C14.0089 15.2418 14.0089 15.052 14.0089 14.8625C13.5246 14.8607 13.2165 14.6237 13.0845 14.1513C12.9723 13.4662 12.7115 12.8499 12.3022 12.3025C12.332 12.2191 12.3794 12.148 12.4445 12.0891C12.8819 11.9459 13.3322 11.8748 13.7956 11.8758C14.8412 12.1427 15.9079 12.3798 16.9956 12.5869C18.1736 12.4513 18.9796 11.835 19.4134 10.738C19.3336 10.3013 19.2625 9.87468 19.2 9.45801C19.3302 9.57575 19.4249 9.71798 19.4845 9.88467C19.594 9.7285 19.7125 9.7285 19.84 9.88467Z"
            fill="#2765AD" />
        <path fill-rule="evenodd" clip-rule="evenodd"
            d="M19.271 14.578C19.4437 14.0901 19.657 13.6161 19.911 13.1558C19.8921 13.7152 19.6787 14.1893 19.271 14.578Z"
            fill="#B2D4EB" />
        <path fill-rule="evenodd" clip-rule="evenodd"
            d="M9.45792 14.1509C11.6987 18.4402 15.0409 19.5779 19.4846 17.5642C19.7697 17.7323 20.0304 17.9219 20.2668 18.1331C19.4066 18.5635 18.506 18.9428 17.5646 19.2709C16.636 19.5053 15.688 19.6001 14.7201 19.5553C14.7201 19.6975 14.7201 19.8398 14.7201 19.982C16.2372 20.0294 16.2372 20.0769 14.7201 20.1242C14.7201 21.3569 14.7201 22.5894 14.7201 23.822C14.553 23.7908 14.4108 23.8382 14.2935 23.9642C14.5636 24.3556 14.682 24.7823 14.649 25.2442C14.6017 25.2916 14.5542 25.3391 14.5068 25.3864C14.2423 25.1644 14.0764 24.9273 14.009 24.6753C13.8956 24.7403 13.8482 24.8352 13.8668 24.9598C12.3463 22.8688 10.8767 20.7355 9.45792 18.5598C9.44273 18.2925 9.51384 18.2452 9.67125 18.4175C9.9631 18.2436 10.2713 18.1014 10.5957 17.9909C10.4753 17.7996 10.3093 17.6574 10.0979 17.5642C10.0681 17.3789 10.0918 17.1893 10.169 16.9953C9.76384 16.3512 9.38457 15.6874 9.03125 15.0042C9.17347 14.7198 9.31569 14.4353 9.45792 14.1509Z"
            fill="#0DA6EE" />
        <path fill-rule="evenodd" clip-rule="evenodd"
            d="M17.5645 19.271C17.5645 19.6503 17.5645 20.0295 17.5645 20.4088C17.7541 20.4088 17.9438 20.4088 18.1334 20.4088C18.1098 21.1688 18.1335 21.9273 18.2045 22.6843C18.7468 23.1493 18.7706 23.6706 18.2756 24.2488C18.2933 24.3351 18.3406 24.3825 18.4178 24.391C17.9333 25.2172 17.4118 26.023 16.8534 26.8088C16.5785 27.1554 16.2703 27.4873 15.929 27.8043C15.6401 27.3983 15.332 27.019 15.0045 26.6666C14.5648 26.1331 14.1855 25.5642 13.8667 24.9599C13.8481 24.8353 13.8955 24.7404 14.009 24.6754C14.0763 24.9275 14.2422 25.1645 14.5067 25.3866C14.5541 25.3392 14.6016 25.2917 14.649 25.2443C14.6819 24.7824 14.5635 24.3557 14.2934 23.9643C14.4107 23.8383 14.553 23.791 14.7201 23.8221C14.7201 22.5895 14.7201 21.357 14.7201 20.1243C16.2371 20.077 16.2371 20.0295 14.7201 19.9821C14.7201 19.8399 14.7201 19.6977 14.7201 19.5554C15.6879 19.6002 16.6359 19.5054 17.5645 19.271Z"
            fill="#0798EE" />
        <path fill-rule="evenodd" clip-rule="evenodd"
            d="M20.2667 18.1333C20.9675 18.3442 21.6787 18.5338 22.4 18.7022C21.6932 19.8592 20.9584 20.9969 20.1956 22.1155C19.6224 22.9006 19.0298 23.6591 18.4178 24.3911C18.3406 24.3825 18.2932 24.3352 18.2756 24.2489C18.7705 23.6707 18.7467 23.1493 18.2045 22.6844C18.1335 21.9274 18.1097 21.1689 18.1333 20.4089C17.9438 20.4089 17.754 20.4089 17.5645 20.4089C17.5645 20.0295 17.5645 19.6504 17.5645 19.2711C18.5058 18.943 19.4065 18.5637 20.2667 18.1333Z"
            fill="#0A8EEE" />
        <path fill-rule="evenodd" clip-rule="evenodd"
            d="M15.0044 26.6665C15.3319 27.0189 15.6399 27.3982 15.9288 27.8043C16.2701 27.4873 16.5783 27.1553 16.8532 26.8087C16.6691 27.075 16.6928 27.3119 16.9244 27.5198C16.9717 27.4725 17.0192 27.425 17.0666 27.3776C18.3136 27.5346 19.57 27.6769 20.8355 27.8043C21.8747 27.9806 22.8702 28.2651 23.8221 28.6576C23.8221 28.8472 23.8221 29.0369 23.8221 29.2265C23.0871 29.4818 22.3285 29.6951 21.5466 29.8665C19.2359 30.04 16.9366 30.2533 14.6488 30.5065C12.7928 30.2397 10.9202 30.0737 9.03102 30.0087C8.43427 29.757 7.81796 29.591 7.18213 29.5109C7.18213 29.1316 7.18213 28.7525 7.18213 28.3732C8.20977 28.2281 9.22903 28.0385 10.2399 27.8043C11.7253 27.7485 13.195 27.6063 14.6488 27.3776C14.6962 27.425 14.7437 27.4725 14.791 27.5198C14.8628 27.2328 14.934 26.9484 15.0044 26.6665Z"
            fill="#ECECEC" />
        <path fill-rule="evenodd" clip-rule="evenodd"
            d="M13.5822 28.231C15.5405 28.3181 17.5316 28.3893 19.5555 28.4443C20.6933 28.7761 20.6933 29.108 19.5555 29.4398C16.7859 29.7769 14.0363 29.7058 11.3066 29.2265C11.3066 29.0369 11.3066 28.8472 11.3066 28.6576C12.0703 28.4646 12.8288 28.3224 13.5822 28.231Z"
            fill="#C2C2C2" />
    </g>
    <defs>
        <clipPath id="clip0_5454_213">
            <rect width="32" height="32" fill="white" />
        </clipPath>
    </defs>
</svg>