<svg width="32" height="32" viewBox="0 0 32 32" fill="none" xmlns="http://www.w3.org/2000/svg">
    <g clip-path="url(#clip0_5498_45)">
        <path fill-rule="evenodd" clip-rule="evenodd"
            d="M-0.0800781 -0.0800781C10.5866 -0.0800781 21.2532 -0.0800781 31.9199 -0.0800781C31.9199 4.82659 31.9199 9.73325 31.9199 14.6399C30.6273 10.1767 27.6407 8.12336 22.9599 8.47992C19.095 9.41213 17.015 11.8655 16.7199 15.8399C16.9356 19.8956 19.0156 22.4022 22.9599 23.3599C27.7281 23.7263 30.7148 21.6196 31.9199 17.0399C31.9199 21.9999 31.9199 26.9599 31.9199 31.9199C21.2532 31.9199 10.5866 31.9199 -0.0800781 31.9199C-0.0800781 26.9066 -0.0800781 21.8932 -0.0800781 16.8799C0.333223 19.669 1.82656 21.669 4.39992 22.8799C5.02754 23.114 5.66754 23.3007 6.31992 23.4399C7.57322 23.5809 8.85322 23.5809 10.1599 23.4399C10.1599 23.2799 10.1599 23.1199 10.1599 22.9599C12.9153 21.9361 14.542 19.9628 15.0399 17.0399C15.3973 12.4471 13.344 9.59373 8.87992 8.47992C4.34275 8.08872 1.35609 10.0354 -0.0800781 14.3199C-0.0800781 9.51992 -0.0800781 4.71992 -0.0800781 -0.0800781Z"
            fill="#FEFEFE" />
        <path fill-rule="evenodd" clip-rule="evenodd"
            d="M31.92 14.64C31.92 15.44 31.92 16.24 31.92 17.04C30.7149 21.6197 27.7281 23.7264 22.96 23.36C19.0157 22.4022 16.9357 19.8957 16.72 15.84C17.015 11.8655 19.095 9.4122 22.96 8.48C27.6408 8.12344 30.6273 10.1768 31.92 14.64Z"
            fill="#818F9C" />
        <path fill-rule="evenodd" clip-rule="evenodd"
            d="M10.1599 22.9598C8.9128 23.3471 7.6328 23.5071 6.31992 23.4398C5.66754 23.3006 5.02754 23.1138 4.39992 22.8798C1.82656 21.6689 0.333223 19.6689 -0.0800781 16.8798C-0.0800781 16.0265 -0.0800781 15.1731 -0.0800781 14.3198C1.35609 10.0352 4.34275 8.08856 8.87992 8.47976C13.344 9.59357 15.3973 12.4469 15.0399 17.0398C14.542 19.9626 12.9153 21.9359 10.1599 22.9598Z"
            fill="#07C2A4" />
        <path fill-rule="evenodd" clip-rule="evenodd"
            d="M8.24008 16.0803C8.24008 14.2136 8.24008 12.347 8.24008 10.4803C7.8134 10.4803 7.38675 10.4803 6.96008 10.4803C6.96008 12.347 6.96008 14.2136 6.96008 16.0803C6.80086 14.1888 6.74753 12.2688 6.80008 10.3203C7.3334 10.3203 7.86675 10.3203 8.40008 10.3203C8.45262 12.2688 8.39929 14.1888 8.24008 16.0803Z"
            fill="#7AE8D5" />
        <path fill-rule="evenodd" clip-rule="evenodd"
            d="M8.23996 16.0805C7.81329 16.0805 7.38663 16.0805 6.95996 16.0805C6.95996 14.2138 6.95996 12.3471 6.95996 10.4805C7.38663 10.4805 7.81329 10.4805 8.23996 10.4805C8.23996 12.3471 8.23996 14.2138 8.23996 16.0805Z"
            fill="#E5FEFE" />
        <path fill-rule="evenodd" clip-rule="evenodd"
            d="M7.12012 10.6396C7.44012 10.6396 7.76012 10.6396 8.08012 10.6396C8.08012 12.3463 8.08012 14.053 8.08012 15.7596C7.76012 15.7596 7.44012 15.7596 7.12012 15.7596C7.12012 14.053 7.12012 12.3463 7.12012 10.6396Z"
            fill="#FDFBFC" />
        <path fill-rule="evenodd" clip-rule="evenodd"
            d="M24.0801 15.2802C26.0249 15.1209 27.9983 15.0676 30.0001 15.1202C30.0497 15.6343 29.9964 16.1142 29.8401 16.5602C29.8401 16.1334 29.8401 15.7068 29.8401 15.2802C27.9201 15.2802 26.0001 15.2802 24.0801 15.2802Z"
            fill="#ABB7C2" />
        <path fill-rule="evenodd" clip-rule="evenodd"
            d="M24.0801 15.2803C26.0001 15.2803 27.9201 15.2803 29.8401 15.2803C29.8401 15.7069 29.8401 16.1336 29.8401 16.5603C27.9486 16.7195 26.0286 16.7728 24.0801 16.7203C24.0801 16.2403 24.0801 15.7603 24.0801 15.2803Z"
            fill="#F8F9FA" />
        <path fill-rule="evenodd" clip-rule="evenodd"
            d="M10.1601 22.96C10.1601 23.12 10.1601 23.28 10.1601 23.44C8.85336 23.5809 7.57336 23.5809 6.32007 23.44C7.63295 23.5073 8.91295 23.3473 10.1601 22.96Z"
            fill="#D4FAF8" />
    </g>
    <defs>
        <clipPath id="clip0_5498_45">
            <rect width="32" height="32" fill="white" />
        </clipPath>
    </defs>
</svg>