<svg width="32" height="32" viewBox="0 0 32 32" fill="none" xmlns="http://www.w3.org/2000/svg">
    <g clip-path="url(#clip0_5482_227)">
        <path fill-rule="evenodd" clip-rule="evenodd"
            d="M-0.0800781 -0.0800781C10.5866 -0.0800781 21.2532 -0.0800781 31.9199 -0.0800781C31.9199 10.5866 31.9199 21.2532 31.9199 31.9199C21.2532 31.9199 10.5866 31.9199 -0.0800781 31.9199C-0.0800781 21.2532 -0.0800781 10.5866 -0.0800781 -0.0800781Z"
            fill="#D4F2FD" />
        <path fill-rule="evenodd" clip-rule="evenodd"
            d="M20.8799 29.2001C20.2399 29.2001 19.5999 29.2001 18.9599 29.2001C19.0107 28.5278 18.9572 27.8878 18.7999 27.2801C18.7343 26.1003 18.6009 24.927 18.3999 23.7601C18.3507 23.6308 18.2707 23.5241 18.1599 23.4401C17.8159 23.704 17.4959 23.9972 17.1999 24.3201C15.9199 24.3734 14.6399 24.4268 13.3599 24.4801C11.532 25.66 9.66532 26.7534 7.75993 27.7601C7.33136 27.6904 6.90468 27.6104 6.47993 27.5201C6.66747 27.4531 6.82747 27.3465 6.95993 27.2001C5.15296 25.7668 3.39296 24.2736 1.67993 22.7201C2.1066 22.6134 2.53326 22.6134 2.95993 22.7201C4.61326 23.7601 6.2666 24.8001 7.91993 25.8401C8.0046 25.399 8.1646 24.999 8.39993 24.6401C11.3625 22.332 14.2958 19.9852 17.1999 17.6001C17.53 17.1984 17.77 16.7451 17.9199 16.2401C19.9467 14.2134 21.9732 12.1868 23.9999 10.1601C24.0532 8.18679 24.1067 6.21345 24.1599 4.24012C24.7559 3.82913 25.3694 3.45578 25.9999 3.12012C27.3811 3.27098 28.7676 3.32433 30.1599 3.28012C30.2116 3.87628 30.1582 4.46295 29.9999 5.04012C29.0531 5.60677 28.1198 6.19345 27.1999 6.80012C26.6502 9.64567 26.1435 12.499 25.6799 15.3601C26.1155 16.3379 26.5955 17.2979 27.1199 18.2401C27.0932 18.3201 27.0667 18.4001 27.0399 18.4801C26.8782 18.3462 26.6915 18.2929 26.4799 18.3201C26.515 18.5081 26.4617 18.6681 26.3199 18.8001C25.4675 18.5337 24.6142 18.2672 23.7599 18.0001C23.6092 18.0174 23.4759 18.0707 23.3599 18.1601C23.0678 19.4884 22.8012 20.8219 22.5599 22.1601C22.1203 22.4734 21.6668 22.7667 21.1999 23.0401C21.4932 23.4401 21.7867 23.8401 22.0799 24.2401C22.1716 25.2064 22.1182 26.1664 21.9199 27.1201C21.6607 27.3987 21.4207 27.6921 21.1999 28.0001C21.5199 28.3201 21.8399 28.6401 22.1599 28.9601C21.77 29.1801 21.3435 29.2601 20.8799 29.2001Z"
            fill="#1F354B" />
        <path fill-rule="evenodd" clip-rule="evenodd"
            d="M18.8 27.2803C18.9573 27.888 19.0108 28.528 18.96 29.2003C19.6 29.2003 20.24 29.2003 20.88 29.2003C20.2186 29.3579 19.5252 29.4112 18.8 29.3603C18.8 28.667 18.8 27.9736 18.8 27.2803Z"
            fill="#8CA7B8" />
    </g>
    <defs>
        <clipPath id="clip0_5482_227">
            <rect width="32" height="32" fill="white" />
        </clipPath>
    </defs>
</svg>