<svg width="32" height="32" viewBox="0 0 32 32" fill="none" xmlns="http://www.w3.org/2000/svg">
    <rect width="32" height="32" fill="#FAFAFA" />
    <path opacity="0.999" fill-rule="evenodd" clip-rule="evenodd"
        d="M8.55834 7.02747C11.1597 6.96145 13.3948 7.81745 15.2636 9.59547C15.9847 10.3271 16.7074 11.0604 17.432 11.7955C17.9308 12.2941 18.4295 12.7928 18.9283 13.2915C18.9936 13.3247 19.0496 13.37 19.0963 13.4275C19.7832 12.7567 20.4687 12.0767 21.1527 11.3875C22.5578 10.0746 24.2274 9.48798 26.1616 9.62747C28.1097 9.83686 29.6594 10.7249 30.8105 12.2915C31.9752 13.9935 32.2846 15.8441 31.7387 17.8435C31.2506 19.402 30.3197 20.618 28.9462 21.4915C27.3931 22.3937 25.7395 22.6363 23.9852 22.2195C22.9658 21.9455 22.0644 21.4602 21.2807 20.7635C20.5657 20.0346 19.8403 19.3066 19.1043 18.5795C17.7695 19.922 16.4307 21.2633 15.0876 22.6035C12.9332 24.5105 10.4208 25.2678 7.55015 24.8755C5.25244 24.4752 3.37208 23.3739 1.90909 21.5715C0.227765 19.3382 -0.34301 16.8422 0.196766 14.0835C0.846443 11.3712 2.39073 9.35253 4.82964 8.02747C6.00283 7.43157 7.24574 7.09824 8.55834 7.02747ZM10.6387 10.9155C10.6387 10.9368 10.6494 10.9475 10.6707 10.9475C11.3385 11.1665 11.9359 11.5052 12.4631 11.9635C13.8278 13.2959 15.1827 14.6399 16.5278 15.9955C15.1902 17.3542 13.8406 18.7035 12.4791 20.0435C11.1892 21.1222 9.70625 21.5328 8.03024 21.2755C6.48724 20.9646 5.28969 20.1512 4.43756 18.8355C3.64743 17.5244 3.43406 16.1217 3.79744 14.6275C4.19156 13.2715 4.98371 12.2128 6.17389 11.4515C7.58172 10.6237 9.07 10.4451 10.6387 10.9155ZM25.2975 13.2515C26.6745 13.1718 27.6427 13.7585 28.202 15.0115C28.513 15.9602 28.3849 16.8455 27.818 17.6675C27.1958 18.4494 26.3823 18.8147 25.3775 18.7635C24.7486 18.7075 24.199 18.4729 23.7292 18.0595C23.0406 17.3764 22.3579 16.6884 21.6808 15.9955C22.4104 15.2608 23.1465 14.5301 23.8892 13.8035C24.1673 13.6004 24.4714 13.4457 24.8014 13.3395C24.9691 13.3107 25.1344 13.2814 25.2975 13.2515Z"
        fill="#030659" />
</svg>