<svg width="32" height="32" viewBox="0 0 32 32" fill="none" xmlns="http://www.w3.org/2000/svg">
    <path opacity="0.992" fill-rule="evenodd" clip-rule="evenodd"
        d="M2.79243 13.0529C2.14446 12.7424 1.50846 12.4042 0.884399 12.0382C0.646145 11.8527 0.401521 11.6594 0.150542 11.4583C0.101623 9.67039 0.052689 7.88236 0.00377005 6.09447C-0.0181136 4.19669 0.0552722 2.31211 0.223927 0.44072C0.356389 0.266614 0.527627 0.145711 0.737628 0.0783006C3.05061 -0.0620283 5.35004 -0.013754 7.63589 0.223269C7.96965 0.563073 8.14093 0.973912 8.14959 1.4555C8.29284 5.81338 8.24396 10.1624 8.00282 14.5026C7.68682 14.7844 7.3199 14.8569 6.90203 14.7201C5.478 14.2821 4.10813 13.7264 2.79243 13.0529Z"
        fill="#F96018" />
    <path opacity="0.978" fill-rule="evenodd" clip-rule="evenodd"
        d="M31.4129 11.7482C31.2353 11.8108 31.0885 11.9075 30.9725 12.0382C28.9844 13.2491 26.8562 14.1672 24.588 14.7925C24.3099 14.7759 24.0652 14.6792 23.8541 14.5026C23.613 10.1624 23.5641 5.81338 23.7074 1.4555C23.7777 1.00262 23.9489 0.591922 24.2211 0.223269C26.5069 -0.013754 28.8063 -0.0620283 31.1193 0.0783006C31.5422 0.259655 31.8112 0.573656 31.9266 1.02059C32.0245 4.45155 32.0245 7.88236 31.9266 11.3133C31.7585 11.478 31.5872 11.623 31.4129 11.7482Z"
        fill="#F96018" />
    <path opacity="0.975" fill-rule="evenodd" clip-rule="evenodd"
        d="M29.9452 24.5053C28.6273 26.6283 26.9149 28.3679 24.8082 29.7241C18.1833 33.0856 11.7254 32.7232 5.43432 28.6368C4.51415 27.8014 3.68244 26.9075 2.9392 25.9549C2.52488 25.3308 2.10902 24.7027 1.69164 24.0704C1.48298 23.3926 1.2139 22.7403 0.884399 22.1133C3.05073 22.6798 5.2523 23.163 7.48912 23.563C13.8838 24.2566 19.9014 23.1211 25.542 20.1562C26.1747 19.8437 26.8109 19.5297 27.45 19.2139C28.944 18.1619 30.4117 17.0746 31.8532 15.9521C31.9813 18.973 31.3454 21.8239 29.9452 24.5053Z"
        fill="#F95F19" />
</svg>