<svg width="32" height="32" viewBox="0 0 32 32" fill="none" xmlns="http://www.w3.org/2000/svg">
    <path opacity="0.995" fill-rule="evenodd" clip-rule="evenodd"
        d="M21.0099 5.49495C20.788 5.46962 20.5724 5.49657 20.3634 5.57576C17.3636 7.20886 14.4545 8.95969 11.6361 10.8283C8.58302 12.4092 5.56618 14.0794 2.58562 15.8384C2.42405 19.4461 2.37019 23.0557 2.424 26.6667C2.20893 19.5822 2.20893 12.4711 2.424 5.33333C5.51142 3.58576 8.58213 1.80798 11.6361 0C14.7739 1.83719 17.8984 3.66883 21.0099 5.49495Z"
        fill="#86ADFE" />
    <path opacity="0.992" fill-rule="evenodd" clip-rule="evenodd"
        d="M21.0097 5.49456C24.0344 7.07395 26.9703 8.79786 29.8178 10.6663C29.9256 14.2218 29.9256 17.7774 29.8178 21.3329C26.834 23.2145 23.7902 24.9923 20.6865 26.6663C20.7925 22.9989 20.6847 19.3895 20.3633 15.838C17.4243 14.2289 14.5152 12.5588 11.636 10.8279C14.4544 8.9593 17.3635 7.20846 20.3633 5.57536C20.5722 5.49617 20.7878 5.46923 21.0097 5.49456Z"
        fill="#EC2B25" />
    <path opacity="0.993" fill-rule="evenodd" clip-rule="evenodd"
        d="M11.6361 10.8281C11.6091 14.2225 11.6361 17.6165 11.7169 21.0099C14.1562 19.6052 16.6074 18.2314 19.0704 16.8887C19.5538 16.5712 19.9847 16.2209 20.3634 15.8382C20.6848 19.3897 20.7926 22.9991 20.6866 26.6665C17.6112 28.3796 14.5675 30.1574 11.5553 31.9998C8.54983 30.1603 5.50607 28.3825 2.42398 26.6665C2.37016 23.0555 2.42403 19.446 2.5856 15.8382C5.56615 14.0792 8.583 12.4091 11.6361 10.8281Z"
        fill="#5886FE" />
</svg>