<svg width="32" height="32" viewBox="0 0 32 32" fill="none" xmlns="http://www.w3.org/2000/svg">
    <g clip-path="url(#clip0_5343_69)">
        <path opacity="0.082" fill-rule="evenodd" clip-rule="evenodd"
            d="M31.2001 20.3202C30.7734 20.4268 30.7734 20.5335 31.2001 20.6402C31.5173 22.8731 31.3039 25.2731 30.5601 27.8402C29.9176 29.7003 28.531 30.9269 26.4001 31.5202C26.2934 31.0935 26.1867 31.0935 26.0801 31.5202C25.7628 31.4652 25.5494 31.5719 25.4401 31.8402C18.9334 31.8402 12.4267 31.8402 5.92009 31.8402C5.81343 31.4135 5.70674 31.4135 5.60009 31.8402C5.38674 31.8402 5.17343 31.8402 4.96009 31.8402C2.70083 31.0217 1.10083 29.475 0.160088 27.2002C0.547896 26.846 0.44123 26.686 -0.159912 26.7202C-0.159912 26.6135 -0.159912 26.5068 -0.159912 26.4002C0.266754 26.2935 0.266754 26.1868 -0.159912 26.0802C-0.159912 25.9735 -0.159912 25.8668 -0.159912 25.7602C0.266754 25.5468 0.266754 25.3335 -0.159912 25.1202C-0.159912 18.9335 -0.159912 12.7468 -0.159912 6.56016C0.266754 6.4535 0.266754 6.34681 -0.159912 6.24016C-0.159912 6.1335 -0.159912 6.02681 -0.159912 5.92016C0.579989 2.67414 2.60666 0.807478 5.92009 0.320156C12.4267 0.106823 18.9334 0.106823 25.4401 0.320156C28.6428 0.696739 30.5628 2.45674 31.2001 5.60016C30.8387 10.4327 30.8387 15.3394 31.2001 20.3202Z"
            fill="#432702" />
        <path fill-rule="evenodd" clip-rule="evenodd"
            d="M21.6001 12.32C21.6001 12.1067 21.6001 11.8934 21.6001 11.68C21.6001 9.86666 21.6001 8.05335 21.6001 6.24001C19.7255 6.1369 17.9121 6.24356 16.1601 6.56001C15.9274 7.75178 16.3541 8.6051 17.4401 9.12001C17.7571 10.3825 17.8638 11.6625 17.7601 12.96C17.7601 13.0667 17.7601 13.1734 17.7601 13.28C17.5467 13.92 17.3334 14.56 17.1201 15.2C17.1731 13.7029 17.1198 12.2095 16.9601 10.72C16.8534 10.6134 16.7467 10.5067 16.6401 10.4C16.4807 11.3541 16.4274 12.3141 16.4801 13.28C16.4801 13.92 16.4801 14.56 16.4801 15.2C16.2667 14.4534 16.0534 13.7067 15.8401 12.96C15.8926 12.1001 15.8392 11.2467 15.6801 10.4C15.5734 10.5067 15.4667 10.6134 15.3601 10.72C15.3048 12.5914 15.1448 14.4048 14.8801 16.16C14.8801 15.3067 14.8801 14.4534 14.8801 13.6C14.9329 12.528 14.8795 11.4614 14.7201 10.4C14.2671 11.5066 14.1071 12.68 14.2401 13.92C14.2929 15.0982 14.2396 16.2715 14.0801 17.44C13.9081 15.9453 13.7481 14.452 13.6001 12.96C13.217 11.0486 13.697 9.44855 15.0401 8.16001C15.1986 7.52874 15.2519 6.88874 15.2001 6.24001C13.3867 6.24001 11.5734 6.24001 9.76005 6.24001C9.76005 8.48001 9.76005 10.72 9.76005 12.96C9.64108 14.8576 9.85442 16.671 10.4001 18.4C10.9102 19.4446 11.6569 20.2979 12.6401 20.96C12.4253 21.3911 12.4253 21.7644 12.6401 22.08C12.3363 22.2775 12.0697 22.2242 11.8401 21.92C11.1643 22.5939 10.5243 22.4873 9.92005 21.6C9.8134 21.8134 9.70671 22.0267 9.60005 22.24C9.03093 21.9267 8.49759 22.0334 8.00005 22.56C7.50252 22.0334 6.96917 21.9267 6.40005 22.24C6.18671 22.0267 5.9734 21.8134 5.76005 21.6C5.35192 22.3095 5.03192 23.0562 4.80005 23.84C4.48005 23.4134 4.16005 23.4134 3.84005 23.84C3.58383 24.7574 3.63714 25.6108 4.00005 26.4C4.37068 27.463 5.11736 28.1563 6.24005 28.48C12.6401 28.6934 19.0401 28.6934 25.4401 28.48C26.4452 28.2513 27.0852 27.6647 27.3601 26.72C27.5576 26.6846 27.7176 26.5779 27.8401 26.4C27.8438 24.738 28.1104 23.138 28.6401 21.6C28.9586 23.4009 29.0653 25.2142 28.9601 27.04C28.4867 28.6144 27.42 29.5211 25.7601 29.76C19.0401 29.9734 12.3201 29.9734 5.60005 29.76C3.97663 29.3102 2.85662 28.2969 2.24005 26.72C2.08006 19.8942 2.02673 13.0675 2.08005 6.24001C2.27763 6.20458 2.43763 6.09793 2.56005 5.92001C2.69401 6.29508 2.90734 6.61508 3.20005 6.88001C3.8934 5.76001 4.80005 4.85335 5.92005 4.16001C12.4267 3.94666 18.9334 3.94666 25.4401 4.16001C26.4127 4.49006 27.2127 5.07671 27.8401 5.92001C27.8766 7.4427 28.1966 8.82935 28.8001 10.08C28.4801 10.5067 28.1601 10.5067 27.8401 10.08C27.4122 10.5612 26.8789 10.8812 26.2401 11.04C26.1334 10.8267 26.0267 10.6134 25.9201 10.4C25.7872 10.9731 25.4672 11.3998 24.9601 11.68C24.7467 11.2534 24.5334 11.2534 24.3201 11.68C24.0274 10.5008 23.8141 10.6074 23.6801 12C23.2742 11.963 22.8476 11.8563 22.4001 11.68C22.2666 12.0819 22 12.2952 21.6001 12.32Z"
            fill="#F0EFEF" />
        <path fill-rule="evenodd" clip-rule="evenodd"
            d="M16.1599 6.56016C17.912 6.24371 19.7254 6.13705 21.5999 6.24016C21.5999 8.0535 21.5999 9.86681 21.5999 11.6802C21.2837 10.0352 21.1771 8.32854 21.2799 6.56016C19.5733 6.56016 17.8666 6.56016 16.1599 6.56016Z"
            fill="#E89F7B" />
        <path fill-rule="evenodd" clip-rule="evenodd"
            d="M13.6 12.9602C12.3473 12.8672 11.0673 12.8672 9.76001 12.9602C9.76001 10.7202 9.76001 8.48023 9.76001 6.24023C11.5734 6.24023 13.3867 6.24023 15.2 6.24023C15.2519 6.88897 15.1986 7.52897 15.04 8.16023C13.697 9.44878 13.217 11.0488 13.6 12.9602Z"
            fill="#F08C59" />
        <path fill-rule="evenodd" clip-rule="evenodd"
            d="M16.1599 6.56006C17.8666 6.56006 19.5733 6.56006 21.2799 6.56006C21.1771 8.32844 21.2837 10.0351 21.5999 11.6801C21.5999 11.8934 21.5999 12.1067 21.5999 12.3201C21.7022 13.8763 21.5955 15.3697 21.2799 16.8001C21.2799 16.2667 21.2799 15.7334 21.2799 15.2001C21.3802 14.3211 21.2735 13.4677 20.9599 12.6401C20.0414 12.8391 19.1348 13.0524 18.2399 13.2801C18.1175 13.1021 17.9575 12.9955 17.7599 12.9601C17.8637 11.6626 17.757 10.3826 17.4399 9.12006C16.354 8.60515 15.9273 7.75183 16.1599 6.56006Z"
            fill="#F08B56" />
        <path fill-rule="evenodd" clip-rule="evenodd"
            d="M14.8801 13.5999C14.6667 13.7066 14.4534 13.8132 14.2401 13.9199C14.1071 12.6799 14.2671 11.5065 14.7201 10.3999C14.8795 11.4613 14.9329 12.5279 14.8801 13.5999Z"
            fill="#E99064" />
        <path fill-rule="evenodd" clip-rule="evenodd"
            d="M28.9601 27.0401C29.0653 25.2143 28.9586 23.401 28.6401 21.6001C28.1104 23.1381 27.8438 24.7381 27.8401 26.4001C27.7176 26.578 27.5576 26.6847 27.3601 26.7201C25.4623 26.6653 23.5956 26.772 21.7601 27.0401C21.2842 26.7991 21.2309 26.5325 21.6001 26.2401C22.1125 26.1526 22.5925 25.9926 23.0401 25.7601C23.1467 25.9734 23.2534 26.1867 23.3601 26.4001C23.5734 25.9734 23.7867 25.9734 24.0001 26.4001C24.4168 26.2129 24.7902 25.9996 25.1201 25.7601C25.1917 25.0283 25.4051 24.335 25.7601 23.6801C25.6481 23.2777 25.4348 23.171 25.1201 23.3601C24.6937 24.8109 24.3737 24.7575 24.1601 23.2001C23.8401 23.2001 23.5201 23.2001 23.2001 23.2001C22.8801 23.2001 22.5601 23.2001 22.2401 23.2001C21.6001 23.2001 20.9601 23.2001 20.3201 23.2001C20.0612 23.7736 19.9012 24.4136 19.8401 25.1201C19.6833 24.7063 19.6299 24.2796 19.6801 23.8401C19.1108 23.2502 18.3642 23.0368 17.4401 23.2001C17.2267 23.4134 17.0134 23.6267 16.8001 23.8401C16.3464 23.2615 15.7064 23.0482 14.8801 23.2001C14.5601 22.7734 14.2401 22.7734 13.9201 23.2001C13.1734 23.2001 12.4267 23.2001 11.6801 23.2001C11.4667 23.4134 11.2534 23.6267 11.0401 23.8401C10.6315 23.3928 10.0982 23.1795 9.44008 23.2001C8.95061 23.2448 8.63061 23.4582 8.48008 23.8401C8.26673 23.6267 8.05342 23.4134 7.84008 23.2001C7.26155 23.6538 7.04821 24.2938 7.20008 25.1201C6.88008 25.1201 6.56008 25.1201 6.24008 25.1201C6.24008 24.4801 6.24008 23.8401 6.24008 23.2001C5.92008 23.2001 5.60008 23.2001 5.28008 23.2001C5.28008 23.9467 5.28008 24.6934 5.28008 25.4401C5.35016 25.8161 5.2435 26.1361 4.96008 26.4001C4.63137 25.9868 4.31137 25.9868 4.00008 26.4001C3.63717 25.6108 3.58385 24.7575 3.84008 23.8401C4.16008 23.4134 4.48008 23.4134 4.80008 23.8401C5.03195 23.0563 5.35195 22.3096 5.76008 21.6001C5.97342 21.8134 6.18673 22.0267 6.40008 22.2401C6.9692 21.9268 7.50254 22.0334 8.00008 22.5601C8.49761 22.0334 9.03096 21.9268 9.60008 22.2401C9.70673 22.0267 9.81342 21.8134 9.92008 21.6001C10.5243 22.4873 11.1643 22.594 11.8401 21.9201C12.0697 22.2243 12.3364 22.2776 12.6401 22.0801C12.4253 21.7645 12.4253 21.3912 12.6401 20.9601C15.4418 22.1451 17.9485 21.7184 20.1601 19.6801C20.8919 18.857 21.2652 17.897 21.2801 16.8001C21.5956 15.3697 21.7023 13.8763 21.6001 12.3201C22 12.2953 22.2667 12.082 22.4001 11.6801C22.8476 11.8564 23.2743 11.963 23.6801 12.0001C23.8141 10.6075 24.0274 10.5008 24.3201 11.6801C24.5334 11.2534 24.7467 11.2534 24.9601 11.6801C25.4672 11.3999 25.7872 10.9732 25.9201 10.4001C26.0267 10.6134 26.1334 10.8267 26.2401 11.0401C26.8789 10.8813 27.4123 10.5613 27.8401 10.0801C28.1601 10.5067 28.4801 10.5067 28.8001 10.0801C28.1967 8.82942 27.8767 7.44277 27.8401 5.92008C27.2127 5.07678 26.4127 4.49013 25.4401 4.16008C18.9334 3.94673 12.4267 3.94673 5.92008 4.16008C4.80008 4.85342 3.89342 5.76008 3.20008 6.88008C2.90737 6.61515 2.69404 6.29515 2.56008 5.92008C2.43765 6.098 2.27765 6.20465 2.08008 6.24008C2.35351 4.30936 3.42017 2.97602 5.28008 2.24008C12.2134 2.02674 19.1467 2.02674 26.0801 2.24008C27.8918 2.98567 29.0118 4.31899 29.4401 6.24008C29.6534 12.8534 29.6534 19.4667 29.4401 26.0801C29.3658 26.4761 29.2058 26.7961 28.9601 27.0401Z"
            fill="#E7E6E6" />
        <path fill-rule="evenodd" clip-rule="evenodd"
            d="M13.6 12.9601C13.748 14.4521 13.908 15.9454 14.08 17.4401C14.2395 16.2716 14.2929 15.0983 14.24 13.9201C14.4533 13.8135 14.6666 13.7068 14.88 13.6001C14.88 14.4535 14.88 15.3068 14.88 16.1601C14.8281 16.8089 14.8814 17.4489 15.04 18.0801C15.1466 17.8668 15.2533 17.6535 15.36 17.4401C15.4158 15.8877 15.5758 14.3943 15.84 12.9601C15.7869 14.5637 15.8402 16.1637 16 17.7601C16.1066 17.8668 16.2133 17.9735 16.32 18.0801C16.4793 17.126 16.5326 16.166 16.48 15.2001C16.48 14.5601 16.48 13.9201 16.48 13.2801C16.6933 14.0268 16.9066 14.7735 17.12 15.5201C17.0677 16.2743 17.1211 17.021 17.28 17.7601C17.5981 16.2824 17.7581 14.789 17.76 13.2801C17.76 13.1735 17.76 13.0668 17.76 12.9601C17.9575 12.9956 18.1175 13.1022 18.24 13.2801C19.1348 13.0525 20.0414 12.8392 20.96 12.6401C21.2736 13.4678 21.3803 14.3211 21.28 15.2001C21.0824 15.2356 20.9224 15.3422 20.8 15.5201C20.591 18.6085 18.9909 20.5285 16 21.2801C15.3883 21.2017 14.7483 21.2017 14.08 21.2801C12.8602 20.2752 11.6335 19.3152 10.4 18.4001C9.85434 16.6711 9.641 14.8577 9.75997 12.9601C11.0673 12.8671 12.3473 12.8671 13.6 12.9601Z"
            fill="#EF6624" />
        <path fill-rule="evenodd" clip-rule="evenodd"
            d="M17.1201 15.1999C17.1201 15.3066 17.1201 15.4132 17.1201 15.5199C16.9067 14.7732 16.6934 14.0266 16.4801 13.2799C16.4274 12.314 16.4807 11.354 16.6401 10.3999C16.7467 10.5066 16.8534 10.6132 16.9601 10.7199C17.1198 12.2094 17.1731 13.7028 17.1201 15.1999Z"
            fill="#E78B5D" />
        <path fill-rule="evenodd" clip-rule="evenodd"
            d="M17.76 13.2798C17.7581 14.7887 17.5981 16.282 17.28 17.7598C17.1211 17.0206 17.0677 16.274 17.12 15.5198C17.12 15.4131 17.12 15.3064 17.12 15.1998C17.3333 14.5598 17.5466 13.9198 17.76 13.2798Z"
            fill="#ECB498" />
        <path fill-rule="evenodd" clip-rule="evenodd"
            d="M15.84 12.9599C15.5759 14.3941 15.4159 15.8875 15.36 17.4399C15.2534 17.6532 15.1467 17.8666 15.04 18.0799C14.8815 17.4486 14.8282 16.8086 14.88 16.1599C15.1447 14.4047 15.3047 12.5913 15.36 10.7199C15.4667 10.6132 15.5734 10.5066 15.68 10.3999C15.8392 11.2466 15.8925 12.1 15.84 12.9599Z"
            fill="#EC9265" />
        <path fill-rule="evenodd" clip-rule="evenodd"
            d="M15.8399 12.96C16.0533 13.7066 16.2666 14.4533 16.4799 15.2C16.5326 16.1658 16.4793 17.1258 16.3199 18.08C16.2133 17.9733 16.1066 17.8666 15.9999 17.76C15.8402 16.1635 15.7868 14.5635 15.8399 12.96Z"
            fill="#EA9266" />
        <path fill-rule="evenodd" clip-rule="evenodd"
            d="M21.2799 15.2002C21.2799 15.7335 21.2799 16.2669 21.2799 16.8002C21.265 17.8971 20.8917 18.8571 20.1599 19.6802C17.9483 21.7186 15.4416 22.1452 12.6399 20.9602C11.6567 20.2981 10.91 19.4447 10.3999 18.4002C11.6335 19.3153 12.8601 20.2753 14.0799 21.2802C14.7483 21.2018 15.3883 21.2018 15.9999 21.2802C18.9909 20.5285 20.5909 18.6085 20.7999 15.5202C20.9223 15.3423 21.0823 15.2356 21.2799 15.2002Z"
            fill="#D46129" />
        <path opacity="0.016" fill-rule="evenodd" clip-rule="evenodd"
            d="M31.2 20.3198C31.6266 20.5332 31.6266 20.5332 31.2 20.3198Z" fill="#422701" />
        <path fill-rule="evenodd" clip-rule="evenodd"
            d="M7.84003 23.2002C8.25465 25.6743 7.40131 26.421 5.28003 25.4402C5.28003 24.6935 5.28003 23.9469 5.28003 23.2002C5.60003 23.2002 5.92003 23.2002 6.24003 23.2002C6.24003 23.8402 6.24003 24.4802 6.24003 25.1202C6.56003 25.1202 6.88003 25.1202 7.20003 25.1202C7.04816 24.2939 7.2615 23.6539 7.84003 23.2002Z"
            fill="#F27539" />
        <path fill-rule="evenodd" clip-rule="evenodd"
            d="M23.2 23.2002C23.52 23.2002 23.84 23.2002 24.16 23.2002C24.3736 24.7576 24.6936 24.811 25.12 23.3602C25.4347 23.1711 25.648 23.2778 25.76 23.6802C25.4049 24.3351 25.1916 25.0285 25.12 25.7602C24.6933 25.7602 24.2666 25.7602 23.84 25.7602C23.6919 24.8895 23.4785 24.0361 23.2 23.2002Z"
            fill="#6E4223" />
        <path opacity="0.996" fill-rule="evenodd" clip-rule="evenodd"
            d="M14.88 23.1999C14.3544 24.3912 14.7811 25.0312 16.16 25.1199C15.6425 25.1741 15.1091 25.2808 14.56 25.4399C15.1845 26.0904 15.8778 26.1971 16.64 25.7599C16.8823 24.8077 16.509 24.221 15.52 23.9999C15.9338 23.8431 16.3605 23.7897 16.8 23.8399C17.0133 23.6265 17.2267 23.4132 17.44 23.1999C17.44 24.1599 17.44 25.1199 17.44 26.0799C18.2157 26.1783 18.9623 26.0716 19.68 25.7599C19.1467 25.5465 18.6133 25.3332 18.08 25.1199C18.5067 24.9065 18.9333 24.6932 19.36 24.4799C18.1203 23.9991 18.227 23.7858 19.68 23.8399C19.6299 24.2794 19.6832 24.7061 19.84 25.1199C19.9011 24.4134 20.0611 23.7734 20.32 23.1999C20.32 24.0532 20.32 24.9065 20.32 25.7599C20.3953 25.9508 20.5553 26.0575 20.8 26.0799C21.1236 25.9021 21.3902 25.6888 21.6 25.4399C21.8954 25.6968 22.2154 25.7501 22.56 25.5999C22.5732 24.8119 22.4666 24.0119 22.24 23.1999C22.56 23.1999 22.88 23.1999 23.2 23.1999C23.4786 24.0358 23.6919 24.8892 23.84 25.7599C24.2667 25.7599 24.6933 25.7599 25.12 25.7599C24.7901 25.9994 24.4168 26.2127 24 26.3999C23.7867 25.9732 23.5733 25.9732 23.36 26.3999C23.2533 26.1865 23.1467 25.9732 23.04 25.7599C22.5924 25.9924 22.1124 26.1524 21.6 26.2399C21.2308 26.5323 21.2842 26.7989 21.76 27.0399C23.5956 26.7718 25.4622 26.6651 27.36 26.7199C27.0852 27.6645 26.4452 28.2512 25.44 28.4799C19.04 28.6932 12.64 28.6932 6.24 28.4799C5.11731 28.1561 4.37062 27.4628 4 26.3999C4.3113 25.9866 4.6313 25.9866 4.96 26.3999C5.24342 26.1359 5.35008 25.8159 5.28 25.4399C7.40128 26.4207 8.25462 25.674 7.84 23.1999C8.05334 23.4132 8.26666 23.6265 8.48 23.8399C8.48 24.5865 8.48 25.3332 8.48 26.0799C8.8 26.0799 9.12 26.0799 9.44 26.0799C9.39216 25.7432 9.4455 25.4232 9.6 25.1199C9.84928 25.5129 10.1693 25.8329 10.56 26.0799C10.72 25.9732 10.88 25.8665 11.04 25.7599C10.8005 25.1468 10.8005 24.5068 11.04 23.8399C11.2533 23.6265 11.4667 23.4132 11.68 23.1999C11.68 24.1599 11.68 25.1199 11.68 26.0799C12.4267 26.0799 13.1733 26.0799 13.92 26.0799C13.92 25.7599 13.92 25.4399 13.92 25.1199C12.2619 25.1015 12.2619 24.8882 13.92 24.4799C13.5268 24.2299 13.1002 24.0699 12.64 23.9999C13.2598 23.961 13.6865 23.6943 13.92 23.1999C14.24 22.7732 14.56 22.7732 14.88 23.1999Z"
            fill="#CDCAC8" />
        <path fill-rule="evenodd" clip-rule="evenodd"
            d="M11.6799 23.2002C12.4266 23.2002 13.1733 23.2002 13.9199 23.2002C13.6864 23.6946 13.2598 23.9613 12.6399 24.0002C13.1001 24.0702 13.5267 24.2302 13.9199 24.4802C12.2618 24.8885 12.2618 25.1019 13.9199 25.1202C13.9199 25.4402 13.9199 25.7602 13.9199 26.0802C13.1733 26.0802 12.4266 26.0802 11.6799 26.0802C11.6799 25.1202 11.6799 24.1602 11.6799 23.2002Z"
            fill="#7C5438" />
        <path fill-rule="evenodd" clip-rule="evenodd"
            d="M21.6001 25.4398C21.3903 25.6887 21.1236 25.9021 20.8001 26.0798C20.5553 26.0575 20.3953 25.9508 20.3201 25.7598C20.8986 25.3061 21.1119 24.6661 20.9601 23.8398C21.2801 23.8398 21.6001 23.8398 21.9201 23.8398C21.9648 24.3595 21.7515 24.7328 21.2801 24.9598C21.458 25.0823 21.5646 25.2423 21.6001 25.4398Z"
            fill="#9A7E6A" />
        <path fill-rule="evenodd" clip-rule="evenodd"
            d="M17.4399 23.2001C18.364 23.0368 19.1107 23.2501 19.6799 23.8401C18.2269 23.7859 18.1203 23.9993 19.3599 24.4801C18.9333 24.6934 18.5066 24.9067 18.0799 25.1201C18.6133 25.3334 19.1466 25.5467 19.6799 25.7601C18.9623 26.0718 18.2156 26.1785 17.4399 26.0801C17.4399 25.1201 17.4399 24.1601 17.4399 23.2001Z"
            fill="#704527" />
        <path fill-rule="evenodd" clip-rule="evenodd"
            d="M20.3201 23.2002C20.9601 23.2002 21.6001 23.2002 22.2401 23.2002C22.4666 24.0122 22.5733 24.8122 22.5601 25.6002C22.2155 25.7505 21.8955 25.6971 21.6001 25.4402C21.5646 25.2426 21.458 25.0826 21.2801 24.9602C21.7515 24.7331 21.9648 24.3598 21.9201 23.8402C21.6001 23.8402 21.2801 23.8402 20.9601 23.8402C21.1119 24.6665 20.8986 25.3065 20.3201 25.7602C20.3201 24.9069 20.3201 24.0535 20.3201 23.2002Z"
            fill="#653716" />
        <path fill-rule="evenodd" clip-rule="evenodd"
            d="M14.8801 23.2002C15.7063 23.0483 16.3463 23.2617 16.8001 23.8402C16.3606 23.7901 15.9339 23.8434 15.5201 24.0002C16.5091 24.2213 16.8824 24.808 16.6401 25.7602C15.8779 26.1974 15.1845 26.0908 14.5601 25.4402C15.1092 25.2811 15.6425 25.1744 16.1601 25.1202C14.7811 25.0316 14.3545 24.3916 14.8801 23.2002Z"
            fill="#73492B" />
        <path fill-rule="evenodd" clip-rule="evenodd"
            d="M11.04 23.8401C10.8005 24.507 10.8005 25.147 11.04 25.7601C10.88 25.8667 10.72 25.9734 10.56 26.0801C10.1693 25.8331 9.84926 25.5131 9.59998 25.1201C9.44548 25.4234 9.39214 25.7434 9.43998 26.0801C9.11998 26.0801 8.79998 26.0801 8.47998 26.0801C8.47998 25.3334 8.47998 24.5867 8.47998 23.8401C8.63051 23.4582 8.95051 23.2449 9.43998 23.2001C10.0981 23.1795 10.6314 23.3929 11.04 23.8401Z"
            fill="#795033" />
        <path opacity="0.996" fill-rule="evenodd" clip-rule="evenodd"
            d="M9.44001 23.8398C10.0278 23.8845 10.1345 24.0978 9.76001 24.4798C9.50481 24.3336 9.39812 24.1203 9.44001 23.8398Z"
            fill="#C4BDBA" />
        <path opacity="0.016" fill-rule="evenodd" clip-rule="evenodd"
            d="M27.6799 31.2002C28.1066 31.4135 28.1066 31.4135 27.6799 31.2002Z" fill="#422701" />
        <path opacity="0.016" fill-rule="evenodd" clip-rule="evenodd"
            d="M26.0801 31.52C26.1867 31.52 26.2934 31.52 26.4001 31.52C26.4001 31.6267 26.4001 31.7334 26.4001 31.84C26.2934 31.7334 26.1867 31.6267 26.0801 31.52Z"
            fill="#422701" />
    </g>
    <defs>
        <clipPath id="clip0_5343_69">
            <rect width="32" height="32" fill="white" />
        </clipPath>
    </defs>
</svg>