<svg width="32" height="32" viewBox="0 0 32 32" fill="none" xmlns="http://www.w3.org/2000/svg">
    <g clip-path="url(#clip0_5213_45)">
        <path fill-rule="evenodd" clip-rule="evenodd"
            d="M-0.0712891 -0.0712891C5.23834 -0.0712891 10.548 -0.0712891 15.8576 -0.0712891C15.8576 5.28575 15.8576 10.6428 15.8576 15.9998C15.8576 21.3094 15.8576 26.6191 15.8576 31.9287C15.3361 31.9287 14.8147 31.9287 14.2932 31.9287C7.40721 30.8508 2.83241 27.0108 0.568711 20.4087C0.306487 19.2596 0.0931532 18.1218 -0.0712891 16.9954C-0.0712891 11.3065 -0.0712891 5.6176 -0.0712891 -0.0712891Z"
            fill="#FF3665" />
        <path fill-rule="evenodd" clip-rule="evenodd"
            d="M15.8579 -0.0712891C18.1808 -0.0712891 20.5039 -0.0712891 22.8268 -0.0712891C18.0602 1.14321 15.7847 4.22469 16.0001 9.17316C16.0001 11.4013 16.0001 13.6294 16.0001 15.8576C18.1808 15.8576 20.3617 15.8576 22.5424 15.8576C23.443 15.8576 24.3439 15.8576 25.2446 15.8576C27.4728 15.8576 29.7008 15.8576 31.929 15.8576C31.929 15.905 31.929 15.9525 31.929 15.9998C26.5719 15.9998 21.215 15.9998 15.8579 15.9998C15.8579 10.6428 15.8579 5.28575 15.8579 -0.0712891Z"
            fill="#F8EBF3" />
        <path fill-rule="evenodd" clip-rule="evenodd"
            d="M22.8265 -0.0712891C23.3954 -0.0712891 23.9643 -0.0712891 24.5332 -0.0712891C28.1989 0.439853 30.5931 2.47837 31.7154 6.04427C31.7414 6.45169 31.8125 6.83095 31.9287 7.18204C31.9287 7.65611 31.9287 8.1302 31.9287 8.60427C31.3278 12.5236 29.0998 14.9414 25.2443 15.8576C24.3436 15.8576 23.4427 15.8576 22.542 15.8576C19.0202 14.9433 16.8395 12.715 15.9998 9.17316C15.7844 4.22469 18.0599 1.14321 22.8265 -0.0712891Z"
            fill="#FFC329" />
        <path fill-rule="evenodd" clip-rule="evenodd"
            d="M24.5332 -0.0712891C26.9983 -0.0712891 29.4636 -0.0712891 31.9288 -0.0712891C31.9288 2.34649 31.9288 4.76427 31.9288 7.18204C31.8126 6.83095 31.7415 6.45169 31.7154 6.04427C30.5931 2.47837 28.199 0.439853 24.5332 -0.0712891Z"
            fill="#FFFDFB" />
        <path fill-rule="evenodd" clip-rule="evenodd"
            d="M31.9291 8.60449C31.9291 11.0223 31.9291 13.44 31.9291 15.8578C29.7009 15.8578 27.4728 15.8578 25.2446 15.8578C29.1001 14.9416 31.3282 12.5238 31.9291 8.60449Z"
            fill="#FFFDFB" />
        <path fill-rule="evenodd" clip-rule="evenodd"
            d="M16 9.17285C16.8397 12.7147 19.0204 14.9429 22.5422 15.8573C20.3615 15.8573 18.1807 15.8573 16 15.8573C16 13.6291 16 11.401 16 9.17285Z"
            fill="#FFFDFB" />
        <path fill-rule="evenodd" clip-rule="evenodd"
            d="M15.8579 16C21.215 16 26.5719 16 31.929 16C31.929 16.2844 31.929 16.5689 31.929 16.8533C31.1498 23.8683 27.452 28.6327 20.8357 31.1467C19.5132 31.5344 18.1858 31.7951 16.8535 31.9289C16.5217 31.9289 16.1897 31.9289 15.8579 31.9289C15.8579 26.6193 15.8579 21.3096 15.8579 16Z"
            fill="#5953FE" />
        <path fill-rule="evenodd" clip-rule="evenodd"
            d="M31.9291 16.8535C31.9291 21.8787 31.9291 26.9039 31.9291 31.9291C26.9039 31.9291 21.8787 31.9291 16.8535 31.9291C18.1859 31.7952 19.5132 31.5345 20.8357 31.1468C27.4521 28.6329 31.1498 23.8685 31.9291 16.8535Z"
            fill="#FDFDFF" />
        <path fill-rule="evenodd" clip-rule="evenodd"
            d="M-0.0712891 16.9951C0.0931532 18.1215 0.306487 19.2593 0.568711 20.4085C2.83241 27.0105 7.40721 30.8505 14.2932 31.9285C9.505 31.9285 4.71686 31.9285 -0.0712891 31.9285C-0.0712891 26.9507 -0.0712891 21.9729 -0.0712891 16.9951Z"
            fill="#FFFDFE" />
    </g>
    <defs>
        <clipPath id="clip0_5213_45">
            <rect width="32" height="32" fill="white" />
        </clipPath>
    </defs>
</svg>