<svg width="32" height="32" viewBox="0 0 32 32" fill="none" xmlns="http://www.w3.org/2000/svg">
    <g clip-path="url(#clip0_5086_871)">
        <path opacity="0.947" fill-rule="evenodd" clip-rule="evenodd"
            d="M8.5 -0.5C13.1667 -0.5 17.8333 -0.5 22.5 -0.5C25.8333 2.16667 28.8333 5.16667 31.5 8.5C31.5 13.1667 31.5 17.8333 31.5 22.5C28.8333 25.8333 25.8333 28.8333 22.5 31.5C17.8333 31.5 13.1667 31.5 8.5 31.5C5.16667 28.8333 2.16667 25.8333 -0.5 22.5C-0.5 17.8333 -0.5 13.1667 -0.5 8.5C2.16667 5.16667 5.16667 2.16667 8.5 -0.5Z"
            fill="#4D8CFA" />
        <path fill-rule="evenodd" clip-rule="evenodd"
            d="M9.50033 8.5C11.2606 11.7006 12.0939 15.3673 12.0003 19.5C14.3336 22.1667 16.667 22.1667 19.0003 19.5C19.175 15.789 19.675 12.1224 20.5003 8.5C21.6602 12.4589 21.8268 16.4589 21.0003 20.5C17.3336 24.5 13.667 24.5 10.0003 20.5C9.50148 16.5138 9.33482 12.5138 9.50033 8.5Z"
            fill="#F3F7FE" />
    </g>
    <defs>
        <clipPath id="clip0_5086_871">
            <rect width="32" height="32" fill="white" />
        </clipPath>
    </defs>
</svg>