<svg width="32" height="32" viewBox="0 0 32 32" fill="none" xmlns="http://www.w3.org/2000/svg">
    <g clip-path="url(#clip0_5238_770)">
        <path fill-rule="evenodd" clip-rule="evenodd"
            d="M-0.0703125 -0.0722656C10.5964 -0.0722656 21.263 -0.0722656 31.9297 -0.0722656C31.9297 10.5944 31.9297 21.2611 31.9297 31.9277C21.263 31.9277 10.5964 31.9277 -0.0703125 31.9277C-0.0703125 21.2611 -0.0703125 10.5944 -0.0703125 -0.0722656Z"
            fill="#FEFEFE" />
        <path fill-rule="evenodd" clip-rule="evenodd"
            d="M29.6742 20.5402C29.357 19.8578 29.1689 19.1371 29.1103 18.378C28.0499 14.6278 26.8752 10.9282 25.5861 7.27893C22.5788 7.27893 19.5713 7.27893 16.564 7.27893C14.4026 7.27893 12.241 7.27893 10.0795 7.27893C8.81074 7.27893 7.54202 7.27893 6.27329 7.27893C5.70942 7.27893 5.14554 7.27893 4.58166 7.27893C4.63585 7.92905 4.72984 8.55367 4.8636 9.1528C5.70564 12.9928 8.00813 15.3471 11.7711 16.2159C12.0682 16.3554 12.3971 16.4035 12.7579 16.36C14.0266 16.36 15.2953 16.36 16.564 16.36C16.564 17.4652 16.564 18.5702 16.564 19.6753C16.564 23.3269 16.564 26.9787 16.564 30.6303C9.47955 30.6691 4.61612 27.3056 1.97374 20.5402C0.15819 13.9562 1.77934 8.45469 6.83717 4.03569C11.3557 0.671331 16.2426 -0.00134204 21.498 2.01767C28.1655 5.34515 31.1023 10.7986 30.3085 18.378C30.1594 19.1357 29.9479 19.8564 29.6742 20.5402Z"
            fill="#F5C444" />
        <path fill-rule="evenodd" clip-rule="evenodd"
            d="M6.27297 7.2793C7.5417 7.2793 8.81042 7.2793 10.0791 7.2793C10.9599 10.1895 11.8057 13.1204 12.6166 16.0721C12.3678 16.2106 12.0859 16.2588 11.7708 16.2162C8.00781 15.3475 5.70532 12.9931 4.86328 9.15317C5.63827 8.76988 6.10818 8.14524 6.27297 7.2793Z"
            fill="#FDFCFB" />
        <path fill-rule="evenodd" clip-rule="evenodd"
            d="M6.27317 7.2793C6.10838 8.14524 5.63847 8.76988 4.86348 9.15317C4.72972 8.55404 4.63573 7.92942 4.58154 7.2793C5.14542 7.2793 5.7093 7.2793 6.27317 7.2793Z"
            fill="#384750" />
        <path fill-rule="evenodd" clip-rule="evenodd"
            d="M10.0791 7.2793C12.2406 7.2793 14.4022 7.2793 16.5637 7.2793C16.5637 10.3063 16.5637 13.3334 16.5637 16.3604C15.295 16.3604 14.0262 16.3604 12.7575 16.3604C12.7817 16.2174 12.7347 16.1214 12.6165 16.0721C11.8057 13.1204 10.9599 10.1895 10.0791 7.2793Z"
            fill="#AC7B57" />
        <path fill-rule="evenodd" clip-rule="evenodd"
            d="M16.564 7.2793C19.5713 7.2793 22.5787 7.2793 25.586 7.2793C25.586 10.9309 25.586 14.5826 25.586 18.2343C25.6573 19.0954 25.5164 19.9122 25.1631 20.6847C25.1631 20.7327 25.1631 20.7808 25.1631 20.8288C23.8547 22.8136 22.0222 23.5582 19.6653 23.0631C19.1491 22.7992 18.6321 22.5349 18.1146 22.2703C17.6321 21.682 17.2092 21.0575 16.8459 20.3964C16.8597 20.1005 16.7657 19.8602 16.564 19.6757C16.564 18.5705 16.564 17.4655 16.564 16.3604C16.564 13.3334 16.564 10.3063 16.564 7.2793Z"
            fill="#85523E" />
        <path fill-rule="evenodd" clip-rule="evenodd"
            d="M25.5859 7.2793C26.8751 10.9285 28.0498 14.6282 29.1102 18.3784C27.9475 18.2387 26.7726 18.1907 25.5859 18.2343C25.5859 14.5826 25.5859 10.9309 25.5859 7.2793Z"
            fill="#AD7B57" />
        <path fill-rule="evenodd" clip-rule="evenodd"
            d="M13.8854 9.0094C15.1551 8.79472 15.6015 9.32326 15.2246 10.595C13.8822 11.2419 13.3653 10.8095 13.6739 9.29769C13.775 9.21924 13.8455 9.12314 13.8854 9.0094Z"
            fill="#282421" />
        <path fill-rule="evenodd" clip-rule="evenodd"
            d="M12.6168 16.0723C12.735 16.1216 12.782 16.2176 12.7578 16.3606C12.397 16.4041 12.0681 16.3559 11.771 16.2164C12.0861 16.2589 12.3681 16.2108 12.6168 16.0723Z"
            fill="#F4D9A2" />
        <path fill-rule="evenodd" clip-rule="evenodd"
            d="M25.586 18.2343C26.7727 18.1907 27.9475 18.2387 29.1102 18.3784C29.1689 19.1375 29.3569 19.8582 29.6741 20.5406C29.6741 20.5886 29.6741 20.6367 29.6741 20.6847C28.1704 20.6847 26.6668 20.6847 25.1631 20.6847C25.5164 19.9123 25.6573 19.0954 25.586 18.2343Z"
            fill="#D95036" />
        <path fill-rule="evenodd" clip-rule="evenodd"
            d="M16.564 19.6758C16.7657 19.8603 16.8597 20.1006 16.8459 20.3965C16.7519 23.808 16.658 27.2193 16.564 30.6307C16.564 26.9791 16.564 23.3274 16.564 19.6758Z"
            fill="#E9E2D3" />
        <path fill-rule="evenodd" clip-rule="evenodd"
            d="M25.1631 20.8287C25.1631 20.7807 25.1631 20.7326 25.1631 20.6846C26.6668 20.6846 28.1704 20.6846 29.6741 20.6846C29.6983 20.8276 29.6513 20.9236 29.5331 20.9729C28.1019 20.8296 26.6452 20.7814 25.1631 20.8287Z"
            fill="#644C49" />
        <path fill-rule="evenodd" clip-rule="evenodd"
            d="M25.1632 20.8291C26.6454 20.7818 28.102 20.83 29.5332 20.9732C27.8129 25.471 24.7115 28.498 20.2293 30.0543C19.9751 29.5386 19.7872 29.01 19.6654 28.4687C19.6781 28.0865 19.5842 27.7502 19.3835 27.4597C19.0048 25.7189 18.5819 23.9892 18.1147 22.2705C18.6322 22.5352 19.1492 22.7994 19.6654 23.0633C22.0223 23.5585 23.8549 22.8138 25.1632 20.8291Z"
            fill="#3F484D" />
        <path fill-rule="evenodd" clip-rule="evenodd"
            d="M19.3835 27.459C19.5842 27.7494 19.6781 28.0857 19.6654 28.468C19.4647 28.1775 19.3708 27.8413 19.3835 27.459Z"
            fill="#ACB0B3" />
    </g>
    <defs>
        <clipPath id="clip0_5238_770">
            <rect width="32" height="32" fill="white" />
        </clipPath>
    </defs>
</svg>