<svg width="32" height="32" viewBox="0 0 32 32" fill="none" xmlns="http://www.w3.org/2000/svg">
    <g clip-path="url(#clip0_5297_3825)">
        <path opacity="0.987" fill-rule="evenodd" clip-rule="evenodd"
            d="M25.474 -0.0532227C26.1507 -0.0532227 26.8274 -0.0532227 27.5042 -0.0532227C27.6074 0.0461235 27.7363 0.081561 27.8909 0.0530896C27.9594 0.149193 28.0561 0.184631 28.1809 0.159402C28.2776 0.301151 28.3743 0.301151 28.471 0.159402C28.6457 0.158483 28.8069 0.21164 28.9543 0.31887C28.8899 0.354307 28.8255 0.389746 28.761 0.425183C28.9917 0.552037 29.2173 0.676068 29.4377 0.797276C29.5948 1.03202 29.7882 1.12061 30.0178 1.06306C30.1547 1.43378 30.3964 1.77044 30.7429 2.07302C30.8073 1.93128 30.8717 1.93128 30.9362 2.07302C30.9959 2.17392 30.9798 2.26252 30.8879 2.3388C30.9816 2.52573 31.0944 2.57889 31.2262 2.49827C31.5572 3.04075 31.7666 3.53688 31.8546 3.98664C31.7258 4.09296 31.7258 4.19927 31.8546 4.30558C31.8317 4.44283 31.8639 4.54914 31.9513 4.62452C31.9513 5.01433 31.9513 5.40414 31.9513 5.79395C31.7433 5.73263 31.7111 5.6086 31.8546 5.42186C31.7378 5.09896 31.6571 4.7623 31.6129 4.41189C31.2618 4.90451 30.8751 5.3652 30.4528 5.79395C30.3506 6.69813 30.0928 7.54863 29.6794 8.34545C28.6238 10.2771 27.5925 12.2262 26.5858 14.1926C26.5209 14.2726 26.4404 14.3081 26.3441 14.2989C26.3441 14.228 26.3119 14.1926 26.2474 14.1926C26.2152 14.1926 26.1829 14.1926 26.1507 14.1926C27.2734 12.1003 28.3369 10.0803 29.341 8.13282C29.5048 7.91443 29.6176 7.66636 29.6794 7.38864C29.7439 7.67214 29.8083 7.67214 29.8728 7.38864C29.8799 6.57787 29.9121 5.7628 29.9694 4.94345C29.9239 4.75779 29.8594 4.58061 29.7761 4.41189C29.7439 4.48277 29.7116 4.55364 29.6794 4.62452C29.5428 4.28844 29.3816 3.96951 29.196 3.66771C29.2563 3.40353 29.1596 3.19091 28.906 3.02983C28.8366 3.13089 28.7561 3.14861 28.6643 3.08299C28.7185 2.91656 28.6541 2.7748 28.471 2.65774C27.3866 2.01222 26.2587 1.90591 25.0873 2.3388C25.1839 2.37424 25.2806 2.40968 25.3773 2.44512C25.1481 2.52323 24.9224 2.61184 24.7006 2.7109C24.6439 2.68865 24.5956 2.65321 24.5555 2.60458C24.1883 2.90193 23.8499 3.23859 23.5404 3.61455C23.6324 3.69083 23.6484 3.77943 23.5888 3.88033C22.332 6.25464 21.0752 8.62895 19.8184 11.0033C19.7539 10.8615 19.6895 10.8615 19.625 11.0033C19.625 11.145 19.625 11.2868 19.625 11.4285C19.5284 11.4639 19.4317 11.4994 19.335 11.5348C19.4301 11.7579 19.3979 11.9705 19.2383 12.1727C19.1416 12.2081 19.045 12.2436 18.9483 12.279C18.9007 12.3905 18.9168 12.4968 18.9966 12.5979C17.4788 15.4191 15.9803 18.2542 14.5012 21.1029C14.4367 20.9612 14.3723 20.9612 14.3078 21.1029C14.2602 21.2144 14.2763 21.3208 14.3562 21.4219C14.1867 21.6882 14.0417 21.9716 13.9211 22.2724C13.8244 22.3078 13.7278 22.3433 13.6311 22.3787C13.5835 22.4902 13.5996 22.5965 13.6794 22.6976C12.8753 23.8976 12.4564 25.2442 12.4226 26.7375C12.4612 26.9179 12.5095 27.095 12.5676 27.269C12.5998 27.1981 12.6321 27.1273 12.6643 27.0564C12.7906 27.4759 12.9678 27.8657 13.196 28.2258C13.1017 28.3984 13.15 28.5402 13.341 28.6511C13.3732 28.6157 13.4055 28.5802 13.4377 28.5448C13.4205 28.751 13.5172 28.9283 13.7278 29.0763C13.7972 28.9752 13.8777 28.9576 13.9694 29.0232C14.0016 29.1295 14.0339 29.2358 14.0661 29.3421C14.4648 29.5768 14.8837 29.7362 15.3229 29.8205C15.258 29.9021 15.1774 29.973 15.0812 30.0332C13.1272 29.3298 12.1282 27.806 12.0842 25.4617C12.0667 25.7515 12.0183 26.0351 11.9392 26.3122C11.5203 26.7729 11.1013 27.2336 10.6824 27.6943C11.1169 28.774 11.7292 29.713 12.5193 30.5116C12.7514 30.7308 13.0092 30.908 13.2927 31.0431C13.239 31.0838 13.2068 31.137 13.196 31.2026C13.1332 31.2349 13.0687 31.2703 13.0027 31.3089C13.0224 31.1995 12.9741 31.0932 12.8577 30.99C12.6798 31.1317 12.6314 31.1139 12.7126 30.9368C12.3134 30.525 11.9105 30.1884 11.5042 29.9268C11.5638 29.7573 11.5316 29.6156 11.4075 29.5016C11.2464 29.5909 11.2303 29.5377 11.3592 29.3421C11.3108 29.289 11.2625 29.2358 11.2142 29.1827C11.1497 29.3244 11.0853 29.3244 11.0208 29.1827C10.8612 28.9805 10.829 28.7678 10.9241 28.5448C10.8274 28.5094 10.7308 28.4739 10.6341 28.4385C9.7554 26.7829 8.90138 25.1174 8.07216 23.4418C8.20106 23.3709 8.20106 23.3001 8.07216 23.2292C8.03994 23.0875 8.00771 23.0875 7.97549 23.2292C7.29024 22.1127 6.67795 20.9432 6.13863 19.7209C6.17085 19.7209 6.20308 19.7209 6.2353 19.7209C6.30674 19.7348 6.37119 19.717 6.42866 19.6677C5.92529 18.6491 5.40969 17.6392 4.88183 16.6378C4.99996 16.3817 4.93551 16.1868 4.68848 16.0531C4.93017 15.7164 5.20408 15.4152 5.51023 15.1494C5.53325 14.6296 5.5977 14.6296 5.70358 15.1494C5.7358 15.114 5.76804 15.0785 5.80026 15.0431C6.0804 15.6165 6.40265 16.2189 6.76703 16.8504C6.81191 16.7873 6.82803 16.7164 6.81536 16.6378C6.87982 16.6378 6.91204 16.6024 6.91204 16.5315C6.91204 16.4961 6.91204 16.4606 6.91204 16.4252C7.9536 18.3453 9.03316 20.3652 10.1507 22.485C10.1507 22.6267 10.1507 22.7685 10.1507 22.9102C10.2152 23.0519 10.2796 23.0519 10.3441 22.9102C10.438 23.1021 10.5509 23.2793 10.6824 23.4418C11.4352 22.0113 12.2246 20.4875 13.051 18.8704C13.1477 18.835 13.2444 18.7995 13.341 18.7641C13.3886 18.6525 13.3726 18.5462 13.2927 18.4451C13.7439 17.5946 14.195 16.7441 14.6462 15.8936C14.5659 15.7198 14.5498 15.5426 14.5978 15.3621C14.3728 15.2572 14.1794 15.0446 14.0178 14.7242C13.6394 13.9273 13.2366 13.1477 12.8093 12.3853C12.8892 12.2842 12.9052 12.1779 12.8577 12.0664C12.7932 11.9247 12.7288 11.9247 12.6643 12.0664C12.1702 11.1563 11.703 10.235 11.2625 9.30226C11.2947 9.30226 11.327 9.30226 11.3592 9.30226C11.3914 9.44401 11.4237 9.44401 11.4558 9.30226C11.4352 9.12749 11.4674 8.96802 11.5525 8.82385C11.4725 8.72661 11.3758 8.65573 11.2625 8.61123C11.5661 8.3923 11.9044 8.05564 12.2776 7.60126C12.2009 7.38858 12.2171 7.17596 12.3259 6.96339C12.3581 6.96339 12.3904 6.96339 12.4226 6.96339C12.4548 7.10513 12.4871 7.10513 12.5193 6.96339C12.9439 7.64743 13.3467 8.35619 13.7278 9.08963C13.8874 9.29185 13.9196 9.50448 13.8244 9.72751C13.9211 9.76294 14.0178 9.79839 14.1145 9.83382C14.3723 10.3299 14.63 10.826 14.8879 11.3222C14.8879 11.4639 14.8879 11.6057 14.8879 11.7474C14.9845 11.7828 15.0812 11.8184 15.1779 11.8538C15.2823 12.1191 15.4113 12.3672 15.5646 12.5979C15.5646 12.7397 15.5646 12.8815 15.5646 13.0232C15.6291 13.1649 15.6935 13.1649 15.758 13.0232C15.8464 13.1112 15.9108 13.2175 15.9513 13.3421C17.3725 10.7494 18.7582 8.12706 20.1084 5.47502C20.2051 5.43958 20.3018 5.40414 20.3984 5.3687C20.446 5.25718 20.43 5.15087 20.3501 5.04977C20.5145 4.77987 20.6595 4.49638 20.7852 4.19927C20.8818 4.16384 20.9785 4.12839 21.0752 4.09296C21.1227 3.98144 21.1067 3.87512 21.0268 3.77402C21.2286 3.43671 21.4059 3.08234 21.5586 2.7109C21.6231 2.56915 21.6874 2.56915 21.7519 2.7109C21.8761 2.59694 21.9082 2.45519 21.8486 2.28565C21.9724 2.29832 22.0853 2.24516 22.187 2.12618C22.095 2.0499 22.079 1.9613 22.1386 1.8604C22.2675 1.71865 22.3965 1.5769 22.5253 1.43515C22.5654 1.48378 22.6137 1.51921 22.6703 1.54146C22.8501 1.36154 23.0434 1.20207 23.2504 1.06306C23.4335 0.945993 23.498 0.804243 23.4438 0.637807C23.5452 0.585476 23.6419 0.603195 23.7338 0.690963C24.2957 0.355722 24.8757 0.107661 25.474 -0.0532227ZM10.5858 23.7607C10.5916 23.703 10.6238 23.6676 10.6824 23.6544C10.7871 23.7464 10.8032 23.8527 10.7308 23.9734C10.7039 23.876 10.6556 23.8052 10.5858 23.7607Z"
            fill="#E86B69" />
        <path opacity="0.01" fill-rule="evenodd" clip-rule="evenodd"
            d="M27.8916 0.0530896C27.8916 0.0176522 27.8916 -0.0177853 27.8916 -0.0532227C28.0205 -0.0532227 28.1494 -0.0532227 28.2783 -0.0532227C28.3428 0.0176522 28.4072 0.088527 28.4717 0.159402C28.375 0.159402 28.2783 0.159402 28.1816 0.159402C28.1131 0.0632986 28.0164 0.0278612 27.8916 0.0530896Z"
            fill="#FF7861" />
        <path opacity="0.016" fill-rule="evenodd" clip-rule="evenodd"
            d="M29.4385 0.690918C29.5673 0.761793 29.5673 0.761793 29.4385 0.690918Z" fill="#FA7E7D" />
        <path opacity="0.016" fill-rule="evenodd" clip-rule="evenodd"
            d="M31.8555 3.98682C31.8877 3.98682 31.92 3.98682 31.9521 3.98682C31.9521 4.09313 31.9521 4.19944 31.9521 4.30575C31.92 4.30575 31.8877 4.30575 31.8555 4.30575C31.8555 4.19944 31.8555 4.09313 31.8555 3.98682Z"
            fill="#CC9392" />
        <path opacity="0.996" fill-rule="evenodd" clip-rule="evenodd"
            d="M4.39928 -0.0532227C5.07602 -0.0532227 5.75275 -0.0532227 6.42949 -0.0532227C7.13645 0.13001 7.81319 0.431228 8.4597 0.850432C8.98286 1.29261 9.48236 1.70013 9.95819 2.07302C10.4336 2.87038 10.8847 3.68543 11.3117 4.51821C11.3117 4.65995 11.3117 4.80171 11.3117 4.94345C11.3761 5.0852 11.4405 5.0852 11.505 4.94345C11.7858 5.344 11.9469 5.76925 11.9884 6.2192C12.2557 6.32456 12.4329 6.57262 12.5201 6.96339C12.4879 6.96339 12.4556 6.96339 12.4234 6.96339C12.3913 6.82164 12.359 6.82164 12.3268 6.96339C12.2179 7.17596 12.2018 7.38858 12.2784 7.60126C11.9053 8.05564 11.5669 8.3923 11.2633 8.61123C11.3766 8.65573 11.4733 8.72661 11.5534 8.82385C11.4683 8.96802 11.436 9.12749 11.4567 9.30226C11.4245 9.30226 11.3922 9.30226 11.36 9.30226C11.3278 9.16051 11.2955 9.16051 11.2633 9.30226C10.2909 7.55461 9.34019 5.78275 8.41136 3.98664C8.238 3.68947 8.02854 3.42369 7.78296 3.1893C7.84742 3.15387 7.91186 3.11842 7.97632 3.08299C7.6382 2.80839 7.28372 2.56032 6.91287 2.3388C5.94611 2.26793 4.97934 2.26793 4.01257 2.3388C3.69625 2.50973 3.40621 2.72236 3.14248 2.97668C3.1747 3.01211 3.20694 3.04756 3.23916 3.08299C3.04324 3.37924 2.81767 3.55642 2.56242 3.61455C2.60664 3.65856 2.63886 3.71172 2.6591 3.77402C2.52794 3.9936 2.39904 4.20622 2.27239 4.41189C2.24017 4.12839 2.20794 4.12839 2.17571 4.41189C2.08832 4.48727 2.0561 4.59358 2.07904 4.73083C1.99164 4.80621 1.95942 4.91252 1.98236 5.04977C1.88828 5.31001 1.85606 5.59351 1.88568 5.90027C1.88568 5.97114 1.88568 6.04201 1.88568 6.11289C1.85606 6.41964 1.88828 6.70315 1.98236 6.96339C2.60018 8.24156 3.29303 9.55274 4.06091 10.8969C4.22053 11.0991 4.25276 11.3118 4.15759 11.5348C4.25426 11.5702 4.35094 11.6057 4.44762 11.6411C5.00327 12.7571 5.58333 13.8556 6.1878 14.9368C6.34742 15.139 6.37965 15.3516 6.28447 15.5747C6.38115 15.6101 6.47783 15.6456 6.5745 15.681C6.62209 15.7925 6.60598 15.8988 6.52617 15.9999C6.57793 16.1882 6.65849 16.2236 6.76786 16.1062C6.81748 16.2154 6.86582 16.3217 6.91287 16.4252C6.91287 16.4606 6.91287 16.4961 6.91287 16.5315C6.84842 16.5315 6.8162 16.5669 6.8162 16.6378C6.82886 16.7164 6.81275 16.7873 6.76786 16.8504C6.40348 16.2189 6.08123 15.6165 5.80109 15.0431C5.76887 15.0785 5.73664 15.114 5.70441 15.1494C5.59853 14.6296 5.53408 14.6296 5.51106 15.1494C5.20491 15.4152 4.931 15.7164 4.68931 16.0531C4.93635 16.1868 5.00079 16.3817 4.88266 16.6378C5.41052 17.6392 5.92612 18.6491 6.42949 19.6677C6.37203 19.717 6.30757 19.7348 6.23614 19.7209C6.20391 19.5791 6.17168 19.5791 6.13946 19.7209C5.89779 19.4026 5.70443 19.0482 5.5594 18.6577C5.6883 18.5868 5.6883 18.516 5.5594 18.4451C5.52718 18.3034 5.49494 18.3034 5.46272 18.4451C4.9322 17.4916 4.40048 16.5348 3.86756 15.5747C3.86756 15.433 3.86756 15.2911 3.86756 15.1494C3.77088 15.114 3.6742 15.0785 3.57753 15.0431C3.05319 14.0608 2.5537 13.0686 2.07904 12.0664C2.20794 11.9955 2.20794 11.9247 2.07904 11.8538C2.04681 11.712 2.01458 11.712 1.98236 11.8538C1.26917 10.7104 0.65688 9.50554 0.145502 8.23914C0.274404 8.16826 0.274404 8.09739 0.145502 8.02651C0.113277 7.60126 0.0810507 7.60126 0.0488252 8.02651C0.0165996 8.02651 -0.015626 8.02651 -0.0478516 8.02651C-0.0478516 7.88477 -0.0478516 7.74301 -0.0478516 7.60126C0.0810507 7.49495 0.0810507 7.38864 -0.0478516 7.28233C-0.0478516 6.43183 -0.0478516 5.58133 -0.0478516 4.73083C0.0810507 4.62452 0.0810507 4.51821 -0.0478516 4.41189C-0.0478516 4.27015 -0.0478516 4.12839 -0.0478516 3.98664C0.0219083 3.94226 0.0702467 3.87138 0.0971635 3.77402C0.129389 3.8449 0.161615 3.91577 0.19384 3.98664C0.299337 3.18748 0.621593 2.47874 1.16061 1.8604C1.19283 1.89583 1.22506 1.93128 1.25728 1.96671C2.14494 0.974326 3.19227 0.301015 4.39928 -0.0532227Z"
            fill="#F8787B" />
        <path opacity="0.01" fill-rule="evenodd" clip-rule="evenodd"
            d="M2.1748 4.41211C2.20702 4.41211 2.23926 4.41211 2.27148 4.41211C2.29474 4.66709 2.23028 4.87971 2.07812 5.04998C2.07812 4.94367 2.07812 4.83736 2.07812 4.73105C2.16552 4.65567 2.19774 4.54936 2.1748 4.41211Z"
            fill="#FF6A67" />
        <path opacity="0.01" fill-rule="evenodd" clip-rule="evenodd"
            d="M1.98144 5.0498C2.01366 5.0498 2.0459 5.0498 2.07812 5.0498C2.10934 5.70788 2.07711 6.34575 1.98144 6.96343C2.01106 6.65667 1.97884 6.37317 1.88477 6.11293C1.88477 6.04205 1.88477 5.97118 1.88477 5.9003C1.97884 5.64006 2.01106 5.35656 1.98144 5.0498Z"
            fill="#FF43AF" />
        <path opacity="0.016" fill-rule="evenodd" clip-rule="evenodd"
            d="M31.8555 7.70752C31.8877 7.70752 31.92 7.70752 31.9521 7.70752C31.9521 7.81383 31.9521 7.92014 31.9521 8.02646C31.92 8.02646 31.8877 8.02646 31.8555 8.02646C31.8555 7.92014 31.8555 7.81383 31.8555 7.70752Z"
            fill="#CF7670" />
        <path opacity="0.016" fill-rule="evenodd" clip-rule="evenodd"
            d="M0.048173 8.02637C0.0803985 8.02637 0.112624 8.02637 0.14485 8.02637C0.14485 8.09725 0.14485 8.16811 0.14485 8.23899C0.0638108 8.20266 0.0315852 8.13179 0.048173 8.02637Z"
            fill="#FC8C8C" />
        <path opacity="0.016" fill-rule="evenodd" clip-rule="evenodd"
            d="M31.6621 8.3457C31.791 8.41658 31.791 8.48745 31.6621 8.55833C31.6621 8.48745 31.6621 8.41658 31.6621 8.3457Z"
            fill="#FC7170" />
        <path opacity="0.016" fill-rule="evenodd" clip-rule="evenodd"
            d="M31.5654 8.55811C31.5976 8.55811 31.6299 8.55811 31.6621 8.55811C31.6787 8.66352 31.6464 8.7344 31.5654 8.77073C31.5654 8.69985 31.5654 8.62898 31.5654 8.55811Z"
            fill="#FA7E7D" />
        <path opacity="0.01" fill-rule="evenodd" clip-rule="evenodd"
            d="M30.792 10.0464C30.8242 10.0464 30.8565 10.0464 30.8887 10.0464C30.9053 10.1518 30.873 10.2227 30.792 10.259C30.792 10.1881 30.792 10.1173 30.792 10.0464Z"
            fill="#FF4332" />
        <path opacity="0.996" fill-rule="evenodd" clip-rule="evenodd"
            d="M31.9515 5.79417C31.9515 6.32573 31.9515 6.85729 31.9515 7.38885C31.8641 7.46423 31.8319 7.57054 31.8548 7.70779C31.726 7.8141 31.726 7.92041 31.8548 8.02673C31.7903 8.13304 31.726 8.23935 31.6615 8.34566C31.5805 8.38199 31.5482 8.45287 31.5648 8.55829C31.4359 8.62917 31.4359 8.70003 31.5648 8.77091C31.3877 9.2319 31.1621 9.65715 30.8881 10.0467C30.8559 9.90491 30.8236 9.90491 30.7914 10.0467C30.6625 10.1175 30.6625 10.1884 30.7914 10.2593C30.7324 10.4649 30.6357 10.6421 30.5013 10.7908C30.4692 10.6491 30.4369 10.6491 30.4047 10.7908C30.2758 10.8618 30.2758 10.9326 30.4047 11.0035C30.2597 11.394 30.0663 11.7483 29.8246 12.0666C29.7924 11.9249 29.7601 11.9249 29.7279 12.0666C29.5991 12.1375 29.5991 12.2083 29.7279 12.2792C29.669 12.4848 29.5723 12.662 29.4379 12.8108C29.4057 12.6691 29.3734 12.6691 29.3412 12.8108C29.2124 12.8817 29.2124 12.9525 29.3412 13.0234C29.3483 13.1857 29.2838 13.2921 29.1479 13.3423C29.1157 13.2006 29.0834 13.2006 29.0512 13.3423C28.9223 13.4133 28.9223 13.4841 29.0512 13.555C29.027 13.7861 28.9304 13.9633 28.7612 14.0865C28.729 13.9448 28.6967 13.9448 28.6645 14.0865C28.5356 14.1574 28.5356 14.2282 28.6645 14.2992C28.2631 15.182 27.812 16.0325 27.311 16.8506C27.2788 16.7089 27.2465 16.7089 27.2143 16.8506C27.0855 16.9216 27.0855 16.9924 27.2143 17.0633C27.1554 17.2689 27.0587 17.4461 26.9243 17.5948C26.8921 17.4531 26.8598 17.4531 26.8276 17.5948C26.6988 17.6657 26.6988 17.7365 26.8276 17.8075C26.4571 18.623 26.0382 19.4026 25.5708 20.1463C25.5386 20.0046 25.5064 20.0046 25.4742 20.1463C25.3453 20.2172 25.3453 20.288 25.4742 20.359C25.2247 21.0147 24.9024 21.6172 24.5074 22.1663C24.4752 22.0245 24.4429 22.0245 24.4107 22.1663C24.2818 22.2372 24.2818 22.308 24.4107 22.3789C24.2657 22.7694 24.0723 23.1237 23.8307 23.442C23.7985 23.3003 23.7662 23.3003 23.734 23.442C23.6051 23.5129 23.6051 23.5837 23.734 23.6546C23.3313 24.5409 22.8801 25.3914 22.3805 26.2061C22.3483 26.0644 22.316 26.0644 22.2838 26.2061C22.155 26.277 22.155 26.3478 22.2838 26.4188C22.1388 26.8092 21.9455 27.1636 21.7038 27.4819C21.6716 27.3402 21.6393 27.3402 21.6071 27.4819C21.4782 27.5528 21.4782 27.6236 21.6071 27.6945C21.3577 28.3502 21.0353 28.9527 20.6403 29.5018C20.6081 29.3601 20.5758 29.3601 20.5436 29.5018C20.4148 29.5372 20.4148 29.5727 20.5436 29.6081C20.5507 29.7705 20.4862 29.8768 20.3503 29.9271C20.3181 29.7853 20.2858 29.7853 20.2536 29.9271C20.1891 29.9271 20.1569 29.9625 20.1569 30.0334C20.0925 30.0334 20.0603 30.0688 20.0603 30.1397C19.9958 30.1397 19.9636 30.1751 19.9636 30.246C19.8991 30.246 19.8669 30.2814 19.8669 30.3523C19.8024 30.3523 19.7702 30.3877 19.7702 30.4586C19.7057 30.4586 19.6736 30.494 19.6736 30.5649C19.5447 30.6003 19.5447 30.6358 19.6736 30.6712C19.5999 30.8586 19.4709 30.9649 19.2868 30.9902C19.2547 30.8485 19.2224 30.8485 19.1902 30.9902C19.0943 30.9719 19.0299 31.0074 18.9968 31.0965C18.9323 31.0965 18.9001 31.1319 18.9001 31.2028C18.8042 31.1845 18.7398 31.22 18.7068 31.3091C18.6109 31.2908 18.5465 31.3263 18.5134 31.4154C18.4175 31.3971 18.3531 31.4327 18.3201 31.5217C18.2242 31.5035 18.1598 31.539 18.1267 31.6281C18.0019 31.6029 17.9052 31.6383 17.8367 31.7344C17.7119 31.7092 17.6152 31.7446 17.5467 31.8407C17.3921 31.8122 17.2632 31.8477 17.16 31.947C16.3544 31.947 15.5486 31.947 14.743 31.947C14.6398 31.8477 14.5109 31.8122 14.3563 31.8407C14.1906 31.7091 13.9973 31.6382 13.7763 31.6281C13.5829 31.4863 13.3896 31.3445 13.1962 31.2028C13.2069 31.1372 13.2391 31.0841 13.2929 31.0433C13.0093 30.9082 12.7516 30.731 12.5195 30.5118C11.7293 29.7133 11.1171 28.7742 10.6826 27.6945C11.1015 27.2338 11.5205 26.7731 11.9394 26.3124C12.0185 26.0353 12.0668 25.7518 12.0844 25.4619C12.1284 27.8062 13.1274 29.33 15.0814 30.0334C15.1776 29.9732 15.2581 29.9023 15.3231 29.8207C16.4472 30.0463 17.4461 29.7629 18.3201 28.9702C18.3846 28.9702 18.4168 28.9348 18.4168 28.8639C18.4812 28.8639 18.5134 28.8285 18.5134 28.7576C18.6423 28.7222 18.6423 28.6867 18.5134 28.6513C19.0995 27.6115 19.6635 26.5483 20.2053 25.4619C20.302 25.4265 20.3986 25.391 20.4953 25.3556C20.4002 25.1326 20.4324 24.92 20.592 24.7178C20.6887 24.6824 20.7853 24.6468 20.882 24.6114C20.7869 24.3884 20.8191 24.1758 20.9787 23.9736C21.1403 23.6531 21.3337 23.4405 21.5588 23.3357C21.6063 23.2242 21.5903 23.1179 21.5104 23.0168C21.6799 22.7504 21.8249 22.467 21.9455 22.1663C22.0421 22.1309 22.1388 22.0954 22.2355 22.0599C22.1404 21.8369 22.1726 21.6243 22.3322 21.4221C22.4288 21.3867 22.5255 21.3512 22.6222 21.3158C22.5271 21.0927 22.5593 20.8801 22.7189 20.6779C23.1056 19.9691 23.4923 19.2604 23.879 18.5516C23.9435 18.6934 24.0079 18.6934 24.0723 18.5516C23.9772 18.3286 24.0094 18.116 24.169 17.9138C24.9152 16.6125 25.5758 15.3722 26.1509 14.1928C26.1831 14.1928 26.2154 14.1928 26.2476 14.1928C26.3121 14.1928 26.3442 14.2282 26.3442 14.2992C26.4405 14.3083 26.5211 14.2728 26.5859 14.1928C27.5927 12.2264 28.624 10.2773 29.6796 8.34566C30.093 7.54884 30.3508 6.69834 30.453 5.79417C30.8753 5.36541 31.262 4.90473 31.6131 4.41211C31.6573 4.76251 31.7379 5.09917 31.8548 5.42208C31.7113 5.60881 31.7435 5.73285 31.9515 5.79417Z"
            fill="#DB5F5C" />
        <path opacity="0.016" fill-rule="evenodd" clip-rule="evenodd"
            d="M30.4053 10.7905C30.4375 10.7905 30.4698 10.7905 30.502 10.7905C30.5186 10.896 30.4863 10.9668 30.4053 11.0032C30.4053 10.9322 30.4053 10.8614 30.4053 10.7905Z"
            fill="#FC7170" />
        <path opacity="0.016" fill-rule="evenodd" clip-rule="evenodd"
            d="M1.98177 11.854C2.01399 11.854 2.04622 11.854 2.07844 11.854C2.07844 11.9249 2.07844 11.9957 2.07844 12.0666C1.99741 12.0303 1.96518 11.9595 1.98177 11.854Z"
            fill="#FC8C8C" />
        <path opacity="0.016" fill-rule="evenodd" clip-rule="evenodd"
            d="M29.7285 12.0664C29.7607 12.0664 29.793 12.0664 29.8252 12.0664C29.8418 12.1719 29.8095 12.2427 29.7285 12.279C29.7285 12.2081 29.7285 12.1373 29.7285 12.0664Z"
            fill="#FC7170" />
        <path opacity="0.016" fill-rule="evenodd" clip-rule="evenodd"
            d="M29.3418 12.8105C29.374 12.8105 29.4063 12.8105 29.4385 12.8105C29.4551 12.916 29.4228 12.9868 29.3418 13.0232C29.3418 12.9523 29.3418 12.8815 29.3418 12.8105Z"
            fill="#DF7070" />
        <path opacity="0.012" fill-rule="evenodd" clip-rule="evenodd"
            d="M29.0518 13.3423C29.084 13.3423 29.1162 13.3423 29.1484 13.3423C29.1651 13.4477 29.1328 13.5186 29.0518 13.5549C29.0518 13.484 29.0518 13.4132 29.0518 13.3423Z"
            fill="#C46262" />
        <path opacity="0.012" fill-rule="evenodd" clip-rule="evenodd"
            d="M28.665 14.0864C28.6972 14.0864 28.7295 14.0864 28.7617 14.0864C28.7783 14.1919 28.7461 14.2627 28.665 14.2991C28.665 14.2281 28.665 14.1573 28.665 14.0864Z"
            fill="#A95554" />
        <path opacity="0.01" fill-rule="evenodd" clip-rule="evenodd"
            d="M27.2148 16.8506C27.247 16.8506 27.2793 16.8506 27.3115 16.8506C27.3281 16.956 27.2959 17.0269 27.2148 17.0632C27.2148 16.9923 27.2148 16.9215 27.2148 16.8506Z"
            fill="#A71616" />
        <path opacity="0.016" fill-rule="evenodd" clip-rule="evenodd"
            d="M26.8281 17.5947C26.8603 17.5947 26.8926 17.5947 26.9248 17.5947C26.9414 17.7002 26.9091 17.771 26.8281 17.8074C26.8281 17.7364 26.8281 17.6656 26.8281 17.5947Z"
            fill="#FC7170" />
        <path opacity="0.012" fill-rule="evenodd" clip-rule="evenodd"
            d="M5.46224 18.4453C5.49446 18.4453 5.52669 18.4453 5.55891 18.4453C5.55891 18.5162 5.55891 18.587 5.55891 18.6579C5.47788 18.6216 5.44565 18.5508 5.46224 18.4453Z"
            fill="#AD8E8C" />
        <path opacity="0.016" fill-rule="evenodd" clip-rule="evenodd"
            d="M25.4746 20.146C25.5068 20.146 25.5391 20.146 25.5713 20.146C25.5879 20.2515 25.5556 20.3223 25.4746 20.3586C25.4746 20.2877 25.4746 20.2169 25.4746 20.146Z"
            fill="#FF6358" />
        <path opacity="0.016" fill-rule="evenodd" clip-rule="evenodd"
            d="M24.4111 22.166C24.4433 22.166 24.4756 22.166 24.5078 22.166C24.5244 22.2715 24.4921 22.3423 24.4111 22.3786C24.4111 22.3077 24.4111 22.2369 24.4111 22.166Z"
            fill="#FC7170" />
        <path opacity="0.01" fill-rule="evenodd" clip-rule="evenodd"
            d="M7.97591 23.229C8.00813 23.229 8.04036 23.229 8.07258 23.229C8.07258 23.2999 8.07258 23.3707 8.07258 23.4416C7.99155 23.4053 7.95932 23.3345 7.97591 23.229Z"
            fill="#EE4933" />
        <path opacity="0.012" fill-rule="evenodd" clip-rule="evenodd"
            d="M23.7344 23.4419C23.7666 23.4419 23.7989 23.4419 23.8311 23.4419C23.8477 23.5474 23.8154 23.6182 23.7344 23.6545C23.7344 23.5836 23.7344 23.5128 23.7344 23.4419Z"
            fill="#CA9454" />
        <path opacity="0.01" fill-rule="evenodd" clip-rule="evenodd"
            d="M17.2568 24.3988C17.2626 24.3411 17.2948 24.3057 17.3535 24.2925C17.4766 24.373 17.4766 24.4438 17.3535 24.5051C17.3535 24.4342 17.3213 24.3988 17.2568 24.3988Z"
            fill="#E24737" />
        <path opacity="0.996" fill-rule="evenodd" clip-rule="evenodd"
            d="M17.2568 24.3989C17.3212 24.3989 17.3534 24.4343 17.3534 24.5052C17.4786 24.6163 17.6075 24.7226 17.7401 24.8241C17.6985 24.9085 17.6662 24.9971 17.6435 25.0899C17.7079 25.4798 17.7723 25.8695 17.8368 26.2594C17.7578 26.4178 17.6773 26.5772 17.5951 26.7378C17.5629 26.7024 17.5306 26.6669 17.4984 26.6315C16.9001 27.349 16.175 27.6147 15.3232 27.4288C15.3877 27.3934 15.4521 27.3579 15.5166 27.3225C15.3394 27.1984 15.1621 27.0745 14.9848 26.9504C14.9527 26.9858 14.9204 27.0213 14.8882 27.0567C14.6949 26.8448 14.5499 26.5967 14.4531 26.3125C14.4718 25.7374 14.5201 25.1704 14.5981 24.6115C14.9219 24.3781 15.2925 24.1477 15.7099 23.9205C15.6454 23.8851 15.5811 23.8496 15.5166 23.8142C15.8261 23.6565 16.1484 23.621 16.4833 23.7079C16.2578 23.7433 16.0321 23.7788 15.8066 23.8142C16.3637 23.8114 16.847 24.0063 17.2568 24.3989Z"
            fill="#DD615E" />
        <path opacity="0.01" fill-rule="evenodd" clip-rule="evenodd"
            d="M22.2842 26.2061C22.3164 26.2061 22.3487 26.2061 22.3809 26.2061C22.3975 26.3115 22.3652 26.3823 22.2842 26.4187C22.2842 26.3478 22.2842 26.277 22.2842 26.2061Z"
            fill="#907270" />
        <path opacity="0.012" fill-rule="evenodd" clip-rule="evenodd"
            d="M21.6074 27.4819C21.6396 27.4819 21.6719 27.4819 21.7041 27.4819C21.7207 27.5874 21.6884 27.6582 21.6074 27.6946C21.6074 27.6236 21.6074 27.5528 21.6074 27.4819Z"
            fill="#FE5554" />
        <path opacity="0.01" fill-rule="evenodd" clip-rule="evenodd"
            d="M18.5137 28.6514C18.5137 28.6868 18.5137 28.7223 18.5137 28.7577C18.4492 28.7577 18.417 28.7931 18.417 28.864C18.3525 28.864 18.3203 28.8994 18.3203 28.9703C18.2489 28.9842 18.1844 28.9665 18.127 28.9171C18.2208 28.7597 18.3497 28.671 18.5137 28.6514Z"
            fill="#EC362A" />
        <path opacity="0.012" fill-rule="evenodd" clip-rule="evenodd"
            d="M20.5439 29.5015C20.5761 29.5015 20.6084 29.5015 20.6406 29.5015C20.6227 29.5727 20.5904 29.5727 20.5439 29.5015Z"
            fill="#A95554" />
        <path opacity="0.01" fill-rule="evenodd" clip-rule="evenodd"
            d="M20.2539 29.9268C20.2861 29.9268 20.3184 29.9268 20.3506 29.9268C20.3327 29.998 20.3004 29.998 20.2539 29.9268Z"
            fill="#7E7F7E" />
        <path opacity="0.012" fill-rule="evenodd" clip-rule="evenodd"
            d="M20.1572 30.0332C20.1894 30.0332 20.2217 30.0332 20.2539 30.0332C20.236 30.1044 20.2037 30.1044 20.1572 30.0332Z"
            fill="#FE5554" />
        <path opacity="0.016" fill-rule="evenodd" clip-rule="evenodd"
            d="M20.0605 30.1396C20.0927 30.1396 20.125 30.1396 20.1572 30.1396C20.1393 30.2109 20.107 30.2109 20.0605 30.1396Z"
            fill="#FA7E7D" />
        <path opacity="0.016" fill-rule="evenodd" clip-rule="evenodd"
            d="M19.9639 30.2456C19.9961 30.2456 20.0284 30.2456 20.0605 30.2456C20.0427 30.3168 20.0104 30.3168 19.9639 30.2456Z"
            fill="#FE3F3E" />
        <path opacity="0.039" fill-rule="evenodd" clip-rule="evenodd"
            d="M19.8672 30.3521C19.8994 30.3521 19.9317 30.3521 19.9639 30.3521C19.946 30.4233 19.9137 30.4233 19.8672 30.3521Z"
            fill="#D06867" />
        <path opacity="0.016" fill-rule="evenodd" clip-rule="evenodd"
            d="M19.7705 30.4585C19.8027 30.4585 19.835 30.4585 19.8672 30.4585C19.8493 30.5297 19.817 30.5297 19.7705 30.4585Z"
            fill="#BE7F7E" />
        <path opacity="0.012" fill-rule="evenodd" clip-rule="evenodd"
            d="M19.6738 30.5649C19.706 30.5649 19.7383 30.5649 19.7705 30.5649C19.7526 30.6362 19.7203 30.6362 19.6738 30.5649Z"
            fill="#FE5554" />
        <path opacity="0.016" fill-rule="evenodd" clip-rule="evenodd"
            d="M19.1904 30.9902C19.2226 30.9902 19.2549 30.9902 19.2871 30.9902C19.2692 31.0615 19.2369 31.0615 19.1904 30.9902Z"
            fill="#BE3F3E" />
        <path opacity="0.01" fill-rule="evenodd" clip-rule="evenodd"
            d="M18.9971 31.2025C18.9971 31.1671 18.9971 31.1316 18.9971 31.0962C19.0616 31.0962 19.1259 31.0962 19.1904 31.0962C19.1574 31.1853 19.093 31.2208 18.9971 31.2025Z"
            fill="#FF4332" />
        <path opacity="0.012" fill-rule="evenodd" clip-rule="evenodd"
            d="M18.9004 31.2026C18.9326 31.2026 18.9649 31.2026 18.9971 31.2026C18.9792 31.2739 18.9469 31.2739 18.9004 31.2026Z"
            fill="#FE5554" />
        <path opacity="0.01" fill-rule="evenodd" clip-rule="evenodd"
            d="M18.707 31.4154C18.707 31.38 18.707 31.3445 18.707 31.3091C18.7715 31.3091 18.8359 31.3091 18.9004 31.3091C18.8673 31.3982 18.8029 31.4337 18.707 31.4154Z"
            fill="#FF2D24" />
        <path opacity="0.01" fill-rule="evenodd" clip-rule="evenodd"
            d="M18.5137 31.5214C18.5137 31.4859 18.5137 31.4504 18.5137 31.415C18.5782 31.415 18.6425 31.415 18.707 31.415C18.674 31.5041 18.6096 31.5396 18.5137 31.5214Z"
            fill="#AF7670" />
        <path opacity="0.01" fill-rule="evenodd" clip-rule="evenodd"
            d="M18.3203 31.6278C18.3203 31.5924 18.3203 31.5569 18.3203 31.5215C18.3848 31.5215 18.4492 31.5215 18.5137 31.5215C18.4806 31.6106 18.4162 31.6461 18.3203 31.6278Z"
            fill="#F1BFBA" />
        <path opacity="0.016" fill-rule="evenodd" clip-rule="evenodd"
            d="M13.7764 31.6281C13.738 31.7371 13.6736 31.7549 13.583 31.6813C13.6404 31.632 13.7049 31.6142 13.7764 31.6281Z"
            fill="#D6A8A7" />
        <path opacity="0.016" fill-rule="evenodd" clip-rule="evenodd"
            d="M18.127 31.6279C18.1914 31.6279 18.2558 31.6279 18.3203 31.6279C18.2558 31.7696 18.1914 31.7696 18.127 31.6279Z"
            fill="#E77E7E" />
        <path opacity="0.016" fill-rule="evenodd" clip-rule="evenodd"
            d="M17.8369 31.8407C17.8369 31.8053 17.8369 31.7698 17.8369 31.7344C18.0948 31.7698 18.0948 31.8053 17.8369 31.8407Z"
            fill="#FC7170" />
        <path opacity="0.016" fill-rule="evenodd" clip-rule="evenodd"
            d="M14.0664 31.9467C14.135 31.8506 14.2316 31.8152 14.3564 31.8404C14.3564 31.8758 14.3564 31.9113 14.3564 31.9467C14.2598 31.9467 14.1631 31.9467 14.0664 31.9467Z"
            fill="#C1625E" />
        <path opacity="0.016" fill-rule="evenodd" clip-rule="evenodd"
            d="M17.5469 31.9466C17.5469 31.9112 17.5469 31.8757 17.5469 31.8403C17.6436 31.8403 17.7402 31.8403 17.8369 31.8403C17.8369 31.8757 17.8369 31.9112 17.8369 31.9466C17.7402 31.9466 17.6436 31.9466 17.5469 31.9466Z"
            fill="#DF4942" />
    </g>
    <defs>
        <clipPath id="clip0_5297_3825">
            <rect width="32" height="32" fill="white" />
        </clipPath>
    </defs>
</svg>