<svg width="32" height="32" viewBox="0 0 32 32" fill="none" xmlns="http://www.w3.org/2000/svg">
    <g clip-path="url(#clip0_5080_322)">
        <path fill-rule="evenodd" clip-rule="evenodd"
            d="M-0.0800781 -0.0800781C10.5866 -0.0800781 21.2532 -0.0800781 31.9199 -0.0800781C31.9199 10.5866 31.9199 21.2532 31.9199 31.9199C21.2532 31.9199 10.5866 31.9199 -0.0800781 31.9199C-0.0800781 21.2532 -0.0800781 10.5866 -0.0800781 -0.0800781Z"
            fill="#0E051A" />
        <path fill-rule="evenodd" clip-rule="evenodd"
            d="M15.4404 6.96004C16.0213 6.90571 16.5546 7.03903 17.0404 7.36004C20.5189 10.2858 24.0122 13.1924 27.5204 16.08C27.9585 17.1658 27.6652 17.9924 26.6404 18.56C26.1604 18.8268 25.6804 19.0933 25.2004 19.36C24.7737 19.4668 24.3471 19.4668 23.9204 19.36C22.0271 17.7868 20.1337 16.2133 18.2404 14.64C18.6415 16.8322 19.1215 19.0189 19.6804 21.2C19.8425 21.8791 19.7092 22.4924 19.2804 23.04C18.1876 23.7597 17.041 24.373 15.8404 24.88C15.4691 24.8146 15.1224 24.6812 14.8004 24.48C11.3218 21.5543 7.82849 18.6477 4.32038 15.76C3.82181 14.6508 4.11515 13.8241 5.20038 13.28C5.6696 13.0767 6.09627 12.81 6.48038 12.48C7.08219 12.3619 7.66885 12.4153 8.24038 12.64C9.98003 14.22 11.7667 15.74 13.6004 17.2C13.1909 14.9609 12.7109 12.7209 12.1604 10.48C12.0037 9.87281 12.1371 9.33948 12.5604 8.88004C13.5308 8.2363 14.4908 7.5963 15.4404 6.96004Z"
            fill="#FCFCFC" />
    </g>
    <defs>
        <clipPath id="clip0_5080_322">
            <rect width="32" height="32" fill="white" />
        </clipPath>
    </defs>
</svg>