<svg width="32" height="32" viewBox="0 0 32 32" fill="none" xmlns="http://www.w3.org/2000/svg">
<path opacity="0.872" fill-rule="evenodd" clip-rule="evenodd" d="M15.0209 0C15.5288 0 16.0368 0 16.5447 0C17.9266 1.38194 19.2327 2.8332 20.4631 4.35374C20.2454 5.0068 19.81 5.44218 19.1569 5.65986C18.4451 5.27528 17.8283 4.76735 17.3066 4.13605C17.234 5.58731 17.1615 7.03854 17.0889 8.4898C16.3996 9.81494 15.6014 9.8875 14.6943 8.70748C14.6218 7.18367 14.5492 5.65986 14.4767 4.13605C13.9549 4.76735 13.3381 5.27528 12.6263 5.65986C11.4184 5.29591 11.0919 4.5703 11.6467 3.48299C12.8156 2.35059 13.9404 1.18959 15.0209 0Z" fill="#53B13B"/>
<path opacity="0.877" fill-rule="evenodd" clip-rule="evenodd" d="M5.00642 4.13613C6.82193 4.09991 8.63599 4.1362 10.4486 4.24497C11.4788 4.88101 11.5514 5.60665 10.6663 6.42184C9.95822 6.64748 9.2326 6.79259 8.48942 6.85722C9.54156 7.90937 10.5937 8.96153 11.6459 10.0137C11.8273 11.2835 11.2831 11.8277 10.0132 11.6463C8.8944 10.5275 7.76968 9.40279 6.63908 8.27218C6.56652 9.07038 6.49395 9.86855 6.42139 10.6667C5.8273 11.399 5.17424 11.4716 4.46221 10.8844C4.11193 8.94745 4.03937 6.98827 4.24452 5.00688C4.39466 4.60411 4.64863 4.31385 5.00642 4.13613Z" fill="#53B13B"/>
<path opacity="0.869" fill-rule="evenodd" clip-rule="evenodd" d="M21.3334 4.13613C23.1489 4.09991 24.9629 4.1362 26.7756 4.24497C26.975 4.32643 27.1565 4.43528 27.3198 4.5715C27.5618 5.59968 27.6707 6.65183 27.6463 7.72797C27.61 8.635 27.5738 9.54202 27.5375 10.4491C26.9014 11.4793 26.1758 11.5519 25.3606 10.6667C25.1096 9.96773 24.9644 9.24209 24.9252 8.48987C23.8731 9.54202 22.8208 10.5942 21.7688 11.6463C20.4886 11.8174 19.9443 11.2732 20.1361 10.0137C21.1883 8.96153 22.2405 7.90937 23.2926 6.85722C22.2344 6.90587 21.3275 6.57934 20.5715 5.87763C20.4146 5.10403 20.6685 4.52353 21.3334 4.13613Z" fill="#53B13B"/>
<path opacity="0.873" fill-rule="evenodd" clip-rule="evenodd" d="M0 16.762C0 16.2541 0 15.7461 0 15.2382C1.38194 13.8563 2.8332 12.5502 4.35374 11.3198C5.0068 11.5375 5.44218 11.9729 5.65986 12.6259C5.27527 13.3377 4.76735 13.9545 4.13605 14.4763C5.58731 14.5488 7.03854 14.6214 8.48979 14.694C9.94105 15.4922 9.94105 16.2903 8.48979 17.0885C7.03854 17.1611 5.58731 17.2337 4.13605 17.3062C4.76735 17.828 5.27527 18.4448 5.65986 19.1566C5.29591 20.3645 4.5703 20.691 3.48299 20.1362C2.35058 18.9672 1.18959 17.8425 0 16.762Z" fill="#53B13B"/>
<path opacity="0.882" fill-rule="evenodd" clip-rule="evenodd" d="M27.2109 11.3198C27.5205 11.3652 27.8106 11.4741 28.0817 11.6464C29.5517 12.9702 30.8578 14.4215 32 16.0001C30.6501 17.6767 29.1263 19.1642 27.4286 20.4627C26.6802 20.4036 26.2448 20.0045 26.1225 19.2654C26.461 18.4902 26.9688 17.8372 27.6463 17.3062C26.195 17.2337 24.7439 17.1611 23.2925 17.0885C21.8413 16.2903 21.8413 15.4922 23.2925 14.694C24.7439 14.6214 26.195 14.5488 27.6463 14.4763C27.015 13.9545 26.5071 13.3377 26.1225 12.6259C26.3395 12.048 26.7024 11.6126 27.2109 11.3198Z" fill="#53B13B"/>
<path opacity="0.886" fill-rule="evenodd" clip-rule="evenodd" d="M10.2314 20.0273C11.3758 20.0683 11.8475 20.6488 11.6464 21.7688C10.5217 22.8936 9.39695 24.0182 8.27223 25.143C9.07042 25.2155 9.86859 25.2882 10.6668 25.3607C11.5729 26.1942 11.5004 26.92 10.4491 27.5375C9.54206 27.5739 8.63505 27.61 7.72801 27.6464C4.6441 28.3358 3.44683 27.1385 4.13618 24.0546C4.11182 22.9783 4.22066 21.9262 4.46271 20.8981C5.17474 20.3109 5.8278 20.3835 6.42189 21.1158C6.49444 21.914 6.56702 22.7121 6.63958 23.5103C7.81406 22.2991 9.01134 21.1382 10.2314 20.0273Z" fill="#53B13B"/>
<path opacity="0.866" fill-rule="evenodd" clip-rule="evenodd" d="M20.8981 20.0274C21.2918 20.0255 21.6546 20.1343 21.9865 20.3539C22.9661 21.3335 23.9457 22.3131 24.9253 23.2927C24.7276 21.9839 25.1994 21.0407 26.3403 20.4627C26.8307 20.6267 27.23 20.9169 27.5375 21.3335C27.6827 23.1475 27.6827 24.9617 27.5375 26.7757C27.4561 26.9751 27.3473 27.1566 27.211 27.3199C26.1829 27.562 25.1308 27.6708 24.0546 27.6464C23.1475 27.6101 22.2406 27.5739 21.3335 27.5376C20.3032 26.9015 20.2306 26.1759 21.1158 25.3607C21.914 25.2882 22.7121 25.2155 23.5103 25.143C22.074 24.1066 20.9131 22.8368 20.0273 21.3335C20.1071 20.7336 20.3973 20.2982 20.8981 20.0274Z" fill="#53B13B"/>
<path opacity="0.863" fill-rule="evenodd" clip-rule="evenodd" d="M15.6731 22.2041C16.363 22.2779 16.8347 22.6406 17.0881 23.2925C17.1606 24.7439 17.2332 26.195 17.3057 27.6463C17.7844 26.9819 18.4012 26.5465 19.1561 26.3402C19.848 26.3778 20.2834 26.7407 20.4622 27.4286C19.2964 29.3201 17.7726 30.8439 15.8908 32C15.5777 31.9523 15.2875 31.8435 15.02 31.6735C13.8953 30.5487 12.7706 29.4241 11.6459 28.2993C11.1575 26.8267 11.7017 26.21 13.2785 26.449C13.6776 26.848 14.0767 27.2473 14.4758 27.6463C14.5484 26.195 14.6209 24.7439 14.6935 23.2925C14.9166 22.8165 15.2432 22.4536 15.6731 22.2041Z" fill="#53B13B"/>
</svg>