<svg width="32" height="32" viewBox="0 0 32 32" fill="none" xmlns="http://www.w3.org/2000/svg">
    <path opacity="0.875" fill-rule="evenodd" clip-rule="evenodd"
        d="M2.82059 2.75862C11.7165 2.20886 20.7087 2.02495 29.7978 2.2069C29.7978 3.86207 29.7978 5.51724 29.7978 7.17241C30.3483 7.17241 30.8989 7.17241 31.4494 7.17241C31.4494 4.96552 31.4494 2.75862 31.4494 0.551724C21.1722 0.551724 10.8956 0.551724 0.618369 0.551724C0.618369 11.0345 0.618369 21.5172 0.618369 32C0.0694661 21.4292 -0.113869 10.7626 0.0678144 0C10.7117 0 21.3561 0 32 0C32 2.57471 32 5.14942 32 7.72414C31.0822 7.72414 30.165 7.72414 29.2472 7.72414C29.2472 6.06897 29.2472 4.41379 29.2472 2.75862C20.4383 2.75862 11.6295 2.75862 2.82059 2.75862Z"
        fill="#304173" />
    <path fill-rule="evenodd" clip-rule="evenodd"
        d="M2.82038 2.75865C2.82038 11.5862 2.82038 20.4138 2.82038 29.2414C11.6293 29.2414 20.4381 29.2414 29.247 29.2414C29.247 27.5862 29.247 25.9311 29.247 24.2759C30.1648 24.2759 31.082 24.2759 31.9998 24.2759C31.9998 26.8506 31.9998 29.4253 31.9998 32C21.5393 32 11.0787 32 0.618164 32C0.618164 21.5173 0.618164 11.0345 0.618164 0.551758C10.8954 0.551758 21.172 0.551758 31.4492 0.551758C31.4492 2.75865 31.4492 4.96555 31.4492 7.17245C30.8987 7.17245 30.3481 7.17245 29.7976 7.17245C29.7976 5.51728 29.7976 3.8621 29.7976 2.20693C20.7085 2.02499 11.7163 2.20889 2.82038 2.75865Z"
        fill="#24356B" />
    <path opacity="0.169" fill-rule="evenodd" clip-rule="evenodd"
        d="M23.7418 10.483C22.8929 10.0412 21.9756 9.85731 20.989 9.93124C20.989 13.9772 20.989 18.0232 20.989 22.0692C21.9068 22.0692 22.824 22.0692 23.7418 22.0692C22.7701 22.5996 21.669 22.7835 20.4385 22.6209C20.4385 18.2071 20.4385 13.7933 20.4385 9.37952C21.86 9.11767 22.9611 9.4855 23.7418 10.483Z"
        fill="#76819F" />
    <path fill-rule="evenodd" clip-rule="evenodd"
        d="M15.4834 22.069C13.2812 22.069 11.079 22.069 8.87676 22.069C6.19996 21.1236 4.91496 19.1926 5.02287 16.2759C5.13078 15.2396 5.31412 14.2281 5.57343 13.2414C6.34751 12.9804 6.71473 12.4287 6.67454 11.5863C7.89346 9.73712 9.63707 9.0015 11.9048 9.37938C18.2621 10.0809 20.3723 13.4832 18.2362 19.5863C17.5651 20.7201 16.6473 21.5477 15.4834 22.069ZM11.079 12.138C15.1443 12.2645 16.5207 14.2875 15.2081 18.207C11.8833 20.7258 9.58972 19.9901 8.3262 16.0001C8.60919 14.2471 9.52696 12.9597 11.079 12.138Z"
        fill="#384477" />
    <path fill-rule="evenodd" clip-rule="evenodd"
        d="M32.0004 22.069C30.8635 22.0596 29.7624 21.8757 28.697 21.5173C27.2557 19.4259 25.696 17.4029 24.0173 15.4484C23.7426 17.6476 23.6506 19.8545 23.742 22.069C22.8243 22.069 21.907 22.069 20.9893 22.069C20.9893 18.0231 20.9893 13.9771 20.9893 9.93112C21.9759 9.85719 22.8931 10.0411 23.742 10.4828C25.56 12.3997 27.303 14.4227 28.9723 16.5518C29.247 14.168 29.339 11.7772 29.2476 9.37939C30.1654 9.37939 31.0826 9.37939 32.0004 9.37939C32.0004 13.6093 32.0004 17.8391 32.0004 22.069Z"
        fill="#2F3D71" />
    <path opacity="0.345" fill-rule="evenodd" clip-rule="evenodd"
        d="M6.6744 11.5864C6.71459 12.4289 6.34737 12.9806 5.57329 13.2416C5.5331 12.3992 5.90032 11.8474 6.6744 11.5864Z"
        fill="#838BAC" />
    <path opacity="0.851" fill-rule="evenodd" clip-rule="evenodd"
        d="M8.87695 22.0688C11.0792 22.0688 13.2814 22.0688 15.4836 22.0688C13.2814 23.5401 11.0792 23.5401 8.87695 22.0688Z"
        fill="#55618A" />
    <path opacity="0.416" fill-rule="evenodd" clip-rule="evenodd"
        d="M28.6963 21.5171C29.7616 21.8754 30.8627 22.0593 31.9996 22.0688C31.6709 22.4211 31.2123 22.6051 30.6232 22.6205C29.6878 22.6831 29.0453 22.3153 28.6963 21.5171Z"
        fill="#8992AF" />
</svg>