<svg width="32" height="32" viewBox="0 0 32 32" fill="none" xmlns="http://www.w3.org/2000/svg">
    <g clip-path="url(#clip0_5467_45)">
        <path fill-rule="evenodd" clip-rule="evenodd"
            d="M15.189 0.241019C20.5708 0.137865 24.9178 2.18353 28.2301 6.378C31.0199 10.2883 31.8966 14.5988 30.8603 19.3095C29.5855 24.0762 26.7289 27.5319 22.2904 29.6766C18.3059 31.3872 14.2876 31.4749 10.2356 29.9396C6.00281 28.1324 3.08772 25.0712 1.49041 20.7561C0.0454779 16.338 0.425387 12.086 2.63014 7.99992C5.48134 3.28164 9.66764 0.69534 15.189 0.241019Z"
            fill="#176BBC" />
        <path fill-rule="evenodd" clip-rule="evenodd"
            d="M18.4766 18.4331C18.489 18.4677 18.5109 18.4969 18.5423 18.5208C18.5642 15.54 18.5715 12.5592 18.5642 9.57831C18.5919 8.96036 18.8549 8.47085 19.3533 8.10982C20.275 7.62785 21.0568 7.79591 21.6985 8.61393C21.8106 8.80878 21.8982 9.01332 21.9615 9.22763C21.9907 13.918 21.9907 18.6085 21.9615 23.2989C21.6586 24.3455 20.9645 24.8058 19.8793 24.6797C19.6723 24.6273 19.4823 24.5396 19.3094 24.4167C15.0355 19.9381 10.7615 15.4596 6.48752 10.9811C5.87939 10.2642 5.79172 9.48977 6.2245 8.65777C6.88914 7.78105 7.7001 7.61299 8.65738 8.15366C11.9406 11.5756 15.2137 15.0021 18.4766 18.4331Z"
            fill="#FEFEFE" />
        <path fill-rule="evenodd" clip-rule="evenodd"
            d="M18.5642 9.57812C18.5716 12.559 18.5642 15.5398 18.5423 18.5206C18.5109 18.4967 18.489 18.4675 18.4766 18.4329C18.5058 15.4813 18.535 12.5297 18.5642 9.57812Z"
            fill="#347DC4" />
    </g>
    <defs>
        <clipPath id="clip0_5467_45">
            <rect width="32" height="32" fill="white" />
        </clipPath>
    </defs>
</svg>