<svg width="32" height="32" viewBox="0 0 32 32" fill="none" xmlns="http://www.w3.org/2000/svg">
    <g clip-path="url(#clip0_5501_345)">
        <path
            d="M18.4731 15.5206C17.5698 18.4196 16.0573 21.8059 13.3808 23.4863C10.7352 25.1473 7.24241 25.1976 4.50327 23.7256C4.24002 23.5841 3.98397 23.4293 3.73669 23.2616C-0.445541 20.4253 -1.22698 14.222 1.95004 10.3428C4.96252 6.66445 10.5254 6.09 14.0786 9.32436C14.803 9.98375 14.0135 11.5453 13.027 10.8965C10.4571 9.20602 7.88226 9.04336 5.18153 10.7829C2.69013 12.3876 1.66987 15.8109 2.8075 18.5295C3.18944 19.4422 3.77257 20.2716 4.50749 20.9366C6.17152 22.4424 8.59558 23.0517 10.7847 22.5696C12.2578 22.2452 13.6076 21.4746 14.644 20.3837C15.3792 19.61 16.011 18.7371 16.5118 17.8165C16.8031 17.2812 16.9944 16.8327 17.2902 16.2985C17.4857 15.9456 17.68 15.4775 17.8884 15.1319C18.0978 14.7846 18.5909 15.1424 18.4731 15.5206Z"
            fill="#408676" stroke="#408676" stroke-width="0.7419" stroke-miterlimit="10" />
        <path
            d="M13.5218 16.3432C14.4651 13.4569 16.0244 10.0916 18.7238 8.44818C21.3921 6.82367 24.8853 6.82141 27.6038 8.33093C27.8651 8.47601 28.1189 8.63431 28.3639 8.80539C32.5065 11.6989 33.202 17.9123 29.9716 21.7475C26.9085 25.3841 21.3383 25.882 17.8301 22.5992C17.1149 21.9299 17.926 20.3794 18.9033 21.0417C21.4496 22.7673 24.022 22.9653 26.7465 21.263C29.2599 19.6927 30.3274 16.2837 29.2275 13.5498C28.8583 12.6319 28.2866 11.7946 27.561 11.1195C25.9179 9.59099 23.5026 8.94855 21.3069 9.40051C19.8295 9.70464 18.4692 10.4566 17.4178 11.5332C16.672 12.2967 16.0282 13.1608 15.5146 14.0745C15.216 14.6057 15.0185 15.0516 14.7153 15.5816C14.5149 15.9318 14.3142 16.3972 14.101 16.7399C13.8868 17.0843 13.3988 16.7198 13.5218 16.3432Z"
            fill="#408676" stroke="#408676" stroke-width="0.7419" stroke-miterlimit="10" />
    </g>
    <defs>
        <clipPath id="clip0_5501_345">
            <rect width="32" height="32" fill="white" />
        </clipPath>
    </defs>
</svg>