<svg width="32" height="32" viewBox="0 0 32 32" fill="none" xmlns="http://www.w3.org/2000/svg">
    <g clip-path="url(#clip0_5065_827)">
        <path
            d="M32 14.4402C32 6.82914 24.8359 0.659912 15.999 0.659912C7.16274 0.659912 0 6.82861 0 14.4402C0 22.0507 7.16208 28.22 15.999 28.22C17.2263 28.22 18.4183 28.0967 19.5658 27.8715L24.7313 31.3403L22.7447 26.9357C28.2091 24.7441 32 19.9747 32 14.4402Z"
            fill="#DB6300" />
        <path
            d="M10.054 12.4682L7.2915 5.60815L4.57336 12.4363L0.149275 12.5951C0.0513006 13.2097 0.00132398 13.8311 0 14.4535C0 14.5601 0.00728186 14.665 0.00926784 14.7715L3.14545 17.2935L2.06442 21.2328C2.45897 21.8345 2.89952 22.4046 3.38211 22.9379L7.28918 20.3104L13.3851 24.4123L11.3349 17.6088L17.1548 12.6868L10.054 12.4682Z"
            fill="white" />
    </g>
    <defs>
        <clipPath id="clip0_5065_827">
            <rect width="32" height="32" fill="white" />
        </clipPath>
    </defs>
</svg>