<svg width="32" height="32" viewBox="0 0 32 32" fill="none" xmlns="http://www.w3.org/2000/svg">
    <path fill-rule="evenodd" clip-rule="evenodd"
        d="M19.3635 30.5915C21.1118 30.2742 22.7309 29.696 24.221 28.8571C26.6569 27.4692 28.5623 25.6186 29.9374 23.3054C31.3125 20.9537 32 18.332 32 15.4406C32 12.5491 31.3125 9.94672 29.9374 7.6335C28.5623 5.28176 26.6569 3.43122 24.221 2.08188C21.8244 0.693931 19.0939 0 16.0295 0C12.9257 0 10.1559 0.693931 7.72006 2.08188C5.32356 3.43122 3.43766 5.28176 2.06263 7.6335C0.687513 9.94672 0 12.5491 0 15.4406C0 18.332 0.687513 20.9537 2.06263 23.3054C2.31993 23.7383 2.59514 24.155 2.88823 24.5555C3.19905 23.0472 3.74224 21.4567 4.6177 20.123C5.34946 19.0081 6.20703 18.2182 7.03682 17.6594C6.903 16.9474 6.83614 16.2078 6.83614 15.4406C6.83614 13.6285 7.20936 11.9901 7.95582 10.525C8.74153 9.02145 9.80236 7.84558 11.1381 6.99736C12.5132 6.11071 14.1436 5.66729 16.0295 5.66729C17.876 5.66729 19.4868 6.11071 20.8619 6.99736C22.237 7.84558 23.2977 9.02145 24.0442 10.525C24.7907 11.9901 25.164 13.6285 25.164 15.4406C25.164 17.2526 24.7907 18.9104 24.0442 20.4139C23.5012 21.4796 22.7919 22.3923 21.9163 23.152C21.8204 23.987 21.6482 25.1412 21.3412 26.6764C20.9931 28.4171 20.1687 29.7024 19.3635 30.5915Z"
        fill="#43AC17" />
    <path
        d="M9.09981 21.3C7.3171 21.5867 6.08301 23.2409 6.08301 25.0256V27.5212C7.5825 27.5212 8.80234 26.3158 8.80234 24.834V23.9383H10.6152V24.834C10.6152 27.3034 8.58199 29.3127 6.08301 29.3127V31.9999H6.98945C10.4938 31.9999 13.3346 29.1926 13.3346 25.7298V24.834C13.3346 22.6578 11.3714 20.9349 9.09981 21.3Z"
        fill="#43AC17" />
    <path
        d="M22.3981 15.2096C22.3981 14.0413 20.8545 12.8926 19.8008 12.5225V16.1053H22.3981V15.2096Z"
        fill="#43AC17" />
    <path fill-rule="evenodd" clip-rule="evenodd"
        d="M14.2402 12.2339H18.7724V23.9381C18.7724 26.9115 16.6724 29.3886 13.8619 30.0332C14.6651 28.7851 15.1466 27.3152 15.1466 25.7296V24.8339C15.1466 21.8706 12.7074 19.46 9.70801 19.4595V16.7125C9.70801 14.239 11.7371 12.2339 14.2402 12.2339ZM15.7144 16.5605C16.3592 16.5605 16.8819 16.0439 16.8819 15.4067C16.8819 14.7695 16.3592 14.2529 15.7144 14.2529C15.0696 14.2529 14.5469 14.7695 14.5469 15.4067C14.5469 16.0439 15.0696 16.5605 15.7144 16.5605Z"
        fill="#43AC17" />
</svg>