<svg width="32" height="32" viewBox="0 0 32 32" fill="none" xmlns="http://www.w3.org/2000/svg">
    <g clip-path="url(#clip0_5336_5989)">
        <rect width="32" height="32" fill="#FAFAFA" />
        <path opacity="0.982" fill-rule="evenodd" clip-rule="evenodd"
            d="M14.8127 0.3125C14.4921 5.04896 16.4087 8.50729 20.5627 10.6875C19.9846 11.228 19.4012 11.7697 18.8127 12.3125C18.0132 11.8679 17.2632 11.3471 16.5627 10.75C16.0339 10.2422 15.5339 9.7214 15.0627 9.1875C14.7534 8.57041 14.3784 7.98709 13.9377 7.4375C12.8872 5.26822 12.4289 2.97656 12.5627 0.5625C13.3085 0.444076 14.0585 0.360742 14.8127 0.3125Z"
            fill="#26597B" />
        <path opacity="0.991" fill-rule="evenodd" clip-rule="evenodd"
            d="M14.8128 0.3125C15.1878 0.3125 15.5628 0.3125 15.9378 0.3125C15.5497 4.43219 17.133 7.53636 20.6878 9.625C20.8784 9.75107 21.0868 9.81358 21.3128 9.8125C21.1503 10.179 20.9003 10.4707 20.5628 10.6875C16.4088 8.50729 14.4922 5.04896 14.8128 0.3125Z"
            fill="#265C7D" />
        <path opacity="0.985" fill-rule="evenodd" clip-rule="evenodd"
            d="M15.9372 0.312322C17.0311 0.281706 18.1144 0.365039 19.1872 0.562322C18.9924 4.09642 20.5758 6.34642 23.9372 7.31232C23.1412 8.23345 22.2662 9.06678 21.3122 9.81232C21.0862 9.8134 20.8778 9.7509 20.6872 9.62482C17.1324 7.53618 15.5491 4.43201 15.9372 0.312322Z"
            fill="#26607E" />
        <path opacity="0.959" fill-rule="evenodd" clip-rule="evenodd"
            d="M12.5625 0.5625C12.4287 2.97656 12.887 5.26822 13.9375 7.4375C12.8268 6.24748 11.4518 5.74747 9.8125 5.9375C9.45546 4.58676 9.24712 3.21176 9.1875 1.8125C10.2486 1.25014 11.3736 0.833468 12.5625 0.5625Z"
            fill="#265479" />
        <path opacity="0.974" fill-rule="evenodd" clip-rule="evenodd"
            d="M19.1879 0.5625C20.5436 0.847714 21.8354 1.30605 23.0629 1.9375C23.421 3.09695 24.2126 3.59695 25.4379 3.4375C26.5212 4.27084 27.4795 5.22916 28.3129 6.3125C27.4774 6.85464 26.5607 7.18797 25.5629 7.3125C25.0212 6.8125 24.4795 6.8125 23.9379 7.3125C20.5765 6.3466 18.9931 4.0966 19.1879 0.5625Z"
            fill="#266681" />
        <path opacity="0.959" fill-rule="evenodd" clip-rule="evenodd"
            d="M9.1875 1.8125C9.24712 3.21176 9.45546 4.58676 9.8125 5.9375C9.2459 5.96461 8.70424 6.08961 8.1875 6.3125C7.88489 5.12191 7.67656 3.91358 7.5625 2.6875C8.0434 2.30092 8.58506 2.00926 9.1875 1.8125Z"
            fill="#265077" />
        <path opacity="0.774" fill-rule="evenodd" clip-rule="evenodd"
            d="M23.0625 1.9375C23.922 2.34551 24.7138 2.84551 25.4375 3.4375C24.2122 3.59695 23.4206 3.09695 23.0625 1.9375Z"
            fill="#266B83" />
        <path opacity="0.943" fill-rule="evenodd" clip-rule="evenodd"
            d="M7.5625 2.6875C7.67656 3.91358 7.88489 5.12191 8.1875 6.3125C7.4454 6.72141 6.8204 7.26309 6.3125 7.9375C5.94344 6.71127 5.69344 5.46127 5.5625 4.1875C6.1349 3.56731 6.80158 3.06731 7.5625 2.6875Z"
            fill="#264C75" />
        <path opacity="0.941" fill-rule="evenodd" clip-rule="evenodd"
            d="M5.5625 4.1875C5.69344 5.46127 5.94344 6.71127 6.3125 7.9375C5.95243 8.55528 5.66076 9.15945 5.4375 9.75C5.50788 10.3309 5.50788 10.9767 5.4375 11.6875C6.20714 14.5104 8.16547 15.802 11.3125 15.5625C12.0155 16.2879 12.7655 16.9545 13.5625 17.5625C12.8125 18.3959 12.0208 19.1875 11.1875 19.9375C7.01434 16.718 4.22267 12.5514 2.8125 7.4375C3.49526 6.17017 4.41192 5.08685 5.5625 4.1875Z"
            fill="#264773" />
        <path opacity="0.955" fill-rule="evenodd" clip-rule="evenodd"
            d="M28.3125 6.3125C29.0524 7.16566 29.6357 8.12399 30.0625 9.1875C28.0194 10.4168 25.811 10.8752 23.4375 10.5625C24.0996 9.83774 24.7871 9.12941 25.5 8.4375C25.7272 8.07299 25.748 7.69799 25.5625 7.3125C26.5604 7.18797 27.477 6.85464 28.3125 6.3125Z"
            fill="#26607E" />
        <path opacity="0.984" fill-rule="evenodd" clip-rule="evenodd"
            d="M2.8125 7.4375C4.22267 12.5514 7.01434 16.718 11.1875 19.9375C10.8461 20.4042 10.4295 20.7792 9.9375 21.0625C6.02334 18.0219 3.27334 14.1469 1.6875 9.4375C1.93631 8.68883 2.31131 8.02216 2.8125 7.4375Z"
            fill="#264271" />
        <path opacity="0.958" fill-rule="evenodd" clip-rule="evenodd"
            d="M10.4375 7.68745C11.1122 9.27528 12.0289 10.6919 13.1875 11.9375C12.9506 12.5078 12.5756 12.9662 12.0625 13.3125C10.7573 11.7434 9.67392 10.035 8.8125 8.18745C9.27759 7.82442 9.81925 7.65774 10.4375 7.68745Z"
            fill="#264F77" />
        <path opacity="0.881" fill-rule="evenodd" clip-rule="evenodd"
            d="M10.4375 7.6875C12.233 7.92164 13.233 8.94247 13.4375 10.75C13.4222 11.1647 13.3389 11.5606 13.1875 11.9375C12.0289 10.692 11.1122 9.27532 10.4375 7.6875Z"
            fill="#265278" />
        <path opacity="0.956" fill-rule="evenodd" clip-rule="evenodd"
            d="M8.8125 8.1875C9.67392 10.0351 10.7573 11.7434 12.0625 13.3125C11.2362 13.7751 10.3612 13.9001 9.4375 13.6875C8.69753 12.5826 7.98919 11.4576 7.3125 10.3125C7.4216 9.32837 7.9216 8.62004 8.8125 8.1875Z"
            fill="#264C75" />
        <path opacity="0.935" fill-rule="evenodd" clip-rule="evenodd"
            d="M15.0625 9.1875C15.5336 9.7214 16.0336 10.2422 16.5625 10.75C17.263 11.3471 18.013 11.8679 18.8125 12.3125C18.0692 13.1391 17.2776 13.9308 16.4375 14.6875C15.7065 14.3731 15.0815 13.9147 14.5625 13.3125C15.2675 12.0029 15.4341 10.6279 15.0625 9.1875Z"
            fill="#265479" />
        <path opacity="0.976" fill-rule="evenodd" clip-rule="evenodd"
            d="M30.0625 9.1875C30.2866 9.42826 30.4116 9.71992 30.4375 10.0625C28.0282 11.6607 25.4032 12.119 22.5625 11.4375C22.8125 11.1042 23.1041 10.8125 23.4375 10.5625C25.811 10.8752 28.0194 10.4168 30.0625 9.1875Z"
            fill="#265C7D" />
        <path opacity="0.985" fill-rule="evenodd" clip-rule="evenodd"
            d="M1.6875 9.4375C3.27334 14.1469 6.02334 18.0219 9.9375 21.0625C9.55894 21.4824 9.18394 21.899 8.8125 22.3125C5.30021 19.5082 2.63355 16.0499 0.8125 11.9375C0.958328 11.0411 1.24999 10.2078 1.6875 9.4375Z"
            fill="#26406F" />
        <path opacity="0.982" fill-rule="evenodd" clip-rule="evenodd"
            d="M30.4375 10.0625C30.8009 10.7624 31.0509 11.5124 31.1875 12.3125C27.815 14.1266 24.315 14.4184 20.6875 13.1875C21.3092 12.6076 21.9342 12.0243 22.5625 11.4375C25.4032 12.119 28.0282 11.6607 30.4375 10.0625Z"
            fill="#26597B" />
        <path opacity="0.745" fill-rule="evenodd" clip-rule="evenodd"
            d="M7.31249 10.3125C7.98917 11.4576 8.69751 12.5826 9.43749 13.6875C7.83735 13.0936 7.12902 11.9686 7.31249 10.3125Z"
            fill="#264974" />
        <path opacity="0.984" fill-rule="evenodd" clip-rule="evenodd"
            d="M0.812109 11.9375C2.63316 16.0499 5.29982 19.5082 8.81211 22.3125C8.2326 22.788 7.71176 23.3298 7.24961 23.9375C7.21782 25.0701 7.73866 25.4243 8.81211 25C9.29935 24.423 9.84102 23.9021 10.4371 23.4375C15.2204 26.5295 20.4704 27.9877 26.1871 27.8125C24.6431 29.226 22.8514 30.226 20.8121 30.8125C12.2359 29.4232 5.44426 25.2149 0.437109 18.1875C0.29673 16.7766 0.275896 15.3599 0.374609 13.9375C0.435421 13.2361 0.581254 12.5695 0.812109 11.9375Z"
            fill="#263B6D" />
        <path opacity="0.987" fill-rule="evenodd" clip-rule="evenodd"
            d="M31.187 12.3125C31.493 13.4961 31.618 14.7045 31.562 15.9375C27.086 17.8027 22.6277 17.7611 18.187 15.8125C18.1707 15.7201 18.1915 15.6367 18.2495 15.5625C19.1284 14.8294 19.9409 14.0378 20.687 13.1875C24.3145 14.4184 27.8145 14.1266 31.187 12.3125Z"
            fill="#265479" />
        <path opacity="0.923" fill-rule="evenodd" clip-rule="evenodd"
            d="M14.5625 13.3125C15.0815 13.9147 15.7065 14.3731 16.4375 14.6875C16.0625 15.1459 15.6459 15.5625 15.1875 15.9375C14.6041 15.5209 14.0209 15.1041 13.4375 14.6875C13.8635 14.2624 14.2385 13.804 14.5625 13.3125Z"
            fill="#265077" />
        <path opacity="0.914" fill-rule="evenodd" clip-rule="evenodd"
            d="M13.4375 14.6875C14.0209 15.1041 14.6041 15.5209 15.1875 15.9375C14.6875 16.5209 14.1459 17.0625 13.5625 17.5625C12.7655 16.9545 12.0155 16.2879 11.3125 15.5625C12.0292 15.3089 12.7375 15.0173 13.4375 14.6875Z"
            fill="#264C75" />
        <path opacity="0.994" fill-rule="evenodd" clip-rule="evenodd"
            d="M18.1875 15.8125C22.6281 17.7611 27.0865 17.8027 31.5625 15.9375C31.5625 16.5209 31.5625 17.1041 31.5625 17.6875C26.9999 19.4036 22.4583 19.3411 17.9375 17.5C17.5761 17.3407 17.2427 17.1532 16.9375 16.9375C17.351 16.5661 17.7676 16.1911 18.1875 15.8125Z"
            fill="#264F77" />
        <path opacity="0.969" fill-rule="evenodd" clip-rule="evenodd"
            d="M16.9375 16.9375C17.2427 17.1532 17.5761 17.3407 17.9375 17.5C22.4583 19.3411 26.9999 19.4036 31.5625 17.6875C31.4635 18.6019 31.2551 19.4769 30.9375 20.3125C29.5069 20.7236 28.0485 20.9736 26.5625 21.0625C26.6318 19.7325 26.0692 19.3158 24.875 19.8125C24.7204 20.2575 24.6579 20.7159 24.6875 21.1875C22.5068 21.118 20.3818 20.743 18.3125 20.0625C18.257 19.8609 18.132 19.715 17.9375 19.625C17.6488 19.5629 17.3571 19.5421 17.0625 19.5625C16.4425 19.2941 15.8591 18.9608 15.3125 18.5625C15.8125 17.9791 16.3541 17.4375 16.9375 16.9375Z"
            fill="#264C75" />
        <path opacity="0.981" fill-rule="evenodd" clip-rule="evenodd"
            d="M0.4375 18.1875C5.44465 25.2149 12.2363 29.4232 20.8125 30.8125C19.9015 31.1745 18.9431 31.4036 17.9375 31.5C16.5824 31.6031 15.249 31.5824 13.9375 31.4375C9.76546 29.8312 6.05714 27.4979 2.8125 24.4375C1.48248 22.5742 0.690806 20.491 0.4375 18.1875Z"
            fill="#26366B" />
        <path opacity="0.932" fill-rule="evenodd" clip-rule="evenodd"
            d="M15.3125 18.5625C15.8591 18.9608 16.4425 19.2941 17.0625 19.5625C16.7002 19.9401 16.5336 20.3985 16.5625 20.9375C16.6025 21.68 16.7691 22.3882 17.0625 23.0625C15.5777 22.5284 14.1611 21.8616 12.8125 21.0625C13.6041 20.1875 14.4375 19.3541 15.3125 18.5625Z"
            fill="#264773" />
        <path opacity="0.928" fill-rule="evenodd" clip-rule="evenodd"
            d="M18.3125 20.0625C20.3818 20.743 22.5068 21.118 24.6875 21.1875C24.3142 23.2073 23.1059 24.1864 21.0625 24.125C19.9079 23.8456 19.0954 23.1581 18.625 22.0625C18.5124 21.3911 18.4082 20.7245 18.3125 20.0625Z"
            fill="#264773" />
        <path opacity="0.955" fill-rule="evenodd" clip-rule="evenodd"
            d="M30.9375 20.3125C30.6659 21.6882 30.1241 22.9382 29.3125 24.0625C27.9542 24.343 26.5792 24.468 25.1875 24.4375C26.0107 23.4694 26.469 22.3444 26.5625 21.0625C28.0485 20.9736 29.5069 20.7236 30.9375 20.3125Z"
            fill="#264773" />
        <path opacity="0.951" fill-rule="evenodd" clip-rule="evenodd"
            d="M12.8125 21.0625C14.1611 21.8616 15.5777 22.5284 17.0625 23.0625C17.5535 24.0533 18.2619 24.8449 19.1875 25.4375C16.4673 24.8265 13.9673 23.7433 11.6875 22.1875C12.0208 21.7709 12.3958 21.3959 12.8125 21.0625Z"
            fill="#264271" />
        <path opacity="0.979" fill-rule="evenodd" clip-rule="evenodd"
            d="M11.6875 22.1875C13.9673 23.7433 16.4673 24.8265 19.1875 25.4375C20.0979 25.8575 21.0561 26.0241 22.0625 25.9375C22.9946 26.1074 23.953 26.1908 24.9375 26.1875C25.9379 26.1458 26.9379 26.1041 27.9375 26.0625C27.3959 26.6875 26.8125 27.2709 26.1875 27.8125C20.4707 27.9877 15.2207 26.5295 10.4375 23.4375C10.8125 22.9791 11.2292 22.5625 11.6875 22.1875Z"
            fill="#263F6F" />
        <path opacity="0.939" fill-rule="evenodd" clip-rule="evenodd"
            d="M29.3125 24.0625C28.9509 24.7985 28.4925 25.4653 27.9375 26.0625C26.9379 26.1041 25.9379 26.1458 24.9375 26.1875C23.953 26.1908 22.9946 26.1074 22.0625 25.9375C23.2859 25.8049 24.3276 25.3049 25.1875 24.4375C26.5792 24.468 27.9542 24.343 29.3125 24.0625Z"
            fill="#264271" />
        <path opacity="0.87" fill-rule="evenodd" clip-rule="evenodd"
            d="M2.8125 24.4375C6.05714 27.4979 9.76546 29.8312 13.9375 31.4375C9.12192 30.8244 5.4136 28.491 2.8125 24.4375Z"
            fill="#26336A" />
    </g>
    <defs>
        <clipPath id="clip0_5336_5989">
            <rect width="32" height="32" fill="white" />
        </clipPath>
    </defs>
</svg>