<svg width="32" height="32" viewBox="0 0 32 32" fill="none" xmlns="http://www.w3.org/2000/svg">
    <g clip-path="url(#clip0_5347_118)">
        <path opacity="0.931" fill-rule="evenodd" clip-rule="evenodd"
            d="M9.5 -0.5C13.5 -0.5 17.5 -0.5 21.5 -0.5C25.8333 1.83333 29.1667 5.16667 31.5 9.5C31.5 13.5 31.5 17.5 31.5 21.5C29.1667 25.8333 25.8333 29.1667 21.5 31.5C17.5 31.5 13.5 31.5 9.5 31.5C5.16667 29.1667 1.83333 25.8333 -0.5 21.5C-0.5 17.5 -0.5 13.5 -0.5 9.5C1.83333 5.16667 5.16667 1.83333 9.5 -0.5Z"
            fill="#15AC10" />
        <path fill-rule="evenodd" clip-rule="evenodd"
            d="M11.5 4.49977C14.7766 4.21591 17.9433 4.54925 21 5.49977C21.4983 8.81654 21.665 12.1499 21.5 15.4998C20.1779 15.6698 19.0113 15.3364 18 14.4998C17.5026 11.8538 17.3359 9.18707 17.5 6.49977C16.1667 6.49977 14.8333 6.49977 13.5 6.49977C13.3354 9.51815 13.502 12.5182 14 15.4998C16.1917 16.3993 18.3584 17.3993 20.5 18.4998C22.1707 25.9794 19.1707 28.4794 11.5 25.9998C9.84469 24.5555 9.17803 22.7222 9.50005 20.4998C10.8333 20.4998 12.1667 20.4998 13.5 20.4998C13.5 21.8331 13.5 23.1665 13.5 24.4998C14.8333 24.4998 16.1667 24.4998 17.5 24.4998C17.7852 22.7118 17.4519 21.0451 16.5 19.4998C14.5 18.4998 12.5 17.4998 10.5 16.4998C9.01637 12.2203 9.3497 8.22028 11.5 4.49977Z"
            fill="#F5FBF5" />
    </g>
    <defs>
        <clipPath id="clip0_5347_118">
            <rect width="32" height="32" fill="white" />
        </clipPath>
    </defs>
</svg>