<svg width="32" height="32" viewBox="0 0 32 32" fill="none" xmlns="http://www.w3.org/2000/svg">
    <g clip-path="url(#clip0_5085_850)">
        <path fill-rule="evenodd" clip-rule="evenodd"
            d="M-0.0712891 -0.0712891C10.5954 -0.0712891 21.262 -0.0712891 31.9287 -0.0712891C31.9287 10.5954 31.9287 21.262 31.9287 31.9287C21.262 31.9287 10.5954 31.9287 -0.0712891 31.9287C-0.0712891 21.262 -0.0712891 10.5954 -0.0712891 -0.0712891Z"
            fill="#F36743" />
        <path fill-rule="evenodd" clip-rule="evenodd"
            d="M20.1249 13.2978C19.9296 13.32 19.7399 13.2963 19.556 13.2266C19.6034 13.1792 19.6509 13.1318 19.6982 13.0844C19.3427 12.8018 18.9634 12.541 18.5604 12.3022C18.2215 12.439 18.0793 12.2968 18.1338 11.8755C17.5871 11.8762 17.2079 11.6155 16.996 11.0933C16.6356 9.98241 16.6356 8.89205 16.996 7.8222C16.5333 7.67479 16.0593 7.57998 15.5738 7.53776C15.7736 7.35725 16.0105 7.28614 16.2849 7.32442C16.2849 7.1822 16.2849 7.03998 16.2849 6.89776C15.8483 6.87894 15.4216 6.92634 15.0049 7.03998C16.4499 6.50652 17.3979 7.00429 17.8493 8.53331C17.8348 9.07169 17.6215 9.52207 17.2093 9.88442C17.0405 10.1041 16.9931 10.3411 17.0671 10.5955C18.1309 11.4472 19.1502 12.3479 20.1249 13.2978Z"
            fill="#FBD8C9" />
        <path fill-rule="evenodd" clip-rule="evenodd"
            d="M7.89327 11.7334C7.35944 11.8642 7.1224 11.6272 7.18216 11.0223C6.97871 11.011 6.78909 11.0584 6.61327 11.1645C6.47789 10.9447 6.43049 10.7077 6.47105 10.4534C5.98717 10.431 5.5131 10.4784 5.04883 10.5956C6.0694 9.93845 6.99385 10.0807 7.82216 11.0223C7.89235 11.2547 7.91606 11.4917 7.89327 11.7334Z"
            fill="#FAD1C1" />
        <path fill-rule="evenodd" clip-rule="evenodd"
            d="M26.8093 10.5956C26.9392 10.8211 26.9392 11.0345 26.8093 11.2356C26.9242 11.2793 27.0191 11.3504 27.0937 11.4489C26.8029 12.0086 26.6607 12.5775 26.6671 13.1556C26.4072 13.4487 26.0754 13.6383 25.6715 13.7244C24.3979 16.6797 23.0943 19.619 21.7604 22.5422C21.4444 23.0952 20.9941 23.4981 20.4093 23.7511C17.6215 23.9829 14.8245 24.0303 12.0182 23.8933C11.2183 23.8027 10.6494 23.3997 10.3115 22.6844C10.8652 22.9828 11.4341 23.2435 12.0182 23.4667C14.436 23.5615 16.8537 23.5615 19.2715 23.4667C19.8333 23.233 20.3548 22.9248 20.836 22.5422C20.9509 22.1973 21.0931 21.8655 21.2626 21.5467C21.3942 21.3844 21.5128 21.3844 21.6182 21.5467C21.6481 21.3614 21.6243 21.1718 21.5471 20.9778C21.9671 20.327 22.2279 19.6159 22.3293 18.8444C22.5217 18.6759 22.6877 18.4862 22.8271 18.2756C22.8094 18.1892 22.7621 18.1419 22.6849 18.1333C23.0219 17.4562 23.3064 16.7451 23.5382 16C23.6555 15.874 23.7977 15.8266 23.9649 15.8578C24.1257 14.7373 24.6235 13.7891 25.4582 13.0133C25.5279 12.8294 25.5516 12.6398 25.5293 12.4444C25.7189 12.4444 25.9086 12.4444 26.0982 12.4444C26.0075 11.8064 26.1972 11.285 26.6671 10.88C25.7031 10.2303 24.8498 10.3251 24.1071 11.1644C24.577 10.2246 25.3355 9.91647 26.3826 10.24C26.4648 10.4415 26.6071 10.5601 26.8093 10.5956Z"
            fill="#FBCFBD" />
        <path fill-rule="evenodd" clip-rule="evenodd"
            d="M26.8084 10.5957C27.2145 10.9087 27.4042 11.3354 27.3773 11.8757C27.4297 12.4877 27.1926 12.9144 26.6662 13.1557C26.6598 12.5777 26.802 12.0088 27.0929 11.449C27.0182 11.3506 26.9234 11.2795 26.8084 11.2357C26.9383 11.0346 26.9383 10.8213 26.8084 10.5957Z"
            fill="#FCC4AC" />
        <path fill-rule="evenodd" clip-rule="evenodd"
            d="M20.1246 13.2976C20.2905 13.4846 20.5039 13.5794 20.7646 13.582C21.8647 13.2704 22.9787 13.0334 24.1068 12.8709C23.9393 12.2952 23.9393 11.7263 24.1068 11.1642C24.8495 10.3249 25.7028 10.2301 26.6668 10.8798C26.1969 11.2848 26.0072 11.8062 26.0979 12.4442C25.9083 12.4442 25.7186 12.4442 25.529 12.4442C25.5513 12.6396 25.5276 12.8292 25.4579 13.0131C24.6232 13.7889 24.1254 14.7371 23.9646 15.8576C23.7975 15.8264 23.6552 15.8738 23.5379 15.9998C23.3061 16.7449 23.0216 17.456 22.6846 18.1331C22.5175 18.102 22.3752 18.1493 22.2579 18.2753C21.7971 19.4872 21.2993 20.6725 20.7646 21.8309C20.1748 22.1397 19.6296 22.4952 19.129 22.8976C17.0393 22.9286 14.9534 22.9523 12.8712 22.9687C12.4201 22.9759 11.9934 22.8811 11.5912 22.6842C11.4573 22.6996 11.3388 22.747 11.2357 22.8265C10.8436 22.5178 10.4407 22.2334 10.0268 21.9731C8.74035 19.2567 7.48404 16.507 6.2579 13.7242C4.48216 13.1697 4.07919 12.1267 5.04902 10.5953C5.51329 10.4781 5.98736 10.4307 6.47124 10.4531C6.43068 10.7074 6.47808 10.9445 6.61346 11.1642C6.78928 11.0582 6.9789 11.0107 7.18235 11.022C7.12259 11.6269 7.35963 11.8639 7.89346 11.7331C7.89346 11.9702 7.89346 12.2072 7.89346 12.4442C7.79864 12.4916 7.70383 12.5391 7.60902 12.5865C7.60048 12.5092 7.55308 12.4618 7.46679 12.4442C7.35412 12.7237 7.25932 13.0081 7.18235 13.2976C6.63138 13.5113 6.67878 13.6061 7.32457 13.582C7.30752 13.8998 7.35494 14.2079 7.46679 14.5065C7.39251 14.6416 7.29769 14.7602 7.18235 14.862C7.79976 15.1038 7.89458 15.4831 7.46679 15.9998C7.66066 16.1979 7.77917 16.4348 7.82235 16.7109C7.85779 16.551 7.9289 16.4088 8.03568 16.2842C8.42931 16.8483 8.71375 17.4645 8.88902 18.1331C8.84382 18.2962 8.74901 18.4149 8.60457 18.4887C8.97537 19.0971 9.28351 19.7371 9.52902 20.4087C9.56446 20.2488 9.63557 20.1066 9.74235 19.982C9.90514 20.1635 9.90514 20.3531 9.74235 20.5509C9.93822 20.8053 10.0804 21.0898 10.169 21.4042C10.5098 21.6659 10.818 21.9504 11.0935 22.2576C11.5515 22.0738 12.0019 22.0974 12.4446 22.3287C14.3883 22.4235 16.3319 22.4235 18.2757 22.3287C18.6915 22.1882 19.1182 22.0934 19.5557 22.0442C19.9647 21.7349 20.3203 21.3793 20.6223 20.9776C21.2222 19.727 21.7674 18.447 22.2579 17.1376C22.3752 17.0116 22.5175 16.9642 22.6846 16.9953C22.6401 16.6047 22.6874 16.2254 22.8268 15.8576C23.2826 15.1722 23.4722 14.4137 23.3957 13.582C23.1752 13.4111 22.6537 13.3874 21.8312 13.5109C21.5 13.9132 21.0733 14.0791 20.5512 14.0087C20.1222 13.9705 19.6955 13.9231 19.2712 13.8665C19.2712 13.6768 19.2712 13.4872 19.2712 13.2976C18.5516 13.4158 18.1723 13.1314 18.1335 12.4442C17.9382 12.4665 17.7485 12.4428 17.5646 12.3731C17.1174 11.9866 16.6196 11.6785 16.0712 11.4487C16.0239 11.022 15.9764 10.5953 15.929 10.1687C15.3992 10.2968 15.0437 10.676 14.8623 11.3065C14.7746 11.2907 14.7035 11.2433 14.649 11.1642C14.429 11.771 14.2157 11.8184 14.009 11.3065C14.3883 11.0685 14.6728 10.7366 14.8623 10.3109C14.1187 9.44768 13.9765 8.49953 14.4357 7.46645C14.5904 7.26245 14.7801 7.12023 15.0046 7.03979C15.4213 6.92615 15.8479 6.87875 16.2846 6.89756C16.2846 7.03979 16.2846 7.18201 16.2846 7.32423C16.0102 7.28595 15.7733 7.35706 15.5735 7.53756C16.059 7.57979 16.533 7.6746 16.9957 7.82201C16.6353 8.89186 16.6353 9.98222 16.9957 11.0931C17.2076 11.6153 17.5868 11.876 18.1335 11.8753C18.079 12.2966 18.2212 12.4388 18.5601 12.302C18.963 12.5409 19.3423 12.8016 19.6979 13.0842C19.6505 13.1316 19.603 13.1791 19.5557 13.2265C19.7396 13.2961 19.9293 13.3199 20.1246 13.2976Z"
            fill="#FDEBE4" />
        <path fill-rule="evenodd" clip-rule="evenodd"
            d="M7.60891 12.5867C7.63652 12.9297 7.82614 13.072 8.1778 13.0134C9.13139 13.1723 10.0795 13.362 11.0222 13.5823C11.3342 13.5512 11.6186 13.4564 11.8756 13.2978C11.7386 13.4206 11.7386 13.5155 11.8756 13.5823C12.1029 13.4422 12.3399 13.4185 12.5867 13.5112C12.1503 13.7758 11.7236 14.0365 11.3067 14.2934C10.1689 14.3883 9.03114 14.483 7.89336 14.5778C7.84596 14.6727 7.79854 14.7674 7.75114 14.8623C7.93031 14.9877 8.09622 15.1299 8.24891 15.2889C8.78316 16.5324 9.35205 17.765 9.95558 18.9867C10.161 19.2221 10.4217 19.317 10.7378 19.2712C10.7719 19.7091 10.7245 20.1357 10.5956 20.5512C10.9022 20.854 11.1393 21.1858 11.3067 21.5467C14.0551 21.9166 16.8047 21.9166 19.5556 21.5467C19.5832 21.1442 19.678 20.7651 19.84 20.4089C20.0296 20.4089 20.2193 20.4089 20.4089 20.4089C20.3876 19.9881 20.5298 19.6326 20.8356 19.3423C20.7706 19.2834 20.7231 19.2123 20.6934 19.1289C20.8465 18.8119 20.9414 18.48 20.9778 18.1334C21.1674 18.1334 21.3571 18.1334 21.5467 18.1334C21.4598 17.2449 21.7206 16.4865 22.3289 15.8578C22.338 15.3938 22.4566 14.9671 22.6845 14.5778C22.2397 14.5096 21.8368 14.3673 21.4756 14.1512C20.8681 14.435 20.2281 14.5062 19.5556 14.3645C18.8418 13.6218 17.9884 13.1714 16.9956 13.0134C16.9573 12.4062 16.6254 12.0743 16 12.0178C15.8254 11.5932 15.6595 11.1666 15.5022 10.7378C15.3333 10.8891 15.2622 11.0787 15.2889 11.3067C15.1467 11.3067 15.0045 11.3067 14.8622 11.3067C15.0436 10.6763 15.3991 10.297 15.9289 10.1689C15.9763 10.5956 16.0238 11.0223 16.0711 11.4489C16.6195 11.6787 17.1173 11.9869 17.5645 12.3734C17.7484 12.4431 17.9381 12.4668 18.1334 12.4445C18.1722 13.1317 18.5515 13.4161 19.2711 13.2978C19.2711 13.4875 19.2711 13.6771 19.2711 13.8667C19.6954 13.9234 20.1221 13.9708 20.5511 14.0089C21.0732 14.0794 21.4999 13.9135 21.8311 13.5112C22.6536 13.3877 23.1751 13.4114 23.3956 13.5823C23.4721 14.414 23.2825 15.1725 22.8267 15.8578C22.6873 16.2256 22.64 16.6049 22.6845 16.9956C22.5174 16.9645 22.3751 17.0118 22.2578 17.1378C21.7673 18.4473 21.2221 19.7273 20.6222 20.9778C20.3202 21.3796 19.9646 21.7352 19.5556 22.0445C19.1181 22.0937 18.6914 22.1884 18.2756 22.3289C16.3318 22.4238 14.3882 22.4238 12.4445 22.3289C12.0018 22.0977 11.5514 22.0741 11.0934 22.2578C10.8179 21.9506 10.5097 21.6662 10.1689 21.4045C10.0803 21.09 9.93812 20.8056 9.74225 20.5512C9.90504 20.3533 9.90504 20.1638 9.74225 19.9823C9.63547 20.1069 9.56436 20.2491 9.52891 20.4089C9.28341 19.7374 8.97527 19.0974 8.60447 18.4889C8.74891 18.4151 8.84372 18.2965 8.88891 18.1334C8.71365 17.4648 8.42921 16.8486 8.03558 16.2845C7.9288 16.4091 7.85769 16.5513 7.82225 16.7112C7.77907 16.4351 7.66056 16.1982 7.46669 16.0001C7.89448 15.4834 7.79966 15.1041 7.18225 14.8623C7.29759 14.7604 7.39241 14.6418 7.46669 14.5067C7.35483 14.2082 7.30742 13.9001 7.32447 13.5823C6.67868 13.6063 6.63128 13.5115 7.18225 13.2978C7.25922 13.0084 7.35402 12.7239 7.46669 12.4445C7.55298 12.4621 7.60038 12.5095 7.60891 12.5867Z"
            fill="#FDF7F3" />
        <path fill-rule="evenodd" clip-rule="evenodd"
            d="M7.89382 12.4443C7.89767 12.686 7.99249 12.8756 8.17826 13.0132C7.82661 13.0718 7.63698 12.9296 7.60938 12.5866C7.70419 12.5392 7.799 12.4917 7.89382 12.4443Z"
            fill="#E99C8D" />
        <path fill-rule="evenodd" clip-rule="evenodd"
            d="M11.8754 13.2978C12.5362 12.5899 13.2474 11.9262 14.0088 11.3067C14.2154 11.8187 14.4287 11.7713 14.6488 11.1645C14.7032 11.2435 14.7743 11.2909 14.8621 11.3067C15.0043 11.3067 15.1465 11.3067 15.2888 11.3067C15.262 11.0787 15.3331 10.889 15.5021 10.7378C15.6594 11.1665 15.8252 11.5932 15.9999 12.0178C16.6252 12.0743 16.9572 12.4061 16.9954 13.0133C17.9883 13.1714 18.8416 13.6217 19.5554 14.3645C20.228 14.5061 20.868 14.435 21.4754 14.1511C21.8367 14.3673 22.2396 14.5095 22.6843 14.5778C22.4565 14.9671 22.3379 15.3937 22.3288 15.8578C21.7205 16.4864 21.4596 17.2449 21.5465 18.1333C21.357 18.1333 21.1672 18.1333 20.9776 18.1333C20.9412 18.4799 20.8464 18.8119 20.6932 19.1289C20.7229 19.2122 20.7704 19.2834 20.8354 19.3422C20.5296 19.6325 20.3874 19.9881 20.4088 20.4089C20.2192 20.4089 20.0294 20.4089 19.8399 20.4089C19.6779 20.765 19.583 21.1442 19.5554 21.5467C16.8046 21.9166 14.0549 21.9166 11.3065 21.5467C11.1391 21.1857 10.9021 20.8539 10.5954 20.5511C10.7244 20.1357 10.7718 19.709 10.7376 19.2711C10.4216 19.3169 10.1608 19.2221 9.95542 18.9867C9.35189 17.765 8.783 16.5324 8.24875 15.2889C8.09606 15.1299 7.93015 14.9877 7.75098 14.8622C7.79838 14.7674 7.8458 14.6727 7.8932 14.5778C9.03098 14.4829 10.1688 14.3882 11.3065 14.2933C11.7234 14.0365 12.1501 13.7758 12.5865 13.5111C12.3398 13.4185 12.1027 13.4422 11.8754 13.5822C11.7385 13.5154 11.7385 13.4206 11.8754 13.2978Z"
            fill="#FEFEFE" />
        <path fill-rule="evenodd" clip-rule="evenodd"
            d="M22.6841 18.1333C22.7614 18.1418 22.8087 18.1892 22.8264 18.2755C22.687 18.4861 22.521 18.6759 22.3286 18.8444C22.2272 19.6158 21.9663 20.3269 21.5464 20.9777C21.6236 21.1717 21.6473 21.3613 21.6175 21.5466C21.5121 21.3843 21.3935 21.3843 21.2619 21.5466C21.0924 21.8655 20.9502 22.1973 20.8353 22.5422C20.3541 22.9248 19.8326 23.233 19.2708 23.4666C16.853 23.5615 14.4353 23.5615 12.0175 23.4666C11.4334 23.2435 10.8645 22.9828 10.3108 22.6844C10.1633 22.481 10.0685 22.2439 10.0264 21.9733C10.4402 22.2336 10.8432 22.518 11.2353 22.8266C11.3383 22.7471 11.4569 22.6998 11.5908 22.6844C11.993 22.8812 12.4196 22.9761 12.8708 22.9688C14.9529 22.9525 17.0389 22.9287 19.1286 22.8977C19.6292 22.4954 20.1743 22.1398 20.7641 21.8311C21.2989 20.6727 21.7967 19.4874 22.2575 18.2755C22.3748 18.1495 22.517 18.1021 22.6841 18.1333Z"
            fill="#FEDDD1" />
    </g>
    <defs>
        <clipPath id="clip0_5085_850">
            <rect width="32" height="32" fill="white" />
        </clipPath>
    </defs>
</svg>