<svg width="32" height="32" viewBox="0 0 32 32" fill="none" xmlns="http://www.w3.org/2000/svg">
    <g clip-path="url(#clip0_5097_163)">
        <path opacity="0.998" fill-rule="evenodd" clip-rule="evenodd"
            d="M14.1138 -0.0571289C15.3329 -0.0571289 16.5519 -0.0571289 17.771 -0.0571289C25.8634 1.4202 30.5873 6.2202 31.9424 14.3429C31.9424 15.4095 31.9424 16.4762 31.9424 17.5429C30.9114 24.3863 27.14 28.9767 20.6281 31.3143C19.6228 31.5281 18.6323 31.7376 17.6567 31.9429C16.5138 31.9429 15.371 31.9429 14.2281 31.9429C7.6309 30.927 3.11661 27.308 0.68524 21.0857C0.413338 20.0096 0.16572 18.943 -0.0576172 17.8857C-0.0576172 16.5905 -0.0576172 15.2952 -0.0576172 14C1.02892 7.50621 4.64797 3.06811 10.7995 0.685728C11.911 0.399033 13.0158 0.151414 14.1138 -0.0571289Z"
            fill="#184E3F" />
        <path fill-rule="evenodd" clip-rule="evenodd"
            d="M17.6568 21.6573C17.6558 21.8639 17.7129 22.0544 17.8282 22.2287C17.8663 22.1906 17.9045 22.1525 17.9425 22.1144C17.9551 22.3827 18.0885 22.5542 18.3425 22.6287C18.0481 22.7181 17.8196 22.8895 17.6568 23.143C17.7999 23.3145 17.9142 23.505 17.9997 23.7144C17.9407 24.0067 17.9025 24.2925 17.8854 24.5715C17.9616 24.6478 18.0377 24.7239 18.114 24.8001C17.9822 25.0153 17.7918 25.1105 17.5425 25.0858C15.6396 24.5368 14.1348 23.432 13.0282 21.7715C11.555 19.2299 10.9454 16.4871 11.1997 13.543C11.5727 11.2079 12.8489 9.62697 15.0282 8.80012C16.6876 8.59128 18.0781 9.10557 19.1997 10.343C20.6608 12.3247 21.118 14.5343 20.5711 16.9715C20.3706 18.4577 19.8945 19.8482 19.1425 21.143C18.5489 21.2849 18.0157 21.1706 17.5425 20.8001C17.0814 20.3773 16.6623 19.9201 16.2854 19.4287C17.2161 17.7037 17.578 15.856 17.3711 13.8858C17.2394 13.1065 16.8394 12.5161 16.1711 12.1144C15.5845 12.075 15.1463 12.3225 14.8568 12.8573C14.075 15.6313 14.5321 18.1837 16.2282 20.5144C16.6812 20.9387 17.1573 21.3197 17.6568 21.6573Z"
            fill="#67BDA6" />
        <path fill-rule="evenodd" clip-rule="evenodd"
            d="M8.39969 17.543C8.35922 17.7762 8.35922 17.9857 8.39969 18.1715C8.16967 18.3762 8.16967 18.5287 8.39969 18.6287C8.3235 18.6667 8.24732 18.7049 8.17112 18.743C8.42418 19.0995 8.42418 19.4424 8.17112 19.7715C8.24732 19.9621 8.3235 20.1525 8.39969 20.343C8.40879 20.6035 8.3326 20.8702 8.17112 21.143C8.46004 21.2934 8.46004 21.4267 8.17112 21.543C8.46004 21.6592 8.46004 21.7926 8.17112 21.943C8.3235 22.0573 8.3235 22.1715 8.17112 22.2858C8.46004 22.4362 8.46004 22.5696 8.17112 22.6858C8.37408 22.779 8.45028 22.9123 8.39969 23.0858C8.31469 23.2046 8.2004 23.2617 8.05684 23.2573C7.74338 23.0585 7.51481 22.7918 7.37112 22.4573C7.41384 22.0787 7.45193 21.6978 7.48541 21.3144C7.40313 20.7253 7.32694 20.1729 7.25684 19.6573C7.39079 19.6094 7.50508 19.5333 7.59969 19.4287C7.42784 19.2759 7.31356 19.0854 7.25684 18.8573C7.33303 18.781 7.40921 18.7049 7.48541 18.6287C7.33303 18.5144 7.33303 18.4001 7.48541 18.2858C7.20109 18.0933 7.23918 17.9408 7.59969 17.8287C7.46401 17.7122 7.34973 17.5789 7.25684 17.4287C7.39525 17.2893 7.39525 17.1559 7.25684 17.0287C7.49277 16.9123 7.53086 16.76 7.37112 16.5715C7.40073 16.4274 7.47693 16.3131 7.59969 16.2287C7.48362 16.1694 7.40744 16.0741 7.37112 15.943C7.3621 15.6053 7.4002 15.2815 7.48541 14.9715C7.20273 14.7515 7.20273 14.5421 7.48541 14.343C7.4557 13.9583 7.37951 13.5583 7.25684 13.143C7.33303 13.0287 7.40921 12.9144 7.48541 12.8001C7.4665 12.5902 7.39032 12.3616 7.25684 12.1144C7.48686 11.9097 7.48686 11.7573 7.25684 11.6573C7.40921 11.4287 7.40921 11.2001 7.25684 10.9715C7.51469 10.8002 7.51469 10.6097 7.25684 10.4001C7.31734 10.222 7.39352 10.0505 7.48541 9.88583C7.47128 9.81649 7.43319 9.7784 7.37112 9.77154C7.45813 9.66972 7.57241 9.59353 7.71398 9.54297C7.85816 9.84188 7.99149 10.1466 8.11398 10.4573C8.34658 10.6562 8.5561 10.8657 8.74255 11.0858C7.98242 13.2043 7.86814 15.3567 8.39969 17.543Z"
            fill="#52BDC7" />
        <path fill-rule="evenodd" clip-rule="evenodd"
            d="M7.37188 9.77148C7.43395 9.77834 7.47204 9.81643 7.48617 9.88577C7.39428 10.0505 7.3181 10.2219 7.2576 10.4001C7.51545 10.6097 7.51545 10.8001 7.2576 10.9715C7.40997 11.2001 7.40997 11.4286 7.2576 11.6572C7.48762 11.7572 7.48762 11.9097 7.2576 12.1143C7.39108 12.3615 7.46726 12.5901 7.48617 12.8001C7.40997 12.9143 7.33379 13.0286 7.2576 13.1429C7.38027 13.5582 7.45646 13.9582 7.48617 14.3429C7.20349 14.542 7.20349 14.7515 7.48617 14.9715C7.40096 15.2814 7.36286 15.6052 7.37188 15.9429C7.4082 16.074 7.48438 16.1693 7.60045 16.2286C7.47769 16.3131 7.40149 16.4274 7.37188 16.5715C7.53162 16.7599 7.49353 16.9123 7.2576 17.0286C7.39601 17.1558 7.39601 17.2892 7.2576 17.4286C7.35049 17.5788 7.46477 17.7122 7.60045 17.8286C7.23994 17.9407 7.20185 18.0932 7.48617 18.2858C7.33379 18.4001 7.33379 18.5143 7.48617 18.6286C7.40997 18.7049 7.33379 18.781 7.2576 18.8572C7.31432 19.0853 7.4286 19.2758 7.60045 19.4286C7.50584 19.5332 7.39155 19.6093 7.2576 19.6572C7.3277 20.1729 7.40389 20.7252 7.48617 21.3143C7.45269 21.6978 7.4146 22.0787 7.37188 22.4572C7.18573 22.3286 7.0143 22.1762 6.8576 22.0001C4.50194 18.1245 4.10194 14.0483 5.6576 9.77148C6.22902 9.77148 6.80045 9.77148 7.37188 9.77148Z"
            fill="#4CBDCE" />
        <path fill-rule="evenodd" clip-rule="evenodd"
            d="M24.8572 9.77154C24.9406 9.9101 25.0549 10.0244 25.2 10.1144C25.0398 10.2678 25.0779 10.3631 25.3143 10.4001C25.2 10.5144 25.0857 10.6287 24.9715 10.743C25.0477 10.8192 25.1238 10.8953 25.2 10.9715C25.1116 11.2464 25.0544 11.5321 25.0286 11.8287C24.9429 11.9002 24.8476 11.9574 24.7429 12.0001C25.0153 12.1611 25.1677 12.3517 25.2 12.5715C24.795 12.8088 24.8712 12.9611 25.4286 13.0287C25.1861 13.1522 24.9575 13.2285 24.7429 13.2573C24.8572 13.2953 24.9715 13.3335 25.0857 13.3715C24.8205 13.7285 24.8587 14.0713 25.2 14.4001C25.0616 14.5273 25.0616 14.6607 25.2 14.8001C25.1116 14.9385 25.0164 14.9385 24.9143 14.8001C24.8752 15.065 24.9324 15.3127 25.0857 15.543C25.0095 15.6192 24.9334 15.6953 24.8572 15.7715C24.8065 15.945 24.8828 16.0784 25.0857 16.1715C25.0312 16.2833 24.9551 16.3785 24.8572 16.4573C25.1571 16.7033 25.2713 17.0272 25.2 17.4287C24.846 17.4187 24.8078 17.4759 25.0857 17.6001C24.664 17.6486 24.6449 17.7439 25.0286 17.8858C25.0667 17.8478 25.1048 17.8096 25.1429 17.7715C25.195 17.9137 25.1379 18.0089 24.9715 18.0573C25.0356 18.2488 25.1499 18.4011 25.3143 18.5144C25.2576 18.7425 25.1433 18.933 24.9715 19.0858C25.2438 19.0933 25.32 19.1885 25.2 19.3715C25.26 19.4506 25.3363 19.5078 25.4286 19.543C25.3841 19.7279 25.2318 19.8613 24.9715 19.943C25.0585 19.9899 25.1728 20.0089 25.3143 20.0001C25.1847 20.1162 25.2228 20.1925 25.4286 20.2287C25.1076 20.4102 25.0315 20.6578 25.2 20.9715C25.14 21.0506 25.0638 21.1078 24.9715 21.143C25.1227 21.2362 25.1988 21.3696 25.2 21.543C24.5524 22.7239 23.6381 23.6382 22.4572 24.2858C22.4124 23.9834 22.4124 23.6977 22.4572 23.4287C22.3048 23.4287 22.1524 23.4287 22 23.4287C22.0763 23.3525 22.1524 23.2763 22.2286 23.2001C22.0763 23.0478 22.0763 22.8953 22.2286 22.743C22.1524 22.6667 22.0763 22.5906 22 22.5144C22.192 22.4747 22.3063 22.3605 22.3429 22.1715C22.235 21.8605 22.0827 21.5747 21.8857 21.3144C22.0241 21.0947 22.1765 20.8853 22.3429 20.6858C22.3988 20.5085 22.3225 20.3751 22.1143 20.2858C23.3969 18.3175 23.9493 16.1461 23.7715 13.7715C23.5253 12.8257 23.3348 11.8734 23.2 10.9144C23.3728 10.8279 23.5253 10.7136 23.6572 10.5715C23.8184 10.2197 23.9899 9.8768 24.1715 9.54297C24.3627 9.72426 24.5912 9.80044 24.8572 9.77154Z"
            fill="#48B494" />
        <path fill-rule="evenodd" clip-rule="evenodd"
            d="M24.8574 9.77154C25.3074 9.738 25.7454 9.7761 26.1717 9.88583C27.7121 13.9462 27.3883 17.8319 25.2003 21.543C25.199 21.3696 25.1229 21.2362 24.9717 21.143C25.0641 21.1078 25.1403 21.0506 25.2003 20.9715C25.0317 20.6578 25.1078 20.4102 25.4289 20.2287C25.223 20.1925 25.185 20.1162 25.3146 20.0001C25.1731 20.0089 25.0588 19.9899 24.9717 19.943C25.2321 19.8613 25.3844 19.7279 25.4289 19.543C25.3365 19.5078 25.2603 19.4506 25.2003 19.3715C25.3203 19.1885 25.2441 19.0933 24.9717 19.0858C25.1436 18.933 25.2579 18.7425 25.3146 18.5144C25.1501 18.4011 25.0358 18.2488 24.9717 18.0573C25.1381 18.0089 25.1953 17.9137 25.1432 17.7715C25.1051 17.8096 25.0669 17.8478 25.0289 17.8858C24.6452 17.7439 24.6643 17.6486 25.086 17.6001C24.8081 17.4759 24.8462 17.4187 25.2003 17.4287C25.2716 17.0272 25.1573 16.7033 24.8574 16.4573C24.9554 16.3785 25.0315 16.2833 25.086 16.1715C24.883 16.0784 24.8068 15.945 24.8574 15.7715C24.9337 15.6953 25.0098 15.6192 25.086 15.543C24.9326 15.3127 24.8755 15.065 24.9146 14.8001C25.0166 14.9385 25.1118 14.9385 25.2003 14.8001C25.0619 14.6607 25.0619 14.5273 25.2003 14.4001C24.8589 14.0713 24.8208 13.7285 25.086 13.3715C24.9717 13.3335 24.8574 13.2953 24.7432 13.2573C24.9578 13.2285 25.1864 13.1522 25.4289 13.0287C24.8715 12.9611 24.7953 12.8088 25.2003 12.5715C25.168 12.3517 25.0156 12.1611 24.7432 12.0001C24.8478 11.9574 24.9432 11.9002 25.0289 11.8287C25.0547 11.5321 25.1118 11.2464 25.2003 10.9715C25.1241 10.8953 25.048 10.8192 24.9717 10.743C25.086 10.6287 25.2003 10.5144 25.3146 10.4001C25.0781 10.3631 25.0401 10.2678 25.2003 10.1144C25.0552 10.0244 24.9409 9.9101 24.8574 9.77154Z"
            fill="#3DB18F" />
        <path fill-rule="evenodd" clip-rule="evenodd"
            d="M8.40047 17.543C8.70199 18.5653 9.15914 19.5176 9.7719 20.4001C9.68826 20.8537 9.68826 21.2918 9.7719 21.7144C9.49862 21.7934 9.49862 21.9077 9.7719 22.0573C9.51411 22.3066 9.51411 22.5733 9.7719 22.8573C9.72931 23.4072 9.69122 23.9215 9.65762 24.4001C9.02821 24.1513 8.49489 23.7704 8.05762 23.2573C8.20118 23.2617 8.31547 23.2046 8.40047 23.0858C8.45106 22.9123 8.37486 22.779 8.1719 22.6858C8.46082 22.5696 8.46082 22.4362 8.1719 22.2858C8.32428 22.1715 8.32428 22.0573 8.1719 21.943C8.46082 21.7926 8.46082 21.6592 8.1719 21.543C8.46082 21.4267 8.46082 21.2934 8.1719 21.143C8.33338 20.8702 8.40957 20.6035 8.40047 20.343C8.32428 20.1525 8.2481 19.9621 8.1719 19.7715C8.42497 19.4424 8.42497 19.0995 8.1719 18.743C8.2481 18.7049 8.32428 18.6667 8.40047 18.6287C8.17045 18.5287 8.17045 18.3762 8.40047 18.1715C8.36001 17.9857 8.36001 17.7762 8.40047 17.543Z"
            fill="#57BDC2" />
        <path fill-rule="evenodd" clip-rule="evenodd"
            d="M9.77137 20.3999C10.1951 20.8239 10.6523 21.2048 11.1428 21.5428C11.1753 22.7537 11.1753 23.9346 11.1428 25.0856C10.5779 24.9872 10.0827 24.7586 9.65708 24.3999C9.69068 23.9213 9.72877 23.407 9.77137 22.857C9.51357 22.573 9.51357 22.3064 9.77137 22.057C9.49809 21.9074 9.49809 21.7932 9.77137 21.7142C9.68772 21.2916 9.68772 20.8535 9.77137 20.3999Z"
            fill="#5ABDBD" />
        <path fill-rule="evenodd" clip-rule="evenodd"
            d="M22.1144 20.2856C22.3226 20.3749 22.3989 20.5083 22.343 20.6856C22.1766 20.8851 22.0242 21.0946 21.8858 21.3142C22.0827 21.5746 22.2351 21.8603 22.343 22.1714C22.3064 22.3603 22.1921 22.4746 22.0001 22.5142C22.0763 22.5904 22.1525 22.6666 22.2287 22.7428C22.0763 22.8951 22.0763 23.0476 22.2287 23.1999C22.1525 23.2762 22.0763 23.3523 22.0001 23.4285C22.1525 23.4285 22.3049 23.4285 22.4573 23.4285C22.4125 23.6975 22.4125 23.9832 22.4573 24.2856C20.9406 25.3052 19.3025 25.5719 17.543 25.0856C17.7922 25.1103 17.9826 25.0151 18.1144 24.7999C18.0382 24.7237 17.9621 24.6476 17.8858 24.5714C17.903 24.2923 17.9411 24.0066 18.0001 23.7142C17.9146 23.5048 17.8003 23.3143 17.6573 23.1428C17.82 22.8893 18.0486 22.7179 18.343 22.6285C18.0889 22.554 17.9555 22.3826 17.943 22.1142C17.9049 22.1523 17.8667 22.1904 17.8287 22.2285C17.7134 22.0542 17.6562 21.8637 17.6573 21.6571C19.4674 22.2966 20.9531 21.8395 22.1144 20.2856Z"
            fill="#59B89D" />
        <path fill-rule="evenodd" clip-rule="evenodd"
            d="M11.1426 21.543C11.423 21.7213 11.7277 21.8355 12.0569 21.8858C12.4938 22.5302 12.9319 23.1778 13.3711 23.8287C13.3284 24.088 13.3284 24.3546 13.3711 24.6287C13.495 24.7618 13.5902 24.9142 13.6569 25.0858C13.0137 25.1995 12.3661 25.2377 11.714 25.2001C11.4951 25.2326 11.3047 25.1945 11.1426 25.0858C11.1751 23.9349 11.1751 22.7539 11.1426 21.543Z"
            fill="#5CBDB6" />
        <path fill-rule="evenodd" clip-rule="evenodd"
            d="M12.0567 21.8857C12.507 22.0889 12.8308 22.4318 13.0282 22.9143C13.6648 23.6277 14.3696 24.2563 15.1424 24.8C14.0268 25.2992 12.8839 25.4326 11.7139 25.2C12.366 25.2376 13.0135 25.1995 13.6567 25.0857C13.5901 24.9141 13.4949 24.7617 13.371 24.6286C13.3283 24.3545 13.3283 24.0879 13.371 23.8286C12.9318 23.1777 12.4936 22.5301 12.0567 21.8857Z"
            fill="#4CB2A5" />
    </g>
    <defs>
        <clipPath id="clip0_5097_163">
            <rect width="32" height="32" fill="white" />
        </clipPath>
    </defs>
</svg>