<svg width="32" height="32" viewBox="0 0 32 32" fill="none" xmlns="http://www.w3.org/2000/svg">
    <g clip-path="url(#clip0_5338_6056)">
        <path fill-rule="evenodd" clip-rule="evenodd"
            d="M-0.0712891 -0.0712891C10.5954 -0.0712891 21.262 -0.0712891 31.9287 -0.0712891C31.9287 10.5954 31.9287 21.262 31.9287 31.9287C21.262 31.9287 10.5954 31.9287 -0.0712891 31.9287C-0.0712891 21.262 -0.0712891 10.5954 -0.0712891 -0.0712891Z"
            fill="#0231F7" />
        <path fill-rule="evenodd" clip-rule="evenodd"
            d="M17.2803 6.89754C19.8629 6.75577 22.4702 6.70836 25.1025 6.75532C25.1476 7.35288 25.1001 7.92177 24.9603 8.46199C24.9603 7.9405 24.9603 7.41903 24.9603 6.89754C22.4003 6.89754 19.8403 6.89754 17.2803 6.89754Z"
            fill="#ACBEE1" />
        <path fill-rule="evenodd" clip-rule="evenodd"
            d="M17.2796 6.89795C19.8396 6.89795 22.3996 6.89795 24.9596 6.89795C24.9596 7.41944 24.9596 7.94091 24.9596 8.46239C24.9718 8.60403 24.9243 8.72255 24.8173 8.81795C22.2104 8.88905 19.6029 8.91275 16.9951 8.88906C16.9951 8.32017 16.9951 7.75128 16.9951 7.18239C16.9951 6.99277 17.09 6.89795 17.2796 6.89795Z"
            fill="#F6F8F8" />
        <path fill-rule="evenodd" clip-rule="evenodd"
            d="M12.8709 7.0398C12.8709 9.6472 12.8709 12.2546 12.8709 14.862C13.5066 15.0023 14.1703 15.0496 14.862 15.0042C14.862 15.5731 14.862 16.142 14.862 16.7109C12.9057 16.989 10.9146 17.0838 8.88867 16.9954C8.88867 16.3316 8.88867 15.668 8.88867 15.0042C9.58034 15.0496 10.244 15.0023 10.8798 14.862C10.8561 12.2542 10.8798 9.64677 10.9509 7.0398C11.5907 6.66642 12.2307 6.66642 12.8709 7.0398Z"
            fill="#F9FAFC" />
        <path fill-rule="evenodd" clip-rule="evenodd"
            d="M8.6047 6.89757C8.03581 6.89757 7.46692 6.89757 6.89803 6.89757C6.89803 9.50497 6.89803 12.1124 6.89803 14.7198C6.75625 12.0897 6.70885 9.43493 6.75581 6.75535C7.4004 6.71009 8.01669 6.75749 8.6047 6.89757Z"
            fill="#B3C5DD" />
        <path fill-rule="evenodd" clip-rule="evenodd"
            d="M8.60413 6.89795C8.69895 6.89795 8.74635 6.94535 8.74635 7.04017C8.74635 9.64757 8.74635 12.255 8.74635 14.8624C8.17746 14.8624 7.60857 14.8624 7.03968 14.8624C6.94486 14.8624 6.89746 14.815 6.89746 14.7202C6.89746 12.1128 6.89746 9.50535 6.89746 6.89795C7.46635 6.89795 8.03524 6.89795 8.60413 6.89795Z"
            fill="#FAFDFB" />
        <path fill-rule="evenodd" clip-rule="evenodd"
            d="M16.9954 7.18213C16.9954 7.75102 16.9954 8.31991 16.9954 8.8888C16.3791 8.8888 15.7627 8.8888 15.1465 8.8888C15.6866 8.74893 16.2555 8.70152 16.8532 8.74657C16.8084 8.19597 16.8557 7.67449 16.9954 7.18213Z"
            fill="#6B7FDC" />
        <path fill-rule="evenodd" clip-rule="evenodd"
            d="M15.1471 8.88867C15.7634 8.88867 16.3797 8.88867 16.996 8.88867C16.996 9.55238 16.996 10.2161 16.996 10.8798C19.6509 10.8798 22.3056 10.8798 24.9604 10.8798C25.15 11.5435 25.15 12.2072 24.9604 12.8709C22.3056 12.8709 19.6509 12.8709 16.996 12.8709C16.8558 13.5066 16.8084 14.1703 16.8538 14.862C16.2375 14.862 15.6211 14.862 15.0049 14.862C15.0049 12.9183 15.0049 10.9746 15.0049 9.03089C15.0049 8.93607 15.0522 8.88867 15.1471 8.88867Z"
            fill="#FAFCFC" />
        <path fill-rule="evenodd" clip-rule="evenodd"
            d="M12.8711 7.04004C12.9894 9.57568 13.0605 12.1357 13.0844 14.72C13.2029 5.61831 13.274 5.61831 13.2978 14.72C13.677 14.72 14.0563 14.72 14.4355 14.72C14.6558 12.9606 14.7981 11.2065 14.8622 9.45782C14.8622 11.2593 14.8622 13.0608 14.8622 14.8623C14.1985 14.8623 13.5348 14.8623 12.8711 14.8623C12.8711 12.2549 12.8711 9.64744 12.8711 7.04004Z"
            fill="#1330D5" />
        <path fill-rule="evenodd" clip-rule="evenodd"
            d="M15.0044 9.03125C15.0044 10.975 15.0044 12.9187 15.0044 14.8624C15.6207 14.8624 16.2371 14.8624 16.8533 14.8624C16.8079 14.1707 16.8553 13.507 16.9955 12.8713C16.9955 13.535 16.9955 14.1987 16.9955 14.8624C19.6278 14.8154 22.2351 14.8628 24.8178 15.0046C22.2104 15.0046 19.6029 15.0046 16.9955 15.0046C16.9955 15.5261 16.9955 16.0475 16.9955 16.569C16.8559 16.0767 16.8085 15.5551 16.8533 15.0046C16.2371 15.0046 15.6207 15.0046 15.0044 15.0046C15.0495 15.6022 15.002 16.1711 14.8622 16.7113C14.8622 16.1424 14.8622 15.5735 14.8622 15.0046C14.1705 15.05 13.5068 15.0026 12.8711 14.8624C13.5348 14.8624 14.1985 14.8624 14.8622 14.8624C14.8622 13.0609 14.8622 11.2594 14.8622 9.45792C14.8285 9.27431 14.8759 9.13209 15.0044 9.03125Z"
            fill="#8EA6F0" />
        <path fill-rule="evenodd" clip-rule="evenodd"
            d="M24.8182 15.0044C24.906 15.0202 24.9771 15.0675 25.0316 15.1466C25.1264 16.2844 25.1264 17.4222 25.0316 18.56C24.9605 18.7259 24.842 18.8444 24.676 18.9155C24.1566 18.9865 23.6352 19.0101 23.1116 18.9866C23.1564 19.5372 23.109 20.0587 22.9694 20.5511C22.9694 20.0295 22.9694 19.5081 22.9694 18.9866C22.9694 18.3229 22.9694 17.6593 22.9694 16.9955C21.025 17.0193 19.0814 16.9955 17.1382 16.9244C17.0313 16.829 16.9838 16.7105 16.996 16.5688C16.996 16.0473 16.996 15.5259 16.996 15.0044C19.6034 15.0044 22.2109 15.0044 24.8182 15.0044Z"
            fill="#F3F6FA" />
        <path fill-rule="evenodd" clip-rule="evenodd"
            d="M8.74671 7.04004C8.88847 9.62267 8.93589 12.2301 8.88893 14.8623C9.55264 14.8623 10.2163 14.8623 10.88 14.8623C10.2443 15.0025 9.5806 15.0499 8.88893 15.0045C8.88893 15.6682 8.88893 16.3318 8.88893 16.9956C8.88893 17.6593 8.88893 18.323 8.88893 18.9867C8.74868 18.351 8.70127 17.6872 8.74671 16.9956C8.22522 16.9956 7.70375 16.9956 7.18226 16.9956C7.67462 16.8559 8.19611 16.8086 8.74671 16.8534C8.74671 16.2371 8.74671 15.6207 8.74671 15.0045C8.14914 15.0496 7.58026 15.0021 7.04004 14.8623C7.60893 14.8623 8.17782 14.8623 8.74671 14.8623C8.74671 12.2549 8.74671 9.64744 8.74671 7.04004Z"
            fill="#90A7E4" />
        <path fill-rule="evenodd" clip-rule="evenodd"
            d="M7.18191 16.9956C7.70339 16.9956 8.22486 16.9956 8.74635 16.9956C8.70091 17.6872 8.74833 18.351 8.88857 18.9867C10.8328 18.963 12.7766 18.9867 14.7197 19.0578C14.9394 19.317 15.0343 19.6252 15.0041 19.9823C15.0343 20.3394 14.9394 20.6476 14.7197 20.9067C12.7766 20.9778 10.8328 21.0016 8.88857 20.9778C8.88857 21.6416 8.88857 22.3052 8.88857 22.9689C10.8574 22.9221 12.8011 22.9695 14.7197 23.1112C14.8528 23.7135 14.9002 24.3299 14.8619 24.9601C12.2071 24.9601 9.55228 24.9601 6.89746 24.9601C6.89746 22.4001 6.89746 19.84 6.89746 17.28C6.89746 17.0905 6.99228 16.9956 7.18191 16.9956Z"
            fill="#F8FAFA" />
        <path fill-rule="evenodd" clip-rule="evenodd"
            d="M22.9689 18.9869C22.9689 19.5084 22.9689 20.0298 22.9689 20.5513C22.9689 20.6462 22.9689 20.7409 22.9689 20.8358C21.6491 20.9705 20.3216 21.0178 18.9867 20.978C18.948 20.3519 18.9954 19.7357 19.1289 19.1291C20.4053 18.9872 21.6853 18.9397 22.9689 18.9869Z"
            fill="#FAFDFC" />
        <path fill-rule="evenodd" clip-rule="evenodd"
            d="M22.9686 20.8354C22.9528 20.9232 22.9054 20.9943 22.8263 21.0488C21.5472 21.1199 20.2672 21.1435 18.9863 21.1199C18.9863 21.0725 18.9863 21.025 18.9863 20.9777C20.3212 21.0175 21.6487 20.9701 22.9686 20.8354Z"
            fill="#3250C5" />
        <path fill-rule="evenodd" clip-rule="evenodd"
            d="M18.9869 20.9775C18.9869 21.0249 18.9869 21.0724 18.9869 21.1198C18.9869 21.736 18.9869 22.3524 18.9869 22.9687C20.9312 22.9449 22.8748 22.9687 24.818 23.0398C24.8891 23.1109 24.9602 23.182 25.0313 23.2531C25.1445 23.8583 25.1208 24.4507 24.9602 25.0309C22.3529 25.1257 19.7454 25.1257 17.138 25.0309C17.049 24.9242 16.9779 24.8056 16.9247 24.6753C16.8298 23.5375 16.8298 22.3998 16.9247 21.262C17.5672 20.9908 18.2547 20.8959 18.9869 20.9775Z"
            fill="#F0F4F8" />
        <path fill-rule="evenodd" clip-rule="evenodd"
            d="M14.7197 23.1113C14.9053 23.3811 15 23.7131 15.0042 24.1069C15.0037 24.466 14.9562 24.7979 14.8619 25.1024C14.8619 25.0551 14.8619 25.0076 14.8619 24.9602C14.9002 24.33 14.8528 23.7136 14.7197 23.1113Z"
            fill="#7082E2" />
        <path fill-rule="evenodd" clip-rule="evenodd"
            d="M6.89803 17.2798C6.89803 19.8398 6.89803 22.3998 6.89803 24.9598C9.55285 24.9598 12.2077 24.9598 14.8625 24.9598C14.8625 25.0071 14.8625 25.0546 14.8625 25.102C12.1603 25.102 9.45803 25.102 6.75581 25.102C6.70885 22.4698 6.75626 19.8624 6.89803 17.2798Z"
            fill="#AFC8E5" />
    </g>
    <defs>
        <clipPath id="clip0_5338_6056">
            <rect width="32" height="32" fill="white" />
        </clipPath>
    </defs>
</svg>