<svg width="32" height="32" viewBox="0 0 32 32" fill="none" xmlns="http://www.w3.org/2000/svg">
    <path opacity="0.967" fill-rule="evenodd" clip-rule="evenodd"
        d="M13.7119 0.0143694C18.2958 -0.170241 22.2403 1.42398 25.5454 4.79702C25.8068 4.69714 26.0757 4.62467 26.3522 4.57963C28.2364 4.45893 30.119 4.48309 32 4.65209C30.9915 6.53617 29.9829 8.42025 28.9744 10.3043C29.2384 11.7358 29.4625 13.1851 29.6468 14.6522C29.9037 21.7094 27.192 26.951 21.5112 30.377C15.6335 33.114 10.1649 32.3893 5.10573 28.203C0.296931 23.2455 -1.11501 17.3276 0.869886 10.4493C3.28135 4.28409 7.56201 0.805797 13.7119 0.0143694ZM26.3522 5.95645C27.4737 5.93234 28.5942 5.9565 29.714 6.02892C26.1505 12.6714 22.587 19.3141 19.0235 25.9566C17.903 23.9276 16.7823 21.8986 15.6617 19.8696C15.572 19.6764 15.572 19.4831 15.6617 19.2899C16.5024 17.816 17.3093 16.3184 18.0822 14.7971C18.3625 15.3531 18.6762 15.8845 19.0235 16.3913C20.5924 13.4928 22.1611 10.5942 23.73 7.6956C24.4754 6.87213 25.3494 6.29241 26.3522 5.95645ZM16.2669 9.72461C17.3017 9.67666 18.3326 9.72497 19.3597 9.86954C16.4686 15.2319 13.5774 20.5943 10.6863 25.9566C8.2943 21.404 5.8514 16.8871 3.35761 12.4058C5.06091 12.3091 6.76421 12.3091 8.46752 12.4058C9.19019 13.7464 9.92978 15.0748 10.6863 16.3913C11.5379 14.8454 12.3896 13.2996 13.2412 11.7536C14.0588 10.7225 15.0674 10.0461 16.2669 9.72461Z"
        fill="#00A7E1" />
</svg>