<svg width="32" height="32" viewBox="0 0 32 32" fill="none" xmlns="http://www.w3.org/2000/svg">
    <g clip-path="url(#clip0_5250_124)">
        <path fill-rule="evenodd" clip-rule="evenodd"
            d="M-0.0712891 -0.0712891C10.5954 -0.0712891 21.262 -0.0712891 31.9287 -0.0712891C31.9287 10.5954 31.9287 21.262 31.9287 31.9287C21.262 31.9287 10.5954 31.9287 -0.0712891 31.9287C-0.0712891 21.262 -0.0712891 10.5954 -0.0712891 -0.0712891Z"
            fill="#FEF9F6" />
        <path fill-rule="evenodd" clip-rule="evenodd"
            d="M8.17782 9.17312C10.046 8.87828 11.5157 9.49458 12.5867 11.022C13.8787 9.16171 15.5853 8.66393 17.7067 9.52867C18.2965 9.95255 18.818 10.4503 19.2712 11.022C20.755 9.03131 22.6039 8.62835 24.8178 9.81312C26.5898 11.5134 26.8505 13.4334 25.6 15.5731C24.4507 17.6349 23.2656 19.6735 22.0445 21.6887C19.7433 23.4283 17.7286 23.1439 16 20.8353C14.5808 22.8176 12.7794 23.2679 10.5956 22.1865C10.24 21.8309 9.88449 21.4753 9.52894 21.1198C8.42704 19.1527 7.28926 17.209 6.1156 15.2887C4.86487 12.5695 5.55227 10.5309 8.17782 9.17312Z"
            fill="#040404" />
        <path fill-rule="evenodd" clip-rule="evenodd"
            d="M8.74657 10.8803C9.66285 10.8142 10.3977 11.1461 10.951 11.8759C11.1283 12.2781 11.3417 12.6574 11.591 13.0136C10.8325 14.341 10.074 15.6685 9.31546 16.9959C8.35977 15.7717 7.64866 14.4206 7.18213 12.9425C7.35841 11.9851 7.8799 11.2977 8.74657 10.8803Z"
            fill="#F9F5F2" />
        <path fill-rule="evenodd" clip-rule="evenodd"
            d="M15.4311 10.8799C17.3693 10.991 18.1515 11.9865 17.7777 13.8665C16.5451 16.0472 15.3126 18.2281 14.08 20.4088C12.9037 21.2634 11.8608 21.1212 10.9511 19.9821C10.7438 19.3789 10.6964 18.7627 10.8088 18.1332C11.9466 16.0472 13.0844 13.9614 14.2222 11.8754C14.5693 11.4554 14.9724 11.1235 15.4311 10.8799Z"
            fill="#FBF7F4" />
        <path fill-rule="evenodd" clip-rule="evenodd"
            d="M22.1156 10.8799C23.7956 10.924 24.6252 11.7774 24.6045 13.4399C23.4463 15.7564 22.2138 18.032 20.9068 20.2665C19.7276 21.2836 18.6372 21.1887 17.6356 19.9821C17.4284 19.3789 17.3809 18.7627 17.4934 18.1332C18.6312 16.0472 19.769 13.9614 20.9068 11.8754C21.2539 11.4554 21.657 11.1235 22.1156 10.8799Z"
            fill="#FBF6F3" />
    </g>
    <defs>
        <clipPath id="clip0_5250_124">
            <rect width="32" height="32" fill="white" />
        </clipPath>
    </defs>
</svg>