<svg width="32" height="32" viewBox="0 0 32 32" fill="none" xmlns="http://www.w3.org/2000/svg">
    <path fill-rule="evenodd" clip-rule="evenodd"
        d="M16 0C24.8334 0 32 7.16059 32 16C32 24.8334 24.8394 32 16 32C7.16059 32 0 24.8334 0 16C0 7.16059 7.16059 0 16 0Z"
        fill="#46BF93" />
    <mask id="mask0_5184_452" style="mask-type:luminance" maskUnits="userSpaceOnUse" x="0" y="0"
        width="32" height="32">
        <path
            d="M16 0C24.8334 0 32 7.16059 32 16C32 24.8334 24.8394 32 16 32C7.16059 32 0 24.8334 0 16C0 7.16059 7.16059 0 16 0Z"
            fill="white" />
    </mask>
    <g mask="url(#mask0_5184_452)">
        <path fill-rule="evenodd" clip-rule="evenodd"
            d="M24.3039 5.2832L34.4551 11.1441C34.768 12.4859 34.9365 13.8879 34.9365 15.3261C34.9365 24.4543 28.2152 32.006 19.454 33.3178L5.3374 25.1644L22.5348 20.17L23.0102 9.06808L24.3039 5.2832Z"
            fill="#23996E" />
    </g>
    <mask id="mask1_5184_452" style="mask-type:luminance" maskUnits="userSpaceOnUse" x="0" y="0"
        width="32" height="32">
        <path
            d="M16 0C24.8334 0 32 7.16059 32 16C32 24.8334 24.8394 32 16 32C7.16059 32 0 24.8334 0 16C0 7.16059 7.16059 0 16 0Z"
            fill="white" />
    </mask>
    <g mask="url(#mask1_5184_452)">
        <path fill-rule="evenodd" clip-rule="evenodd"
            d="M19.3996 5.57754L23.7681 5.51736C23.7681 5.51736 24.773 5.87238 24.7128 6.52225C24.6527 7.17212 24.773 9.00138 24.773 9.00138H22.5286L22.6489 18.5087C22.6489 18.5087 22.2939 21.1684 21.5838 21.9927C20.8738 22.8171 19.6944 23.1119 19.6944 23.1119H16.8001C16.8001 23.1119 16.8001 24.3515 15.9155 24.4719C15.031 24.5922 5.40332 24.7065 5.40332 24.7065C5.40332 24.7065 6.58271 23.9965 6.64288 22.6968C6.70306 21.397 6.58271 20.6268 6.58271 20.6268C6.58271 20.6268 6.52254 19.3872 7.40708 19.4474C8.29162 19.5076 12.251 19.5678 12.251 19.5678L12.1307 9.58506L12.251 6.98558C12.251 6.98558 12.4255 5.80619 13.2559 5.74602C14.0803 5.68585 15.3258 5.45117 15.3258 5.45117L19.3996 5.57754Z"
            fill="#46BF93" />
    </g>
    <mask id="mask2_5184_452" style="mask-type:luminance" maskUnits="userSpaceOnUse" x="0" y="0"
        width="32" height="32">
        <path
            d="M16 0C24.8334 0 32 7.16059 32 16C32 24.8334 24.8394 32 16 32C7.16059 32 0 24.8334 0 16C0 7.16059 7.16059 0 16 0Z"
            fill="white" />
    </mask>
    <g mask="url(#mask2_5184_452)">
        <path
            d="M17.2817 22.6252H18.3649C18.1843 22.21 18.1904 21.7166 18.1964 21.2172C18.1964 21.1089 18.1964 21.0006 18.1964 20.8922C18.1904 20.5432 18.1783 20.0137 17.7451 20.0197C17.5345 20.0197 17.4141 20.1521 17.3539 20.3567C17.3178 20.5252 17.3058 20.7358 17.3058 20.9344C17.3058 21.518 17.2998 22.0115 17.2878 22.4447L17.2817 22.6252ZM23.1546 8.43042H24.1535V6.46276C24.1535 6.34844 24.1054 6.24614 24.0331 6.16792C23.9549 6.08969 23.8526 6.04757 23.7383 6.04757H23.5758C23.4615 6.04757 23.3592 6.09571 23.281 6.16792C23.2028 6.24614 23.1606 6.34844 23.1606 6.46276V8.43042H23.1546ZM24.6289 9.37514H23.1546V17.2578V17.2759C23.0884 19.0329 22.8477 20.6636 22.3303 21.8009C21.8368 22.89 21.0967 23.5639 20.0377 23.5639H19.8692C19.1411 23.576 18.2926 23.5699 17.5104 23.5699H17.1915C17.1614 23.7565 17.1193 23.919 17.0711 24.0573C16.8004 24.8516 16.325 25.0983 15.4465 25.0983H5.13883L5.13281 24.1536H5.13883H5.18697C6.04142 24.1115 6.1377 23.3954 6.11363 22.0897C6.10762 21.849 6.1016 21.5662 6.08956 21.2653L6.07151 20.7719C6.05346 20.2243 6.14372 19.8272 6.38441 19.5323C6.64315 19.2134 7.02224 19.075 7.55778 19.075C10.055 19.075 8.71311 19.075 11.806 19.081V8.38228C11.806 5.10286 12.7206 5.10285 15.0192 5.10285H15.1155H23.3712C23.4374 5.09082 23.5036 5.09082 23.5698 5.09082H23.7323C24.1114 5.09082 24.4483 5.24727 24.7011 5.49398C24.9478 5.74069 25.1042 6.08367 25.1042 6.46276V9.38115H24.6289V9.37514ZM22.2039 9.37514V6.45675C22.2039 6.31835 22.228 6.17995 22.2641 6.05359H20.0196H15.0253C13.4066 6.05359 12.7627 6.05359 12.7627 8.3883V19.075H17.1133C17.2637 19.075 17.4322 19.075 17.5826 19.1051C17.6789 19.0931 17.7812 19.0871 17.8895 19.0931C18.3047 19.1051 18.6296 19.3278 18.8523 19.6948C19.0388 20.0077 19.1411 20.4289 19.1471 20.8862V21.2292C19.1411 21.8309 19.1351 22.4146 19.7308 22.6012C19.7428 22.6072 19.809 22.6072 19.8752 22.6132L19.9655 22.6192H20.0377C20.6635 22.6192 21.1268 22.1619 21.4638 21.4158C21.9271 20.3988 22.1437 18.9005 22.2099 17.2638V9.37514H22.2039ZM12.2031 20.0258C11.8541 20.0258 12.9673 20.0258 7.55778 20.0258C7.31709 20.0258 7.17869 20.0619 7.11852 20.1341C7.0403 20.2303 7.01021 20.4349 7.01623 20.7478L7.03428 21.2352C7.04631 21.5301 7.05233 21.8009 7.05835 22.0777C7.0764 22.9562 7.0403 23.6542 6.84173 24.1536H15.4525C15.8617 24.1536 16.0783 24.0573 16.1806 23.7565C16.2769 23.4677 16.325 23.0284 16.3491 22.4086L16.3551 20.7599C16.3551 20.5192 16.3852 20.2664 16.4634 20.0258H12.2031Z"
            fill="white" />
    </g>
    <mask id="mask3_5184_452" style="mask-type:luminance" maskUnits="userSpaceOnUse" x="0" y="0"
        width="32" height="32">
        <path
            d="M16 0C24.8334 0 32 7.16059 32 16C32 24.8334 24.8394 32 16 32C7.16059 32 0 24.8334 0 16C0 7.16059 7.16059 0 16 0Z"
            fill="white" />
    </mask>
    <g mask="url(#mask3_5184_452)">
        <path fill-rule="evenodd" clip-rule="evenodd"
            d="M14.0264 8.29199H17.1854V9.03212H14.0264V8.29199Z" fill="white" />
    </g>
    <mask id="mask4_5184_452" style="mask-type:luminance" maskUnits="userSpaceOnUse" x="0" y="0"
        width="32" height="32">
        <path
            d="M16 0C24.8334 0 32 7.16059 32 16C32 24.8334 24.8394 32 16 32C7.16059 32 0 24.8334 0 16C0 7.16059 7.16059 0 16 0Z"
            fill="white" />
    </mask>
    <g mask="url(#mask4_5184_452)">
        <path fill-rule="evenodd" clip-rule="evenodd"
            d="M14.0264 9.82617H21.0847V10.5663H14.0264V9.82617Z" fill="white" />
    </g>
    <mask id="mask5_5184_452" style="mask-type:luminance" maskUnits="userSpaceOnUse" x="0" y="0"
        width="32" height="32">
        <path
            d="M16 0C24.8334 0 32 7.16059 32 16C32 24.8334 24.8394 32 16 32C7.16059 32 0 24.8334 0 16C0 7.16059 7.16059 0 16 0Z"
            fill="white" />
    </mask>
    <g mask="url(#mask5_5184_452)">
        <path fill-rule="evenodd" clip-rule="evenodd"
            d="M14.0264 11.3066H19.9654V12.0468H14.0264V11.3066Z" fill="white" />
    </g>
    <mask id="mask6_5184_452" style="mask-type:luminance" maskUnits="userSpaceOnUse" x="0" y="0"
        width="32" height="32">
        <path
            d="M16 0C24.8334 0 32 7.16059 32 16C32 24.8334 24.8394 32 16 32C7.16059 32 0 24.8334 0 16C0 7.16059 7.16059 0 16 0Z"
            fill="white" />
    </mask>
    <g mask="url(#mask6_5184_452)">
        <path fill-rule="evenodd" clip-rule="evenodd"
            d="M14.0264 12.7812H20.6153V13.5214H14.0264V12.7812Z" fill="white" />
    </g>
    <mask id="mask7_5184_452" style="mask-type:luminance" maskUnits="userSpaceOnUse" x="0" y="0"
        width="32" height="32">
        <path
            d="M16 0C24.8334 0 32 7.16059 32 16C32 24.8334 24.8394 32 16 32C7.16059 32 0 24.8334 0 16C0 7.16059 7.16059 0 16 0Z"
            fill="white" />
    </mask>
    <g mask="url(#mask7_5184_452)">
        <path fill-rule="evenodd" clip-rule="evenodd"
            d="M14.0264 14.2607H17.8654V14.9949H14.0264V14.2607Z" fill="white" />
    </g>
    <mask id="mask8_5184_452" style="mask-type:luminance" maskUnits="userSpaceOnUse" x="0" y="0"
        width="32" height="32">
        <path
            d="M16 0C24.8334 0 32 7.16059 32 16C32 24.8334 24.8394 32 16 32C7.16059 32 0 24.8334 0 16C0 7.16059 7.16059 0 16 0Z"
            fill="white" />
    </mask>
    <g mask="url(#mask8_5184_452)">
        <path fill-rule="evenodd" clip-rule="evenodd"
            d="M14.0264 15.7354H20.85V16.4755H14.0264V15.7354Z" fill="white" />
    </g>
    <mask id="mask9_5184_452" style="mask-type:luminance" maskUnits="userSpaceOnUse" x="0" y="0"
        width="32" height="32">
        <path
            d="M16 0C24.8334 0 32 7.16059 32 16C32 24.8334 24.8394 32 16 32C7.16059 32 0 24.8334 0 16C0 7.16059 7.16059 0 16 0Z"
            fill="white" />
    </mask>
    <g mask="url(#mask9_5184_452)">
        <path fill-rule="evenodd" clip-rule="evenodd"
            d="M14.0264 17.209H19.5803V17.9491H14.0264V17.209Z" fill="white" />
    </g>
</svg>