<svg width="32" height="32" viewBox="0 0 32 32" fill="none" xmlns="http://www.w3.org/2000/svg">
    <path opacity="0.945" fill-rule="evenodd" clip-rule="evenodd"
        d="M12.8 0C15.6443 0 18.4891 0 21.3333 0C26.4891 2.08401 30.0443 5.8731 32 11.3673C32 14.3986 32 17.4299 32 20.4611C27.1952 31.4826 19.5509 34.6086 9.06667 29.8391C6.04427 29.6497 3.0224 29.4602 0 29.2708C0.999467 27.2352 2.06613 25.246 3.2 23.303C-0.405867 12.2699 2.79413 4.5022 12.8 0ZM9.6 14.2091C12.0848 13.9332 12.7957 14.9753 11.7333 17.3351C9.18827 17.7957 8.47733 16.7537 9.6 14.2091ZM16 14.2091C18.4848 13.9332 19.1957 14.9753 18.1333 17.3351C15.5883 17.7957 14.8773 16.7537 16 14.2091ZM22.4 14.2091C24.8848 13.9332 25.5957 14.9753 24.5333 17.3351C21.9883 17.7957 21.2773 16.7537 22.4 14.2091Z"
        fill="#6AA9DC" />
</svg>