<svg width="32" height="32" viewBox="0 0 32 32" fill="none" xmlns="http://www.w3.org/2000/svg">
    <g clip-path="url(#clip0_5249_45)">
        <path fill-rule="evenodd" clip-rule="evenodd"
            d="M-0.0712891 -0.0712891C10.5954 -0.0712891 21.262 -0.0712891 31.9287 -0.0712891C31.9287 2.58353 31.9287 5.23834 31.9287 7.89316C28.0884 7.86946 24.2484 7.89316 20.4087 7.96427C20.2453 8.19235 20.2453 8.42938 20.4087 8.67538C20.3296 8.81918 20.2349 8.93769 20.1243 9.03093C20.0294 8.98353 19.9347 8.93611 19.8398 8.88871C19.2916 8.10201 18.5804 7.53312 17.7065 7.18204C17.5451 6.93839 17.308 6.84357 16.9954 6.8976C16.3841 6.79812 15.7679 6.75071 15.1465 6.75538C14.3911 6.85222 13.7274 7.13666 13.1554 7.60871C13.0144 7.58431 12.9195 7.63172 12.8709 7.75093C12.6538 7.74055 12.5116 7.83537 12.4443 8.03538C12.2111 8.36336 11.9267 8.6478 11.5909 8.88871C11.617 8.54222 11.5221 8.23406 11.3065 7.96427C7.51419 7.89316 3.72159 7.86946 -0.0712891 7.89316C-0.0712891 5.23834 -0.0712891 2.58353 -0.0712891 -0.0712891Z"
            fill="#4B495A" />
        <path fill-rule="evenodd" clip-rule="evenodd"
            d="M16.9956 6.89752C17.3082 6.84349 17.5453 6.93831 17.7067 7.18197C17.4361 7.13988 17.199 7.04508 16.9956 6.89752Z"
            fill="#796B38" />
        <path fill-rule="evenodd" clip-rule="evenodd"
            d="M15.1469 6.75586C14.9031 6.93199 14.6187 7.02679 14.2935 7.0403C14.3477 7.38758 14.2529 7.4824 14.0091 7.32475C13.7318 7.44878 13.4474 7.5436 13.1558 7.60919C13.7278 7.13714 14.3915 6.8527 15.1469 6.75586Z"
            fill="#CDB931" />
        <path fill-rule="evenodd" clip-rule="evenodd"
            d="M15.1466 6.7552C15.768 6.75053 16.3842 6.79793 16.9955 6.89742C17.1989 7.04497 17.4359 7.13978 17.7066 7.18186C18.5805 7.53294 19.2917 8.10183 19.8399 8.88853C19.686 9.15002 19.5676 9.43446 19.4844 9.74186C19.437 9.64704 19.3895 9.55224 19.3421 9.45742C19.2575 9.65637 19.2813 9.846 19.4133 10.0263C18.8142 10.1774 18.3638 10.5093 18.0621 11.0219C17.6255 10.445 17.4122 10.5398 17.4221 11.3063C17.3748 11.3063 17.3273 11.3063 17.2799 11.3063C16.882 10.5266 16.2656 10.2421 15.431 10.453C15.1046 10.5434 14.8677 10.733 14.7199 11.0219C14.1638 11.7228 14.1638 12.4339 14.7199 13.1552C14.7199 13.2026 14.7199 13.25 14.7199 13.2974C14.6957 13.4855 14.7431 13.6514 14.8621 13.7952C13.9801 14.3278 13.103 14.8731 12.231 15.4308C12.0691 15.3612 11.9032 15.3138 11.7333 15.2885C10.785 14.0993 10.4531 12.7719 10.7377 11.3063C10.9181 10.9642 11.0129 10.585 11.0221 10.1685C11.0221 10.1211 11.0221 10.0737 11.0221 10.0263C11.2221 9.95902 11.317 9.8168 11.3066 9.59964C11.3624 9.34594 11.4572 9.1089 11.591 8.88853C11.9268 8.64762 12.2112 8.36317 12.4444 8.0352C12.6615 8.04558 12.8037 7.95076 12.871 7.75075C12.9196 7.63154 13.0144 7.58412 13.1555 7.60853C13.4471 7.54294 13.7315 7.44812 14.0088 7.32409C14.2526 7.48174 14.3474 7.38692 14.2933 7.03964C14.6184 7.02613 14.9028 6.93132 15.1466 6.7552Z"
            fill="#FBDC1B" />
        <path fill-rule="evenodd" clip-rule="evenodd"
            d="M-0.0712891 7.89365C3.72159 7.86996 7.51419 7.89365 11.3065 7.96476C11.5221 8.23456 11.617 8.54271 11.5909 8.88921C11.4571 9.10958 11.3623 9.34662 11.3065 9.60032C11.1065 9.6676 11.0117 9.80982 11.022 10.027C11.022 10.0744 11.022 10.1218 11.022 10.1692C10.8031 10.5018 10.7083 10.881 10.7376 11.307C10.453 12.7726 10.7849 14.1 11.7332 15.2892C11.9702 15.621 12.2072 15.953 12.4443 16.2848C12.6382 16.5253 12.8278 16.7623 13.0132 16.9959C13.0588 17.216 13.2011 17.3109 13.4398 17.2803C13.4302 17.0728 13.4776 16.8832 13.582 16.7114C14.1171 16.2237 14.5438 15.6549 14.862 15.0048C15.5569 14.5956 15.6043 14.1216 15.0043 13.5825C15.0348 13.3438 14.94 13.2016 14.7198 13.1559C14.1637 12.4346 14.1637 11.7235 14.7198 11.0225C15.0397 10.9401 15.2766 10.7505 15.4309 10.4537C16.2655 10.2428 16.8819 10.5272 17.2798 11.307C17.3868 12.1305 17.2446 12.889 16.8532 13.5825C16.6026 13.691 16.4603 13.8806 16.4265 14.1514C15.9418 14.5899 15.5625 15.1113 15.2887 15.7159C15.1938 15.7632 15.0991 15.8107 15.0043 15.8581C14.6735 16.3314 14.3417 16.8054 14.0087 17.2803C13.6975 17.7708 13.3657 18.245 13.0132 18.7025C12.7287 18.9125 12.4917 19.1732 12.302 19.4848C12.1672 19.5535 12.025 19.5771 11.8754 19.5559C9.97582 16.8783 7.9847 14.2471 5.90204 11.6625C5.03915 11.0269 4.18582 11.0032 3.34204 11.5914C3.14878 11.6635 3.00656 11.8057 2.91538 12.0181C2.72939 12.5606 2.72939 13.0821 2.91538 13.5825C3.22194 14.1944 3.6012 14.7633 4.05316 15.2892C3.82557 15.1453 3.63595 15.2164 3.48427 15.5025C3.54932 15.5614 3.59672 15.6325 3.62649 15.7159C2.39753 15.8578 1.16494 15.9052 -0.0712891 15.8581C-0.0712891 13.2033 -0.0712891 10.5485 -0.0712891 7.89365Z"
            fill="#49465B" />
        <path fill-rule="evenodd" clip-rule="evenodd"
            d="M12.871 7.75077C12.8037 7.95078 12.6615 8.0456 12.4443 8.03521C12.5116 7.83521 12.6538 7.74039 12.871 7.75077Z"
            fill="#907E32" />
        <path fill-rule="evenodd" clip-rule="evenodd"
            d="M31.9291 7.89365C31.9291 10.5485 31.9291 13.2033 31.9291 15.8581C30.6008 15.8817 29.2733 15.8581 27.9468 15.787C27.8578 15.6803 27.7867 15.5617 27.7335 15.4314C27.5857 15.6035 27.4198 15.7457 27.2357 15.8581C27.8097 15.1407 28.3313 14.3823 28.8002 13.5825C29.2778 12.3343 28.8984 11.5047 27.6624 11.0937C26.67 10.9613 25.8877 11.3169 25.3157 12.1603C24.5629 13.3853 23.7096 14.5231 22.7557 15.5737C21.9607 16.7022 21.1785 17.84 20.4091 18.987C20.1525 19.2707 19.868 19.5078 19.5557 19.6981C19.5661 19.4809 19.4712 19.3387 19.2713 19.2714C19.0427 18.956 18.782 18.6715 18.4891 18.4181C17.7935 19.0992 17.201 19.8577 16.7113 20.6937C16.5474 20.8834 16.4052 21.0967 16.2846 21.3337C16.6614 21.733 16.9458 22.1834 17.138 22.6848C16.9528 22.4989 16.7632 22.4989 16.5691 22.6848C16.5217 22.6374 16.4742 22.5899 16.4268 22.5425C16.8013 22.3457 16.8013 22.156 16.4268 21.9737C16.1824 22.336 15.9928 22.2887 15.858 21.8314C15.8225 21.9853 15.7989 22.1749 15.7868 22.4003C15.6247 22.1473 15.4587 21.9102 15.2891 21.6892C15.2891 21.5943 15.3364 21.547 15.4313 21.547C15.9517 20.7892 16.4732 20.0308 16.9957 19.2714C17.138 19.2241 17.2328 19.1292 17.2802 18.987C17.6133 18.5121 17.9451 18.0379 18.2757 17.5648C18.6565 17.2313 18.9883 16.8519 19.2713 16.427C19.7349 15.7365 20.1616 15.0254 20.5513 14.2937C20.7512 14.2264 20.8461 14.0841 20.8357 13.867C21 12.8022 21 11.7592 20.8357 10.7381C20.8064 10.3486 20.6642 10.0168 20.4091 9.74254C20.3142 9.5055 20.2195 9.26847 20.1246 9.03143C20.2353 8.93819 20.33 8.81967 20.4091 8.67587C20.2456 8.42987 20.2456 8.19284 20.4091 7.96476C24.2488 7.89365 28.0888 7.86996 31.9291 7.89365Z"
            fill="#48475B" />
        <path fill-rule="evenodd" clip-rule="evenodd"
            d="M11.3067 9.59961C11.3171 9.81677 11.2223 9.95899 11.0223 10.0263C11.0119 9.80912 11.1067 9.66689 11.3067 9.59961Z"
            fill="#948631" />
        <path fill-rule="evenodd" clip-rule="evenodd"
            d="M19.84 8.88867C19.9348 8.93607 20.0296 8.98349 20.1244 9.03089C20.2193 9.26794 20.314 9.50496 20.4089 9.74201C20.7781 10.8664 20.4461 11.1982 19.4133 10.7376C19.2307 10.8982 19.1122 11.0879 19.0578 11.3064C18.772 11.2361 18.4638 11.2361 18.1333 11.3064C18.108 11.8187 17.9658 11.8187 17.7067 11.3064C17.6105 11.4631 17.5158 11.6053 17.4222 11.7331C17.4222 11.5909 17.4222 11.4487 17.4222 11.3064C17.4123 10.5399 17.6256 10.4451 18.0622 11.022C18.3639 10.5094 18.8143 10.1776 19.4133 10.0264C19.2813 9.84614 19.2576 9.65652 19.3422 9.45756C19.3896 9.55238 19.4371 9.64719 19.4844 9.74201C19.5676 9.43461 19.6861 9.15016 19.84 8.88867Z"
            fill="#FACF24" />
        <path fill-rule="evenodd" clip-rule="evenodd"
            d="M11.0221 10.1689C11.0128 10.5854 10.918 10.9647 10.7376 11.3067C10.7083 10.8808 10.8031 10.5015 11.0221 10.1689Z"
            fill="#BEA735" />
        <path fill-rule="evenodd" clip-rule="evenodd"
            d="M15.4313 10.4531C15.277 10.7499 15.0401 10.9396 14.7202 11.022C14.868 10.7331 15.1049 10.5435 15.4313 10.4531Z"
            fill="#675F3B" />
        <path fill-rule="evenodd" clip-rule="evenodd"
            d="M20.4091 9.74219C20.6642 10.0164 20.8065 10.3483 20.8358 10.7377C20.901 11.4842 20.7824 12.1953 20.4802 12.8711C20.4115 12.7362 20.3879 12.594 20.4091 12.4444C19.5838 12.5279 18.8016 12.4331 18.0624 12.16C18.0151 12.2548 17.9676 12.3496 17.9202 12.4444C17.778 11.8755 17.6358 11.8755 17.4935 12.4444C17.4233 12.212 17.3997 11.975 17.4224 11.7333C17.516 11.6055 17.6107 11.4633 17.7069 11.3066C17.966 11.8189 18.1082 11.8189 18.1335 11.3066C18.4641 11.2362 18.7723 11.2362 19.058 11.3066C19.1125 11.088 19.2309 10.8984 19.4135 10.7377C20.4464 11.1984 20.7783 10.8665 20.4091 9.74219Z"
            fill="#FAC52D" />
        <path fill-rule="evenodd" clip-rule="evenodd"
            d="M27.2355 15.8578C25.1543 18.4995 23.1395 21.2018 21.191 23.9644C20.8561 24.2994 20.5243 24.6312 20.1955 24.96C19.8332 25.1427 19.4777 25.1427 19.1288 24.96C19.1344 24.806 19.1819 24.6637 19.271 24.5333C19.0815 24.4385 18.8917 24.3437 18.7021 24.2489C18.8444 24.1067 18.9866 23.9644 19.1288 23.8222C19.2237 23.9644 19.3184 24.1067 19.4133 24.2489C19.5229 23.9129 19.6415 23.581 19.7688 23.2533C19.8661 21.8254 20.0794 20.4032 20.4088 18.9867C21.1782 17.8396 21.9605 16.7019 22.7555 15.5733C23.7094 14.5227 24.5627 13.385 25.3155 12.16C25.8875 11.3166 26.6697 10.961 27.6621 11.0933C28.8982 11.5043 29.2775 12.334 28.7999 13.5822C28.331 14.3819 27.8095 15.1404 27.2355 15.8578Z"
            fill="#439CD5" />
        <path fill-rule="evenodd" clip-rule="evenodd"
            d="M11.8754 19.5556C11.8754 19.6504 11.8754 19.7451 11.8754 19.84C11.7378 20.0257 11.5481 20.1206 11.3065 20.1244C11.1978 20.5919 10.9371 20.9712 10.5242 21.2622C10.2926 21.7748 10.0318 22.2488 9.74203 22.6844C7.7707 20.2496 5.87441 17.7843 4.05314 15.2889C3.60118 14.7629 3.22192 14.1941 2.91536 13.5822C2.85888 12.8685 3.00111 12.2048 3.34203 11.5911C4.1858 11.0028 5.03914 11.0265 5.90203 11.6622C7.98469 14.2468 9.9758 16.8779 11.8754 19.5556Z"
            fill="#EB4D97" />
        <path fill-rule="evenodd" clip-rule="evenodd"
            d="M3.34203 11.5908C3.00111 12.2045 2.85889 12.8682 2.91537 13.5819C2.72938 13.0815 2.72938 12.56 2.91537 12.0175C3.00655 11.8051 3.14877 11.6629 3.34203 11.5908Z"
            fill="#B34F85" />
        <path fill-rule="evenodd" clip-rule="evenodd"
            d="M20.8355 10.7373C20.9998 11.7584 20.9998 12.8014 20.8355 13.8662C20.6355 13.9335 20.5407 14.0757 20.5511 14.2929C20.1614 15.0246 19.7347 15.7357 19.2711 16.4262C19.0336 16.4619 18.8202 16.5568 18.6311 16.7106C18.5385 16.4639 18.5621 16.2268 18.7022 15.9995C18.5076 15.8439 18.3416 15.8914 18.2044 16.1417C18.1347 15.9579 18.111 15.7681 18.1333 15.5729C17.6285 15.4052 17.107 15.263 16.5688 15.1462C16.6949 14.8302 16.6949 14.5221 16.5688 14.2217C16.6988 14.0217 16.7936 13.8084 16.8533 13.5817C17.2447 12.8882 17.3869 12.1297 17.28 11.3062C17.3273 11.3062 17.3748 11.3062 17.4222 11.3062C17.4222 11.4484 17.4222 11.5906 17.4222 11.7329C17.3994 11.9745 17.423 12.2116 17.4933 12.444C17.6355 11.8751 17.7777 11.8751 17.92 12.444C17.9673 12.3492 18.0148 12.2543 18.0622 12.1595C18.8013 12.4326 19.5835 12.5274 20.4088 12.444C20.3877 12.5936 20.4113 12.7358 20.48 12.8706C20.7822 12.1949 20.9008 11.4838 20.8355 10.7373Z"
            fill="#F7B63A" />
        <path fill-rule="evenodd" clip-rule="evenodd"
            d="M14.7202 13.2975C14.7202 13.2501 14.7202 13.2027 14.7202 13.1553C14.9404 13.201 15.0352 13.3432 15.0047 13.5819C14.9098 13.4871 14.8151 13.3923 14.7202 13.2975Z"
            fill="#7B722B" />
        <path fill-rule="evenodd" clip-rule="evenodd"
            d="M14.7201 13.2979C14.8149 13.3927 14.9096 13.4875 15.0045 13.5823C15.6045 14.1213 15.5572 14.5953 14.8623 15.0045C14.4379 15.0453 14.2483 15.2824 14.2934 15.7156C13.7563 15.8263 13.2822 16.0632 12.8712 16.4267C12.7408 16.3376 12.5986 16.2901 12.4445 16.2845C12.2075 15.9527 11.9704 15.6208 11.7334 15.289C11.9033 15.3143 12.0693 15.3616 12.2312 15.4312C13.1032 14.8735 13.9802 14.3283 14.8623 13.7956C14.7432 13.6518 14.6959 13.4859 14.7201 13.2979Z"
            fill="#EBDC2C" />
        <path fill-rule="evenodd" clip-rule="evenodd"
            d="M20.8355 13.8662C20.8459 14.0834 20.751 14.2256 20.5511 14.2929C20.5407 14.0757 20.6355 13.9335 20.8355 13.8662Z"
            fill="#977E44" />
        <path fill-rule="evenodd" clip-rule="evenodd"
            d="M16.8533 13.582C16.7936 13.8087 16.6989 14.022 16.5689 14.222C16.6949 14.5224 16.6949 14.8305 16.5689 15.1465C17.1071 15.2632 17.6286 15.4055 18.1333 15.5731C18.111 15.7684 18.1348 15.9581 18.2044 16.142C18.3417 15.8917 18.5077 15.8442 18.7022 15.9998C18.5621 16.2271 18.5385 16.4642 18.6311 16.7109C18.8203 16.557 19.0336 16.4622 19.2711 16.4265C18.9881 16.8514 18.6563 17.2307 18.2756 17.5643C17.1477 17.2423 16.3893 16.5312 16 15.4309C16.1209 14.9939 16.2631 14.5672 16.4267 14.1509C16.4605 13.8801 16.6027 13.6904 16.8533 13.582Z"
            fill="#F6A944" />
        <path fill-rule="evenodd" clip-rule="evenodd"
            d="M16.4268 14.1514C16.2633 14.5677 16.1211 14.9943 16.0002 15.4314C16.3894 16.5316 17.1479 17.2427 18.2757 17.5647C17.9451 18.0379 17.6133 18.512 17.2802 18.9869C17.2328 18.9869 17.1853 18.9869 17.138 18.9869C17.1562 18.6804 17.085 18.396 16.9246 18.1336C16.608 17.8742 16.3947 17.6135 16.2846 17.3514C16.3496 17.2925 16.3971 17.2214 16.4268 17.138C15.7833 16.8739 15.4041 16.3999 15.2891 15.7158C15.5628 15.1112 15.9421 14.5898 16.4268 14.1514Z"
            fill="#F39F50" />
        <path fill-rule="evenodd" clip-rule="evenodd"
            d="M14.8621 15.0049C14.5438 15.655 14.1172 16.2239 13.5821 16.7115C13.3925 16.8064 13.2028 16.9011 13.0132 16.996C12.8279 16.7625 12.6383 16.5254 12.4443 16.2849C12.5984 16.2904 12.7406 16.3379 12.871 16.4271C13.282 16.0636 13.7561 15.8266 14.2932 15.716C14.2481 15.2828 14.4377 15.0457 14.8621 15.0049Z"
            fill="#D3D545" />
        <path fill-rule="evenodd" clip-rule="evenodd"
            d="M4.05316 15.289C5.87442 17.7845 7.77072 20.2498 9.74204 22.6846C10.2355 23.5472 10.8518 24.3294 11.5909 25.0313C12.5518 25.1402 13.2155 24.7372 13.582 23.8224C14.0784 23.303 14.5051 22.7341 14.862 22.1157C14.9569 21.9735 15.0516 21.8313 15.1465 21.689C15.1938 21.689 15.2414 21.689 15.2887 21.689C15.4584 21.9101 15.6244 22.1471 15.7865 22.4002C15.7986 22.1747 15.8222 21.9852 15.8576 21.8313C15.9924 22.2885 16.182 22.3359 16.4265 21.9735C16.801 22.1558 16.801 22.3455 16.4265 22.5424C16.4738 22.5897 16.5214 22.6372 16.5687 22.6846C16.7628 22.4987 16.9524 22.4987 17.1376 22.6846C17.2325 22.6846 17.3272 22.6846 17.422 22.6846C17.6049 23.0568 17.842 23.3886 18.1332 23.6802C18.3597 24.1765 18.6915 24.6032 19.1287 24.9602C19.4776 25.1429 19.8331 25.1429 20.1954 24.9602C20.5242 24.6313 20.856 24.2995 21.1909 23.9646C23.1394 21.2019 25.1542 18.4997 27.2354 15.8579C27.4194 15.7456 27.5854 15.6034 27.7332 15.4313C27.7863 15.5615 27.8575 15.6802 27.9465 15.7868C29.273 15.8579 30.6005 15.8815 31.9287 15.8579C31.9287 20.0297 31.9287 24.2017 31.9287 28.3735C21.262 28.3735 10.5954 28.3735 -0.0712891 28.3735C-0.0712891 24.2017 -0.0712891 20.0297 -0.0712891 15.8579C1.16494 15.905 2.39753 15.8577 3.62649 15.7157C3.59672 15.6324 3.54932 15.5613 3.48427 15.5024C3.63595 15.2162 3.82557 15.1451 4.05316 15.289Z"
            fill="#403E54" />
        <path fill-rule="evenodd" clip-rule="evenodd"
            d="M19.2713 19.5557C19.4309 19.81 19.4547 20.0944 19.3424 20.409C18.9505 20.8604 18.666 21.3818 18.4891 21.9734C18.2395 22.1398 18.0973 22.3769 18.0624 22.6846C17.8217 21.934 17.6083 21.934 17.4224 22.6846C17.3276 22.6846 17.2329 22.6846 17.138 22.6846C16.9459 22.1832 16.6614 21.7328 16.2847 21.3334C16.4053 21.0965 16.5475 20.8832 16.7113 20.6934C16.7416 21.1166 16.8839 21.4959 17.138 21.8312C17.4257 21.5933 17.7575 21.4984 18.1336 21.5468C18.1112 21.3515 18.135 21.1618 18.2047 20.9779C18.6217 20.5285 18.9772 20.0544 19.2713 19.5557Z"
            fill="#43C0D4" />
        <path fill-rule="evenodd" clip-rule="evenodd"
            d="M11.8755 19.8398C11.9703 19.8398 12.0177 19.8872 12.0177 19.9821C11.8869 20.404 11.6735 20.7832 11.3777 21.1198C11.3068 21.6392 11.2831 22.1606 11.3066 22.6843C11.117 22.6843 10.9274 22.6843 10.7377 22.6843C10.7783 22.9386 10.7309 23.1757 10.5955 23.3954C10.2974 23.2361 10.25 23.0228 10.4533 22.7554C10.2076 22.8302 9.97058 22.8065 9.74219 22.6843C10.032 22.2487 10.2927 21.7746 10.5244 21.2621C10.9372 20.9711 11.198 20.5918 11.3066 20.1243C11.5483 20.1204 11.7379 20.0256 11.8755 19.8398Z"
            fill="#EF5490" />
        <path fill-rule="evenodd" clip-rule="evenodd"
            d="M20.4089 18.9863C20.0795 20.4029 19.8661 21.8251 19.7689 23.253C19.6416 23.5807 19.523 23.9126 19.4133 24.2486C19.3184 24.1063 19.2237 23.9641 19.1289 23.8219C18.9866 23.9641 18.8444 24.1063 18.7022 24.2486C18.8918 24.3434 19.0815 24.4381 19.2711 24.533C19.1819 24.6634 19.1344 24.8056 19.1289 24.9597C18.6917 24.6027 18.3599 24.176 18.1333 23.6797C18.648 23.1825 19.0984 22.6136 19.4844 21.973C19.5554 21.2159 19.5791 20.4575 19.5555 19.6974C19.8678 19.5071 20.1523 19.2701 20.4089 18.9863Z"
            fill="#42A3D3" />
        <path fill-rule="evenodd" clip-rule="evenodd"
            d="M19.2713 19.2715C19.4712 19.3388 19.5661 19.481 19.5557 19.6982C19.5793 20.4582 19.5556 21.2167 19.4846 21.9737C19.0986 22.6143 18.6482 23.1832 18.1335 23.6804C17.8423 23.3888 17.6053 23.057 17.4224 22.6848C17.6082 21.9343 17.8216 21.9343 18.0624 22.6848C18.0972 22.3772 18.2394 22.1401 18.489 21.9737C18.666 21.3821 18.9504 20.8607 19.3424 20.4093C19.4546 20.0947 19.4308 19.8102 19.2713 19.5559C19.2713 19.4611 19.2713 19.3663 19.2713 19.2715Z"
            fill="#43B3D5" />
        <path fill-rule="evenodd" clip-rule="evenodd"
            d="M19.2709 19.2713C19.2709 19.3662 19.2709 19.4609 19.2709 19.5557C18.9768 20.0545 18.6213 20.5285 18.2043 20.978C18.1346 21.1619 18.1108 21.3516 18.1332 21.5469C17.7571 21.4985 17.4253 21.5934 17.1376 21.8313C16.8835 21.4959 16.7412 21.1166 16.7109 20.6935C17.2006 19.8575 17.7931 19.0991 18.4887 18.418C18.7817 18.6714 19.0424 18.9559 19.2709 19.2713Z"
            fill="#47C8CF" />
        <path fill-rule="evenodd" clip-rule="evenodd"
            d="M14.0087 17.2803C14.0568 17.6582 13.962 17.99 13.7243 18.2758C14.3283 18.8552 14.5654 19.5664 14.4354 20.4092C14.625 20.4092 14.8147 20.4092 15.0043 20.4092C14.9618 20.7084 15.0091 20.9928 15.1465 21.2625C15.3903 21.1048 15.4851 21.1996 15.431 21.5469C15.3361 21.5469 15.2887 21.5943 15.2887 21.6892C15.2414 21.6892 15.1939 21.6892 15.1465 21.6892C15.0087 21.5741 14.8902 21.4319 14.791 21.2625C14.7223 21.3973 14.6987 21.5395 14.7199 21.6892C14.5318 21.7133 14.3659 21.666 14.2221 21.5469C14.1311 21.1755 13.9652 20.8435 13.7243 20.5514C13.9607 19.7902 13.7947 19.1265 13.2265 18.5603C13.1721 18.6393 13.101 18.6867 13.0132 18.7025C13.3657 18.245 13.6975 17.7708 14.0087 17.2803Z"
            fill="#EF7573" />
        <path fill-rule="evenodd" clip-rule="evenodd"
            d="M13.0133 18.7021C12.9617 19.2544 12.9617 19.8233 13.0133 20.4088C13.1555 20.4088 13.2977 20.4088 13.4399 20.4088C13.4531 20.917 13.382 21.391 13.2266 21.831C13.4162 21.9259 13.5584 22.0681 13.6533 22.2577C13.7583 22.105 13.9005 22.0101 14.0799 21.9733C14.3311 22.0775 14.5918 22.125 14.8622 22.1155C14.5052 22.7339 14.0785 23.3028 13.5822 23.8221C13.5822 23.4428 13.5822 23.0637 13.5822 22.6844C13.1081 22.6844 12.634 22.6844 12.1599 22.6844C12.2059 21.7568 12.1585 20.8561 12.0177 19.9821C12.0177 19.8873 11.9703 19.8399 11.8755 19.8399C11.8755 19.7451 11.8755 19.6503 11.8755 19.5555C12.0251 19.5767 12.1673 19.5531 12.3022 19.4844C12.4918 19.1728 12.7288 18.9121 13.0133 18.7021Z"
            fill="#EC6780" />
        <path fill-rule="evenodd" clip-rule="evenodd"
            d="M12.0177 19.9824C12.1586 20.8564 12.206 21.7571 12.16 22.6846C12.634 22.6846 13.1081 22.6846 13.5822 22.6846C13.5822 23.064 13.5822 23.4431 13.5822 23.8224C13.2156 24.7372 12.5519 25.1403 11.5911 25.0313C10.8519 24.3294 10.2356 23.5472 9.74219 22.6846C9.97058 22.8068 10.2076 22.8306 10.4533 22.7558C10.25 23.0231 10.2974 23.2365 10.5955 23.3958C10.7309 23.176 10.7783 22.9389 10.7377 22.6846C10.9274 22.6846 11.117 22.6846 11.3066 22.6846C11.2831 22.161 11.3068 21.6396 11.3777 21.1202C11.6735 20.7836 11.8869 20.4044 12.0177 19.9824Z"
            fill="#EE6187" />
        <path fill-rule="evenodd" clip-rule="evenodd"
            d="M14.0091 17.2803C14.1039 17.2803 14.1987 17.2803 14.2935 17.2803C14.1943 17.6437 14.1469 17.9992 14.1513 18.3469C14.6789 18.8985 15.0582 19.5385 15.2891 20.2669C15.5261 20.6462 15.7631 20.6462 16.0002 20.2669C15.8362 20.0981 15.8362 19.9559 16.0002 19.8403C16.3305 19.6625 16.6624 19.4729 16.9957 19.2714C16.4732 20.0307 15.9517 20.7892 15.4313 21.5469C15.4855 21.1996 15.3906 21.1048 15.1468 21.2625C15.0094 20.9928 14.9621 20.7084 15.0046 20.4092C14.815 20.4092 14.6253 20.4092 14.4357 20.4092C14.5657 19.5664 14.3286 18.8552 13.7246 18.2758C13.9623 17.99 14.0571 17.6582 14.0091 17.2803Z"
            fill="#ED7D6C" />
        <path fill-rule="evenodd" clip-rule="evenodd"
            d="M15.1466 21.6885C15.0518 21.8307 14.957 21.9729 14.8622 22.1151C14.5918 22.1247 14.3311 22.0772 14.08 21.9729C13.9006 22.0097 13.7584 22.1046 13.6533 22.2573C13.5585 22.0678 13.4163 21.9255 13.2266 21.8307C13.382 21.3906 13.4531 20.9166 13.44 20.4085C13.2977 20.4085 13.1555 20.4085 13.0133 20.4085C12.9617 19.8229 12.9617 19.254 13.0133 18.7018C13.1011 18.686 13.1722 18.6386 13.2266 18.5596C13.7949 19.1258 13.9608 19.7895 13.7244 20.5507C13.9653 20.8428 14.1312 21.1748 14.2222 21.5462C14.366 21.6653 14.5319 21.7126 14.72 21.6885C14.6988 21.5388 14.7224 21.3966 14.7911 21.2618C14.8903 21.4312 15.0088 21.5734 15.1466 21.6885Z"
            fill="#F26E79" />
        <path fill-rule="evenodd" clip-rule="evenodd"
            d="M14.5778 16.9951C14.6182 17.3868 14.7131 17.766 14.8623 18.1329C15.1147 18.8151 15.494 19.384 16 19.8396C15.8361 19.9552 15.8361 20.0974 16 20.2662C15.763 20.6455 15.526 20.6455 15.2889 20.2662C15.0581 19.5378 14.6788 18.8978 14.1512 18.3462C14.1468 17.9985 14.1942 17.6429 14.2934 17.2796C14.3882 17.1847 14.483 17.09 14.5778 16.9951Z"
            fill="#F48366" />
        <path fill-rule="evenodd" clip-rule="evenodd"
            d="M15.0043 16.5693C14.9187 16.8307 14.8713 17.0914 14.8621 17.3516C15.2414 17.5923 15.5494 17.9004 15.7865 18.276C15.8562 18.4599 15.88 18.6496 15.8576 18.8449C16.2519 18.8051 16.6074 18.8999 16.9243 19.1293C16.9788 19.0503 17.0499 19.0029 17.1376 18.9871C17.185 18.9871 17.2325 18.9871 17.2799 18.9871C17.2325 19.1293 17.1376 19.2242 16.9954 19.2716C16.662 19.4731 16.3302 19.6627 15.9999 19.8404C15.4938 19.3849 15.1145 18.816 14.8621 18.1338C14.7129 17.7668 14.618 17.3877 14.5776 16.996C14.663 16.7969 14.8052 16.6547 15.0043 16.5693Z"
            fill="#F38C5F" />
        <path fill-rule="evenodd" clip-rule="evenodd"
            d="M15.289 15.7158C15.404 16.3999 15.7832 16.8739 16.4267 17.138C16.397 17.2214 16.3495 17.2925 16.2845 17.3514C16.3946 17.6135 16.6079 17.8742 16.9245 18.1336C17.085 18.396 17.1561 18.6804 17.1379 18.9869C17.0501 19.0027 16.979 19.0501 16.9245 19.1292C16.6077 18.8997 16.2521 18.8049 15.8579 18.8447C15.8802 18.6494 15.8564 18.4597 15.7867 18.2758C15.5497 17.9002 15.2416 17.5922 14.8623 17.3514C14.8715 17.0913 14.9189 16.8306 15.0045 16.5692C15.0045 16.3321 15.0045 16.0951 15.0045 15.858C15.0994 15.8107 15.1941 15.7632 15.289 15.7158Z"
            fill="#F69357" />
        <path fill-rule="evenodd" clip-rule="evenodd"
            d="M13.5821 16.7109C13.4777 16.8827 13.4303 17.0723 13.4399 17.2798C13.2011 17.3104 13.0589 17.2155 13.0132 16.9954C13.2028 16.9005 13.3924 16.8058 13.5821 16.7109Z"
            fill="#B1B668" />
        <path fill-rule="evenodd" clip-rule="evenodd"
            d="M15.0043 15.8574C15.0043 16.0945 15.0043 16.3314 15.0043 16.5685C14.8052 16.6539 14.663 16.7961 14.5777 16.9952C14.4828 17.0901 14.3881 17.1848 14.2932 17.2796C14.1984 17.2796 14.1036 17.2796 14.0088 17.2796C14.3417 16.8048 14.6735 16.3307 15.0043 15.8574Z"
            fill="#C77F6A" />
        <path fill-rule="evenodd" clip-rule="evenodd"
            d="M-0.0712891 28.373C10.5954 28.373 21.262 28.373 31.9287 28.373C31.9287 29.5582 31.9287 30.7435 31.9287 31.9286C21.262 31.9286 10.5954 31.9286 -0.0712891 31.9286C-0.0712891 30.7435 -0.0712891 29.5582 -0.0712891 28.373Z"
            fill="#3D3B51" />
    </g>
    <defs>
        <clipPath id="clip0_5249_45">
            <rect width="32" height="32" fill="white" />
        </clipPath>
    </defs>
</svg>