<svg width="32" height="32" viewBox="0 0 32 32" fill="none" xmlns="http://www.w3.org/2000/svg">
    <g clip-path="url(#clip0_5214_64)">
        <rect width="32" height="32" fill="#FAFAFA" />
        <path opacity="0.973" fill-rule="evenodd" clip-rule="evenodd"
            d="M29.7605 0C29.8102 0 29.86 0 29.9098 0C30.5665 0.10585 31.2382 0.207923 31.9251 0.30622C32.0247 2.14354 32.0247 3.98087 31.9251 5.81819C31.8352 8.73344 30.6659 11.0556 28.4169 12.7847C26.5531 14.128 24.5128 15.0722 22.2962 15.6172C22.1032 17.2586 21.8544 18.8917 21.5498 20.5168C20.3391 21.0484 19.1199 21.5587 17.8924 22.0479C17.8177 21.9969 17.7431 21.9457 17.6684 21.8948C17.9919 21.2313 18.3153 20.5678 18.6388 19.9043C18.7383 19.394 18.7383 18.8835 18.6388 18.3732C18.1269 18.5876 17.6044 18.7151 17.0713 18.756C16.006 17.8167 14.9859 16.8215 14.011 15.7704C14.0386 15.0963 14.1629 14.4328 14.3842 13.7799C13.983 13.7548 13.5849 13.7803 13.1899 13.8565C12.4185 14.4434 11.6473 15.0303 10.876 15.6172C11.3789 13.8386 11.9014 12.0524 12.4435 10.2584C13.9396 10.2024 15.4324 10.1003 16.922 9.95216C17.5093 7.03711 18.8528 4.56184 20.9527 2.52632C23.6832 0.895046 26.6191 0.0529397 29.7605 0ZM24.2369 4.4402C26.2657 4.17775 27.46 5.07089 27.8198 7.11963C27.2849 9.71599 25.8418 10.4815 23.4905 9.41628C22.254 8.12283 22.1296 6.71933 23.1173 5.20575C23.4874 4.92799 23.8606 4.6728 24.2369 4.4402Z"
            fill="#B648FF" />
        <path opacity="0.978" fill-rule="evenodd" clip-rule="evenodd"
            d="M17.6686 31.9999C16.2754 31.9999 14.8819 31.9999 13.4887 31.9999C7.98648 31.2848 3.93101 28.4267 1.32197 23.4257C-0.975224 17.589 -0.278513 12.1791 3.41195 7.19602C7.78091 2.66169 13.0308 1.02852 19.1615 2.2965C17.8428 4.23574 16.7978 6.32824 16.0265 8.57401C11.0373 9.02108 8.4 11.8026 8.11441 16.9185C8.39537 22.566 11.2815 25.271 16.7729 25.0334C19.7738 24.4053 21.7395 22.5936 22.6697 19.5979C22.837 18.6775 23.0111 17.7588 23.1922 16.842C24.8661 16.1248 26.5082 15.3338 28.1185 14.4688C28.9739 13.9999 29.7453 13.413 30.4325 12.708C32.0568 18.938 30.5392 24.2203 25.8793 28.5549C23.4409 30.4683 20.704 31.6166 17.6686 31.9999Z"
            fill="black" />
        <path opacity="0.922" fill-rule="evenodd" clip-rule="evenodd"
            d="M13.638 16.6895C14.4952 17.3379 15.2913 18.0779 16.0265 18.9096C14.8675 20.234 13.4243 21.0249 11.6973 21.2828C11.7762 19.4888 12.4231 17.9577 13.638 16.6895Z"
            fill="#B648FF" />
    </g>
    <defs>
        <clipPath id="clip0_5214_64">
            <rect width="32" height="32" fill="white" />
        </clipPath>
    </defs>
</svg>