<svg width="32" height="32" viewBox="0 0 32 32" fill="none" xmlns="http://www.w3.org/2000/svg">
    <g clip-path="url(#clip0_5317_4994)">
        <path fill-rule="evenodd" clip-rule="evenodd"
            d="M-0.03125 -0.03125C10.6354 -0.03125 21.3021 -0.03125 31.9688 -0.03125C31.9688 10.6354 31.9688 21.3021 31.9688 31.9688C21.3021 31.9688 10.6354 31.9688 -0.03125 31.9688C-0.03125 21.3021 -0.03125 10.6354 -0.03125 -0.03125Z"
            fill="#FEFEFE" />
        <path fill-rule="evenodd" clip-rule="evenodd"
            d="M11.9688 0.156158C15.4376 0.0729475 18.9167 0.0729475 22.4062 0.156158C22.3985 0.194074 22.3777 0.214908 22.3438 0.218658C18.896 0.156221 15.4377 0.135388 11.9688 0.156158Z"
            fill="#1F66FE" />
        <path fill-rule="evenodd" clip-rule="evenodd"
            d="M11.9688 0.156214C15.4377 0.135444 18.896 0.156278 22.3438 0.218714C21.2984 2.83026 20.2359 5.43443 19.1562 8.03121C18.4857 9.6989 17.8086 11.3656 17.125 13.0312C16.4461 14.5631 15.2899 15.511 13.6562 15.875C12.2418 15.9639 10.8251 15.9952 9.40625 15.9687C7.26044 15.9687 5.11458 15.9687 2.96875 15.9687C4.75949 11.4493 6.60325 6.94934 8.5 2.46871C9.296 1.15913 10.4523 0.3883 11.9688 0.156214Z"
            fill="#0055FE" />
        <path fill-rule="evenodd" clip-rule="evenodd"
            d="M19.1562 8.03126C21.323 8.02082 23.4897 8.03126 25.6562 8.06251C25.6215 8.08645 25.6007 8.1177 25.5938 8.15626C23.5127 10.7334 21.4607 13.3376 19.4375 15.9688C18.5656 16.8995 17.4927 17.4203 16.2188 17.5313C13.7497 17.552 11.2914 17.5312 8.84375 17.4688C9.03081 16.9694 9.21831 16.4694 9.40625 15.9688C10.8251 15.9952 12.2418 15.9639 13.6562 15.875C15.2899 15.5111 16.4461 14.5631 17.125 13.0313C17.8086 11.3656 18.4857 9.69895 19.1562 8.03126Z"
            fill="#1932AF" />
        <path fill-rule="evenodd" clip-rule="evenodd"
            d="M25.5938 8.15625C24.5484 10.7678 23.4859 13.3719 22.4062 15.9688C21.7357 17.6364 21.0586 19.3031 20.375 20.9688C19.6162 22.6228 18.335 23.5915 16.5312 23.875C15.2398 23.9062 13.9481 23.9167 12.6562 23.9062C10.5104 23.9062 8.36456 23.9062 6.21875 23.9062C7.02319 21.7773 7.87738 19.6731 8.78125 17.5938C11.2711 17.6145 13.7503 17.5937 16.2188 17.5312C17.4927 17.4203 18.5656 16.8995 19.4375 15.9688C21.4607 13.3376 23.5127 10.7334 25.5938 8.15625Z"
            fill="#0291FE" />
        <path fill-rule="evenodd" clip-rule="evenodd"
            d="M22.4062 15.9688C24.573 15.9583 26.7397 15.9688 28.9062 16C28.8715 16.0239 28.8507 16.0552 28.8438 16.0938C27.0331 18.3738 25.2311 20.6654 23.4375 22.9688C22.9479 23.7083 22.3333 24.3229 21.5938 24.8125C20.9143 25.2022 20.1852 25.4209 19.4062 25.4688C16.9581 25.4895 14.5206 25.4687 12.0938 25.4063C12.2808 24.9069 12.4683 24.4069 12.6562 23.9063C13.9481 23.9167 15.2398 23.9063 16.5312 23.875C18.335 23.5915 19.6162 22.6228 20.375 20.9688C21.0586 19.3031 21.7357 17.6364 22.4062 15.9688Z"
            fill="#1932AF" />
        <path fill-rule="evenodd" clip-rule="evenodd"
            d="M28.8438 16.0938C27.1107 20.3656 25.3711 24.6364 23.625 28.9062C22.8726 30.5334 21.6122 31.5021 19.8438 31.8125C16.3855 31.8438 12.9271 31.8542 9.46875 31.8438C10.2873 29.7206 11.1415 27.6164 12.0312 25.5312C14.5003 25.552 16.9586 25.5312 19.4062 25.4688C20.1852 25.4209 20.9143 25.2022 21.5938 24.8125C22.3333 24.3229 22.9479 23.7083 23.4375 22.9688C25.2311 20.6654 27.0331 18.3737 28.8438 16.0938Z"
            fill="#93C4FE" />
        <path fill-rule="evenodd" clip-rule="evenodd"
            d="M8.84356 17.4688C11.2912 17.5312 13.7496 17.552 16.2186 17.5312C13.7501 17.5937 11.2709 17.6145 8.78106 17.5938C8.77031 17.5318 8.79119 17.4901 8.84356 17.4688Z"
            fill="#0C71E3" />
        <path fill-rule="evenodd" clip-rule="evenodd"
            d="M12.0936 25.4062C14.5204 25.4687 16.9579 25.4895 19.4061 25.4688C16.9584 25.5312 14.5001 25.552 12.0311 25.5312C12.0203 25.4693 12.0412 25.4276 12.0936 25.4062Z"
            fill="#5B82DA" />
    </g>
    <defs>
        <clipPath id="clip0_5317_4994">
            <rect width="32" height="32" fill="white" />
        </clipPath>
    </defs>
</svg>