<svg width="32" height="32" viewBox="0 0 32 32" fill="none" xmlns="http://www.w3.org/2000/svg">
    <path fill-rule="evenodd" clip-rule="evenodd"
        d="M23.75 0.249898C24.3955 0.131245 24.8955 0.297912 25.25 0.749898C24.0791 0.887298 24.0791 1.30397 25.25 1.9999C25.0834 2.16656 24.9166 2.33323 24.75 2.4999C25.224 2.74129 25.724 2.82462 26.25 2.7499C26.3515 3.81902 26.8515 4.65235 27.75 5.2499C27.5199 13.583 27.3532 21.4163 27.25 28.7499C27.25 29.2499 27.25 29.7499 27.25 30.2499C26.7542 30.3357 26.4208 30.169 26.25 29.7499C26.25 26.9165 26.25 24.0832 26.25 21.2499C24.2329 21.2521 22.2329 21.4188 20.25 21.7499C19.5407 21.2743 18.7074 21.1076 17.75 21.2499C17.6136 18.8332 17.6136 16.3332 17.75 13.7499C20.4513 13.4829 23.1179 13.4829 25.75 13.7499C25.8356 15.3985 25.5023 15.5652 24.75 14.2499C24.1763 15.3823 24.0929 16.549 24.5 17.7499C25.1517 17.4438 25.735 17.2771 26.25 17.2499C25.75 16.8332 25.25 16.4165 24.75 15.9999C25.2246 15.6913 25.6413 15.7746 26 16.2499C26.3756 13.058 26.2922 9.8914 25.75 6.7499C25.5792 6.3308 25.2458 6.1641 24.75 6.2499C24.7865 5.48645 24.4531 4.98643 23.75 4.7499C23.6086 4.35533 23.3586 4.022 23 3.7499C21.2723 4.39559 19.5223 4.39559 17.75 3.7499C17.9313 3.40817 18.098 3.07483 18.25 2.7499C19.607 2.87489 20.9403 2.95823 22.25 2.9999C18.3073 2.09124 14.3073 2.09124 10.25 2.9999C9.14625 3.52363 8.3129 4.27363 7.75 5.2499C6.05265 6.174 5.886 6.8407 7.25 7.2499C6.3607 8.09635 6.1107 9.09635 6.5 10.2499C6.90565 9.52005 7.3223 9.3534 7.75 9.7499C7.3683 10.3595 6.8683 10.8595 6.25 11.2499C6.8499 11.6457 7.51655 11.6457 8.25 11.2499C8.75725 11.8822 9.50725 12.2155 10.5 12.2499C11.8113 11.9585 13.0613 11.9585 14.25 12.2499C11.5833 12.5832 8.91665 12.9165 6.25 13.2499C6.8444 13.7142 7.5111 13.8809 8.25 13.7499C8.0609 14.7374 7.89425 15.7374 7.75 16.7499C7.414 17.1336 6.99735 17.4669 6.5 17.7499C6.05205 16.4874 6.30205 15.404 7.25 14.4999C6.776 14.2585 6.276 14.1751 5.75 14.2499C5.8207 17.3178 5.65405 20.2345 5.25 22.9999C5.62445 23.8667 5.87445 24.7834 6 25.7499C6.35875 25.2746 6.77545 25.1913 7.25 25.4999C6.6132 25.9885 6.6132 26.4052 7.25 26.7499C6.56985 28.6853 6.1532 28.5187 6 26.2499C5.7513 27.5729 5.66795 28.9062 5.75 30.2499C5.08335 30.2499 4.41667 30.2499 3.75 30.2499C4.22868 22.5105 4.22868 14.8438 3.75 7.2499C4.37361 6.3384 4.70693 5.3384 4.75 4.2499C5.41665 3.2499 6.25 2.41656 7.25 1.7499C12.7715 0.992238 18.2715 0.492235 23.75 0.249898Z"
        fill="#F0F0F0" />
    <path fill-rule="evenodd" clip-rule="evenodd"
        d="M5.75 1.75C6.25 1.75 6.75 1.75 7.25 1.75C6.25 2.41667 5.41665 3.25 4.75 4.25C4.75 3.91666 4.75 3.58334 4.75 3.25C5.08335 2.75 5.41665 2.25 5.75 1.75Z"
        fill="#252525" />
    <path fill-rule="evenodd" clip-rule="evenodd"
        d="M17.2501 2.75C17.2221 10.6688 17.0554 18.5855 16.7501 26.5C16.7845 27.4927 17.1178 28.2427 17.7501 28.75C20.4768 28.8711 23.1435 28.8711 25.7501 28.75C25.7501 29.0834 25.7501 29.4166 25.7501 29.75C25.2163 30.2172 24.5496 30.3839 23.7501 30.25C21.6353 29.8899 19.4686 29.5566 17.2501 29.25C16.6106 29.984 15.7772 30.3174 14.7501 30.25C14.8318 29.0716 14.7484 27.9049 14.5001 26.75C14.2587 27.224 14.1754 27.724 14.2501 28.25C5.58347 28.4166 5.58347 28.5834 14.2501 28.75C14.2501 29.25 14.2501 29.75 14.2501 30.25C11.5912 30.0995 9.17457 30.0995 7.00012 30.25C6.78542 29.1657 7.03542 28.1657 7.75012 27.25C7.68832 26.9466 7.52167 26.78 7.25012 26.75C7.86482 25.4327 7.86482 24.0993 7.25012 22.75C7.16557 23.1983 6.99892 23.6983 6.75012 24.25C6.10057 23.3467 6.18392 22.5134 7.00012 21.75C9.55707 22.4021 12.1404 22.4021 14.7501 21.75C15.1816 21.1368 15.1816 20.4701 14.7501 19.75C14.8528 18.4428 14.8528 17.2762 14.7501 16.25C14.263 17.3714 14.0963 18.538 14.2501 19.75C12.4168 19.75 10.5835 19.75 8.75012 19.75C8.75012 17.5833 8.75012 15.4167 8.75012 13.25C10.5918 13.8374 12.4251 13.8374 14.2501 13.25C14.17 14.0996 14.2534 14.933 14.5001 15.75C14.7501 15.5 15.0001 15.25 15.2501 15C14.7782 13.6405 14.6116 12.2237 14.7501 10.75C14.7996 8.5713 14.7996 6.23795 14.7501 3.75C13.4065 3.83204 12.0731 3.74871 10.7501 3.5C12.9162 3.20837 15.0828 2.95837 17.2501 2.75Z"
        fill="#F2F2F2" />
    <path fill-rule="evenodd" clip-rule="evenodd"
        d="M18.25 2.74985C17.9166 2.74985 17.5834 2.74985 17.25 2.74985C15.0827 2.95822 12.916 3.20822 10.75 3.49985C12.073 3.74856 13.4064 3.8319 14.75 3.74985C14.7995 6.2378 14.7995 8.57115 14.75 10.7499C14.5834 10.7499 14.4166 10.7499 14.25 10.7499C14.25 8.74985 14.25 6.74985 14.25 4.74985C12.0162 4.06344 9.84955 4.23011 7.75 5.24985C8.3129 4.27358 9.14625 3.52358 10.25 2.99985C14.3073 2.09119 18.3073 2.09119 22.25 2.99985C20.9403 2.95818 19.607 2.87485 18.25 2.74985Z"
        fill="#4D4D4D" />
    <path fill-rule="evenodd" clip-rule="evenodd"
        d="M14.25 10.7502C12.3508 11.2419 10.3508 11.4086 8.25 11.2502C8.2236 9.08707 8.0569 7.08707 7.75 5.25017C9.84955 4.23042 12.0162 4.06376 14.25 4.75017C14.25 6.75017 14.25 8.75017 14.25 10.7502Z"
        fill="#F9F9F9" />
    <path fill-rule="evenodd" clip-rule="evenodd"
        d="M23.75 4.7499C22.3313 5.70105 20.6646 6.0344 18.75 5.7499C18.5834 5.7499 18.4166 5.7499 18.25 5.7499C17.9785 5.7199 17.8118 5.55325 17.75 5.2499C19.7227 4.75444 21.7227 4.58777 23.75 4.7499Z"
        fill="#EDEDED" />
    <path fill-rule="evenodd" clip-rule="evenodd"
        d="M23.75 4.75C24.4531 4.98653 24.7865 5.48655 24.75 6.25C22.6492 6.4084 20.6492 6.2417 18.75 5.75C20.6646 6.0345 22.3313 5.70115 23.75 4.75Z"
        fill="#030303" />
    <path fill-rule="evenodd" clip-rule="evenodd"
        d="M18.25 5.75C18.4166 5.75 18.5834 5.75 18.75 5.75C20.6492 6.2417 22.6492 6.4084 24.75 6.25C25.2458 6.1642 25.5792 6.3309 25.75 6.75C25.3045 7.0549 24.8045 7.22155 24.25 7.25C22.3508 6.7583 20.3508 6.5916 18.25 6.75C18.25 6.41665 18.25 6.08335 18.25 5.75Z"
        fill="#858585" />
    <path fill-rule="evenodd" clip-rule="evenodd"
        d="M7.75 5.25C8.0569 7.0869 8.2236 9.0869 8.25 11.25C7.51655 11.6458 6.8499 11.6458 6.25 11.25C6.8683 10.8596 7.3683 10.3597 7.75 9.75C7.3223 9.3535 6.90565 9.52015 6.5 10.25C6.1107 9.09645 6.3607 8.09645 7.25 7.25C5.886 6.8408 6.05265 6.1741 7.75 5.25Z"
        fill="#404040" />
    <path fill-rule="evenodd" clip-rule="evenodd"
        d="M17.25 2.75C17.5834 2.75 17.9166 2.75 18.25 2.75C18.098 3.07493 17.9313 3.40827 17.75 3.75C19.5223 4.39569 21.2723 4.39569 23 3.75C23.3586 4.0221 23.6086 4.35544 23.75 4.75C21.7227 4.58787 19.7227 4.75455 17.75 5.25C17.8118 5.55335 17.9785 5.72 18.25 5.75C18.25 6.08335 18.25 6.41665 18.25 6.75C17.9785 6.78 17.8118 6.94665 17.75 7.25C18.1666 7.41665 18.5834 7.58335 19 7.75C20.7291 7.35675 22.4791 7.1901 24.25 7.25C24.8045 7.22155 25.3045 7.0549 25.75 6.75C26.2922 9.8915 26.3756 13.0582 26 16.25C25.6413 15.7747 25.2246 15.6914 24.75 16C25.25 16.4166 25.75 16.8334 26.25 17.25C25.735 17.2772 25.1517 17.4439 24.5 17.75C24.0929 16.5491 24.1763 15.3824 24.75 14.25C25.5023 15.5653 25.8356 15.3987 25.75 13.75C23.1179 13.483 20.4513 13.483 17.75 13.75C17.6136 16.3333 17.6136 18.8333 17.75 21.25C18.7074 21.1077 19.5407 21.2745 20.25 21.75C19.5834 21.75 18.9166 21.75 18.25 21.75C17.8309 21.9208 17.6642 22.2542 17.75 22.75C19.9167 23.0834 22.0833 23.4166 24.25 23.75C21.853 23.4516 19.6863 23.7849 17.75 24.75C19.6492 25.2417 21.6492 25.4084 23.75 25.25C21.4595 25.5547 19.4595 25.888 17.75 26.25C17.75 26.4166 17.75 26.5834 17.75 26.75C17.75 27.25 17.75 27.75 17.75 28.25C17.75 28.4166 17.75 28.5834 17.75 28.75C17.1176 28.2427 16.7844 27.4927 16.75 26.5C17.0553 18.5855 17.222 10.6688 17.25 2.75Z"
        fill="#191919" />
    <path fill-rule="evenodd" clip-rule="evenodd"
        d="M17.7501 11.75C20.4325 11.9333 23.0992 12.2667 25.7501 12.75C23.4263 12.6195 21.0096 12.7862 18.5001 13.25C17.9808 12.8781 17.7308 12.3781 17.7501 11.75Z"
        fill="#FCFCFC" />
    <path fill-rule="evenodd" clip-rule="evenodd"
        d="M17.75 10.75C19.8414 10.0944 22.0081 10.0944 24.25 10.75C22.0593 11.385 19.8926 11.385 17.75 10.75Z"
        fill="#FBFBFB" />
    <path fill-rule="evenodd" clip-rule="evenodd"
        d="M24.7498 9.75C25.7321 9.97415 25.8988 10.4742 25.2498 11.25C24.807 10.8375 24.6403 10.3375 24.7498 9.75Z"
        fill="#DDDDDD" />
    <path fill-rule="evenodd" clip-rule="evenodd"
        d="M24.75 7.75C25.666 8.07025 25.8327 8.57025 25.25 9.25C22.8196 9.3477 20.3196 9.18105 17.75 8.75C20.1583 8.41655 22.4917 8.08325 24.75 7.75Z"
        fill="#E2E2E2" />
    <path fill-rule="evenodd" clip-rule="evenodd"
        d="M18.25 6.74978C20.3508 6.59138 22.3508 6.75808 24.25 7.24978C22.4791 7.18988 20.7291 7.35653 19 7.74978C18.5834 7.58313 18.1666 7.41643 17.75 7.24978C17.8118 6.94643 17.9785 6.77978 18.25 6.74978Z"
        fill="#F7F7F7" />
    <path fill-rule="evenodd" clip-rule="evenodd"
        d="M14.25 10.75C14.4166 10.75 14.5834 10.75 14.75 10.75C14.6115 12.2237 14.7781 13.6405 15.25 15C15 15.25 14.75 15.5 14.5 15.75C14.2533 14.933 14.1699 14.0996 14.25 13.25C12.425 13.8374 10.5917 13.8374 8.75 13.25C8.41665 13.25 8.25 13.4166 8.25 13.75C7.5111 13.881 6.8444 13.7143 6.25 13.25C8.91665 12.9166 11.5833 12.5834 14.25 12.25C13.0613 11.9586 11.8113 11.9586 10.5 12.25C9.50725 12.2156 8.75725 11.8824 8.25 11.25C10.3508 11.4084 12.3508 11.2417 14.25 10.75Z"
        fill="#2E2E2E" />
    <path fill-rule="evenodd" clip-rule="evenodd"
        d="M8.75 13.25C8.75 15.4167 8.75 17.5833 8.75 19.75C10.5833 19.75 12.4167 19.75 14.25 19.75C14.25 20.0834 14.25 20.4166 14.25 20.75C12.2431 20.8328 10.2431 20.7494 8.25 20.5C7.972 20.3087 7.80535 20.0587 7.75 19.75C7.2692 18.5072 6.85255 18.5072 6.5 19.75C6.41665 19.5 6.33335 19.25 6.25 19C6.80665 18.3029 7.4733 17.7195 8.25 17.25C8.1882 16.9466 8.02155 16.78 7.75 16.75C7.89425 15.7375 8.0609 14.7375 8.25 13.75C8.25 13.4166 8.41665 13.25 8.75 13.25Z"
        fill="#6E6E6E" />
    <path fill-rule="evenodd" clip-rule="evenodd"
        d="M14.7502 19.75C14.5835 19.75 14.4168 19.75 14.2502 19.75C14.0964 18.538 14.2631 17.3714 14.7502 16.25C14.8528 17.2762 14.8528 18.4428 14.7502 19.75Z"
        fill="#656565" />
    <path fill-rule="evenodd" clip-rule="evenodd"
        d="M24.25 18.2502C24.9367 18.1718 25.6034 18.2552 26.25 18.5002C25.9166 18.6668 25.5834 18.8335 25.25 19.0002C25.6784 19.3447 26.0116 19.7614 26.25 20.2502C24.6078 20.8287 22.9411 20.912 21.25 20.5002C22.2363 20.2524 23.2364 20.1691 24.25 20.2502C24.25 19.5835 24.25 18.9168 24.25 18.2502Z"
        fill="#515151" />
    <path fill-rule="evenodd" clip-rule="evenodd"
        d="M7.75 16.7501C8.02155 16.7801 8.1882 16.9468 8.25 17.2501C7.4733 17.7196 6.80665 18.303 6.25 19.0001C6.33335 19.2501 6.41665 19.5001 6.5 19.7501C6.85255 18.5073 7.2692 18.5073 7.75 19.7501C7.17845 19.9542 6.67845 20.2875 6.25 20.7501C8.9932 21.4075 11.6598 21.4075 14.25 20.7501C14.25 20.4168 14.25 20.0835 14.25 19.7501C14.4166 19.7501 14.5834 19.7501 14.75 19.7501C15.1815 20.4703 15.1815 21.1369 14.75 21.7501C12.1402 22.4022 9.55695 22.4022 7 21.7501C6.1838 22.5135 6.10045 23.3468 6.75 24.2501C6.9988 23.6984 7.16545 23.1984 7.25 22.7501C7.8647 24.0995 7.8647 25.4328 7.25 26.7501C6.6132 26.4054 6.6132 25.9887 7.25 25.5001C6.77545 25.1915 6.35875 25.2748 6 25.7501C5.87445 24.7836 5.62445 23.867 5.25 23.0001C5.65405 20.2347 5.8207 17.3181 5.75 14.2501C6.276 14.1754 6.776 14.2587 7.25 14.5001C6.30205 15.4043 6.05205 16.4876 6.5 17.7501C6.99735 17.4672 7.414 17.1338 7.75 16.7501Z"
        fill="#1E1E1E" />
    <path fill-rule="evenodd" clip-rule="evenodd"
        d="M7.75 19.75C7.80535 20.0587 7.972 20.3087 8.25 20.5C10.2431 20.7494 12.2431 20.8328 14.25 20.75C11.6598 21.4074 8.9932 21.4074 6.25 20.75C6.67845 20.2874 7.17845 19.9541 7.75 19.75Z"
        fill="#FDFDFD" />
    <path fill-rule="evenodd" clip-rule="evenodd"
        d="M26.25 29.75C26.0834 29.75 25.9166 29.75 25.75 29.75C25.75 29.4166 25.75 29.0834 25.75 28.75C25.4642 27.82 25.4642 26.9866 25.75 26.25C25.3565 25.4479 24.6898 25.1145 23.75 25.25C21.6492 25.4084 19.6492 25.2417 17.75 24.75C19.7569 24.8328 21.7569 24.7494 23.75 24.5C24.028 24.3087 24.1947 24.0587 24.25 23.75C22.0833 23.4166 19.9167 23.0834 17.75 22.75C19.923 22.8329 22.0897 22.7495 24.25 22.5C22.1562 22.4119 20.1561 22.1619 18.25 21.75C18.9166 21.75 19.5834 21.75 20.25 21.75C22.2329 21.4189 24.2329 21.2522 26.25 21.25C26.25 24.0833 26.25 26.9167 26.25 29.75Z"
        fill="#2F2F2F" />
    <path fill-rule="evenodd" clip-rule="evenodd"
        d="M18.2499 21.75C20.156 22.1619 22.156 22.4119 24.2499 22.5C22.0896 22.7495 19.9229 22.8329 17.7499 22.75C17.6641 22.2542 17.8308 21.9208 18.2499 21.75Z"
        fill="#F8F8F8" />
    <path fill-rule="evenodd" clip-rule="evenodd"
        d="M25.2498 23.2501C24.6012 21.6984 24.7679 21.5317 25.7498 22.7501C25.688 23.0534 25.5213 23.2201 25.2498 23.2501Z"
        fill="#F4F4F4" />
    <path fill-rule="evenodd" clip-rule="evenodd"
        d="M24.25 23.7498C24.1947 24.0585 24.028 24.3085 23.75 24.4998C21.7569 24.7492 19.7569 24.8325 17.75 24.7498C19.6863 23.7847 21.853 23.4513 24.25 23.7498Z"
        fill="#FCFCFC" />
    <path fill-rule="evenodd" clip-rule="evenodd"
        d="M25.25 23.25C25.8986 24.8017 25.7319 24.9684 24.75 23.75C24.8118 23.4466 24.9785 23.28 25.25 23.25Z"
        fill="#FBFBFB" />
    <path fill-rule="evenodd" clip-rule="evenodd"
        d="M23.75 25.2501C24.6898 25.1146 25.3565 25.448 25.75 26.2501C25.4166 26.2501 25.0834 26.2501 24.75 26.2501C24.5834 25.5834 24.4166 25.5834 24.25 26.2501C22.0833 26.2501 19.9167 26.2501 17.75 26.2501C19.4595 25.8881 21.4595 25.5548 23.75 25.2501Z"
        fill="#F1F1F1" />
    <path fill-rule="evenodd" clip-rule="evenodd"
        d="M17.75 26.75C17.75 26.5834 17.75 26.4166 17.75 26.25C19.9167 26.25 22.0833 26.25 24.25 26.25C23.0833 26.5834 21.9167 26.9166 20.75 27.25C19.8104 26.8293 18.8104 26.6626 17.75 26.75Z"
        fill="#6F6F6F" />
    <path fill-rule="evenodd" clip-rule="evenodd"
        d="M24.75 26.25C24.8358 26.7458 24.6691 27.0791 24.25 27.25C23.0833 27.25 21.9167 27.25 20.75 27.25C21.9167 26.9166 23.0833 26.5833 24.25 26.25C24.4166 25.5833 24.5834 25.5833 24.75 26.25Z"
        fill="#0C0C0C" />
    <path fill-rule="evenodd" clip-rule="evenodd"
        d="M17.75 26.7501C18.8104 26.6627 19.8104 26.8294 20.75 27.2501C21.9167 27.2501 23.0833 27.2501 24.25 27.2501C22.3137 28.2152 20.147 28.5485 17.75 28.2501C17.75 27.7501 17.75 27.2501 17.75 26.7501Z"
        fill="#F3F3F3" />
    <path fill-rule="evenodd" clip-rule="evenodd"
        d="M24.75 26.25C25.0834 26.25 25.4166 26.25 25.75 26.25C25.4642 26.9866 25.4642 27.82 25.75 28.75C23.1433 28.8711 20.4766 28.8711 17.75 28.75C17.75 28.5834 17.75 28.4166 17.75 28.25C20.147 28.5484 22.3137 28.2151 24.25 27.25C24.6691 27.0792 24.8358 26.7458 24.75 26.25Z"
        fill="#7B7B7B" />
    <path fill-rule="evenodd" clip-rule="evenodd"
        d="M17.25 29.25C19.4685 29.5566 21.6351 29.8899 23.75 30.25C21.353 30.5484 19.1863 30.2151 17.25 29.25Z"
        fill="#303030" />
    <path fill-rule="evenodd" clip-rule="evenodd"
        d="M27.25 28.75C27.5834 29.25 27.9166 29.75 28.25 30.25C28.25 30.75 28.25 31.25 28.25 31.75C27.9166 31.75 27.5834 31.75 27.25 31.75C27.0413 31.3892 26.7079 31.1392 26.25 31C26.7079 30.8608 27.0413 30.6108 27.25 30.25C27.25 29.75 27.25 29.25 27.25 28.75Z"
        fill="#1F1F1F" />
</svg>