<svg width="32" height="32" viewBox="0 0 32 32" fill="none" xmlns="http://www.w3.org/2000/svg">
    <g clip-path="url(#clip0_5420_65)">
        <rect width="32" height="32" fill="black" />
        <path
            d="M29.0936 0H16.346C16.9797 1.68919 17.6863 3.54585 18.3638 5.03117C19.6749 7.91445 25.7355 20.4159 26.9884 23.0953C27.0467 23.2118 27.0175 23.3065 26.85 23.3065C25.0653 23.3502 23.7687 22.7022 22.7926 21.1513C20.8768 18.1079 19.0849 15.159 17.4896 12.5524C16.6447 11.1691 16.0255 10.106 15.3699 9.32696C14.7216 8.55518 14.0879 8.1256 13.17 7.99454C12.5072 7.89261 11.8516 8.08191 11.3417 8.48237C10.2272 9.35609 8.85044 10.7031 7.97633 11.3875C5.5725 13.266 3.30708 11.6787 3.86797 11.089C5.48509 9.37793 7.82336 7.15722 8.5445 5.04573C8.95242 3.84437 8.916 2.55563 8.80674 0.014562H2.90644C1.30389 0.014562 0 1.32514 0 2.91968V29.0949C0 30.6967 1.31118 32 2.90644 32H29.0936C30.6961 32 32 30.6894 32 29.0949V2.90512C32 1.3033 30.6961 0 29.0936 0ZM6.44662 20.0664C7.10949 19.0107 11.2397 12.6835 12.7038 10.4482C12.9224 10.1133 13.0171 10.0187 13.272 10.0041C13.2939 10.0041 13.3157 10.0041 13.3449 10.0041C13.6217 10.0041 14.0296 10.1279 14.4448 10.3973C15.064 10.7977 15.8507 11.6569 16.0546 12.0865C16.142 12.2612 16.1785 12.3486 16.0255 12.5524C14.9037 14.0596 8.90143 22.1051 7.83064 23.423C7.69952 23.5904 7.50285 23.6487 7.30617 23.6268C6.51218 23.4521 6.00956 23.0007 5.85659 22.3527C5.68905 21.6464 5.9003 20.9474 6.44662 20.0664ZM29.0936 26.2262C29.079 27.777 27.7824 29.0949 26.1944 29.0949C26.1871 29.0949 5.74733 29.0803 5.74733 29.0803C4.19577 29.0658 2.90644 27.777 2.89916 26.2262V26.1679H29.0936V26.2262Z"
            fill="white" />
    </g>
    <defs>
        <clipPath id="clip0_5420_65">
            <rect width="32" height="32" fill="white" />
        </clipPath>
    </defs>
</svg>