<svg width="32" height="32" viewBox="0 0 32 32" fill="none" xmlns="http://www.w3.org/2000/svg">
    <g clip-path="url(#clip0_5377_45)">
        <path fill-rule="evenodd" clip-rule="evenodd"
            d="M-0.071167 -0.0712891C10.5955 -0.0712891 21.2622 -0.0712891 31.9288 -0.0712891C31.9288 10.5954 31.9288 21.262 31.9288 31.9287C21.2622 31.9287 10.5955 31.9287 -0.071167 31.9287C-0.071167 21.262 -0.071167 10.5954 -0.071167 -0.0712891Z"
            fill="#FEFEFE" />
        <path fill-rule="evenodd" clip-rule="evenodd"
            d="M9.59998 4.05332C13.8195 4.02962 18.0387 4.05332 22.2578 4.12443C24.002 4.68342 25.116 5.84491 25.6 7.60887C25.6948 11.5437 25.6948 15.4785 25.6 19.4133C25.2181 21.6442 23.9144 22.9953 21.6889 23.4667C19.6978 23.514 17.7066 23.5615 15.7155 23.6089C12.6041 25.0708 9.47521 26.4456 6.32887 27.7333C7.30688 26.275 8.30243 24.8291 9.31554 23.3955C8.51648 22.9127 7.78166 22.3438 7.11109 21.6889C6.66636 20.9893 6.38192 20.2308 6.25776 19.4133C6.16294 15.4785 6.16294 11.5437 6.25776 7.60887C6.76825 5.84246 7.88234 4.65728 9.59998 4.05332Z"
            fill="#0A2140" />
        <path fill-rule="evenodd" clip-rule="evenodd"
            d="M11.7333 7.46689C14.6255 7.4432 17.5173 7.46689 20.4088 7.538C21.2468 7.94937 21.8395 8.58937 22.1866 9.458C22.2815 12.1602 22.2815 14.8624 22.1866 17.5647C21.9221 18.7774 21.1872 19.5123 19.9822 19.7691C18.6073 19.8165 17.2326 19.864 15.8577 19.9113C13.8721 20.8244 11.881 21.6777 9.8844 22.4713C10.5532 21.6317 11.1695 20.7546 11.7333 19.8402C10.9198 19.3818 10.3272 18.7181 9.95551 17.8491C9.86069 15.0047 9.86069 12.1602 9.95551 9.31578C10.2902 8.43619 10.8828 7.81989 11.7333 7.46689Z"
            fill="#FCFBFA" />
        <path fill-rule="evenodd" clip-rule="evenodd"
            d="M13.1556 9.60019C15.1473 9.5765 17.1384 9.60021 19.1289 9.6713C19.431 9.83083 19.6917 10.0442 19.9111 10.3113C20.1431 12.289 20.1905 14.2802 20.0534 16.2846C19.8483 16.8215 19.4927 17.2244 18.9867 17.4935C17.9438 17.5409 16.9007 17.5884 15.8578 17.6357C14.6687 18.1613 13.4835 18.6354 12.3023 19.058C12.6165 18.548 12.9483 18.0502 13.2978 17.5646C12.8103 17.2564 12.4547 16.8298 12.2311 16.2846C12.1363 14.3884 12.1363 12.492 12.2311 10.5957C12.4721 10.1893 12.7802 9.85747 13.1556 9.60019Z"
            fill="#FCB51A" />
    </g>
    <defs>
        <clipPath id="clip0_5377_45">
            <rect width="32" height="32" fill="white" />
        </clipPath>
    </defs>
</svg>