<svg width="32" height="32" viewBox="0 0 32 32" fill="none" xmlns="http://www.w3.org/2000/svg">
    <g clip-path="url(#clip0_5495_45)">
        <path fill-rule="evenodd" clip-rule="evenodd"
            d="M-0.0712891 -0.0712891C10.5954 -0.0712891 21.262 -0.0712891 31.9287 -0.0712891C31.9287 10.5954 31.9287 21.262 31.9287 31.9287C21.262 31.9287 10.5954 31.9287 -0.0712891 31.9287C-0.0712891 21.262 -0.0712891 10.5954 -0.0712891 -0.0712891Z"
            fill="#FEFEFE" />
        <path fill-rule="evenodd" clip-rule="evenodd"
            d="M5.61816 3.19984C6.58886 3.10508 7.58441 3.05766 8.60483 3.05762C9.65254 3.05803 10.6481 3.15285 11.5915 3.34206C11.4967 3.34206 11.4019 3.34206 11.3071 3.34206C9.43595 3.20047 7.53966 3.15306 5.61816 3.19984Z"
            fill="#E08D93" />
        <path fill-rule="evenodd" clip-rule="evenodd"
            d="M26.8093 3.34206C24.8321 3.15406 22.841 3.15406 20.8359 3.34206C21.8032 3.15282 22.8224 3.05802 23.8937 3.05762C24.913 3.10502 25.9322 3.15244 26.9515 3.19984C26.9339 3.28613 26.8865 3.33353 26.8093 3.34206Z"
            fill="#DF8F92" />
        <path fill-rule="evenodd" clip-rule="evenodd"
            d="M26.8093 3.34217C26.1909 4.48446 25.5746 5.62224 24.9604 6.75551C25.15 6.23402 25.15 5.71255 24.9604 5.19106C25.1975 5.19106 25.4344 5.19106 25.6715 5.19106C25.6487 4.9494 25.6723 4.71236 25.7426 4.47995C26.0298 4.20303 26.2431 3.87117 26.3826 3.4844C24.6304 3.31858 22.8764 3.29487 21.1204 3.41329C21.043 3.51529 20.9482 3.5864 20.8359 3.62662C20.8359 3.5318 20.8359 3.43699 20.8359 3.34217C22.841 3.15417 24.8321 3.15417 26.8093 3.34217Z"
            fill="#C82531" />
        <path fill-rule="evenodd" clip-rule="evenodd"
            d="M5.61816 3.20004C7.53966 3.15326 9.43595 3.20067 11.3071 3.34226C9.55042 3.29499 7.79634 3.34241 6.04483 3.48449C6.26098 3.79198 6.4032 4.12383 6.4715 4.48004C6.61372 4.48004 6.75594 4.48004 6.89816 4.48004C7.06289 5.19788 7.25252 5.95641 7.46705 6.7556C6.81683 5.59768 6.20054 4.4125 5.61816 3.20004Z"
            fill="#CA2833" />
        <path fill-rule="evenodd" clip-rule="evenodd"
            d="M24.9604 6.75537C24.7007 7.46426 24.3689 8.12797 23.9648 8.74648C24.1112 8.06589 24.3008 7.40218 24.5337 6.75537C24.676 6.75537 24.8182 6.75537 24.9604 6.75537Z"
            fill="#D23F43" />
        <path fill-rule="evenodd" clip-rule="evenodd"
            d="M7.4668 6.75537C8.05681 7.26847 8.43607 7.93216 8.60457 8.74648C8.42991 8.63178 8.28769 8.48956 8.17791 8.31982C7.96843 7.78637 7.73139 7.26488 7.4668 6.75537Z"
            fill="#D1343E" />
        <path fill-rule="evenodd" clip-rule="evenodd"
            d="M8.60449 9.03125C9.36035 9.27143 9.64479 9.79292 9.45783 10.5957C9.15263 10.0913 8.86819 9.56985 8.60449 9.03125Z"
            fill="#D63A3D" />
        <path fill-rule="evenodd" clip-rule="evenodd"
            d="M8.17773 8.31982C8.28752 8.48957 8.42974 8.63179 8.6044 8.74649C8.6044 8.84131 8.6044 8.93612 8.6044 9.03094C8.8681 9.56953 9.15254 10.091 9.45773 10.5954C9.63877 10.9101 9.78099 11.242 9.8844 11.5909C9.69114 11.5189 9.54891 11.3767 9.45773 11.1643C9.12529 11.3791 9.03047 11.3317 9.17329 11.022C9.01029 10.8487 8.86807 10.6591 8.74662 10.4532C8.59228 9.72716 8.40266 9.01604 8.17773 8.31982Z"
            fill="#F7E6E4" />
        <path fill-rule="evenodd" clip-rule="evenodd"
            d="M23.8225 9.03125C23.4991 9.63052 23.2147 10.2468 22.9692 10.8801C22.6611 11.4135 22.3293 11.9349 21.9736 12.4446C22.2113 11.5426 22.5668 10.6892 23.0403 9.88458C23.2727 9.55222 23.5334 9.26778 23.8225 9.03125Z"
            fill="#C6383D" />
        <path fill-rule="evenodd" clip-rule="evenodd"
            d="M11.3071 3.34241C11.402 3.34241 11.4968 3.34241 11.5916 3.34241C11.562 3.85225 11.7516 4.23151 12.1605 4.48019C12.1373 4.81538 12.161 5.14724 12.2316 5.47574C12.7323 5.95298 13.0879 6.52187 13.2983 7.18241C13.3632 7.29583 13.4581 7.34325 13.5827 7.32463C13.6624 7.65186 13.7335 7.9837 13.796 8.32019C13.8914 8.42719 14.0099 8.47461 14.1516 8.46241C14.1948 8.89219 14.2659 9.31886 14.3649 9.74241C14.4123 9.69501 14.4598 9.64759 14.5071 9.60019C14.641 10.0858 14.9017 10.465 15.2894 10.738C15.4563 10.8821 15.5511 11.0718 15.5738 11.3069C15.6014 11.7093 15.6963 12.0885 15.8583 12.4446C16.0953 12.4446 16.3323 12.4446 16.5694 12.4446C16.5694 12.255 16.5694 12.0654 16.5694 11.8757C16.8193 11.7631 17.009 11.5735 17.1383 11.3069C17.6084 10.1768 18.1536 9.08645 18.7738 8.03574C18.8435 7.85182 18.8673 7.66218 18.8449 7.46685C19.0938 7.30196 19.236 7.06493 19.2716 6.75574C19.2595 6.3079 19.4017 5.92865 19.6983 5.61796C19.9696 5.47779 20.1118 5.24075 20.1249 4.90685C20.2829 4.4296 20.5199 4.00293 20.836 3.62685C20.9482 3.58663 21.0431 3.51552 21.1205 3.41352C22.8765 3.29511 24.6305 3.31881 26.3827 3.48463C26.2432 3.8714 26.0298 4.20327 25.7427 4.48019C25.6724 4.71259 25.6488 4.94963 25.6716 5.1913C25.4345 5.1913 25.1976 5.1913 24.9605 5.1913C25.1501 5.71278 25.1501 6.23426 24.9605 6.75574C24.8183 6.75574 24.676 6.75574 24.5338 6.75574C24.3009 7.40255 24.1113 8.06626 23.9649 8.74685C23.9894 8.88788 23.9419 8.9827 23.8227 9.0313C23.5336 9.26783 23.2729 9.55227 23.0405 9.88463C22.567 10.6893 22.2115 11.5426 21.9738 12.4446C21.9265 12.6343 21.8789 12.8239 21.8316 13.0135C21.7842 13.0135 21.7367 13.0135 21.6894 13.0135C21.2149 13.159 21.0016 13.4908 21.0494 14.0091C20.6529 14.281 20.4633 14.6603 20.4805 15.1469C19.9535 15.9626 19.5506 16.816 19.2716 17.7069C19.1294 17.7069 18.9871 17.7069 18.8449 17.7069C18.8449 17.8964 18.8449 18.0862 18.8449 18.2757C17.0902 18.2995 15.3362 18.2757 13.5827 18.2046C13.03 17.1223 12.5322 16.0082 12.0894 14.8624C12.0498 14.9927 11.9787 15.0874 11.876 15.1469C11.8982 14.7819 11.8508 14.4264 11.7338 14.0802C12.0194 13.578 12.1616 13.0328 12.1605 12.4446C12.0183 12.4446 11.876 12.4446 11.7338 12.4446C11.7338 12.7291 11.7338 13.0135 11.7338 13.298C10.9576 13.1776 10.5783 12.7035 10.596 11.8757C10.4538 11.8757 10.3116 11.8757 10.1694 11.8757C10.122 11.7335 10.0271 11.6387 9.88492 11.5913C9.78151 11.2423 9.63929 10.9105 9.45826 10.5957C9.64522 9.79297 9.36078 9.27148 8.60492 9.0313C8.60492 8.93648 8.60492 8.84167 8.60492 8.74685C8.43642 7.93253 8.05715 7.26884 7.46714 6.75574C7.25262 5.95655 7.06298 5.19802 6.89826 4.48019C6.75603 4.48019 6.61381 4.48019 6.47159 4.48019C6.40329 4.12398 6.26107 3.79213 6.04492 3.48463C7.79643 3.34255 9.55051 3.29513 11.3071 3.34241Z"
            fill="#ED1E26" />
        <path fill-rule="evenodd" clip-rule="evenodd"
            d="M18.8449 7.4668C18.8672 7.66212 18.8435 7.85176 18.7738 8.03569C18.1535 9.0864 17.6084 10.1768 17.1382 11.3068C17.0089 11.5734 16.8192 11.763 16.5693 11.8757C17.0801 10.7948 17.5778 9.70441 18.0627 8.60457C18.2915 8.19116 18.5522 7.81191 18.8449 7.4668Z"
            fill="#C84849" />
        <path fill-rule="evenodd" clip-rule="evenodd"
            d="M14.1514 8.4624C14.5567 9.20223 14.936 9.96074 15.2891 10.738C14.9014 10.465 14.6408 10.0858 14.5069 9.60018C14.4596 9.64758 14.4121 9.695 14.3647 9.7424C14.2657 9.31885 14.1946 8.89218 14.1514 8.4624Z"
            fill="#D4383B" />
        <path fill-rule="evenodd" clip-rule="evenodd"
            d="M13.582 7.32422C13.8504 7.64971 14.0401 8.02897 14.1509 8.462C14.0093 8.4742 13.8908 8.42678 13.7954 8.31977C13.7328 7.98329 13.6617 7.65144 13.582 7.32422Z"
            fill="#D35453" />
        <path fill-rule="evenodd" clip-rule="evenodd"
            d="M19.2714 6.75537C19.2358 7.06456 19.0936 7.30159 18.8447 7.46648C18.8578 7.13259 19 6.89555 19.2714 6.75537Z"
            fill="#C84045" />
        <path fill-rule="evenodd" clip-rule="evenodd"
            d="M12.16 4.47998C12.6592 5.40442 13.1333 6.35258 13.5822 7.32442C13.4576 7.34304 13.3627 7.29562 13.2978 7.1822C13.0874 6.52167 12.7318 5.95278 12.2311 5.47554C12.1605 5.14703 12.1368 4.81517 12.16 4.47998Z"
            fill="#D0474D" />
        <path fill-rule="evenodd" clip-rule="evenodd"
            d="M19.9827 4.90674C20.03 4.90674 20.0775 4.90674 20.1249 4.90674C20.1118 5.24063 19.9696 5.47768 19.6982 5.61785C19.7541 5.36415 19.8489 5.12711 19.9827 4.90674Z"
            fill="#CE525C" />
        <path fill-rule="evenodd" clip-rule="evenodd"
            d="M11.5909 3.34229C11.8066 3.70285 11.9963 4.0821 12.1598 4.48006C11.7509 4.23139 11.5613 3.85212 11.5909 3.34229Z"
            fill="#C95159" />
        <path fill-rule="evenodd" clip-rule="evenodd"
            d="M20.8351 3.34229C20.8351 3.4371 20.8351 3.53191 20.8351 3.62673C20.5189 4.00281 20.282 4.42947 20.124 4.90673C20.0766 4.90673 20.0291 4.90673 19.9817 4.90673C19.959 4.20105 20.2434 3.67957 20.8351 3.34229Z"
            fill="#F9D4D3" />
        <path fill-rule="evenodd" clip-rule="evenodd"
            d="M15.5732 11.3066C15.7735 11.5923 15.9868 11.8768 16.2132 12.16C16.357 12.081 16.4755 11.9861 16.5688 11.8755C16.5688 12.0652 16.5688 12.2548 16.5688 12.4444C16.3317 12.4444 16.0948 12.4444 15.8577 12.4444C15.6957 12.0883 15.6008 11.7091 15.5732 11.3066Z"
            fill="#D34F55" />
        <path fill-rule="evenodd" clip-rule="evenodd"
            d="M22.9688 10.8799C22.992 11.2151 22.9684 11.5469 22.8977 11.8754C22.8029 11.6858 22.7081 11.6858 22.6133 11.8754C22.3843 12.1736 22.2183 12.5055 22.1155 12.871C22.0184 12.9226 21.9235 12.97 21.8311 13.0132C21.8784 12.8236 21.9259 12.634 21.9733 12.4443C22.329 11.9347 22.6608 11.4132 22.9688 10.8799Z"
            fill="#F8D3D2" />
        <path fill-rule="evenodd" clip-rule="evenodd"
            d="M9.8845 11.5913C10.0267 11.6387 10.1215 11.7335 10.1689 11.8758C10.2164 12.0654 10.2638 12.255 10.3112 12.4446C9.95911 12.2758 9.81689 11.9913 9.8845 11.5913Z"
            fill="#EEB8B3" />
        <path fill-rule="evenodd" clip-rule="evenodd"
            d="M10.1689 11.8755C10.3112 11.8755 10.4534 11.8755 10.5956 11.8755C10.5779 12.7033 10.9572 13.1773 11.7334 13.2977C11.7334 13.0133 11.7334 12.7288 11.7334 12.4444C11.8756 12.4444 12.0178 12.4444 12.1601 12.4444C12.1612 13.0326 12.019 13.5778 11.7334 14.0799C11.8503 14.4261 11.8977 14.7817 11.8756 15.1466C11.3202 14.2736 10.7987 13.373 10.3112 12.4444C10.2638 12.2548 10.2163 12.0651 10.1689 11.8755Z"
            fill="#E0272F" />
        <path fill-rule="evenodd" clip-rule="evenodd"
            d="M21.6893 13.0132C20.9895 14.65 20.1837 16.2145 19.2715 17.7065C19.5505 16.8156 19.9534 15.9623 20.4804 15.1465C20.4632 14.66 20.6527 14.2807 21.0493 14.0087C21.0015 13.4905 21.2148 13.1586 21.6893 13.0132Z"
            fill="#C9383D" />
        <path fill-rule="evenodd" clip-rule="evenodd"
            d="M12.4441 16.5688C12.6441 16.6361 12.739 16.7783 12.7286 16.9955C12.5286 16.9282 12.4337 16.786 12.4441 16.5688Z"
            fill="#D87E80" />
        <path fill-rule="evenodd" clip-rule="evenodd"
            d="M19.2715 17.7067C19.1282 17.9975 18.986 18.2819 18.8449 18.5601C17.0901 18.5838 15.3361 18.5601 13.5826 18.489C13.3836 18.0993 13.1466 17.7437 12.8715 17.4223C12.8634 17.2646 12.816 17.1224 12.7293 16.9956C12.7397 16.7785 12.6449 16.6362 12.4449 16.569C12.1782 16.1298 11.9885 15.6556 11.876 15.1467C11.9786 15.0873 12.0497 14.9926 12.0893 14.8623C12.5321 16.008 13.0299 17.1222 13.5826 18.2045C15.3361 18.2756 17.0901 18.2994 18.8449 18.2756C18.8449 18.0861 18.8449 17.8963 18.8449 17.7067C18.9871 17.7067 19.1293 17.7067 19.2715 17.7067Z"
            fill="#D42731" />
        <path fill-rule="evenodd" clip-rule="evenodd"
            d="M12.8714 17.4224C13.1465 17.7438 13.3836 18.0993 13.5826 18.489C15.336 18.5601 17.09 18.5839 18.8448 18.5601C17.068 18.7251 15.2665 18.7489 13.4403 18.6313C13.0418 18.3319 12.8522 17.9288 12.8714 17.4224Z"
            fill="#F1A1A8" />
        <path fill-rule="evenodd" clip-rule="evenodd"
            d="M18.8443 23.3955C18.8443 25.1495 18.8443 26.9037 18.8443 28.6577C17.0902 28.6577 15.3361 28.6577 13.582 28.6577C13.582 26.9037 13.582 25.1495 13.582 23.3955C15.3361 23.3955 17.0902 23.3955 18.8443 23.3955Z"
            fill="#77767C" />
        <path fill-rule="evenodd" clip-rule="evenodd"
            d="M18.8443 23.3955C18.9858 25.1717 19.0333 26.9733 18.9865 28.8C17.1598 28.8467 15.3582 28.7992 13.582 28.6577C15.3361 28.6577 17.0902 28.6577 18.8443 28.6577C18.8443 26.9037 18.8443 25.1495 18.8443 23.3955Z"
            fill="#ADACAF" />
    </g>
    <defs>
        <clipPath id="clip0_5495_45">
            <rect width="32" height="32" fill="white" />
        </clipPath>
    </defs>
</svg>