<svg width="32" height="32" viewBox="0 0 32 32" fill="none" xmlns="http://www.w3.org/2000/svg">
    <g clip-path="url(#clip0_5104_180)">
        <path
            d="M13.7142 0.523438C15.2819 0.523438 16.8497 0.523438 18.4649 0.523438C18.4649 4.86829 18.4649 9.21314 18.4649 13.6896C22.9315 13.6896 27.398 13.6896 31.9999 13.6896C31.9999 15.2147 31.9999 16.7397 31.9999 18.3109C28.687 18.3397 25.374 18.3685 21.9607 18.3981C24.2679 20.6425 26.5752 22.8868 28.9523 25.1992C28.7996 25.4963 28.705 25.6356 28.4729 25.8597C28.4119 25.919 28.3509 25.9783 28.2881 26.0395C28.1895 26.134 28.1895 26.134 28.0889 26.2305C27.9878 26.3285 27.9878 26.3285 27.8846 26.4284C27.6695 26.6367 27.4538 26.8444 27.238 27.052C27.092 27.1932 26.946 27.3345 26.8 27.4758C26.4423 27.8218 26.084 28.1674 25.7254 28.5125C25.4582 28.3957 25.2716 28.2671 25.0651 28.0656C24.9786 27.9818 24.9786 27.9818 24.8903 27.8963C24.8278 27.8348 24.7652 27.7734 24.7008 27.71C24.6333 27.6443 24.5657 27.5786 24.4961 27.5109C24.2775 27.2982 24.0596 27.0849 23.8417 26.8715C23.7068 26.7401 23.5719 26.6087 23.4369 26.4773C22.9369 25.99 22.4377 25.5019 21.9383 25.0139C20.8217 23.9241 19.705 22.8343 18.5545 21.7114C18.5102 26.5455 18.5102 26.5455 18.4649 31.4771C16.8972 31.4771 15.3295 31.4771 13.7142 31.4771C13.6846 28.2544 13.6551 25.0318 13.6246 21.7114C11.3386 23.9524 11.3386 23.9524 9.05499 26.1958C8.6128 26.6279 8.6128 26.6279 8.40571 26.8297C8.26085 26.9713 8.11644 27.1133 7.97237 27.2557C7.75444 27.4708 7.53515 27.6846 7.31549 27.8981C7.25128 27.9621 7.18707 28.0262 7.12092 28.0921C7.06172 28.1491 7.00252 28.2061 6.94153 28.2648C6.8903 28.3151 6.83907 28.3653 6.78629 28.4171C6.63298 28.5125 6.63298 28.5125 6.44456 28.4923C6.229 28.4075 6.10925 28.2961 5.94574 28.1353C5.88296 28.0742 5.82018 28.0131 5.75549 27.9502C5.68872 27.8839 5.62195 27.8176 5.55315 27.7493C5.48402 27.6816 5.41489 27.614 5.34367 27.5444C5.12294 27.3282 4.90317 27.1111 4.6834 26.894C4.53395 26.7473 4.38444 26.6007 4.23487 26.4541C3.86826 26.0946 3.50249 25.7343 3.13718 25.3736C3.51807 24.9311 3.91621 24.5165 4.33672 24.1096C4.40164 24.0465 4.46657 23.9833 4.53346 23.9182C4.74173 23.7157 4.9503 23.5135 5.15889 23.3112C5.2883 23.1855 5.41768 23.0597 5.54704 22.9339C6.02456 22.4699 6.50246 22.0062 6.98032 21.5425C8.04889 20.5049 9.11746 19.4672 10.2184 18.3981C6.90547 18.3693 3.59253 18.3405 0.179199 18.3109C0.179199 16.7859 0.179199 15.2609 0.179199 13.6896C3.49214 13.6609 6.80508 13.6321 10.2184 13.6025C7.88161 11.3293 5.5448 9.05619 3.13718 6.71417C3.74314 6.02648 3.74314 6.02648 3.97721 5.79302C4.02985 5.74042 4.08249 5.68781 4.13673 5.63361C4.37234 5.40048 4.60817 5.16757 4.84477 4.93539C4.96955 4.81256 5.09385 4.68925 5.21767 4.5655C5.39729 4.38603 5.57832 4.20801 5.75973 4.03025C5.81501 3.9745 5.8703 3.91874 5.92725 3.8613C5.97933 3.81089 6.0314 3.76049 6.08506 3.70855C6.13041 3.66373 6.17576 3.61891 6.22249 3.57273C6.36407 3.48802 6.36407 3.48802 6.53312 3.50973C6.7553 3.5865 6.86185 3.6784 7.02776 3.84058C7.11543 3.92532 7.11543 3.92532 7.20487 4.01177C7.26824 4.07436 7.33161 4.13694 7.3969 4.20142C7.46536 4.26798 7.53381 4.33454 7.60434 4.40312C7.82601 4.61894 8.04673 4.83564 8.26743 5.05239C8.40406 5.18568 8.54075 5.3189 8.67749 5.45207C9.1844 5.94654 9.69013 6.44214 10.196 6.93761C11.3274 8.0436 12.4589 9.1496 13.6246 10.2891C13.6542 7.06643 13.6837 3.84376 13.7142 0.523438Z"
            fill="#AC71FD" />
        <path
            d="M20.2578 0.523438C24.1328 0.523438 28.0077 0.523438 32.0001 0.523438C32.0001 4.26404 32.0001 8.00464 32.0001 11.8586C30.4324 11.8586 28.8646 11.8586 27.2494 11.8586C27.2494 9.643 27.2494 7.42742 27.2494 5.14469C24.9422 5.14469 22.635 5.14469 20.2578 5.14469C20.2578 3.61968 20.2578 2.09466 20.2578 0.523438Z"
            fill="#FEFEFE" />
    </g>
    <defs>
        <clipPath id="clip0_5104_180">
            <rect width="32" height="32" fill="white" />
        </clipPath>
    </defs>
</svg>