<svg width="32" height="32" viewBox="0 0 32 32" fill="none" xmlns="http://www.w3.org/2000/svg">
<g clip-path="url(#clip0_5251_135)">
<path fill-rule="evenodd" clip-rule="evenodd" d="M17.3601 0.0800781C20.023 0.28328 22.4765 1.10995 24.7201 2.56008C26.9144 3.87499 28.3544 5.76832 29.0401 8.24008C27.7009 7.62833 26.3142 7.46833 24.8801 7.76008C24.4472 7.82203 24.0739 7.98203 23.7601 8.24008C23.3285 8.30529 22.9552 8.49197 22.6401 8.80008C22.1773 9.18269 21.8038 9.63601 21.5201 10.1601C20.9417 10.7295 20.5683 11.4229 20.4001 12.2401C20.2152 12.6527 20.0552 13.0794 19.9201 13.5201C19.8669 13.5201 19.8134 13.5201 19.7601 13.5201C18.8947 11.8421 18.068 10.1355 17.2801 8.40008C15.9944 6.15689 14.0744 4.82357 11.5201 4.40008C11.2643 4.49139 11.0776 4.65139 10.9601 4.88008C10.9362 4.71176 10.9629 4.55176 11.0401 4.40008C11.3965 4.16733 11.6365 3.84733 11.7601 3.44008C13.0595 1.37699 14.9261 0.256985 17.3601 0.0800781Z" fill="#841717"/>
<path fill-rule="evenodd" clip-rule="evenodd" d="M13.6801 -0.0800781C14.9068 -0.0800781 16.1334 -0.0800781 17.3601 -0.0800781C17.3601 -0.0267448 17.3601 0.0265886 17.3601 0.0799219C14.9261 0.256829 13.0594 1.37683 11.7601 3.43992C11.7399 3.16795 11.6333 2.92795 11.4401 2.71992C11.5122 2.51427 11.6188 2.3276 11.7601 2.15992C11.5127 1.97048 11.2461 1.81048 10.9601 1.67992C11.0441 1.56914 11.1508 1.48914 11.2801 1.43992C10.6118 1.08022 10.0252 1.18689 9.5201 1.75992C8.84746 1.86896 8.20746 2.05562 7.6001 2.31992C8.47935 1.69325 9.43935 1.18658 10.4801 0.799922C11.5512 0.454402 12.6179 0.161067 13.6801 -0.0800781Z" fill="#B92D2E"/>
<path fill-rule="evenodd" clip-rule="evenodd" d="M11.76 3.43952C11.6364 3.84676 11.3964 4.16676 11.04 4.39952C10.9628 4.5512 10.9361 4.7112 10.96 4.87952C10.377 6.62662 9.89698 8.38662 9.52004 10.1595C9.29178 10.8212 9.10511 11.5146 8.96004 12.2395C8.89882 12.3285 8.81882 12.3818 8.72004 12.3995C8.48356 11.9406 8.27023 11.4606 8.08004 10.9595C8.41386 9.83364 8.33386 8.71364 7.84004 7.59952C7.78671 6.74619 7.73337 5.89284 7.68004 5.03952C7.41721 4.64323 7.12388 4.26988 6.80004 3.91952C6.99775 3.78244 7.21108 3.67577 7.44004 3.59952C7.58175 3.46752 7.63508 3.30752 7.60004 3.11952C7.2634 3.07169 6.9434 3.12502 6.64004 3.27952C6.45756 3.4276 6.45756 3.56092 6.64004 3.67952C6.4722 3.75827 6.3122 3.73161 6.16004 3.59952C6.03991 3.73968 5.95991 3.89968 5.92004 4.07952C5.8538 4.00633 5.7738 3.953 5.68004 3.91952C5.50047 4.10035 5.28713 4.20702 5.04004 4.23952C5.7845 3.44208 6.63783 2.80208 7.60004 2.31952C8.2074 2.05521 8.8474 1.86856 9.52004 1.75952C10.0251 1.18649 10.6118 1.07982 11.28 1.43952C11.1507 1.48874 11.0441 1.56874 10.96 1.67952C11.246 1.81008 11.5127 1.97008 11.76 2.15952C11.6188 2.3272 11.5121 2.51387 11.44 2.71952C11.6332 2.92755 11.7399 3.16755 11.76 3.43952Z" fill="#C92F30"/>
<path fill-rule="evenodd" clip-rule="evenodd" d="M8.72012 12.4005C8.52498 12.6856 8.41833 13.0056 8.40012 13.3605C8.24012 13.3605 8.08012 13.3605 7.92012 13.3605C7.93412 13.8562 7.85412 13.9095 7.68012 13.5205C7.60116 13.7819 7.57449 14.0486 7.60012 14.3205C7.38679 14.3205 7.17345 14.3205 6.96012 14.3205C6.96012 14.4805 6.96012 14.6405 6.96012 14.8005C6.56826 14.7113 6.19492 14.7113 5.84012 14.8005C6.07908 14.9031 6.23908 15.0631 6.32012 15.2805C5.85578 15.4529 5.37578 15.5596 4.88012 15.6005C4.34413 15.6269 3.81081 15.6002 3.28012 15.5205C3.19116 15.4593 3.13783 15.3793 3.12012 15.2805C3.55311 15.2925 3.97977 15.3458 4.40012 15.4405C4.3034 13.8709 4.41007 12.3242 4.72012 10.8005C4.6845 9.73207 4.63116 8.6654 4.56012 7.60047C3.67858 7.7335 3.46525 7.46683 3.92012 6.80047C4.21066 7.01086 4.47732 7.25086 4.72012 7.52047C4.85319 7.63051 4.95986 7.60383 5.04012 7.44047C4.89885 7.27279 4.79218 7.08612 4.72012 6.88047C5.13866 6.32759 5.13866 5.76759 4.72012 5.20047C4.57343 5.10012 4.41343 5.04678 4.24012 5.04047C4.45345 4.72047 4.72012 4.4538 5.04012 4.24047C5.28721 4.20798 5.50055 4.10131 5.68012 3.92047C5.77388 3.95396 5.85388 4.00729 5.92012 4.08047C5.95999 3.90063 6.03999 3.74063 6.16012 3.60047C6.31228 3.73257 6.47228 3.75923 6.64012 3.68047C6.45764 3.56188 6.45764 3.42855 6.64012 3.28047C6.94348 3.12598 7.26348 3.07265 7.60012 3.12047C7.63516 3.30847 7.58183 3.46847 7.44012 3.60047C7.21116 3.67673 6.99783 3.7834 6.80012 3.92047C7.12396 4.27084 7.41729 4.64419 7.68012 5.04047C7.73345 5.8938 7.78679 6.74715 7.84012 7.60047C8.33394 8.7146 8.41394 9.8346 8.08012 10.9605C8.27031 11.4616 8.48364 11.9416 8.72012 12.4005Z" fill="#D73534"/>
<path fill-rule="evenodd" clip-rule="evenodd" d="M4.23976 5.04004C4.41307 5.04634 4.57307 5.09969 4.71976 5.20004C5.13831 5.76716 5.13831 6.32716 4.71976 6.88004C4.79183 7.08569 4.8985 7.27236 5.03976 7.44004C4.95951 7.6034 4.85283 7.63007 4.71976 7.52004C4.47696 7.25042 4.21031 7.01042 3.91976 6.80004C3.4649 7.46639 3.67823 7.73306 4.55976 7.60004C4.6308 8.66497 4.68415 9.73164 4.71976 10.8C4.40971 12.3238 4.30304 13.8705 4.39976 15.44C3.97941 15.3454 3.55275 15.2921 3.11976 15.28C2.90002 15.3051 2.68667 15.2784 2.47976 15.2C1.89295 14.5902 1.41294 13.9236 1.03976 13.2C0.882803 12.4594 0.856136 11.7127 0.959762 10.96C1.48183 8.65596 2.57517 6.68263 4.23976 5.04004Z" fill="#E43D3A"/>
<path fill-rule="evenodd" clip-rule="evenodd" d="M24.72 24.8797C24.3274 23.847 23.7407 22.9405 22.96 22.1597C23.288 22.2334 23.608 22.3401 23.92 22.4797C24.0952 21.7177 23.7752 21.3445 22.96 21.3597C22.96 21.1997 22.96 21.0397 22.96 20.8797C23.3371 20.8536 23.7104 20.8801 24.08 20.9597C24.3733 21.2529 24.6667 21.5464 24.96 21.8397C24.8992 21.2913 24.6592 20.8113 24.24 20.3997C24.0267 16.8797 24.0267 13.3597 24.24 9.83965C24.3693 9.79044 24.476 9.71044 24.56 9.59965C24.2186 9.57928 23.8719 9.60594 23.52 9.67965C23.1155 9.50927 22.7423 9.40261 22.4 9.35965C22.12 9.66749 21.8267 9.93416 21.52 10.1597C21.8037 9.63559 22.1771 9.18226 22.64 8.79965C22.9551 8.49154 23.3283 8.30487 23.76 8.23965C24.3359 8.10463 24.9226 8.05128 25.52 8.07965C25.5637 8.39181 25.4571 8.63181 25.2 8.79965C25.48 9.08032 25.5867 9.42698 25.52 9.83965C25.1752 9.81917 24.8552 9.89917 24.56 10.0797C24.7117 10.1569 24.8717 10.1836 25.04 10.1597C25.04 11.013 25.04 11.8663 25.04 12.7197C25.2 12.7197 25.36 12.7197 25.52 12.7197C25.52 14.4263 25.52 16.1329 25.52 17.8397C25.36 17.8397 25.2 17.8397 25.04 17.8397C25.0891 18.7345 25.0357 19.6145 24.88 20.4797C25.0093 20.7526 25.2226 20.8859 25.52 20.8797C25.5466 21.8411 25.5199 22.8011 25.44 23.7597C24.9717 24.3865 24.9984 24.9998 25.52 25.5997C25.3519 25.9584 25.1919 26.3051 25.04 26.6397C25.0147 26.1249 24.988 25.5917 24.96 25.0397C24.8987 24.9507 24.8187 24.8974 24.72 24.8797Z" fill="#D13333"/>
<path fill-rule="evenodd" clip-rule="evenodd" d="M22.9599 22.1604C21.9799 21.1284 21.1266 20.0084 20.3999 18.8004C20.8887 18.3794 21.1287 18.5394 21.1199 19.2804C21.1732 19.2271 21.2266 19.1736 21.2799 19.1204C21.6364 19.3431 21.8229 19.6631 21.8399 20.0804C21.9999 20.0804 22.1599 20.0804 22.3199 20.0804C22.1658 19.5752 21.8991 19.122 21.5199 18.7204C21.5407 18.5509 21.6207 18.4176 21.7599 18.3204C21.8399 16.4012 21.8666 14.4811 21.8399 12.5604C21.6111 12.5477 21.3977 12.601 21.1999 12.7204C21.0061 12.5965 21.0061 12.4632 21.1999 12.3204C20.9385 12.2414 20.6717 12.2147 20.3999 12.2404C20.5681 11.4232 20.9415 10.7298 21.5199 10.1604C21.8266 9.93486 22.1199 9.66819 22.3999 9.36035C22.7421 9.40331 23.1154 9.50997 23.5199 9.68035C23.8717 9.60664 24.2185 9.57998 24.5599 9.60035C24.4759 9.71114 24.3692 9.79114 24.2399 9.84035C24.0266 13.3604 24.0266 16.8804 24.2399 20.4004C24.6591 20.812 24.8991 21.292 24.9599 21.8404C24.6666 21.5471 24.3732 21.2536 24.0799 20.9604C23.7103 20.8808 23.337 20.8543 22.9599 20.8804C22.9599 21.0404 22.9599 21.2004 22.9599 21.3604C23.7751 21.3452 24.0951 21.7184 23.9199 22.4804C23.6079 22.3408 23.2879 22.2341 22.9599 22.1604Z" fill="#DC3836"/>
<path fill-rule="evenodd" clip-rule="evenodd" d="M24.8798 7.75988C25.4689 7.73343 26.0554 7.7601 26.6398 7.83988C27.0634 8.16781 27.5434 8.35448 28.0798 8.39988C28.1142 8.76376 28.2209 9.11044 28.3998 9.43988C28.1946 11.3202 28.0881 13.2136 28.0798 15.1199C28.0897 17.0511 28.1962 18.9711 28.3998 20.8799C28.1378 21.446 28.0578 22.0325 28.1598 22.6399C28.4962 22.3514 28.6295 21.9781 28.5598 21.5199C28.7713 21.5471 28.958 21.4938 29.1198 21.3599C29.1465 21.4666 29.173 21.5732 29.1998 21.6799C28.9686 21.9644 28.8086 22.2844 28.7198 22.6399C28.7868 22.8274 28.8934 22.9874 29.0398 23.1199C28.9598 23.1732 28.8798 23.2266 28.7998 23.2799C28.5918 23.0868 28.3518 22.98 28.0798 22.9599C28.0546 23.1796 28.0814 23.393 28.1598 23.5999C28.3447 23.361 28.4782 23.3877 28.5598 23.6799C28.3014 24.5735 28.1414 25.4535 28.0798 26.3199C26.887 27.8324 25.447 29.0591 23.7598 29.9999C24.0281 29.3799 24.2681 28.7399 24.4798 28.0799C24.6647 27.453 24.7447 26.813 24.7198 26.1599C24.7198 25.7332 24.7198 25.3066 24.7198 24.8799C24.8185 24.8976 24.8985 24.9509 24.9598 25.0399C24.9878 25.5919 25.0145 26.1252 25.0398 26.6399C25.1916 26.3053 25.3516 25.9586 25.5198 25.5999C24.9982 25 24.9714 24.3868 25.4398 23.7599C25.5196 22.8013 25.5463 21.8413 25.5198 20.8799C25.2223 20.8861 25.009 20.7528 24.8798 20.4799C25.0354 19.6148 25.0889 18.7348 25.0398 17.8399C25.1998 17.8399 25.3598 17.8399 25.5198 17.8399C25.5198 16.1332 25.5198 14.4265 25.5198 12.7199C25.3598 12.7199 25.1998 12.7199 25.0398 12.7199C25.0398 11.8665 25.0398 11.0132 25.0398 10.1599C24.8714 10.1838 24.7114 10.1571 24.5598 10.0799C24.855 9.8994 25.175 9.8194 25.5198 9.83988C25.5865 9.4272 25.4798 9.08055 25.1998 8.79988C25.4569 8.63204 25.5634 8.39204 25.5198 8.07988C24.9223 8.05151 24.3356 8.10485 23.7598 8.23988C24.0735 7.98183 24.4468 7.82183 24.8798 7.75988Z" fill="#C62E30"/>
<path fill-rule="evenodd" clip-rule="evenodd" d="M24.8799 7.76045C26.314 7.46871 27.7007 7.62871 29.0399 8.24045C29.7973 8.78491 30.384 9.47824 30.7999 10.3205C31.1429 11.3153 31.3564 12.3553 31.4399 13.4405C31.4108 14.1216 31.304 14.7883 31.1199 15.4405C31.2621 16.0285 31.2888 16.6685 31.1999 17.3605C31.0536 17.1758 30.9204 17.2025 30.7999 17.4405C30.873 17.5067 30.9264 17.5867 30.9599 17.6805C30.7628 18.1285 30.656 18.6085 30.6399 19.1205C30.6666 19.5472 30.6932 19.9737 30.7199 20.4005C30.7597 20.2206 30.8397 20.0606 30.9599 19.9205C31.0132 20.0005 31.0666 20.0805 31.1199 20.1605C30.8687 20.7501 30.7087 21.3633 30.6399 22.0005C30.0711 23.6197 29.2176 25.0597 28.0799 26.3205C28.1415 25.4541 28.3015 24.5741 28.5599 23.6805C28.4783 23.3883 28.3448 23.3616 28.1599 23.6005C28.0815 23.3936 28.0548 23.1801 28.0799 22.9605C28.3519 22.9806 28.5919 23.0873 28.7999 23.2805C28.8799 23.2272 28.9599 23.1737 29.0399 23.1205C28.8935 22.988 28.7869 22.828 28.7199 22.6405C28.8087 22.2849 28.9687 21.9649 29.1999 21.6805C29.1732 21.5737 29.1466 21.4672 29.1199 21.3605C28.9581 21.4944 28.7714 21.5477 28.5599 21.5205C28.6296 21.9787 28.4964 22.352 28.1599 22.6405C28.058 22.0331 28.138 21.4465 28.3999 20.8805C28.1964 18.9717 28.0898 17.0517 28.0799 15.1205C28.0882 13.2141 28.1948 11.3208 28.3999 9.44045C28.221 9.11101 28.1143 8.76434 28.0799 8.40045C27.5436 8.35506 27.0636 8.16839 26.6399 7.84045C26.0556 7.76067 25.469 7.734 24.8799 7.76045Z" fill="#B52629"/>
<path fill-rule="evenodd" clip-rule="evenodd" d="M20.4001 12.2399C20.672 12.2143 20.9387 12.2409 21.2001 12.3199C21.0064 12.4627 21.0064 12.5961 21.2001 12.7199C21.3979 12.6006 21.6113 12.5472 21.8401 12.5599C21.8668 14.4806 21.8401 16.4007 21.7601 18.3199C21.6209 18.4172 21.5409 18.5504 21.5201 18.7199C21.8993 19.1215 22.166 19.5748 22.3201 20.0799C22.1601 20.0799 22.0001 20.0799 21.8401 20.0799C21.8232 19.6626 21.6366 19.3426 21.2801 19.1199C21.2268 19.1732 21.1734 19.2266 21.1201 19.2799C21.1289 18.5389 20.8889 18.3789 20.4001 18.7999C20.4001 18.6399 20.4001 18.4799 20.4001 18.3199C19.9928 16.7529 19.8328 15.1528 19.9201 13.5199C20.0552 13.0792 20.2152 12.6525 20.4001 12.2399Z" fill="#E73C39"/>
<path fill-rule="evenodd" clip-rule="evenodd" d="M9.51984 10.1602C9.48053 11.1707 9.24053 12.1307 8.79984 13.0402C8.24924 14.0977 7.42256 14.8443 6.31984 15.2802C6.2388 15.0627 6.0788 14.9027 5.83984 14.8002C6.19464 14.711 6.56799 14.711 6.95984 14.8002C6.95984 14.6402 6.95984 14.4802 6.95984 14.3202C7.17317 14.3202 7.38652 14.3202 7.59984 14.3202C7.57421 14.0483 7.60088 13.7816 7.67984 13.5202C7.85384 13.9092 7.93384 13.8559 7.91984 13.3602C8.07984 13.3602 8.23984 13.3602 8.39984 13.3602C8.41805 13.0053 8.52471 12.6853 8.71984 12.4002C8.81863 12.3824 8.89863 12.3291 8.95984 12.2402C9.10492 11.5152 9.29159 10.8219 9.51984 10.1602Z" fill="#CA4344"/>
<path fill-rule="evenodd" clip-rule="evenodd" d="M1.03992 13.2002C1.4131 13.9237 1.89311 14.5904 2.47992 15.2002C2.68683 15.2786 2.90018 15.3053 3.11992 15.2802C3.13763 15.379 3.19096 15.459 3.27992 15.5202C3.81061 15.5999 4.34394 15.6266 4.87992 15.6002C4.83215 16.177 4.64547 16.7104 4.31992 17.2002C3.83136 17.7421 3.40469 18.3287 3.03992 18.9602C2.96096 19.2216 2.93429 19.4884 2.95992 19.7602C2.79992 19.6535 2.63992 19.5469 2.47992 19.4402C1.38347 18.208 0.530136 16.8215 -0.0800781 15.2802C-0.0800781 15.0135 -0.0800781 14.7469 -0.0800781 14.4802C0.173928 13.9589 0.547263 13.5322 1.03992 13.2002Z" fill="#861818"/>
<path fill-rule="evenodd" clip-rule="evenodd" d="M19.76 13.5195C19.8132 13.5195 19.8667 13.5195 19.92 13.5195C19.8326 15.1524 19.9926 16.7525 20.4 18.3195C20.1249 17.7821 19.9382 17.1955 19.84 16.5595C19.76 15.5476 19.7334 14.5343 19.76 13.5195Z" fill="#DC5D5B"/>
<path fill-rule="evenodd" clip-rule="evenodd" d="M30.8001 10.3203C31.3985 11.5946 31.772 12.9279 31.9201 14.3203C31.9201 15.4936 31.9201 16.667 31.9201 17.8403C31.6425 19.2699 31.216 20.6566 30.6401 22.0003C30.7089 21.3632 30.8689 20.7499 31.1201 20.1603C31.0669 20.0803 31.0134 20.0003 30.9601 19.9203C30.84 20.0605 30.76 20.2205 30.7201 20.4003C30.6934 19.9736 30.6669 19.547 30.6401 19.1203C30.6563 18.6083 30.763 18.1283 30.9601 17.6803C30.9267 17.5866 30.8733 17.5066 30.8001 17.4403C30.9206 17.2024 31.0539 17.1757 31.2001 17.3603C31.2891 16.6683 31.2624 16.0283 31.1201 15.4403C31.3043 14.7882 31.411 14.1215 31.4401 13.4403C31.3566 12.3552 31.1432 11.3152 30.8001 10.3203Z" fill="#AA2C2E"/>
<path fill-rule="evenodd" clip-rule="evenodd" d="M-0.0800781 15.2803C0.530136 16.8216 1.38347 18.2081 2.47992 19.4403C2.48685 19.8544 2.64685 20.2009 2.95992 20.4803C2.81333 20.5401 2.67999 20.6201 2.55992 20.7203C2.47426 20.4369 2.34093 20.3836 2.15992 20.5603C2.46315 20.939 2.54315 21.3657 2.39992 21.8403C2.28688 21.5873 2.15354 21.3473 1.99992 21.1203C1.84256 21.0257 1.73591 21.0792 1.67992 21.2803C1.87765 21.7934 2.09099 22.3001 2.31992 22.8003C1.93234 23.048 1.93234 23.3145 2.31992 23.6003C2.51515 23.4065 2.70183 23.4065 2.87992 23.6003C3.06823 23.3321 3.30823 23.1188 3.59992 22.9603C3.76747 23.1878 3.76747 23.4278 3.59992 23.6803C3.89978 23.9779 4.05978 24.3513 4.07992 24.8003C4.05325 25.0403 4.02659 25.2803 3.99992 25.5203C3.79619 25.166 3.63619 24.7928 3.51992 24.4003C3.29791 24.2316 3.05791 24.2051 2.79992 24.3203C3.08648 24.6572 3.19315 25.0572 3.11992 25.5203C2.8048 25.1768 2.51146 24.8035 2.23992 24.4003C1.04699 22.3409 0.273655 20.1544 -0.0800781 17.8403C-0.0800781 16.987 -0.0800781 16.1336 -0.0800781 15.2803Z" fill="#AD2528"/>
<path fill-rule="evenodd" clip-rule="evenodd" d="M2.48018 19.4404C2.64018 19.5471 2.80018 19.6537 2.96018 19.7604C3.81842 20.3753 4.77842 20.7753 5.84018 20.9604C8.16112 20.9875 10.4544 21.0675 12.7202 21.2004C11.0102 21.1473 9.30352 21.2006 7.60018 21.3604C6.76739 21.8347 5.91405 22.2614 5.04018 22.6404C5.45731 22.7713 5.88397 22.8513 6.32018 22.8804C6.05872 22.9595 5.79205 22.986 5.52018 22.9604C5.52018 23.8137 5.52018 24.6671 5.52018 25.5204C5.2483 25.4948 4.98163 25.5214 4.72018 25.6004C4.76224 26.0897 4.7889 26.5964 4.80018 27.1204C4.8535 27.0671 4.90685 27.0137 4.96018 26.9604C5.08376 27.1763 5.27043 27.3095 5.52018 27.3604C5.99848 27.9868 6.47848 28.6003 6.96018 29.2004C5.37125 28.3051 4.09125 27.0783 3.12018 25.5204C3.19341 25.0574 3.08674 24.6574 2.80018 24.3204C3.05816 24.2052 3.29816 24.2318 3.52018 24.4004C3.63645 24.7929 3.79645 25.1662 4.00018 25.5204C4.02685 25.2804 4.0535 25.0404 4.08018 24.8004C4.06003 24.3515 3.90003 23.978 3.60018 23.6804C3.76773 23.4279 3.76773 23.1879 3.60018 22.9604C3.30848 23.119 3.06848 23.3323 2.88018 23.6004C2.70208 23.4067 2.51541 23.4067 2.32018 23.6004C1.93259 23.3147 1.93259 23.0481 2.32018 22.8004C2.09125 22.3003 1.8779 21.7935 1.68018 21.2804C1.73616 21.0793 1.84282 21.0259 2.00018 21.1204C2.15379 21.3475 2.28714 21.5875 2.40018 21.8404C2.54341 21.3659 2.46341 20.9391 2.16018 20.5604C2.34118 20.3838 2.47451 20.4371 2.56018 20.7204C2.68024 20.6203 2.81358 20.5403 2.96018 20.4804C2.6471 20.2011 2.4871 19.8545 2.48018 19.4404Z" fill="#B92C2D"/>
<path fill-rule="evenodd" clip-rule="evenodd" d="M12.7202 21.1996C13.1994 21.1666 13.6261 21.2732 14.0002 21.5196C13.4185 21.6029 12.8585 21.7629 12.3202 21.9996C12.1584 21.8657 11.9718 21.8124 11.7602 21.8396C11.7602 22.0529 11.7602 22.2663 11.7602 22.4796C11.0881 22.4703 11.0081 22.6303 11.5202 22.9596C11.497 25.5841 11.6304 28.1708 11.9202 30.7196C11.5612 30.7276 11.2945 30.8609 11.1202 31.1196C10.8106 31.0156 10.4906 30.9623 10.1602 30.9596C9.67772 30.7897 9.19772 30.6029 8.72021 30.3996C8.06748 30.0749 7.48081 29.6749 6.96021 29.1996C6.47852 28.5994 5.99852 27.986 5.52021 27.3596C5.27047 27.3087 5.0838 27.1754 4.96021 26.9596C4.90689 27.0129 4.85354 27.0663 4.80021 27.1196C4.78893 26.5956 4.76228 26.0889 4.72021 25.5996C4.98167 25.5205 5.24834 25.494 5.52021 25.5196C5.52021 24.6663 5.52021 23.8129 5.52021 22.9596C5.79209 22.9852 6.05876 22.9586 6.32021 22.8796C5.88401 22.8505 5.45735 22.7705 5.04021 22.6396C5.91409 22.2605 6.76743 21.8338 7.60021 21.3596C9.30356 21.1997 11.0102 21.1465 12.7202 21.1996Z" fill="#C92F30"/>
<path fill-rule="evenodd" clip-rule="evenodd" d="M14.0001 21.5195C14.2646 21.5451 14.4779 21.6517 14.6401 21.8395C14.5591 22.057 14.3991 22.217 14.1601 22.3195C14.3503 22.4682 14.5637 22.5215 14.8001 22.4795C14.6033 25.1976 14.63 27.9176 14.8801 30.6395C15.2305 30.813 15.4971 30.7063 15.6801 30.3195C15.74 30.4661 15.82 30.5995 15.9201 30.7195C16.2897 30.7991 16.663 30.8256 17.0401 30.7995C16.7302 31.0322 16.4636 31.2989 16.2401 31.5995C14.712 31.8634 13.2187 31.8101 11.7601 31.4395C11.5727 31.3043 11.3593 31.1978 11.1201 31.1195C11.2944 30.8608 11.5611 30.7275 11.9201 30.7195C11.6303 28.1707 11.4969 25.584 11.5201 22.9595C11.008 22.6303 11.088 22.4703 11.7601 22.4795C11.7601 22.2663 11.7601 22.0528 11.7601 21.8395C11.9717 21.8123 12.1583 21.8656 12.3201 21.9995C12.8584 21.7629 13.4184 21.6029 14.0001 21.5195Z" fill="#DC3836"/>
<path fill-rule="evenodd" clip-rule="evenodd" d="M14.6402 21.8398C16.549 22.6283 17.7757 24.015 18.3202 25.9998C18.3202 26.1066 18.3734 26.1598 18.4802 26.1598C18.5922 27.5046 18.3522 28.7846 17.7602 29.9998C17.5174 30.2782 17.2774 30.5448 17.0402 30.7998C16.663 30.8259 16.2898 30.7994 15.9202 30.7198C15.82 30.5998 15.74 30.4664 15.6802 30.3198C15.4972 30.7066 15.2305 30.8133 14.8802 30.6398C14.63 27.9179 14.6033 25.1979 14.8002 22.4798C14.5637 22.5218 14.3504 22.4685 14.1602 22.3198C14.3991 22.2173 14.5591 22.0573 14.6402 21.8398Z" fill="#E53D3A"/>
<path fill-rule="evenodd" clip-rule="evenodd" d="M22.4798 25.9997C21.1398 25.9613 19.8065 26.0146 18.4798 26.1597C18.3731 26.1597 18.3198 26.1064 18.3198 25.9997C19.7291 25.7983 21.1158 25.7983 22.4798 25.9997Z" fill="#994F51"/>
<path fill-rule="evenodd" clip-rule="evenodd" d="M22.4802 26.0003C23.2193 26.1306 23.966 26.1839 24.7202 26.1603C24.7452 26.8135 24.6652 27.4535 24.4802 28.0803C24.2686 28.7403 24.0286 29.3803 23.7602 30.0003C22.0697 30.8741 20.3097 31.5141 18.4802 31.9203C17.8935 31.9203 17.307 31.9203 16.7202 31.9203C16.5938 31.7762 16.4338 31.6695 16.2402 31.6003C16.4638 31.2997 16.7303 31.033 17.0402 30.8003C17.2775 30.5453 17.5175 30.2787 17.7602 30.0003C18.3522 28.7851 18.5922 27.5051 18.4802 26.1603C19.807 26.0152 21.1402 25.9619 22.4802 26.0003Z" fill="#851718"/>
<path fill-rule="evenodd" clip-rule="evenodd" d="M10.1602 30.96C10.4905 30.9627 10.8105 31.016 11.1202 31.12C11.3594 31.1982 11.5727 31.3048 11.7602 31.44C11.1742 31.4043 10.6409 31.2443 10.1602 30.96Z" fill="#CE7171"/>
</g>
<defs>
<clipPath id="clip0_5251_135">
<rect width="32" height="32" fill="white"/>
</clipPath>
</defs>
</svg>