<svg width="32" height="32" viewBox="0 0 32 32" fill="none" xmlns="http://www.w3.org/2000/svg">
    <path fill-rule="evenodd" clip-rule="evenodd"
        d="M13.9425 20.0083L0.77002 25.5576L19.0482 23.0785L13.9436 20.0083" fill="#D9B42F" />
    <path fill-rule="evenodd" clip-rule="evenodd"
        d="M13.9414 20.0121L15.6799 24.6934L3.85352 18.2245L13.943 20.0121" fill="#FFE188" />
    <path fill-rule="evenodd" clip-rule="evenodd"
        d="M32.0002 8.93335L30.5485 9.60135L29.2075 12.0244L32.0002 8.93335Z" fill="#E83F00" />
    <path fill-rule="evenodd" clip-rule="evenodd"
        d="M29.2041 9.61785L22.0723 11.7157L25.1827 12.4619L29.2041 9.61785Z" fill="#CD2015" />
    <path fill-rule="evenodd" clip-rule="evenodd"
        d="M29.2032 9.61782L22.9385 9.9906L24.827 10.9023L29.2032 9.61717" fill="#E83F00" />
    <path fill-rule="evenodd" clip-rule="evenodd"
        d="M25.5561 20.0683L28.0624 14.5535L29.5426 9.38216L13.9414 20.0096L18.9735 20.8066L25.5561 20.0683Z"
        fill="#EA4F86" />
    <path fill-rule="evenodd" clip-rule="evenodd"
        d="M18.3242 5.01781L13.9424 20.0137L16.5946 18.2084L18.3237 5.01781" fill="#00A2C9" />
    <path fill-rule="evenodd" clip-rule="evenodd"
        d="M18.3215 5.01572L11.5435 0.000156582L18.4866 9.04785L18.3204 5.01572" fill="#00A2C9" />
    <path fill-rule="evenodd" clip-rule="evenodd"
        d="M18.4229 7.32936L10.2539 4.42339L18.5229 10.5625L18.4229 7.32871" fill="#5A8794" />
    <path fill-rule="evenodd" clip-rule="evenodd"
        d="M18.4221 7.33244L10.7607 11.6904L18.522 10.5656L18.4221 7.33244Z" fill="#005971" />
    <path fill-rule="evenodd" clip-rule="evenodd"
        d="M28.0747 14.5273L31.7518 7.89814L29.5454 9.38404L28.0747 14.5273Z" fill="#CD2015" />
    <path fill-rule="evenodd" clip-rule="evenodd"
        d="M18.8038 16.7107L18.3243 5.01446L16.5952 18.2051L18.8044 16.7101" fill="#5EB2D1" />
    <path fill-rule="evenodd" clip-rule="evenodd"
        d="M25.0613 12.4349L26.381 18.2638L25.5566 20.0703L22.6719 14.0635L25.0619 12.4342"
        fill="#F59B00" />
    <path fill-rule="evenodd" clip-rule="evenodd"
        d="M25.5562 20.0708L18.9742 20.8092L15.6807 24.6934L25.5562 20.0708Z" fill="#E83F00" />
    <path fill-rule="evenodd" clip-rule="evenodd"
        d="M25.5565 20.0683L18.3242 5.01374L18.9745 20.8047L25.5565 20.0663" fill="#BAE2F5" />
    <path fill-rule="evenodd" clip-rule="evenodd"
        d="M18.801 16.7101L18.9717 20.8074L12.1016 23.5967L13.939 20.0103L18.801 16.7101Z"
        fill="#F59B00" />
    <path fill-rule="evenodd" clip-rule="evenodd"
        d="M13.9424 20.0079L18.9745 20.8049L15.681 24.6885L0 32L13.9424 20.0079Z" fill="#FFD130" />
</svg>