<svg width="32" height="32" viewBox="0 0 32 32" fill="none" xmlns="http://www.w3.org/2000/svg">
    <g clip-path="url(#clip0_5501_345)">
        <rect width="32" height="32" fill="black" />
        <g clip-path="url(#clip1_5501_345)">
            <path fill-rule="evenodd" clip-rule="evenodd"
                d="M12.3178 22.9984C10.2492 25.0671 10.2324 28.4046 12.2808 30.4528C14.329 32.5011 17.6665 32.4844 19.7352 30.4158L30.4162 19.7348C32.4849 17.6661 32.5016 14.3286 30.4533 12.2803C28.405 10.232 25.0675 10.2487 22.9988 12.3174L12.3178 22.9984ZM13.919 24.5995L24.5999 13.9184C25.7757 12.7426 27.6723 12.7334 28.8363 13.8973C30.0002 15.0613 29.9908 16.9579 28.8151 18.1337L18.1341 28.8146C16.9584 29.9904 15.0617 29.9998 13.8977 28.8359C12.7338 27.6719 12.7432 25.7752 13.919 24.5995Z"
                fill="white" />
            <path fill-rule="evenodd" clip-rule="evenodd"
                d="M1.56247 12.2434C-0.506193 14.3122 -0.522918 17.6496 1.52539 19.6979C3.5737 21.7463 6.91118 21.7296 8.97985 19.6608L19.6609 8.97986C21.7295 6.91119 21.7462 3.57372 19.698 1.52539C17.6496 -0.522918 14.3121 -0.506196 12.2435 1.56247L1.56247 12.2434ZM3.16356 13.8446L13.8445 3.16356C15.0203 1.98781 16.917 1.97845 18.0809 3.14238C19.2449 4.30632 19.2355 6.20302 18.0597 7.37877L7.37877 18.0598C6.20301 19.2356 4.30632 19.2449 3.14238 18.081C1.97845 16.9171 1.9878 15.0204 3.16356 13.8446Z"
                fill="white" />
            <path fill-rule="evenodd" clip-rule="evenodd"
                d="M12.2435 30.4158C14.3121 32.4844 17.6496 32.5011 19.698 30.4529C21.7462 28.4045 21.7295 25.067 19.6609 22.9984L8.97985 12.3174C6.91118 10.2487 3.5737 10.232 1.52539 12.2803C-0.522918 14.3286 -0.506193 17.6661 1.56247 19.7347L12.2435 30.4158ZM13.8445 28.8146L3.16356 18.1337C1.9878 16.9579 1.97845 15.0612 3.14238 13.8973C4.30632 12.7334 6.20301 12.7426 7.37877 13.9184L18.0597 24.5994C19.2355 25.7752 19.2449 27.6719 18.0809 28.8358C16.917 29.9998 15.0203 29.9904 13.8445 28.8146Z"
                fill="white" />
            <path fill-rule="evenodd" clip-rule="evenodd"
                d="M22.9985 19.6609C25.0673 21.7295 28.4047 21.7463 30.453 19.698C32.5014 17.6496 32.4847 14.3121 30.4159 12.2435L19.735 1.56248C17.6662 -0.506194 14.3289 -0.522921 12.2805 1.52539C10.2322 3.57372 10.2489 6.91119 12.3176 8.97986L22.9985 19.6609ZM24.5997 18.0598L13.9186 7.37877C12.7429 6.20301 12.7336 4.30632 13.8975 3.14239C15.0615 1.97845 16.9582 1.9878 18.1338 3.16356L28.8149 13.8445C29.9906 15.0203 30 16.917 28.8361 18.0809C27.6722 19.2449 25.7755 19.2356 24.5997 18.0598Z"
                fill="white" />
        </g>
    </g>
    <defs>
        <clipPath id="clip0_5501_345">
            <rect width="32" height="32" fill="white" />
        </clipPath>
        <clipPath id="clip1_5501_345">
            <rect width="32" height="32" fill="white" />
        </clipPath>
    </defs>
</svg>