<svg width="32" height="32" viewBox="0 0 32 32" fill="none" xmlns="http://www.w3.org/2000/svg">
  <g clip-path="url(#clip0_5430_272)">
    <path
      d="M29.79 17.2102C29.71 17.6302 29.63 18.0502 29.55 18.4702C29.36 19.4602 29.17 20.4402 28.97 21.4202C28.77 22.4402 28.57 23.4702 28.37 24.4902C28.18 25.4702 27.99 26.4502 27.8 27.4302C27.79 27.4802 27.78 27.5302 27.77 27.5702H4.24997C4.13997 27.0202 4.02997 26.4602 3.91997 25.9102C3.71997 24.8802 3.51997 23.8502 3.31997 22.8302C3.11997 21.8102 2.91997 20.7902 2.71997 19.7702C2.54997 18.9202 2.38997 18.0602 2.21997 17.2102V17.1702H13.81C13.81 17.1702 13.9 17.2302 13.94 17.2702C14.24 17.5202 14.53 17.7702 14.82 18.0102C15.22 18.3502 15.75 18.3102 16.09 17.9002C16.12 17.8602 16.15 17.8302 16.18 17.8002C16.36 17.5902 16.54 17.3802 16.72 17.1602H29.72C29.72 17.1602 29.77 17.2002 29.8 17.2102H29.79ZM22.81 22.2302C22.81 22.2302 22.87 22.2302 22.89 22.2302H23.74C24.48 22.2302 25.23 22.2302 25.97 22.2302C26.65 22.2302 27.21 21.7502 27.32 21.0702C27.42 20.4702 27.51 19.8802 27.6 19.2902C27.62 19.1502 27.64 19.0102 27.67 18.8402H24.4C23.68 18.8402 23.18 19.3202 23.05 19.8502C23.01 19.9902 23 20.1502 22.98 20.2902C22.93 20.7102 22.89 21.1202 22.85 21.5502C22.83 21.7702 22.81 21.9902 22.79 22.2202L22.81 22.2302ZM9.20997 22.2402C9.18997 22.0302 9.16997 21.8402 9.14997 21.6402C9.09997 21.1302 9.05997 20.6302 9.00997 20.1202C8.98997 19.8902 8.91997 19.6802 8.78997 19.4802C8.50997 19.0602 8.10997 18.8502 7.59997 18.8502H4.33997V18.9302C4.44997 19.6402 4.55997 20.3402 4.67997 21.0502C4.71997 21.2902 4.80997 21.5102 4.95997 21.7002C5.23997 22.0502 5.60997 22.2202 6.05997 22.2202C7.06997 22.2202 8.06997 22.2202 9.07997 22.2202H9.20997V22.2402ZM21.41 18.8502H18.26C18.12 18.8502 17.98 18.8702 17.84 18.9102C17.26 19.0702 16.86 19.6102 16.85 20.2002C16.85 20.8502 16.83 21.4902 16.83 22.1402V22.2302C16.83 22.2302 16.87 22.2302 16.89 22.2302C17.9 22.2302 18.92 22.2302 19.93 22.2302C20.21 22.2302 20.48 22.1302 20.71 21.9602C21.07 21.6902 21.24 21.3302 21.27 20.8902C21.3 20.4202 21.34 19.9502 21.37 19.4902C21.37 19.2902 21.39 19.0802 21.4 18.8602L21.41 18.8502ZM15.18 22.2402C15.18 22.2402 15.19 22.1902 15.19 22.1802C15.19 21.5302 15.18 20.8802 15.17 20.2302C15.17 20.0302 15.13 19.8202 15.03 19.6402C14.76 19.1202 14.33 18.8602 13.74 18.8602H10.73C9.72997 18.8602 10.65 18.8602 10.6 18.8602C10.6 18.9302 10.6 18.9802 10.61 19.0402C10.66 19.6602 10.7 20.2702 10.74 20.8802C10.76 21.0802 10.79 21.2802 10.88 21.4602C11.14 21.9602 11.56 22.2302 12.13 22.2402C13.11 22.2502 14.09 22.2402 15.08 22.2402C15.12 22.2402 15.15 22.2402 15.18 22.2402ZM26.93 23.6202C26.93 23.6202 26.86 23.6202 26.84 23.6202H23.9C23.79 23.6202 23.68 23.6402 23.57 23.6702C22.98 23.8202 22.59 24.3202 22.54 24.9302C22.51 25.2802 22.47 25.6202 22.44 25.9602C22.42 26.1702 22.4 26.3702 22.38 26.5902C22.41 26.5902 22.44 26.6002 22.46 26.6002C23.4 26.6002 24.35 26.6002 25.29 26.6002C25.97 26.6002 26.52 26.1102 26.63 25.4402C26.66 25.2502 26.69 25.0602 26.72 24.8802C26.79 24.4702 26.85 24.0702 26.91 23.6402L26.93 23.6202ZM5.10997 23.6202C5.10997 23.6202 5.10997 23.7102 5.11997 23.7402C5.20997 24.3002 5.28997 24.8602 5.37997 25.4102C5.42997 25.7202 5.56997 25.9902 5.79997 26.2002C6.06997 26.4502 6.39997 26.5702 6.76997 26.5702H9.51997C9.51997 26.5702 9.58997 26.5702 9.62997 26.5702V26.4602C9.57997 25.9602 9.53997 25.4602 9.47997 24.9502C9.45997 24.8102 9.43997 24.6702 9.39997 24.5302C9.21997 23.9802 8.67997 23.5902 8.07997 23.6002C7.11997 23.6002 6.16997 23.6002 5.20997 23.6002C5.17997 23.6002 5.13997 23.6102 5.09997 23.6102L5.10997 23.6202ZM16.78 26.5802H19.6C20.22 26.5802 20.87 26.1102 20.94 25.3202C20.99 24.8002 21.02 24.2702 21.05 23.7502V23.6202C21.05 23.6202 21.01 23.6202 21 23.6202C20.04 23.6202 19.09 23.6102 18.13 23.6202C17.39 23.6302 16.82 24.2102 16.79 24.9502C16.78 25.2002 16.77 25.4502 16.77 25.7102C16.76 25.9802 16.77 26.2702 16.77 26.5802H16.78ZM10.96 23.6202V23.6802C11 24.1902 11.03 24.7002 11.07 25.2202C11.09 25.5002 11.16 25.7702 11.32 26.0002C11.61 26.4002 12 26.5902 12.49 26.5902H15.12C15.12 26.5902 15.2 26.5902 15.24 26.5902V26.5202C15.24 26.0002 15.23 25.4802 15.21 24.9502C15.21 24.7802 15.17 24.6102 15.09 24.4502C14.83 23.9102 14.4 23.6302 13.8 23.6302C12.89 23.6302 11.98 23.6302 11.06 23.6302C11.03 23.6202 10.99 23.6302 10.94 23.6302L10.96 23.6202Z"
      fill="#005274" />
    <path
      d="M27.72 27.5703H27.77C27.74 27.7103 27.72 27.8503 27.68 27.9803C27.22 29.5303 25.93 30.6803 24.34 30.9603C24.13 31.0003 23.91 31.0103 23.69 31.0303C23.64 31.0303 23.58 31.0303 23.53 31.0303H8.47998C7.71998 31.0303 6.99998 30.8703 6.33998 30.4903C5.21998 29.8503 4.51998 28.9003 4.22998 27.6503V27.5703H4.27998C4.33998 27.5803 4.39998 27.6003 4.45998 27.6003H27.54C27.54 27.6003 27.62 27.6003 27.66 27.6003C27.69 27.6003 27.71 27.5803 27.72 27.5703Z"
      fill="#005274" />
    <path
      d="M16.7101 17.1604C16.5301 17.3704 16.3501 17.5804 16.1701 17.8004C16.1401 17.8404 16.1101 17.8704 16.0801 17.9004C15.7301 18.3004 15.2101 18.3404 14.8101 18.0104C14.5101 17.7704 14.2201 17.5104 13.9301 17.2704C13.8901 17.2304 13.8501 17.2004 13.8001 17.1704C13.7901 17.1604 13.7801 17.1504 13.7701 17.1404C13.7601 17.1304 13.7501 17.1204 13.7401 17.1104C13.6101 16.9604 13.5201 16.7904 13.5001 16.5904C13.4701 16.3304 13.5601 16.1004 13.7301 15.8904C14.2101 15.3304 14.6901 14.7504 15.1701 14.1904C15.2101 14.1504 15.2401 14.1104 15.2801 14.0504C15.2101 14.0504 15.1701 14.0504 15.1301 14.0504H13.9301C13.8101 14.0504 13.6801 14.0504 13.5601 14.0504C13.5101 13.8404 13.4901 13.6204 13.5001 13.4104C13.5501 12.6204 14.1501 11.9204 14.9201 11.7704C15.5801 11.6404 16.1501 11.8204 16.6201 12.2904C16.6401 12.3104 16.6601 12.3404 16.6801 12.3904C16.9001 12.1304 17.0901 11.9004 17.2901 11.6604C17.3201 11.6304 17.3401 11.6104 17.3601 11.5804C18.5401 10.1804 19.7101 8.78044 20.8801 7.38044C20.9101 7.35044 20.9301 7.31044 20.9501 7.28044C21.0901 7.12044 21.2301 6.95044 21.3701 6.79044C22.9001 4.97044 24.4301 3.14044 25.9601 1.32044C26.3101 0.910443 26.8301 0.860443 27.2401 1.20044C27.5801 1.47044 27.9101 1.75044 28.2401 2.03044C28.6301 2.36044 28.6801 2.89044 28.3601 3.29044C28.1701 3.53044 27.9601 3.76044 27.7601 4.00044C27.1601 4.71044 26.5601 5.43044 25.9601 6.15044C25.9401 6.18044 25.9201 6.21044 25.9001 6.24044C25.8601 6.28044 25.8201 6.32044 25.7901 6.36044C25.2801 6.97044 24.7801 7.57044 24.2701 8.17044C23.9001 8.61044 23.5401 9.05044 23.1701 9.48044C23.0201 9.66044 22.8601 9.84044 22.7101 10.0204C21.6101 11.3304 20.5101 12.6404 19.4101 13.9504C19.3801 13.9904 19.3601 14.0204 19.3301 14.0604C19.2901 14.1004 19.2601 14.1304 19.2301 14.1704C18.6401 14.8704 18.0401 15.5804 17.4501 16.2804C17.2101 16.5604 16.9801 16.8504 16.7401 17.1304C16.7301 17.1404 16.7201 17.1504 16.7101 17.1604C16.7101 17.1504 16.7101 17.1604 16.7001 17.1604H16.7101ZM15.9901 16.3704C16.4301 16.3704 16.7801 16.0204 16.7801 15.5904C16.7801 15.1604 16.4301 14.8104 16.0101 14.8104C15.5801 14.8104 15.2201 15.1604 15.2201 15.5904C15.2201 16.0204 15.5701 16.3704 16.0001 16.3704H15.9901Z"
      fill="#FF8517" />
    <path
      d="M13.56 14.0295C13.68 14.0295 13.81 14.0295 13.93 14.0295H15.13C15.13 14.0295 15.22 14.0295 15.28 14.0295C15.23 14.0895 15.2 14.1295 15.17 14.1695C14.69 14.7395 14.22 15.3095 13.73 15.8695C13.56 16.0695 13.48 16.2995 13.5 16.5695C13.52 16.7695 13.62 16.9395 13.74 17.0895H1.51997C1.10997 17.0295 0.799971 16.6895 0.789971 16.2595C0.779971 15.7995 0.779971 15.3295 0.789971 14.8695C0.799971 14.3895 1.18997 14.0295 1.67997 14.0195C1.85997 14.0195 2.04997 14.0195 2.22997 14.0195C2.40997 14.0195 2.29997 14.0195 2.33997 14.0195H4.44997C4.44997 14.0195 4.51997 14.0195 4.55997 14.0195H5.13997C5.18997 14.0195 5.23997 14.0195 5.28997 14.0195H12.46C12.51 14.0195 12.56 14.0195 12.61 14.0195C12.93 14.0195 13.26 14.0195 13.58 14.0195L13.56 14.0295Z"
      fill="#005274" />
    <path
      d="M16.76 17.11C17 16.83 17.23 16.54 17.47 16.26C18.06 15.55 18.65 14.85 19.25 14.15C19.28 14.11 19.32 14.08 19.35 14.04C19.83 14.04 20.32 14.04 20.81 14.04C21.3 14.04 21.55 14.04 21.92 14.04C22.29 14.04 22 14.04 22.04 14.04H25.91C25.91 14.04 25.99 14.04 26.03 14.04H27.29C27.29 14.04 27.35 14.04 27.38 14.04H29.43C29.43 14.04 29.49 14.04 29.52 14.04C29.79 14.04 30.06 14.04 30.33 14.04C30.6 14.04 30.71 14.09 30.86 14.2C31.1 14.37 31.23 14.62 31.23 14.91C31.23 15.36 31.24 15.81 31.23 16.26C31.22 16.7 30.91 17.05 30.5 17.11H16.77H16.76Z"
      fill="#005274" />
    <path
      d="M20.9501 7.26012C20.9501 7.26012 20.9101 7.33012 20.8801 7.36012C19.7001 8.76012 18.5301 10.1601 17.3601 11.5601C17.3401 11.5901 17.3101 11.6101 17.2901 11.6401C17.2501 11.6101 17.2101 11.5901 17.1701 11.5601C16.3401 11.0801 15.8301 10.3601 15.6901 9.41012C15.4601 7.85012 16.5401 6.36012 18.1001 6.12012C19.2101 5.95012 20.1501 6.31012 20.8801 7.17012C20.9001 7.20012 20.9301 7.23012 20.9501 7.26012Z"
      fill="#005274" />
    <path
      d="M12.5901 14.0296C12.5401 14.0296 12.4901 14.0296 12.4401 14.0296H5.27012C5.22012 14.0296 5.17012 14.0296 5.12012 14.0296C5.35012 12.8396 6.00012 11.9396 7.06012 11.3496C7.55012 11.0796 8.08012 10.9396 8.64012 10.9096C10.3801 10.8096 11.9601 11.9196 12.4701 13.5896C12.5201 13.7296 12.5501 13.8796 12.5801 14.0296H12.5901Z"
      fill="#FF8517" />
    <path
      d="M26.02 14.0296C26.02 14.0296 25.94 14.0296 25.9 14.0296H22.03C22.03 14.0296 21.95 14.0296 21.91 14.0296C21.84 13.8996 21.77 13.7796 21.72 13.6396C21.12 12.1896 21.99 10.5996 23.5 10.3096C24.84 10.0496 26.13 10.9196 26.38 12.2496C26.49 12.8396 26.4 13.3996 26.1 13.9096C26.07 13.9496 26.05 13.9896 26.03 14.0296H26.02Z"
      fill="#FF8518" />
    <path
      d="M10.8701 9.47043C10.8701 8.35043 11.7801 7.44043 12.9001 7.44043C14.0701 7.44043 14.9401 8.41043 14.9301 9.48043C14.9101 10.5904 14.0101 11.5004 12.9001 11.5004C11.7901 11.5004 10.8801 10.5904 10.8801 9.47043H10.8701Z"
      fill="#005274" />
    <path
      d="M5.71997 8.28961C5.71997 7.21961 6.59997 6.34961 7.67997 6.34961C8.75997 6.34961 9.62997 7.23961 9.61997 8.31961C9.61997 9.38961 8.72997 10.2596 7.64997 10.2496C6.57997 10.2496 5.71997 9.36961 5.71997 8.28961Z"
      fill="#005274" />
    <path
      d="M12.8901 4.48996C12.8701 3.58996 13.5901 2.71996 14.6601 2.70996C15.6301 2.70996 16.4301 3.49996 16.4301 4.46996C16.4301 5.43996 15.6501 6.25996 14.6601 6.24996C13.5901 6.24996 12.8701 5.35996 12.8901 4.47996V4.48996Z"
      fill="#FF8518" />
    <path
      d="M4.58999 9.45996C5.38999 9.45996 6.03999 10.12 6.03999 10.92C6.03999 11.72 5.37999 12.38 4.56999 12.38C3.75999 12.38 3.10999 11.72 3.11999 10.91C3.11999 10.12 3.77999 9.46996 4.58999 9.46996V9.45996Z"
      fill="#005274" />
    <path
      d="M22.2101 4.61023C22.2101 5.37023 21.5901 5.98023 20.8301 5.98023C20.0701 5.98023 19.4601 5.36023 19.4701 4.60023C19.4701 3.85023 20.0901 3.24023 20.8401 3.24023C21.6001 3.24023 22.2101 3.85023 22.2101 4.61023Z"
      fill="#005274" />
    <path
      d="M27.2101 11.2896C26.4501 11.2896 25.8501 10.6796 25.8501 9.91957C25.8501 9.15957 26.4701 8.55957 27.2101 8.55957C27.9601 8.55957 28.5801 9.17957 28.5801 9.92957C28.5801 10.6796 27.9601 11.2896 27.2101 11.2896Z"
      fill="#FF8618" />
    <path
      d="M10.8601 6.54004C10.1701 6.54004 9.61011 5.98004 9.61011 5.29004C9.61011 4.60004 10.1701 4.04004 10.8701 4.04004C11.5601 4.04004 12.1201 4.60004 12.1201 5.29004C12.1201 5.98004 11.5601 6.54004 10.8601 6.54004Z"
      fill="#005274" />
    <path
      d="M23.1899 9.44996C23.5599 9.00996 23.9199 8.56996 24.2899 8.13996C24.7899 7.52996 25.2999 6.92996 25.8099 6.32996C25.8499 6.28996 25.8799 6.24996 25.9199 6.20996C26.7199 7.57996 25.8799 9.33996 24.3099 9.55996C23.9199 9.61996 23.5499 9.58996 23.1899 9.44996Z"
      fill="#005274" />
    <path
      d="M29.5001 14.03C29.5001 14.03 29.4401 14.03 29.4101 14.03H27.3601C27.3601 14.03 27.3001 14.03 27.2701 14.03C27.2201 13.85 27.1801 13.66 27.2001 13.47C27.2601 12.94 27.6701 12.52 28.1901 12.43C28.6901 12.34 29.3601 12.63 29.5301 13.32C29.5801 13.51 29.5801 13.71 29.5301 13.9C29.5201 13.95 29.5101 14 29.4901 14.04L29.5001 14.03Z"
      fill="#FF8619" />
    <path
      d="M4.54997 14.0299C4.54997 14.0299 4.47997 14.0299 4.43997 14.0299H2.32997C2.32997 14.0299 2.25997 14.0299 2.21997 14.0299C2.32997 13.4899 2.78997 13.0899 3.34997 13.0799C3.90997 13.0599 4.36997 13.4399 4.51997 13.9299C4.52997 13.9599 4.53997 13.9999 4.54997 14.0299Z"
      fill="#FF8619" />
    <path
      d="M18.0501 4.86977C17.6701 4.86977 17.3601 4.56977 17.3601 4.19977C17.3601 3.82977 17.6601 3.50977 18.0401 3.50977C18.4201 3.50977 18.7201 3.80977 18.7301 4.18977C18.7301 4.55977 18.4301 4.86977 18.0501 4.86977Z"
      fill="#FF8619" />
    <path
      d="M16.76 17.1096H30.5C30.44 17.1196 30.39 17.1296 30.33 17.1396H16.74C16.74 17.1396 16.75 17.1096 16.76 17.0996V17.1096Z"
      fill="#005274" />
    <path
      d="M16.7299 17.1396H29.7999C29.7999 17.1396 29.79 17.1896 29.78 17.2096C29.75 17.1896 29.73 17.1696 29.7 17.1696H16.7L16.7199 17.1496L16.7299 17.1396Z"
      fill="#005274" />
    <path
      d="M1.51001 17.1104H5.95001C5.90001 17.1204 5.85001 17.1404 5.80001 17.1404H2.38001C2.33001 17.1404 2.28001 17.1604 2.23001 17.1704H2.21001C2.21001 17.1704 2.13001 17.1404 2.09001 17.1404H1.67001C1.62001 17.1404 1.56001 17.1204 1.51001 17.1104Z"
      fill="#005274" />
    <path
      d="M27.72 27.5703C27.72 27.5703 27.68 27.6003 27.66 27.6003C27.62 27.6003 27.58 27.6003 27.54 27.6003H4.46003C4.40003 27.6003 4.34003 27.5803 4.28003 27.5703H27.71H27.72Z"
      fill="#005274" />
    <path
      d="M2.23999 17.1604C2.28999 17.1504 2.33999 17.1304 2.38999 17.1304H5.80999C5.80999 17.1304 5.89999 17.1204 5.93999 17.1104H11.68C11.73 17.1104 11.78 17.1104 11.83 17.1304H13.78C13.78 17.1304 13.8 17.1504 13.81 17.1604H2.23999Z"
      fill="#005274" />
    <path
      d="M15.99 16.3698C15.56 16.3698 15.22 16.0098 15.22 15.5898C15.22 15.1698 15.58 14.7998 16.01 14.8098C16.44 14.8098 16.78 15.1698 16.78 15.5898C16.78 16.0098 16.42 16.3698 15.99 16.3698Z"
      fill="#005274" />
    <path
      d="M13.78 17.1404H11.88C11.88 17.1404 11.8 17.1204 11.76 17.1104H13.75C13.75 17.1104 13.77 17.1304 13.78 17.1404Z"
      fill="#005274" />
  </g>
  <defs>
    <clipPath id="clip0_5430_272">
      <rect width="32" height="32" fill="white" />
    </clipPath>
  </defs>
</svg>