<svg width="32" height="32" viewBox="0 0 32 32" fill="none" xmlns="http://www.w3.org/2000/svg">
    <path opacity="0.934" fill-rule="evenodd" clip-rule="evenodd"
        d="M14.9998 1.66699C14.9707 1.83119 15.0078 1.97934 15.1109 2.11144C15.5199 1.81518 15.631 1.85222 15.4443 2.22255C16.3209 2.62079 16.9135 3.25044 17.2221 4.11144C16.6295 4.11144 16.0369 4.11144 15.4443 4.11144C14.9414 3.31079 14.3488 2.57006 13.6665 1.88921C14.1253 1.8854 14.5698 1.81133 14.9998 1.66699Z"
        fill="#FFB633" />
    <path opacity="0.876" fill-rule="evenodd" clip-rule="evenodd"
        d="M14.9998 1.66699C15.8963 1.668 16.7852 1.74207 17.6665 1.88921C18.8207 2.94968 19.9318 4.06079 20.9998 5.22255C19.7302 4.81341 18.4709 4.44306 17.2221 4.11144C16.9135 3.25044 16.321 2.62079 15.4443 2.22255C15.631 1.85222 15.5199 1.81518 15.111 2.11144C15.0078 1.97934 14.9707 1.83119 14.9998 1.66699Z"
        fill="#FFB92E" />
    <path opacity="0.909" fill-rule="evenodd" clip-rule="evenodd"
        d="M17.6665 1.88867C18.6133 1.9772 19.5022 2.19943 20.3332 2.55534C22.01 3.91778 23.4916 5.43632 24.7776 7.11089C25.4654 7.29276 25.9098 7.73721 26.1109 8.44423C26.9354 8.71594 27.4909 9.27149 27.7776 10.1109C27.8516 10.0368 27.9258 9.96274 27.9998 9.88867C28.1598 10.2344 28.4192 10.4566 28.7776 10.5553C29.3105 11.4227 29.6067 12.3856 29.6665 13.4442C29.2701 13.1207 28.8256 12.8984 28.3332 12.7776C28.3663 12.5438 28.3294 12.3216 28.2221 12.1109C28.1481 12.185 28.0738 12.259 27.9998 12.3331C27.5576 11.6168 27.0021 11.0242 26.3332 10.5553C25.6343 9.60736 24.9305 8.64441 24.2221 7.66645C23.1927 6.76616 22.1186 5.95134 20.9998 5.22201C19.9318 4.06025 18.8207 2.94914 17.6665 1.88867Z"
        fill="#FFBC28" />
    <path opacity="0.879" fill-rule="evenodd" clip-rule="evenodd"
        d="M12.9999 2.11139C13.4388 2.36614 13.7721 2.7365 13.9999 3.2225C14.074 3.14843 14.148 3.07434 14.2221 3.00028C14.4437 3.40541 14.703 3.77577 14.9999 4.11139C14.3958 4.23199 13.8032 4.38014 13.2221 4.55583C12.6405 4.15839 12.159 3.63988 11.7777 3.00028C11.6926 3.12383 11.5815 3.1979 11.4443 3.2225C11.6725 2.47628 12.191 2.10591 12.9999 2.11139Z"
        fill="#FFB33B" />
    <path opacity="0.856" fill-rule="evenodd" clip-rule="evenodd"
        d="M20.3335 2.55566C24.3786 3.93442 27.1935 6.60109 28.7779 10.5557C28.4195 10.4569 28.1602 10.2347 28.0002 9.889C27.9262 9.96306 27.8519 10.0372 27.7779 10.1112C27.4913 9.27182 26.9357 8.71626 26.1113 8.44455C25.9102 7.73753 25.4657 7.29309 24.7779 7.11122C23.4919 5.43664 22.0104 3.91811 20.3335 2.55566Z"
        fill="#FFBF23" />
    <path opacity="0.957" fill-rule="evenodd" clip-rule="evenodd"
        d="M13.6667 1.88852C14.349 2.56936 14.9415 3.3101 15.4444 4.11074C15.2963 4.11074 15.1482 4.11074 15 4.11074C14.7031 3.77512 14.4438 3.40476 14.2222 2.99963C14.1482 3.0737 14.0741 3.14778 14 3.22185C13.7722 2.73585 13.4389 2.3655 13 2.11074C13.1576 1.90986 13.3798 1.83578 13.6667 1.88852Z"
        fill="#FFB537" />
    <path opacity="0.87" fill-rule="evenodd" clip-rule="evenodd"
        d="M13.222 4.55556C13.3759 5.53136 13.5981 6.49433 13.8887 7.44444C12.862 6.60598 11.825 5.643 10.7776 4.55556C10.7689 3.98022 10.9911 3.53578 11.4443 3.22222C11.5815 3.19762 11.6926 3.12356 11.7776 3C12.1589 3.6396 12.6404 4.15811 13.222 4.55556Z"
        fill="#FFAF42" />
    <path opacity="0.934" fill-rule="evenodd" clip-rule="evenodd"
        d="M10.7778 4.55566C11.8252 5.64311 12.8622 6.60609 13.8889 7.44455C14.0222 7.75571 14.2445 7.97793 14.5555 8.11122C15.0635 8.83442 15.7302 9.38998 16.5555 9.77789C16.4815 9.85195 16.4074 9.92604 16.3333 10.0001C16.5713 10.1894 16.7935 10.3746 17 10.5557C16.3588 10.4876 15.7662 10.5616 15.2222 10.7779C13.9629 9.66678 12.7037 8.55566 11.4444 7.44455C10.9153 6.55991 10.6931 5.59693 10.7778 4.55566Z"
        fill="#FFAD47" />
    <path opacity="0.909" fill-rule="evenodd" clip-rule="evenodd"
        d="M11.4443 7.44434C12.7035 8.55545 13.9628 9.66656 15.2221 10.7777C15.6057 11.891 16.0131 13.0021 16.4443 14.111C16.8399 13.8578 17.2473 13.6356 17.6665 13.4443C18.1473 14.0868 18.6658 14.6794 19.2221 15.2221C18.9111 15.5309 18.5407 15.7532 18.1109 15.8888C17.723 15.4995 17.2785 15.2032 16.7776 14.9999C16.0612 14.5235 15.4686 13.9309 14.9998 13.2221C14.9845 12.6478 14.7253 12.2034 14.2221 11.8888C14.137 12.0123 14.0259 12.0864 13.8887 12.111C13.6551 11.9505 13.507 11.7283 13.4443 11.4443C13.4149 10.8872 13.1927 10.7391 12.7776 10.9999C12.8126 10.3679 12.5163 9.99751 11.8887 9.88878C10.9387 9.36776 10.198 8.77516 9.6665 8.111C10.3373 8.14758 11.0039 8.11056 11.6665 7.99989C11.4993 7.85082 11.4252 7.66565 11.4443 7.44434Z"
        fill="#FFA94D" />
    <path opacity="0.886" fill-rule="evenodd" clip-rule="evenodd"
        d="M5.44434 8.3334C5.60189 8.13251 5.82411 8.05844 6.111 8.11117C6.87578 8.80171 7.46838 9.61653 7.88878 10.5556C7.81471 10.5556 7.74062 10.5556 7.66656 10.5556C6.96285 9.777 6.22211 9.03626 5.44434 8.3334Z"
        fill="#FFA25C" />
    <path opacity="0.882" fill-rule="evenodd" clip-rule="evenodd"
        d="M6.11133 8.11133C6.62984 8.11133 7.14837 8.11133 7.66688 8.11133C8.24486 9.06035 8.98559 9.87515 9.88911 10.5558C9.22244 10.5558 8.55577 10.5558 7.88911 10.5558C7.46871 9.61668 6.87611 8.80186 6.11133 8.11133Z"
        fill="#FFA359" />
    <path opacity="0.899" fill-rule="evenodd" clip-rule="evenodd"
        d="M7.6665 8.11133C8.33317 8.11133 8.99984 8.11133 9.6665 8.11133C10.198 8.77548 10.9387 9.36808 11.8887 9.88911C11.9014 10.1356 11.9754 10.3578 12.1109 10.5558C11.3702 10.5558 10.6295 10.5558 9.88873 10.5558C8.98522 9.87515 8.24448 9.06035 7.6665 8.11133Z"
        fill="#FFA654" />
    <path opacity="0.877" fill-rule="evenodd" clip-rule="evenodd"
        d="M14.5557 8.11133C15.2964 8.11133 16.0372 8.11133 16.7779 8.11133C17.4499 8.96697 18.1907 9.78179 19.0001 10.5558C18.3334 10.5558 17.6668 10.5558 17.0001 10.5558C16.7936 10.3747 16.5714 10.1895 16.3334 10.0002C16.4075 9.92615 16.4816 9.85206 16.5557 9.77799C15.7303 9.39008 15.0637 8.83453 14.5557 8.11133Z"
        fill="#FFAF41" />
    <path opacity="0.889" fill-rule="evenodd" clip-rule="evenodd"
        d="M16.7778 8.11133C17.5927 8.11133 18.4075 8.11133 19.2223 8.11133C19.3909 8.67406 19.7983 9.19257 20.4445 9.66688C20.5295 9.54333 20.6406 9.46926 20.7778 9.44466C21.0289 9.84791 21.177 10.2924 21.2223 10.778C21.4445 10.778 21.6667 10.778 21.8889 10.778C22.1647 11.3031 22.5352 11.7475 23.0001 12.1113C22.8109 12.6406 22.5147 13.085 22.1112 13.4447C21.3043 12.9992 20.7117 12.4806 20.3334 11.8891C20.6085 10.8298 20.164 10.3854 19.0001 10.5558C18.1906 9.78179 17.4499 8.96697 16.7778 8.11133Z"
        fill="#FFB23B" />
    <path opacity="0.906" fill-rule="evenodd" clip-rule="evenodd"
        d="M19.2222 8.11133C19.3703 8.11133 19.5185 8.11133 19.6666 8.11133C20.11 8.51228 20.4804 8.95673 20.7777 9.44466C20.6405 9.46926 20.5294 9.54333 20.4444 9.66688C19.7982 9.19257 19.3908 8.67406 19.2222 8.11133Z"
        fill="#FFB537" />
    <path opacity="0.812" fill-rule="evenodd" clip-rule="evenodd"
        d="M19.6665 8.11133C21.5382 8.20566 22.6494 9.16864 22.9998 11.0002C22.6627 10.9979 22.4034 10.8497 22.2221 10.5558C22.137 10.6793 22.0259 10.7534 21.8887 10.778C21.6665 10.778 21.4443 10.778 21.2221 10.778C21.1768 10.2924 21.0287 9.84791 20.7776 9.44466C20.4803 8.95673 20.1099 8.51228 19.6665 8.11133Z"
        fill="#FFB635" />
    <path opacity="0.921" fill-rule="evenodd" clip-rule="evenodd"
        d="M5.44423 8.33286C6.22201 9.03572 6.96274 9.77646 7.66645 10.5551C6.92572 10.5551 6.18496 10.5551 5.44423 10.5551C4.92883 9.96521 4.41029 9.37261 3.88867 8.7773C4.33634 8.4609 4.85485 8.31275 5.44423 8.33286Z"
        fill="#FFA060" />
    <path opacity="0.871" fill-rule="evenodd" clip-rule="evenodd"
        d="M3.88883 8.77734C4.41046 9.37265 4.92899 9.96525 5.44439 10.5551C5.21959 10.8599 4.99737 11.1562 4.77772 11.444C4.22501 10.9019 3.7065 10.3093 3.22217 9.66623C3.27497 9.24303 3.49719 8.94674 3.88883 8.77734Z"
        fill="#FF9D65" />
    <path opacity="0.896" fill-rule="evenodd" clip-rule="evenodd"
        d="M3.22201 9.66699C3.70635 10.31 4.22486 10.9026 4.77757 11.4448C4.8303 11.7317 4.75623 11.9539 4.55535 12.1114C4.28432 11.3961 3.76581 11.0258 2.99979 11.0003C3.05252 10.7134 2.97846 10.4912 2.77757 10.3337C2.76135 9.99435 2.9095 9.77213 3.22201 9.66699Z"
        fill="#FF9B69" />
    <path opacity="0.803" fill-rule="evenodd" clip-rule="evenodd"
        d="M11.8887 9.88867C12.5162 9.99741 12.8125 10.3678 12.7776 10.9998C12.617 10.7662 12.3948 10.618 12.1109 10.5553C11.9754 10.3573 11.9013 10.1351 11.8887 9.88867Z"
        fill="#FFA850" />
    <path opacity="0.879" fill-rule="evenodd" clip-rule="evenodd"
        d="M2.77799 10.333C2.97888 10.4906 3.05295 10.7128 3.00022 10.9997C3.76624 11.0251 4.28475 11.3955 4.55577 12.1108C4.48859 12.7491 4.34044 13.3417 4.11133 13.8886C3.50591 13.0502 2.83924 12.4576 2.11133 12.1108C2.24653 11.4826 2.46875 10.8901 2.77799 10.333Z"
        fill="#FF996D" />
    <path opacity="0.883" fill-rule="evenodd" clip-rule="evenodd"
        d="M22.9998 11.0001C22.9998 11.3705 22.9998 11.7408 22.9998 12.1112C22.5349 11.7474 22.1645 11.303 21.8887 10.7779C22.0259 10.7533 22.137 10.6792 22.222 10.5557C22.4033 10.8496 22.6627 10.9978 22.9998 11.0001Z"
        fill="#FFB537" />
    <path opacity="0.813" fill-rule="evenodd" clip-rule="evenodd"
        d="M13.4445 11.4442C13.2963 11.5183 13.1482 11.5923 13.0001 11.6664C12.8645 11.4684 12.7905 11.2462 12.7778 10.9997C13.1929 10.7389 13.4151 10.8871 13.4445 11.4442Z"
        fill="#FFA850" />
    <path opacity="0.925" fill-rule="evenodd" clip-rule="evenodd"
        d="M13.4444 11.4443C13.5072 11.7283 13.6553 11.9505 13.8889 12.111C14.1699 12.5692 14.5403 12.9396 15 13.2221C15.4688 13.9309 16.0614 14.5235 16.7778 14.9999C17.0218 15.1992 17.0218 15.3844 16.7778 15.5554C17.1822 15.6 17.4784 15.7852 17.6667 16.111C17.5739 16.2714 17.4257 16.3825 17.2222 16.4443C17.4819 16.8902 17.6301 17.3717 17.6667 17.8888C17.4329 17.922 17.2107 17.885 17 17.7777C16.8518 17.3332 16.5556 17.0369 16.1111 16.8888C16.1852 16.8147 16.2593 16.7406 16.3333 16.6666C16.037 16.5184 15.7407 16.3703 15.4444 16.2221C15.5185 16.148 15.5926 16.074 15.6667 15.9999C15.2308 15.4858 14.7122 15.0784 14.1111 14.7777C13.6535 13.7755 13.2831 12.7384 13 11.6666C13.1482 11.5925 13.2963 11.5184 13.4444 11.4443Z"
        fill="#FFA654" />
    <path opacity="0.91" fill-rule="evenodd" clip-rule="evenodd"
        d="M26.3335 10.5557C27.0024 11.0246 27.5579 11.6172 28.0002 12.3334C28.0742 12.2594 28.1484 12.1853 28.2224 12.1112C28.3297 12.3219 28.3666 12.5441 28.3335 12.7779C28.8259 12.8988 29.2704 13.121 29.6668 13.4446C29.8759 14.4602 29.9499 15.4972 29.8891 16.5557C29.1484 15.6668 28.3335 14.852 27.4446 14.1112C27.1631 12.8965 26.7928 11.7113 26.3335 10.5557Z"
        fill="#FFB92D" />
    <path fill-rule="evenodd" clip-rule="evenodd"
        d="M14.9998 13.222C14.5401 12.9395 14.1697 12.5691 13.8887 12.1109C14.0259 12.0863 14.137 12.0122 14.222 11.8887C14.7252 12.2033 14.9845 12.6477 14.9998 13.222Z"
        fill="#FFA850" />
    <path opacity="0.87" fill-rule="evenodd" clip-rule="evenodd"
        d="M20.3333 11.8887C20.7115 12.4802 21.3041 12.9987 22.1111 13.4442C21.8217 13.9602 21.3773 14.2565 20.7777 14.3331C20.4073 14.1109 20.1111 13.8146 19.8888 13.4442C19.664 13.1394 19.4418 12.8431 19.2222 12.5553C19.5477 12.2805 19.9181 12.0583 20.3333 11.8887Z"
        fill="#FFAF41" />
    <path opacity="0.886" fill-rule="evenodd" clip-rule="evenodd"
        d="M2.11089 12.1113C2.83881 12.4581 3.50547 13.0507 4.11089 13.8891C4.11089 14.5558 4.11089 15.2224 4.11089 15.8891C3.94669 15.9182 3.79854 15.8812 3.66645 15.778C3.15665 15.3824 2.78627 14.9009 2.55534 14.3336C2.50254 13.9104 2.28032 13.6141 1.88867 13.4447C1.89248 12.9858 1.96656 12.5414 2.11089 12.1113Z"
        fill="#FF9673" />
    <path opacity="0.689" fill-rule="evenodd" clip-rule="evenodd"
        d="M19.2222 12.5557C19.4419 12.8434 19.6641 13.1397 19.8889 13.4446C19.4657 13.3918 19.1694 13.1695 19 12.7779C19 12.6297 19.0741 12.5557 19.2222 12.5557Z"
        fill="#FFAE44" />
    <path opacity="0.876" fill-rule="evenodd" clip-rule="evenodd"
        d="M18.9998 12.7773C19.1692 13.169 19.4655 13.3912 19.8887 13.444C20.1109 13.8144 20.4072 14.1107 20.7776 14.3329C20.3697 14.7969 19.8512 15.0932 19.2221 15.2218C18.6658 14.6791 18.1473 14.0865 17.6665 13.444C18.0402 13.109 18.4846 12.8868 18.9998 12.7773Z"
        fill="#FFAC47" />
    <path opacity="0.966" fill-rule="evenodd" clip-rule="evenodd"
        d="M1.88867 13.4443C2.28032 13.6137 2.50254 13.91 2.55534 14.3332C2.56987 14.4306 2.53285 14.5047 2.44423 14.5554C2.27747 14.4164 2.09228 14.3053 1.88867 14.2221C2.13269 14.0511 2.13269 13.8659 1.88867 13.6666C1.88867 13.5925 1.88867 13.5184 1.88867 13.4443Z"
        fill="#FE9575" />
    <path opacity="0.887" fill-rule="evenodd" clip-rule="evenodd"
        d="M1.88884 13.667C2.13286 13.8663 2.13286 14.0515 1.88884 14.2225C2.09245 14.3057 2.27764 14.4168 2.4444 14.5559C2.53302 14.5051 2.57004 14.431 2.55551 14.3337C2.78644 14.901 3.15682 15.3825 3.66662 15.7781C3.79871 15.8813 3.94686 15.9183 4.11106 15.8892C4.11106 16.6299 4.11106 17.3707 4.11106 18.1114C3.2398 17.4937 2.42497 16.8271 1.66662 16.1114C1.59662 15.2511 1.6707 14.4363 1.88884 13.667Z"
        fill="#FF9379" />
    <path opacity="0.865" fill-rule="evenodd" clip-rule="evenodd"
        d="M27.4443 14.1113C28.3332 14.8521 29.1481 15.6669 29.8888 16.5558C29.9559 17.1245 29.8817 17.643 29.6666 18.1113C29.3659 17.7374 28.9954 17.4411 28.5554 17.2224C28.185 17.0743 27.8148 16.9262 27.4443 16.778C27.4443 15.8891 27.4443 15.0002 27.4443 14.1113Z"
        fill="#FFB634" />
    <path opacity="0.923" fill-rule="evenodd" clip-rule="evenodd"
        d="M14.111 14.7773C14.7121 15.0781 15.2306 15.4855 15.6666 15.9996C15.5925 16.0736 15.5184 16.1477 15.4443 16.2218C15.7406 16.3699 16.0369 16.5181 16.3332 16.6662C16.2592 16.7403 16.1851 16.8144 16.111 16.8885C16.5554 17.0366 16.8517 17.3329 16.9999 17.7773C17.2106 17.8846 17.4328 17.9217 17.6666 17.8885C18.1934 18.9473 18.6379 20.0584 18.9999 21.2218C18.7029 21.0407 18.4806 20.7815 18.3332 20.444C18.1226 20.3367 17.9003 20.2997 17.6666 20.3329C17.6912 20.1957 17.7652 20.0846 17.8888 19.9996C17.5381 19.7563 17.1678 19.5712 16.7777 19.444C16.9561 19.2389 16.9931 19.0166 16.8888 18.7773C16.8147 18.8514 16.7406 18.9255 16.6666 18.9996C16.158 18.7233 15.6765 18.2789 15.2221 17.6662C14.8206 16.8747 14.228 16.2821 13.4443 15.8885C13.6888 15.6532 13.9851 15.4681 14.3332 15.3329C14.166 15.1838 14.0919 14.9987 14.111 14.7773Z"
        fill="#FFA359" />
    <path fill-rule="evenodd" clip-rule="evenodd"
        d="M16.7778 15C17.2787 15.2034 17.7232 15.4996 18.1112 15.8889C18.0352 16.0752 17.8871 16.1492 17.6667 16.1111C17.4785 15.7853 17.1822 15.6001 16.7778 15.5556C17.0219 15.3845 17.0219 15.1993 16.7778 15Z"
        fill="#FFA850" />
    <path opacity="0.943" fill-rule="evenodd" clip-rule="evenodd"
        d="M13.2222 16.1109C13.2222 15.9627 13.2962 15.8887 13.4444 15.8887C14.2281 16.2824 14.8207 16.875 15.2222 17.6664C15.1481 17.6664 15.074 17.6664 14.9999 17.6664C14.6479 17.4705 14.2775 17.2853 13.8888 17.1109C13.689 16.7439 13.4667 16.4105 13.2222 16.1109Z"
        fill="#FFA25C" />
    <path opacity="0.898" fill-rule="evenodd" clip-rule="evenodd"
        d="M1.6665 16.1113C2.42486 16.827 3.23968 17.4936 4.11095 18.1113C4.40177 18.9082 4.69808 19.723 4.99984 20.5558C4.52937 20.1568 4.01086 19.7864 3.44428 19.4447C3.16502 18.9605 2.83168 18.516 2.44428 18.1113C2.37022 18.1854 2.29613 18.2595 2.22206 18.3336C2.20545 17.7924 2.02026 17.6443 1.6665 17.8891C1.6665 17.2965 1.6665 16.7039 1.6665 16.1113Z"
        fill="#FF907E" />
    <path opacity="0.869" fill-rule="evenodd" clip-rule="evenodd"
        d="M13.222 16.1113C13.4666 16.411 13.6888 16.7443 13.8887 17.1113C14.2773 17.2857 14.6477 17.4709 14.9998 17.6669C14.5919 18.1309 14.0734 18.4272 13.4442 18.5558C12.8714 18.0103 12.3529 17.4177 11.8887 16.778C12.2623 16.443 12.7068 16.2208 13.222 16.1113Z"
        fill="#FFA060" />
    <path opacity="0.884" fill-rule="evenodd" clip-rule="evenodd"
        d="M11.8889 16.7773C12.3532 17.417 12.8717 18.0096 13.4445 18.5551C13.1335 18.8639 12.7632 19.0862 12.3334 19.2218C12.3659 18.679 12.1807 18.5309 11.7778 18.7773C11.4511 18.3037 11.1177 17.8593 10.7778 17.444C11.1034 17.1692 11.4737 16.9469 11.8889 16.7773Z"
        fill="#FF9D65" />
    <path opacity="0.89" fill-rule="evenodd" clip-rule="evenodd"
        d="M27.4444 16.7773C27.8148 16.9255 28.1851 17.0736 28.5555 17.2218C28.5579 17.559 28.7059 17.8183 28.9999 17.9996C28.9259 18.0736 28.8517 18.1477 28.7777 18.2218C28.9884 18.3291 29.2106 18.3661 29.4444 18.3329C29.3917 18.6198 29.4657 18.842 29.6666 18.9996C29.5099 19.6338 29.2877 20.2264 28.9999 20.7773C28.8728 20.3873 28.6875 20.0169 28.4444 19.6662C28.2962 19.3699 28.1482 19.3699 27.9999 19.6662C27.8513 19.2017 27.5919 18.8314 27.2222 18.5551C27.3922 17.9782 27.4664 17.3856 27.4444 16.7773Z"
        fill="#FFB23B" />
    <path opacity="0.873" fill-rule="evenodd" clip-rule="evenodd"
        d="M28.5557 17.2227C28.9957 17.4413 29.3661 17.7376 29.6668 18.1115C29.6668 18.4078 29.6668 18.7041 29.6668 19.0004C29.4659 18.8429 29.3919 18.6207 29.4446 18.3338C29.2108 18.367 28.9886 18.3299 28.7779 18.2227C28.8519 18.1486 28.9261 18.0745 29.0001 18.0004C28.7061 17.8191 28.5581 17.5599 28.5557 17.2227Z"
        fill="#FFB537" />
    <path opacity="0.883" fill-rule="evenodd" clip-rule="evenodd"
        d="M10.7779 17.4443C11.1178 17.8596 11.4512 18.304 11.7779 18.7776C12.1808 18.5312 12.366 18.6793 12.3335 19.2221C12.2576 19.4083 12.1094 19.4824 11.8891 19.4443C11.5881 18.9563 11.1437 18.623 10.5557 18.4443C10.7039 18.3702 10.852 18.2961 11.0002 18.2221C10.6797 18.1383 10.4574 17.9532 10.3335 17.6665C10.4094 17.4802 10.5576 17.4062 10.7779 17.4443Z"
        fill="#FF9B68" />
    <path opacity="0.892" fill-rule="evenodd" clip-rule="evenodd"
        d="M4.99984 20.5555C5.3325 21.3699 5.77695 22.1106 6.33317 22.7777C6.09246 22.769 5.87024 22.6948 5.6665 22.5555C4.47246 21.1763 3.21319 19.843 1.88873 18.5555C1.87609 18.309 1.80201 18.0868 1.6665 17.8888C2.02026 17.644 2.20545 17.7921 2.22206 18.3332C2.29613 18.2592 2.37021 18.1851 2.44428 18.111C2.83168 18.5157 3.16501 18.9602 3.44428 19.4444C4.01086 19.7861 4.52937 20.1564 4.99984 20.5555Z"
        fill="#FF8F82" />
    <path opacity="0.9" fill-rule="evenodd" clip-rule="evenodd"
        d="M10.3333 17.667C10.4572 17.9536 10.6794 18.1388 10.9999 18.2225C10.8518 18.2966 10.7037 18.3707 10.5555 18.4448C11.1435 18.6235 11.5879 18.9568 11.8888 19.4448C11.3312 19.7075 11.0349 20.152 10.9999 20.7781C10.0976 20.255 9.50499 19.5883 9.22217 18.7781C9.42706 18.2634 9.79743 17.893 10.3333 17.667Z"
        fill="#FF996D" />
    <path fill-rule="evenodd" clip-rule="evenodd"
        d="M15.2223 17.667C15.6767 18.2796 16.1582 18.7241 16.6667 19.0003C16.7408 18.9263 16.8149 18.8522 16.889 18.7781C16.9933 19.0174 16.9563 19.2396 16.7779 19.4448C16.3849 19.1643 16.0145 18.9421 15.6667 18.7781C15.3487 18.4936 15.2005 18.1232 15.2223 17.667Z"
        fill="#FFA15C" />
    <path opacity="0.932" fill-rule="evenodd" clip-rule="evenodd"
        d="M1.88867 18.5557C3.21314 19.8432 4.47241 21.1765 5.66645 22.5557C5.87018 22.695 6.09241 22.7692 6.33312 22.7779C6.99674 23.8117 7.81154 24.7006 8.77756 25.4446C10.1109 26.8519 11.4442 28.2594 12.7776 29.6668C11.4215 29.4863 10.1622 29.0419 8.99978 28.3334C8.55774 27.4397 7.89107 26.7359 6.99978 26.2223C7.07385 26.1483 7.14794 26.0741 7.22201 26.0001C6.83543 25.6237 6.39098 25.3643 5.88867 25.2223C5.93734 24.9612 5.86327 24.739 5.66645 24.5557C4.69534 23.9534 3.88052 23.2128 3.22201 22.3334C2.51838 21.1867 2.07394 19.9274 1.88867 18.5557Z"
        fill="#FF8C86" />
    <path opacity="0.896" fill-rule="evenodd" clip-rule="evenodd"
        d="M27.2223 18.5557C27.5921 18.8319 27.8514 19.2023 28.0001 19.6668C28.1483 19.3705 28.2963 19.3705 28.4445 19.6668C28.6876 20.0174 28.8729 20.3878 29.0001 20.7779C28.9343 21.2008 28.7861 21.5712 28.5556 21.889C27.8936 21.2911 27.3009 20.7726 26.7778 20.3334C26.8807 19.7288 27.0287 19.1362 27.2223 18.5557Z"
        fill="#FFB041" />
    <path opacity="0.962" fill-rule="evenodd" clip-rule="evenodd"
        d="M9.22231 18.7773C9.50513 19.5876 10.0977 20.2543 11.0001 20.7773C11.2689 20.8734 11.4911 21.0215 11.6668 21.2218C11.812 21.5122 11.9601 21.8085 12.1112 22.1107C12.7051 22.4836 13.2236 22.928 13.6668 23.444C12.926 23.444 12.1853 23.444 11.4445 23.444C11.4445 23.2218 11.4445 22.9996 11.4445 22.7773C11.2108 22.8105 10.9885 22.7736 10.7779 22.6662C10.8519 22.5922 10.926 22.518 11.0001 22.444C10.3361 21.7624 9.6694 21.2439 9.00009 20.8885C9.07415 20.8144 9.14824 20.7403 9.22231 20.6662C8.92835 20.4849 8.78022 20.2257 8.77787 19.8885C8.69344 19.4 8.8416 19.0297 9.22231 18.7773Z"
        fill="#FF9672" />
    <path opacity="0.935" fill-rule="evenodd" clip-rule="evenodd"
        d="M15.6665 18.7773C16.0143 18.9413 16.3847 19.1635 16.7776 19.444C16.8517 19.9625 17.148 20.2588 17.6665 20.3329C18.2494 21.102 18.879 21.8427 19.5554 22.5551C19.6404 22.4316 19.7515 22.3576 19.8887 22.3329C20.0534 22.7449 20.2756 23.1153 20.5554 23.444C20.2943 23.3953 20.0721 23.4693 19.8887 23.6662C20.1281 24.1616 20.2762 24.6802 20.3332 25.2218C18.8593 24.0442 17.5259 22.7109 16.3332 21.2218C16.0658 20.4195 15.8435 19.6047 15.6665 18.7773Z"
        fill="#FFA060" />
    <path fill-rule="evenodd" clip-rule="evenodd"
        d="M16.7778 19.4443C17.1679 19.5715 17.5383 19.7567 17.8889 19.9999C17.7654 20.0849 17.6913 20.196 17.6667 20.3332C17.1482 20.2592 16.8519 19.9628 16.7778 19.4443Z"
        fill="#FFA25C" />
    <path opacity="0.995" fill-rule="evenodd" clip-rule="evenodd"
        d="M17.6665 20.3331C17.9003 20.2998 18.1225 20.3369 18.3332 20.4442C18.4806 20.7816 18.7028 21.0409 18.9998 21.222C19.3471 21.543 19.6434 21.9134 19.8887 22.3331C19.7515 22.3577 19.6404 22.4317 19.5554 22.5553C18.879 21.8429 18.2494 21.1021 17.6665 20.3331Z"
        fill="#FFA25C" />
    <path opacity="0.889" fill-rule="evenodd" clip-rule="evenodd"
        d="M26.7776 20.333C27.3007 20.7722 27.8934 21.2907 28.5554 21.8886C28.4023 22.4861 28.0318 22.8566 27.4443 22.9997C27.0481 22.8632 26.7518 22.6041 26.5554 22.2219C26.3447 22.1146 26.1225 22.0776 25.8887 22.1108C25.9036 21.7866 25.8296 21.4903 25.6665 21.2219C26.1765 21.0807 26.5467 20.7844 26.7776 20.333Z"
        fill="#FFAC47" />
    <path opacity="0.77" fill-rule="evenodd" clip-rule="evenodd"
        d="M8.7777 19.8887C8.78006 20.2259 8.92819 20.4851 9.22215 20.6664C9.14808 20.7405 9.07399 20.8146 8.99992 20.8887C9.66924 21.2441 10.3359 21.7626 10.9999 22.4442C10.9259 22.5182 10.8518 22.5924 10.7777 22.6664C10.9884 22.7738 11.2106 22.8107 11.4444 22.7776C11.4444 22.9998 11.4444 23.222 11.4444 23.4442C9.25299 23.1842 8.3641 21.999 8.7777 19.8887Z"
        fill="#FF9477" />
    <path opacity="0.972" fill-rule="evenodd" clip-rule="evenodd"
        d="M11.6665 21.2227C12.4072 21.2227 13.148 21.2227 13.8887 21.2227C14.1323 21.7264 14.5027 22.1339 14.9998 22.4449C14.9258 22.5189 14.8517 22.5931 14.7776 22.6671C15.2408 22.822 15.6112 23.0813 15.8887 23.4449C15.148 23.4449 14.4072 23.4449 13.6665 23.4449C13.2234 22.9289 12.7049 22.4844 12.1109 22.1115C11.9599 21.8093 11.8117 21.5131 11.6665 21.2227Z"
        fill="#FF996D" />
    <path opacity="0.974" fill-rule="evenodd" clip-rule="evenodd"
        d="M13.8887 21.2227C14.185 21.2227 14.4813 21.2227 14.7776 21.2227C15.3791 22.0193 16.0457 22.76 16.7776 23.4449C16.4813 23.4449 16.185 23.4449 15.8887 23.4449C15.6111 23.0813 15.2408 22.822 14.7776 22.6671C14.8516 22.5931 14.9257 22.5189 14.9998 22.4449C14.5026 22.1339 14.1323 21.7264 13.8887 21.2227Z"
        fill="#FF9B69" />
    <path opacity="0.955" fill-rule="evenodd" clip-rule="evenodd"
        d="M14.7778 21.2227C15.2963 21.2227 15.8149 21.2227 16.3334 21.2227C17.5262 22.7118 18.8595 24.0451 20.3334 25.2227C20.7257 25.8055 20.8739 26.4722 20.7778 27.2227C19.7627 26.2262 18.7257 25.2633 17.6667 24.3338C17.4961 24.1642 17.385 23.942 17.3334 23.6671C17.1843 23.5 16.9991 23.4258 16.7778 23.4449C16.046 22.76 15.3793 22.0193 14.7778 21.2227Z"
        fill="#FF9D65" />
    <path opacity="0.968" fill-rule="evenodd" clip-rule="evenodd"
        d="M19 21.2227C19.5926 21.2227 20.1852 21.2227 20.7778 21.2227C21.3774 22.1849 22.0441 22.9255 22.7778 23.4449C22.037 23.4449 21.2963 23.4449 20.5556 23.4449C20.2758 23.1162 20.0536 22.7458 19.8889 22.3338C19.6436 21.9141 19.3473 21.5437 19 21.2227Z"
        fill="#FFA35A" />
    <path opacity="0.971" fill-rule="evenodd" clip-rule="evenodd"
        d="M20.7778 21.2227C21.5186 21.2227 22.2594 21.2227 23.0001 21.2227C22.9709 21.3869 23.0081 21.535 23.1112 21.6671C23.5632 21.9385 23.9705 22.2349 24.3334 22.556C24.5529 22.8438 24.7752 23.14 25.0001 23.4449C24.2594 23.4449 23.5185 23.4449 22.7778 23.4449C22.0441 22.9255 21.3775 22.1849 20.7778 21.2227Z"
        fill="#FFA654" />
    <path opacity="0.982" fill-rule="evenodd" clip-rule="evenodd"
        d="M22.9998 21.2227C23.0738 21.2227 23.1481 21.2227 23.2221 21.2227C23.8985 21.3828 24.2689 21.8272 24.3332 22.556C23.9703 22.2349 23.5629 21.9385 23.1109 21.6671C23.0078 21.535 22.9707 21.3869 22.9998 21.2227Z"
        fill="#FFA850" />
    <path opacity="0.932" fill-rule="evenodd" clip-rule="evenodd"
        d="M23.2222 21.2227C24.0371 21.2227 24.8517 21.2227 25.6666 21.2227C25.8297 21.4911 25.9037 21.7874 25.8888 22.1115C26.1226 22.0783 26.3448 22.1154 26.5555 22.2227C26.7519 22.6049 27.0482 22.864 27.4444 23.0004C27.3515 23.1609 27.2035 23.272 26.9999 23.3338C26.3373 23.4444 25.6706 23.4815 24.9999 23.4449C24.7751 23.14 24.5528 22.8438 24.3333 22.556C24.2691 21.8272 23.8986 21.3828 23.2222 21.2227Z"
        fill="#FFA94D" />
    <path opacity="0.762" fill-rule="evenodd" clip-rule="evenodd"
        d="M3.22217 22.333C3.88068 23.2123 4.6955 23.953 5.66661 24.5552C5.86343 24.7386 5.9375 24.9608 5.88883 25.2219C6.39115 25.3639 6.83559 25.6232 7.22217 25.9997C7.1481 26.0737 7.07401 26.1479 6.99995 26.2219C7.89123 26.7355 8.5579 27.4392 8.99995 28.333C6.46495 26.9092 4.53903 24.9092 3.22217 22.333Z"
        fill="#FF8A8A" />
    <path opacity="0.926" fill-rule="evenodd" clip-rule="evenodd"
        d="M17.6665 24.333C18.7255 25.2626 19.7625 26.2255 20.7776 27.2219C20.8303 27.5088 20.7563 27.731 20.5554 27.8886C19.9387 27.1986 19.198 26.6801 18.3332 26.333C17.9787 25.7141 17.7565 25.0475 17.6665 24.333Z"
        fill="#FF9B69" />
    <path opacity="0.898" fill-rule="evenodd" clip-rule="evenodd"
        d="M8.77783 25.4443C9.59817 25.8979 10.413 26.3423 11.2223 26.7777C11.5634 27.3848 11.9708 27.9772 12.4445 28.5554C12.5186 28.4814 12.5927 28.4072 12.6667 28.3332C12.9714 28.9668 13.3788 29.4854 13.8889 29.8888C13.4908 29.9186 13.1205 29.8446 12.7778 29.6666C11.4445 28.2592 10.1112 26.8517 8.77783 25.4443Z"
        fill="#FF8F82" />
    <path opacity="0.885" fill-rule="evenodd" clip-rule="evenodd"
        d="M18.3331 26.333C19.198 26.6801 19.9387 27.1986 20.5553 27.8886C20.3479 28.5263 19.9776 29.045 19.4442 29.4441C18.7697 28.9155 18.2512 28.2488 17.8887 27.4441C18.2694 27.1919 18.4175 26.8215 18.3331 26.333Z"
        fill="#FF996D" />
    <path opacity="0.893" fill-rule="evenodd" clip-rule="evenodd"
        d="M11.2222 26.7773C11.9665 27.0002 12.7073 27.2225 13.4444 27.444C14.2622 28.2625 15.003 29.1513 15.6666 30.1107C15.074 30.0367 14.4814 29.9625 13.8888 29.8885C13.3787 29.4851 12.9713 28.9665 12.6666 28.3329C12.5925 28.4069 12.5185 28.4811 12.4444 28.5551C11.9707 27.9769 11.5633 27.3845 11.2222 26.7773Z"
        fill="#FF907E" />
    <path opacity="0.914" fill-rule="evenodd" clip-rule="evenodd"
        d="M13.4443 27.4443C14.1792 27.5668 14.9199 27.6408 15.6666 27.6666C16.0315 27.9561 16.4019 28.2523 16.7777 28.5554C17.074 28.9999 17.3703 29.4443 17.6666 29.8888C16.9899 29.8906 16.3233 29.9646 15.6666 30.111C15.0029 29.1517 14.2622 28.2628 13.4443 27.4443Z"
        fill="#FF9379" />
    <path opacity="0.886" fill-rule="evenodd" clip-rule="evenodd"
        d="M17.8887 27.4443C18.2512 28.249 18.7697 28.9157 19.4443 29.4443C19.0173 29.6361 18.5729 29.7841 18.1109 29.8888C18.1401 29.7246 18.103 29.5763 17.9998 29.4443C17.633 29.0643 17.2256 28.7679 16.7776 28.5554C16.4018 28.2523 16.0315 27.9561 15.6665 27.6666C16.4131 27.6408 17.1539 27.5668 17.8887 27.4443Z"
        fill="#FF9673" />
    <path opacity="0.906" fill-rule="evenodd" clip-rule="evenodd"
        d="M16.7778 28.5557C17.2258 28.7681 17.6332 29.0646 18.0001 29.4446C18.1032 29.5766 18.1403 29.7248 18.1112 29.889C17.963 29.889 17.8149 29.889 17.6667 29.889C17.3704 29.4446 17.0741 29.0001 16.7778 28.5557Z"
        fill="#FE9575" />
</svg>