<svg width="32" height="32" viewBox="0 0 32 32" fill="none" xmlns="http://www.w3.org/2000/svg">
    <path opacity="0.129" fill-rule="evenodd" clip-rule="evenodd"
        d="M15.7156 0.00345188C15.606 0.175768 15.4483 0.274219 15.2427 0.298805C15.3183 0.078191 15.4759 -0.0202601 15.7156 0.00345188Z"
        fill="#FCD4DD" />
    <path opacity="0.545" fill-rule="evenodd" clip-rule="evenodd"
        d="M16.1885 0.011053C16.4621 -0.0351126 16.6513 0.0633384 16.756 0.306406C16.5366 0.25792 16.3475 0.159469 16.1885 0.011053Z"
        fill="#FAC4D0" />
    <path fill-rule="evenodd" clip-rule="evenodd"
        d="M15.7157 0.015625C15.8733 0.015625 16.0309 0.015625 16.1886 0.015625C16.3476 0.164041 16.5368 0.262492 16.7561 0.310978C17.1317 0.633494 17.4154 1.0273 17.6074 1.49239C17.6312 1.86913 17.7573 2.19731 17.9857 2.4769C19.0821 4.66806 19.9492 6.96525 20.5867 9.36847C20.6789 9.85965 20.7578 10.3519 20.8232 10.8452C20.7601 10.8452 20.7286 10.878 20.7286 10.9437C18.9869 11.2017 17.5839 12.055 16.5196 13.5034C16.2102 13.9829 16.0367 14.5079 15.9994 15.0786C15.9679 15.0786 15.9363 15.0786 15.9048 15.0786C15.5154 13.4092 14.538 12.277 12.9727 11.6821C12.3663 11.4835 11.7672 11.2702 11.1756 11.0421C11.1919 10.9445 11.1603 10.8789 11.0811 10.8452C11.3445 9.76553 11.6598 8.69899 12.0269 7.64558C11.9837 7.60482 11.9521 7.5556 11.9323 7.4979C12.381 6.32607 12.7909 5.14466 13.1619 3.95367C13.4618 3.7549 13.5879 3.45955 13.5402 3.06761C13.7294 2.60817 13.9186 2.14873 14.1077 1.68929C14.397 1.51768 14.5861 1.25514 14.6752 0.901684C14.8329 0.671969 15.0221 0.475066 15.2428 0.310978C15.4484 0.286392 15.606 0.187941 15.7157 0.015625Z"
        fill="#F47A94" />
    <path fill-rule="evenodd" clip-rule="evenodd"
        d="M14.6752 0.890625C14.5861 1.24408 14.3969 1.50662 14.1077 1.67823C14.2059 1.3414 14.3951 1.07887 14.6752 0.890625Z"
        fill="#FAB2C0" />
    <path opacity="0.173" fill-rule="evenodd" clip-rule="evenodd"
        d="M17.6074 1.48438C17.7745 1.749 17.9321 2.02794 18.0803 2.32121C18.0278 2.35888 17.9963 2.4081 17.9858 2.46889C17.7573 2.18929 17.6313 1.86112 17.6074 1.48438Z"
        fill="#F9AEBE" />
    <path opacity="0.831" fill-rule="evenodd" clip-rule="evenodd"
        d="M13.5402 3.06348C13.5879 3.45542 13.4618 3.75077 13.1619 3.94954C13.2529 3.63014 13.379 3.33479 13.5402 3.06348Z"
        fill="#F9B0BF" />
    <path opacity="0.999" fill-rule="evenodd" clip-rule="evenodd"
        d="M26.2144 10.545C26.6558 10.6763 27.0971 10.6763 27.5386 10.545C28.4313 10.5061 29.3141 10.5717 30.1869 10.7419C30.4482 10.965 30.7634 11.0963 31.1328 11.1357C31.9172 11.4193 32.1694 12.01 31.8894 12.9079C31.7784 13.0077 31.7154 13.1389 31.7003 13.3017C31.6137 13.5236 31.4876 13.7205 31.3219 13.8924C31.0697 13.958 30.9121 14.1221 30.849 14.3846C30.1554 15.0738 29.4617 15.7629 28.7682 16.4521C28.6237 16.4449 28.5291 16.5106 28.4844 16.649C27.9723 17.3135 27.3733 17.8715 26.6873 18.3227C26.5275 18.3577 26.4329 18.4562 26.4036 18.618C26.1245 18.777 25.8724 18.9739 25.6469 19.2087C25.5025 19.2015 25.4079 19.2672 25.3631 19.4056C25.0166 19.6847 24.6382 19.9144 24.2281 20.0948C24.0658 20.1075 23.9081 20.1403 23.7552 20.1932C23.1081 19.0617 22.2568 18.1265 21.2014 17.3874C20.3448 16.9027 19.4304 16.7222 18.4585 16.8459C19.8682 16.0484 20.6405 14.8014 20.7758 13.1048C20.8309 12.381 20.8151 11.659 20.7285 10.9388C20.7285 10.8732 20.76 10.8404 20.8231 10.8404C21.2585 10.7535 21.6999 10.7206 22.1473 10.7419C22.5663 10.8759 22.9761 10.843 23.3769 10.6435C24.319 10.5525 25.2649 10.5196 26.2144 10.545Z"
        fill="#FBEC5B" />
    <path fill-rule="evenodd" clip-rule="evenodd"
        d="M27.5388 10.5389C27.0974 10.6701 26.656 10.6701 26.2146 10.5389C26.656 10.4076 27.0974 10.4076 27.5388 10.5389Z"
        fill="#FEF9CE" />
    <path fill-rule="evenodd" clip-rule="evenodd"
        d="M11.081 10.8441C11.1603 10.8778 11.1919 10.9433 11.1756 11.041C10.907 12.7434 11.2381 14.3186 12.1688 15.7666C12.5848 16.1515 13.0105 16.5125 13.4456 16.8496C12.5098 16.6473 11.6271 16.795 10.7973 17.2926C9.63183 18.1281 8.71758 19.1946 8.05436 20.4923C7.99127 20.5251 7.92827 20.5579 7.86519 20.5907C7.31565 20.0355 6.74815 19.494 6.16267 18.9663C5.58325 18.4867 4.98425 18.0274 4.36558 17.588C3.23558 16.4776 2.10057 15.3619 0.960552 14.2406C0.992049 14.2079 1.02364 14.175 1.05514 14.1422C0.719363 13.7599 0.419815 13.3498 0.156588 12.9116C0.0201979 12.4114 -0.0270941 11.9192 0.014712 11.4348C0.505981 10.8346 1.13657 10.5229 1.90639 10.4995C4.45468 10.3094 6.97695 10.3423 9.47312 10.598C9.97318 10.6626 10.4618 10.7775 10.9392 10.9425C11.0115 10.9356 11.0588 10.9029 11.081 10.8441Z"
        fill="#B197C4" />
    <path fill-rule="evenodd" clip-rule="evenodd"
        d="M23.3771 10.6394C22.9763 10.839 22.5665 10.8718 22.1475 10.7378C22.5385 10.6409 22.9484 10.6081 23.3771 10.6394Z"
        fill="#FDF296" />
    <path fill-rule="evenodd" clip-rule="evenodd"
        d="M30.187 10.7373C30.5461 10.7739 30.8614 10.9053 31.1329 11.1311C30.7635 11.0916 30.4483 10.9604 30.187 10.7373Z"
        fill="#FFF4A5" />
    <path fill-rule="evenodd" clip-rule="evenodd"
        d="M20.7285 10.9404C20.815 11.6606 20.8308 12.3825 20.7758 13.1064C20.6405 14.803 19.8682 16.05 18.4585 16.8475C18.1063 16.926 17.7595 17.0244 17.4181 17.1428C17.0128 17.2211 16.6028 17.2539 16.1885 17.2413C16.0186 16.5355 15.9555 15.8135 15.9993 15.0754C16.0366 14.5047 16.21 13.9796 16.5195 13.5002C17.5838 12.0517 18.9867 11.1985 20.7285 10.9404Z"
        fill="#FCC946" />
    <path fill-rule="evenodd" clip-rule="evenodd"
        d="M11.1757 11.0342C11.7672 11.2622 12.3663 11.4755 12.9728 11.6741C14.5381 12.2691 15.5155 13.4012 15.9049 15.0707C15.9436 15.8055 15.8806 16.5275 15.7157 17.2366C15.3014 17.2492 14.8914 17.2164 14.4861 17.1381C14.134 17.0597 13.7872 16.9612 13.4457 16.8428C13.0105 16.5057 12.5849 16.1447 12.1688 15.7598C11.2381 14.3118 10.9071 12.7366 11.1757 11.0342Z"
        fill="#AE5EA7" />
    <path opacity="0.024" fill-rule="evenodd" clip-rule="evenodd"
        d="M31.8896 12.9092C31.941 12.9151 31.9725 12.9479 31.9842 13.0076C31.9483 13.1763 31.8538 13.2747 31.7004 13.303C31.7156 13.1402 31.7786 13.009 31.8896 12.9092Z"
        fill="#FEFBE3" />
    <path opacity="0.227" fill-rule="evenodd" clip-rule="evenodd"
        d="M31.322 13.8936C31.196 14.0905 31.0383 14.2546 30.8491 14.3858C30.9122 14.1232 31.0698 13.9592 31.322 13.8936Z"
        fill="#FFFCE2" />
    <path opacity="0.298" fill-rule="evenodd" clip-rule="evenodd"
        d="M28.7684 16.4576C28.7236 16.596 28.629 16.6617 28.4846 16.6545C28.5294 16.516 28.6239 16.4504 28.7684 16.4576Z"
        fill="#FFFBE2" />
    <path fill-rule="evenodd" clip-rule="evenodd"
        d="M13.4457 16.8416C13.7872 16.9601 14.134 17.0585 14.4862 17.137C14.8135 17.3899 15.1604 17.6197 15.5266 17.8261C15.2868 18.6869 14.8769 19.4417 14.297 20.0905C13.1873 21.2002 11.8632 21.6105 10.3245 21.3211C9.52929 21.1492 8.77262 20.8702 8.05444 20.4843C8.71767 19.1866 9.63192 18.1201 10.7974 17.2846C11.6272 16.787 12.5099 16.6393 13.4457 16.8416Z"
        fill="#826EB0" />
    <path fill-rule="evenodd" clip-rule="evenodd"
        d="M15.9047 15.082C15.9362 15.082 15.9678 15.082 15.9993 15.082C15.9555 15.8201 16.0186 16.5422 16.1885 17.248C16.1885 17.2807 16.1885 17.3136 16.1885 17.3464C16.0308 17.3464 15.8732 17.3464 15.7156 17.3464C15.7156 17.3136 15.7156 17.2807 15.7156 17.248C15.8804 16.5388 15.9434 15.8169 15.9047 15.082Z"
        fill="#F0888E" />
    <path fill-rule="evenodd" clip-rule="evenodd"
        d="M18.4585 16.8385C19.4305 16.7148 20.3448 16.8953 21.2015 17.38C22.2568 18.119 23.1081 19.0543 23.7552 20.1858C22.3431 21.1749 20.7983 21.4866 19.1206 21.1211C18.4997 20.8153 17.9322 20.438 17.4181 19.9889C17.221 19.6113 17.0003 19.2502 16.756 18.906C16.6312 18.5494 16.5051 18.1884 16.3777 17.823C16.7119 17.5673 17.0587 17.3376 17.4181 17.1338C17.7596 17.0154 18.1064 16.917 18.4585 16.8385Z"
        fill="#94CB5B" />
    <path fill-rule="evenodd" clip-rule="evenodd"
        d="M14.4861 17.1445C14.8914 17.2228 15.3013 17.2556 15.7157 17.243C15.7157 17.2758 15.7157 17.3086 15.7157 17.3414C15.6273 17.4466 15.5957 17.5778 15.6211 17.7352C15.558 17.7352 15.5265 17.768 15.5265 17.8337C15.1603 17.6272 14.8134 17.3975 14.4861 17.1445Z"
        fill="#AF92C2" />
    <path fill-rule="evenodd" clip-rule="evenodd"
        d="M15.7156 17.332C15.8733 17.332 16.0308 17.332 16.1885 17.332C16.2579 17.451 16.2894 17.5822 16.2831 17.7258C16.2287 17.914 16.1341 18.0781 15.9994 18.2181C15.802 18.1113 15.6759 17.9473 15.621 17.7258C15.5957 17.5684 15.6273 17.4372 15.7156 17.332Z"
        fill="#F9FAF7" />
    <path fill-rule="evenodd" clip-rule="evenodd"
        d="M17.4181 17.1445C17.0586 17.3483 16.7119 17.578 16.3776 17.8337C16.3776 17.768 16.3461 17.7352 16.2831 17.7352C16.2894 17.5916 16.2579 17.4604 16.1885 17.3414C16.1885 17.3086 16.1885 17.2758 16.1885 17.243C16.6028 17.2556 17.0128 17.2228 17.4181 17.1445Z"
        fill="#F9EA57" />
    <path fill-rule="evenodd" clip-rule="evenodd"
        d="M15.621 17.7383C15.6758 17.9597 15.8019 18.1237 15.9993 18.2305C16.2491 18.4574 16.5014 18.6872 16.756 18.9197C17.0003 19.264 17.221 19.625 17.4181 20.0027C18.0867 21.5097 18.0078 22.9865 17.1816 24.433C16.8552 25.0145 16.4611 25.5396 15.9993 26.0082C14.1872 24.4196 13.6197 22.4505 14.2968 20.1011C14.8767 19.4523 15.2866 18.6975 15.5264 17.8367C15.5264 17.7711 15.5579 17.7383 15.621 17.7383Z"
        fill="#64AFD6" />
    <path opacity="0.012" fill-rule="evenodd" clip-rule="evenodd"
        d="M26.6873 18.3164C26.6873 18.5133 26.5927 18.6118 26.4036 18.6118C26.4329 18.4499 26.5275 18.3515 26.6873 18.3164Z"
        fill="#FFFBE1" />
    <path fill-rule="evenodd" clip-rule="evenodd"
        d="M16.2833 17.7383C16.3464 17.7383 16.3778 17.7711 16.3778 17.8367C16.5053 18.2022 16.6313 18.5631 16.7562 18.9197C16.5016 18.6872 16.2493 18.4574 15.9995 18.2305C16.1343 18.0905 16.2289 17.9264 16.2833 17.7383Z"
        fill="#9ED58B" />
    <path opacity="0.071" fill-rule="evenodd" clip-rule="evenodd"
        d="M25.647 19.2085C25.6023 19.347 25.5077 19.4126 25.3633 19.4054C25.408 19.267 25.5026 19.2014 25.647 19.2085Z"
        fill="#FFFCEA" />
    <path fill-rule="evenodd" clip-rule="evenodd"
        d="M17.4183 19.9893C17.9323 20.4383 18.4998 20.8157 19.1208 21.1214C20.7984 21.4869 22.3433 21.1752 23.7554 20.1862C23.9083 20.1332 24.066 20.1004 24.2283 20.0877C24.1243 20.1919 23.9981 20.274 23.85 20.3338C24.9665 23.1638 25.8965 26.0681 26.6402 29.0468C26.6872 29.3073 26.703 29.5698 26.6875 29.8344C26.5614 30.1297 26.5614 30.4251 26.6875 30.7204C26.6471 31.1493 26.4894 31.5266 26.2146 31.8526C25.6577 32.0078 25.0902 32.0406 24.5121 31.9511C22.0471 30.6708 19.6825 29.2268 17.4183 27.6192C16.897 27.1528 16.4241 26.6441 15.9995 26.0932C15.9995 26.0604 15.9995 26.0276 15.9995 25.9948C16.4613 25.5262 16.8554 25.0011 17.1818 24.4196C18.008 22.9731 18.0869 21.4963 17.4183 19.9893Z"
        fill="#9ED58F" />
    <path fill-rule="evenodd" clip-rule="evenodd"
        d="M14.2968 20.0986C13.6197 22.4481 14.1872 24.4171 15.9993 26.0057C15.9993 26.0385 15.9993 26.0714 15.9993 26.1041C15.8638 26.2354 15.7376 26.3831 15.621 26.5472C13.274 28.1468 10.8464 29.6236 8.33799 30.9775C7.78345 31.2137 7.21594 31.4106 6.63548 31.5682C5.06359 31.7939 4.4172 31.0883 4.69651 29.4515C5.01951 27.9807 5.47664 26.4875 6.06798 24.972C6.23719 24.089 6.55244 23.2357 7.01382 22.4122C6.90656 22.3122 6.93805 22.2465 7.1084 22.2153C7.06518 22.1746 7.03358 22.1253 7.01382 22.0677C7.27619 21.5529 7.55994 21.0606 7.86507 20.5909C7.92816 20.5581 7.99115 20.5252 8.05424 20.4924C8.77242 20.8784 9.52909 21.1574 10.3243 21.3293C11.8629 21.6186 13.1871 21.2084 14.2968 20.0986Z"
        fill="#8FAFD9" />
    <path fill-rule="evenodd" clip-rule="evenodd"
        d="M26.6873 29.835C26.8134 30.1303 26.8134 30.4257 26.6873 30.721C26.5613 30.4257 26.5613 30.1303 26.6873 29.835Z"
        fill="#CFEAC8" />
</svg>