<svg width="32" height="32" viewBox="0 0 32 32" fill="none" xmlns="http://www.w3.org/2000/svg">
    <g clip-path="url(#clip0_5431_45)">
        <path fill-rule="evenodd" clip-rule="evenodd"
            d="M-0.0710449 -0.0712891C10.5956 -0.0712891 21.2623 -0.0712891 31.929 -0.0712891C31.929 10.5954 31.929 21.262 31.929 31.9287C21.2623 31.9287 10.5956 31.9287 -0.0710449 31.9287C-0.0710449 21.262 -0.0710449 10.5954 -0.0710449 -0.0712891Z"
            fill="#037BBB" />
        <path fill-rule="evenodd" clip-rule="evenodd"
            d="M3.7688 3.76855C11.8755 3.76855 19.9821 3.76855 28.0888 3.76855C28.2353 11.8747 28.259 19.9813 28.1599 28.0886C20.039 28.2592 11.9086 28.2592 3.7688 28.0886C3.7688 19.9819 3.7688 11.8752 3.7688 3.76855Z"
            fill="#017DBA" />
        <path fill-rule="evenodd" clip-rule="evenodd"
            d="M7.89331 11.5908C11.5185 11.6144 14.197 13.2262 15.9289 16.4264C17.6623 13.2255 20.3409 11.6137 23.9644 11.5908C23.7498 16.0033 21.5216 18.8713 17.28 20.1953C15.4369 20.5399 13.7303 20.2081 12.16 19.1997C9.38498 17.4184 7.96276 14.882 7.89331 11.5908Z"
            fill="#FDFEFE" />
    </g>
    <defs>
        <clipPath id="clip0_5431_45">
            <rect width="32" height="32" fill="white" />
        </clipPath>
    </defs>
</svg>