<svg width="32" height="32" viewBox="0 0 32 32" fill="none" xmlns="http://www.w3.org/2000/svg">
    <g clip-path="url(#clip0_5003_67)">
        <rect width="32" height="32" fill="#FAFAFA" />
        <path
            d="M27.0223 4.96762C26.4451 4.8521 25.8679 4.73658 25.1752 4.73658C24.4825 4.73658 23.7898 4.8521 23.2126 5.19867C21.7118 6.12285 21.25 8.31778 21.25 8.31778C21.8272 8.54883 22.5199 8.54883 23.0972 8.54883C23.7898 8.54883 24.4825 8.43331 25.0597 8.08674C26.676 7.27808 27.0223 4.96762 27.0223 4.96762Z"
            fill="#76CE59" />
        <path
            d="M22.9824 4.62103V3.9279C22.5206 1.50192 19.8654 0.000125098 19.8654 0.000125098C19.8654 0.000125098 18.0182 2.31058 18.3645 4.62103C18.5954 6.12283 19.8654 7.27806 20.6735 7.97119C20.7889 7.5091 21.3662 5.54522 22.9824 4.62103Z"
            fill="#76CE59" />
        <path
            d="M13.9768 25.2996C18.4792 25.9927 22.6353 22.9891 23.328 18.4837C23.7898 15.2491 22.2889 12.0145 19.5182 10.2816L20.5572 8.77982C20.2109 8.54877 19.8646 8.31773 19.5182 7.97116L18.2483 9.704C16.0548 8.77982 13.515 9.01086 11.4369 10.0506L10.167 8.54877C10.3979 6.93145 10.167 3.58129 5.20281 3.00368C5.20281 3.00368 3.58655 7.74011 9.01256 9.12638L10.2825 10.7437C6.81907 13.5162 6.01094 18.5992 8.78166 22.1805C9.82068 23.4512 11.206 24.4909 12.7069 24.953C13.7459 25.2996 13.9768 25.2996 13.9768 25.2996ZM15.2467 22.527C12.3605 22.527 9.93613 20.2166 9.93613 17.213C9.93613 14.2094 12.2451 11.8989 15.2467 11.8989C18.1329 11.8989 20.5572 14.2094 20.5572 17.213C20.5572 20.2166 18.1329 22.527 15.2467 22.527Z"
            fill="#5B6770" />
        <path
            d="M11.899 24.4908L10.9754 25.7616C9.35917 25.9926 6.58844 27.1479 7.05023 31.9998C7.05023 31.9998 12.4762 32.1153 12.0144 26.4547L13.2844 24.7219"
            fill="#5B6770" />
    </g>
    <defs>
        <clipPath id="clip0_5003_67">
            <rect width="32" height="32" fill="white" />
        </clipPath>
    </defs>
</svg>