<svg width="32" height="32" viewBox="0 0 32 32" fill="none" xmlns="http://www.w3.org/2000/svg">
    <path fill-rule="evenodd" clip-rule="evenodd"
        d="M20.3817 0.643555C22.8602 1.35368 25.1617 2.68516 27.0206 4.46048L21.975 9.52012C21.0013 8.63246 19.8506 7.92233 18.6113 7.56727L20.3817 0.643555Z"
        fill="#DF2B51" />
    <path fill-rule="evenodd" clip-rule="evenodd"
        d="M14.0083 7.4785L12.1494 0.466019C14.6279 -0.15534 17.2835 -0.15534 19.762 0.466019L17.9031 7.38974C16.6639 7.12344 15.3361 7.12344 14.0083 7.4785Z"
        fill="#BE2130" />
    <path fill-rule="evenodd" clip-rule="evenodd"
        d="M13.3888 7.56727C12.1495 7.92233 10.9988 8.63246 10.0251 9.52012L4.97949 4.46048C6.83838 2.68516 9.13987 1.35368 11.6184 0.643555L13.3888 7.56727Z"
        fill="#E3502C" />
    <path fill-rule="evenodd" clip-rule="evenodd"
        d="M7.63555 13.4258L0.642578 11.5617C1.35073 9.07628 2.67851 6.76837 4.5374 4.9043L9.58296 9.96394C8.69777 10.9404 7.98963 12.0943 7.63555 13.4258Z"
        fill="#F19722" />
    <path fill-rule="evenodd" clip-rule="evenodd"
        d="M7.45769 17.9529L0.464723 19.8169C-0.154908 17.3315 -0.154908 14.6685 0.464723 12.1831L7.36918 14.0472C7.19214 15.2899 7.19214 16.6214 7.45769 17.9529Z"
        fill="#F9E21E" />
    <path fill-rule="evenodd" clip-rule="evenodd"
        d="M9.58233 21.9473L4.53677 27.0957C2.7664 25.2316 1.43862 22.9237 0.730469 20.4383L7.72344 18.5742C7.989 19.8169 8.69715 20.9709 9.58233 21.9473Z"
        fill="#88CF59" />
    <path fill-rule="evenodd" clip-rule="evenodd"
        d="M11.5295 31.3564C9.051 30.6463 6.74952 29.3148 4.89062 27.5395L10.0247 22.3911C10.9984 23.2788 12.1492 23.9889 13.3884 24.344L11.5295 31.3564Z"
        fill="#54AE3C" />
    <path fill-rule="evenodd" clip-rule="evenodd"
        d="M17.9031 24.5215L19.762 31.534C17.2835 32.1553 14.6279 32.1553 12.1494 31.534L14.0083 24.6103C15.3361 24.7878 16.6639 24.7878 17.9031 24.5215Z"
        fill="#29AB88" />
    <path fill-rule="evenodd" clip-rule="evenodd"
        d="M18.5234 24.3436C19.7627 23.9885 20.9134 23.2784 21.8871 22.3907L26.9327 27.4503C25.0738 29.2257 22.7723 30.5571 20.2938 31.2673L18.5234 24.3436ZM27.4638 27.0953L22.4183 22.0356Z"
        fill="#1D76BB" />
    <path fill-rule="evenodd" clip-rule="evenodd"
        d="M24.3657 18.5742L31.3587 20.4383C30.6506 22.9237 29.3228 25.2316 27.5524 27.0957L22.5068 22.0361C23.3035 20.9709 23.9231 19.8169 24.3657 18.5742Z"
        fill="#214497" />
    <path fill-rule="evenodd" clip-rule="evenodd"
        d="M24.542 14.0472L31.535 12.1831C32.1546 14.6685 32.1546 17.3315 31.535 19.8169L24.6305 17.9529C24.8075 16.6214 24.8075 15.2899 24.542 14.0472Z"
        fill="#862887" />
    <path fill-rule="evenodd" clip-rule="evenodd"
        d="M22.418 9.96394L27.4635 4.9043C29.2339 6.76837 30.5617 9.07628 31.2698 11.5617L24.3654 13.4258C23.9228 12.0943 23.3032 10.9404 22.418 9.96394Z"
        fill="#EF4481" />
</svg>