<svg width="32" height="32" viewBox="0 0 32 32" fill="none" xmlns="http://www.w3.org/2000/svg">
    <g clip-path="url(#clip0_5349_149)">
        <path
            d="M16 0C24.8366 0 32 7.16344 32 16C32 24.8366 24.8366 32 16 32C7.16344 32 0 24.8366 0 16C0 7.16344 7.16344 0 16 0ZM15.2099 14.7778L9.47347 19.9001C8.88254 20.3651 8.49481 21.1326 8.49481 21.9959C8.49481 23.4057 9.52902 24.5594 10.7931 24.5594H21.5739C22.8379 24.5594 23.8721 23.4057 23.8721 21.9959C23.8721 20.5858 22.8379 19.4325 21.5739 19.4325H13.4124C13.2914 19.4325 13.215 19.2875 13.2739 19.1695L15.3781 14.9566C15.455 14.8337 15.3165 14.6864 15.2099 14.7778ZM21.5739 7.42035H10.7931C9.52902 7.42035 8.49481 8.57366 8.49481 9.9838C8.49481 11.3936 9.52902 12.5473 10.7931 12.5473H18.9545C19.0755 12.5473 19.152 12.6922 19.093 12.8102L16.9888 17.0231C16.9119 17.146 17.0504 17.2933 17.157 17.202L22.8935 12.0789C23.4844 11.6135 23.8721 10.8464 23.8721 9.98304C23.8721 8.57328 22.8379 7.41959 21.5739 7.42035Z"
            fill="url(#paint0_linear_5349_149)" />
    </g>
    <defs>
        <linearGradient id="paint0_linear_5349_149" x1="1600" y1="0" x2="1600" y2="3200"
            gradientUnits="userSpaceOnUse">
            <stop stop-color="#24ADFF" />
            <stop offset="1" stop-color="#7B71FF" />
        </linearGradient>
        <clipPath id="clip0_5349_149">
            <rect width="32" height="32" fill="white" />
        </clipPath>
    </defs>
</svg>