<svg width="32" height="32" viewBox="0 0 32 32" fill="none" xmlns="http://www.w3.org/2000/svg">
    <g clip-path="url(#clip0_5072_115)">
        <path fill-rule="evenodd" clip-rule="evenodd"
            d="M-0.0800781 -0.0800781C10.5866 -0.0800781 21.2532 -0.0800781 31.9199 -0.0800781C31.9199 10.5866 31.9199 21.2532 31.9199 31.9199C21.2532 31.9199 10.5866 31.9199 -0.0800781 31.9199C-0.0800781 21.2532 -0.0800781 10.5866 -0.0800781 -0.0800781Z"
            fill="#FCFDFD" />
        <path fill-rule="evenodd" clip-rule="evenodd"
            d="M29.0394 23.92C28.8992 23.941 28.7925 23.8877 28.7194 23.76C28.1445 22.5565 27.531 21.383 26.8794 20.24C27.0742 18.8414 27.2077 17.4282 27.2794 16C27.0946 10.963 24.6946 7.44304 20.0794 5.44C14.0574 3.7312 9.39069 5.51787 6.07936 10.8C4.14517 15.3393 4.6785 19.5526 7.67936 23.44C10.9407 26.8138 14.8607 27.907 19.4394 26.72C21.084 26.1117 22.5773 25.2582 23.9194 24.16C25.5221 24.0269 27.1221 24.0534 28.7194 24.24C28.5043 24.5646 28.291 24.8846 28.0794 25.2C24.2773 29.8206 19.3707 31.7672 13.3594 31.04C7.37956 29.6997 3.35288 26.153 1.27936 20.4C-0.572277 12.0793 2.22772 5.91926 9.67936 1.92C17.3085 -0.791169 23.6285 0.995498 28.6394 7.28C32.0165 12.7377 32.1498 18.2843 29.0394 23.92Z"
            fill="#0E07B7" />
        <path fill-rule="evenodd" clip-rule="evenodd"
            d="M29.0405 23.92C28.8056 24.2578 28.8589 24.551 29.2005 24.8C28.8573 25.0062 28.484 25.1395 28.0805 25.2C28.2921 24.8846 28.5054 24.5646 28.7205 24.24C27.1232 24.0534 25.5232 24.0269 23.9205 24.16C22.5784 25.2582 21.0851 26.1117 19.4405 26.72C14.8618 27.907 10.9418 26.8138 7.68046 23.44C4.6796 19.5526 4.14627 15.3393 6.08046 10.8C9.39179 5.51787 14.0585 3.7312 20.0805 5.44C24.6957 7.44304 27.0957 10.963 27.2805 16C27.2088 17.4282 27.0753 18.8414 26.8805 20.24C27.5321 21.383 28.1456 22.5565 28.7205 23.76C28.7936 23.8877 28.9003 23.941 29.0405 23.92Z"
            fill="#F9F9FA" />
        <path fill-rule="evenodd" clip-rule="evenodd"
            d="M9.03906 10.4805C11.1818 11.4717 13.3151 12.5117 15.4391 13.6005C16.2927 14.3248 16.2394 14.9915 15.2791 15.6005C13.6713 14.2866 12.018 13.0066 10.3191 11.7605C9.82796 11.3761 9.4013 10.9494 9.03906 10.4805Z"
            fill="#09080F" />
        <path fill-rule="evenodd" clip-rule="evenodd"
            d="M9.03948 10.4796C9.40172 10.9486 9.82838 11.3752 10.3195 11.7596C12.0184 13.0058 13.6717 14.2858 15.2795 15.5996C14.1119 16.8473 12.9119 18.074 11.6795 19.2796C11.5361 19.6836 11.6161 20.0304 11.9195 20.3196C15.3192 20.9672 18.6792 21.7139 21.9995 22.5596C19.3886 24.9097 16.4019 25.5497 13.0395 24.4796C8.21769 22.3838 6.27102 18.7304 7.19948 13.5196C7.51078 12.4704 7.99078 11.5104 8.63948 10.6396C8.74681 10.5193 8.88014 10.4659 9.03948 10.4796Z"
            fill="#0D06B6" />
        <path fill-rule="evenodd" clip-rule="evenodd"
            d="M23.7594 20.3999C23.4733 20.4455 23.2066 20.3922 22.9594 20.2399C21.8039 19.2727 20.5771 18.3927 19.2794 17.5999C19.0328 17.3806 18.8194 17.1406 18.6394 16.8799C19.5981 15.8508 20.5848 14.8375 21.5994 13.8399C21.7314 13.4878 21.6514 13.1945 21.3594 12.9599C17.3371 11.9437 13.3371 10.877 9.35938 9.75991C12.3498 6.81211 15.8164 6.11878 19.7594 7.67991C24.1347 10.0792 25.7613 13.7326 24.6394 18.6399C24.3901 19.2586 24.0967 19.8454 23.7594 20.3999Z"
            fill="#0F07B6" />
        <path fill-rule="evenodd" clip-rule="evenodd"
            d="M18.6391 16.8799C18.8191 17.1405 19.0325 17.3805 19.2791 17.5999C20.5769 18.3927 21.8036 19.2727 22.9591 20.2399C23.2063 20.3922 23.473 20.4455 23.7591 20.3999C24.6114 21.23 25.5714 21.95 26.6391 22.5599C26.8727 22.6896 26.926 22.8231 26.7991 22.9599C23.9065 21.5608 21.0265 20.1476 18.1591 18.7199C17.6398 17.93 17.7998 17.3167 18.6391 16.8799Z"
            fill="#0B0B10" />
    </g>
    <defs>
        <clipPath id="clip0_5072_115">
            <rect width="32" height="32" fill="white" />
        </clipPath>
    </defs>
</svg>